<?xml version="1.0" encoding="utf-8" standalone="no"?>
<!DOCTYPE svg PUBLIC "-//W3C//DTD SVG 1.1//EN"
  "http://www.w3.org/Graphics/SVG/1.1/DTD/svg11.dtd">
<!-- Created with matplotlib (http://matplotlib.org/) -->
<svg height="485pt" version="1.1" viewBox="0 0 983 485" width="983pt" xmlns="http://www.w3.org/2000/svg" xmlns:xlink="http://www.w3.org/1999/xlink">
 <defs>
  <style type="text/css">
*{stroke-linecap:butt;stroke-linejoin:round;}
  </style>
 </defs>
 <g id="figure_1">
  <g id="patch_1">
   <path d="M 0 485.28 
L 983.52 485.28 
L 983.52 0 
L 0 0 
z
" style="fill:#ffffff;"/>
  </g>
  <g id="axes_1">
   <g id="patch_2">
    <path d="M 147.528 135.8784 
L 885.168 135.8784 
L 885.168 63.0864 
L 147.528 63.0864 
z
" style="fill:#ffffff;"/>
   </g>
   <g id="matplotlib.axis_1">
    <g id="xtick_1">
     <g id="line2d_1">
      <defs>
       <path d="M 0 0 
L 0 3.5 
" id="m4bbed3d772" style="stroke:#000000;stroke-width:0.8;"/>
      </defs>
      <g>
       <use style="stroke:#000000;stroke-width:0.8;" x="274.909149" xlink:href="#m4bbed3d772" y="135.8784"/>
      </g>
     </g>
    </g>
    <g id="xtick_2">
     <g id="line2d_2">
      <g>
       <use style="stroke:#000000;stroke-width:0.8;" x="408.41297" xlink:href="#m4bbed3d772" y="135.8784"/>
      </g>
     </g>
    </g>
    <g id="xtick_3">
     <g id="line2d_3">
      <g>
       <use style="stroke:#000000;stroke-width:0.8;" x="541.91679" xlink:href="#m4bbed3d772" y="135.8784"/>
      </g>
     </g>
    </g>
    <g id="xtick_4">
     <g id="line2d_4">
      <g>
       <use style="stroke:#000000;stroke-width:0.8;" x="675.420611" xlink:href="#m4bbed3d772" y="135.8784"/>
      </g>
     </g>
    </g>
    <g id="xtick_5">
     <g id="line2d_5">
      <g>
       <use style="stroke:#000000;stroke-width:0.8;" x="808.924432" xlink:href="#m4bbed3d772" y="135.8784"/>
      </g>
     </g>
    </g>
   </g>
   <g id="matplotlib.axis_2">
    <g id="ytick_1">
     <g id="line2d_6">
      <defs>
       <path d="M 0 0 
L -3.5 0 
" id="m2b91538555" style="stroke:#000000;stroke-width:0.8;"/>
      </defs>
      <g>
       <use style="stroke:#000000;stroke-width:0.8;" x="147.528" xlink:href="#m2b91538555" y="101.9521"/>
      </g>
     </g>
     <g id="text_1">
      <!-- 0 -->
      <defs>
       <path d="M 31.78125 66.40625 
Q 24.171875 66.40625 20.328125 58.90625 
Q 16.5 51.421875 16.5 36.375 
Q 16.5 21.390625 20.328125 13.890625 
Q 24.171875 6.390625 31.78125 6.390625 
Q 39.453125 6.390625 43.28125 13.890625 
Q 47.125 21.390625 47.125 36.375 
Q 47.125 51.421875 43.28125 58.90625 
Q 39.453125 66.40625 31.78125 66.40625 
z
M 31.78125 74.21875 
Q 44.046875 74.21875 50.515625 64.515625 
Q 56.984375 54.828125 56.984375 36.375 
Q 56.984375 17.96875 50.515625 8.265625 
Q 44.046875 -1.421875 31.78125 -1.421875 
Q 19.53125 -1.421875 13.0625 8.265625 
Q 6.59375 17.96875 6.59375 36.375 
Q 6.59375 54.828125 13.0625 64.515625 
Q 19.53125 74.21875 31.78125 74.21875 
z
" id="DejaVuSans-30"/>
      </defs>
      <g transform="translate(132.893 106.511163)scale(0.12 -0.12)">
       <use xlink:href="#DejaVuSans-30"/>
      </g>
     </g>
    </g>
    <g id="ytick_2">
     <g id="line2d_7">
      <g>
       <use style="stroke:#000000;stroke-width:0.8;" x="147.528" xlink:href="#m2b91538555" y="65.887588"/>
      </g>
     </g>
     <g id="text_2">
      <!-- 2 -->
      <defs>
       <path d="M 19.1875 8.296875 
L 53.609375 8.296875 
L 53.609375 0 
L 7.328125 0 
L 7.328125 8.296875 
Q 12.9375 14.109375 22.625 23.890625 
Q 32.328125 33.6875 34.8125 36.53125 
Q 39.546875 41.84375 41.421875 45.53125 
Q 43.3125 49.21875 43.3125 52.78125 
Q 43.3125 58.59375 39.234375 62.25 
Q 35.15625 65.921875 28.609375 65.921875 
Q 23.96875 65.921875 18.8125 64.3125 
Q 13.671875 62.703125 7.8125 59.421875 
L 7.8125 69.390625 
Q 13.765625 71.78125 18.9375 73 
Q 24.125 74.21875 28.421875 74.21875 
Q 39.75 74.21875 46.484375 68.546875 
Q 53.21875 62.890625 53.21875 53.421875 
Q 53.21875 48.921875 51.53125 44.890625 
Q 49.859375 40.875 45.40625 35.40625 
Q 44.1875 33.984375 37.640625 27.21875 
Q 31.109375 20.453125 19.1875 8.296875 
z
" id="DejaVuSans-32"/>
      </defs>
      <g transform="translate(132.893 70.446651)scale(0.12 -0.12)">
       <use xlink:href="#DejaVuSans-32"/>
      </g>
     </g>
    </g>
    <g id="text_3">
     <!-- Studentized -->
     <defs>
      <path d="M 53.515625 70.515625 
L 53.515625 60.890625 
Q 47.90625 63.578125 42.921875 64.890625 
Q 37.9375 66.21875 33.296875 66.21875 
Q 25.25 66.21875 20.875 63.09375 
Q 16.5 59.96875 16.5 54.203125 
Q 16.5 49.359375 19.40625 46.890625 
Q 22.3125 44.4375 30.421875 42.921875 
L 36.375 41.703125 
Q 47.40625 39.59375 52.65625 34.296875 
Q 57.90625 29 57.90625 20.125 
Q 57.90625 9.515625 50.796875 4.046875 
Q 43.703125 -1.421875 29.984375 -1.421875 
Q 24.8125 -1.421875 18.96875 -0.25 
Q 13.140625 0.921875 6.890625 3.21875 
L 6.890625 13.375 
Q 12.890625 10.015625 18.65625 8.296875 
Q 24.421875 6.59375 29.984375 6.59375 
Q 38.421875 6.59375 43.015625 9.90625 
Q 47.609375 13.234375 47.609375 19.390625 
Q 47.609375 24.75 44.3125 27.78125 
Q 41.015625 30.8125 33.5 32.328125 
L 27.484375 33.5 
Q 16.453125 35.6875 11.515625 40.375 
Q 6.59375 45.0625 6.59375 53.421875 
Q 6.59375 63.09375 13.40625 68.65625 
Q 20.21875 74.21875 32.171875 74.21875 
Q 37.3125 74.21875 42.625 73.28125 
Q 47.953125 72.359375 53.515625 70.515625 
z
" id="DejaVuSans-53"/>
      <path d="M 18.3125 70.21875 
L 18.3125 54.6875 
L 36.8125 54.6875 
L 36.8125 47.703125 
L 18.3125 47.703125 
L 18.3125 18.015625 
Q 18.3125 11.328125 20.140625 9.421875 
Q 21.96875 7.515625 27.59375 7.515625 
L 36.8125 7.515625 
L 36.8125 0 
L 27.59375 0 
Q 17.1875 0 13.234375 3.875 
Q 9.28125 7.765625 9.28125 18.015625 
L 9.28125 47.703125 
L 2.6875 47.703125 
L 2.6875 54.6875 
L 9.28125 54.6875 
L 9.28125 70.21875 
z
" id="DejaVuSans-74"/>
      <path d="M 8.5 21.578125 
L 8.5 54.6875 
L 17.484375 54.6875 
L 17.484375 21.921875 
Q 17.484375 14.15625 20.5 10.265625 
Q 23.53125 6.390625 29.59375 6.390625 
Q 36.859375 6.390625 41.078125 11.03125 
Q 45.3125 15.671875 45.3125 23.6875 
L 45.3125 54.6875 
L 54.296875 54.6875 
L 54.296875 0 
L 45.3125 0 
L 45.3125 8.40625 
Q 42.046875 3.421875 37.71875 1 
Q 33.40625 -1.421875 27.6875 -1.421875 
Q 18.265625 -1.421875 13.375 4.4375 
Q 8.5 10.296875 8.5 21.578125 
z
M 31.109375 56 
z
" id="DejaVuSans-75"/>
      <path d="M 45.40625 46.390625 
L 45.40625 75.984375 
L 54.390625 75.984375 
L 54.390625 0 
L 45.40625 0 
L 45.40625 8.203125 
Q 42.578125 3.328125 38.25 0.953125 
Q 33.9375 -1.421875 27.875 -1.421875 
Q 17.96875 -1.421875 11.734375 6.484375 
Q 5.515625 14.40625 5.515625 27.296875 
Q 5.515625 40.1875 11.734375 48.09375 
Q 17.96875 56 27.875 56 
Q 33.9375 56 38.25 53.625 
Q 42.578125 51.265625 45.40625 46.390625 
z
M 14.796875 27.296875 
Q 14.796875 17.390625 18.875 11.75 
Q 22.953125 6.109375 30.078125 6.109375 
Q 37.203125 6.109375 41.296875 11.75 
Q 45.40625 17.390625 45.40625 27.296875 
Q 45.40625 37.203125 41.296875 42.84375 
Q 37.203125 48.484375 30.078125 48.484375 
Q 22.953125 48.484375 18.875 42.84375 
Q 14.796875 37.203125 14.796875 27.296875 
z
" id="DejaVuSans-64"/>
      <path d="M 56.203125 29.59375 
L 56.203125 25.203125 
L 14.890625 25.203125 
Q 15.484375 15.921875 20.484375 11.0625 
Q 25.484375 6.203125 34.421875 6.203125 
Q 39.59375 6.203125 44.453125 7.46875 
Q 49.3125 8.734375 54.109375 11.28125 
L 54.109375 2.78125 
Q 49.265625 0.734375 44.1875 -0.34375 
Q 39.109375 -1.421875 33.890625 -1.421875 
Q 20.796875 -1.421875 13.15625 6.1875 
Q 5.515625 13.8125 5.515625 26.8125 
Q 5.515625 40.234375 12.765625 48.109375 
Q 20.015625 56 32.328125 56 
Q 43.359375 56 49.78125 48.890625 
Q 56.203125 41.796875 56.203125 29.59375 
z
M 47.21875 32.234375 
Q 47.125 39.59375 43.09375 43.984375 
Q 39.0625 48.390625 32.421875 48.390625 
Q 24.90625 48.390625 20.390625 44.140625 
Q 15.875 39.890625 15.1875 32.171875 
z
" id="DejaVuSans-65"/>
      <path d="M 54.890625 33.015625 
L 54.890625 0 
L 45.90625 0 
L 45.90625 32.71875 
Q 45.90625 40.484375 42.875 44.328125 
Q 39.84375 48.1875 33.796875 48.1875 
Q 26.515625 48.1875 22.3125 43.546875 
Q 18.109375 38.921875 18.109375 30.90625 
L 18.109375 0 
L 9.078125 0 
L 9.078125 54.6875 
L 18.109375 54.6875 
L 18.109375 46.1875 
Q 21.34375 51.125 25.703125 53.5625 
Q 30.078125 56 35.796875 56 
Q 45.21875 56 50.046875 50.171875 
Q 54.890625 44.34375 54.890625 33.015625 
z
" id="DejaVuSans-6e"/>
      <path d="M 9.421875 54.6875 
L 18.40625 54.6875 
L 18.40625 0 
L 9.421875 0 
z
M 9.421875 75.984375 
L 18.40625 75.984375 
L 18.40625 64.59375 
L 9.421875 64.59375 
z
" id="DejaVuSans-69"/>
      <path d="M 5.515625 54.6875 
L 48.1875 54.6875 
L 48.1875 46.484375 
L 14.40625 7.171875 
L 48.1875 7.171875 
L 48.1875 0 
L 4.296875 0 
L 4.296875 8.203125 
L 38.09375 47.515625 
L 5.515625 47.515625 
z
" id="DejaVuSans-7a"/>
     </defs>
     <g transform="translate(112.96 135.41865)rotate(-90)scale(0.12 -0.12)">
      <use xlink:href="#DejaVuSans-53"/>
      <use x="63.476562" xlink:href="#DejaVuSans-74"/>
      <use x="102.685547" xlink:href="#DejaVuSans-75"/>
      <use x="166.064453" xlink:href="#DejaVuSans-64"/>
      <use x="229.541016" xlink:href="#DejaVuSans-65"/>
      <use x="291.064453" xlink:href="#DejaVuSans-6e"/>
      <use x="354.443359" xlink:href="#DejaVuSans-74"/>
      <use x="393.652344" xlink:href="#DejaVuSans-69"/>
      <use x="421.435547" xlink:href="#DejaVuSans-7a"/>
      <use x="473.925781" xlink:href="#DejaVuSans-65"/>
      <use x="535.449219" xlink:href="#DejaVuSans-64"/>
     </g>
     <!-- Residuals -->
     <defs>
      <path d="M 44.390625 34.1875 
Q 47.5625 33.109375 50.5625 29.59375 
Q 53.5625 26.078125 56.59375 19.921875 
L 66.609375 0 
L 56 0 
L 46.6875 18.703125 
Q 43.0625 26.03125 39.671875 28.421875 
Q 36.28125 30.8125 30.421875 30.8125 
L 19.671875 30.8125 
L 19.671875 0 
L 9.8125 0 
L 9.8125 72.90625 
L 32.078125 72.90625 
Q 44.578125 72.90625 50.734375 67.671875 
Q 56.890625 62.453125 56.890625 51.90625 
Q 56.890625 45.015625 53.6875 40.46875 
Q 50.484375 35.9375 44.390625 34.1875 
z
M 19.671875 64.796875 
L 19.671875 38.921875 
L 32.078125 38.921875 
Q 39.203125 38.921875 42.84375 42.21875 
Q 46.484375 45.515625 46.484375 51.90625 
Q 46.484375 58.296875 42.84375 61.546875 
Q 39.203125 64.796875 32.078125 64.796875 
z
" id="DejaVuSans-52"/>
      <path d="M 44.28125 53.078125 
L 44.28125 44.578125 
Q 40.484375 46.53125 36.375 47.5 
Q 32.28125 48.484375 27.875 48.484375 
Q 21.1875 48.484375 17.84375 46.4375 
Q 14.5 44.390625 14.5 40.28125 
Q 14.5 37.15625 16.890625 35.375 
Q 19.28125 33.59375 26.515625 31.984375 
L 29.59375 31.296875 
Q 39.15625 29.25 43.1875 25.515625 
Q 47.21875 21.78125 47.21875 15.09375 
Q 47.21875 7.46875 41.1875 3.015625 
Q 35.15625 -1.421875 24.609375 -1.421875 
Q 20.21875 -1.421875 15.453125 -0.5625 
Q 10.6875 0.296875 5.421875 2 
L 5.421875 11.28125 
Q 10.40625 8.6875 15.234375 7.390625 
Q 20.0625 6.109375 24.8125 6.109375 
Q 31.15625 6.109375 34.5625 8.28125 
Q 37.984375 10.453125 37.984375 14.40625 
Q 37.984375 18.0625 35.515625 20.015625 
Q 33.0625 21.96875 24.703125 23.78125 
L 21.578125 24.515625 
Q 13.234375 26.265625 9.515625 29.90625 
Q 5.8125 33.546875 5.8125 39.890625 
Q 5.8125 47.609375 11.28125 51.796875 
Q 16.75 56 26.8125 56 
Q 31.78125 56 36.171875 55.265625 
Q 40.578125 54.546875 44.28125 53.078125 
z
" id="DejaVuSans-73"/>
      <path d="M 34.28125 27.484375 
Q 23.390625 27.484375 19.1875 25 
Q 14.984375 22.515625 14.984375 16.5 
Q 14.984375 11.71875 18.140625 8.90625 
Q 21.296875 6.109375 26.703125 6.109375 
Q 34.1875 6.109375 38.703125 11.40625 
Q 43.21875 16.703125 43.21875 25.484375 
L 43.21875 27.484375 
z
M 52.203125 31.203125 
L 52.203125 0 
L 43.21875 0 
L 43.21875 8.296875 
Q 40.140625 3.328125 35.546875 0.953125 
Q 30.953125 -1.421875 24.3125 -1.421875 
Q 15.921875 -1.421875 10.953125 3.296875 
Q 6 8.015625 6 15.921875 
Q 6 25.140625 12.171875 29.828125 
Q 18.359375 34.515625 30.609375 34.515625 
L 43.21875 34.515625 
L 43.21875 35.40625 
Q 43.21875 41.609375 39.140625 45 
Q 35.0625 48.390625 27.6875 48.390625 
Q 23 48.390625 18.546875 47.265625 
Q 14.109375 46.140625 10.015625 43.890625 
L 10.015625 52.203125 
Q 14.9375 54.109375 19.578125 55.046875 
Q 24.21875 56 28.609375 56 
Q 40.484375 56 46.34375 49.84375 
Q 52.203125 43.703125 52.203125 31.203125 
z
" id="DejaVuSans-61"/>
      <path d="M 9.421875 75.984375 
L 18.40625 75.984375 
L 18.40625 0 
L 9.421875 0 
z
" id="DejaVuSans-6c"/>
     </defs>
     <g transform="translate(126.397375 128.213025)rotate(-90)scale(0.12 -0.12)">
      <use xlink:href="#DejaVuSans-52"/>
      <use x="69.419922" xlink:href="#DejaVuSans-65"/>
      <use x="130.943359" xlink:href="#DejaVuSans-73"/>
      <use x="183.042969" xlink:href="#DejaVuSans-69"/>
      <use x="210.826172" xlink:href="#DejaVuSans-64"/>
      <use x="274.302734" xlink:href="#DejaVuSans-75"/>
      <use x="337.681641" xlink:href="#DejaVuSans-61"/>
      <use x="398.960938" xlink:href="#DejaVuSans-6c"/>
      <use x="426.744141" xlink:href="#DejaVuSans-73"/>
     </g>
    </g>
   </g>
   <g id="LineCollection_1">
    <path clip-path="url(#p885615a4ca)" d="M 174.848 103.717146 
L 174.848 67.652634 
" style="fill:none;stroke:#0000ff;stroke-width:1.5;"/>
    <path clip-path="url(#p885615a4ca)" d="M 182.78986 116.935079 
L 182.78986 80.870567 
" style="fill:none;stroke:#0000ff;stroke-width:1.5;"/>
    <path clip-path="url(#p885615a4ca)" d="M 190.731721 132.342353 
L 190.731721 96.277841 
" style="fill:none;stroke:#0000ff;stroke-width:1.5;"/>
    <path clip-path="url(#p885615a4ca)" d="M 198.673581 100.411314 
L 198.673581 64.346802 
" style="fill:none;stroke:#0000ff;stroke-width:1.5;"/>
    <path clip-path="url(#p885615a4ca)" d="M 206.615442 104.892846 
L 206.615442 68.828334 
" style="fill:none;stroke:#0000ff;stroke-width:1.5;"/>
    <path clip-path="url(#p885615a4ca)" d="M 214.557302 108.970891 
L 214.557302 72.906379 
" style="fill:none;stroke:#0000ff;stroke-width:1.5;"/>
    <path clip-path="url(#p885615a4ca)" d="M 222.499163 93.316867 
L 222.499163 57.252355 
" style="fill:none;stroke:#0000ff;stroke-width:1.5;"/>
    <path clip-path="url(#p885615a4ca)" d="M 230.441023 114.205523 
L 230.441023 78.141011 
" style="fill:none;stroke:#0000ff;stroke-width:1.5;"/>
    <path clip-path="url(#p885615a4ca)" d="M 238.382884 118.006571 
L 238.382884 81.942059 
" style="fill:none;stroke:#0000ff;stroke-width:1.5;"/>
    <path clip-path="url(#p885615a4ca)" d="M 246.324744 109.970319 
L 246.324744 73.905807 
" style="fill:none;stroke:#0000ff;stroke-width:1.5;"/>
    <path clip-path="url(#p885615a4ca)" d="M 254.266605 132.027108 
L 254.266605 95.962596 
" style="fill:none;stroke:#0000ff;stroke-width:1.5;"/>
    <path clip-path="url(#p885615a4ca)" d="M 262.208465 125.468245 
L 262.208465 89.403733 
" style="fill:none;stroke:#0000ff;stroke-width:1.5;"/>
    <path clip-path="url(#p885615a4ca)" d="M 270.150326 120.037102 
L 270.150326 83.97259 
" style="fill:none;stroke:#0000ff;stroke-width:1.5;"/>
    <path clip-path="url(#p885615a4ca)" d="M 278.092186 121.392544 
L 278.092186 85.328032 
" style="fill:none;stroke:#0000ff;stroke-width:1.5;"/>
    <path clip-path="url(#p885615a4ca)" d="M 286.034047 112.524323 
L 286.034047 76.459811 
" style="fill:none;stroke:#0000ff;stroke-width:1.5;"/>
    <path clip-path="url(#p885615a4ca)" d="M 293.975907 130.254404 
L 293.975907 94.189892 
" style="fill:none;stroke:#0000ff;stroke-width:1.5;"/>
    <path clip-path="url(#p885615a4ca)" d="M 301.917767 118.052636 
L 301.917767 81.988124 
" style="fill:none;stroke:#0000ff;stroke-width:1.5;"/>
    <path clip-path="url(#p885615a4ca)" d="M 309.859628 118.861943 
L 309.859628 82.797432 
" style="fill:none;stroke:#0000ff;stroke-width:1.5;"/>
    <path clip-path="url(#p885615a4ca)" d="M 317.801488 114.233087 
L 317.801488 78.168575 
" style="fill:none;stroke:#0000ff;stroke-width:1.5;"/>
    <path clip-path="url(#p885615a4ca)" d="M 325.743349 109.544357 
L 325.743349 73.479845 
" style="fill:none;stroke:#0000ff;stroke-width:1.5;"/>
    <path clip-path="url(#p885615a4ca)" d="M 333.685209 117.098234 
L 333.685209 81.033722 
" style="fill:none;stroke:#0000ff;stroke-width:1.5;"/>
    <path clip-path="url(#p885615a4ca)" d="M 341.62707 136.992687 
L 341.62707 100.928175 
" style="fill:none;stroke:#0000ff;stroke-width:1.5;"/>
    <path clip-path="url(#p885615a4ca)" d="M 349.56893 86.401013 
L 349.56893 50.336501 
" style="fill:none;stroke:#0000ff;stroke-width:1.5;"/>
    <path clip-path="url(#p885615a4ca)" d="M 357.510791 131.742455 
L 357.510791 95.677943 
" style="fill:none;stroke:#0000ff;stroke-width:1.5;"/>
    <path clip-path="url(#p885615a4ca)" d="M 365.452651 123.945425 
L 365.452651 87.880913 
" style="fill:none;stroke:#0000ff;stroke-width:1.5;"/>
    <path clip-path="url(#p885615a4ca)" d="M 373.394512 133.766744 
L 373.394512 97.702232 
" style="fill:none;stroke:#0000ff;stroke-width:1.5;"/>
    <path clip-path="url(#p885615a4ca)" d="M 381.336372 124.929315 
L 381.336372 88.864804 
" style="fill:none;stroke:#0000ff;stroke-width:1.5;"/>
    <path clip-path="url(#p885615a4ca)" d="M 389.278233 120.146189 
L 389.278233 84.081677 
" style="fill:none;stroke:#0000ff;stroke-width:1.5;"/>
    <path clip-path="url(#p885615a4ca)" d="M 397.220093 122.575642 
L 397.220093 86.51113 
" style="fill:none;stroke:#0000ff;stroke-width:1.5;"/>
    <path clip-path="url(#p885615a4ca)" d="M 405.161953 144.305876 
L 405.161953 108.241364 
" style="fill:none;stroke:#0000ff;stroke-width:1.5;"/>
    <path clip-path="url(#p885615a4ca)" d="M 413.103814 126.393108 
L 413.103814 90.328596 
" style="fill:none;stroke:#0000ff;stroke-width:1.5;"/>
    <path clip-path="url(#p885615a4ca)" d="M 421.045674 151.214656 
L 421.045674 115.150144 
" style="fill:none;stroke:#0000ff;stroke-width:1.5;"/>
    <path clip-path="url(#p885615a4ca)" d="M 428.987535 142.830149 
L 428.987535 106.765637 
" style="fill:none;stroke:#0000ff;stroke-width:1.5;"/>
    <path clip-path="url(#p885615a4ca)" d="M 436.929395 127.962967 
L 436.929395 91.898455 
" style="fill:none;stroke:#0000ff;stroke-width:1.5;"/>
    <path clip-path="url(#p885615a4ca)" d="M 444.871256 133.725025 
L 444.871256 97.660513 
" style="fill:none;stroke:#0000ff;stroke-width:1.5;"/>
    <path clip-path="url(#p885615a4ca)" d="M 452.813116 111.705419 
L 452.813116 75.640907 
" style="fill:none;stroke:#0000ff;stroke-width:1.5;"/>
    <path clip-path="url(#p885615a4ca)" d="M 460.754977 118.007749 
L 460.754977 81.943237 
" style="fill:none;stroke:#0000ff;stroke-width:1.5;"/>
    <path clip-path="url(#p885615a4ca)" d="M 468.696837 90.314646 
L 468.696837 54.250134 
" style="fill:none;stroke:#0000ff;stroke-width:1.5;"/>
    <path clip-path="url(#p885615a4ca)" d="M 476.638698 124.542548 
L 476.638698 88.478036 
" style="fill:none;stroke:#0000ff;stroke-width:1.5;"/>
    <path clip-path="url(#p885615a4ca)" d="M 484.580558 123.784056 
L 484.580558 87.719544 
" style="fill:none;stroke:#0000ff;stroke-width:1.5;"/>
    <path clip-path="url(#p885615a4ca)" d="M 492.522419 120.97991 
L 492.522419 84.915398 
" style="fill:none;stroke:#0000ff;stroke-width:1.5;"/>
    <path clip-path="url(#p885615a4ca)" d="M 500.464279 131.240539 
L 500.464279 95.176027 
" style="fill:none;stroke:#0000ff;stroke-width:1.5;"/>
    <path clip-path="url(#p885615a4ca)" d="M 508.40614 123.724135 
L 508.40614 87.659623 
" style="fill:none;stroke:#0000ff;stroke-width:1.5;"/>
    <path clip-path="url(#p885615a4ca)" d="M 516.348 94.530164 
L 516.348 58.465652 
" style="fill:none;stroke:#0000ff;stroke-width:1.5;"/>
    <path clip-path="url(#p885615a4ca)" d="M 524.28986 141.165657 
L 524.28986 105.101145 
" style="fill:none;stroke:#0000ff;stroke-width:1.5;"/>
    <path clip-path="url(#p885615a4ca)" d="M 532.231721 116.217579 
L 532.231721 80.153067 
" style="fill:none;stroke:#0000ff;stroke-width:1.5;"/>
    <path clip-path="url(#p885615a4ca)" d="M 540.173581 142.576149 
L 540.173581 106.511637 
" style="fill:none;stroke:#0000ff;stroke-width:1.5;"/>
    <path clip-path="url(#p885615a4ca)" d="M 548.115442 108.077693 
L 548.115442 72.013181 
" style="fill:none;stroke:#0000ff;stroke-width:1.5;"/>
    <path clip-path="url(#p885615a4ca)" d="M 556.057302 124.525972 
L 556.057302 88.46146 
" style="fill:none;stroke:#0000ff;stroke-width:1.5;"/>
    <path clip-path="url(#p885615a4ca)" d="M 563.999163 110.66783 
L 563.999163 74.603318 
" style="fill:none;stroke:#0000ff;stroke-width:1.5;"/>
    <path clip-path="url(#p885615a4ca)" d="M 571.941023 106.500735 
L 571.941023 70.436223 
" style="fill:none;stroke:#0000ff;stroke-width:1.5;"/>
    <path clip-path="url(#p885615a4ca)" d="M 579.882884 105.175971 
L 579.882884 69.111459 
" style="fill:none;stroke:#0000ff;stroke-width:1.5;"/>
    <path clip-path="url(#p885615a4ca)" d="M 587.824744 112.581707 
L 587.824744 76.517195 
" style="fill:none;stroke:#0000ff;stroke-width:1.5;"/>
    <path clip-path="url(#p885615a4ca)" d="M 595.766605 97.048073 
L 595.766605 60.983561 
" style="fill:none;stroke:#0000ff;stroke-width:1.5;"/>
    <path clip-path="url(#p885615a4ca)" d="M 603.708465 122.493326 
L 603.708465 86.428814 
" style="fill:none;stroke:#0000ff;stroke-width:1.5;"/>
    <path clip-path="url(#p885615a4ca)" d="M 611.650326 118.647665 
L 611.650326 82.583153 
" style="fill:none;stroke:#0000ff;stroke-width:1.5;"/>
    <path clip-path="url(#p885615a4ca)" d="M 619.592186 117.084058 
L 619.592186 81.019546 
" style="fill:none;stroke:#0000ff;stroke-width:1.5;"/>
    <path clip-path="url(#p885615a4ca)" d="M 627.534047 83.814656 
L 627.534047 47.750144 
" style="fill:none;stroke:#0000ff;stroke-width:1.5;"/>
    <path clip-path="url(#p885615a4ca)" d="M 635.475907 118.759316 
L 635.475907 82.694804 
" style="fill:none;stroke:#0000ff;stroke-width:1.5;"/>
    <path clip-path="url(#p885615a4ca)" d="M 643.417767 129.406942 
L 643.417767 93.34243 
" style="fill:none;stroke:#0000ff;stroke-width:1.5;"/>
    <path clip-path="url(#p885615a4ca)" d="M 651.359628 90.237072 
L 651.359628 54.17256 
" style="fill:none;stroke:#0000ff;stroke-width:1.5;"/>
    <path clip-path="url(#p885615a4ca)" d="M 659.301488 128.63814 
L 659.301488 92.573628 
" style="fill:none;stroke:#0000ff;stroke-width:1.5;"/>
    <path clip-path="url(#p885615a4ca)" d="M 667.243349 132.162586 
L 667.243349 96.098074 
" style="fill:none;stroke:#0000ff;stroke-width:1.5;"/>
    <path clip-path="url(#p885615a4ca)" d="M 675.185209 149.536469 
L 675.185209 113.471957 
" style="fill:none;stroke:#0000ff;stroke-width:1.5;"/>
    <path clip-path="url(#p885615a4ca)" d="M 683.12707 122.695765 
L 683.12707 86.631253 
" style="fill:none;stroke:#0000ff;stroke-width:1.5;"/>
    <path clip-path="url(#p885615a4ca)" d="M 691.06893 125.755862 
L 691.06893 89.69135 
" style="fill:none;stroke:#0000ff;stroke-width:1.5;"/>
    <path clip-path="url(#p885615a4ca)" d="M 699.010791 101.985623 
L 699.010791 65.921111 
" style="fill:none;stroke:#0000ff;stroke-width:1.5;"/>
    <path clip-path="url(#p885615a4ca)" d="M 706.952651 100.631447 
L 706.952651 64.566935 
" style="fill:none;stroke:#0000ff;stroke-width:1.5;"/>
    <path clip-path="url(#p885615a4ca)" d="M 714.894512 123.571224 
L 714.894512 87.506712 
" style="fill:none;stroke:#0000ff;stroke-width:1.5;"/>
    <path clip-path="url(#p885615a4ca)" d="M 722.836372 120.879559 
L 722.836372 84.815047 
" style="fill:none;stroke:#0000ff;stroke-width:1.5;"/>
    <path clip-path="url(#p885615a4ca)" d="M 730.778233 122.643525 
L 730.778233 86.579013 
" style="fill:none;stroke:#0000ff;stroke-width:1.5;"/>
    <path clip-path="url(#p885615a4ca)" d="M 738.720093 104.569378 
L 738.720093 68.504866 
" style="fill:none;stroke:#0000ff;stroke-width:1.5;"/>
    <path clip-path="url(#p885615a4ca)" d="M 746.661953 97.14204 
L 746.661953 61.077528 
" style="fill:none;stroke:#0000ff;stroke-width:1.5;"/>
    <path clip-path="url(#p885615a4ca)" d="M 754.603814 111.821333 
L 754.603814 75.756821 
" style="fill:none;stroke:#0000ff;stroke-width:1.5;"/>
    <path clip-path="url(#p885615a4ca)" d="M 762.545674 121.586375 
L 762.545674 85.521863 
" style="fill:none;stroke:#0000ff;stroke-width:1.5;"/>
    <path clip-path="url(#p885615a4ca)" d="M 770.487535 122.413046 
L 770.487535 86.348535 
" style="fill:none;stroke:#0000ff;stroke-width:1.5;"/>
    <path clip-path="url(#p885615a4ca)" d="M 778.429395 131.446554 
L 778.429395 95.382043 
" style="fill:none;stroke:#0000ff;stroke-width:1.5;"/>
    <path clip-path="url(#p885615a4ca)" d="M 786.371256 114.232232 
L 786.371256 78.16772 
" style="fill:none;stroke:#0000ff;stroke-width:1.5;"/>
    <path clip-path="url(#p885615a4ca)" d="M 794.313116 112.542096 
L 794.313116 76.477584 
" style="fill:none;stroke:#0000ff;stroke-width:1.5;"/>
    <path clip-path="url(#p885615a4ca)" d="M 802.254977 120.917525 
L 802.254977 84.853013 
" style="fill:none;stroke:#0000ff;stroke-width:1.5;"/>
    <path clip-path="url(#p885615a4ca)" d="M 810.196837 135.43036 
L 810.196837 99.365848 
" style="fill:none;stroke:#0000ff;stroke-width:1.5;"/>
    <path clip-path="url(#p885615a4ca)" d="M 818.138698 107.9827 
L 818.138698 71.918188 
" style="fill:none;stroke:#0000ff;stroke-width:1.5;"/>
    <path clip-path="url(#p885615a4ca)" d="M 826.080558 146.934956 
L 826.080558 110.870444 
" style="fill:none;stroke:#0000ff;stroke-width:1.5;"/>
    <path clip-path="url(#p885615a4ca)" d="M 834.022419 101.724466 
L 834.022419 65.659954 
" style="fill:none;stroke:#0000ff;stroke-width:1.5;"/>
    <path clip-path="url(#p885615a4ca)" d="M 841.964279 141.437615 
L 841.964279 105.373103 
" style="fill:none;stroke:#0000ff;stroke-width:1.5;"/>
    <path clip-path="url(#p885615a4ca)" d="M 849.90614 147.173461 
L 849.90614 111.108949 
" style="fill:none;stroke:#0000ff;stroke-width:1.5;"/>
    <path clip-path="url(#p885615a4ca)" d="M 857.848 142.070898 
L 857.848 106.006386 
" style="fill:none;stroke:#0000ff;stroke-width:1.5;"/>
   </g>
   <g id="line2d_8">
    <path clip-path="url(#p885615a4ca)" d="M 174.848 101.9521 
L 857.848 101.9521 
" style="fill:none;stroke:#ff0000;stroke-linecap:square;stroke-width:1.5;"/>
   </g>
   <g id="line2d_9">
    <defs>
     <path d="M -3 0 
L 3 0 
M 0 3 
L 0 -3 
" id="m8b4c9060c5" style="stroke:#0000ff;"/>
    </defs>
    <g clip-path="url(#p885615a4ca)">
     <use style="fill:#0000ff;stroke:#0000ff;" x="174.848" xlink:href="#m8b4c9060c5" y="85.68489"/>
     <use style="fill:#0000ff;stroke:#0000ff;" x="182.78986" xlink:href="#m8b4c9060c5" y="98.902823"/>
     <use style="fill:#0000ff;stroke:#0000ff;" x="190.731721" xlink:href="#m8b4c9060c5" y="114.310097"/>
     <use style="fill:#0000ff;stroke:#0000ff;" x="198.673581" xlink:href="#m8b4c9060c5" y="82.379058"/>
     <use style="fill:#0000ff;stroke:#0000ff;" x="206.615442" xlink:href="#m8b4c9060c5" y="86.86059"/>
     <use style="fill:#0000ff;stroke:#0000ff;" x="214.557302" xlink:href="#m8b4c9060c5" y="90.938635"/>
     <use style="fill:#0000ff;stroke:#0000ff;" x="222.499163" xlink:href="#m8b4c9060c5" y="75.284611"/>
     <use style="fill:#0000ff;stroke:#0000ff;" x="230.441023" xlink:href="#m8b4c9060c5" y="96.173267"/>
     <use style="fill:#0000ff;stroke:#0000ff;" x="238.382884" xlink:href="#m8b4c9060c5" y="99.974315"/>
     <use style="fill:#0000ff;stroke:#0000ff;" x="246.324744" xlink:href="#m8b4c9060c5" y="91.938063"/>
     <use style="fill:#0000ff;stroke:#0000ff;" x="254.266605" xlink:href="#m8b4c9060c5" y="113.994852"/>
     <use style="fill:#0000ff;stroke:#0000ff;" x="262.208465" xlink:href="#m8b4c9060c5" y="107.435989"/>
     <use style="fill:#0000ff;stroke:#0000ff;" x="270.150326" xlink:href="#m8b4c9060c5" y="102.004846"/>
     <use style="fill:#0000ff;stroke:#0000ff;" x="278.092186" xlink:href="#m8b4c9060c5" y="103.360288"/>
     <use style="fill:#0000ff;stroke:#0000ff;" x="286.034047" xlink:href="#m8b4c9060c5" y="94.492067"/>
     <use style="fill:#0000ff;stroke:#0000ff;" x="293.975907" xlink:href="#m8b4c9060c5" y="112.222148"/>
     <use style="fill:#0000ff;stroke:#0000ff;" x="301.917767" xlink:href="#m8b4c9060c5" y="100.02038"/>
     <use style="fill:#0000ff;stroke:#0000ff;" x="309.859628" xlink:href="#m8b4c9060c5" y="100.829688"/>
     <use style="fill:#0000ff;stroke:#0000ff;" x="317.801488" xlink:href="#m8b4c9060c5" y="96.200831"/>
     <use style="fill:#0000ff;stroke:#0000ff;" x="325.743349" xlink:href="#m8b4c9060c5" y="91.512101"/>
     <use style="fill:#0000ff;stroke:#0000ff;" x="333.685209" xlink:href="#m8b4c9060c5" y="99.065978"/>
     <use style="fill:#0000ff;stroke:#0000ff;" x="341.62707" xlink:href="#m8b4c9060c5" y="118.960431"/>
     <use style="fill:#0000ff;stroke:#0000ff;" x="349.56893" xlink:href="#m8b4c9060c5" y="68.368757"/>
     <use style="fill:#0000ff;stroke:#0000ff;" x="357.510791" xlink:href="#m8b4c9060c5" y="113.710199"/>
     <use style="fill:#0000ff;stroke:#0000ff;" x="365.452651" xlink:href="#m8b4c9060c5" y="105.913169"/>
     <use style="fill:#0000ff;stroke:#0000ff;" x="373.394512" xlink:href="#m8b4c9060c5" y="115.734488"/>
     <use style="fill:#0000ff;stroke:#0000ff;" x="381.336372" xlink:href="#m8b4c9060c5" y="106.897059"/>
     <use style="fill:#0000ff;stroke:#0000ff;" x="389.278233" xlink:href="#m8b4c9060c5" y="102.113933"/>
     <use style="fill:#0000ff;stroke:#0000ff;" x="397.220093" xlink:href="#m8b4c9060c5" y="104.543386"/>
     <use style="fill:#0000ff;stroke:#0000ff;" x="405.161953" xlink:href="#m8b4c9060c5" y="126.27362"/>
     <use style="fill:#0000ff;stroke:#0000ff;" x="413.103814" xlink:href="#m8b4c9060c5" y="108.360852"/>
     <use style="fill:#0000ff;stroke:#0000ff;" x="421.045674" xlink:href="#m8b4c9060c5" y="133.1824"/>
     <use style="fill:#0000ff;stroke:#0000ff;" x="428.987535" xlink:href="#m8b4c9060c5" y="124.797893"/>
     <use style="fill:#0000ff;stroke:#0000ff;" x="436.929395" xlink:href="#m8b4c9060c5" y="109.930711"/>
     <use style="fill:#0000ff;stroke:#0000ff;" x="444.871256" xlink:href="#m8b4c9060c5" y="115.692769"/>
     <use style="fill:#0000ff;stroke:#0000ff;" x="452.813116" xlink:href="#m8b4c9060c5" y="93.673163"/>
     <use style="fill:#0000ff;stroke:#0000ff;" x="460.754977" xlink:href="#m8b4c9060c5" y="99.975493"/>
     <use style="fill:#0000ff;stroke:#0000ff;" x="468.696837" xlink:href="#m8b4c9060c5" y="72.28239"/>
     <use style="fill:#0000ff;stroke:#0000ff;" x="476.638698" xlink:href="#m8b4c9060c5" y="106.510292"/>
     <use style="fill:#0000ff;stroke:#0000ff;" x="484.580558" xlink:href="#m8b4c9060c5" y="105.7518"/>
     <use style="fill:#0000ff;stroke:#0000ff;" x="492.522419" xlink:href="#m8b4c9060c5" y="102.947654"/>
     <use style="fill:#0000ff;stroke:#0000ff;" x="500.464279" xlink:href="#m8b4c9060c5" y="113.208283"/>
     <use style="fill:#0000ff;stroke:#0000ff;" x="508.40614" xlink:href="#m8b4c9060c5" y="105.691879"/>
     <use style="fill:#0000ff;stroke:#0000ff;" x="516.348" xlink:href="#m8b4c9060c5" y="76.497908"/>
     <use style="fill:#0000ff;stroke:#0000ff;" x="524.28986" xlink:href="#m8b4c9060c5" y="123.133401"/>
     <use style="fill:#0000ff;stroke:#0000ff;" x="532.231721" xlink:href="#m8b4c9060c5" y="98.185323"/>
     <use style="fill:#0000ff;stroke:#0000ff;" x="540.173581" xlink:href="#m8b4c9060c5" y="124.543893"/>
     <use style="fill:#0000ff;stroke:#0000ff;" x="548.115442" xlink:href="#m8b4c9060c5" y="90.045437"/>
     <use style="fill:#0000ff;stroke:#0000ff;" x="556.057302" xlink:href="#m8b4c9060c5" y="106.493716"/>
     <use style="fill:#0000ff;stroke:#0000ff;" x="563.999163" xlink:href="#m8b4c9060c5" y="92.635574"/>
     <use style="fill:#0000ff;stroke:#0000ff;" x="571.941023" xlink:href="#m8b4c9060c5" y="88.468479"/>
     <use style="fill:#0000ff;stroke:#0000ff;" x="579.882884" xlink:href="#m8b4c9060c5" y="87.143715"/>
     <use style="fill:#0000ff;stroke:#0000ff;" x="587.824744" xlink:href="#m8b4c9060c5" y="94.549451"/>
     <use style="fill:#0000ff;stroke:#0000ff;" x="595.766605" xlink:href="#m8b4c9060c5" y="79.015817"/>
     <use style="fill:#0000ff;stroke:#0000ff;" x="603.708465" xlink:href="#m8b4c9060c5" y="104.46107"/>
     <use style="fill:#0000ff;stroke:#0000ff;" x="611.650326" xlink:href="#m8b4c9060c5" y="100.615409"/>
     <use style="fill:#0000ff;stroke:#0000ff;" x="619.592186" xlink:href="#m8b4c9060c5" y="99.051802"/>
     <use style="fill:#0000ff;stroke:#0000ff;" x="627.534047" xlink:href="#m8b4c9060c5" y="65.7824"/>
     <use style="fill:#0000ff;stroke:#0000ff;" x="635.475907" xlink:href="#m8b4c9060c5" y="100.72706"/>
     <use style="fill:#0000ff;stroke:#0000ff;" x="643.417767" xlink:href="#m8b4c9060c5" y="111.374686"/>
     <use style="fill:#0000ff;stroke:#0000ff;" x="651.359628" xlink:href="#m8b4c9060c5" y="72.204816"/>
     <use style="fill:#0000ff;stroke:#0000ff;" x="659.301488" xlink:href="#m8b4c9060c5" y="110.605884"/>
     <use style="fill:#0000ff;stroke:#0000ff;" x="667.243349" xlink:href="#m8b4c9060c5" y="114.13033"/>
     <use style="fill:#0000ff;stroke:#0000ff;" x="675.185209" xlink:href="#m8b4c9060c5" y="131.504213"/>
     <use style="fill:#0000ff;stroke:#0000ff;" x="683.12707" xlink:href="#m8b4c9060c5" y="104.663509"/>
     <use style="fill:#0000ff;stroke:#0000ff;" x="691.06893" xlink:href="#m8b4c9060c5" y="107.723606"/>
     <use style="fill:#0000ff;stroke:#0000ff;" x="699.010791" xlink:href="#m8b4c9060c5" y="83.953367"/>
     <use style="fill:#0000ff;stroke:#0000ff;" x="706.952651" xlink:href="#m8b4c9060c5" y="82.599191"/>
     <use style="fill:#0000ff;stroke:#0000ff;" x="714.894512" xlink:href="#m8b4c9060c5" y="105.538968"/>
     <use style="fill:#0000ff;stroke:#0000ff;" x="722.836372" xlink:href="#m8b4c9060c5" y="102.847303"/>
     <use style="fill:#0000ff;stroke:#0000ff;" x="730.778233" xlink:href="#m8b4c9060c5" y="104.611269"/>
     <use style="fill:#0000ff;stroke:#0000ff;" x="738.720093" xlink:href="#m8b4c9060c5" y="86.537122"/>
     <use style="fill:#0000ff;stroke:#0000ff;" x="746.661953" xlink:href="#m8b4c9060c5" y="79.109784"/>
     <use style="fill:#0000ff;stroke:#0000ff;" x="754.603814" xlink:href="#m8b4c9060c5" y="93.789077"/>
     <use style="fill:#0000ff;stroke:#0000ff;" x="762.545674" xlink:href="#m8b4c9060c5" y="103.554119"/>
     <use style="fill:#0000ff;stroke:#0000ff;" x="770.487535" xlink:href="#m8b4c9060c5" y="104.380791"/>
     <use style="fill:#0000ff;stroke:#0000ff;" x="778.429395" xlink:href="#m8b4c9060c5" y="113.414298"/>
     <use style="fill:#0000ff;stroke:#0000ff;" x="786.371256" xlink:href="#m8b4c9060c5" y="96.199976"/>
     <use style="fill:#0000ff;stroke:#0000ff;" x="794.313116" xlink:href="#m8b4c9060c5" y="94.50984"/>
     <use style="fill:#0000ff;stroke:#0000ff;" x="802.254977" xlink:href="#m8b4c9060c5" y="102.885269"/>
     <use style="fill:#0000ff;stroke:#0000ff;" x="810.196837" xlink:href="#m8b4c9060c5" y="117.398104"/>
     <use style="fill:#0000ff;stroke:#0000ff;" x="818.138698" xlink:href="#m8b4c9060c5" y="89.950444"/>
     <use style="fill:#0000ff;stroke:#0000ff;" x="826.080558" xlink:href="#m8b4c9060c5" y="128.9027"/>
     <use style="fill:#0000ff;stroke:#0000ff;" x="834.022419" xlink:href="#m8b4c9060c5" y="83.69221"/>
     <use style="fill:#0000ff;stroke:#0000ff;" x="841.964279" xlink:href="#m8b4c9060c5" y="123.405359"/>
     <use style="fill:#0000ff;stroke:#0000ff;" x="849.90614" xlink:href="#m8b4c9060c5" y="129.141205"/>
     <use style="fill:#0000ff;stroke:#0000ff;" x="857.848" xlink:href="#m8b4c9060c5" y="124.038642"/>
    </g>
   </g>
   <g id="patch_3">
    <path d="M 147.528 135.8784 
L 147.528 63.0864 
" style="fill:none;stroke:#000000;stroke-linecap:square;stroke-linejoin:miter;stroke-width:0.8;"/>
   </g>
   <g id="patch_4">
    <path d="M 885.168 135.8784 
L 885.168 63.0864 
" style="fill:none;stroke:#000000;stroke-linecap:square;stroke-linejoin:miter;stroke-width:0.8;"/>
   </g>
   <g id="patch_5">
    <path d="M 147.528 135.8784 
L 885.168 135.8784 
" style="fill:none;stroke:#000000;stroke-linecap:square;stroke-linejoin:miter;stroke-width:0.8;"/>
   </g>
   <g id="patch_6">
    <path d="M 147.528 63.0864 
L 885.168 63.0864 
" style="fill:none;stroke:#000000;stroke-linecap:square;stroke-linejoin:miter;stroke-width:0.8;"/>
   </g>
   <g id="text_4">
    <!-- Function (0/0): y = a*exp(-(x-x0)**2/w**2)+b -->
    <defs>
     <path d="M 9.8125 72.90625 
L 51.703125 72.90625 
L 51.703125 64.59375 
L 19.671875 64.59375 
L 19.671875 43.109375 
L 48.578125 43.109375 
L 48.578125 34.8125 
L 19.671875 34.8125 
L 19.671875 0 
L 9.8125 0 
z
" id="DejaVuSans-46"/>
     <path d="M 48.78125 52.59375 
L 48.78125 44.1875 
Q 44.96875 46.296875 41.140625 47.34375 
Q 37.3125 48.390625 33.40625 48.390625 
Q 24.65625 48.390625 19.8125 42.84375 
Q 14.984375 37.3125 14.984375 27.296875 
Q 14.984375 17.28125 19.8125 11.734375 
Q 24.65625 6.203125 33.40625 6.203125 
Q 37.3125 6.203125 41.140625 7.25 
Q 44.96875 8.296875 48.78125 10.40625 
L 48.78125 2.09375 
Q 45.015625 0.34375 40.984375 -0.53125 
Q 36.96875 -1.421875 32.421875 -1.421875 
Q 20.0625 -1.421875 12.78125 6.34375 
Q 5.515625 14.109375 5.515625 27.296875 
Q 5.515625 40.671875 12.859375 48.328125 
Q 20.21875 56 33.015625 56 
Q 37.15625 56 41.109375 55.140625 
Q 45.0625 54.296875 48.78125 52.59375 
z
" id="DejaVuSans-63"/>
     <path d="M 30.609375 48.390625 
Q 23.390625 48.390625 19.1875 42.75 
Q 14.984375 37.109375 14.984375 27.296875 
Q 14.984375 17.484375 19.15625 11.84375 
Q 23.34375 6.203125 30.609375 6.203125 
Q 37.796875 6.203125 41.984375 11.859375 
Q 46.1875 17.53125 46.1875 27.296875 
Q 46.1875 37.015625 41.984375 42.703125 
Q 37.796875 48.390625 30.609375 48.390625 
z
M 30.609375 56 
Q 42.328125 56 49.015625 48.375 
Q 55.71875 40.765625 55.71875 27.296875 
Q 55.71875 13.875 49.015625 6.21875 
Q 42.328125 -1.421875 30.609375 -1.421875 
Q 18.84375 -1.421875 12.171875 6.21875 
Q 5.515625 13.875 5.515625 27.296875 
Q 5.515625 40.765625 12.171875 48.375 
Q 18.84375 56 30.609375 56 
z
" id="DejaVuSans-6f"/>
     <path id="DejaVuSans-20"/>
     <path d="M 31 75.875 
Q 24.46875 64.65625 21.28125 53.65625 
Q 18.109375 42.671875 18.109375 31.390625 
Q 18.109375 20.125 21.3125 9.0625 
Q 24.515625 -2 31 -13.1875 
L 23.1875 -13.1875 
Q 15.875 -1.703125 12.234375 9.375 
Q 8.59375 20.453125 8.59375 31.390625 
Q 8.59375 42.28125 12.203125 53.3125 
Q 15.828125 64.359375 23.1875 75.875 
z
" id="DejaVuSans-28"/>
     <path d="M 25.390625 72.90625 
L 33.6875 72.90625 
L 8.296875 -9.28125 
L 0 -9.28125 
z
" id="DejaVuSans-2f"/>
     <path d="M 8.015625 75.875 
L 15.828125 75.875 
Q 23.140625 64.359375 26.78125 53.3125 
Q 30.421875 42.28125 30.421875 31.390625 
Q 30.421875 20.453125 26.78125 9.375 
Q 23.140625 -1.703125 15.828125 -13.1875 
L 8.015625 -13.1875 
Q 14.5 -2 17.703125 9.0625 
Q 20.90625 20.125 20.90625 31.390625 
Q 20.90625 42.671875 17.703125 53.65625 
Q 14.5 64.65625 8.015625 75.875 
z
" id="DejaVuSans-29"/>
     <path d="M 11.71875 12.40625 
L 22.015625 12.40625 
L 22.015625 0 
L 11.71875 0 
z
M 11.71875 51.703125 
L 22.015625 51.703125 
L 22.015625 39.3125 
L 11.71875 39.3125 
z
" id="DejaVuSans-3a"/>
     <path d="M 32.171875 -5.078125 
Q 28.375 -14.84375 24.75 -17.8125 
Q 21.140625 -20.796875 15.09375 -20.796875 
L 7.90625 -20.796875 
L 7.90625 -13.28125 
L 13.1875 -13.28125 
Q 16.890625 -13.28125 18.9375 -11.515625 
Q 21 -9.765625 23.484375 -3.21875 
L 25.09375 0.875 
L 2.984375 54.6875 
L 12.5 54.6875 
L 29.59375 11.921875 
L 46.6875 54.6875 
L 56.203125 54.6875 
z
" id="DejaVuSans-79"/>
     <path d="M 10.59375 45.40625 
L 73.1875 45.40625 
L 73.1875 37.203125 
L 10.59375 37.203125 
z
M 10.59375 25.484375 
L 73.1875 25.484375 
L 73.1875 17.1875 
L 10.59375 17.1875 
z
" id="DejaVuSans-3d"/>
     <path d="M 47.015625 60.890625 
L 29.5 51.421875 
L 47.015625 41.890625 
L 44.1875 37.109375 
L 27.78125 47.015625 
L 27.78125 28.609375 
L 22.21875 28.609375 
L 22.21875 47.015625 
L 5.8125 37.109375 
L 2.984375 41.890625 
L 20.515625 51.421875 
L 2.984375 60.890625 
L 5.8125 65.71875 
L 22.21875 55.8125 
L 22.21875 74.21875 
L 27.78125 74.21875 
L 27.78125 55.8125 
L 44.1875 65.71875 
z
" id="DejaVuSans-2a"/>
     <path d="M 54.890625 54.6875 
L 35.109375 28.078125 
L 55.90625 0 
L 45.3125 0 
L 29.390625 21.484375 
L 13.484375 0 
L 2.875 0 
L 24.125 28.609375 
L 4.6875 54.6875 
L 15.28125 54.6875 
L 29.78125 35.203125 
L 44.28125 54.6875 
z
" id="DejaVuSans-78"/>
     <path d="M 18.109375 8.203125 
L 18.109375 -20.796875 
L 9.078125 -20.796875 
L 9.078125 54.6875 
L 18.109375 54.6875 
L 18.109375 46.390625 
Q 20.953125 51.265625 25.265625 53.625 
Q 29.59375 56 35.59375 56 
Q 45.5625 56 51.78125 48.09375 
Q 58.015625 40.1875 58.015625 27.296875 
Q 58.015625 14.40625 51.78125 6.484375 
Q 45.5625 -1.421875 35.59375 -1.421875 
Q 29.59375 -1.421875 25.265625 0.953125 
Q 20.953125 3.328125 18.109375 8.203125 
z
M 48.6875 27.296875 
Q 48.6875 37.203125 44.609375 42.84375 
Q 40.53125 48.484375 33.40625 48.484375 
Q 26.265625 48.484375 22.1875 42.84375 
Q 18.109375 37.203125 18.109375 27.296875 
Q 18.109375 17.390625 22.1875 11.75 
Q 26.265625 6.109375 33.40625 6.109375 
Q 40.53125 6.109375 44.609375 11.75 
Q 48.6875 17.390625 48.6875 27.296875 
z
" id="DejaVuSans-70"/>
     <path d="M 4.890625 31.390625 
L 31.203125 31.390625 
L 31.203125 23.390625 
L 4.890625 23.390625 
z
" id="DejaVuSans-2d"/>
     <path d="M 4.203125 54.6875 
L 13.1875 54.6875 
L 24.421875 12.015625 
L 35.59375 54.6875 
L 46.1875 54.6875 
L 57.421875 12.015625 
L 68.609375 54.6875 
L 77.59375 54.6875 
L 63.28125 0 
L 52.6875 0 
L 40.921875 44.828125 
L 29.109375 0 
L 18.5 0 
z
" id="DejaVuSans-77"/>
     <path d="M 46 62.703125 
L 46 35.5 
L 73.1875 35.5 
L 73.1875 27.203125 
L 46 27.203125 
L 46 0 
L 37.796875 0 
L 37.796875 27.203125 
L 10.59375 27.203125 
L 10.59375 35.5 
L 37.796875 35.5 
L 37.796875 62.703125 
z
" id="DejaVuSans-2b"/>
     <path d="M 48.6875 27.296875 
Q 48.6875 37.203125 44.609375 42.84375 
Q 40.53125 48.484375 33.40625 48.484375 
Q 26.265625 48.484375 22.1875 42.84375 
Q 18.109375 37.203125 18.109375 27.296875 
Q 18.109375 17.390625 22.1875 11.75 
Q 26.265625 6.109375 33.40625 6.109375 
Q 40.53125 6.109375 44.609375 11.75 
Q 48.6875 17.390625 48.6875 27.296875 
z
M 18.109375 46.390625 
Q 20.953125 51.265625 25.265625 53.625 
Q 29.59375 56 35.59375 56 
Q 45.5625 56 51.78125 48.09375 
Q 58.015625 40.1875 58.015625 27.296875 
Q 58.015625 14.40625 51.78125 6.484375 
Q 45.5625 -1.421875 35.59375 -1.421875 
Q 29.59375 -1.421875 25.265625 0.953125 
Q 20.953125 3.328125 18.109375 8.203125 
L 18.109375 0 
L 9.078125 0 
L 9.078125 75.984375 
L 18.109375 75.984375 
z
" id="DejaVuSans-62"/>
    </defs>
    <g transform="translate(147.528 45.888588)scale(0.1 -0.1)">
     <use xlink:href="#DejaVuSans-46"/>
     <use x="57.441406" xlink:href="#DejaVuSans-75"/>
     <use x="120.820312" xlink:href="#DejaVuSans-6e"/>
     <use x="184.199219" xlink:href="#DejaVuSans-63"/>
     <use x="239.179688" xlink:href="#DejaVuSans-74"/>
     <use x="278.388672" xlink:href="#DejaVuSans-69"/>
     <use x="306.171875" xlink:href="#DejaVuSans-6f"/>
     <use x="367.353516" xlink:href="#DejaVuSans-6e"/>
     <use x="430.732422" xlink:href="#DejaVuSans-20"/>
     <use x="462.519531" xlink:href="#DejaVuSans-28"/>
     <use x="501.533203" xlink:href="#DejaVuSans-30"/>
     <use x="565.15625" xlink:href="#DejaVuSans-2f"/>
     <use x="598.847656" xlink:href="#DejaVuSans-30"/>
     <use x="662.470703" xlink:href="#DejaVuSans-29"/>
     <use x="701.484375" xlink:href="#DejaVuSans-3a"/>
     <use x="735.175781" xlink:href="#DejaVuSans-20"/>
     <use x="766.962891" xlink:href="#DejaVuSans-79"/>
     <use x="826.142578" xlink:href="#DejaVuSans-20"/>
     <use x="857.929688" xlink:href="#DejaVuSans-3d"/>
     <use x="941.71875" xlink:href="#DejaVuSans-20"/>
     <use x="973.505859" xlink:href="#DejaVuSans-61"/>
     <use x="1034.785156" xlink:href="#DejaVuSans-2a"/>
     <use x="1084.785156" xlink:href="#DejaVuSans-65"/>
     <use x="1146.292969" xlink:href="#DejaVuSans-78"/>
     <use x="1205.472656" xlink:href="#DejaVuSans-70"/>
     <use x="1268.949219" xlink:href="#DejaVuSans-28"/>
     <use x="1307.962891" xlink:href="#DejaVuSans-2d"/>
     <use x="1344.046875" xlink:href="#DejaVuSans-28"/>
     <use x="1383.060547" xlink:href="#DejaVuSans-78"/>
     <use x="1442.240234" xlink:href="#DejaVuSans-2d"/>
     <use x="1478.324219" xlink:href="#DejaVuSans-78"/>
     <use x="1537.503906" xlink:href="#DejaVuSans-30"/>
     <use x="1601.126953" xlink:href="#DejaVuSans-29"/>
     <use x="1640.140625" xlink:href="#DejaVuSans-2a"/>
     <use x="1690.140625" xlink:href="#DejaVuSans-2a"/>
     <use x="1740.140625" xlink:href="#DejaVuSans-32"/>
     <use x="1803.763672" xlink:href="#DejaVuSans-2f"/>
     <use x="1837.455078" xlink:href="#DejaVuSans-77"/>
     <use x="1919.242188" xlink:href="#DejaVuSans-2a"/>
     <use x="1969.242188" xlink:href="#DejaVuSans-2a"/>
     <use x="2019.242188" xlink:href="#DejaVuSans-32"/>
     <use x="2082.865234" xlink:href="#DejaVuSans-29"/>
     <use x="2121.878906" xlink:href="#DejaVuSans-2b"/>
     <use x="2205.667969" xlink:href="#DejaVuSans-62"/>
    </g>
    <!-- Fit: a=387.8$\pm$8.2, b=15.2$\pm$9.3, x0=4.489$\pm$0.0011, w=0.1815$\pm$0.0052, -->
    <defs>
     <path d="M 40.578125 39.3125 
Q 47.65625 37.796875 51.625 33 
Q 55.609375 28.21875 55.609375 21.1875 
Q 55.609375 10.40625 48.1875 4.484375 
Q 40.765625 -1.421875 27.09375 -1.421875 
Q 22.515625 -1.421875 17.65625 -0.515625 
Q 12.796875 0.390625 7.625 2.203125 
L 7.625 11.71875 
Q 11.71875 9.328125 16.59375 8.109375 
Q 21.484375 6.890625 26.8125 6.890625 
Q 36.078125 6.890625 40.9375 10.546875 
Q 45.796875 14.203125 45.796875 21.1875 
Q 45.796875 27.640625 41.28125 31.265625 
Q 36.765625 34.90625 28.71875 34.90625 
L 20.21875 34.90625 
L 20.21875 43.015625 
L 29.109375 43.015625 
Q 36.375 43.015625 40.234375 45.921875 
Q 44.09375 48.828125 44.09375 54.296875 
Q 44.09375 59.90625 40.109375 62.90625 
Q 36.140625 65.921875 28.71875 65.921875 
Q 24.65625 65.921875 20.015625 65.03125 
Q 15.375 64.15625 9.8125 62.3125 
L 9.8125 71.09375 
Q 15.4375 72.65625 20.34375 73.4375 
Q 25.25 74.21875 29.59375 74.21875 
Q 40.828125 74.21875 47.359375 69.109375 
Q 53.90625 64.015625 53.90625 55.328125 
Q 53.90625 49.265625 50.4375 45.09375 
Q 46.96875 40.921875 40.578125 39.3125 
z
" id="DejaVuSans-33"/>
     <path d="M 31.78125 34.625 
Q 24.75 34.625 20.71875 30.859375 
Q 16.703125 27.09375 16.703125 20.515625 
Q 16.703125 13.921875 20.71875 10.15625 
Q 24.75 6.390625 31.78125 6.390625 
Q 38.8125 6.390625 42.859375 10.171875 
Q 46.921875 13.96875 46.921875 20.515625 
Q 46.921875 27.09375 42.890625 30.859375 
Q 38.875 34.625 31.78125 34.625 
z
M 21.921875 38.8125 
Q 15.578125 40.375 12.03125 44.71875 
Q 8.5 49.078125 8.5 55.328125 
Q 8.5 64.0625 14.71875 69.140625 
Q 20.953125 74.21875 31.78125 74.21875 
Q 42.671875 74.21875 48.875 69.140625 
Q 55.078125 64.0625 55.078125 55.328125 
Q 55.078125 49.078125 51.53125 44.71875 
Q 48 40.375 41.703125 38.8125 
Q 48.828125 37.15625 52.796875 32.3125 
Q 56.78125 27.484375 56.78125 20.515625 
Q 56.78125 9.90625 50.3125 4.234375 
Q 43.84375 -1.421875 31.78125 -1.421875 
Q 19.734375 -1.421875 13.25 4.234375 
Q 6.78125 9.90625 6.78125 20.515625 
Q 6.78125 27.484375 10.78125 32.3125 
Q 14.796875 37.15625 21.921875 38.8125 
z
M 18.3125 54.390625 
Q 18.3125 48.734375 21.84375 45.5625 
Q 25.390625 42.390625 31.78125 42.390625 
Q 38.140625 42.390625 41.71875 45.5625 
Q 45.3125 48.734375 45.3125 54.390625 
Q 45.3125 60.0625 41.71875 63.234375 
Q 38.140625 66.40625 31.78125 66.40625 
Q 25.390625 66.40625 21.84375 63.234375 
Q 18.3125 60.0625 18.3125 54.390625 
z
" id="DejaVuSans-38"/>
     <path d="M 8.203125 72.90625 
L 55.078125 72.90625 
L 55.078125 68.703125 
L 28.609375 0 
L 18.3125 0 
L 43.21875 64.59375 
L 8.203125 64.59375 
z
" id="DejaVuSans-37"/>
     <path d="M 10.6875 12.40625 
L 21 12.40625 
L 21 0 
L 10.6875 0 
z
" id="DejaVuSans-2e"/>
     <path d="M 46 62.703125 
L 46 43.796875 
L 73.1875 43.796875 
L 73.1875 35.5 
L 46 35.5 
L 46 16.609375 
L 37.796875 16.609375 
L 37.796875 35.5 
L 10.59375 35.5 
L 10.59375 43.796875 
L 37.796875 43.796875 
L 37.796875 62.703125 
z
M 10.59375 8.296875 
L 73.1875 8.296875 
L 73.1875 0 
L 10.59375 0 
z
" id="DejaVuSans-b1"/>
     <path d="M 11.71875 12.40625 
L 22.015625 12.40625 
L 22.015625 4 
L 14.015625 -11.625 
L 7.71875 -11.625 
L 11.71875 4 
z
" id="DejaVuSans-2c"/>
     <path d="M 12.40625 8.296875 
L 28.515625 8.296875 
L 28.515625 63.921875 
L 10.984375 60.40625 
L 10.984375 69.390625 
L 28.421875 72.90625 
L 38.28125 72.90625 
L 38.28125 8.296875 
L 54.390625 8.296875 
L 54.390625 0 
L 12.40625 0 
z
" id="DejaVuSans-31"/>
     <path d="M 10.796875 72.90625 
L 49.515625 72.90625 
L 49.515625 64.59375 
L 19.828125 64.59375 
L 19.828125 46.734375 
Q 21.96875 47.46875 24.109375 47.828125 
Q 26.265625 48.1875 28.421875 48.1875 
Q 40.625 48.1875 47.75 41.5 
Q 54.890625 34.8125 54.890625 23.390625 
Q 54.890625 11.625 47.5625 5.09375 
Q 40.234375 -1.421875 26.90625 -1.421875 
Q 22.3125 -1.421875 17.546875 -0.640625 
Q 12.796875 0.140625 7.71875 1.703125 
L 7.71875 11.625 
Q 12.109375 9.234375 16.796875 8.0625 
Q 21.484375 6.890625 26.703125 6.890625 
Q 35.15625 6.890625 40.078125 11.328125 
Q 45.015625 15.765625 45.015625 23.390625 
Q 45.015625 31 40.078125 35.4375 
Q 35.15625 39.890625 26.703125 39.890625 
Q 22.75 39.890625 18.8125 39.015625 
Q 14.890625 38.140625 10.796875 36.28125 
z
" id="DejaVuSans-35"/>
     <path d="M 10.984375 1.515625 
L 10.984375 10.5 
Q 14.703125 8.734375 18.5 7.8125 
Q 22.3125 6.890625 25.984375 6.890625 
Q 35.75 6.890625 40.890625 13.453125 
Q 46.046875 20.015625 46.78125 33.40625 
Q 43.953125 29.203125 39.59375 26.953125 
Q 35.25 24.703125 29.984375 24.703125 
Q 19.046875 24.703125 12.671875 31.3125 
Q 6.296875 37.9375 6.296875 49.421875 
Q 6.296875 60.640625 12.9375 67.421875 
Q 19.578125 74.21875 30.609375 74.21875 
Q 43.265625 74.21875 49.921875 64.515625 
Q 56.59375 54.828125 56.59375 36.375 
Q 56.59375 19.140625 48.40625 8.859375 
Q 40.234375 -1.421875 26.421875 -1.421875 
Q 22.703125 -1.421875 18.890625 -0.6875 
Q 15.09375 0.046875 10.984375 1.515625 
z
M 30.609375 32.421875 
Q 37.25 32.421875 41.125 36.953125 
Q 45.015625 41.5 45.015625 49.421875 
Q 45.015625 57.28125 41.125 61.84375 
Q 37.25 66.40625 30.609375 66.40625 
Q 23.96875 66.40625 20.09375 61.84375 
Q 16.21875 57.28125 16.21875 49.421875 
Q 16.21875 41.5 20.09375 36.953125 
Q 23.96875 32.421875 30.609375 32.421875 
z
" id="DejaVuSans-39"/>
     <path d="M 37.796875 64.3125 
L 12.890625 25.390625 
L 37.796875 25.390625 
z
M 35.203125 72.90625 
L 47.609375 72.90625 
L 47.609375 25.390625 
L 58.015625 25.390625 
L 58.015625 17.1875 
L 47.609375 17.1875 
L 47.609375 0 
L 37.796875 0 
L 37.796875 17.1875 
L 4.890625 17.1875 
L 4.890625 26.703125 
z
" id="DejaVuSans-34"/>
    </defs>
    <g transform="translate(147.528 57.0864)scale(0.1 -0.1)">
     <use transform="translate(0 0.015625)" xlink:href="#DejaVuSans-46"/>
     <use transform="translate(57.519531 0.015625)" xlink:href="#DejaVuSans-69"/>
     <use transform="translate(85.302734 0.015625)" xlink:href="#DejaVuSans-74"/>
     <use transform="translate(124.511719 0.015625)" xlink:href="#DejaVuSans-3a"/>
     <use transform="translate(158.203125 0.015625)" xlink:href="#DejaVuSans-20"/>
     <use transform="translate(189.990234 0.015625)" xlink:href="#DejaVuSans-61"/>
     <use transform="translate(251.269531 0.015625)" xlink:href="#DejaVuSans-3d"/>
     <use transform="translate(335.058594 0.015625)" xlink:href="#DejaVuSans-33"/>
     <use transform="translate(398.681641 0.015625)" xlink:href="#DejaVuSans-38"/>
     <use transform="translate(462.304688 0.015625)" xlink:href="#DejaVuSans-37"/>
     <use transform="translate(525.927734 0.015625)" xlink:href="#DejaVuSans-2e"/>
     <use transform="translate(557.683594 0.015625)" xlink:href="#DejaVuSans-38"/>
     <use transform="translate(621.306641 0.015625)" xlink:href="#DejaVuSans-b1"/>
     <use transform="translate(705.095703 0.015625)" xlink:href="#DejaVuSans-38"/>
     <use transform="translate(768.71875 0.015625)" xlink:href="#DejaVuSans-2e"/>
     <use transform="translate(800.427734 0.015625)" xlink:href="#DejaVuSans-32"/>
     <use transform="translate(864.050781 0.015625)" xlink:href="#DejaVuSans-2c"/>
     <use transform="translate(895.837891 0.015625)" xlink:href="#DejaVuSans-20"/>
     <use transform="translate(927.625 0.015625)" xlink:href="#DejaVuSans-62"/>
     <use transform="translate(991.101562 0.015625)" xlink:href="#DejaVuSans-3d"/>
     <use transform="translate(1074.890625 0.015625)" xlink:href="#DejaVuSans-31"/>
     <use transform="translate(1138.513672 0.015625)" xlink:href="#DejaVuSans-35"/>
     <use transform="translate(1202.136719 0.015625)" xlink:href="#DejaVuSans-2e"/>
     <use transform="translate(1233.845703 0.015625)" xlink:href="#DejaVuSans-32"/>
     <use transform="translate(1297.46875 0.015625)" xlink:href="#DejaVuSans-b1"/>
     <use transform="translate(1381.257812 0.015625)" xlink:href="#DejaVuSans-39"/>
     <use transform="translate(1444.880859 0.015625)" xlink:href="#DejaVuSans-2e"/>
     <use transform="translate(1476.667969 0.015625)" xlink:href="#DejaVuSans-33"/>
     <use transform="translate(1540.291016 0.015625)" xlink:href="#DejaVuSans-2c"/>
     <use transform="translate(1572.078125 0.015625)" xlink:href="#DejaVuSans-20"/>
     <use transform="translate(1603.865234 0.015625)" xlink:href="#DejaVuSans-78"/>
     <use transform="translate(1663.044922 0.015625)" xlink:href="#DejaVuSans-30"/>
     <use transform="translate(1726.667969 0.015625)" xlink:href="#DejaVuSans-3d"/>
     <use transform="translate(1810.457031 0.015625)" xlink:href="#DejaVuSans-34"/>
     <use transform="translate(1874.080078 0.015625)" xlink:href="#DejaVuSans-2e"/>
     <use transform="translate(1905.867188 0.015625)" xlink:href="#DejaVuSans-34"/>
     <use transform="translate(1969.490234 0.015625)" xlink:href="#DejaVuSans-38"/>
     <use transform="translate(2033.113281 0.015625)" xlink:href="#DejaVuSans-39"/>
     <use transform="translate(2096.736328 0.015625)" xlink:href="#DejaVuSans-b1"/>
     <use transform="translate(2180.525391 0.015625)" xlink:href="#DejaVuSans-30"/>
     <use transform="translate(2244.148438 0.015625)" xlink:href="#DejaVuSans-2e"/>
     <use transform="translate(2275.935547 0.015625)" xlink:href="#DejaVuSans-30"/>
     <use transform="translate(2339.558594 0.015625)" xlink:href="#DejaVuSans-30"/>
     <use transform="translate(2403.181641 0.015625)" xlink:href="#DejaVuSans-31"/>
     <use transform="translate(2466.804688 0.015625)" xlink:href="#DejaVuSans-31"/>
     <use transform="translate(2530.427734 0.015625)" xlink:href="#DejaVuSans-2c"/>
     <use transform="translate(2562.214844 0.015625)" xlink:href="#DejaVuSans-20"/>
     <use transform="translate(2594.001953 0.015625)" xlink:href="#DejaVuSans-77"/>
     <use transform="translate(2675.789062 0.015625)" xlink:href="#DejaVuSans-3d"/>
     <use transform="translate(2759.578125 0.015625)" xlink:href="#DejaVuSans-30"/>
     <use transform="translate(2823.201172 0.015625)" xlink:href="#DejaVuSans-2e"/>
     <use transform="translate(2854.988281 0.015625)" xlink:href="#DejaVuSans-31"/>
     <use transform="translate(2918.611328 0.015625)" xlink:href="#DejaVuSans-38"/>
     <use transform="translate(2982.234375 0.015625)" xlink:href="#DejaVuSans-31"/>
     <use transform="translate(3045.857422 0.015625)" xlink:href="#DejaVuSans-35"/>
     <use transform="translate(3109.480469 0.015625)" xlink:href="#DejaVuSans-b1"/>
     <use transform="translate(3193.269531 0.015625)" xlink:href="#DejaVuSans-30"/>
     <use transform="translate(3256.892578 0.015625)" xlink:href="#DejaVuSans-2e"/>
     <use transform="translate(3288.679688 0.015625)" xlink:href="#DejaVuSans-30"/>
     <use transform="translate(3352.302734 0.015625)" xlink:href="#DejaVuSans-30"/>
     <use transform="translate(3415.925781 0.015625)" xlink:href="#DejaVuSans-35"/>
     <use transform="translate(3479.548828 0.015625)" xlink:href="#DejaVuSans-32"/>
     <use transform="translate(3543.171875 0.015625)" xlink:href="#DejaVuSans-2c"/>
    </g>
   </g>
  </g>
  <g id="axes_2">
   <g id="patch_7">
    <path d="M 147.528 436.752 
L 885.168 436.752 
L 885.168 145.584 
L 147.528 145.584 
z
" style="fill:#ffffff;"/>
   </g>
   <g id="matplotlib.axis_3">
    <g id="xtick_6">
     <g id="line2d_10">
      <g>
       <use style="stroke:#000000;stroke-width:0.8;" x="274.909149" xlink:href="#m4bbed3d772" y="436.752"/>
      </g>
     </g>
     <g id="text_5">
      <!-- 4.3 -->
      <g transform="translate(265.367274 452.870125)scale(0.12 -0.12)">
       <use xlink:href="#DejaVuSans-34"/>
       <use x="63.623047" xlink:href="#DejaVuSans-2e"/>
       <use x="95.410156" xlink:href="#DejaVuSans-33"/>
      </g>
     </g>
    </g>
    <g id="xtick_7">
     <g id="line2d_11">
      <g>
       <use style="stroke:#000000;stroke-width:0.8;" x="408.41297" xlink:href="#m4bbed3d772" y="436.752"/>
      </g>
     </g>
     <g id="text_6">
      <!-- 4.4 -->
      <g transform="translate(398.871095 452.870125)scale(0.12 -0.12)">
       <use xlink:href="#DejaVuSans-34"/>
       <use x="63.623047" xlink:href="#DejaVuSans-2e"/>
       <use x="95.410156" xlink:href="#DejaVuSans-34"/>
      </g>
     </g>
    </g>
    <g id="xtick_8">
     <g id="line2d_12">
      <g>
       <use style="stroke:#000000;stroke-width:0.8;" x="541.91679" xlink:href="#m4bbed3d772" y="436.752"/>
      </g>
     </g>
     <g id="text_7">
      <!-- 4.5 -->
      <g transform="translate(532.374915 452.870125)scale(0.12 -0.12)">
       <use xlink:href="#DejaVuSans-34"/>
       <use x="63.623047" xlink:href="#DejaVuSans-2e"/>
       <use x="95.410156" xlink:href="#DejaVuSans-35"/>
      </g>
     </g>
    </g>
    <g id="xtick_9">
     <g id="line2d_13">
      <g>
       <use style="stroke:#000000;stroke-width:0.8;" x="675.420611" xlink:href="#m4bbed3d772" y="436.752"/>
      </g>
     </g>
     <g id="text_8">
      <!-- 4.6 -->
      <defs>
       <path d="M 33.015625 40.375 
Q 26.375 40.375 22.484375 35.828125 
Q 18.609375 31.296875 18.609375 23.390625 
Q 18.609375 15.53125 22.484375 10.953125 
Q 26.375 6.390625 33.015625 6.390625 
Q 39.65625 6.390625 43.53125 10.953125 
Q 47.40625 15.53125 47.40625 23.390625 
Q 47.40625 31.296875 43.53125 35.828125 
Q 39.65625 40.375 33.015625 40.375 
z
M 52.59375 71.296875 
L 52.59375 62.3125 
Q 48.875 64.0625 45.09375 64.984375 
Q 41.3125 65.921875 37.59375 65.921875 
Q 27.828125 65.921875 22.671875 59.328125 
Q 17.53125 52.734375 16.796875 39.40625 
Q 19.671875 43.65625 24.015625 45.921875 
Q 28.375 48.1875 33.59375 48.1875 
Q 44.578125 48.1875 50.953125 41.515625 
Q 57.328125 34.859375 57.328125 23.390625 
Q 57.328125 12.15625 50.6875 5.359375 
Q 44.046875 -1.421875 33.015625 -1.421875 
Q 20.359375 -1.421875 13.671875 8.265625 
Q 6.984375 17.96875 6.984375 36.375 
Q 6.984375 53.65625 15.1875 63.9375 
Q 23.390625 74.21875 37.203125 74.21875 
Q 40.921875 74.21875 44.703125 73.484375 
Q 48.484375 72.75 52.59375 71.296875 
z
" id="DejaVuSans-36"/>
      </defs>
      <g transform="translate(665.878736 452.870125)scale(0.12 -0.12)">
       <use xlink:href="#DejaVuSans-34"/>
       <use x="63.623047" xlink:href="#DejaVuSans-2e"/>
       <use x="95.410156" xlink:href="#DejaVuSans-36"/>
      </g>
     </g>
    </g>
    <g id="xtick_10">
     <g id="line2d_14">
      <g>
       <use style="stroke:#000000;stroke-width:0.8;" x="808.924432" xlink:href="#m4bbed3d772" y="436.752"/>
      </g>
     </g>
     <g id="text_9">
      <!-- 4.7 -->
      <g transform="translate(799.382557 452.870125)scale(0.12 -0.12)">
       <use xlink:href="#DejaVuSans-34"/>
       <use x="63.623047" xlink:href="#DejaVuSans-2e"/>
       <use x="95.410156" xlink:href="#DejaVuSans-37"/>
      </g>
     </g>
    </g>
    <g id="text_10">
     <!-- Energy [MeV] -->
     <defs>
      <path d="M 9.8125 72.90625 
L 55.90625 72.90625 
L 55.90625 64.59375 
L 19.671875 64.59375 
L 19.671875 43.015625 
L 54.390625 43.015625 
L 54.390625 34.71875 
L 19.671875 34.71875 
L 19.671875 8.296875 
L 56.78125 8.296875 
L 56.78125 0 
L 9.8125 0 
z
" id="DejaVuSans-45"/>
      <path d="M 41.109375 46.296875 
Q 39.59375 47.171875 37.8125 47.578125 
Q 36.03125 48 33.890625 48 
Q 26.265625 48 22.1875 43.046875 
Q 18.109375 38.09375 18.109375 28.8125 
L 18.109375 0 
L 9.078125 0 
L 9.078125 54.6875 
L 18.109375 54.6875 
L 18.109375 46.1875 
Q 20.953125 51.171875 25.484375 53.578125 
Q 30.03125 56 36.53125 56 
Q 37.453125 56 38.578125 55.875 
Q 39.703125 55.765625 41.0625 55.515625 
z
" id="DejaVuSans-72"/>
      <path d="M 45.40625 27.984375 
Q 45.40625 37.75 41.375 43.109375 
Q 37.359375 48.484375 30.078125 48.484375 
Q 22.859375 48.484375 18.828125 43.109375 
Q 14.796875 37.75 14.796875 27.984375 
Q 14.796875 18.265625 18.828125 12.890625 
Q 22.859375 7.515625 30.078125 7.515625 
Q 37.359375 7.515625 41.375 12.890625 
Q 45.40625 18.265625 45.40625 27.984375 
z
M 54.390625 6.78125 
Q 54.390625 -7.171875 48.1875 -13.984375 
Q 42 -20.796875 29.203125 -20.796875 
Q 24.46875 -20.796875 20.265625 -20.09375 
Q 16.0625 -19.390625 12.109375 -17.921875 
L 12.109375 -9.1875 
Q 16.0625 -11.328125 19.921875 -12.34375 
Q 23.78125 -13.375 27.78125 -13.375 
Q 36.625 -13.375 41.015625 -8.765625 
Q 45.40625 -4.15625 45.40625 5.171875 
L 45.40625 9.625 
Q 42.625 4.78125 38.28125 2.390625 
Q 33.9375 0 27.875 0 
Q 17.828125 0 11.671875 7.65625 
Q 5.515625 15.328125 5.515625 27.984375 
Q 5.515625 40.671875 11.671875 48.328125 
Q 17.828125 56 27.875 56 
Q 33.9375 56 38.28125 53.609375 
Q 42.625 51.21875 45.40625 46.390625 
L 45.40625 54.6875 
L 54.390625 54.6875 
z
" id="DejaVuSans-67"/>
      <path d="M 8.59375 75.984375 
L 29.296875 75.984375 
L 29.296875 69 
L 17.578125 69 
L 17.578125 -6.203125 
L 29.296875 -6.203125 
L 29.296875 -13.1875 
L 8.59375 -13.1875 
z
" id="DejaVuSans-5b"/>
      <path d="M 9.8125 72.90625 
L 24.515625 72.90625 
L 43.109375 23.296875 
L 61.8125 72.90625 
L 76.515625 72.90625 
L 76.515625 0 
L 66.890625 0 
L 66.890625 64.015625 
L 48.09375 14.015625 
L 38.1875 14.015625 
L 19.390625 64.015625 
L 19.390625 0 
L 9.8125 0 
z
" id="DejaVuSans-4d"/>
      <path d="M 28.609375 0 
L 0.78125 72.90625 
L 11.078125 72.90625 
L 34.1875 11.53125 
L 57.328125 72.90625 
L 67.578125 72.90625 
L 39.796875 0 
z
" id="DejaVuSans-56"/>
      <path d="M 30.421875 75.984375 
L 30.421875 -13.1875 
L 9.71875 -13.1875 
L 9.71875 -6.203125 
L 21.390625 -6.203125 
L 21.390625 69 
L 9.71875 69 
L 9.71875 75.984375 
z
" id="DejaVuSans-5d"/>
     </defs>
     <g transform="translate(475.674562 468.483875)scale(0.12 -0.12)">
      <use xlink:href="#DejaVuSans-45"/>
      <use x="63.183594" xlink:href="#DejaVuSans-6e"/>
      <use x="126.5625" xlink:href="#DejaVuSans-65"/>
      <use x="188.085938" xlink:href="#DejaVuSans-72"/>
      <use x="229.183594" xlink:href="#DejaVuSans-67"/>
      <use x="292.660156" xlink:href="#DejaVuSans-79"/>
      <use x="351.839844" xlink:href="#DejaVuSans-20"/>
      <use x="383.626953" xlink:href="#DejaVuSans-5b"/>
      <use x="422.640625" xlink:href="#DejaVuSans-4d"/>
      <use x="508.919922" xlink:href="#DejaVuSans-65"/>
      <use x="570.443359" xlink:href="#DejaVuSans-56"/>
      <use x="638.851562" xlink:href="#DejaVuSans-5d"/>
     </g>
    </g>
   </g>
   <g id="matplotlib.axis_4">
    <g id="ytick_3">
     <g id="line2d_15">
      <g>
       <use style="stroke:#000000;stroke-width:0.8;" x="147.528" xlink:href="#m2b91538555" y="400.554885"/>
      </g>
     </g>
     <g id="text_11">
      <!-- 100 -->
      <g transform="translate(117.623 405.113948)scale(0.12 -0.12)">
       <use xlink:href="#DejaVuSans-31"/>
       <use x="63.623047" xlink:href="#DejaVuSans-30"/>
       <use x="127.246094" xlink:href="#DejaVuSans-30"/>
      </g>
     </g>
    </g>
    <g id="ytick_4">
     <g id="line2d_16">
      <g>
       <use style="stroke:#000000;stroke-width:0.8;" x="147.528" xlink:href="#m2b91538555" y="363.724284"/>
      </g>
     </g>
     <g id="text_12">
      <!-- 150 -->
      <g transform="translate(117.623 368.283347)scale(0.12 -0.12)">
       <use xlink:href="#DejaVuSans-31"/>
       <use x="63.623047" xlink:href="#DejaVuSans-35"/>
       <use x="127.246094" xlink:href="#DejaVuSans-30"/>
      </g>
     </g>
    </g>
    <g id="ytick_5">
     <g id="line2d_17">
      <g>
       <use style="stroke:#000000;stroke-width:0.8;" x="147.528" xlink:href="#m2b91538555" y="326.893683"/>
      </g>
     </g>
     <g id="text_13">
      <!-- 200 -->
      <g transform="translate(117.623 331.452746)scale(0.12 -0.12)">
       <use xlink:href="#DejaVuSans-32"/>
       <use x="63.623047" xlink:href="#DejaVuSans-30"/>
       <use x="127.246094" xlink:href="#DejaVuSans-30"/>
      </g>
     </g>
    </g>
    <g id="ytick_6">
     <g id="line2d_18">
      <g>
       <use style="stroke:#000000;stroke-width:0.8;" x="147.528" xlink:href="#m2b91538555" y="290.063082"/>
      </g>
     </g>
     <g id="text_14">
      <!-- 250 -->
      <g transform="translate(117.623 294.622144)scale(0.12 -0.12)">
       <use xlink:href="#DejaVuSans-32"/>
       <use x="63.623047" xlink:href="#DejaVuSans-35"/>
       <use x="127.246094" xlink:href="#DejaVuSans-30"/>
      </g>
     </g>
    </g>
    <g id="ytick_7">
     <g id="line2d_19">
      <g>
       <use style="stroke:#000000;stroke-width:0.8;" x="147.528" xlink:href="#m2b91538555" y="253.232481"/>
      </g>
     </g>
     <g id="text_15">
      <!-- 300 -->
      <g transform="translate(117.623 257.791543)scale(0.12 -0.12)">
       <use xlink:href="#DejaVuSans-33"/>
       <use x="63.623047" xlink:href="#DejaVuSans-30"/>
       <use x="127.246094" xlink:href="#DejaVuSans-30"/>
      </g>
     </g>
    </g>
    <g id="ytick_8">
     <g id="line2d_20">
      <g>
       <use style="stroke:#000000;stroke-width:0.8;" x="147.528" xlink:href="#m2b91538555" y="216.40188"/>
      </g>
     </g>
     <g id="text_16">
      <!-- 350 -->
      <g transform="translate(117.623 220.960942)scale(0.12 -0.12)">
       <use xlink:href="#DejaVuSans-33"/>
       <use x="63.623047" xlink:href="#DejaVuSans-35"/>
       <use x="127.246094" xlink:href="#DejaVuSans-30"/>
      </g>
     </g>
    </g>
    <g id="ytick_9">
     <g id="line2d_21">
      <g>
       <use style="stroke:#000000;stroke-width:0.8;" x="147.528" xlink:href="#m2b91538555" y="179.571279"/>
      </g>
     </g>
     <g id="text_17">
      <!-- 400 -->
      <g transform="translate(117.623 184.130341)scale(0.12 -0.12)">
       <use xlink:href="#DejaVuSans-34"/>
       <use x="63.623047" xlink:href="#DejaVuSans-30"/>
       <use x="127.246094" xlink:href="#DejaVuSans-30"/>
      </g>
     </g>
    </g>
    <g id="text_18">
     <!-- Counts -->
     <defs>
      <path d="M 64.40625 67.28125 
L 64.40625 56.890625 
Q 59.421875 61.53125 53.78125 63.8125 
Q 48.140625 66.109375 41.796875 66.109375 
Q 29.296875 66.109375 22.65625 58.46875 
Q 16.015625 50.828125 16.015625 36.375 
Q 16.015625 21.96875 22.65625 14.328125 
Q 29.296875 6.6875 41.796875 6.6875 
Q 48.140625 6.6875 53.78125 8.984375 
Q 59.421875 11.28125 64.40625 15.921875 
L 64.40625 5.609375 
Q 59.234375 2.09375 53.4375 0.328125 
Q 47.65625 -1.421875 41.21875 -1.421875 
Q 24.65625 -1.421875 15.125 8.703125 
Q 5.609375 18.84375 5.609375 36.375 
Q 5.609375 53.953125 15.125 64.078125 
Q 24.65625 74.21875 41.21875 74.21875 
Q 47.75 74.21875 53.53125 72.484375 
Q 59.328125 70.75 64.40625 67.28125 
z
" id="DejaVuSans-43"/>
     </defs>
     <g transform="translate(111.127375 312.11175)rotate(-90)scale(0.12 -0.12)">
      <use xlink:href="#DejaVuSans-43"/>
      <use x="69.824219" xlink:href="#DejaVuSans-6f"/>
      <use x="131.005859" xlink:href="#DejaVuSans-75"/>
      <use x="194.384766" xlink:href="#DejaVuSans-6e"/>
      <use x="257.763672" xlink:href="#DejaVuSans-74"/>
      <use x="296.972656" xlink:href="#DejaVuSans-73"/>
     </g>
    </g>
   </g>
   <g id="LineCollection_2">
    <path clip-path="url(#pb352bd55fa)" d="M 174.848 429.16244 
L 174.848 416.880664 
" style="fill:none;stroke:#0000ff;stroke-width:1.5;"/>
    <path clip-path="url(#pb352bd55fa)" d="M 182.78986 430.200728 
L 182.78986 418.052212 
" style="fill:none;stroke:#0000ff;stroke-width:1.5;"/>
    <path clip-path="url(#pb352bd55fa)" d="M 190.731721 431.583958 
L 190.731721 419.61543 
" style="fill:none;stroke:#0000ff;stroke-width:1.5;"/>
    <path clip-path="url(#pb352bd55fa)" d="M 198.673581 417.001501 
L 198.673581 403.260182 
" style="fill:none;stroke:#0000ff;stroke-width:1.5;"/>
    <path clip-path="url(#pb352bd55fa)" d="M 206.615442 414.560199 
L 206.615442 400.5452 
" style="fill:none;stroke:#0000ff;stroke-width:1.5;"/>
    <path clip-path="url(#pb352bd55fa)" d="M 214.557302 411.766939 
L 214.557302 397.445564 
" style="fill:none;stroke:#0000ff;stroke-width:1.5;"/>
    <path clip-path="url(#pb352bd55fa)" d="M 222.499163 400.563649 
L 222.499163 385.077269 
" style="fill:none;stroke:#0000ff;stroke-width:1.5;"/>
    <path clip-path="url(#pb352bd55fa)" d="M 230.441023 404.419852 
L 230.441023 389.323798 
" style="fill:none;stroke:#0000ff;stroke-width:1.5;"/>
    <path clip-path="url(#pb352bd55fa)" d="M 238.382884 400.914417 
L 238.382884 385.463113 
" style="fill:none;stroke:#0000ff;stroke-width:1.5;"/>
    <path clip-path="url(#pb352bd55fa)" d="M 246.324744 392.133916 
L 246.324744 375.828314 
" style="fill:none;stroke:#0000ff;stroke-width:1.5;"/>
    <path clip-path="url(#pb352bd55fa)" d="M 254.266605 396.000158 
L 254.266605 380.064804 
" style="fill:none;stroke:#0000ff;stroke-width:1.5;"/>
    <path clip-path="url(#pb352bd55fa)" d="M 262.208465 387.559441 
L 262.208465 370.826832 
" style="fill:none;stroke:#0000ff;stroke-width:1.5;"/>
    <path clip-path="url(#pb352bd55fa)" d="M 270.150326 379.100575 
L 270.150326 361.607009 
" style="fill:none;stroke:#0000ff;stroke-width:1.5;"/>
    <path clip-path="url(#pb352bd55fa)" d="M 278.092186 373.452392 
L 278.092186 355.469401 
" style="fill:none;stroke:#0000ff;stroke-width:1.5;"/>
    <path clip-path="url(#pb352bd55fa)" d="M 286.034047 362.491015 
L 286.034047 343.595804 
" style="fill:none;stroke:#0000ff;stroke-width:1.5;"/>
    <path clip-path="url(#pb352bd55fa)" d="M 293.975907 364.614307 
L 293.975907 345.892185 
" style="fill:none;stroke:#0000ff;stroke-width:1.5;"/>
    <path clip-path="url(#pb352bd55fa)" d="M 301.917767 351.508611 
L 301.917767 331.743236 
" style="fill:none;stroke:#0000ff;stroke-width:1.5;"/>
    <path clip-path="url(#pb352bd55fa)" d="M 309.859628 344.768237 
L 309.859628 324.487982 
" style="fill:none;stroke:#0000ff;stroke-width:1.5;"/>
    <path clip-path="url(#pb352bd55fa)" d="M 317.801488 334.823564 
L 317.801488 313.807518 
" style="fill:none;stroke:#0000ff;stroke-width:1.5;"/>
    <path clip-path="url(#pb352bd55fa)" d="M 325.743349 324.510613 
L 325.743349 302.75872 
" style="fill:none;stroke:#0000ff;stroke-width:1.5;"/>
    <path clip-path="url(#pb352bd55fa)" d="M 333.685209 321.307537 
L 333.685209 299.332288 
" style="fill:none;stroke:#0000ff;stroke-width:1.5;"/>
    <path clip-path="url(#pb352bd55fa)" d="M 341.62707 325.222251 
L 341.62707 303.520306 
" style="fill:none;stroke:#0000ff;stroke-width:1.5;"/>
    <path clip-path="url(#pb352bd55fa)" d="M 349.56893 285.648989 
L 349.56893 261.329634 
" style="fill:none;stroke:#0000ff;stroke-width:1.5;"/>
    <path clip-path="url(#pb352bd55fa)" d="M 357.510791 307.058498 
L 357.510791 284.116847 
" style="fill:none;stroke:#0000ff;stroke-width:1.5;"/>
    <path clip-path="url(#pb352bd55fa)" d="M 365.452651 294.574474 
L 365.452651 270.81945 
" style="fill:none;stroke:#0000ff;stroke-width:1.5;"/>
    <path clip-path="url(#pb352bd55fa)" d="M 373.394512 293.146845 
L 373.394512 269.300631 
" style="fill:none;stroke:#0000ff;stroke-width:1.5;"/>
    <path clip-path="url(#pb352bd55fa)" d="M 381.336372 279.933292 
L 381.336372 255.259538 
" style="fill:none;stroke:#0000ff;stroke-width:1.5;"/>
    <path clip-path="url(#pb352bd55fa)" d="M 389.278233 269.209679 
L 389.278233 243.884791 
" style="fill:none;stroke:#0000ff;stroke-width:1.5;"/>
    <path clip-path="url(#pb352bd55fa)" d="M 397.220093 263.487042 
L 397.220093 237.821636 
" style="fill:none;stroke:#0000ff;stroke-width:1.5;"/>
    <path clip-path="url(#pb352bd55fa)" d="M 405.161953 270.997532 
L 405.161953 245.779998 
" style="fill:none;stroke:#0000ff;stroke-width:1.5;"/>
    <path clip-path="url(#pb352bd55fa)" d="M 413.103814 252.035164 
L 413.103814 225.701929 
" style="fill:none;stroke:#0000ff;stroke-width:1.5;"/>
    <path clip-path="url(#pb352bd55fa)" d="M 421.045674 262.413797 
L 421.045674 236.685045 
" style="fill:none;stroke:#0000ff;stroke-width:1.5;"/>
    <path clip-path="url(#pb352bd55fa)" d="M 428.987535 250.603086 
L 428.987535 224.187559 
" style="fill:none;stroke:#0000ff;stroke-width:1.5;"/>
    <path clip-path="url(#pb352bd55fa)" d="M 436.929395 234.125289 
L 436.929395 206.781203 
" style="fill:none;stroke:#0000ff;stroke-width:1.5;"/>
    <path clip-path="url(#pb352bd55fa)" d="M 444.871256 232.691694 
L 444.871256 205.26835 
" style="fill:none;stroke:#0000ff;stroke-width:1.5;"/>
    <path clip-path="url(#pb352bd55fa)" d="M 452.813116 210.815774 
L 452.813116 182.210937 
" style="fill:none;stroke:#0000ff;stroke-width:1.5;"/>
    <path clip-path="url(#pb352bd55fa)" d="M 460.754977 210.815774 
L 460.754977 182.210937 
" style="fill:none;stroke:#0000ff;stroke-width:1.5;"/>
    <path clip-path="url(#pb352bd55fa)" d="M 468.696837 183.88729 
L 468.696837 153.893519 
" style="fill:none;stroke:#0000ff;stroke-width:1.5;"/>
    <path clip-path="url(#pb352bd55fa)" d="M 476.638698 207.586126 
L 476.638698 178.811077 
" style="fill:none;stroke:#0000ff;stroke-width:1.5;"/>
    <path clip-path="url(#pb352bd55fa)" d="M 484.580558 203.638099 
L 484.580558 174.656371 
" style="fill:none;stroke:#0000ff;stroke-width:1.5;"/>
    <path clip-path="url(#pb352bd55fa)" d="M 492.522419 198.612282 
L 492.522419 169.36962 
" style="fill:none;stroke:#0000ff;stroke-width:1.5;"/>
    <path clip-path="url(#pb352bd55fa)" d="M 500.464279 204.355977 
L 500.464279 175.411717 
" style="fill:none;stroke:#0000ff;stroke-width:1.5;"/>
    <path clip-path="url(#pb352bd55fa)" d="M 508.40614 196.817066 
L 508.40614 167.481775 
" style="fill:none;stroke:#0000ff;stroke-width:1.5;"/>
    <path clip-path="url(#pb352bd55fa)" d="M 516.348 171.669331 
L 516.348 141.066669 
" style="fill:none;stroke:#0000ff;stroke-width:1.5;"/>
    <path clip-path="url(#pb352bd55fa)" d="M 524.28986 208.662731 
L 524.28986 179.944307 
" style="fill:none;stroke:#0000ff;stroke-width:1.5;"/>
    <path clip-path="url(#pb352bd55fa)" d="M 532.231721 189.275583 
L 532.231721 159.554406 
" style="fill:none;stroke:#0000ff;stroke-width:1.5;"/>
    <path clip-path="url(#pb352bd55fa)" d="M 540.173581 210.456949 
L 540.173581 181.83315 
" style="fill:none;stroke:#0000ff;stroke-width:1.5;"/>
    <path clip-path="url(#pb352bd55fa)" d="M 548.115442 184.6058 
L 548.115442 154.648232 
" style="fill:none;stroke:#0000ff;stroke-width:1.5;"/>
    <path clip-path="url(#pb352bd55fa)" d="M 556.057302 199.689341 
L 556.057302 170.502397 
" style="fill:none;stroke:#0000ff;stroke-width:1.5;"/>
    <path clip-path="url(#pb352bd55fa)" d="M 563.999163 191.071402 
L 563.999163 161.441647 
" style="fill:none;stroke:#0000ff;stroke-width:1.5;"/>
    <path clip-path="url(#pb352bd55fa)" d="M 571.941023 190.71225 
L 571.941023 161.064188 
" style="fill:none;stroke:#0000ff;stroke-width:1.5;"/>
    <path clip-path="url(#pb352bd55fa)" d="M 579.882884 193.226198 
L 579.882884 163.706523 
" style="fill:none;stroke:#0000ff;stroke-width:1.5;"/>
    <path clip-path="url(#pb352bd55fa)" d="M 587.824744 203.279151 
L 587.824744 174.278707 
" style="fill:none;stroke:#0000ff;stroke-width:1.5;"/>
    <path clip-path="url(#pb352bd55fa)" d="M 595.766605 195.380788 
L 595.766605 165.971605 
" style="fill:none;stroke:#0000ff;stroke-width:1.5;"/>
    <path clip-path="url(#pb352bd55fa)" d="M 603.708465 220.501624 
L 603.708465 192.413611 
" style="fill:none;stroke:#0000ff;stroke-width:1.5;"/>
    <path clip-path="url(#pb352bd55fa)" d="M 611.650326 223.01199 
L 611.650326 195.059529 
" style="fill:none;stroke:#0000ff;stroke-width:1.5;"/>
    <path clip-path="url(#pb352bd55fa)" d="M 619.592186 227.673219 
L 619.592186 199.974256 
" style="fill:none;stroke:#0000ff;stroke-width:1.5;"/>
    <path clip-path="url(#pb352bd55fa)" d="M 627.534047 207.945 
L 627.534047 179.188814 
" style="fill:none;stroke:#0000ff;stroke-width:1.5;"/>
    <path clip-path="url(#pb352bd55fa)" d="M 635.475907 241.649748 
L 635.475907 214.725596 
" style="fill:none;stroke:#0000ff;stroke-width:1.5;"/>
    <path clip-path="url(#pb352bd55fa)" d="M 643.417767 255.972711 
L 643.417767 229.867114 
" style="fill:none;stroke:#0000ff;stroke-width:1.5;"/>
    <path clip-path="url(#pb352bd55fa)" d="M 651.359628 234.48367 
L 651.359628 207.159434 
" style="fill:none;stroke:#0000ff;stroke-width:1.5;"/>
    <path clip-path="url(#pb352bd55fa)" d="M 659.301488 269.567268 
L 659.301488 244.263814 
" style="fill:none;stroke:#0000ff;stroke-width:1.5;"/>
    <path clip-path="url(#pb352bd55fa)" d="M 667.243349 279.218652 
L 667.243349 254.500955 
" style="fill:none;stroke:#0000ff;stroke-width:1.5;"/>
    <path clip-path="url(#pb352bd55fa)" d="M 675.185209 297.429202 
L 675.185209 273.857617 
" style="fill:none;stroke:#0000ff;stroke-width:1.5;"/>
    <path clip-path="url(#pb352bd55fa)" d="M 683.12707 288.148789 
L 683.12707 263.986118 
" style="fill:none;stroke:#0000ff;stroke-width:1.5;"/>
    <path clip-path="url(#pb352bd55fa)" d="M 691.06893 297.785993 
L 691.06893 274.237439 
" style="fill:none;stroke:#0000ff;stroke-width:1.5;"/>
    <path clip-path="url(#pb352bd55fa)" d="M 699.010791 290.291068 
L 699.010791 266.263511 
" style="fill:none;stroke:#0000ff;stroke-width:1.5;"/>
    <path clip-path="url(#pb352bd55fa)" d="M 706.952651 297.429202 
L 706.952651 273.857617 
" style="fill:none;stroke:#0000ff;stroke-width:1.5;"/>
    <path clip-path="url(#pb352bd55fa)" d="M 714.894512 319.527563 
L 714.894512 297.429202 
" style="fill:none;stroke:#0000ff;stroke-width:1.5;"/>
    <path clip-path="url(#pb352bd55fa)" d="M 722.836372 325.578049 
L 722.836372 303.90112 
" style="fill:none;stroke:#0000ff;stroke-width:1.5;"/>
    <path clip-path="url(#pb352bd55fa)" d="M 730.778233 334.112738 
L 730.778233 313.045119 
" style="fill:none;stroke:#0000ff;stroke-width:1.5;"/>
    <path clip-path="url(#pb352bd55fa)" d="M 738.720093 331.268812 
L 738.720093 309.99615 
" style="fill:none;stroke:#0000ff;stroke-width:1.5;"/>
    <path clip-path="url(#pb352bd55fa)" d="M 746.661953 334.468159 
L 746.661953 313.426311 
" style="fill:none;stroke:#0000ff;stroke-width:1.5;"/>
    <path clip-path="url(#pb352bd55fa)" d="M 754.603814 350.090139 
L 754.603814 330.21526 
" style="fill:none;stroke:#0000ff;stroke-width:1.5;"/>
    <path clip-path="url(#pb352bd55fa)" d="M 762.545674 362.137057 
L 762.545674 343.213151 
" style="fill:none;stroke:#0000ff;stroke-width:1.5;"/>
    <path clip-path="url(#pb352bd55fa)" d="M 770.487535 369.21197 
L 770.487535 350.870478 
" style="fill:none;stroke:#0000ff;stroke-width:1.5;"/>
    <path clip-path="url(#pb352bd55fa)" d="M 778.429395 379.806115 
L 778.429395 362.374693 
" style="fill:none;stroke:#0000ff;stroke-width:1.5;"/>
    <path clip-path="url(#pb352bd55fa)" d="M 786.371256 378.04206 
L 786.371256 360.455689 
" style="fill:none;stroke:#0000ff;stroke-width:1.5;"/>
    <path clip-path="url(#pb352bd55fa)" d="M 794.313116 383.332123 
L 794.313116 366.214806 
" style="fill:none;stroke:#0000ff;stroke-width:1.5;"/>
    <path clip-path="url(#pb352bd55fa)" d="M 802.254977 392.837183 
L 802.254977 376.598271 
" style="fill:none;stroke:#0000ff;stroke-width:1.5;"/>
    <path clip-path="url(#pb352bd55fa)" d="M 810.196837 404.069496 
L 810.196837 388.937542 
" style="fill:none;stroke:#0000ff;stroke-width:1.5;"/>
    <path clip-path="url(#pb352bd55fa)" d="M 818.138698 398.107181 
L 818.138698 382.377453 
" style="fill:none;stroke:#0000ff;stroke-width:1.5;"/>
    <path clip-path="url(#pb352bd55fa)" d="M 826.080558 417.698512 
L 826.080558 404.036395 
" style="fill:none;stroke:#0000ff;stroke-width:1.5;"/>
    <path clip-path="url(#pb352bd55fa)" d="M 834.022419 405.470662 
L 834.022419 390.482824 
" style="fill:none;stroke:#0000ff;stroke-width:1.5;"/>
    <path clip-path="url(#pb352bd55fa)" d="M 841.964279 424.307992 
L 841.964279 411.422544 
" style="fill:none;stroke:#0000ff;stroke-width:1.5;"/>
    <path clip-path="url(#pb352bd55fa)" d="M 849.90614 429.854713 
L 849.90614 417.661615 
" style="fill:none;stroke:#0000ff;stroke-width:1.5;"/>
    <path clip-path="url(#pb352bd55fa)" d="M 857.848 431.929554 
L 857.848 420.006446 
" style="fill:none;stroke:#0000ff;stroke-width:1.5;"/>
   </g>
   <g id="line2d_22">
    <path clip-path="url(#pb352bd55fa)" d="M 174.848 474.111278 
L 204.246398 473.870456 
L 223.389542 473.502559 
L 237.746899 473.019926 
L 250.053205 472.387487 
L 260.30846 471.645168 
L 269.196348 470.794851 
L 277.400553 469.797179 
L 284.921073 468.665941 
L 291.75791 467.425567 
L 298.594747 465.951452 
L 304.7479 464.397146 
L 310.901053 462.599982 
L 316.370523 460.776164 
L 321.839992 458.718105 
L 327.309461 456.404785 
L 332.095247 454.154388 
L 336.881033 451.677662 
L 341.666819 448.960163 
L 346.452605 445.987654 
L 351.23839 442.746279 
L 356.024176 439.222759 
L 360.809962 435.404606 
L 365.595748 431.280341 
L 370.381534 426.839734 
L 375.167319 422.074041 
L 379.953105 416.976258 
L 384.738891 411.541365 
L 389.524677 405.766581 
L 394.310462 399.651598 
L 399.096248 393.198819 
L 404.565718 385.41756 
L 410.035187 377.215121 
L 415.504657 368.610111 
L 421.65781 358.479044 
L 427.810963 347.913817 
L 434.6478 335.731535 
L 442.852004 320.619101 
L 453.790943 299.93297 
L 471.566719 266.25316 
L 479.087239 252.491776 
L 485.240392 241.658208 
L 490.709862 232.448627 
L 495.495648 224.779368 
L 500.281433 217.527391 
L 504.383536 211.681416 
L 508.485638 206.20884 
L 512.58774 201.138309 
L 516.006158 197.239462 
L 519.424577 193.653085 
L 522.842995 190.392684 
L 526.261413 187.470643 
L 529.679832 184.898142 
L 532.414567 183.098513 
L 535.149301 181.533417 
L 537.884036 180.206747 
L 540.618771 179.121814 
L 543.353506 178.281336 
L 546.08824 177.687418 
L 548.822975 177.341555 
L 551.55771 177.244617 
L 554.292444 177.396845 
L 557.027179 177.797859 
L 559.761914 178.44665 
L 562.496649 179.341587 
L 565.231383 180.480426 
L 567.966118 181.86032 
L 570.700853 183.477826 
L 573.435588 185.328922 
L 576.170322 187.409027 
L 579.588741 190.32334 
L 583.007159 193.576277 
L 586.425578 197.155482 
L 589.843996 201.047471 
L 593.262414 205.237724 
L 597.364517 210.637887 
L 601.466619 216.416878 
L 606.252404 223.597907 
L 611.03819 231.204275 
L 616.50766 240.352138 
L 622.660813 251.129451 
L 629.49765 263.574956 
L 638.385538 280.248928 
L 665.049201 330.605902 
L 672.569722 344.168839 
L 679.406559 356.036623 
L 685.559712 366.273912 
L 691.029181 374.981368 
L 696.498651 383.292143 
L 701.96812 391.186091 
L 707.43759 398.648787 
L 712.223375 404.817676 
L 717.009161 410.646561 
L 721.794947 416.135334 
L 726.580733 421.2864 
L 731.366519 426.104439 
L 736.152304 430.596157 
L 740.93809 434.770037 
L 745.723876 438.636091 
L 750.509662 442.205614 
L 755.295447 445.490949 
L 760.081233 448.505265 
L 764.867019 451.262338 
L 769.652805 453.776359 
L 774.438591 456.061749 
L 779.90806 458.412248 
L 785.37753 460.504526 
L 790.846999 462.359673 
L 796.316468 463.99818 
L 802.469622 465.607062 
L 808.622775 466.993365 
L 815.459612 468.303041 
L 822.980132 469.499784 
L 831.184336 470.557441 
L 840.072224 471.460923 
L 849.643796 472.206095 
L 857.848 472.694656 
L 857.848 472.694656 
" style="fill:none;stroke:#404040;stroke-linecap:square;stroke-width:1.5;"/>
   </g>
   <g id="line2d_23">
    <path clip-path="url(#pb352bd55fa)" d="M 174.848 428.561354 
L 183.052204 425.03689 
L 190.572725 421.574167 
L 198.093245 417.88306 
L 205.613766 413.958082 
L 213.134286 409.794671 
L 220.654807 405.389311 
L 228.175327 400.739642 
L 235.695848 395.844582 
L 243.900052 390.225043 
L 252.104256 384.316281 
L 260.30846 378.122988 
L 268.512665 371.652262 
L 277.400553 364.340459 
L 286.28844 356.730123 
L 295.860012 348.222914 
L 305.431584 339.421338 
L 316.370523 329.046285 
L 328.676829 317.043021 
L 343.71787 302.034534 
L 386.106258 259.524224 
L 397.045197 248.976164 
L 406.616769 240.045936 
L 415.504657 232.066617 
L 423.708861 225.01703 
L 431.229381 218.858344 
L 438.066218 213.538815 
L 444.903055 208.508969 
L 451.056208 204.247995 
L 457.209361 200.254803 
L 463.362515 196.543896 
L 468.831984 193.493323 
L 474.301453 190.68549 
L 479.770923 188.128673 
L 485.240392 185.830463 
L 490.709862 183.797721 
L 495.495648 182.241655 
L 500.281433 180.897114 
L 505.067219 179.767214 
L 509.853005 178.854579 
L 514.638791 178.161335 
L 519.424577 177.689099 
L 524.210362 177.438976 
L 528.996148 177.411551 
L 533.781934 177.606886 
L 538.56772 178.024527 
L 543.353506 178.663495 
L 548.139291 179.5223 
L 552.925077 180.598941 
L 557.710863 181.890914 
L 562.496649 183.395224 
L 567.282434 185.108394 
L 572.751904 187.316973 
L 578.221373 189.786576 
L 583.690843 192.509859 
L 589.160312 195.478773 
L 594.629782 198.684611 
L 600.782935 202.562735 
L 606.936088 206.714744 
L 613.089241 211.125653 
L 619.926078 216.311163 
L 626.762915 221.774365 
L 634.283435 228.076746 
L 642.48764 235.265464 
L 651.375528 243.37432 
L 660.947099 252.419136 
L 671.886038 263.066536 
L 686.243395 277.38071 
L 729.999151 321.263095 
L 742.305457 333.153271 
L 753.244396 343.401788 
L 762.815968 352.075332 
L 772.38754 360.440764 
L 781.275427 367.909155 
L 789.479632 374.531278 
L 797.683836 380.881041 
L 805.88804 386.949945 
L 814.092244 392.731966 
L 822.296448 398.223427 
L 829.816969 403.000721 
L 837.337489 407.532976 
L 844.85801 411.821903 
L 852.378531 415.870429 
L 857.848 418.666079 
L 857.848 418.666079 
" style="fill:none;stroke:#ff0000;stroke-linecap:square;stroke-width:1.5;"/>
   </g>
   <g id="line2d_24">
    <g clip-path="url(#pb352bd55fa)">
     <use style="fill:#0000ff;stroke:#0000ff;" x="174.848" xlink:href="#m8b4c9060c5" y="423.021552"/>
     <use style="fill:#0000ff;stroke:#0000ff;" x="182.78986" xlink:href="#m8b4c9060c5" y="424.12647"/>
     <use style="fill:#0000ff;stroke:#0000ff;" x="190.731721" xlink:href="#m8b4c9060c5" y="425.599694"/>
     <use style="fill:#0000ff;stroke:#0000ff;" x="198.673581" xlink:href="#m8b4c9060c5" y="410.130842"/>
     <use style="fill:#0000ff;stroke:#0000ff;" x="206.615442" xlink:href="#m8b4c9060c5" y="407.552699"/>
     <use style="fill:#0000ff;stroke:#0000ff;" x="214.557302" xlink:href="#m8b4c9060c5" y="404.606251"/>
     <use style="fill:#0000ff;stroke:#0000ff;" x="222.499163" xlink:href="#m8b4c9060c5" y="392.820459"/>
     <use style="fill:#0000ff;stroke:#0000ff;" x="230.441023" xlink:href="#m8b4c9060c5" y="396.871825"/>
     <use style="fill:#0000ff;stroke:#0000ff;" x="238.382884" xlink:href="#m8b4c9060c5" y="393.188765"/>
     <use style="fill:#0000ff;stroke:#0000ff;" x="246.324744" xlink:href="#m8b4c9060c5" y="383.981115"/>
     <use style="fill:#0000ff;stroke:#0000ff;" x="254.266605" xlink:href="#m8b4c9060c5" y="388.032481"/>
     <use style="fill:#0000ff;stroke:#0000ff;" x="262.208465" xlink:href="#m8b4c9060c5" y="379.193137"/>
     <use style="fill:#0000ff;stroke:#0000ff;" x="270.150326" xlink:href="#m8b4c9060c5" y="370.353792"/>
     <use style="fill:#0000ff;stroke:#0000ff;" x="278.092186" xlink:href="#m8b4c9060c5" y="364.460896"/>
     <use style="fill:#0000ff;stroke:#0000ff;" x="286.034047" xlink:href="#m8b4c9060c5" y="353.04341"/>
     <use style="fill:#0000ff;stroke:#0000ff;" x="293.975907" xlink:href="#m8b4c9060c5" y="355.253246"/>
     <use style="fill:#0000ff;stroke:#0000ff;" x="301.917767" xlink:href="#m8b4c9060c5" y="341.625923"/>
     <use style="fill:#0000ff;stroke:#0000ff;" x="309.859628" xlink:href="#m8b4c9060c5" y="334.628109"/>
     <use style="fill:#0000ff;stroke:#0000ff;" x="317.801488" xlink:href="#m8b4c9060c5" y="324.315541"/>
     <use style="fill:#0000ff;stroke:#0000ff;" x="325.743349" xlink:href="#m8b4c9060c5" y="313.634667"/>
     <use style="fill:#0000ff;stroke:#0000ff;" x="333.685209" xlink:href="#m8b4c9060c5" y="310.319913"/>
     <use style="fill:#0000ff;stroke:#0000ff;" x="341.62707" xlink:href="#m8b4c9060c5" y="314.371279"/>
     <use style="fill:#0000ff;stroke:#0000ff;" x="349.56893" xlink:href="#m8b4c9060c5" y="273.489311"/>
     <use style="fill:#0000ff;stroke:#0000ff;" x="357.510791" xlink:href="#m8b4c9060c5" y="295.587672"/>
     <use style="fill:#0000ff;stroke:#0000ff;" x="365.452651" xlink:href="#m8b4c9060c5" y="282.696962"/>
     <use style="fill:#0000ff;stroke:#0000ff;" x="373.394512" xlink:href="#m8b4c9060c5" y="281.223738"/>
     <use style="fill:#0000ff;stroke:#0000ff;" x="381.336372" xlink:href="#m8b4c9060c5" y="267.596415"/>
     <use style="fill:#0000ff;stroke:#0000ff;" x="389.278233" xlink:href="#m8b4c9060c5" y="256.547235"/>
     <use style="fill:#0000ff;stroke:#0000ff;" x="397.220093" xlink:href="#m8b4c9060c5" y="250.654339"/>
     <use style="fill:#0000ff;stroke:#0000ff;" x="405.161953" xlink:href="#m8b4c9060c5" y="258.388765"/>
     <use style="fill:#0000ff;stroke:#0000ff;" x="413.103814" xlink:href="#m8b4c9060c5" y="238.868546"/>
     <use style="fill:#0000ff;stroke:#0000ff;" x="421.045674" xlink:href="#m8b4c9060c5" y="249.549421"/>
     <use style="fill:#0000ff;stroke:#0000ff;" x="428.987535" xlink:href="#m8b4c9060c5" y="237.395322"/>
     <use style="fill:#0000ff;stroke:#0000ff;" x="436.929395" xlink:href="#m8b4c9060c5" y="220.453246"/>
     <use style="fill:#0000ff;stroke:#0000ff;" x="444.871256" xlink:href="#m8b4c9060c5" y="218.980022"/>
     <use style="fill:#0000ff;stroke:#0000ff;" x="452.813116" xlink:href="#m8b4c9060c5" y="196.513355"/>
     <use style="fill:#0000ff;stroke:#0000ff;" x="460.754977" xlink:href="#m8b4c9060c5" y="196.513355"/>
     <use style="fill:#0000ff;stroke:#0000ff;" x="468.696837" xlink:href="#m8b4c9060c5" y="168.890404"/>
     <use style="fill:#0000ff;stroke:#0000ff;" x="476.638698" xlink:href="#m8b4c9060c5" y="193.198601"/>
     <use style="fill:#0000ff;stroke:#0000ff;" x="484.580558" xlink:href="#m8b4c9060c5" y="189.147235"/>
     <use style="fill:#0000ff;stroke:#0000ff;" x="492.522419" xlink:href="#m8b4c9060c5" y="183.990951"/>
     <use style="fill:#0000ff;stroke:#0000ff;" x="500.464279" xlink:href="#m8b4c9060c5" y="189.883847"/>
     <use style="fill:#0000ff;stroke:#0000ff;" x="508.40614" xlink:href="#m8b4c9060c5" y="182.149421"/>
     <use style="fill:#0000ff;stroke:#0000ff;" x="516.348" xlink:href="#m8b4c9060c5" y="156.368"/>
     <use style="fill:#0000ff;stroke:#0000ff;" x="524.28986" xlink:href="#m8b4c9060c5" y="194.303519"/>
     <use style="fill:#0000ff;stroke:#0000ff;" x="532.231721" xlink:href="#m8b4c9060c5" y="174.414995"/>
     <use style="fill:#0000ff;stroke:#0000ff;" x="540.173581" xlink:href="#m8b4c9060c5" y="196.145049"/>
     <use style="fill:#0000ff;stroke:#0000ff;" x="548.115442" xlink:href="#m8b4c9060c5" y="169.627016"/>
     <use style="fill:#0000ff;stroke:#0000ff;" x="556.057302" xlink:href="#m8b4c9060c5" y="185.095869"/>
     <use style="fill:#0000ff;stroke:#0000ff;" x="563.999163" xlink:href="#m8b4c9060c5" y="176.256525"/>
     <use style="fill:#0000ff;stroke:#0000ff;" x="571.941023" xlink:href="#m8b4c9060c5" y="175.888219"/>
     <use style="fill:#0000ff;stroke:#0000ff;" x="579.882884" xlink:href="#m8b4c9060c5" y="178.466361"/>
     <use style="fill:#0000ff;stroke:#0000ff;" x="587.824744" xlink:href="#m8b4c9060c5" y="188.778929"/>
     <use style="fill:#0000ff;stroke:#0000ff;" x="595.766605" xlink:href="#m8b4c9060c5" y="180.676197"/>
     <use style="fill:#0000ff;stroke:#0000ff;" x="603.708465" xlink:href="#m8b4c9060c5" y="206.457617"/>
     <use style="fill:#0000ff;stroke:#0000ff;" x="611.650326" xlink:href="#m8b4c9060c5" y="209.03576"/>
     <use style="fill:#0000ff;stroke:#0000ff;" x="619.592186" xlink:href="#m8b4c9060c5" y="213.823738"/>
     <use style="fill:#0000ff;stroke:#0000ff;" x="627.534047" xlink:href="#m8b4c9060c5" y="193.566907"/>
     <use style="fill:#0000ff;stroke:#0000ff;" x="635.475907" xlink:href="#m8b4c9060c5" y="228.187672"/>
     <use style="fill:#0000ff;stroke:#0000ff;" x="643.417767" xlink:href="#m8b4c9060c5" y="242.919913"/>
     <use style="fill:#0000ff;stroke:#0000ff;" x="651.359628" xlink:href="#m8b4c9060c5" y="220.821552"/>
     <use style="fill:#0000ff;stroke:#0000ff;" x="659.301488" xlink:href="#m8b4c9060c5" y="256.915541"/>
     <use style="fill:#0000ff;stroke:#0000ff;" x="667.243349" xlink:href="#m8b4c9060c5" y="266.859803"/>
     <use style="fill:#0000ff;stroke:#0000ff;" x="675.185209" xlink:href="#m8b4c9060c5" y="285.64341"/>
     <use style="fill:#0000ff;stroke:#0000ff;" x="683.12707" xlink:href="#m8b4c9060c5" y="276.067454"/>
     <use style="fill:#0000ff;stroke:#0000ff;" x="691.06893" xlink:href="#m8b4c9060c5" y="286.011716"/>
     <use style="fill:#0000ff;stroke:#0000ff;" x="699.010791" xlink:href="#m8b4c9060c5" y="278.27729"/>
     <use style="fill:#0000ff;stroke:#0000ff;" x="706.952651" xlink:href="#m8b4c9060c5" y="285.64341"/>
     <use style="fill:#0000ff;stroke:#0000ff;" x="714.894512" xlink:href="#m8b4c9060c5" y="308.478383"/>
     <use style="fill:#0000ff;stroke:#0000ff;" x="722.836372" xlink:href="#m8b4c9060c5" y="314.739585"/>
     <use style="fill:#0000ff;stroke:#0000ff;" x="730.778233" xlink:href="#m8b4c9060c5" y="323.578929"/>
     <use style="fill:#0000ff;stroke:#0000ff;" x="738.720093" xlink:href="#m8b4c9060c5" y="320.632481"/>
     <use style="fill:#0000ff;stroke:#0000ff;" x="746.661953" xlink:href="#m8b4c9060c5" y="323.947235"/>
     <use style="fill:#0000ff;stroke:#0000ff;" x="754.603814" xlink:href="#m8b4c9060c5" y="340.152699"/>
     <use style="fill:#0000ff;stroke:#0000ff;" x="762.545674" xlink:href="#m8b4c9060c5" y="352.675104"/>
     <use style="fill:#0000ff;stroke:#0000ff;" x="770.487535" xlink:href="#m8b4c9060c5" y="360.041224"/>
     <use style="fill:#0000ff;stroke:#0000ff;" x="778.429395" xlink:href="#m8b4c9060c5" y="371.090404"/>
     <use style="fill:#0000ff;stroke:#0000ff;" x="786.371256" xlink:href="#m8b4c9060c5" y="369.248874"/>
     <use style="fill:#0000ff;stroke:#0000ff;" x="794.313116" xlink:href="#m8b4c9060c5" y="374.773464"/>
     <use style="fill:#0000ff;stroke:#0000ff;" x="802.254977" xlink:href="#m8b4c9060c5" y="384.717727"/>
     <use style="fill:#0000ff;stroke:#0000ff;" x="810.196837" xlink:href="#m8b4c9060c5" y="396.503519"/>
     <use style="fill:#0000ff;stroke:#0000ff;" x="818.138698" xlink:href="#m8b4c9060c5" y="390.242317"/>
     <use style="fill:#0000ff;stroke:#0000ff;" x="826.080558" xlink:href="#m8b4c9060c5" y="410.867454"/>
     <use style="fill:#0000ff;stroke:#0000ff;" x="834.022419" xlink:href="#m8b4c9060c5" y="397.976743"/>
     <use style="fill:#0000ff;stroke:#0000ff;" x="841.964279" xlink:href="#m8b4c9060c5" y="417.865268"/>
     <use style="fill:#0000ff;stroke:#0000ff;" x="849.90614" xlink:href="#m8b4c9060c5" y="423.758164"/>
     <use style="fill:#0000ff;stroke:#0000ff;" x="857.848" xlink:href="#m8b4c9060c5" y="425.968"/>
    </g>
   </g>
   <g id="patch_8">
    <path d="M 147.528 436.752 
L 147.528 145.584 
" style="fill:none;stroke:#000000;stroke-linecap:square;stroke-linejoin:miter;stroke-width:0.8;"/>
   </g>
   <g id="patch_9">
    <path d="M 885.168 436.752 
L 885.168 145.584 
" style="fill:none;stroke:#000000;stroke-linecap:square;stroke-linejoin:miter;stroke-width:0.8;"/>
   </g>
   <g id="patch_10">
    <path d="M 147.528 436.752 
L 885.168 436.752 
" style="fill:none;stroke:#000000;stroke-linecap:square;stroke-linejoin:miter;stroke-width:0.8;"/>
   </g>
   <g id="patch_11">
    <path d="M 147.528 145.584 
L 885.168 145.584 
" style="fill:none;stroke:#000000;stroke-linecap:square;stroke-linejoin:miter;stroke-width:0.8;"/>
   </g>
  </g>
 </g>
 <defs>
  <clipPath id="p885615a4ca">
   <rect height="72.792" width="737.64" x="147.528" y="63.0864"/>
  </clipPath>
  <clipPath id="pb352bd55fa">
   <rect height="291.168" width="737.64" x="147.528" y="145.584"/>
  </clipPath>
 </defs>
</svg>
