<?xml version="1.0" encoding="utf-8" standalone="no"?>
<!DOCTYPE svg PUBLIC "-//W3C//DTD SVG 1.1//EN"
  "http://www.w3.org/Graphics/SVG/1.1/DTD/svg11.dtd">
<!-- Created with matplotlib (http://matplotlib.org/) -->
<svg height="485pt" version="1.1" viewBox="0 0 983 485" width="983pt" xmlns="http://www.w3.org/2000/svg" xmlns:xlink="http://www.w3.org/1999/xlink">
 <defs>
  <style type="text/css">
*{stroke-linecap:butt;stroke-linejoin:round;}
  </style>
 </defs>
 <g id="figure_1">
  <g id="patch_1">
   <path d="M 0 485.28 
L 983.52 485.28 
L 983.52 0 
L 0 0 
z
" style="fill:#ffffff;"/>
  </g>
  <g id="axes_1">
   <g id="patch_2">
    <path d="M 147.528 135.8784 
L 885.168 135.8784 
L 885.168 63.0864 
L 147.528 63.0864 
z
" style="fill:#ffffff;"/>
   </g>
   <g id="matplotlib.axis_1">
    <g id="xtick_1">
     <g id="line2d_1">
      <defs>
       <path d="M 0 0 
L 0 3.5 
" id="m60b7f48aea" style="stroke:#000000;stroke-width:0.8;"/>
      </defs>
      <g>
       <use style="stroke:#000000;stroke-width:0.8;" x="150.206767" xlink:href="#m60b7f48aea" y="135.8784"/>
      </g>
     </g>
    </g>
    <g id="xtick_2">
     <g id="line2d_2">
      <g>
       <use style="stroke:#000000;stroke-width:0.8;" x="279.210458" xlink:href="#m60b7f48aea" y="135.8784"/>
      </g>
     </g>
    </g>
    <g id="xtick_3">
     <g id="line2d_3">
      <g>
       <use style="stroke:#000000;stroke-width:0.8;" x="408.21415" xlink:href="#m60b7f48aea" y="135.8784"/>
      </g>
     </g>
    </g>
    <g id="xtick_4">
     <g id="line2d_4">
      <g>
       <use style="stroke:#000000;stroke-width:0.8;" x="537.217842" xlink:href="#m60b7f48aea" y="135.8784"/>
      </g>
     </g>
    </g>
    <g id="xtick_5">
     <g id="line2d_5">
      <g>
       <use style="stroke:#000000;stroke-width:0.8;" x="666.221534" xlink:href="#m60b7f48aea" y="135.8784"/>
      </g>
     </g>
    </g>
    <g id="xtick_6">
     <g id="line2d_6">
      <g>
       <use style="stroke:#000000;stroke-width:0.8;" x="795.225226" xlink:href="#m60b7f48aea" y="135.8784"/>
      </g>
     </g>
    </g>
   </g>
   <g id="matplotlib.axis_2">
    <g id="ytick_1">
     <g id="line2d_7">
      <defs>
       <path d="M 0 0 
L -3.5 0 
" id="m427bc7666e" style="stroke:#000000;stroke-width:0.8;"/>
      </defs>
      <g>
       <use style="stroke:#000000;stroke-width:0.8;" x="147.528" xlink:href="#m427bc7666e" y="123.542352"/>
      </g>
     </g>
     <g id="text_1">
      <!-- −2 -->
      <defs>
       <path d="M 10.59375 35.5 
L 73.1875 35.5 
L 73.1875 27.203125 
L 10.59375 27.203125 
z
" id="DejaVuSans-2212"/>
       <path d="M 19.1875 8.296875 
L 53.609375 8.296875 
L 53.609375 0 
L 7.328125 0 
L 7.328125 8.296875 
Q 12.9375 14.109375 22.625 23.890625 
Q 32.328125 33.6875 34.8125 36.53125 
Q 39.546875 41.84375 41.421875 45.53125 
Q 43.3125 49.21875 43.3125 52.78125 
Q 43.3125 58.59375 39.234375 62.25 
Q 35.15625 65.921875 28.609375 65.921875 
Q 23.96875 65.921875 18.8125 64.3125 
Q 13.671875 62.703125 7.8125 59.421875 
L 7.8125 69.390625 
Q 13.765625 71.78125 18.9375 73 
Q 24.125 74.21875 28.421875 74.21875 
Q 39.75 74.21875 46.484375 68.546875 
Q 53.21875 62.890625 53.21875 53.421875 
Q 53.21875 48.921875 51.53125 44.890625 
Q 49.859375 40.875 45.40625 35.40625 
Q 44.1875 33.984375 37.640625 27.21875 
Q 31.109375 20.453125 19.1875 8.296875 
z
" id="DejaVuSans-32"/>
      </defs>
      <g transform="translate(122.837375 128.101414)scale(0.12 -0.12)">
       <use xlink:href="#DejaVuSans-2212"/>
       <use x="83.789062" xlink:href="#DejaVuSans-32"/>
      </g>
     </g>
    </g>
    <g id="ytick_2">
     <g id="line2d_8">
      <g>
       <use style="stroke:#000000;stroke-width:0.8;" x="147.528" xlink:href="#m427bc7666e" y="94.9178"/>
      </g>
     </g>
    </g>
    <g id="ytick_3">
     <g id="line2d_9">
      <g>
       <use style="stroke:#000000;stroke-width:0.8;" x="147.528" xlink:href="#m427bc7666e" y="66.293248"/>
      </g>
     </g>
     <g id="text_2">
      <!-- 2 -->
      <g transform="translate(132.893 70.852311)scale(0.12 -0.12)">
       <use xlink:href="#DejaVuSans-32"/>
      </g>
     </g>
    </g>
    <g id="text_3">
     <!-- Studentized -->
     <defs>
      <path d="M 53.515625 70.515625 
L 53.515625 60.890625 
Q 47.90625 63.578125 42.921875 64.890625 
Q 37.9375 66.21875 33.296875 66.21875 
Q 25.25 66.21875 20.875 63.09375 
Q 16.5 59.96875 16.5 54.203125 
Q 16.5 49.359375 19.40625 46.890625 
Q 22.3125 44.4375 30.421875 42.921875 
L 36.375 41.703125 
Q 47.40625 39.59375 52.65625 34.296875 
Q 57.90625 29 57.90625 20.125 
Q 57.90625 9.515625 50.796875 4.046875 
Q 43.703125 -1.421875 29.984375 -1.421875 
Q 24.8125 -1.421875 18.96875 -0.25 
Q 13.140625 0.921875 6.890625 3.21875 
L 6.890625 13.375 
Q 12.890625 10.015625 18.65625 8.296875 
Q 24.421875 6.59375 29.984375 6.59375 
Q 38.421875 6.59375 43.015625 9.90625 
Q 47.609375 13.234375 47.609375 19.390625 
Q 47.609375 24.75 44.3125 27.78125 
Q 41.015625 30.8125 33.5 32.328125 
L 27.484375 33.5 
Q 16.453125 35.6875 11.515625 40.375 
Q 6.59375 45.0625 6.59375 53.421875 
Q 6.59375 63.09375 13.40625 68.65625 
Q 20.21875 74.21875 32.171875 74.21875 
Q 37.3125 74.21875 42.625 73.28125 
Q 47.953125 72.359375 53.515625 70.515625 
z
" id="DejaVuSans-53"/>
      <path d="M 18.3125 70.21875 
L 18.3125 54.6875 
L 36.8125 54.6875 
L 36.8125 47.703125 
L 18.3125 47.703125 
L 18.3125 18.015625 
Q 18.3125 11.328125 20.140625 9.421875 
Q 21.96875 7.515625 27.59375 7.515625 
L 36.8125 7.515625 
L 36.8125 0 
L 27.59375 0 
Q 17.1875 0 13.234375 3.875 
Q 9.28125 7.765625 9.28125 18.015625 
L 9.28125 47.703125 
L 2.6875 47.703125 
L 2.6875 54.6875 
L 9.28125 54.6875 
L 9.28125 70.21875 
z
" id="DejaVuSans-74"/>
      <path d="M 8.5 21.578125 
L 8.5 54.6875 
L 17.484375 54.6875 
L 17.484375 21.921875 
Q 17.484375 14.15625 20.5 10.265625 
Q 23.53125 6.390625 29.59375 6.390625 
Q 36.859375 6.390625 41.078125 11.03125 
Q 45.3125 15.671875 45.3125 23.6875 
L 45.3125 54.6875 
L 54.296875 54.6875 
L 54.296875 0 
L 45.3125 0 
L 45.3125 8.40625 
Q 42.046875 3.421875 37.71875 1 
Q 33.40625 -1.421875 27.6875 -1.421875 
Q 18.265625 -1.421875 13.375 4.4375 
Q 8.5 10.296875 8.5 21.578125 
z
M 31.109375 56 
z
" id="DejaVuSans-75"/>
      <path d="M 45.40625 46.390625 
L 45.40625 75.984375 
L 54.390625 75.984375 
L 54.390625 0 
L 45.40625 0 
L 45.40625 8.203125 
Q 42.578125 3.328125 38.25 0.953125 
Q 33.9375 -1.421875 27.875 -1.421875 
Q 17.96875 -1.421875 11.734375 6.484375 
Q 5.515625 14.40625 5.515625 27.296875 
Q 5.515625 40.1875 11.734375 48.09375 
Q 17.96875 56 27.875 56 
Q 33.9375 56 38.25 53.625 
Q 42.578125 51.265625 45.40625 46.390625 
z
M 14.796875 27.296875 
Q 14.796875 17.390625 18.875 11.75 
Q 22.953125 6.109375 30.078125 6.109375 
Q 37.203125 6.109375 41.296875 11.75 
Q 45.40625 17.390625 45.40625 27.296875 
Q 45.40625 37.203125 41.296875 42.84375 
Q 37.203125 48.484375 30.078125 48.484375 
Q 22.953125 48.484375 18.875 42.84375 
Q 14.796875 37.203125 14.796875 27.296875 
z
" id="DejaVuSans-64"/>
      <path d="M 56.203125 29.59375 
L 56.203125 25.203125 
L 14.890625 25.203125 
Q 15.484375 15.921875 20.484375 11.0625 
Q 25.484375 6.203125 34.421875 6.203125 
Q 39.59375 6.203125 44.453125 7.46875 
Q 49.3125 8.734375 54.109375 11.28125 
L 54.109375 2.78125 
Q 49.265625 0.734375 44.1875 -0.34375 
Q 39.109375 -1.421875 33.890625 -1.421875 
Q 20.796875 -1.421875 13.15625 6.1875 
Q 5.515625 13.8125 5.515625 26.8125 
Q 5.515625 40.234375 12.765625 48.109375 
Q 20.015625 56 32.328125 56 
Q 43.359375 56 49.78125 48.890625 
Q 56.203125 41.796875 56.203125 29.59375 
z
M 47.21875 32.234375 
Q 47.125 39.59375 43.09375 43.984375 
Q 39.0625 48.390625 32.421875 48.390625 
Q 24.90625 48.390625 20.390625 44.140625 
Q 15.875 39.890625 15.1875 32.171875 
z
" id="DejaVuSans-65"/>
      <path d="M 54.890625 33.015625 
L 54.890625 0 
L 45.90625 0 
L 45.90625 32.71875 
Q 45.90625 40.484375 42.875 44.328125 
Q 39.84375 48.1875 33.796875 48.1875 
Q 26.515625 48.1875 22.3125 43.546875 
Q 18.109375 38.921875 18.109375 30.90625 
L 18.109375 0 
L 9.078125 0 
L 9.078125 54.6875 
L 18.109375 54.6875 
L 18.109375 46.1875 
Q 21.34375 51.125 25.703125 53.5625 
Q 30.078125 56 35.796875 56 
Q 45.21875 56 50.046875 50.171875 
Q 54.890625 44.34375 54.890625 33.015625 
z
" id="DejaVuSans-6e"/>
      <path d="M 9.421875 54.6875 
L 18.40625 54.6875 
L 18.40625 0 
L 9.421875 0 
z
M 9.421875 75.984375 
L 18.40625 75.984375 
L 18.40625 64.59375 
L 9.421875 64.59375 
z
" id="DejaVuSans-69"/>
      <path d="M 5.515625 54.6875 
L 48.1875 54.6875 
L 48.1875 46.484375 
L 14.40625 7.171875 
L 48.1875 7.171875 
L 48.1875 0 
L 4.296875 0 
L 4.296875 8.203125 
L 38.09375 47.515625 
L 5.515625 47.515625 
z
" id="DejaVuSans-7a"/>
     </defs>
     <g transform="translate(102.904375 135.41865)rotate(-90)scale(0.12 -0.12)">
      <use xlink:href="#DejaVuSans-53"/>
      <use x="63.476562" xlink:href="#DejaVuSans-74"/>
      <use x="102.685547" xlink:href="#DejaVuSans-75"/>
      <use x="166.064453" xlink:href="#DejaVuSans-64"/>
      <use x="229.541016" xlink:href="#DejaVuSans-65"/>
      <use x="291.064453" xlink:href="#DejaVuSans-6e"/>
      <use x="354.443359" xlink:href="#DejaVuSans-74"/>
      <use x="393.652344" xlink:href="#DejaVuSans-69"/>
      <use x="421.435547" xlink:href="#DejaVuSans-7a"/>
      <use x="473.925781" xlink:href="#DejaVuSans-65"/>
      <use x="535.449219" xlink:href="#DejaVuSans-64"/>
     </g>
     <!-- Residuals -->
     <defs>
      <path d="M 44.390625 34.1875 
Q 47.5625 33.109375 50.5625 29.59375 
Q 53.5625 26.078125 56.59375 19.921875 
L 66.609375 0 
L 56 0 
L 46.6875 18.703125 
Q 43.0625 26.03125 39.671875 28.421875 
Q 36.28125 30.8125 30.421875 30.8125 
L 19.671875 30.8125 
L 19.671875 0 
L 9.8125 0 
L 9.8125 72.90625 
L 32.078125 72.90625 
Q 44.578125 72.90625 50.734375 67.671875 
Q 56.890625 62.453125 56.890625 51.90625 
Q 56.890625 45.015625 53.6875 40.46875 
Q 50.484375 35.9375 44.390625 34.1875 
z
M 19.671875 64.796875 
L 19.671875 38.921875 
L 32.078125 38.921875 
Q 39.203125 38.921875 42.84375 42.21875 
Q 46.484375 45.515625 46.484375 51.90625 
Q 46.484375 58.296875 42.84375 61.546875 
Q 39.203125 64.796875 32.078125 64.796875 
z
" id="DejaVuSans-52"/>
      <path d="M 44.28125 53.078125 
L 44.28125 44.578125 
Q 40.484375 46.53125 36.375 47.5 
Q 32.28125 48.484375 27.875 48.484375 
Q 21.1875 48.484375 17.84375 46.4375 
Q 14.5 44.390625 14.5 40.28125 
Q 14.5 37.15625 16.890625 35.375 
Q 19.28125 33.59375 26.515625 31.984375 
L 29.59375 31.296875 
Q 39.15625 29.25 43.1875 25.515625 
Q 47.21875 21.78125 47.21875 15.09375 
Q 47.21875 7.46875 41.1875 3.015625 
Q 35.15625 -1.421875 24.609375 -1.421875 
Q 20.21875 -1.421875 15.453125 -0.5625 
Q 10.6875 0.296875 5.421875 2 
L 5.421875 11.28125 
Q 10.40625 8.6875 15.234375 7.390625 
Q 20.0625 6.109375 24.8125 6.109375 
Q 31.15625 6.109375 34.5625 8.28125 
Q 37.984375 10.453125 37.984375 14.40625 
Q 37.984375 18.0625 35.515625 20.015625 
Q 33.0625 21.96875 24.703125 23.78125 
L 21.578125 24.515625 
Q 13.234375 26.265625 9.515625 29.90625 
Q 5.8125 33.546875 5.8125 39.890625 
Q 5.8125 47.609375 11.28125 51.796875 
Q 16.75 56 26.8125 56 
Q 31.78125 56 36.171875 55.265625 
Q 40.578125 54.546875 44.28125 53.078125 
z
" id="DejaVuSans-73"/>
      <path d="M 34.28125 27.484375 
Q 23.390625 27.484375 19.1875 25 
Q 14.984375 22.515625 14.984375 16.5 
Q 14.984375 11.71875 18.140625 8.90625 
Q 21.296875 6.109375 26.703125 6.109375 
Q 34.1875 6.109375 38.703125 11.40625 
Q 43.21875 16.703125 43.21875 25.484375 
L 43.21875 27.484375 
z
M 52.203125 31.203125 
L 52.203125 0 
L 43.21875 0 
L 43.21875 8.296875 
Q 40.140625 3.328125 35.546875 0.953125 
Q 30.953125 -1.421875 24.3125 -1.421875 
Q 15.921875 -1.421875 10.953125 3.296875 
Q 6 8.015625 6 15.921875 
Q 6 25.140625 12.171875 29.828125 
Q 18.359375 34.515625 30.609375 34.515625 
L 43.21875 34.515625 
L 43.21875 35.40625 
Q 43.21875 41.609375 39.140625 45 
Q 35.0625 48.390625 27.6875 48.390625 
Q 23 48.390625 18.546875 47.265625 
Q 14.109375 46.140625 10.015625 43.890625 
L 10.015625 52.203125 
Q 14.9375 54.109375 19.578125 55.046875 
Q 24.21875 56 28.609375 56 
Q 40.484375 56 46.34375 49.84375 
Q 52.203125 43.703125 52.203125 31.203125 
z
" id="DejaVuSans-61"/>
      <path d="M 9.421875 75.984375 
L 18.40625 75.984375 
L 18.40625 0 
L 9.421875 0 
z
" id="DejaVuSans-6c"/>
     </defs>
     <g transform="translate(116.34175 128.213025)rotate(-90)scale(0.12 -0.12)">
      <use xlink:href="#DejaVuSans-52"/>
      <use x="69.419922" xlink:href="#DejaVuSans-65"/>
      <use x="130.943359" xlink:href="#DejaVuSans-73"/>
      <use x="183.042969" xlink:href="#DejaVuSans-69"/>
      <use x="210.826172" xlink:href="#DejaVuSans-64"/>
      <use x="274.302734" xlink:href="#DejaVuSans-75"/>
      <use x="337.681641" xlink:href="#DejaVuSans-61"/>
      <use x="398.960938" xlink:href="#DejaVuSans-6c"/>
      <use x="426.744141" xlink:href="#DejaVuSans-73"/>
     </g>
    </g>
   </g>
   <g id="LineCollection_1">
    <path clip-path="url(#pa8591ca607)" d="M 174.848 95.428143 
L 174.848 66.803591 
" style="fill:none;stroke:#0000ff;stroke-width:1.5;"/>
    <path clip-path="url(#pa8591ca607)" d="M 190.196315 100.73136 
L 190.196315 72.106808 
" style="fill:none;stroke:#0000ff;stroke-width:1.5;"/>
    <path clip-path="url(#pa8591ca607)" d="M 197.870472 102.493263 
L 197.870472 73.868711 
" style="fill:none;stroke:#0000ff;stroke-width:1.5;"/>
    <path clip-path="url(#pa8591ca607)" d="M 205.544629 119.387577 
L 205.544629 90.763025 
" style="fill:none;stroke:#0000ff;stroke-width:1.5;"/>
    <path clip-path="url(#pa8591ca607)" d="M 213.218787 102.928313 
L 213.218787 74.303761 
" style="fill:none;stroke:#0000ff;stroke-width:1.5;"/>
    <path clip-path="url(#pa8591ca607)" d="M 220.892944 129.352894 
L 220.892944 100.728343 
" style="fill:none;stroke:#0000ff;stroke-width:1.5;"/>
    <path clip-path="url(#pa8591ca607)" d="M 228.567101 80.094676 
L 228.567101 51.470124 
" style="fill:none;stroke:#0000ff;stroke-width:1.5;"/>
    <path clip-path="url(#pa8591ca607)" d="M 236.241258 108.175011 
L 236.241258 79.55046 
" style="fill:none;stroke:#0000ff;stroke-width:1.5;"/>
    <path clip-path="url(#pa8591ca607)" d="M 243.915416 86.31391 
L 243.915416 57.689359 
" style="fill:none;stroke:#0000ff;stroke-width:1.5;"/>
    <path clip-path="url(#pa8591ca607)" d="M 251.589573 100.418337 
L 251.589573 71.793785 
" style="fill:none;stroke:#0000ff;stroke-width:1.5;"/>
    <path clip-path="url(#pa8591ca607)" d="M 259.26373 100.178783 
L 259.26373 71.554232 
" style="fill:none;stroke:#0000ff;stroke-width:1.5;"/>
    <path clip-path="url(#pa8591ca607)" d="M 266.937888 102.860857 
L 266.937888 74.236306 
" style="fill:none;stroke:#0000ff;stroke-width:1.5;"/>
    <path clip-path="url(#pa8591ca607)" d="M 274.612045 107.742648 
L 274.612045 79.118097 
" style="fill:none;stroke:#0000ff;stroke-width:1.5;"/>
    <path clip-path="url(#pa8591ca607)" d="M 282.286202 111.769743 
L 282.286202 83.145192 
" style="fill:none;stroke:#0000ff;stroke-width:1.5;"/>
    <path clip-path="url(#pa8591ca607)" d="M 289.96036 107.369193 
L 289.96036 78.744642 
" style="fill:none;stroke:#0000ff;stroke-width:1.5;"/>
    <path clip-path="url(#pa8591ca607)" d="M 297.634517 107.021868 
L 297.634517 78.397317 
" style="fill:none;stroke:#0000ff;stroke-width:1.5;"/>
    <path clip-path="url(#pa8591ca607)" d="M 305.308674 106.557182 
L 305.308674 77.93263 
" style="fill:none;stroke:#0000ff;stroke-width:1.5;"/>
    <path clip-path="url(#pa8591ca607)" d="M 312.982831 86.653609 
L 312.982831 58.029058 
" style="fill:none;stroke:#0000ff;stroke-width:1.5;"/>
    <path clip-path="url(#pa8591ca607)" d="M 320.656989 116.119418 
L 320.656989 87.494867 
" style="fill:none;stroke:#0000ff;stroke-width:1.5;"/>
    <path clip-path="url(#pa8591ca607)" d="M 328.331146 121.165671 
L 328.331146 92.54112 
" style="fill:none;stroke:#0000ff;stroke-width:1.5;"/>
    <path clip-path="url(#pa8591ca607)" d="M 336.005303 103.25276 
L 336.005303 74.628208 
" style="fill:none;stroke:#0000ff;stroke-width:1.5;"/>
    <path clip-path="url(#pa8591ca607)" d="M 343.679461 105.696966 
L 343.679461 77.072414 
" style="fill:none;stroke:#0000ff;stroke-width:1.5;"/>
    <path clip-path="url(#pa8591ca607)" d="M 351.353618 115.758995 
L 351.353618 87.134443 
" style="fill:none;stroke:#0000ff;stroke-width:1.5;"/>
    <path clip-path="url(#pa8591ca607)" d="M 359.027775 108.949383 
L 359.027775 80.324831 
" style="fill:none;stroke:#0000ff;stroke-width:1.5;"/>
    <path clip-path="url(#pa8591ca607)" d="M 366.701933 116.048775 
L 366.701933 87.424224 
" style="fill:none;stroke:#0000ff;stroke-width:1.5;"/>
    <path clip-path="url(#pa8591ca607)" d="M 374.37609 96.894932 
L 374.37609 68.27038 
" style="fill:none;stroke:#0000ff;stroke-width:1.5;"/>
    <path clip-path="url(#pa8591ca607)" d="M 382.050247 115.552268 
L 382.050247 86.927717 
" style="fill:none;stroke:#0000ff;stroke-width:1.5;"/>
    <path clip-path="url(#pa8591ca607)" d="M 389.724404 107.233252 
L 389.724404 78.608701 
" style="fill:none;stroke:#0000ff;stroke-width:1.5;"/>
    <path clip-path="url(#pa8591ca607)" d="M 397.398562 113.148352 
L 397.398562 84.5238 
" style="fill:none;stroke:#0000ff;stroke-width:1.5;"/>
    <path clip-path="url(#pa8591ca607)" d="M 405.072719 121.760643 
L 405.072719 93.136091 
" style="fill:none;stroke:#0000ff;stroke-width:1.5;"/>
    <path clip-path="url(#pa8591ca607)" d="M 412.746876 147.494676 
L 412.746876 118.870124 
" style="fill:none;stroke:#0000ff;stroke-width:1.5;"/>
    <path clip-path="url(#pa8591ca607)" d="M 420.421034 106.613242 
L 420.421034 77.98869 
" style="fill:none;stroke:#0000ff;stroke-width:1.5;"/>
    <path clip-path="url(#pa8591ca607)" d="M 428.095191 136.387043 
L 428.095191 107.762491 
" style="fill:none;stroke:#0000ff;stroke-width:1.5;"/>
    <path clip-path="url(#pa8591ca607)" d="M 435.769348 109.981179 
L 435.769348 81.356627 
" style="fill:none;stroke:#0000ff;stroke-width:1.5;"/>
    <path clip-path="url(#pa8591ca607)" d="M 443.443506 122.997161 
L 443.443506 94.372609 
" style="fill:none;stroke:#0000ff;stroke-width:1.5;"/>
    <path clip-path="url(#pa8591ca607)" d="M 451.117663 113.891328 
L 451.117663 85.266777 
" style="fill:none;stroke:#0000ff;stroke-width:1.5;"/>
    <path clip-path="url(#pa8591ca607)" d="M 458.79182 105.526746 
L 458.79182 76.902195 
" style="fill:none;stroke:#0000ff;stroke-width:1.5;"/>
    <path clip-path="url(#pa8591ca607)" d="M 466.465978 110.619539 
L 466.465978 81.994987 
" style="fill:none;stroke:#0000ff;stroke-width:1.5;"/>
    <path clip-path="url(#pa8591ca607)" d="M 474.140135 93.884893 
L 474.140135 65.260341 
" style="fill:none;stroke:#0000ff;stroke-width:1.5;"/>
    <path clip-path="url(#pa8591ca607)" d="M 481.814292 117.289422 
L 481.814292 88.66487 
" style="fill:none;stroke:#0000ff;stroke-width:1.5;"/>
    <path clip-path="url(#pa8591ca607)" d="M 489.488449 109.377711 
L 489.488449 80.75316 
" style="fill:none;stroke:#0000ff;stroke-width:1.5;"/>
    <path clip-path="url(#pa8591ca607)" d="M 497.162607 129.389293 
L 497.162607 100.764742 
" style="fill:none;stroke:#0000ff;stroke-width:1.5;"/>
    <path clip-path="url(#pa8591ca607)" d="M 504.836764 111.581425 
L 504.836764 82.956874 
" style="fill:none;stroke:#0000ff;stroke-width:1.5;"/>
    <path clip-path="url(#pa8591ca607)" d="M 512.510921 106.953438 
L 512.510921 78.328887 
" style="fill:none;stroke:#0000ff;stroke-width:1.5;"/>
    <path clip-path="url(#pa8591ca607)" d="M 520.185079 100.404262 
L 520.185079 71.779711 
" style="fill:none;stroke:#0000ff;stroke-width:1.5;"/>
    <path clip-path="url(#pa8591ca607)" d="M 527.859236 102.85961 
L 527.859236 74.235059 
" style="fill:none;stroke:#0000ff;stroke-width:1.5;"/>
    <path clip-path="url(#pa8591ca607)" d="M 535.533393 107.819199 
L 535.533393 79.194647 
" style="fill:none;stroke:#0000ff;stroke-width:1.5;"/>
    <path clip-path="url(#pa8591ca607)" d="M 543.207551 95.912597 
L 543.207551 67.288045 
" style="fill:none;stroke:#0000ff;stroke-width:1.5;"/>
    <path clip-path="url(#pa8591ca607)" d="M 550.881708 103.268938 
L 550.881708 74.644387 
" style="fill:none;stroke:#0000ff;stroke-width:1.5;"/>
    <path clip-path="url(#pa8591ca607)" d="M 558.555865 99.708117 
L 558.555865 71.083566 
" style="fill:none;stroke:#0000ff;stroke-width:1.5;"/>
    <path clip-path="url(#pa8591ca607)" d="M 566.230022 102.109205 
L 566.230022 73.484654 
" style="fill:none;stroke:#0000ff;stroke-width:1.5;"/>
    <path clip-path="url(#pa8591ca607)" d="M 573.90418 99.050436 
L 573.90418 70.425884 
" style="fill:none;stroke:#0000ff;stroke-width:1.5;"/>
    <path clip-path="url(#pa8591ca607)" d="M 581.578337 116.219223 
L 581.578337 87.594672 
" style="fill:none;stroke:#0000ff;stroke-width:1.5;"/>
    <path clip-path="url(#pa8591ca607)" d="M 589.252494 107.144377 
L 589.252494 78.519825 
" style="fill:none;stroke:#0000ff;stroke-width:1.5;"/>
    <path clip-path="url(#pa8591ca607)" d="M 596.926652 100.181952 
L 596.926652 71.5574 
" style="fill:none;stroke:#0000ff;stroke-width:1.5;"/>
    <path clip-path="url(#pa8591ca607)" d="M 604.600809 112.501696 
L 604.600809 83.877144 
" style="fill:none;stroke:#0000ff;stroke-width:1.5;"/>
    <path clip-path="url(#pa8591ca607)" d="M 612.274966 100.673446 
L 612.274966 72.048895 
" style="fill:none;stroke:#0000ff;stroke-width:1.5;"/>
    <path clip-path="url(#pa8591ca607)" d="M 619.949124 103.280652 
L 619.949124 74.6561 
" style="fill:none;stroke:#0000ff;stroke-width:1.5;"/>
    <path clip-path="url(#pa8591ca607)" d="M 627.623281 111.831754 
L 627.623281 83.207202 
" style="fill:none;stroke:#0000ff;stroke-width:1.5;"/>
    <path clip-path="url(#pa8591ca607)" d="M 635.297438 98.823835 
L 635.297438 70.199283 
" style="fill:none;stroke:#0000ff;stroke-width:1.5;"/>
    <path clip-path="url(#pa8591ca607)" d="M 642.971596 97.810864 
L 642.971596 69.186313 
" style="fill:none;stroke:#0000ff;stroke-width:1.5;"/>
    <path clip-path="url(#pa8591ca607)" d="M 650.645753 101.249865 
L 650.645753 72.625314 
" style="fill:none;stroke:#0000ff;stroke-width:1.5;"/>
    <path clip-path="url(#pa8591ca607)" d="M 658.31991 125.583745 
L 658.31991 96.959193 
" style="fill:none;stroke:#0000ff;stroke-width:1.5;"/>
    <path clip-path="url(#pa8591ca607)" d="M 665.994067 111.981851 
L 665.994067 83.3573 
" style="fill:none;stroke:#0000ff;stroke-width:1.5;"/>
    <path clip-path="url(#pa8591ca607)" d="M 673.668225 111.725049 
L 673.668225 83.100498 
" style="fill:none;stroke:#0000ff;stroke-width:1.5;"/>
    <path clip-path="url(#pa8591ca607)" d="M 681.342382 90.894495 
L 681.342382 62.269943 
" style="fill:none;stroke:#0000ff;stroke-width:1.5;"/>
    <path clip-path="url(#pa8591ca607)" d="M 689.016539 114.35577 
L 689.016539 85.731219 
" style="fill:none;stroke:#0000ff;stroke-width:1.5;"/>
    <path clip-path="url(#pa8591ca607)" d="M 696.690697 107.655932 
L 696.690697 79.031381 
" style="fill:none;stroke:#0000ff;stroke-width:1.5;"/>
    <path clip-path="url(#pa8591ca607)" d="M 704.364854 104.183862 
L 704.364854 75.55931 
" style="fill:none;stroke:#0000ff;stroke-width:1.5;"/>
    <path clip-path="url(#pa8591ca607)" d="M 712.039011 114.778557 
L 712.039011 86.154006 
" style="fill:none;stroke:#0000ff;stroke-width:1.5;"/>
    <path clip-path="url(#pa8591ca607)" d="M 719.713169 110.072167 
L 719.713169 81.447615 
" style="fill:none;stroke:#0000ff;stroke-width:1.5;"/>
    <path clip-path="url(#pa8591ca607)" d="M 727.387326 107.507942 
L 727.387326 78.88339 
" style="fill:none;stroke:#0000ff;stroke-width:1.5;"/>
    <path clip-path="url(#pa8591ca607)" d="M 735.061483 94.106709 
L 735.061483 65.482158 
" style="fill:none;stroke:#0000ff;stroke-width:1.5;"/>
    <path clip-path="url(#pa8591ca607)" d="M 742.73564 114.342421 
L 742.73564 85.717869 
" style="fill:none;stroke:#0000ff;stroke-width:1.5;"/>
    <path clip-path="url(#pa8591ca607)" d="M 750.409798 117.298469 
L 750.409798 88.673917 
" style="fill:none;stroke:#0000ff;stroke-width:1.5;"/>
    <path clip-path="url(#pa8591ca607)" d="M 758.083955 111.983265 
L 758.083955 83.358713 
" style="fill:none;stroke:#0000ff;stroke-width:1.5;"/>
    <path clip-path="url(#pa8591ca607)" d="M 765.758112 99.550807 
L 765.758112 70.926255 
" style="fill:none;stroke:#0000ff;stroke-width:1.5;"/>
    <path clip-path="url(#pa8591ca607)" d="M 773.43227 108.804928 
L 773.43227 80.180376 
" style="fill:none;stroke:#0000ff;stroke-width:1.5;"/>
    <path clip-path="url(#pa8591ca607)" d="M 781.106427 97.911019 
L 781.106427 69.286467 
" style="fill:none;stroke:#0000ff;stroke-width:1.5;"/>
    <path clip-path="url(#pa8591ca607)" d="M 788.780584 114.544341 
L 788.780584 85.919789 
" style="fill:none;stroke:#0000ff;stroke-width:1.5;"/>
    <path clip-path="url(#pa8591ca607)" d="M 796.454742 113.78653 
L 796.454742 85.161979 
" style="fill:none;stroke:#0000ff;stroke-width:1.5;"/>
    <path clip-path="url(#pa8591ca607)" d="M 804.128899 123.033644 
L 804.128899 94.409093 
" style="fill:none;stroke:#0000ff;stroke-width:1.5;"/>
    <path clip-path="url(#pa8591ca607)" d="M 811.803056 106.819245 
L 811.803056 78.194693 
" style="fill:none;stroke:#0000ff;stroke-width:1.5;"/>
    <path clip-path="url(#pa8591ca607)" d="M 819.477213 121.129362 
L 819.477213 92.50481 
" style="fill:none;stroke:#0000ff;stroke-width:1.5;"/>
    <path clip-path="url(#pa8591ca607)" d="M 827.151371 105.98565 
L 827.151371 77.361099 
" style="fill:none;stroke:#0000ff;stroke-width:1.5;"/>
    <path clip-path="url(#pa8591ca607)" d="M 834.825528 138.798727 
L 834.825528 110.174175 
" style="fill:none;stroke:#0000ff;stroke-width:1.5;"/>
    <path clip-path="url(#pa8591ca607)" d="M 842.499685 129.643615 
L 842.499685 101.019064 
" style="fill:none;stroke:#0000ff;stroke-width:1.5;"/>
    <path clip-path="url(#pa8591ca607)" d="M 857.848 106.612176 
L 857.848 77.987625 
" style="fill:none;stroke:#0000ff;stroke-width:1.5;"/>
   </g>
   <g id="line2d_10">
    <path clip-path="url(#pa8591ca607)" d="M 174.848 94.9178 
L 857.848 94.9178 
" style="fill:none;stroke:#ff0000;stroke-linecap:square;stroke-width:1.5;"/>
   </g>
   <g id="line2d_11">
    <defs>
     <path d="M -3 0 
L 3 0 
M 0 3 
L 0 -3 
" id="mc15b06f3a0" style="stroke:#0000ff;"/>
    </defs>
    <g clip-path="url(#pa8591ca607)">
     <use style="fill:#0000ff;stroke:#0000ff;" x="174.848" xlink:href="#mc15b06f3a0" y="81.115867"/>
     <use style="fill:#0000ff;stroke:#0000ff;" x="190.196315" xlink:href="#mc15b06f3a0" y="86.419084"/>
     <use style="fill:#0000ff;stroke:#0000ff;" x="197.870472" xlink:href="#mc15b06f3a0" y="88.180987"/>
     <use style="fill:#0000ff;stroke:#0000ff;" x="205.544629" xlink:href="#mc15b06f3a0" y="105.075301"/>
     <use style="fill:#0000ff;stroke:#0000ff;" x="213.218787" xlink:href="#mc15b06f3a0" y="88.616037"/>
     <use style="fill:#0000ff;stroke:#0000ff;" x="220.892944" xlink:href="#mc15b06f3a0" y="115.040619"/>
     <use style="fill:#0000ff;stroke:#0000ff;" x="228.567101" xlink:href="#mc15b06f3a0" y="65.7824"/>
     <use style="fill:#0000ff;stroke:#0000ff;" x="236.241258" xlink:href="#mc15b06f3a0" y="93.862736"/>
     <use style="fill:#0000ff;stroke:#0000ff;" x="243.915416" xlink:href="#mc15b06f3a0" y="72.001635"/>
     <use style="fill:#0000ff;stroke:#0000ff;" x="251.589573" xlink:href="#mc15b06f3a0" y="86.106061"/>
     <use style="fill:#0000ff;stroke:#0000ff;" x="259.26373" xlink:href="#mc15b06f3a0" y="85.866508"/>
     <use style="fill:#0000ff;stroke:#0000ff;" x="266.937888" xlink:href="#mc15b06f3a0" y="88.548582"/>
     <use style="fill:#0000ff;stroke:#0000ff;" x="274.612045" xlink:href="#mc15b06f3a0" y="93.430372"/>
     <use style="fill:#0000ff;stroke:#0000ff;" x="282.286202" xlink:href="#mc15b06f3a0" y="97.457467"/>
     <use style="fill:#0000ff;stroke:#0000ff;" x="289.96036" xlink:href="#mc15b06f3a0" y="93.056917"/>
     <use style="fill:#0000ff;stroke:#0000ff;" x="297.634517" xlink:href="#mc15b06f3a0" y="92.709592"/>
     <use style="fill:#0000ff;stroke:#0000ff;" x="305.308674" xlink:href="#mc15b06f3a0" y="92.244906"/>
     <use style="fill:#0000ff;stroke:#0000ff;" x="312.982831" xlink:href="#mc15b06f3a0" y="72.341334"/>
     <use style="fill:#0000ff;stroke:#0000ff;" x="320.656989" xlink:href="#mc15b06f3a0" y="101.807143"/>
     <use style="fill:#0000ff;stroke:#0000ff;" x="328.331146" xlink:href="#mc15b06f3a0" y="106.853395"/>
     <use style="fill:#0000ff;stroke:#0000ff;" x="336.005303" xlink:href="#mc15b06f3a0" y="88.940484"/>
     <use style="fill:#0000ff;stroke:#0000ff;" x="343.679461" xlink:href="#mc15b06f3a0" y="91.38469"/>
     <use style="fill:#0000ff;stroke:#0000ff;" x="351.353618" xlink:href="#mc15b06f3a0" y="101.446719"/>
     <use style="fill:#0000ff;stroke:#0000ff;" x="359.027775" xlink:href="#mc15b06f3a0" y="94.637107"/>
     <use style="fill:#0000ff;stroke:#0000ff;" x="366.701933" xlink:href="#mc15b06f3a0" y="101.736499"/>
     <use style="fill:#0000ff;stroke:#0000ff;" x="374.37609" xlink:href="#mc15b06f3a0" y="82.582656"/>
     <use style="fill:#0000ff;stroke:#0000ff;" x="382.050247" xlink:href="#mc15b06f3a0" y="101.239993"/>
     <use style="fill:#0000ff;stroke:#0000ff;" x="389.724404" xlink:href="#mc15b06f3a0" y="92.920977"/>
     <use style="fill:#0000ff;stroke:#0000ff;" x="397.398562" xlink:href="#mc15b06f3a0" y="98.836076"/>
     <use style="fill:#0000ff;stroke:#0000ff;" x="405.072719" xlink:href="#mc15b06f3a0" y="107.448367"/>
     <use style="fill:#0000ff;stroke:#0000ff;" x="412.746876" xlink:href="#mc15b06f3a0" y="133.1824"/>
     <use style="fill:#0000ff;stroke:#0000ff;" x="420.421034" xlink:href="#mc15b06f3a0" y="92.300966"/>
     <use style="fill:#0000ff;stroke:#0000ff;" x="428.095191" xlink:href="#mc15b06f3a0" y="122.074767"/>
     <use style="fill:#0000ff;stroke:#0000ff;" x="435.769348" xlink:href="#mc15b06f3a0" y="95.668903"/>
     <use style="fill:#0000ff;stroke:#0000ff;" x="443.443506" xlink:href="#mc15b06f3a0" y="108.684885"/>
     <use style="fill:#0000ff;stroke:#0000ff;" x="451.117663" xlink:href="#mc15b06f3a0" y="99.579052"/>
     <use style="fill:#0000ff;stroke:#0000ff;" x="458.79182" xlink:href="#mc15b06f3a0" y="91.214471"/>
     <use style="fill:#0000ff;stroke:#0000ff;" x="466.465978" xlink:href="#mc15b06f3a0" y="96.307263"/>
     <use style="fill:#0000ff;stroke:#0000ff;" x="474.140135" xlink:href="#mc15b06f3a0" y="79.572617"/>
     <use style="fill:#0000ff;stroke:#0000ff;" x="481.814292" xlink:href="#mc15b06f3a0" y="102.977146"/>
     <use style="fill:#0000ff;stroke:#0000ff;" x="489.488449" xlink:href="#mc15b06f3a0" y="95.065436"/>
     <use style="fill:#0000ff;stroke:#0000ff;" x="497.162607" xlink:href="#mc15b06f3a0" y="115.077018"/>
     <use style="fill:#0000ff;stroke:#0000ff;" x="504.836764" xlink:href="#mc15b06f3a0" y="97.269149"/>
     <use style="fill:#0000ff;stroke:#0000ff;" x="512.510921" xlink:href="#mc15b06f3a0" y="92.641162"/>
     <use style="fill:#0000ff;stroke:#0000ff;" x="520.185079" xlink:href="#mc15b06f3a0" y="86.091987"/>
     <use style="fill:#0000ff;stroke:#0000ff;" x="527.859236" xlink:href="#mc15b06f3a0" y="88.547334"/>
     <use style="fill:#0000ff;stroke:#0000ff;" x="535.533393" xlink:href="#mc15b06f3a0" y="93.506923"/>
     <use style="fill:#0000ff;stroke:#0000ff;" x="543.207551" xlink:href="#mc15b06f3a0" y="81.600321"/>
     <use style="fill:#0000ff;stroke:#0000ff;" x="550.881708" xlink:href="#mc15b06f3a0" y="88.956663"/>
     <use style="fill:#0000ff;stroke:#0000ff;" x="558.555865" xlink:href="#mc15b06f3a0" y="85.395841"/>
     <use style="fill:#0000ff;stroke:#0000ff;" x="566.230022" xlink:href="#mc15b06f3a0" y="87.79693"/>
     <use style="fill:#0000ff;stroke:#0000ff;" x="573.90418" xlink:href="#mc15b06f3a0" y="84.73816"/>
     <use style="fill:#0000ff;stroke:#0000ff;" x="581.578337" xlink:href="#mc15b06f3a0" y="101.906948"/>
     <use style="fill:#0000ff;stroke:#0000ff;" x="589.252494" xlink:href="#mc15b06f3a0" y="92.832101"/>
     <use style="fill:#0000ff;stroke:#0000ff;" x="596.926652" xlink:href="#mc15b06f3a0" y="85.869676"/>
     <use style="fill:#0000ff;stroke:#0000ff;" x="604.600809" xlink:href="#mc15b06f3a0" y="98.18942"/>
     <use style="fill:#0000ff;stroke:#0000ff;" x="612.274966" xlink:href="#mc15b06f3a0" y="86.36117"/>
     <use style="fill:#0000ff;stroke:#0000ff;" x="619.949124" xlink:href="#mc15b06f3a0" y="88.968376"/>
     <use style="fill:#0000ff;stroke:#0000ff;" x="627.623281" xlink:href="#mc15b06f3a0" y="97.519478"/>
     <use style="fill:#0000ff;stroke:#0000ff;" x="635.297438" xlink:href="#mc15b06f3a0" y="84.511559"/>
     <use style="fill:#0000ff;stroke:#0000ff;" x="642.971596" xlink:href="#mc15b06f3a0" y="83.498589"/>
     <use style="fill:#0000ff;stroke:#0000ff;" x="650.645753" xlink:href="#mc15b06f3a0" y="86.93759"/>
     <use style="fill:#0000ff;stroke:#0000ff;" x="658.31991" xlink:href="#mc15b06f3a0" y="111.271469"/>
     <use style="fill:#0000ff;stroke:#0000ff;" x="665.994067" xlink:href="#mc15b06f3a0" y="97.669575"/>
     <use style="fill:#0000ff;stroke:#0000ff;" x="673.668225" xlink:href="#mc15b06f3a0" y="97.412774"/>
     <use style="fill:#0000ff;stroke:#0000ff;" x="681.342382" xlink:href="#mc15b06f3a0" y="76.582219"/>
     <use style="fill:#0000ff;stroke:#0000ff;" x="689.016539" xlink:href="#mc15b06f3a0" y="100.043495"/>
     <use style="fill:#0000ff;stroke:#0000ff;" x="696.690697" xlink:href="#mc15b06f3a0" y="93.343656"/>
     <use style="fill:#0000ff;stroke:#0000ff;" x="704.364854" xlink:href="#mc15b06f3a0" y="89.871586"/>
     <use style="fill:#0000ff;stroke:#0000ff;" x="712.039011" xlink:href="#mc15b06f3a0" y="100.466282"/>
     <use style="fill:#0000ff;stroke:#0000ff;" x="719.713169" xlink:href="#mc15b06f3a0" y="95.759891"/>
     <use style="fill:#0000ff;stroke:#0000ff;" x="727.387326" xlink:href="#mc15b06f3a0" y="93.195666"/>
     <use style="fill:#0000ff;stroke:#0000ff;" x="735.061483" xlink:href="#mc15b06f3a0" y="79.794434"/>
     <use style="fill:#0000ff;stroke:#0000ff;" x="742.73564" xlink:href="#mc15b06f3a0" y="100.030145"/>
     <use style="fill:#0000ff;stroke:#0000ff;" x="750.409798" xlink:href="#mc15b06f3a0" y="102.986193"/>
     <use style="fill:#0000ff;stroke:#0000ff;" x="758.083955" xlink:href="#mc15b06f3a0" y="97.670989"/>
     <use style="fill:#0000ff;stroke:#0000ff;" x="765.758112" xlink:href="#mc15b06f3a0" y="85.238531"/>
     <use style="fill:#0000ff;stroke:#0000ff;" x="773.43227" xlink:href="#mc15b06f3a0" y="94.492652"/>
     <use style="fill:#0000ff;stroke:#0000ff;" x="781.106427" xlink:href="#mc15b06f3a0" y="83.598743"/>
     <use style="fill:#0000ff;stroke:#0000ff;" x="788.780584" xlink:href="#mc15b06f3a0" y="100.232065"/>
     <use style="fill:#0000ff;stroke:#0000ff;" x="796.454742" xlink:href="#mc15b06f3a0" y="99.474255"/>
     <use style="fill:#0000ff;stroke:#0000ff;" x="804.128899" xlink:href="#mc15b06f3a0" y="108.721368"/>
     <use style="fill:#0000ff;stroke:#0000ff;" x="811.803056" xlink:href="#mc15b06f3a0" y="92.506969"/>
     <use style="fill:#0000ff;stroke:#0000ff;" x="819.477213" xlink:href="#mc15b06f3a0" y="106.817086"/>
     <use style="fill:#0000ff;stroke:#0000ff;" x="827.151371" xlink:href="#mc15b06f3a0" y="91.673375"/>
     <use style="fill:#0000ff;stroke:#0000ff;" x="834.825528" xlink:href="#mc15b06f3a0" y="124.486451"/>
     <use style="fill:#0000ff;stroke:#0000ff;" x="842.499685" xlink:href="#mc15b06f3a0" y="115.331339"/>
     <use style="fill:#0000ff;stroke:#0000ff;" x="857.848" xlink:href="#mc15b06f3a0" y="92.299901"/>
    </g>
   </g>
   <g id="patch_3">
    <path d="M 147.528 135.8784 
L 147.528 63.0864 
" style="fill:none;stroke:#000000;stroke-linecap:square;stroke-linejoin:miter;stroke-width:0.8;"/>
   </g>
   <g id="patch_4">
    <path d="M 885.168 135.8784 
L 885.168 63.0864 
" style="fill:none;stroke:#000000;stroke-linecap:square;stroke-linejoin:miter;stroke-width:0.8;"/>
   </g>
   <g id="patch_5">
    <path d="M 147.528 135.8784 
L 885.168 135.8784 
" style="fill:none;stroke:#000000;stroke-linecap:square;stroke-linejoin:miter;stroke-width:0.8;"/>
   </g>
   <g id="patch_6">
    <path d="M 147.528 63.0864 
L 885.168 63.0864 
" style="fill:none;stroke:#000000;stroke-linecap:square;stroke-linejoin:miter;stroke-width:0.8;"/>
   </g>
   <g id="text_4">
    <!-- Function (0/0): y = a*exp(-(x-x0)**2/w**2)+b -->
    <defs>
     <path d="M 9.8125 72.90625 
L 51.703125 72.90625 
L 51.703125 64.59375 
L 19.671875 64.59375 
L 19.671875 43.109375 
L 48.578125 43.109375 
L 48.578125 34.8125 
L 19.671875 34.8125 
L 19.671875 0 
L 9.8125 0 
z
" id="DejaVuSans-46"/>
     <path d="M 48.78125 52.59375 
L 48.78125 44.1875 
Q 44.96875 46.296875 41.140625 47.34375 
Q 37.3125 48.390625 33.40625 48.390625 
Q 24.65625 48.390625 19.8125 42.84375 
Q 14.984375 37.3125 14.984375 27.296875 
Q 14.984375 17.28125 19.8125 11.734375 
Q 24.65625 6.203125 33.40625 6.203125 
Q 37.3125 6.203125 41.140625 7.25 
Q 44.96875 8.296875 48.78125 10.40625 
L 48.78125 2.09375 
Q 45.015625 0.34375 40.984375 -0.53125 
Q 36.96875 -1.421875 32.421875 -1.421875 
Q 20.0625 -1.421875 12.78125 6.34375 
Q 5.515625 14.109375 5.515625 27.296875 
Q 5.515625 40.671875 12.859375 48.328125 
Q 20.21875 56 33.015625 56 
Q 37.15625 56 41.109375 55.140625 
Q 45.0625 54.296875 48.78125 52.59375 
z
" id="DejaVuSans-63"/>
     <path d="M 30.609375 48.390625 
Q 23.390625 48.390625 19.1875 42.75 
Q 14.984375 37.109375 14.984375 27.296875 
Q 14.984375 17.484375 19.15625 11.84375 
Q 23.34375 6.203125 30.609375 6.203125 
Q 37.796875 6.203125 41.984375 11.859375 
Q 46.1875 17.53125 46.1875 27.296875 
Q 46.1875 37.015625 41.984375 42.703125 
Q 37.796875 48.390625 30.609375 48.390625 
z
M 30.609375 56 
Q 42.328125 56 49.015625 48.375 
Q 55.71875 40.765625 55.71875 27.296875 
Q 55.71875 13.875 49.015625 6.21875 
Q 42.328125 -1.421875 30.609375 -1.421875 
Q 18.84375 -1.421875 12.171875 6.21875 
Q 5.515625 13.875 5.515625 27.296875 
Q 5.515625 40.765625 12.171875 48.375 
Q 18.84375 56 30.609375 56 
z
" id="DejaVuSans-6f"/>
     <path id="DejaVuSans-20"/>
     <path d="M 31 75.875 
Q 24.46875 64.65625 21.28125 53.65625 
Q 18.109375 42.671875 18.109375 31.390625 
Q 18.109375 20.125 21.3125 9.0625 
Q 24.515625 -2 31 -13.1875 
L 23.1875 -13.1875 
Q 15.875 -1.703125 12.234375 9.375 
Q 8.59375 20.453125 8.59375 31.390625 
Q 8.59375 42.28125 12.203125 53.3125 
Q 15.828125 64.359375 23.1875 75.875 
z
" id="DejaVuSans-28"/>
     <path d="M 31.78125 66.40625 
Q 24.171875 66.40625 20.328125 58.90625 
Q 16.5 51.421875 16.5 36.375 
Q 16.5 21.390625 20.328125 13.890625 
Q 24.171875 6.390625 31.78125 6.390625 
Q 39.453125 6.390625 43.28125 13.890625 
Q 47.125 21.390625 47.125 36.375 
Q 47.125 51.421875 43.28125 58.90625 
Q 39.453125 66.40625 31.78125 66.40625 
z
M 31.78125 74.21875 
Q 44.046875 74.21875 50.515625 64.515625 
Q 56.984375 54.828125 56.984375 36.375 
Q 56.984375 17.96875 50.515625 8.265625 
Q 44.046875 -1.421875 31.78125 -1.421875 
Q 19.53125 -1.421875 13.0625 8.265625 
Q 6.59375 17.96875 6.59375 36.375 
Q 6.59375 54.828125 13.0625 64.515625 
Q 19.53125 74.21875 31.78125 74.21875 
z
" id="DejaVuSans-30"/>
     <path d="M 25.390625 72.90625 
L 33.6875 72.90625 
L 8.296875 -9.28125 
L 0 -9.28125 
z
" id="DejaVuSans-2f"/>
     <path d="M 8.015625 75.875 
L 15.828125 75.875 
Q 23.140625 64.359375 26.78125 53.3125 
Q 30.421875 42.28125 30.421875 31.390625 
Q 30.421875 20.453125 26.78125 9.375 
Q 23.140625 -1.703125 15.828125 -13.1875 
L 8.015625 -13.1875 
Q 14.5 -2 17.703125 9.0625 
Q 20.90625 20.125 20.90625 31.390625 
Q 20.90625 42.671875 17.703125 53.65625 
Q 14.5 64.65625 8.015625 75.875 
z
" id="DejaVuSans-29"/>
     <path d="M 11.71875 12.40625 
L 22.015625 12.40625 
L 22.015625 0 
L 11.71875 0 
z
M 11.71875 51.703125 
L 22.015625 51.703125 
L 22.015625 39.3125 
L 11.71875 39.3125 
z
" id="DejaVuSans-3a"/>
     <path d="M 32.171875 -5.078125 
Q 28.375 -14.84375 24.75 -17.8125 
Q 21.140625 -20.796875 15.09375 -20.796875 
L 7.90625 -20.796875 
L 7.90625 -13.28125 
L 13.1875 -13.28125 
Q 16.890625 -13.28125 18.9375 -11.515625 
Q 21 -9.765625 23.484375 -3.21875 
L 25.09375 0.875 
L 2.984375 54.6875 
L 12.5 54.6875 
L 29.59375 11.921875 
L 46.6875 54.6875 
L 56.203125 54.6875 
z
" id="DejaVuSans-79"/>
     <path d="M 10.59375 45.40625 
L 73.1875 45.40625 
L 73.1875 37.203125 
L 10.59375 37.203125 
z
M 10.59375 25.484375 
L 73.1875 25.484375 
L 73.1875 17.1875 
L 10.59375 17.1875 
z
" id="DejaVuSans-3d"/>
     <path d="M 47.015625 60.890625 
L 29.5 51.421875 
L 47.015625 41.890625 
L 44.1875 37.109375 
L 27.78125 47.015625 
L 27.78125 28.609375 
L 22.21875 28.609375 
L 22.21875 47.015625 
L 5.8125 37.109375 
L 2.984375 41.890625 
L 20.515625 51.421875 
L 2.984375 60.890625 
L 5.8125 65.71875 
L 22.21875 55.8125 
L 22.21875 74.21875 
L 27.78125 74.21875 
L 27.78125 55.8125 
L 44.1875 65.71875 
z
" id="DejaVuSans-2a"/>
     <path d="M 54.890625 54.6875 
L 35.109375 28.078125 
L 55.90625 0 
L 45.3125 0 
L 29.390625 21.484375 
L 13.484375 0 
L 2.875 0 
L 24.125 28.609375 
L 4.6875 54.6875 
L 15.28125 54.6875 
L 29.78125 35.203125 
L 44.28125 54.6875 
z
" id="DejaVuSans-78"/>
     <path d="M 18.109375 8.203125 
L 18.109375 -20.796875 
L 9.078125 -20.796875 
L 9.078125 54.6875 
L 18.109375 54.6875 
L 18.109375 46.390625 
Q 20.953125 51.265625 25.265625 53.625 
Q 29.59375 56 35.59375 56 
Q 45.5625 56 51.78125 48.09375 
Q 58.015625 40.1875 58.015625 27.296875 
Q 58.015625 14.40625 51.78125 6.484375 
Q 45.5625 -1.421875 35.59375 -1.421875 
Q 29.59375 -1.421875 25.265625 0.953125 
Q 20.953125 3.328125 18.109375 8.203125 
z
M 48.6875 27.296875 
Q 48.6875 37.203125 44.609375 42.84375 
Q 40.53125 48.484375 33.40625 48.484375 
Q 26.265625 48.484375 22.1875 42.84375 
Q 18.109375 37.203125 18.109375 27.296875 
Q 18.109375 17.390625 22.1875 11.75 
Q 26.265625 6.109375 33.40625 6.109375 
Q 40.53125 6.109375 44.609375 11.75 
Q 48.6875 17.390625 48.6875 27.296875 
z
" id="DejaVuSans-70"/>
     <path d="M 4.890625 31.390625 
L 31.203125 31.390625 
L 31.203125 23.390625 
L 4.890625 23.390625 
z
" id="DejaVuSans-2d"/>
     <path d="M 4.203125 54.6875 
L 13.1875 54.6875 
L 24.421875 12.015625 
L 35.59375 54.6875 
L 46.1875 54.6875 
L 57.421875 12.015625 
L 68.609375 54.6875 
L 77.59375 54.6875 
L 63.28125 0 
L 52.6875 0 
L 40.921875 44.828125 
L 29.109375 0 
L 18.5 0 
z
" id="DejaVuSans-77"/>
     <path d="M 46 62.703125 
L 46 35.5 
L 73.1875 35.5 
L 73.1875 27.203125 
L 46 27.203125 
L 46 0 
L 37.796875 0 
L 37.796875 27.203125 
L 10.59375 27.203125 
L 10.59375 35.5 
L 37.796875 35.5 
L 37.796875 62.703125 
z
" id="DejaVuSans-2b"/>
     <path d="M 48.6875 27.296875 
Q 48.6875 37.203125 44.609375 42.84375 
Q 40.53125 48.484375 33.40625 48.484375 
Q 26.265625 48.484375 22.1875 42.84375 
Q 18.109375 37.203125 18.109375 27.296875 
Q 18.109375 17.390625 22.1875 11.75 
Q 26.265625 6.109375 33.40625 6.109375 
Q 40.53125 6.109375 44.609375 11.75 
Q 48.6875 17.390625 48.6875 27.296875 
z
M 18.109375 46.390625 
Q 20.953125 51.265625 25.265625 53.625 
Q 29.59375 56 35.59375 56 
Q 45.5625 56 51.78125 48.09375 
Q 58.015625 40.1875 58.015625 27.296875 
Q 58.015625 14.40625 51.78125 6.484375 
Q 45.5625 -1.421875 35.59375 -1.421875 
Q 29.59375 -1.421875 25.265625 0.953125 
Q 20.953125 3.328125 18.109375 8.203125 
L 18.109375 0 
L 9.078125 0 
L 9.078125 75.984375 
L 18.109375 75.984375 
z
" id="DejaVuSans-62"/>
    </defs>
    <g transform="translate(147.528 45.888588)scale(0.1 -0.1)">
     <use xlink:href="#DejaVuSans-46"/>
     <use x="57.441406" xlink:href="#DejaVuSans-75"/>
     <use x="120.820312" xlink:href="#DejaVuSans-6e"/>
     <use x="184.199219" xlink:href="#DejaVuSans-63"/>
     <use x="239.179688" xlink:href="#DejaVuSans-74"/>
     <use x="278.388672" xlink:href="#DejaVuSans-69"/>
     <use x="306.171875" xlink:href="#DejaVuSans-6f"/>
     <use x="367.353516" xlink:href="#DejaVuSans-6e"/>
     <use x="430.732422" xlink:href="#DejaVuSans-20"/>
     <use x="462.519531" xlink:href="#DejaVuSans-28"/>
     <use x="501.533203" xlink:href="#DejaVuSans-30"/>
     <use x="565.15625" xlink:href="#DejaVuSans-2f"/>
     <use x="598.847656" xlink:href="#DejaVuSans-30"/>
     <use x="662.470703" xlink:href="#DejaVuSans-29"/>
     <use x="701.484375" xlink:href="#DejaVuSans-3a"/>
     <use x="735.175781" xlink:href="#DejaVuSans-20"/>
     <use x="766.962891" xlink:href="#DejaVuSans-79"/>
     <use x="826.142578" xlink:href="#DejaVuSans-20"/>
     <use x="857.929688" xlink:href="#DejaVuSans-3d"/>
     <use x="941.71875" xlink:href="#DejaVuSans-20"/>
     <use x="973.505859" xlink:href="#DejaVuSans-61"/>
     <use x="1034.785156" xlink:href="#DejaVuSans-2a"/>
     <use x="1084.785156" xlink:href="#DejaVuSans-65"/>
     <use x="1146.292969" xlink:href="#DejaVuSans-78"/>
     <use x="1205.472656" xlink:href="#DejaVuSans-70"/>
     <use x="1268.949219" xlink:href="#DejaVuSans-28"/>
     <use x="1307.962891" xlink:href="#DejaVuSans-2d"/>
     <use x="1344.046875" xlink:href="#DejaVuSans-28"/>
     <use x="1383.060547" xlink:href="#DejaVuSans-78"/>
     <use x="1442.240234" xlink:href="#DejaVuSans-2d"/>
     <use x="1478.324219" xlink:href="#DejaVuSans-78"/>
     <use x="1537.503906" xlink:href="#DejaVuSans-30"/>
     <use x="1601.126953" xlink:href="#DejaVuSans-29"/>
     <use x="1640.140625" xlink:href="#DejaVuSans-2a"/>
     <use x="1690.140625" xlink:href="#DejaVuSans-2a"/>
     <use x="1740.140625" xlink:href="#DejaVuSans-32"/>
     <use x="1803.763672" xlink:href="#DejaVuSans-2f"/>
     <use x="1837.455078" xlink:href="#DejaVuSans-77"/>
     <use x="1919.242188" xlink:href="#DejaVuSans-2a"/>
     <use x="1969.242188" xlink:href="#DejaVuSans-2a"/>
     <use x="2019.242188" xlink:href="#DejaVuSans-32"/>
     <use x="2082.865234" xlink:href="#DejaVuSans-29"/>
     <use x="2121.878906" xlink:href="#DejaVuSans-2b"/>
     <use x="2205.667969" xlink:href="#DejaVuSans-62"/>
    </g>
    <!-- Fit: a=376.5$\pm$6.3, b=36.9$\pm$6.9, x0=4.4903$\pm$0.0011, w=0.1686$\pm$0.0042, -->
    <defs>
     <path d="M 40.578125 39.3125 
Q 47.65625 37.796875 51.625 33 
Q 55.609375 28.21875 55.609375 21.1875 
Q 55.609375 10.40625 48.1875 4.484375 
Q 40.765625 -1.421875 27.09375 -1.421875 
Q 22.515625 -1.421875 17.65625 -0.515625 
Q 12.796875 0.390625 7.625 2.203125 
L 7.625 11.71875 
Q 11.71875 9.328125 16.59375 8.109375 
Q 21.484375 6.890625 26.8125 6.890625 
Q 36.078125 6.890625 40.9375 10.546875 
Q 45.796875 14.203125 45.796875 21.1875 
Q 45.796875 27.640625 41.28125 31.265625 
Q 36.765625 34.90625 28.71875 34.90625 
L 20.21875 34.90625 
L 20.21875 43.015625 
L 29.109375 43.015625 
Q 36.375 43.015625 40.234375 45.921875 
Q 44.09375 48.828125 44.09375 54.296875 
Q 44.09375 59.90625 40.109375 62.90625 
Q 36.140625 65.921875 28.71875 65.921875 
Q 24.65625 65.921875 20.015625 65.03125 
Q 15.375 64.15625 9.8125 62.3125 
L 9.8125 71.09375 
Q 15.4375 72.65625 20.34375 73.4375 
Q 25.25 74.21875 29.59375 74.21875 
Q 40.828125 74.21875 47.359375 69.109375 
Q 53.90625 64.015625 53.90625 55.328125 
Q 53.90625 49.265625 50.4375 45.09375 
Q 46.96875 40.921875 40.578125 39.3125 
z
" id="DejaVuSans-33"/>
     <path d="M 8.203125 72.90625 
L 55.078125 72.90625 
L 55.078125 68.703125 
L 28.609375 0 
L 18.3125 0 
L 43.21875 64.59375 
L 8.203125 64.59375 
z
" id="DejaVuSans-37"/>
     <path d="M 33.015625 40.375 
Q 26.375 40.375 22.484375 35.828125 
Q 18.609375 31.296875 18.609375 23.390625 
Q 18.609375 15.53125 22.484375 10.953125 
Q 26.375 6.390625 33.015625 6.390625 
Q 39.65625 6.390625 43.53125 10.953125 
Q 47.40625 15.53125 47.40625 23.390625 
Q 47.40625 31.296875 43.53125 35.828125 
Q 39.65625 40.375 33.015625 40.375 
z
M 52.59375 71.296875 
L 52.59375 62.3125 
Q 48.875 64.0625 45.09375 64.984375 
Q 41.3125 65.921875 37.59375 65.921875 
Q 27.828125 65.921875 22.671875 59.328125 
Q 17.53125 52.734375 16.796875 39.40625 
Q 19.671875 43.65625 24.015625 45.921875 
Q 28.375 48.1875 33.59375 48.1875 
Q 44.578125 48.1875 50.953125 41.515625 
Q 57.328125 34.859375 57.328125 23.390625 
Q 57.328125 12.15625 50.6875 5.359375 
Q 44.046875 -1.421875 33.015625 -1.421875 
Q 20.359375 -1.421875 13.671875 8.265625 
Q 6.984375 17.96875 6.984375 36.375 
Q 6.984375 53.65625 15.1875 63.9375 
Q 23.390625 74.21875 37.203125 74.21875 
Q 40.921875 74.21875 44.703125 73.484375 
Q 48.484375 72.75 52.59375 71.296875 
z
" id="DejaVuSans-36"/>
     <path d="M 10.6875 12.40625 
L 21 12.40625 
L 21 0 
L 10.6875 0 
z
" id="DejaVuSans-2e"/>
     <path d="M 10.796875 72.90625 
L 49.515625 72.90625 
L 49.515625 64.59375 
L 19.828125 64.59375 
L 19.828125 46.734375 
Q 21.96875 47.46875 24.109375 47.828125 
Q 26.265625 48.1875 28.421875 48.1875 
Q 40.625 48.1875 47.75 41.5 
Q 54.890625 34.8125 54.890625 23.390625 
Q 54.890625 11.625 47.5625 5.09375 
Q 40.234375 -1.421875 26.90625 -1.421875 
Q 22.3125 -1.421875 17.546875 -0.640625 
Q 12.796875 0.140625 7.71875 1.703125 
L 7.71875 11.625 
Q 12.109375 9.234375 16.796875 8.0625 
Q 21.484375 6.890625 26.703125 6.890625 
Q 35.15625 6.890625 40.078125 11.328125 
Q 45.015625 15.765625 45.015625 23.390625 
Q 45.015625 31 40.078125 35.4375 
Q 35.15625 39.890625 26.703125 39.890625 
Q 22.75 39.890625 18.8125 39.015625 
Q 14.890625 38.140625 10.796875 36.28125 
z
" id="DejaVuSans-35"/>
     <path d="M 46 62.703125 
L 46 43.796875 
L 73.1875 43.796875 
L 73.1875 35.5 
L 46 35.5 
L 46 16.609375 
L 37.796875 16.609375 
L 37.796875 35.5 
L 10.59375 35.5 
L 10.59375 43.796875 
L 37.796875 43.796875 
L 37.796875 62.703125 
z
M 10.59375 8.296875 
L 73.1875 8.296875 
L 73.1875 0 
L 10.59375 0 
z
" id="DejaVuSans-b1"/>
     <path d="M 11.71875 12.40625 
L 22.015625 12.40625 
L 22.015625 4 
L 14.015625 -11.625 
L 7.71875 -11.625 
L 11.71875 4 
z
" id="DejaVuSans-2c"/>
     <path d="M 10.984375 1.515625 
L 10.984375 10.5 
Q 14.703125 8.734375 18.5 7.8125 
Q 22.3125 6.890625 25.984375 6.890625 
Q 35.75 6.890625 40.890625 13.453125 
Q 46.046875 20.015625 46.78125 33.40625 
Q 43.953125 29.203125 39.59375 26.953125 
Q 35.25 24.703125 29.984375 24.703125 
Q 19.046875 24.703125 12.671875 31.3125 
Q 6.296875 37.9375 6.296875 49.421875 
Q 6.296875 60.640625 12.9375 67.421875 
Q 19.578125 74.21875 30.609375 74.21875 
Q 43.265625 74.21875 49.921875 64.515625 
Q 56.59375 54.828125 56.59375 36.375 
Q 56.59375 19.140625 48.40625 8.859375 
Q 40.234375 -1.421875 26.421875 -1.421875 
Q 22.703125 -1.421875 18.890625 -0.6875 
Q 15.09375 0.046875 10.984375 1.515625 
z
M 30.609375 32.421875 
Q 37.25 32.421875 41.125 36.953125 
Q 45.015625 41.5 45.015625 49.421875 
Q 45.015625 57.28125 41.125 61.84375 
Q 37.25 66.40625 30.609375 66.40625 
Q 23.96875 66.40625 20.09375 61.84375 
Q 16.21875 57.28125 16.21875 49.421875 
Q 16.21875 41.5 20.09375 36.953125 
Q 23.96875 32.421875 30.609375 32.421875 
z
" id="DejaVuSans-39"/>
     <path d="M 37.796875 64.3125 
L 12.890625 25.390625 
L 37.796875 25.390625 
z
M 35.203125 72.90625 
L 47.609375 72.90625 
L 47.609375 25.390625 
L 58.015625 25.390625 
L 58.015625 17.1875 
L 47.609375 17.1875 
L 47.609375 0 
L 37.796875 0 
L 37.796875 17.1875 
L 4.890625 17.1875 
L 4.890625 26.703125 
z
" id="DejaVuSans-34"/>
     <path d="M 12.40625 8.296875 
L 28.515625 8.296875 
L 28.515625 63.921875 
L 10.984375 60.40625 
L 10.984375 69.390625 
L 28.421875 72.90625 
L 38.28125 72.90625 
L 38.28125 8.296875 
L 54.390625 8.296875 
L 54.390625 0 
L 12.40625 0 
z
" id="DejaVuSans-31"/>
     <path d="M 31.78125 34.625 
Q 24.75 34.625 20.71875 30.859375 
Q 16.703125 27.09375 16.703125 20.515625 
Q 16.703125 13.921875 20.71875 10.15625 
Q 24.75 6.390625 31.78125 6.390625 
Q 38.8125 6.390625 42.859375 10.171875 
Q 46.921875 13.96875 46.921875 20.515625 
Q 46.921875 27.09375 42.890625 30.859375 
Q 38.875 34.625 31.78125 34.625 
z
M 21.921875 38.8125 
Q 15.578125 40.375 12.03125 44.71875 
Q 8.5 49.078125 8.5 55.328125 
Q 8.5 64.0625 14.71875 69.140625 
Q 20.953125 74.21875 31.78125 74.21875 
Q 42.671875 74.21875 48.875 69.140625 
Q 55.078125 64.0625 55.078125 55.328125 
Q 55.078125 49.078125 51.53125 44.71875 
Q 48 40.375 41.703125 38.8125 
Q 48.828125 37.15625 52.796875 32.3125 
Q 56.78125 27.484375 56.78125 20.515625 
Q 56.78125 9.90625 50.3125 4.234375 
Q 43.84375 -1.421875 31.78125 -1.421875 
Q 19.734375 -1.421875 13.25 4.234375 
Q 6.78125 9.90625 6.78125 20.515625 
Q 6.78125 27.484375 10.78125 32.3125 
Q 14.796875 37.15625 21.921875 38.8125 
z
M 18.3125 54.390625 
Q 18.3125 48.734375 21.84375 45.5625 
Q 25.390625 42.390625 31.78125 42.390625 
Q 38.140625 42.390625 41.71875 45.5625 
Q 45.3125 48.734375 45.3125 54.390625 
Q 45.3125 60.0625 41.71875 63.234375 
Q 38.140625 66.40625 31.78125 66.40625 
Q 25.390625 66.40625 21.84375 63.234375 
Q 18.3125 60.0625 18.3125 54.390625 
z
" id="DejaVuSans-38"/>
    </defs>
    <g transform="translate(147.528 57.0864)scale(0.1 -0.1)">
     <use transform="translate(0 0.015625)" xlink:href="#DejaVuSans-46"/>
     <use transform="translate(57.519531 0.015625)" xlink:href="#DejaVuSans-69"/>
     <use transform="translate(85.302734 0.015625)" xlink:href="#DejaVuSans-74"/>
     <use transform="translate(124.511719 0.015625)" xlink:href="#DejaVuSans-3a"/>
     <use transform="translate(158.203125 0.015625)" xlink:href="#DejaVuSans-20"/>
     <use transform="translate(189.990234 0.015625)" xlink:href="#DejaVuSans-61"/>
     <use transform="translate(251.269531 0.015625)" xlink:href="#DejaVuSans-3d"/>
     <use transform="translate(335.058594 0.015625)" xlink:href="#DejaVuSans-33"/>
     <use transform="translate(398.681641 0.015625)" xlink:href="#DejaVuSans-37"/>
     <use transform="translate(462.304688 0.015625)" xlink:href="#DejaVuSans-36"/>
     <use transform="translate(525.927734 0.015625)" xlink:href="#DejaVuSans-2e"/>
     <use transform="translate(557.714844 0.015625)" xlink:href="#DejaVuSans-35"/>
     <use transform="translate(621.337891 0.015625)" xlink:href="#DejaVuSans-b1"/>
     <use transform="translate(705.126953 0.015625)" xlink:href="#DejaVuSans-36"/>
     <use transform="translate(768.75 0.015625)" xlink:href="#DejaVuSans-2e"/>
     <use transform="translate(800.537109 0.015625)" xlink:href="#DejaVuSans-33"/>
     <use transform="translate(864.160156 0.015625)" xlink:href="#DejaVuSans-2c"/>
     <use transform="translate(895.947266 0.015625)" xlink:href="#DejaVuSans-20"/>
     <use transform="translate(927.734375 0.015625)" xlink:href="#DejaVuSans-62"/>
     <use transform="translate(991.210938 0.015625)" xlink:href="#DejaVuSans-3d"/>
     <use transform="translate(1075 0.015625)" xlink:href="#DejaVuSans-33"/>
     <use transform="translate(1138.623047 0.015625)" xlink:href="#DejaVuSans-36"/>
     <use transform="translate(1202.246094 0.015625)" xlink:href="#DejaVuSans-2e"/>
     <use transform="translate(1234.033203 0.015625)" xlink:href="#DejaVuSans-39"/>
     <use transform="translate(1297.65625 0.015625)" xlink:href="#DejaVuSans-b1"/>
     <use transform="translate(1381.445312 0.015625)" xlink:href="#DejaVuSans-36"/>
     <use transform="translate(1445.068359 0.015625)" xlink:href="#DejaVuSans-2e"/>
     <use transform="translate(1476.855469 0.015625)" xlink:href="#DejaVuSans-39"/>
     <use transform="translate(1540.478516 0.015625)" xlink:href="#DejaVuSans-2c"/>
     <use transform="translate(1572.265625 0.015625)" xlink:href="#DejaVuSans-20"/>
     <use transform="translate(1604.052734 0.015625)" xlink:href="#DejaVuSans-78"/>
     <use transform="translate(1663.232422 0.015625)" xlink:href="#DejaVuSans-30"/>
     <use transform="translate(1726.855469 0.015625)" xlink:href="#DejaVuSans-3d"/>
     <use transform="translate(1810.644531 0.015625)" xlink:href="#DejaVuSans-34"/>
     <use transform="translate(1874.267578 0.015625)" xlink:href="#DejaVuSans-2e"/>
     <use transform="translate(1906.054688 0.015625)" xlink:href="#DejaVuSans-34"/>
     <use transform="translate(1969.677734 0.015625)" xlink:href="#DejaVuSans-39"/>
     <use transform="translate(2033.300781 0.015625)" xlink:href="#DejaVuSans-30"/>
     <use transform="translate(2096.923828 0.015625)" xlink:href="#DejaVuSans-33"/>
     <use transform="translate(2160.546875 0.015625)" xlink:href="#DejaVuSans-b1"/>
     <use transform="translate(2244.335938 0.015625)" xlink:href="#DejaVuSans-30"/>
     <use transform="translate(2307.958984 0.015625)" xlink:href="#DejaVuSans-2e"/>
     <use transform="translate(2339.746094 0.015625)" xlink:href="#DejaVuSans-30"/>
     <use transform="translate(2403.369141 0.015625)" xlink:href="#DejaVuSans-30"/>
     <use transform="translate(2466.992188 0.015625)" xlink:href="#DejaVuSans-31"/>
     <use transform="translate(2530.615234 0.015625)" xlink:href="#DejaVuSans-31"/>
     <use transform="translate(2594.238281 0.015625)" xlink:href="#DejaVuSans-2c"/>
     <use transform="translate(2626.025391 0.015625)" xlink:href="#DejaVuSans-20"/>
     <use transform="translate(2657.8125 0.015625)" xlink:href="#DejaVuSans-77"/>
     <use transform="translate(2739.599609 0.015625)" xlink:href="#DejaVuSans-3d"/>
     <use transform="translate(2823.388672 0.015625)" xlink:href="#DejaVuSans-30"/>
     <use transform="translate(2887.011719 0.015625)" xlink:href="#DejaVuSans-2e"/>
     <use transform="translate(2918.798828 0.015625)" xlink:href="#DejaVuSans-31"/>
     <use transform="translate(2982.421875 0.015625)" xlink:href="#DejaVuSans-36"/>
     <use transform="translate(3046.044922 0.015625)" xlink:href="#DejaVuSans-38"/>
     <use transform="translate(3109.667969 0.015625)" xlink:href="#DejaVuSans-36"/>
     <use transform="translate(3173.291016 0.015625)" xlink:href="#DejaVuSans-b1"/>
     <use transform="translate(3257.080078 0.015625)" xlink:href="#DejaVuSans-30"/>
     <use transform="translate(3320.703125 0.015625)" xlink:href="#DejaVuSans-2e"/>
     <use transform="translate(3352.490234 0.015625)" xlink:href="#DejaVuSans-30"/>
     <use transform="translate(3416.113281 0.015625)" xlink:href="#DejaVuSans-30"/>
     <use transform="translate(3479.736328 0.015625)" xlink:href="#DejaVuSans-34"/>
     <use transform="translate(3543.359375 0.015625)" xlink:href="#DejaVuSans-32"/>
     <use transform="translate(3606.982422 0.015625)" xlink:href="#DejaVuSans-2c"/>
    </g>
   </g>
  </g>
  <g id="axes_2">
   <g id="patch_7">
    <path d="M 147.528 436.752 
L 885.168 436.752 
L 885.168 145.584 
L 147.528 145.584 
z
" style="fill:#ffffff;"/>
   </g>
   <g id="matplotlib.axis_3">
    <g id="xtick_7">
     <g id="line2d_12">
      <g>
       <use style="stroke:#000000;stroke-width:0.8;" x="150.206767" xlink:href="#m60b7f48aea" y="436.752"/>
      </g>
     </g>
     <g id="text_5">
      <!-- 4.2 -->
      <g transform="translate(140.664892 452.870125)scale(0.12 -0.12)">
       <use xlink:href="#DejaVuSans-34"/>
       <use x="63.623047" xlink:href="#DejaVuSans-2e"/>
       <use x="95.410156" xlink:href="#DejaVuSans-32"/>
      </g>
     </g>
    </g>
    <g id="xtick_8">
     <g id="line2d_13">
      <g>
       <use style="stroke:#000000;stroke-width:0.8;" x="279.210458" xlink:href="#m60b7f48aea" y="436.752"/>
      </g>
     </g>
     <g id="text_6">
      <!-- 4.3 -->
      <g transform="translate(269.668583 452.870125)scale(0.12 -0.12)">
       <use xlink:href="#DejaVuSans-34"/>
       <use x="63.623047" xlink:href="#DejaVuSans-2e"/>
       <use x="95.410156" xlink:href="#DejaVuSans-33"/>
      </g>
     </g>
    </g>
    <g id="xtick_9">
     <g id="line2d_14">
      <g>
       <use style="stroke:#000000;stroke-width:0.8;" x="408.21415" xlink:href="#m60b7f48aea" y="436.752"/>
      </g>
     </g>
     <g id="text_7">
      <!-- 4.4 -->
      <g transform="translate(398.672275 452.870125)scale(0.12 -0.12)">
       <use xlink:href="#DejaVuSans-34"/>
       <use x="63.623047" xlink:href="#DejaVuSans-2e"/>
       <use x="95.410156" xlink:href="#DejaVuSans-34"/>
      </g>
     </g>
    </g>
    <g id="xtick_10">
     <g id="line2d_15">
      <g>
       <use style="stroke:#000000;stroke-width:0.8;" x="537.217842" xlink:href="#m60b7f48aea" y="436.752"/>
      </g>
     </g>
     <g id="text_8">
      <!-- 4.5 -->
      <g transform="translate(527.675967 452.870125)scale(0.12 -0.12)">
       <use xlink:href="#DejaVuSans-34"/>
       <use x="63.623047" xlink:href="#DejaVuSans-2e"/>
       <use x="95.410156" xlink:href="#DejaVuSans-35"/>
      </g>
     </g>
    </g>
    <g id="xtick_11">
     <g id="line2d_16">
      <g>
       <use style="stroke:#000000;stroke-width:0.8;" x="666.221534" xlink:href="#m60b7f48aea" y="436.752"/>
      </g>
     </g>
     <g id="text_9">
      <!-- 4.6 -->
      <g transform="translate(656.679659 452.870125)scale(0.12 -0.12)">
       <use xlink:href="#DejaVuSans-34"/>
       <use x="63.623047" xlink:href="#DejaVuSans-2e"/>
       <use x="95.410156" xlink:href="#DejaVuSans-36"/>
      </g>
     </g>
    </g>
    <g id="xtick_12">
     <g id="line2d_17">
      <g>
       <use style="stroke:#000000;stroke-width:0.8;" x="795.225226" xlink:href="#m60b7f48aea" y="436.752"/>
      </g>
     </g>
     <g id="text_10">
      <!-- 4.7 -->
      <g transform="translate(785.683351 452.870125)scale(0.12 -0.12)">
       <use xlink:href="#DejaVuSans-34"/>
       <use x="63.623047" xlink:href="#DejaVuSans-2e"/>
       <use x="95.410156" xlink:href="#DejaVuSans-37"/>
      </g>
     </g>
    </g>
    <g id="text_11">
     <!-- Energy [MeV] -->
     <defs>
      <path d="M 9.8125 72.90625 
L 55.90625 72.90625 
L 55.90625 64.59375 
L 19.671875 64.59375 
L 19.671875 43.015625 
L 54.390625 43.015625 
L 54.390625 34.71875 
L 19.671875 34.71875 
L 19.671875 8.296875 
L 56.78125 8.296875 
L 56.78125 0 
L 9.8125 0 
z
" id="DejaVuSans-45"/>
      <path d="M 41.109375 46.296875 
Q 39.59375 47.171875 37.8125 47.578125 
Q 36.03125 48 33.890625 48 
Q 26.265625 48 22.1875 43.046875 
Q 18.109375 38.09375 18.109375 28.8125 
L 18.109375 0 
L 9.078125 0 
L 9.078125 54.6875 
L 18.109375 54.6875 
L 18.109375 46.1875 
Q 20.953125 51.171875 25.484375 53.578125 
Q 30.03125 56 36.53125 56 
Q 37.453125 56 38.578125 55.875 
Q 39.703125 55.765625 41.0625 55.515625 
z
" id="DejaVuSans-72"/>
      <path d="M 45.40625 27.984375 
Q 45.40625 37.75 41.375 43.109375 
Q 37.359375 48.484375 30.078125 48.484375 
Q 22.859375 48.484375 18.828125 43.109375 
Q 14.796875 37.75 14.796875 27.984375 
Q 14.796875 18.265625 18.828125 12.890625 
Q 22.859375 7.515625 30.078125 7.515625 
Q 37.359375 7.515625 41.375 12.890625 
Q 45.40625 18.265625 45.40625 27.984375 
z
M 54.390625 6.78125 
Q 54.390625 -7.171875 48.1875 -13.984375 
Q 42 -20.796875 29.203125 -20.796875 
Q 24.46875 -20.796875 20.265625 -20.09375 
Q 16.0625 -19.390625 12.109375 -17.921875 
L 12.109375 -9.1875 
Q 16.0625 -11.328125 19.921875 -12.34375 
Q 23.78125 -13.375 27.78125 -13.375 
Q 36.625 -13.375 41.015625 -8.765625 
Q 45.40625 -4.15625 45.40625 5.171875 
L 45.40625 9.625 
Q 42.625 4.78125 38.28125 2.390625 
Q 33.9375 0 27.875 0 
Q 17.828125 0 11.671875 7.65625 
Q 5.515625 15.328125 5.515625 27.984375 
Q 5.515625 40.671875 11.671875 48.328125 
Q 17.828125 56 27.875 56 
Q 33.9375 56 38.28125 53.609375 
Q 42.625 51.21875 45.40625 46.390625 
L 45.40625 54.6875 
L 54.390625 54.6875 
z
" id="DejaVuSans-67"/>
      <path d="M 8.59375 75.984375 
L 29.296875 75.984375 
L 29.296875 69 
L 17.578125 69 
L 17.578125 -6.203125 
L 29.296875 -6.203125 
L 29.296875 -13.1875 
L 8.59375 -13.1875 
z
" id="DejaVuSans-5b"/>
      <path d="M 9.8125 72.90625 
L 24.515625 72.90625 
L 43.109375 23.296875 
L 61.8125 72.90625 
L 76.515625 72.90625 
L 76.515625 0 
L 66.890625 0 
L 66.890625 64.015625 
L 48.09375 14.015625 
L 38.1875 14.015625 
L 19.390625 64.015625 
L 19.390625 0 
L 9.8125 0 
z
" id="DejaVuSans-4d"/>
      <path d="M 28.609375 0 
L 0.78125 72.90625 
L 11.078125 72.90625 
L 34.1875 11.53125 
L 57.328125 72.90625 
L 67.578125 72.90625 
L 39.796875 0 
z
" id="DejaVuSans-56"/>
      <path d="M 30.421875 75.984375 
L 30.421875 -13.1875 
L 9.71875 -13.1875 
L 9.71875 -6.203125 
L 21.390625 -6.203125 
L 21.390625 69 
L 9.71875 69 
L 9.71875 75.984375 
z
" id="DejaVuSans-5d"/>
     </defs>
     <g transform="translate(475.674562 468.483875)scale(0.12 -0.12)">
      <use xlink:href="#DejaVuSans-45"/>
      <use x="63.183594" xlink:href="#DejaVuSans-6e"/>
      <use x="126.5625" xlink:href="#DejaVuSans-65"/>
      <use x="188.085938" xlink:href="#DejaVuSans-72"/>
      <use x="229.183594" xlink:href="#DejaVuSans-67"/>
      <use x="292.660156" xlink:href="#DejaVuSans-79"/>
      <use x="351.839844" xlink:href="#DejaVuSans-20"/>
      <use x="383.626953" xlink:href="#DejaVuSans-5b"/>
      <use x="422.640625" xlink:href="#DejaVuSans-4d"/>
      <use x="508.919922" xlink:href="#DejaVuSans-65"/>
      <use x="570.443359" xlink:href="#DejaVuSans-56"/>
      <use x="638.851562" xlink:href="#DejaVuSans-5d"/>
     </g>
    </g>
   </g>
   <g id="matplotlib.axis_4">
    <g id="ytick_4">
     <g id="line2d_18">
      <g>
       <use style="stroke:#000000;stroke-width:0.8;" x="147.528" xlink:href="#m427bc7666e" y="402.816753"/>
      </g>
     </g>
     <g id="text_12">
      <!-- 100 -->
      <g transform="translate(117.623 407.375816)scale(0.12 -0.12)">
       <use xlink:href="#DejaVuSans-31"/>
       <use x="63.623047" xlink:href="#DejaVuSans-30"/>
       <use x="127.246094" xlink:href="#DejaVuSans-30"/>
      </g>
     </g>
    </g>
    <g id="ytick_5">
     <g id="line2d_19">
      <g>
       <use style="stroke:#000000;stroke-width:0.8;" x="147.528" xlink:href="#m427bc7666e" y="365.476033"/>
      </g>
     </g>
     <g id="text_13">
      <!-- 150 -->
      <g transform="translate(117.623 370.035096)scale(0.12 -0.12)">
       <use xlink:href="#DejaVuSans-31"/>
       <use x="63.623047" xlink:href="#DejaVuSans-35"/>
       <use x="127.246094" xlink:href="#DejaVuSans-30"/>
      </g>
     </g>
    </g>
    <g id="ytick_6">
     <g id="line2d_20">
      <g>
       <use style="stroke:#000000;stroke-width:0.8;" x="147.528" xlink:href="#m427bc7666e" y="328.135313"/>
      </g>
     </g>
     <g id="text_14">
      <!-- 200 -->
      <g transform="translate(117.623 332.694376)scale(0.12 -0.12)">
       <use xlink:href="#DejaVuSans-32"/>
       <use x="63.623047" xlink:href="#DejaVuSans-30"/>
       <use x="127.246094" xlink:href="#DejaVuSans-30"/>
      </g>
     </g>
    </g>
    <g id="ytick_7">
     <g id="line2d_21">
      <g>
       <use style="stroke:#000000;stroke-width:0.8;" x="147.528" xlink:href="#m427bc7666e" y="290.794593"/>
      </g>
     </g>
     <g id="text_15">
      <!-- 250 -->
      <g transform="translate(117.623 295.353655)scale(0.12 -0.12)">
       <use xlink:href="#DejaVuSans-32"/>
       <use x="63.623047" xlink:href="#DejaVuSans-35"/>
       <use x="127.246094" xlink:href="#DejaVuSans-30"/>
      </g>
     </g>
    </g>
    <g id="ytick_8">
     <g id="line2d_22">
      <g>
       <use style="stroke:#000000;stroke-width:0.8;" x="147.528" xlink:href="#m427bc7666e" y="253.453873"/>
      </g>
     </g>
     <g id="text_16">
      <!-- 300 -->
      <g transform="translate(117.623 258.012935)scale(0.12 -0.12)">
       <use xlink:href="#DejaVuSans-33"/>
       <use x="63.623047" xlink:href="#DejaVuSans-30"/>
       <use x="127.246094" xlink:href="#DejaVuSans-30"/>
      </g>
     </g>
    </g>
    <g id="ytick_9">
     <g id="line2d_23">
      <g>
       <use style="stroke:#000000;stroke-width:0.8;" x="147.528" xlink:href="#m427bc7666e" y="216.113152"/>
      </g>
     </g>
     <g id="text_17">
      <!-- 350 -->
      <g transform="translate(117.623 220.672215)scale(0.12 -0.12)">
       <use xlink:href="#DejaVuSans-33"/>
       <use x="63.623047" xlink:href="#DejaVuSans-35"/>
       <use x="127.246094" xlink:href="#DejaVuSans-30"/>
      </g>
     </g>
    </g>
    <g id="ytick_10">
     <g id="line2d_24">
      <g>
       <use style="stroke:#000000;stroke-width:0.8;" x="147.528" xlink:href="#m427bc7666e" y="178.772432"/>
      </g>
     </g>
     <g id="text_18">
      <!-- 400 -->
      <g transform="translate(117.623 183.331495)scale(0.12 -0.12)">
       <use xlink:href="#DejaVuSans-34"/>
       <use x="63.623047" xlink:href="#DejaVuSans-30"/>
       <use x="127.246094" xlink:href="#DejaVuSans-30"/>
      </g>
     </g>
    </g>
    <g id="text_19">
     <!-- Counts -->
     <defs>
      <path d="M 64.40625 67.28125 
L 64.40625 56.890625 
Q 59.421875 61.53125 53.78125 63.8125 
Q 48.140625 66.109375 41.796875 66.109375 
Q 29.296875 66.109375 22.65625 58.46875 
Q 16.015625 50.828125 16.015625 36.375 
Q 16.015625 21.96875 22.65625 14.328125 
Q 29.296875 6.6875 41.796875 6.6875 
Q 48.140625 6.6875 53.78125 8.984375 
Q 59.421875 11.28125 64.40625 15.921875 
L 64.40625 5.609375 
Q 59.234375 2.09375 53.4375 0.328125 
Q 47.65625 -1.421875 41.21875 -1.421875 
Q 24.65625 -1.421875 15.125 8.703125 
Q 5.609375 18.84375 5.609375 36.375 
Q 5.609375 53.953125 15.125 64.078125 
Q 24.65625 74.21875 41.21875 74.21875 
Q 47.75 74.21875 53.53125 72.484375 
Q 59.328125 70.75 64.40625 67.28125 
z
" id="DejaVuSans-43"/>
     </defs>
     <g transform="translate(111.127375 312.11175)rotate(-90)scale(0.12 -0.12)">
      <use xlink:href="#DejaVuSans-43"/>
      <use x="69.824219" xlink:href="#DejaVuSans-6f"/>
      <use x="131.005859" xlink:href="#DejaVuSans-75"/>
      <use x="194.384766" xlink:href="#DejaVuSans-6e"/>
      <use x="257.763672" xlink:href="#DejaVuSans-74"/>
      <use x="296.972656" xlink:href="#DejaVuSans-73"/>
     </g>
    </g>
   </g>
   <g id="LineCollection_2">
    <path clip-path="url(#p542229ed82)" d="M 174.848 429.009935 
L 174.848 416.204735 
" style="fill:none;stroke:#0000ff;stroke-width:1.5;"/>
    <path clip-path="url(#p542229ed82)" d="M 190.196315 426.19459 
L 190.196315 413.045565 
" style="fill:none;stroke:#0000ff;stroke-width:1.5;"/>
    <path clip-path="url(#p542229ed82)" d="M 197.870472 424.080187 
L 197.870472 410.679082 
" style="fill:none;stroke:#0000ff;stroke-width:1.5;"/>
    <path clip-path="url(#p542229ed82)" d="M 205.544629 428.306529 
L 205.544629 415.414513 
" style="fill:none;stroke:#0000ff;stroke-width:1.5;"/>
    <path clip-path="url(#p542229ed82)" d="M 213.218787 417.723501 
L 213.218787 403.593109 
" style="fill:none;stroke:#0000ff;stroke-width:1.5;"/>
    <path clip-path="url(#p542229ed82)" d="M 220.892944 425.842357 
L 220.892944 412.650984 
" style="fill:none;stroke:#0000ff;stroke-width:1.5;"/>
    <path clip-path="url(#p542229ed82)" d="M 228.567101 397.486575 
L 228.567101 381.261613 
" style="fill:none;stroke:#0000ff;stroke-width:1.5;"/>
    <path clip-path="url(#p542229ed82)" d="M 236.241258 408.510637 
L 236.241258 393.388798 
" style="fill:none;stroke:#0000ff;stroke-width:1.5;"/>
    <path clip-path="url(#p542229ed82)" d="M 243.915416 391.78255 
L 243.915416 375.016608 
" style="fill:none;stroke:#0000ff;stroke-width:1.5;"/>
    <path clip-path="url(#p542229ed82)" d="M 251.589573 394.992158 
L 251.589573 378.52833 
" style="fill:none;stroke:#0000ff;stroke-width:1.5;"/>
    <path clip-path="url(#p542229ed82)" d="M 259.26373 389.641317 
L 259.26373 372.676955 
" style="fill:none;stroke:#0000ff;stroke-width:1.5;"/>
    <path clip-path="url(#p542229ed82)" d="M 266.937888 385.712772 
L 266.937888 368.390541 
" style="fill:none;stroke:#0000ff;stroke-width:1.5;"/>
    <path clip-path="url(#p542229ed82)" d="M 274.612045 382.853361 
L 274.612045 365.275437 
" style="fill:none;stroke:#0000ff;stroke-width:1.5;"/>
    <path clip-path="url(#p542229ed82)" d="M 282.286202 379.276528 
L 282.286202 361.384126 
" style="fill:none;stroke:#0000ff;stroke-width:1.5;"/>
    <path clip-path="url(#p542229ed82)" d="M 289.96036 370.322856 
L 289.96036 351.667438 
" style="fill:none;stroke:#0000ff;stroke-width:1.5;"/>
    <path clip-path="url(#p542229ed82)" d="M 297.634517 363.507939 
L 297.634517 344.292881 
" style="fill:none;stroke:#0000ff;stroke-width:1.5;"/>
    <path clip-path="url(#p542229ed82)" d="M 305.308674 356.325795 
L 305.308674 336.538737 
" style="fill:none;stroke:#0000ff;stroke-width:1.5;"/>
    <path clip-path="url(#p542229ed82)" d="M 312.982831 334.733621 
L 312.982831 313.322047 
" style="fill:none;stroke:#0000ff;stroke-width:1.5;"/>
    <path clip-path="url(#p542229ed82)" d="M 320.656989 348.416179 
L 320.656989 328.018436 
" style="fill:none;stroke:#0000ff;stroke-width:1.5;"/>
    <path clip-path="url(#p542229ed82)" d="M 328.331146 344.457992 
L 328.331146 323.761664 
" style="fill:none;stroke:#0000ff;stroke-width:1.5;"/>
    <path clip-path="url(#p542229ed82)" d="M 336.005303 323.915246 
L 336.005303 301.73599 
" style="fill:none;stroke:#0000ff;stroke-width:1.5;"/>
    <path clip-path="url(#p542229ed82)" d="M 343.679461 317.779048 
L 343.679461 295.176343 
" style="fill:none;stroke:#0000ff;stroke-width:1.5;"/>
    <path clip-path="url(#p542229ed82)" d="M 351.353618 317.417972 
L 351.353618 294.790604 
" style="fill:none;stroke:#0000ff;stroke-width:1.5;"/>
    <path clip-path="url(#p542229ed82)" d="M 359.027775 304.049067 
L 359.027775 280.527377 
" style="fill:none;stroke:#0000ff;stroke-width:1.5;"/>
    <path clip-path="url(#p542229ed82)" d="M 366.701933 301.517915 
L 366.701933 277.830827 
" style="fill:none;stroke:#0000ff;stroke-width:1.5;"/>
    <path clip-path="url(#p542229ed82)" d="M 374.37609 277.263767 
L 374.37609 252.04841 
" style="fill:none;stroke:#0000ff;stroke-width:1.5;"/>
    <path clip-path="url(#p542229ed82)" d="M 382.050247 284.870892 
L 382.050247 260.124388 
" style="fill:none;stroke:#0000ff;stroke-width:1.5;"/>
    <path clip-path="url(#p542229ed82)" d="M 389.724404 269.652362 
L 389.724404 243.976713 
" style="fill:none;stroke:#0000ff;stroke-width:1.5;"/>
    <path clip-path="url(#p542229ed82)" d="M 397.398562 266.751701 
L 397.398562 240.902859 
" style="fill:none;stroke:#0000ff;stroke-width:1.5;"/>
    <path clip-path="url(#p542229ed82)" d="M 405.072719 266.389077 
L 405.072719 240.518668 
" style="fill:none;stroke:#0000ff;stroke-width:1.5;"/>
    <path clip-path="url(#p542229ed82)" d="M 412.746876 280.162237 
L 412.746876 255.124456 
" style="fill:none;stroke:#0000ff;stroke-width:1.5;"/>
    <path clip-path="url(#p542229ed82)" d="M 420.421034 237.715152 
L 420.421034 210.194256 
" style="fill:none;stroke:#0000ff;stroke-width:1.5;"/>
    <path clip-path="url(#p542229ed82)" d="M 428.095191 257.320631 
L 428.095191 230.916754 
" style="fill:none;stroke:#0000ff;stroke-width:1.5;"/>
    <path clip-path="url(#p542229ed82)" d="M 435.769348 226.813636 
L 435.769348 198.691339 
" style="fill:none;stroke:#0000ff;stroke-width:1.5;"/>
    <path clip-path="url(#p542229ed82)" d="M 443.443506 232.628587 
L 443.443506 204.825418 
" style="fill:none;stroke:#0000ff;stroke-width:1.5;"/>
    <path clip-path="url(#p542229ed82)" d="M 451.117663 218.087871 
L 451.117663 189.493558 
" style="fill:none;stroke:#0000ff;stroke-width:1.5;"/>
    <path clip-path="url(#p542229ed82)" d="M 458.79182 204.26431 
L 458.79182 174.938172 
" style="fill:none;stroke:#0000ff;stroke-width:1.5;"/>
    <path clip-path="url(#p542229ed82)" d="M 466.465978 204.26431 
L 466.465978 174.938172 
" style="fill:none;stroke:#0000ff;stroke-width:1.5;"/>
    <path clip-path="url(#p542229ed82)" d="M 474.140135 182.419737 
L 474.140135 151.973881 
" style="fill:none;stroke:#0000ff;stroke-width:1.5;"/>
    <path clip-path="url(#p542229ed82)" d="M 481.814292 202.444743 
L 481.814292 173.023667 
" style="fill:none;stroke:#0000ff;stroke-width:1.5;"/>
    <path clip-path="url(#p542229ed82)" d="M 489.488449 191.160074 
L 489.488449 161.15709 
" style="fill:none;stroke:#0000ff;stroke-width:1.5;"/>
    <path clip-path="url(#p542229ed82)" d="M 497.162607 208.266813 
L 497.162607 179.150627 
" style="fill:none;stroke:#0000ff;stroke-width:1.5;"/>
    <path clip-path="url(#p542229ed82)" d="M 504.836764 188.611145 
L 504.836764 158.478318 
" style="fill:none;stroke:#0000ff;stroke-width:1.5;"/>
    <path clip-path="url(#p542229ed82)" d="M 512.510921 182.419737 
L 512.510921 151.973881 
" style="fill:none;stroke:#0000ff;stroke-width:1.5;"/>
    <path clip-path="url(#p542229ed82)" d="M 520.185079 174.769333 
L 520.185079 143.941182 
" style="fill:none;stroke:#0000ff;stroke-width:1.5;"/>
    <path clip-path="url(#p542229ed82)" d="M 527.859236 177.319732 
L 527.859236 146.618484 
" style="fill:none;stroke:#0000ff;stroke-width:1.5;"/>
    <path clip-path="url(#p542229ed82)" d="M 535.533393 183.148222 
L 535.533393 152.739025 
" style="fill:none;stroke:#0000ff;stroke-width:1.5;"/>
    <path clip-path="url(#p542229ed82)" d="M 543.207551 171.854273 
L 543.207551 140.881727 
" style="fill:none;stroke:#0000ff;stroke-width:1.5;"/>
    <path clip-path="url(#p542229ed82)" d="M 550.881708 181.69123 
L 550.881708 151.208758 
" style="fill:none;stroke:#0000ff;stroke-width:1.5;"/>
    <path clip-path="url(#p542229ed82)" d="M 558.555865 180.598429 
L 558.555865 150.061116 
" style="fill:none;stroke:#0000ff;stroke-width:1.5;"/>
    <path clip-path="url(#p542229ed82)" d="M 566.230022 186.426127 
L 566.230022 156.182449 
" style="fill:none;stroke:#0000ff;stroke-width:1.5;"/>
    <path clip-path="url(#p542229ed82)" d="M 573.90418 187.154489 
L 573.90418 156.947716 
" style="fill:none;stroke:#0000ff;stroke-width:1.5;"/>
    <path clip-path="url(#p542229ed82)" d="M 581.578337 208.994459 
L 581.578337 179.91661 
" style="fill:none;stroke:#0000ff;stroke-width:1.5;"/>
    <path clip-path="url(#p542229ed82)" d="M 589.252494 204.992094 
L 589.252494 175.704017 
" style="fill:none;stroke:#0000ff;stroke-width:1.5;"/>
    <path clip-path="url(#p542229ed82)" d="M 596.926652 203.536501 
L 596.926652 174.172352 
" style="fill:none;stroke:#0000ff;stroke-width:1.5;"/>
    <path clip-path="url(#p542229ed82)" d="M 604.600809 221.724083 
L 604.600809 193.32549 
" style="fill:none;stroke:#0000ff;stroke-width:1.5;"/>
    <path clip-path="url(#p542229ed82)" d="M 612.274966 216.633199 
L 612.274966 187.960972 
" style="fill:none;stroke:#0000ff;stroke-width:1.5;"/>
    <path clip-path="url(#p542229ed82)" d="M 619.949124 226.08664 
L 619.949124 197.924706 
" style="fill:none;stroke:#0000ff;stroke-width:1.5;"/>
    <path clip-path="url(#p542229ed82)" d="M 627.623281 241.347519 
L 627.623281 214.030032 
" style="fill:none;stroke:#0000ff;stroke-width:1.5;"/>
    <path clip-path="url(#p542229ed82)" d="M 635.297438 236.625295 
L 635.297438 209.043669 
" style="fill:none;stroke:#0000ff;stroke-width:1.5;"/>
    <path clip-path="url(#p542229ed82)" d="M 642.971596 243.526574 
L 642.971596 216.331863 
" style="fill:none;stroke:#0000ff;stroke-width:1.5;"/>
    <path clip-path="url(#p542229ed82)" d="M 650.645753 254.780505 
L 650.645753 228.229179 
" style="fill:none;stroke:#0000ff;stroke-width:1.5;"/>
    <path clip-path="url(#p542229ed82)" d="M 658.31991 283.784431 
L 658.31991 258.970406 
" style="fill:none;stroke:#0000ff;stroke-width:1.5;"/>
    <path clip-path="url(#p542229ed82)" d="M 665.994067 280.524501 
L 665.994067 255.509006 
" style="fill:none;stroke:#0000ff;stroke-width:1.5;"/>
    <path clip-path="url(#p542229ed82)" d="M 673.668225 288.491757 
L 673.668225 263.971667 
" style="fill:none;stroke:#0000ff;stroke-width:1.5;"/>
    <path clip-path="url(#p542229ed82)" d="M 681.342382 279.075384 
L 681.342382 253.970865 
" style="fill:none;stroke:#0000ff;stroke-width:1.5;"/>
    <path clip-path="url(#p542229ed82)" d="M 689.016539 306.941093 
L 689.016539 283.609865 
" style="fill:none;stroke:#0000ff;stroke-width:1.5;"/>
    <path clip-path="url(#p542229ed82)" d="M 696.690697 309.832336 
L 696.690697 286.693138 
" style="fill:none;stroke:#0000ff;stroke-width:1.5;"/>
    <path clip-path="url(#p542229ed82)" d="M 704.364854 315.251234 
L 704.364854 292.476456 
" style="fill:none;stroke:#0000ff;stroke-width:1.5;"/>
    <path clip-path="url(#p542229ed82)" d="M 712.039011 331.129007 
L 712.039011 309.458517 
" style="fill:none;stroke:#0000ff;stroke-width:1.5;"/>
    <path clip-path="url(#p542229ed82)" d="M 719.713169 335.454355 
L 719.713169 314.094941 
" style="fill:none;stroke:#0000ff;stroke-width:1.5;"/>
    <path clip-path="url(#p542229ed82)" d="M 727.387326 341.217893 
L 727.387326 320.280434 
" style="fill:none;stroke:#0000ff;stroke-width:1.5;"/>
    <path clip-path="url(#p542229ed82)" d="M 735.061483 339.057061 
L 735.061483 317.96038 
" style="fill:none;stroke:#0000ff;stroke-width:1.5;"/>
    <path clip-path="url(#p542229ed82)" d="M 742.73564 360.277014 
L 742.73564 340.802477 
" style="fill:none;stroke:#0000ff;stroke-width:1.5;"/>
    <path clip-path="url(#p542229ed82)" d="M 750.409798 368.88883 
L 750.409798 350.114207 
" style="fill:none;stroke:#0000ff;stroke-width:1.5;"/>
    <path clip-path="url(#p542229ed82)" d="M 758.083955 372.114849 
L 758.083955 353.609517 
" style="fill:none;stroke:#0000ff;stroke-width:1.5;"/>
    <path clip-path="url(#p542229ed82)" d="M 765.758112 370.681303 
L 765.758112 352.055805 
" style="fill:none;stroke:#0000ff;stroke-width:1.5;"/>
    <path clip-path="url(#p542229ed82)" d="M 773.43227 382.495804 
L 773.43227 364.88618 
" style="fill:none;stroke:#0000ff;stroke-width:1.5;"/>
    <path clip-path="url(#p542229ed82)" d="M 781.106427 381.780604 
L 781.106427 364.10775 
" style="fill:none;stroke:#0000ff;stroke-width:1.5;"/>
    <path clip-path="url(#p542229ed82)" d="M 788.780584 396.774063 
L 788.780584 380.480496 
" style="fill:none;stroke:#0000ff;stroke-width:1.5;"/>
    <path clip-path="url(#p542229ed82)" d="M 796.454742 401.402736 
L 796.454742 385.56041 
" style="fill:none;stroke:#0000ff;stroke-width:1.5;"/>
    <path clip-path="url(#p542229ed82)" d="M 804.128899 410.639611 
L 804.128899 395.74071 
" style="fill:none;stroke:#0000ff;stroke-width:1.5;"/>
    <path clip-path="url(#p542229ed82)" d="M 811.803056 407.090417 
L 811.803056 391.82176 
" style="fill:none;stroke:#0000ff;stroke-width:1.5;"/>
    <path clip-path="url(#p542229ed82)" d="M 819.477213 418.077145 
L 819.477213 403.986279 
" style="fill:none;stroke:#0000ff;stroke-width:1.5;"/>
    <path clip-path="url(#p542229ed82)" d="M 827.151371 414.892399 
L 827.151371 400.449695 
" style="fill:none;stroke:#0000ff;stroke-width:1.5;"/>
    <path clip-path="url(#p542229ed82)" d="M 834.825528 432.171506 
L 834.825528 419.764494 
" style="fill:none;stroke:#0000ff;stroke-width:1.5;"/>
    <path clip-path="url(#p542229ed82)" d="M 842.499685 431.820535 
L 842.499685 419.368651 
" style="fill:none;stroke:#0000ff;stroke-width:1.5;"/>
    <path clip-path="url(#p542229ed82)" d="M 857.848 428.306529 
L 857.848 415.414513 
" style="fill:none;stroke:#0000ff;stroke-width:1.5;"/>
   </g>
   <g id="line2d_25">
    <path clip-path="url(#p542229ed82)" d="M 174.848 477.235744 
L 195.358511 476.902779 
L 210.399552 476.446799 
L 222.705858 475.857492 
L 232.961113 475.153723 
L 241.849001 474.336271 
L 250.053205 473.365765 
L 257.573726 472.253917 
L 264.410563 471.023832 
L 270.563716 469.70938 
L 276.716869 468.1706 
L 282.186338 466.591098 
L 287.655808 464.789898 
L 293.125277 462.744386 
L 297.911063 460.735722 
L 302.696849 458.505937 
L 307.482635 456.03869 
L 312.26842 453.317577 
L 317.054206 450.326315 
L 321.839992 447.048948 
L 326.625778 443.470069 
L 331.411564 439.575073 
L 336.197349 435.350412 
L 340.983135 430.783881 
L 345.768921 425.864904 
L 350.554707 420.584834 
L 355.340492 414.937258 
L 360.126278 408.918294 
L 364.912064 402.526894 
L 369.69785 395.76512 
L 374.483636 388.638419 
L 379.953105 380.058572 
L 385.422575 371.033742 
L 390.892044 361.59049 
L 397.045197 350.50889 
L 403.882034 337.697141 
L 411.402555 323.111337 
L 420.974126 304.039767 
L 442.16832 261.629863 
L 449.005157 248.500659 
L 455.15831 237.160092 
L 460.62778 227.56549 
L 465.413566 219.618174 
L 469.515668 213.185046 
L 473.61777 207.138728 
L 477.719872 201.512778 
L 481.13829 197.168544 
L 484.556709 193.155526 
L 487.975127 189.48981 
L 491.393546 186.186228 
L 494.12828 183.813205 
L 496.863015 181.686842 
L 499.59775 179.812759 
L 502.332484 178.195933 
L 505.067219 176.840673 
L 507.801954 175.750605 
L 510.536689 174.928652 
L 513.271423 174.377023 
L 516.006158 174.097204 
L 518.740893 174.089948 
L 521.475628 174.355275 
L 524.210362 174.89247 
L 526.945097 175.700086 
L 529.679832 176.775954 
L 532.414567 178.117186 
L 535.149301 179.720195 
L 537.884036 181.580708 
L 540.618771 183.693781 
L 543.353506 186.05383 
L 546.771924 189.341685 
L 550.190342 192.992277 
L 553.608761 196.990828 
L 557.027179 201.321305 
L 561.129281 206.931747 
L 565.231383 212.963715 
L 569.333485 219.383712 
L 574.119271 227.317314 
L 578.905057 235.673609 
L 584.374527 245.665141 
L 590.52768 257.361055 
L 598.0482 272.1307 
L 611.03819 298.238984 
L 623.344496 322.824928 
L 631.548701 338.722584 
L 638.385538 351.496085 
L 644.538691 362.537296 
L 650.00816 371.940755 
L 655.47763 380.922867 
L 660.947099 389.457758 
L 665.732885 396.543808 
L 670.518671 403.264141 
L 675.304456 409.613704 
L 680.090242 415.590799 
L 684.876028 421.196807 
L 689.661814 426.435909 
L 694.4476 431.314784 
L 699.233385 435.842312 
L 704.019171 440.029267 
L 708.804957 443.888019 
L 713.590743 447.432247 
L 718.376529 450.676662 
L 723.162314 453.636741 
L 727.9481 456.328491 
L 732.733886 458.768217 
L 737.519672 460.972325 
L 742.305457 462.957138 
L 747.774927 464.977583 
L 753.244396 466.755982 
L 758.713866 468.314856 
L 764.867019 469.832888 
L 771.020172 471.129032 
L 777.857009 472.34141 
L 785.37753 473.436685 
L 793.581734 474.392184 
L 802.469622 475.196504 
L 812.724877 475.888499 
L 824.347499 476.441139 
L 838.704857 476.883383 
L 856.480633 477.194495 
L 857.848 477.210985 
L 857.848 477.210985 
" style="fill:none;stroke:#404040;stroke-linecap:square;stroke-width:1.5;"/>
   </g>
   <g id="line2d_26">
    <path clip-path="url(#p542229ed82)" d="M 174.848 428.781633 
L 182.368521 426.32176 
L 189.889041 423.638611 
L 197.409562 420.720351 
L 204.930082 417.555595 
L 212.450603 414.13357 
L 219.287439 410.79097 
L 226.124276 407.220679 
L 232.961113 403.416667 
L 239.79795 399.37381 
L 246.634787 395.088006 
L 253.471624 390.556303 
L 260.30846 385.777019 
L 267.828981 380.233544 
L 275.349502 374.391888 
L 282.870022 368.256139 
L 290.390543 361.832918 
L 297.911063 355.131512 
L 306.115267 347.517889 
L 314.319471 339.607224 
L 323.207359 330.729799 
L 332.778931 320.852092 
L 343.71787 309.226177 
L 356.70786 295.073959 
L 402.514667 244.8286 
L 412.086238 234.849057 
L 420.290442 226.599342 
L 427.810963 219.336779 
L 434.6478 213.021956 
L 441.484637 207.014875 
L 447.63779 201.897956 
L 453.790943 197.078449 
L 459.260412 193.061409 
L 464.729882 189.310488 
L 470.199351 185.839127 
L 475.668821 182.659888 
L 480.454607 180.126832 
L 485.240392 177.833464 
L 490.026178 175.786282 
L 494.811964 173.991116 
L 499.59775 172.453105 
L 504.383536 171.176669 
L 508.485638 170.293584 
L 512.58774 169.607268 
L 516.689842 169.119183 
L 520.791944 168.830368 
L 524.894046 168.74144 
L 528.996148 168.852589 
L 533.09825 169.163577 
L 537.200352 169.673741 
L 541.302454 170.381994 
L 545.404557 171.286829 
L 550.190342 172.58834 
L 554.976128 174.151037 
L 559.761914 175.97043 
L 564.5477 178.041314 
L 569.333485 180.357794 
L 574.119271 182.913309 
L 578.905057 185.700668 
L 584.374527 189.160095 
L 589.843996 192.899624 
L 595.313465 196.90585 
L 601.466619 201.713919 
L 607.619772 206.82021 
L 613.772925 212.202416 
L 620.609762 218.478078 
L 628.130282 225.702676 
L 636.334486 233.917192 
L 645.222374 243.142333 
L 655.47763 254.112833 
L 669.151303 269.095682 
L 704.702855 308.243566 
L 716.325477 320.613168 
L 726.580733 331.192186 
L 735.468621 340.053992 
L 744.356509 348.593473 
L 752.560713 356.164201 
L 760.764917 363.4159 
L 768.285437 369.770185 
L 775.805958 375.835153 
L 783.326478 381.60481 
L 790.846999 387.075659 
L 797.683836 391.788837 
L 804.520673 396.254752 
L 811.35751 400.475437 
L 818.194346 404.454161 
L 825.031183 408.195311 
L 831.86802 411.704264 
L 839.388541 415.303408 
L 846.909061 418.638529 
L 854.429582 421.719893 
L 857.848 423.039579 
L 857.848 423.039579 
" style="fill:none;stroke:#ff0000;stroke-linecap:square;stroke-width:1.5;"/>
   </g>
   <g id="line2d_27">
    <g clip-path="url(#p542229ed82)">
     <use style="fill:#0000ff;stroke:#0000ff;" x="174.848" xlink:href="#mc15b06f3a0" y="422.607335"/>
     <use style="fill:#0000ff;stroke:#0000ff;" x="190.196315" xlink:href="#mc15b06f3a0" y="419.620078"/>
     <use style="fill:#0000ff;stroke:#0000ff;" x="197.870472" xlink:href="#mc15b06f3a0" y="417.379634"/>
     <use style="fill:#0000ff;stroke:#0000ff;" x="205.544629" xlink:href="#mc15b06f3a0" y="421.860521"/>
     <use style="fill:#0000ff;stroke:#0000ff;" x="213.218787" xlink:href="#mc15b06f3a0" y="410.658305"/>
     <use style="fill:#0000ff;stroke:#0000ff;" x="220.892944" xlink:href="#mc15b06f3a0" y="419.24667"/>
     <use style="fill:#0000ff;stroke:#0000ff;" x="228.567101" xlink:href="#mc15b06f3a0" y="389.374094"/>
     <use style="fill:#0000ff;stroke:#0000ff;" x="236.241258" xlink:href="#mc15b06f3a0" y="400.949717"/>
     <use style="fill:#0000ff;stroke:#0000ff;" x="243.915416" xlink:href="#mc15b06f3a0" y="383.399579"/>
     <use style="fill:#0000ff;stroke:#0000ff;" x="251.589573" xlink:href="#mc15b06f3a0" y="386.760244"/>
     <use style="fill:#0000ff;stroke:#0000ff;" x="259.26373" xlink:href="#mc15b06f3a0" y="381.159136"/>
     <use style="fill:#0000ff;stroke:#0000ff;" x="266.937888" xlink:href="#mc15b06f3a0" y="377.051657"/>
     <use style="fill:#0000ff;stroke:#0000ff;" x="274.612045" xlink:href="#mc15b06f3a0" y="374.064399"/>
     <use style="fill:#0000ff;stroke:#0000ff;" x="282.286202" xlink:href="#mc15b06f3a0" y="370.330327"/>
     <use style="fill:#0000ff;stroke:#0000ff;" x="289.96036" xlink:href="#mc15b06f3a0" y="360.995147"/>
     <use style="fill:#0000ff;stroke:#0000ff;" x="297.634517" xlink:href="#mc15b06f3a0" y="353.90041"/>
     <use style="fill:#0000ff;stroke:#0000ff;" x="305.308674" xlink:href="#mc15b06f3a0" y="346.432266"/>
     <use style="fill:#0000ff;stroke:#0000ff;" x="312.982831" xlink:href="#mc15b06f3a0" y="324.027834"/>
     <use style="fill:#0000ff;stroke:#0000ff;" x="320.656989" xlink:href="#mc15b06f3a0" y="338.217307"/>
     <use style="fill:#0000ff;stroke:#0000ff;" x="328.331146" xlink:href="#mc15b06f3a0" y="334.109828"/>
     <use style="fill:#0000ff;stroke:#0000ff;" x="336.005303" xlink:href="#mc15b06f3a0" y="312.825618"/>
     <use style="fill:#0000ff;stroke:#0000ff;" x="343.679461" xlink:href="#mc15b06f3a0" y="306.477695"/>
     <use style="fill:#0000ff;stroke:#0000ff;" x="351.353618" xlink:href="#mc15b06f3a0" y="306.104288"/>
     <use style="fill:#0000ff;stroke:#0000ff;" x="359.027775" xlink:href="#mc15b06f3a0" y="292.288222"/>
     <use style="fill:#0000ff;stroke:#0000ff;" x="366.701933" xlink:href="#mc15b06f3a0" y="289.674371"/>
     <use style="fill:#0000ff;stroke:#0000ff;" x="374.37609" xlink:href="#mc15b06f3a0" y="264.656089"/>
     <use style="fill:#0000ff;stroke:#0000ff;" x="382.050247" xlink:href="#mc15b06f3a0" y="272.49764"/>
     <use style="fill:#0000ff;stroke:#0000ff;" x="389.724404" xlink:href="#mc15b06f3a0" y="256.814537"/>
     <use style="fill:#0000ff;stroke:#0000ff;" x="397.398562" xlink:href="#mc15b06f3a0" y="253.82728"/>
     <use style="fill:#0000ff;stroke:#0000ff;" x="405.072719" xlink:href="#mc15b06f3a0" y="253.453873"/>
     <use style="fill:#0000ff;stroke:#0000ff;" x="412.746876" xlink:href="#mc15b06f3a0" y="267.643346"/>
     <use style="fill:#0000ff;stroke:#0000ff;" x="420.421034" xlink:href="#mc15b06f3a0" y="223.954704"/>
     <use style="fill:#0000ff;stroke:#0000ff;" x="428.095191" xlink:href="#mc15b06f3a0" y="244.118693"/>
     <use style="fill:#0000ff;stroke:#0000ff;" x="435.769348" xlink:href="#mc15b06f3a0" y="212.752488"/>
     <use style="fill:#0000ff;stroke:#0000ff;" x="443.443506" xlink:href="#mc15b06f3a0" y="218.727003"/>
     <use style="fill:#0000ff;stroke:#0000ff;" x="451.117663" xlink:href="#mc15b06f3a0" y="203.790715"/>
     <use style="fill:#0000ff;stroke:#0000ff;" x="458.79182" xlink:href="#mc15b06f3a0" y="189.601241"/>
     <use style="fill:#0000ff;stroke:#0000ff;" x="466.465978" xlink:href="#mc15b06f3a0" y="189.601241"/>
     <use style="fill:#0000ff;stroke:#0000ff;" x="474.140135" xlink:href="#mc15b06f3a0" y="167.196809"/>
     <use style="fill:#0000ff;stroke:#0000ff;" x="481.814292" xlink:href="#mc15b06f3a0" y="187.734205"/>
     <use style="fill:#0000ff;stroke:#0000ff;" x="489.488449" xlink:href="#mc15b06f3a0" y="176.158582"/>
     <use style="fill:#0000ff;stroke:#0000ff;" x="497.162607" xlink:href="#mc15b06f3a0" y="193.70872"/>
     <use style="fill:#0000ff;stroke:#0000ff;" x="504.836764" xlink:href="#mc15b06f3a0" y="173.544731"/>
     <use style="fill:#0000ff;stroke:#0000ff;" x="512.510921" xlink:href="#mc15b06f3a0" y="167.196809"/>
     <use style="fill:#0000ff;stroke:#0000ff;" x="520.185079" xlink:href="#mc15b06f3a0" y="159.355258"/>
     <use style="fill:#0000ff;stroke:#0000ff;" x="527.859236" xlink:href="#mc15b06f3a0" y="161.969108"/>
     <use style="fill:#0000ff;stroke:#0000ff;" x="535.533393" xlink:href="#mc15b06f3a0" y="167.943623"/>
     <use style="fill:#0000ff;stroke:#0000ff;" x="543.207551" xlink:href="#mc15b06f3a0" y="156.368"/>
     <use style="fill:#0000ff;stroke:#0000ff;" x="550.881708" xlink:href="#mc15b06f3a0" y="166.449994"/>
     <use style="fill:#0000ff;stroke:#0000ff;" x="558.555865" xlink:href="#mc15b06f3a0" y="165.329773"/>
     <use style="fill:#0000ff;stroke:#0000ff;" x="566.230022" xlink:href="#mc15b06f3a0" y="171.304288"/>
     <use style="fill:#0000ff;stroke:#0000ff;" x="573.90418" xlink:href="#mc15b06f3a0" y="172.051102"/>
     <use style="fill:#0000ff;stroke:#0000ff;" x="581.578337" xlink:href="#mc15b06f3a0" y="194.455535"/>
     <use style="fill:#0000ff;stroke:#0000ff;" x="589.252494" xlink:href="#mc15b06f3a0" y="190.348055"/>
     <use style="fill:#0000ff;stroke:#0000ff;" x="596.926652" xlink:href="#mc15b06f3a0" y="188.854427"/>
     <use style="fill:#0000ff;stroke:#0000ff;" x="604.600809" xlink:href="#mc15b06f3a0" y="207.524787"/>
     <use style="fill:#0000ff;stroke:#0000ff;" x="612.274966" xlink:href="#mc15b06f3a0" y="202.297086"/>
     <use style="fill:#0000ff;stroke:#0000ff;" x="619.949124" xlink:href="#mc15b06f3a0" y="212.005673"/>
     <use style="fill:#0000ff;stroke:#0000ff;" x="627.623281" xlink:href="#mc15b06f3a0" y="227.688776"/>
     <use style="fill:#0000ff;stroke:#0000ff;" x="635.297438" xlink:href="#mc15b06f3a0" y="222.834482"/>
     <use style="fill:#0000ff;stroke:#0000ff;" x="642.971596" xlink:href="#mc15b06f3a0" y="229.929219"/>
     <use style="fill:#0000ff;stroke:#0000ff;" x="650.645753" xlink:href="#mc15b06f3a0" y="241.504842"/>
     <use style="fill:#0000ff;stroke:#0000ff;" x="658.31991" xlink:href="#mc15b06f3a0" y="271.377418"/>
     <use style="fill:#0000ff;stroke:#0000ff;" x="665.994067" xlink:href="#mc15b06f3a0" y="268.016753"/>
     <use style="fill:#0000ff;stroke:#0000ff;" x="673.668225" xlink:href="#mc15b06f3a0" y="276.231712"/>
     <use style="fill:#0000ff;stroke:#0000ff;" x="681.342382" xlink:href="#mc15b06f3a0" y="266.523125"/>
     <use style="fill:#0000ff;stroke:#0000ff;" x="689.016539" xlink:href="#mc15b06f3a0" y="295.275479"/>
     <use style="fill:#0000ff;stroke:#0000ff;" x="696.690697" xlink:href="#mc15b06f3a0" y="298.262737"/>
     <use style="fill:#0000ff;stroke:#0000ff;" x="704.364854" xlink:href="#mc15b06f3a0" y="303.863845"/>
     <use style="fill:#0000ff;stroke:#0000ff;" x="712.039011" xlink:href="#mc15b06f3a0" y="320.293762"/>
     <use style="fill:#0000ff;stroke:#0000ff;" x="719.713169" xlink:href="#mc15b06f3a0" y="324.774648"/>
     <use style="fill:#0000ff;stroke:#0000ff;" x="727.387326" xlink:href="#mc15b06f3a0" y="330.749163"/>
     <use style="fill:#0000ff;stroke:#0000ff;" x="735.061483" xlink:href="#mc15b06f3a0" y="328.50872"/>
     <use style="fill:#0000ff;stroke:#0000ff;" x="742.73564" xlink:href="#mc15b06f3a0" y="350.539745"/>
     <use style="fill:#0000ff;stroke:#0000ff;" x="750.409798" xlink:href="#mc15b06f3a0" y="359.501518"/>
     <use style="fill:#0000ff;stroke:#0000ff;" x="758.083955" xlink:href="#mc15b06f3a0" y="362.862183"/>
     <use style="fill:#0000ff;stroke:#0000ff;" x="765.758112" xlink:href="#mc15b06f3a0" y="361.368554"/>
     <use style="fill:#0000ff;stroke:#0000ff;" x="773.43227" xlink:href="#mc15b06f3a0" y="373.690992"/>
     <use style="fill:#0000ff;stroke:#0000ff;" x="781.106427" xlink:href="#mc15b06f3a0" y="372.944177"/>
     <use style="fill:#0000ff;stroke:#0000ff;" x="788.780584" xlink:href="#mc15b06f3a0" y="388.62728"/>
     <use style="fill:#0000ff;stroke:#0000ff;" x="796.454742" xlink:href="#mc15b06f3a0" y="393.481573"/>
     <use style="fill:#0000ff;stroke:#0000ff;" x="804.128899" xlink:href="#mc15b06f3a0" y="403.190161"/>
     <use style="fill:#0000ff;stroke:#0000ff;" x="811.803056" xlink:href="#mc15b06f3a0" y="399.456089"/>
     <use style="fill:#0000ff;stroke:#0000ff;" x="819.477213" xlink:href="#mc15b06f3a0" y="411.031712"/>
     <use style="fill:#0000ff;stroke:#0000ff;" x="827.151371" xlink:href="#mc15b06f3a0" y="407.671047"/>
     <use style="fill:#0000ff;stroke:#0000ff;" x="834.825528" xlink:href="#mc15b06f3a0" y="425.968"/>
     <use style="fill:#0000ff;stroke:#0000ff;" x="842.499685" xlink:href="#mc15b06f3a0" y="425.594593"/>
     <use style="fill:#0000ff;stroke:#0000ff;" x="857.848" xlink:href="#mc15b06f3a0" y="421.860521"/>
    </g>
   </g>
   <g id="patch_8">
    <path d="M 147.528 436.752 
L 147.528 145.584 
" style="fill:none;stroke:#000000;stroke-linecap:square;stroke-linejoin:miter;stroke-width:0.8;"/>
   </g>
   <g id="patch_9">
    <path d="M 885.168 436.752 
L 885.168 145.584 
" style="fill:none;stroke:#000000;stroke-linecap:square;stroke-linejoin:miter;stroke-width:0.8;"/>
   </g>
   <g id="patch_10">
    <path d="M 147.528 436.752 
L 885.168 436.752 
" style="fill:none;stroke:#000000;stroke-linecap:square;stroke-linejoin:miter;stroke-width:0.8;"/>
   </g>
   <g id="patch_11">
    <path d="M 147.528 145.584 
L 885.168 145.584 
" style="fill:none;stroke:#000000;stroke-linecap:square;stroke-linejoin:miter;stroke-width:0.8;"/>
   </g>
  </g>
 </g>
 <defs>
  <clipPath id="pa8591ca607">
   <rect height="72.792" width="737.64" x="147.528" y="63.0864"/>
  </clipPath>
  <clipPath id="p542229ed82">
   <rect height="291.168" width="737.64" x="147.528" y="145.584"/>
  </clipPath>
 </defs>
</svg>
