<?xml version="1.0" encoding="utf-8" standalone="no"?>
<!DOCTYPE svg PUBLIC "-//W3C//DTD SVG 1.1//EN"
  "http://www.w3.org/Graphics/SVG/1.1/DTD/svg11.dtd">
<!-- Created with matplotlib (http://matplotlib.org/) -->
<svg height="485pt" version="1.1" viewBox="0 0 983 485" width="983pt" xmlns="http://www.w3.org/2000/svg" xmlns:xlink="http://www.w3.org/1999/xlink">
 <defs>
  <style type="text/css">
*{stroke-linecap:butt;stroke-linejoin:round;}
  </style>
 </defs>
 <g id="figure_1">
  <g id="patch_1">
   <path d="M 0 485.28 
L 983.52 485.28 
L 983.52 0 
L 0 0 
z
" style="fill:#ffffff;"/>
  </g>
  <g id="axes_1">
   <g id="patch_2">
    <path d="M 147.528 135.8784 
L 885.168 135.8784 
L 885.168 63.0864 
L 147.528 63.0864 
z
" style="fill:#ffffff;"/>
   </g>
   <g id="matplotlib.axis_1">
    <g id="xtick_1">
     <g id="line2d_1">
      <defs>
       <path d="M 0 0 
L 0 3.5 
" id="m481f16bed0" style="stroke:#000000;stroke-width:0.8;"/>
      </defs>
      <g>
       <use style="stroke:#000000;stroke-width:0.8;" x="158.253827" xlink:href="#m481f16bed0" y="135.8784"/>
      </g>
     </g>
    </g>
    <g id="xtick_2">
     <g id="line2d_2">
      <g>
       <use style="stroke:#000000;stroke-width:0.8;" x="284.422273" xlink:href="#m481f16bed0" y="135.8784"/>
      </g>
     </g>
    </g>
    <g id="xtick_3">
     <g id="line2d_3">
      <g>
       <use style="stroke:#000000;stroke-width:0.8;" x="410.590719" xlink:href="#m481f16bed0" y="135.8784"/>
      </g>
     </g>
    </g>
    <g id="xtick_4">
     <g id="line2d_4">
      <g>
       <use style="stroke:#000000;stroke-width:0.8;" x="536.759165" xlink:href="#m481f16bed0" y="135.8784"/>
      </g>
     </g>
    </g>
    <g id="xtick_5">
     <g id="line2d_5">
      <g>
       <use style="stroke:#000000;stroke-width:0.8;" x="662.927611" xlink:href="#m481f16bed0" y="135.8784"/>
      </g>
     </g>
    </g>
    <g id="xtick_6">
     <g id="line2d_6">
      <g>
       <use style="stroke:#000000;stroke-width:0.8;" x="789.096057" xlink:href="#m481f16bed0" y="135.8784"/>
      </g>
     </g>
    </g>
   </g>
   <g id="matplotlib.axis_2">
    <g id="ytick_1">
     <g id="line2d_7">
      <defs>
       <path d="M 0 0 
L -3.5 0 
" id="mb2c2ea578d" style="stroke:#000000;stroke-width:0.8;"/>
      </defs>
      <g>
       <use style="stroke:#000000;stroke-width:0.8;" x="147.528" xlink:href="#mb2c2ea578d" y="117.508422"/>
      </g>
     </g>
     <g id="text_1">
      <!-- −1 -->
      <defs>
       <path d="M 10.59375 35.5 
L 73.1875 35.5 
L 73.1875 27.203125 
L 10.59375 27.203125 
z
" id="DejaVuSans-2212"/>
       <path d="M 12.40625 8.296875 
L 28.515625 8.296875 
L 28.515625 63.921875 
L 10.984375 60.40625 
L 10.984375 69.390625 
L 28.421875 72.90625 
L 38.28125 72.90625 
L 38.28125 8.296875 
L 54.390625 8.296875 
L 54.390625 0 
L 12.40625 0 
z
" id="DejaVuSans-31"/>
      </defs>
      <g transform="translate(122.837375 122.067484)scale(0.12 -0.12)">
       <use xlink:href="#DejaVuSans-2212"/>
       <use x="83.789062" xlink:href="#DejaVuSans-31"/>
      </g>
     </g>
    </g>
    <g id="ytick_2">
     <g id="line2d_8">
      <g>
       <use style="stroke:#000000;stroke-width:0.8;" x="147.528" xlink:href="#mb2c2ea578d" y="96.499489"/>
      </g>
     </g>
    </g>
    <g id="ytick_3">
     <g id="line2d_9">
      <g>
       <use style="stroke:#000000;stroke-width:0.8;" x="147.528" xlink:href="#mb2c2ea578d" y="75.490555"/>
      </g>
     </g>
     <g id="text_2">
      <!-- 1 -->
      <g transform="translate(132.893 80.049618)scale(0.12 -0.12)">
       <use xlink:href="#DejaVuSans-31"/>
      </g>
     </g>
    </g>
    <g id="text_3">
     <!-- Studentized -->
     <defs>
      <path d="M 53.515625 70.515625 
L 53.515625 60.890625 
Q 47.90625 63.578125 42.921875 64.890625 
Q 37.9375 66.21875 33.296875 66.21875 
Q 25.25 66.21875 20.875 63.09375 
Q 16.5 59.96875 16.5 54.203125 
Q 16.5 49.359375 19.40625 46.890625 
Q 22.3125 44.4375 30.421875 42.921875 
L 36.375 41.703125 
Q 47.40625 39.59375 52.65625 34.296875 
Q 57.90625 29 57.90625 20.125 
Q 57.90625 9.515625 50.796875 4.046875 
Q 43.703125 -1.421875 29.984375 -1.421875 
Q 24.8125 -1.421875 18.96875 -0.25 
Q 13.140625 0.921875 6.890625 3.21875 
L 6.890625 13.375 
Q 12.890625 10.015625 18.65625 8.296875 
Q 24.421875 6.59375 29.984375 6.59375 
Q 38.421875 6.59375 43.015625 9.90625 
Q 47.609375 13.234375 47.609375 19.390625 
Q 47.609375 24.75 44.3125 27.78125 
Q 41.015625 30.8125 33.5 32.328125 
L 27.484375 33.5 
Q 16.453125 35.6875 11.515625 40.375 
Q 6.59375 45.0625 6.59375 53.421875 
Q 6.59375 63.09375 13.40625 68.65625 
Q 20.21875 74.21875 32.171875 74.21875 
Q 37.3125 74.21875 42.625 73.28125 
Q 47.953125 72.359375 53.515625 70.515625 
z
" id="DejaVuSans-53"/>
      <path d="M 18.3125 70.21875 
L 18.3125 54.6875 
L 36.8125 54.6875 
L 36.8125 47.703125 
L 18.3125 47.703125 
L 18.3125 18.015625 
Q 18.3125 11.328125 20.140625 9.421875 
Q 21.96875 7.515625 27.59375 7.515625 
L 36.8125 7.515625 
L 36.8125 0 
L 27.59375 0 
Q 17.1875 0 13.234375 3.875 
Q 9.28125 7.765625 9.28125 18.015625 
L 9.28125 47.703125 
L 2.6875 47.703125 
L 2.6875 54.6875 
L 9.28125 54.6875 
L 9.28125 70.21875 
z
" id="DejaVuSans-74"/>
      <path d="M 8.5 21.578125 
L 8.5 54.6875 
L 17.484375 54.6875 
L 17.484375 21.921875 
Q 17.484375 14.15625 20.5 10.265625 
Q 23.53125 6.390625 29.59375 6.390625 
Q 36.859375 6.390625 41.078125 11.03125 
Q 45.3125 15.671875 45.3125 23.6875 
L 45.3125 54.6875 
L 54.296875 54.6875 
L 54.296875 0 
L 45.3125 0 
L 45.3125 8.40625 
Q 42.046875 3.421875 37.71875 1 
Q 33.40625 -1.421875 27.6875 -1.421875 
Q 18.265625 -1.421875 13.375 4.4375 
Q 8.5 10.296875 8.5 21.578125 
z
M 31.109375 56 
z
" id="DejaVuSans-75"/>
      <path d="M 45.40625 46.390625 
L 45.40625 75.984375 
L 54.390625 75.984375 
L 54.390625 0 
L 45.40625 0 
L 45.40625 8.203125 
Q 42.578125 3.328125 38.25 0.953125 
Q 33.9375 -1.421875 27.875 -1.421875 
Q 17.96875 -1.421875 11.734375 6.484375 
Q 5.515625 14.40625 5.515625 27.296875 
Q 5.515625 40.1875 11.734375 48.09375 
Q 17.96875 56 27.875 56 
Q 33.9375 56 38.25 53.625 
Q 42.578125 51.265625 45.40625 46.390625 
z
M 14.796875 27.296875 
Q 14.796875 17.390625 18.875 11.75 
Q 22.953125 6.109375 30.078125 6.109375 
Q 37.203125 6.109375 41.296875 11.75 
Q 45.40625 17.390625 45.40625 27.296875 
Q 45.40625 37.203125 41.296875 42.84375 
Q 37.203125 48.484375 30.078125 48.484375 
Q 22.953125 48.484375 18.875 42.84375 
Q 14.796875 37.203125 14.796875 27.296875 
z
" id="DejaVuSans-64"/>
      <path d="M 56.203125 29.59375 
L 56.203125 25.203125 
L 14.890625 25.203125 
Q 15.484375 15.921875 20.484375 11.0625 
Q 25.484375 6.203125 34.421875 6.203125 
Q 39.59375 6.203125 44.453125 7.46875 
Q 49.3125 8.734375 54.109375 11.28125 
L 54.109375 2.78125 
Q 49.265625 0.734375 44.1875 -0.34375 
Q 39.109375 -1.421875 33.890625 -1.421875 
Q 20.796875 -1.421875 13.15625 6.1875 
Q 5.515625 13.8125 5.515625 26.8125 
Q 5.515625 40.234375 12.765625 48.109375 
Q 20.015625 56 32.328125 56 
Q 43.359375 56 49.78125 48.890625 
Q 56.203125 41.796875 56.203125 29.59375 
z
M 47.21875 32.234375 
Q 47.125 39.59375 43.09375 43.984375 
Q 39.0625 48.390625 32.421875 48.390625 
Q 24.90625 48.390625 20.390625 44.140625 
Q 15.875 39.890625 15.1875 32.171875 
z
" id="DejaVuSans-65"/>
      <path d="M 54.890625 33.015625 
L 54.890625 0 
L 45.90625 0 
L 45.90625 32.71875 
Q 45.90625 40.484375 42.875 44.328125 
Q 39.84375 48.1875 33.796875 48.1875 
Q 26.515625 48.1875 22.3125 43.546875 
Q 18.109375 38.921875 18.109375 30.90625 
L 18.109375 0 
L 9.078125 0 
L 9.078125 54.6875 
L 18.109375 54.6875 
L 18.109375 46.1875 
Q 21.34375 51.125 25.703125 53.5625 
Q 30.078125 56 35.796875 56 
Q 45.21875 56 50.046875 50.171875 
Q 54.890625 44.34375 54.890625 33.015625 
z
" id="DejaVuSans-6e"/>
      <path d="M 9.421875 54.6875 
L 18.40625 54.6875 
L 18.40625 0 
L 9.421875 0 
z
M 9.421875 75.984375 
L 18.40625 75.984375 
L 18.40625 64.59375 
L 9.421875 64.59375 
z
" id="DejaVuSans-69"/>
      <path d="M 5.515625 54.6875 
L 48.1875 54.6875 
L 48.1875 46.484375 
L 14.40625 7.171875 
L 48.1875 7.171875 
L 48.1875 0 
L 4.296875 0 
L 4.296875 8.203125 
L 38.09375 47.515625 
L 5.515625 47.515625 
z
" id="DejaVuSans-7a"/>
     </defs>
     <g transform="translate(102.904375 135.41865)rotate(-90)scale(0.12 -0.12)">
      <use xlink:href="#DejaVuSans-53"/>
      <use x="63.476562" xlink:href="#DejaVuSans-74"/>
      <use x="102.685547" xlink:href="#DejaVuSans-75"/>
      <use x="166.064453" xlink:href="#DejaVuSans-64"/>
      <use x="229.541016" xlink:href="#DejaVuSans-65"/>
      <use x="291.064453" xlink:href="#DejaVuSans-6e"/>
      <use x="354.443359" xlink:href="#DejaVuSans-74"/>
      <use x="393.652344" xlink:href="#DejaVuSans-69"/>
      <use x="421.435547" xlink:href="#DejaVuSans-7a"/>
      <use x="473.925781" xlink:href="#DejaVuSans-65"/>
      <use x="535.449219" xlink:href="#DejaVuSans-64"/>
     </g>
     <!-- Residuals -->
     <defs>
      <path d="M 44.390625 34.1875 
Q 47.5625 33.109375 50.5625 29.59375 
Q 53.5625 26.078125 56.59375 19.921875 
L 66.609375 0 
L 56 0 
L 46.6875 18.703125 
Q 43.0625 26.03125 39.671875 28.421875 
Q 36.28125 30.8125 30.421875 30.8125 
L 19.671875 30.8125 
L 19.671875 0 
L 9.8125 0 
L 9.8125 72.90625 
L 32.078125 72.90625 
Q 44.578125 72.90625 50.734375 67.671875 
Q 56.890625 62.453125 56.890625 51.90625 
Q 56.890625 45.015625 53.6875 40.46875 
Q 50.484375 35.9375 44.390625 34.1875 
z
M 19.671875 64.796875 
L 19.671875 38.921875 
L 32.078125 38.921875 
Q 39.203125 38.921875 42.84375 42.21875 
Q 46.484375 45.515625 46.484375 51.90625 
Q 46.484375 58.296875 42.84375 61.546875 
Q 39.203125 64.796875 32.078125 64.796875 
z
" id="DejaVuSans-52"/>
      <path d="M 44.28125 53.078125 
L 44.28125 44.578125 
Q 40.484375 46.53125 36.375 47.5 
Q 32.28125 48.484375 27.875 48.484375 
Q 21.1875 48.484375 17.84375 46.4375 
Q 14.5 44.390625 14.5 40.28125 
Q 14.5 37.15625 16.890625 35.375 
Q 19.28125 33.59375 26.515625 31.984375 
L 29.59375 31.296875 
Q 39.15625 29.25 43.1875 25.515625 
Q 47.21875 21.78125 47.21875 15.09375 
Q 47.21875 7.46875 41.1875 3.015625 
Q 35.15625 -1.421875 24.609375 -1.421875 
Q 20.21875 -1.421875 15.453125 -0.5625 
Q 10.6875 0.296875 5.421875 2 
L 5.421875 11.28125 
Q 10.40625 8.6875 15.234375 7.390625 
Q 20.0625 6.109375 24.8125 6.109375 
Q 31.15625 6.109375 34.5625 8.28125 
Q 37.984375 10.453125 37.984375 14.40625 
Q 37.984375 18.0625 35.515625 20.015625 
Q 33.0625 21.96875 24.703125 23.78125 
L 21.578125 24.515625 
Q 13.234375 26.265625 9.515625 29.90625 
Q 5.8125 33.546875 5.8125 39.890625 
Q 5.8125 47.609375 11.28125 51.796875 
Q 16.75 56 26.8125 56 
Q 31.78125 56 36.171875 55.265625 
Q 40.578125 54.546875 44.28125 53.078125 
z
" id="DejaVuSans-73"/>
      <path d="M 34.28125 27.484375 
Q 23.390625 27.484375 19.1875 25 
Q 14.984375 22.515625 14.984375 16.5 
Q 14.984375 11.71875 18.140625 8.90625 
Q 21.296875 6.109375 26.703125 6.109375 
Q 34.1875 6.109375 38.703125 11.40625 
Q 43.21875 16.703125 43.21875 25.484375 
L 43.21875 27.484375 
z
M 52.203125 31.203125 
L 52.203125 0 
L 43.21875 0 
L 43.21875 8.296875 
Q 40.140625 3.328125 35.546875 0.953125 
Q 30.953125 -1.421875 24.3125 -1.421875 
Q 15.921875 -1.421875 10.953125 3.296875 
Q 6 8.015625 6 15.921875 
Q 6 25.140625 12.171875 29.828125 
Q 18.359375 34.515625 30.609375 34.515625 
L 43.21875 34.515625 
L 43.21875 35.40625 
Q 43.21875 41.609375 39.140625 45 
Q 35.0625 48.390625 27.6875 48.390625 
Q 23 48.390625 18.546875 47.265625 
Q 14.109375 46.140625 10.015625 43.890625 
L 10.015625 52.203125 
Q 14.9375 54.109375 19.578125 55.046875 
Q 24.21875 56 28.609375 56 
Q 40.484375 56 46.34375 49.84375 
Q 52.203125 43.703125 52.203125 31.203125 
z
" id="DejaVuSans-61"/>
      <path d="M 9.421875 75.984375 
L 18.40625 75.984375 
L 18.40625 0 
L 9.421875 0 
z
" id="DejaVuSans-6c"/>
     </defs>
     <g transform="translate(116.34175 128.213025)rotate(-90)scale(0.12 -0.12)">
      <use xlink:href="#DejaVuSans-52"/>
      <use x="69.419922" xlink:href="#DejaVuSans-65"/>
      <use x="130.943359" xlink:href="#DejaVuSans-73"/>
      <use x="183.042969" xlink:href="#DejaVuSans-69"/>
      <use x="210.826172" xlink:href="#DejaVuSans-64"/>
      <use x="274.302734" xlink:href="#DejaVuSans-75"/>
      <use x="337.681641" xlink:href="#DejaVuSans-61"/>
      <use x="398.960938" xlink:href="#DejaVuSans-6c"/>
      <use x="426.744141" xlink:href="#DejaVuSans-73"/>
     </g>
    </g>
   </g>
   <g id="LineCollection_1">
    <path clip-path="url(#paa3d7b5800)" d="M 174.848 99.039111 
L 174.848 57.021245 
" style="fill:none;stroke:#0000ff;stroke-width:1.5;"/>
    <path clip-path="url(#paa3d7b5800)" d="M 182.353495 116.224846 
L 182.353495 74.206979 
" style="fill:none;stroke:#0000ff;stroke-width:1.5;"/>
    <path clip-path="url(#paa3d7b5800)" d="M 197.364484 124.723371 
L 197.364484 82.705504 
" style="fill:none;stroke:#0000ff;stroke-width:1.5;"/>
    <path clip-path="url(#paa3d7b5800)" d="M 204.869978 112.794372 
L 204.869978 70.776506 
" style="fill:none;stroke:#0000ff;stroke-width:1.5;"/>
    <path clip-path="url(#paa3d7b5800)" d="M 212.375473 100.877206 
L 212.375473 58.85934 
" style="fill:none;stroke:#0000ff;stroke-width:1.5;"/>
    <path clip-path="url(#paa3d7b5800)" d="M 219.880967 118.544958 
L 219.880967 76.527091 
" style="fill:none;stroke:#0000ff;stroke-width:1.5;"/>
    <path clip-path="url(#paa3d7b5800)" d="M 227.386462 105.289806 
L 227.386462 63.271939 
" style="fill:none;stroke:#0000ff;stroke-width:1.5;"/>
    <path clip-path="url(#paa3d7b5800)" d="M 234.891956 116.275512 
L 234.891956 74.257646 
" style="fill:none;stroke:#0000ff;stroke-width:1.5;"/>
    <path clip-path="url(#paa3d7b5800)" d="M 242.397451 88.71085 
L 242.397451 46.692984 
" style="fill:none;stroke:#0000ff;stroke-width:1.5;"/>
    <path clip-path="url(#paa3d7b5800)" d="M 249.902945 118.40647 
L 249.902945 76.388604 
" style="fill:none;stroke:#0000ff;stroke-width:1.5;"/>
    <path clip-path="url(#paa3d7b5800)" d="M 257.40844 138.271835 
L 257.40844 96.253969 
" style="fill:none;stroke:#0000ff;stroke-width:1.5;"/>
    <path clip-path="url(#paa3d7b5800)" d="M 264.913934 102.318476 
L 264.913934 60.30061 
" style="fill:none;stroke:#0000ff;stroke-width:1.5;"/>
    <path clip-path="url(#paa3d7b5800)" d="M 272.419429 137.736059 
L 272.419429 95.718193 
" style="fill:none;stroke:#0000ff;stroke-width:1.5;"/>
    <path clip-path="url(#paa3d7b5800)" d="M 279.924923 134.334657 
L 279.924923 92.31679 
" style="fill:none;stroke:#0000ff;stroke-width:1.5;"/>
    <path clip-path="url(#paa3d7b5800)" d="M 287.430418 95.835748 
L 287.430418 53.817882 
" style="fill:none;stroke:#0000ff;stroke-width:1.5;"/>
    <path clip-path="url(#paa3d7b5800)" d="M 294.935912 97.611466 
L 294.935912 55.5936 
" style="fill:none;stroke:#0000ff;stroke-width:1.5;"/>
    <path clip-path="url(#paa3d7b5800)" d="M 302.441407 136.793785 
L 302.441407 94.775919 
" style="fill:none;stroke:#0000ff;stroke-width:1.5;"/>
    <path clip-path="url(#paa3d7b5800)" d="M 309.946901 123.102676 
L 309.946901 81.08481 
" style="fill:none;stroke:#0000ff;stroke-width:1.5;"/>
    <path clip-path="url(#paa3d7b5800)" d="M 317.452396 121.767148 
L 317.452396 79.749282 
" style="fill:none;stroke:#0000ff;stroke-width:1.5;"/>
    <path clip-path="url(#paa3d7b5800)" d="M 324.95789 122.398966 
L 324.95789 80.381099 
" style="fill:none;stroke:#0000ff;stroke-width:1.5;"/>
    <path clip-path="url(#paa3d7b5800)" d="M 332.463385 101.397235 
L 332.463385 59.379369 
" style="fill:none;stroke:#0000ff;stroke-width:1.5;"/>
    <path clip-path="url(#paa3d7b5800)" d="M 339.968879 117.405482 
L 339.968879 75.387615 
" style="fill:none;stroke:#0000ff;stroke-width:1.5;"/>
    <path clip-path="url(#paa3d7b5800)" d="M 347.474374 134.381439 
L 347.474374 92.363573 
" style="fill:none;stroke:#0000ff;stroke-width:1.5;"/>
    <path clip-path="url(#paa3d7b5800)" d="M 354.979868 126.556358 
L 354.979868 84.538492 
" style="fill:none;stroke:#0000ff;stroke-width:1.5;"/>
    <path clip-path="url(#paa3d7b5800)" d="M 362.485363 110.886745 
L 362.485363 68.868878 
" style="fill:none;stroke:#0000ff;stroke-width:1.5;"/>
    <path clip-path="url(#paa3d7b5800)" d="M 369.990857 110.690055 
L 369.990857 68.672189 
" style="fill:none;stroke:#0000ff;stroke-width:1.5;"/>
    <path clip-path="url(#paa3d7b5800)" d="M 377.496352 113.530253 
L 377.496352 71.512387 
" style="fill:none;stroke:#0000ff;stroke-width:1.5;"/>
    <path clip-path="url(#paa3d7b5800)" d="M 385.001846 111.88395 
L 385.001846 69.866084 
" style="fill:none;stroke:#0000ff;stroke-width:1.5;"/>
    <path clip-path="url(#paa3d7b5800)" d="M 392.507341 101.907452 
L 392.507341 59.889585 
" style="fill:none;stroke:#0000ff;stroke-width:1.5;"/>
    <path clip-path="url(#paa3d7b5800)" d="M 400.012835 110.472551 
L 400.012835 68.454684 
" style="fill:none;stroke:#0000ff;stroke-width:1.5;"/>
    <path clip-path="url(#paa3d7b5800)" d="M 407.51833 100.865637 
L 407.51833 58.847771 
" style="fill:none;stroke:#0000ff;stroke-width:1.5;"/>
    <path clip-path="url(#paa3d7b5800)" d="M 415.023824 123.929779 
L 415.023824 81.911913 
" style="fill:none;stroke:#0000ff;stroke-width:1.5;"/>
    <path clip-path="url(#paa3d7b5800)" d="M 422.529319 121.750026 
L 422.529319 79.73216 
" style="fill:none;stroke:#0000ff;stroke-width:1.5;"/>
    <path clip-path="url(#paa3d7b5800)" d="M 430.034813 148.304105 
L 430.034813 106.286239 
" style="fill:none;stroke:#0000ff;stroke-width:1.5;"/>
    <path clip-path="url(#paa3d7b5800)" d="M 437.540308 141.048438 
L 437.540308 99.030572 
" style="fill:none;stroke:#0000ff;stroke-width:1.5;"/>
    <path clip-path="url(#paa3d7b5800)" d="M 445.045802 112.405335 
L 445.045802 70.387468 
" style="fill:none;stroke:#0000ff;stroke-width:1.5;"/>
    <path clip-path="url(#paa3d7b5800)" d="M 452.551297 140.717142 
L 452.551297 98.699275 
" style="fill:none;stroke:#0000ff;stroke-width:1.5;"/>
    <path clip-path="url(#paa3d7b5800)" d="M 460.056791 117.166338 
L 460.056791 75.148472 
" style="fill:none;stroke:#0000ff;stroke-width:1.5;"/>
    <path clip-path="url(#paa3d7b5800)" d="M 467.562286 98.076033 
L 467.562286 56.058167 
" style="fill:none;stroke:#0000ff;stroke-width:1.5;"/>
    <path clip-path="url(#paa3d7b5800)" d="M 475.06778 136.654176 
L 475.06778 94.63631 
" style="fill:none;stroke:#0000ff;stroke-width:1.5;"/>
    <path clip-path="url(#paa3d7b5800)" d="M 482.573275 131.163323 
L 482.573275 89.145457 
" style="fill:none;stroke:#0000ff;stroke-width:1.5;"/>
    <path clip-path="url(#paa3d7b5800)" d="M 490.078769 128.680508 
L 490.078769 86.662642 
" style="fill:none;stroke:#0000ff;stroke-width:1.5;"/>
    <path clip-path="url(#paa3d7b5800)" d="M 497.584264 125.339488 
L 497.584264 83.321621 
" style="fill:none;stroke:#0000ff;stroke-width:1.5;"/>
    <path clip-path="url(#paa3d7b5800)" d="M 505.089758 108.222913 
L 505.089758 66.205047 
" style="fill:none;stroke:#0000ff;stroke-width:1.5;"/>
    <path clip-path="url(#paa3d7b5800)" d="M 512.595253 119.196262 
L 512.595253 77.178396 
" style="fill:none;stroke:#0000ff;stroke-width:1.5;"/>
    <path clip-path="url(#paa3d7b5800)" d="M 520.100747 103.590315 
L 520.100747 61.572449 
" style="fill:none;stroke:#0000ff;stroke-width:1.5;"/>
    <path clip-path="url(#paa3d7b5800)" d="M 527.606242 126.149775 
L 527.606242 84.131909 
" style="fill:none;stroke:#0000ff;stroke-width:1.5;"/>
    <path clip-path="url(#paa3d7b5800)" d="M 535.111736 111.509092 
L 535.111736 69.491225 
" style="fill:none;stroke:#0000ff;stroke-width:1.5;"/>
    <path clip-path="url(#paa3d7b5800)" d="M 542.617231 107.989587 
L 542.617231 65.971721 
" style="fill:none;stroke:#0000ff;stroke-width:1.5;"/>
    <path clip-path="url(#paa3d7b5800)" d="M 550.122725 108.690689 
L 550.122725 66.672822 
" style="fill:none;stroke:#0000ff;stroke-width:1.5;"/>
    <path clip-path="url(#paa3d7b5800)" d="M 557.62822 136.240092 
L 557.62822 94.222226 
" style="fill:none;stroke:#0000ff;stroke-width:1.5;"/>
    <path clip-path="url(#paa3d7b5800)" d="M 565.133714 86.791333 
L 565.133714 44.773467 
" style="fill:none;stroke:#0000ff;stroke-width:1.5;"/>
    <path clip-path="url(#paa3d7b5800)" d="M 572.639209 142.542483 
L 572.639209 100.524617 
" style="fill:none;stroke:#0000ff;stroke-width:1.5;"/>
    <path clip-path="url(#paa3d7b5800)" d="M 580.144703 99.363906 
L 580.144703 57.346039 
" style="fill:none;stroke:#0000ff;stroke-width:1.5;"/>
    <path clip-path="url(#paa3d7b5800)" d="M 587.650198 107.974489 
L 587.650198 65.956623 
" style="fill:none;stroke:#0000ff;stroke-width:1.5;"/>
    <path clip-path="url(#paa3d7b5800)" d="M 595.155692 92.811988 
L 595.155692 50.794121 
" style="fill:none;stroke:#0000ff;stroke-width:1.5;"/>
    <path clip-path="url(#paa3d7b5800)" d="M 602.661187 105.385153 
L 602.661187 63.367286 
" style="fill:none;stroke:#0000ff;stroke-width:1.5;"/>
    <path clip-path="url(#paa3d7b5800)" d="M 610.166681 103.116983 
L 610.166681 61.099117 
" style="fill:none;stroke:#0000ff;stroke-width:1.5;"/>
    <path clip-path="url(#paa3d7b5800)" d="M 617.672176 123.317562 
L 617.672176 81.299696 
" style="fill:none;stroke:#0000ff;stroke-width:1.5;"/>
    <path clip-path="url(#paa3d7b5800)" d="M 625.17767 112.537967 
L 625.17767 70.520101 
" style="fill:none;stroke:#0000ff;stroke-width:1.5;"/>
    <path clip-path="url(#paa3d7b5800)" d="M 632.683165 128.794363 
L 632.683165 86.776497 
" style="fill:none;stroke:#0000ff;stroke-width:1.5;"/>
    <path clip-path="url(#paa3d7b5800)" d="M 640.188659 103.28655 
L 640.188659 61.268683 
" style="fill:none;stroke:#0000ff;stroke-width:1.5;"/>
    <path clip-path="url(#paa3d7b5800)" d="M 647.694154 130.014556 
L 647.694154 87.99669 
" style="fill:none;stroke:#0000ff;stroke-width:1.5;"/>
    <path clip-path="url(#paa3d7b5800)" d="M 655.199648 136.104534 
L 655.199648 94.086667 
" style="fill:none;stroke:#0000ff;stroke-width:1.5;"/>
    <path clip-path="url(#paa3d7b5800)" d="M 662.705143 134.316061 
L 662.705143 92.298195 
" style="fill:none;stroke:#0000ff;stroke-width:1.5;"/>
    <path clip-path="url(#paa3d7b5800)" d="M 670.210637 121.719694 
L 670.210637 79.701828 
" style="fill:none;stroke:#0000ff;stroke-width:1.5;"/>
    <path clip-path="url(#paa3d7b5800)" d="M 677.716132 105.174205 
L 677.716132 63.156338 
" style="fill:none;stroke:#0000ff;stroke-width:1.5;"/>
    <path clip-path="url(#paa3d7b5800)" d="M 685.221626 115.872307 
L 685.221626 73.854441 
" style="fill:none;stroke:#0000ff;stroke-width:1.5;"/>
    <path clip-path="url(#paa3d7b5800)" d="M 692.727121 117.031913 
L 692.727121 75.014047 
" style="fill:none;stroke:#0000ff;stroke-width:1.5;"/>
    <path clip-path="url(#paa3d7b5800)" d="M 700.232615 112.788555 
L 700.232615 70.770689 
" style="fill:none;stroke:#0000ff;stroke-width:1.5;"/>
    <path clip-path="url(#paa3d7b5800)" d="M 707.73811 97.523042 
L 707.73811 55.505176 
" style="fill:none;stroke:#0000ff;stroke-width:1.5;"/>
    <path clip-path="url(#paa3d7b5800)" d="M 715.243604 98.944257 
L 715.243604 56.926391 
" style="fill:none;stroke:#0000ff;stroke-width:1.5;"/>
    <path clip-path="url(#paa3d7b5800)" d="M 722.749099 116.425553 
L 722.749099 74.407687 
" style="fill:none;stroke:#0000ff;stroke-width:1.5;"/>
    <path clip-path="url(#paa3d7b5800)" d="M 730.254593 120.177839 
L 730.254593 78.159972 
" style="fill:none;stroke:#0000ff;stroke-width:1.5;"/>
    <path clip-path="url(#paa3d7b5800)" d="M 737.760088 127.225939 
L 737.760088 85.208073 
" style="fill:none;stroke:#0000ff;stroke-width:1.5;"/>
    <path clip-path="url(#paa3d7b5800)" d="M 745.265582 108.311355 
L 745.265582 66.293489 
" style="fill:none;stroke:#0000ff;stroke-width:1.5;"/>
    <path clip-path="url(#paa3d7b5800)" d="M 752.771077 112.860191 
L 752.771077 70.842324 
" style="fill:none;stroke:#0000ff;stroke-width:1.5;"/>
    <path clip-path="url(#paa3d7b5800)" d="M 760.276571 115.771191 
L 760.276571 73.753325 
" style="fill:none;stroke:#0000ff;stroke-width:1.5;"/>
    <path clip-path="url(#paa3d7b5800)" d="M 767.782066 113.224777 
L 767.782066 71.20691 
" style="fill:none;stroke:#0000ff;stroke-width:1.5;"/>
    <path clip-path="url(#paa3d7b5800)" d="M 775.28756 109.433117 
L 775.28756 67.415251 
" style="fill:none;stroke:#0000ff;stroke-width:1.5;"/>
    <path clip-path="url(#paa3d7b5800)" d="M 782.793055 127.596779 
L 782.793055 85.578913 
" style="fill:none;stroke:#0000ff;stroke-width:1.5;"/>
    <path clip-path="url(#paa3d7b5800)" d="M 790.298549 130.719621 
L 790.298549 88.701754 
" style="fill:none;stroke:#0000ff;stroke-width:1.5;"/>
    <path clip-path="url(#paa3d7b5800)" d="M 797.804044 150.239878 
L 797.804044 108.222012 
" style="fill:none;stroke:#0000ff;stroke-width:1.5;"/>
    <path clip-path="url(#paa3d7b5800)" d="M 805.309538 105.367455 
L 805.309538 63.349589 
" style="fill:none;stroke:#0000ff;stroke-width:1.5;"/>
    <path clip-path="url(#paa3d7b5800)" d="M 812.815033 97.817858 
L 812.815033 55.799991 
" style="fill:none;stroke:#0000ff;stroke-width:1.5;"/>
    <path clip-path="url(#paa3d7b5800)" d="M 820.320527 154.191333 
L 820.320527 112.173467 
" style="fill:none;stroke:#0000ff;stroke-width:1.5;"/>
    <path clip-path="url(#paa3d7b5800)" d="M 827.826022 95.878005 
L 827.826022 53.860139 
" style="fill:none;stroke:#0000ff;stroke-width:1.5;"/>
    <path clip-path="url(#paa3d7b5800)" d="M 835.331516 142.196124 
L 835.331516 100.178258 
" style="fill:none;stroke:#0000ff;stroke-width:1.5;"/>
    <path clip-path="url(#paa3d7b5800)" d="M 842.837011 129.009979 
L 842.837011 86.992113 
" style="fill:none;stroke:#0000ff;stroke-width:1.5;"/>
    <path clip-path="url(#paa3d7b5800)" d="M 857.848 110.603549 
L 857.848 68.585683 
" style="fill:none;stroke:#0000ff;stroke-width:1.5;"/>
   </g>
   <g id="line2d_10">
    <path clip-path="url(#paa3d7b5800)" d="M 174.848 96.499489 
L 857.848 96.499489 
" style="fill:none;stroke:#ff0000;stroke-linecap:square;stroke-width:1.5;"/>
   </g>
   <g id="line2d_11">
    <defs>
     <path d="M -3 0 
L 3 0 
M 0 3 
L 0 -3 
" id="m050e9c9327" style="stroke:#0000ff;"/>
    </defs>
    <g clip-path="url(#paa3d7b5800)">
     <use style="fill:#0000ff;stroke:#0000ff;" x="174.848" xlink:href="#m050e9c9327" y="78.030178"/>
     <use style="fill:#0000ff;stroke:#0000ff;" x="182.353495" xlink:href="#m050e9c9327" y="95.215912"/>
     <use style="fill:#0000ff;stroke:#0000ff;" x="197.364484" xlink:href="#m050e9c9327" y="103.714438"/>
     <use style="fill:#0000ff;stroke:#0000ff;" x="204.869978" xlink:href="#m050e9c9327" y="91.785439"/>
     <use style="fill:#0000ff;stroke:#0000ff;" x="212.375473" xlink:href="#m050e9c9327" y="79.868273"/>
     <use style="fill:#0000ff;stroke:#0000ff;" x="219.880967" xlink:href="#m050e9c9327" y="97.536024"/>
     <use style="fill:#0000ff;stroke:#0000ff;" x="227.386462" xlink:href="#m050e9c9327" y="84.280873"/>
     <use style="fill:#0000ff;stroke:#0000ff;" x="234.891956" xlink:href="#m050e9c9327" y="95.266579"/>
     <use style="fill:#0000ff;stroke:#0000ff;" x="242.397451" xlink:href="#m050e9c9327" y="67.701917"/>
     <use style="fill:#0000ff;stroke:#0000ff;" x="249.902945" xlink:href="#m050e9c9327" y="97.397537"/>
     <use style="fill:#0000ff;stroke:#0000ff;" x="257.40844" xlink:href="#m050e9c9327" y="117.262902"/>
     <use style="fill:#0000ff;stroke:#0000ff;" x="264.913934" xlink:href="#m050e9c9327" y="81.309543"/>
     <use style="fill:#0000ff;stroke:#0000ff;" x="272.419429" xlink:href="#m050e9c9327" y="116.727126"/>
     <use style="fill:#0000ff;stroke:#0000ff;" x="279.924923" xlink:href="#m050e9c9327" y="113.325724"/>
     <use style="fill:#0000ff;stroke:#0000ff;" x="287.430418" xlink:href="#m050e9c9327" y="74.826815"/>
     <use style="fill:#0000ff;stroke:#0000ff;" x="294.935912" xlink:href="#m050e9c9327" y="76.602533"/>
     <use style="fill:#0000ff;stroke:#0000ff;" x="302.441407" xlink:href="#m050e9c9327" y="115.784852"/>
     <use style="fill:#0000ff;stroke:#0000ff;" x="309.946901" xlink:href="#m050e9c9327" y="102.093743"/>
     <use style="fill:#0000ff;stroke:#0000ff;" x="317.452396" xlink:href="#m050e9c9327" y="100.758215"/>
     <use style="fill:#0000ff;stroke:#0000ff;" x="324.95789" xlink:href="#m050e9c9327" y="101.390033"/>
     <use style="fill:#0000ff;stroke:#0000ff;" x="332.463385" xlink:href="#m050e9c9327" y="80.388302"/>
     <use style="fill:#0000ff;stroke:#0000ff;" x="339.968879" xlink:href="#m050e9c9327" y="96.396549"/>
     <use style="fill:#0000ff;stroke:#0000ff;" x="347.474374" xlink:href="#m050e9c9327" y="113.372506"/>
     <use style="fill:#0000ff;stroke:#0000ff;" x="354.979868" xlink:href="#m050e9c9327" y="105.547425"/>
     <use style="fill:#0000ff;stroke:#0000ff;" x="362.485363" xlink:href="#m050e9c9327" y="89.877811"/>
     <use style="fill:#0000ff;stroke:#0000ff;" x="369.990857" xlink:href="#m050e9c9327" y="89.681122"/>
     <use style="fill:#0000ff;stroke:#0000ff;" x="377.496352" xlink:href="#m050e9c9327" y="92.52132"/>
     <use style="fill:#0000ff;stroke:#0000ff;" x="385.001846" xlink:href="#m050e9c9327" y="90.875017"/>
     <use style="fill:#0000ff;stroke:#0000ff;" x="392.507341" xlink:href="#m050e9c9327" y="80.898519"/>
     <use style="fill:#0000ff;stroke:#0000ff;" x="400.012835" xlink:href="#m050e9c9327" y="89.463617"/>
     <use style="fill:#0000ff;stroke:#0000ff;" x="407.51833" xlink:href="#m050e9c9327" y="79.856704"/>
     <use style="fill:#0000ff;stroke:#0000ff;" x="415.023824" xlink:href="#m050e9c9327" y="102.920846"/>
     <use style="fill:#0000ff;stroke:#0000ff;" x="422.529319" xlink:href="#m050e9c9327" y="100.741093"/>
     <use style="fill:#0000ff;stroke:#0000ff;" x="430.034813" xlink:href="#m050e9c9327" y="127.295172"/>
     <use style="fill:#0000ff;stroke:#0000ff;" x="437.540308" xlink:href="#m050e9c9327" y="120.039505"/>
     <use style="fill:#0000ff;stroke:#0000ff;" x="445.045802" xlink:href="#m050e9c9327" y="91.396401"/>
     <use style="fill:#0000ff;stroke:#0000ff;" x="452.551297" xlink:href="#m050e9c9327" y="119.708209"/>
     <use style="fill:#0000ff;stroke:#0000ff;" x="460.056791" xlink:href="#m050e9c9327" y="96.157405"/>
     <use style="fill:#0000ff;stroke:#0000ff;" x="467.562286" xlink:href="#m050e9c9327" y="77.0671"/>
     <use style="fill:#0000ff;stroke:#0000ff;" x="475.06778" xlink:href="#m050e9c9327" y="115.645243"/>
     <use style="fill:#0000ff;stroke:#0000ff;" x="482.573275" xlink:href="#m050e9c9327" y="110.15439"/>
     <use style="fill:#0000ff;stroke:#0000ff;" x="490.078769" xlink:href="#m050e9c9327" y="107.671575"/>
     <use style="fill:#0000ff;stroke:#0000ff;" x="497.584264" xlink:href="#m050e9c9327" y="104.330554"/>
     <use style="fill:#0000ff;stroke:#0000ff;" x="505.089758" xlink:href="#m050e9c9327" y="87.21398"/>
     <use style="fill:#0000ff;stroke:#0000ff;" x="512.595253" xlink:href="#m050e9c9327" y="98.187329"/>
     <use style="fill:#0000ff;stroke:#0000ff;" x="520.100747" xlink:href="#m050e9c9327" y="82.581382"/>
     <use style="fill:#0000ff;stroke:#0000ff;" x="527.606242" xlink:href="#m050e9c9327" y="105.140842"/>
     <use style="fill:#0000ff;stroke:#0000ff;" x="535.111736" xlink:href="#m050e9c9327" y="90.500159"/>
     <use style="fill:#0000ff;stroke:#0000ff;" x="542.617231" xlink:href="#m050e9c9327" y="86.980654"/>
     <use style="fill:#0000ff;stroke:#0000ff;" x="550.122725" xlink:href="#m050e9c9327" y="87.681756"/>
     <use style="fill:#0000ff;stroke:#0000ff;" x="557.62822" xlink:href="#m050e9c9327" y="115.231159"/>
     <use style="fill:#0000ff;stroke:#0000ff;" x="565.133714" xlink:href="#m050e9c9327" y="65.7824"/>
     <use style="fill:#0000ff;stroke:#0000ff;" x="572.639209" xlink:href="#m050e9c9327" y="121.53355"/>
     <use style="fill:#0000ff;stroke:#0000ff;" x="580.144703" xlink:href="#m050e9c9327" y="78.354972"/>
     <use style="fill:#0000ff;stroke:#0000ff;" x="587.650198" xlink:href="#m050e9c9327" y="86.965556"/>
     <use style="fill:#0000ff;stroke:#0000ff;" x="595.155692" xlink:href="#m050e9c9327" y="71.803055"/>
     <use style="fill:#0000ff;stroke:#0000ff;" x="602.661187" xlink:href="#m050e9c9327" y="84.37622"/>
     <use style="fill:#0000ff;stroke:#0000ff;" x="610.166681" xlink:href="#m050e9c9327" y="82.10805"/>
     <use style="fill:#0000ff;stroke:#0000ff;" x="617.672176" xlink:href="#m050e9c9327" y="102.308629"/>
     <use style="fill:#0000ff;stroke:#0000ff;" x="625.17767" xlink:href="#m050e9c9327" y="91.529034"/>
     <use style="fill:#0000ff;stroke:#0000ff;" x="632.683165" xlink:href="#m050e9c9327" y="107.78543"/>
     <use style="fill:#0000ff;stroke:#0000ff;" x="640.188659" xlink:href="#m050e9c9327" y="82.277617"/>
     <use style="fill:#0000ff;stroke:#0000ff;" x="647.694154" xlink:href="#m050e9c9327" y="109.005623"/>
     <use style="fill:#0000ff;stroke:#0000ff;" x="655.199648" xlink:href="#m050e9c9327" y="115.095601"/>
     <use style="fill:#0000ff;stroke:#0000ff;" x="662.705143" xlink:href="#m050e9c9327" y="113.307128"/>
     <use style="fill:#0000ff;stroke:#0000ff;" x="670.210637" xlink:href="#m050e9c9327" y="100.710761"/>
     <use style="fill:#0000ff;stroke:#0000ff;" x="677.716132" xlink:href="#m050e9c9327" y="84.165271"/>
     <use style="fill:#0000ff;stroke:#0000ff;" x="685.221626" xlink:href="#m050e9c9327" y="94.863374"/>
     <use style="fill:#0000ff;stroke:#0000ff;" x="692.727121" xlink:href="#m050e9c9327" y="96.02298"/>
     <use style="fill:#0000ff;stroke:#0000ff;" x="700.232615" xlink:href="#m050e9c9327" y="91.779622"/>
     <use style="fill:#0000ff;stroke:#0000ff;" x="707.73811" xlink:href="#m050e9c9327" y="76.514109"/>
     <use style="fill:#0000ff;stroke:#0000ff;" x="715.243604" xlink:href="#m050e9c9327" y="77.935324"/>
     <use style="fill:#0000ff;stroke:#0000ff;" x="722.749099" xlink:href="#m050e9c9327" y="95.41662"/>
     <use style="fill:#0000ff;stroke:#0000ff;" x="730.254593" xlink:href="#m050e9c9327" y="99.168905"/>
     <use style="fill:#0000ff;stroke:#0000ff;" x="737.760088" xlink:href="#m050e9c9327" y="106.217006"/>
     <use style="fill:#0000ff;stroke:#0000ff;" x="745.265582" xlink:href="#m050e9c9327" y="87.302422"/>
     <use style="fill:#0000ff;stroke:#0000ff;" x="752.771077" xlink:href="#m050e9c9327" y="91.851257"/>
     <use style="fill:#0000ff;stroke:#0000ff;" x="760.276571" xlink:href="#m050e9c9327" y="94.762258"/>
     <use style="fill:#0000ff;stroke:#0000ff;" x="767.782066" xlink:href="#m050e9c9327" y="92.215844"/>
     <use style="fill:#0000ff;stroke:#0000ff;" x="775.28756" xlink:href="#m050e9c9327" y="88.424184"/>
     <use style="fill:#0000ff;stroke:#0000ff;" x="782.793055" xlink:href="#m050e9c9327" y="106.587846"/>
     <use style="fill:#0000ff;stroke:#0000ff;" x="790.298549" xlink:href="#m050e9c9327" y="109.710688"/>
     <use style="fill:#0000ff;stroke:#0000ff;" x="797.804044" xlink:href="#m050e9c9327" y="129.230945"/>
     <use style="fill:#0000ff;stroke:#0000ff;" x="805.309538" xlink:href="#m050e9c9327" y="84.358522"/>
     <use style="fill:#0000ff;stroke:#0000ff;" x="812.815033" xlink:href="#m050e9c9327" y="76.808925"/>
     <use style="fill:#0000ff;stroke:#0000ff;" x="820.320527" xlink:href="#m050e9c9327" y="133.1824"/>
     <use style="fill:#0000ff;stroke:#0000ff;" x="827.826022" xlink:href="#m050e9c9327" y="74.869072"/>
     <use style="fill:#0000ff;stroke:#0000ff;" x="835.331516" xlink:href="#m050e9c9327" y="121.187191"/>
     <use style="fill:#0000ff;stroke:#0000ff;" x="842.837011" xlink:href="#m050e9c9327" y="108.001046"/>
     <use style="fill:#0000ff;stroke:#0000ff;" x="857.848" xlink:href="#m050e9c9327" y="89.594616"/>
    </g>
   </g>
   <g id="patch_3">
    <path d="M 147.528 135.8784 
L 147.528 63.0864 
" style="fill:none;stroke:#000000;stroke-linecap:square;stroke-linejoin:miter;stroke-width:0.8;"/>
   </g>
   <g id="patch_4">
    <path d="M 885.168 135.8784 
L 885.168 63.0864 
" style="fill:none;stroke:#000000;stroke-linecap:square;stroke-linejoin:miter;stroke-width:0.8;"/>
   </g>
   <g id="patch_5">
    <path d="M 147.528 135.8784 
L 885.168 135.8784 
" style="fill:none;stroke:#000000;stroke-linecap:square;stroke-linejoin:miter;stroke-width:0.8;"/>
   </g>
   <g id="patch_6">
    <path d="M 147.528 63.0864 
L 885.168 63.0864 
" style="fill:none;stroke:#000000;stroke-linecap:square;stroke-linejoin:miter;stroke-width:0.8;"/>
   </g>
   <g id="text_4">
    <!-- Function (0/0): y = a*exp(-(x-x0)**2/w**2)+b -->
    <defs>
     <path d="M 9.8125 72.90625 
L 51.703125 72.90625 
L 51.703125 64.59375 
L 19.671875 64.59375 
L 19.671875 43.109375 
L 48.578125 43.109375 
L 48.578125 34.8125 
L 19.671875 34.8125 
L 19.671875 0 
L 9.8125 0 
z
" id="DejaVuSans-46"/>
     <path d="M 48.78125 52.59375 
L 48.78125 44.1875 
Q 44.96875 46.296875 41.140625 47.34375 
Q 37.3125 48.390625 33.40625 48.390625 
Q 24.65625 48.390625 19.8125 42.84375 
Q 14.984375 37.3125 14.984375 27.296875 
Q 14.984375 17.28125 19.8125 11.734375 
Q 24.65625 6.203125 33.40625 6.203125 
Q 37.3125 6.203125 41.140625 7.25 
Q 44.96875 8.296875 48.78125 10.40625 
L 48.78125 2.09375 
Q 45.015625 0.34375 40.984375 -0.53125 
Q 36.96875 -1.421875 32.421875 -1.421875 
Q 20.0625 -1.421875 12.78125 6.34375 
Q 5.515625 14.109375 5.515625 27.296875 
Q 5.515625 40.671875 12.859375 48.328125 
Q 20.21875 56 33.015625 56 
Q 37.15625 56 41.109375 55.140625 
Q 45.0625 54.296875 48.78125 52.59375 
z
" id="DejaVuSans-63"/>
     <path d="M 30.609375 48.390625 
Q 23.390625 48.390625 19.1875 42.75 
Q 14.984375 37.109375 14.984375 27.296875 
Q 14.984375 17.484375 19.15625 11.84375 
Q 23.34375 6.203125 30.609375 6.203125 
Q 37.796875 6.203125 41.984375 11.859375 
Q 46.1875 17.53125 46.1875 27.296875 
Q 46.1875 37.015625 41.984375 42.703125 
Q 37.796875 48.390625 30.609375 48.390625 
z
M 30.609375 56 
Q 42.328125 56 49.015625 48.375 
Q 55.71875 40.765625 55.71875 27.296875 
Q 55.71875 13.875 49.015625 6.21875 
Q 42.328125 -1.421875 30.609375 -1.421875 
Q 18.84375 -1.421875 12.171875 6.21875 
Q 5.515625 13.875 5.515625 27.296875 
Q 5.515625 40.765625 12.171875 48.375 
Q 18.84375 56 30.609375 56 
z
" id="DejaVuSans-6f"/>
     <path id="DejaVuSans-20"/>
     <path d="M 31 75.875 
Q 24.46875 64.65625 21.28125 53.65625 
Q 18.109375 42.671875 18.109375 31.390625 
Q 18.109375 20.125 21.3125 9.0625 
Q 24.515625 -2 31 -13.1875 
L 23.1875 -13.1875 
Q 15.875 -1.703125 12.234375 9.375 
Q 8.59375 20.453125 8.59375 31.390625 
Q 8.59375 42.28125 12.203125 53.3125 
Q 15.828125 64.359375 23.1875 75.875 
z
" id="DejaVuSans-28"/>
     <path d="M 31.78125 66.40625 
Q 24.171875 66.40625 20.328125 58.90625 
Q 16.5 51.421875 16.5 36.375 
Q 16.5 21.390625 20.328125 13.890625 
Q 24.171875 6.390625 31.78125 6.390625 
Q 39.453125 6.390625 43.28125 13.890625 
Q 47.125 21.390625 47.125 36.375 
Q 47.125 51.421875 43.28125 58.90625 
Q 39.453125 66.40625 31.78125 66.40625 
z
M 31.78125 74.21875 
Q 44.046875 74.21875 50.515625 64.515625 
Q 56.984375 54.828125 56.984375 36.375 
Q 56.984375 17.96875 50.515625 8.265625 
Q 44.046875 -1.421875 31.78125 -1.421875 
Q 19.53125 -1.421875 13.0625 8.265625 
Q 6.59375 17.96875 6.59375 36.375 
Q 6.59375 54.828125 13.0625 64.515625 
Q 19.53125 74.21875 31.78125 74.21875 
z
" id="DejaVuSans-30"/>
     <path d="M 25.390625 72.90625 
L 33.6875 72.90625 
L 8.296875 -9.28125 
L 0 -9.28125 
z
" id="DejaVuSans-2f"/>
     <path d="M 8.015625 75.875 
L 15.828125 75.875 
Q 23.140625 64.359375 26.78125 53.3125 
Q 30.421875 42.28125 30.421875 31.390625 
Q 30.421875 20.453125 26.78125 9.375 
Q 23.140625 -1.703125 15.828125 -13.1875 
L 8.015625 -13.1875 
Q 14.5 -2 17.703125 9.0625 
Q 20.90625 20.125 20.90625 31.390625 
Q 20.90625 42.671875 17.703125 53.65625 
Q 14.5 64.65625 8.015625 75.875 
z
" id="DejaVuSans-29"/>
     <path d="M 11.71875 12.40625 
L 22.015625 12.40625 
L 22.015625 0 
L 11.71875 0 
z
M 11.71875 51.703125 
L 22.015625 51.703125 
L 22.015625 39.3125 
L 11.71875 39.3125 
z
" id="DejaVuSans-3a"/>
     <path d="M 32.171875 -5.078125 
Q 28.375 -14.84375 24.75 -17.8125 
Q 21.140625 -20.796875 15.09375 -20.796875 
L 7.90625 -20.796875 
L 7.90625 -13.28125 
L 13.1875 -13.28125 
Q 16.890625 -13.28125 18.9375 -11.515625 
Q 21 -9.765625 23.484375 -3.21875 
L 25.09375 0.875 
L 2.984375 54.6875 
L 12.5 54.6875 
L 29.59375 11.921875 
L 46.6875 54.6875 
L 56.203125 54.6875 
z
" id="DejaVuSans-79"/>
     <path d="M 10.59375 45.40625 
L 73.1875 45.40625 
L 73.1875 37.203125 
L 10.59375 37.203125 
z
M 10.59375 25.484375 
L 73.1875 25.484375 
L 73.1875 17.1875 
L 10.59375 17.1875 
z
" id="DejaVuSans-3d"/>
     <path d="M 47.015625 60.890625 
L 29.5 51.421875 
L 47.015625 41.890625 
L 44.1875 37.109375 
L 27.78125 47.015625 
L 27.78125 28.609375 
L 22.21875 28.609375 
L 22.21875 47.015625 
L 5.8125 37.109375 
L 2.984375 41.890625 
L 20.515625 51.421875 
L 2.984375 60.890625 
L 5.8125 65.71875 
L 22.21875 55.8125 
L 22.21875 74.21875 
L 27.78125 74.21875 
L 27.78125 55.8125 
L 44.1875 65.71875 
z
" id="DejaVuSans-2a"/>
     <path d="M 54.890625 54.6875 
L 35.109375 28.078125 
L 55.90625 0 
L 45.3125 0 
L 29.390625 21.484375 
L 13.484375 0 
L 2.875 0 
L 24.125 28.609375 
L 4.6875 54.6875 
L 15.28125 54.6875 
L 29.78125 35.203125 
L 44.28125 54.6875 
z
" id="DejaVuSans-78"/>
     <path d="M 18.109375 8.203125 
L 18.109375 -20.796875 
L 9.078125 -20.796875 
L 9.078125 54.6875 
L 18.109375 54.6875 
L 18.109375 46.390625 
Q 20.953125 51.265625 25.265625 53.625 
Q 29.59375 56 35.59375 56 
Q 45.5625 56 51.78125 48.09375 
Q 58.015625 40.1875 58.015625 27.296875 
Q 58.015625 14.40625 51.78125 6.484375 
Q 45.5625 -1.421875 35.59375 -1.421875 
Q 29.59375 -1.421875 25.265625 0.953125 
Q 20.953125 3.328125 18.109375 8.203125 
z
M 48.6875 27.296875 
Q 48.6875 37.203125 44.609375 42.84375 
Q 40.53125 48.484375 33.40625 48.484375 
Q 26.265625 48.484375 22.1875 42.84375 
Q 18.109375 37.203125 18.109375 27.296875 
Q 18.109375 17.390625 22.1875 11.75 
Q 26.265625 6.109375 33.40625 6.109375 
Q 40.53125 6.109375 44.609375 11.75 
Q 48.6875 17.390625 48.6875 27.296875 
z
" id="DejaVuSans-70"/>
     <path d="M 4.890625 31.390625 
L 31.203125 31.390625 
L 31.203125 23.390625 
L 4.890625 23.390625 
z
" id="DejaVuSans-2d"/>
     <path d="M 19.1875 8.296875 
L 53.609375 8.296875 
L 53.609375 0 
L 7.328125 0 
L 7.328125 8.296875 
Q 12.9375 14.109375 22.625 23.890625 
Q 32.328125 33.6875 34.8125 36.53125 
Q 39.546875 41.84375 41.421875 45.53125 
Q 43.3125 49.21875 43.3125 52.78125 
Q 43.3125 58.59375 39.234375 62.25 
Q 35.15625 65.921875 28.609375 65.921875 
Q 23.96875 65.921875 18.8125 64.3125 
Q 13.671875 62.703125 7.8125 59.421875 
L 7.8125 69.390625 
Q 13.765625 71.78125 18.9375 73 
Q 24.125 74.21875 28.421875 74.21875 
Q 39.75 74.21875 46.484375 68.546875 
Q 53.21875 62.890625 53.21875 53.421875 
Q 53.21875 48.921875 51.53125 44.890625 
Q 49.859375 40.875 45.40625 35.40625 
Q 44.1875 33.984375 37.640625 27.21875 
Q 31.109375 20.453125 19.1875 8.296875 
z
" id="DejaVuSans-32"/>
     <path d="M 4.203125 54.6875 
L 13.1875 54.6875 
L 24.421875 12.015625 
L 35.59375 54.6875 
L 46.1875 54.6875 
L 57.421875 12.015625 
L 68.609375 54.6875 
L 77.59375 54.6875 
L 63.28125 0 
L 52.6875 0 
L 40.921875 44.828125 
L 29.109375 0 
L 18.5 0 
z
" id="DejaVuSans-77"/>
     <path d="M 46 62.703125 
L 46 35.5 
L 73.1875 35.5 
L 73.1875 27.203125 
L 46 27.203125 
L 46 0 
L 37.796875 0 
L 37.796875 27.203125 
L 10.59375 27.203125 
L 10.59375 35.5 
L 37.796875 35.5 
L 37.796875 62.703125 
z
" id="DejaVuSans-2b"/>
     <path d="M 48.6875 27.296875 
Q 48.6875 37.203125 44.609375 42.84375 
Q 40.53125 48.484375 33.40625 48.484375 
Q 26.265625 48.484375 22.1875 42.84375 
Q 18.109375 37.203125 18.109375 27.296875 
Q 18.109375 17.390625 22.1875 11.75 
Q 26.265625 6.109375 33.40625 6.109375 
Q 40.53125 6.109375 44.609375 11.75 
Q 48.6875 17.390625 48.6875 27.296875 
z
M 18.109375 46.390625 
Q 20.953125 51.265625 25.265625 53.625 
Q 29.59375 56 35.59375 56 
Q 45.5625 56 51.78125 48.09375 
Q 58.015625 40.1875 58.015625 27.296875 
Q 58.015625 14.40625 51.78125 6.484375 
Q 45.5625 -1.421875 35.59375 -1.421875 
Q 29.59375 -1.421875 25.265625 0.953125 
Q 20.953125 3.328125 18.109375 8.203125 
L 18.109375 0 
L 9.078125 0 
L 9.078125 75.984375 
L 18.109375 75.984375 
z
" id="DejaVuSans-62"/>
    </defs>
    <g transform="translate(147.528 45.888588)scale(0.1 -0.1)">
     <use xlink:href="#DejaVuSans-46"/>
     <use x="57.441406" xlink:href="#DejaVuSans-75"/>
     <use x="120.820312" xlink:href="#DejaVuSans-6e"/>
     <use x="184.199219" xlink:href="#DejaVuSans-63"/>
     <use x="239.179688" xlink:href="#DejaVuSans-74"/>
     <use x="278.388672" xlink:href="#DejaVuSans-69"/>
     <use x="306.171875" xlink:href="#DejaVuSans-6f"/>
     <use x="367.353516" xlink:href="#DejaVuSans-6e"/>
     <use x="430.732422" xlink:href="#DejaVuSans-20"/>
     <use x="462.519531" xlink:href="#DejaVuSans-28"/>
     <use x="501.533203" xlink:href="#DejaVuSans-30"/>
     <use x="565.15625" xlink:href="#DejaVuSans-2f"/>
     <use x="598.847656" xlink:href="#DejaVuSans-30"/>
     <use x="662.470703" xlink:href="#DejaVuSans-29"/>
     <use x="701.484375" xlink:href="#DejaVuSans-3a"/>
     <use x="735.175781" xlink:href="#DejaVuSans-20"/>
     <use x="766.962891" xlink:href="#DejaVuSans-79"/>
     <use x="826.142578" xlink:href="#DejaVuSans-20"/>
     <use x="857.929688" xlink:href="#DejaVuSans-3d"/>
     <use x="941.71875" xlink:href="#DejaVuSans-20"/>
     <use x="973.505859" xlink:href="#DejaVuSans-61"/>
     <use x="1034.785156" xlink:href="#DejaVuSans-2a"/>
     <use x="1084.785156" xlink:href="#DejaVuSans-65"/>
     <use x="1146.292969" xlink:href="#DejaVuSans-78"/>
     <use x="1205.472656" xlink:href="#DejaVuSans-70"/>
     <use x="1268.949219" xlink:href="#DejaVuSans-28"/>
     <use x="1307.962891" xlink:href="#DejaVuSans-2d"/>
     <use x="1344.046875" xlink:href="#DejaVuSans-28"/>
     <use x="1383.060547" xlink:href="#DejaVuSans-78"/>
     <use x="1442.240234" xlink:href="#DejaVuSans-2d"/>
     <use x="1478.324219" xlink:href="#DejaVuSans-78"/>
     <use x="1537.503906" xlink:href="#DejaVuSans-30"/>
     <use x="1601.126953" xlink:href="#DejaVuSans-29"/>
     <use x="1640.140625" xlink:href="#DejaVuSans-2a"/>
     <use x="1690.140625" xlink:href="#DejaVuSans-2a"/>
     <use x="1740.140625" xlink:href="#DejaVuSans-32"/>
     <use x="1803.763672" xlink:href="#DejaVuSans-2f"/>
     <use x="1837.455078" xlink:href="#DejaVuSans-77"/>
     <use x="1919.242188" xlink:href="#DejaVuSans-2a"/>
     <use x="1969.242188" xlink:href="#DejaVuSans-2a"/>
     <use x="2019.242188" xlink:href="#DejaVuSans-32"/>
     <use x="2082.865234" xlink:href="#DejaVuSans-29"/>
     <use x="2121.878906" xlink:href="#DejaVuSans-2b"/>
     <use x="2205.667969" xlink:href="#DejaVuSans-62"/>
    </g>
    <!-- Fit: a=383.0$\pm$6.2, b=26.4$\pm$6.7, x0=4.4855$\pm$0.0011, w=0.1739$\pm$0.0041, -->
    <defs>
     <path d="M 40.578125 39.3125 
Q 47.65625 37.796875 51.625 33 
Q 55.609375 28.21875 55.609375 21.1875 
Q 55.609375 10.40625 48.1875 4.484375 
Q 40.765625 -1.421875 27.09375 -1.421875 
Q 22.515625 -1.421875 17.65625 -0.515625 
Q 12.796875 0.390625 7.625 2.203125 
L 7.625 11.71875 
Q 11.71875 9.328125 16.59375 8.109375 
Q 21.484375 6.890625 26.8125 6.890625 
Q 36.078125 6.890625 40.9375 10.546875 
Q 45.796875 14.203125 45.796875 21.1875 
Q 45.796875 27.640625 41.28125 31.265625 
Q 36.765625 34.90625 28.71875 34.90625 
L 20.21875 34.90625 
L 20.21875 43.015625 
L 29.109375 43.015625 
Q 36.375 43.015625 40.234375 45.921875 
Q 44.09375 48.828125 44.09375 54.296875 
Q 44.09375 59.90625 40.109375 62.90625 
Q 36.140625 65.921875 28.71875 65.921875 
Q 24.65625 65.921875 20.015625 65.03125 
Q 15.375 64.15625 9.8125 62.3125 
L 9.8125 71.09375 
Q 15.4375 72.65625 20.34375 73.4375 
Q 25.25 74.21875 29.59375 74.21875 
Q 40.828125 74.21875 47.359375 69.109375 
Q 53.90625 64.015625 53.90625 55.328125 
Q 53.90625 49.265625 50.4375 45.09375 
Q 46.96875 40.921875 40.578125 39.3125 
z
" id="DejaVuSans-33"/>
     <path d="M 31.78125 34.625 
Q 24.75 34.625 20.71875 30.859375 
Q 16.703125 27.09375 16.703125 20.515625 
Q 16.703125 13.921875 20.71875 10.15625 
Q 24.75 6.390625 31.78125 6.390625 
Q 38.8125 6.390625 42.859375 10.171875 
Q 46.921875 13.96875 46.921875 20.515625 
Q 46.921875 27.09375 42.890625 30.859375 
Q 38.875 34.625 31.78125 34.625 
z
M 21.921875 38.8125 
Q 15.578125 40.375 12.03125 44.71875 
Q 8.5 49.078125 8.5 55.328125 
Q 8.5 64.0625 14.71875 69.140625 
Q 20.953125 74.21875 31.78125 74.21875 
Q 42.671875 74.21875 48.875 69.140625 
Q 55.078125 64.0625 55.078125 55.328125 
Q 55.078125 49.078125 51.53125 44.71875 
Q 48 40.375 41.703125 38.8125 
Q 48.828125 37.15625 52.796875 32.3125 
Q 56.78125 27.484375 56.78125 20.515625 
Q 56.78125 9.90625 50.3125 4.234375 
Q 43.84375 -1.421875 31.78125 -1.421875 
Q 19.734375 -1.421875 13.25 4.234375 
Q 6.78125 9.90625 6.78125 20.515625 
Q 6.78125 27.484375 10.78125 32.3125 
Q 14.796875 37.15625 21.921875 38.8125 
z
M 18.3125 54.390625 
Q 18.3125 48.734375 21.84375 45.5625 
Q 25.390625 42.390625 31.78125 42.390625 
Q 38.140625 42.390625 41.71875 45.5625 
Q 45.3125 48.734375 45.3125 54.390625 
Q 45.3125 60.0625 41.71875 63.234375 
Q 38.140625 66.40625 31.78125 66.40625 
Q 25.390625 66.40625 21.84375 63.234375 
Q 18.3125 60.0625 18.3125 54.390625 
z
" id="DejaVuSans-38"/>
     <path d="M 10.6875 12.40625 
L 21 12.40625 
L 21 0 
L 10.6875 0 
z
" id="DejaVuSans-2e"/>
     <path d="M 46 62.703125 
L 46 43.796875 
L 73.1875 43.796875 
L 73.1875 35.5 
L 46 35.5 
L 46 16.609375 
L 37.796875 16.609375 
L 37.796875 35.5 
L 10.59375 35.5 
L 10.59375 43.796875 
L 37.796875 43.796875 
L 37.796875 62.703125 
z
M 10.59375 8.296875 
L 73.1875 8.296875 
L 73.1875 0 
L 10.59375 0 
z
" id="DejaVuSans-b1"/>
     <path d="M 33.015625 40.375 
Q 26.375 40.375 22.484375 35.828125 
Q 18.609375 31.296875 18.609375 23.390625 
Q 18.609375 15.53125 22.484375 10.953125 
Q 26.375 6.390625 33.015625 6.390625 
Q 39.65625 6.390625 43.53125 10.953125 
Q 47.40625 15.53125 47.40625 23.390625 
Q 47.40625 31.296875 43.53125 35.828125 
Q 39.65625 40.375 33.015625 40.375 
z
M 52.59375 71.296875 
L 52.59375 62.3125 
Q 48.875 64.0625 45.09375 64.984375 
Q 41.3125 65.921875 37.59375 65.921875 
Q 27.828125 65.921875 22.671875 59.328125 
Q 17.53125 52.734375 16.796875 39.40625 
Q 19.671875 43.65625 24.015625 45.921875 
Q 28.375 48.1875 33.59375 48.1875 
Q 44.578125 48.1875 50.953125 41.515625 
Q 57.328125 34.859375 57.328125 23.390625 
Q 57.328125 12.15625 50.6875 5.359375 
Q 44.046875 -1.421875 33.015625 -1.421875 
Q 20.359375 -1.421875 13.671875 8.265625 
Q 6.984375 17.96875 6.984375 36.375 
Q 6.984375 53.65625 15.1875 63.9375 
Q 23.390625 74.21875 37.203125 74.21875 
Q 40.921875 74.21875 44.703125 73.484375 
Q 48.484375 72.75 52.59375 71.296875 
z
" id="DejaVuSans-36"/>
     <path d="M 11.71875 12.40625 
L 22.015625 12.40625 
L 22.015625 4 
L 14.015625 -11.625 
L 7.71875 -11.625 
L 11.71875 4 
z
" id="DejaVuSans-2c"/>
     <path d="M 37.796875 64.3125 
L 12.890625 25.390625 
L 37.796875 25.390625 
z
M 35.203125 72.90625 
L 47.609375 72.90625 
L 47.609375 25.390625 
L 58.015625 25.390625 
L 58.015625 17.1875 
L 47.609375 17.1875 
L 47.609375 0 
L 37.796875 0 
L 37.796875 17.1875 
L 4.890625 17.1875 
L 4.890625 26.703125 
z
" id="DejaVuSans-34"/>
     <path d="M 8.203125 72.90625 
L 55.078125 72.90625 
L 55.078125 68.703125 
L 28.609375 0 
L 18.3125 0 
L 43.21875 64.59375 
L 8.203125 64.59375 
z
" id="DejaVuSans-37"/>
     <path d="M 10.796875 72.90625 
L 49.515625 72.90625 
L 49.515625 64.59375 
L 19.828125 64.59375 
L 19.828125 46.734375 
Q 21.96875 47.46875 24.109375 47.828125 
Q 26.265625 48.1875 28.421875 48.1875 
Q 40.625 48.1875 47.75 41.5 
Q 54.890625 34.8125 54.890625 23.390625 
Q 54.890625 11.625 47.5625 5.09375 
Q 40.234375 -1.421875 26.90625 -1.421875 
Q 22.3125 -1.421875 17.546875 -0.640625 
Q 12.796875 0.140625 7.71875 1.703125 
L 7.71875 11.625 
Q 12.109375 9.234375 16.796875 8.0625 
Q 21.484375 6.890625 26.703125 6.890625 
Q 35.15625 6.890625 40.078125 11.328125 
Q 45.015625 15.765625 45.015625 23.390625 
Q 45.015625 31 40.078125 35.4375 
Q 35.15625 39.890625 26.703125 39.890625 
Q 22.75 39.890625 18.8125 39.015625 
Q 14.890625 38.140625 10.796875 36.28125 
z
" id="DejaVuSans-35"/>
     <path d="M 10.984375 1.515625 
L 10.984375 10.5 
Q 14.703125 8.734375 18.5 7.8125 
Q 22.3125 6.890625 25.984375 6.890625 
Q 35.75 6.890625 40.890625 13.453125 
Q 46.046875 20.015625 46.78125 33.40625 
Q 43.953125 29.203125 39.59375 26.953125 
Q 35.25 24.703125 29.984375 24.703125 
Q 19.046875 24.703125 12.671875 31.3125 
Q 6.296875 37.9375 6.296875 49.421875 
Q 6.296875 60.640625 12.9375 67.421875 
Q 19.578125 74.21875 30.609375 74.21875 
Q 43.265625 74.21875 49.921875 64.515625 
Q 56.59375 54.828125 56.59375 36.375 
Q 56.59375 19.140625 48.40625 8.859375 
Q 40.234375 -1.421875 26.421875 -1.421875 
Q 22.703125 -1.421875 18.890625 -0.6875 
Q 15.09375 0.046875 10.984375 1.515625 
z
M 30.609375 32.421875 
Q 37.25 32.421875 41.125 36.953125 
Q 45.015625 41.5 45.015625 49.421875 
Q 45.015625 57.28125 41.125 61.84375 
Q 37.25 66.40625 30.609375 66.40625 
Q 23.96875 66.40625 20.09375 61.84375 
Q 16.21875 57.28125 16.21875 49.421875 
Q 16.21875 41.5 20.09375 36.953125 
Q 23.96875 32.421875 30.609375 32.421875 
z
" id="DejaVuSans-39"/>
    </defs>
    <g transform="translate(147.528 57.0864)scale(0.1 -0.1)">
     <use transform="translate(0 0.015625)" xlink:href="#DejaVuSans-46"/>
     <use transform="translate(57.519531 0.015625)" xlink:href="#DejaVuSans-69"/>
     <use transform="translate(85.302734 0.015625)" xlink:href="#DejaVuSans-74"/>
     <use transform="translate(124.511719 0.015625)" xlink:href="#DejaVuSans-3a"/>
     <use transform="translate(158.203125 0.015625)" xlink:href="#DejaVuSans-20"/>
     <use transform="translate(189.990234 0.015625)" xlink:href="#DejaVuSans-61"/>
     <use transform="translate(251.269531 0.015625)" xlink:href="#DejaVuSans-3d"/>
     <use transform="translate(335.058594 0.015625)" xlink:href="#DejaVuSans-33"/>
     <use transform="translate(398.681641 0.015625)" xlink:href="#DejaVuSans-38"/>
     <use transform="translate(462.304688 0.015625)" xlink:href="#DejaVuSans-33"/>
     <use transform="translate(525.927734 0.015625)" xlink:href="#DejaVuSans-2e"/>
     <use transform="translate(557.714844 0.015625)" xlink:href="#DejaVuSans-30"/>
     <use transform="translate(621.337891 0.015625)" xlink:href="#DejaVuSans-b1"/>
     <use transform="translate(705.126953 0.015625)" xlink:href="#DejaVuSans-36"/>
     <use transform="translate(768.75 0.015625)" xlink:href="#DejaVuSans-2e"/>
     <use transform="translate(800.458984 0.015625)" xlink:href="#DejaVuSans-32"/>
     <use transform="translate(864.082031 0.015625)" xlink:href="#DejaVuSans-2c"/>
     <use transform="translate(895.869141 0.015625)" xlink:href="#DejaVuSans-20"/>
     <use transform="translate(927.65625 0.015625)" xlink:href="#DejaVuSans-62"/>
     <use transform="translate(991.132812 0.015625)" xlink:href="#DejaVuSans-3d"/>
     <use transform="translate(1074.921875 0.015625)" xlink:href="#DejaVuSans-32"/>
     <use transform="translate(1138.544922 0.015625)" xlink:href="#DejaVuSans-36"/>
     <use transform="translate(1202.167969 0.015625)" xlink:href="#DejaVuSans-2e"/>
     <use transform="translate(1233.955078 0.015625)" xlink:href="#DejaVuSans-34"/>
     <use transform="translate(1297.578125 0.015625)" xlink:href="#DejaVuSans-b1"/>
     <use transform="translate(1381.367188 0.015625)" xlink:href="#DejaVuSans-36"/>
     <use transform="translate(1444.990234 0.015625)" xlink:href="#DejaVuSans-2e"/>
     <use transform="translate(1476.667969 0.015625)" xlink:href="#DejaVuSans-37"/>
     <use transform="translate(1540.291016 0.015625)" xlink:href="#DejaVuSans-2c"/>
     <use transform="translate(1572.078125 0.015625)" xlink:href="#DejaVuSans-20"/>
     <use transform="translate(1603.865234 0.015625)" xlink:href="#DejaVuSans-78"/>
     <use transform="translate(1663.044922 0.015625)" xlink:href="#DejaVuSans-30"/>
     <use transform="translate(1726.667969 0.015625)" xlink:href="#DejaVuSans-3d"/>
     <use transform="translate(1810.457031 0.015625)" xlink:href="#DejaVuSans-34"/>
     <use transform="translate(1874.080078 0.015625)" xlink:href="#DejaVuSans-2e"/>
     <use transform="translate(1905.867188 0.015625)" xlink:href="#DejaVuSans-34"/>
     <use transform="translate(1969.490234 0.015625)" xlink:href="#DejaVuSans-38"/>
     <use transform="translate(2033.113281 0.015625)" xlink:href="#DejaVuSans-35"/>
     <use transform="translate(2096.736328 0.015625)" xlink:href="#DejaVuSans-35"/>
     <use transform="translate(2160.359375 0.015625)" xlink:href="#DejaVuSans-b1"/>
     <use transform="translate(2244.148438 0.015625)" xlink:href="#DejaVuSans-30"/>
     <use transform="translate(2307.771484 0.015625)" xlink:href="#DejaVuSans-2e"/>
     <use transform="translate(2339.558594 0.015625)" xlink:href="#DejaVuSans-30"/>
     <use transform="translate(2403.181641 0.015625)" xlink:href="#DejaVuSans-30"/>
     <use transform="translate(2466.804688 0.015625)" xlink:href="#DejaVuSans-31"/>
     <use transform="translate(2530.427734 0.015625)" xlink:href="#DejaVuSans-31"/>
     <use transform="translate(2594.050781 0.015625)" xlink:href="#DejaVuSans-2c"/>
     <use transform="translate(2625.837891 0.015625)" xlink:href="#DejaVuSans-20"/>
     <use transform="translate(2657.625 0.015625)" xlink:href="#DejaVuSans-77"/>
     <use transform="translate(2739.412109 0.015625)" xlink:href="#DejaVuSans-3d"/>
     <use transform="translate(2823.201172 0.015625)" xlink:href="#DejaVuSans-30"/>
     <use transform="translate(2886.824219 0.015625)" xlink:href="#DejaVuSans-2e"/>
     <use transform="translate(2918.611328 0.015625)" xlink:href="#DejaVuSans-31"/>
     <use transform="translate(2982.234375 0.015625)" xlink:href="#DejaVuSans-37"/>
     <use transform="translate(3045.857422 0.015625)" xlink:href="#DejaVuSans-33"/>
     <use transform="translate(3109.480469 0.015625)" xlink:href="#DejaVuSans-39"/>
     <use transform="translate(3173.103516 0.015625)" xlink:href="#DejaVuSans-b1"/>
     <use transform="translate(3256.892578 0.015625)" xlink:href="#DejaVuSans-30"/>
     <use transform="translate(3320.515625 0.015625)" xlink:href="#DejaVuSans-2e"/>
     <use transform="translate(3352.302734 0.015625)" xlink:href="#DejaVuSans-30"/>
     <use transform="translate(3415.925781 0.015625)" xlink:href="#DejaVuSans-30"/>
     <use transform="translate(3479.548828 0.015625)" xlink:href="#DejaVuSans-34"/>
     <use transform="translate(3543.171875 0.015625)" xlink:href="#DejaVuSans-31"/>
     <use transform="translate(3606.794922 0.015625)" xlink:href="#DejaVuSans-2c"/>
    </g>
   </g>
  </g>
  <g id="axes_2">
   <g id="patch_7">
    <path d="M 147.528 436.752 
L 885.168 436.752 
L 885.168 145.584 
L 147.528 145.584 
z
" style="fill:#ffffff;"/>
   </g>
   <g id="matplotlib.axis_3">
    <g id="xtick_7">
     <g id="line2d_12">
      <g>
       <use style="stroke:#000000;stroke-width:0.8;" x="158.253827" xlink:href="#m481f16bed0" y="436.752"/>
      </g>
     </g>
     <g id="text_5">
      <!-- 4.2 -->
      <g transform="translate(148.711952 452.870125)scale(0.12 -0.12)">
       <use xlink:href="#DejaVuSans-34"/>
       <use x="63.623047" xlink:href="#DejaVuSans-2e"/>
       <use x="95.410156" xlink:href="#DejaVuSans-32"/>
      </g>
     </g>
    </g>
    <g id="xtick_8">
     <g id="line2d_13">
      <g>
       <use style="stroke:#000000;stroke-width:0.8;" x="284.422273" xlink:href="#m481f16bed0" y="436.752"/>
      </g>
     </g>
     <g id="text_6">
      <!-- 4.3 -->
      <g transform="translate(274.880398 452.870125)scale(0.12 -0.12)">
       <use xlink:href="#DejaVuSans-34"/>
       <use x="63.623047" xlink:href="#DejaVuSans-2e"/>
       <use x="95.410156" xlink:href="#DejaVuSans-33"/>
      </g>
     </g>
    </g>
    <g id="xtick_9">
     <g id="line2d_14">
      <g>
       <use style="stroke:#000000;stroke-width:0.8;" x="410.590719" xlink:href="#m481f16bed0" y="436.752"/>
      </g>
     </g>
     <g id="text_7">
      <!-- 4.4 -->
      <g transform="translate(401.048844 452.870125)scale(0.12 -0.12)">
       <use xlink:href="#DejaVuSans-34"/>
       <use x="63.623047" xlink:href="#DejaVuSans-2e"/>
       <use x="95.410156" xlink:href="#DejaVuSans-34"/>
      </g>
     </g>
    </g>
    <g id="xtick_10">
     <g id="line2d_15">
      <g>
       <use style="stroke:#000000;stroke-width:0.8;" x="536.759165" xlink:href="#m481f16bed0" y="436.752"/>
      </g>
     </g>
     <g id="text_8">
      <!-- 4.5 -->
      <g transform="translate(527.21729 452.870125)scale(0.12 -0.12)">
       <use xlink:href="#DejaVuSans-34"/>
       <use x="63.623047" xlink:href="#DejaVuSans-2e"/>
       <use x="95.410156" xlink:href="#DejaVuSans-35"/>
      </g>
     </g>
    </g>
    <g id="xtick_11">
     <g id="line2d_16">
      <g>
       <use style="stroke:#000000;stroke-width:0.8;" x="662.927611" xlink:href="#m481f16bed0" y="436.752"/>
      </g>
     </g>
     <g id="text_9">
      <!-- 4.6 -->
      <g transform="translate(653.385736 452.870125)scale(0.12 -0.12)">
       <use xlink:href="#DejaVuSans-34"/>
       <use x="63.623047" xlink:href="#DejaVuSans-2e"/>
       <use x="95.410156" xlink:href="#DejaVuSans-36"/>
      </g>
     </g>
    </g>
    <g id="xtick_12">
     <g id="line2d_17">
      <g>
       <use style="stroke:#000000;stroke-width:0.8;" x="789.096057" xlink:href="#m481f16bed0" y="436.752"/>
      </g>
     </g>
     <g id="text_10">
      <!-- 4.7 -->
      <g transform="translate(779.554182 452.870125)scale(0.12 -0.12)">
       <use xlink:href="#DejaVuSans-34"/>
       <use x="63.623047" xlink:href="#DejaVuSans-2e"/>
       <use x="95.410156" xlink:href="#DejaVuSans-37"/>
      </g>
     </g>
    </g>
    <g id="text_11">
     <!-- Energy [MeV] -->
     <defs>
      <path d="M 9.8125 72.90625 
L 55.90625 72.90625 
L 55.90625 64.59375 
L 19.671875 64.59375 
L 19.671875 43.015625 
L 54.390625 43.015625 
L 54.390625 34.71875 
L 19.671875 34.71875 
L 19.671875 8.296875 
L 56.78125 8.296875 
L 56.78125 0 
L 9.8125 0 
z
" id="DejaVuSans-45"/>
      <path d="M 41.109375 46.296875 
Q 39.59375 47.171875 37.8125 47.578125 
Q 36.03125 48 33.890625 48 
Q 26.265625 48 22.1875 43.046875 
Q 18.109375 38.09375 18.109375 28.8125 
L 18.109375 0 
L 9.078125 0 
L 9.078125 54.6875 
L 18.109375 54.6875 
L 18.109375 46.1875 
Q 20.953125 51.171875 25.484375 53.578125 
Q 30.03125 56 36.53125 56 
Q 37.453125 56 38.578125 55.875 
Q 39.703125 55.765625 41.0625 55.515625 
z
" id="DejaVuSans-72"/>
      <path d="M 45.40625 27.984375 
Q 45.40625 37.75 41.375 43.109375 
Q 37.359375 48.484375 30.078125 48.484375 
Q 22.859375 48.484375 18.828125 43.109375 
Q 14.796875 37.75 14.796875 27.984375 
Q 14.796875 18.265625 18.828125 12.890625 
Q 22.859375 7.515625 30.078125 7.515625 
Q 37.359375 7.515625 41.375 12.890625 
Q 45.40625 18.265625 45.40625 27.984375 
z
M 54.390625 6.78125 
Q 54.390625 -7.171875 48.1875 -13.984375 
Q 42 -20.796875 29.203125 -20.796875 
Q 24.46875 -20.796875 20.265625 -20.09375 
Q 16.0625 -19.390625 12.109375 -17.921875 
L 12.109375 -9.1875 
Q 16.0625 -11.328125 19.921875 -12.34375 
Q 23.78125 -13.375 27.78125 -13.375 
Q 36.625 -13.375 41.015625 -8.765625 
Q 45.40625 -4.15625 45.40625 5.171875 
L 45.40625 9.625 
Q 42.625 4.78125 38.28125 2.390625 
Q 33.9375 0 27.875 0 
Q 17.828125 0 11.671875 7.65625 
Q 5.515625 15.328125 5.515625 27.984375 
Q 5.515625 40.671875 11.671875 48.328125 
Q 17.828125 56 27.875 56 
Q 33.9375 56 38.28125 53.609375 
Q 42.625 51.21875 45.40625 46.390625 
L 45.40625 54.6875 
L 54.390625 54.6875 
z
" id="DejaVuSans-67"/>
      <path d="M 8.59375 75.984375 
L 29.296875 75.984375 
L 29.296875 69 
L 17.578125 69 
L 17.578125 -6.203125 
L 29.296875 -6.203125 
L 29.296875 -13.1875 
L 8.59375 -13.1875 
z
" id="DejaVuSans-5b"/>
      <path d="M 9.8125 72.90625 
L 24.515625 72.90625 
L 43.109375 23.296875 
L 61.8125 72.90625 
L 76.515625 72.90625 
L 76.515625 0 
L 66.890625 0 
L 66.890625 64.015625 
L 48.09375 14.015625 
L 38.1875 14.015625 
L 19.390625 64.015625 
L 19.390625 0 
L 9.8125 0 
z
" id="DejaVuSans-4d"/>
      <path d="M 28.609375 0 
L 0.78125 72.90625 
L 11.078125 72.90625 
L 34.1875 11.53125 
L 57.328125 72.90625 
L 67.578125 72.90625 
L 39.796875 0 
z
" id="DejaVuSans-56"/>
      <path d="M 30.421875 75.984375 
L 30.421875 -13.1875 
L 9.71875 -13.1875 
L 9.71875 -6.203125 
L 21.390625 -6.203125 
L 21.390625 69 
L 9.71875 69 
L 9.71875 75.984375 
z
" id="DejaVuSans-5d"/>
     </defs>
     <g transform="translate(475.674562 468.483875)scale(0.12 -0.12)">
      <use xlink:href="#DejaVuSans-45"/>
      <use x="63.183594" xlink:href="#DejaVuSans-6e"/>
      <use x="126.5625" xlink:href="#DejaVuSans-65"/>
      <use x="188.085938" xlink:href="#DejaVuSans-72"/>
      <use x="229.183594" xlink:href="#DejaVuSans-67"/>
      <use x="292.660156" xlink:href="#DejaVuSans-79"/>
      <use x="351.839844" xlink:href="#DejaVuSans-20"/>
      <use x="383.626953" xlink:href="#DejaVuSans-5b"/>
      <use x="422.640625" xlink:href="#DejaVuSans-4d"/>
      <use x="508.919922" xlink:href="#DejaVuSans-65"/>
      <use x="570.443359" xlink:href="#DejaVuSans-56"/>
      <use x="638.851562" xlink:href="#DejaVuSans-5d"/>
     </g>
    </g>
   </g>
   <g id="matplotlib.axis_4">
    <g id="ytick_4">
     <g id="line2d_18">
      <g>
       <use style="stroke:#000000;stroke-width:0.8;" x="147.528" xlink:href="#mb2c2ea578d" y="436.092061"/>
      </g>
     </g>
     <g id="text_12">
      <!-- 50 -->
      <g transform="translate(125.258 440.651124)scale(0.12 -0.12)">
       <use xlink:href="#DejaVuSans-35"/>
       <use x="63.623047" xlink:href="#DejaVuSans-30"/>
      </g>
     </g>
    </g>
    <g id="ytick_5">
     <g id="line2d_19">
      <g>
       <use style="stroke:#000000;stroke-width:0.8;" x="147.528" xlink:href="#mb2c2ea578d" y="398.595538"/>
      </g>
     </g>
     <g id="text_13">
      <!-- 100 -->
      <g transform="translate(117.623 403.154601)scale(0.12 -0.12)">
       <use xlink:href="#DejaVuSans-31"/>
       <use x="63.623047" xlink:href="#DejaVuSans-30"/>
       <use x="127.246094" xlink:href="#DejaVuSans-30"/>
      </g>
     </g>
    </g>
    <g id="ytick_6">
     <g id="line2d_20">
      <g>
       <use style="stroke:#000000;stroke-width:0.8;" x="147.528" xlink:href="#mb2c2ea578d" y="361.099015"/>
      </g>
     </g>
     <g id="text_14">
      <!-- 150 -->
      <g transform="translate(117.623 365.658078)scale(0.12 -0.12)">
       <use xlink:href="#DejaVuSans-31"/>
       <use x="63.623047" xlink:href="#DejaVuSans-35"/>
       <use x="127.246094" xlink:href="#DejaVuSans-30"/>
      </g>
     </g>
    </g>
    <g id="ytick_7">
     <g id="line2d_21">
      <g>
       <use style="stroke:#000000;stroke-width:0.8;" x="147.528" xlink:href="#mb2c2ea578d" y="323.602492"/>
      </g>
     </g>
     <g id="text_15">
      <!-- 200 -->
      <g transform="translate(117.623 328.161555)scale(0.12 -0.12)">
       <use xlink:href="#DejaVuSans-32"/>
       <use x="63.623047" xlink:href="#DejaVuSans-30"/>
       <use x="127.246094" xlink:href="#DejaVuSans-30"/>
      </g>
     </g>
    </g>
    <g id="ytick_8">
     <g id="line2d_22">
      <g>
       <use style="stroke:#000000;stroke-width:0.8;" x="147.528" xlink:href="#mb2c2ea578d" y="286.105969"/>
      </g>
     </g>
     <g id="text_16">
      <!-- 250 -->
      <g transform="translate(117.623 290.665032)scale(0.12 -0.12)">
       <use xlink:href="#DejaVuSans-32"/>
       <use x="63.623047" xlink:href="#DejaVuSans-35"/>
       <use x="127.246094" xlink:href="#DejaVuSans-30"/>
      </g>
     </g>
    </g>
    <g id="ytick_9">
     <g id="line2d_23">
      <g>
       <use style="stroke:#000000;stroke-width:0.8;" x="147.528" xlink:href="#mb2c2ea578d" y="248.609446"/>
      </g>
     </g>
     <g id="text_17">
      <!-- 300 -->
      <g transform="translate(117.623 253.168509)scale(0.12 -0.12)">
       <use xlink:href="#DejaVuSans-33"/>
       <use x="63.623047" xlink:href="#DejaVuSans-30"/>
       <use x="127.246094" xlink:href="#DejaVuSans-30"/>
      </g>
     </g>
    </g>
    <g id="ytick_10">
     <g id="line2d_24">
      <g>
       <use style="stroke:#000000;stroke-width:0.8;" x="147.528" xlink:href="#mb2c2ea578d" y="211.112924"/>
      </g>
     </g>
     <g id="text_18">
      <!-- 350 -->
      <g transform="translate(117.623 215.671986)scale(0.12 -0.12)">
       <use xlink:href="#DejaVuSans-33"/>
       <use x="63.623047" xlink:href="#DejaVuSans-35"/>
       <use x="127.246094" xlink:href="#DejaVuSans-30"/>
      </g>
     </g>
    </g>
    <g id="ytick_11">
     <g id="line2d_25">
      <g>
       <use style="stroke:#000000;stroke-width:0.8;" x="147.528" xlink:href="#mb2c2ea578d" y="173.616401"/>
      </g>
     </g>
     <g id="text_19">
      <!-- 400 -->
      <g transform="translate(117.623 178.175463)scale(0.12 -0.12)">
       <use xlink:href="#DejaVuSans-34"/>
       <use x="63.623047" xlink:href="#DejaVuSans-30"/>
       <use x="127.246094" xlink:href="#DejaVuSans-30"/>
      </g>
     </g>
    </g>
    <g id="text_20">
     <!-- Counts -->
     <defs>
      <path d="M 64.40625 67.28125 
L 64.40625 56.890625 
Q 59.421875 61.53125 53.78125 63.8125 
Q 48.140625 66.109375 41.796875 66.109375 
Q 29.296875 66.109375 22.65625 58.46875 
Q 16.015625 50.828125 16.015625 36.375 
Q 16.015625 21.96875 22.65625 14.328125 
Q 29.296875 6.6875 41.796875 6.6875 
Q 48.140625 6.6875 53.78125 8.984375 
Q 59.421875 11.28125 64.40625 15.921875 
L 64.40625 5.609375 
Q 59.234375 2.09375 53.4375 0.328125 
Q 47.65625 -1.421875 41.21875 -1.421875 
Q 24.65625 -1.421875 15.125 8.703125 
Q 5.609375 18.84375 5.609375 36.375 
Q 5.609375 53.953125 15.125 64.078125 
Q 24.65625 74.21875 41.21875 74.21875 
Q 47.75 74.21875 53.53125 72.484375 
Q 59.328125 70.75 64.40625 67.28125 
z
" id="DejaVuSans-43"/>
     </defs>
     <g transform="translate(111.127375 312.11175)rotate(-90)scale(0.12 -0.12)">
      <use xlink:href="#DejaVuSans-43"/>
      <use x="69.824219" xlink:href="#DejaVuSans-6f"/>
      <use x="131.005859" xlink:href="#DejaVuSans-75"/>
      <use x="194.384766" xlink:href="#DejaVuSans-6e"/>
      <use x="257.763672" xlink:href="#DejaVuSans-74"/>
      <use x="296.972656" xlink:href="#DejaVuSans-73"/>
     </g>
    </g>
   </g>
   <g id="LineCollection_2">
    <path clip-path="url(#pa686722a03)" d="M 174.848 429.833706 
L 174.848 417.602711 
" style="fill:none;stroke:#0000ff;stroke-width:1.5;"/>
    <path clip-path="url(#pa686722a03)" d="M 182.353495 431.943962 
L 182.353495 419.992038 
" style="fill:none;stroke:#0000ff;stroke-width:1.5;"/>
    <path clip-path="url(#pa686722a03)" d="M 197.364484 428.425127 
L 197.364484 416.011569 
" style="fill:none;stroke:#0000ff;stroke-width:1.5;"/>
    <path clip-path="url(#pa686722a03)" d="M 204.869978 421.717215 
L 204.869978 408.470802 
" style="fill:none;stroke:#0000ff;stroke-width:1.5;"/>
    <path clip-path="url(#pa686722a03)" d="M 212.375473 414.274667 
L 212.375473 400.16481 
" style="fill:none;stroke:#0000ff;stroke-width:1.5;"/>
    <path clip-path="url(#pa686722a03)" d="M 219.880967 416.049134 
L 219.880967 402.139996 
" style="fill:none;stroke:#0000ff;stroke-width:1.5;"/>
    <path clip-path="url(#pa686722a03)" d="M 227.386462 407.519332 
L 227.386462 392.671466 
" style="fill:none;stroke:#0000ff;stroke-width:1.5;"/>
    <path clip-path="url(#pa686722a03)" d="M 234.891956 406.807183 
L 234.891956 391.883755 
" style="fill:none;stroke:#0000ff;stroke-width:1.5;"/>
    <path clip-path="url(#pa686722a03)" d="M 242.397451 391.812006 
L 242.397451 375.381852 
" style="fill:none;stroke:#0000ff;stroke-width:1.5;"/>
    <path clip-path="url(#pa686722a03)" d="M 249.902945 397.890121 
L 249.902945 382.052555 
" style="fill:none;stroke:#0000ff;stroke-width:1.5;"/>
    <path clip-path="url(#pa686722a03)" d="M 257.40844 399.675668 
L 257.40844 384.01666 
" style="fill:none;stroke:#0000ff;stroke-width:1.5;"/>
    <path clip-path="url(#pa686722a03)" d="M 264.913934 380.702533 
L 264.913934 363.243481 
" style="fill:none;stroke:#0000ff;stroke-width:1.5;"/>
    <path clip-path="url(#pa686722a03)" d="M 272.419429 388.589934 
L 272.419429 371.85455 
" style="fill:none;stroke:#0000ff;stroke-width:1.5;"/>
    <path clip-path="url(#pa686722a03)" d="M 279.924923 381.420191 
L 279.924923 364.025684 
" style="fill:none;stroke:#0000ff;stroke-width:1.5;"/>
    <path clip-path="url(#pa686722a03)" d="M 287.430418 358.762306 
L 287.430418 339.43795 
" style="fill:none;stroke:#0000ff;stroke-width:1.5;"/>
    <path clip-path="url(#pa686722a03)" d="M 294.935912 352.632184 
L 294.935912 332.819254 
" style="fill:none;stroke:#0000ff;stroke-width:1.5;"/>
    <path clip-path="url(#pa686722a03)" d="M 302.441407 363.085664 
L 302.441407 344.113757 
" style="fill:none;stroke:#0000ff;stroke-width:1.5;"/>
    <path clip-path="url(#pa686722a03)" d="M 309.946901 350.106283 
L 309.946901 330.095642 
" style="fill:none;stroke:#0000ff;stroke-width:1.5;"/>
    <path clip-path="url(#pa686722a03)" d="M 317.452396 342.161567 
L 317.452396 321.541888 
" style="fill:none;stroke:#0000ff;stroke-width:1.5;"/>
    <path clip-path="url(#pa686722a03)" d="M 324.95789 334.931494 
L 324.95789 313.773352 
" style="fill:none;stroke:#0000ff;stroke-width:1.5;"/>
    <path clip-path="url(#pa686722a03)" d="M 332.463385 316.465647 
L 332.463385 293.992745 
" style="fill:none;stroke:#0000ff;stroke-width:1.5;"/>
    <path clip-path="url(#pa686722a03)" d="M 339.968879 316.828093 
L 339.968879 294.38023 
" style="fill:none;stroke:#0000ff;stroke-width:1.5;"/>
    <path clip-path="url(#pa686722a03)" d="M 347.474374 317.552942 
L 347.474374 295.155242 
" style="fill:none;stroke:#0000ff;stroke-width:1.5;"/>
    <path clip-path="url(#pa686722a03)" d="M 354.979868 305.586004 
L 354.979868 282.374475 
" style="fill:none;stroke:#0000ff;stroke-width:1.5;"/>
    <path clip-path="url(#pa686722a03)" d="M 362.485363 288.882101 
L 362.485363 264.581577 
" style="fill:none;stroke:#0000ff;stroke-width:1.5;"/>
    <path clip-path="url(#pa686722a03)" d="M 369.990857 280.521196 
L 369.990857 255.69408 
" style="fill:none;stroke:#0000ff;stroke-width:1.5;"/>
    <path clip-path="url(#pa686722a03)" d="M 377.496352 273.974047 
L 377.496352 248.742481 
" style="fill:none;stroke:#0000ff;stroke-width:1.5;"/>
    <path clip-path="url(#pa686722a03)" d="M 385.001846 264.875523 
L 385.001846 239.092744 
" style="fill:none;stroke:#0000ff;stroke-width:1.5;"/>
    <path clip-path="url(#pa686722a03)" d="M 392.507341 250.670435 
L 392.507341 224.050544 
" style="fill:none;stroke:#0000ff;stroke-width:1.5;"/>
    <path clip-path="url(#pa686722a03)" d="M 400.012835 248.119418 
L 400.012835 221.352048 
" style="fill:none;stroke:#0000ff;stroke-width:1.5;"/>
    <path clip-path="url(#pa686722a03)" d="M 407.51833 234.264156 
L 407.51833 206.709952 
" style="fill:none;stroke:#0000ff;stroke-width:1.5;"/>
    <path clip-path="url(#pa686722a03)" d="M 415.023824 241.557821 
L 415.023824 214.414897 
" style="fill:none;stroke:#0000ff;stroke-width:1.5;"/>
    <path clip-path="url(#pa686722a03)" d="M 422.529319 233.169843 
L 422.529319 205.554474 
" style="fill:none;stroke:#0000ff;stroke-width:1.5;"/>
    <path clip-path="url(#pa686722a03)" d="M 430.034813 243.016179 
L 430.034813 215.95626 
" style="fill:none;stroke:#0000ff;stroke-width:1.5;"/>
    <path clip-path="url(#pa686722a03)" d="M 437.540308 232.440263 
L 437.540308 204.784194 
" style="fill:none;stroke:#0000ff;stroke-width:1.5;"/>
    <path clip-path="url(#pa686722a03)" d="M 445.045802 207.982825 
L 445.045802 178.996291 
" style="fill:none;stroke:#0000ff;stroke-width:1.5;"/>
    <path clip-path="url(#pa686722a03)" d="M 452.551297 221.128026 
L 452.551297 192.848586 
" style="fill:none;stroke:#0000ff;stroke-width:1.5;"/>
    <path clip-path="url(#pa686722a03)" d="M 460.056791 200.676258 
L 460.056791 171.304248 
" style="fill:none;stroke:#0000ff;stroke-width:1.5;"/>
    <path clip-path="url(#pa686722a03)" d="M 467.562286 182.76481 
L 467.562286 152.469104 
" style="fill:none;stroke:#0000ff;stroke-width:1.5;"/>
    <path clip-path="url(#pa686722a03)" d="M 475.06778 205.425817 
L 475.06778 176.303785 
" style="fill:none;stroke:#0000ff;stroke-width:1.5;"/>
    <path clip-path="url(#pa686722a03)" d="M 482.573275 198.483797 
L 482.573275 168.997126 
" style="fill:none;stroke:#0000ff;stroke-width:1.5;"/>
    <path clip-path="url(#pa686722a03)" d="M 490.078769 194.098211 
L 490.078769 164.383547 
" style="fill:none;stroke:#0000ff;stroke-width:1.5;"/>
    <path clip-path="url(#pa686722a03)" d="M 497.584264 189.711757 
L 497.584264 159.770836 
" style="fill:none;stroke:#0000ff;stroke-width:1.5;"/>
    <path clip-path="url(#pa686722a03)" d="M 505.089758 176.181596 
L 505.089758 145.553569 
" style="fill:none;stroke:#0000ff;stroke-width:1.5;"/>
    <path clip-path="url(#pa686722a03)" d="M 512.595253 183.13049 
L 512.595253 152.853354 
" style="fill:none;stroke:#0000ff;stroke-width:1.5;"/>
    <path clip-path="url(#pa686722a03)" d="M 520.100747 171.791793 
L 520.100747 140.944207 
" style="fill:none;stroke:#0000ff;stroke-width:1.5;"/>
    <path clip-path="url(#pa686722a03)" d="M 527.606242 188.249416 
L 527.606242 158.233455 
" style="fill:none;stroke:#0000ff;stroke-width:1.5;"/>
    <path clip-path="url(#pa686722a03)" d="M 535.111736 179.107692 
L 535.111736 148.626917 
" style="fill:none;stroke:#0000ff;stroke-width:1.5;"/>
    <path clip-path="url(#pa686722a03)" d="M 542.617231 178.376202 
L 542.617231 147.858547 
" style="fill:none;stroke:#0000ff;stroke-width:1.5;"/>
    <path clip-path="url(#pa686722a03)" d="M 550.122725 181.30203 
L 550.122725 150.932162 
" style="fill:none;stroke:#0000ff;stroke-width:1.5;"/>
    <path clip-path="url(#pa686722a03)" d="M 557.62822 203.233846 
L 557.62822 173.996174 
" style="fill:none;stroke:#0000ff;stroke-width:1.5;"/>
    <path clip-path="url(#pa686722a03)" d="M 565.133714 172.157639 
L 565.133714 141.328291 
" style="fill:none;stroke:#0000ff;stroke-width:1.5;"/>
    <path clip-path="url(#pa686722a03)" d="M 572.639209 214.921658 
L 572.639209 186.306136 
" style="fill:none;stroke:#0000ff;stroke-width:1.5;"/>
    <path clip-path="url(#pa686722a03)" d="M 580.144703 190.442892 
L 580.144703 160.539562 
" style="fill:none;stroke:#0000ff;stroke-width:1.5;"/>
    <path clip-path="url(#pa686722a03)" d="M 587.650198 201.772405 
L 587.650198 172.457893 
" style="fill:none;stroke:#0000ff;stroke-width:1.5;"/>
    <path clip-path="url(#pa686722a03)" d="M 595.155692 197.022033 
L 595.155692 167.459169 
" style="fill:none;stroke:#0000ff;stroke-width:1.5;"/>
    <path clip-path="url(#pa686722a03)" d="M 602.661187 212.000336 
L 602.661187 183.228015 
" style="fill:none;stroke:#0000ff;stroke-width:1.5;"/>
    <path clip-path="url(#pa686722a03)" d="M 610.166681 217.112367 
L 610.166681 188.61501 
" style="fill:none;stroke:#0000ff;stroke-width:1.5;"/>
    <path clip-path="url(#pa686722a03)" d="M 617.672176 237.181993 
L 617.672176 209.791559 
" style="fill:none;stroke:#0000ff;stroke-width:1.5;"/>
    <path clip-path="url(#pa686722a03)" d="M 625.17767 237.546688 
L 625.17767 210.176795 
" style="fill:none;stroke:#0000ff;stroke-width:1.5;"/>
    <path clip-path="url(#pa686722a03)" d="M 632.683165 255.042647 
L 632.683165 228.677498 
" style="fill:none;stroke:#0000ff;stroke-width:1.5;"/>
    <path clip-path="url(#pa686722a03)" d="M 640.188659 247.026001 
L 640.188659 220.195673 
" style="fill:none;stroke:#0000ff;stroke-width:1.5;"/>
    <path clip-path="url(#pa686722a03)" d="M 647.694154 271.06317 
L 647.694154 245.653915 
" style="fill:none;stroke:#0000ff;stroke-width:1.5;"/>
    <path clip-path="url(#pa686722a03)" d="M 655.199648 282.339261 
L 655.199648 257.625668 
" style="fill:none;stroke:#0000ff;stroke-width:1.5;"/>
    <path clip-path="url(#pa686722a03)" d="M 662.705143 289.245489 
L 662.705143 264.968119 
" style="fill:none;stroke:#0000ff;stroke-width:1.5;"/>
    <path clip-path="url(#pa686722a03)" d="M 670.210637 290.335586 
L 670.210637 266.127813 
" style="fill:none;stroke:#0000ff;stroke-width:1.5;"/>
    <path clip-path="url(#pa686722a03)" d="M 677.716132 289.245489 
L 677.716132 264.968119 
" style="fill:none;stroke:#0000ff;stroke-width:1.5;"/>
    <path clip-path="url(#pa686722a03)" d="M 685.221626 303.408674 
L 685.221626 280.052222 
" style="fill:none;stroke:#0000ff;stroke-width:1.5;"/>
    <path clip-path="url(#pa686722a03)" d="M 692.727121 312.115227 
L 692.727121 289.343999 
" style="fill:none;stroke:#0000ff;stroke-width:1.5;"/>
    <path clip-path="url(#pa686722a03)" d="M 700.232615 317.915345 
L 700.232615 295.542769 
" style="fill:none;stroke:#0000ff;stroke-width:1.5;"/>
    <path clip-path="url(#pa686722a03)" d="M 707.73811 317.915345 
L 707.73811 295.542769 
" style="fill:none;stroke:#0000ff;stroke-width:1.5;"/>
    <path clip-path="url(#pa686722a03)" d="M 715.243604 326.608677 
L 715.243604 304.847768 
" style="fill:none;stroke:#0000ff;stroke-width:1.5;"/>
    <path clip-path="url(#pa686722a03)" d="M 722.749099 342.884186 
L 722.749099 322.319129 
" style="fill:none;stroke:#0000ff;stroke-width:1.5;"/>
    <path clip-path="url(#pa686722a03)" d="M 730.254593 351.910598 
L 730.254593 332.040979 
" style="fill:none;stroke:#0000ff;stroke-width:1.5;"/>
    <path clip-path="url(#pa686722a03)" d="M 737.760088 362.00513 
L 737.760088 342.9445 
" style="fill:none;stroke:#0000ff;stroke-width:1.5;"/>
    <path clip-path="url(#pa686722a03)" d="M 745.265582 360.564099 
L 745.265582 341.385809 
" style="fill:none;stroke:#0000ff;stroke-width:1.5;"/>
    <path clip-path="url(#pa686722a03)" d="M 752.771077 369.204664 
L 752.771077 350.743575 
" style="fill:none;stroke:#0000ff;stroke-width:1.5;"/>
    <path clip-path="url(#pa686722a03)" d="M 760.276571 376.75332 
L 760.276571 358.943459 
" style="fill:none;stroke:#0000ff;stroke-width:1.5;"/>
    <path clip-path="url(#pa686722a03)" d="M 767.782066 381.778975 
L 767.782066 364.41683 
" style="fill:none;stroke:#0000ff;stroke-width:1.5;"/>
    <path clip-path="url(#pa686722a03)" d="M 775.28756 386.08198 
L 775.28756 369.112991 
" style="fill:none;stroke:#0000ff;stroke-width:1.5;"/>
    <path clip-path="url(#pa686722a03)" d="M 782.793055 398.247311 
L 782.793055 382.445296 
" style="fill:none;stroke:#0000ff;stroke-width:1.5;"/>
    <path clip-path="url(#pa686722a03)" d="M 790.298549 404.313179 
L 790.298549 389.128245 
" style="fill:none;stroke:#0000ff;stroke-width:1.5;"/>
    <path clip-path="url(#pa686722a03)" d="M 797.804044 414.984626 
L 797.804044 400.954712 
" style="fill:none;stroke:#0000ff;stroke-width:1.5;"/>
    <path clip-path="url(#pa686722a03)" d="M 805.309538 405.025983 
L 805.309538 389.915303 
" style="fill:none;stroke:#0000ff;stroke-width:1.5;"/>
    <path clip-path="url(#pa686722a03)" d="M 812.815033 406.807183 
L 812.815033 391.883755 
" style="fill:none;stroke:#0000ff;stroke-width:1.5;"/>
    <path clip-path="url(#pa686722a03)" d="M 820.320527 427.720337 
L 820.320527 415.216497 
" style="fill:none;stroke:#0000ff;stroke-width:1.5;"/>
    <path clip-path="url(#pa686722a03)" d="M 827.826022 414.274667 
L 827.826022 400.16481 
" style="fill:none;stroke:#0000ff;stroke-width:1.5;"/>
    <path clip-path="url(#pa686722a03)" d="M 835.331516 431.240903 
L 835.331516 419.195236 
" style="fill:none;stroke:#0000ff;stroke-width:1.5;"/>
    <path clip-path="url(#pa686722a03)" d="M 842.837011 430.889237 
L 842.837011 418.796972 
" style="fill:none;stroke:#0000ff;stroke-width:1.5;"/>
    <path clip-path="url(#pa686722a03)" d="M 857.848 431.592478 
L 857.848 419.593591 
" style="fill:none;stroke:#0000ff;stroke-width:1.5;"/>
   </g>
   <g id="line2d_26">
    <path clip-path="url(#pa686722a03)" d="M 174.848 472.247664 
L 185.786939 471.59804 
L 195.358511 470.810544 
L 203.562715 469.925511 
L 211.083235 468.903501 
L 217.920072 467.764932 
L 224.756909 466.392055 
L 230.910062 464.925405 
L 236.379532 463.413295 
L 241.849001 461.682092 
L 247.31847 459.708611 
L 252.104256 457.764127 
L 256.890042 455.599076 
L 261.675828 453.196576 
L 266.461614 450.539644 
L 271.247399 447.611393 
L 276.033185 444.395251 
L 280.818971 440.875202 
L 285.604757 437.036053 
L 290.390543 432.863711 
L 295.176328 428.345492 
L 299.962114 423.470429 
L 304.7479 418.229597 
L 309.533686 412.616441 
L 314.319471 406.627105 
L 319.105257 400.260745 
L 323.891043 393.519845 
L 328.676829 386.410493 
L 334.146298 377.847312 
L 339.615768 368.837453 
L 345.085237 359.409663 
L 351.23839 348.349342 
L 358.075227 335.57127 
L 365.595748 321.042798 
L 376.534687 299.36162 
L 392.943095 266.83847 
L 400.463616 252.480733 
L 406.616769 241.226318 
L 412.086238 231.710236 
L 416.872024 223.835732 
L 420.974126 217.469706 
L 425.076228 211.49611 
L 429.17833 205.949625 
L 432.596749 201.677485 
L 436.015167 197.742442 
L 439.433586 194.161002 
L 442.852004 190.948334 
L 445.586739 188.652987 
L 448.321473 186.608781 
L 451.056208 184.821373 
L 453.790943 183.29573 
L 456.525678 182.036108 
L 459.260412 181.046033 
L 461.995147 180.328282 
L 464.729882 179.884874 
L 467.464617 179.717057 
L 470.199351 179.825304 
L 472.934086 180.20931 
L 475.668821 180.867994 
L 478.403556 181.799503 
L 481.13829 183.001221 
L 483.873025 184.469784 
L 486.60776 186.201092 
L 489.342494 188.190328 
L 492.077229 190.431983 
L 494.811964 192.919882 
L 498.230382 196.365591 
L 501.648801 200.17072 
L 505.067219 204.319245 
L 508.485638 208.793877 
L 512.58774 214.56786 
L 516.689842 220.751048 
L 520.791944 227.307865 
L 525.57773 235.380253 
L 531.047199 245.088928 
L 537.200352 256.516435 
L 544.720873 271.022985 
L 554.976128 291.354013 
L 571.384537 323.896577 
L 579.588741 339.629096 
L 586.425578 352.255194 
L 592.578731 363.153814 
L 598.0482 372.421645 
L 603.51767 381.259383 
L 608.987139 389.641187 
L 613.772925 396.586432 
L 618.558711 403.160033 
L 623.344496 409.357551 
L 628.130282 415.17803 
L 632.916068 420.623704 
L 637.701854 425.699676 
L 642.48764 430.413606 
L 647.273425 434.775372 
L 652.059211 438.796752 
L 656.844997 442.491098 
L 661.630783 445.873033 
L 666.416569 448.958152 
L 671.202354 451.762753 
L 675.98814 454.303577 
L 680.773926 456.597578 
L 685.559712 458.661718 
L 691.029181 460.760786 
L 696.498651 462.606032 
L 701.96812 464.221118 
L 708.121273 465.791096 
L 714.274426 467.12875 
L 721.111263 468.376833 
L 728.631784 469.50091 
L 736.835988 470.477887 
L 745.723876 471.29661 
L 755.295447 471.95727 
L 766.91807 472.525663 
L 780.591744 472.96024 
L 797.683836 473.273467 
L 821.612765 473.475845 
L 857.848 473.567853 
L 857.848 473.567853 
" style="fill:none;stroke:#404040;stroke-linecap:square;stroke-width:1.5;"/>
   </g>
   <g id="line2d_27">
    <path clip-path="url(#pa686722a03)" d="M 174.848 429.094447 
L 182.368521 426.327349 
L 189.889041 423.32178 
L 197.409562 420.06652 
L 204.930082 416.55099 
L 211.766919 413.12096 
L 218.603756 409.461112 
L 225.440593 405.565607 
L 232.277429 401.429519 
L 239.114266 397.048955 
L 245.951103 392.421177 
L 252.78794 387.544715 
L 260.30846 381.893327 
L 267.828981 375.94296 
L 275.349502 369.697969 
L 282.870022 363.165222 
L 290.390543 356.354233 
L 298.594747 348.621231 
L 306.798951 340.591567 
L 315.686839 331.585845 
L 325.25841 321.570835 
L 336.197349 309.789171 
L 349.187339 295.453487 
L 394.994146 244.564463 
L 404.565718 234.448241 
L 412.769922 226.079957 
L 420.290442 218.707324 
L 427.127279 212.291143 
L 433.964116 206.181373 
L 440.117269 200.970845 
L 446.270422 196.056584 
L 451.739892 191.954367 
L 457.209361 188.117407 
L 462.678831 184.559196 
L 468.1483 181.292372 
L 472.934086 178.682154 
L 477.719872 176.31122 
L 482.505658 174.186162 
L 487.291443 172.312925 
L 492.077229 170.696772 
L 496.863015 169.342265 
L 501.648801 168.253238 
L 505.750903 167.533453 
L 509.853005 167.012506 
L 513.955107 166.691487 
L 518.057209 166.571069 
L 522.159311 166.651505 
L 526.261413 166.932626 
L 530.363516 167.413843 
L 534.465618 168.094148 
L 538.56772 168.972118 
L 543.353506 170.243773 
L 548.139291 171.778355 
L 552.925077 173.571528 
L 557.710863 175.618246 
L 562.496649 177.912776 
L 567.282434 180.448724 
L 572.06822 183.219068 
L 577.53769 186.662388 
L 583.007159 190.38961 
L 588.476629 194.387575 
L 593.946098 198.642311 
L 600.099251 203.717484 
L 606.252404 209.077114 
L 613.089241 215.338158 
L 619.926078 221.889992 
L 627.446599 229.393379 
L 635.650803 237.881918 
L 645.222374 248.108786 
L 656.844997 260.868256 
L 675.304456 281.525765 
L 695.814967 304.397018 
L 708.121273 317.781359 
L 718.376529 328.617569 
L 727.9481 338.406918 
L 736.835988 347.174287 
L 745.040192 354.963143 
L 753.244396 362.438849 
L 760.764917 369.002321 
L 768.285437 375.27894 
L 775.805958 381.261556 
L 783.326478 386.94555 
L 790.846999 392.328678 
L 797.683836 396.961286 
L 804.520673 401.346637 
L 811.35751 405.487447 
L 818.194346 409.387589 
L 825.031183 413.051969 
L 832.551704 416.817455 
L 840.072224 420.313586 
L 847.592745 423.550194 
L 855.113265 426.537915 
L 857.848 427.564834 
L 857.848 427.564834 
" style="fill:none;stroke:#ff0000;stroke-linecap:square;stroke-width:1.5;"/>
   </g>
   <g id="line2d_28">
    <g clip-path="url(#pa686722a03)">
     <use style="fill:#0000ff;stroke:#0000ff;" x="174.848" xlink:href="#m050e9c9327" y="423.718209"/>
     <use style="fill:#0000ff;stroke:#0000ff;" x="182.353495" xlink:href="#m050e9c9327" y="425.968"/>
     <use style="fill:#0000ff;stroke:#0000ff;" x="197.364484" xlink:href="#m050e9c9327" y="422.218348"/>
     <use style="fill:#0000ff;stroke:#0000ff;" x="204.869978" xlink:href="#m050e9c9327" y="415.094008"/>
     <use style="fill:#0000ff;stroke:#0000ff;" x="212.375473" xlink:href="#m050e9c9327" y="407.219739"/>
     <use style="fill:#0000ff;stroke:#0000ff;" x="219.880967" xlink:href="#m050e9c9327" y="409.094565"/>
     <use style="fill:#0000ff;stroke:#0000ff;" x="227.386462" xlink:href="#m050e9c9327" y="400.095399"/>
     <use style="fill:#0000ff;stroke:#0000ff;" x="234.891956" xlink:href="#m050e9c9327" y="399.345469"/>
     <use style="fill:#0000ff;stroke:#0000ff;" x="242.397451" xlink:href="#m050e9c9327" y="383.596929"/>
     <use style="fill:#0000ff;stroke:#0000ff;" x="249.902945" xlink:href="#m050e9c9327" y="389.971338"/>
     <use style="fill:#0000ff;stroke:#0000ff;" x="257.40844" xlink:href="#m050e9c9327" y="391.846164"/>
     <use style="fill:#0000ff;stroke:#0000ff;" x="264.913934" xlink:href="#m050e9c9327" y="371.973007"/>
     <use style="fill:#0000ff;stroke:#0000ff;" x="272.419429" xlink:href="#m050e9c9327" y="380.222242"/>
     <use style="fill:#0000ff;stroke:#0000ff;" x="279.924923" xlink:href="#m050e9c9327" y="372.722937"/>
     <use style="fill:#0000ff;stroke:#0000ff;" x="287.430418" xlink:href="#m050e9c9327" y="349.100128"/>
     <use style="fill:#0000ff;stroke:#0000ff;" x="294.935912" xlink:href="#m050e9c9327" y="342.725719"/>
     <use style="fill:#0000ff;stroke:#0000ff;" x="302.441407" xlink:href="#m050e9c9327" y="353.599711"/>
     <use style="fill:#0000ff;stroke:#0000ff;" x="309.946901" xlink:href="#m050e9c9327" y="340.100962"/>
     <use style="fill:#0000ff;stroke:#0000ff;" x="317.452396" xlink:href="#m050e9c9327" y="331.851727"/>
     <use style="fill:#0000ff;stroke:#0000ff;" x="324.95789" xlink:href="#m050e9c9327" y="324.352423"/>
     <use style="fill:#0000ff;stroke:#0000ff;" x="332.463385" xlink:href="#m050e9c9327" y="305.229196"/>
     <use style="fill:#0000ff;stroke:#0000ff;" x="339.968879" xlink:href="#m050e9c9327" y="305.604161"/>
     <use style="fill:#0000ff;stroke:#0000ff;" x="347.474374" xlink:href="#m050e9c9327" y="306.354092"/>
     <use style="fill:#0000ff;stroke:#0000ff;" x="354.979868" xlink:href="#m050e9c9327" y="293.980239"/>
     <use style="fill:#0000ff;stroke:#0000ff;" x="362.485363" xlink:href="#m050e9c9327" y="276.731839"/>
     <use style="fill:#0000ff;stroke:#0000ff;" x="369.990857" xlink:href="#m050e9c9327" y="268.107638"/>
     <use style="fill:#0000ff;stroke:#0000ff;" x="377.496352" xlink:href="#m050e9c9327" y="261.358264"/>
     <use style="fill:#0000ff;stroke:#0000ff;" x="385.001846" xlink:href="#m050e9c9327" y="251.984134"/>
     <use style="fill:#0000ff;stroke:#0000ff;" x="392.507341" xlink:href="#m050e9c9327" y="237.36049"/>
     <use style="fill:#0000ff;stroke:#0000ff;" x="400.012835" xlink:href="#m050e9c9327" y="234.735733"/>
     <use style="fill:#0000ff;stroke:#0000ff;" x="407.51833" xlink:href="#m050e9c9327" y="220.487054"/>
     <use style="fill:#0000ff;stroke:#0000ff;" x="415.023824" xlink:href="#m050e9c9327" y="227.986359"/>
     <use style="fill:#0000ff;stroke:#0000ff;" x="422.529319" xlink:href="#m050e9c9327" y="219.362159"/>
     <use style="fill:#0000ff;stroke:#0000ff;" x="430.034813" xlink:href="#m050e9c9327" y="229.48622"/>
     <use style="fill:#0000ff;stroke:#0000ff;" x="437.540308" xlink:href="#m050e9c9327" y="218.612228"/>
     <use style="fill:#0000ff;stroke:#0000ff;" x="445.045802" xlink:href="#m050e9c9327" y="193.489558"/>
     <use style="fill:#0000ff;stroke:#0000ff;" x="452.551297" xlink:href="#m050e9c9327" y="206.988306"/>
     <use style="fill:#0000ff;stroke:#0000ff;" x="460.056791" xlink:href="#m050e9c9327" y="185.990253"/>
     <use style="fill:#0000ff;stroke:#0000ff;" x="467.562286" xlink:href="#m050e9c9327" y="167.616957"/>
     <use style="fill:#0000ff;stroke:#0000ff;" x="475.06778" xlink:href="#m050e9c9327" y="190.864801"/>
     <use style="fill:#0000ff;stroke:#0000ff;" x="482.573275" xlink:href="#m050e9c9327" y="183.740462"/>
     <use style="fill:#0000ff;stroke:#0000ff;" x="490.078769" xlink:href="#m050e9c9327" y="179.240879"/>
     <use style="fill:#0000ff;stroke:#0000ff;" x="497.584264" xlink:href="#m050e9c9327" y="174.741296"/>
     <use style="fill:#0000ff;stroke:#0000ff;" x="505.089758" xlink:href="#m050e9c9327" y="160.867583"/>
     <use style="fill:#0000ff;stroke:#0000ff;" x="512.595253" xlink:href="#m050e9c9327" y="167.991922"/>
     <use style="fill:#0000ff;stroke:#0000ff;" x="520.100747" xlink:href="#m050e9c9327" y="156.368"/>
     <use style="fill:#0000ff;stroke:#0000ff;" x="527.606242" xlink:href="#m050e9c9327" y="173.241435"/>
     <use style="fill:#0000ff;stroke:#0000ff;" x="535.111736" xlink:href="#m050e9c9327" y="163.867305"/>
     <use style="fill:#0000ff;stroke:#0000ff;" x="542.617231" xlink:href="#m050e9c9327" y="163.117374"/>
     <use style="fill:#0000ff;stroke:#0000ff;" x="550.122725" xlink:href="#m050e9c9327" y="166.117096"/>
     <use style="fill:#0000ff;stroke:#0000ff;" x="557.62822" xlink:href="#m050e9c9327" y="188.61501"/>
     <use style="fill:#0000ff;stroke:#0000ff;" x="565.133714" xlink:href="#m050e9c9327" y="156.742965"/>
     <use style="fill:#0000ff;stroke:#0000ff;" x="572.639209" xlink:href="#m050e9c9327" y="200.613897"/>
     <use style="fill:#0000ff;stroke:#0000ff;" x="580.144703" xlink:href="#m050e9c9327" y="175.491227"/>
     <use style="fill:#0000ff;stroke:#0000ff;" x="587.650198" xlink:href="#m050e9c9327" y="187.115149"/>
     <use style="fill:#0000ff;stroke:#0000ff;" x="595.155692" xlink:href="#m050e9c9327" y="182.240601"/>
     <use style="fill:#0000ff;stroke:#0000ff;" x="602.661187" xlink:href="#m050e9c9327" y="197.614175"/>
     <use style="fill:#0000ff;stroke:#0000ff;" x="610.166681" xlink:href="#m050e9c9327" y="202.863688"/>
     <use style="fill:#0000ff;stroke:#0000ff;" x="617.672176" xlink:href="#m050e9c9327" y="223.486776"/>
     <use style="fill:#0000ff;stroke:#0000ff;" x="625.17767" xlink:href="#m050e9c9327" y="223.861741"/>
     <use style="fill:#0000ff;stroke:#0000ff;" x="632.683165" xlink:href="#m050e9c9327" y="241.860072"/>
     <use style="fill:#0000ff;stroke:#0000ff;" x="640.188659" xlink:href="#m050e9c9327" y="233.610837"/>
     <use style="fill:#0000ff;stroke:#0000ff;" x="647.694154" xlink:href="#m050e9c9327" y="258.358542"/>
     <use style="fill:#0000ff;stroke:#0000ff;" x="655.199648" xlink:href="#m050e9c9327" y="269.982465"/>
     <use style="fill:#0000ff;stroke:#0000ff;" x="662.705143" xlink:href="#m050e9c9327" y="277.106804"/>
     <use style="fill:#0000ff;stroke:#0000ff;" x="670.210637" xlink:href="#m050e9c9327" y="278.2317"/>
     <use style="fill:#0000ff;stroke:#0000ff;" x="677.716132" xlink:href="#m050e9c9327" y="277.106804"/>
     <use style="fill:#0000ff;stroke:#0000ff;" x="685.221626" xlink:href="#m050e9c9327" y="291.730448"/>
     <use style="fill:#0000ff;stroke:#0000ff;" x="692.727121" xlink:href="#m050e9c9327" y="300.729613"/>
     <use style="fill:#0000ff;stroke:#0000ff;" x="700.232615" xlink:href="#m050e9c9327" y="306.729057"/>
     <use style="fill:#0000ff;stroke:#0000ff;" x="707.73811" xlink:href="#m050e9c9327" y="306.729057"/>
     <use style="fill:#0000ff;stroke:#0000ff;" x="715.243604" xlink:href="#m050e9c9327" y="315.728223"/>
     <use style="fill:#0000ff;stroke:#0000ff;" x="722.749099" xlink:href="#m050e9c9327" y="332.601658"/>
     <use style="fill:#0000ff;stroke:#0000ff;" x="730.254593" xlink:href="#m050e9c9327" y="341.975789"/>
     <use style="fill:#0000ff;stroke:#0000ff;" x="737.760088" xlink:href="#m050e9c9327" y="352.474815"/>
     <use style="fill:#0000ff;stroke:#0000ff;" x="745.265582" xlink:href="#m050e9c9327" y="350.974954"/>
     <use style="fill:#0000ff;stroke:#0000ff;" x="752.771077" xlink:href="#m050e9c9327" y="359.97412"/>
     <use style="fill:#0000ff;stroke:#0000ff;" x="760.276571" xlink:href="#m050e9c9327" y="367.848389"/>
     <use style="fill:#0000ff;stroke:#0000ff;" x="767.782066" xlink:href="#m050e9c9327" y="373.097903"/>
     <use style="fill:#0000ff;stroke:#0000ff;" x="775.28756" xlink:href="#m050e9c9327" y="377.597485"/>
     <use style="fill:#0000ff;stroke:#0000ff;" x="782.793055" xlink:href="#m050e9c9327" y="390.346303"/>
     <use style="fill:#0000ff;stroke:#0000ff;" x="790.298549" xlink:href="#m050e9c9327" y="396.720712"/>
     <use style="fill:#0000ff;stroke:#0000ff;" x="797.804044" xlink:href="#m050e9c9327" y="407.969669"/>
     <use style="fill:#0000ff;stroke:#0000ff;" x="805.309538" xlink:href="#m050e9c9327" y="397.470643"/>
     <use style="fill:#0000ff;stroke:#0000ff;" x="812.815033" xlink:href="#m050e9c9327" y="399.345469"/>
     <use style="fill:#0000ff;stroke:#0000ff;" x="820.320527" xlink:href="#m050e9c9327" y="421.468417"/>
     <use style="fill:#0000ff;stroke:#0000ff;" x="827.826022" xlink:href="#m050e9c9327" y="407.219739"/>
     <use style="fill:#0000ff;stroke:#0000ff;" x="835.331516" xlink:href="#m050e9c9327" y="425.21807"/>
     <use style="fill:#0000ff;stroke:#0000ff;" x="842.837011" xlink:href="#m050e9c9327" y="424.843104"/>
     <use style="fill:#0000ff;stroke:#0000ff;" x="857.848" xlink:href="#m050e9c9327" y="425.593035"/>
    </g>
   </g>
   <g id="patch_8">
    <path d="M 147.528 436.752 
L 147.528 145.584 
" style="fill:none;stroke:#000000;stroke-linecap:square;stroke-linejoin:miter;stroke-width:0.8;"/>
   </g>
   <g id="patch_9">
    <path d="M 885.168 436.752 
L 885.168 145.584 
" style="fill:none;stroke:#000000;stroke-linecap:square;stroke-linejoin:miter;stroke-width:0.8;"/>
   </g>
   <g id="patch_10">
    <path d="M 147.528 436.752 
L 885.168 436.752 
" style="fill:none;stroke:#000000;stroke-linecap:square;stroke-linejoin:miter;stroke-width:0.8;"/>
   </g>
   <g id="patch_11">
    <path d="M 147.528 145.584 
L 885.168 145.584 
" style="fill:none;stroke:#000000;stroke-linecap:square;stroke-linejoin:miter;stroke-width:0.8;"/>
   </g>
  </g>
 </g>
 <defs>
  <clipPath id="paa3d7b5800">
   <rect height="72.792" width="737.64" x="147.528" y="63.0864"/>
  </clipPath>
  <clipPath id="pa686722a03">
   <rect height="291.168" width="737.64" x="147.528" y="145.584"/>
  </clipPath>
 </defs>
</svg>
