<?xml version="1.0" encoding="utf-8" standalone="no"?>
<!DOCTYPE svg PUBLIC "-//W3C//DTD SVG 1.1//EN"
  "http://www.w3.org/Graphics/SVG/1.1/DTD/svg11.dtd">
<!-- Created with matplotlib (http://matplotlib.org/) -->
<svg height="485pt" version="1.1" viewBox="0 0 983 485" width="983pt" xmlns="http://www.w3.org/2000/svg" xmlns:xlink="http://www.w3.org/1999/xlink">
 <defs>
  <style type="text/css">
*{stroke-linecap:butt;stroke-linejoin:round;}
  </style>
 </defs>
 <g id="figure_1">
  <g id="patch_1">
   <path d="M 0 485.28 
L 983.52 485.28 
L 983.52 0 
L 0 0 
z
" style="fill:#ffffff;"/>
  </g>
  <g id="axes_1">
   <g id="patch_2">
    <path d="M 147.528 135.8784 
L 885.168 135.8784 
L 885.168 63.0864 
L 147.528 63.0864 
z
" style="fill:#ffffff;"/>
   </g>
   <g id="matplotlib.axis_1">
    <g id="xtick_1">
     <g id="line2d_1">
      <defs>
       <path d="M 0 0 
L 0 3.5 
" id="mbb73cdc3be" style="stroke:#000000;stroke-width:0.8;"/>
      </defs>
      <g>
       <use style="stroke:#000000;stroke-width:0.8;" x="274.909149" xlink:href="#mbb73cdc3be" y="135.8784"/>
      </g>
     </g>
    </g>
    <g id="xtick_2">
     <g id="line2d_2">
      <g>
       <use style="stroke:#000000;stroke-width:0.8;" x="408.41297" xlink:href="#mbb73cdc3be" y="135.8784"/>
      </g>
     </g>
    </g>
    <g id="xtick_3">
     <g id="line2d_3">
      <g>
       <use style="stroke:#000000;stroke-width:0.8;" x="541.91679" xlink:href="#mbb73cdc3be" y="135.8784"/>
      </g>
     </g>
    </g>
    <g id="xtick_4">
     <g id="line2d_4">
      <g>
       <use style="stroke:#000000;stroke-width:0.8;" x="675.420611" xlink:href="#mbb73cdc3be" y="135.8784"/>
      </g>
     </g>
    </g>
    <g id="xtick_5">
     <g id="line2d_5">
      <g>
       <use style="stroke:#000000;stroke-width:0.8;" x="808.924432" xlink:href="#mbb73cdc3be" y="135.8784"/>
      </g>
     </g>
    </g>
   </g>
   <g id="matplotlib.axis_2">
    <g id="ytick_1">
     <g id="line2d_6">
      <defs>
       <path d="M 0 0 
L -3.5 0 
" id="m048bc6e729" style="stroke:#000000;stroke-width:0.8;"/>
      </defs>
      <g>
       <use style="stroke:#000000;stroke-width:0.8;" x="147.528" xlink:href="#m048bc6e729" y="134.682074"/>
      </g>
     </g>
     <g id="text_1">
      <!-- −2 -->
      <defs>
       <path d="M 10.59375 35.5 
L 73.1875 35.5 
L 73.1875 27.203125 
L 10.59375 27.203125 
z
" id="DejaVuSans-2212"/>
       <path d="M 19.1875 8.296875 
L 53.609375 8.296875 
L 53.609375 0 
L 7.328125 0 
L 7.328125 8.296875 
Q 12.9375 14.109375 22.625 23.890625 
Q 32.328125 33.6875 34.8125 36.53125 
Q 39.546875 41.84375 41.421875 45.53125 
Q 43.3125 49.21875 43.3125 52.78125 
Q 43.3125 58.59375 39.234375 62.25 
Q 35.15625 65.921875 28.609375 65.921875 
Q 23.96875 65.921875 18.8125 64.3125 
Q 13.671875 62.703125 7.8125 59.421875 
L 7.8125 69.390625 
Q 13.765625 71.78125 18.9375 73 
Q 24.125 74.21875 28.421875 74.21875 
Q 39.75 74.21875 46.484375 68.546875 
Q 53.21875 62.890625 53.21875 53.421875 
Q 53.21875 48.921875 51.53125 44.890625 
Q 49.859375 40.875 45.40625 35.40625 
Q 44.1875 33.984375 37.640625 27.21875 
Q 31.109375 20.453125 19.1875 8.296875 
z
" id="DejaVuSans-32"/>
      </defs>
      <g transform="translate(122.837375 139.241136)scale(0.12 -0.12)">
       <use xlink:href="#DejaVuSans-2212"/>
       <use x="83.789062" xlink:href="#DejaVuSans-32"/>
      </g>
     </g>
    </g>
    <g id="ytick_2">
     <g id="line2d_7">
      <g>
       <use style="stroke:#000000;stroke-width:0.8;" x="147.528" xlink:href="#m048bc6e729" y="100.5708"/>
      </g>
     </g>
    </g>
    <g id="ytick_3">
     <g id="line2d_8">
      <g>
       <use style="stroke:#000000;stroke-width:0.8;" x="147.528" xlink:href="#m048bc6e729" y="66.459526"/>
      </g>
     </g>
     <g id="text_2">
      <!-- 2 -->
      <g transform="translate(132.893 71.018588)scale(0.12 -0.12)">
       <use xlink:href="#DejaVuSans-32"/>
      </g>
     </g>
    </g>
    <g id="text_3">
     <!-- Studentized -->
     <defs>
      <path d="M 53.515625 70.515625 
L 53.515625 60.890625 
Q 47.90625 63.578125 42.921875 64.890625 
Q 37.9375 66.21875 33.296875 66.21875 
Q 25.25 66.21875 20.875 63.09375 
Q 16.5 59.96875 16.5 54.203125 
Q 16.5 49.359375 19.40625 46.890625 
Q 22.3125 44.4375 30.421875 42.921875 
L 36.375 41.703125 
Q 47.40625 39.59375 52.65625 34.296875 
Q 57.90625 29 57.90625 20.125 
Q 57.90625 9.515625 50.796875 4.046875 
Q 43.703125 -1.421875 29.984375 -1.421875 
Q 24.8125 -1.421875 18.96875 -0.25 
Q 13.140625 0.921875 6.890625 3.21875 
L 6.890625 13.375 
Q 12.890625 10.015625 18.65625 8.296875 
Q 24.421875 6.59375 29.984375 6.59375 
Q 38.421875 6.59375 43.015625 9.90625 
Q 47.609375 13.234375 47.609375 19.390625 
Q 47.609375 24.75 44.3125 27.78125 
Q 41.015625 30.8125 33.5 32.328125 
L 27.484375 33.5 
Q 16.453125 35.6875 11.515625 40.375 
Q 6.59375 45.0625 6.59375 53.421875 
Q 6.59375 63.09375 13.40625 68.65625 
Q 20.21875 74.21875 32.171875 74.21875 
Q 37.3125 74.21875 42.625 73.28125 
Q 47.953125 72.359375 53.515625 70.515625 
z
" id="DejaVuSans-53"/>
      <path d="M 18.3125 70.21875 
L 18.3125 54.6875 
L 36.8125 54.6875 
L 36.8125 47.703125 
L 18.3125 47.703125 
L 18.3125 18.015625 
Q 18.3125 11.328125 20.140625 9.421875 
Q 21.96875 7.515625 27.59375 7.515625 
L 36.8125 7.515625 
L 36.8125 0 
L 27.59375 0 
Q 17.1875 0 13.234375 3.875 
Q 9.28125 7.765625 9.28125 18.015625 
L 9.28125 47.703125 
L 2.6875 47.703125 
L 2.6875 54.6875 
L 9.28125 54.6875 
L 9.28125 70.21875 
z
" id="DejaVuSans-74"/>
      <path d="M 8.5 21.578125 
L 8.5 54.6875 
L 17.484375 54.6875 
L 17.484375 21.921875 
Q 17.484375 14.15625 20.5 10.265625 
Q 23.53125 6.390625 29.59375 6.390625 
Q 36.859375 6.390625 41.078125 11.03125 
Q 45.3125 15.671875 45.3125 23.6875 
L 45.3125 54.6875 
L 54.296875 54.6875 
L 54.296875 0 
L 45.3125 0 
L 45.3125 8.40625 
Q 42.046875 3.421875 37.71875 1 
Q 33.40625 -1.421875 27.6875 -1.421875 
Q 18.265625 -1.421875 13.375 4.4375 
Q 8.5 10.296875 8.5 21.578125 
z
M 31.109375 56 
z
" id="DejaVuSans-75"/>
      <path d="M 45.40625 46.390625 
L 45.40625 75.984375 
L 54.390625 75.984375 
L 54.390625 0 
L 45.40625 0 
L 45.40625 8.203125 
Q 42.578125 3.328125 38.25 0.953125 
Q 33.9375 -1.421875 27.875 -1.421875 
Q 17.96875 -1.421875 11.734375 6.484375 
Q 5.515625 14.40625 5.515625 27.296875 
Q 5.515625 40.1875 11.734375 48.09375 
Q 17.96875 56 27.875 56 
Q 33.9375 56 38.25 53.625 
Q 42.578125 51.265625 45.40625 46.390625 
z
M 14.796875 27.296875 
Q 14.796875 17.390625 18.875 11.75 
Q 22.953125 6.109375 30.078125 6.109375 
Q 37.203125 6.109375 41.296875 11.75 
Q 45.40625 17.390625 45.40625 27.296875 
Q 45.40625 37.203125 41.296875 42.84375 
Q 37.203125 48.484375 30.078125 48.484375 
Q 22.953125 48.484375 18.875 42.84375 
Q 14.796875 37.203125 14.796875 27.296875 
z
" id="DejaVuSans-64"/>
      <path d="M 56.203125 29.59375 
L 56.203125 25.203125 
L 14.890625 25.203125 
Q 15.484375 15.921875 20.484375 11.0625 
Q 25.484375 6.203125 34.421875 6.203125 
Q 39.59375 6.203125 44.453125 7.46875 
Q 49.3125 8.734375 54.109375 11.28125 
L 54.109375 2.78125 
Q 49.265625 0.734375 44.1875 -0.34375 
Q 39.109375 -1.421875 33.890625 -1.421875 
Q 20.796875 -1.421875 13.15625 6.1875 
Q 5.515625 13.8125 5.515625 26.8125 
Q 5.515625 40.234375 12.765625 48.109375 
Q 20.015625 56 32.328125 56 
Q 43.359375 56 49.78125 48.890625 
Q 56.203125 41.796875 56.203125 29.59375 
z
M 47.21875 32.234375 
Q 47.125 39.59375 43.09375 43.984375 
Q 39.0625 48.390625 32.421875 48.390625 
Q 24.90625 48.390625 20.390625 44.140625 
Q 15.875 39.890625 15.1875 32.171875 
z
" id="DejaVuSans-65"/>
      <path d="M 54.890625 33.015625 
L 54.890625 0 
L 45.90625 0 
L 45.90625 32.71875 
Q 45.90625 40.484375 42.875 44.328125 
Q 39.84375 48.1875 33.796875 48.1875 
Q 26.515625 48.1875 22.3125 43.546875 
Q 18.109375 38.921875 18.109375 30.90625 
L 18.109375 0 
L 9.078125 0 
L 9.078125 54.6875 
L 18.109375 54.6875 
L 18.109375 46.1875 
Q 21.34375 51.125 25.703125 53.5625 
Q 30.078125 56 35.796875 56 
Q 45.21875 56 50.046875 50.171875 
Q 54.890625 44.34375 54.890625 33.015625 
z
" id="DejaVuSans-6e"/>
      <path d="M 9.421875 54.6875 
L 18.40625 54.6875 
L 18.40625 0 
L 9.421875 0 
z
M 9.421875 75.984375 
L 18.40625 75.984375 
L 18.40625 64.59375 
L 9.421875 64.59375 
z
" id="DejaVuSans-69"/>
      <path d="M 5.515625 54.6875 
L 48.1875 54.6875 
L 48.1875 46.484375 
L 14.40625 7.171875 
L 48.1875 7.171875 
L 48.1875 0 
L 4.296875 0 
L 4.296875 8.203125 
L 38.09375 47.515625 
L 5.515625 47.515625 
z
" id="DejaVuSans-7a"/>
     </defs>
     <g transform="translate(102.904375 135.41865)rotate(-90)scale(0.12 -0.12)">
      <use xlink:href="#DejaVuSans-53"/>
      <use x="63.476562" xlink:href="#DejaVuSans-74"/>
      <use x="102.685547" xlink:href="#DejaVuSans-75"/>
      <use x="166.064453" xlink:href="#DejaVuSans-64"/>
      <use x="229.541016" xlink:href="#DejaVuSans-65"/>
      <use x="291.064453" xlink:href="#DejaVuSans-6e"/>
      <use x="354.443359" xlink:href="#DejaVuSans-74"/>
      <use x="393.652344" xlink:href="#DejaVuSans-69"/>
      <use x="421.435547" xlink:href="#DejaVuSans-7a"/>
      <use x="473.925781" xlink:href="#DejaVuSans-65"/>
      <use x="535.449219" xlink:href="#DejaVuSans-64"/>
     </g>
     <!-- Residuals -->
     <defs>
      <path d="M 44.390625 34.1875 
Q 47.5625 33.109375 50.5625 29.59375 
Q 53.5625 26.078125 56.59375 19.921875 
L 66.609375 0 
L 56 0 
L 46.6875 18.703125 
Q 43.0625 26.03125 39.671875 28.421875 
Q 36.28125 30.8125 30.421875 30.8125 
L 19.671875 30.8125 
L 19.671875 0 
L 9.8125 0 
L 9.8125 72.90625 
L 32.078125 72.90625 
Q 44.578125 72.90625 50.734375 67.671875 
Q 56.890625 62.453125 56.890625 51.90625 
Q 56.890625 45.015625 53.6875 40.46875 
Q 50.484375 35.9375 44.390625 34.1875 
z
M 19.671875 64.796875 
L 19.671875 38.921875 
L 32.078125 38.921875 
Q 39.203125 38.921875 42.84375 42.21875 
Q 46.484375 45.515625 46.484375 51.90625 
Q 46.484375 58.296875 42.84375 61.546875 
Q 39.203125 64.796875 32.078125 64.796875 
z
" id="DejaVuSans-52"/>
      <path d="M 44.28125 53.078125 
L 44.28125 44.578125 
Q 40.484375 46.53125 36.375 47.5 
Q 32.28125 48.484375 27.875 48.484375 
Q 21.1875 48.484375 17.84375 46.4375 
Q 14.5 44.390625 14.5 40.28125 
Q 14.5 37.15625 16.890625 35.375 
Q 19.28125 33.59375 26.515625 31.984375 
L 29.59375 31.296875 
Q 39.15625 29.25 43.1875 25.515625 
Q 47.21875 21.78125 47.21875 15.09375 
Q 47.21875 7.46875 41.1875 3.015625 
Q 35.15625 -1.421875 24.609375 -1.421875 
Q 20.21875 -1.421875 15.453125 -0.5625 
Q 10.6875 0.296875 5.421875 2 
L 5.421875 11.28125 
Q 10.40625 8.6875 15.234375 7.390625 
Q 20.0625 6.109375 24.8125 6.109375 
Q 31.15625 6.109375 34.5625 8.28125 
Q 37.984375 10.453125 37.984375 14.40625 
Q 37.984375 18.0625 35.515625 20.015625 
Q 33.0625 21.96875 24.703125 23.78125 
L 21.578125 24.515625 
Q 13.234375 26.265625 9.515625 29.90625 
Q 5.8125 33.546875 5.8125 39.890625 
Q 5.8125 47.609375 11.28125 51.796875 
Q 16.75 56 26.8125 56 
Q 31.78125 56 36.171875 55.265625 
Q 40.578125 54.546875 44.28125 53.078125 
z
" id="DejaVuSans-73"/>
      <path d="M 34.28125 27.484375 
Q 23.390625 27.484375 19.1875 25 
Q 14.984375 22.515625 14.984375 16.5 
Q 14.984375 11.71875 18.140625 8.90625 
Q 21.296875 6.109375 26.703125 6.109375 
Q 34.1875 6.109375 38.703125 11.40625 
Q 43.21875 16.703125 43.21875 25.484375 
L 43.21875 27.484375 
z
M 52.203125 31.203125 
L 52.203125 0 
L 43.21875 0 
L 43.21875 8.296875 
Q 40.140625 3.328125 35.546875 0.953125 
Q 30.953125 -1.421875 24.3125 -1.421875 
Q 15.921875 -1.421875 10.953125 3.296875 
Q 6 8.015625 6 15.921875 
Q 6 25.140625 12.171875 29.828125 
Q 18.359375 34.515625 30.609375 34.515625 
L 43.21875 34.515625 
L 43.21875 35.40625 
Q 43.21875 41.609375 39.140625 45 
Q 35.0625 48.390625 27.6875 48.390625 
Q 23 48.390625 18.546875 47.265625 
Q 14.109375 46.140625 10.015625 43.890625 
L 10.015625 52.203125 
Q 14.9375 54.109375 19.578125 55.046875 
Q 24.21875 56 28.609375 56 
Q 40.484375 56 46.34375 49.84375 
Q 52.203125 43.703125 52.203125 31.203125 
z
" id="DejaVuSans-61"/>
      <path d="M 9.421875 75.984375 
L 18.40625 75.984375 
L 18.40625 0 
L 9.421875 0 
z
" id="DejaVuSans-6c"/>
     </defs>
     <g transform="translate(116.34175 128.213025)rotate(-90)scale(0.12 -0.12)">
      <use xlink:href="#DejaVuSans-52"/>
      <use x="69.419922" xlink:href="#DejaVuSans-65"/>
      <use x="130.943359" xlink:href="#DejaVuSans-73"/>
      <use x="183.042969" xlink:href="#DejaVuSans-69"/>
      <use x="210.826172" xlink:href="#DejaVuSans-64"/>
      <use x="274.302734" xlink:href="#DejaVuSans-75"/>
      <use x="337.681641" xlink:href="#DejaVuSans-61"/>
      <use x="398.960938" xlink:href="#DejaVuSans-6c"/>
      <use x="426.744141" xlink:href="#DejaVuSans-73"/>
     </g>
    </g>
   </g>
   <g id="LineCollection_1">
    <path clip-path="url(#pbb8932e898)" d="M 174.848 82.838037 
L 174.848 48.726763 
" style="fill:none;stroke:#0000ff;stroke-width:1.5;"/>
    <path clip-path="url(#pbb8932e898)" d="M 182.78986 111.92218 
L 182.78986 77.810906 
" style="fill:none;stroke:#0000ff;stroke-width:1.5;"/>
    <path clip-path="url(#pbb8932e898)" d="M 190.731721 99.838643 
L 190.731721 65.727369 
" style="fill:none;stroke:#0000ff;stroke-width:1.5;"/>
    <path clip-path="url(#pbb8932e898)" d="M 198.673581 113.76363 
L 198.673581 79.652356 
" style="fill:none;stroke:#0000ff;stroke-width:1.5;"/>
    <path clip-path="url(#pbb8932e898)" d="M 206.615442 96.872464 
L 206.615442 62.76119 
" style="fill:none;stroke:#0000ff;stroke-width:1.5;"/>
    <path clip-path="url(#pbb8932e898)" d="M 214.557302 117.903368 
L 214.557302 83.792094 
" style="fill:none;stroke:#0000ff;stroke-width:1.5;"/>
    <path clip-path="url(#pbb8932e898)" d="M 222.499163 116.470763 
L 222.499163 82.359489 
" style="fill:none;stroke:#0000ff;stroke-width:1.5;"/>
    <path clip-path="url(#pbb8932e898)" d="M 230.441023 96.461638 
L 230.441023 62.350364 
" style="fill:none;stroke:#0000ff;stroke-width:1.5;"/>
    <path clip-path="url(#pbb8932e898)" d="M 238.382884 104.195453 
L 238.382884 70.084179 
" style="fill:none;stroke:#0000ff;stroke-width:1.5;"/>
    <path clip-path="url(#pbb8932e898)" d="M 246.324744 132.054802 
L 246.324744 97.943528 
" style="fill:none;stroke:#0000ff;stroke-width:1.5;"/>
    <path clip-path="url(#pbb8932e898)" d="M 254.266605 126.223521 
L 254.266605 92.112247 
" style="fill:none;stroke:#0000ff;stroke-width:1.5;"/>
    <path clip-path="url(#pbb8932e898)" d="M 262.208465 136.7474 
L 262.208465 102.636126 
" style="fill:none;stroke:#0000ff;stroke-width:1.5;"/>
    <path clip-path="url(#pbb8932e898)" d="M 270.150326 120.339141 
L 270.150326 86.227867 
" style="fill:none;stroke:#0000ff;stroke-width:1.5;"/>
    <path clip-path="url(#pbb8932e898)" d="M 278.092186 123.223008 
L 278.092186 89.111734 
" style="fill:none;stroke:#0000ff;stroke-width:1.5;"/>
    <path clip-path="url(#pbb8932e898)" d="M 286.034047 118.955422 
L 286.034047 84.844148 
" style="fill:none;stroke:#0000ff;stroke-width:1.5;"/>
    <path clip-path="url(#pbb8932e898)" d="M 293.975907 127.114114 
L 293.975907 93.00284 
" style="fill:none;stroke:#0000ff;stroke-width:1.5;"/>
    <path clip-path="url(#pbb8932e898)" d="M 301.917767 116.656266 
L 301.917767 82.544992 
" style="fill:none;stroke:#0000ff;stroke-width:1.5;"/>
    <path clip-path="url(#pbb8932e898)" d="M 309.859628 100.53832 
L 309.859628 66.427046 
" style="fill:none;stroke:#0000ff;stroke-width:1.5;"/>
    <path clip-path="url(#pbb8932e898)" d="M 317.801488 124.083375 
L 317.801488 89.972101 
" style="fill:none;stroke:#0000ff;stroke-width:1.5;"/>
    <path clip-path="url(#pbb8932e898)" d="M 325.743349 125.224131 
L 325.743349 91.112857 
" style="fill:none;stroke:#0000ff;stroke-width:1.5;"/>
    <path clip-path="url(#pbb8932e898)" d="M 333.685209 124.723542 
L 333.685209 90.612268 
" style="fill:none;stroke:#0000ff;stroke-width:1.5;"/>
    <path clip-path="url(#pbb8932e898)" d="M 341.62707 126.628465 
L 341.62707 92.517192 
" style="fill:none;stroke:#0000ff;stroke-width:1.5;"/>
    <path clip-path="url(#pbb8932e898)" d="M 349.56893 125.724946 
L 349.56893 91.613672 
" style="fill:none;stroke:#0000ff;stroke-width:1.5;"/>
    <path clip-path="url(#pbb8932e898)" d="M 357.510791 113.716949 
L 357.510791 79.605675 
" style="fill:none;stroke:#0000ff;stroke-width:1.5;"/>
    <path clip-path="url(#pbb8932e898)" d="M 365.452651 119.296067 
L 365.452651 85.184793 
" style="fill:none;stroke:#0000ff;stroke-width:1.5;"/>
    <path clip-path="url(#pbb8932e898)" d="M 373.394512 114.451635 
L 373.394512 80.340361 
" style="fill:none;stroke:#0000ff;stroke-width:1.5;"/>
    <path clip-path="url(#pbb8932e898)" d="M 381.336372 114.613204 
L 381.336372 80.50193 
" style="fill:none;stroke:#0000ff;stroke-width:1.5;"/>
    <path clip-path="url(#pbb8932e898)" d="M 389.278233 116.038558 
L 389.278233 81.927284 
" style="fill:none;stroke:#0000ff;stroke-width:1.5;"/>
    <path clip-path="url(#pbb8932e898)" d="M 397.220093 116.706515 
L 397.220093 82.595241 
" style="fill:none;stroke:#0000ff;stroke-width:1.5;"/>
    <path clip-path="url(#pbb8932e898)" d="M 405.161953 120.404614 
L 405.161953 86.29334 
" style="fill:none;stroke:#0000ff;stroke-width:1.5;"/>
    <path clip-path="url(#pbb8932e898)" d="M 413.103814 103.41012 
L 413.103814 69.298846 
" style="fill:none;stroke:#0000ff;stroke-width:1.5;"/>
    <path clip-path="url(#pbb8932e898)" d="M 421.045674 121.861866 
L 421.045674 87.750592 
" style="fill:none;stroke:#0000ff;stroke-width:1.5;"/>
    <path clip-path="url(#pbb8932e898)" d="M 428.987535 98.82006 
L 428.987535 64.708786 
" style="fill:none;stroke:#0000ff;stroke-width:1.5;"/>
    <path clip-path="url(#pbb8932e898)" d="M 436.929395 133.215126 
L 436.929395 99.103852 
" style="fill:none;stroke:#0000ff;stroke-width:1.5;"/>
    <path clip-path="url(#pbb8932e898)" d="M 444.871256 121.231277 
L 444.871256 87.120003 
" style="fill:none;stroke:#0000ff;stroke-width:1.5;"/>
    <path clip-path="url(#pbb8932e898)" d="M 452.813116 122.115486 
L 452.813116 88.004212 
" style="fill:none;stroke:#0000ff;stroke-width:1.5;"/>
    <path clip-path="url(#pbb8932e898)" d="M 460.754977 137.408723 
L 460.754977 103.297449 
" style="fill:none;stroke:#0000ff;stroke-width:1.5;"/>
    <path clip-path="url(#pbb8932e898)" d="M 468.696837 130.612218 
L 468.696837 96.500944 
" style="fill:none;stroke:#0000ff;stroke-width:1.5;"/>
    <path clip-path="url(#pbb8932e898)" d="M 476.638698 119.509168 
L 476.638698 85.397894 
" style="fill:none;stroke:#0000ff;stroke-width:1.5;"/>
    <path clip-path="url(#pbb8932e898)" d="M 484.580558 124.516021 
L 484.580558 90.404747 
" style="fill:none;stroke:#0000ff;stroke-width:1.5;"/>
    <path clip-path="url(#pbb8932e898)" d="M 492.522419 134.667195 
L 492.522419 100.555921 
" style="fill:none;stroke:#0000ff;stroke-width:1.5;"/>
    <path clip-path="url(#pbb8932e898)" d="M 500.464279 118.621493 
L 500.464279 84.510219 
" style="fill:none;stroke:#0000ff;stroke-width:1.5;"/>
    <path clip-path="url(#pbb8932e898)" d="M 508.40614 103.135224 
L 508.40614 69.02395 
" style="fill:none;stroke:#0000ff;stroke-width:1.5;"/>
    <path clip-path="url(#pbb8932e898)" d="M 516.348 111.046863 
L 516.348 76.935589 
" style="fill:none;stroke:#0000ff;stroke-width:1.5;"/>
    <path clip-path="url(#pbb8932e898)" d="M 524.28986 122.699443 
L 524.28986 88.588169 
" style="fill:none;stroke:#0000ff;stroke-width:1.5;"/>
    <path clip-path="url(#pbb8932e898)" d="M 532.231721 109.556995 
L 532.231721 75.445721 
" style="fill:none;stroke:#0000ff;stroke-width:1.5;"/>
    <path clip-path="url(#pbb8932e898)" d="M 540.173581 118.475821 
L 540.173581 84.364547 
" style="fill:none;stroke:#0000ff;stroke-width:1.5;"/>
    <path clip-path="url(#pbb8932e898)" d="M 548.115442 118.311281 
L 548.115442 84.200007 
" style="fill:none;stroke:#0000ff;stroke-width:1.5;"/>
    <path clip-path="url(#pbb8932e898)" d="M 556.057302 117.889328 
L 556.057302 83.778054 
" style="fill:none;stroke:#0000ff;stroke-width:1.5;"/>
    <path clip-path="url(#pbb8932e898)" d="M 563.999163 136.211005 
L 563.999163 102.099731 
" style="fill:none;stroke:#0000ff;stroke-width:1.5;"/>
    <path clip-path="url(#pbb8932e898)" d="M 571.941023 113.754003 
L 571.941023 79.642729 
" style="fill:none;stroke:#0000ff;stroke-width:1.5;"/>
    <path clip-path="url(#pbb8932e898)" d="M 579.882884 116.524599 
L 579.882884 82.413325 
" style="fill:none;stroke:#0000ff;stroke-width:1.5;"/>
    <path clip-path="url(#pbb8932e898)" d="M 587.824744 116.988013 
L 587.824744 82.876739 
" style="fill:none;stroke:#0000ff;stroke-width:1.5;"/>
    <path clip-path="url(#pbb8932e898)" d="M 595.766605 117.759722 
L 595.766605 83.648448 
" style="fill:none;stroke:#0000ff;stroke-width:1.5;"/>
    <path clip-path="url(#pbb8932e898)" d="M 603.708465 126.608539 
L 603.708465 92.497265 
" style="fill:none;stroke:#0000ff;stroke-width:1.5;"/>
    <path clip-path="url(#pbb8932e898)" d="M 611.650326 91.243446 
L 611.650326 57.132172 
" style="fill:none;stroke:#0000ff;stroke-width:1.5;"/>
    <path clip-path="url(#pbb8932e898)" d="M 619.592186 121.525979 
L 619.592186 87.414705 
" style="fill:none;stroke:#0000ff;stroke-width:1.5;"/>
    <path clip-path="url(#pbb8932e898)" d="M 627.534047 111.118272 
L 627.534047 77.006998 
" style="fill:none;stroke:#0000ff;stroke-width:1.5;"/>
    <path clip-path="url(#pbb8932e898)" d="M 635.475907 122.009338 
L 635.475907 87.898064 
" style="fill:none;stroke:#0000ff;stroke-width:1.5;"/>
    <path clip-path="url(#pbb8932e898)" d="M 643.417767 116.181034 
L 643.417767 82.06976 
" style="fill:none;stroke:#0000ff;stroke-width:1.5;"/>
    <path clip-path="url(#pbb8932e898)" d="M 651.359628 99.758186 
L 651.359628 65.646912 
" style="fill:none;stroke:#0000ff;stroke-width:1.5;"/>
    <path clip-path="url(#pbb8932e898)" d="M 659.301488 112.970226 
L 659.301488 78.858952 
" style="fill:none;stroke:#0000ff;stroke-width:1.5;"/>
    <path clip-path="url(#pbb8932e898)" d="M 667.243349 98.462842 
L 667.243349 64.351568 
" style="fill:none;stroke:#0000ff;stroke-width:1.5;"/>
    <path clip-path="url(#pbb8932e898)" d="M 675.185209 123.916677 
L 675.185209 89.805403 
" style="fill:none;stroke:#0000ff;stroke-width:1.5;"/>
    <path clip-path="url(#pbb8932e898)" d="M 683.12707 128.0372 
L 683.12707 93.925926 
" style="fill:none;stroke:#0000ff;stroke-width:1.5;"/>
    <path clip-path="url(#pbb8932e898)" d="M 691.06893 102.060392 
L 691.06893 67.949118 
" style="fill:none;stroke:#0000ff;stroke-width:1.5;"/>
    <path clip-path="url(#pbb8932e898)" d="M 699.010791 103.920038 
L 699.010791 69.808764 
" style="fill:none;stroke:#0000ff;stroke-width:1.5;"/>
    <path clip-path="url(#pbb8932e898)" d="M 706.952651 97.000272 
L 706.952651 62.888998 
" style="fill:none;stroke:#0000ff;stroke-width:1.5;"/>
    <path clip-path="url(#pbb8932e898)" d="M 714.894512 106.392046 
L 714.894512 72.280772 
" style="fill:none;stroke:#0000ff;stroke-width:1.5;"/>
    <path clip-path="url(#pbb8932e898)" d="M 722.836372 98.242145 
L 722.836372 64.130871 
" style="fill:none;stroke:#0000ff;stroke-width:1.5;"/>
    <path clip-path="url(#pbb8932e898)" d="M 730.778233 116.653125 
L 730.778233 82.541851 
" style="fill:none;stroke:#0000ff;stroke-width:1.5;"/>
    <path clip-path="url(#pbb8932e898)" d="M 738.720093 118.026188 
L 738.720093 83.914914 
" style="fill:none;stroke:#0000ff;stroke-width:1.5;"/>
    <path clip-path="url(#pbb8932e898)" d="M 746.661953 124.90776 
L 746.661953 90.796486 
" style="fill:none;stroke:#0000ff;stroke-width:1.5;"/>
    <path clip-path="url(#pbb8932e898)" d="M 754.603814 111.581688 
L 754.603814 77.470414 
" style="fill:none;stroke:#0000ff;stroke-width:1.5;"/>
    <path clip-path="url(#pbb8932e898)" d="M 762.545674 113.19429 
L 762.545674 79.083016 
" style="fill:none;stroke:#0000ff;stroke-width:1.5;"/>
    <path clip-path="url(#pbb8932e898)" d="M 770.487535 100.21671 
L 770.487535 66.105436 
" style="fill:none;stroke:#0000ff;stroke-width:1.5;"/>
    <path clip-path="url(#pbb8932e898)" d="M 778.429395 123.790809 
L 778.429395 89.679535 
" style="fill:none;stroke:#0000ff;stroke-width:1.5;"/>
    <path clip-path="url(#pbb8932e898)" d="M 786.371256 134.543059 
L 786.371256 100.431785 
" style="fill:none;stroke:#0000ff;stroke-width:1.5;"/>
    <path clip-path="url(#pbb8932e898)" d="M 794.313116 114.242393 
L 794.313116 80.131119 
" style="fill:none;stroke:#0000ff;stroke-width:1.5;"/>
    <path clip-path="url(#pbb8932e898)" d="M 802.254977 132.618782 
L 802.254977 98.507508 
" style="fill:none;stroke:#0000ff;stroke-width:1.5;"/>
    <path clip-path="url(#pbb8932e898)" d="M 810.196837 123.527993 
L 810.196837 89.416719 
" style="fill:none;stroke:#0000ff;stroke-width:1.5;"/>
    <path clip-path="url(#pbb8932e898)" d="M 818.138698 150.238037 
L 818.138698 116.126763 
" style="fill:none;stroke:#0000ff;stroke-width:1.5;"/>
    <path clip-path="url(#pbb8932e898)" d="M 826.080558 102.677482 
L 826.080558 68.566208 
" style="fill:none;stroke:#0000ff;stroke-width:1.5;"/>
    <path clip-path="url(#pbb8932e898)" d="M 834.022419 128.510995 
L 834.022419 94.399721 
" style="fill:none;stroke:#0000ff;stroke-width:1.5;"/>
    <path clip-path="url(#pbb8932e898)" d="M 841.964279 116.218371 
L 841.964279 82.107097 
" style="fill:none;stroke:#0000ff;stroke-width:1.5;"/>
    <path clip-path="url(#pbb8932e898)" d="M 849.90614 148.151519 
L 849.90614 114.040245 
" style="fill:none;stroke:#0000ff;stroke-width:1.5;"/>
    <path clip-path="url(#pbb8932e898)" d="M 857.848 132.16934 
L 857.848 98.058066 
" style="fill:none;stroke:#0000ff;stroke-width:1.5;"/>
   </g>
   <g id="line2d_9">
    <path clip-path="url(#pbb8932e898)" d="M 174.848 100.5708 
L 857.848 100.5708 
" style="fill:none;stroke:#ff0000;stroke-linecap:square;stroke-width:1.5;"/>
   </g>
   <g id="line2d_10">
    <defs>
     <path d="M -3 0 
L 3 0 
M 0 3 
L 0 -3 
" id="mb9c0ea71d4" style="stroke:#0000ff;"/>
    </defs>
    <g clip-path="url(#pbb8932e898)">
     <use style="fill:#0000ff;stroke:#0000ff;" x="174.848" xlink:href="#mb9c0ea71d4" y="65.7824"/>
     <use style="fill:#0000ff;stroke:#0000ff;" x="182.78986" xlink:href="#mb9c0ea71d4" y="94.866543"/>
     <use style="fill:#0000ff;stroke:#0000ff;" x="190.731721" xlink:href="#mb9c0ea71d4" y="82.783006"/>
     <use style="fill:#0000ff;stroke:#0000ff;" x="198.673581" xlink:href="#mb9c0ea71d4" y="96.707993"/>
     <use style="fill:#0000ff;stroke:#0000ff;" x="206.615442" xlink:href="#mb9c0ea71d4" y="79.816827"/>
     <use style="fill:#0000ff;stroke:#0000ff;" x="214.557302" xlink:href="#mb9c0ea71d4" y="100.847731"/>
     <use style="fill:#0000ff;stroke:#0000ff;" x="222.499163" xlink:href="#mb9c0ea71d4" y="99.415126"/>
     <use style="fill:#0000ff;stroke:#0000ff;" x="230.441023" xlink:href="#mb9c0ea71d4" y="79.406001"/>
     <use style="fill:#0000ff;stroke:#0000ff;" x="238.382884" xlink:href="#mb9c0ea71d4" y="87.139816"/>
     <use style="fill:#0000ff;stroke:#0000ff;" x="246.324744" xlink:href="#mb9c0ea71d4" y="114.999165"/>
     <use style="fill:#0000ff;stroke:#0000ff;" x="254.266605" xlink:href="#mb9c0ea71d4" y="109.167884"/>
     <use style="fill:#0000ff;stroke:#0000ff;" x="262.208465" xlink:href="#mb9c0ea71d4" y="119.691763"/>
     <use style="fill:#0000ff;stroke:#0000ff;" x="270.150326" xlink:href="#mb9c0ea71d4" y="103.283504"/>
     <use style="fill:#0000ff;stroke:#0000ff;" x="278.092186" xlink:href="#mb9c0ea71d4" y="106.167371"/>
     <use style="fill:#0000ff;stroke:#0000ff;" x="286.034047" xlink:href="#mb9c0ea71d4" y="101.899785"/>
     <use style="fill:#0000ff;stroke:#0000ff;" x="293.975907" xlink:href="#mb9c0ea71d4" y="110.058477"/>
     <use style="fill:#0000ff;stroke:#0000ff;" x="301.917767" xlink:href="#mb9c0ea71d4" y="99.600629"/>
     <use style="fill:#0000ff;stroke:#0000ff;" x="309.859628" xlink:href="#mb9c0ea71d4" y="83.482683"/>
     <use style="fill:#0000ff;stroke:#0000ff;" x="317.801488" xlink:href="#mb9c0ea71d4" y="107.027738"/>
     <use style="fill:#0000ff;stroke:#0000ff;" x="325.743349" xlink:href="#mb9c0ea71d4" y="108.168494"/>
     <use style="fill:#0000ff;stroke:#0000ff;" x="333.685209" xlink:href="#mb9c0ea71d4" y="107.667905"/>
     <use style="fill:#0000ff;stroke:#0000ff;" x="341.62707" xlink:href="#mb9c0ea71d4" y="109.572829"/>
     <use style="fill:#0000ff;stroke:#0000ff;" x="349.56893" xlink:href="#mb9c0ea71d4" y="108.669309"/>
     <use style="fill:#0000ff;stroke:#0000ff;" x="357.510791" xlink:href="#mb9c0ea71d4" y="96.661312"/>
     <use style="fill:#0000ff;stroke:#0000ff;" x="365.452651" xlink:href="#mb9c0ea71d4" y="102.24043"/>
     <use style="fill:#0000ff;stroke:#0000ff;" x="373.394512" xlink:href="#mb9c0ea71d4" y="97.395998"/>
     <use style="fill:#0000ff;stroke:#0000ff;" x="381.336372" xlink:href="#mb9c0ea71d4" y="97.557567"/>
     <use style="fill:#0000ff;stroke:#0000ff;" x="389.278233" xlink:href="#mb9c0ea71d4" y="98.982921"/>
     <use style="fill:#0000ff;stroke:#0000ff;" x="397.220093" xlink:href="#mb9c0ea71d4" y="99.650878"/>
     <use style="fill:#0000ff;stroke:#0000ff;" x="405.161953" xlink:href="#mb9c0ea71d4" y="103.348977"/>
     <use style="fill:#0000ff;stroke:#0000ff;" x="413.103814" xlink:href="#mb9c0ea71d4" y="86.354483"/>
     <use style="fill:#0000ff;stroke:#0000ff;" x="421.045674" xlink:href="#mb9c0ea71d4" y="104.806229"/>
     <use style="fill:#0000ff;stroke:#0000ff;" x="428.987535" xlink:href="#mb9c0ea71d4" y="81.764423"/>
     <use style="fill:#0000ff;stroke:#0000ff;" x="436.929395" xlink:href="#mb9c0ea71d4" y="116.159489"/>
     <use style="fill:#0000ff;stroke:#0000ff;" x="444.871256" xlink:href="#mb9c0ea71d4" y="104.17564"/>
     <use style="fill:#0000ff;stroke:#0000ff;" x="452.813116" xlink:href="#mb9c0ea71d4" y="105.059849"/>
     <use style="fill:#0000ff;stroke:#0000ff;" x="460.754977" xlink:href="#mb9c0ea71d4" y="120.353086"/>
     <use style="fill:#0000ff;stroke:#0000ff;" x="468.696837" xlink:href="#mb9c0ea71d4" y="113.556581"/>
     <use style="fill:#0000ff;stroke:#0000ff;" x="476.638698" xlink:href="#mb9c0ea71d4" y="102.453531"/>
     <use style="fill:#0000ff;stroke:#0000ff;" x="484.580558" xlink:href="#mb9c0ea71d4" y="107.460384"/>
     <use style="fill:#0000ff;stroke:#0000ff;" x="492.522419" xlink:href="#mb9c0ea71d4" y="117.611558"/>
     <use style="fill:#0000ff;stroke:#0000ff;" x="500.464279" xlink:href="#mb9c0ea71d4" y="101.565856"/>
     <use style="fill:#0000ff;stroke:#0000ff;" x="508.40614" xlink:href="#mb9c0ea71d4" y="86.079587"/>
     <use style="fill:#0000ff;stroke:#0000ff;" x="516.348" xlink:href="#mb9c0ea71d4" y="93.991226"/>
     <use style="fill:#0000ff;stroke:#0000ff;" x="524.28986" xlink:href="#mb9c0ea71d4" y="105.643806"/>
     <use style="fill:#0000ff;stroke:#0000ff;" x="532.231721" xlink:href="#mb9c0ea71d4" y="92.501358"/>
     <use style="fill:#0000ff;stroke:#0000ff;" x="540.173581" xlink:href="#mb9c0ea71d4" y="101.420184"/>
     <use style="fill:#0000ff;stroke:#0000ff;" x="548.115442" xlink:href="#mb9c0ea71d4" y="101.255644"/>
     <use style="fill:#0000ff;stroke:#0000ff;" x="556.057302" xlink:href="#mb9c0ea71d4" y="100.833691"/>
     <use style="fill:#0000ff;stroke:#0000ff;" x="563.999163" xlink:href="#mb9c0ea71d4" y="119.155368"/>
     <use style="fill:#0000ff;stroke:#0000ff;" x="571.941023" xlink:href="#mb9c0ea71d4" y="96.698366"/>
     <use style="fill:#0000ff;stroke:#0000ff;" x="579.882884" xlink:href="#mb9c0ea71d4" y="99.468962"/>
     <use style="fill:#0000ff;stroke:#0000ff;" x="587.824744" xlink:href="#mb9c0ea71d4" y="99.932376"/>
     <use style="fill:#0000ff;stroke:#0000ff;" x="595.766605" xlink:href="#mb9c0ea71d4" y="100.704085"/>
     <use style="fill:#0000ff;stroke:#0000ff;" x="603.708465" xlink:href="#mb9c0ea71d4" y="109.552902"/>
     <use style="fill:#0000ff;stroke:#0000ff;" x="611.650326" xlink:href="#mb9c0ea71d4" y="74.187809"/>
     <use style="fill:#0000ff;stroke:#0000ff;" x="619.592186" xlink:href="#mb9c0ea71d4" y="104.470342"/>
     <use style="fill:#0000ff;stroke:#0000ff;" x="627.534047" xlink:href="#mb9c0ea71d4" y="94.062635"/>
     <use style="fill:#0000ff;stroke:#0000ff;" x="635.475907" xlink:href="#mb9c0ea71d4" y="104.953701"/>
     <use style="fill:#0000ff;stroke:#0000ff;" x="643.417767" xlink:href="#mb9c0ea71d4" y="99.125397"/>
     <use style="fill:#0000ff;stroke:#0000ff;" x="651.359628" xlink:href="#mb9c0ea71d4" y="82.702549"/>
     <use style="fill:#0000ff;stroke:#0000ff;" x="659.301488" xlink:href="#mb9c0ea71d4" y="95.914589"/>
     <use style="fill:#0000ff;stroke:#0000ff;" x="667.243349" xlink:href="#mb9c0ea71d4" y="81.407205"/>
     <use style="fill:#0000ff;stroke:#0000ff;" x="675.185209" xlink:href="#mb9c0ea71d4" y="106.86104"/>
     <use style="fill:#0000ff;stroke:#0000ff;" x="683.12707" xlink:href="#mb9c0ea71d4" y="110.981563"/>
     <use style="fill:#0000ff;stroke:#0000ff;" x="691.06893" xlink:href="#mb9c0ea71d4" y="85.004755"/>
     <use style="fill:#0000ff;stroke:#0000ff;" x="699.010791" xlink:href="#mb9c0ea71d4" y="86.864401"/>
     <use style="fill:#0000ff;stroke:#0000ff;" x="706.952651" xlink:href="#mb9c0ea71d4" y="79.944635"/>
     <use style="fill:#0000ff;stroke:#0000ff;" x="714.894512" xlink:href="#mb9c0ea71d4" y="89.336409"/>
     <use style="fill:#0000ff;stroke:#0000ff;" x="722.836372" xlink:href="#mb9c0ea71d4" y="81.186508"/>
     <use style="fill:#0000ff;stroke:#0000ff;" x="730.778233" xlink:href="#mb9c0ea71d4" y="99.597488"/>
     <use style="fill:#0000ff;stroke:#0000ff;" x="738.720093" xlink:href="#mb9c0ea71d4" y="100.970551"/>
     <use style="fill:#0000ff;stroke:#0000ff;" x="746.661953" xlink:href="#mb9c0ea71d4" y="107.852123"/>
     <use style="fill:#0000ff;stroke:#0000ff;" x="754.603814" xlink:href="#mb9c0ea71d4" y="94.526051"/>
     <use style="fill:#0000ff;stroke:#0000ff;" x="762.545674" xlink:href="#mb9c0ea71d4" y="96.138653"/>
     <use style="fill:#0000ff;stroke:#0000ff;" x="770.487535" xlink:href="#mb9c0ea71d4" y="83.161073"/>
     <use style="fill:#0000ff;stroke:#0000ff;" x="778.429395" xlink:href="#mb9c0ea71d4" y="106.735172"/>
     <use style="fill:#0000ff;stroke:#0000ff;" x="786.371256" xlink:href="#mb9c0ea71d4" y="117.487422"/>
     <use style="fill:#0000ff;stroke:#0000ff;" x="794.313116" xlink:href="#mb9c0ea71d4" y="97.186756"/>
     <use style="fill:#0000ff;stroke:#0000ff;" x="802.254977" xlink:href="#mb9c0ea71d4" y="115.563145"/>
     <use style="fill:#0000ff;stroke:#0000ff;" x="810.196837" xlink:href="#mb9c0ea71d4" y="106.472356"/>
     <use style="fill:#0000ff;stroke:#0000ff;" x="818.138698" xlink:href="#mb9c0ea71d4" y="133.1824"/>
     <use style="fill:#0000ff;stroke:#0000ff;" x="826.080558" xlink:href="#mb9c0ea71d4" y="85.621845"/>
     <use style="fill:#0000ff;stroke:#0000ff;" x="834.022419" xlink:href="#mb9c0ea71d4" y="111.455358"/>
     <use style="fill:#0000ff;stroke:#0000ff;" x="841.964279" xlink:href="#mb9c0ea71d4" y="99.162734"/>
     <use style="fill:#0000ff;stroke:#0000ff;" x="849.90614" xlink:href="#mb9c0ea71d4" y="131.095882"/>
     <use style="fill:#0000ff;stroke:#0000ff;" x="857.848" xlink:href="#mb9c0ea71d4" y="115.113703"/>
    </g>
   </g>
   <g id="patch_3">
    <path d="M 147.528 135.8784 
L 147.528 63.0864 
" style="fill:none;stroke:#000000;stroke-linecap:square;stroke-linejoin:miter;stroke-width:0.8;"/>
   </g>
   <g id="patch_4">
    <path d="M 885.168 135.8784 
L 885.168 63.0864 
" style="fill:none;stroke:#000000;stroke-linecap:square;stroke-linejoin:miter;stroke-width:0.8;"/>
   </g>
   <g id="patch_5">
    <path d="M 147.528 135.8784 
L 885.168 135.8784 
" style="fill:none;stroke:#000000;stroke-linecap:square;stroke-linejoin:miter;stroke-width:0.8;"/>
   </g>
   <g id="patch_6">
    <path d="M 147.528 63.0864 
L 885.168 63.0864 
" style="fill:none;stroke:#000000;stroke-linecap:square;stroke-linejoin:miter;stroke-width:0.8;"/>
   </g>
   <g id="text_4">
    <!-- Function (0/0): y = a*exp(-(x-x0)**2/w**2)+b -->
    <defs>
     <path d="M 9.8125 72.90625 
L 51.703125 72.90625 
L 51.703125 64.59375 
L 19.671875 64.59375 
L 19.671875 43.109375 
L 48.578125 43.109375 
L 48.578125 34.8125 
L 19.671875 34.8125 
L 19.671875 0 
L 9.8125 0 
z
" id="DejaVuSans-46"/>
     <path d="M 48.78125 52.59375 
L 48.78125 44.1875 
Q 44.96875 46.296875 41.140625 47.34375 
Q 37.3125 48.390625 33.40625 48.390625 
Q 24.65625 48.390625 19.8125 42.84375 
Q 14.984375 37.3125 14.984375 27.296875 
Q 14.984375 17.28125 19.8125 11.734375 
Q 24.65625 6.203125 33.40625 6.203125 
Q 37.3125 6.203125 41.140625 7.25 
Q 44.96875 8.296875 48.78125 10.40625 
L 48.78125 2.09375 
Q 45.015625 0.34375 40.984375 -0.53125 
Q 36.96875 -1.421875 32.421875 -1.421875 
Q 20.0625 -1.421875 12.78125 6.34375 
Q 5.515625 14.109375 5.515625 27.296875 
Q 5.515625 40.671875 12.859375 48.328125 
Q 20.21875 56 33.015625 56 
Q 37.15625 56 41.109375 55.140625 
Q 45.0625 54.296875 48.78125 52.59375 
z
" id="DejaVuSans-63"/>
     <path d="M 30.609375 48.390625 
Q 23.390625 48.390625 19.1875 42.75 
Q 14.984375 37.109375 14.984375 27.296875 
Q 14.984375 17.484375 19.15625 11.84375 
Q 23.34375 6.203125 30.609375 6.203125 
Q 37.796875 6.203125 41.984375 11.859375 
Q 46.1875 17.53125 46.1875 27.296875 
Q 46.1875 37.015625 41.984375 42.703125 
Q 37.796875 48.390625 30.609375 48.390625 
z
M 30.609375 56 
Q 42.328125 56 49.015625 48.375 
Q 55.71875 40.765625 55.71875 27.296875 
Q 55.71875 13.875 49.015625 6.21875 
Q 42.328125 -1.421875 30.609375 -1.421875 
Q 18.84375 -1.421875 12.171875 6.21875 
Q 5.515625 13.875 5.515625 27.296875 
Q 5.515625 40.765625 12.171875 48.375 
Q 18.84375 56 30.609375 56 
z
" id="DejaVuSans-6f"/>
     <path id="DejaVuSans-20"/>
     <path d="M 31 75.875 
Q 24.46875 64.65625 21.28125 53.65625 
Q 18.109375 42.671875 18.109375 31.390625 
Q 18.109375 20.125 21.3125 9.0625 
Q 24.515625 -2 31 -13.1875 
L 23.1875 -13.1875 
Q 15.875 -1.703125 12.234375 9.375 
Q 8.59375 20.453125 8.59375 31.390625 
Q 8.59375 42.28125 12.203125 53.3125 
Q 15.828125 64.359375 23.1875 75.875 
z
" id="DejaVuSans-28"/>
     <path d="M 31.78125 66.40625 
Q 24.171875 66.40625 20.328125 58.90625 
Q 16.5 51.421875 16.5 36.375 
Q 16.5 21.390625 20.328125 13.890625 
Q 24.171875 6.390625 31.78125 6.390625 
Q 39.453125 6.390625 43.28125 13.890625 
Q 47.125 21.390625 47.125 36.375 
Q 47.125 51.421875 43.28125 58.90625 
Q 39.453125 66.40625 31.78125 66.40625 
z
M 31.78125 74.21875 
Q 44.046875 74.21875 50.515625 64.515625 
Q 56.984375 54.828125 56.984375 36.375 
Q 56.984375 17.96875 50.515625 8.265625 
Q 44.046875 -1.421875 31.78125 -1.421875 
Q 19.53125 -1.421875 13.0625 8.265625 
Q 6.59375 17.96875 6.59375 36.375 
Q 6.59375 54.828125 13.0625 64.515625 
Q 19.53125 74.21875 31.78125 74.21875 
z
" id="DejaVuSans-30"/>
     <path d="M 25.390625 72.90625 
L 33.6875 72.90625 
L 8.296875 -9.28125 
L 0 -9.28125 
z
" id="DejaVuSans-2f"/>
     <path d="M 8.015625 75.875 
L 15.828125 75.875 
Q 23.140625 64.359375 26.78125 53.3125 
Q 30.421875 42.28125 30.421875 31.390625 
Q 30.421875 20.453125 26.78125 9.375 
Q 23.140625 -1.703125 15.828125 -13.1875 
L 8.015625 -13.1875 
Q 14.5 -2 17.703125 9.0625 
Q 20.90625 20.125 20.90625 31.390625 
Q 20.90625 42.671875 17.703125 53.65625 
Q 14.5 64.65625 8.015625 75.875 
z
" id="DejaVuSans-29"/>
     <path d="M 11.71875 12.40625 
L 22.015625 12.40625 
L 22.015625 0 
L 11.71875 0 
z
M 11.71875 51.703125 
L 22.015625 51.703125 
L 22.015625 39.3125 
L 11.71875 39.3125 
z
" id="DejaVuSans-3a"/>
     <path d="M 32.171875 -5.078125 
Q 28.375 -14.84375 24.75 -17.8125 
Q 21.140625 -20.796875 15.09375 -20.796875 
L 7.90625 -20.796875 
L 7.90625 -13.28125 
L 13.1875 -13.28125 
Q 16.890625 -13.28125 18.9375 -11.515625 
Q 21 -9.765625 23.484375 -3.21875 
L 25.09375 0.875 
L 2.984375 54.6875 
L 12.5 54.6875 
L 29.59375 11.921875 
L 46.6875 54.6875 
L 56.203125 54.6875 
z
" id="DejaVuSans-79"/>
     <path d="M 10.59375 45.40625 
L 73.1875 45.40625 
L 73.1875 37.203125 
L 10.59375 37.203125 
z
M 10.59375 25.484375 
L 73.1875 25.484375 
L 73.1875 17.1875 
L 10.59375 17.1875 
z
" id="DejaVuSans-3d"/>
     <path d="M 47.015625 60.890625 
L 29.5 51.421875 
L 47.015625 41.890625 
L 44.1875 37.109375 
L 27.78125 47.015625 
L 27.78125 28.609375 
L 22.21875 28.609375 
L 22.21875 47.015625 
L 5.8125 37.109375 
L 2.984375 41.890625 
L 20.515625 51.421875 
L 2.984375 60.890625 
L 5.8125 65.71875 
L 22.21875 55.8125 
L 22.21875 74.21875 
L 27.78125 74.21875 
L 27.78125 55.8125 
L 44.1875 65.71875 
z
" id="DejaVuSans-2a"/>
     <path d="M 54.890625 54.6875 
L 35.109375 28.078125 
L 55.90625 0 
L 45.3125 0 
L 29.390625 21.484375 
L 13.484375 0 
L 2.875 0 
L 24.125 28.609375 
L 4.6875 54.6875 
L 15.28125 54.6875 
L 29.78125 35.203125 
L 44.28125 54.6875 
z
" id="DejaVuSans-78"/>
     <path d="M 18.109375 8.203125 
L 18.109375 -20.796875 
L 9.078125 -20.796875 
L 9.078125 54.6875 
L 18.109375 54.6875 
L 18.109375 46.390625 
Q 20.953125 51.265625 25.265625 53.625 
Q 29.59375 56 35.59375 56 
Q 45.5625 56 51.78125 48.09375 
Q 58.015625 40.1875 58.015625 27.296875 
Q 58.015625 14.40625 51.78125 6.484375 
Q 45.5625 -1.421875 35.59375 -1.421875 
Q 29.59375 -1.421875 25.265625 0.953125 
Q 20.953125 3.328125 18.109375 8.203125 
z
M 48.6875 27.296875 
Q 48.6875 37.203125 44.609375 42.84375 
Q 40.53125 48.484375 33.40625 48.484375 
Q 26.265625 48.484375 22.1875 42.84375 
Q 18.109375 37.203125 18.109375 27.296875 
Q 18.109375 17.390625 22.1875 11.75 
Q 26.265625 6.109375 33.40625 6.109375 
Q 40.53125 6.109375 44.609375 11.75 
Q 48.6875 17.390625 48.6875 27.296875 
z
" id="DejaVuSans-70"/>
     <path d="M 4.890625 31.390625 
L 31.203125 31.390625 
L 31.203125 23.390625 
L 4.890625 23.390625 
z
" id="DejaVuSans-2d"/>
     <path d="M 4.203125 54.6875 
L 13.1875 54.6875 
L 24.421875 12.015625 
L 35.59375 54.6875 
L 46.1875 54.6875 
L 57.421875 12.015625 
L 68.609375 54.6875 
L 77.59375 54.6875 
L 63.28125 0 
L 52.6875 0 
L 40.921875 44.828125 
L 29.109375 0 
L 18.5 0 
z
" id="DejaVuSans-77"/>
     <path d="M 46 62.703125 
L 46 35.5 
L 73.1875 35.5 
L 73.1875 27.203125 
L 46 27.203125 
L 46 0 
L 37.796875 0 
L 37.796875 27.203125 
L 10.59375 27.203125 
L 10.59375 35.5 
L 37.796875 35.5 
L 37.796875 62.703125 
z
" id="DejaVuSans-2b"/>
     <path d="M 48.6875 27.296875 
Q 48.6875 37.203125 44.609375 42.84375 
Q 40.53125 48.484375 33.40625 48.484375 
Q 26.265625 48.484375 22.1875 42.84375 
Q 18.109375 37.203125 18.109375 27.296875 
Q 18.109375 17.390625 22.1875 11.75 
Q 26.265625 6.109375 33.40625 6.109375 
Q 40.53125 6.109375 44.609375 11.75 
Q 48.6875 17.390625 48.6875 27.296875 
z
M 18.109375 46.390625 
Q 20.953125 51.265625 25.265625 53.625 
Q 29.59375 56 35.59375 56 
Q 45.5625 56 51.78125 48.09375 
Q 58.015625 40.1875 58.015625 27.296875 
Q 58.015625 14.40625 51.78125 6.484375 
Q 45.5625 -1.421875 35.59375 -1.421875 
Q 29.59375 -1.421875 25.265625 0.953125 
Q 20.953125 3.328125 18.109375 8.203125 
L 18.109375 0 
L 9.078125 0 
L 9.078125 75.984375 
L 18.109375 75.984375 
z
" id="DejaVuSans-62"/>
    </defs>
    <g transform="translate(147.528 45.888588)scale(0.1 -0.1)">
     <use xlink:href="#DejaVuSans-46"/>
     <use x="57.441406" xlink:href="#DejaVuSans-75"/>
     <use x="120.820312" xlink:href="#DejaVuSans-6e"/>
     <use x="184.199219" xlink:href="#DejaVuSans-63"/>
     <use x="239.179688" xlink:href="#DejaVuSans-74"/>
     <use x="278.388672" xlink:href="#DejaVuSans-69"/>
     <use x="306.171875" xlink:href="#DejaVuSans-6f"/>
     <use x="367.353516" xlink:href="#DejaVuSans-6e"/>
     <use x="430.732422" xlink:href="#DejaVuSans-20"/>
     <use x="462.519531" xlink:href="#DejaVuSans-28"/>
     <use x="501.533203" xlink:href="#DejaVuSans-30"/>
     <use x="565.15625" xlink:href="#DejaVuSans-2f"/>
     <use x="598.847656" xlink:href="#DejaVuSans-30"/>
     <use x="662.470703" xlink:href="#DejaVuSans-29"/>
     <use x="701.484375" xlink:href="#DejaVuSans-3a"/>
     <use x="735.175781" xlink:href="#DejaVuSans-20"/>
     <use x="766.962891" xlink:href="#DejaVuSans-79"/>
     <use x="826.142578" xlink:href="#DejaVuSans-20"/>
     <use x="857.929688" xlink:href="#DejaVuSans-3d"/>
     <use x="941.71875" xlink:href="#DejaVuSans-20"/>
     <use x="973.505859" xlink:href="#DejaVuSans-61"/>
     <use x="1034.785156" xlink:href="#DejaVuSans-2a"/>
     <use x="1084.785156" xlink:href="#DejaVuSans-65"/>
     <use x="1146.292969" xlink:href="#DejaVuSans-78"/>
     <use x="1205.472656" xlink:href="#DejaVuSans-70"/>
     <use x="1268.949219" xlink:href="#DejaVuSans-28"/>
     <use x="1307.962891" xlink:href="#DejaVuSans-2d"/>
     <use x="1344.046875" xlink:href="#DejaVuSans-28"/>
     <use x="1383.060547" xlink:href="#DejaVuSans-78"/>
     <use x="1442.240234" xlink:href="#DejaVuSans-2d"/>
     <use x="1478.324219" xlink:href="#DejaVuSans-78"/>
     <use x="1537.503906" xlink:href="#DejaVuSans-30"/>
     <use x="1601.126953" xlink:href="#DejaVuSans-29"/>
     <use x="1640.140625" xlink:href="#DejaVuSans-2a"/>
     <use x="1690.140625" xlink:href="#DejaVuSans-2a"/>
     <use x="1740.140625" xlink:href="#DejaVuSans-32"/>
     <use x="1803.763672" xlink:href="#DejaVuSans-2f"/>
     <use x="1837.455078" xlink:href="#DejaVuSans-77"/>
     <use x="1919.242188" xlink:href="#DejaVuSans-2a"/>
     <use x="1969.242188" xlink:href="#DejaVuSans-2a"/>
     <use x="2019.242188" xlink:href="#DejaVuSans-32"/>
     <use x="2082.865234" xlink:href="#DejaVuSans-29"/>
     <use x="2121.878906" xlink:href="#DejaVuSans-2b"/>
     <use x="2205.667969" xlink:href="#DejaVuSans-62"/>
    </g>
    <!-- Fit: a=389.4$\pm$8.7, b=15.1$\pm$9.9, x0=4.4858$\pm$0.0011, w=0.1826$\pm$0.0054, -->
    <defs>
     <path d="M 40.578125 39.3125 
Q 47.65625 37.796875 51.625 33 
Q 55.609375 28.21875 55.609375 21.1875 
Q 55.609375 10.40625 48.1875 4.484375 
Q 40.765625 -1.421875 27.09375 -1.421875 
Q 22.515625 -1.421875 17.65625 -0.515625 
Q 12.796875 0.390625 7.625 2.203125 
L 7.625 11.71875 
Q 11.71875 9.328125 16.59375 8.109375 
Q 21.484375 6.890625 26.8125 6.890625 
Q 36.078125 6.890625 40.9375 10.546875 
Q 45.796875 14.203125 45.796875 21.1875 
Q 45.796875 27.640625 41.28125 31.265625 
Q 36.765625 34.90625 28.71875 34.90625 
L 20.21875 34.90625 
L 20.21875 43.015625 
L 29.109375 43.015625 
Q 36.375 43.015625 40.234375 45.921875 
Q 44.09375 48.828125 44.09375 54.296875 
Q 44.09375 59.90625 40.109375 62.90625 
Q 36.140625 65.921875 28.71875 65.921875 
Q 24.65625 65.921875 20.015625 65.03125 
Q 15.375 64.15625 9.8125 62.3125 
L 9.8125 71.09375 
Q 15.4375 72.65625 20.34375 73.4375 
Q 25.25 74.21875 29.59375 74.21875 
Q 40.828125 74.21875 47.359375 69.109375 
Q 53.90625 64.015625 53.90625 55.328125 
Q 53.90625 49.265625 50.4375 45.09375 
Q 46.96875 40.921875 40.578125 39.3125 
z
" id="DejaVuSans-33"/>
     <path d="M 31.78125 34.625 
Q 24.75 34.625 20.71875 30.859375 
Q 16.703125 27.09375 16.703125 20.515625 
Q 16.703125 13.921875 20.71875 10.15625 
Q 24.75 6.390625 31.78125 6.390625 
Q 38.8125 6.390625 42.859375 10.171875 
Q 46.921875 13.96875 46.921875 20.515625 
Q 46.921875 27.09375 42.890625 30.859375 
Q 38.875 34.625 31.78125 34.625 
z
M 21.921875 38.8125 
Q 15.578125 40.375 12.03125 44.71875 
Q 8.5 49.078125 8.5 55.328125 
Q 8.5 64.0625 14.71875 69.140625 
Q 20.953125 74.21875 31.78125 74.21875 
Q 42.671875 74.21875 48.875 69.140625 
Q 55.078125 64.0625 55.078125 55.328125 
Q 55.078125 49.078125 51.53125 44.71875 
Q 48 40.375 41.703125 38.8125 
Q 48.828125 37.15625 52.796875 32.3125 
Q 56.78125 27.484375 56.78125 20.515625 
Q 56.78125 9.90625 50.3125 4.234375 
Q 43.84375 -1.421875 31.78125 -1.421875 
Q 19.734375 -1.421875 13.25 4.234375 
Q 6.78125 9.90625 6.78125 20.515625 
Q 6.78125 27.484375 10.78125 32.3125 
Q 14.796875 37.15625 21.921875 38.8125 
z
M 18.3125 54.390625 
Q 18.3125 48.734375 21.84375 45.5625 
Q 25.390625 42.390625 31.78125 42.390625 
Q 38.140625 42.390625 41.71875 45.5625 
Q 45.3125 48.734375 45.3125 54.390625 
Q 45.3125 60.0625 41.71875 63.234375 
Q 38.140625 66.40625 31.78125 66.40625 
Q 25.390625 66.40625 21.84375 63.234375 
Q 18.3125 60.0625 18.3125 54.390625 
z
" id="DejaVuSans-38"/>
     <path d="M 10.984375 1.515625 
L 10.984375 10.5 
Q 14.703125 8.734375 18.5 7.8125 
Q 22.3125 6.890625 25.984375 6.890625 
Q 35.75 6.890625 40.890625 13.453125 
Q 46.046875 20.015625 46.78125 33.40625 
Q 43.953125 29.203125 39.59375 26.953125 
Q 35.25 24.703125 29.984375 24.703125 
Q 19.046875 24.703125 12.671875 31.3125 
Q 6.296875 37.9375 6.296875 49.421875 
Q 6.296875 60.640625 12.9375 67.421875 
Q 19.578125 74.21875 30.609375 74.21875 
Q 43.265625 74.21875 49.921875 64.515625 
Q 56.59375 54.828125 56.59375 36.375 
Q 56.59375 19.140625 48.40625 8.859375 
Q 40.234375 -1.421875 26.421875 -1.421875 
Q 22.703125 -1.421875 18.890625 -0.6875 
Q 15.09375 0.046875 10.984375 1.515625 
z
M 30.609375 32.421875 
Q 37.25 32.421875 41.125 36.953125 
Q 45.015625 41.5 45.015625 49.421875 
Q 45.015625 57.28125 41.125 61.84375 
Q 37.25 66.40625 30.609375 66.40625 
Q 23.96875 66.40625 20.09375 61.84375 
Q 16.21875 57.28125 16.21875 49.421875 
Q 16.21875 41.5 20.09375 36.953125 
Q 23.96875 32.421875 30.609375 32.421875 
z
" id="DejaVuSans-39"/>
     <path d="M 10.6875 12.40625 
L 21 12.40625 
L 21 0 
L 10.6875 0 
z
" id="DejaVuSans-2e"/>
     <path d="M 37.796875 64.3125 
L 12.890625 25.390625 
L 37.796875 25.390625 
z
M 35.203125 72.90625 
L 47.609375 72.90625 
L 47.609375 25.390625 
L 58.015625 25.390625 
L 58.015625 17.1875 
L 47.609375 17.1875 
L 47.609375 0 
L 37.796875 0 
L 37.796875 17.1875 
L 4.890625 17.1875 
L 4.890625 26.703125 
z
" id="DejaVuSans-34"/>
     <path d="M 46 62.703125 
L 46 43.796875 
L 73.1875 43.796875 
L 73.1875 35.5 
L 46 35.5 
L 46 16.609375 
L 37.796875 16.609375 
L 37.796875 35.5 
L 10.59375 35.5 
L 10.59375 43.796875 
L 37.796875 43.796875 
L 37.796875 62.703125 
z
M 10.59375 8.296875 
L 73.1875 8.296875 
L 73.1875 0 
L 10.59375 0 
z
" id="DejaVuSans-b1"/>
     <path d="M 8.203125 72.90625 
L 55.078125 72.90625 
L 55.078125 68.703125 
L 28.609375 0 
L 18.3125 0 
L 43.21875 64.59375 
L 8.203125 64.59375 
z
" id="DejaVuSans-37"/>
     <path d="M 11.71875 12.40625 
L 22.015625 12.40625 
L 22.015625 4 
L 14.015625 -11.625 
L 7.71875 -11.625 
L 11.71875 4 
z
" id="DejaVuSans-2c"/>
     <path d="M 12.40625 8.296875 
L 28.515625 8.296875 
L 28.515625 63.921875 
L 10.984375 60.40625 
L 10.984375 69.390625 
L 28.421875 72.90625 
L 38.28125 72.90625 
L 38.28125 8.296875 
L 54.390625 8.296875 
L 54.390625 0 
L 12.40625 0 
z
" id="DejaVuSans-31"/>
     <path d="M 10.796875 72.90625 
L 49.515625 72.90625 
L 49.515625 64.59375 
L 19.828125 64.59375 
L 19.828125 46.734375 
Q 21.96875 47.46875 24.109375 47.828125 
Q 26.265625 48.1875 28.421875 48.1875 
Q 40.625 48.1875 47.75 41.5 
Q 54.890625 34.8125 54.890625 23.390625 
Q 54.890625 11.625 47.5625 5.09375 
Q 40.234375 -1.421875 26.90625 -1.421875 
Q 22.3125 -1.421875 17.546875 -0.640625 
Q 12.796875 0.140625 7.71875 1.703125 
L 7.71875 11.625 
Q 12.109375 9.234375 16.796875 8.0625 
Q 21.484375 6.890625 26.703125 6.890625 
Q 35.15625 6.890625 40.078125 11.328125 
Q 45.015625 15.765625 45.015625 23.390625 
Q 45.015625 31 40.078125 35.4375 
Q 35.15625 39.890625 26.703125 39.890625 
Q 22.75 39.890625 18.8125 39.015625 
Q 14.890625 38.140625 10.796875 36.28125 
z
" id="DejaVuSans-35"/>
     <path d="M 33.015625 40.375 
Q 26.375 40.375 22.484375 35.828125 
Q 18.609375 31.296875 18.609375 23.390625 
Q 18.609375 15.53125 22.484375 10.953125 
Q 26.375 6.390625 33.015625 6.390625 
Q 39.65625 6.390625 43.53125 10.953125 
Q 47.40625 15.53125 47.40625 23.390625 
Q 47.40625 31.296875 43.53125 35.828125 
Q 39.65625 40.375 33.015625 40.375 
z
M 52.59375 71.296875 
L 52.59375 62.3125 
Q 48.875 64.0625 45.09375 64.984375 
Q 41.3125 65.921875 37.59375 65.921875 
Q 27.828125 65.921875 22.671875 59.328125 
Q 17.53125 52.734375 16.796875 39.40625 
Q 19.671875 43.65625 24.015625 45.921875 
Q 28.375 48.1875 33.59375 48.1875 
Q 44.578125 48.1875 50.953125 41.515625 
Q 57.328125 34.859375 57.328125 23.390625 
Q 57.328125 12.15625 50.6875 5.359375 
Q 44.046875 -1.421875 33.015625 -1.421875 
Q 20.359375 -1.421875 13.671875 8.265625 
Q 6.984375 17.96875 6.984375 36.375 
Q 6.984375 53.65625 15.1875 63.9375 
Q 23.390625 74.21875 37.203125 74.21875 
Q 40.921875 74.21875 44.703125 73.484375 
Q 48.484375 72.75 52.59375 71.296875 
z
" id="DejaVuSans-36"/>
    </defs>
    <g transform="translate(147.528 57.0864)scale(0.1 -0.1)">
     <use transform="translate(0 0.015625)" xlink:href="#DejaVuSans-46"/>
     <use transform="translate(57.519531 0.015625)" xlink:href="#DejaVuSans-69"/>
     <use transform="translate(85.302734 0.015625)" xlink:href="#DejaVuSans-74"/>
     <use transform="translate(124.511719 0.015625)" xlink:href="#DejaVuSans-3a"/>
     <use transform="translate(158.203125 0.015625)" xlink:href="#DejaVuSans-20"/>
     <use transform="translate(189.990234 0.015625)" xlink:href="#DejaVuSans-61"/>
     <use transform="translate(251.269531 0.015625)" xlink:href="#DejaVuSans-3d"/>
     <use transform="translate(335.058594 0.015625)" xlink:href="#DejaVuSans-33"/>
     <use transform="translate(398.681641 0.015625)" xlink:href="#DejaVuSans-38"/>
     <use transform="translate(462.304688 0.015625)" xlink:href="#DejaVuSans-39"/>
     <use transform="translate(525.927734 0.015625)" xlink:href="#DejaVuSans-2e"/>
     <use transform="translate(557.714844 0.015625)" xlink:href="#DejaVuSans-34"/>
     <use transform="translate(621.337891 0.015625)" xlink:href="#DejaVuSans-b1"/>
     <use transform="translate(705.126953 0.015625)" xlink:href="#DejaVuSans-38"/>
     <use transform="translate(768.75 0.015625)" xlink:href="#DejaVuSans-2e"/>
     <use transform="translate(800.427734 0.015625)" xlink:href="#DejaVuSans-37"/>
     <use transform="translate(864.050781 0.015625)" xlink:href="#DejaVuSans-2c"/>
     <use transform="translate(895.837891 0.015625)" xlink:href="#DejaVuSans-20"/>
     <use transform="translate(927.625 0.015625)" xlink:href="#DejaVuSans-62"/>
     <use transform="translate(991.101562 0.015625)" xlink:href="#DejaVuSans-3d"/>
     <use transform="translate(1074.890625 0.015625)" xlink:href="#DejaVuSans-31"/>
     <use transform="translate(1138.513672 0.015625)" xlink:href="#DejaVuSans-35"/>
     <use transform="translate(1202.136719 0.015625)" xlink:href="#DejaVuSans-2e"/>
     <use transform="translate(1233.923828 0.015625)" xlink:href="#DejaVuSans-31"/>
     <use transform="translate(1297.546875 0.015625)" xlink:href="#DejaVuSans-b1"/>
     <use transform="translate(1381.335938 0.015625)" xlink:href="#DejaVuSans-39"/>
     <use transform="translate(1444.958984 0.015625)" xlink:href="#DejaVuSans-2e"/>
     <use transform="translate(1476.746094 0.015625)" xlink:href="#DejaVuSans-39"/>
     <use transform="translate(1540.369141 0.015625)" xlink:href="#DejaVuSans-2c"/>
     <use transform="translate(1572.15625 0.015625)" xlink:href="#DejaVuSans-20"/>
     <use transform="translate(1603.943359 0.015625)" xlink:href="#DejaVuSans-78"/>
     <use transform="translate(1663.123047 0.015625)" xlink:href="#DejaVuSans-30"/>
     <use transform="translate(1726.746094 0.015625)" xlink:href="#DejaVuSans-3d"/>
     <use transform="translate(1810.535156 0.015625)" xlink:href="#DejaVuSans-34"/>
     <use transform="translate(1874.158203 0.015625)" xlink:href="#DejaVuSans-2e"/>
     <use transform="translate(1905.945312 0.015625)" xlink:href="#DejaVuSans-34"/>
     <use transform="translate(1969.568359 0.015625)" xlink:href="#DejaVuSans-38"/>
     <use transform="translate(2033.191406 0.015625)" xlink:href="#DejaVuSans-35"/>
     <use transform="translate(2096.814453 0.015625)" xlink:href="#DejaVuSans-38"/>
     <use transform="translate(2160.4375 0.015625)" xlink:href="#DejaVuSans-b1"/>
     <use transform="translate(2244.226562 0.015625)" xlink:href="#DejaVuSans-30"/>
     <use transform="translate(2307.849609 0.015625)" xlink:href="#DejaVuSans-2e"/>
     <use transform="translate(2339.636719 0.015625)" xlink:href="#DejaVuSans-30"/>
     <use transform="translate(2403.259766 0.015625)" xlink:href="#DejaVuSans-30"/>
     <use transform="translate(2466.882812 0.015625)" xlink:href="#DejaVuSans-31"/>
     <use transform="translate(2530.505859 0.015625)" xlink:href="#DejaVuSans-31"/>
     <use transform="translate(2594.128906 0.015625)" xlink:href="#DejaVuSans-2c"/>
     <use transform="translate(2625.916016 0.015625)" xlink:href="#DejaVuSans-20"/>
     <use transform="translate(2657.703125 0.015625)" xlink:href="#DejaVuSans-77"/>
     <use transform="translate(2739.490234 0.015625)" xlink:href="#DejaVuSans-3d"/>
     <use transform="translate(2823.279297 0.015625)" xlink:href="#DejaVuSans-30"/>
     <use transform="translate(2886.902344 0.015625)" xlink:href="#DejaVuSans-2e"/>
     <use transform="translate(2918.689453 0.015625)" xlink:href="#DejaVuSans-31"/>
     <use transform="translate(2982.3125 0.015625)" xlink:href="#DejaVuSans-38"/>
     <use transform="translate(3045.935547 0.015625)" xlink:href="#DejaVuSans-32"/>
     <use transform="translate(3109.558594 0.015625)" xlink:href="#DejaVuSans-36"/>
     <use transform="translate(3173.181641 0.015625)" xlink:href="#DejaVuSans-b1"/>
     <use transform="translate(3256.970703 0.015625)" xlink:href="#DejaVuSans-30"/>
     <use transform="translate(3320.59375 0.015625)" xlink:href="#DejaVuSans-2e"/>
     <use transform="translate(3352.380859 0.015625)" xlink:href="#DejaVuSans-30"/>
     <use transform="translate(3416.003906 0.015625)" xlink:href="#DejaVuSans-30"/>
     <use transform="translate(3479.626953 0.015625)" xlink:href="#DejaVuSans-35"/>
     <use transform="translate(3543.25 0.015625)" xlink:href="#DejaVuSans-34"/>
     <use transform="translate(3606.873047 0.015625)" xlink:href="#DejaVuSans-2c"/>
    </g>
   </g>
  </g>
  <g id="axes_2">
   <g id="patch_7">
    <path d="M 147.528 436.752 
L 885.168 436.752 
L 885.168 145.584 
L 147.528 145.584 
z
" style="fill:#ffffff;"/>
   </g>
   <g id="matplotlib.axis_3">
    <g id="xtick_6">
     <g id="line2d_11">
      <g>
       <use style="stroke:#000000;stroke-width:0.8;" x="274.909149" xlink:href="#mbb73cdc3be" y="436.752"/>
      </g>
     </g>
     <g id="text_5">
      <!-- 4.3 -->
      <g transform="translate(265.367274 452.870125)scale(0.12 -0.12)">
       <use xlink:href="#DejaVuSans-34"/>
       <use x="63.623047" xlink:href="#DejaVuSans-2e"/>
       <use x="95.410156" xlink:href="#DejaVuSans-33"/>
      </g>
     </g>
    </g>
    <g id="xtick_7">
     <g id="line2d_12">
      <g>
       <use style="stroke:#000000;stroke-width:0.8;" x="408.41297" xlink:href="#mbb73cdc3be" y="436.752"/>
      </g>
     </g>
     <g id="text_6">
      <!-- 4.4 -->
      <g transform="translate(398.871095 452.870125)scale(0.12 -0.12)">
       <use xlink:href="#DejaVuSans-34"/>
       <use x="63.623047" xlink:href="#DejaVuSans-2e"/>
       <use x="95.410156" xlink:href="#DejaVuSans-34"/>
      </g>
     </g>
    </g>
    <g id="xtick_8">
     <g id="line2d_13">
      <g>
       <use style="stroke:#000000;stroke-width:0.8;" x="541.91679" xlink:href="#mbb73cdc3be" y="436.752"/>
      </g>
     </g>
     <g id="text_7">
      <!-- 4.5 -->
      <g transform="translate(532.374915 452.870125)scale(0.12 -0.12)">
       <use xlink:href="#DejaVuSans-34"/>
       <use x="63.623047" xlink:href="#DejaVuSans-2e"/>
       <use x="95.410156" xlink:href="#DejaVuSans-35"/>
      </g>
     </g>
    </g>
    <g id="xtick_9">
     <g id="line2d_14">
      <g>
       <use style="stroke:#000000;stroke-width:0.8;" x="675.420611" xlink:href="#mbb73cdc3be" y="436.752"/>
      </g>
     </g>
     <g id="text_8">
      <!-- 4.6 -->
      <g transform="translate(665.878736 452.870125)scale(0.12 -0.12)">
       <use xlink:href="#DejaVuSans-34"/>
       <use x="63.623047" xlink:href="#DejaVuSans-2e"/>
       <use x="95.410156" xlink:href="#DejaVuSans-36"/>
      </g>
     </g>
    </g>
    <g id="xtick_10">
     <g id="line2d_15">
      <g>
       <use style="stroke:#000000;stroke-width:0.8;" x="808.924432" xlink:href="#mbb73cdc3be" y="436.752"/>
      </g>
     </g>
     <g id="text_9">
      <!-- 4.7 -->
      <g transform="translate(799.382557 452.870125)scale(0.12 -0.12)">
       <use xlink:href="#DejaVuSans-34"/>
       <use x="63.623047" xlink:href="#DejaVuSans-2e"/>
       <use x="95.410156" xlink:href="#DejaVuSans-37"/>
      </g>
     </g>
    </g>
    <g id="text_10">
     <!-- Energy [MeV] -->
     <defs>
      <path d="M 9.8125 72.90625 
L 55.90625 72.90625 
L 55.90625 64.59375 
L 19.671875 64.59375 
L 19.671875 43.015625 
L 54.390625 43.015625 
L 54.390625 34.71875 
L 19.671875 34.71875 
L 19.671875 8.296875 
L 56.78125 8.296875 
L 56.78125 0 
L 9.8125 0 
z
" id="DejaVuSans-45"/>
      <path d="M 41.109375 46.296875 
Q 39.59375 47.171875 37.8125 47.578125 
Q 36.03125 48 33.890625 48 
Q 26.265625 48 22.1875 43.046875 
Q 18.109375 38.09375 18.109375 28.8125 
L 18.109375 0 
L 9.078125 0 
L 9.078125 54.6875 
L 18.109375 54.6875 
L 18.109375 46.1875 
Q 20.953125 51.171875 25.484375 53.578125 
Q 30.03125 56 36.53125 56 
Q 37.453125 56 38.578125 55.875 
Q 39.703125 55.765625 41.0625 55.515625 
z
" id="DejaVuSans-72"/>
      <path d="M 45.40625 27.984375 
Q 45.40625 37.75 41.375 43.109375 
Q 37.359375 48.484375 30.078125 48.484375 
Q 22.859375 48.484375 18.828125 43.109375 
Q 14.796875 37.75 14.796875 27.984375 
Q 14.796875 18.265625 18.828125 12.890625 
Q 22.859375 7.515625 30.078125 7.515625 
Q 37.359375 7.515625 41.375 12.890625 
Q 45.40625 18.265625 45.40625 27.984375 
z
M 54.390625 6.78125 
Q 54.390625 -7.171875 48.1875 -13.984375 
Q 42 -20.796875 29.203125 -20.796875 
Q 24.46875 -20.796875 20.265625 -20.09375 
Q 16.0625 -19.390625 12.109375 -17.921875 
L 12.109375 -9.1875 
Q 16.0625 -11.328125 19.921875 -12.34375 
Q 23.78125 -13.375 27.78125 -13.375 
Q 36.625 -13.375 41.015625 -8.765625 
Q 45.40625 -4.15625 45.40625 5.171875 
L 45.40625 9.625 
Q 42.625 4.78125 38.28125 2.390625 
Q 33.9375 0 27.875 0 
Q 17.828125 0 11.671875 7.65625 
Q 5.515625 15.328125 5.515625 27.984375 
Q 5.515625 40.671875 11.671875 48.328125 
Q 17.828125 56 27.875 56 
Q 33.9375 56 38.28125 53.609375 
Q 42.625 51.21875 45.40625 46.390625 
L 45.40625 54.6875 
L 54.390625 54.6875 
z
" id="DejaVuSans-67"/>
      <path d="M 8.59375 75.984375 
L 29.296875 75.984375 
L 29.296875 69 
L 17.578125 69 
L 17.578125 -6.203125 
L 29.296875 -6.203125 
L 29.296875 -13.1875 
L 8.59375 -13.1875 
z
" id="DejaVuSans-5b"/>
      <path d="M 9.8125 72.90625 
L 24.515625 72.90625 
L 43.109375 23.296875 
L 61.8125 72.90625 
L 76.515625 72.90625 
L 76.515625 0 
L 66.890625 0 
L 66.890625 64.015625 
L 48.09375 14.015625 
L 38.1875 14.015625 
L 19.390625 64.015625 
L 19.390625 0 
L 9.8125 0 
z
" id="DejaVuSans-4d"/>
      <path d="M 28.609375 0 
L 0.78125 72.90625 
L 11.078125 72.90625 
L 34.1875 11.53125 
L 57.328125 72.90625 
L 67.578125 72.90625 
L 39.796875 0 
z
" id="DejaVuSans-56"/>
      <path d="M 30.421875 75.984375 
L 30.421875 -13.1875 
L 9.71875 -13.1875 
L 9.71875 -6.203125 
L 21.390625 -6.203125 
L 21.390625 69 
L 9.71875 69 
L 9.71875 75.984375 
z
" id="DejaVuSans-5d"/>
     </defs>
     <g transform="translate(475.674562 468.483875)scale(0.12 -0.12)">
      <use xlink:href="#DejaVuSans-45"/>
      <use x="63.183594" xlink:href="#DejaVuSans-6e"/>
      <use x="126.5625" xlink:href="#DejaVuSans-65"/>
      <use x="188.085938" xlink:href="#DejaVuSans-72"/>
      <use x="229.183594" xlink:href="#DejaVuSans-67"/>
      <use x="292.660156" xlink:href="#DejaVuSans-79"/>
      <use x="351.839844" xlink:href="#DejaVuSans-20"/>
      <use x="383.626953" xlink:href="#DejaVuSans-5b"/>
      <use x="422.640625" xlink:href="#DejaVuSans-4d"/>
      <use x="508.919922" xlink:href="#DejaVuSans-65"/>
      <use x="570.443359" xlink:href="#DejaVuSans-56"/>
      <use x="638.851562" xlink:href="#DejaVuSans-5d"/>
     </g>
    </g>
   </g>
   <g id="matplotlib.axis_4">
    <g id="ytick_4">
     <g id="line2d_16">
      <g>
       <use style="stroke:#000000;stroke-width:0.8;" x="147.528" xlink:href="#m048bc6e729" y="399.425103"/>
      </g>
     </g>
     <g id="text_11">
      <!-- 100 -->
      <g transform="translate(117.623 403.984165)scale(0.12 -0.12)">
       <use xlink:href="#DejaVuSans-31"/>
       <use x="63.623047" xlink:href="#DejaVuSans-30"/>
       <use x="127.246094" xlink:href="#DejaVuSans-30"/>
      </g>
     </g>
    </g>
    <g id="ytick_5">
     <g id="line2d_17">
      <g>
       <use style="stroke:#000000;stroke-width:0.8;" x="147.528" xlink:href="#m048bc6e729" y="361.506678"/>
      </g>
     </g>
     <g id="text_12">
      <!-- 150 -->
      <g transform="translate(117.623 366.06574)scale(0.12 -0.12)">
       <use xlink:href="#DejaVuSans-31"/>
       <use x="63.623047" xlink:href="#DejaVuSans-35"/>
       <use x="127.246094" xlink:href="#DejaVuSans-30"/>
      </g>
     </g>
    </g>
    <g id="ytick_6">
     <g id="line2d_18">
      <g>
       <use style="stroke:#000000;stroke-width:0.8;" x="147.528" xlink:href="#m048bc6e729" y="323.588253"/>
      </g>
     </g>
     <g id="text_13">
      <!-- 200 -->
      <g transform="translate(117.623 328.147316)scale(0.12 -0.12)">
       <use xlink:href="#DejaVuSans-32"/>
       <use x="63.623047" xlink:href="#DejaVuSans-30"/>
       <use x="127.246094" xlink:href="#DejaVuSans-30"/>
      </g>
     </g>
    </g>
    <g id="ytick_7">
     <g id="line2d_19">
      <g>
       <use style="stroke:#000000;stroke-width:0.8;" x="147.528" xlink:href="#m048bc6e729" y="285.669828"/>
      </g>
     </g>
     <g id="text_14">
      <!-- 250 -->
      <g transform="translate(117.623 290.228891)scale(0.12 -0.12)">
       <use xlink:href="#DejaVuSans-32"/>
       <use x="63.623047" xlink:href="#DejaVuSans-35"/>
       <use x="127.246094" xlink:href="#DejaVuSans-30"/>
      </g>
     </g>
    </g>
    <g id="ytick_8">
     <g id="line2d_20">
      <g>
       <use style="stroke:#000000;stroke-width:0.8;" x="147.528" xlink:href="#m048bc6e729" y="247.751404"/>
      </g>
     </g>
     <g id="text_15">
      <!-- 300 -->
      <g transform="translate(117.623 252.310466)scale(0.12 -0.12)">
       <use xlink:href="#DejaVuSans-33"/>
       <use x="63.623047" xlink:href="#DejaVuSans-30"/>
       <use x="127.246094" xlink:href="#DejaVuSans-30"/>
      </g>
     </g>
    </g>
    <g id="ytick_9">
     <g id="line2d_21">
      <g>
       <use style="stroke:#000000;stroke-width:0.8;" x="147.528" xlink:href="#m048bc6e729" y="209.832979"/>
      </g>
     </g>
     <g id="text_16">
      <!-- 350 -->
      <g transform="translate(117.623 214.392041)scale(0.12 -0.12)">
       <use xlink:href="#DejaVuSans-33"/>
       <use x="63.623047" xlink:href="#DejaVuSans-35"/>
       <use x="127.246094" xlink:href="#DejaVuSans-30"/>
      </g>
     </g>
    </g>
    <g id="ytick_10">
     <g id="line2d_22">
      <g>
       <use style="stroke:#000000;stroke-width:0.8;" x="147.528" xlink:href="#m048bc6e729" y="171.914554"/>
      </g>
     </g>
     <g id="text_17">
      <!-- 400 -->
      <g transform="translate(117.623 176.473617)scale(0.12 -0.12)">
       <use xlink:href="#DejaVuSans-34"/>
       <use x="63.623047" xlink:href="#DejaVuSans-30"/>
       <use x="127.246094" xlink:href="#DejaVuSans-30"/>
      </g>
     </g>
    </g>
    <g id="text_18">
     <!-- Counts -->
     <defs>
      <path d="M 64.40625 67.28125 
L 64.40625 56.890625 
Q 59.421875 61.53125 53.78125 63.8125 
Q 48.140625 66.109375 41.796875 66.109375 
Q 29.296875 66.109375 22.65625 58.46875 
Q 16.015625 50.828125 16.015625 36.375 
Q 16.015625 21.96875 22.65625 14.328125 
Q 29.296875 6.6875 41.796875 6.6875 
Q 48.140625 6.6875 53.78125 8.984375 
Q 59.421875 11.28125 64.40625 15.921875 
L 64.40625 5.609375 
Q 59.234375 2.09375 53.4375 0.328125 
Q 47.65625 -1.421875 41.21875 -1.421875 
Q 24.65625 -1.421875 15.125 8.703125 
Q 5.609375 18.84375 5.609375 36.375 
Q 5.609375 53.953125 15.125 64.078125 
Q 24.65625 74.21875 41.21875 74.21875 
Q 47.75 74.21875 53.53125 72.484375 
Q 59.328125 70.75 64.40625 67.28125 
z
" id="DejaVuSans-43"/>
     </defs>
     <g transform="translate(111.127375 312.11175)rotate(-90)scale(0.12 -0.12)">
      <use xlink:href="#DejaVuSans-43"/>
      <use x="69.824219" xlink:href="#DejaVuSans-6f"/>
      <use x="131.005859" xlink:href="#DejaVuSans-75"/>
      <use x="194.384766" xlink:href="#DejaVuSans-6e"/>
      <use x="257.763672" xlink:href="#DejaVuSans-74"/>
      <use x="296.972656" xlink:href="#DejaVuSans-73"/>
     </g>
    </g>
   </g>
   <g id="LineCollection_2">
    <path clip-path="url(#pdb334eb22d)" d="M 174.848 418.151032 
L 174.848 404.208597 
" style="fill:none;stroke:#0000ff;stroke-width:1.5;"/>
    <path clip-path="url(#pdb334eb22d)" d="M 182.78986 426.023523 
L 182.78986 413.020212 
" style="fill:none;stroke:#0000ff;stroke-width:1.5;"/>
    <path clip-path="url(#pdb334eb22d)" d="M 190.731721 417.433792 
L 190.731721 403.4091 
" style="fill:none;stroke:#0000ff;stroke-width:1.5;"/>
    <path clip-path="url(#pdb334eb22d)" d="M 198.673581 418.868028 
L 198.673581 405.008338 
" style="fill:none;stroke:#0000ff;stroke-width:1.5;"/>
    <path clip-path="url(#pdb334eb22d)" d="M 206.615442 407.368989 
L 206.615442 392.239585 
" style="fill:none;stroke:#0000ff;stroke-width:1.5;"/>
    <path clip-path="url(#pdb334eb22d)" d="M 214.557302 411.687572 
L 214.557302 397.021424 
" style="fill:none;stroke:#0000ff;stroke-width:1.5;"/>
    <path clip-path="url(#pdb334eb22d)" d="M 222.499163 406.288243 
L 222.499163 391.045225 
" style="fill:none;stroke:#0000ff;stroke-width:1.5;"/>
    <path clip-path="url(#pdb334eb22d)" d="M 230.441023 391.841418 
L 230.441023 375.157311 
" style="fill:none;stroke:#0000ff;stroke-width:1.5;"/>
    <path clip-path="url(#pdb334eb22d)" d="M 238.382884 390.031234 
L 238.382884 373.175652 
" style="fill:none;stroke:#0000ff;stroke-width:1.5;"/>
    <path clip-path="url(#pdb334eb22d)" d="M 246.324744 397.266511 
L 246.324744 381.107745 
" style="fill:none;stroke:#0000ff;stroke-width:1.5;"/>
    <path clip-path="url(#pdb334eb22d)" d="M 254.266605 388.944708 
L 254.266605 371.987073 
" style="fill:none;stroke:#0000ff;stroke-width:1.5;"/>
    <path clip-path="url(#pdb334eb22d)" d="M 262.208465 387.857876 
L 262.208465 370.798799 
" style="fill:none;stroke:#0000ff;stroke-width:1.5;"/>
    <path clip-path="url(#pdb334eb22d)" d="M 270.150326 373.703553 
L 270.150326 355.376751 
" style="fill:none;stroke:#0000ff;stroke-width:1.5;"/>
    <path clip-path="url(#pdb334eb22d)" d="M 278.092186 368.612073 
L 278.092186 349.851072 
" style="fill:none;stroke:#0000ff;stroke-width:1.5;"/>
    <path clip-path="url(#pdb334eb22d)" d="M 286.034047 359.508135 
L 286.034047 339.995798 
" style="fill:none;stroke:#0000ff;stroke-width:1.5;"/>
    <path clip-path="url(#pdb334eb22d)" d="M 293.975907 356.956467 
L 293.975907 337.238886 
" style="fill:none;stroke:#0000ff;stroke-width:1.5;"/>
    <path clip-path="url(#pdb334eb22d)" d="M 301.917767 343.817577 
L 301.917767 323.07651 
" style="fill:none;stroke:#0000ff;stroke-width:1.5;"/>
    <path clip-path="url(#pdb334eb22d)" d="M 309.859628 326.262138 
L 309.859628 304.230261 
" style="fill:none;stroke:#0000ff;stroke-width:1.5;"/>
    <path clip-path="url(#pdb334eb22d)" d="M 317.801488 333.215794 
L 317.801488 311.685607 
" style="fill:none;stroke:#0000ff;stroke-width:1.5;"/>
    <path clip-path="url(#pdb334eb22d)" d="M 325.743349 326.262138 
L 325.743349 304.230261 
" style="fill:none;stroke:#0000ff;stroke-width:1.5;"/>
    <path clip-path="url(#pdb334eb22d)" d="M 333.685209 318.203582 
L 333.685209 295.60471 
" style="fill:none;stroke:#0000ff;stroke-width:1.5;"/>
    <path clip-path="url(#pdb334eb22d)" d="M 341.62707 311.605033 
L 341.62707 288.552627 
" style="fill:none;stroke:#0000ff;stroke-width:1.5;"/>
    <path clip-path="url(#pdb334eb22d)" d="M 349.56893 303.167218 
L 349.56893 279.547966 
" style="fill:none;stroke:#0000ff;stroke-width:1.5;"/>
    <path clip-path="url(#pdb334eb22d)" d="M 357.510791 287.007178 
L 357.510791 262.339793 
" style="fill:none;stroke:#0000ff;stroke-width:1.5;"/>
    <path clip-path="url(#pdb334eb22d)" d="M 365.452651 282.963724 
L 365.452651 258.041193 
" style="fill:none;stroke:#0000ff;stroke-width:1.5;"/>
    <path clip-path="url(#pdb334eb22d)" d="M 373.394512 271.561706 
L 373.394512 245.933788 
" style="fill:none;stroke:#0000ff;stroke-width:1.5;"/>
    <path clip-path="url(#pdb334eb22d)" d="M 381.336372 263.832343 
L 381.336372 237.737413 
" style="fill:none;stroke:#0000ff;stroke-width:1.5;"/>
    <path clip-path="url(#pdb334eb22d)" d="M 389.278233 257.203898 
L 389.278233 230.715225 
" style="fill:none;stroke:#0000ff;stroke-width:1.5;"/>
    <path clip-path="url(#pdb334eb22d)" d="M 397.220093 250.204079 
L 397.220093 223.306041 
" style="fill:none;stroke:#0000ff;stroke-width:1.5;"/>
    <path clip-path="url(#pdb334eb22d)" d="M 405.161953 245.781552 
L 405.161953 218.628147 
" style="fill:none;stroke:#0000ff;stroke-width:1.5;"/>
    <path clip-path="url(#pdb334eb22d)" d="M 413.103814 225.127872 
L 413.103814 196.813191 
" style="fill:none;stroke:#0000ff;stroke-width:1.5;"/>
    <path clip-path="url(#pdb334eb22d)" d="M 421.045674 233.244704 
L 421.045674 205.380466 
" style="fill:none;stroke:#0000ff;stroke-width:1.5;"/>
    <path clip-path="url(#pdb334eb22d)" d="M 428.987535 207.775754 
L 428.987535 178.52199 
" style="fill:none;stroke:#0000ff;stroke-width:1.5;"/>
    <path clip-path="url(#pdb334eb22d)" d="M 436.929395 229.924619 
L 436.929395 201.875235 
" style="fill:none;stroke:#0000ff;stroke-width:1.5;"/>
    <path clip-path="url(#pdb334eb22d)" d="M 444.871256 214.792279 
L 444.871256 185.914467 
" style="fill:none;stroke:#0000ff;stroke-width:1.5;"/>
    <path clip-path="url(#pdb334eb22d)" d="M 452.813116 210.361072 
L 452.813116 181.245252 
" style="fill:none;stroke:#0000ff;stroke-width:1.5;"/>
    <path clip-path="url(#pdb334eb22d)" d="M 460.754977 218.115036 
L 460.754977 189.417026 
" style="fill:none;stroke:#0000ff;stroke-width:1.5;"/>
    <path clip-path="url(#pdb334eb22d)" d="M 468.696837 208.514449 
L 468.696837 179.300032 
" style="fill:none;stroke:#0000ff;stroke-width:1.5;"/>
    <path clip-path="url(#pdb334eb22d)" d="M 476.638698 195.583541 
L 476.638698 165.688043 
" style="fill:none;stroke:#0000ff;stroke-width:1.5;"/>
    <path clip-path="url(#pdb334eb22d)" d="M 484.580558 196.692209 
L 484.580558 166.85448 
" style="fill:none;stroke:#0000ff;stroke-width:1.5;"/>
    <path clip-path="url(#pdb334eb22d)" d="M 492.522419 202.604152 
L 492.522419 173.076434 
" style="fill:none;stroke:#0000ff;stroke-width:1.5;"/>
    <path clip-path="url(#pdb334eb22d)" d="M 500.464279 187.081924 
L 500.464279 156.747184 
" style="fill:none;stroke:#0000ff;stroke-width:1.5;"/>
    <path clip-path="url(#pdb334eb22d)" d="M 508.40614 171.919178 
L 508.40614 140.816822 
" style="fill:none;stroke:#0000ff;stroke-width:1.5;"/>
    <path clip-path="url(#pdb334eb22d)" d="M 516.348 178.207331 
L 516.348 147.420933 
" style="fill:none;stroke:#0000ff;stroke-width:1.5;"/>
    <path clip-path="url(#pdb334eb22d)" d="M 524.28986 188.191011 
L 524.28986 157.913203 
" style="fill:none;stroke:#0000ff;stroke-width:1.5;"/>
    <path clip-path="url(#pdb334eb22d)" d="M 532.231721 177.097775 
L 532.231721 146.255384 
" style="fill:none;stroke:#0000ff;stroke-width:1.5;"/>
    <path clip-path="url(#pdb334eb22d)" d="M 540.173581 185.972784 
L 540.173581 155.581219 
" style="fill:none;stroke:#0000ff;stroke-width:1.5;"/>
    <path clip-path="url(#pdb334eb22d)" d="M 548.115442 187.451626 
L 548.115442 157.135851 
" style="fill:none;stroke:#0000ff;stroke-width:1.5;"/>
    <path clip-path="url(#pdb334eb22d)" d="M 556.057302 189.300045 
L 556.057302 159.079274 
" style="fill:none;stroke:#0000ff;stroke-width:1.5;"/>
    <path clip-path="url(#pdb334eb22d)" d="M 563.999163 207.406396 
L 563.999163 178.132979 
" style="fill:none;stroke:#0000ff;stroke-width:1.5;"/>
    <path clip-path="url(#pdb334eb22d)" d="M 571.941023 191.88758 
L 571.941023 161.800319 
" style="fill:none;stroke:#0000ff;stroke-width:1.5;"/>
    <path clip-path="url(#pdb334eb22d)" d="M 579.882884 198.170346 
L 579.882884 168.409817 
" style="fill:none;stroke:#0000ff;stroke-width:1.5;"/>
    <path clip-path="url(#pdb334eb22d)" d="M 587.824744 202.973594 
L 587.824744 173.46536 
" style="fill:none;stroke:#0000ff;stroke-width:1.5;"/>
    <path clip-path="url(#pdb334eb22d)" d="M 595.766605 208.514449 
L 595.766605 179.300032 
" style="fill:none;stroke:#0000ff;stroke-width:1.5;"/>
    <path clip-path="url(#pdb334eb22d)" d="M 603.708465 221.068123 
L 603.708465 192.530887 
" style="fill:none;stroke:#0000ff;stroke-width:1.5;"/>
    <path clip-path="url(#pdb334eb22d)" d="M 611.650326 197.061753 
L 611.650326 167.243305 
" style="fill:none;stroke:#0000ff;stroke-width:1.5;"/>
    <path clip-path="url(#pdb334eb22d)" d="M 619.592186 228.817788 
L 619.592186 200.70696 
" style="fill:none;stroke:#0000ff;stroke-width:1.5;"/>
    <path clip-path="url(#pdb334eb22d)" d="M 627.534047 226.972922 
L 627.534047 198.759983 
" style="fill:none;stroke:#0000ff;stroke-width:1.5;"/>
    <path clip-path="url(#pdb334eb22d)" d="M 635.475907 242.463874 
L 635.475907 215.120509 
" style="fill:none;stroke:#0000ff;stroke-width:1.5;"/>
    <path clip-path="url(#pdb334eb22d)" d="M 643.417767 245.044347 
L 643.417767 217.848615 
" style="fill:none;stroke:#0000ff;stroke-width:1.5;"/>
    <path clip-path="url(#pdb334eb22d)" d="M 651.359628 239.514276 
L 651.359628 212.003159 
" style="fill:none;stroke:#0000ff;stroke-width:1.5;"/>
    <path clip-path="url(#pdb334eb22d)" d="M 659.301488 257.572221 
L 659.301488 231.10527 
" style="fill:none;stroke:#0000ff;stroke-width:1.5;"/>
    <path clip-path="url(#pdb334eb22d)" d="M 667.243349 254.256989 
L 667.243349 227.595186 
" style="fill:none;stroke:#0000ff;stroke-width:1.5;"/>
    <path clip-path="url(#pdb334eb22d)" d="M 675.185209 281.125361 
L 675.185209 256.087713 
" style="fill:none;stroke:#0000ff;stroke-width:1.5;"/>
    <path clip-path="url(#pdb334eb22d)" d="M 683.12707 291.784082 
L 683.12707 267.421679 
" style="fill:none;stroke:#0000ff;stroke-width:1.5;"/>
    <path clip-path="url(#pdb334eb22d)" d="M 691.06893 281.493055 
L 691.06893 256.478388 
" style="fill:none;stroke:#0000ff;stroke-width:1.5;"/>
    <path clip-path="url(#pdb334eb22d)" d="M 699.010791 291.049298 
L 699.010791 266.639726 
" style="fill:none;stroke:#0000ff;stroke-width:1.5;"/>
    <path clip-path="url(#pdb334eb22d)" d="M 706.952651 294.355465 
L 706.952651 270.158875 
" style="fill:none;stroke:#0000ff;stroke-width:1.5;"/>
    <path clip-path="url(#pdb334eb22d)" d="M 714.894512 309.037735 
L 714.894512 285.811345 
" style="fill:none;stroke:#0000ff;stroke-width:1.5;"/>
    <path clip-path="url(#pdb334eb22d)" d="M 722.836372 311.605033 
L 722.836372 288.552627 
" style="fill:none;stroke:#0000ff;stroke-width:1.5;"/>
    <path clip-path="url(#pdb334eb22d)" d="M 730.778233 331.386448 
L 730.778233 309.723111 
" style="fill:none;stroke:#0000ff;stroke-width:1.5;"/>
    <path clip-path="url(#pdb334eb22d)" d="M 738.720093 339.797953 
L 738.720093 318.754081 
" style="fill:none;stroke:#0000ff;stroke-width:1.5;"/>
    <path clip-path="url(#pdb334eb22d)" d="M 746.661953 351.120165 
L 746.661953 330.941292 
" style="fill:none;stroke:#0000ff;stroke-width:1.5;"/>
    <path clip-path="url(#pdb334eb22d)" d="M 754.603814 350.755221 
L 754.603814 330.547867 
" style="fill:none;stroke:#0000ff;stroke-width:1.5;"/>
    <path clip-path="url(#pdb334eb22d)" d="M 762.545674 358.779196 
L 762.545674 339.207999 
" style="fill:none;stroke:#0000ff;stroke-width:1.5;"/>
    <path clip-path="url(#pdb334eb22d)" d="M 770.487535 358.414694 
L 770.487535 338.814133 
" style="fill:none;stroke:#0000ff;stroke-width:1.5;"/>
    <path clip-path="url(#pdb334eb22d)" d="M 778.429395 377.700325 
L 778.429395 359.722032 
" style="fill:none;stroke:#0000ff;stroke-width:1.5;"/>
    <path clip-path="url(#pdb334eb22d)" d="M 786.371256 388.944708 
L 786.371256 371.987073 
" style="fill:none;stroke:#0000ff;stroke-width:1.5;"/>
    <path clip-path="url(#pdb334eb22d)" d="M 794.313116 385.320779 
L 794.313116 368.027317 
" style="fill:none;stroke:#0000ff;stroke-width:1.5;"/>
    <path clip-path="url(#pdb334eb22d)" d="M 802.254977 399.434126 
L 802.254977 383.490341 
" style="fill:none;stroke:#0000ff;stroke-width:1.5;"/>
    <path clip-path="url(#pdb334eb22d)" d="M 810.196837 400.878389 
L 810.196837 385.079551 
" style="fill:none;stroke:#0000ff;stroke-width:1.5;"/>
    <path clip-path="url(#pdb334eb22d)" d="M 818.138698 416.357484 
L 818.138698 402.210303 
" style="fill:none;stroke:#0000ff;stroke-width:1.5;"/>
    <path clip-path="url(#pdb334eb22d)" d="M 826.080558 401.961148 
L 826.080558 386.271898 
" style="fill:none;stroke:#0000ff;stroke-width:1.5;"/>
    <path clip-path="url(#pdb334eb22d)" d="M 834.022419 417.433792 
L 834.022419 403.4091 
" style="fill:none;stroke:#0000ff;stroke-width:1.5;"/>
    <path clip-path="url(#pdb334eb22d)" d="M 841.964279 417.075082 
L 841.964279 403.009442 
" style="fill:none;stroke:#0000ff;stroke-width:1.5;"/>
    <path clip-path="url(#pdb334eb22d)" d="M 849.90614 432.082162 
L 849.90614 419.853838 
" style="fill:none;stroke:#0000ff;stroke-width:1.5;"/>
    <path clip-path="url(#pdb334eb22d)" d="M 857.848 430.658777 
L 857.848 418.243749 
" style="fill:none;stroke:#0000ff;stroke-width:1.5;"/>
   </g>
   <g id="line2d_23">
    <path clip-path="url(#pdb334eb22d)" d="M 174.848 474.802662 
L 191.940092 474.394505 
L 205.613766 473.852932 
L 217.236388 473.168679 
L 226.80796 472.394772 
L 235.695848 471.457195 
L 243.900052 470.360437 
L 251.420573 469.120299 
L 258.257409 467.763987 
L 264.410563 466.329142 
L 270.563716 464.664836 
L 276.033185 462.970764 
L 281.502655 461.053649 
L 286.972124 458.892555 
L 292.441594 456.465958 
L 297.227379 454.107688 
L 302.013165 451.514645 
L 306.798951 448.672179 
L 311.584737 445.565899 
L 316.370523 442.181865 
L 321.156308 438.506787 
L 325.942094 434.528245 
L 330.72788 430.234921 
L 335.513666 425.616838 
L 340.299451 420.665611 
L 345.085237 415.3747 
L 349.871023 409.739664 
L 354.656809 403.758412 
L 359.442595 397.431446 
L 364.22838 390.762092 
L 369.69785 382.729036 
L 375.167319 374.271888 
L 380.636789 365.411163 
L 386.789942 354.99379 
L 392.943095 344.146747 
L 399.779932 331.660658 
L 407.984136 316.203093 
L 419.606759 293.776378 
L 435.331483 263.491228 
L 442.852004 249.494627 
L 449.005157 238.477891 
L 454.474627 229.114231 
L 459.260412 221.318015 
L 464.046198 213.947337 
L 468.1483 208.006826 
L 472.250402 202.446894 
L 476.352505 197.296653 
L 479.770923 193.337533 
L 483.189341 189.696722 
L 486.60776 186.387934 
L 490.026178 183.423739 
L 492.760913 181.308156 
L 495.495648 179.42561 
L 498.230382 177.780764 
L 500.965117 176.377706 
L 503.699852 175.219936 
L 506.434587 174.31035 
L 509.169321 173.651228 
L 511.904056 173.244228 
L 514.638791 173.090371 
L 517.373526 173.190045 
L 520.10826 173.543 
L 522.842995 174.148348 
L 525.57773 175.004567 
L 528.312464 176.109509 
L 531.047199 177.46041 
L 533.781934 179.053897 
L 536.516669 180.886006 
L 539.251403 182.952197 
L 542.669822 185.856295 
L 546.08824 189.107015 
L 549.506659 192.69199 
L 552.925077 196.597697 
L 556.343495 200.809537 
L 560.445598 206.245838 
L 564.5477 212.071891 
L 568.649802 218.257512 
L 573.435588 225.88642 
L 578.905057 235.085313 
L 584.374527 244.720076 
L 591.211363 257.253403 
L 599.415568 272.80387 
L 615.140292 303.246325 
L 626.079231 324.17344 
L 634.283435 339.382995 
L 641.120272 351.596858 
L 647.273425 362.156132 
L 653.426579 372.252362 
L 658.896048 380.805135 
L 664.365518 388.938045 
L 669.834987 396.635078 
L 674.620773 403.004103 
L 679.406559 409.027663 
L 684.192344 414.704925 
L 688.97813 420.037676 
L 693.763916 425.030082 
L 698.549702 429.688442 
L 703.335487 434.020929 
L 708.121273 438.037337 
L 712.907059 441.748836 
L 717.692845 445.167722 
L 722.478631 448.307192 
L 727.264416 451.181117 
L 732.050202 453.803844 
L 736.835988 456.19 
L 741.621774 458.354325 
L 747.091243 460.575048 
L 752.560713 462.546847 
L 758.030182 464.290811 
L 764.183335 466.005757 
L 770.336488 467.485739 
L 777.173325 468.886183 
L 784.010162 470.061764 
L 791.530683 471.131256 
L 799.734887 472.071932 
L 808.622775 472.871338 
L 818.87803 473.566961 
L 830.500653 474.130289 
L 844.85801 474.589137 
L 857.848 474.849926 
L 857.848 474.849926 
" style="fill:none;stroke:#404040;stroke-linecap:square;stroke-width:1.5;"/>
   </g>
   <g id="line2d_24">
    <path clip-path="url(#pdb334eb22d)" d="M 174.848 425.399014 
L 182.368521 421.899222 
L 189.889041 418.167645 
L 197.409562 414.198479 
L 204.930082 409.986828 
L 212.450603 405.528815 
L 219.971123 400.821705 
L 227.491644 395.864016 
L 235.012164 390.655634 
L 243.216368 384.689493 
L 251.420573 378.430579 
L 259.624777 371.885193 
L 267.828981 365.062146 
L 276.716869 357.370501 
L 285.604757 349.384572 
L 295.176328 340.480479 
L 305.431584 330.626871 
L 316.370523 319.810342 
L 329.360513 306.64377 
L 347.136288 288.277656 
L 374.483636 260.022818 
L 386.789942 247.648908 
L 397.045197 237.648013 
L 405.933085 229.279846 
L 414.137289 221.852733 
L 421.65781 215.333319 
L 428.494647 209.674602 
L 435.331483 204.295789 
L 441.484637 199.713221 
L 447.63779 195.392146 
L 453.790943 191.347943 
L 459.260412 187.997317 
L 464.729882 184.886585 
L 470.199351 182.024752 
L 475.668821 179.420163 
L 481.13829 177.080465 
L 485.924076 175.255972 
L 490.709862 173.643734 
L 495.495648 172.247429 
L 500.281433 171.070254 
L 505.067219 170.114912 
L 509.853005 169.383603 
L 514.638791 168.878013 
L 519.424577 168.59931 
L 524.210362 168.548138 
L 528.996148 168.724617 
L 533.781934 169.128336 
L 538.56772 169.758365 
L 543.353506 170.613247 
L 548.139291 171.691015 
L 552.925077 172.98919 
L 557.710863 174.504794 
L 562.496649 176.234366 
L 567.966118 178.467947 
L 573.435588 180.969225 
L 578.905057 183.730841 
L 584.374527 186.744718 
L 589.843996 190.002108 
L 595.997149 193.946037 
L 602.150302 198.172025 
L 608.303455 202.66497 
L 615.140292 207.950909 
L 621.977129 213.524091 
L 629.49765 219.958174 
L 637.01817 226.678889 
L 645.222374 234.298548 
L 654.793946 243.511217 
L 665.732885 254.380646 
L 678.722875 267.623126 
L 701.284436 291.013524 
L 720.42758 310.730929 
L 733.41757 323.800422 
L 744.356509 334.508002 
L 754.611764 344.239841 
L 764.183335 353.015539 
L 773.071223 360.871445 
L 781.959111 368.424439 
L 790.163315 375.113308 
L 798.36752 381.519895 
L 806.571724 387.636632 
L 814.775928 393.458394 
L 822.296448 398.533445 
L 829.816969 403.357687 
L 837.337489 407.931975 
L 844.85801 412.258473 
L 852.378531 416.340537 
L 857.848 419.158276 
L 857.848 419.158276 
" style="fill:none;stroke:#ff0000;stroke-linecap:square;stroke-width:1.5;"/>
   </g>
   <g id="line2d_25">
    <g clip-path="url(#pdb334eb22d)">
     <use style="fill:#0000ff;stroke:#0000ff;" x="174.848" xlink:href="#mb9c0ea71d4" y="411.179814"/>
     <use style="fill:#0000ff;stroke:#0000ff;" x="182.78986" xlink:href="#mb9c0ea71d4" y="419.521868"/>
     <use style="fill:#0000ff;stroke:#0000ff;" x="190.731721" xlink:href="#mb9c0ea71d4" y="410.421446"/>
     <use style="fill:#0000ff;stroke:#0000ff;" x="198.673581" xlink:href="#mb9c0ea71d4" y="411.938183"/>
     <use style="fill:#0000ff;stroke:#0000ff;" x="206.615442" xlink:href="#mb9c0ea71d4" y="399.804287"/>
     <use style="fill:#0000ff;stroke:#0000ff;" x="214.557302" xlink:href="#mb9c0ea71d4" y="404.354498"/>
     <use style="fill:#0000ff;stroke:#0000ff;" x="222.499163" xlink:href="#mb9c0ea71d4" y="398.666734"/>
     <use style="fill:#0000ff;stroke:#0000ff;" x="230.441023" xlink:href="#mb9c0ea71d4" y="383.499364"/>
     <use style="fill:#0000ff;stroke:#0000ff;" x="238.382884" xlink:href="#mb9c0ea71d4" y="381.603443"/>
     <use style="fill:#0000ff;stroke:#0000ff;" x="246.324744" xlink:href="#mb9c0ea71d4" y="389.187128"/>
     <use style="fill:#0000ff;stroke:#0000ff;" x="254.266605" xlink:href="#mb9c0ea71d4" y="380.46589"/>
     <use style="fill:#0000ff;stroke:#0000ff;" x="262.208465" xlink:href="#mb9c0ea71d4" y="379.328338"/>
     <use style="fill:#0000ff;stroke:#0000ff;" x="270.150326" xlink:href="#mb9c0ea71d4" y="364.540152"/>
     <use style="fill:#0000ff;stroke:#0000ff;" x="278.092186" xlink:href="#mb9c0ea71d4" y="359.231572"/>
     <use style="fill:#0000ff;stroke:#0000ff;" x="286.034047" xlink:href="#mb9c0ea71d4" y="349.751966"/>
     <use style="fill:#0000ff;stroke:#0000ff;" x="293.975907" xlink:href="#mb9c0ea71d4" y="347.097677"/>
     <use style="fill:#0000ff;stroke:#0000ff;" x="301.917767" xlink:href="#mb9c0ea71d4" y="333.447044"/>
     <use style="fill:#0000ff;stroke:#0000ff;" x="309.859628" xlink:href="#mb9c0ea71d4" y="315.2462"/>
     <use style="fill:#0000ff;stroke:#0000ff;" x="317.801488" xlink:href="#mb9c0ea71d4" y="322.4507"/>
     <use style="fill:#0000ff;stroke:#0000ff;" x="325.743349" xlink:href="#mb9c0ea71d4" y="315.2462"/>
     <use style="fill:#0000ff;stroke:#0000ff;" x="333.685209" xlink:href="#mb9c0ea71d4" y="306.904146"/>
     <use style="fill:#0000ff;stroke:#0000ff;" x="341.62707" xlink:href="#mb9c0ea71d4" y="300.07883"/>
     <use style="fill:#0000ff;stroke:#0000ff;" x="349.56893" xlink:href="#mb9c0ea71d4" y="291.357592"/>
     <use style="fill:#0000ff;stroke:#0000ff;" x="357.510791" xlink:href="#mb9c0ea71d4" y="274.673485"/>
     <use style="fill:#0000ff;stroke:#0000ff;" x="365.452651" xlink:href="#mb9c0ea71d4" y="270.502459"/>
     <use style="fill:#0000ff;stroke:#0000ff;" x="373.394512" xlink:href="#mb9c0ea71d4" y="258.747747"/>
     <use style="fill:#0000ff;stroke:#0000ff;" x="381.336372" xlink:href="#mb9c0ea71d4" y="250.784878"/>
     <use style="fill:#0000ff;stroke:#0000ff;" x="389.278233" xlink:href="#mb9c0ea71d4" y="243.959561"/>
     <use style="fill:#0000ff;stroke:#0000ff;" x="397.220093" xlink:href="#mb9c0ea71d4" y="236.75506"/>
     <use style="fill:#0000ff;stroke:#0000ff;" x="405.161953" xlink:href="#mb9c0ea71d4" y="232.20485"/>
     <use style="fill:#0000ff;stroke:#0000ff;" x="413.103814" xlink:href="#mb9c0ea71d4" y="210.970532"/>
     <use style="fill:#0000ff;stroke:#0000ff;" x="421.045674" xlink:href="#mb9c0ea71d4" y="219.312585"/>
     <use style="fill:#0000ff;stroke:#0000ff;" x="428.987535" xlink:href="#mb9c0ea71d4" y="193.148872"/>
     <use style="fill:#0000ff;stroke:#0000ff;" x="436.929395" xlink:href="#mb9c0ea71d4" y="215.899927"/>
     <use style="fill:#0000ff;stroke:#0000ff;" x="444.871256" xlink:href="#mb9c0ea71d4" y="200.353373"/>
     <use style="fill:#0000ff;stroke:#0000ff;" x="452.813116" xlink:href="#mb9c0ea71d4" y="195.803162"/>
     <use style="fill:#0000ff;stroke:#0000ff;" x="460.754977" xlink:href="#mb9c0ea71d4" y="203.766031"/>
     <use style="fill:#0000ff;stroke:#0000ff;" x="468.696837" xlink:href="#mb9c0ea71d4" y="193.907241"/>
     <use style="fill:#0000ff;stroke:#0000ff;" x="476.638698" xlink:href="#mb9c0ea71d4" y="180.635792"/>
     <use style="fill:#0000ff;stroke:#0000ff;" x="484.580558" xlink:href="#mb9c0ea71d4" y="181.773345"/>
     <use style="fill:#0000ff;stroke:#0000ff;" x="492.522419" xlink:href="#mb9c0ea71d4" y="187.840293"/>
     <use style="fill:#0000ff;stroke:#0000ff;" x="500.464279" xlink:href="#mb9c0ea71d4" y="171.914554"/>
     <use style="fill:#0000ff;stroke:#0000ff;" x="508.40614" xlink:href="#mb9c0ea71d4" y="156.368"/>
     <use style="fill:#0000ff;stroke:#0000ff;" x="516.348" xlink:href="#mb9c0ea71d4" y="162.814132"/>
     <use style="fill:#0000ff;stroke:#0000ff;" x="524.28986" xlink:href="#mb9c0ea71d4" y="173.052107"/>
     <use style="fill:#0000ff;stroke:#0000ff;" x="532.231721" xlink:href="#mb9c0ea71d4" y="161.676579"/>
     <use style="fill:#0000ff;stroke:#0000ff;" x="540.173581" xlink:href="#mb9c0ea71d4" y="170.777001"/>
     <use style="fill:#0000ff;stroke:#0000ff;" x="548.115442" xlink:href="#mb9c0ea71d4" y="172.293738"/>
     <use style="fill:#0000ff;stroke:#0000ff;" x="556.057302" xlink:href="#mb9c0ea71d4" y="174.18966"/>
     <use style="fill:#0000ff;stroke:#0000ff;" x="563.999163" xlink:href="#mb9c0ea71d4" y="192.769688"/>
     <use style="fill:#0000ff;stroke:#0000ff;" x="571.941023" xlink:href="#mb9c0ea71d4" y="176.843949"/>
     <use style="fill:#0000ff;stroke:#0000ff;" x="579.882884" xlink:href="#mb9c0ea71d4" y="183.290082"/>
     <use style="fill:#0000ff;stroke:#0000ff;" x="587.824744" xlink:href="#mb9c0ea71d4" y="188.219477"/>
     <use style="fill:#0000ff;stroke:#0000ff;" x="595.766605" xlink:href="#mb9c0ea71d4" y="193.907241"/>
     <use style="fill:#0000ff;stroke:#0000ff;" x="603.708465" xlink:href="#mb9c0ea71d4" y="206.799505"/>
     <use style="fill:#0000ff;stroke:#0000ff;" x="611.650326" xlink:href="#mb9c0ea71d4" y="182.152529"/>
     <use style="fill:#0000ff;stroke:#0000ff;" x="619.592186" xlink:href="#mb9c0ea71d4" y="214.762374"/>
     <use style="fill:#0000ff;stroke:#0000ff;" x="627.534047" xlink:href="#mb9c0ea71d4" y="212.866453"/>
     <use style="fill:#0000ff;stroke:#0000ff;" x="635.475907" xlink:href="#mb9c0ea71d4" y="228.792191"/>
     <use style="fill:#0000ff;stroke:#0000ff;" x="643.417767" xlink:href="#mb9c0ea71d4" y="231.446481"/>
     <use style="fill:#0000ff;stroke:#0000ff;" x="651.359628" xlink:href="#mb9c0ea71d4" y="225.758717"/>
     <use style="fill:#0000ff;stroke:#0000ff;" x="659.301488" xlink:href="#mb9c0ea71d4" y="244.338745"/>
     <use style="fill:#0000ff;stroke:#0000ff;" x="667.243349" xlink:href="#mb9c0ea71d4" y="240.926087"/>
     <use style="fill:#0000ff;stroke:#0000ff;" x="675.185209" xlink:href="#mb9c0ea71d4" y="268.606537"/>
     <use style="fill:#0000ff;stroke:#0000ff;" x="683.12707" xlink:href="#mb9c0ea71d4" y="279.60288"/>
     <use style="fill:#0000ff;stroke:#0000ff;" x="691.06893" xlink:href="#mb9c0ea71d4" y="268.985722"/>
     <use style="fill:#0000ff;stroke:#0000ff;" x="699.010791" xlink:href="#mb9c0ea71d4" y="278.844512"/>
     <use style="fill:#0000ff;stroke:#0000ff;" x="706.952651" xlink:href="#mb9c0ea71d4" y="282.25717"/>
     <use style="fill:#0000ff;stroke:#0000ff;" x="714.894512" xlink:href="#mb9c0ea71d4" y="297.42454"/>
     <use style="fill:#0000ff;stroke:#0000ff;" x="722.836372" xlink:href="#mb9c0ea71d4" y="300.07883"/>
     <use style="fill:#0000ff;stroke:#0000ff;" x="730.778233" xlink:href="#mb9c0ea71d4" y="320.554779"/>
     <use style="fill:#0000ff;stroke:#0000ff;" x="738.720093" xlink:href="#mb9c0ea71d4" y="329.276017"/>
     <use style="fill:#0000ff;stroke:#0000ff;" x="746.661953" xlink:href="#mb9c0ea71d4" y="341.030729"/>
     <use style="fill:#0000ff;stroke:#0000ff;" x="754.603814" xlink:href="#mb9c0ea71d4" y="340.651544"/>
     <use style="fill:#0000ff;stroke:#0000ff;" x="762.545674" xlink:href="#mb9c0ea71d4" y="348.993598"/>
     <use style="fill:#0000ff;stroke:#0000ff;" x="770.487535" xlink:href="#mb9c0ea71d4" y="348.614414"/>
     <use style="fill:#0000ff;stroke:#0000ff;" x="778.429395" xlink:href="#mb9c0ea71d4" y="368.711179"/>
     <use style="fill:#0000ff;stroke:#0000ff;" x="786.371256" xlink:href="#mb9c0ea71d4" y="380.46589"/>
     <use style="fill:#0000ff;stroke:#0000ff;" x="794.313116" xlink:href="#mb9c0ea71d4" y="376.674048"/>
     <use style="fill:#0000ff;stroke:#0000ff;" x="802.254977" xlink:href="#mb9c0ea71d4" y="391.462233"/>
     <use style="fill:#0000ff;stroke:#0000ff;" x="810.196837" xlink:href="#mb9c0ea71d4" y="392.97897"/>
     <use style="fill:#0000ff;stroke:#0000ff;" x="818.138698" xlink:href="#mb9c0ea71d4" y="409.283893"/>
     <use style="fill:#0000ff;stroke:#0000ff;" x="826.080558" xlink:href="#mb9c0ea71d4" y="394.116523"/>
     <use style="fill:#0000ff;stroke:#0000ff;" x="834.022419" xlink:href="#mb9c0ea71d4" y="410.421446"/>
     <use style="fill:#0000ff;stroke:#0000ff;" x="841.964279" xlink:href="#mb9c0ea71d4" y="410.042262"/>
     <use style="fill:#0000ff;stroke:#0000ff;" x="849.90614" xlink:href="#mb9c0ea71d4" y="425.968"/>
     <use style="fill:#0000ff;stroke:#0000ff;" x="857.848" xlink:href="#mb9c0ea71d4" y="424.451263"/>
    </g>
   </g>
   <g id="patch_8">
    <path d="M 147.528 436.752 
L 147.528 145.584 
" style="fill:none;stroke:#000000;stroke-linecap:square;stroke-linejoin:miter;stroke-width:0.8;"/>
   </g>
   <g id="patch_9">
    <path d="M 885.168 436.752 
L 885.168 145.584 
" style="fill:none;stroke:#000000;stroke-linecap:square;stroke-linejoin:miter;stroke-width:0.8;"/>
   </g>
   <g id="patch_10">
    <path d="M 147.528 436.752 
L 885.168 436.752 
" style="fill:none;stroke:#000000;stroke-linecap:square;stroke-linejoin:miter;stroke-width:0.8;"/>
   </g>
   <g id="patch_11">
    <path d="M 147.528 145.584 
L 885.168 145.584 
" style="fill:none;stroke:#000000;stroke-linecap:square;stroke-linejoin:miter;stroke-width:0.8;"/>
   </g>
  </g>
 </g>
 <defs>
  <clipPath id="pbb8932e898">
   <rect height="72.792" width="737.64" x="147.528" y="63.0864"/>
  </clipPath>
  <clipPath id="pdb334eb22d">
   <rect height="291.168" width="737.64" x="147.528" y="145.584"/>
  </clipPath>
 </defs>
</svg>
