<?xml version="1.0" encoding="utf-8" standalone="no"?>
<!DOCTYPE svg PUBLIC "-//W3C//DTD SVG 1.1//EN"
  "http://www.w3.org/Graphics/SVG/1.1/DTD/svg11.dtd">
<!-- Created with matplotlib (http://matplotlib.org/) -->
<svg height="485pt" version="1.1" viewBox="0 0 983 485" width="983pt" xmlns="http://www.w3.org/2000/svg" xmlns:xlink="http://www.w3.org/1999/xlink">
 <defs>
  <style type="text/css">
*{stroke-linecap:butt;stroke-linejoin:round;}
  </style>
 </defs>
 <g id="figure_1">
  <g id="patch_1">
   <path d="M 0 485.28 
L 983.52 485.28 
L 983.52 0 
L 0 0 
z
" style="fill:#ffffff;"/>
  </g>
  <g id="axes_1">
   <g id="patch_2">
    <path d="M 147.528 135.8784 
L 885.168 135.8784 
L 885.168 63.0864 
L 147.528 63.0864 
z
" style="fill:#ffffff;"/>
   </g>
   <g id="matplotlib.axis_1">
    <g id="xtick_1">
     <g id="line2d_1">
      <defs>
       <path d="M 0 0 
L 0 3.5 
" id="m66a885bd6a" style="stroke:#000000;stroke-width:0.8;"/>
      </defs>
      <g>
       <use style="stroke:#000000;stroke-width:0.8;" x="173.282024" xlink:href="#m66a885bd6a" y="135.8784"/>
      </g>
     </g>
    </g>
    <g id="xtick_2">
     <g id="line2d_2">
      <g>
       <use style="stroke:#000000;stroke-width:0.8;" x="298.079074" xlink:href="#m66a885bd6a" y="135.8784"/>
      </g>
     </g>
    </g>
    <g id="xtick_3">
     <g id="line2d_3">
      <g>
       <use style="stroke:#000000;stroke-width:0.8;" x="422.876124" xlink:href="#m66a885bd6a" y="135.8784"/>
      </g>
     </g>
    </g>
    <g id="xtick_4">
     <g id="line2d_4">
      <g>
       <use style="stroke:#000000;stroke-width:0.8;" x="547.673174" xlink:href="#m66a885bd6a" y="135.8784"/>
      </g>
     </g>
    </g>
    <g id="xtick_5">
     <g id="line2d_5">
      <g>
       <use style="stroke:#000000;stroke-width:0.8;" x="672.470223" xlink:href="#m66a885bd6a" y="135.8784"/>
      </g>
     </g>
    </g>
    <g id="xtick_6">
     <g id="line2d_6">
      <g>
       <use style="stroke:#000000;stroke-width:0.8;" x="797.267273" xlink:href="#m66a885bd6a" y="135.8784"/>
      </g>
     </g>
    </g>
   </g>
   <g id="matplotlib.axis_2">
    <g id="ytick_1">
     <g id="line2d_7">
      <defs>
       <path d="M 0 0 
L -3.5 0 
" id="mdbde022c04" style="stroke:#000000;stroke-width:0.8;"/>
      </defs>
      <g>
       <use style="stroke:#000000;stroke-width:0.8;" x="147.528" xlink:href="#mdbde022c04" y="124.333429"/>
      </g>
     </g>
     <g id="text_1">
      <!-- −2 -->
      <defs>
       <path d="M 10.59375 35.5 
L 73.1875 35.5 
L 73.1875 27.203125 
L 10.59375 27.203125 
z
" id="DejaVuSans-2212"/>
       <path d="M 19.1875 8.296875 
L 53.609375 8.296875 
L 53.609375 0 
L 7.328125 0 
L 7.328125 8.296875 
Q 12.9375 14.109375 22.625 23.890625 
Q 32.328125 33.6875 34.8125 36.53125 
Q 39.546875 41.84375 41.421875 45.53125 
Q 43.3125 49.21875 43.3125 52.78125 
Q 43.3125 58.59375 39.234375 62.25 
Q 35.15625 65.921875 28.609375 65.921875 
Q 23.96875 65.921875 18.8125 64.3125 
Q 13.671875 62.703125 7.8125 59.421875 
L 7.8125 69.390625 
Q 13.765625 71.78125 18.9375 73 
Q 24.125 74.21875 28.421875 74.21875 
Q 39.75 74.21875 46.484375 68.546875 
Q 53.21875 62.890625 53.21875 53.421875 
Q 53.21875 48.921875 51.53125 44.890625 
Q 49.859375 40.875 45.40625 35.40625 
Q 44.1875 33.984375 37.640625 27.21875 
Q 31.109375 20.453125 19.1875 8.296875 
z
" id="DejaVuSans-32"/>
      </defs>
      <g transform="translate(122.837375 128.892492)scale(0.12 -0.12)">
       <use xlink:href="#DejaVuSans-2212"/>
       <use x="83.789062" xlink:href="#DejaVuSans-32"/>
      </g>
     </g>
    </g>
    <g id="ytick_2">
     <g id="line2d_8">
      <g>
       <use style="stroke:#000000;stroke-width:0.8;" x="147.528" xlink:href="#mdbde022c04" y="94.163066"/>
      </g>
     </g>
    </g>
    <g id="ytick_3">
     <g id="line2d_9">
      <g>
       <use style="stroke:#000000;stroke-width:0.8;" x="147.528" xlink:href="#mdbde022c04" y="63.992703"/>
      </g>
     </g>
     <g id="text_2">
      <!-- 2 -->
      <g transform="translate(132.893 68.551766)scale(0.12 -0.12)">
       <use xlink:href="#DejaVuSans-32"/>
      </g>
     </g>
    </g>
    <g id="text_3">
     <!-- Studentized -->
     <defs>
      <path d="M 53.515625 70.515625 
L 53.515625 60.890625 
Q 47.90625 63.578125 42.921875 64.890625 
Q 37.9375 66.21875 33.296875 66.21875 
Q 25.25 66.21875 20.875 63.09375 
Q 16.5 59.96875 16.5 54.203125 
Q 16.5 49.359375 19.40625 46.890625 
Q 22.3125 44.4375 30.421875 42.921875 
L 36.375 41.703125 
Q 47.40625 39.59375 52.65625 34.296875 
Q 57.90625 29 57.90625 20.125 
Q 57.90625 9.515625 50.796875 4.046875 
Q 43.703125 -1.421875 29.984375 -1.421875 
Q 24.8125 -1.421875 18.96875 -0.25 
Q 13.140625 0.921875 6.890625 3.21875 
L 6.890625 13.375 
Q 12.890625 10.015625 18.65625 8.296875 
Q 24.421875 6.59375 29.984375 6.59375 
Q 38.421875 6.59375 43.015625 9.90625 
Q 47.609375 13.234375 47.609375 19.390625 
Q 47.609375 24.75 44.3125 27.78125 
Q 41.015625 30.8125 33.5 32.328125 
L 27.484375 33.5 
Q 16.453125 35.6875 11.515625 40.375 
Q 6.59375 45.0625 6.59375 53.421875 
Q 6.59375 63.09375 13.40625 68.65625 
Q 20.21875 74.21875 32.171875 74.21875 
Q 37.3125 74.21875 42.625 73.28125 
Q 47.953125 72.359375 53.515625 70.515625 
z
" id="DejaVuSans-53"/>
      <path d="M 18.3125 70.21875 
L 18.3125 54.6875 
L 36.8125 54.6875 
L 36.8125 47.703125 
L 18.3125 47.703125 
L 18.3125 18.015625 
Q 18.3125 11.328125 20.140625 9.421875 
Q 21.96875 7.515625 27.59375 7.515625 
L 36.8125 7.515625 
L 36.8125 0 
L 27.59375 0 
Q 17.1875 0 13.234375 3.875 
Q 9.28125 7.765625 9.28125 18.015625 
L 9.28125 47.703125 
L 2.6875 47.703125 
L 2.6875 54.6875 
L 9.28125 54.6875 
L 9.28125 70.21875 
z
" id="DejaVuSans-74"/>
      <path d="M 8.5 21.578125 
L 8.5 54.6875 
L 17.484375 54.6875 
L 17.484375 21.921875 
Q 17.484375 14.15625 20.5 10.265625 
Q 23.53125 6.390625 29.59375 6.390625 
Q 36.859375 6.390625 41.078125 11.03125 
Q 45.3125 15.671875 45.3125 23.6875 
L 45.3125 54.6875 
L 54.296875 54.6875 
L 54.296875 0 
L 45.3125 0 
L 45.3125 8.40625 
Q 42.046875 3.421875 37.71875 1 
Q 33.40625 -1.421875 27.6875 -1.421875 
Q 18.265625 -1.421875 13.375 4.4375 
Q 8.5 10.296875 8.5 21.578125 
z
M 31.109375 56 
z
" id="DejaVuSans-75"/>
      <path d="M 45.40625 46.390625 
L 45.40625 75.984375 
L 54.390625 75.984375 
L 54.390625 0 
L 45.40625 0 
L 45.40625 8.203125 
Q 42.578125 3.328125 38.25 0.953125 
Q 33.9375 -1.421875 27.875 -1.421875 
Q 17.96875 -1.421875 11.734375 6.484375 
Q 5.515625 14.40625 5.515625 27.296875 
Q 5.515625 40.1875 11.734375 48.09375 
Q 17.96875 56 27.875 56 
Q 33.9375 56 38.25 53.625 
Q 42.578125 51.265625 45.40625 46.390625 
z
M 14.796875 27.296875 
Q 14.796875 17.390625 18.875 11.75 
Q 22.953125 6.109375 30.078125 6.109375 
Q 37.203125 6.109375 41.296875 11.75 
Q 45.40625 17.390625 45.40625 27.296875 
Q 45.40625 37.203125 41.296875 42.84375 
Q 37.203125 48.484375 30.078125 48.484375 
Q 22.953125 48.484375 18.875 42.84375 
Q 14.796875 37.203125 14.796875 27.296875 
z
" id="DejaVuSans-64"/>
      <path d="M 56.203125 29.59375 
L 56.203125 25.203125 
L 14.890625 25.203125 
Q 15.484375 15.921875 20.484375 11.0625 
Q 25.484375 6.203125 34.421875 6.203125 
Q 39.59375 6.203125 44.453125 7.46875 
Q 49.3125 8.734375 54.109375 11.28125 
L 54.109375 2.78125 
Q 49.265625 0.734375 44.1875 -0.34375 
Q 39.109375 -1.421875 33.890625 -1.421875 
Q 20.796875 -1.421875 13.15625 6.1875 
Q 5.515625 13.8125 5.515625 26.8125 
Q 5.515625 40.234375 12.765625 48.109375 
Q 20.015625 56 32.328125 56 
Q 43.359375 56 49.78125 48.890625 
Q 56.203125 41.796875 56.203125 29.59375 
z
M 47.21875 32.234375 
Q 47.125 39.59375 43.09375 43.984375 
Q 39.0625 48.390625 32.421875 48.390625 
Q 24.90625 48.390625 20.390625 44.140625 
Q 15.875 39.890625 15.1875 32.171875 
z
" id="DejaVuSans-65"/>
      <path d="M 54.890625 33.015625 
L 54.890625 0 
L 45.90625 0 
L 45.90625 32.71875 
Q 45.90625 40.484375 42.875 44.328125 
Q 39.84375 48.1875 33.796875 48.1875 
Q 26.515625 48.1875 22.3125 43.546875 
Q 18.109375 38.921875 18.109375 30.90625 
L 18.109375 0 
L 9.078125 0 
L 9.078125 54.6875 
L 18.109375 54.6875 
L 18.109375 46.1875 
Q 21.34375 51.125 25.703125 53.5625 
Q 30.078125 56 35.796875 56 
Q 45.21875 56 50.046875 50.171875 
Q 54.890625 44.34375 54.890625 33.015625 
z
" id="DejaVuSans-6e"/>
      <path d="M 9.421875 54.6875 
L 18.40625 54.6875 
L 18.40625 0 
L 9.421875 0 
z
M 9.421875 75.984375 
L 18.40625 75.984375 
L 18.40625 64.59375 
L 9.421875 64.59375 
z
" id="DejaVuSans-69"/>
      <path d="M 5.515625 54.6875 
L 48.1875 54.6875 
L 48.1875 46.484375 
L 14.40625 7.171875 
L 48.1875 7.171875 
L 48.1875 0 
L 4.296875 0 
L 4.296875 8.203125 
L 38.09375 47.515625 
L 5.515625 47.515625 
z
" id="DejaVuSans-7a"/>
     </defs>
     <g transform="translate(102.904375 135.41865)rotate(-90)scale(0.12 -0.12)">
      <use xlink:href="#DejaVuSans-53"/>
      <use x="63.476562" xlink:href="#DejaVuSans-74"/>
      <use x="102.685547" xlink:href="#DejaVuSans-75"/>
      <use x="166.064453" xlink:href="#DejaVuSans-64"/>
      <use x="229.541016" xlink:href="#DejaVuSans-65"/>
      <use x="291.064453" xlink:href="#DejaVuSans-6e"/>
      <use x="354.443359" xlink:href="#DejaVuSans-74"/>
      <use x="393.652344" xlink:href="#DejaVuSans-69"/>
      <use x="421.435547" xlink:href="#DejaVuSans-7a"/>
      <use x="473.925781" xlink:href="#DejaVuSans-65"/>
      <use x="535.449219" xlink:href="#DejaVuSans-64"/>
     </g>
     <!-- Residuals -->
     <defs>
      <path d="M 44.390625 34.1875 
Q 47.5625 33.109375 50.5625 29.59375 
Q 53.5625 26.078125 56.59375 19.921875 
L 66.609375 0 
L 56 0 
L 46.6875 18.703125 
Q 43.0625 26.03125 39.671875 28.421875 
Q 36.28125 30.8125 30.421875 30.8125 
L 19.671875 30.8125 
L 19.671875 0 
L 9.8125 0 
L 9.8125 72.90625 
L 32.078125 72.90625 
Q 44.578125 72.90625 50.734375 67.671875 
Q 56.890625 62.453125 56.890625 51.90625 
Q 56.890625 45.015625 53.6875 40.46875 
Q 50.484375 35.9375 44.390625 34.1875 
z
M 19.671875 64.796875 
L 19.671875 38.921875 
L 32.078125 38.921875 
Q 39.203125 38.921875 42.84375 42.21875 
Q 46.484375 45.515625 46.484375 51.90625 
Q 46.484375 58.296875 42.84375 61.546875 
Q 39.203125 64.796875 32.078125 64.796875 
z
" id="DejaVuSans-52"/>
      <path d="M 44.28125 53.078125 
L 44.28125 44.578125 
Q 40.484375 46.53125 36.375 47.5 
Q 32.28125 48.484375 27.875 48.484375 
Q 21.1875 48.484375 17.84375 46.4375 
Q 14.5 44.390625 14.5 40.28125 
Q 14.5 37.15625 16.890625 35.375 
Q 19.28125 33.59375 26.515625 31.984375 
L 29.59375 31.296875 
Q 39.15625 29.25 43.1875 25.515625 
Q 47.21875 21.78125 47.21875 15.09375 
Q 47.21875 7.46875 41.1875 3.015625 
Q 35.15625 -1.421875 24.609375 -1.421875 
Q 20.21875 -1.421875 15.453125 -0.5625 
Q 10.6875 0.296875 5.421875 2 
L 5.421875 11.28125 
Q 10.40625 8.6875 15.234375 7.390625 
Q 20.0625 6.109375 24.8125 6.109375 
Q 31.15625 6.109375 34.5625 8.28125 
Q 37.984375 10.453125 37.984375 14.40625 
Q 37.984375 18.0625 35.515625 20.015625 
Q 33.0625 21.96875 24.703125 23.78125 
L 21.578125 24.515625 
Q 13.234375 26.265625 9.515625 29.90625 
Q 5.8125 33.546875 5.8125 39.890625 
Q 5.8125 47.609375 11.28125 51.796875 
Q 16.75 56 26.8125 56 
Q 31.78125 56 36.171875 55.265625 
Q 40.578125 54.546875 44.28125 53.078125 
z
" id="DejaVuSans-73"/>
      <path d="M 34.28125 27.484375 
Q 23.390625 27.484375 19.1875 25 
Q 14.984375 22.515625 14.984375 16.5 
Q 14.984375 11.71875 18.140625 8.90625 
Q 21.296875 6.109375 26.703125 6.109375 
Q 34.1875 6.109375 38.703125 11.40625 
Q 43.21875 16.703125 43.21875 25.484375 
L 43.21875 27.484375 
z
M 52.203125 31.203125 
L 52.203125 0 
L 43.21875 0 
L 43.21875 8.296875 
Q 40.140625 3.328125 35.546875 0.953125 
Q 30.953125 -1.421875 24.3125 -1.421875 
Q 15.921875 -1.421875 10.953125 3.296875 
Q 6 8.015625 6 15.921875 
Q 6 25.140625 12.171875 29.828125 
Q 18.359375 34.515625 30.609375 34.515625 
L 43.21875 34.515625 
L 43.21875 35.40625 
Q 43.21875 41.609375 39.140625 45 
Q 35.0625 48.390625 27.6875 48.390625 
Q 23 48.390625 18.546875 47.265625 
Q 14.109375 46.140625 10.015625 43.890625 
L 10.015625 52.203125 
Q 14.9375 54.109375 19.578125 55.046875 
Q 24.21875 56 28.609375 56 
Q 40.484375 56 46.34375 49.84375 
Q 52.203125 43.703125 52.203125 31.203125 
z
" id="DejaVuSans-61"/>
      <path d="M 9.421875 75.984375 
L 18.40625 75.984375 
L 18.40625 0 
L 9.421875 0 
z
" id="DejaVuSans-6c"/>
     </defs>
     <g transform="translate(116.34175 128.213025)rotate(-90)scale(0.12 -0.12)">
      <use xlink:href="#DejaVuSans-52"/>
      <use x="69.419922" xlink:href="#DejaVuSans-65"/>
      <use x="130.943359" xlink:href="#DejaVuSans-73"/>
      <use x="183.042969" xlink:href="#DejaVuSans-69"/>
      <use x="210.826172" xlink:href="#DejaVuSans-64"/>
      <use x="274.302734" xlink:href="#DejaVuSans-75"/>
      <use x="337.681641" xlink:href="#DejaVuSans-61"/>
      <use x="398.960938" xlink:href="#DejaVuSans-6c"/>
      <use x="426.744141" xlink:href="#DejaVuSans-73"/>
     </g>
    </g>
   </g>
   <g id="LineCollection_1">
    <path clip-path="url(#p6753387a14)" d="M 174.848 89.901473 
L 174.848 59.73111 
" style="fill:none;stroke:#0000ff;stroke-width:1.5;"/>
    <path clip-path="url(#p6753387a14)" d="M 197.119739 97.322619 
L 197.119739 67.152256 
" style="fill:none;stroke:#0000ff;stroke-width:1.5;"/>
    <path clip-path="url(#p6753387a14)" d="M 204.543652 106.234658 
L 204.543652 76.064295 
" style="fill:none;stroke:#0000ff;stroke-width:1.5;"/>
    <path clip-path="url(#p6753387a14)" d="M 211.967565 101.711258 
L 211.967565 71.540896 
" style="fill:none;stroke:#0000ff;stroke-width:1.5;"/>
    <path clip-path="url(#p6753387a14)" d="M 219.391478 113.201199 
L 219.391478 83.030836 
" style="fill:none;stroke:#0000ff;stroke-width:1.5;"/>
    <path clip-path="url(#p6753387a14)" d="M 226.815391 113.041311 
L 226.815391 82.870948 
" style="fill:none;stroke:#0000ff;stroke-width:1.5;"/>
    <path clip-path="url(#p6753387a14)" d="M 234.239304 89.760281 
L 234.239304 59.589918 
" style="fill:none;stroke:#0000ff;stroke-width:1.5;"/>
    <path clip-path="url(#p6753387a14)" d="M 241.663217 105.826988 
L 241.663217 75.656626 
" style="fill:none;stroke:#0000ff;stroke-width:1.5;"/>
    <path clip-path="url(#p6753387a14)" d="M 249.08713 101.665416 
L 249.08713 71.495053 
" style="fill:none;stroke:#0000ff;stroke-width:1.5;"/>
    <path clip-path="url(#p6753387a14)" d="M 256.511043 80.867581 
L 256.511043 50.697219 
" style="fill:none;stroke:#0000ff;stroke-width:1.5;"/>
    <path clip-path="url(#p6753387a14)" d="M 263.934957 105.297208 
L 263.934957 75.126845 
" style="fill:none;stroke:#0000ff;stroke-width:1.5;"/>
    <path clip-path="url(#p6753387a14)" d="M 271.35887 94.628427 
L 271.35887 64.458064 
" style="fill:none;stroke:#0000ff;stroke-width:1.5;"/>
    <path clip-path="url(#p6753387a14)" d="M 278.782783 113.380831 
L 278.782783 83.210469 
" style="fill:none;stroke:#0000ff;stroke-width:1.5;"/>
    <path clip-path="url(#p6753387a14)" d="M 286.206696 108.022094 
L 286.206696 77.851731 
" style="fill:none;stroke:#0000ff;stroke-width:1.5;"/>
    <path clip-path="url(#p6753387a14)" d="M 293.630609 104.800906 
L 293.630609 74.630543 
" style="fill:none;stroke:#0000ff;stroke-width:1.5;"/>
    <path clip-path="url(#p6753387a14)" d="M 301.054522 103.421157 
L 301.054522 73.250794 
" style="fill:none;stroke:#0000ff;stroke-width:1.5;"/>
    <path clip-path="url(#p6753387a14)" d="M 308.478435 105.414918 
L 308.478435 75.244555 
" style="fill:none;stroke:#0000ff;stroke-width:1.5;"/>
    <path clip-path="url(#p6753387a14)" d="M 315.902348 125.682172 
L 315.902348 95.511809 
" style="fill:none;stroke:#0000ff;stroke-width:1.5;"/>
    <path clip-path="url(#p6753387a14)" d="M 323.326261 110.789187 
L 323.326261 80.618825 
" style="fill:none;stroke:#0000ff;stroke-width:1.5;"/>
    <path clip-path="url(#p6753387a14)" d="M 330.750174 109.100521 
L 330.750174 78.930158 
" style="fill:none;stroke:#0000ff;stroke-width:1.5;"/>
    <path clip-path="url(#p6753387a14)" d="M 338.174087 121.429431 
L 338.174087 91.259068 
" style="fill:none;stroke:#0000ff;stroke-width:1.5;"/>
    <path clip-path="url(#p6753387a14)" d="M 345.598 124.388852 
L 345.598 94.218489 
" style="fill:none;stroke:#0000ff;stroke-width:1.5;"/>
    <path clip-path="url(#p6753387a14)" d="M 353.021913 110.002033 
L 353.021913 79.83167 
" style="fill:none;stroke:#0000ff;stroke-width:1.5;"/>
    <path clip-path="url(#p6753387a14)" d="M 360.445826 121.482751 
L 360.445826 91.312388 
" style="fill:none;stroke:#0000ff;stroke-width:1.5;"/>
    <path clip-path="url(#p6753387a14)" d="M 367.869739 106.791239 
L 367.869739 76.620876 
" style="fill:none;stroke:#0000ff;stroke-width:1.5;"/>
    <path clip-path="url(#p6753387a14)" d="M 375.293652 117.820559 
L 375.293652 87.650196 
" style="fill:none;stroke:#0000ff;stroke-width:1.5;"/>
    <path clip-path="url(#p6753387a14)" d="M 382.717565 120.009936 
L 382.717565 89.839573 
" style="fill:none;stroke:#0000ff;stroke-width:1.5;"/>
    <path clip-path="url(#p6753387a14)" d="M 390.141478 112.253848 
L 390.141478 82.083485 
" style="fill:none;stroke:#0000ff;stroke-width:1.5;"/>
    <path clip-path="url(#p6753387a14)" d="M 397.565391 97.177698 
L 397.565391 67.007335 
" style="fill:none;stroke:#0000ff;stroke-width:1.5;"/>
    <path clip-path="url(#p6753387a14)" d="M 404.989304 98.788695 
L 404.989304 68.618332 
" style="fill:none;stroke:#0000ff;stroke-width:1.5;"/>
    <path clip-path="url(#p6753387a14)" d="M 412.413217 106.477925 
L 412.413217 76.307562 
" style="fill:none;stroke:#0000ff;stroke-width:1.5;"/>
    <path clip-path="url(#p6753387a14)" d="M 419.83713 119.994271 
L 419.83713 89.823908 
" style="fill:none;stroke:#0000ff;stroke-width:1.5;"/>
    <path clip-path="url(#p6753387a14)" d="M 427.261043 107.457578 
L 427.261043 77.287215 
" style="fill:none;stroke:#0000ff;stroke-width:1.5;"/>
    <path clip-path="url(#p6753387a14)" d="M 434.684957 121.708127 
L 434.684957 91.537764 
" style="fill:none;stroke:#0000ff;stroke-width:1.5;"/>
    <path clip-path="url(#p6753387a14)" d="M 442.10887 117.810931 
L 442.10887 87.640569 
" style="fill:none;stroke:#0000ff;stroke-width:1.5;"/>
    <path clip-path="url(#p6753387a14)" d="M 449.532783 99.411633 
L 449.532783 69.241271 
" style="fill:none;stroke:#0000ff;stroke-width:1.5;"/>
    <path clip-path="url(#p6753387a14)" d="M 456.956696 129.768857 
L 456.956696 99.598495 
" style="fill:none;stroke:#0000ff;stroke-width:1.5;"/>
    <path clip-path="url(#p6753387a14)" d="M 464.380609 115.559735 
L 464.380609 85.389372 
" style="fill:none;stroke:#0000ff;stroke-width:1.5;"/>
    <path clip-path="url(#p6753387a14)" d="M 471.804522 110.629101 
L 471.804522 80.458738 
" style="fill:none;stroke:#0000ff;stroke-width:1.5;"/>
    <path clip-path="url(#p6753387a14)" d="M 479.228435 101.568036 
L 479.228435 71.397673 
" style="fill:none;stroke:#0000ff;stroke-width:1.5;"/>
    <path clip-path="url(#p6753387a14)" d="M 486.652348 118.401287 
L 486.652348 88.230924 
" style="fill:none;stroke:#0000ff;stroke-width:1.5;"/>
    <path clip-path="url(#p6753387a14)" d="M 494.076261 118.450906 
L 494.076261 88.280544 
" style="fill:none;stroke:#0000ff;stroke-width:1.5;"/>
    <path clip-path="url(#p6753387a14)" d="M 501.500174 107.563357 
L 501.500174 77.392994 
" style="fill:none;stroke:#0000ff;stroke-width:1.5;"/>
    <path clip-path="url(#p6753387a14)" d="M 508.924087 111.35919 
L 508.924087 81.188827 
" style="fill:none;stroke:#0000ff;stroke-width:1.5;"/>
    <path clip-path="url(#p6753387a14)" d="M 516.348 98.890777 
L 516.348 68.720414 
" style="fill:none;stroke:#0000ff;stroke-width:1.5;"/>
    <path clip-path="url(#p6753387a14)" d="M 523.771913 106.123867 
L 523.771913 75.953504 
" style="fill:none;stroke:#0000ff;stroke-width:1.5;"/>
    <path clip-path="url(#p6753387a14)" d="M 531.195826 102.784183 
L 531.195826 72.613821 
" style="fill:none;stroke:#0000ff;stroke-width:1.5;"/>
    <path clip-path="url(#p6753387a14)" d="M 538.619739 115.994523 
L 538.619739 85.82416 
" style="fill:none;stroke:#0000ff;stroke-width:1.5;"/>
    <path clip-path="url(#p6753387a14)" d="M 546.043652 105.988943 
L 546.043652 75.818581 
" style="fill:none;stroke:#0000ff;stroke-width:1.5;"/>
    <path clip-path="url(#p6753387a14)" d="M 553.467565 121.179512 
L 553.467565 91.009149 
" style="fill:none;stroke:#0000ff;stroke-width:1.5;"/>
    <path clip-path="url(#p6753387a14)" d="M 560.891478 110.066123 
L 560.891478 79.89576 
" style="fill:none;stroke:#0000ff;stroke-width:1.5;"/>
    <path clip-path="url(#p6753387a14)" d="M 568.315391 106.836005 
L 568.315391 76.665642 
" style="fill:none;stroke:#0000ff;stroke-width:1.5;"/>
    <path clip-path="url(#p6753387a14)" d="M 575.739304 101.889156 
L 575.739304 71.718793 
" style="fill:none;stroke:#0000ff;stroke-width:1.5;"/>
    <path clip-path="url(#p6753387a14)" d="M 583.163217 108.805019 
L 583.163217 78.634656 
" style="fill:none;stroke:#0000ff;stroke-width:1.5;"/>
    <path clip-path="url(#p6753387a14)" d="M 590.58713 103.769841 
L 590.58713 73.599478 
" style="fill:none;stroke:#0000ff;stroke-width:1.5;"/>
    <path clip-path="url(#p6753387a14)" d="M 598.011043 121.334332 
L 598.011043 91.163969 
" style="fill:none;stroke:#0000ff;stroke-width:1.5;"/>
    <path clip-path="url(#p6753387a14)" d="M 605.434957 103.954561 
L 605.434957 73.784198 
" style="fill:none;stroke:#0000ff;stroke-width:1.5;"/>
    <path clip-path="url(#p6753387a14)" d="M 612.85887 125.495461 
L 612.85887 95.325098 
" style="fill:none;stroke:#0000ff;stroke-width:1.5;"/>
    <path clip-path="url(#p6753387a14)" d="M 620.282783 107.01324 
L 620.282783 76.842877 
" style="fill:none;stroke:#0000ff;stroke-width:1.5;"/>
    <path clip-path="url(#p6753387a14)" d="M 627.706696 88.102528 
L 627.706696 57.932165 
" style="fill:none;stroke:#0000ff;stroke-width:1.5;"/>
    <path clip-path="url(#p6753387a14)" d="M 635.130609 98.83691 
L 635.130609 68.666548 
" style="fill:none;stroke:#0000ff;stroke-width:1.5;"/>
    <path clip-path="url(#p6753387a14)" d="M 642.554522 107.471588 
L 642.554522 77.301225 
" style="fill:none;stroke:#0000ff;stroke-width:1.5;"/>
    <path clip-path="url(#p6753387a14)" d="M 649.978435 101.39837 
L 649.978435 71.228007 
" style="fill:none;stroke:#0000ff;stroke-width:1.5;"/>
    <path clip-path="url(#p6753387a14)" d="M 657.402348 104.72195 
L 657.402348 74.551587 
" style="fill:none;stroke:#0000ff;stroke-width:1.5;"/>
    <path clip-path="url(#p6753387a14)" d="M 664.826261 98.467102 
L 664.826261 68.296739 
" style="fill:none;stroke:#0000ff;stroke-width:1.5;"/>
    <path clip-path="url(#p6753387a14)" d="M 672.250174 92.849234 
L 672.250174 62.678871 
" style="fill:none;stroke:#0000ff;stroke-width:1.5;"/>
    <path clip-path="url(#p6753387a14)" d="M 679.674087 133.911735 
L 679.674087 103.741372 
" style="fill:none;stroke:#0000ff;stroke-width:1.5;"/>
    <path clip-path="url(#p6753387a14)" d="M 687.098 91.873361 
L 687.098 61.702998 
" style="fill:none;stroke:#0000ff;stroke-width:1.5;"/>
    <path clip-path="url(#p6753387a14)" d="M 694.521913 90.656463 
L 694.521913 60.4861 
" style="fill:none;stroke:#0000ff;stroke-width:1.5;"/>
    <path clip-path="url(#p6753387a14)" d="M 701.945826 104.40981 
L 701.945826 74.239447 
" style="fill:none;stroke:#0000ff;stroke-width:1.5;"/>
    <path clip-path="url(#p6753387a14)" d="M 709.369739 102.021924 
L 709.369739 71.851562 
" style="fill:none;stroke:#0000ff;stroke-width:1.5;"/>
    <path clip-path="url(#p6753387a14)" d="M 716.793652 105.208688 
L 716.793652 75.038325 
" style="fill:none;stroke:#0000ff;stroke-width:1.5;"/>
    <path clip-path="url(#p6753387a14)" d="M 724.217565 96.936214 
L 724.217565 66.765851 
" style="fill:none;stroke:#0000ff;stroke-width:1.5;"/>
    <path clip-path="url(#p6753387a14)" d="M 731.641478 109.032026 
L 731.641478 78.861663 
" style="fill:none;stroke:#0000ff;stroke-width:1.5;"/>
    <path clip-path="url(#p6753387a14)" d="M 739.065391 100.775942 
L 739.065391 70.605579 
" style="fill:none;stroke:#0000ff;stroke-width:1.5;"/>
    <path clip-path="url(#p6753387a14)" d="M 746.489304 98.090496 
L 746.489304 67.920133 
" style="fill:none;stroke:#0000ff;stroke-width:1.5;"/>
    <path clip-path="url(#p6753387a14)" d="M 753.913217 122.235239 
L 753.913217 92.064876 
" style="fill:none;stroke:#0000ff;stroke-width:1.5;"/>
    <path clip-path="url(#p6753387a14)" d="M 761.33713 112.924266 
L 761.33713 82.753903 
" style="fill:none;stroke:#0000ff;stroke-width:1.5;"/>
    <path clip-path="url(#p6753387a14)" d="M 768.761043 115.273451 
L 768.761043 85.103088 
" style="fill:none;stroke:#0000ff;stroke-width:1.5;"/>
    <path clip-path="url(#p6753387a14)" d="M 776.184957 101.41239 
L 776.184957 71.242027 
" style="fill:none;stroke:#0000ff;stroke-width:1.5;"/>
    <path clip-path="url(#p6753387a14)" d="M 783.60887 88.850439 
L 783.60887 58.680077 
" style="fill:none;stroke:#0000ff;stroke-width:1.5;"/>
    <path clip-path="url(#p6753387a14)" d="M 791.032783 126.071905 
L 791.032783 95.901542 
" style="fill:none;stroke:#0000ff;stroke-width:1.5;"/>
    <path clip-path="url(#p6753387a14)" d="M 798.456696 109.73701 
L 798.456696 79.566647 
" style="fill:none;stroke:#0000ff;stroke-width:1.5;"/>
    <path clip-path="url(#p6753387a14)" d="M 805.880609 126.205907 
L 805.880609 96.035544 
" style="fill:none;stroke:#0000ff;stroke-width:1.5;"/>
    <path clip-path="url(#p6753387a14)" d="M 813.304522 107.675792 
L 813.304522 77.505429 
" style="fill:none;stroke:#0000ff;stroke-width:1.5;"/>
    <path clip-path="url(#p6753387a14)" d="M 820.728435 116.181038 
L 820.728435 86.010675 
" style="fill:none;stroke:#0000ff;stroke-width:1.5;"/>
    <path clip-path="url(#p6753387a14)" d="M 828.152348 148.267581 
L 828.152348 118.097219 
" style="fill:none;stroke:#0000ff;stroke-width:1.5;"/>
    <path clip-path="url(#p6753387a14)" d="M 835.576261 116.456181 
L 835.576261 86.285819 
" style="fill:none;stroke:#0000ff;stroke-width:1.5;"/>
    <path clip-path="url(#p6753387a14)" d="M 843.000174 131.069356 
L 843.000174 100.898993 
" style="fill:none;stroke:#0000ff;stroke-width:1.5;"/>
    <path clip-path="url(#p6753387a14)" d="M 850.424087 120.428085 
L 850.424087 90.257723 
" style="fill:none;stroke:#0000ff;stroke-width:1.5;"/>
    <path clip-path="url(#p6753387a14)" d="M 857.848 106.034563 
L 857.848 75.8642 
" style="fill:none;stroke:#0000ff;stroke-width:1.5;"/>
   </g>
   <g id="line2d_10">
    <path clip-path="url(#p6753387a14)" d="M 174.848 94.163066 
L 857.848 94.163066 
" style="fill:none;stroke:#ff0000;stroke-linecap:square;stroke-width:1.5;"/>
   </g>
   <g id="line2d_11">
    <defs>
     <path d="M -3 0 
L 3 0 
M 0 3 
L 0 -3 
" id="md8f655c491" style="stroke:#0000ff;"/>
    </defs>
    <g clip-path="url(#p6753387a14)">
     <use style="fill:#0000ff;stroke:#0000ff;" x="174.848" xlink:href="#md8f655c491" y="74.816292"/>
     <use style="fill:#0000ff;stroke:#0000ff;" x="197.119739" xlink:href="#md8f655c491" y="82.237438"/>
     <use style="fill:#0000ff;stroke:#0000ff;" x="204.543652" xlink:href="#md8f655c491" y="91.149477"/>
     <use style="fill:#0000ff;stroke:#0000ff;" x="211.967565" xlink:href="#md8f655c491" y="86.626077"/>
     <use style="fill:#0000ff;stroke:#0000ff;" x="219.391478" xlink:href="#md8f655c491" y="98.116017"/>
     <use style="fill:#0000ff;stroke:#0000ff;" x="226.815391" xlink:href="#md8f655c491" y="97.95613"/>
     <use style="fill:#0000ff;stroke:#0000ff;" x="234.239304" xlink:href="#md8f655c491" y="74.6751"/>
     <use style="fill:#0000ff;stroke:#0000ff;" x="241.663217" xlink:href="#md8f655c491" y="90.741807"/>
     <use style="fill:#0000ff;stroke:#0000ff;" x="249.08713" xlink:href="#md8f655c491" y="86.580234"/>
     <use style="fill:#0000ff;stroke:#0000ff;" x="256.511043" xlink:href="#md8f655c491" y="65.7824"/>
     <use style="fill:#0000ff;stroke:#0000ff;" x="263.934957" xlink:href="#md8f655c491" y="90.212027"/>
     <use style="fill:#0000ff;stroke:#0000ff;" x="271.35887" xlink:href="#md8f655c491" y="79.543245"/>
     <use style="fill:#0000ff;stroke:#0000ff;" x="278.782783" xlink:href="#md8f655c491" y="98.29565"/>
     <use style="fill:#0000ff;stroke:#0000ff;" x="286.206696" xlink:href="#md8f655c491" y="92.936912"/>
     <use style="fill:#0000ff;stroke:#0000ff;" x="293.630609" xlink:href="#md8f655c491" y="89.715725"/>
     <use style="fill:#0000ff;stroke:#0000ff;" x="301.054522" xlink:href="#md8f655c491" y="88.335976"/>
     <use style="fill:#0000ff;stroke:#0000ff;" x="308.478435" xlink:href="#md8f655c491" y="90.329736"/>
     <use style="fill:#0000ff;stroke:#0000ff;" x="315.902348" xlink:href="#md8f655c491" y="110.59699"/>
     <use style="fill:#0000ff;stroke:#0000ff;" x="323.326261" xlink:href="#md8f655c491" y="95.704006"/>
     <use style="fill:#0000ff;stroke:#0000ff;" x="330.750174" xlink:href="#md8f655c491" y="94.015339"/>
     <use style="fill:#0000ff;stroke:#0000ff;" x="338.174087" xlink:href="#md8f655c491" y="106.34425"/>
     <use style="fill:#0000ff;stroke:#0000ff;" x="345.598" xlink:href="#md8f655c491" y="109.303671"/>
     <use style="fill:#0000ff;stroke:#0000ff;" x="353.021913" xlink:href="#md8f655c491" y="94.916851"/>
     <use style="fill:#0000ff;stroke:#0000ff;" x="360.445826" xlink:href="#md8f655c491" y="106.397569"/>
     <use style="fill:#0000ff;stroke:#0000ff;" x="367.869739" xlink:href="#md8f655c491" y="91.706057"/>
     <use style="fill:#0000ff;stroke:#0000ff;" x="375.293652" xlink:href="#md8f655c491" y="102.735378"/>
     <use style="fill:#0000ff;stroke:#0000ff;" x="382.717565" xlink:href="#md8f655c491" y="104.924754"/>
     <use style="fill:#0000ff;stroke:#0000ff;" x="390.141478" xlink:href="#md8f655c491" y="97.168666"/>
     <use style="fill:#0000ff;stroke:#0000ff;" x="397.565391" xlink:href="#md8f655c491" y="82.092516"/>
     <use style="fill:#0000ff;stroke:#0000ff;" x="404.989304" xlink:href="#md8f655c491" y="83.703513"/>
     <use style="fill:#0000ff;stroke:#0000ff;" x="412.413217" xlink:href="#md8f655c491" y="91.392744"/>
     <use style="fill:#0000ff;stroke:#0000ff;" x="419.83713" xlink:href="#md8f655c491" y="104.90909"/>
     <use style="fill:#0000ff;stroke:#0000ff;" x="427.261043" xlink:href="#md8f655c491" y="92.372396"/>
     <use style="fill:#0000ff;stroke:#0000ff;" x="434.684957" xlink:href="#md8f655c491" y="106.622946"/>
     <use style="fill:#0000ff;stroke:#0000ff;" x="442.10887" xlink:href="#md8f655c491" y="102.72575"/>
     <use style="fill:#0000ff;stroke:#0000ff;" x="449.532783" xlink:href="#md8f655c491" y="84.326452"/>
     <use style="fill:#0000ff;stroke:#0000ff;" x="456.956696" xlink:href="#md8f655c491" y="114.683676"/>
     <use style="fill:#0000ff;stroke:#0000ff;" x="464.380609" xlink:href="#md8f655c491" y="100.474554"/>
     <use style="fill:#0000ff;stroke:#0000ff;" x="471.804522" xlink:href="#md8f655c491" y="95.543919"/>
     <use style="fill:#0000ff;stroke:#0000ff;" x="479.228435" xlink:href="#md8f655c491" y="86.482855"/>
     <use style="fill:#0000ff;stroke:#0000ff;" x="486.652348" xlink:href="#md8f655c491" y="103.316105"/>
     <use style="fill:#0000ff;stroke:#0000ff;" x="494.076261" xlink:href="#md8f655c491" y="103.365725"/>
     <use style="fill:#0000ff;stroke:#0000ff;" x="501.500174" xlink:href="#md8f655c491" y="92.478175"/>
     <use style="fill:#0000ff;stroke:#0000ff;" x="508.924087" xlink:href="#md8f655c491" y="96.274008"/>
     <use style="fill:#0000ff;stroke:#0000ff;" x="516.348" xlink:href="#md8f655c491" y="83.805595"/>
     <use style="fill:#0000ff;stroke:#0000ff;" x="523.771913" xlink:href="#md8f655c491" y="91.038685"/>
     <use style="fill:#0000ff;stroke:#0000ff;" x="531.195826" xlink:href="#md8f655c491" y="87.699002"/>
     <use style="fill:#0000ff;stroke:#0000ff;" x="538.619739" xlink:href="#md8f655c491" y="100.909342"/>
     <use style="fill:#0000ff;stroke:#0000ff;" x="546.043652" xlink:href="#md8f655c491" y="90.903762"/>
     <use style="fill:#0000ff;stroke:#0000ff;" x="553.467565" xlink:href="#md8f655c491" y="106.09433"/>
     <use style="fill:#0000ff;stroke:#0000ff;" x="560.891478" xlink:href="#md8f655c491" y="94.980941"/>
     <use style="fill:#0000ff;stroke:#0000ff;" x="568.315391" xlink:href="#md8f655c491" y="91.750823"/>
     <use style="fill:#0000ff;stroke:#0000ff;" x="575.739304" xlink:href="#md8f655c491" y="86.803974"/>
     <use style="fill:#0000ff;stroke:#0000ff;" x="583.163217" xlink:href="#md8f655c491" y="93.719837"/>
     <use style="fill:#0000ff;stroke:#0000ff;" x="590.58713" xlink:href="#md8f655c491" y="88.684659"/>
     <use style="fill:#0000ff;stroke:#0000ff;" x="598.011043" xlink:href="#md8f655c491" y="106.24915"/>
     <use style="fill:#0000ff;stroke:#0000ff;" x="605.434957" xlink:href="#md8f655c491" y="88.869379"/>
     <use style="fill:#0000ff;stroke:#0000ff;" x="612.85887" xlink:href="#md8f655c491" y="110.41028"/>
     <use style="fill:#0000ff;stroke:#0000ff;" x="620.282783" xlink:href="#md8f655c491" y="91.928059"/>
     <use style="fill:#0000ff;stroke:#0000ff;" x="627.706696" xlink:href="#md8f655c491" y="73.017346"/>
     <use style="fill:#0000ff;stroke:#0000ff;" x="635.130609" xlink:href="#md8f655c491" y="83.751729"/>
     <use style="fill:#0000ff;stroke:#0000ff;" x="642.554522" xlink:href="#md8f655c491" y="92.386407"/>
     <use style="fill:#0000ff;stroke:#0000ff;" x="649.978435" xlink:href="#md8f655c491" y="86.313188"/>
     <use style="fill:#0000ff;stroke:#0000ff;" x="657.402348" xlink:href="#md8f655c491" y="89.636769"/>
     <use style="fill:#0000ff;stroke:#0000ff;" x="664.826261" xlink:href="#md8f655c491" y="83.38192"/>
     <use style="fill:#0000ff;stroke:#0000ff;" x="672.250174" xlink:href="#md8f655c491" y="77.764052"/>
     <use style="fill:#0000ff;stroke:#0000ff;" x="679.674087" xlink:href="#md8f655c491" y="118.826554"/>
     <use style="fill:#0000ff;stroke:#0000ff;" x="687.098" xlink:href="#md8f655c491" y="76.78818"/>
     <use style="fill:#0000ff;stroke:#0000ff;" x="694.521913" xlink:href="#md8f655c491" y="75.571281"/>
     <use style="fill:#0000ff;stroke:#0000ff;" x="701.945826" xlink:href="#md8f655c491" y="89.324629"/>
     <use style="fill:#0000ff;stroke:#0000ff;" x="709.369739" xlink:href="#md8f655c491" y="86.936743"/>
     <use style="fill:#0000ff;stroke:#0000ff;" x="716.793652" xlink:href="#md8f655c491" y="90.123506"/>
     <use style="fill:#0000ff;stroke:#0000ff;" x="724.217565" xlink:href="#md8f655c491" y="81.851033"/>
     <use style="fill:#0000ff;stroke:#0000ff;" x="731.641478" xlink:href="#md8f655c491" y="93.946844"/>
     <use style="fill:#0000ff;stroke:#0000ff;" x="739.065391" xlink:href="#md8f655c491" y="85.690761"/>
     <use style="fill:#0000ff;stroke:#0000ff;" x="746.489304" xlink:href="#md8f655c491" y="83.005314"/>
     <use style="fill:#0000ff;stroke:#0000ff;" x="753.913217" xlink:href="#md8f655c491" y="107.150058"/>
     <use style="fill:#0000ff;stroke:#0000ff;" x="761.33713" xlink:href="#md8f655c491" y="97.839084"/>
     <use style="fill:#0000ff;stroke:#0000ff;" x="768.761043" xlink:href="#md8f655c491" y="100.188269"/>
     <use style="fill:#0000ff;stroke:#0000ff;" x="776.184957" xlink:href="#md8f655c491" y="86.327209"/>
     <use style="fill:#0000ff;stroke:#0000ff;" x="783.60887" xlink:href="#md8f655c491" y="73.765258"/>
     <use style="fill:#0000ff;stroke:#0000ff;" x="791.032783" xlink:href="#md8f655c491" y="110.986723"/>
     <use style="fill:#0000ff;stroke:#0000ff;" x="798.456696" xlink:href="#md8f655c491" y="94.651828"/>
     <use style="fill:#0000ff;stroke:#0000ff;" x="805.880609" xlink:href="#md8f655c491" y="111.120725"/>
     <use style="fill:#0000ff;stroke:#0000ff;" x="813.304522" xlink:href="#md8f655c491" y="92.59061"/>
     <use style="fill:#0000ff;stroke:#0000ff;" x="820.728435" xlink:href="#md8f655c491" y="101.095856"/>
     <use style="fill:#0000ff;stroke:#0000ff;" x="828.152348" xlink:href="#md8f655c491" y="133.1824"/>
     <use style="fill:#0000ff;stroke:#0000ff;" x="835.576261" xlink:href="#md8f655c491" y="101.371"/>
     <use style="fill:#0000ff;stroke:#0000ff;" x="843.000174" xlink:href="#md8f655c491" y="115.984174"/>
     <use style="fill:#0000ff;stroke:#0000ff;" x="850.424087" xlink:href="#md8f655c491" y="105.342904"/>
     <use style="fill:#0000ff;stroke:#0000ff;" x="857.848" xlink:href="#md8f655c491" y="90.949382"/>
    </g>
   </g>
   <g id="patch_3">
    <path d="M 147.528 135.8784 
L 147.528 63.0864 
" style="fill:none;stroke:#000000;stroke-linecap:square;stroke-linejoin:miter;stroke-width:0.8;"/>
   </g>
   <g id="patch_4">
    <path d="M 885.168 135.8784 
L 885.168 63.0864 
" style="fill:none;stroke:#000000;stroke-linecap:square;stroke-linejoin:miter;stroke-width:0.8;"/>
   </g>
   <g id="patch_5">
    <path d="M 147.528 135.8784 
L 885.168 135.8784 
" style="fill:none;stroke:#000000;stroke-linecap:square;stroke-linejoin:miter;stroke-width:0.8;"/>
   </g>
   <g id="patch_6">
    <path d="M 147.528 63.0864 
L 885.168 63.0864 
" style="fill:none;stroke:#000000;stroke-linecap:square;stroke-linejoin:miter;stroke-width:0.8;"/>
   </g>
   <g id="text_4">
    <!-- Function (0/0): y = a*exp(-(x-x0)**2/w**2)+b -->
    <defs>
     <path d="M 9.8125 72.90625 
L 51.703125 72.90625 
L 51.703125 64.59375 
L 19.671875 64.59375 
L 19.671875 43.109375 
L 48.578125 43.109375 
L 48.578125 34.8125 
L 19.671875 34.8125 
L 19.671875 0 
L 9.8125 0 
z
" id="DejaVuSans-46"/>
     <path d="M 48.78125 52.59375 
L 48.78125 44.1875 
Q 44.96875 46.296875 41.140625 47.34375 
Q 37.3125 48.390625 33.40625 48.390625 
Q 24.65625 48.390625 19.8125 42.84375 
Q 14.984375 37.3125 14.984375 27.296875 
Q 14.984375 17.28125 19.8125 11.734375 
Q 24.65625 6.203125 33.40625 6.203125 
Q 37.3125 6.203125 41.140625 7.25 
Q 44.96875 8.296875 48.78125 10.40625 
L 48.78125 2.09375 
Q 45.015625 0.34375 40.984375 -0.53125 
Q 36.96875 -1.421875 32.421875 -1.421875 
Q 20.0625 -1.421875 12.78125 6.34375 
Q 5.515625 14.109375 5.515625 27.296875 
Q 5.515625 40.671875 12.859375 48.328125 
Q 20.21875 56 33.015625 56 
Q 37.15625 56 41.109375 55.140625 
Q 45.0625 54.296875 48.78125 52.59375 
z
" id="DejaVuSans-63"/>
     <path d="M 30.609375 48.390625 
Q 23.390625 48.390625 19.1875 42.75 
Q 14.984375 37.109375 14.984375 27.296875 
Q 14.984375 17.484375 19.15625 11.84375 
Q 23.34375 6.203125 30.609375 6.203125 
Q 37.796875 6.203125 41.984375 11.859375 
Q 46.1875 17.53125 46.1875 27.296875 
Q 46.1875 37.015625 41.984375 42.703125 
Q 37.796875 48.390625 30.609375 48.390625 
z
M 30.609375 56 
Q 42.328125 56 49.015625 48.375 
Q 55.71875 40.765625 55.71875 27.296875 
Q 55.71875 13.875 49.015625 6.21875 
Q 42.328125 -1.421875 30.609375 -1.421875 
Q 18.84375 -1.421875 12.171875 6.21875 
Q 5.515625 13.875 5.515625 27.296875 
Q 5.515625 40.765625 12.171875 48.375 
Q 18.84375 56 30.609375 56 
z
" id="DejaVuSans-6f"/>
     <path id="DejaVuSans-20"/>
     <path d="M 31 75.875 
Q 24.46875 64.65625 21.28125 53.65625 
Q 18.109375 42.671875 18.109375 31.390625 
Q 18.109375 20.125 21.3125 9.0625 
Q 24.515625 -2 31 -13.1875 
L 23.1875 -13.1875 
Q 15.875 -1.703125 12.234375 9.375 
Q 8.59375 20.453125 8.59375 31.390625 
Q 8.59375 42.28125 12.203125 53.3125 
Q 15.828125 64.359375 23.1875 75.875 
z
" id="DejaVuSans-28"/>
     <path d="M 31.78125 66.40625 
Q 24.171875 66.40625 20.328125 58.90625 
Q 16.5 51.421875 16.5 36.375 
Q 16.5 21.390625 20.328125 13.890625 
Q 24.171875 6.390625 31.78125 6.390625 
Q 39.453125 6.390625 43.28125 13.890625 
Q 47.125 21.390625 47.125 36.375 
Q 47.125 51.421875 43.28125 58.90625 
Q 39.453125 66.40625 31.78125 66.40625 
z
M 31.78125 74.21875 
Q 44.046875 74.21875 50.515625 64.515625 
Q 56.984375 54.828125 56.984375 36.375 
Q 56.984375 17.96875 50.515625 8.265625 
Q 44.046875 -1.421875 31.78125 -1.421875 
Q 19.53125 -1.421875 13.0625 8.265625 
Q 6.59375 17.96875 6.59375 36.375 
Q 6.59375 54.828125 13.0625 64.515625 
Q 19.53125 74.21875 31.78125 74.21875 
z
" id="DejaVuSans-30"/>
     <path d="M 25.390625 72.90625 
L 33.6875 72.90625 
L 8.296875 -9.28125 
L 0 -9.28125 
z
" id="DejaVuSans-2f"/>
     <path d="M 8.015625 75.875 
L 15.828125 75.875 
Q 23.140625 64.359375 26.78125 53.3125 
Q 30.421875 42.28125 30.421875 31.390625 
Q 30.421875 20.453125 26.78125 9.375 
Q 23.140625 -1.703125 15.828125 -13.1875 
L 8.015625 -13.1875 
Q 14.5 -2 17.703125 9.0625 
Q 20.90625 20.125 20.90625 31.390625 
Q 20.90625 42.671875 17.703125 53.65625 
Q 14.5 64.65625 8.015625 75.875 
z
" id="DejaVuSans-29"/>
     <path d="M 11.71875 12.40625 
L 22.015625 12.40625 
L 22.015625 0 
L 11.71875 0 
z
M 11.71875 51.703125 
L 22.015625 51.703125 
L 22.015625 39.3125 
L 11.71875 39.3125 
z
" id="DejaVuSans-3a"/>
     <path d="M 32.171875 -5.078125 
Q 28.375 -14.84375 24.75 -17.8125 
Q 21.140625 -20.796875 15.09375 -20.796875 
L 7.90625 -20.796875 
L 7.90625 -13.28125 
L 13.1875 -13.28125 
Q 16.890625 -13.28125 18.9375 -11.515625 
Q 21 -9.765625 23.484375 -3.21875 
L 25.09375 0.875 
L 2.984375 54.6875 
L 12.5 54.6875 
L 29.59375 11.921875 
L 46.6875 54.6875 
L 56.203125 54.6875 
z
" id="DejaVuSans-79"/>
     <path d="M 10.59375 45.40625 
L 73.1875 45.40625 
L 73.1875 37.203125 
L 10.59375 37.203125 
z
M 10.59375 25.484375 
L 73.1875 25.484375 
L 73.1875 17.1875 
L 10.59375 17.1875 
z
" id="DejaVuSans-3d"/>
     <path d="M 47.015625 60.890625 
L 29.5 51.421875 
L 47.015625 41.890625 
L 44.1875 37.109375 
L 27.78125 47.015625 
L 27.78125 28.609375 
L 22.21875 28.609375 
L 22.21875 47.015625 
L 5.8125 37.109375 
L 2.984375 41.890625 
L 20.515625 51.421875 
L 2.984375 60.890625 
L 5.8125 65.71875 
L 22.21875 55.8125 
L 22.21875 74.21875 
L 27.78125 74.21875 
L 27.78125 55.8125 
L 44.1875 65.71875 
z
" id="DejaVuSans-2a"/>
     <path d="M 54.890625 54.6875 
L 35.109375 28.078125 
L 55.90625 0 
L 45.3125 0 
L 29.390625 21.484375 
L 13.484375 0 
L 2.875 0 
L 24.125 28.609375 
L 4.6875 54.6875 
L 15.28125 54.6875 
L 29.78125 35.203125 
L 44.28125 54.6875 
z
" id="DejaVuSans-78"/>
     <path d="M 18.109375 8.203125 
L 18.109375 -20.796875 
L 9.078125 -20.796875 
L 9.078125 54.6875 
L 18.109375 54.6875 
L 18.109375 46.390625 
Q 20.953125 51.265625 25.265625 53.625 
Q 29.59375 56 35.59375 56 
Q 45.5625 56 51.78125 48.09375 
Q 58.015625 40.1875 58.015625 27.296875 
Q 58.015625 14.40625 51.78125 6.484375 
Q 45.5625 -1.421875 35.59375 -1.421875 
Q 29.59375 -1.421875 25.265625 0.953125 
Q 20.953125 3.328125 18.109375 8.203125 
z
M 48.6875 27.296875 
Q 48.6875 37.203125 44.609375 42.84375 
Q 40.53125 48.484375 33.40625 48.484375 
Q 26.265625 48.484375 22.1875 42.84375 
Q 18.109375 37.203125 18.109375 27.296875 
Q 18.109375 17.390625 22.1875 11.75 
Q 26.265625 6.109375 33.40625 6.109375 
Q 40.53125 6.109375 44.609375 11.75 
Q 48.6875 17.390625 48.6875 27.296875 
z
" id="DejaVuSans-70"/>
     <path d="M 4.890625 31.390625 
L 31.203125 31.390625 
L 31.203125 23.390625 
L 4.890625 23.390625 
z
" id="DejaVuSans-2d"/>
     <path d="M 4.203125 54.6875 
L 13.1875 54.6875 
L 24.421875 12.015625 
L 35.59375 54.6875 
L 46.1875 54.6875 
L 57.421875 12.015625 
L 68.609375 54.6875 
L 77.59375 54.6875 
L 63.28125 0 
L 52.6875 0 
L 40.921875 44.828125 
L 29.109375 0 
L 18.5 0 
z
" id="DejaVuSans-77"/>
     <path d="M 46 62.703125 
L 46 35.5 
L 73.1875 35.5 
L 73.1875 27.203125 
L 46 27.203125 
L 46 0 
L 37.796875 0 
L 37.796875 27.203125 
L 10.59375 27.203125 
L 10.59375 35.5 
L 37.796875 35.5 
L 37.796875 62.703125 
z
" id="DejaVuSans-2b"/>
     <path d="M 48.6875 27.296875 
Q 48.6875 37.203125 44.609375 42.84375 
Q 40.53125 48.484375 33.40625 48.484375 
Q 26.265625 48.484375 22.1875 42.84375 
Q 18.109375 37.203125 18.109375 27.296875 
Q 18.109375 17.390625 22.1875 11.75 
Q 26.265625 6.109375 33.40625 6.109375 
Q 40.53125 6.109375 44.609375 11.75 
Q 48.6875 17.390625 48.6875 27.296875 
z
M 18.109375 46.390625 
Q 20.953125 51.265625 25.265625 53.625 
Q 29.59375 56 35.59375 56 
Q 45.5625 56 51.78125 48.09375 
Q 58.015625 40.1875 58.015625 27.296875 
Q 58.015625 14.40625 51.78125 6.484375 
Q 45.5625 -1.421875 35.59375 -1.421875 
Q 29.59375 -1.421875 25.265625 0.953125 
Q 20.953125 3.328125 18.109375 8.203125 
L 18.109375 0 
L 9.078125 0 
L 9.078125 75.984375 
L 18.109375 75.984375 
z
" id="DejaVuSans-62"/>
    </defs>
    <g transform="translate(147.528 45.888588)scale(0.1 -0.1)">
     <use xlink:href="#DejaVuSans-46"/>
     <use x="57.441406" xlink:href="#DejaVuSans-75"/>
     <use x="120.820312" xlink:href="#DejaVuSans-6e"/>
     <use x="184.199219" xlink:href="#DejaVuSans-63"/>
     <use x="239.179688" xlink:href="#DejaVuSans-74"/>
     <use x="278.388672" xlink:href="#DejaVuSans-69"/>
     <use x="306.171875" xlink:href="#DejaVuSans-6f"/>
     <use x="367.353516" xlink:href="#DejaVuSans-6e"/>
     <use x="430.732422" xlink:href="#DejaVuSans-20"/>
     <use x="462.519531" xlink:href="#DejaVuSans-28"/>
     <use x="501.533203" xlink:href="#DejaVuSans-30"/>
     <use x="565.15625" xlink:href="#DejaVuSans-2f"/>
     <use x="598.847656" xlink:href="#DejaVuSans-30"/>
     <use x="662.470703" xlink:href="#DejaVuSans-29"/>
     <use x="701.484375" xlink:href="#DejaVuSans-3a"/>
     <use x="735.175781" xlink:href="#DejaVuSans-20"/>
     <use x="766.962891" xlink:href="#DejaVuSans-79"/>
     <use x="826.142578" xlink:href="#DejaVuSans-20"/>
     <use x="857.929688" xlink:href="#DejaVuSans-3d"/>
     <use x="941.71875" xlink:href="#DejaVuSans-20"/>
     <use x="973.505859" xlink:href="#DejaVuSans-61"/>
     <use x="1034.785156" xlink:href="#DejaVuSans-2a"/>
     <use x="1084.785156" xlink:href="#DejaVuSans-65"/>
     <use x="1146.292969" xlink:href="#DejaVuSans-78"/>
     <use x="1205.472656" xlink:href="#DejaVuSans-70"/>
     <use x="1268.949219" xlink:href="#DejaVuSans-28"/>
     <use x="1307.962891" xlink:href="#DejaVuSans-2d"/>
     <use x="1344.046875" xlink:href="#DejaVuSans-28"/>
     <use x="1383.060547" xlink:href="#DejaVuSans-78"/>
     <use x="1442.240234" xlink:href="#DejaVuSans-2d"/>
     <use x="1478.324219" xlink:href="#DejaVuSans-78"/>
     <use x="1537.503906" xlink:href="#DejaVuSans-30"/>
     <use x="1601.126953" xlink:href="#DejaVuSans-29"/>
     <use x="1640.140625" xlink:href="#DejaVuSans-2a"/>
     <use x="1690.140625" xlink:href="#DejaVuSans-2a"/>
     <use x="1740.140625" xlink:href="#DejaVuSans-32"/>
     <use x="1803.763672" xlink:href="#DejaVuSans-2f"/>
     <use x="1837.455078" xlink:href="#DejaVuSans-77"/>
     <use x="1919.242188" xlink:href="#DejaVuSans-2a"/>
     <use x="1969.242188" xlink:href="#DejaVuSans-2a"/>
     <use x="2019.242188" xlink:href="#DejaVuSans-32"/>
     <use x="2082.865234" xlink:href="#DejaVuSans-29"/>
     <use x="2121.878906" xlink:href="#DejaVuSans-2b"/>
     <use x="2205.667969" xlink:href="#DejaVuSans-62"/>
    </g>
    <!-- Fit: a=377.9$\pm$6.1, b=26.9$\pm$6.7, x0=4.4871$\pm$0.0011, w=0.1758$\pm$0.0042, -->
    <defs>
     <path d="M 40.578125 39.3125 
Q 47.65625 37.796875 51.625 33 
Q 55.609375 28.21875 55.609375 21.1875 
Q 55.609375 10.40625 48.1875 4.484375 
Q 40.765625 -1.421875 27.09375 -1.421875 
Q 22.515625 -1.421875 17.65625 -0.515625 
Q 12.796875 0.390625 7.625 2.203125 
L 7.625 11.71875 
Q 11.71875 9.328125 16.59375 8.109375 
Q 21.484375 6.890625 26.8125 6.890625 
Q 36.078125 6.890625 40.9375 10.546875 
Q 45.796875 14.203125 45.796875 21.1875 
Q 45.796875 27.640625 41.28125 31.265625 
Q 36.765625 34.90625 28.71875 34.90625 
L 20.21875 34.90625 
L 20.21875 43.015625 
L 29.109375 43.015625 
Q 36.375 43.015625 40.234375 45.921875 
Q 44.09375 48.828125 44.09375 54.296875 
Q 44.09375 59.90625 40.109375 62.90625 
Q 36.140625 65.921875 28.71875 65.921875 
Q 24.65625 65.921875 20.015625 65.03125 
Q 15.375 64.15625 9.8125 62.3125 
L 9.8125 71.09375 
Q 15.4375 72.65625 20.34375 73.4375 
Q 25.25 74.21875 29.59375 74.21875 
Q 40.828125 74.21875 47.359375 69.109375 
Q 53.90625 64.015625 53.90625 55.328125 
Q 53.90625 49.265625 50.4375 45.09375 
Q 46.96875 40.921875 40.578125 39.3125 
z
" id="DejaVuSans-33"/>
     <path d="M 8.203125 72.90625 
L 55.078125 72.90625 
L 55.078125 68.703125 
L 28.609375 0 
L 18.3125 0 
L 43.21875 64.59375 
L 8.203125 64.59375 
z
" id="DejaVuSans-37"/>
     <path d="M 10.6875 12.40625 
L 21 12.40625 
L 21 0 
L 10.6875 0 
z
" id="DejaVuSans-2e"/>
     <path d="M 10.984375 1.515625 
L 10.984375 10.5 
Q 14.703125 8.734375 18.5 7.8125 
Q 22.3125 6.890625 25.984375 6.890625 
Q 35.75 6.890625 40.890625 13.453125 
Q 46.046875 20.015625 46.78125 33.40625 
Q 43.953125 29.203125 39.59375 26.953125 
Q 35.25 24.703125 29.984375 24.703125 
Q 19.046875 24.703125 12.671875 31.3125 
Q 6.296875 37.9375 6.296875 49.421875 
Q 6.296875 60.640625 12.9375 67.421875 
Q 19.578125 74.21875 30.609375 74.21875 
Q 43.265625 74.21875 49.921875 64.515625 
Q 56.59375 54.828125 56.59375 36.375 
Q 56.59375 19.140625 48.40625 8.859375 
Q 40.234375 -1.421875 26.421875 -1.421875 
Q 22.703125 -1.421875 18.890625 -0.6875 
Q 15.09375 0.046875 10.984375 1.515625 
z
M 30.609375 32.421875 
Q 37.25 32.421875 41.125 36.953125 
Q 45.015625 41.5 45.015625 49.421875 
Q 45.015625 57.28125 41.125 61.84375 
Q 37.25 66.40625 30.609375 66.40625 
Q 23.96875 66.40625 20.09375 61.84375 
Q 16.21875 57.28125 16.21875 49.421875 
Q 16.21875 41.5 20.09375 36.953125 
Q 23.96875 32.421875 30.609375 32.421875 
z
" id="DejaVuSans-39"/>
     <path d="M 46 62.703125 
L 46 43.796875 
L 73.1875 43.796875 
L 73.1875 35.5 
L 46 35.5 
L 46 16.609375 
L 37.796875 16.609375 
L 37.796875 35.5 
L 10.59375 35.5 
L 10.59375 43.796875 
L 37.796875 43.796875 
L 37.796875 62.703125 
z
M 10.59375 8.296875 
L 73.1875 8.296875 
L 73.1875 0 
L 10.59375 0 
z
" id="DejaVuSans-b1"/>
     <path d="M 33.015625 40.375 
Q 26.375 40.375 22.484375 35.828125 
Q 18.609375 31.296875 18.609375 23.390625 
Q 18.609375 15.53125 22.484375 10.953125 
Q 26.375 6.390625 33.015625 6.390625 
Q 39.65625 6.390625 43.53125 10.953125 
Q 47.40625 15.53125 47.40625 23.390625 
Q 47.40625 31.296875 43.53125 35.828125 
Q 39.65625 40.375 33.015625 40.375 
z
M 52.59375 71.296875 
L 52.59375 62.3125 
Q 48.875 64.0625 45.09375 64.984375 
Q 41.3125 65.921875 37.59375 65.921875 
Q 27.828125 65.921875 22.671875 59.328125 
Q 17.53125 52.734375 16.796875 39.40625 
Q 19.671875 43.65625 24.015625 45.921875 
Q 28.375 48.1875 33.59375 48.1875 
Q 44.578125 48.1875 50.953125 41.515625 
Q 57.328125 34.859375 57.328125 23.390625 
Q 57.328125 12.15625 50.6875 5.359375 
Q 44.046875 -1.421875 33.015625 -1.421875 
Q 20.359375 -1.421875 13.671875 8.265625 
Q 6.984375 17.96875 6.984375 36.375 
Q 6.984375 53.65625 15.1875 63.9375 
Q 23.390625 74.21875 37.203125 74.21875 
Q 40.921875 74.21875 44.703125 73.484375 
Q 48.484375 72.75 52.59375 71.296875 
z
" id="DejaVuSans-36"/>
     <path d="M 12.40625 8.296875 
L 28.515625 8.296875 
L 28.515625 63.921875 
L 10.984375 60.40625 
L 10.984375 69.390625 
L 28.421875 72.90625 
L 38.28125 72.90625 
L 38.28125 8.296875 
L 54.390625 8.296875 
L 54.390625 0 
L 12.40625 0 
z
" id="DejaVuSans-31"/>
     <path d="M 11.71875 12.40625 
L 22.015625 12.40625 
L 22.015625 4 
L 14.015625 -11.625 
L 7.71875 -11.625 
L 11.71875 4 
z
" id="DejaVuSans-2c"/>
     <path d="M 37.796875 64.3125 
L 12.890625 25.390625 
L 37.796875 25.390625 
z
M 35.203125 72.90625 
L 47.609375 72.90625 
L 47.609375 25.390625 
L 58.015625 25.390625 
L 58.015625 17.1875 
L 47.609375 17.1875 
L 47.609375 0 
L 37.796875 0 
L 37.796875 17.1875 
L 4.890625 17.1875 
L 4.890625 26.703125 
z
" id="DejaVuSans-34"/>
     <path d="M 31.78125 34.625 
Q 24.75 34.625 20.71875 30.859375 
Q 16.703125 27.09375 16.703125 20.515625 
Q 16.703125 13.921875 20.71875 10.15625 
Q 24.75 6.390625 31.78125 6.390625 
Q 38.8125 6.390625 42.859375 10.171875 
Q 46.921875 13.96875 46.921875 20.515625 
Q 46.921875 27.09375 42.890625 30.859375 
Q 38.875 34.625 31.78125 34.625 
z
M 21.921875 38.8125 
Q 15.578125 40.375 12.03125 44.71875 
Q 8.5 49.078125 8.5 55.328125 
Q 8.5 64.0625 14.71875 69.140625 
Q 20.953125 74.21875 31.78125 74.21875 
Q 42.671875 74.21875 48.875 69.140625 
Q 55.078125 64.0625 55.078125 55.328125 
Q 55.078125 49.078125 51.53125 44.71875 
Q 48 40.375 41.703125 38.8125 
Q 48.828125 37.15625 52.796875 32.3125 
Q 56.78125 27.484375 56.78125 20.515625 
Q 56.78125 9.90625 50.3125 4.234375 
Q 43.84375 -1.421875 31.78125 -1.421875 
Q 19.734375 -1.421875 13.25 4.234375 
Q 6.78125 9.90625 6.78125 20.515625 
Q 6.78125 27.484375 10.78125 32.3125 
Q 14.796875 37.15625 21.921875 38.8125 
z
M 18.3125 54.390625 
Q 18.3125 48.734375 21.84375 45.5625 
Q 25.390625 42.390625 31.78125 42.390625 
Q 38.140625 42.390625 41.71875 45.5625 
Q 45.3125 48.734375 45.3125 54.390625 
Q 45.3125 60.0625 41.71875 63.234375 
Q 38.140625 66.40625 31.78125 66.40625 
Q 25.390625 66.40625 21.84375 63.234375 
Q 18.3125 60.0625 18.3125 54.390625 
z
" id="DejaVuSans-38"/>
     <path d="M 10.796875 72.90625 
L 49.515625 72.90625 
L 49.515625 64.59375 
L 19.828125 64.59375 
L 19.828125 46.734375 
Q 21.96875 47.46875 24.109375 47.828125 
Q 26.265625 48.1875 28.421875 48.1875 
Q 40.625 48.1875 47.75 41.5 
Q 54.890625 34.8125 54.890625 23.390625 
Q 54.890625 11.625 47.5625 5.09375 
Q 40.234375 -1.421875 26.90625 -1.421875 
Q 22.3125 -1.421875 17.546875 -0.640625 
Q 12.796875 0.140625 7.71875 1.703125 
L 7.71875 11.625 
Q 12.109375 9.234375 16.796875 8.0625 
Q 21.484375 6.890625 26.703125 6.890625 
Q 35.15625 6.890625 40.078125 11.328125 
Q 45.015625 15.765625 45.015625 23.390625 
Q 45.015625 31 40.078125 35.4375 
Q 35.15625 39.890625 26.703125 39.890625 
Q 22.75 39.890625 18.8125 39.015625 
Q 14.890625 38.140625 10.796875 36.28125 
z
" id="DejaVuSans-35"/>
    </defs>
    <g transform="translate(147.528 57.0864)scale(0.1 -0.1)">
     <use transform="translate(0 0.015625)" xlink:href="#DejaVuSans-46"/>
     <use transform="translate(57.519531 0.015625)" xlink:href="#DejaVuSans-69"/>
     <use transform="translate(85.302734 0.015625)" xlink:href="#DejaVuSans-74"/>
     <use transform="translate(124.511719 0.015625)" xlink:href="#DejaVuSans-3a"/>
     <use transform="translate(158.203125 0.015625)" xlink:href="#DejaVuSans-20"/>
     <use transform="translate(189.990234 0.015625)" xlink:href="#DejaVuSans-61"/>
     <use transform="translate(251.269531 0.015625)" xlink:href="#DejaVuSans-3d"/>
     <use transform="translate(335.058594 0.015625)" xlink:href="#DejaVuSans-33"/>
     <use transform="translate(398.681641 0.015625)" xlink:href="#DejaVuSans-37"/>
     <use transform="translate(462.289062 0.015625)" xlink:href="#DejaVuSans-37"/>
     <use transform="translate(525.912109 0.015625)" xlink:href="#DejaVuSans-2e"/>
     <use transform="translate(557.699219 0.015625)" xlink:href="#DejaVuSans-39"/>
     <use transform="translate(621.322266 0.015625)" xlink:href="#DejaVuSans-b1"/>
     <use transform="translate(705.111328 0.015625)" xlink:href="#DejaVuSans-36"/>
     <use transform="translate(768.734375 0.015625)" xlink:href="#DejaVuSans-2e"/>
     <use transform="translate(800.521484 0.015625)" xlink:href="#DejaVuSans-31"/>
     <use transform="translate(864.144531 0.015625)" xlink:href="#DejaVuSans-2c"/>
     <use transform="translate(895.931641 0.015625)" xlink:href="#DejaVuSans-20"/>
     <use transform="translate(927.71875 0.015625)" xlink:href="#DejaVuSans-62"/>
     <use transform="translate(991.195312 0.015625)" xlink:href="#DejaVuSans-3d"/>
     <use transform="translate(1074.984375 0.015625)" xlink:href="#DejaVuSans-32"/>
     <use transform="translate(1138.607422 0.015625)" xlink:href="#DejaVuSans-36"/>
     <use transform="translate(1202.230469 0.015625)" xlink:href="#DejaVuSans-2e"/>
     <use transform="translate(1234.017578 0.015625)" xlink:href="#DejaVuSans-39"/>
     <use transform="translate(1297.640625 0.015625)" xlink:href="#DejaVuSans-b1"/>
     <use transform="translate(1381.429688 0.015625)" xlink:href="#DejaVuSans-36"/>
     <use transform="translate(1445.052734 0.015625)" xlink:href="#DejaVuSans-2e"/>
     <use transform="translate(1476.730469 0.015625)" xlink:href="#DejaVuSans-37"/>
     <use transform="translate(1540.353516 0.015625)" xlink:href="#DejaVuSans-2c"/>
     <use transform="translate(1572.140625 0.015625)" xlink:href="#DejaVuSans-20"/>
     <use transform="translate(1603.927734 0.015625)" xlink:href="#DejaVuSans-78"/>
     <use transform="translate(1663.107422 0.015625)" xlink:href="#DejaVuSans-30"/>
     <use transform="translate(1726.730469 0.015625)" xlink:href="#DejaVuSans-3d"/>
     <use transform="translate(1810.519531 0.015625)" xlink:href="#DejaVuSans-34"/>
     <use transform="translate(1874.142578 0.015625)" xlink:href="#DejaVuSans-2e"/>
     <use transform="translate(1905.929688 0.015625)" xlink:href="#DejaVuSans-34"/>
     <use transform="translate(1969.552734 0.015625)" xlink:href="#DejaVuSans-38"/>
     <use transform="translate(2033.175781 0.015625)" xlink:href="#DejaVuSans-37"/>
     <use transform="translate(2096.798828 0.015625)" xlink:href="#DejaVuSans-31"/>
     <use transform="translate(2160.421875 0.015625)" xlink:href="#DejaVuSans-b1"/>
     <use transform="translate(2244.210938 0.015625)" xlink:href="#DejaVuSans-30"/>
     <use transform="translate(2307.833984 0.015625)" xlink:href="#DejaVuSans-2e"/>
     <use transform="translate(2339.621094 0.015625)" xlink:href="#DejaVuSans-30"/>
     <use transform="translate(2403.244141 0.015625)" xlink:href="#DejaVuSans-30"/>
     <use transform="translate(2466.867188 0.015625)" xlink:href="#DejaVuSans-31"/>
     <use transform="translate(2530.490234 0.015625)" xlink:href="#DejaVuSans-31"/>
     <use transform="translate(2594.113281 0.015625)" xlink:href="#DejaVuSans-2c"/>
     <use transform="translate(2625.900391 0.015625)" xlink:href="#DejaVuSans-20"/>
     <use transform="translate(2657.6875 0.015625)" xlink:href="#DejaVuSans-77"/>
     <use transform="translate(2739.474609 0.015625)" xlink:href="#DejaVuSans-3d"/>
     <use transform="translate(2823.263672 0.015625)" xlink:href="#DejaVuSans-30"/>
     <use transform="translate(2886.886719 0.015625)" xlink:href="#DejaVuSans-2e"/>
     <use transform="translate(2918.673828 0.015625)" xlink:href="#DejaVuSans-31"/>
     <use transform="translate(2982.296875 0.015625)" xlink:href="#DejaVuSans-37"/>
     <use transform="translate(3045.919922 0.015625)" xlink:href="#DejaVuSans-35"/>
     <use transform="translate(3109.542969 0.015625)" xlink:href="#DejaVuSans-38"/>
     <use transform="translate(3173.166016 0.015625)" xlink:href="#DejaVuSans-b1"/>
     <use transform="translate(3256.955078 0.015625)" xlink:href="#DejaVuSans-30"/>
     <use transform="translate(3320.578125 0.015625)" xlink:href="#DejaVuSans-2e"/>
     <use transform="translate(3352.365234 0.015625)" xlink:href="#DejaVuSans-30"/>
     <use transform="translate(3415.988281 0.015625)" xlink:href="#DejaVuSans-30"/>
     <use transform="translate(3479.611328 0.015625)" xlink:href="#DejaVuSans-34"/>
     <use transform="translate(3543.234375 0.015625)" xlink:href="#DejaVuSans-32"/>
     <use transform="translate(3606.857422 0.015625)" xlink:href="#DejaVuSans-2c"/>
    </g>
   </g>
  </g>
  <g id="axes_2">
   <g id="patch_7">
    <path d="M 147.528 436.752 
L 885.168 436.752 
L 885.168 145.584 
L 147.528 145.584 
z
" style="fill:#ffffff;"/>
   </g>
   <g id="matplotlib.axis_3">
    <g id="xtick_7">
     <g id="line2d_12">
      <g>
       <use style="stroke:#000000;stroke-width:0.8;" x="173.282024" xlink:href="#m66a885bd6a" y="436.752"/>
      </g>
     </g>
     <g id="text_5">
      <!-- 4.2 -->
      <g transform="translate(163.740149 452.870125)scale(0.12 -0.12)">
       <use xlink:href="#DejaVuSans-34"/>
       <use x="63.623047" xlink:href="#DejaVuSans-2e"/>
       <use x="95.410156" xlink:href="#DejaVuSans-32"/>
      </g>
     </g>
    </g>
    <g id="xtick_8">
     <g id="line2d_13">
      <g>
       <use style="stroke:#000000;stroke-width:0.8;" x="298.079074" xlink:href="#m66a885bd6a" y="436.752"/>
      </g>
     </g>
     <g id="text_6">
      <!-- 4.3 -->
      <g transform="translate(288.537199 452.870125)scale(0.12 -0.12)">
       <use xlink:href="#DejaVuSans-34"/>
       <use x="63.623047" xlink:href="#DejaVuSans-2e"/>
       <use x="95.410156" xlink:href="#DejaVuSans-33"/>
      </g>
     </g>
    </g>
    <g id="xtick_9">
     <g id="line2d_14">
      <g>
       <use style="stroke:#000000;stroke-width:0.8;" x="422.876124" xlink:href="#m66a885bd6a" y="436.752"/>
      </g>
     </g>
     <g id="text_7">
      <!-- 4.4 -->
      <g transform="translate(413.334249 452.870125)scale(0.12 -0.12)">
       <use xlink:href="#DejaVuSans-34"/>
       <use x="63.623047" xlink:href="#DejaVuSans-2e"/>
       <use x="95.410156" xlink:href="#DejaVuSans-34"/>
      </g>
     </g>
    </g>
    <g id="xtick_10">
     <g id="line2d_15">
      <g>
       <use style="stroke:#000000;stroke-width:0.8;" x="547.673174" xlink:href="#m66a885bd6a" y="436.752"/>
      </g>
     </g>
     <g id="text_8">
      <!-- 4.5 -->
      <g transform="translate(538.131299 452.870125)scale(0.12 -0.12)">
       <use xlink:href="#DejaVuSans-34"/>
       <use x="63.623047" xlink:href="#DejaVuSans-2e"/>
       <use x="95.410156" xlink:href="#DejaVuSans-35"/>
      </g>
     </g>
    </g>
    <g id="xtick_11">
     <g id="line2d_16">
      <g>
       <use style="stroke:#000000;stroke-width:0.8;" x="672.470223" xlink:href="#m66a885bd6a" y="436.752"/>
      </g>
     </g>
     <g id="text_9">
      <!-- 4.6 -->
      <g transform="translate(662.928348 452.870125)scale(0.12 -0.12)">
       <use xlink:href="#DejaVuSans-34"/>
       <use x="63.623047" xlink:href="#DejaVuSans-2e"/>
       <use x="95.410156" xlink:href="#DejaVuSans-36"/>
      </g>
     </g>
    </g>
    <g id="xtick_12">
     <g id="line2d_17">
      <g>
       <use style="stroke:#000000;stroke-width:0.8;" x="797.267273" xlink:href="#m66a885bd6a" y="436.752"/>
      </g>
     </g>
     <g id="text_10">
      <!-- 4.7 -->
      <g transform="translate(787.725398 452.870125)scale(0.12 -0.12)">
       <use xlink:href="#DejaVuSans-34"/>
       <use x="63.623047" xlink:href="#DejaVuSans-2e"/>
       <use x="95.410156" xlink:href="#DejaVuSans-37"/>
      </g>
     </g>
    </g>
    <g id="text_11">
     <!-- Energy [MeV] -->
     <defs>
      <path d="M 9.8125 72.90625 
L 55.90625 72.90625 
L 55.90625 64.59375 
L 19.671875 64.59375 
L 19.671875 43.015625 
L 54.390625 43.015625 
L 54.390625 34.71875 
L 19.671875 34.71875 
L 19.671875 8.296875 
L 56.78125 8.296875 
L 56.78125 0 
L 9.8125 0 
z
" id="DejaVuSans-45"/>
      <path d="M 41.109375 46.296875 
Q 39.59375 47.171875 37.8125 47.578125 
Q 36.03125 48 33.890625 48 
Q 26.265625 48 22.1875 43.046875 
Q 18.109375 38.09375 18.109375 28.8125 
L 18.109375 0 
L 9.078125 0 
L 9.078125 54.6875 
L 18.109375 54.6875 
L 18.109375 46.1875 
Q 20.953125 51.171875 25.484375 53.578125 
Q 30.03125 56 36.53125 56 
Q 37.453125 56 38.578125 55.875 
Q 39.703125 55.765625 41.0625 55.515625 
z
" id="DejaVuSans-72"/>
      <path d="M 45.40625 27.984375 
Q 45.40625 37.75 41.375 43.109375 
Q 37.359375 48.484375 30.078125 48.484375 
Q 22.859375 48.484375 18.828125 43.109375 
Q 14.796875 37.75 14.796875 27.984375 
Q 14.796875 18.265625 18.828125 12.890625 
Q 22.859375 7.515625 30.078125 7.515625 
Q 37.359375 7.515625 41.375 12.890625 
Q 45.40625 18.265625 45.40625 27.984375 
z
M 54.390625 6.78125 
Q 54.390625 -7.171875 48.1875 -13.984375 
Q 42 -20.796875 29.203125 -20.796875 
Q 24.46875 -20.796875 20.265625 -20.09375 
Q 16.0625 -19.390625 12.109375 -17.921875 
L 12.109375 -9.1875 
Q 16.0625 -11.328125 19.921875 -12.34375 
Q 23.78125 -13.375 27.78125 -13.375 
Q 36.625 -13.375 41.015625 -8.765625 
Q 45.40625 -4.15625 45.40625 5.171875 
L 45.40625 9.625 
Q 42.625 4.78125 38.28125 2.390625 
Q 33.9375 0 27.875 0 
Q 17.828125 0 11.671875 7.65625 
Q 5.515625 15.328125 5.515625 27.984375 
Q 5.515625 40.671875 11.671875 48.328125 
Q 17.828125 56 27.875 56 
Q 33.9375 56 38.28125 53.609375 
Q 42.625 51.21875 45.40625 46.390625 
L 45.40625 54.6875 
L 54.390625 54.6875 
z
" id="DejaVuSans-67"/>
      <path d="M 8.59375 75.984375 
L 29.296875 75.984375 
L 29.296875 69 
L 17.578125 69 
L 17.578125 -6.203125 
L 29.296875 -6.203125 
L 29.296875 -13.1875 
L 8.59375 -13.1875 
z
" id="DejaVuSans-5b"/>
      <path d="M 9.8125 72.90625 
L 24.515625 72.90625 
L 43.109375 23.296875 
L 61.8125 72.90625 
L 76.515625 72.90625 
L 76.515625 0 
L 66.890625 0 
L 66.890625 64.015625 
L 48.09375 14.015625 
L 38.1875 14.015625 
L 19.390625 64.015625 
L 19.390625 0 
L 9.8125 0 
z
" id="DejaVuSans-4d"/>
      <path d="M 28.609375 0 
L 0.78125 72.90625 
L 11.078125 72.90625 
L 34.1875 11.53125 
L 57.328125 72.90625 
L 67.578125 72.90625 
L 39.796875 0 
z
" id="DejaVuSans-56"/>
      <path d="M 30.421875 75.984375 
L 30.421875 -13.1875 
L 9.71875 -13.1875 
L 9.71875 -6.203125 
L 21.390625 -6.203125 
L 21.390625 69 
L 9.71875 69 
L 9.71875 75.984375 
z
" id="DejaVuSans-5d"/>
     </defs>
     <g transform="translate(475.674562 468.483875)scale(0.12 -0.12)">
      <use xlink:href="#DejaVuSans-45"/>
      <use x="63.183594" xlink:href="#DejaVuSans-6e"/>
      <use x="126.5625" xlink:href="#DejaVuSans-65"/>
      <use x="188.085938" xlink:href="#DejaVuSans-72"/>
      <use x="229.183594" xlink:href="#DejaVuSans-67"/>
      <use x="292.660156" xlink:href="#DejaVuSans-79"/>
      <use x="351.839844" xlink:href="#DejaVuSans-20"/>
      <use x="383.626953" xlink:href="#DejaVuSans-5b"/>
      <use x="422.640625" xlink:href="#DejaVuSans-4d"/>
      <use x="508.919922" xlink:href="#DejaVuSans-65"/>
      <use x="570.443359" xlink:href="#DejaVuSans-56"/>
      <use x="638.851562" xlink:href="#DejaVuSans-5d"/>
     </g>
    </g>
   </g>
   <g id="matplotlib.axis_4">
    <g id="ytick_4">
     <g id="line2d_18">
      <g>
       <use style="stroke:#000000;stroke-width:0.8;" x="147.528" xlink:href="#mdbde022c04" y="436.660351"/>
      </g>
     </g>
     <g id="text_12">
      <!-- 50 -->
      <g transform="translate(125.258 441.219414)scale(0.12 -0.12)">
       <use xlink:href="#DejaVuSans-35"/>
       <use x="63.623047" xlink:href="#DejaVuSans-30"/>
      </g>
     </g>
    </g>
    <g id="ytick_5">
     <g id="line2d_19">
      <g>
       <use style="stroke:#000000;stroke-width:0.8;" x="147.528" xlink:href="#mdbde022c04" y="398.473382"/>
      </g>
     </g>
     <g id="text_13">
      <!-- 100 -->
      <g transform="translate(117.623 403.032445)scale(0.12 -0.12)">
       <use xlink:href="#DejaVuSans-31"/>
       <use x="63.623047" xlink:href="#DejaVuSans-30"/>
       <use x="127.246094" xlink:href="#DejaVuSans-30"/>
      </g>
     </g>
    </g>
    <g id="ytick_6">
     <g id="line2d_20">
      <g>
       <use style="stroke:#000000;stroke-width:0.8;" x="147.528" xlink:href="#mdbde022c04" y="360.286414"/>
      </g>
     </g>
     <g id="text_14">
      <!-- 150 -->
      <g transform="translate(117.623 364.845476)scale(0.12 -0.12)">
       <use xlink:href="#DejaVuSans-31"/>
       <use x="63.623047" xlink:href="#DejaVuSans-35"/>
       <use x="127.246094" xlink:href="#DejaVuSans-30"/>
      </g>
     </g>
    </g>
    <g id="ytick_7">
     <g id="line2d_21">
      <g>
       <use style="stroke:#000000;stroke-width:0.8;" x="147.528" xlink:href="#mdbde022c04" y="322.099445"/>
      </g>
     </g>
     <g id="text_15">
      <!-- 200 -->
      <g transform="translate(117.623 326.658507)scale(0.12 -0.12)">
       <use xlink:href="#DejaVuSans-32"/>
       <use x="63.623047" xlink:href="#DejaVuSans-30"/>
       <use x="127.246094" xlink:href="#DejaVuSans-30"/>
      </g>
     </g>
    </g>
    <g id="ytick_8">
     <g id="line2d_22">
      <g>
       <use style="stroke:#000000;stroke-width:0.8;" x="147.528" xlink:href="#mdbde022c04" y="283.912476"/>
      </g>
     </g>
     <g id="text_16">
      <!-- 250 -->
      <g transform="translate(117.623 288.471538)scale(0.12 -0.12)">
       <use xlink:href="#DejaVuSans-32"/>
       <use x="63.623047" xlink:href="#DejaVuSans-35"/>
       <use x="127.246094" xlink:href="#DejaVuSans-30"/>
      </g>
     </g>
    </g>
    <g id="ytick_9">
     <g id="line2d_23">
      <g>
       <use style="stroke:#000000;stroke-width:0.8;" x="147.528" xlink:href="#mdbde022c04" y="245.725507"/>
      </g>
     </g>
     <g id="text_17">
      <!-- 300 -->
      <g transform="translate(117.623 250.28457)scale(0.12 -0.12)">
       <use xlink:href="#DejaVuSans-33"/>
       <use x="63.623047" xlink:href="#DejaVuSans-30"/>
       <use x="127.246094" xlink:href="#DejaVuSans-30"/>
      </g>
     </g>
    </g>
    <g id="ytick_10">
     <g id="line2d_24">
      <g>
       <use style="stroke:#000000;stroke-width:0.8;" x="147.528" xlink:href="#mdbde022c04" y="207.538538"/>
      </g>
     </g>
     <g id="text_18">
      <!-- 350 -->
      <g transform="translate(117.623 212.097601)scale(0.12 -0.12)">
       <use xlink:href="#DejaVuSans-33"/>
       <use x="63.623047" xlink:href="#DejaVuSans-35"/>
       <use x="127.246094" xlink:href="#DejaVuSans-30"/>
      </g>
     </g>
    </g>
    <g id="ytick_11">
     <g id="line2d_25">
      <g>
       <use style="stroke:#000000;stroke-width:0.8;" x="147.528" xlink:href="#mdbde022c04" y="169.351569"/>
      </g>
     </g>
     <g id="text_19">
      <!-- 400 -->
      <g transform="translate(117.623 173.910632)scale(0.12 -0.12)">
       <use xlink:href="#DejaVuSans-34"/>
       <use x="63.623047" xlink:href="#DejaVuSans-30"/>
       <use x="127.246094" xlink:href="#DejaVuSans-30"/>
      </g>
     </g>
    </g>
    <g id="text_20">
     <!-- Counts -->
     <defs>
      <path d="M 64.40625 67.28125 
L 64.40625 56.890625 
Q 59.421875 61.53125 53.78125 63.8125 
Q 48.140625 66.109375 41.796875 66.109375 
Q 29.296875 66.109375 22.65625 58.46875 
Q 16.015625 50.828125 16.015625 36.375 
Q 16.015625 21.96875 22.65625 14.328125 
Q 29.296875 6.6875 41.796875 6.6875 
Q 48.140625 6.6875 53.78125 8.984375 
Q 59.421875 11.28125 64.40625 15.921875 
L 64.40625 5.609375 
Q 59.234375 2.09375 53.4375 0.328125 
Q 47.65625 -1.421875 41.21875 -1.421875 
Q 24.65625 -1.421875 15.125 8.703125 
Q 5.609375 18.84375 5.609375 36.375 
Q 5.609375 53.953125 15.125 64.078125 
Q 24.65625 74.21875 41.21875 74.21875 
Q 47.75 74.21875 53.53125 72.484375 
Q 59.328125 70.75 64.40625 67.28125 
z
" id="DejaVuSans-43"/>
     </defs>
     <g transform="translate(111.127375 312.11175)rotate(-90)scale(0.12 -0.12)">
      <use xlink:href="#DejaVuSans-43"/>
      <use x="69.824219" xlink:href="#DejaVuSans-6f"/>
      <use x="131.005859" xlink:href="#DejaVuSans-75"/>
      <use x="194.384766" xlink:href="#DejaVuSans-6e"/>
      <use x="257.763672" xlink:href="#DejaVuSans-74"/>
      <use x="296.972656" xlink:href="#DejaVuSans-73"/>
     </g>
    </g>
   </g>
   <g id="LineCollection_2">
    <path clip-path="url(#p488b11ae28)" d="M 174.848 432.077915 
L 174.848 419.858085 
" style="fill:none;stroke:#0000ff;stroke-width:1.5;"/>
    <path clip-path="url(#p488b11ae28)" d="M 197.119739 427.416377 
L 197.119739 414.591012 
" style="fill:none;stroke:#0000ff;stroke-width:1.5;"/>
    <path clip-path="url(#p488b11ae28)" d="M 204.543652 428.134474 
L 204.543652 415.400393 
" style="fill:none;stroke:#0000ff;stroke-width:1.5;"/>
    <path clip-path="url(#p488b11ae28)" d="M 211.967565 423.101249 
L 211.967565 409.741266 
" style="fill:none;stroke:#0000ff;stroke-width:1.5;"/>
    <path clip-path="url(#p488b11ae28)" d="M 219.391478 424.540829 
L 219.391478 411.356644 
" style="fill:none;stroke:#0000ff;stroke-width:1.5;"/>
    <path clip-path="url(#p488b11ae28)" d="M 226.815391 420.939752 
L 226.815391 407.320328 
" style="fill:none;stroke:#0000ff;stroke-width:1.5;"/>
    <path clip-path="url(#p488b11ae28)" d="M 234.239304 406.110776 
L 234.239304 390.835989 
" style="fill:none;stroke:#0000ff;stroke-width:1.5;"/>
    <path clip-path="url(#p488b11ae28)" d="M 241.663217 409.73609 
L 241.663217 394.848069 
" style="fill:none;stroke:#0000ff;stroke-width:1.5;"/>
    <path clip-path="url(#p488b11ae28)" d="M 249.08713 403.207069 
L 249.08713 387.629781 
" style="fill:none;stroke:#0000ff;stroke-width:1.5;"/>
    <path clip-path="url(#p488b11ae28)" d="M 256.511043 386.824235 
L 256.511043 369.644343 
" style="fill:none;stroke:#0000ff;stroke-width:1.5;"/>
    <path clip-path="url(#p488b11ae28)" d="M 263.934957 395.207484 
L 263.934957 378.827099 
" style="fill:none;stroke:#0000ff;stroke-width:1.5;"/>
    <path clip-path="url(#p488b11ae28)" d="M 271.35887 383.90403 
L 271.35887 366.454633 
" style="fill:none;stroke:#0000ff;stroke-width:1.5;"/>
    <path clip-path="url(#p488b11ae28)" d="M 278.782783 388.648279 
L 278.782783 371.638996 
" style="fill:none;stroke:#0000ff;stroke-width:1.5;"/>
    <path clip-path="url(#p488b11ae28)" d="M 286.206696 379.88542 
L 286.206696 362.07211 
" style="fill:none;stroke:#0000ff;stroke-width:1.5;"/>
    <path clip-path="url(#p488b11ae28)" d="M 293.630609 371.83748 
L 293.630609 353.317784 
" style="fill:none;stroke:#0000ff;stroke-width:1.5;"/>
    <path clip-path="url(#p488b11ae28)" d="M 301.054522 364.509865 
L 301.054522 345.370611 
" style="fill:none;stroke:#0000ff;stroke-width:1.5;"/>
    <path clip-path="url(#p488b11ae28)" d="M 308.478435 359.007727 
L 308.478435 339.416658 
" style="fill:none;stroke:#0000ff;stroke-width:1.5;"/>
    <path clip-path="url(#p488b11ae28)" d="M 315.902348 364.509865 
L 315.902348 345.370611 
" style="fill:none;stroke:#0000ff;stroke-width:1.5;"/>
    <path clip-path="url(#p488b11ae28)" d="M 323.326261 348.356108 
L 323.326261 327.919835 
" style="fill:none;stroke:#0000ff;stroke-width:1.5;"/>
    <path clip-path="url(#p488b11ae28)" d="M 330.750174 339.896232 
L 330.750174 318.813705 
" style="fill:none;stroke:#0000ff;stroke-width:1.5;"/>
    <path clip-path="url(#p488b11ae28)" d="M 338.174087 340.632268 
L 338.174087 319.605148 
" style="fill:none;stroke:#0000ff;stroke-width:1.5;"/>
    <path clip-path="url(#p488b11ae28)" d="M 345.598 335.110256 
L 345.598 313.67107 
" style="fill:none;stroke:#0000ff;stroke-width:1.5;"/>
    <path clip-path="url(#p488b11ae28)" d="M 353.021913 317.41472 
L 353.021913 294.707116 
" style="fill:none;stroke:#0000ff;stroke-width:1.5;"/>
    <path clip-path="url(#p488b11ae28)" d="M 360.445826 317.783739 
L 360.445826 295.101836 
" style="fill:none;stroke:#0000ff;stroke-width:1.5;"/>
    <path clip-path="url(#p488b11ae28)" d="M 367.869739 298.946217 
L 367.869739 274.988649 
" style="fill:none;stroke:#0000ff;stroke-width:1.5;"/>
    <path clip-path="url(#p488b11ae28)" d="M 375.293652 299.315907 
L 375.293652 275.382699 
" style="fill:none;stroke:#0000ff;stroke-width:1.5;"/>
    <path clip-path="url(#p488b11ae28)" d="M 382.717565 293.029521 
L 382.717565 268.685516 
" style="fill:none;stroke:#0000ff;stroke-width:1.5;"/>
    <path clip-path="url(#p488b11ae28)" d="M 390.141478 278.965516 
L 390.141478 253.727425 
" style="fill:none;stroke:#0000ff;stroke-width:1.5;"/>
    <path clip-path="url(#p488b11ae28)" d="M 397.565391 258.212151 
L 397.565391 231.711385 
" style="fill:none;stroke:#0000ff;stroke-width:1.5;"/>
    <path clip-path="url(#p488b11ae28)" d="M 404.989304 251.535133 
L 404.989304 224.641094 
" style="fill:none;stroke:#0000ff;stroke-width:1.5;"/>
    <path clip-path="url(#p488b11ae28)" d="M 412.413217 250.422017 
L 412.413217 223.462991 
" style="fill:none;stroke:#0000ff;stroke-width:1.5;"/>
    <path clip-path="url(#p488b11ae28)" d="M 419.83713 254.503054 
L 419.83713 227.783088 
" style="fill:none;stroke:#0000ff;stroke-width:1.5;"/>
    <path clip-path="url(#p488b11ae28)" d="M 427.261043 236.315977 
L 427.261043 208.546935 
" style="fill:none;stroke:#0000ff;stroke-width:1.5;"/>
    <path clip-path="url(#p488b11ae28)" d="M 434.684957 241.885579 
L 434.684957 214.433424 
" style="fill:none;stroke:#0000ff;stroke-width:1.5;"/>
    <path clip-path="url(#p488b11ae28)" d="M 442.10887 231.859006 
L 442.10887 203.839033 
" style="fill:none;stroke:#0000ff;stroke-width:1.5;"/>
    <path clip-path="url(#p488b11ae28)" d="M 449.532783 208.442291 
L 449.532783 179.140168 
" style="fill:none;stroke:#0000ff;stroke-width:1.5;"/>
    <path clip-path="url(#p488b11ae28)" d="M 456.956696 230.3731 
L 456.956696 202.269982 
" style="fill:none;stroke:#0000ff;stroke-width:1.5;"/>
    <path clip-path="url(#p488b11ae28)" d="M 464.380609 212.161116 
L 464.380609 183.058737 
" style="fill:none;stroke:#0000ff;stroke-width:1.5;"/>
    <path clip-path="url(#p488b11ae28)" d="M 471.804522 202.49077 
L 471.804522 172.871858 
" style="fill:none;stroke:#0000ff;stroke-width:1.5;"/>
    <path clip-path="url(#p488b11ae28)" d="M 479.228435 189.093799 
L 479.228435 158.774212 
" style="fill:none;stroke:#0000ff;stroke-width:1.5;"/>
    <path clip-path="url(#p488b11ae28)" d="M 486.652348 201.374672 
L 486.652348 171.696739 
" style="fill:none;stroke:#0000ff;stroke-width:1.5;"/>
    <path clip-path="url(#p488b11ae28)" d="M 494.076261 198.026027 
L 494.076261 168.171729 
" style="fill:none;stroke:#0000ff;stroke-width:1.5;"/>
    <path clip-path="url(#p488b11ae28)" d="M 501.500174 184.626357 
L 501.500174 154.076782 
" style="fill:none;stroke:#0000ff;stroke-width:1.5;"/>
    <path clip-path="url(#p488b11ae28)" d="M 508.924087 186.115601 
L 508.924087 155.642495 
" style="fill:none;stroke:#0000ff;stroke-width:1.5;"/>
    <path clip-path="url(#p488b11ae28)" d="M 516.348 171.963999 
L 516.348 140.772001 
" style="fill:none;stroke:#0000ff;stroke-width:1.5;"/>
    <path clip-path="url(#p488b11ae28)" d="M 523.771913 178.296014 
L 523.771913 147.423556 
" style="fill:none;stroke:#0000ff;stroke-width:1.5;"/>
    <path clip-path="url(#p488b11ae28)" d="M 531.195826 174.571498 
L 531.195826 143.510677 
" style="fill:none;stroke:#0000ff;stroke-width:1.5;"/>
    <path clip-path="url(#p488b11ae28)" d="M 538.619739 187.97702 
L 538.619739 157.599773 
" style="fill:none;stroke:#0000ff;stroke-width:1.5;"/>
    <path clip-path="url(#p488b11ae28)" d="M 546.043652 179.040848 
L 546.043652 148.2062 
" style="fill:none;stroke:#0000ff;stroke-width:1.5;"/>
    <path clip-path="url(#p488b11ae28)" d="M 553.467565 195.421167 
L 553.467565 165.430414 
" style="fill:none;stroke:#0000ff;stroke-width:1.5;"/>
    <path clip-path="url(#p488b11ae28)" d="M 560.891478 186.860187 
L 560.891478 156.425388 
" style="fill:none;stroke:#0000ff;stroke-width:1.5;"/>
    <path clip-path="url(#p488b11ae28)" d="M 568.315391 186.487897 
L 568.315391 156.033939 
" style="fill:none;stroke:#0000ff;stroke-width:1.5;"/>
    <path clip-path="url(#p488b11ae28)" d="M 575.739304 184.998677 
L 575.739304 154.468201 
" style="fill:none;stroke:#0000ff;stroke-width:1.5;"/>
    <path clip-path="url(#p488b11ae28)" d="M 583.163217 195.793309 
L 583.163217 165.822011 
" style="fill:none;stroke:#0000ff;stroke-width:1.5;"/>
    <path clip-path="url(#p488b11ae28)" d="M 590.58713 195.421167 
L 590.58713 165.430414 
" style="fill:none;stroke:#0000ff;stroke-width:1.5;"/>
    <path clip-path="url(#p488b11ae28)" d="M 598.011043 216.994554 
L 598.011043 188.153911 
" style="fill:none;stroke:#0000ff;stroke-width:1.5;"/>
    <path clip-path="url(#p488b11ae28)" d="M 605.434957 206.210671 
L 605.434957 176.789352 
" style="fill:none;stroke:#0000ff;stroke-width:1.5;"/>
    <path clip-path="url(#p488b11ae28)" d="M 612.85887 231.859006 
L 612.85887 203.839033 
" style="fill:none;stroke:#0000ff;stroke-width:1.5;"/>
    <path clip-path="url(#p488b11ae28)" d="M 620.282783 221.455126 
L 620.282783 192.858211 
" style="fill:none;stroke:#0000ff;stroke-width:1.5;"/>
    <path clip-path="url(#p488b11ae28)" d="M 627.706696 210.301789 
L 627.706696 181.099367 
" style="fill:none;stroke:#0000ff;stroke-width:1.5;"/>
    <path clip-path="url(#p488b11ae28)" d="M 635.130609 227.77247 
L 635.130609 199.524436 
" style="fill:none;stroke:#0000ff;stroke-width:1.5;"/>
    <path clip-path="url(#p488b11ae28)" d="M 642.554522 242.999279 
L 642.554522 215.610942 
" style="fill:none;stroke:#0000ff;stroke-width:1.5;"/>
    <path clip-path="url(#p488b11ae28)" d="M 649.978435 245.226456 
L 649.978435 217.966202 
" style="fill:none;stroke:#0000ff;stroke-width:1.5;"/>
    <path clip-path="url(#p488b11ae28)" d="M 657.402348 255.986801 
L 657.402348 229.354299 
" style="fill:none;stroke:#0000ff;stroke-width:1.5;"/>
    <path clip-path="url(#p488b11ae28)" d="M 664.826261 258.58301 
L 664.826261 232.104264 
" style="fill:none;stroke:#0000ff;stroke-width:1.5;"/>
    <path clip-path="url(#p488b11ae28)" d="M 672.250174 261.920334 
L 672.250174 235.640596 
" style="fill:none;stroke:#0000ff;stroke-width:1.5;"/>
    <path clip-path="url(#p488b11ae28)" d="M 679.674087 302.642554 
L 679.674087 278.929707 
" style="fill:none;stroke:#0000ff;stroke-width:1.5;"/>
    <path clip-path="url(#p488b11ae28)" d="M 687.098 277.854527 
L 687.098 252.547195 
" style="fill:none;stroke:#0000ff;stroke-width:1.5;"/>
    <path clip-path="url(#p488b11ae28)" d="M 694.521913 285.259297 
L 694.521913 260.417213 
" style="fill:none;stroke:#0000ff;stroke-width:1.5;"/>
    <path clip-path="url(#p488b11ae28)" d="M 701.945826 304.490246 
L 701.945826 280.900712 
" style="fill:none;stroke:#0000ff;stroke-width:1.5;"/>
    <path clip-path="url(#p488b11ae28)" d="M 709.369739 310.769945 
L 709.369739 287.604582 
" style="fill:none;stroke:#0000ff;stroke-width:1.5;"/>
    <path clip-path="url(#p488b11ae28)" d="M 716.793652 321.104245 
L 716.793652 298.654984 
" style="fill:none;stroke:#0000ff;stroke-width:1.5;"/>
    <path clip-path="url(#p488b11ae28)" d="M 724.217565 322.948447 
L 724.217565 300.629479 
" style="fill:none;stroke:#0000ff;stroke-width:1.5;"/>
    <path clip-path="url(#p488b11ae28)" d="M 731.641478 339.160124 
L 731.641478 318.022335 
" style="fill:none;stroke:#0000ff;stroke-width:1.5;"/>
    <path clip-path="url(#p488b11ae28)" d="M 739.065391 341.000258 
L 739.065391 320.000897 
" style="fill:none;stroke:#0000ff;stroke-width:1.5;"/>
    <path clip-path="url(#p488b11ae28)" d="M 746.489304 346.517868 
L 746.489304 325.939378 
" style="fill:none;stroke:#0000ff;stroke-width:1.5;"/>
    <path clip-path="url(#p488b11ae28)" d="M 753.913217 368.541316 
L 753.913217 349.740293 
" style="fill:none;stroke:#0000ff;stroke-width:1.5;"/>
    <path clip-path="url(#p488b11ae28)" d="M 761.33713 369.640272 
L 761.33713 350.932555 
" style="fill:none;stroke:#0000ff;stroke-width:1.5;"/>
    <path clip-path="url(#p488b11ae28)" d="M 768.761043 377.326212 
L 768.761043 359.285142 
" style="fill:none;stroke:#0000ff;stroke-width:1.5;"/>
    <path clip-path="url(#p488b11ae28)" d="M 776.184957 375.497334 
L 776.184957 357.295324 
" style="fill:none;stroke:#0000ff;stroke-width:1.5;"/>
    <path clip-path="url(#p488b11ae28)" d="M 783.60887 374.033722 
L 783.60887 355.703977 
" style="fill:none;stroke:#0000ff;stroke-width:1.5;"/>
    <path clip-path="url(#p488b11ae28)" d="M 791.032783 399.936962 
L 791.032783 384.026234 
" style="fill:none;stroke:#0000ff;stroke-width:1.5;"/>
    <path clip-path="url(#p488b11ae28)" d="M 798.456696 397.02732 
L 798.456696 380.825961 
" style="fill:none;stroke:#0000ff;stroke-width:1.5;"/>
    <path clip-path="url(#p488b11ae28)" d="M 805.880609 409.73609 
L 805.880609 394.848069 
" style="fill:none;stroke:#0000ff;stroke-width:1.5;"/>
    <path clip-path="url(#p488b11ae28)" d="M 813.304522 405.747976 
L 813.304522 390.435049 
" style="fill:none;stroke:#0000ff;stroke-width:1.5;"/>
    <path clip-path="url(#p488b11ae28)" d="M 820.728435 414.079618 
L 820.728435 399.669413 
" style="fill:none;stroke:#0000ff;stroke-width:1.5;"/>
    <path clip-path="url(#p488b11ae28)" d="M 828.152348 430.286758 
L 828.152348 417.830545 
" style="fill:none;stroke:#0000ff;stroke-width:1.5;"/>
    <path clip-path="url(#p488b11ae28)" d="M 835.576261 422.020812 
L 835.576261 408.530485 
" style="fill:none;stroke:#0000ff;stroke-width:1.5;"/>
    <path clip-path="url(#p488b11ae28)" d="M 843.000174 431.003492 
L 843.000174 418.64129 
" style="fill:none;stroke:#0000ff;stroke-width:1.5;"/>
    <path clip-path="url(#p488b11ae28)" d="M 850.424087 430.286758 
L 850.424087 417.830545 
" style="fill:none;stroke:#0000ff;stroke-width:1.5;"/>
    <path clip-path="url(#p488b11ae28)" d="M 857.848 427.775466 
L 857.848 414.995662 
" style="fill:none;stroke:#0000ff;stroke-width:1.5;"/>
   </g>
   <g id="line2d_26">
    <path clip-path="url(#p488b11ae28)" d="M 174.848 474.847269 
L 317.054206 474.73779 
L 344.401554 474.49152 
L 362.177329 474.120501 
L 375.851003 473.622518 
L 387.473626 472.974435 
L 397.045197 472.22461 
L 405.933085 471.299442 
L 413.453606 470.30206 
L 420.290442 469.189742 
L 427.127279 467.84736 
L 433.280432 466.412317 
L 439.433586 464.732379 
L 444.903055 463.008604 
L 450.372525 461.044195 
L 455.15831 459.109392 
L 459.944096 456.956084 
L 464.729882 454.567889 
L 469.515668 451.928417 
L 474.301453 449.021476 
L 479.087239 445.831297 
L 483.873025 442.342791 
L 488.658811 438.541812 
L 493.444597 434.415453 
L 498.230382 429.952347 
L 503.016168 425.142983 
L 507.801954 419.980031 
L 512.58774 414.458665 
L 517.373526 408.57688 
L 522.159311 402.335803 
L 526.945097 395.739981 
L 531.730883 388.797651 
L 537.200352 380.455048 
L 542.669822 371.700631 
L 548.822975 361.399864 
L 554.976128 350.675605 
L 562.496649 337.094538 
L 572.06822 319.282995 
L 593.946098 278.316208 
L 600.782935 266.070473 
L 606.252404 256.6717 
L 611.721874 247.724004 
L 616.50766 240.334447 
L 620.609762 234.373081 
L 624.711864 228.792451 
L 628.813966 223.625763 
L 632.232384 219.658995 
L 635.650803 216.018288 
L 639.069221 212.719291 
L 642.48764 209.776316 
L 645.222374 207.686973 
L 647.957109 205.839641 
L 650.691844 204.239551 
L 653.426579 202.891255 
L 656.161313 201.798603 
L 658.896048 200.964724 
L 661.630783 200.392011 
L 664.365518 200.082112 
L 667.100252 200.035919 
L 669.834987 200.253564 
L 672.569722 200.734421 
L 675.304456 201.477106 
L 678.039191 202.479487 
L 680.773926 203.73869 
L 683.508661 205.251116 
L 686.243395 207.012456 
L 688.97813 209.017714 
L 691.712865 211.261229 
L 695.131283 214.391014 
L 698.549702 217.869553 
L 701.96812 221.681825 
L 705.386539 225.811532 
L 709.488641 231.161532 
L 713.590743 236.91131 
L 717.692845 243.026904 
L 722.478631 250.576732 
L 727.9481 259.680819 
L 734.101253 270.422772 
L 740.93809 282.828571 
L 750.509662 300.707155 
L 769.652805 336.592174 
L 777.173325 350.189825 
L 784.010162 362.100104 
L 790.163315 372.370496 
L 795.632785 381.095061 
L 801.102254 389.405707 
L 806.571724 397.27822 
L 811.35751 403.793562 
L 816.143295 409.952804 
L 820.929081 415.752204 
L 825.714867 421.191379 
L 830.500653 426.273004 
L 835.286438 431.002508 
L 840.072224 435.387747 
L 844.85801 439.438685 
L 849.643796 443.167068 
L 854.429582 446.586112 
L 857.848 448.846826 
L 857.848 448.846826 
" style="fill:none;stroke:#404040;stroke-linecap:square;stroke-width:1.5;"/>
   </g>
   <g id="line2d_27">
    <path clip-path="url(#p488b11ae28)" d="M 174.848 433.803978 
L 183.052204 431.183955 
L 190.572725 428.552563 
L 198.093245 425.689103 
L 205.613766 422.58197 
L 213.134286 419.220096 
L 220.654807 415.593112 
L 227.491644 412.057796 
L 234.32848 408.289156 
L 241.165317 404.281662 
L 248.002154 400.030751 
L 254.838991 395.532944 
L 261.675828 390.785967 
L 268.512665 385.78887 
L 276.033185 380.003803 
L 283.553706 373.919531 
L 291.074226 367.541302 
L 298.594747 360.876938 
L 306.798951 353.29283 
L 315.003155 345.398257 
L 323.891043 336.520581 
L 333.462615 326.618847 
L 343.71787 315.671492 
L 355.340492 302.927819 
L 371.065217 285.319202 
L 399.096248 253.872254 
L 410.035187 241.958659 
L 419.606759 231.86433 
L 427.810963 223.531576 
L 435.331483 216.20527 
L 442.16832 209.842634 
L 449.005157 203.797213 
L 455.15831 198.6537 
L 461.311463 193.814895 
L 466.780933 189.786645 
L 472.250402 186.029936 
L 477.719872 182.558026 
L 482.505658 179.76348 
L 487.291443 177.204155 
L 492.077229 174.88714 
L 496.863015 172.818889 
L 501.648801 171.005194 
L 506.434587 169.451158 
L 511.220372 168.161172 
L 515.322474 167.268424 
L 519.424577 166.574235 
L 523.526679 166.080056 
L 527.628781 165.786923 
L 531.730883 165.695451 
L 535.832985 165.805831 
L 539.935087 166.117833 
L 544.037189 166.630801 
L 548.139291 167.343662 
L 552.241393 168.254924 
L 557.027179 169.56626 
L 561.812965 171.141319 
L 566.598751 172.975655 
L 571.384537 175.064106 
L 576.170322 177.400827 
L 580.956108 179.979311 
L 585.741894 182.792422 
L 591.211363 186.284758 
L 596.680833 190.060991 
L 602.150302 194.107801 
L 607.619772 198.411062 
L 613.772925 203.540255 
L 619.926078 208.953108 
L 626.762915 215.272121 
L 634.283435 222.555927 
L 641.803956 230.145442 
L 650.691844 239.44735 
L 660.947099 250.534907 
L 673.253405 264.187707 
L 719.060212 315.347336 
L 729.315467 326.303953 
L 738.887039 336.216041 
L 747.774927 345.104593 
L 755.979131 353.01011 
L 764.183335 360.605879 
L 771.703856 367.281433 
L 779.224376 373.671219 
L 786.744897 379.767308 
L 794.265417 385.564355 
L 801.785938 391.059447 
L 808.622775 395.792379 
L 815.459612 400.276235 
L 822.296448 404.513359 
L 829.133285 408.507296 
L 835.970122 412.262665 
L 842.806959 415.785046 
L 850.327479 419.398244 
L 857.848 422.746842 
L 857.848 422.746842 
" style="fill:none;stroke:#ff0000;stroke-linecap:square;stroke-width:1.5;"/>
   </g>
   <g id="line2d_28">
    <g clip-path="url(#p488b11ae28)">
     <use style="fill:#0000ff;stroke:#0000ff;" x="174.848" xlink:href="#md8f655c491" y="425.968"/>
     <use style="fill:#0000ff;stroke:#0000ff;" x="197.119739" xlink:href="#md8f655c491" y="421.003694"/>
     <use style="fill:#0000ff;stroke:#0000ff;" x="204.543652" xlink:href="#md8f655c491" y="421.767433"/>
     <use style="fill:#0000ff;stroke:#0000ff;" x="211.967565" xlink:href="#md8f655c491" y="416.421258"/>
     <use style="fill:#0000ff;stroke:#0000ff;" x="219.391478" xlink:href="#md8f655c491" y="417.948737"/>
     <use style="fill:#0000ff;stroke:#0000ff;" x="226.815391" xlink:href="#md8f655c491" y="414.13004"/>
     <use style="fill:#0000ff;stroke:#0000ff;" x="234.239304" xlink:href="#md8f655c491" y="398.473382"/>
     <use style="fill:#0000ff;stroke:#0000ff;" x="241.663217" xlink:href="#md8f655c491" y="402.292079"/>
     <use style="fill:#0000ff;stroke:#0000ff;" x="249.08713" xlink:href="#md8f655c491" y="395.418425"/>
     <use style="fill:#0000ff;stroke:#0000ff;" x="256.511043" xlink:href="#md8f655c491" y="378.234289"/>
     <use style="fill:#0000ff;stroke:#0000ff;" x="263.934957" xlink:href="#md8f655c491" y="387.017292"/>
     <use style="fill:#0000ff;stroke:#0000ff;" x="271.35887" xlink:href="#md8f655c491" y="375.179331"/>
     <use style="fill:#0000ff;stroke:#0000ff;" x="278.782783" xlink:href="#md8f655c491" y="380.143637"/>
     <use style="fill:#0000ff;stroke:#0000ff;" x="286.206696" xlink:href="#md8f655c491" y="370.978765"/>
     <use style="fill:#0000ff;stroke:#0000ff;" x="293.630609" xlink:href="#md8f655c491" y="362.577632"/>
     <use style="fill:#0000ff;stroke:#0000ff;" x="301.054522" xlink:href="#md8f655c491" y="354.940238"/>
     <use style="fill:#0000ff;stroke:#0000ff;" x="308.478435" xlink:href="#md8f655c491" y="349.212193"/>
     <use style="fill:#0000ff;stroke:#0000ff;" x="315.902348" xlink:href="#md8f655c491" y="354.940238"/>
     <use style="fill:#0000ff;stroke:#0000ff;" x="323.326261" xlink:href="#md8f655c491" y="338.137972"/>
     <use style="fill:#0000ff;stroke:#0000ff;" x="330.750174" xlink:href="#md8f655c491" y="329.354969"/>
     <use style="fill:#0000ff;stroke:#0000ff;" x="338.174087" xlink:href="#md8f655c491" y="330.118708"/>
     <use style="fill:#0000ff;stroke:#0000ff;" x="345.598" xlink:href="#md8f655c491" y="324.390663"/>
     <use style="fill:#0000ff;stroke:#0000ff;" x="353.021913" xlink:href="#md8f655c491" y="306.060918"/>
     <use style="fill:#0000ff;stroke:#0000ff;" x="360.445826" xlink:href="#md8f655c491" y="306.442788"/>
     <use style="fill:#0000ff;stroke:#0000ff;" x="367.869739" xlink:href="#md8f655c491" y="286.967433"/>
     <use style="fill:#0000ff;stroke:#0000ff;" x="375.293652" xlink:href="#md8f655c491" y="287.349303"/>
     <use style="fill:#0000ff;stroke:#0000ff;" x="382.717565" xlink:href="#md8f655c491" y="280.857518"/>
     <use style="fill:#0000ff;stroke:#0000ff;" x="390.141478" xlink:href="#md8f655c491" y="266.34647"/>
     <use style="fill:#0000ff;stroke:#0000ff;" x="397.565391" xlink:href="#md8f655c491" y="244.961768"/>
     <use style="fill:#0000ff;stroke:#0000ff;" x="404.989304" xlink:href="#md8f655c491" y="238.088113"/>
     <use style="fill:#0000ff;stroke:#0000ff;" x="412.413217" xlink:href="#md8f655c491" y="236.942504"/>
     <use style="fill:#0000ff;stroke:#0000ff;" x="419.83713" xlink:href="#md8f655c491" y="241.143071"/>
     <use style="fill:#0000ff;stroke:#0000ff;" x="427.261043" xlink:href="#md8f655c491" y="222.431456"/>
     <use style="fill:#0000ff;stroke:#0000ff;" x="434.684957" xlink:href="#md8f655c491" y="228.159501"/>
     <use style="fill:#0000ff;stroke:#0000ff;" x="442.10887" xlink:href="#md8f655c491" y="217.84902"/>
     <use style="fill:#0000ff;stroke:#0000ff;" x="449.532783" xlink:href="#md8f655c491" y="193.791229"/>
     <use style="fill:#0000ff;stroke:#0000ff;" x="456.956696" xlink:href="#md8f655c491" y="216.321541"/>
     <use style="fill:#0000ff;stroke:#0000ff;" x="464.380609" xlink:href="#md8f655c491" y="197.609926"/>
     <use style="fill:#0000ff;stroke:#0000ff;" x="471.804522" xlink:href="#md8f655c491" y="187.681314"/>
     <use style="fill:#0000ff;stroke:#0000ff;" x="479.228435" xlink:href="#md8f655c491" y="173.934006"/>
     <use style="fill:#0000ff;stroke:#0000ff;" x="486.652348" xlink:href="#md8f655c491" y="186.535705"/>
     <use style="fill:#0000ff;stroke:#0000ff;" x="494.076261" xlink:href="#md8f655c491" y="183.098878"/>
     <use style="fill:#0000ff;stroke:#0000ff;" x="501.500174" xlink:href="#md8f655c491" y="169.351569"/>
     <use style="fill:#0000ff;stroke:#0000ff;" x="508.924087" xlink:href="#md8f655c491" y="170.879048"/>
     <use style="fill:#0000ff;stroke:#0000ff;" x="516.348" xlink:href="#md8f655c491" y="156.368"/>
     <use style="fill:#0000ff;stroke:#0000ff;" x="523.771913" xlink:href="#md8f655c491" y="162.859785"/>
     <use style="fill:#0000ff;stroke:#0000ff;" x="531.195826" xlink:href="#md8f655c491" y="159.041088"/>
     <use style="fill:#0000ff;stroke:#0000ff;" x="538.619739" xlink:href="#md8f655c491" y="172.788397"/>
     <use style="fill:#0000ff;stroke:#0000ff;" x="546.043652" xlink:href="#md8f655c491" y="163.623524"/>
     <use style="fill:#0000ff;stroke:#0000ff;" x="553.467565" xlink:href="#md8f655c491" y="180.42579"/>
     <use style="fill:#0000ff;stroke:#0000ff;" x="560.891478" xlink:href="#md8f655c491" y="171.642788"/>
     <use style="fill:#0000ff;stroke:#0000ff;" x="568.315391" xlink:href="#md8f655c491" y="171.260918"/>
     <use style="fill:#0000ff;stroke:#0000ff;" x="575.739304" xlink:href="#md8f655c491" y="169.733439"/>
     <use style="fill:#0000ff;stroke:#0000ff;" x="583.163217" xlink:href="#md8f655c491" y="180.80766"/>
     <use style="fill:#0000ff;stroke:#0000ff;" x="590.58713" xlink:href="#md8f655c491" y="180.42579"/>
     <use style="fill:#0000ff;stroke:#0000ff;" x="598.011043" xlink:href="#md8f655c491" y="202.574232"/>
     <use style="fill:#0000ff;stroke:#0000ff;" x="605.434957" xlink:href="#md8f655c491" y="191.500011"/>
     <use style="fill:#0000ff;stroke:#0000ff;" x="612.85887" xlink:href="#md8f655c491" y="217.84902"/>
     <use style="fill:#0000ff;stroke:#0000ff;" x="620.282783" xlink:href="#md8f655c491" y="207.156669"/>
     <use style="fill:#0000ff;stroke:#0000ff;" x="627.706696" xlink:href="#md8f655c491" y="195.700578"/>
     <use style="fill:#0000ff;stroke:#0000ff;" x="635.130609" xlink:href="#md8f655c491" y="213.648453"/>
     <use style="fill:#0000ff;stroke:#0000ff;" x="642.554522" xlink:href="#md8f655c491" y="229.30511"/>
     <use style="fill:#0000ff;stroke:#0000ff;" x="649.978435" xlink:href="#md8f655c491" y="231.596329"/>
     <use style="fill:#0000ff;stroke:#0000ff;" x="657.402348" xlink:href="#md8f655c491" y="242.67055"/>
     <use style="fill:#0000ff;stroke:#0000ff;" x="664.826261" xlink:href="#md8f655c491" y="245.343637"/>
     <use style="fill:#0000ff;stroke:#0000ff;" x="672.250174" xlink:href="#md8f655c491" y="248.780465"/>
     <use style="fill:#0000ff;stroke:#0000ff;" x="679.674087" xlink:href="#md8f655c491" y="290.78613"/>
     <use style="fill:#0000ff;stroke:#0000ff;" x="687.098" xlink:href="#md8f655c491" y="265.200861"/>
     <use style="fill:#0000ff;stroke:#0000ff;" x="694.521913" xlink:href="#md8f655c491" y="272.838255"/>
     <use style="fill:#0000ff;stroke:#0000ff;" x="701.945826" xlink:href="#md8f655c491" y="292.695479"/>
     <use style="fill:#0000ff;stroke:#0000ff;" x="709.369739" xlink:href="#md8f655c491" y="299.187263"/>
     <use style="fill:#0000ff;stroke:#0000ff;" x="716.793652" xlink:href="#md8f655c491" y="309.879615"/>
     <use style="fill:#0000ff;stroke:#0000ff;" x="724.217565" xlink:href="#md8f655c491" y="311.788963"/>
     <use style="fill:#0000ff;stroke:#0000ff;" x="731.641478" xlink:href="#md8f655c491" y="328.591229"/>
     <use style="fill:#0000ff;stroke:#0000ff;" x="739.065391" xlink:href="#md8f655c491" y="330.500578"/>
     <use style="fill:#0000ff;stroke:#0000ff;" x="746.489304" xlink:href="#md8f655c491" y="336.228623"/>
     <use style="fill:#0000ff;stroke:#0000ff;" x="753.913217" xlink:href="#md8f655c491" y="359.140805"/>
     <use style="fill:#0000ff;stroke:#0000ff;" x="761.33713" xlink:href="#md8f655c491" y="360.286414"/>
     <use style="fill:#0000ff;stroke:#0000ff;" x="768.761043" xlink:href="#md8f655c491" y="368.305677"/>
     <use style="fill:#0000ff;stroke:#0000ff;" x="776.184957" xlink:href="#md8f655c491" y="366.396329"/>
     <use style="fill:#0000ff;stroke:#0000ff;" x="783.60887" xlink:href="#md8f655c491" y="364.86885"/>
     <use style="fill:#0000ff;stroke:#0000ff;" x="791.032783" xlink:href="#md8f655c491" y="391.981598"/>
     <use style="fill:#0000ff;stroke:#0000ff;" x="798.456696" xlink:href="#md8f655c491" y="388.92664"/>
     <use style="fill:#0000ff;stroke:#0000ff;" x="805.880609" xlink:href="#md8f655c491" y="402.292079"/>
     <use style="fill:#0000ff;stroke:#0000ff;" x="813.304522" xlink:href="#md8f655c491" y="398.091513"/>
     <use style="fill:#0000ff;stroke:#0000ff;" x="820.728435" xlink:href="#md8f655c491" y="406.874516"/>
     <use style="fill:#0000ff;stroke:#0000ff;" x="828.152348" xlink:href="#md8f655c491" y="424.058652"/>
     <use style="fill:#0000ff;stroke:#0000ff;" x="835.576261" xlink:href="#md8f655c491" y="415.275649"/>
     <use style="fill:#0000ff;stroke:#0000ff;" x="843.000174" xlink:href="#md8f655c491" y="424.822391"/>
     <use style="fill:#0000ff;stroke:#0000ff;" x="850.424087" xlink:href="#md8f655c491" y="424.058652"/>
     <use style="fill:#0000ff;stroke:#0000ff;" x="857.848" xlink:href="#md8f655c491" y="421.385564"/>
    </g>
   </g>
   <g id="patch_8">
    <path d="M 147.528 436.752 
L 147.528 145.584 
" style="fill:none;stroke:#000000;stroke-linecap:square;stroke-linejoin:miter;stroke-width:0.8;"/>
   </g>
   <g id="patch_9">
    <path d="M 885.168 436.752 
L 885.168 145.584 
" style="fill:none;stroke:#000000;stroke-linecap:square;stroke-linejoin:miter;stroke-width:0.8;"/>
   </g>
   <g id="patch_10">
    <path d="M 147.528 436.752 
L 885.168 436.752 
" style="fill:none;stroke:#000000;stroke-linecap:square;stroke-linejoin:miter;stroke-width:0.8;"/>
   </g>
   <g id="patch_11">
    <path d="M 147.528 145.584 
L 885.168 145.584 
" style="fill:none;stroke:#000000;stroke-linecap:square;stroke-linejoin:miter;stroke-width:0.8;"/>
   </g>
  </g>
 </g>
 <defs>
  <clipPath id="p6753387a14">
   <rect height="72.792" width="737.64" x="147.528" y="63.0864"/>
  </clipPath>
  <clipPath id="p488b11ae28">
   <rect height="291.168" width="737.64" x="147.528" y="145.584"/>
  </clipPath>
 </defs>
</svg>
