<?xml version="1.0" encoding="utf-8" standalone="no"?>
<!DOCTYPE svg PUBLIC "-//W3C//DTD SVG 1.1//EN"
  "http://www.w3.org/Graphics/SVG/1.1/DTD/svg11.dtd">
<!-- Created with matplotlib (http://matplotlib.org/) -->
<svg height="485pt" version="1.1" viewBox="0 0 983 485" width="983pt" xmlns="http://www.w3.org/2000/svg" xmlns:xlink="http://www.w3.org/1999/xlink">
 <defs>
  <style type="text/css">
*{stroke-linecap:butt;stroke-linejoin:round;}
  </style>
 </defs>
 <g id="figure_1">
  <g id="patch_1">
   <path d="M 0 485.28 
L 983.52 485.28 
L 983.52 0 
L 0 0 
z
" style="fill:#ffffff;"/>
  </g>
  <g id="axes_1">
   <g id="patch_2">
    <path d="M 147.528 135.8784 
L 885.168 135.8784 
L 885.168 63.0864 
L 147.528 63.0864 
z
" style="fill:#ffffff;"/>
   </g>
   <g id="matplotlib.axis_1">
    <g id="xtick_1">
     <g id="line2d_1">
      <defs>
       <path d="M 0 0 
L 0 3.5 
" id="mdbf9a633ca" style="stroke:#000000;stroke-width:0.8;"/>
      </defs>
      <g>
       <use style="stroke:#000000;stroke-width:0.8;" x="279.484881" xlink:href="#mdbf9a633ca" y="135.8784"/>
      </g>
     </g>
    </g>
    <g id="xtick_2">
     <g id="line2d_2">
      <g>
       <use style="stroke:#000000;stroke-width:0.8;" x="421.229679" xlink:href="#mdbf9a633ca" y="135.8784"/>
      </g>
     </g>
    </g>
    <g id="xtick_3">
     <g id="line2d_3">
      <g>
       <use style="stroke:#000000;stroke-width:0.8;" x="562.974476" xlink:href="#mdbf9a633ca" y="135.8784"/>
      </g>
     </g>
    </g>
    <g id="xtick_4">
     <g id="line2d_4">
      <g>
       <use style="stroke:#000000;stroke-width:0.8;" x="704.719273" xlink:href="#mdbf9a633ca" y="135.8784"/>
      </g>
     </g>
    </g>
    <g id="xtick_5">
     <g id="line2d_5">
      <g>
       <use style="stroke:#000000;stroke-width:0.8;" x="846.464071" xlink:href="#mdbf9a633ca" y="135.8784"/>
      </g>
     </g>
    </g>
   </g>
   <g id="matplotlib.axis_2">
    <g id="ytick_1">
     <g id="line2d_6">
      <defs>
       <path d="M 0 0 
L -3.5 0 
" id="mdbe1eddaa7" style="stroke:#000000;stroke-width:0.8;"/>
      </defs>
      <g>
       <use style="stroke:#000000;stroke-width:0.8;" x="147.528" xlink:href="#mdbe1eddaa7" y="129.779605"/>
      </g>
     </g>
     <g id="text_1">
      <!-- −2 -->
      <defs>
       <path d="M 10.59375 35.5 
L 73.1875 35.5 
L 73.1875 27.203125 
L 10.59375 27.203125 
z
" id="DejaVuSans-2212"/>
       <path d="M 19.1875 8.296875 
L 53.609375 8.296875 
L 53.609375 0 
L 7.328125 0 
L 7.328125 8.296875 
Q 12.9375 14.109375 22.625 23.890625 
Q 32.328125 33.6875 34.8125 36.53125 
Q 39.546875 41.84375 41.421875 45.53125 
Q 43.3125 49.21875 43.3125 52.78125 
Q 43.3125 58.59375 39.234375 62.25 
Q 35.15625 65.921875 28.609375 65.921875 
Q 23.96875 65.921875 18.8125 64.3125 
Q 13.671875 62.703125 7.8125 59.421875 
L 7.8125 69.390625 
Q 13.765625 71.78125 18.9375 73 
Q 24.125 74.21875 28.421875 74.21875 
Q 39.75 74.21875 46.484375 68.546875 
Q 53.21875 62.890625 53.21875 53.421875 
Q 53.21875 48.921875 51.53125 44.890625 
Q 49.859375 40.875 45.40625 35.40625 
Q 44.1875 33.984375 37.640625 27.21875 
Q 31.109375 20.453125 19.1875 8.296875 
z
" id="DejaVuSans-32"/>
      </defs>
      <g transform="translate(122.837375 134.338668)scale(0.12 -0.12)">
       <use xlink:href="#DejaVuSans-2212"/>
       <use x="83.789062" xlink:href="#DejaVuSans-32"/>
      </g>
     </g>
    </g>
    <g id="ytick_2">
     <g id="line2d_7">
      <g>
       <use style="stroke:#000000;stroke-width:0.8;" x="147.528" xlink:href="#mdbe1eddaa7" y="94.418576"/>
      </g>
     </g>
     <g id="text_2">
      <!-- 0 -->
      <defs>
       <path d="M 31.78125 66.40625 
Q 24.171875 66.40625 20.328125 58.90625 
Q 16.5 51.421875 16.5 36.375 
Q 16.5 21.390625 20.328125 13.890625 
Q 24.171875 6.390625 31.78125 6.390625 
Q 39.453125 6.390625 43.28125 13.890625 
Q 47.125 21.390625 47.125 36.375 
Q 47.125 51.421875 43.28125 58.90625 
Q 39.453125 66.40625 31.78125 66.40625 
z
M 31.78125 74.21875 
Q 44.046875 74.21875 50.515625 64.515625 
Q 56.984375 54.828125 56.984375 36.375 
Q 56.984375 17.96875 50.515625 8.265625 
Q 44.046875 -1.421875 31.78125 -1.421875 
Q 19.53125 -1.421875 13.0625 8.265625 
Q 6.59375 17.96875 6.59375 36.375 
Q 6.59375 54.828125 13.0625 64.515625 
Q 19.53125 74.21875 31.78125 74.21875 
z
" id="DejaVuSans-30"/>
      </defs>
      <g transform="translate(132.893 98.977639)scale(0.12 -0.12)">
       <use xlink:href="#DejaVuSans-30"/>
      </g>
     </g>
    </g>
    <g id="text_3">
     <!-- Studentized -->
     <defs>
      <path d="M 53.515625 70.515625 
L 53.515625 60.890625 
Q 47.90625 63.578125 42.921875 64.890625 
Q 37.9375 66.21875 33.296875 66.21875 
Q 25.25 66.21875 20.875 63.09375 
Q 16.5 59.96875 16.5 54.203125 
Q 16.5 49.359375 19.40625 46.890625 
Q 22.3125 44.4375 30.421875 42.921875 
L 36.375 41.703125 
Q 47.40625 39.59375 52.65625 34.296875 
Q 57.90625 29 57.90625 20.125 
Q 57.90625 9.515625 50.796875 4.046875 
Q 43.703125 -1.421875 29.984375 -1.421875 
Q 24.8125 -1.421875 18.96875 -0.25 
Q 13.140625 0.921875 6.890625 3.21875 
L 6.890625 13.375 
Q 12.890625 10.015625 18.65625 8.296875 
Q 24.421875 6.59375 29.984375 6.59375 
Q 38.421875 6.59375 43.015625 9.90625 
Q 47.609375 13.234375 47.609375 19.390625 
Q 47.609375 24.75 44.3125 27.78125 
Q 41.015625 30.8125 33.5 32.328125 
L 27.484375 33.5 
Q 16.453125 35.6875 11.515625 40.375 
Q 6.59375 45.0625 6.59375 53.421875 
Q 6.59375 63.09375 13.40625 68.65625 
Q 20.21875 74.21875 32.171875 74.21875 
Q 37.3125 74.21875 42.625 73.28125 
Q 47.953125 72.359375 53.515625 70.515625 
z
" id="DejaVuSans-53"/>
      <path d="M 18.3125 70.21875 
L 18.3125 54.6875 
L 36.8125 54.6875 
L 36.8125 47.703125 
L 18.3125 47.703125 
L 18.3125 18.015625 
Q 18.3125 11.328125 20.140625 9.421875 
Q 21.96875 7.515625 27.59375 7.515625 
L 36.8125 7.515625 
L 36.8125 0 
L 27.59375 0 
Q 17.1875 0 13.234375 3.875 
Q 9.28125 7.765625 9.28125 18.015625 
L 9.28125 47.703125 
L 2.6875 47.703125 
L 2.6875 54.6875 
L 9.28125 54.6875 
L 9.28125 70.21875 
z
" id="DejaVuSans-74"/>
      <path d="M 8.5 21.578125 
L 8.5 54.6875 
L 17.484375 54.6875 
L 17.484375 21.921875 
Q 17.484375 14.15625 20.5 10.265625 
Q 23.53125 6.390625 29.59375 6.390625 
Q 36.859375 6.390625 41.078125 11.03125 
Q 45.3125 15.671875 45.3125 23.6875 
L 45.3125 54.6875 
L 54.296875 54.6875 
L 54.296875 0 
L 45.3125 0 
L 45.3125 8.40625 
Q 42.046875 3.421875 37.71875 1 
Q 33.40625 -1.421875 27.6875 -1.421875 
Q 18.265625 -1.421875 13.375 4.4375 
Q 8.5 10.296875 8.5 21.578125 
z
M 31.109375 56 
z
" id="DejaVuSans-75"/>
      <path d="M 45.40625 46.390625 
L 45.40625 75.984375 
L 54.390625 75.984375 
L 54.390625 0 
L 45.40625 0 
L 45.40625 8.203125 
Q 42.578125 3.328125 38.25 0.953125 
Q 33.9375 -1.421875 27.875 -1.421875 
Q 17.96875 -1.421875 11.734375 6.484375 
Q 5.515625 14.40625 5.515625 27.296875 
Q 5.515625 40.1875 11.734375 48.09375 
Q 17.96875 56 27.875 56 
Q 33.9375 56 38.25 53.625 
Q 42.578125 51.265625 45.40625 46.390625 
z
M 14.796875 27.296875 
Q 14.796875 17.390625 18.875 11.75 
Q 22.953125 6.109375 30.078125 6.109375 
Q 37.203125 6.109375 41.296875 11.75 
Q 45.40625 17.390625 45.40625 27.296875 
Q 45.40625 37.203125 41.296875 42.84375 
Q 37.203125 48.484375 30.078125 48.484375 
Q 22.953125 48.484375 18.875 42.84375 
Q 14.796875 37.203125 14.796875 27.296875 
z
" id="DejaVuSans-64"/>
      <path d="M 56.203125 29.59375 
L 56.203125 25.203125 
L 14.890625 25.203125 
Q 15.484375 15.921875 20.484375 11.0625 
Q 25.484375 6.203125 34.421875 6.203125 
Q 39.59375 6.203125 44.453125 7.46875 
Q 49.3125 8.734375 54.109375 11.28125 
L 54.109375 2.78125 
Q 49.265625 0.734375 44.1875 -0.34375 
Q 39.109375 -1.421875 33.890625 -1.421875 
Q 20.796875 -1.421875 13.15625 6.1875 
Q 5.515625 13.8125 5.515625 26.8125 
Q 5.515625 40.234375 12.765625 48.109375 
Q 20.015625 56 32.328125 56 
Q 43.359375 56 49.78125 48.890625 
Q 56.203125 41.796875 56.203125 29.59375 
z
M 47.21875 32.234375 
Q 47.125 39.59375 43.09375 43.984375 
Q 39.0625 48.390625 32.421875 48.390625 
Q 24.90625 48.390625 20.390625 44.140625 
Q 15.875 39.890625 15.1875 32.171875 
z
" id="DejaVuSans-65"/>
      <path d="M 54.890625 33.015625 
L 54.890625 0 
L 45.90625 0 
L 45.90625 32.71875 
Q 45.90625 40.484375 42.875 44.328125 
Q 39.84375 48.1875 33.796875 48.1875 
Q 26.515625 48.1875 22.3125 43.546875 
Q 18.109375 38.921875 18.109375 30.90625 
L 18.109375 0 
L 9.078125 0 
L 9.078125 54.6875 
L 18.109375 54.6875 
L 18.109375 46.1875 
Q 21.34375 51.125 25.703125 53.5625 
Q 30.078125 56 35.796875 56 
Q 45.21875 56 50.046875 50.171875 
Q 54.890625 44.34375 54.890625 33.015625 
z
" id="DejaVuSans-6e"/>
      <path d="M 9.421875 54.6875 
L 18.40625 54.6875 
L 18.40625 0 
L 9.421875 0 
z
M 9.421875 75.984375 
L 18.40625 75.984375 
L 18.40625 64.59375 
L 9.421875 64.59375 
z
" id="DejaVuSans-69"/>
      <path d="M 5.515625 54.6875 
L 48.1875 54.6875 
L 48.1875 46.484375 
L 14.40625 7.171875 
L 48.1875 7.171875 
L 48.1875 0 
L 4.296875 0 
L 4.296875 8.203125 
L 38.09375 47.515625 
L 5.515625 47.515625 
z
" id="DejaVuSans-7a"/>
     </defs>
     <g transform="translate(102.904375 135.41865)rotate(-90)scale(0.12 -0.12)">
      <use xlink:href="#DejaVuSans-53"/>
      <use x="63.476562" xlink:href="#DejaVuSans-74"/>
      <use x="102.685547" xlink:href="#DejaVuSans-75"/>
      <use x="166.064453" xlink:href="#DejaVuSans-64"/>
      <use x="229.541016" xlink:href="#DejaVuSans-65"/>
      <use x="291.064453" xlink:href="#DejaVuSans-6e"/>
      <use x="354.443359" xlink:href="#DejaVuSans-74"/>
      <use x="393.652344" xlink:href="#DejaVuSans-69"/>
      <use x="421.435547" xlink:href="#DejaVuSans-7a"/>
      <use x="473.925781" xlink:href="#DejaVuSans-65"/>
      <use x="535.449219" xlink:href="#DejaVuSans-64"/>
     </g>
     <!-- Residuals -->
     <defs>
      <path d="M 44.390625 34.1875 
Q 47.5625 33.109375 50.5625 29.59375 
Q 53.5625 26.078125 56.59375 19.921875 
L 66.609375 0 
L 56 0 
L 46.6875 18.703125 
Q 43.0625 26.03125 39.671875 28.421875 
Q 36.28125 30.8125 30.421875 30.8125 
L 19.671875 30.8125 
L 19.671875 0 
L 9.8125 0 
L 9.8125 72.90625 
L 32.078125 72.90625 
Q 44.578125 72.90625 50.734375 67.671875 
Q 56.890625 62.453125 56.890625 51.90625 
Q 56.890625 45.015625 53.6875 40.46875 
Q 50.484375 35.9375 44.390625 34.1875 
z
M 19.671875 64.796875 
L 19.671875 38.921875 
L 32.078125 38.921875 
Q 39.203125 38.921875 42.84375 42.21875 
Q 46.484375 45.515625 46.484375 51.90625 
Q 46.484375 58.296875 42.84375 61.546875 
Q 39.203125 64.796875 32.078125 64.796875 
z
" id="DejaVuSans-52"/>
      <path d="M 44.28125 53.078125 
L 44.28125 44.578125 
Q 40.484375 46.53125 36.375 47.5 
Q 32.28125 48.484375 27.875 48.484375 
Q 21.1875 48.484375 17.84375 46.4375 
Q 14.5 44.390625 14.5 40.28125 
Q 14.5 37.15625 16.890625 35.375 
Q 19.28125 33.59375 26.515625 31.984375 
L 29.59375 31.296875 
Q 39.15625 29.25 43.1875 25.515625 
Q 47.21875 21.78125 47.21875 15.09375 
Q 47.21875 7.46875 41.1875 3.015625 
Q 35.15625 -1.421875 24.609375 -1.421875 
Q 20.21875 -1.421875 15.453125 -0.5625 
Q 10.6875 0.296875 5.421875 2 
L 5.421875 11.28125 
Q 10.40625 8.6875 15.234375 7.390625 
Q 20.0625 6.109375 24.8125 6.109375 
Q 31.15625 6.109375 34.5625 8.28125 
Q 37.984375 10.453125 37.984375 14.40625 
Q 37.984375 18.0625 35.515625 20.015625 
Q 33.0625 21.96875 24.703125 23.78125 
L 21.578125 24.515625 
Q 13.234375 26.265625 9.515625 29.90625 
Q 5.8125 33.546875 5.8125 39.890625 
Q 5.8125 47.609375 11.28125 51.796875 
Q 16.75 56 26.8125 56 
Q 31.78125 56 36.171875 55.265625 
Q 40.578125 54.546875 44.28125 53.078125 
z
" id="DejaVuSans-73"/>
      <path d="M 34.28125 27.484375 
Q 23.390625 27.484375 19.1875 25 
Q 14.984375 22.515625 14.984375 16.5 
Q 14.984375 11.71875 18.140625 8.90625 
Q 21.296875 6.109375 26.703125 6.109375 
Q 34.1875 6.109375 38.703125 11.40625 
Q 43.21875 16.703125 43.21875 25.484375 
L 43.21875 27.484375 
z
M 52.203125 31.203125 
L 52.203125 0 
L 43.21875 0 
L 43.21875 8.296875 
Q 40.140625 3.328125 35.546875 0.953125 
Q 30.953125 -1.421875 24.3125 -1.421875 
Q 15.921875 -1.421875 10.953125 3.296875 
Q 6 8.015625 6 15.921875 
Q 6 25.140625 12.171875 29.828125 
Q 18.359375 34.515625 30.609375 34.515625 
L 43.21875 34.515625 
L 43.21875 35.40625 
Q 43.21875 41.609375 39.140625 45 
Q 35.0625 48.390625 27.6875 48.390625 
Q 23 48.390625 18.546875 47.265625 
Q 14.109375 46.140625 10.015625 43.890625 
L 10.015625 52.203125 
Q 14.9375 54.109375 19.578125 55.046875 
Q 24.21875 56 28.609375 56 
Q 40.484375 56 46.34375 49.84375 
Q 52.203125 43.703125 52.203125 31.203125 
z
" id="DejaVuSans-61"/>
      <path d="M 9.421875 75.984375 
L 18.40625 75.984375 
L 18.40625 0 
L 9.421875 0 
z
" id="DejaVuSans-6c"/>
     </defs>
     <g transform="translate(116.34175 128.213025)rotate(-90)scale(0.12 -0.12)">
      <use xlink:href="#DejaVuSans-52"/>
      <use x="69.419922" xlink:href="#DejaVuSans-65"/>
      <use x="130.943359" xlink:href="#DejaVuSans-73"/>
      <use x="183.042969" xlink:href="#DejaVuSans-69"/>
      <use x="210.826172" xlink:href="#DejaVuSans-64"/>
      <use x="274.302734" xlink:href="#DejaVuSans-75"/>
      <use x="337.681641" xlink:href="#DejaVuSans-61"/>
      <use x="398.960938" xlink:href="#DejaVuSans-6c"/>
      <use x="426.744141" xlink:href="#DejaVuSans-73"/>
     </g>
    </g>
   </g>
   <g id="LineCollection_1">
    <path clip-path="url(#p213c5e4c45)" d="M 174.848 99.718653 
L 174.848 64.357624 
" style="fill:none;stroke:#0000ff;stroke-width:1.5;"/>
    <path clip-path="url(#p213c5e4c45)" d="M 191.712198 98.560909 
L 191.712198 63.19988 
" style="fill:none;stroke:#0000ff;stroke-width:1.5;"/>
    <path clip-path="url(#p213c5e4c45)" d="M 200.144296 112.364265 
L 200.144296 77.003236 
" style="fill:none;stroke:#0000ff;stroke-width:1.5;"/>
    <path clip-path="url(#p213c5e4c45)" d="M 208.576395 112.945289 
L 208.576395 77.58426 
" style="fill:none;stroke:#0000ff;stroke-width:1.5;"/>
    <path clip-path="url(#p213c5e4c45)" d="M 217.008494 114.316317 
L 217.008494 78.955288 
" style="fill:none;stroke:#0000ff;stroke-width:1.5;"/>
    <path clip-path="url(#p213c5e4c45)" d="M 225.440593 129.838913 
L 225.440593 94.477884 
" style="fill:none;stroke:#0000ff;stroke-width:1.5;"/>
    <path clip-path="url(#p213c5e4c45)" d="M 233.872691 87.386158 
L 233.872691 52.025129 
" style="fill:none;stroke:#0000ff;stroke-width:1.5;"/>
    <path clip-path="url(#p213c5e4c45)" d="M 242.30479 113.721912 
L 242.30479 78.360883 
" style="fill:none;stroke:#0000ff;stroke-width:1.5;"/>
    <path clip-path="url(#p213c5e4c45)" d="M 250.736889 92.254007 
L 250.736889 56.892978 
" style="fill:none;stroke:#0000ff;stroke-width:1.5;"/>
    <path clip-path="url(#p213c5e4c45)" d="M 259.168988 101.327992 
L 259.168988 65.966963 
" style="fill:none;stroke:#0000ff;stroke-width:1.5;"/>
    <path clip-path="url(#p213c5e4c45)" d="M 267.601086 101.216189 
L 267.601086 65.85516 
" style="fill:none;stroke:#0000ff;stroke-width:1.5;"/>
    <path clip-path="url(#p213c5e4c45)" d="M 276.033185 115.873652 
L 276.033185 80.512623 
" style="fill:none;stroke:#0000ff;stroke-width:1.5;"/>
    <path clip-path="url(#p213c5e4c45)" d="M 284.465284 94.573433 
L 284.465284 59.212404 
" style="fill:none;stroke:#0000ff;stroke-width:1.5;"/>
    <path clip-path="url(#p213c5e4c45)" d="M 292.897383 102.942217 
L 292.897383 67.581188 
" style="fill:none;stroke:#0000ff;stroke-width:1.5;"/>
    <path clip-path="url(#p213c5e4c45)" d="M 301.329481 96.479823 
L 301.329481 61.118794 
" style="fill:none;stroke:#0000ff;stroke-width:1.5;"/>
    <path clip-path="url(#p213c5e4c45)" d="M 309.76158 124.829892 
L 309.76158 89.468863 
" style="fill:none;stroke:#0000ff;stroke-width:1.5;"/>
    <path clip-path="url(#p213c5e4c45)" d="M 318.193679 133.21898 
L 318.193679 97.857951 
" style="fill:none;stroke:#0000ff;stroke-width:1.5;"/>
    <path clip-path="url(#p213c5e4c45)" d="M 326.625778 131.680016 
L 326.625778 96.318987 
" style="fill:none;stroke:#0000ff;stroke-width:1.5;"/>
    <path clip-path="url(#p213c5e4c45)" d="M 335.057877 132.890036 
L 335.057877 97.529007 
" style="fill:none;stroke:#0000ff;stroke-width:1.5;"/>
    <path clip-path="url(#p213c5e4c45)" d="M 343.489975 119.920711 
L 343.489975 84.559682 
" style="fill:none;stroke:#0000ff;stroke-width:1.5;"/>
    <path clip-path="url(#p213c5e4c45)" d="M 351.922074 118.353156 
L 351.922074 82.992127 
" style="fill:none;stroke:#0000ff;stroke-width:1.5;"/>
    <path clip-path="url(#p213c5e4c45)" d="M 360.354173 108.609117 
L 360.354173 73.248088 
" style="fill:none;stroke:#0000ff;stroke-width:1.5;"/>
    <path clip-path="url(#p213c5e4c45)" d="M 368.786272 109.445735 
L 368.786272 74.084706 
" style="fill:none;stroke:#0000ff;stroke-width:1.5;"/>
    <path clip-path="url(#p213c5e4c45)" d="M 377.21837 131.583503 
L 377.21837 96.222474 
" style="fill:none;stroke:#0000ff;stroke-width:1.5;"/>
    <path clip-path="url(#p213c5e4c45)" d="M 385.650469 110.208735 
L 385.650469 74.847706 
" style="fill:none;stroke:#0000ff;stroke-width:1.5;"/>
    <path clip-path="url(#p213c5e4c45)" d="M 394.082568 91.147847 
L 394.082568 55.786818 
" style="fill:none;stroke:#0000ff;stroke-width:1.5;"/>
    <path clip-path="url(#p213c5e4c45)" d="M 402.514667 125.784951 
L 402.514667 90.423922 
" style="fill:none;stroke:#0000ff;stroke-width:1.5;"/>
    <path clip-path="url(#p213c5e4c45)" d="M 410.946765 110.169123 
L 410.946765 74.808094 
" style="fill:none;stroke:#0000ff;stroke-width:1.5;"/>
    <path clip-path="url(#p213c5e4c45)" d="M 419.378864 104.064629 
L 419.378864 68.7036 
" style="fill:none;stroke:#0000ff;stroke-width:1.5;"/>
    <path clip-path="url(#p213c5e4c45)" d="M 427.810963 108.680502 
L 427.810963 73.319472 
" style="fill:none;stroke:#0000ff;stroke-width:1.5;"/>
    <path clip-path="url(#p213c5e4c45)" d="M 436.243062 108.741362 
L 436.243062 73.380333 
" style="fill:none;stroke:#0000ff;stroke-width:1.5;"/>
    <path clip-path="url(#p213c5e4c45)" d="M 444.67516 123.646197 
L 444.67516 88.285168 
" style="fill:none;stroke:#0000ff;stroke-width:1.5;"/>
    <path clip-path="url(#p213c5e4c45)" d="M 453.107259 111.794579 
L 453.107259 76.43355 
" style="fill:none;stroke:#0000ff;stroke-width:1.5;"/>
    <path clip-path="url(#p213c5e4c45)" d="M 461.539358 98.654867 
L 461.539358 63.293838 
" style="fill:none;stroke:#0000ff;stroke-width:1.5;"/>
    <path clip-path="url(#p213c5e4c45)" d="M 469.971457 150.862915 
L 469.971457 115.501885 
" style="fill:none;stroke:#0000ff;stroke-width:1.5;"/>
    <path clip-path="url(#p213c5e4c45)" d="M 478.403556 107.087857 
L 478.403556 71.726828 
" style="fill:none;stroke:#0000ff;stroke-width:1.5;"/>
    <path clip-path="url(#p213c5e4c45)" d="M 486.835654 105.97348 
L 486.835654 70.612451 
" style="fill:none;stroke:#0000ff;stroke-width:1.5;"/>
    <path clip-path="url(#p213c5e4c45)" d="M 495.267753 116.882726 
L 495.267753 81.521697 
" style="fill:none;stroke:#0000ff;stroke-width:1.5;"/>
    <path clip-path="url(#p213c5e4c45)" d="M 503.699852 112.353969 
L 503.699852 76.99294 
" style="fill:none;stroke:#0000ff;stroke-width:1.5;"/>
    <path clip-path="url(#p213c5e4c45)" d="M 512.131951 98.991241 
L 512.131951 63.630212 
" style="fill:none;stroke:#0000ff;stroke-width:1.5;"/>
    <path clip-path="url(#p213c5e4c45)" d="M 520.564049 103.38585 
L 520.564049 68.024821 
" style="fill:none;stroke:#0000ff;stroke-width:1.5;"/>
    <path clip-path="url(#p213c5e4c45)" d="M 528.996148 115.56184 
L 528.996148 80.200811 
" style="fill:none;stroke:#0000ff;stroke-width:1.5;"/>
    <path clip-path="url(#p213c5e4c45)" d="M 537.428247 127.219017 
L 537.428247 91.857988 
" style="fill:none;stroke:#0000ff;stroke-width:1.5;"/>
    <path clip-path="url(#p213c5e4c45)" d="M 545.860346 106.518182 
L 545.860346 71.157153 
" style="fill:none;stroke:#0000ff;stroke-width:1.5;"/>
    <path clip-path="url(#p213c5e4c45)" d="M 554.292444 111.553063 
L 554.292444 76.192034 
" style="fill:none;stroke:#0000ff;stroke-width:1.5;"/>
    <path clip-path="url(#p213c5e4c45)" d="M 562.724543 101.791169 
L 562.724543 66.43014 
" style="fill:none;stroke:#0000ff;stroke-width:1.5;"/>
    <path clip-path="url(#p213c5e4c45)" d="M 571.156642 118.874716 
L 571.156642 83.513687 
" style="fill:none;stroke:#0000ff;stroke-width:1.5;"/>
    <path clip-path="url(#p213c5e4c45)" d="M 579.588741 123.757831 
L 579.588741 88.396802 
" style="fill:none;stroke:#0000ff;stroke-width:1.5;"/>
    <path clip-path="url(#p213c5e4c45)" d="M 588.02084 114.472998 
L 588.02084 79.111969 
" style="fill:none;stroke:#0000ff;stroke-width:1.5;"/>
    <path clip-path="url(#p213c5e4c45)" d="M 596.452938 105.779159 
L 596.452938 70.41813 
" style="fill:none;stroke:#0000ff;stroke-width:1.5;"/>
    <path clip-path="url(#p213c5e4c45)" d="M 604.885037 117.759823 
L 604.885037 82.398794 
" style="fill:none;stroke:#0000ff;stroke-width:1.5;"/>
    <path clip-path="url(#p213c5e4c45)" d="M 613.317136 107.876362 
L 613.317136 72.515333 
" style="fill:none;stroke:#0000ff;stroke-width:1.5;"/>
    <path clip-path="url(#p213c5e4c45)" d="M 621.749235 95.724479 
L 621.749235 60.36345 
" style="fill:none;stroke:#0000ff;stroke-width:1.5;"/>
    <path clip-path="url(#p213c5e4c45)" d="M 630.181333 98.344124 
L 630.181333 62.983095 
" style="fill:none;stroke:#0000ff;stroke-width:1.5;"/>
    <path clip-path="url(#p213c5e4c45)" d="M 638.613432 100.094713 
L 638.613432 64.733684 
" style="fill:none;stroke:#0000ff;stroke-width:1.5;"/>
    <path clip-path="url(#p213c5e4c45)" d="M 647.045531 99.206736 
L 647.045531 63.845707 
" style="fill:none;stroke:#0000ff;stroke-width:1.5;"/>
    <path clip-path="url(#p213c5e4c45)" d="M 655.47763 136.129397 
L 655.47763 100.768368 
" style="fill:none;stroke:#0000ff;stroke-width:1.5;"/>
    <path clip-path="url(#p213c5e4c45)" d="M 663.909728 122.851416 
L 663.909728 87.490387 
" style="fill:none;stroke:#0000ff;stroke-width:1.5;"/>
    <path clip-path="url(#p213c5e4c45)" d="M 672.341827 98.374884 
L 672.341827 63.013855 
" style="fill:none;stroke:#0000ff;stroke-width:1.5;"/>
    <path clip-path="url(#p213c5e4c45)" d="M 680.773926 105.773735 
L 680.773926 70.412706 
" style="fill:none;stroke:#0000ff;stroke-width:1.5;"/>
    <path clip-path="url(#p213c5e4c45)" d="M 689.206025 115.068683 
L 689.206025 79.707654 
" style="fill:none;stroke:#0000ff;stroke-width:1.5;"/>
    <path clip-path="url(#p213c5e4c45)" d="M 697.638123 105.520744 
L 697.638123 70.159715 
" style="fill:none;stroke:#0000ff;stroke-width:1.5;"/>
    <path clip-path="url(#p213c5e4c45)" d="M 706.070222 83.462915 
L 706.070222 48.101885 
" style="fill:none;stroke:#0000ff;stroke-width:1.5;"/>
    <path clip-path="url(#p213c5e4c45)" d="M 714.502321 107.367908 
L 714.502321 72.006879 
" style="fill:none;stroke:#0000ff;stroke-width:1.5;"/>
    <path clip-path="url(#p213c5e4c45)" d="M 722.93442 123.051759 
L 722.93442 87.69073 
" style="fill:none;stroke:#0000ff;stroke-width:1.5;"/>
    <path clip-path="url(#p213c5e4c45)" d="M 731.366519 116.929938 
L 731.366519 81.568909 
" style="fill:none;stroke:#0000ff;stroke-width:1.5;"/>
    <path clip-path="url(#p213c5e4c45)" d="M 739.798617 117.4576 
L 739.798617 82.096571 
" style="fill:none;stroke:#0000ff;stroke-width:1.5;"/>
    <path clip-path="url(#p213c5e4c45)" d="M 748.230716 116.494546 
L 748.230716 81.133517 
" style="fill:none;stroke:#0000ff;stroke-width:1.5;"/>
    <path clip-path="url(#p213c5e4c45)" d="M 756.662815 112.710925 
L 756.662815 77.349896 
" style="fill:none;stroke:#0000ff;stroke-width:1.5;"/>
    <path clip-path="url(#p213c5e4c45)" d="M 765.094914 113.738683 
L 765.094914 78.377654 
" style="fill:none;stroke:#0000ff;stroke-width:1.5;"/>
    <path clip-path="url(#p213c5e4c45)" d="M 773.527012 106.049486 
L 773.527012 70.688457 
" style="fill:none;stroke:#0000ff;stroke-width:1.5;"/>
    <path clip-path="url(#p213c5e4c45)" d="M 781.959111 117.699978 
L 781.959111 82.338949 
" style="fill:none;stroke:#0000ff;stroke-width:1.5;"/>
    <path clip-path="url(#p213c5e4c45)" d="M 790.39121 94.944327 
L 790.39121 59.583298 
" style="fill:none;stroke:#0000ff;stroke-width:1.5;"/>
    <path clip-path="url(#p213c5e4c45)" d="M 798.823309 101.277487 
L 798.823309 65.916458 
" style="fill:none;stroke:#0000ff;stroke-width:1.5;"/>
    <path clip-path="url(#p213c5e4c45)" d="M 807.255407 123.808886 
L 807.255407 88.447857 
" style="fill:none;stroke:#0000ff;stroke-width:1.5;"/>
    <path clip-path="url(#p213c5e4c45)" d="M 815.687506 104.869493 
L 815.687506 69.508464 
" style="fill:none;stroke:#0000ff;stroke-width:1.5;"/>
    <path clip-path="url(#p213c5e4c45)" d="M 824.119605 120.088042 
L 824.119605 84.727013 
" style="fill:none;stroke:#0000ff;stroke-width:1.5;"/>
    <path clip-path="url(#p213c5e4c45)" d="M 832.551704 105.652076 
L 832.551704 70.291047 
" style="fill:none;stroke:#0000ff;stroke-width:1.5;"/>
    <path clip-path="url(#p213c5e4c45)" d="M 840.983802 139.863977 
L 840.983802 104.502948 
" style="fill:none;stroke:#0000ff;stroke-width:1.5;"/>
    <path clip-path="url(#p213c5e4c45)" d="M 849.415901 123.221607 
L 849.415901 87.860578 
" style="fill:none;stroke:#0000ff;stroke-width:1.5;"/>
    <path clip-path="url(#p213c5e4c45)" d="M 857.848 126.386533 
L 857.848 91.025504 
" style="fill:none;stroke:#0000ff;stroke-width:1.5;"/>
   </g>
   <g id="line2d_8">
    <path clip-path="url(#p213c5e4c45)" d="M 174.848 94.418576 
L 857.848 94.418576 
" style="fill:none;stroke:#ff0000;stroke-linecap:square;stroke-width:1.5;"/>
   </g>
   <g id="line2d_9">
    <defs>
     <path d="M -3 0 
L 3 0 
M 0 3 
L 0 -3 
" id="m1d53194684" style="stroke:#0000ff;"/>
    </defs>
    <g clip-path="url(#p213c5e4c45)">
     <use style="fill:#0000ff;stroke:#0000ff;" x="174.848" xlink:href="#m1d53194684" y="82.038139"/>
     <use style="fill:#0000ff;stroke:#0000ff;" x="191.712198" xlink:href="#m1d53194684" y="80.880395"/>
     <use style="fill:#0000ff;stroke:#0000ff;" x="200.144296" xlink:href="#m1d53194684" y="94.68375"/>
     <use style="fill:#0000ff;stroke:#0000ff;" x="208.576395" xlink:href="#m1d53194684" y="95.264774"/>
     <use style="fill:#0000ff;stroke:#0000ff;" x="217.008494" xlink:href="#m1d53194684" y="96.635803"/>
     <use style="fill:#0000ff;stroke:#0000ff;" x="225.440593" xlink:href="#m1d53194684" y="112.158399"/>
     <use style="fill:#0000ff;stroke:#0000ff;" x="233.872691" xlink:href="#m1d53194684" y="69.705643"/>
     <use style="fill:#0000ff;stroke:#0000ff;" x="242.30479" xlink:href="#m1d53194684" y="96.041398"/>
     <use style="fill:#0000ff;stroke:#0000ff;" x="250.736889" xlink:href="#m1d53194684" y="74.573493"/>
     <use style="fill:#0000ff;stroke:#0000ff;" x="259.168988" xlink:href="#m1d53194684" y="83.647478"/>
     <use style="fill:#0000ff;stroke:#0000ff;" x="267.601086" xlink:href="#m1d53194684" y="83.535675"/>
     <use style="fill:#0000ff;stroke:#0000ff;" x="276.033185" xlink:href="#m1d53194684" y="98.193138"/>
     <use style="fill:#0000ff;stroke:#0000ff;" x="284.465284" xlink:href="#m1d53194684" y="76.892919"/>
     <use style="fill:#0000ff;stroke:#0000ff;" x="292.897383" xlink:href="#m1d53194684" y="85.261703"/>
     <use style="fill:#0000ff;stroke:#0000ff;" x="301.329481" xlink:href="#m1d53194684" y="78.799308"/>
     <use style="fill:#0000ff;stroke:#0000ff;" x="309.76158" xlink:href="#m1d53194684" y="107.149378"/>
     <use style="fill:#0000ff;stroke:#0000ff;" x="318.193679" xlink:href="#m1d53194684" y="115.538465"/>
     <use style="fill:#0000ff;stroke:#0000ff;" x="326.625778" xlink:href="#m1d53194684" y="113.999501"/>
     <use style="fill:#0000ff;stroke:#0000ff;" x="335.057877" xlink:href="#m1d53194684" y="115.209521"/>
     <use style="fill:#0000ff;stroke:#0000ff;" x="343.489975" xlink:href="#m1d53194684" y="102.240196"/>
     <use style="fill:#0000ff;stroke:#0000ff;" x="351.922074" xlink:href="#m1d53194684" y="100.672641"/>
     <use style="fill:#0000ff;stroke:#0000ff;" x="360.354173" xlink:href="#m1d53194684" y="90.928603"/>
     <use style="fill:#0000ff;stroke:#0000ff;" x="368.786272" xlink:href="#m1d53194684" y="91.76522"/>
     <use style="fill:#0000ff;stroke:#0000ff;" x="377.21837" xlink:href="#m1d53194684" y="113.902988"/>
     <use style="fill:#0000ff;stroke:#0000ff;" x="385.650469" xlink:href="#m1d53194684" y="92.528221"/>
     <use style="fill:#0000ff;stroke:#0000ff;" x="394.082568" xlink:href="#m1d53194684" y="73.467333"/>
     <use style="fill:#0000ff;stroke:#0000ff;" x="402.514667" xlink:href="#m1d53194684" y="108.104437"/>
     <use style="fill:#0000ff;stroke:#0000ff;" x="410.946765" xlink:href="#m1d53194684" y="92.488609"/>
     <use style="fill:#0000ff;stroke:#0000ff;" x="419.378864" xlink:href="#m1d53194684" y="86.384114"/>
     <use style="fill:#0000ff;stroke:#0000ff;" x="427.810963" xlink:href="#m1d53194684" y="90.999987"/>
     <use style="fill:#0000ff;stroke:#0000ff;" x="436.243062" xlink:href="#m1d53194684" y="91.060847"/>
     <use style="fill:#0000ff;stroke:#0000ff;" x="444.67516" xlink:href="#m1d53194684" y="105.965682"/>
     <use style="fill:#0000ff;stroke:#0000ff;" x="453.107259" xlink:href="#m1d53194684" y="94.114065"/>
     <use style="fill:#0000ff;stroke:#0000ff;" x="461.539358" xlink:href="#m1d53194684" y="80.974352"/>
     <use style="fill:#0000ff;stroke:#0000ff;" x="469.971457" xlink:href="#m1d53194684" y="133.1824"/>
     <use style="fill:#0000ff;stroke:#0000ff;" x="478.403556" xlink:href="#m1d53194684" y="89.407342"/>
     <use style="fill:#0000ff;stroke:#0000ff;" x="486.835654" xlink:href="#m1d53194684" y="88.292966"/>
     <use style="fill:#0000ff;stroke:#0000ff;" x="495.267753" xlink:href="#m1d53194684" y="99.202211"/>
     <use style="fill:#0000ff;stroke:#0000ff;" x="503.699852" xlink:href="#m1d53194684" y="94.673455"/>
     <use style="fill:#0000ff;stroke:#0000ff;" x="512.131951" xlink:href="#m1d53194684" y="81.310726"/>
     <use style="fill:#0000ff;stroke:#0000ff;" x="520.564049" xlink:href="#m1d53194684" y="85.705335"/>
     <use style="fill:#0000ff;stroke:#0000ff;" x="528.996148" xlink:href="#m1d53194684" y="97.881326"/>
     <use style="fill:#0000ff;stroke:#0000ff;" x="537.428247" xlink:href="#m1d53194684" y="109.538502"/>
     <use style="fill:#0000ff;stroke:#0000ff;" x="545.860346" xlink:href="#m1d53194684" y="88.837667"/>
     <use style="fill:#0000ff;stroke:#0000ff;" x="554.292444" xlink:href="#m1d53194684" y="93.872548"/>
     <use style="fill:#0000ff;stroke:#0000ff;" x="562.724543" xlink:href="#m1d53194684" y="84.110655"/>
     <use style="fill:#0000ff;stroke:#0000ff;" x="571.156642" xlink:href="#m1d53194684" y="101.194201"/>
     <use style="fill:#0000ff;stroke:#0000ff;" x="579.588741" xlink:href="#m1d53194684" y="106.077317"/>
     <use style="fill:#0000ff;stroke:#0000ff;" x="588.02084" xlink:href="#m1d53194684" y="96.792484"/>
     <use style="fill:#0000ff;stroke:#0000ff;" x="596.452938" xlink:href="#m1d53194684" y="88.098644"/>
     <use style="fill:#0000ff;stroke:#0000ff;" x="604.885037" xlink:href="#m1d53194684" y="100.079308"/>
     <use style="fill:#0000ff;stroke:#0000ff;" x="613.317136" xlink:href="#m1d53194684" y="90.195848"/>
     <use style="fill:#0000ff;stroke:#0000ff;" x="621.749235" xlink:href="#m1d53194684" y="78.043964"/>
     <use style="fill:#0000ff;stroke:#0000ff;" x="630.181333" xlink:href="#m1d53194684" y="80.66361"/>
     <use style="fill:#0000ff;stroke:#0000ff;" x="638.613432" xlink:href="#m1d53194684" y="82.414199"/>
     <use style="fill:#0000ff;stroke:#0000ff;" x="647.045531" xlink:href="#m1d53194684" y="81.526221"/>
     <use style="fill:#0000ff;stroke:#0000ff;" x="655.47763" xlink:href="#m1d53194684" y="118.448882"/>
     <use style="fill:#0000ff;stroke:#0000ff;" x="663.909728" xlink:href="#m1d53194684" y="105.170902"/>
     <use style="fill:#0000ff;stroke:#0000ff;" x="672.341827" xlink:href="#m1d53194684" y="80.694369"/>
     <use style="fill:#0000ff;stroke:#0000ff;" x="680.773926" xlink:href="#m1d53194684" y="88.093221"/>
     <use style="fill:#0000ff;stroke:#0000ff;" x="689.206025" xlink:href="#m1d53194684" y="97.388168"/>
     <use style="fill:#0000ff;stroke:#0000ff;" x="697.638123" xlink:href="#m1d53194684" y="87.840229"/>
     <use style="fill:#0000ff;stroke:#0000ff;" x="706.070222" xlink:href="#m1d53194684" y="65.7824"/>
     <use style="fill:#0000ff;stroke:#0000ff;" x="714.502321" xlink:href="#m1d53194684" y="89.687393"/>
     <use style="fill:#0000ff;stroke:#0000ff;" x="722.93442" xlink:href="#m1d53194684" y="105.371245"/>
     <use style="fill:#0000ff;stroke:#0000ff;" x="731.366519" xlink:href="#m1d53194684" y="99.249424"/>
     <use style="fill:#0000ff;stroke:#0000ff;" x="739.798617" xlink:href="#m1d53194684" y="99.777086"/>
     <use style="fill:#0000ff;stroke:#0000ff;" x="748.230716" xlink:href="#m1d53194684" y="98.814031"/>
     <use style="fill:#0000ff;stroke:#0000ff;" x="756.662815" xlink:href="#m1d53194684" y="95.030411"/>
     <use style="fill:#0000ff;stroke:#0000ff;" x="765.094914" xlink:href="#m1d53194684" y="96.058168"/>
     <use style="fill:#0000ff;stroke:#0000ff;" x="773.527012" xlink:href="#m1d53194684" y="88.368971"/>
     <use style="fill:#0000ff;stroke:#0000ff;" x="781.959111" xlink:href="#m1d53194684" y="100.019464"/>
     <use style="fill:#0000ff;stroke:#0000ff;" x="790.39121" xlink:href="#m1d53194684" y="77.263812"/>
     <use style="fill:#0000ff;stroke:#0000ff;" x="798.823309" xlink:href="#m1d53194684" y="83.596973"/>
     <use style="fill:#0000ff;stroke:#0000ff;" x="807.255407" xlink:href="#m1d53194684" y="106.128372"/>
     <use style="fill:#0000ff;stroke:#0000ff;" x="815.687506" xlink:href="#m1d53194684" y="87.188979"/>
     <use style="fill:#0000ff;stroke:#0000ff;" x="824.119605" xlink:href="#m1d53194684" y="102.407528"/>
     <use style="fill:#0000ff;stroke:#0000ff;" x="832.551704" xlink:href="#m1d53194684" y="87.971562"/>
     <use style="fill:#0000ff;stroke:#0000ff;" x="840.983802" xlink:href="#m1d53194684" y="122.183463"/>
     <use style="fill:#0000ff;stroke:#0000ff;" x="849.415901" xlink:href="#m1d53194684" y="105.541092"/>
     <use style="fill:#0000ff;stroke:#0000ff;" x="857.848" xlink:href="#m1d53194684" y="108.706019"/>
    </g>
   </g>
   <g id="patch_3">
    <path d="M 147.528 135.8784 
L 147.528 63.0864 
" style="fill:none;stroke:#000000;stroke-linecap:square;stroke-linejoin:miter;stroke-width:0.8;"/>
   </g>
   <g id="patch_4">
    <path d="M 885.168 135.8784 
L 885.168 63.0864 
" style="fill:none;stroke:#000000;stroke-linecap:square;stroke-linejoin:miter;stroke-width:0.8;"/>
   </g>
   <g id="patch_5">
    <path d="M 147.528 135.8784 
L 885.168 135.8784 
" style="fill:none;stroke:#000000;stroke-linecap:square;stroke-linejoin:miter;stroke-width:0.8;"/>
   </g>
   <g id="patch_6">
    <path d="M 147.528 63.0864 
L 885.168 63.0864 
" style="fill:none;stroke:#000000;stroke-linecap:square;stroke-linejoin:miter;stroke-width:0.8;"/>
   </g>
   <g id="text_4">
    <!-- Function (0/0): y = a*exp(-(x-x0)**2/w**2)+b -->
    <defs>
     <path d="M 9.8125 72.90625 
L 51.703125 72.90625 
L 51.703125 64.59375 
L 19.671875 64.59375 
L 19.671875 43.109375 
L 48.578125 43.109375 
L 48.578125 34.8125 
L 19.671875 34.8125 
L 19.671875 0 
L 9.8125 0 
z
" id="DejaVuSans-46"/>
     <path d="M 48.78125 52.59375 
L 48.78125 44.1875 
Q 44.96875 46.296875 41.140625 47.34375 
Q 37.3125 48.390625 33.40625 48.390625 
Q 24.65625 48.390625 19.8125 42.84375 
Q 14.984375 37.3125 14.984375 27.296875 
Q 14.984375 17.28125 19.8125 11.734375 
Q 24.65625 6.203125 33.40625 6.203125 
Q 37.3125 6.203125 41.140625 7.25 
Q 44.96875 8.296875 48.78125 10.40625 
L 48.78125 2.09375 
Q 45.015625 0.34375 40.984375 -0.53125 
Q 36.96875 -1.421875 32.421875 -1.421875 
Q 20.0625 -1.421875 12.78125 6.34375 
Q 5.515625 14.109375 5.515625 27.296875 
Q 5.515625 40.671875 12.859375 48.328125 
Q 20.21875 56 33.015625 56 
Q 37.15625 56 41.109375 55.140625 
Q 45.0625 54.296875 48.78125 52.59375 
z
" id="DejaVuSans-63"/>
     <path d="M 30.609375 48.390625 
Q 23.390625 48.390625 19.1875 42.75 
Q 14.984375 37.109375 14.984375 27.296875 
Q 14.984375 17.484375 19.15625 11.84375 
Q 23.34375 6.203125 30.609375 6.203125 
Q 37.796875 6.203125 41.984375 11.859375 
Q 46.1875 17.53125 46.1875 27.296875 
Q 46.1875 37.015625 41.984375 42.703125 
Q 37.796875 48.390625 30.609375 48.390625 
z
M 30.609375 56 
Q 42.328125 56 49.015625 48.375 
Q 55.71875 40.765625 55.71875 27.296875 
Q 55.71875 13.875 49.015625 6.21875 
Q 42.328125 -1.421875 30.609375 -1.421875 
Q 18.84375 -1.421875 12.171875 6.21875 
Q 5.515625 13.875 5.515625 27.296875 
Q 5.515625 40.765625 12.171875 48.375 
Q 18.84375 56 30.609375 56 
z
" id="DejaVuSans-6f"/>
     <path id="DejaVuSans-20"/>
     <path d="M 31 75.875 
Q 24.46875 64.65625 21.28125 53.65625 
Q 18.109375 42.671875 18.109375 31.390625 
Q 18.109375 20.125 21.3125 9.0625 
Q 24.515625 -2 31 -13.1875 
L 23.1875 -13.1875 
Q 15.875 -1.703125 12.234375 9.375 
Q 8.59375 20.453125 8.59375 31.390625 
Q 8.59375 42.28125 12.203125 53.3125 
Q 15.828125 64.359375 23.1875 75.875 
z
" id="DejaVuSans-28"/>
     <path d="M 25.390625 72.90625 
L 33.6875 72.90625 
L 8.296875 -9.28125 
L 0 -9.28125 
z
" id="DejaVuSans-2f"/>
     <path d="M 8.015625 75.875 
L 15.828125 75.875 
Q 23.140625 64.359375 26.78125 53.3125 
Q 30.421875 42.28125 30.421875 31.390625 
Q 30.421875 20.453125 26.78125 9.375 
Q 23.140625 -1.703125 15.828125 -13.1875 
L 8.015625 -13.1875 
Q 14.5 -2 17.703125 9.0625 
Q 20.90625 20.125 20.90625 31.390625 
Q 20.90625 42.671875 17.703125 53.65625 
Q 14.5 64.65625 8.015625 75.875 
z
" id="DejaVuSans-29"/>
     <path d="M 11.71875 12.40625 
L 22.015625 12.40625 
L 22.015625 0 
L 11.71875 0 
z
M 11.71875 51.703125 
L 22.015625 51.703125 
L 22.015625 39.3125 
L 11.71875 39.3125 
z
" id="DejaVuSans-3a"/>
     <path d="M 32.171875 -5.078125 
Q 28.375 -14.84375 24.75 -17.8125 
Q 21.140625 -20.796875 15.09375 -20.796875 
L 7.90625 -20.796875 
L 7.90625 -13.28125 
L 13.1875 -13.28125 
Q 16.890625 -13.28125 18.9375 -11.515625 
Q 21 -9.765625 23.484375 -3.21875 
L 25.09375 0.875 
L 2.984375 54.6875 
L 12.5 54.6875 
L 29.59375 11.921875 
L 46.6875 54.6875 
L 56.203125 54.6875 
z
" id="DejaVuSans-79"/>
     <path d="M 10.59375 45.40625 
L 73.1875 45.40625 
L 73.1875 37.203125 
L 10.59375 37.203125 
z
M 10.59375 25.484375 
L 73.1875 25.484375 
L 73.1875 17.1875 
L 10.59375 17.1875 
z
" id="DejaVuSans-3d"/>
     <path d="M 47.015625 60.890625 
L 29.5 51.421875 
L 47.015625 41.890625 
L 44.1875 37.109375 
L 27.78125 47.015625 
L 27.78125 28.609375 
L 22.21875 28.609375 
L 22.21875 47.015625 
L 5.8125 37.109375 
L 2.984375 41.890625 
L 20.515625 51.421875 
L 2.984375 60.890625 
L 5.8125 65.71875 
L 22.21875 55.8125 
L 22.21875 74.21875 
L 27.78125 74.21875 
L 27.78125 55.8125 
L 44.1875 65.71875 
z
" id="DejaVuSans-2a"/>
     <path d="M 54.890625 54.6875 
L 35.109375 28.078125 
L 55.90625 0 
L 45.3125 0 
L 29.390625 21.484375 
L 13.484375 0 
L 2.875 0 
L 24.125 28.609375 
L 4.6875 54.6875 
L 15.28125 54.6875 
L 29.78125 35.203125 
L 44.28125 54.6875 
z
" id="DejaVuSans-78"/>
     <path d="M 18.109375 8.203125 
L 18.109375 -20.796875 
L 9.078125 -20.796875 
L 9.078125 54.6875 
L 18.109375 54.6875 
L 18.109375 46.390625 
Q 20.953125 51.265625 25.265625 53.625 
Q 29.59375 56 35.59375 56 
Q 45.5625 56 51.78125 48.09375 
Q 58.015625 40.1875 58.015625 27.296875 
Q 58.015625 14.40625 51.78125 6.484375 
Q 45.5625 -1.421875 35.59375 -1.421875 
Q 29.59375 -1.421875 25.265625 0.953125 
Q 20.953125 3.328125 18.109375 8.203125 
z
M 48.6875 27.296875 
Q 48.6875 37.203125 44.609375 42.84375 
Q 40.53125 48.484375 33.40625 48.484375 
Q 26.265625 48.484375 22.1875 42.84375 
Q 18.109375 37.203125 18.109375 27.296875 
Q 18.109375 17.390625 22.1875 11.75 
Q 26.265625 6.109375 33.40625 6.109375 
Q 40.53125 6.109375 44.609375 11.75 
Q 48.6875 17.390625 48.6875 27.296875 
z
" id="DejaVuSans-70"/>
     <path d="M 4.890625 31.390625 
L 31.203125 31.390625 
L 31.203125 23.390625 
L 4.890625 23.390625 
z
" id="DejaVuSans-2d"/>
     <path d="M 4.203125 54.6875 
L 13.1875 54.6875 
L 24.421875 12.015625 
L 35.59375 54.6875 
L 46.1875 54.6875 
L 57.421875 12.015625 
L 68.609375 54.6875 
L 77.59375 54.6875 
L 63.28125 0 
L 52.6875 0 
L 40.921875 44.828125 
L 29.109375 0 
L 18.5 0 
z
" id="DejaVuSans-77"/>
     <path d="M 46 62.703125 
L 46 35.5 
L 73.1875 35.5 
L 73.1875 27.203125 
L 46 27.203125 
L 46 0 
L 37.796875 0 
L 37.796875 27.203125 
L 10.59375 27.203125 
L 10.59375 35.5 
L 37.796875 35.5 
L 37.796875 62.703125 
z
" id="DejaVuSans-2b"/>
     <path d="M 48.6875 27.296875 
Q 48.6875 37.203125 44.609375 42.84375 
Q 40.53125 48.484375 33.40625 48.484375 
Q 26.265625 48.484375 22.1875 42.84375 
Q 18.109375 37.203125 18.109375 27.296875 
Q 18.109375 17.390625 22.1875 11.75 
Q 26.265625 6.109375 33.40625 6.109375 
Q 40.53125 6.109375 44.609375 11.75 
Q 48.6875 17.390625 48.6875 27.296875 
z
M 18.109375 46.390625 
Q 20.953125 51.265625 25.265625 53.625 
Q 29.59375 56 35.59375 56 
Q 45.5625 56 51.78125 48.09375 
Q 58.015625 40.1875 58.015625 27.296875 
Q 58.015625 14.40625 51.78125 6.484375 
Q 45.5625 -1.421875 35.59375 -1.421875 
Q 29.59375 -1.421875 25.265625 0.953125 
Q 20.953125 3.328125 18.109375 8.203125 
L 18.109375 0 
L 9.078125 0 
L 9.078125 75.984375 
L 18.109375 75.984375 
z
" id="DejaVuSans-62"/>
    </defs>
    <g transform="translate(147.528 34.690775)scale(0.1 -0.1)">
     <use xlink:href="#DejaVuSans-46"/>
     <use x="57.441406" xlink:href="#DejaVuSans-75"/>
     <use x="120.820312" xlink:href="#DejaVuSans-6e"/>
     <use x="184.199219" xlink:href="#DejaVuSans-63"/>
     <use x="239.179688" xlink:href="#DejaVuSans-74"/>
     <use x="278.388672" xlink:href="#DejaVuSans-69"/>
     <use x="306.171875" xlink:href="#DejaVuSans-6f"/>
     <use x="367.353516" xlink:href="#DejaVuSans-6e"/>
     <use x="430.732422" xlink:href="#DejaVuSans-20"/>
     <use x="462.519531" xlink:href="#DejaVuSans-28"/>
     <use x="501.533203" xlink:href="#DejaVuSans-30"/>
     <use x="565.15625" xlink:href="#DejaVuSans-2f"/>
     <use x="598.847656" xlink:href="#DejaVuSans-30"/>
     <use x="662.470703" xlink:href="#DejaVuSans-29"/>
     <use x="701.484375" xlink:href="#DejaVuSans-3a"/>
     <use x="735.175781" xlink:href="#DejaVuSans-20"/>
     <use x="766.962891" xlink:href="#DejaVuSans-79"/>
     <use x="826.142578" xlink:href="#DejaVuSans-20"/>
     <use x="857.929688" xlink:href="#DejaVuSans-3d"/>
     <use x="941.71875" xlink:href="#DejaVuSans-20"/>
     <use x="973.505859" xlink:href="#DejaVuSans-61"/>
     <use x="1034.785156" xlink:href="#DejaVuSans-2a"/>
     <use x="1084.785156" xlink:href="#DejaVuSans-65"/>
     <use x="1146.292969" xlink:href="#DejaVuSans-78"/>
     <use x="1205.472656" xlink:href="#DejaVuSans-70"/>
     <use x="1268.949219" xlink:href="#DejaVuSans-28"/>
     <use x="1307.962891" xlink:href="#DejaVuSans-2d"/>
     <use x="1344.046875" xlink:href="#DejaVuSans-28"/>
     <use x="1383.060547" xlink:href="#DejaVuSans-78"/>
     <use x="1442.240234" xlink:href="#DejaVuSans-2d"/>
     <use x="1478.324219" xlink:href="#DejaVuSans-78"/>
     <use x="1537.503906" xlink:href="#DejaVuSans-30"/>
     <use x="1601.126953" xlink:href="#DejaVuSans-29"/>
     <use x="1640.140625" xlink:href="#DejaVuSans-2a"/>
     <use x="1690.140625" xlink:href="#DejaVuSans-2a"/>
     <use x="1740.140625" xlink:href="#DejaVuSans-32"/>
     <use x="1803.763672" xlink:href="#DejaVuSans-2f"/>
     <use x="1837.455078" xlink:href="#DejaVuSans-77"/>
     <use x="1919.242188" xlink:href="#DejaVuSans-2a"/>
     <use x="1969.242188" xlink:href="#DejaVuSans-2a"/>
     <use x="2019.242188" xlink:href="#DejaVuSans-32"/>
     <use x="2082.865234" xlink:href="#DejaVuSans-29"/>
     <use x="2121.878906" xlink:href="#DejaVuSans-2b"/>
     <use x="2205.667969" xlink:href="#DejaVuSans-62"/>
    </g>
    <!-- Fit: a=441.5$\pm$9.2, b=19.0$\pm$10.0, x0=4.57514$\pm$0.00099, -->
    <defs>
     <path d="M 37.796875 64.3125 
L 12.890625 25.390625 
L 37.796875 25.390625 
z
M 35.203125 72.90625 
L 47.609375 72.90625 
L 47.609375 25.390625 
L 58.015625 25.390625 
L 58.015625 17.1875 
L 47.609375 17.1875 
L 47.609375 0 
L 37.796875 0 
L 37.796875 17.1875 
L 4.890625 17.1875 
L 4.890625 26.703125 
z
" id="DejaVuSans-34"/>
     <path d="M 12.40625 8.296875 
L 28.515625 8.296875 
L 28.515625 63.921875 
L 10.984375 60.40625 
L 10.984375 69.390625 
L 28.421875 72.90625 
L 38.28125 72.90625 
L 38.28125 8.296875 
L 54.390625 8.296875 
L 54.390625 0 
L 12.40625 0 
z
" id="DejaVuSans-31"/>
     <path d="M 10.6875 12.40625 
L 21 12.40625 
L 21 0 
L 10.6875 0 
z
" id="DejaVuSans-2e"/>
     <path d="M 10.796875 72.90625 
L 49.515625 72.90625 
L 49.515625 64.59375 
L 19.828125 64.59375 
L 19.828125 46.734375 
Q 21.96875 47.46875 24.109375 47.828125 
Q 26.265625 48.1875 28.421875 48.1875 
Q 40.625 48.1875 47.75 41.5 
Q 54.890625 34.8125 54.890625 23.390625 
Q 54.890625 11.625 47.5625 5.09375 
Q 40.234375 -1.421875 26.90625 -1.421875 
Q 22.3125 -1.421875 17.546875 -0.640625 
Q 12.796875 0.140625 7.71875 1.703125 
L 7.71875 11.625 
Q 12.109375 9.234375 16.796875 8.0625 
Q 21.484375 6.890625 26.703125 6.890625 
Q 35.15625 6.890625 40.078125 11.328125 
Q 45.015625 15.765625 45.015625 23.390625 
Q 45.015625 31 40.078125 35.4375 
Q 35.15625 39.890625 26.703125 39.890625 
Q 22.75 39.890625 18.8125 39.015625 
Q 14.890625 38.140625 10.796875 36.28125 
z
" id="DejaVuSans-35"/>
     <path d="M 46 62.703125 
L 46 43.796875 
L 73.1875 43.796875 
L 73.1875 35.5 
L 46 35.5 
L 46 16.609375 
L 37.796875 16.609375 
L 37.796875 35.5 
L 10.59375 35.5 
L 10.59375 43.796875 
L 37.796875 43.796875 
L 37.796875 62.703125 
z
M 10.59375 8.296875 
L 73.1875 8.296875 
L 73.1875 0 
L 10.59375 0 
z
" id="DejaVuSans-b1"/>
     <path d="M 10.984375 1.515625 
L 10.984375 10.5 
Q 14.703125 8.734375 18.5 7.8125 
Q 22.3125 6.890625 25.984375 6.890625 
Q 35.75 6.890625 40.890625 13.453125 
Q 46.046875 20.015625 46.78125 33.40625 
Q 43.953125 29.203125 39.59375 26.953125 
Q 35.25 24.703125 29.984375 24.703125 
Q 19.046875 24.703125 12.671875 31.3125 
Q 6.296875 37.9375 6.296875 49.421875 
Q 6.296875 60.640625 12.9375 67.421875 
Q 19.578125 74.21875 30.609375 74.21875 
Q 43.265625 74.21875 49.921875 64.515625 
Q 56.59375 54.828125 56.59375 36.375 
Q 56.59375 19.140625 48.40625 8.859375 
Q 40.234375 -1.421875 26.421875 -1.421875 
Q 22.703125 -1.421875 18.890625 -0.6875 
Q 15.09375 0.046875 10.984375 1.515625 
z
M 30.609375 32.421875 
Q 37.25 32.421875 41.125 36.953125 
Q 45.015625 41.5 45.015625 49.421875 
Q 45.015625 57.28125 41.125 61.84375 
Q 37.25 66.40625 30.609375 66.40625 
Q 23.96875 66.40625 20.09375 61.84375 
Q 16.21875 57.28125 16.21875 49.421875 
Q 16.21875 41.5 20.09375 36.953125 
Q 23.96875 32.421875 30.609375 32.421875 
z
" id="DejaVuSans-39"/>
     <path d="M 11.71875 12.40625 
L 22.015625 12.40625 
L 22.015625 4 
L 14.015625 -11.625 
L 7.71875 -11.625 
L 11.71875 4 
z
" id="DejaVuSans-2c"/>
     <path d="M 8.203125 72.90625 
L 55.078125 72.90625 
L 55.078125 68.703125 
L 28.609375 0 
L 18.3125 0 
L 43.21875 64.59375 
L 8.203125 64.59375 
z
" id="DejaVuSans-37"/>
    </defs>
    <g transform="translate(147.528 45.888588)scale(0.1 -0.1)">
     <use transform="translate(0 0.015625)" xlink:href="#DejaVuSans-46"/>
     <use transform="translate(57.519531 0.015625)" xlink:href="#DejaVuSans-69"/>
     <use transform="translate(85.302734 0.015625)" xlink:href="#DejaVuSans-74"/>
     <use transform="translate(124.511719 0.015625)" xlink:href="#DejaVuSans-3a"/>
     <use transform="translate(158.203125 0.015625)" xlink:href="#DejaVuSans-20"/>
     <use transform="translate(189.990234 0.015625)" xlink:href="#DejaVuSans-61"/>
     <use transform="translate(251.269531 0.015625)" xlink:href="#DejaVuSans-3d"/>
     <use transform="translate(335.058594 0.015625)" xlink:href="#DejaVuSans-34"/>
     <use transform="translate(398.681641 0.015625)" xlink:href="#DejaVuSans-34"/>
     <use transform="translate(462.304688 0.015625)" xlink:href="#DejaVuSans-31"/>
     <use transform="translate(525.927734 0.015625)" xlink:href="#DejaVuSans-2e"/>
     <use transform="translate(557.714844 0.015625)" xlink:href="#DejaVuSans-35"/>
     <use transform="translate(621.337891 0.015625)" xlink:href="#DejaVuSans-b1"/>
     <use transform="translate(705.126953 0.015625)" xlink:href="#DejaVuSans-39"/>
     <use transform="translate(768.75 0.015625)" xlink:href="#DejaVuSans-2e"/>
     <use transform="translate(800.458984 0.015625)" xlink:href="#DejaVuSans-32"/>
     <use transform="translate(864.082031 0.015625)" xlink:href="#DejaVuSans-2c"/>
     <use transform="translate(895.869141 0.015625)" xlink:href="#DejaVuSans-20"/>
     <use transform="translate(927.65625 0.015625)" xlink:href="#DejaVuSans-62"/>
     <use transform="translate(991.132812 0.015625)" xlink:href="#DejaVuSans-3d"/>
     <use transform="translate(1074.921875 0.015625)" xlink:href="#DejaVuSans-31"/>
     <use transform="translate(1138.544922 0.015625)" xlink:href="#DejaVuSans-39"/>
     <use transform="translate(1202.167969 0.015625)" xlink:href="#DejaVuSans-2e"/>
     <use transform="translate(1233.955078 0.015625)" xlink:href="#DejaVuSans-30"/>
     <use transform="translate(1297.578125 0.015625)" xlink:href="#DejaVuSans-b1"/>
     <use transform="translate(1381.367188 0.015625)" xlink:href="#DejaVuSans-31"/>
     <use transform="translate(1444.990234 0.015625)" xlink:href="#DejaVuSans-30"/>
     <use transform="translate(1508.613281 0.015625)" xlink:href="#DejaVuSans-2e"/>
     <use transform="translate(1540.400391 0.015625)" xlink:href="#DejaVuSans-30"/>
     <use transform="translate(1604.023438 0.015625)" xlink:href="#DejaVuSans-2c"/>
     <use transform="translate(1635.810547 0.015625)" xlink:href="#DejaVuSans-20"/>
     <use transform="translate(1667.597656 0.015625)" xlink:href="#DejaVuSans-78"/>
     <use transform="translate(1726.777344 0.015625)" xlink:href="#DejaVuSans-30"/>
     <use transform="translate(1790.400391 0.015625)" xlink:href="#DejaVuSans-3d"/>
     <use transform="translate(1874.189453 0.015625)" xlink:href="#DejaVuSans-34"/>
     <use transform="translate(1937.8125 0.015625)" xlink:href="#DejaVuSans-2e"/>
     <use transform="translate(1969.599609 0.015625)" xlink:href="#DejaVuSans-35"/>
     <use transform="translate(2033.113281 0.015625)" xlink:href="#DejaVuSans-37"/>
     <use transform="translate(2096.736328 0.015625)" xlink:href="#DejaVuSans-35"/>
     <use transform="translate(2160.359375 0.015625)" xlink:href="#DejaVuSans-31"/>
     <use transform="translate(2223.982422 0.015625)" xlink:href="#DejaVuSans-34"/>
     <use transform="translate(2287.605469 0.015625)" xlink:href="#DejaVuSans-b1"/>
     <use transform="translate(2371.394531 0.015625)" xlink:href="#DejaVuSans-30"/>
     <use transform="translate(2435.017578 0.015625)" xlink:href="#DejaVuSans-2e"/>
     <use transform="translate(2466.804688 0.015625)" xlink:href="#DejaVuSans-30"/>
     <use transform="translate(2530.427734 0.015625)" xlink:href="#DejaVuSans-30"/>
     <use transform="translate(2594.050781 0.015625)" xlink:href="#DejaVuSans-30"/>
     <use transform="translate(2657.673828 0.015625)" xlink:href="#DejaVuSans-39"/>
     <use transform="translate(2721.296875 0.015625)" xlink:href="#DejaVuSans-39"/>
     <use transform="translate(2784.919922 0.015625)" xlink:href="#DejaVuSans-2c"/>
    </g>
    <!--       w=0.1696$\pm$0.0048, -->
    <defs>
     <path d="M 33.015625 40.375 
Q 26.375 40.375 22.484375 35.828125 
Q 18.609375 31.296875 18.609375 23.390625 
Q 18.609375 15.53125 22.484375 10.953125 
Q 26.375 6.390625 33.015625 6.390625 
Q 39.65625 6.390625 43.53125 10.953125 
Q 47.40625 15.53125 47.40625 23.390625 
Q 47.40625 31.296875 43.53125 35.828125 
Q 39.65625 40.375 33.015625 40.375 
z
M 52.59375 71.296875 
L 52.59375 62.3125 
Q 48.875 64.0625 45.09375 64.984375 
Q 41.3125 65.921875 37.59375 65.921875 
Q 27.828125 65.921875 22.671875 59.328125 
Q 17.53125 52.734375 16.796875 39.40625 
Q 19.671875 43.65625 24.015625 45.921875 
Q 28.375 48.1875 33.59375 48.1875 
Q 44.578125 48.1875 50.953125 41.515625 
Q 57.328125 34.859375 57.328125 23.390625 
Q 57.328125 12.15625 50.6875 5.359375 
Q 44.046875 -1.421875 33.015625 -1.421875 
Q 20.359375 -1.421875 13.671875 8.265625 
Q 6.984375 17.96875 6.984375 36.375 
Q 6.984375 53.65625 15.1875 63.9375 
Q 23.390625 74.21875 37.203125 74.21875 
Q 40.921875 74.21875 44.703125 73.484375 
Q 48.484375 72.75 52.59375 71.296875 
z
" id="DejaVuSans-36"/>
     <path d="M 31.78125 34.625 
Q 24.75 34.625 20.71875 30.859375 
Q 16.703125 27.09375 16.703125 20.515625 
Q 16.703125 13.921875 20.71875 10.15625 
Q 24.75 6.390625 31.78125 6.390625 
Q 38.8125 6.390625 42.859375 10.171875 
Q 46.921875 13.96875 46.921875 20.515625 
Q 46.921875 27.09375 42.890625 30.859375 
Q 38.875 34.625 31.78125 34.625 
z
M 21.921875 38.8125 
Q 15.578125 40.375 12.03125 44.71875 
Q 8.5 49.078125 8.5 55.328125 
Q 8.5 64.0625 14.71875 69.140625 
Q 20.953125 74.21875 31.78125 74.21875 
Q 42.671875 74.21875 48.875 69.140625 
Q 55.078125 64.0625 55.078125 55.328125 
Q 55.078125 49.078125 51.53125 44.71875 
Q 48 40.375 41.703125 38.8125 
Q 48.828125 37.15625 52.796875 32.3125 
Q 56.78125 27.484375 56.78125 20.515625 
Q 56.78125 9.90625 50.3125 4.234375 
Q 43.84375 -1.421875 31.78125 -1.421875 
Q 19.734375 -1.421875 13.25 4.234375 
Q 6.78125 9.90625 6.78125 20.515625 
Q 6.78125 27.484375 10.78125 32.3125 
Q 14.796875 37.15625 21.921875 38.8125 
z
M 18.3125 54.390625 
Q 18.3125 48.734375 21.84375 45.5625 
Q 25.390625 42.390625 31.78125 42.390625 
Q 38.140625 42.390625 41.71875 45.5625 
Q 45.3125 48.734375 45.3125 54.390625 
Q 45.3125 60.0625 41.71875 63.234375 
Q 38.140625 66.40625 31.78125 66.40625 
Q 25.390625 66.40625 21.84375 63.234375 
Q 18.3125 60.0625 18.3125 54.390625 
z
" id="DejaVuSans-38"/>
    </defs>
    <g transform="translate(147.528 57.0864)scale(0.1 -0.1)">
     <use transform="translate(0 0.78125)" xlink:href="#DejaVuSans-20"/>
     <use transform="translate(31.787109 0.78125)" xlink:href="#DejaVuSans-20"/>
     <use transform="translate(63.574219 0.78125)" xlink:href="#DejaVuSans-20"/>
     <use transform="translate(95.361328 0.78125)" xlink:href="#DejaVuSans-20"/>
     <use transform="translate(127.148438 0.78125)" xlink:href="#DejaVuSans-20"/>
     <use transform="translate(158.935547 0.78125)" xlink:href="#DejaVuSans-20"/>
     <use transform="translate(190.722656 0.78125)" xlink:href="#DejaVuSans-77"/>
     <use transform="translate(272.509766 0.78125)" xlink:href="#DejaVuSans-3d"/>
     <use transform="translate(356.298828 0.78125)" xlink:href="#DejaVuSans-30"/>
     <use transform="translate(419.921875 0.78125)" xlink:href="#DejaVuSans-2e"/>
     <use transform="translate(451.708984 0.78125)" xlink:href="#DejaVuSans-31"/>
     <use transform="translate(515.332031 0.78125)" xlink:href="#DejaVuSans-36"/>
     <use transform="translate(578.955078 0.78125)" xlink:href="#DejaVuSans-39"/>
     <use transform="translate(642.578125 0.78125)" xlink:href="#DejaVuSans-36"/>
     <use transform="translate(706.201172 0.78125)" xlink:href="#DejaVuSans-b1"/>
     <use transform="translate(789.990234 0.78125)" xlink:href="#DejaVuSans-30"/>
     <use transform="translate(853.613281 0.78125)" xlink:href="#DejaVuSans-2e"/>
     <use transform="translate(885.400391 0.78125)" xlink:href="#DejaVuSans-30"/>
     <use transform="translate(949.023438 0.78125)" xlink:href="#DejaVuSans-30"/>
     <use transform="translate(1012.646484 0.78125)" xlink:href="#DejaVuSans-34"/>
     <use transform="translate(1076.269531 0.78125)" xlink:href="#DejaVuSans-38"/>
     <use transform="translate(1139.892578 0.78125)" xlink:href="#DejaVuSans-2c"/>
    </g>
   </g>
  </g>
  <g id="axes_2">
   <g id="patch_7">
    <path d="M 147.528 436.752 
L 885.168 436.752 
L 885.168 145.584 
L 147.528 145.584 
z
" style="fill:#ffffff;"/>
   </g>
   <g id="matplotlib.axis_3">
    <g id="xtick_6">
     <g id="line2d_10">
      <g>
       <use style="stroke:#000000;stroke-width:0.8;" x="279.484881" xlink:href="#mdbf9a633ca" y="436.752"/>
      </g>
     </g>
     <g id="text_5">
      <!-- 4.4 -->
      <g transform="translate(269.943006 452.870125)scale(0.12 -0.12)">
       <use xlink:href="#DejaVuSans-34"/>
       <use x="63.623047" xlink:href="#DejaVuSans-2e"/>
       <use x="95.410156" xlink:href="#DejaVuSans-34"/>
      </g>
     </g>
    </g>
    <g id="xtick_7">
     <g id="line2d_11">
      <g>
       <use style="stroke:#000000;stroke-width:0.8;" x="421.229679" xlink:href="#mdbf9a633ca" y="436.752"/>
      </g>
     </g>
     <g id="text_6">
      <!-- 4.5 -->
      <g transform="translate(411.687804 452.870125)scale(0.12 -0.12)">
       <use xlink:href="#DejaVuSans-34"/>
       <use x="63.623047" xlink:href="#DejaVuSans-2e"/>
       <use x="95.410156" xlink:href="#DejaVuSans-35"/>
      </g>
     </g>
    </g>
    <g id="xtick_8">
     <g id="line2d_12">
      <g>
       <use style="stroke:#000000;stroke-width:0.8;" x="562.974476" xlink:href="#mdbf9a633ca" y="436.752"/>
      </g>
     </g>
     <g id="text_7">
      <!-- 4.6 -->
      <g transform="translate(553.432601 452.870125)scale(0.12 -0.12)">
       <use xlink:href="#DejaVuSans-34"/>
       <use x="63.623047" xlink:href="#DejaVuSans-2e"/>
       <use x="95.410156" xlink:href="#DejaVuSans-36"/>
      </g>
     </g>
    </g>
    <g id="xtick_9">
     <g id="line2d_13">
      <g>
       <use style="stroke:#000000;stroke-width:0.8;" x="704.719273" xlink:href="#mdbf9a633ca" y="436.752"/>
      </g>
     </g>
     <g id="text_8">
      <!-- 4.7 -->
      <g transform="translate(695.177398 452.870125)scale(0.12 -0.12)">
       <use xlink:href="#DejaVuSans-34"/>
       <use x="63.623047" xlink:href="#DejaVuSans-2e"/>
       <use x="95.410156" xlink:href="#DejaVuSans-37"/>
      </g>
     </g>
    </g>
    <g id="xtick_10">
     <g id="line2d_14">
      <g>
       <use style="stroke:#000000;stroke-width:0.8;" x="846.464071" xlink:href="#mdbf9a633ca" y="436.752"/>
      </g>
     </g>
     <g id="text_9">
      <!-- 4.8 -->
      <g transform="translate(836.922196 452.870125)scale(0.12 -0.12)">
       <use xlink:href="#DejaVuSans-34"/>
       <use x="63.623047" xlink:href="#DejaVuSans-2e"/>
       <use x="95.410156" xlink:href="#DejaVuSans-38"/>
      </g>
     </g>
    </g>
    <g id="text_10">
     <!-- Energy [MeV] -->
     <defs>
      <path d="M 9.8125 72.90625 
L 55.90625 72.90625 
L 55.90625 64.59375 
L 19.671875 64.59375 
L 19.671875 43.015625 
L 54.390625 43.015625 
L 54.390625 34.71875 
L 19.671875 34.71875 
L 19.671875 8.296875 
L 56.78125 8.296875 
L 56.78125 0 
L 9.8125 0 
z
" id="DejaVuSans-45"/>
      <path d="M 41.109375 46.296875 
Q 39.59375 47.171875 37.8125 47.578125 
Q 36.03125 48 33.890625 48 
Q 26.265625 48 22.1875 43.046875 
Q 18.109375 38.09375 18.109375 28.8125 
L 18.109375 0 
L 9.078125 0 
L 9.078125 54.6875 
L 18.109375 54.6875 
L 18.109375 46.1875 
Q 20.953125 51.171875 25.484375 53.578125 
Q 30.03125 56 36.53125 56 
Q 37.453125 56 38.578125 55.875 
Q 39.703125 55.765625 41.0625 55.515625 
z
" id="DejaVuSans-72"/>
      <path d="M 45.40625 27.984375 
Q 45.40625 37.75 41.375 43.109375 
Q 37.359375 48.484375 30.078125 48.484375 
Q 22.859375 48.484375 18.828125 43.109375 
Q 14.796875 37.75 14.796875 27.984375 
Q 14.796875 18.265625 18.828125 12.890625 
Q 22.859375 7.515625 30.078125 7.515625 
Q 37.359375 7.515625 41.375 12.890625 
Q 45.40625 18.265625 45.40625 27.984375 
z
M 54.390625 6.78125 
Q 54.390625 -7.171875 48.1875 -13.984375 
Q 42 -20.796875 29.203125 -20.796875 
Q 24.46875 -20.796875 20.265625 -20.09375 
Q 16.0625 -19.390625 12.109375 -17.921875 
L 12.109375 -9.1875 
Q 16.0625 -11.328125 19.921875 -12.34375 
Q 23.78125 -13.375 27.78125 -13.375 
Q 36.625 -13.375 41.015625 -8.765625 
Q 45.40625 -4.15625 45.40625 5.171875 
L 45.40625 9.625 
Q 42.625 4.78125 38.28125 2.390625 
Q 33.9375 0 27.875 0 
Q 17.828125 0 11.671875 7.65625 
Q 5.515625 15.328125 5.515625 27.984375 
Q 5.515625 40.671875 11.671875 48.328125 
Q 17.828125 56 27.875 56 
Q 33.9375 56 38.28125 53.609375 
Q 42.625 51.21875 45.40625 46.390625 
L 45.40625 54.6875 
L 54.390625 54.6875 
z
" id="DejaVuSans-67"/>
      <path d="M 8.59375 75.984375 
L 29.296875 75.984375 
L 29.296875 69 
L 17.578125 69 
L 17.578125 -6.203125 
L 29.296875 -6.203125 
L 29.296875 -13.1875 
L 8.59375 -13.1875 
z
" id="DejaVuSans-5b"/>
      <path d="M 9.8125 72.90625 
L 24.515625 72.90625 
L 43.109375 23.296875 
L 61.8125 72.90625 
L 76.515625 72.90625 
L 76.515625 0 
L 66.890625 0 
L 66.890625 64.015625 
L 48.09375 14.015625 
L 38.1875 14.015625 
L 19.390625 64.015625 
L 19.390625 0 
L 9.8125 0 
z
" id="DejaVuSans-4d"/>
      <path d="M 28.609375 0 
L 0.78125 72.90625 
L 11.078125 72.90625 
L 34.1875 11.53125 
L 57.328125 72.90625 
L 67.578125 72.90625 
L 39.796875 0 
z
" id="DejaVuSans-56"/>
      <path d="M 30.421875 75.984375 
L 30.421875 -13.1875 
L 9.71875 -13.1875 
L 9.71875 -6.203125 
L 21.390625 -6.203125 
L 21.390625 69 
L 9.71875 69 
L 9.71875 75.984375 
z
" id="DejaVuSans-5d"/>
     </defs>
     <g transform="translate(475.674562 468.483875)scale(0.12 -0.12)">
      <use xlink:href="#DejaVuSans-45"/>
      <use x="63.183594" xlink:href="#DejaVuSans-6e"/>
      <use x="126.5625" xlink:href="#DejaVuSans-65"/>
      <use x="188.085938" xlink:href="#DejaVuSans-72"/>
      <use x="229.183594" xlink:href="#DejaVuSans-67"/>
      <use x="292.660156" xlink:href="#DejaVuSans-79"/>
      <use x="351.839844" xlink:href="#DejaVuSans-20"/>
      <use x="383.626953" xlink:href="#DejaVuSans-5b"/>
      <use x="422.640625" xlink:href="#DejaVuSans-4d"/>
      <use x="508.919922" xlink:href="#DejaVuSans-65"/>
      <use x="570.443359" xlink:href="#DejaVuSans-56"/>
      <use x="638.851562" xlink:href="#DejaVuSans-5d"/>
     </g>
    </g>
   </g>
   <g id="matplotlib.axis_4">
    <g id="ytick_3">
     <g id="line2d_15">
      <g>
       <use style="stroke:#000000;stroke-width:0.8;" x="147.528" xlink:href="#mdbe1eddaa7" y="410.06938"/>
      </g>
     </g>
     <g id="text_11">
      <!-- 100 -->
      <g transform="translate(117.623 414.628443)scale(0.12 -0.12)">
       <use xlink:href="#DejaVuSans-31"/>
       <use x="63.623047" xlink:href="#DejaVuSans-30"/>
       <use x="127.246094" xlink:href="#DejaVuSans-30"/>
      </g>
     </g>
    </g>
    <g id="ytick_4">
     <g id="line2d_16">
      <g>
       <use style="stroke:#000000;stroke-width:0.8;" x="147.528" xlink:href="#mdbe1eddaa7" y="376.242529"/>
      </g>
     </g>
     <g id="text_12">
      <!-- 150 -->
      <g transform="translate(117.623 380.801592)scale(0.12 -0.12)">
       <use xlink:href="#DejaVuSans-31"/>
       <use x="63.623047" xlink:href="#DejaVuSans-35"/>
       <use x="127.246094" xlink:href="#DejaVuSans-30"/>
      </g>
     </g>
    </g>
    <g id="ytick_5">
     <g id="line2d_17">
      <g>
       <use style="stroke:#000000;stroke-width:0.8;" x="147.528" xlink:href="#mdbe1eddaa7" y="342.415679"/>
      </g>
     </g>
     <g id="text_13">
      <!-- 200 -->
      <g transform="translate(117.623 346.974741)scale(0.12 -0.12)">
       <use xlink:href="#DejaVuSans-32"/>
       <use x="63.623047" xlink:href="#DejaVuSans-30"/>
       <use x="127.246094" xlink:href="#DejaVuSans-30"/>
      </g>
     </g>
    </g>
    <g id="ytick_6">
     <g id="line2d_18">
      <g>
       <use style="stroke:#000000;stroke-width:0.8;" x="147.528" xlink:href="#mdbe1eddaa7" y="308.588828"/>
      </g>
     </g>
     <g id="text_14">
      <!-- 250 -->
      <g transform="translate(117.623 313.147891)scale(0.12 -0.12)">
       <use xlink:href="#DejaVuSans-32"/>
       <use x="63.623047" xlink:href="#DejaVuSans-35"/>
       <use x="127.246094" xlink:href="#DejaVuSans-30"/>
      </g>
     </g>
    </g>
    <g id="ytick_7">
     <g id="line2d_19">
      <g>
       <use style="stroke:#000000;stroke-width:0.8;" x="147.528" xlink:href="#mdbe1eddaa7" y="274.761977"/>
      </g>
     </g>
     <g id="text_15">
      <!-- 300 -->
      <defs>
       <path d="M 40.578125 39.3125 
Q 47.65625 37.796875 51.625 33 
Q 55.609375 28.21875 55.609375 21.1875 
Q 55.609375 10.40625 48.1875 4.484375 
Q 40.765625 -1.421875 27.09375 -1.421875 
Q 22.515625 -1.421875 17.65625 -0.515625 
Q 12.796875 0.390625 7.625 2.203125 
L 7.625 11.71875 
Q 11.71875 9.328125 16.59375 8.109375 
Q 21.484375 6.890625 26.8125 6.890625 
Q 36.078125 6.890625 40.9375 10.546875 
Q 45.796875 14.203125 45.796875 21.1875 
Q 45.796875 27.640625 41.28125 31.265625 
Q 36.765625 34.90625 28.71875 34.90625 
L 20.21875 34.90625 
L 20.21875 43.015625 
L 29.109375 43.015625 
Q 36.375 43.015625 40.234375 45.921875 
Q 44.09375 48.828125 44.09375 54.296875 
Q 44.09375 59.90625 40.109375 62.90625 
Q 36.140625 65.921875 28.71875 65.921875 
Q 24.65625 65.921875 20.015625 65.03125 
Q 15.375 64.15625 9.8125 62.3125 
L 9.8125 71.09375 
Q 15.4375 72.65625 20.34375 73.4375 
Q 25.25 74.21875 29.59375 74.21875 
Q 40.828125 74.21875 47.359375 69.109375 
Q 53.90625 64.015625 53.90625 55.328125 
Q 53.90625 49.265625 50.4375 45.09375 
Q 46.96875 40.921875 40.578125 39.3125 
z
" id="DejaVuSans-33"/>
      </defs>
      <g transform="translate(117.623 279.32104)scale(0.12 -0.12)">
       <use xlink:href="#DejaVuSans-33"/>
       <use x="63.623047" xlink:href="#DejaVuSans-30"/>
       <use x="127.246094" xlink:href="#DejaVuSans-30"/>
      </g>
     </g>
    </g>
    <g id="ytick_8">
     <g id="line2d_20">
      <g>
       <use style="stroke:#000000;stroke-width:0.8;" x="147.528" xlink:href="#mdbe1eddaa7" y="240.935127"/>
      </g>
     </g>
     <g id="text_16">
      <!-- 350 -->
      <g transform="translate(117.623 245.494189)scale(0.12 -0.12)">
       <use xlink:href="#DejaVuSans-33"/>
       <use x="63.623047" xlink:href="#DejaVuSans-35"/>
       <use x="127.246094" xlink:href="#DejaVuSans-30"/>
      </g>
     </g>
    </g>
    <g id="ytick_9">
     <g id="line2d_21">
      <g>
       <use style="stroke:#000000;stroke-width:0.8;" x="147.528" xlink:href="#mdbe1eddaa7" y="207.108276"/>
      </g>
     </g>
     <g id="text_17">
      <!-- 400 -->
      <g transform="translate(117.623 211.667339)scale(0.12 -0.12)">
       <use xlink:href="#DejaVuSans-34"/>
       <use x="63.623047" xlink:href="#DejaVuSans-30"/>
       <use x="127.246094" xlink:href="#DejaVuSans-30"/>
      </g>
     </g>
    </g>
    <g id="ytick_10">
     <g id="line2d_22">
      <g>
       <use style="stroke:#000000;stroke-width:0.8;" x="147.528" xlink:href="#mdbe1eddaa7" y="173.281425"/>
      </g>
     </g>
     <g id="text_18">
      <!-- 450 -->
      <g transform="translate(117.623 177.840488)scale(0.12 -0.12)">
       <use xlink:href="#DejaVuSans-34"/>
       <use x="63.623047" xlink:href="#DejaVuSans-35"/>
       <use x="127.246094" xlink:href="#DejaVuSans-30"/>
      </g>
     </g>
    </g>
    <g id="text_19">
     <!-- Counts -->
     <defs>
      <path d="M 64.40625 67.28125 
L 64.40625 56.890625 
Q 59.421875 61.53125 53.78125 63.8125 
Q 48.140625 66.109375 41.796875 66.109375 
Q 29.296875 66.109375 22.65625 58.46875 
Q 16.015625 50.828125 16.015625 36.375 
Q 16.015625 21.96875 22.65625 14.328125 
Q 29.296875 6.6875 41.796875 6.6875 
Q 48.140625 6.6875 53.78125 8.984375 
Q 59.421875 11.28125 64.40625 15.921875 
L 64.40625 5.609375 
Q 59.234375 2.09375 53.4375 0.328125 
Q 47.65625 -1.421875 41.21875 -1.421875 
Q 24.65625 -1.421875 15.125 8.703125 
Q 5.609375 18.84375 5.609375 36.375 
Q 5.609375 53.953125 15.125 64.078125 
Q 24.65625 74.21875 41.21875 74.21875 
Q 47.75 74.21875 53.53125 72.484375 
Q 59.328125 70.75 64.40625 67.28125 
z
" id="DejaVuSans-43"/>
     </defs>
     <g transform="translate(111.127375 312.11175)rotate(-90)scale(0.12 -0.12)">
      <use xlink:href="#DejaVuSans-43"/>
      <use x="69.824219" xlink:href="#DejaVuSans-6f"/>
      <use x="131.005859" xlink:href="#DejaVuSans-75"/>
      <use x="194.384766" xlink:href="#DejaVuSans-6e"/>
      <use x="257.763672" xlink:href="#DejaVuSans-74"/>
      <use x="296.972656" xlink:href="#DejaVuSans-73"/>
     </g>
    </g>
   </g>
   <g id="LineCollection_2">
    <path clip-path="url(#p5ae3ddee90)" d="M 174.848 431.885282 
L 174.848 420.050718 
" style="fill:none;stroke:#0000ff;stroke-width:1.5;"/>
    <path clip-path="url(#p5ae3ddee90)" d="M 191.712198 423.893725 
L 191.712198 411.12885 
" style="fill:none;stroke:#0000ff;stroke-width:1.5;"/>
    <path clip-path="url(#p5ae3ddee90)" d="M 200.144296 424.534304 
L 200.144296 411.841345 
" style="fill:none;stroke:#0000ff;stroke-width:1.5;"/>
    <path clip-path="url(#p5ae3ddee90)" d="M 208.576395 420.367025 
L 208.576395 407.213642 
" style="fill:none;stroke:#0000ff;stroke-width:1.5;"/>
    <path clip-path="url(#p5ae3ddee90)" d="M 217.008494 416.191956 
L 217.008494 402.59373 
" style="fill:none;stroke:#0000ff;stroke-width:1.5;"/>
    <path clip-path="url(#p5ae3ddee90)" d="M 225.440593 416.83475 
L 225.440593 403.30401 
" style="fill:none;stroke:#0000ff;stroke-width:1.5;"/>
    <path clip-path="url(#p5ae3ddee90)" d="M 233.872691 394.574933 
L 233.872691 378.882774 
" style="fill:none;stroke:#0000ff;stroke-width:1.5;"/>
    <path clip-path="url(#p5ae3ddee90)" d="M 242.30479 400.073527 
L 242.30479 384.885309 
" style="fill:none;stroke:#0000ff;stroke-width:1.5;"/>
    <path clip-path="url(#p5ae3ddee90)" d="M 250.736889 384.528382 
L 250.736889 367.956677 
" style="fill:none;stroke:#0000ff;stroke-width:1.5;"/>
    <path clip-path="url(#p5ae3ddee90)" d="M 259.168988 382.256613 
L 259.168988 365.492687 
" style="fill:none;stroke:#0000ff;stroke-width:1.5;"/>
    <path clip-path="url(#p5ae3ddee90)" d="M 267.601086 375.434912 
L 267.601086 358.10711 
" style="fill:none;stroke:#0000ff;stroke-width:1.5;"/>
    <path clip-path="url(#p5ae3ddee90)" d="M 276.033185 375.434912 
L 276.033185 358.10711 
" style="fill:none;stroke:#0000ff;stroke-width:1.5;"/>
    <path clip-path="url(#p5ae3ddee90)" d="M 284.465284 357.528401 
L 284.465284 338.804086 
" style="fill:none;stroke:#0000ff;stroke-width:1.5;"/>
    <path clip-path="url(#p5ae3ddee90)" d="M 292.897383 354.26715 
L 292.897383 335.299967 
" style="fill:none;stroke:#0000ff;stroke-width:1.5;"/>
    <path clip-path="url(#p5ae3ddee90)" d="M 301.329481 342.841044 
L 301.329481 323.047277 
" style="fill:none;stroke:#0000ff;stroke-width:1.5;"/>
    <path clip-path="url(#p5ae3ddee90)" d="M 309.76158 350.025236 
L 309.76158 330.746899 
" style="fill:none;stroke:#0000ff;stroke-width:1.5;"/>
    <path clip-path="url(#p5ae3ddee90)" d="M 318.193679 346.43399 
L 318.193679 326.896238 
" style="fill:none;stroke:#0000ff;stroke-width:1.5;"/>
    <path clip-path="url(#p5ae3ddee90)" d="M 326.625778 337.612039 
L 326.625778 317.45169 
" style="fill:none;stroke:#0000ff;stroke-width:1.5;"/>
    <path clip-path="url(#p5ae3ddee90)" d="M 335.057877 330.089653 
L 335.057877 309.413725 
" style="fill:none;stroke:#0000ff;stroke-width:1.5;"/>
    <path clip-path="url(#p5ae3ddee90)" d="M 343.489975 314.371059 
L 343.489975 292.658542 
" style="fill:none;stroke:#0000ff;stroke-width:1.5;"/>
    <path clip-path="url(#p5ae3ddee90)" d="M 351.922074 304.862748 
L 351.922074 282.54728 
" style="fill:none;stroke:#0000ff;stroke-width:1.5;"/>
    <path clip-path="url(#p5ae3ddee90)" d="M 360.354173 290.092984 
L 360.354173 266.872878 
" style="fill:none;stroke:#0000ff;stroke-width:1.5;"/>
    <path clip-path="url(#p5ae3ddee90)" d="M 368.786272 281.880104 
L 368.786272 258.172332 
" style="fill:none;stroke:#0000ff;stroke-width:1.5;"/>
    <path clip-path="url(#p5ae3ddee90)" d="M 377.21837 287.465416 
L 377.21837 264.08815 
" style="fill:none;stroke:#0000ff;stroke-width:1.5;"/>
    <path clip-path="url(#p5ae3ddee90)" d="M 385.650469 265.110894 
L 385.650469 240.438154 
" style="fill:none;stroke:#0000ff;stroke-width:1.5;"/>
    <path clip-path="url(#p5ae3ddee90)" d="M 394.082568 243.05345 
L 394.082568 217.167619 
" style="fill:none;stroke:#0000ff;stroke-width:1.5;"/>
    <path clip-path="url(#p5ae3ddee90)" d="M 402.514667 259.187905 
L 402.514667 234.183478 
" style="fill:none;stroke:#0000ff;stroke-width:1.5;"/>
    <path clip-path="url(#p5ae3ddee90)" d="M 410.946765 240.417836 
L 410.946765 214.390937 
" style="fill:none;stroke:#0000ff;stroke-width:1.5;"/>
    <path clip-path="url(#p5ae3ddee90)" d="M 419.378864 228.223269 
L 419.378864 201.553634 
" style="fill:none;stroke:#0000ff;stroke-width:1.5;"/>
    <path clip-path="url(#p5ae3ddee90)" d="M 427.810963 224.266624 
L 427.810963 197.391835 
" style="fill:none;stroke:#0000ff;stroke-width:1.5;"/>
    <path clip-path="url(#p5ae3ddee90)" d="M 436.243062 217.340636 
L 436.243062 190.110546 
" style="fill:none;stroke:#0000ff;stroke-width:1.5;"/>
    <path clip-path="url(#p5ae3ddee90)" d="M 444.67516 221.958221 
L 444.67516 194.964479 
" style="fill:none;stroke:#0000ff;stroke-width:1.5;"/>
    <path clip-path="url(#p5ae3ddee90)" d="M 453.107259 207.112401 
L 453.107259 179.366134 
" style="fill:none;stroke:#0000ff;stroke-width:1.5;"/>
    <path clip-path="url(#p5ae3ddee90)" d="M 461.539358 191.265923 
L 461.539358 162.738835 
" style="fill:none;stroke:#0000ff;stroke-width:1.5;"/>
    <path clip-path="url(#p5ae3ddee90)" d="M 469.971457 225.585593 
L 469.971457 198.779014 
" style="fill:none;stroke:#0000ff;stroke-width:1.5;"/>
    <path clip-path="url(#p5ae3ddee90)" d="M 478.403556 188.623809 
L 478.403556 159.968653 
" style="fill:none;stroke:#0000ff;stroke-width:1.5;"/>
    <path clip-path="url(#p5ae3ddee90)" d="M 486.835654 183.999426 
L 486.835654 155.121517 
" style="fill:none;stroke:#0000ff;stroke-width:1.5;"/>
    <path clip-path="url(#p5ae3ddee90)" d="M 495.267753 189.614635 
L 495.267753 161.007437 
" style="fill:none;stroke:#0000ff;stroke-width:1.5;"/>
    <path clip-path="url(#p5ae3ddee90)" d="M 503.699852 183.669081 
L 503.699852 154.775326 
" style="fill:none;stroke:#0000ff;stroke-width:1.5;"/>
    <path clip-path="url(#p5ae3ddee90)" d="M 512.131951 171.112782 
L 512.131951 141.623218 
" style="fill:none;stroke:#0000ff;stroke-width:1.5;"/>
    <path clip-path="url(#p5ae3ddee90)" d="M 520.564049 173.756716 
L 520.564049 144.39158 
" style="fill:none;stroke:#0000ff;stroke-width:1.5;"/>
    <path clip-path="url(#p5ae3ddee90)" d="M 528.996148 183.33873 
L 528.996148 154.429139 
" style="fill:none;stroke:#0000ff;stroke-width:1.5;"/>
    <path clip-path="url(#p5ae3ddee90)" d="M 537.428247 192.917098 
L 537.428247 164.470345 
" style="fill:none;stroke:#0000ff;stroke-width:1.5;"/>
    <path clip-path="url(#p5ae3ddee90)" d="M 545.860346 177.722119 
L 545.860346 148.544622 
" style="fill:none;stroke:#0000ff;stroke-width:1.5;"/>
    <path clip-path="url(#p5ae3ddee90)" d="M 554.292444 183.669081 
L 554.292444 154.775326 
" style="fill:none;stroke:#0000ff;stroke-width:1.5;"/>
    <path clip-path="url(#p5ae3ddee90)" d="M 562.724543 178.38296 
L 562.724543 149.236854 
" style="fill:none;stroke:#0000ff;stroke-width:1.5;"/>
    <path clip-path="url(#p5ae3ddee90)" d="M 571.156642 195.228551 
L 571.156642 166.894651 
" style="fill:none;stroke:#0000ff;stroke-width:1.5;"/>
    <path clip-path="url(#p5ae3ddee90)" d="M 579.588741 202.821723 
L 579.588741 174.86183 
" style="fill:none;stroke:#0000ff;stroke-width:1.5;"/>
    <path clip-path="url(#p5ae3ddee90)" d="M 588.02084 200.180902 
L 588.02084 172.090355 
" style="fill:none;stroke:#0000ff;stroke-width:1.5;"/>
    <path clip-path="url(#p5ae3ddee90)" d="M 596.452938 198.530235 
L 596.452938 170.358337 
" style="fill:none;stroke:#0000ff;stroke-width:1.5;"/>
    <path clip-path="url(#p5ae3ddee90)" d="M 604.885037 213.381895 
L 604.885037 185.950843 
" style="fill:none;stroke:#0000ff;stroke-width:1.5;"/>
    <path clip-path="url(#p5ae3ddee90)" d="M 613.317136 212.062152 
L 613.317136 184.564438 
" style="fill:none;stroke:#0000ff;stroke-width:1.5;"/>
    <path clip-path="url(#p5ae3ddee90)" d="M 621.749235 209.422424 
L 621.749235 181.79187 
" style="fill:none;stroke:#0000ff;stroke-width:1.5;"/>
    <path clip-path="url(#p5ae3ddee90)" d="M 630.181333 218.660051 
L 630.181333 191.497279 
" style="fill:none;stroke:#0000ff;stroke-width:1.5;"/>
    <path clip-path="url(#p5ae3ddee90)" d="M 638.613432 227.563883 
L 638.613432 200.859946 
" style="fill:none;stroke:#0000ff;stroke-width:1.5;"/>
    <path clip-path="url(#p5ae3ddee90)" d="M 647.045531 234.815901 
L 647.045531 208.491743 
" style="fill:none;stroke:#0000ff;stroke-width:1.5;"/>
    <path clip-path="url(#p5ae3ddee90)" d="M 655.47763 268.400474 
L 655.47763 243.913946 
" style="fill:none;stroke:#0000ff;stroke-width:1.5;"/>
    <path clip-path="url(#p5ae3ddee90)" d="M 663.909728 267.742614 
L 663.909728 243.218731 
" style="fill:none;stroke:#0000ff;stroke-width:1.5;"/>
    <path clip-path="url(#p5ae3ddee90)" d="M 672.341827 259.517018 
L 672.341827 234.530902 
" style="fill:none;stroke:#0000ff;stroke-width:1.5;"/>
    <path clip-path="url(#p5ae3ddee90)" d="M 680.773926 273.333499 
L 680.773926 249.128975 
" style="fill:none;stroke:#0000ff;stroke-width:1.5;"/>
    <path clip-path="url(#p5ae3ddee90)" d="M 689.206025 288.122358 
L 689.206025 264.784282 
" style="fill:none;stroke:#0000ff;stroke-width:1.5;"/>
    <path clip-path="url(#p5ae3ddee90)" d="M 697.638123 290.749793 
L 697.638123 267.569143 
" style="fill:none;stroke:#0000ff;stroke-width:1.5;"/>
    <path clip-path="url(#p5ae3ddee90)" d="M 706.070222 285.165863 
L 706.070222 261.651944 
" style="fill:none;stroke:#0000ff;stroke-width:1.5;"/>
    <path clip-path="url(#p5ae3ddee90)" d="M 714.502321 309.453998 
L 714.502321 287.427548 
" style="fill:none;stroke:#0000ff;stroke-width:1.5;"/>
    <path clip-path="url(#p5ae3ddee90)" d="M 722.93442 327.144377 
L 722.93442 306.270168 
" style="fill:none;stroke:#0000ff;stroke-width:1.5;"/>
    <path clip-path="url(#p5ae3ddee90)" d="M 731.366519 332.052638 
L 731.366519 311.509962 
" style="fill:none;stroke:#0000ff;stroke-width:1.5;"/>
    <path clip-path="url(#p5ae3ddee90)" d="M 739.798617 340.553769 
L 739.798617 320.598794 
" style="fill:none;stroke:#0000ff;stroke-width:1.5;"/>
    <path clip-path="url(#p5ae3ddee90)" d="M 748.230716 348.06659 
L 748.230716 328.646324 
" style="fill:none;stroke:#0000ff;stroke-width:1.5;"/>
    <path clip-path="url(#p5ae3ddee90)" d="M 756.662815 353.940939 
L 756.662815 334.94964 
" style="fill:none;stroke:#0000ff;stroke-width:1.5;"/>
    <path clip-path="url(#p5ae3ddee90)" d="M 765.094914 362.091457 
L 765.094914 343.712548 
" style="fill:none;stroke:#0000ff;stroke-width:1.5;"/>
    <path clip-path="url(#p5ae3ddee90)" d="M 773.527012 365.674404 
L 773.527012 347.571508 
" style="fill:none;stroke:#0000ff;stroke-width:1.5;"/>
    <path clip-path="url(#p5ae3ddee90)" d="M 781.959111 378.359638 
L 781.959111 361.271218 
" style="fill:none;stroke:#0000ff;stroke-width:1.5;"/>
    <path clip-path="url(#p5ae3ddee90)" d="M 790.39121 374.459638 
L 790.39121 357.052773 
" style="fill:none;stroke:#0000ff;stroke-width:1.5;"/>
    <path clip-path="url(#p5ae3ddee90)" d="M 798.823309 384.203912 
L 798.823309 367.60461 
" style="fill:none;stroke:#0000ff;stroke-width:1.5;"/>
    <path clip-path="url(#p5ae3ddee90)" d="M 807.255407 400.073527 
L 807.255407 384.885309 
" style="fill:none;stroke:#0000ff;stroke-width:1.5;"/>
    <path clip-path="url(#p5ae3ddee90)" d="M 815.687506 398.13379 
L 815.687506 382.765823 
" style="fill:none;stroke:#0000ff;stroke-width:1.5;"/>
    <path clip-path="url(#p5ae3ddee90)" d="M 824.119605 409.755233 
L 824.119605 395.499713 
" style="fill:none;stroke:#0000ff;stroke-width:1.5;"/>
    <path clip-path="url(#p5ae3ddee90)" d="M 832.551704 409.433 
L 832.551704 395.145409 
" style="fill:none;stroke:#0000ff;stroke-width:1.5;"/>
    <path clip-path="url(#p5ae3ddee90)" d="M 840.983802 426.134848 
L 840.983802 413.623486 
" style="fill:none;stroke:#0000ff;stroke-width:1.5;"/>
    <path clip-path="url(#p5ae3ddee90)" d="M 849.415901 425.174679 
L 849.415901 412.554044 
" style="fill:none;stroke:#0000ff;stroke-width:1.5;"/>
    <path clip-path="url(#p5ae3ddee90)" d="M 857.848 430.28985 
L 857.848 418.263465 
" style="fill:none;stroke:#0000ff;stroke-width:1.5;"/>
   </g>
   <g id="line2d_23">
    <path clip-path="url(#p5ae3ddee90)" d="M 174.848 477.173052 
L 191.940092 476.729675 
L 205.613766 476.161997 
L 217.236388 475.464032 
L 227.491644 474.627851 
L 236.379532 473.690837 
L 244.583736 472.611742 
L 252.104256 471.407926 
L 258.941093 470.106473 
L 265.77793 468.579455 
L 271.931083 466.987837 
L 278.084236 465.166583 
L 283.553706 463.335452 
L 289.023175 461.286305 
L 294.492645 459.001144 
L 299.962114 456.461691 
L 305.431584 453.64958 
L 310.217369 450.950977 
L 315.003155 448.017668 
L 319.788941 444.83803 
L 324.574727 441.400953 
L 329.360513 437.696003 
L 334.146298 433.713592 
L 338.932084 429.445155 
L 343.71787 424.883335 
L 348.503656 420.022169 
L 353.289441 414.857278 
L 358.075227 409.386052 
L 362.861013 403.607835 
L 368.330482 396.630243 
L 373.799952 389.259571 
L 379.269421 381.505915 
L 384.738891 373.383837 
L 390.892044 363.830265 
L 397.045197 353.869611 
L 403.882034 342.376877 
L 411.402555 329.299187 
L 420.974126 312.165108 
L 451.739892 256.601729 
L 458.576729 244.912528 
L 464.729882 234.833037 
L 470.199351 226.304464 
L 474.985137 219.228883 
L 479.770923 212.559422 
L 483.873025 207.1973 
L 487.975127 202.188666 
L 492.077229 197.556987 
L 495.495648 194.001106 
L 498.914066 190.734122 
L 502.332484 187.767001 
L 505.750903 185.10978 
L 509.169321 182.771503 
L 511.904056 181.13594 
L 514.638791 179.713248 
L 517.373526 178.506572 
L 520.10826 177.518586 
L 522.842995 176.751485 
L 525.57773 176.206976 
L 528.312464 175.886274 
L 531.047199 175.790094 
L 533.781934 175.918651 
L 536.516669 176.271657 
L 539.251403 176.848326 
L 541.986138 177.647372 
L 544.720873 178.667016 
L 547.455608 179.904994 
L 550.190342 181.358564 
L 552.925077 183.024514 
L 556.343495 185.399985 
L 559.761914 188.09341 
L 563.180332 191.095627 
L 566.598751 194.39649 
L 570.017169 197.984928 
L 574.119271 202.653797 
L 578.221373 207.697428 
L 582.323475 213.092222 
L 587.109261 219.796705 
L 591.895047 226.903833 
L 597.364517 235.464055 
L 602.833986 244.427884 
L 609.670823 256.097738 
L 617.875027 270.609589 
L 629.49765 291.702223 
L 646.589742 322.714909 
L 655.47763 338.351026 
L 662.99815 351.123031 
L 669.834987 362.280777 
L 675.98814 371.901255 
L 682.141293 381.084906 
L 687.610763 388.858478 
L 693.080232 396.249722 
L 698.549702 403.248312 
L 704.019171 409.848145 
L 708.804957 415.294096 
L 713.590743 420.433855 
L 718.376529 425.270184 
L 723.162314 429.807602 
L 727.9481 434.052192 
L 732.733886 438.011419 
L 737.519672 441.693938 
L 742.305457 445.109414 
L 747.091243 448.268342 
L 751.877029 451.181881 
L 756.662815 453.861689 
L 762.132284 456.653543 
L 767.601754 459.174061 
L 773.071223 461.44161 
L 778.540693 463.474453 
L 784.010162 465.29056 
L 790.163315 467.096398 
L 796.316468 468.674104 
L 803.153305 470.187337 
L 809.990142 471.476648 
L 817.510663 472.668855 
L 825.714867 473.737176 
L 834.602755 474.664488 
L 844.174326 475.443523 
L 855.113265 476.112098 
L 857.848 476.248758 
L 857.848 476.248758 
" style="fill:none;stroke:#404040;stroke-linecap:square;stroke-width:1.5;"/>
   </g>
   <g id="line2d_24">
    <path clip-path="url(#p5ae3ddee90)" d="M 174.848 430.111462 
L 182.368521 426.816405 
L 189.889041 423.289241 
L 197.409562 419.522827 
L 204.930082 415.51083 
L 212.450603 411.247852 
L 219.971123 406.729558 
L 227.491644 401.952802 
L 235.012164 396.915755 
L 242.532685 391.618026 
L 250.053205 386.06078 
L 258.257409 379.705734 
L 266.461614 373.051345 
L 274.665818 366.106362 
L 282.870022 358.882312 
L 291.75791 350.758113 
L 301.329481 341.687236 
L 311.584737 331.635128 
L 322.523676 320.585739 
L 334.829982 307.83375 
L 351.23839 290.485898 
L 382.68784 257.170839 
L 394.310462 245.216734 
L 403.882034 235.662418 
L 412.769922 227.094134 
L 420.974126 219.49648 
L 428.494647 212.834698 
L 435.331483 207.059608 
L 442.16832 201.578097 
L 448.321473 196.915727 
L 454.474627 192.527602 
L 460.62778 188.4298 
L 466.097249 185.043329 
L 471.566719 181.908264 
L 477.036188 179.033944 
L 482.505658 176.428997 
L 487.291443 174.376844 
L 492.077229 172.54174 
L 496.863015 170.927973 
L 501.648801 169.539329 
L 506.434587 168.379077 
L 511.220372 167.449957 
L 516.006158 166.754167 
L 520.791944 166.293356 
L 525.57773 166.068619 
L 530.363516 166.08049 
L 535.149301 166.328941 
L 539.935087 166.81338 
L 544.720873 167.532659 
L 549.506659 168.485072 
L 554.292444 169.668366 
L 559.07823 171.079748 
L 563.864016 172.715897 
L 568.649802 174.572974 
L 573.435588 176.646643 
L 578.905057 179.27556 
L 584.374527 182.173121 
L 589.843996 185.330636 
L 595.313465 188.738704 
L 600.782935 192.387261 
L 606.936088 196.76603 
L 613.089241 201.419591 
L 619.926078 206.891983 
L 626.762915 212.658687 
L 634.283435 219.312118 
L 641.803956 226.25712 
L 650.00816 234.124856 
L 659.579732 243.62828 
L 670.518671 254.827185 
L 684.192344 269.173682 
L 730.682835 318.272119 
L 742.305457 330.067643 
L 752.560713 340.168679 
L 762.132284 349.291419 
L 771.020172 357.468318 
L 779.90806 365.338283 
L 788.112264 372.314055 
L 796.316468 379.000343 
L 804.520673 385.388105 
L 812.041193 390.975815 
L 819.561714 396.304256 
L 827.082234 401.372069 
L 834.602755 406.179467 
L 842.123275 410.728116 
L 849.643796 415.021014 
L 857.164316 419.062362 
L 857.848 419.417458 
L 857.848 419.417458 
" style="fill:none;stroke:#ff0000;stroke-linecap:square;stroke-width:1.5;"/>
   </g>
   <g id="line2d_25">
    <g clip-path="url(#p5ae3ddee90)">
     <use style="fill:#0000ff;stroke:#0000ff;" x="174.848" xlink:href="#m1d53194684" y="425.968"/>
     <use style="fill:#0000ff;stroke:#0000ff;" x="191.712198" xlink:href="#m1d53194684" y="417.511287"/>
     <use style="fill:#0000ff;stroke:#0000ff;" x="200.144296" xlink:href="#m1d53194684" y="418.187824"/>
     <use style="fill:#0000ff;stroke:#0000ff;" x="208.576395" xlink:href="#m1d53194684" y="413.790334"/>
     <use style="fill:#0000ff;stroke:#0000ff;" x="217.008494" xlink:href="#m1d53194684" y="409.392843"/>
     <use style="fill:#0000ff;stroke:#0000ff;" x="225.440593" xlink:href="#m1d53194684" y="410.06938"/>
     <use style="fill:#0000ff;stroke:#0000ff;" x="233.872691" xlink:href="#m1d53194684" y="386.728853"/>
     <use style="fill:#0000ff;stroke:#0000ff;" x="242.30479" xlink:href="#m1d53194684" y="392.479418"/>
     <use style="fill:#0000ff;stroke:#0000ff;" x="250.736889" xlink:href="#m1d53194684" y="376.242529"/>
     <use style="fill:#0000ff;stroke:#0000ff;" x="259.168988" xlink:href="#m1d53194684" y="373.87465"/>
     <use style="fill:#0000ff;stroke:#0000ff;" x="267.601086" xlink:href="#m1d53194684" y="366.771011"/>
     <use style="fill:#0000ff;stroke:#0000ff;" x="276.033185" xlink:href="#m1d53194684" y="366.771011"/>
     <use style="fill:#0000ff;stroke:#0000ff;" x="284.465284" xlink:href="#m1d53194684" y="348.166243"/>
     <use style="fill:#0000ff;stroke:#0000ff;" x="292.897383" xlink:href="#m1d53194684" y="344.783558"/>
     <use style="fill:#0000ff;stroke:#0000ff;" x="301.329481" xlink:href="#m1d53194684" y="332.944161"/>
     <use style="fill:#0000ff;stroke:#0000ff;" x="309.76158" xlink:href="#m1d53194684" y="340.386068"/>
     <use style="fill:#0000ff;stroke:#0000ff;" x="318.193679" xlink:href="#m1d53194684" y="336.665114"/>
     <use style="fill:#0000ff;stroke:#0000ff;" x="326.625778" xlink:href="#m1d53194684" y="327.531864"/>
     <use style="fill:#0000ff;stroke:#0000ff;" x="335.057877" xlink:href="#m1d53194684" y="319.751689"/>
     <use style="fill:#0000ff;stroke:#0000ff;" x="343.489975" xlink:href="#m1d53194684" y="303.514801"/>
     <use style="fill:#0000ff;stroke:#0000ff;" x="351.922074" xlink:href="#m1d53194684" y="293.705014"/>
     <use style="fill:#0000ff;stroke:#0000ff;" x="360.354173" xlink:href="#m1d53194684" y="278.482931"/>
     <use style="fill:#0000ff;stroke:#0000ff;" x="368.786272" xlink:href="#m1d53194684" y="270.026218"/>
     <use style="fill:#0000ff;stroke:#0000ff;" x="377.21837" xlink:href="#m1d53194684" y="275.776783"/>
     <use style="fill:#0000ff;stroke:#0000ff;" x="385.650469" xlink:href="#m1d53194684" y="252.774524"/>
     <use style="fill:#0000ff;stroke:#0000ff;" x="394.082568" xlink:href="#m1d53194684" y="230.110535"/>
     <use style="fill:#0000ff;stroke:#0000ff;" x="402.514667" xlink:href="#m1d53194684" y="246.685691"/>
     <use style="fill:#0000ff;stroke:#0000ff;" x="410.946765" xlink:href="#m1d53194684" y="227.404386"/>
     <use style="fill:#0000ff;stroke:#0000ff;" x="419.378864" xlink:href="#m1d53194684" y="214.888452"/>
     <use style="fill:#0000ff;stroke:#0000ff;" x="427.810963" xlink:href="#m1d53194684" y="210.82923"/>
     <use style="fill:#0000ff;stroke:#0000ff;" x="436.243062" xlink:href="#m1d53194684" y="203.725591"/>
     <use style="fill:#0000ff;stroke:#0000ff;" x="444.67516" xlink:href="#m1d53194684" y="208.46135"/>
     <use style="fill:#0000ff;stroke:#0000ff;" x="453.107259" xlink:href="#m1d53194684" y="193.239267"/>
     <use style="fill:#0000ff;stroke:#0000ff;" x="461.539358" xlink:href="#m1d53194684" y="177.002379"/>
     <use style="fill:#0000ff;stroke:#0000ff;" x="469.971457" xlink:href="#m1d53194684" y="212.182304"/>
     <use style="fill:#0000ff;stroke:#0000ff;" x="478.403556" xlink:href="#m1d53194684" y="174.296231"/>
     <use style="fill:#0000ff;stroke:#0000ff;" x="486.835654" xlink:href="#m1d53194684" y="169.560472"/>
     <use style="fill:#0000ff;stroke:#0000ff;" x="495.267753" xlink:href="#m1d53194684" y="175.311036"/>
     <use style="fill:#0000ff;stroke:#0000ff;" x="503.699852" xlink:href="#m1d53194684" y="169.222203"/>
     <use style="fill:#0000ff;stroke:#0000ff;" x="512.131951" xlink:href="#m1d53194684" y="156.368"/>
     <use style="fill:#0000ff;stroke:#0000ff;" x="520.564049" xlink:href="#m1d53194684" y="159.074148"/>
     <use style="fill:#0000ff;stroke:#0000ff;" x="528.996148" xlink:href="#m1d53194684" y="168.883935"/>
     <use style="fill:#0000ff;stroke:#0000ff;" x="537.428247" xlink:href="#m1d53194684" y="178.693721"/>
     <use style="fill:#0000ff;stroke:#0000ff;" x="545.860346" xlink:href="#m1d53194684" y="163.13337"/>
     <use style="fill:#0000ff;stroke:#0000ff;" x="554.292444" xlink:href="#m1d53194684" y="169.222203"/>
     <use style="fill:#0000ff;stroke:#0000ff;" x="562.724543" xlink:href="#m1d53194684" y="163.809907"/>
     <use style="fill:#0000ff;stroke:#0000ff;" x="571.156642" xlink:href="#m1d53194684" y="181.061601"/>
     <use style="fill:#0000ff;stroke:#0000ff;" x="579.588741" xlink:href="#m1d53194684" y="188.841777"/>
     <use style="fill:#0000ff;stroke:#0000ff;" x="588.02084" xlink:href="#m1d53194684" y="186.135629"/>
     <use style="fill:#0000ff;stroke:#0000ff;" x="596.452938" xlink:href="#m1d53194684" y="184.444286"/>
     <use style="fill:#0000ff;stroke:#0000ff;" x="604.885037" xlink:href="#m1d53194684" y="199.666369"/>
     <use style="fill:#0000ff;stroke:#0000ff;" x="613.317136" xlink:href="#m1d53194684" y="198.313295"/>
     <use style="fill:#0000ff;stroke:#0000ff;" x="621.749235" xlink:href="#m1d53194684" y="195.607147"/>
     <use style="fill:#0000ff;stroke:#0000ff;" x="630.181333" xlink:href="#m1d53194684" y="205.078665"/>
     <use style="fill:#0000ff;stroke:#0000ff;" x="638.613432" xlink:href="#m1d53194684" y="214.211915"/>
     <use style="fill:#0000ff;stroke:#0000ff;" x="647.045531" xlink:href="#m1d53194684" y="221.653822"/>
     <use style="fill:#0000ff;stroke:#0000ff;" x="655.47763" xlink:href="#m1d53194684" y="256.15721"/>
     <use style="fill:#0000ff;stroke:#0000ff;" x="663.909728" xlink:href="#m1d53194684" y="255.480673"/>
     <use style="fill:#0000ff;stroke:#0000ff;" x="672.341827" xlink:href="#m1d53194684" y="247.02396"/>
     <use style="fill:#0000ff;stroke:#0000ff;" x="680.773926" xlink:href="#m1d53194684" y="261.231237"/>
     <use style="fill:#0000ff;stroke:#0000ff;" x="689.206025" xlink:href="#m1d53194684" y="276.45332"/>
     <use style="fill:#0000ff;stroke:#0000ff;" x="697.638123" xlink:href="#m1d53194684" y="279.159468"/>
     <use style="fill:#0000ff;stroke:#0000ff;" x="706.070222" xlink:href="#m1d53194684" y="273.408903"/>
     <use style="fill:#0000ff;stroke:#0000ff;" x="714.502321" xlink:href="#m1d53194684" y="298.440773"/>
     <use style="fill:#0000ff;stroke:#0000ff;" x="722.93442" xlink:href="#m1d53194684" y="316.707272"/>
     <use style="fill:#0000ff;stroke:#0000ff;" x="731.366519" xlink:href="#m1d53194684" y="321.7813"/>
     <use style="fill:#0000ff;stroke:#0000ff;" x="739.798617" xlink:href="#m1d53194684" y="330.576281"/>
     <use style="fill:#0000ff;stroke:#0000ff;" x="748.230716" xlink:href="#m1d53194684" y="338.356457"/>
     <use style="fill:#0000ff;stroke:#0000ff;" x="756.662815" xlink:href="#m1d53194684" y="344.44529"/>
     <use style="fill:#0000ff;stroke:#0000ff;" x="765.094914" xlink:href="#m1d53194684" y="352.902003"/>
     <use style="fill:#0000ff;stroke:#0000ff;" x="773.527012" xlink:href="#m1d53194684" y="356.622956"/>
     <use style="fill:#0000ff;stroke:#0000ff;" x="781.959111" xlink:href="#m1d53194684" y="369.815428"/>
     <use style="fill:#0000ff;stroke:#0000ff;" x="790.39121" xlink:href="#m1d53194684" y="365.756206"/>
     <use style="fill:#0000ff;stroke:#0000ff;" x="798.823309" xlink:href="#m1d53194684" y="375.904261"/>
     <use style="fill:#0000ff;stroke:#0000ff;" x="807.255407" xlink:href="#m1d53194684" y="392.479418"/>
     <use style="fill:#0000ff;stroke:#0000ff;" x="815.687506" xlink:href="#m1d53194684" y="390.449807"/>
     <use style="fill:#0000ff;stroke:#0000ff;" x="824.119605" xlink:href="#m1d53194684" y="402.627473"/>
     <use style="fill:#0000ff;stroke:#0000ff;" x="832.551704" xlink:href="#m1d53194684" y="402.289205"/>
     <use style="fill:#0000ff;stroke:#0000ff;" x="840.983802" xlink:href="#m1d53194684" y="419.879167"/>
     <use style="fill:#0000ff;stroke:#0000ff;" x="849.415901" xlink:href="#m1d53194684" y="418.864361"/>
     <use style="fill:#0000ff;stroke:#0000ff;" x="857.848" xlink:href="#m1d53194684" y="424.276657"/>
    </g>
   </g>
   <g id="patch_8">
    <path d="M 147.528 436.752 
L 147.528 145.584 
" style="fill:none;stroke:#000000;stroke-linecap:square;stroke-linejoin:miter;stroke-width:0.8;"/>
   </g>
   <g id="patch_9">
    <path d="M 885.168 436.752 
L 885.168 145.584 
" style="fill:none;stroke:#000000;stroke-linecap:square;stroke-linejoin:miter;stroke-width:0.8;"/>
   </g>
   <g id="patch_10">
    <path d="M 147.528 436.752 
L 885.168 436.752 
" style="fill:none;stroke:#000000;stroke-linecap:square;stroke-linejoin:miter;stroke-width:0.8;"/>
   </g>
   <g id="patch_11">
    <path d="M 147.528 145.584 
L 885.168 145.584 
" style="fill:none;stroke:#000000;stroke-linecap:square;stroke-linejoin:miter;stroke-width:0.8;"/>
   </g>
  </g>
 </g>
 <defs>
  <clipPath id="p213c5e4c45">
   <rect height="72.792" width="737.64" x="147.528" y="63.0864"/>
  </clipPath>
  <clipPath id="p5ae3ddee90">
   <rect height="291.168" width="737.64" x="147.528" y="145.584"/>
  </clipPath>
 </defs>
</svg>
