<?xml version="1.0" encoding="utf-8" standalone="no"?>
<!DOCTYPE svg PUBLIC "-//W3C//DTD SVG 1.1//EN"
  "http://www.w3.org/Graphics/SVG/1.1/DTD/svg11.dtd">
<!-- Created with matplotlib (http://matplotlib.org/) -->
<svg height="485pt" version="1.1" viewBox="0 0 983 485" width="983pt" xmlns="http://www.w3.org/2000/svg" xmlns:xlink="http://www.w3.org/1999/xlink">
 <defs>
  <style type="text/css">
*{stroke-linecap:butt;stroke-linejoin:round;}
  </style>
 </defs>
 <g id="figure_1">
  <g id="patch_1">
   <path d="M 0 485.28 
L 983.52 485.28 
L 983.52 0 
L 0 0 
z
" style="fill:#ffffff;"/>
  </g>
  <g id="axes_1">
   <g id="patch_2">
    <path d="M 147.528 135.8784 
L 885.168 135.8784 
L 885.168 63.0864 
L 147.528 63.0864 
z
" style="fill:#ffffff;"/>
   </g>
   <g id="matplotlib.axis_1">
    <g id="xtick_1">
     <g id="line2d_1">
      <defs>
       <path d="M 0 0 
L 0 3.5 
" id="mb5e70a20ef" style="stroke:#000000;stroke-width:0.8;"/>
      </defs>
      <g>
       <use style="stroke:#000000;stroke-width:0.8;" x="272.255342" xlink:href="#mb5e70a20ef" y="135.8784"/>
      </g>
     </g>
    </g>
    <g id="xtick_2">
     <g id="line2d_2">
      <g>
       <use style="stroke:#000000;stroke-width:0.8;" x="415.77195" xlink:href="#mb5e70a20ef" y="135.8784"/>
      </g>
     </g>
    </g>
    <g id="xtick_3">
     <g id="line2d_3">
      <g>
       <use style="stroke:#000000;stroke-width:0.8;" x="559.288557" xlink:href="#mb5e70a20ef" y="135.8784"/>
      </g>
     </g>
    </g>
    <g id="xtick_4">
     <g id="line2d_4">
      <g>
       <use style="stroke:#000000;stroke-width:0.8;" x="702.805164" xlink:href="#mb5e70a20ef" y="135.8784"/>
      </g>
     </g>
    </g>
    <g id="xtick_5">
     <g id="line2d_5">
      <g>
       <use style="stroke:#000000;stroke-width:0.8;" x="846.321772" xlink:href="#mb5e70a20ef" y="135.8784"/>
      </g>
     </g>
    </g>
   </g>
   <g id="matplotlib.axis_2">
    <g id="ytick_1">
     <g id="line2d_6">
      <defs>
       <path d="M 0 0 
L -3.5 0 
" id="m45822de030" style="stroke:#000000;stroke-width:0.8;"/>
      </defs>
      <g>
       <use style="stroke:#000000;stroke-width:0.8;" x="147.528" xlink:href="#m45822de030" y="134.390107"/>
      </g>
     </g>
     <g id="text_1">
      <!-- −2 -->
      <defs>
       <path d="M 10.59375 35.5 
L 73.1875 35.5 
L 73.1875 27.203125 
L 10.59375 27.203125 
z
" id="DejaVuSans-2212"/>
       <path d="M 19.1875 8.296875 
L 53.609375 8.296875 
L 53.609375 0 
L 7.328125 0 
L 7.328125 8.296875 
Q 12.9375 14.109375 22.625 23.890625 
Q 32.328125 33.6875 34.8125 36.53125 
Q 39.546875 41.84375 41.421875 45.53125 
Q 43.3125 49.21875 43.3125 52.78125 
Q 43.3125 58.59375 39.234375 62.25 
Q 35.15625 65.921875 28.609375 65.921875 
Q 23.96875 65.921875 18.8125 64.3125 
Q 13.671875 62.703125 7.8125 59.421875 
L 7.8125 69.390625 
Q 13.765625 71.78125 18.9375 73 
Q 24.125 74.21875 28.421875 74.21875 
Q 39.75 74.21875 46.484375 68.546875 
Q 53.21875 62.890625 53.21875 53.421875 
Q 53.21875 48.921875 51.53125 44.890625 
Q 49.859375 40.875 45.40625 35.40625 
Q 44.1875 33.984375 37.640625 27.21875 
Q 31.109375 20.453125 19.1875 8.296875 
z
" id="DejaVuSans-32"/>
      </defs>
      <g transform="translate(122.837375 138.94917)scale(0.12 -0.12)">
       <use xlink:href="#DejaVuSans-2212"/>
       <use x="83.789062" xlink:href="#DejaVuSans-32"/>
      </g>
     </g>
    </g>
    <g id="ytick_2">
     <g id="line2d_7">
      <g>
       <use style="stroke:#000000;stroke-width:0.8;" x="147.528" xlink:href="#m45822de030" y="97.155462"/>
      </g>
     </g>
     <g id="text_2">
      <!-- 0 -->
      <defs>
       <path d="M 31.78125 66.40625 
Q 24.171875 66.40625 20.328125 58.90625 
Q 16.5 51.421875 16.5 36.375 
Q 16.5 21.390625 20.328125 13.890625 
Q 24.171875 6.390625 31.78125 6.390625 
Q 39.453125 6.390625 43.28125 13.890625 
Q 47.125 21.390625 47.125 36.375 
Q 47.125 51.421875 43.28125 58.90625 
Q 39.453125 66.40625 31.78125 66.40625 
z
M 31.78125 74.21875 
Q 44.046875 74.21875 50.515625 64.515625 
Q 56.984375 54.828125 56.984375 36.375 
Q 56.984375 17.96875 50.515625 8.265625 
Q 44.046875 -1.421875 31.78125 -1.421875 
Q 19.53125 -1.421875 13.0625 8.265625 
Q 6.59375 17.96875 6.59375 36.375 
Q 6.59375 54.828125 13.0625 64.515625 
Q 19.53125 74.21875 31.78125 74.21875 
z
" id="DejaVuSans-30"/>
      </defs>
      <g transform="translate(132.893 101.714524)scale(0.12 -0.12)">
       <use xlink:href="#DejaVuSans-30"/>
      </g>
     </g>
    </g>
    <g id="text_3">
     <!-- Studentized -->
     <defs>
      <path d="M 53.515625 70.515625 
L 53.515625 60.890625 
Q 47.90625 63.578125 42.921875 64.890625 
Q 37.9375 66.21875 33.296875 66.21875 
Q 25.25 66.21875 20.875 63.09375 
Q 16.5 59.96875 16.5 54.203125 
Q 16.5 49.359375 19.40625 46.890625 
Q 22.3125 44.4375 30.421875 42.921875 
L 36.375 41.703125 
Q 47.40625 39.59375 52.65625 34.296875 
Q 57.90625 29 57.90625 20.125 
Q 57.90625 9.515625 50.796875 4.046875 
Q 43.703125 -1.421875 29.984375 -1.421875 
Q 24.8125 -1.421875 18.96875 -0.25 
Q 13.140625 0.921875 6.890625 3.21875 
L 6.890625 13.375 
Q 12.890625 10.015625 18.65625 8.296875 
Q 24.421875 6.59375 29.984375 6.59375 
Q 38.421875 6.59375 43.015625 9.90625 
Q 47.609375 13.234375 47.609375 19.390625 
Q 47.609375 24.75 44.3125 27.78125 
Q 41.015625 30.8125 33.5 32.328125 
L 27.484375 33.5 
Q 16.453125 35.6875 11.515625 40.375 
Q 6.59375 45.0625 6.59375 53.421875 
Q 6.59375 63.09375 13.40625 68.65625 
Q 20.21875 74.21875 32.171875 74.21875 
Q 37.3125 74.21875 42.625 73.28125 
Q 47.953125 72.359375 53.515625 70.515625 
z
" id="DejaVuSans-53"/>
      <path d="M 18.3125 70.21875 
L 18.3125 54.6875 
L 36.8125 54.6875 
L 36.8125 47.703125 
L 18.3125 47.703125 
L 18.3125 18.015625 
Q 18.3125 11.328125 20.140625 9.421875 
Q 21.96875 7.515625 27.59375 7.515625 
L 36.8125 7.515625 
L 36.8125 0 
L 27.59375 0 
Q 17.1875 0 13.234375 3.875 
Q 9.28125 7.765625 9.28125 18.015625 
L 9.28125 47.703125 
L 2.6875 47.703125 
L 2.6875 54.6875 
L 9.28125 54.6875 
L 9.28125 70.21875 
z
" id="DejaVuSans-74"/>
      <path d="M 8.5 21.578125 
L 8.5 54.6875 
L 17.484375 54.6875 
L 17.484375 21.921875 
Q 17.484375 14.15625 20.5 10.265625 
Q 23.53125 6.390625 29.59375 6.390625 
Q 36.859375 6.390625 41.078125 11.03125 
Q 45.3125 15.671875 45.3125 23.6875 
L 45.3125 54.6875 
L 54.296875 54.6875 
L 54.296875 0 
L 45.3125 0 
L 45.3125 8.40625 
Q 42.046875 3.421875 37.71875 1 
Q 33.40625 -1.421875 27.6875 -1.421875 
Q 18.265625 -1.421875 13.375 4.4375 
Q 8.5 10.296875 8.5 21.578125 
z
M 31.109375 56 
z
" id="DejaVuSans-75"/>
      <path d="M 45.40625 46.390625 
L 45.40625 75.984375 
L 54.390625 75.984375 
L 54.390625 0 
L 45.40625 0 
L 45.40625 8.203125 
Q 42.578125 3.328125 38.25 0.953125 
Q 33.9375 -1.421875 27.875 -1.421875 
Q 17.96875 -1.421875 11.734375 6.484375 
Q 5.515625 14.40625 5.515625 27.296875 
Q 5.515625 40.1875 11.734375 48.09375 
Q 17.96875 56 27.875 56 
Q 33.9375 56 38.25 53.625 
Q 42.578125 51.265625 45.40625 46.390625 
z
M 14.796875 27.296875 
Q 14.796875 17.390625 18.875 11.75 
Q 22.953125 6.109375 30.078125 6.109375 
Q 37.203125 6.109375 41.296875 11.75 
Q 45.40625 17.390625 45.40625 27.296875 
Q 45.40625 37.203125 41.296875 42.84375 
Q 37.203125 48.484375 30.078125 48.484375 
Q 22.953125 48.484375 18.875 42.84375 
Q 14.796875 37.203125 14.796875 27.296875 
z
" id="DejaVuSans-64"/>
      <path d="M 56.203125 29.59375 
L 56.203125 25.203125 
L 14.890625 25.203125 
Q 15.484375 15.921875 20.484375 11.0625 
Q 25.484375 6.203125 34.421875 6.203125 
Q 39.59375 6.203125 44.453125 7.46875 
Q 49.3125 8.734375 54.109375 11.28125 
L 54.109375 2.78125 
Q 49.265625 0.734375 44.1875 -0.34375 
Q 39.109375 -1.421875 33.890625 -1.421875 
Q 20.796875 -1.421875 13.15625 6.1875 
Q 5.515625 13.8125 5.515625 26.8125 
Q 5.515625 40.234375 12.765625 48.109375 
Q 20.015625 56 32.328125 56 
Q 43.359375 56 49.78125 48.890625 
Q 56.203125 41.796875 56.203125 29.59375 
z
M 47.21875 32.234375 
Q 47.125 39.59375 43.09375 43.984375 
Q 39.0625 48.390625 32.421875 48.390625 
Q 24.90625 48.390625 20.390625 44.140625 
Q 15.875 39.890625 15.1875 32.171875 
z
" id="DejaVuSans-65"/>
      <path d="M 54.890625 33.015625 
L 54.890625 0 
L 45.90625 0 
L 45.90625 32.71875 
Q 45.90625 40.484375 42.875 44.328125 
Q 39.84375 48.1875 33.796875 48.1875 
Q 26.515625 48.1875 22.3125 43.546875 
Q 18.109375 38.921875 18.109375 30.90625 
L 18.109375 0 
L 9.078125 0 
L 9.078125 54.6875 
L 18.109375 54.6875 
L 18.109375 46.1875 
Q 21.34375 51.125 25.703125 53.5625 
Q 30.078125 56 35.796875 56 
Q 45.21875 56 50.046875 50.171875 
Q 54.890625 44.34375 54.890625 33.015625 
z
" id="DejaVuSans-6e"/>
      <path d="M 9.421875 54.6875 
L 18.40625 54.6875 
L 18.40625 0 
L 9.421875 0 
z
M 9.421875 75.984375 
L 18.40625 75.984375 
L 18.40625 64.59375 
L 9.421875 64.59375 
z
" id="DejaVuSans-69"/>
      <path d="M 5.515625 54.6875 
L 48.1875 54.6875 
L 48.1875 46.484375 
L 14.40625 7.171875 
L 48.1875 7.171875 
L 48.1875 0 
L 4.296875 0 
L 4.296875 8.203125 
L 38.09375 47.515625 
L 5.515625 47.515625 
z
" id="DejaVuSans-7a"/>
     </defs>
     <g transform="translate(102.904375 135.41865)rotate(-90)scale(0.12 -0.12)">
      <use xlink:href="#DejaVuSans-53"/>
      <use x="63.476562" xlink:href="#DejaVuSans-74"/>
      <use x="102.685547" xlink:href="#DejaVuSans-75"/>
      <use x="166.064453" xlink:href="#DejaVuSans-64"/>
      <use x="229.541016" xlink:href="#DejaVuSans-65"/>
      <use x="291.064453" xlink:href="#DejaVuSans-6e"/>
      <use x="354.443359" xlink:href="#DejaVuSans-74"/>
      <use x="393.652344" xlink:href="#DejaVuSans-69"/>
      <use x="421.435547" xlink:href="#DejaVuSans-7a"/>
      <use x="473.925781" xlink:href="#DejaVuSans-65"/>
      <use x="535.449219" xlink:href="#DejaVuSans-64"/>
     </g>
     <!-- Residuals -->
     <defs>
      <path d="M 44.390625 34.1875 
Q 47.5625 33.109375 50.5625 29.59375 
Q 53.5625 26.078125 56.59375 19.921875 
L 66.609375 0 
L 56 0 
L 46.6875 18.703125 
Q 43.0625 26.03125 39.671875 28.421875 
Q 36.28125 30.8125 30.421875 30.8125 
L 19.671875 30.8125 
L 19.671875 0 
L 9.8125 0 
L 9.8125 72.90625 
L 32.078125 72.90625 
Q 44.578125 72.90625 50.734375 67.671875 
Q 56.890625 62.453125 56.890625 51.90625 
Q 56.890625 45.015625 53.6875 40.46875 
Q 50.484375 35.9375 44.390625 34.1875 
z
M 19.671875 64.796875 
L 19.671875 38.921875 
L 32.078125 38.921875 
Q 39.203125 38.921875 42.84375 42.21875 
Q 46.484375 45.515625 46.484375 51.90625 
Q 46.484375 58.296875 42.84375 61.546875 
Q 39.203125 64.796875 32.078125 64.796875 
z
" id="DejaVuSans-52"/>
      <path d="M 44.28125 53.078125 
L 44.28125 44.578125 
Q 40.484375 46.53125 36.375 47.5 
Q 32.28125 48.484375 27.875 48.484375 
Q 21.1875 48.484375 17.84375 46.4375 
Q 14.5 44.390625 14.5 40.28125 
Q 14.5 37.15625 16.890625 35.375 
Q 19.28125 33.59375 26.515625 31.984375 
L 29.59375 31.296875 
Q 39.15625 29.25 43.1875 25.515625 
Q 47.21875 21.78125 47.21875 15.09375 
Q 47.21875 7.46875 41.1875 3.015625 
Q 35.15625 -1.421875 24.609375 -1.421875 
Q 20.21875 -1.421875 15.453125 -0.5625 
Q 10.6875 0.296875 5.421875 2 
L 5.421875 11.28125 
Q 10.40625 8.6875 15.234375 7.390625 
Q 20.0625 6.109375 24.8125 6.109375 
Q 31.15625 6.109375 34.5625 8.28125 
Q 37.984375 10.453125 37.984375 14.40625 
Q 37.984375 18.0625 35.515625 20.015625 
Q 33.0625 21.96875 24.703125 23.78125 
L 21.578125 24.515625 
Q 13.234375 26.265625 9.515625 29.90625 
Q 5.8125 33.546875 5.8125 39.890625 
Q 5.8125 47.609375 11.28125 51.796875 
Q 16.75 56 26.8125 56 
Q 31.78125 56 36.171875 55.265625 
Q 40.578125 54.546875 44.28125 53.078125 
z
" id="DejaVuSans-73"/>
      <path d="M 34.28125 27.484375 
Q 23.390625 27.484375 19.1875 25 
Q 14.984375 22.515625 14.984375 16.5 
Q 14.984375 11.71875 18.140625 8.90625 
Q 21.296875 6.109375 26.703125 6.109375 
Q 34.1875 6.109375 38.703125 11.40625 
Q 43.21875 16.703125 43.21875 25.484375 
L 43.21875 27.484375 
z
M 52.203125 31.203125 
L 52.203125 0 
L 43.21875 0 
L 43.21875 8.296875 
Q 40.140625 3.328125 35.546875 0.953125 
Q 30.953125 -1.421875 24.3125 -1.421875 
Q 15.921875 -1.421875 10.953125 3.296875 
Q 6 8.015625 6 15.921875 
Q 6 25.140625 12.171875 29.828125 
Q 18.359375 34.515625 30.609375 34.515625 
L 43.21875 34.515625 
L 43.21875 35.40625 
Q 43.21875 41.609375 39.140625 45 
Q 35.0625 48.390625 27.6875 48.390625 
Q 23 48.390625 18.546875 47.265625 
Q 14.109375 46.140625 10.015625 43.890625 
L 10.015625 52.203125 
Q 14.9375 54.109375 19.578125 55.046875 
Q 24.21875 56 28.609375 56 
Q 40.484375 56 46.34375 49.84375 
Q 52.203125 43.703125 52.203125 31.203125 
z
" id="DejaVuSans-61"/>
      <path d="M 9.421875 75.984375 
L 18.40625 75.984375 
L 18.40625 0 
L 9.421875 0 
z
" id="DejaVuSans-6c"/>
     </defs>
     <g transform="translate(116.34175 128.213025)rotate(-90)scale(0.12 -0.12)">
      <use xlink:href="#DejaVuSans-52"/>
      <use x="69.419922" xlink:href="#DejaVuSans-65"/>
      <use x="130.943359" xlink:href="#DejaVuSans-73"/>
      <use x="183.042969" xlink:href="#DejaVuSans-69"/>
      <use x="210.826172" xlink:href="#DejaVuSans-64"/>
      <use x="274.302734" xlink:href="#DejaVuSans-75"/>
      <use x="337.681641" xlink:href="#DejaVuSans-61"/>
      <use x="398.960938" xlink:href="#DejaVuSans-6c"/>
      <use x="426.744141" xlink:href="#DejaVuSans-73"/>
     </g>
    </g>
   </g>
   <g id="LineCollection_1">
    <path clip-path="url(#pe3f004b46f)" d="M 174.848 109.588446 
L 174.848 72.353801 
" style="fill:none;stroke:#0000ff;stroke-width:1.5;"/>
    <path clip-path="url(#pe3f004b46f)" d="M 183.3855 109.673498 
L 183.3855 72.438853 
" style="fill:none;stroke:#0000ff;stroke-width:1.5;"/>
    <path clip-path="url(#pe3f004b46f)" d="M 191.923 112.466782 
L 191.923 75.232137 
" style="fill:none;stroke:#0000ff;stroke-width:1.5;"/>
    <path clip-path="url(#pe3f004b46f)" d="M 200.4605 84.399723 
L 200.4605 47.165077 
" style="fill:none;stroke:#0000ff;stroke-width:1.5;"/>
    <path clip-path="url(#pe3f004b46f)" d="M 208.998 125.821198 
L 208.998 88.586552 
" style="fill:none;stroke:#0000ff;stroke-width:1.5;"/>
    <path clip-path="url(#pe3f004b46f)" d="M 217.5355 107.722597 
L 217.5355 70.487952 
" style="fill:none;stroke:#0000ff;stroke-width:1.5;"/>
    <path clip-path="url(#pe3f004b46f)" d="M 226.073 96.656559 
L 226.073 59.421914 
" style="fill:none;stroke:#0000ff;stroke-width:1.5;"/>
    <path clip-path="url(#pe3f004b46f)" d="M 234.6105 120.564931 
L 234.6105 83.330286 
" style="fill:none;stroke:#0000ff;stroke-width:1.5;"/>
    <path clip-path="url(#pe3f004b46f)" d="M 243.148 120.928984 
L 243.148 83.694339 
" style="fill:none;stroke:#0000ff;stroke-width:1.5;"/>
    <path clip-path="url(#pe3f004b46f)" d="M 251.6855 94.748477 
L 251.6855 57.513832 
" style="fill:none;stroke:#0000ff;stroke-width:1.5;"/>
    <path clip-path="url(#pe3f004b46f)" d="M 260.223 120.816682 
L 260.223 83.582037 
" style="fill:none;stroke:#0000ff;stroke-width:1.5;"/>
    <path clip-path="url(#pe3f004b46f)" d="M 268.7605 108.968879 
L 268.7605 71.734233 
" style="fill:none;stroke:#0000ff;stroke-width:1.5;"/>
    <path clip-path="url(#pe3f004b46f)" d="M 277.298 124.883949 
L 277.298 87.649303 
" style="fill:none;stroke:#0000ff;stroke-width:1.5;"/>
    <path clip-path="url(#pe3f004b46f)" d="M 285.8355 126.297562 
L 285.8355 89.062917 
" style="fill:none;stroke:#0000ff;stroke-width:1.5;"/>
    <path clip-path="url(#pe3f004b46f)" d="M 294.373 109.044311 
L 294.373 71.809666 
" style="fill:none;stroke:#0000ff;stroke-width:1.5;"/>
    <path clip-path="url(#pe3f004b46f)" d="M 302.9105 134.578641 
L 302.9105 97.343996 
" style="fill:none;stroke:#0000ff;stroke-width:1.5;"/>
    <path clip-path="url(#pe3f004b46f)" d="M 311.448 104.474081 
L 311.448 67.239436 
" style="fill:none;stroke:#0000ff;stroke-width:1.5;"/>
    <path clip-path="url(#pe3f004b46f)" d="M 319.9855 132.90692 
L 319.9855 95.672275 
" style="fill:none;stroke:#0000ff;stroke-width:1.5;"/>
    <path clip-path="url(#pe3f004b46f)" d="M 328.523 107.984499 
L 328.523 70.749854 
" style="fill:none;stroke:#0000ff;stroke-width:1.5;"/>
    <path clip-path="url(#pe3f004b46f)" d="M 337.0605 104.99312 
L 337.0605 67.758475 
" style="fill:none;stroke:#0000ff;stroke-width:1.5;"/>
    <path clip-path="url(#pe3f004b46f)" d="M 345.598 119.316548 
L 345.598 82.081903 
" style="fill:none;stroke:#0000ff;stroke-width:1.5;"/>
    <path clip-path="url(#pe3f004b46f)" d="M 354.1355 131.409392 
L 354.1355 94.174747 
" style="fill:none;stroke:#0000ff;stroke-width:1.5;"/>
    <path clip-path="url(#pe3f004b46f)" d="M 362.673 102.612519 
L 362.673 65.377874 
" style="fill:none;stroke:#0000ff;stroke-width:1.5;"/>
    <path clip-path="url(#pe3f004b46f)" d="M 371.2105 121.231514 
L 371.2105 83.996869 
" style="fill:none;stroke:#0000ff;stroke-width:1.5;"/>
    <path clip-path="url(#pe3f004b46f)" d="M 379.748 114.626445 
L 379.748 77.3918 
" style="fill:none;stroke:#0000ff;stroke-width:1.5;"/>
    <path clip-path="url(#pe3f004b46f)" d="M 388.2855 120.156034 
L 388.2855 82.921388 
" style="fill:none;stroke:#0000ff;stroke-width:1.5;"/>
    <path clip-path="url(#pe3f004b46f)" d="M 396.823 102.765472 
L 396.823 65.530827 
" style="fill:none;stroke:#0000ff;stroke-width:1.5;"/>
    <path clip-path="url(#pe3f004b46f)" d="M 405.3605 122.465739 
L 405.3605 85.231093 
" style="fill:none;stroke:#0000ff;stroke-width:1.5;"/>
    <path clip-path="url(#pe3f004b46f)" d="M 413.898 114.090747 
L 413.898 76.856101 
" style="fill:none;stroke:#0000ff;stroke-width:1.5;"/>
    <path clip-path="url(#pe3f004b46f)" d="M 422.4355 133.144138 
L 422.4355 95.909493 
" style="fill:none;stroke:#0000ff;stroke-width:1.5;"/>
    <path clip-path="url(#pe3f004b46f)" d="M 430.973 138.025703 
L 430.973 100.791058 
" style="fill:none;stroke:#0000ff;stroke-width:1.5;"/>
    <path clip-path="url(#pe3f004b46f)" d="M 439.5105 128.707882 
L 439.5105 91.473236 
" style="fill:none;stroke:#0000ff;stroke-width:1.5;"/>
    <path clip-path="url(#pe3f004b46f)" d="M 448.048 97.431711 
L 448.048 60.197066 
" style="fill:none;stroke:#0000ff;stroke-width:1.5;"/>
    <path clip-path="url(#pe3f004b46f)" d="M 456.5855 117.782874 
L 456.5855 80.548229 
" style="fill:none;stroke:#0000ff;stroke-width:1.5;"/>
    <path clip-path="url(#pe3f004b46f)" d="M 465.123 122.821517 
L 465.123 85.586872 
" style="fill:none;stroke:#0000ff;stroke-width:1.5;"/>
    <path clip-path="url(#pe3f004b46f)" d="M 473.6605 151.799723 
L 473.6605 114.565077 
" style="fill:none;stroke:#0000ff;stroke-width:1.5;"/>
    <path clip-path="url(#pe3f004b46f)" d="M 482.198 98.447531 
L 482.198 61.212886 
" style="fill:none;stroke:#0000ff;stroke-width:1.5;"/>
    <path clip-path="url(#pe3f004b46f)" d="M 490.7355 109.249965 
L 490.7355 72.01532 
" style="fill:none;stroke:#0000ff;stroke-width:1.5;"/>
    <path clip-path="url(#pe3f004b46f)" d="M 499.273 109.36979 
L 499.273 72.135145 
" style="fill:none;stroke:#0000ff;stroke-width:1.5;"/>
    <path clip-path="url(#pe3f004b46f)" d="M 507.8105 96.413467 
L 507.8105 59.178821 
" style="fill:none;stroke:#0000ff;stroke-width:1.5;"/>
    <path clip-path="url(#pe3f004b46f)" d="M 516.348 108.902079 
L 516.348 71.667434 
" style="fill:none;stroke:#0000ff;stroke-width:1.5;"/>
    <path clip-path="url(#pe3f004b46f)" d="M 524.8855 120.773517 
L 524.8855 83.538872 
" style="fill:none;stroke:#0000ff;stroke-width:1.5;"/>
    <path clip-path="url(#pe3f004b46f)" d="M 533.423 140.652244 
L 533.423 103.417599 
" style="fill:none;stroke:#0000ff;stroke-width:1.5;"/>
    <path clip-path="url(#pe3f004b46f)" d="M 541.9605 108.844898 
L 541.9605 71.610253 
" style="fill:none;stroke:#0000ff;stroke-width:1.5;"/>
    <path clip-path="url(#pe3f004b46f)" d="M 550.498 128.001246 
L 550.498 90.766601 
" style="fill:none;stroke:#0000ff;stroke-width:1.5;"/>
    <path clip-path="url(#pe3f004b46f)" d="M 559.0355 95.100219 
L 559.0355 57.865574 
" style="fill:none;stroke:#0000ff;stroke-width:1.5;"/>
    <path clip-path="url(#pe3f004b46f)" d="M 567.573 112.267688 
L 567.573 75.033043 
" style="fill:none;stroke:#0000ff;stroke-width:1.5;"/>
    <path clip-path="url(#pe3f004b46f)" d="M 576.1105 113.809742 
L 576.1105 76.575097 
" style="fill:none;stroke:#0000ff;stroke-width:1.5;"/>
    <path clip-path="url(#pe3f004b46f)" d="M 584.648 118.543243 
L 584.648 81.308598 
" style="fill:none;stroke:#0000ff;stroke-width:1.5;"/>
    <path clip-path="url(#pe3f004b46f)" d="M 593.1855 109.534218 
L 593.1855 72.299573 
" style="fill:none;stroke:#0000ff;stroke-width:1.5;"/>
    <path clip-path="url(#pe3f004b46f)" d="M 601.723 122.727669 
L 601.723 85.493023 
" style="fill:none;stroke:#0000ff;stroke-width:1.5;"/>
    <path clip-path="url(#pe3f004b46f)" d="M 610.2605 95.93259 
L 610.2605 58.697944 
" style="fill:none;stroke:#0000ff;stroke-width:1.5;"/>
    <path clip-path="url(#pe3f004b46f)" d="M 618.798 97.524027 
L 618.798 60.289381 
" style="fill:none;stroke:#0000ff;stroke-width:1.5;"/>
    <path clip-path="url(#pe3f004b46f)" d="M 627.3355 113.294911 
L 627.3355 76.060266 
" style="fill:none;stroke:#0000ff;stroke-width:1.5;"/>
    <path clip-path="url(#pe3f004b46f)" d="M 635.873 119.867258 
L 635.873 82.632613 
" style="fill:none;stroke:#0000ff;stroke-width:1.5;"/>
    <path clip-path="url(#pe3f004b46f)" d="M 644.4105 116.387782 
L 644.4105 79.153136 
" style="fill:none;stroke:#0000ff;stroke-width:1.5;"/>
    <path clip-path="url(#pe3f004b46f)" d="M 652.948 123.414772 
L 652.948 86.180127 
" style="fill:none;stroke:#0000ff;stroke-width:1.5;"/>
    <path clip-path="url(#pe3f004b46f)" d="M 661.4855 93.04371 
L 661.4855 55.809064 
" style="fill:none;stroke:#0000ff;stroke-width:1.5;"/>
    <path clip-path="url(#pe3f004b46f)" d="M 670.023 122.213735 
L 670.023 84.979089 
" style="fill:none;stroke:#0000ff;stroke-width:1.5;"/>
    <path clip-path="url(#pe3f004b46f)" d="M 678.5605 113.597431 
L 678.5605 76.362786 
" style="fill:none;stroke:#0000ff;stroke-width:1.5;"/>
    <path clip-path="url(#pe3f004b46f)" d="M 687.098 123.484928 
L 687.098 86.250283 
" style="fill:none;stroke:#0000ff;stroke-width:1.5;"/>
    <path clip-path="url(#pe3f004b46f)" d="M 695.6355 106.235728 
L 695.6355 69.001082 
" style="fill:none;stroke:#0000ff;stroke-width:1.5;"/>
    <path clip-path="url(#pe3f004b46f)" d="M 704.173 133.045743 
L 704.173 95.811097 
" style="fill:none;stroke:#0000ff;stroke-width:1.5;"/>
    <path clip-path="url(#pe3f004b46f)" d="M 712.7105 113.103153 
L 712.7105 75.868507 
" style="fill:none;stroke:#0000ff;stroke-width:1.5;"/>
    <path clip-path="url(#pe3f004b46f)" d="M 721.248 104.881645 
L 721.248 67.647 
" style="fill:none;stroke:#0000ff;stroke-width:1.5;"/>
    <path clip-path="url(#pe3f004b46f)" d="M 729.7855 109.562052 
L 729.7855 72.327407 
" style="fill:none;stroke:#0000ff;stroke-width:1.5;"/>
    <path clip-path="url(#pe3f004b46f)" d="M 738.323 121.889876 
L 738.323 84.655231 
" style="fill:none;stroke:#0000ff;stroke-width:1.5;"/>
    <path clip-path="url(#pe3f004b46f)" d="M 746.8605 114.663487 
L 746.8605 77.428841 
" style="fill:none;stroke:#0000ff;stroke-width:1.5;"/>
    <path clip-path="url(#pe3f004b46f)" d="M 755.398 120.208405 
L 755.398 82.97376 
" style="fill:none;stroke:#0000ff;stroke-width:1.5;"/>
    <path clip-path="url(#pe3f004b46f)" d="M 763.9355 97.815891 
L 763.9355 60.581246 
" style="fill:none;stroke:#0000ff;stroke-width:1.5;"/>
    <path clip-path="url(#pe3f004b46f)" d="M 772.473 110.067149 
L 772.473 72.832503 
" style="fill:none;stroke:#0000ff;stroke-width:1.5;"/>
    <path clip-path="url(#pe3f004b46f)" d="M 781.0105 118.513227 
L 781.0105 81.278582 
" style="fill:none;stroke:#0000ff;stroke-width:1.5;"/>
    <path clip-path="url(#pe3f004b46f)" d="M 789.548 85.300627 
L 789.548 48.065982 
" style="fill:none;stroke:#0000ff;stroke-width:1.5;"/>
    <path clip-path="url(#pe3f004b46f)" d="M 798.0855 150.532688 
L 798.0855 113.298043 
" style="fill:none;stroke:#0000ff;stroke-width:1.5;"/>
    <path clip-path="url(#pe3f004b46f)" d="M 806.623 110.51914 
L 806.623 73.284494 
" style="fill:none;stroke:#0000ff;stroke-width:1.5;"/>
    <path clip-path="url(#pe3f004b46f)" d="M 815.1605 131.422098 
L 815.1605 94.187453 
" style="fill:none;stroke:#0000ff;stroke-width:1.5;"/>
    <path clip-path="url(#pe3f004b46f)" d="M 823.698 115.853555 
L 823.698 78.61891 
" style="fill:none;stroke:#0000ff;stroke-width:1.5;"/>
    <path clip-path="url(#pe3f004b46f)" d="M 832.2355 107.946772 
L 832.2355 70.712127 
" style="fill:none;stroke:#0000ff;stroke-width:1.5;"/>
    <path clip-path="url(#pe3f004b46f)" d="M 840.773 116.523288 
L 840.773 79.288643 
" style="fill:none;stroke:#0000ff;stroke-width:1.5;"/>
    <path clip-path="url(#pe3f004b46f)" d="M 849.3105 137.433008 
L 849.3105 100.198363 
" style="fill:none;stroke:#0000ff;stroke-width:1.5;"/>
    <path clip-path="url(#pe3f004b46f)" d="M 857.848 137.978176 
L 857.848 100.743531 
" style="fill:none;stroke:#0000ff;stroke-width:1.5;"/>
   </g>
   <g id="line2d_8">
    <path clip-path="url(#pe3f004b46f)" d="M 174.848 97.155462 
L 857.848 97.155462 
" style="fill:none;stroke:#ff0000;stroke-linecap:square;stroke-width:1.5;"/>
   </g>
   <g id="line2d_9">
    <defs>
     <path d="M -3 0 
L 3 0 
M 0 3 
L 0 -3 
" id="ma6ce6928d1" style="stroke:#0000ff;"/>
    </defs>
    <g clip-path="url(#pe3f004b46f)">
     <use style="fill:#0000ff;stroke:#0000ff;" x="174.848" xlink:href="#ma6ce6928d1" y="90.971123"/>
     <use style="fill:#0000ff;stroke:#0000ff;" x="183.3855" xlink:href="#ma6ce6928d1" y="91.056175"/>
     <use style="fill:#0000ff;stroke:#0000ff;" x="191.923" xlink:href="#ma6ce6928d1" y="93.849459"/>
     <use style="fill:#0000ff;stroke:#0000ff;" x="200.4605" xlink:href="#ma6ce6928d1" y="65.7824"/>
     <use style="fill:#0000ff;stroke:#0000ff;" x="208.998" xlink:href="#ma6ce6928d1" y="107.203875"/>
     <use style="fill:#0000ff;stroke:#0000ff;" x="217.5355" xlink:href="#ma6ce6928d1" y="89.105274"/>
     <use style="fill:#0000ff;stroke:#0000ff;" x="226.073" xlink:href="#ma6ce6928d1" y="78.039236"/>
     <use style="fill:#0000ff;stroke:#0000ff;" x="234.6105" xlink:href="#ma6ce6928d1" y="101.947608"/>
     <use style="fill:#0000ff;stroke:#0000ff;" x="243.148" xlink:href="#ma6ce6928d1" y="102.311661"/>
     <use style="fill:#0000ff;stroke:#0000ff;" x="251.6855" xlink:href="#ma6ce6928d1" y="76.131155"/>
     <use style="fill:#0000ff;stroke:#0000ff;" x="260.223" xlink:href="#ma6ce6928d1" y="102.199359"/>
     <use style="fill:#0000ff;stroke:#0000ff;" x="268.7605" xlink:href="#ma6ce6928d1" y="90.351556"/>
     <use style="fill:#0000ff;stroke:#0000ff;" x="277.298" xlink:href="#ma6ce6928d1" y="106.266626"/>
     <use style="fill:#0000ff;stroke:#0000ff;" x="285.8355" xlink:href="#ma6ce6928d1" y="107.68024"/>
     <use style="fill:#0000ff;stroke:#0000ff;" x="294.373" xlink:href="#ma6ce6928d1" y="90.426988"/>
     <use style="fill:#0000ff;stroke:#0000ff;" x="302.9105" xlink:href="#ma6ce6928d1" y="115.961319"/>
     <use style="fill:#0000ff;stroke:#0000ff;" x="311.448" xlink:href="#ma6ce6928d1" y="85.856758"/>
     <use style="fill:#0000ff;stroke:#0000ff;" x="319.9855" xlink:href="#ma6ce6928d1" y="114.289597"/>
     <use style="fill:#0000ff;stroke:#0000ff;" x="328.523" xlink:href="#ma6ce6928d1" y="89.367177"/>
     <use style="fill:#0000ff;stroke:#0000ff;" x="337.0605" xlink:href="#ma6ce6928d1" y="86.375797"/>
     <use style="fill:#0000ff;stroke:#0000ff;" x="345.598" xlink:href="#ma6ce6928d1" y="100.699225"/>
     <use style="fill:#0000ff;stroke:#0000ff;" x="354.1355" xlink:href="#ma6ce6928d1" y="112.79207"/>
     <use style="fill:#0000ff;stroke:#0000ff;" x="362.673" xlink:href="#ma6ce6928d1" y="83.995197"/>
     <use style="fill:#0000ff;stroke:#0000ff;" x="371.2105" xlink:href="#ma6ce6928d1" y="102.614191"/>
     <use style="fill:#0000ff;stroke:#0000ff;" x="379.748" xlink:href="#ma6ce6928d1" y="96.009122"/>
     <use style="fill:#0000ff;stroke:#0000ff;" x="388.2855" xlink:href="#ma6ce6928d1" y="101.538711"/>
     <use style="fill:#0000ff;stroke:#0000ff;" x="396.823" xlink:href="#ma6ce6928d1" y="84.148149"/>
     <use style="fill:#0000ff;stroke:#0000ff;" x="405.3605" xlink:href="#ma6ce6928d1" y="103.848416"/>
     <use style="fill:#0000ff;stroke:#0000ff;" x="413.898" xlink:href="#ma6ce6928d1" y="95.473424"/>
     <use style="fill:#0000ff;stroke:#0000ff;" x="422.4355" xlink:href="#ma6ce6928d1" y="114.526816"/>
     <use style="fill:#0000ff;stroke:#0000ff;" x="430.973" xlink:href="#ma6ce6928d1" y="119.40838"/>
     <use style="fill:#0000ff;stroke:#0000ff;" x="439.5105" xlink:href="#ma6ce6928d1" y="110.090559"/>
     <use style="fill:#0000ff;stroke:#0000ff;" x="448.048" xlink:href="#ma6ce6928d1" y="78.814388"/>
     <use style="fill:#0000ff;stroke:#0000ff;" x="456.5855" xlink:href="#ma6ce6928d1" y="99.165551"/>
     <use style="fill:#0000ff;stroke:#0000ff;" x="465.123" xlink:href="#ma6ce6928d1" y="104.204194"/>
     <use style="fill:#0000ff;stroke:#0000ff;" x="473.6605" xlink:href="#ma6ce6928d1" y="133.1824"/>
     <use style="fill:#0000ff;stroke:#0000ff;" x="482.198" xlink:href="#ma6ce6928d1" y="79.830209"/>
     <use style="fill:#0000ff;stroke:#0000ff;" x="490.7355" xlink:href="#ma6ce6928d1" y="90.632642"/>
     <use style="fill:#0000ff;stroke:#0000ff;" x="499.273" xlink:href="#ma6ce6928d1" y="90.752468"/>
     <use style="fill:#0000ff;stroke:#0000ff;" x="507.8105" xlink:href="#ma6ce6928d1" y="77.796144"/>
     <use style="fill:#0000ff;stroke:#0000ff;" x="516.348" xlink:href="#ma6ce6928d1" y="90.284757"/>
     <use style="fill:#0000ff;stroke:#0000ff;" x="524.8855" xlink:href="#ma6ce6928d1" y="102.156195"/>
     <use style="fill:#0000ff;stroke:#0000ff;" x="533.423" xlink:href="#ma6ce6928d1" y="122.034921"/>
     <use style="fill:#0000ff;stroke:#0000ff;" x="541.9605" xlink:href="#ma6ce6928d1" y="90.227576"/>
     <use style="fill:#0000ff;stroke:#0000ff;" x="550.498" xlink:href="#ma6ce6928d1" y="109.383923"/>
     <use style="fill:#0000ff;stroke:#0000ff;" x="559.0355" xlink:href="#ma6ce6928d1" y="76.482896"/>
     <use style="fill:#0000ff;stroke:#0000ff;" x="567.573" xlink:href="#ma6ce6928d1" y="93.650365"/>
     <use style="fill:#0000ff;stroke:#0000ff;" x="576.1105" xlink:href="#ma6ce6928d1" y="95.19242"/>
     <use style="fill:#0000ff;stroke:#0000ff;" x="584.648" xlink:href="#ma6ce6928d1" y="99.925921"/>
     <use style="fill:#0000ff;stroke:#0000ff;" x="593.1855" xlink:href="#ma6ce6928d1" y="90.916895"/>
     <use style="fill:#0000ff;stroke:#0000ff;" x="601.723" xlink:href="#ma6ce6928d1" y="104.110346"/>
     <use style="fill:#0000ff;stroke:#0000ff;" x="610.2605" xlink:href="#ma6ce6928d1" y="77.315267"/>
     <use style="fill:#0000ff;stroke:#0000ff;" x="618.798" xlink:href="#ma6ce6928d1" y="78.906704"/>
     <use style="fill:#0000ff;stroke:#0000ff;" x="627.3355" xlink:href="#ma6ce6928d1" y="94.677588"/>
     <use style="fill:#0000ff;stroke:#0000ff;" x="635.873" xlink:href="#ma6ce6928d1" y="101.249936"/>
     <use style="fill:#0000ff;stroke:#0000ff;" x="644.4105" xlink:href="#ma6ce6928d1" y="97.770459"/>
     <use style="fill:#0000ff;stroke:#0000ff;" x="652.948" xlink:href="#ma6ce6928d1" y="104.79745"/>
     <use style="fill:#0000ff;stroke:#0000ff;" x="661.4855" xlink:href="#ma6ce6928d1" y="74.426387"/>
     <use style="fill:#0000ff;stroke:#0000ff;" x="670.023" xlink:href="#ma6ce6928d1" y="103.596412"/>
     <use style="fill:#0000ff;stroke:#0000ff;" x="678.5605" xlink:href="#ma6ce6928d1" y="94.980108"/>
     <use style="fill:#0000ff;stroke:#0000ff;" x="687.098" xlink:href="#ma6ce6928d1" y="104.867606"/>
     <use style="fill:#0000ff;stroke:#0000ff;" x="695.6355" xlink:href="#ma6ce6928d1" y="87.618405"/>
     <use style="fill:#0000ff;stroke:#0000ff;" x="704.173" xlink:href="#ma6ce6928d1" y="114.42842"/>
     <use style="fill:#0000ff;stroke:#0000ff;" x="712.7105" xlink:href="#ma6ce6928d1" y="94.48583"/>
     <use style="fill:#0000ff;stroke:#0000ff;" x="721.248" xlink:href="#ma6ce6928d1" y="86.264323"/>
     <use style="fill:#0000ff;stroke:#0000ff;" x="729.7855" xlink:href="#ma6ce6928d1" y="90.944729"/>
     <use style="fill:#0000ff;stroke:#0000ff;" x="738.323" xlink:href="#ma6ce6928d1" y="103.272554"/>
     <use style="fill:#0000ff;stroke:#0000ff;" x="746.8605" xlink:href="#ma6ce6928d1" y="96.046164"/>
     <use style="fill:#0000ff;stroke:#0000ff;" x="755.398" xlink:href="#ma6ce6928d1" y="101.591083"/>
     <use style="fill:#0000ff;stroke:#0000ff;" x="763.9355" xlink:href="#ma6ce6928d1" y="79.198568"/>
     <use style="fill:#0000ff;stroke:#0000ff;" x="772.473" xlink:href="#ma6ce6928d1" y="91.449826"/>
     <use style="fill:#0000ff;stroke:#0000ff;" x="781.0105" xlink:href="#ma6ce6928d1" y="99.895904"/>
     <use style="fill:#0000ff;stroke:#0000ff;" x="789.548" xlink:href="#ma6ce6928d1" y="66.683305"/>
     <use style="fill:#0000ff;stroke:#0000ff;" x="798.0855" xlink:href="#ma6ce6928d1" y="131.915365"/>
     <use style="fill:#0000ff;stroke:#0000ff;" x="806.623" xlink:href="#ma6ce6928d1" y="91.901817"/>
     <use style="fill:#0000ff;stroke:#0000ff;" x="815.1605" xlink:href="#ma6ce6928d1" y="112.804776"/>
     <use style="fill:#0000ff;stroke:#0000ff;" x="823.698" xlink:href="#ma6ce6928d1" y="97.236232"/>
     <use style="fill:#0000ff;stroke:#0000ff;" x="832.2355" xlink:href="#ma6ce6928d1" y="89.32945"/>
     <use style="fill:#0000ff;stroke:#0000ff;" x="840.773" xlink:href="#ma6ce6928d1" y="97.905966"/>
     <use style="fill:#0000ff;stroke:#0000ff;" x="849.3105" xlink:href="#ma6ce6928d1" y="118.815686"/>
     <use style="fill:#0000ff;stroke:#0000ff;" x="857.848" xlink:href="#ma6ce6928d1" y="119.360853"/>
    </g>
   </g>
   <g id="patch_3">
    <path d="M 147.528 135.8784 
L 147.528 63.0864 
" style="fill:none;stroke:#000000;stroke-linecap:square;stroke-linejoin:miter;stroke-width:0.8;"/>
   </g>
   <g id="patch_4">
    <path d="M 885.168 135.8784 
L 885.168 63.0864 
" style="fill:none;stroke:#000000;stroke-linecap:square;stroke-linejoin:miter;stroke-width:0.8;"/>
   </g>
   <g id="patch_5">
    <path d="M 147.528 135.8784 
L 885.168 135.8784 
" style="fill:none;stroke:#000000;stroke-linecap:square;stroke-linejoin:miter;stroke-width:0.8;"/>
   </g>
   <g id="patch_6">
    <path d="M 147.528 63.0864 
L 885.168 63.0864 
" style="fill:none;stroke:#000000;stroke-linecap:square;stroke-linejoin:miter;stroke-width:0.8;"/>
   </g>
   <g id="text_4">
    <!-- Function (0/0): y = a*exp(-(x-x0)**2/w**2)+b -->
    <defs>
     <path d="M 9.8125 72.90625 
L 51.703125 72.90625 
L 51.703125 64.59375 
L 19.671875 64.59375 
L 19.671875 43.109375 
L 48.578125 43.109375 
L 48.578125 34.8125 
L 19.671875 34.8125 
L 19.671875 0 
L 9.8125 0 
z
" id="DejaVuSans-46"/>
     <path d="M 48.78125 52.59375 
L 48.78125 44.1875 
Q 44.96875 46.296875 41.140625 47.34375 
Q 37.3125 48.390625 33.40625 48.390625 
Q 24.65625 48.390625 19.8125 42.84375 
Q 14.984375 37.3125 14.984375 27.296875 
Q 14.984375 17.28125 19.8125 11.734375 
Q 24.65625 6.203125 33.40625 6.203125 
Q 37.3125 6.203125 41.140625 7.25 
Q 44.96875 8.296875 48.78125 10.40625 
L 48.78125 2.09375 
Q 45.015625 0.34375 40.984375 -0.53125 
Q 36.96875 -1.421875 32.421875 -1.421875 
Q 20.0625 -1.421875 12.78125 6.34375 
Q 5.515625 14.109375 5.515625 27.296875 
Q 5.515625 40.671875 12.859375 48.328125 
Q 20.21875 56 33.015625 56 
Q 37.15625 56 41.109375 55.140625 
Q 45.0625 54.296875 48.78125 52.59375 
z
" id="DejaVuSans-63"/>
     <path d="M 30.609375 48.390625 
Q 23.390625 48.390625 19.1875 42.75 
Q 14.984375 37.109375 14.984375 27.296875 
Q 14.984375 17.484375 19.15625 11.84375 
Q 23.34375 6.203125 30.609375 6.203125 
Q 37.796875 6.203125 41.984375 11.859375 
Q 46.1875 17.53125 46.1875 27.296875 
Q 46.1875 37.015625 41.984375 42.703125 
Q 37.796875 48.390625 30.609375 48.390625 
z
M 30.609375 56 
Q 42.328125 56 49.015625 48.375 
Q 55.71875 40.765625 55.71875 27.296875 
Q 55.71875 13.875 49.015625 6.21875 
Q 42.328125 -1.421875 30.609375 -1.421875 
Q 18.84375 -1.421875 12.171875 6.21875 
Q 5.515625 13.875 5.515625 27.296875 
Q 5.515625 40.765625 12.171875 48.375 
Q 18.84375 56 30.609375 56 
z
" id="DejaVuSans-6f"/>
     <path id="DejaVuSans-20"/>
     <path d="M 31 75.875 
Q 24.46875 64.65625 21.28125 53.65625 
Q 18.109375 42.671875 18.109375 31.390625 
Q 18.109375 20.125 21.3125 9.0625 
Q 24.515625 -2 31 -13.1875 
L 23.1875 -13.1875 
Q 15.875 -1.703125 12.234375 9.375 
Q 8.59375 20.453125 8.59375 31.390625 
Q 8.59375 42.28125 12.203125 53.3125 
Q 15.828125 64.359375 23.1875 75.875 
z
" id="DejaVuSans-28"/>
     <path d="M 25.390625 72.90625 
L 33.6875 72.90625 
L 8.296875 -9.28125 
L 0 -9.28125 
z
" id="DejaVuSans-2f"/>
     <path d="M 8.015625 75.875 
L 15.828125 75.875 
Q 23.140625 64.359375 26.78125 53.3125 
Q 30.421875 42.28125 30.421875 31.390625 
Q 30.421875 20.453125 26.78125 9.375 
Q 23.140625 -1.703125 15.828125 -13.1875 
L 8.015625 -13.1875 
Q 14.5 -2 17.703125 9.0625 
Q 20.90625 20.125 20.90625 31.390625 
Q 20.90625 42.671875 17.703125 53.65625 
Q 14.5 64.65625 8.015625 75.875 
z
" id="DejaVuSans-29"/>
     <path d="M 11.71875 12.40625 
L 22.015625 12.40625 
L 22.015625 0 
L 11.71875 0 
z
M 11.71875 51.703125 
L 22.015625 51.703125 
L 22.015625 39.3125 
L 11.71875 39.3125 
z
" id="DejaVuSans-3a"/>
     <path d="M 32.171875 -5.078125 
Q 28.375 -14.84375 24.75 -17.8125 
Q 21.140625 -20.796875 15.09375 -20.796875 
L 7.90625 -20.796875 
L 7.90625 -13.28125 
L 13.1875 -13.28125 
Q 16.890625 -13.28125 18.9375 -11.515625 
Q 21 -9.765625 23.484375 -3.21875 
L 25.09375 0.875 
L 2.984375 54.6875 
L 12.5 54.6875 
L 29.59375 11.921875 
L 46.6875 54.6875 
L 56.203125 54.6875 
z
" id="DejaVuSans-79"/>
     <path d="M 10.59375 45.40625 
L 73.1875 45.40625 
L 73.1875 37.203125 
L 10.59375 37.203125 
z
M 10.59375 25.484375 
L 73.1875 25.484375 
L 73.1875 17.1875 
L 10.59375 17.1875 
z
" id="DejaVuSans-3d"/>
     <path d="M 47.015625 60.890625 
L 29.5 51.421875 
L 47.015625 41.890625 
L 44.1875 37.109375 
L 27.78125 47.015625 
L 27.78125 28.609375 
L 22.21875 28.609375 
L 22.21875 47.015625 
L 5.8125 37.109375 
L 2.984375 41.890625 
L 20.515625 51.421875 
L 2.984375 60.890625 
L 5.8125 65.71875 
L 22.21875 55.8125 
L 22.21875 74.21875 
L 27.78125 74.21875 
L 27.78125 55.8125 
L 44.1875 65.71875 
z
" id="DejaVuSans-2a"/>
     <path d="M 54.890625 54.6875 
L 35.109375 28.078125 
L 55.90625 0 
L 45.3125 0 
L 29.390625 21.484375 
L 13.484375 0 
L 2.875 0 
L 24.125 28.609375 
L 4.6875 54.6875 
L 15.28125 54.6875 
L 29.78125 35.203125 
L 44.28125 54.6875 
z
" id="DejaVuSans-78"/>
     <path d="M 18.109375 8.203125 
L 18.109375 -20.796875 
L 9.078125 -20.796875 
L 9.078125 54.6875 
L 18.109375 54.6875 
L 18.109375 46.390625 
Q 20.953125 51.265625 25.265625 53.625 
Q 29.59375 56 35.59375 56 
Q 45.5625 56 51.78125 48.09375 
Q 58.015625 40.1875 58.015625 27.296875 
Q 58.015625 14.40625 51.78125 6.484375 
Q 45.5625 -1.421875 35.59375 -1.421875 
Q 29.59375 -1.421875 25.265625 0.953125 
Q 20.953125 3.328125 18.109375 8.203125 
z
M 48.6875 27.296875 
Q 48.6875 37.203125 44.609375 42.84375 
Q 40.53125 48.484375 33.40625 48.484375 
Q 26.265625 48.484375 22.1875 42.84375 
Q 18.109375 37.203125 18.109375 27.296875 
Q 18.109375 17.390625 22.1875 11.75 
Q 26.265625 6.109375 33.40625 6.109375 
Q 40.53125 6.109375 44.609375 11.75 
Q 48.6875 17.390625 48.6875 27.296875 
z
" id="DejaVuSans-70"/>
     <path d="M 4.890625 31.390625 
L 31.203125 31.390625 
L 31.203125 23.390625 
L 4.890625 23.390625 
z
" id="DejaVuSans-2d"/>
     <path d="M 4.203125 54.6875 
L 13.1875 54.6875 
L 24.421875 12.015625 
L 35.59375 54.6875 
L 46.1875 54.6875 
L 57.421875 12.015625 
L 68.609375 54.6875 
L 77.59375 54.6875 
L 63.28125 0 
L 52.6875 0 
L 40.921875 44.828125 
L 29.109375 0 
L 18.5 0 
z
" id="DejaVuSans-77"/>
     <path d="M 46 62.703125 
L 46 35.5 
L 73.1875 35.5 
L 73.1875 27.203125 
L 46 27.203125 
L 46 0 
L 37.796875 0 
L 37.796875 27.203125 
L 10.59375 27.203125 
L 10.59375 35.5 
L 37.796875 35.5 
L 37.796875 62.703125 
z
" id="DejaVuSans-2b"/>
     <path d="M 48.6875 27.296875 
Q 48.6875 37.203125 44.609375 42.84375 
Q 40.53125 48.484375 33.40625 48.484375 
Q 26.265625 48.484375 22.1875 42.84375 
Q 18.109375 37.203125 18.109375 27.296875 
Q 18.109375 17.390625 22.1875 11.75 
Q 26.265625 6.109375 33.40625 6.109375 
Q 40.53125 6.109375 44.609375 11.75 
Q 48.6875 17.390625 48.6875 27.296875 
z
M 18.109375 46.390625 
Q 20.953125 51.265625 25.265625 53.625 
Q 29.59375 56 35.59375 56 
Q 45.5625 56 51.78125 48.09375 
Q 58.015625 40.1875 58.015625 27.296875 
Q 58.015625 14.40625 51.78125 6.484375 
Q 45.5625 -1.421875 35.59375 -1.421875 
Q 29.59375 -1.421875 25.265625 0.953125 
Q 20.953125 3.328125 18.109375 8.203125 
L 18.109375 0 
L 9.078125 0 
L 9.078125 75.984375 
L 18.109375 75.984375 
z
" id="DejaVuSans-62"/>
    </defs>
    <g transform="translate(147.528 45.888588)scale(0.1 -0.1)">
     <use xlink:href="#DejaVuSans-46"/>
     <use x="57.441406" xlink:href="#DejaVuSans-75"/>
     <use x="120.820312" xlink:href="#DejaVuSans-6e"/>
     <use x="184.199219" xlink:href="#DejaVuSans-63"/>
     <use x="239.179688" xlink:href="#DejaVuSans-74"/>
     <use x="278.388672" xlink:href="#DejaVuSans-69"/>
     <use x="306.171875" xlink:href="#DejaVuSans-6f"/>
     <use x="367.353516" xlink:href="#DejaVuSans-6e"/>
     <use x="430.732422" xlink:href="#DejaVuSans-20"/>
     <use x="462.519531" xlink:href="#DejaVuSans-28"/>
     <use x="501.533203" xlink:href="#DejaVuSans-30"/>
     <use x="565.15625" xlink:href="#DejaVuSans-2f"/>
     <use x="598.847656" xlink:href="#DejaVuSans-30"/>
     <use x="662.470703" xlink:href="#DejaVuSans-29"/>
     <use x="701.484375" xlink:href="#DejaVuSans-3a"/>
     <use x="735.175781" xlink:href="#DejaVuSans-20"/>
     <use x="766.962891" xlink:href="#DejaVuSans-79"/>
     <use x="826.142578" xlink:href="#DejaVuSans-20"/>
     <use x="857.929688" xlink:href="#DejaVuSans-3d"/>
     <use x="941.71875" xlink:href="#DejaVuSans-20"/>
     <use x="973.505859" xlink:href="#DejaVuSans-61"/>
     <use x="1034.785156" xlink:href="#DejaVuSans-2a"/>
     <use x="1084.785156" xlink:href="#DejaVuSans-65"/>
     <use x="1146.292969" xlink:href="#DejaVuSans-78"/>
     <use x="1205.472656" xlink:href="#DejaVuSans-70"/>
     <use x="1268.949219" xlink:href="#DejaVuSans-28"/>
     <use x="1307.962891" xlink:href="#DejaVuSans-2d"/>
     <use x="1344.046875" xlink:href="#DejaVuSans-28"/>
     <use x="1383.060547" xlink:href="#DejaVuSans-78"/>
     <use x="1442.240234" xlink:href="#DejaVuSans-2d"/>
     <use x="1478.324219" xlink:href="#DejaVuSans-78"/>
     <use x="1537.503906" xlink:href="#DejaVuSans-30"/>
     <use x="1601.126953" xlink:href="#DejaVuSans-29"/>
     <use x="1640.140625" xlink:href="#DejaVuSans-2a"/>
     <use x="1690.140625" xlink:href="#DejaVuSans-2a"/>
     <use x="1740.140625" xlink:href="#DejaVuSans-32"/>
     <use x="1803.763672" xlink:href="#DejaVuSans-2f"/>
     <use x="1837.455078" xlink:href="#DejaVuSans-77"/>
     <use x="1919.242188" xlink:href="#DejaVuSans-2a"/>
     <use x="1969.242188" xlink:href="#DejaVuSans-2a"/>
     <use x="2019.242188" xlink:href="#DejaVuSans-32"/>
     <use x="2082.865234" xlink:href="#DejaVuSans-29"/>
     <use x="2121.878906" xlink:href="#DejaVuSans-2b"/>
     <use x="2205.667969" xlink:href="#DejaVuSans-62"/>
    </g>
    <!-- Fit: a=430.9$\pm$8.7, b=33.9$\pm$9.8, x0=4.5745$\pm$0.001, w=0.1644$\pm$0.0046, -->
    <defs>
     <path d="M 37.796875 64.3125 
L 12.890625 25.390625 
L 37.796875 25.390625 
z
M 35.203125 72.90625 
L 47.609375 72.90625 
L 47.609375 25.390625 
L 58.015625 25.390625 
L 58.015625 17.1875 
L 47.609375 17.1875 
L 47.609375 0 
L 37.796875 0 
L 37.796875 17.1875 
L 4.890625 17.1875 
L 4.890625 26.703125 
z
" id="DejaVuSans-34"/>
     <path d="M 40.578125 39.3125 
Q 47.65625 37.796875 51.625 33 
Q 55.609375 28.21875 55.609375 21.1875 
Q 55.609375 10.40625 48.1875 4.484375 
Q 40.765625 -1.421875 27.09375 -1.421875 
Q 22.515625 -1.421875 17.65625 -0.515625 
Q 12.796875 0.390625 7.625 2.203125 
L 7.625 11.71875 
Q 11.71875 9.328125 16.59375 8.109375 
Q 21.484375 6.890625 26.8125 6.890625 
Q 36.078125 6.890625 40.9375 10.546875 
Q 45.796875 14.203125 45.796875 21.1875 
Q 45.796875 27.640625 41.28125 31.265625 
Q 36.765625 34.90625 28.71875 34.90625 
L 20.21875 34.90625 
L 20.21875 43.015625 
L 29.109375 43.015625 
Q 36.375 43.015625 40.234375 45.921875 
Q 44.09375 48.828125 44.09375 54.296875 
Q 44.09375 59.90625 40.109375 62.90625 
Q 36.140625 65.921875 28.71875 65.921875 
Q 24.65625 65.921875 20.015625 65.03125 
Q 15.375 64.15625 9.8125 62.3125 
L 9.8125 71.09375 
Q 15.4375 72.65625 20.34375 73.4375 
Q 25.25 74.21875 29.59375 74.21875 
Q 40.828125 74.21875 47.359375 69.109375 
Q 53.90625 64.015625 53.90625 55.328125 
Q 53.90625 49.265625 50.4375 45.09375 
Q 46.96875 40.921875 40.578125 39.3125 
z
" id="DejaVuSans-33"/>
     <path d="M 10.6875 12.40625 
L 21 12.40625 
L 21 0 
L 10.6875 0 
z
" id="DejaVuSans-2e"/>
     <path d="M 10.984375 1.515625 
L 10.984375 10.5 
Q 14.703125 8.734375 18.5 7.8125 
Q 22.3125 6.890625 25.984375 6.890625 
Q 35.75 6.890625 40.890625 13.453125 
Q 46.046875 20.015625 46.78125 33.40625 
Q 43.953125 29.203125 39.59375 26.953125 
Q 35.25 24.703125 29.984375 24.703125 
Q 19.046875 24.703125 12.671875 31.3125 
Q 6.296875 37.9375 6.296875 49.421875 
Q 6.296875 60.640625 12.9375 67.421875 
Q 19.578125 74.21875 30.609375 74.21875 
Q 43.265625 74.21875 49.921875 64.515625 
Q 56.59375 54.828125 56.59375 36.375 
Q 56.59375 19.140625 48.40625 8.859375 
Q 40.234375 -1.421875 26.421875 -1.421875 
Q 22.703125 -1.421875 18.890625 -0.6875 
Q 15.09375 0.046875 10.984375 1.515625 
z
M 30.609375 32.421875 
Q 37.25 32.421875 41.125 36.953125 
Q 45.015625 41.5 45.015625 49.421875 
Q 45.015625 57.28125 41.125 61.84375 
Q 37.25 66.40625 30.609375 66.40625 
Q 23.96875 66.40625 20.09375 61.84375 
Q 16.21875 57.28125 16.21875 49.421875 
Q 16.21875 41.5 20.09375 36.953125 
Q 23.96875 32.421875 30.609375 32.421875 
z
" id="DejaVuSans-39"/>
     <path d="M 46 62.703125 
L 46 43.796875 
L 73.1875 43.796875 
L 73.1875 35.5 
L 46 35.5 
L 46 16.609375 
L 37.796875 16.609375 
L 37.796875 35.5 
L 10.59375 35.5 
L 10.59375 43.796875 
L 37.796875 43.796875 
L 37.796875 62.703125 
z
M 10.59375 8.296875 
L 73.1875 8.296875 
L 73.1875 0 
L 10.59375 0 
z
" id="DejaVuSans-b1"/>
     <path d="M 31.78125 34.625 
Q 24.75 34.625 20.71875 30.859375 
Q 16.703125 27.09375 16.703125 20.515625 
Q 16.703125 13.921875 20.71875 10.15625 
Q 24.75 6.390625 31.78125 6.390625 
Q 38.8125 6.390625 42.859375 10.171875 
Q 46.921875 13.96875 46.921875 20.515625 
Q 46.921875 27.09375 42.890625 30.859375 
Q 38.875 34.625 31.78125 34.625 
z
M 21.921875 38.8125 
Q 15.578125 40.375 12.03125 44.71875 
Q 8.5 49.078125 8.5 55.328125 
Q 8.5 64.0625 14.71875 69.140625 
Q 20.953125 74.21875 31.78125 74.21875 
Q 42.671875 74.21875 48.875 69.140625 
Q 55.078125 64.0625 55.078125 55.328125 
Q 55.078125 49.078125 51.53125 44.71875 
Q 48 40.375 41.703125 38.8125 
Q 48.828125 37.15625 52.796875 32.3125 
Q 56.78125 27.484375 56.78125 20.515625 
Q 56.78125 9.90625 50.3125 4.234375 
Q 43.84375 -1.421875 31.78125 -1.421875 
Q 19.734375 -1.421875 13.25 4.234375 
Q 6.78125 9.90625 6.78125 20.515625 
Q 6.78125 27.484375 10.78125 32.3125 
Q 14.796875 37.15625 21.921875 38.8125 
z
M 18.3125 54.390625 
Q 18.3125 48.734375 21.84375 45.5625 
Q 25.390625 42.390625 31.78125 42.390625 
Q 38.140625 42.390625 41.71875 45.5625 
Q 45.3125 48.734375 45.3125 54.390625 
Q 45.3125 60.0625 41.71875 63.234375 
Q 38.140625 66.40625 31.78125 66.40625 
Q 25.390625 66.40625 21.84375 63.234375 
Q 18.3125 60.0625 18.3125 54.390625 
z
" id="DejaVuSans-38"/>
     <path d="M 8.203125 72.90625 
L 55.078125 72.90625 
L 55.078125 68.703125 
L 28.609375 0 
L 18.3125 0 
L 43.21875 64.59375 
L 8.203125 64.59375 
z
" id="DejaVuSans-37"/>
     <path d="M 11.71875 12.40625 
L 22.015625 12.40625 
L 22.015625 4 
L 14.015625 -11.625 
L 7.71875 -11.625 
L 11.71875 4 
z
" id="DejaVuSans-2c"/>
     <path d="M 10.796875 72.90625 
L 49.515625 72.90625 
L 49.515625 64.59375 
L 19.828125 64.59375 
L 19.828125 46.734375 
Q 21.96875 47.46875 24.109375 47.828125 
Q 26.265625 48.1875 28.421875 48.1875 
Q 40.625 48.1875 47.75 41.5 
Q 54.890625 34.8125 54.890625 23.390625 
Q 54.890625 11.625 47.5625 5.09375 
Q 40.234375 -1.421875 26.90625 -1.421875 
Q 22.3125 -1.421875 17.546875 -0.640625 
Q 12.796875 0.140625 7.71875 1.703125 
L 7.71875 11.625 
Q 12.109375 9.234375 16.796875 8.0625 
Q 21.484375 6.890625 26.703125 6.890625 
Q 35.15625 6.890625 40.078125 11.328125 
Q 45.015625 15.765625 45.015625 23.390625 
Q 45.015625 31 40.078125 35.4375 
Q 35.15625 39.890625 26.703125 39.890625 
Q 22.75 39.890625 18.8125 39.015625 
Q 14.890625 38.140625 10.796875 36.28125 
z
" id="DejaVuSans-35"/>
     <path d="M 12.40625 8.296875 
L 28.515625 8.296875 
L 28.515625 63.921875 
L 10.984375 60.40625 
L 10.984375 69.390625 
L 28.421875 72.90625 
L 38.28125 72.90625 
L 38.28125 8.296875 
L 54.390625 8.296875 
L 54.390625 0 
L 12.40625 0 
z
" id="DejaVuSans-31"/>
     <path d="M 33.015625 40.375 
Q 26.375 40.375 22.484375 35.828125 
Q 18.609375 31.296875 18.609375 23.390625 
Q 18.609375 15.53125 22.484375 10.953125 
Q 26.375 6.390625 33.015625 6.390625 
Q 39.65625 6.390625 43.53125 10.953125 
Q 47.40625 15.53125 47.40625 23.390625 
Q 47.40625 31.296875 43.53125 35.828125 
Q 39.65625 40.375 33.015625 40.375 
z
M 52.59375 71.296875 
L 52.59375 62.3125 
Q 48.875 64.0625 45.09375 64.984375 
Q 41.3125 65.921875 37.59375 65.921875 
Q 27.828125 65.921875 22.671875 59.328125 
Q 17.53125 52.734375 16.796875 39.40625 
Q 19.671875 43.65625 24.015625 45.921875 
Q 28.375 48.1875 33.59375 48.1875 
Q 44.578125 48.1875 50.953125 41.515625 
Q 57.328125 34.859375 57.328125 23.390625 
Q 57.328125 12.15625 50.6875 5.359375 
Q 44.046875 -1.421875 33.015625 -1.421875 
Q 20.359375 -1.421875 13.671875 8.265625 
Q 6.984375 17.96875 6.984375 36.375 
Q 6.984375 53.65625 15.1875 63.9375 
Q 23.390625 74.21875 37.203125 74.21875 
Q 40.921875 74.21875 44.703125 73.484375 
Q 48.484375 72.75 52.59375 71.296875 
z
" id="DejaVuSans-36"/>
    </defs>
    <g transform="translate(147.528 57.0864)scale(0.1 -0.1)">
     <use transform="translate(0 0.015625)" xlink:href="#DejaVuSans-46"/>
     <use transform="translate(57.519531 0.015625)" xlink:href="#DejaVuSans-69"/>
     <use transform="translate(85.302734 0.015625)" xlink:href="#DejaVuSans-74"/>
     <use transform="translate(124.511719 0.015625)" xlink:href="#DejaVuSans-3a"/>
     <use transform="translate(158.203125 0.015625)" xlink:href="#DejaVuSans-20"/>
     <use transform="translate(189.990234 0.015625)" xlink:href="#DejaVuSans-61"/>
     <use transform="translate(251.269531 0.015625)" xlink:href="#DejaVuSans-3d"/>
     <use transform="translate(335.058594 0.015625)" xlink:href="#DejaVuSans-34"/>
     <use transform="translate(398.681641 0.015625)" xlink:href="#DejaVuSans-33"/>
     <use transform="translate(462.304688 0.015625)" xlink:href="#DejaVuSans-30"/>
     <use transform="translate(525.927734 0.015625)" xlink:href="#DejaVuSans-2e"/>
     <use transform="translate(557.714844 0.015625)" xlink:href="#DejaVuSans-39"/>
     <use transform="translate(621.337891 0.015625)" xlink:href="#DejaVuSans-b1"/>
     <use transform="translate(705.126953 0.015625)" xlink:href="#DejaVuSans-38"/>
     <use transform="translate(768.75 0.015625)" xlink:href="#DejaVuSans-2e"/>
     <use transform="translate(800.427734 0.015625)" xlink:href="#DejaVuSans-37"/>
     <use transform="translate(864.050781 0.015625)" xlink:href="#DejaVuSans-2c"/>
     <use transform="translate(895.837891 0.015625)" xlink:href="#DejaVuSans-20"/>
     <use transform="translate(927.625 0.015625)" xlink:href="#DejaVuSans-62"/>
     <use transform="translate(991.101562 0.015625)" xlink:href="#DejaVuSans-3d"/>
     <use transform="translate(1074.890625 0.015625)" xlink:href="#DejaVuSans-33"/>
     <use transform="translate(1138.513672 0.015625)" xlink:href="#DejaVuSans-33"/>
     <use transform="translate(1202.136719 0.015625)" xlink:href="#DejaVuSans-2e"/>
     <use transform="translate(1233.923828 0.015625)" xlink:href="#DejaVuSans-39"/>
     <use transform="translate(1297.546875 0.015625)" xlink:href="#DejaVuSans-b1"/>
     <use transform="translate(1381.335938 0.015625)" xlink:href="#DejaVuSans-39"/>
     <use transform="translate(1444.958984 0.015625)" xlink:href="#DejaVuSans-2e"/>
     <use transform="translate(1476.714844 0.015625)" xlink:href="#DejaVuSans-38"/>
     <use transform="translate(1540.337891 0.015625)" xlink:href="#DejaVuSans-2c"/>
     <use transform="translate(1572.125 0.015625)" xlink:href="#DejaVuSans-20"/>
     <use transform="translate(1603.912109 0.015625)" xlink:href="#DejaVuSans-78"/>
     <use transform="translate(1663.091797 0.015625)" xlink:href="#DejaVuSans-30"/>
     <use transform="translate(1726.714844 0.015625)" xlink:href="#DejaVuSans-3d"/>
     <use transform="translate(1810.503906 0.015625)" xlink:href="#DejaVuSans-34"/>
     <use transform="translate(1874.126953 0.015625)" xlink:href="#DejaVuSans-2e"/>
     <use transform="translate(1905.914062 0.015625)" xlink:href="#DejaVuSans-35"/>
     <use transform="translate(1969.427734 0.015625)" xlink:href="#DejaVuSans-37"/>
     <use transform="translate(2033.050781 0.015625)" xlink:href="#DejaVuSans-34"/>
     <use transform="translate(2096.673828 0.015625)" xlink:href="#DejaVuSans-35"/>
     <use transform="translate(2160.296875 0.015625)" xlink:href="#DejaVuSans-b1"/>
     <use transform="translate(2244.085938 0.015625)" xlink:href="#DejaVuSans-30"/>
     <use transform="translate(2307.708984 0.015625)" xlink:href="#DejaVuSans-2e"/>
     <use transform="translate(2339.496094 0.015625)" xlink:href="#DejaVuSans-30"/>
     <use transform="translate(2403.119141 0.015625)" xlink:href="#DejaVuSans-30"/>
     <use transform="translate(2466.742188 0.015625)" xlink:href="#DejaVuSans-31"/>
     <use transform="translate(2530.365234 0.015625)" xlink:href="#DejaVuSans-2c"/>
     <use transform="translate(2562.152344 0.015625)" xlink:href="#DejaVuSans-20"/>
     <use transform="translate(2593.939453 0.015625)" xlink:href="#DejaVuSans-77"/>
     <use transform="translate(2675.726562 0.015625)" xlink:href="#DejaVuSans-3d"/>
     <use transform="translate(2759.515625 0.015625)" xlink:href="#DejaVuSans-30"/>
     <use transform="translate(2823.138672 0.015625)" xlink:href="#DejaVuSans-2e"/>
     <use transform="translate(2854.925781 0.015625)" xlink:href="#DejaVuSans-31"/>
     <use transform="translate(2918.548828 0.015625)" xlink:href="#DejaVuSans-36"/>
     <use transform="translate(2982.171875 0.015625)" xlink:href="#DejaVuSans-34"/>
     <use transform="translate(3045.794922 0.015625)" xlink:href="#DejaVuSans-34"/>
     <use transform="translate(3109.417969 0.015625)" xlink:href="#DejaVuSans-b1"/>
     <use transform="translate(3193.207031 0.015625)" xlink:href="#DejaVuSans-30"/>
     <use transform="translate(3256.830078 0.015625)" xlink:href="#DejaVuSans-2e"/>
     <use transform="translate(3288.617188 0.015625)" xlink:href="#DejaVuSans-30"/>
     <use transform="translate(3352.240234 0.015625)" xlink:href="#DejaVuSans-30"/>
     <use transform="translate(3415.863281 0.015625)" xlink:href="#DejaVuSans-34"/>
     <use transform="translate(3479.486328 0.015625)" xlink:href="#DejaVuSans-36"/>
     <use transform="translate(3543.109375 0.015625)" xlink:href="#DejaVuSans-2c"/>
    </g>
   </g>
  </g>
  <g id="axes_2">
   <g id="patch_7">
    <path d="M 147.528 436.752 
L 885.168 436.752 
L 885.168 145.584 
L 147.528 145.584 
z
" style="fill:#ffffff;"/>
   </g>
   <g id="matplotlib.axis_3">
    <g id="xtick_6">
     <g id="line2d_10">
      <g>
       <use style="stroke:#000000;stroke-width:0.8;" x="272.255342" xlink:href="#mb5e70a20ef" y="436.752"/>
      </g>
     </g>
     <g id="text_5">
      <!-- 4.4 -->
      <g transform="translate(262.713467 452.870125)scale(0.12 -0.12)">
       <use xlink:href="#DejaVuSans-34"/>
       <use x="63.623047" xlink:href="#DejaVuSans-2e"/>
       <use x="95.410156" xlink:href="#DejaVuSans-34"/>
      </g>
     </g>
    </g>
    <g id="xtick_7">
     <g id="line2d_11">
      <g>
       <use style="stroke:#000000;stroke-width:0.8;" x="415.77195" xlink:href="#mb5e70a20ef" y="436.752"/>
      </g>
     </g>
     <g id="text_6">
      <!-- 4.5 -->
      <g transform="translate(406.230075 452.870125)scale(0.12 -0.12)">
       <use xlink:href="#DejaVuSans-34"/>
       <use x="63.623047" xlink:href="#DejaVuSans-2e"/>
       <use x="95.410156" xlink:href="#DejaVuSans-35"/>
      </g>
     </g>
    </g>
    <g id="xtick_8">
     <g id="line2d_12">
      <g>
       <use style="stroke:#000000;stroke-width:0.8;" x="559.288557" xlink:href="#mb5e70a20ef" y="436.752"/>
      </g>
     </g>
     <g id="text_7">
      <!-- 4.6 -->
      <g transform="translate(549.746682 452.870125)scale(0.12 -0.12)">
       <use xlink:href="#DejaVuSans-34"/>
       <use x="63.623047" xlink:href="#DejaVuSans-2e"/>
       <use x="95.410156" xlink:href="#DejaVuSans-36"/>
      </g>
     </g>
    </g>
    <g id="xtick_9">
     <g id="line2d_13">
      <g>
       <use style="stroke:#000000;stroke-width:0.8;" x="702.805164" xlink:href="#mb5e70a20ef" y="436.752"/>
      </g>
     </g>
     <g id="text_8">
      <!-- 4.7 -->
      <g transform="translate(693.263289 452.870125)scale(0.12 -0.12)">
       <use xlink:href="#DejaVuSans-34"/>
       <use x="63.623047" xlink:href="#DejaVuSans-2e"/>
       <use x="95.410156" xlink:href="#DejaVuSans-37"/>
      </g>
     </g>
    </g>
    <g id="xtick_10">
     <g id="line2d_14">
      <g>
       <use style="stroke:#000000;stroke-width:0.8;" x="846.321772" xlink:href="#mb5e70a20ef" y="436.752"/>
      </g>
     </g>
     <g id="text_9">
      <!-- 4.8 -->
      <g transform="translate(836.779897 452.870125)scale(0.12 -0.12)">
       <use xlink:href="#DejaVuSans-34"/>
       <use x="63.623047" xlink:href="#DejaVuSans-2e"/>
       <use x="95.410156" xlink:href="#DejaVuSans-38"/>
      </g>
     </g>
    </g>
    <g id="text_10">
     <!-- Energy [MeV] -->
     <defs>
      <path d="M 9.8125 72.90625 
L 55.90625 72.90625 
L 55.90625 64.59375 
L 19.671875 64.59375 
L 19.671875 43.015625 
L 54.390625 43.015625 
L 54.390625 34.71875 
L 19.671875 34.71875 
L 19.671875 8.296875 
L 56.78125 8.296875 
L 56.78125 0 
L 9.8125 0 
z
" id="DejaVuSans-45"/>
      <path d="M 41.109375 46.296875 
Q 39.59375 47.171875 37.8125 47.578125 
Q 36.03125 48 33.890625 48 
Q 26.265625 48 22.1875 43.046875 
Q 18.109375 38.09375 18.109375 28.8125 
L 18.109375 0 
L 9.078125 0 
L 9.078125 54.6875 
L 18.109375 54.6875 
L 18.109375 46.1875 
Q 20.953125 51.171875 25.484375 53.578125 
Q 30.03125 56 36.53125 56 
Q 37.453125 56 38.578125 55.875 
Q 39.703125 55.765625 41.0625 55.515625 
z
" id="DejaVuSans-72"/>
      <path d="M 45.40625 27.984375 
Q 45.40625 37.75 41.375 43.109375 
Q 37.359375 48.484375 30.078125 48.484375 
Q 22.859375 48.484375 18.828125 43.109375 
Q 14.796875 37.75 14.796875 27.984375 
Q 14.796875 18.265625 18.828125 12.890625 
Q 22.859375 7.515625 30.078125 7.515625 
Q 37.359375 7.515625 41.375 12.890625 
Q 45.40625 18.265625 45.40625 27.984375 
z
M 54.390625 6.78125 
Q 54.390625 -7.171875 48.1875 -13.984375 
Q 42 -20.796875 29.203125 -20.796875 
Q 24.46875 -20.796875 20.265625 -20.09375 
Q 16.0625 -19.390625 12.109375 -17.921875 
L 12.109375 -9.1875 
Q 16.0625 -11.328125 19.921875 -12.34375 
Q 23.78125 -13.375 27.78125 -13.375 
Q 36.625 -13.375 41.015625 -8.765625 
Q 45.40625 -4.15625 45.40625 5.171875 
L 45.40625 9.625 
Q 42.625 4.78125 38.28125 2.390625 
Q 33.9375 0 27.875 0 
Q 17.828125 0 11.671875 7.65625 
Q 5.515625 15.328125 5.515625 27.984375 
Q 5.515625 40.671875 11.671875 48.328125 
Q 17.828125 56 27.875 56 
Q 33.9375 56 38.28125 53.609375 
Q 42.625 51.21875 45.40625 46.390625 
L 45.40625 54.6875 
L 54.390625 54.6875 
z
" id="DejaVuSans-67"/>
      <path d="M 8.59375 75.984375 
L 29.296875 75.984375 
L 29.296875 69 
L 17.578125 69 
L 17.578125 -6.203125 
L 29.296875 -6.203125 
L 29.296875 -13.1875 
L 8.59375 -13.1875 
z
" id="DejaVuSans-5b"/>
      <path d="M 9.8125 72.90625 
L 24.515625 72.90625 
L 43.109375 23.296875 
L 61.8125 72.90625 
L 76.515625 72.90625 
L 76.515625 0 
L 66.890625 0 
L 66.890625 64.015625 
L 48.09375 14.015625 
L 38.1875 14.015625 
L 19.390625 64.015625 
L 19.390625 0 
L 9.8125 0 
z
" id="DejaVuSans-4d"/>
      <path d="M 28.609375 0 
L 0.78125 72.90625 
L 11.078125 72.90625 
L 34.1875 11.53125 
L 57.328125 72.90625 
L 67.578125 72.90625 
L 39.796875 0 
z
" id="DejaVuSans-56"/>
      <path d="M 30.421875 75.984375 
L 30.421875 -13.1875 
L 9.71875 -13.1875 
L 9.71875 -6.203125 
L 21.390625 -6.203125 
L 21.390625 69 
L 9.71875 69 
L 9.71875 75.984375 
z
" id="DejaVuSans-5d"/>
     </defs>
     <g transform="translate(475.674562 468.483875)scale(0.12 -0.12)">
      <use xlink:href="#DejaVuSans-45"/>
      <use x="63.183594" xlink:href="#DejaVuSans-6e"/>
      <use x="126.5625" xlink:href="#DejaVuSans-65"/>
      <use x="188.085938" xlink:href="#DejaVuSans-72"/>
      <use x="229.183594" xlink:href="#DejaVuSans-67"/>
      <use x="292.660156" xlink:href="#DejaVuSans-79"/>
      <use x="351.839844" xlink:href="#DejaVuSans-20"/>
      <use x="383.626953" xlink:href="#DejaVuSans-5b"/>
      <use x="422.640625" xlink:href="#DejaVuSans-4d"/>
      <use x="508.919922" xlink:href="#DejaVuSans-65"/>
      <use x="570.443359" xlink:href="#DejaVuSans-56"/>
      <use x="638.851562" xlink:href="#DejaVuSans-5d"/>
     </g>
    </g>
   </g>
   <g id="matplotlib.axis_4">
    <g id="ytick_3">
     <g id="line2d_15">
      <g>
       <use style="stroke:#000000;stroke-width:0.8;" x="147.528" xlink:href="#m45822de030" y="413.003265"/>
      </g>
     </g>
     <g id="text_11">
      <!-- 100 -->
      <g transform="translate(117.623 417.562328)scale(0.12 -0.12)">
       <use xlink:href="#DejaVuSans-31"/>
       <use x="63.623047" xlink:href="#DejaVuSans-30"/>
       <use x="127.246094" xlink:href="#DejaVuSans-30"/>
      </g>
     </g>
    </g>
    <g id="ytick_4">
     <g id="line2d_16">
      <g>
       <use style="stroke:#000000;stroke-width:0.8;" x="147.528" xlink:href="#m45822de030" y="379.760355"/>
      </g>
     </g>
     <g id="text_12">
      <!-- 150 -->
      <g transform="translate(117.623 384.319418)scale(0.12 -0.12)">
       <use xlink:href="#DejaVuSans-31"/>
       <use x="63.623047" xlink:href="#DejaVuSans-35"/>
       <use x="127.246094" xlink:href="#DejaVuSans-30"/>
      </g>
     </g>
    </g>
    <g id="ytick_5">
     <g id="line2d_17">
      <g>
       <use style="stroke:#000000;stroke-width:0.8;" x="147.528" xlink:href="#m45822de030" y="346.517445"/>
      </g>
     </g>
     <g id="text_13">
      <!-- 200 -->
      <g transform="translate(117.623 351.076508)scale(0.12 -0.12)">
       <use xlink:href="#DejaVuSans-32"/>
       <use x="63.623047" xlink:href="#DejaVuSans-30"/>
       <use x="127.246094" xlink:href="#DejaVuSans-30"/>
      </g>
     </g>
    </g>
    <g id="ytick_6">
     <g id="line2d_18">
      <g>
       <use style="stroke:#000000;stroke-width:0.8;" x="147.528" xlink:href="#m45822de030" y="313.274535"/>
      </g>
     </g>
     <g id="text_14">
      <!-- 250 -->
      <g transform="translate(117.623 317.833598)scale(0.12 -0.12)">
       <use xlink:href="#DejaVuSans-32"/>
       <use x="63.623047" xlink:href="#DejaVuSans-35"/>
       <use x="127.246094" xlink:href="#DejaVuSans-30"/>
      </g>
     </g>
    </g>
    <g id="ytick_7">
     <g id="line2d_19">
      <g>
       <use style="stroke:#000000;stroke-width:0.8;" x="147.528" xlink:href="#m45822de030" y="280.031625"/>
      </g>
     </g>
     <g id="text_15">
      <!-- 300 -->
      <g transform="translate(117.623 284.590688)scale(0.12 -0.12)">
       <use xlink:href="#DejaVuSans-33"/>
       <use x="63.623047" xlink:href="#DejaVuSans-30"/>
       <use x="127.246094" xlink:href="#DejaVuSans-30"/>
      </g>
     </g>
    </g>
    <g id="ytick_8">
     <g id="line2d_20">
      <g>
       <use style="stroke:#000000;stroke-width:0.8;" x="147.528" xlink:href="#m45822de030" y="246.788715"/>
      </g>
     </g>
     <g id="text_16">
      <!-- 350 -->
      <g transform="translate(117.623 251.347778)scale(0.12 -0.12)">
       <use xlink:href="#DejaVuSans-33"/>
       <use x="63.623047" xlink:href="#DejaVuSans-35"/>
       <use x="127.246094" xlink:href="#DejaVuSans-30"/>
      </g>
     </g>
    </g>
    <g id="ytick_9">
     <g id="line2d_21">
      <g>
       <use style="stroke:#000000;stroke-width:0.8;" x="147.528" xlink:href="#m45822de030" y="213.545805"/>
      </g>
     </g>
     <g id="text_17">
      <!-- 400 -->
      <g transform="translate(117.623 218.104868)scale(0.12 -0.12)">
       <use xlink:href="#DejaVuSans-34"/>
       <use x="63.623047" xlink:href="#DejaVuSans-30"/>
       <use x="127.246094" xlink:href="#DejaVuSans-30"/>
      </g>
     </g>
    </g>
    <g id="ytick_10">
     <g id="line2d_22">
      <g>
       <use style="stroke:#000000;stroke-width:0.8;" x="147.528" xlink:href="#m45822de030" y="180.302895"/>
      </g>
     </g>
     <g id="text_18">
      <!-- 450 -->
      <g transform="translate(117.623 184.861958)scale(0.12 -0.12)">
       <use xlink:href="#DejaVuSans-34"/>
       <use x="63.623047" xlink:href="#DejaVuSans-35"/>
       <use x="127.246094" xlink:href="#DejaVuSans-30"/>
      </g>
     </g>
    </g>
    <g id="ytick_11">
     <g id="line2d_23">
      <g>
       <use style="stroke:#000000;stroke-width:0.8;" x="147.528" xlink:href="#m45822de030" y="147.059985"/>
      </g>
     </g>
     <g id="text_19">
      <!-- 500 -->
      <g transform="translate(117.623 151.619048)scale(0.12 -0.12)">
       <use xlink:href="#DejaVuSans-35"/>
       <use x="63.623047" xlink:href="#DejaVuSans-30"/>
       <use x="127.246094" xlink:href="#DejaVuSans-30"/>
      </g>
     </g>
    </g>
    <g id="text_20">
     <!-- Counts -->
     <defs>
      <path d="M 64.40625 67.28125 
L 64.40625 56.890625 
Q 59.421875 61.53125 53.78125 63.8125 
Q 48.140625 66.109375 41.796875 66.109375 
Q 29.296875 66.109375 22.65625 58.46875 
Q 16.015625 50.828125 16.015625 36.375 
Q 16.015625 21.96875 22.65625 14.328125 
Q 29.296875 6.6875 41.796875 6.6875 
Q 48.140625 6.6875 53.78125 8.984375 
Q 59.421875 11.28125 64.40625 15.921875 
L 64.40625 5.609375 
Q 59.234375 2.09375 53.4375 0.328125 
Q 47.65625 -1.421875 41.21875 -1.421875 
Q 24.65625 -1.421875 15.125 8.703125 
Q 5.609375 18.84375 5.609375 36.375 
Q 5.609375 53.953125 15.125 64.078125 
Q 24.65625 74.21875 41.21875 74.21875 
Q 47.75 74.21875 53.53125 72.484375 
Q 59.328125 70.75 64.40625 67.28125 
z
" id="DejaVuSans-43"/>
     </defs>
     <g transform="translate(111.127375 312.11175)rotate(-90)scale(0.12 -0.12)">
      <use xlink:href="#DejaVuSans-43"/>
      <use x="69.824219" xlink:href="#DejaVuSans-6f"/>
      <use x="131.005859" xlink:href="#DejaVuSans-75"/>
      <use x="194.384766" xlink:href="#DejaVuSans-6e"/>
      <use x="257.763672" xlink:href="#DejaVuSans-74"/>
      <use x="296.972656" xlink:href="#DejaVuSans-73"/>
     </g>
    </g>
   </g>
   <g id="LineCollection_2">
    <path clip-path="url(#pe9a5b21a50)" d="M 174.848 428.476921 
L 174.848 416.145639 
" style="fill:none;stroke:#0000ff;stroke-width:1.5;"/>
    <path clip-path="url(#pe9a5b21a50)" d="M 183.3855 425.014303 
L 183.3855 412.294817 
" style="fill:none;stroke:#0000ff;stroke-width:1.5;"/>
    <path clip-path="url(#pe9a5b21a50)" d="M 191.923 422.176951 
L 191.923 409.148445 
" style="fill:none;stroke:#0000ff;stroke-width:1.5;"/>
    <path clip-path="url(#pe9a5b21a50)" d="M 200.4605 407.623706 
L 200.4605 393.118213 
" style="fill:none;stroke:#0000ff;stroke-width:1.5;"/>
    <path clip-path="url(#pe9a5b21a50)" d="M 208.998 418.388287 
L 208.998 404.95881 
" style="fill:none;stroke:#0000ff;stroke-width:1.5;"/>
    <path clip-path="url(#pe9a5b21a50)" d="M 217.5355 407.306498 
L 217.5355 392.770563 
" style="fill:none;stroke:#0000ff;stroke-width:1.5;"/>
    <path clip-path="url(#pe9a5b21a50)" d="M 226.073 397.776293 
L 226.073 382.355022 
" style="fill:none;stroke:#0000ff;stroke-width:1.5;"/>
    <path clip-path="url(#pe9a5b21a50)" d="M 234.6105 401.909247 
L 234.6105 386.865224 
" style="fill:none;stroke:#0000ff;stroke-width:1.5;"/>
    <path clip-path="url(#pe9a5b21a50)" d="M 243.148 396.503693 
L 243.148 380.968189 
" style="fill:none;stroke:#0000ff;stroke-width:1.5;"/>
    <path clip-path="url(#pe9a5b21a50)" d="M 251.6855 379.28612 
L 251.6855 362.283419 
" style="fill:none;stroke:#0000ff;stroke-width:1.5;"/>
    <path clip-path="url(#pe9a5b21a50)" d="M 260.223 384.394393 
L 260.223 367.812877 
" style="fill:none;stroke:#0000ff;stroke-width:1.5;"/>
    <path clip-path="url(#pe9a5b21a50)" d="M 268.7605 372.57384 
L 268.7605 355.033676 
" style="fill:none;stroke:#0000ff;stroke-width:1.5;"/>
    <path clip-path="url(#pe9a5b21a50)" d="M 277.298 372.89366 
L 277.298 355.378715 
" style="fill:none;stroke:#0000ff;stroke-width:1.5;"/>
    <path clip-path="url(#pe9a5b21a50)" d="M 285.8355 366.493919 
L 285.8355 348.481292 
" style="fill:none;stroke:#0000ff;stroke-width:1.5;"/>
    <path clip-path="url(#pe9a5b21a50)" d="M 294.373 350.787301 
L 294.373 331.609858 
" style="fill:none;stroke:#0000ff;stroke-width:1.5;"/>
    <path clip-path="url(#pe9a5b21a50)" d="M 302.9105 355.599277 
L 302.9105 336.770755 
" style="fill:none;stroke:#0000ff;stroke-width:1.5;"/>
    <path clip-path="url(#pe9a5b21a50)" d="M 311.448 332.47468 
L 311.448 312.025561 
" style="fill:none;stroke:#0000ff;stroke-width:1.5;"/>
    <path clip-path="url(#pe9a5b21a50)" d="M 319.9855 339.226142 
L 319.9855 319.236122 
" style="fill:none;stroke:#0000ff;stroke-width:1.5;"/>
    <path clip-path="url(#pe9a5b21a50)" d="M 328.523 317.668585 
L 328.523 296.248179 
" style="fill:none;stroke:#0000ff;stroke-width:1.5;"/>
    <path clip-path="url(#pe9a5b21a50)" d="M 337.0605 307.356096 
L 337.0605 285.285207 
" style="fill:none;stroke:#0000ff;stroke-width:1.5;"/>
    <path clip-path="url(#pe9a5b21a50)" d="M 345.598 307.033676 
L 345.598 284.942768 
" style="fill:none;stroke:#0000ff;stroke-width:1.5;"/>
    <path clip-path="url(#pe9a5b21a50)" d="M 354.1355 305.421442 
L 354.1355 283.230711 
" style="fill:none;stroke:#0000ff;stroke-width:1.5;"/>
    <path clip-path="url(#pe9a5b21a50)" d="M 362.673 279.597186 
L 362.673 255.866311 
" style="fill:none;stroke:#0000ff;stroke-width:1.5;"/>
    <path clip-path="url(#pe9a5b21a50)" d="M 371.2105 282.504928 
L 371.2105 258.942293 
" style="fill:none;stroke:#0000ff;stroke-width:1.5;"/>
    <path clip-path="url(#pe9a5b21a50)" d="M 379.748 269.900504 
L 379.748 245.617247 
" style="fill:none;stroke:#0000ff;stroke-width:1.5;"/>
    <path clip-path="url(#pe9a5b21a50)" d="M 388.2855 265.049834 
L 388.2855 240.495044 
" style="fill:none;stroke:#0000ff;stroke-width:1.5;"/>
    <path clip-path="url(#pe9a5b21a50)" d="M 396.823 245.308964 
L 396.823 219.679564 
" style="fill:none;stroke:#0000ff;stroke-width:1.5;"/>
    <path clip-path="url(#pe9a5b21a50)" d="M 405.3605 250.4891 
L 405.3605 225.137158 
" style="fill:none;stroke:#0000ff;stroke-width:1.5;"/>
    <path clip-path="url(#pe9a5b21a50)" d="M 413.898 237.212043 
L 413.898 211.15503 
" style="fill:none;stroke:#0000ff;stroke-width:1.5;"/>
    <path clip-path="url(#pe9a5b21a50)" d="M 422.4355 242.718335 
L 422.4355 216.951327 
" style="fill:none;stroke:#0000ff;stroke-width:1.5;"/>
    <path clip-path="url(#pe9a5b21a50)" d="M 430.973 239.155625 
L 430.973 213.200597 
" style="fill:none;stroke:#0000ff;stroke-width:1.5;"/>
    <path clip-path="url(#pe9a5b21a50)" d="M 439.5105 226.518848 
L 439.5105 199.907904 
" style="fill:none;stroke:#0000ff;stroke-width:1.5;"/>
    <path clip-path="url(#pe9a5b21a50)" d="M 448.048 197.976933 
L 448.048 169.942298 
" style="fill:none;stroke:#0000ff;stroke-width:1.5;"/>
    <path clip-path="url(#pe9a5b21a50)" d="M 456.5855 207.386852 
L 456.5855 179.813266 
" style="fill:none;stroke:#0000ff;stroke-width:1.5;"/>
    <path clip-path="url(#pe9a5b21a50)" d="M 465.123 206.089161 
L 465.123 178.451525 
" style="fill:none;stroke:#0000ff;stroke-width:1.5;"/>
    <path clip-path="url(#pe9a5b21a50)" d="M 473.6605 221.980615 
L 473.6605 195.138123 
" style="fill:none;stroke:#0000ff;stroke-width:1.5;"/>
    <path clip-path="url(#pe9a5b21a50)" d="M 482.198 179.795652 
L 482.198 150.89152 
" style="fill:none;stroke:#0000ff;stroke-width:1.5;"/>
    <path clip-path="url(#pe9a5b21a50)" d="M 490.7355 184.991649 
L 490.7355 156.333253 
" style="fill:none;stroke:#0000ff;stroke-width:1.5;"/>
    <path clip-path="url(#pe9a5b21a50)" d="M 499.273 182.71853 
L 499.273 153.952366 
" style="fill:none;stroke:#0000ff;stroke-width:1.5;"/>
    <path clip-path="url(#pe9a5b21a50)" d="M 507.8105 171.02507 
L 507.8105 141.71093 
" style="fill:none;stroke:#0000ff;stroke-width:1.5;"/>
    <path clip-path="url(#pe9a5b21a50)" d="M 516.348 179.795652 
L 516.348 150.89152 
" style="fill:none;stroke:#0000ff;stroke-width:1.5;"/>
    <path clip-path="url(#pe9a5b21a50)" d="M 524.8855 188.563283 
L 524.8855 160.07506 
" style="fill:none;stroke:#0000ff;stroke-width:1.5;"/>
    <path clip-path="url(#pe9a5b21a50)" d="M 533.423 203.493557 
L 533.423 175.728263 
" style="fill:none;stroke:#0000ff;stroke-width:1.5;"/>
    <path clip-path="url(#pe9a5b21a50)" d="M 541.9605 181.419513 
L 541.9605 152.591949 
" style="fill:none;stroke:#0000ff;stroke-width:1.5;"/>
    <path clip-path="url(#pe9a5b21a50)" d="M 550.498 197.652385 
L 550.498 169.601987 
" style="fill:none;stroke:#0000ff;stroke-width:1.5;"/>
    <path clip-path="url(#pe9a5b21a50)" d="M 559.0355 175.57314 
L 559.0355 146.470875 
" style="fill:none;stroke:#0000ff;stroke-width:1.5;"/>
    <path clip-path="url(#pe9a5b21a50)" d="M 567.573 192.134406 
L 567.573 163.817377 
" style="fill:none;stroke:#0000ff;stroke-width:1.5;"/>
    <path clip-path="url(#pe9a5b21a50)" d="M 576.1105 197.327833 
L 576.1105 169.261681 
" style="fill:none;stroke:#0000ff;stroke-width:1.5;"/>
    <path clip-path="url(#pe9a5b21a50)" d="M 584.648 205.440288 
L 584.648 177.770682 
" style="fill:none;stroke:#0000ff;stroke-width:1.5;"/>
    <path clip-path="url(#pe9a5b21a50)" d="M 593.1855 204.142485 
L 593.1855 176.409051 
" style="fill:none;stroke:#0000ff;stroke-width:1.5;"/>
    <path clip-path="url(#pe9a5b21a50)" d="M 601.723 219.386892 
L 601.723 192.41298 
" style="fill:none;stroke:#0000ff;stroke-width:1.5;"/>
    <path clip-path="url(#pe9a5b21a50)" d="M 610.2605 206.413591 
L 610.2605 178.791953 
" style="fill:none;stroke:#0000ff;stroke-width:1.5;"/>
    <path clip-path="url(#pe9a5b21a50)" d="M 618.798 214.522807 
L 618.798 187.304191 
" style="fill:none;stroke:#0000ff;stroke-width:1.5;"/>
    <path clip-path="url(#pe9a5b21a50)" d="M 627.3355 233.000269 
L 627.3355 206.723647 
" style="fill:none;stroke:#0000ff;stroke-width:1.5;"/>
    <path clip-path="url(#pe9a5b21a50)" d="M 635.873 244.985155 
L 635.873 219.338514 
" style="fill:none;stroke:#0000ff;stroke-width:1.5;"/>
    <path clip-path="url(#pe9a5b21a50)" d="M 644.4105 250.4891 
L 644.4105 225.137158 
" style="fill:none;stroke:#0000ff;stroke-width:1.5;"/>
    <path clip-path="url(#pe9a5b21a50)" d="M 652.948 263.109147 
L 652.948 238.446582 
" style="fill:none;stroke:#0000ff;stroke-width:1.5;"/>
    <path clip-path="url(#pe9a5b21a50)" d="M 661.4855 251.460207 
L 661.4855 226.160627 
" style="fill:none;stroke:#0000ff;stroke-width:1.5;"/>
    <path clip-path="url(#pe9a5b21a50)" d="M 670.023 278.95094 
L 670.023 255.182841 
" style="fill:none;stroke:#0000ff;stroke-width:1.5;"/>
    <path clip-path="url(#pe9a5b21a50)" d="M 678.5605 282.181875 
L 678.5605 258.600488 
" style="fill:none;stroke:#0000ff;stroke-width:1.5;"/>
    <path clip-path="url(#pe9a5b21a50)" d="M 687.098 296.711593 
L 687.098 273.989389 
" style="fill:none;stroke:#0000ff;stroke-width:1.5;"/>
    <path clip-path="url(#pe9a5b21a50)" d="M 695.6355 295.097978 
L 695.6355 272.278712 
" style="fill:none;stroke:#0000ff;stroke-width:1.5;"/>
    <path clip-path="url(#pe9a5b21a50)" d="M 704.173 318.95695 
L 704.173 297.619248 
" style="fill:none;stroke:#0000ff;stroke-width:1.5;"/>
    <path clip-path="url(#pe9a5b21a50)" d="M 712.7105 316.380062 
L 712.7105 294.877269 
" style="fill:none;stroke:#0000ff;stroke-width:1.5;"/>
    <path clip-path="url(#pe9a5b21a50)" d="M 721.248 320.245153 
L 721.248 298.990477 
" style="fill:none;stroke:#0000ff;stroke-width:1.5;"/>
    <path clip-path="url(#pe9a5b21a50)" d="M 729.7855 331.188106 
L 729.7855 310.652703 
" style="fill:none;stroke:#0000ff;stroke-width:1.5;"/>
    <path clip-path="url(#pe9a5b21a50)" d="M 738.323 345.651094 
L 738.323 326.108334 
" style="fill:none;stroke:#0000ff;stroke-width:1.5;"/>
    <path clip-path="url(#pe9a5b21a50)" d="M 746.8605 349.824526 
L 746.8605 330.578058 
" style="fill:none;stroke:#0000ff;stroke-width:1.5;"/>
    <path clip-path="url(#pe9a5b21a50)" d="M 755.398 360.087485 
L 755.398 341.590561 
" style="fill:none;stroke:#0000ff;stroke-width:1.5;"/>
    <path clip-path="url(#pe9a5b21a50)" d="M 763.9355 356.561282 
L 763.9355 337.803324 
" style="fill:none;stroke:#0000ff;stroke-width:1.5;"/>
    <path clip-path="url(#pe9a5b21a50)" d="M 772.473 369.694661 
L 772.473 351.929132 
" style="fill:none;stroke:#0000ff;stroke-width:1.5;"/>
    <path clip-path="url(#pe9a5b21a50)" d="M 781.0105 380.24432 
L 781.0105 363.319793 
" style="fill:none;stroke:#0000ff;stroke-width:1.5;"/>
    <path clip-path="url(#pe9a5b21a50)" d="M 789.548 371.614274 
L 789.548 353.998668 
" style="fill:none;stroke:#0000ff;stroke-width:1.5;"/>
    <path clip-path="url(#pe9a5b21a50)" d="M 798.0855 404.767703 
L 798.0855 389.990491 
" style="fill:none;stroke:#0000ff;stroke-width:1.5;"/>
    <path clip-path="url(#pe9a5b21a50)" d="M 806.623 395.230676 
L 806.623 379.581773 
" style="fill:none;stroke:#0000ff;stroke-width:1.5;"/>
    <path clip-path="url(#pe9a5b21a50)" d="M 815.1605 408.575138 
L 815.1605 394.161355 
" style="fill:none;stroke:#0000ff;stroke-width:1.5;"/>
    <path clip-path="url(#pe9a5b21a50)" d="M 823.698 407.940882 
L 823.698 393.465895 
" style="fill:none;stroke:#0000ff;stroke-width:1.5;"/>
    <path clip-path="url(#pe9a5b21a50)" d="M 832.2355 409.843256 
L 832.2355 395.55267 
" style="fill:none;stroke:#0000ff;stroke-width:1.5;"/>
    <path clip-path="url(#pe9a5b21a50)" d="M 840.773 417.440193 
L 840.773 403.91233 
" style="fill:none;stroke:#0000ff;stroke-width:1.5;"/>
    <path clip-path="url(#pe9a5b21a50)" d="M 849.3105 428.162389 
L 849.3105 415.795312 
" style="fill:none;stroke:#0000ff;stroke-width:1.5;"/>
    <path clip-path="url(#pe9a5b21a50)" d="M 857.848 431.933227 
L 857.848 420.002773 
" style="fill:none;stroke:#0000ff;stroke-width:1.5;"/>
   </g>
   <g id="line2d_24">
    <path clip-path="url(#pe9a5b21a50)" d="M 174.848 479.472405 
L 230.910062 479.323258 
L 257.573726 479.044919 
L 276.033185 478.645332 
L 291.074226 478.100237 
L 303.380533 477.434872 
L 314.319471 476.615747 
L 323.891043 475.671656 
L 332.095247 474.653446 
L 339.615768 473.517545 
L 347.136288 472.155206 
L 353.973125 470.690801 
L 360.126278 469.16455 
L 366.279431 467.417998 
L 372.432585 465.42778 
L 377.902054 463.434461 
L 383.371524 461.21174 
L 388.840993 458.741645 
L 394.310462 456.00604 
L 399.096248 453.380357 
L 403.882034 450.525578 
L 408.66782 447.430031 
L 413.453606 444.08247 
L 418.239391 440.472232 
L 423.025177 436.589389 
L 427.810963 432.424925 
L 432.596749 427.9709 
L 437.382535 423.220638 
L 442.16832 418.168903 
L 446.954106 412.81208 
L 451.739892 407.148359 
L 457.209361 400.300048 
L 462.678831 393.054865 
L 468.1483 385.42045 
L 473.61777 377.408671 
L 479.770923 367.964845 
L 485.924076 358.094451 
L 492.760913 346.673404 
L 500.281433 333.632002 
L 508.485638 318.948989 
L 520.10826 297.629045 
L 539.251403 262.462242 
L 547.455608 247.916706 
L 554.292444 236.270789 
L 559.761914 227.359041 
L 565.231383 218.87888 
L 570.017169 211.863561 
L 574.802955 205.269938 
L 578.905057 199.984306 
L 583.007159 195.061913 
L 587.109261 190.525368 
L 590.52768 187.054922 
L 593.946098 183.878412 
L 597.364517 181.006275 
L 600.782935 178.448013 
L 604.201353 176.212144 
L 606.936088 174.660638 
L 609.670823 173.323612 
L 612.405558 172.203954 
L 615.140292 171.304086 
L 617.875027 170.62596 
L 620.609762 170.171051 
L 623.344496 169.940347 
L 626.079231 169.934352 
L 628.813966 170.153078 
L 631.548701 170.596049 
L 634.283435 171.262301 
L 637.01817 172.150386 
L 639.752905 173.258378 
L 642.48764 174.583878 
L 645.222374 176.124024 
L 647.957109 177.875502 
L 651.375528 180.356272 
L 654.793946 183.153077 
L 658.212364 186.256648 
L 661.630783 189.656771 
L 665.049201 193.34234 
L 669.151303 198.124951 
L 673.253405 203.279308 
L 677.355508 208.781925 
L 682.141293 215.608758 
L 686.927079 222.834859 
L 692.396549 231.527458 
L 698.549702 241.78201 
L 705.386539 253.655201 
L 713.590743 268.391349 
L 725.897049 291.036036 
L 741.621774 319.9233 
L 750.509662 335.780489 
L 758.030182 348.746465 
L 764.867019 360.086111 
L 771.020172 369.874593 
L 777.173325 379.2299 
L 782.642795 387.158658 
L 788.112264 394.707021 
L 793.581734 401.86409 
L 799.051203 408.623129 
L 803.836989 414.208453 
L 808.622775 419.48716 
L 813.408561 424.461538 
L 818.194346 429.135632 
L 822.980132 433.515064 
L 827.765918 437.606848 
L 832.551704 441.419217 
L 837.337489 444.961435 
L 842.123275 448.243634 
L 846.909061 451.276641 
L 851.694847 454.071823 
L 857.164316 456.990201 
L 857.848 457.335128 
L 857.848 457.335128 
" style="fill:none;stroke:#404040;stroke-linecap:square;stroke-width:1.5;"/>
   </g>
   <g id="line2d_25">
    <path clip-path="url(#pe9a5b21a50)" d="M 174.848 424.359395 
L 182.368521 421.184842 
L 189.889041 417.780607 
L 197.409562 414.139299 
L 204.930082 410.254346 
L 212.450603 406.120119 
L 219.971123 401.732073 
L 227.491644 397.086878 
L 235.012164 392.182549 
L 242.532685 387.018582 
L 250.053205 381.596074 
L 257.573726 375.917845 
L 265.77793 369.43728 
L 273.982134 362.666622 
L 282.186338 355.617398 
L 291.074226 347.683274 
L 300.645798 338.818172 
L 310.217369 329.653427 
L 321.156308 318.86323 
L 333.462615 306.40273 
L 349.871023 289.446012 
L 379.953105 258.297458 
L 391.575728 246.605963 
L 401.147299 237.264795 
L 410.035187 228.892934 
L 418.239391 221.476082 
L 425.759912 214.980184 
L 432.596749 209.356427 
L 439.433586 204.027077 
L 445.586739 199.502582 
L 451.739892 195.253381 
L 457.893045 191.295666 
L 463.362515 188.034753 
L 468.831984 185.026239 
L 474.301453 182.279448 
L 479.770923 179.802955 
L 484.556709 177.863891 
L 489.342494 176.142436 
L 494.12828 174.642773 
L 498.914066 173.368561 
L 503.699852 172.322918 
L 508.485638 171.50841 
L 513.271423 170.927042 
L 518.057209 170.580245 
L 522.842995 170.468875 
L 527.628781 170.593206 
L 532.414567 170.952932 
L 537.200352 171.547166 
L 541.986138 172.374444 
L 546.771924 173.43273 
L 551.55771 174.719429 
L 556.343495 176.231391 
L 561.129281 177.964928 
L 565.915067 179.915829 
L 571.384537 182.405515 
L 576.854006 185.165105 
L 582.323475 188.185986 
L 587.792945 191.458798 
L 593.262414 194.973486 
L 599.415568 199.203274 
L 605.568721 203.70949 
L 611.721874 208.475156 
L 618.558711 214.053061 
L 626.079231 220.503318 
L 633.599752 227.249521 
L 641.803956 234.904875 
L 650.691844 243.493839 
L 660.947099 253.710191 
L 673.937089 266.98518 
L 697.866018 291.851936 
L 715.641794 310.160301 
L 727.9481 322.528756 
L 738.887039 333.211669 
L 748.458611 342.2655 
L 758.030182 351.006086 
L 766.91807 358.814341 
L 775.122274 365.740172 
L 783.326478 372.381903 
L 791.530683 378.729304 
L 799.051203 384.282811 
L 806.571724 389.578994 
L 814.092244 394.615891 
L 821.612765 399.393205 
L 829.133285 403.912179 
L 836.653806 408.175473 
L 844.174326 412.187031 
L 851.694847 415.951944 
L 857.848 418.85311 
L 857.848 418.85311 
" style="fill:none;stroke:#ff0000;stroke-linecap:square;stroke-width:1.5;"/>
   </g>
   <g id="line2d_26">
    <g clip-path="url(#pe9a5b21a50)">
     <use style="fill:#0000ff;stroke:#0000ff;" x="174.848" xlink:href="#ma6ce6928d1" y="422.31128"/>
     <use style="fill:#0000ff;stroke:#0000ff;" x="183.3855" xlink:href="#ma6ce6928d1" y="418.65456"/>
     <use style="fill:#0000ff;stroke:#0000ff;" x="191.923" xlink:href="#ma6ce6928d1" y="415.662698"/>
     <use style="fill:#0000ff;stroke:#0000ff;" x="200.4605" xlink:href="#ma6ce6928d1" y="400.370959"/>
     <use style="fill:#0000ff;stroke:#0000ff;" x="208.998" xlink:href="#ma6ce6928d1" y="411.673549"/>
     <use style="fill:#0000ff;stroke:#0000ff;" x="217.5355" xlink:href="#ma6ce6928d1" y="400.03853"/>
     <use style="fill:#0000ff;stroke:#0000ff;" x="226.073" xlink:href="#ma6ce6928d1" y="390.065657"/>
     <use style="fill:#0000ff;stroke:#0000ff;" x="234.6105" xlink:href="#ma6ce6928d1" y="394.387236"/>
     <use style="fill:#0000ff;stroke:#0000ff;" x="243.148" xlink:href="#ma6ce6928d1" y="388.735941"/>
     <use style="fill:#0000ff;stroke:#0000ff;" x="251.6855" xlink:href="#ma6ce6928d1" y="370.784769"/>
     <use style="fill:#0000ff;stroke:#0000ff;" x="260.223" xlink:href="#ma6ce6928d1" y="376.103635"/>
     <use style="fill:#0000ff;stroke:#0000ff;" x="268.7605" xlink:href="#ma6ce6928d1" y="363.803758"/>
     <use style="fill:#0000ff;stroke:#0000ff;" x="277.298" xlink:href="#ma6ce6928d1" y="364.136187"/>
     <use style="fill:#0000ff;stroke:#0000ff;" x="285.8355" xlink:href="#ma6ce6928d1" y="357.487605"/>
     <use style="fill:#0000ff;stroke:#0000ff;" x="294.373" xlink:href="#ma6ce6928d1" y="341.19858"/>
     <use style="fill:#0000ff;stroke:#0000ff;" x="302.9105" xlink:href="#ma6ce6928d1" y="346.185016"/>
     <use style="fill:#0000ff;stroke:#0000ff;" x="311.448" xlink:href="#ma6ce6928d1" y="322.250121"/>
     <use style="fill:#0000ff;stroke:#0000ff;" x="319.9855" xlink:href="#ma6ce6928d1" y="329.231132"/>
     <use style="fill:#0000ff;stroke:#0000ff;" x="328.523" xlink:href="#ma6ce6928d1" y="306.958382"/>
     <use style="fill:#0000ff;stroke:#0000ff;" x="337.0605" xlink:href="#ma6ce6928d1" y="296.320651"/>
     <use style="fill:#0000ff;stroke:#0000ff;" x="345.598" xlink:href="#ma6ce6928d1" y="295.988222"/>
     <use style="fill:#0000ff;stroke:#0000ff;" x="354.1355" xlink:href="#ma6ce6928d1" y="294.326076"/>
     <use style="fill:#0000ff;stroke:#0000ff;" x="362.673" xlink:href="#ma6ce6928d1" y="267.731748"/>
     <use style="fill:#0000ff;stroke:#0000ff;" x="371.2105" xlink:href="#ma6ce6928d1" y="270.72361"/>
     <use style="fill:#0000ff;stroke:#0000ff;" x="379.748" xlink:href="#ma6ce6928d1" y="257.758875"/>
     <use style="fill:#0000ff;stroke:#0000ff;" x="388.2855" xlink:href="#ma6ce6928d1" y="252.772439"/>
     <use style="fill:#0000ff;stroke:#0000ff;" x="396.823" xlink:href="#ma6ce6928d1" y="232.494264"/>
     <use style="fill:#0000ff;stroke:#0000ff;" x="405.3605" xlink:href="#ma6ce6928d1" y="237.813129"/>
     <use style="fill:#0000ff;stroke:#0000ff;" x="413.898" xlink:href="#ma6ce6928d1" y="224.183536"/>
     <use style="fill:#0000ff;stroke:#0000ff;" x="422.4355" xlink:href="#ma6ce6928d1" y="229.834831"/>
     <use style="fill:#0000ff;stroke:#0000ff;" x="430.973" xlink:href="#ma6ce6928d1" y="226.178111"/>
     <use style="fill:#0000ff;stroke:#0000ff;" x="439.5105" xlink:href="#ma6ce6928d1" y="213.213376"/>
     <use style="fill:#0000ff;stroke:#0000ff;" x="448.048" xlink:href="#ma6ce6928d1" y="183.959615"/>
     <use style="fill:#0000ff;stroke:#0000ff;" x="456.5855" xlink:href="#ma6ce6928d1" y="193.600059"/>
     <use style="fill:#0000ff;stroke:#0000ff;" x="465.123" xlink:href="#ma6ce6928d1" y="192.270343"/>
     <use style="fill:#0000ff;stroke:#0000ff;" x="473.6605" xlink:href="#ma6ce6928d1" y="208.559369"/>
     <use style="fill:#0000ff;stroke:#0000ff;" x="482.198" xlink:href="#ma6ce6928d1" y="165.343586"/>
     <use style="fill:#0000ff;stroke:#0000ff;" x="490.7355" xlink:href="#ma6ce6928d1" y="170.662451"/>
     <use style="fill:#0000ff;stroke:#0000ff;" x="499.273" xlink:href="#ma6ce6928d1" y="168.335448"/>
     <use style="fill:#0000ff;stroke:#0000ff;" x="507.8105" xlink:href="#ma6ce6928d1" y="156.368"/>
     <use style="fill:#0000ff;stroke:#0000ff;" x="516.348" xlink:href="#ma6ce6928d1" y="165.343586"/>
     <use style="fill:#0000ff;stroke:#0000ff;" x="524.8855" xlink:href="#ma6ce6928d1" y="174.319171"/>
     <use style="fill:#0000ff;stroke:#0000ff;" x="533.423" xlink:href="#ma6ce6928d1" y="189.61091"/>
     <use style="fill:#0000ff;stroke:#0000ff;" x="541.9605" xlink:href="#ma6ce6928d1" y="167.005731"/>
     <use style="fill:#0000ff;stroke:#0000ff;" x="550.498" xlink:href="#ma6ce6928d1" y="183.627186"/>
     <use style="fill:#0000ff;stroke:#0000ff;" x="559.0355" xlink:href="#ma6ce6928d1" y="161.022007"/>
     <use style="fill:#0000ff;stroke:#0000ff;" x="567.573" xlink:href="#ma6ce6928d1" y="177.975891"/>
     <use style="fill:#0000ff;stroke:#0000ff;" x="576.1105" xlink:href="#ma6ce6928d1" y="183.294757"/>
     <use style="fill:#0000ff;stroke:#0000ff;" x="584.648" xlink:href="#ma6ce6928d1" y="191.605485"/>
     <use style="fill:#0000ff;stroke:#0000ff;" x="593.1855" xlink:href="#ma6ce6928d1" y="190.275768"/>
     <use style="fill:#0000ff;stroke:#0000ff;" x="601.723" xlink:href="#ma6ce6928d1" y="205.899936"/>
     <use style="fill:#0000ff;stroke:#0000ff;" x="610.2605" xlink:href="#ma6ce6928d1" y="192.602772"/>
     <use style="fill:#0000ff;stroke:#0000ff;" x="618.798" xlink:href="#ma6ce6928d1" y="200.913499"/>
     <use style="fill:#0000ff;stroke:#0000ff;" x="627.3355" xlink:href="#ma6ce6928d1" y="219.861958"/>
     <use style="fill:#0000ff;stroke:#0000ff;" x="635.873" xlink:href="#ma6ce6928d1" y="232.161835"/>
     <use style="fill:#0000ff;stroke:#0000ff;" x="644.4105" xlink:href="#ma6ce6928d1" y="237.813129"/>
     <use style="fill:#0000ff;stroke:#0000ff;" x="652.948" xlink:href="#ma6ce6928d1" y="250.777864"/>
     <use style="fill:#0000ff;stroke:#0000ff;" x="661.4855" xlink:href="#ma6ce6928d1" y="238.810417"/>
     <use style="fill:#0000ff;stroke:#0000ff;" x="670.023" xlink:href="#ma6ce6928d1" y="267.06689"/>
     <use style="fill:#0000ff;stroke:#0000ff;" x="678.5605" xlink:href="#ma6ce6928d1" y="270.391181"/>
     <use style="fill:#0000ff;stroke:#0000ff;" x="687.098" xlink:href="#ma6ce6928d1" y="285.350491"/>
     <use style="fill:#0000ff;stroke:#0000ff;" x="695.6355" xlink:href="#ma6ce6928d1" y="283.688345"/>
     <use style="fill:#0000ff;stroke:#0000ff;" x="704.173" xlink:href="#ma6ce6928d1" y="308.288099"/>
     <use style="fill:#0000ff;stroke:#0000ff;" x="712.7105" xlink:href="#ma6ce6928d1" y="305.628666"/>
     <use style="fill:#0000ff;stroke:#0000ff;" x="721.248" xlink:href="#ma6ce6928d1" y="309.617815"/>
     <use style="fill:#0000ff;stroke:#0000ff;" x="729.7855" xlink:href="#ma6ce6928d1" y="320.920404"/>
     <use style="fill:#0000ff;stroke:#0000ff;" x="738.323" xlink:href="#ma6ce6928d1" y="335.879714"/>
     <use style="fill:#0000ff;stroke:#0000ff;" x="746.8605" xlink:href="#ma6ce6928d1" y="340.201292"/>
     <use style="fill:#0000ff;stroke:#0000ff;" x="755.398" xlink:href="#ma6ce6928d1" y="350.839023"/>
     <use style="fill:#0000ff;stroke:#0000ff;" x="763.9355" xlink:href="#ma6ce6928d1" y="347.182303"/>
     <use style="fill:#0000ff;stroke:#0000ff;" x="772.473" xlink:href="#ma6ce6928d1" y="360.811896"/>
     <use style="fill:#0000ff;stroke:#0000ff;" x="781.0105" xlink:href="#ma6ce6928d1" y="371.782057"/>
     <use style="fill:#0000ff;stroke:#0000ff;" x="789.548" xlink:href="#ma6ce6928d1" y="362.806471"/>
     <use style="fill:#0000ff;stroke:#0000ff;" x="798.0855" xlink:href="#ma6ce6928d1" y="397.379097"/>
     <use style="fill:#0000ff;stroke:#0000ff;" x="806.623" xlink:href="#ma6ce6928d1" y="387.406224"/>
     <use style="fill:#0000ff;stroke:#0000ff;" x="815.1605" xlink:href="#ma6ce6928d1" y="401.368247"/>
     <use style="fill:#0000ff;stroke:#0000ff;" x="823.698" xlink:href="#ma6ce6928d1" y="400.703388"/>
     <use style="fill:#0000ff;stroke:#0000ff;" x="832.2355" xlink:href="#ma6ce6928d1" y="402.697963"/>
     <use style="fill:#0000ff;stroke:#0000ff;" x="840.773" xlink:href="#ma6ce6928d1" y="410.676261"/>
     <use style="fill:#0000ff;stroke:#0000ff;" x="849.3105" xlink:href="#ma6ce6928d1" y="421.978851"/>
     <use style="fill:#0000ff;stroke:#0000ff;" x="857.848" xlink:href="#ma6ce6928d1" y="425.968"/>
    </g>
   </g>
   <g id="patch_8">
    <path d="M 147.528 436.752 
L 147.528 145.584 
" style="fill:none;stroke:#000000;stroke-linecap:square;stroke-linejoin:miter;stroke-width:0.8;"/>
   </g>
   <g id="patch_9">
    <path d="M 885.168 436.752 
L 885.168 145.584 
" style="fill:none;stroke:#000000;stroke-linecap:square;stroke-linejoin:miter;stroke-width:0.8;"/>
   </g>
   <g id="patch_10">
    <path d="M 147.528 436.752 
L 885.168 436.752 
" style="fill:none;stroke:#000000;stroke-linecap:square;stroke-linejoin:miter;stroke-width:0.8;"/>
   </g>
   <g id="patch_11">
    <path d="M 147.528 145.584 
L 885.168 145.584 
" style="fill:none;stroke:#000000;stroke-linecap:square;stroke-linejoin:miter;stroke-width:0.8;"/>
   </g>
  </g>
 </g>
 <defs>
  <clipPath id="pe3f004b46f">
   <rect height="72.792" width="737.64" x="147.528" y="63.0864"/>
  </clipPath>
  <clipPath id="pe9a5b21a50">
   <rect height="291.168" width="737.64" x="147.528" y="145.584"/>
  </clipPath>
 </defs>
</svg>
