<?xml version="1.0" encoding="utf-8" standalone="no"?>
<!DOCTYPE svg PUBLIC "-//W3C//DTD SVG 1.1//EN"
  "http://www.w3.org/Graphics/SVG/1.1/DTD/svg11.dtd">
<!-- Created with matplotlib (http://matplotlib.org/) -->
<svg height="485pt" version="1.1" viewBox="0 0 983 485" width="983pt" xmlns="http://www.w3.org/2000/svg" xmlns:xlink="http://www.w3.org/1999/xlink">
 <defs>
  <style type="text/css">
*{stroke-linecap:butt;stroke-linejoin:round;}
  </style>
 </defs>
 <g id="figure_1">
  <g id="patch_1">
   <path d="M 0 485.28 
L 983.52 485.28 
L 983.52 0 
L 0 0 
z
" style="fill:#ffffff;"/>
  </g>
  <g id="axes_1">
   <g id="patch_2">
    <path d="M 147.528 135.8784 
L 885.168 135.8784 
L 885.168 63.0864 
L 147.528 63.0864 
z
" style="fill:#ffffff;"/>
   </g>
   <g id="matplotlib.axis_1">
    <g id="xtick_1">
     <g id="line2d_1">
      <defs>
       <path d="M 0 0 
L 0 3.5 
" id="m2f8fb33d69" style="stroke:#000000;stroke-width:0.8;"/>
      </defs>
      <g>
       <use style="stroke:#000000;stroke-width:0.8;" x="269.879554" xlink:href="#m2f8fb33d69" y="135.8784"/>
      </g>
     </g>
    </g>
    <g id="xtick_2">
     <g id="line2d_2">
      <g>
       <use style="stroke:#000000;stroke-width:0.8;" x="409.895756" xlink:href="#m2f8fb33d69" y="135.8784"/>
      </g>
     </g>
    </g>
    <g id="xtick_3">
     <g id="line2d_3">
      <g>
       <use style="stroke:#000000;stroke-width:0.8;" x="549.911958" xlink:href="#m2f8fb33d69" y="135.8784"/>
      </g>
     </g>
    </g>
    <g id="xtick_4">
     <g id="line2d_4">
      <g>
       <use style="stroke:#000000;stroke-width:0.8;" x="689.92816" xlink:href="#m2f8fb33d69" y="135.8784"/>
      </g>
     </g>
    </g>
    <g id="xtick_5">
     <g id="line2d_5">
      <g>
       <use style="stroke:#000000;stroke-width:0.8;" x="829.944363" xlink:href="#m2f8fb33d69" y="135.8784"/>
      </g>
     </g>
    </g>
   </g>
   <g id="matplotlib.axis_2">
    <g id="ytick_1">
     <g id="line2d_6">
      <defs>
       <path d="M 0 0 
L -3.5 0 
" id="m654bac9a11" style="stroke:#000000;stroke-width:0.8;"/>
      </defs>
      <g>
       <use style="stroke:#000000;stroke-width:0.8;" x="147.528" xlink:href="#m654bac9a11" y="120.663067"/>
      </g>
     </g>
     <g id="text_1">
      <!-- −1 -->
      <defs>
       <path d="M 10.59375 35.5 
L 73.1875 35.5 
L 73.1875 27.203125 
L 10.59375 27.203125 
z
" id="DejaVuSans-2212"/>
       <path d="M 12.40625 8.296875 
L 28.515625 8.296875 
L 28.515625 63.921875 
L 10.984375 60.40625 
L 10.984375 69.390625 
L 28.421875 72.90625 
L 38.28125 72.90625 
L 38.28125 8.296875 
L 54.390625 8.296875 
L 54.390625 0 
L 12.40625 0 
z
" id="DejaVuSans-31"/>
      </defs>
      <g transform="translate(122.837375 125.22213)scale(0.12 -0.12)">
       <use xlink:href="#DejaVuSans-2212"/>
       <use x="83.789062" xlink:href="#DejaVuSans-31"/>
      </g>
     </g>
    </g>
    <g id="ytick_2">
     <g id="line2d_7">
      <g>
       <use style="stroke:#000000;stroke-width:0.8;" x="147.528" xlink:href="#m654bac9a11" y="100.330894"/>
      </g>
     </g>
    </g>
    <g id="ytick_3">
     <g id="line2d_8">
      <g>
       <use style="stroke:#000000;stroke-width:0.8;" x="147.528" xlink:href="#m654bac9a11" y="79.998722"/>
      </g>
     </g>
     <g id="text_2">
      <!-- 1 -->
      <g transform="translate(132.893 84.557784)scale(0.12 -0.12)">
       <use xlink:href="#DejaVuSans-31"/>
      </g>
     </g>
    </g>
    <g id="text_3">
     <!-- Studentized -->
     <defs>
      <path d="M 53.515625 70.515625 
L 53.515625 60.890625 
Q 47.90625 63.578125 42.921875 64.890625 
Q 37.9375 66.21875 33.296875 66.21875 
Q 25.25 66.21875 20.875 63.09375 
Q 16.5 59.96875 16.5 54.203125 
Q 16.5 49.359375 19.40625 46.890625 
Q 22.3125 44.4375 30.421875 42.921875 
L 36.375 41.703125 
Q 47.40625 39.59375 52.65625 34.296875 
Q 57.90625 29 57.90625 20.125 
Q 57.90625 9.515625 50.796875 4.046875 
Q 43.703125 -1.421875 29.984375 -1.421875 
Q 24.8125 -1.421875 18.96875 -0.25 
Q 13.140625 0.921875 6.890625 3.21875 
L 6.890625 13.375 
Q 12.890625 10.015625 18.65625 8.296875 
Q 24.421875 6.59375 29.984375 6.59375 
Q 38.421875 6.59375 43.015625 9.90625 
Q 47.609375 13.234375 47.609375 19.390625 
Q 47.609375 24.75 44.3125 27.78125 
Q 41.015625 30.8125 33.5 32.328125 
L 27.484375 33.5 
Q 16.453125 35.6875 11.515625 40.375 
Q 6.59375 45.0625 6.59375 53.421875 
Q 6.59375 63.09375 13.40625 68.65625 
Q 20.21875 74.21875 32.171875 74.21875 
Q 37.3125 74.21875 42.625 73.28125 
Q 47.953125 72.359375 53.515625 70.515625 
z
" id="DejaVuSans-53"/>
      <path d="M 18.3125 70.21875 
L 18.3125 54.6875 
L 36.8125 54.6875 
L 36.8125 47.703125 
L 18.3125 47.703125 
L 18.3125 18.015625 
Q 18.3125 11.328125 20.140625 9.421875 
Q 21.96875 7.515625 27.59375 7.515625 
L 36.8125 7.515625 
L 36.8125 0 
L 27.59375 0 
Q 17.1875 0 13.234375 3.875 
Q 9.28125 7.765625 9.28125 18.015625 
L 9.28125 47.703125 
L 2.6875 47.703125 
L 2.6875 54.6875 
L 9.28125 54.6875 
L 9.28125 70.21875 
z
" id="DejaVuSans-74"/>
      <path d="M 8.5 21.578125 
L 8.5 54.6875 
L 17.484375 54.6875 
L 17.484375 21.921875 
Q 17.484375 14.15625 20.5 10.265625 
Q 23.53125 6.390625 29.59375 6.390625 
Q 36.859375 6.390625 41.078125 11.03125 
Q 45.3125 15.671875 45.3125 23.6875 
L 45.3125 54.6875 
L 54.296875 54.6875 
L 54.296875 0 
L 45.3125 0 
L 45.3125 8.40625 
Q 42.046875 3.421875 37.71875 1 
Q 33.40625 -1.421875 27.6875 -1.421875 
Q 18.265625 -1.421875 13.375 4.4375 
Q 8.5 10.296875 8.5 21.578125 
z
M 31.109375 56 
z
" id="DejaVuSans-75"/>
      <path d="M 45.40625 46.390625 
L 45.40625 75.984375 
L 54.390625 75.984375 
L 54.390625 0 
L 45.40625 0 
L 45.40625 8.203125 
Q 42.578125 3.328125 38.25 0.953125 
Q 33.9375 -1.421875 27.875 -1.421875 
Q 17.96875 -1.421875 11.734375 6.484375 
Q 5.515625 14.40625 5.515625 27.296875 
Q 5.515625 40.1875 11.734375 48.09375 
Q 17.96875 56 27.875 56 
Q 33.9375 56 38.25 53.625 
Q 42.578125 51.265625 45.40625 46.390625 
z
M 14.796875 27.296875 
Q 14.796875 17.390625 18.875 11.75 
Q 22.953125 6.109375 30.078125 6.109375 
Q 37.203125 6.109375 41.296875 11.75 
Q 45.40625 17.390625 45.40625 27.296875 
Q 45.40625 37.203125 41.296875 42.84375 
Q 37.203125 48.484375 30.078125 48.484375 
Q 22.953125 48.484375 18.875 42.84375 
Q 14.796875 37.203125 14.796875 27.296875 
z
" id="DejaVuSans-64"/>
      <path d="M 56.203125 29.59375 
L 56.203125 25.203125 
L 14.890625 25.203125 
Q 15.484375 15.921875 20.484375 11.0625 
Q 25.484375 6.203125 34.421875 6.203125 
Q 39.59375 6.203125 44.453125 7.46875 
Q 49.3125 8.734375 54.109375 11.28125 
L 54.109375 2.78125 
Q 49.265625 0.734375 44.1875 -0.34375 
Q 39.109375 -1.421875 33.890625 -1.421875 
Q 20.796875 -1.421875 13.15625 6.1875 
Q 5.515625 13.8125 5.515625 26.8125 
Q 5.515625 40.234375 12.765625 48.109375 
Q 20.015625 56 32.328125 56 
Q 43.359375 56 49.78125 48.890625 
Q 56.203125 41.796875 56.203125 29.59375 
z
M 47.21875 32.234375 
Q 47.125 39.59375 43.09375 43.984375 
Q 39.0625 48.390625 32.421875 48.390625 
Q 24.90625 48.390625 20.390625 44.140625 
Q 15.875 39.890625 15.1875 32.171875 
z
" id="DejaVuSans-65"/>
      <path d="M 54.890625 33.015625 
L 54.890625 0 
L 45.90625 0 
L 45.90625 32.71875 
Q 45.90625 40.484375 42.875 44.328125 
Q 39.84375 48.1875 33.796875 48.1875 
Q 26.515625 48.1875 22.3125 43.546875 
Q 18.109375 38.921875 18.109375 30.90625 
L 18.109375 0 
L 9.078125 0 
L 9.078125 54.6875 
L 18.109375 54.6875 
L 18.109375 46.1875 
Q 21.34375 51.125 25.703125 53.5625 
Q 30.078125 56 35.796875 56 
Q 45.21875 56 50.046875 50.171875 
Q 54.890625 44.34375 54.890625 33.015625 
z
" id="DejaVuSans-6e"/>
      <path d="M 9.421875 54.6875 
L 18.40625 54.6875 
L 18.40625 0 
L 9.421875 0 
z
M 9.421875 75.984375 
L 18.40625 75.984375 
L 18.40625 64.59375 
L 9.421875 64.59375 
z
" id="DejaVuSans-69"/>
      <path d="M 5.515625 54.6875 
L 48.1875 54.6875 
L 48.1875 46.484375 
L 14.40625 7.171875 
L 48.1875 7.171875 
L 48.1875 0 
L 4.296875 0 
L 4.296875 8.203125 
L 38.09375 47.515625 
L 5.515625 47.515625 
z
" id="DejaVuSans-7a"/>
     </defs>
     <g transform="translate(102.904375 135.41865)rotate(-90)scale(0.12 -0.12)">
      <use xlink:href="#DejaVuSans-53"/>
      <use x="63.476562" xlink:href="#DejaVuSans-74"/>
      <use x="102.685547" xlink:href="#DejaVuSans-75"/>
      <use x="166.064453" xlink:href="#DejaVuSans-64"/>
      <use x="229.541016" xlink:href="#DejaVuSans-65"/>
      <use x="291.064453" xlink:href="#DejaVuSans-6e"/>
      <use x="354.443359" xlink:href="#DejaVuSans-74"/>
      <use x="393.652344" xlink:href="#DejaVuSans-69"/>
      <use x="421.435547" xlink:href="#DejaVuSans-7a"/>
      <use x="473.925781" xlink:href="#DejaVuSans-65"/>
      <use x="535.449219" xlink:href="#DejaVuSans-64"/>
     </g>
     <!-- Residuals -->
     <defs>
      <path d="M 44.390625 34.1875 
Q 47.5625 33.109375 50.5625 29.59375 
Q 53.5625 26.078125 56.59375 19.921875 
L 66.609375 0 
L 56 0 
L 46.6875 18.703125 
Q 43.0625 26.03125 39.671875 28.421875 
Q 36.28125 30.8125 30.421875 30.8125 
L 19.671875 30.8125 
L 19.671875 0 
L 9.8125 0 
L 9.8125 72.90625 
L 32.078125 72.90625 
Q 44.578125 72.90625 50.734375 67.671875 
Q 56.890625 62.453125 56.890625 51.90625 
Q 56.890625 45.015625 53.6875 40.46875 
Q 50.484375 35.9375 44.390625 34.1875 
z
M 19.671875 64.796875 
L 19.671875 38.921875 
L 32.078125 38.921875 
Q 39.203125 38.921875 42.84375 42.21875 
Q 46.484375 45.515625 46.484375 51.90625 
Q 46.484375 58.296875 42.84375 61.546875 
Q 39.203125 64.796875 32.078125 64.796875 
z
" id="DejaVuSans-52"/>
      <path d="M 44.28125 53.078125 
L 44.28125 44.578125 
Q 40.484375 46.53125 36.375 47.5 
Q 32.28125 48.484375 27.875 48.484375 
Q 21.1875 48.484375 17.84375 46.4375 
Q 14.5 44.390625 14.5 40.28125 
Q 14.5 37.15625 16.890625 35.375 
Q 19.28125 33.59375 26.515625 31.984375 
L 29.59375 31.296875 
Q 39.15625 29.25 43.1875 25.515625 
Q 47.21875 21.78125 47.21875 15.09375 
Q 47.21875 7.46875 41.1875 3.015625 
Q 35.15625 -1.421875 24.609375 -1.421875 
Q 20.21875 -1.421875 15.453125 -0.5625 
Q 10.6875 0.296875 5.421875 2 
L 5.421875 11.28125 
Q 10.40625 8.6875 15.234375 7.390625 
Q 20.0625 6.109375 24.8125 6.109375 
Q 31.15625 6.109375 34.5625 8.28125 
Q 37.984375 10.453125 37.984375 14.40625 
Q 37.984375 18.0625 35.515625 20.015625 
Q 33.0625 21.96875 24.703125 23.78125 
L 21.578125 24.515625 
Q 13.234375 26.265625 9.515625 29.90625 
Q 5.8125 33.546875 5.8125 39.890625 
Q 5.8125 47.609375 11.28125 51.796875 
Q 16.75 56 26.8125 56 
Q 31.78125 56 36.171875 55.265625 
Q 40.578125 54.546875 44.28125 53.078125 
z
" id="DejaVuSans-73"/>
      <path d="M 34.28125 27.484375 
Q 23.390625 27.484375 19.1875 25 
Q 14.984375 22.515625 14.984375 16.5 
Q 14.984375 11.71875 18.140625 8.90625 
Q 21.296875 6.109375 26.703125 6.109375 
Q 34.1875 6.109375 38.703125 11.40625 
Q 43.21875 16.703125 43.21875 25.484375 
L 43.21875 27.484375 
z
M 52.203125 31.203125 
L 52.203125 0 
L 43.21875 0 
L 43.21875 8.296875 
Q 40.140625 3.328125 35.546875 0.953125 
Q 30.953125 -1.421875 24.3125 -1.421875 
Q 15.921875 -1.421875 10.953125 3.296875 
Q 6 8.015625 6 15.921875 
Q 6 25.140625 12.171875 29.828125 
Q 18.359375 34.515625 30.609375 34.515625 
L 43.21875 34.515625 
L 43.21875 35.40625 
Q 43.21875 41.609375 39.140625 45 
Q 35.0625 48.390625 27.6875 48.390625 
Q 23 48.390625 18.546875 47.265625 
Q 14.109375 46.140625 10.015625 43.890625 
L 10.015625 52.203125 
Q 14.9375 54.109375 19.578125 55.046875 
Q 24.21875 56 28.609375 56 
Q 40.484375 56 46.34375 49.84375 
Q 52.203125 43.703125 52.203125 31.203125 
z
" id="DejaVuSans-61"/>
      <path d="M 9.421875 75.984375 
L 18.40625 75.984375 
L 18.40625 0 
L 9.421875 0 
z
" id="DejaVuSans-6c"/>
     </defs>
     <g transform="translate(116.34175 128.213025)rotate(-90)scale(0.12 -0.12)">
      <use xlink:href="#DejaVuSans-52"/>
      <use x="69.419922" xlink:href="#DejaVuSans-65"/>
      <use x="130.943359" xlink:href="#DejaVuSans-73"/>
      <use x="183.042969" xlink:href="#DejaVuSans-69"/>
      <use x="210.826172" xlink:href="#DejaVuSans-64"/>
      <use x="274.302734" xlink:href="#DejaVuSans-75"/>
      <use x="337.681641" xlink:href="#DejaVuSans-61"/>
      <use x="398.960938" xlink:href="#DejaVuSans-6c"/>
      <use x="426.744141" xlink:href="#DejaVuSans-73"/>
     </g>
    </g>
   </g>
   <g id="LineCollection_1">
    <path clip-path="url(#p018b5129a4)" d="M 174.848 117.528598 
L 174.848 76.864252 
" style="fill:none;stroke:#0000ff;stroke-width:1.5;"/>
    <path clip-path="url(#p018b5129a4)" d="M 183.177268 96.766489 
L 183.177268 56.102143 
" style="fill:none;stroke:#0000ff;stroke-width:1.5;"/>
    <path clip-path="url(#p018b5129a4)" d="M 191.506537 105.543268 
L 191.506537 64.878922 
" style="fill:none;stroke:#0000ff;stroke-width:1.5;"/>
    <path clip-path="url(#p018b5129a4)" d="M 199.835805 105.101407 
L 199.835805 64.437062 
" style="fill:none;stroke:#0000ff;stroke-width:1.5;"/>
    <path clip-path="url(#p018b5129a4)" d="M 208.165073 136.147407 
L 208.165073 95.483061 
" style="fill:none;stroke:#0000ff;stroke-width:1.5;"/>
    <path clip-path="url(#p018b5129a4)" d="M 216.494341 136.587478 
L 216.494341 95.923132 
" style="fill:none;stroke:#0000ff;stroke-width:1.5;"/>
    <path clip-path="url(#p018b5129a4)" d="M 224.82361 113.765829 
L 224.82361 73.101484 
" style="fill:none;stroke:#0000ff;stroke-width:1.5;"/>
    <path clip-path="url(#p018b5129a4)" d="M 233.152878 93.619835 
L 233.152878 52.95549 
" style="fill:none;stroke:#0000ff;stroke-width:1.5;"/>
    <path clip-path="url(#p018b5129a4)" d="M 241.482146 111.641041 
L 241.482146 70.976696 
" style="fill:none;stroke:#0000ff;stroke-width:1.5;"/>
    <path clip-path="url(#p018b5129a4)" d="M 249.811415 119.452002 
L 249.811415 78.787657 
" style="fill:none;stroke:#0000ff;stroke-width:1.5;"/>
    <path clip-path="url(#p018b5129a4)" d="M 258.140683 96.760759 
L 258.140683 56.096413 
" style="fill:none;stroke:#0000ff;stroke-width:1.5;"/>
    <path clip-path="url(#p018b5129a4)" d="M 266.469951 116.347194 
L 266.469951 75.682849 
" style="fill:none;stroke:#0000ff;stroke-width:1.5;"/>
    <path clip-path="url(#p018b5129a4)" d="M 274.79922 111.897494 
L 274.79922 71.233149 
" style="fill:none;stroke:#0000ff;stroke-width:1.5;"/>
    <path clip-path="url(#p018b5129a4)" d="M 283.128488 137.022908 
L 283.128488 96.358563 
" style="fill:none;stroke:#0000ff;stroke-width:1.5;"/>
    <path clip-path="url(#p018b5129a4)" d="M 291.457756 121.328415 
L 291.457756 80.66407 
" style="fill:none;stroke:#0000ff;stroke-width:1.5;"/>
    <path clip-path="url(#p018b5129a4)" d="M 299.787024 130.937722 
L 299.787024 90.273377 
" style="fill:none;stroke:#0000ff;stroke-width:1.5;"/>
    <path clip-path="url(#p018b5129a4)" d="M 308.116293 114.263975 
L 308.116293 73.599629 
" style="fill:none;stroke:#0000ff;stroke-width:1.5;"/>
    <path clip-path="url(#p018b5129a4)" d="M 316.445561 137.238998 
L 316.445561 96.574653 
" style="fill:none;stroke:#0000ff;stroke-width:1.5;"/>
    <path clip-path="url(#p018b5129a4)" d="M 324.774829 126.301754 
L 324.774829 85.637408 
" style="fill:none;stroke:#0000ff;stroke-width:1.5;"/>
    <path clip-path="url(#p018b5129a4)" d="M 333.104098 126.005318 
L 333.104098 85.340972 
" style="fill:none;stroke:#0000ff;stroke-width:1.5;"/>
    <path clip-path="url(#p018b5129a4)" d="M 341.433366 145.159271 
L 341.433366 104.494925 
" style="fill:none;stroke:#0000ff;stroke-width:1.5;"/>
    <path clip-path="url(#p018b5129a4)" d="M 349.762634 114.614843 
L 349.762634 73.950497 
" style="fill:none;stroke:#0000ff;stroke-width:1.5;"/>
    <path clip-path="url(#p018b5129a4)" d="M 358.091902 108.683331 
L 358.091902 68.018985 
" style="fill:none;stroke:#0000ff;stroke-width:1.5;"/>
    <path clip-path="url(#p018b5129a4)" d="M 366.421171 119.783608 
L 366.421171 79.119263 
" style="fill:none;stroke:#0000ff;stroke-width:1.5;"/>
    <path clip-path="url(#p018b5129a4)" d="M 374.750439 119.84611 
L 374.750439 79.181764 
" style="fill:none;stroke:#0000ff;stroke-width:1.5;"/>
    <path clip-path="url(#p018b5129a4)" d="M 383.079707 115.349436 
L 383.079707 74.68509 
" style="fill:none;stroke:#0000ff;stroke-width:1.5;"/>
    <path clip-path="url(#p018b5129a4)" d="M 391.408976 117.686558 
L 391.408976 77.022212 
" style="fill:none;stroke:#0000ff;stroke-width:1.5;"/>
    <path clip-path="url(#p018b5129a4)" d="M 399.738244 130.305321 
L 399.738244 89.640975 
" style="fill:none;stroke:#0000ff;stroke-width:1.5;"/>
    <path clip-path="url(#p018b5129a4)" d="M 408.067512 131.05058 
L 408.067512 90.386234 
" style="fill:none;stroke:#0000ff;stroke-width:1.5;"/>
    <path clip-path="url(#p018b5129a4)" d="M 416.39678 121.377772 
L 416.39678 80.713427 
" style="fill:none;stroke:#0000ff;stroke-width:1.5;"/>
    <path clip-path="url(#p018b5129a4)" d="M 424.726049 124.199796 
L 424.726049 83.535451 
" style="fill:none;stroke:#0000ff;stroke-width:1.5;"/>
    <path clip-path="url(#p018b5129a4)" d="M 433.055317 149.210201 
L 433.055317 108.545856 
" style="fill:none;stroke:#0000ff;stroke-width:1.5;"/>
    <path clip-path="url(#p018b5129a4)" d="M 441.384585 117.754377 
L 441.384585 77.090032 
" style="fill:none;stroke:#0000ff;stroke-width:1.5;"/>
    <path clip-path="url(#p018b5129a4)" d="M 449.713854 129.220344 
L 449.713854 88.555998 
" style="fill:none;stroke:#0000ff;stroke-width:1.5;"/>
    <path clip-path="url(#p018b5129a4)" d="M 458.043122 112.481711 
L 458.043122 71.817365 
" style="fill:none;stroke:#0000ff;stroke-width:1.5;"/>
    <path clip-path="url(#p018b5129a4)" d="M 466.37239 111.487201 
L 466.37239 70.822856 
" style="fill:none;stroke:#0000ff;stroke-width:1.5;"/>
    <path clip-path="url(#p018b5129a4)" d="M 474.701659 118.988707 
L 474.701659 78.324361 
" style="fill:none;stroke:#0000ff;stroke-width:1.5;"/>
    <path clip-path="url(#p018b5129a4)" d="M 483.030927 130.365665 
L 483.030927 89.701319 
" style="fill:none;stroke:#0000ff;stroke-width:1.5;"/>
    <path clip-path="url(#p018b5129a4)" d="M 491.360195 143.368983 
L 491.360195 102.704638 
" style="fill:none;stroke:#0000ff;stroke-width:1.5;"/>
    <path clip-path="url(#p018b5129a4)" d="M 499.689463 129.425542 
L 499.689463 88.761197 
" style="fill:none;stroke:#0000ff;stroke-width:1.5;"/>
    <path clip-path="url(#p018b5129a4)" d="M 508.018732 114.050415 
L 508.018732 73.38607 
" style="fill:none;stroke:#0000ff;stroke-width:1.5;"/>
    <path clip-path="url(#p018b5129a4)" d="M 516.348 130.999905 
L 516.348 90.335559 
" style="fill:none;stroke:#0000ff;stroke-width:1.5;"/>
    <path clip-path="url(#p018b5129a4)" d="M 524.677268 100.363461 
L 524.677268 59.699116 
" style="fill:none;stroke:#0000ff;stroke-width:1.5;"/>
    <path clip-path="url(#p018b5129a4)" d="M 533.006537 134.05366 
L 533.006537 93.389314 
" style="fill:none;stroke:#0000ff;stroke-width:1.5;"/>
    <path clip-path="url(#p018b5129a4)" d="M 541.335805 119.922103 
L 541.335805 79.257758 
" style="fill:none;stroke:#0000ff;stroke-width:1.5;"/>
    <path clip-path="url(#p018b5129a4)" d="M 549.665073 111.558277 
L 549.665073 70.893932 
" style="fill:none;stroke:#0000ff;stroke-width:1.5;"/>
    <path clip-path="url(#p018b5129a4)" d="M 557.994341 116.608017 
L 557.994341 75.943671 
" style="fill:none;stroke:#0000ff;stroke-width:1.5;"/>
    <path clip-path="url(#p018b5129a4)" d="M 566.32361 122.203937 
L 566.32361 81.539591 
" style="fill:none;stroke:#0000ff;stroke-width:1.5;"/>
    <path clip-path="url(#p018b5129a4)" d="M 574.652878 104.653901 
L 574.652878 63.989555 
" style="fill:none;stroke:#0000ff;stroke-width:1.5;"/>
    <path clip-path="url(#p018b5129a4)" d="M 582.982146 120.153874 
L 582.982146 79.489528 
" style="fill:none;stroke:#0000ff;stroke-width:1.5;"/>
    <path clip-path="url(#p018b5129a4)" d="M 591.311415 104.847724 
L 591.311415 64.183379 
" style="fill:none;stroke:#0000ff;stroke-width:1.5;"/>
    <path clip-path="url(#p018b5129a4)" d="M 599.640683 119.418755 
L 599.640683 78.754409 
" style="fill:none;stroke:#0000ff;stroke-width:1.5;"/>
    <path clip-path="url(#p018b5129a4)" d="M 607.969951 116.360157 
L 607.969951 75.695812 
" style="fill:none;stroke:#0000ff;stroke-width:1.5;"/>
    <path clip-path="url(#p018b5129a4)" d="M 616.29922 91.230184 
L 616.29922 50.565839 
" style="fill:none;stroke:#0000ff;stroke-width:1.5;"/>
    <path clip-path="url(#p018b5129a4)" d="M 624.628488 119.137326 
L 624.628488 78.472981 
" style="fill:none;stroke:#0000ff;stroke-width:1.5;"/>
    <path clip-path="url(#p018b5129a4)" d="M 632.957756 118.12182 
L 632.957756 77.457474 
" style="fill:none;stroke:#0000ff;stroke-width:1.5;"/>
    <path clip-path="url(#p018b5129a4)" d="M 641.287024 131.576915 
L 641.287024 90.91257 
" style="fill:none;stroke:#0000ff;stroke-width:1.5;"/>
    <path clip-path="url(#p018b5129a4)" d="M 649.616293 138.144372 
L 649.616293 97.480026 
" style="fill:none;stroke:#0000ff;stroke-width:1.5;"/>
    <path clip-path="url(#p018b5129a4)" d="M 657.945561 97.303785 
L 657.945561 56.639439 
" style="fill:none;stroke:#0000ff;stroke-width:1.5;"/>
    <path clip-path="url(#p018b5129a4)" d="M 666.274829 121.49979 
L 666.274829 80.835445 
" style="fill:none;stroke:#0000ff;stroke-width:1.5;"/>
    <path clip-path="url(#p018b5129a4)" d="M 674.604098 127.831916 
L 674.604098 87.16757 
" style="fill:none;stroke:#0000ff;stroke-width:1.5;"/>
    <path clip-path="url(#p018b5129a4)" d="M 682.933366 128.407379 
L 682.933366 87.743034 
" style="fill:none;stroke:#0000ff;stroke-width:1.5;"/>
    <path clip-path="url(#p018b5129a4)" d="M 691.262634 112.746168 
L 691.262634 72.081823 
" style="fill:none;stroke:#0000ff;stroke-width:1.5;"/>
    <path clip-path="url(#p018b5129a4)" d="M 699.591902 112.998077 
L 699.591902 72.333731 
" style="fill:none;stroke:#0000ff;stroke-width:1.5;"/>
    <path clip-path="url(#p018b5129a4)" d="M 707.921171 86.114573 
L 707.921171 45.450227 
" style="fill:none;stroke:#0000ff;stroke-width:1.5;"/>
    <path clip-path="url(#p018b5129a4)" d="M 716.250439 123.716003 
L 716.250439 83.051657 
" style="fill:none;stroke:#0000ff;stroke-width:1.5;"/>
    <path clip-path="url(#p018b5129a4)" d="M 724.579707 126.34616 
L 724.579707 85.681815 
" style="fill:none;stroke:#0000ff;stroke-width:1.5;"/>
    <path clip-path="url(#p018b5129a4)" d="M 732.908976 123.946777 
L 732.908976 83.282431 
" style="fill:none;stroke:#0000ff;stroke-width:1.5;"/>
    <path clip-path="url(#p018b5129a4)" d="M 741.238244 121.175252 
L 741.238244 80.510907 
" style="fill:none;stroke:#0000ff;stroke-width:1.5;"/>
    <path clip-path="url(#p018b5129a4)" d="M 749.567512 122.431266 
L 749.567512 81.766921 
" style="fill:none;stroke:#0000ff;stroke-width:1.5;"/>
    <path clip-path="url(#p018b5129a4)" d="M 757.89678 113.91806 
L 757.89678 73.253715 
" style="fill:none;stroke:#0000ff;stroke-width:1.5;"/>
    <path clip-path="url(#p018b5129a4)" d="M 766.226049 122.430476 
L 766.226049 81.766131 
" style="fill:none;stroke:#0000ff;stroke-width:1.5;"/>
    <path clip-path="url(#p018b5129a4)" d="M 774.555317 134.274562 
L 774.555317 93.610217 
" style="fill:none;stroke:#0000ff;stroke-width:1.5;"/>
    <path clip-path="url(#p018b5129a4)" d="M 782.884585 111.503626 
L 782.884585 70.839281 
" style="fill:none;stroke:#0000ff;stroke-width:1.5;"/>
    <path clip-path="url(#p018b5129a4)" d="M 791.213854 120.608754 
L 791.213854 79.944408 
" style="fill:none;stroke:#0000ff;stroke-width:1.5;"/>
    <path clip-path="url(#p018b5129a4)" d="M 799.543122 113.771925 
L 799.543122 73.107579 
" style="fill:none;stroke:#0000ff;stroke-width:1.5;"/>
    <path clip-path="url(#p018b5129a4)" d="M 807.87239 94.064483 
L 807.87239 53.400138 
" style="fill:none;stroke:#0000ff;stroke-width:1.5;"/>
    <path clip-path="url(#p018b5129a4)" d="M 816.201659 137.021087 
L 816.201659 96.356742 
" style="fill:none;stroke:#0000ff;stroke-width:1.5;"/>
    <path clip-path="url(#p018b5129a4)" d="M 824.530927 153.514573 
L 824.530927 112.850227 
" style="fill:none;stroke:#0000ff;stroke-width:1.5;"/>
    <path clip-path="url(#p018b5129a4)" d="M 832.860195 137.708867 
L 832.860195 97.044522 
" style="fill:none;stroke:#0000ff;stroke-width:1.5;"/>
    <path clip-path="url(#p018b5129a4)" d="M 841.189463 149.415213 
L 841.189463 108.750868 
" style="fill:none;stroke:#0000ff;stroke-width:1.5;"/>
    <path clip-path="url(#p018b5129a4)" d="M 849.518732 105.102944 
L 849.518732 64.438598 
" style="fill:none;stroke:#0000ff;stroke-width:1.5;"/>
    <path clip-path="url(#p018b5129a4)" d="M 857.848 131.671994 
L 857.848 91.007648 
" style="fill:none;stroke:#0000ff;stroke-width:1.5;"/>
   </g>
   <g id="line2d_9">
    <path clip-path="url(#p018b5129a4)" d="M 174.848 100.330894 
L 857.848 100.330894 
" style="fill:none;stroke:#ff0000;stroke-linecap:square;stroke-width:1.5;"/>
   </g>
   <g id="line2d_10">
    <defs>
     <path d="M -3 0 
L 3 0 
M 0 3 
L 0 -3 
" id="m9717df3891" style="stroke:#0000ff;"/>
    </defs>
    <g clip-path="url(#p018b5129a4)">
     <use style="fill:#0000ff;stroke:#0000ff;" x="174.848" xlink:href="#m9717df3891" y="97.196425"/>
     <use style="fill:#0000ff;stroke:#0000ff;" x="183.177268" xlink:href="#m9717df3891" y="76.434316"/>
     <use style="fill:#0000ff;stroke:#0000ff;" x="191.506537" xlink:href="#m9717df3891" y="85.211095"/>
     <use style="fill:#0000ff;stroke:#0000ff;" x="199.835805" xlink:href="#m9717df3891" y="84.769234"/>
     <use style="fill:#0000ff;stroke:#0000ff;" x="208.165073" xlink:href="#m9717df3891" y="115.815234"/>
     <use style="fill:#0000ff;stroke:#0000ff;" x="216.494341" xlink:href="#m9717df3891" y="116.255305"/>
     <use style="fill:#0000ff;stroke:#0000ff;" x="224.82361" xlink:href="#m9717df3891" y="93.433656"/>
     <use style="fill:#0000ff;stroke:#0000ff;" x="233.152878" xlink:href="#m9717df3891" y="73.287662"/>
     <use style="fill:#0000ff;stroke:#0000ff;" x="241.482146" xlink:href="#m9717df3891" y="91.308868"/>
     <use style="fill:#0000ff;stroke:#0000ff;" x="249.811415" xlink:href="#m9717df3891" y="99.119829"/>
     <use style="fill:#0000ff;stroke:#0000ff;" x="258.140683" xlink:href="#m9717df3891" y="76.428586"/>
     <use style="fill:#0000ff;stroke:#0000ff;" x="266.469951" xlink:href="#m9717df3891" y="96.015022"/>
     <use style="fill:#0000ff;stroke:#0000ff;" x="274.79922" xlink:href="#m9717df3891" y="91.565321"/>
     <use style="fill:#0000ff;stroke:#0000ff;" x="283.128488" xlink:href="#m9717df3891" y="116.690735"/>
     <use style="fill:#0000ff;stroke:#0000ff;" x="291.457756" xlink:href="#m9717df3891" y="100.996243"/>
     <use style="fill:#0000ff;stroke:#0000ff;" x="299.787024" xlink:href="#m9717df3891" y="110.60555"/>
     <use style="fill:#0000ff;stroke:#0000ff;" x="308.116293" xlink:href="#m9717df3891" y="93.931802"/>
     <use style="fill:#0000ff;stroke:#0000ff;" x="316.445561" xlink:href="#m9717df3891" y="116.906825"/>
     <use style="fill:#0000ff;stroke:#0000ff;" x="324.774829" xlink:href="#m9717df3891" y="105.969581"/>
     <use style="fill:#0000ff;stroke:#0000ff;" x="333.104098" xlink:href="#m9717df3891" y="105.673145"/>
     <use style="fill:#0000ff;stroke:#0000ff;" x="341.433366" xlink:href="#m9717df3891" y="124.827098"/>
     <use style="fill:#0000ff;stroke:#0000ff;" x="349.762634" xlink:href="#m9717df3891" y="94.28267"/>
     <use style="fill:#0000ff;stroke:#0000ff;" x="358.091902" xlink:href="#m9717df3891" y="88.351158"/>
     <use style="fill:#0000ff;stroke:#0000ff;" x="366.421171" xlink:href="#m9717df3891" y="99.451436"/>
     <use style="fill:#0000ff;stroke:#0000ff;" x="374.750439" xlink:href="#m9717df3891" y="99.513937"/>
     <use style="fill:#0000ff;stroke:#0000ff;" x="383.079707" xlink:href="#m9717df3891" y="95.017263"/>
     <use style="fill:#0000ff;stroke:#0000ff;" x="391.408976" xlink:href="#m9717df3891" y="97.354385"/>
     <use style="fill:#0000ff;stroke:#0000ff;" x="399.738244" xlink:href="#m9717df3891" y="109.973148"/>
     <use style="fill:#0000ff;stroke:#0000ff;" x="408.067512" xlink:href="#m9717df3891" y="110.718407"/>
     <use style="fill:#0000ff;stroke:#0000ff;" x="416.39678" xlink:href="#m9717df3891" y="101.045599"/>
     <use style="fill:#0000ff;stroke:#0000ff;" x="424.726049" xlink:href="#m9717df3891" y="103.867623"/>
     <use style="fill:#0000ff;stroke:#0000ff;" x="433.055317" xlink:href="#m9717df3891" y="128.878028"/>
     <use style="fill:#0000ff;stroke:#0000ff;" x="441.384585" xlink:href="#m9717df3891" y="97.422205"/>
     <use style="fill:#0000ff;stroke:#0000ff;" x="449.713854" xlink:href="#m9717df3891" y="108.888171"/>
     <use style="fill:#0000ff;stroke:#0000ff;" x="458.043122" xlink:href="#m9717df3891" y="92.149538"/>
     <use style="fill:#0000ff;stroke:#0000ff;" x="466.37239" xlink:href="#m9717df3891" y="91.155029"/>
     <use style="fill:#0000ff;stroke:#0000ff;" x="474.701659" xlink:href="#m9717df3891" y="98.656534"/>
     <use style="fill:#0000ff;stroke:#0000ff;" x="483.030927" xlink:href="#m9717df3891" y="110.033492"/>
     <use style="fill:#0000ff;stroke:#0000ff;" x="491.360195" xlink:href="#m9717df3891" y="123.036811"/>
     <use style="fill:#0000ff;stroke:#0000ff;" x="499.689463" xlink:href="#m9717df3891" y="109.09337"/>
     <use style="fill:#0000ff;stroke:#0000ff;" x="508.018732" xlink:href="#m9717df3891" y="93.718242"/>
     <use style="fill:#0000ff;stroke:#0000ff;" x="516.348" xlink:href="#m9717df3891" y="110.667732"/>
     <use style="fill:#0000ff;stroke:#0000ff;" x="524.677268" xlink:href="#m9717df3891" y="80.031288"/>
     <use style="fill:#0000ff;stroke:#0000ff;" x="533.006537" xlink:href="#m9717df3891" y="113.721487"/>
     <use style="fill:#0000ff;stroke:#0000ff;" x="541.335805" xlink:href="#m9717df3891" y="99.589931"/>
     <use style="fill:#0000ff;stroke:#0000ff;" x="549.665073" xlink:href="#m9717df3891" y="91.226104"/>
     <use style="fill:#0000ff;stroke:#0000ff;" x="557.994341" xlink:href="#m9717df3891" y="96.275844"/>
     <use style="fill:#0000ff;stroke:#0000ff;" x="566.32361" xlink:href="#m9717df3891" y="101.871764"/>
     <use style="fill:#0000ff;stroke:#0000ff;" x="574.652878" xlink:href="#m9717df3891" y="84.321728"/>
     <use style="fill:#0000ff;stroke:#0000ff;" x="582.982146" xlink:href="#m9717df3891" y="99.821701"/>
     <use style="fill:#0000ff;stroke:#0000ff;" x="591.311415" xlink:href="#m9717df3891" y="84.515551"/>
     <use style="fill:#0000ff;stroke:#0000ff;" x="599.640683" xlink:href="#m9717df3891" y="99.086582"/>
     <use style="fill:#0000ff;stroke:#0000ff;" x="607.969951" xlink:href="#m9717df3891" y="96.027984"/>
     <use style="fill:#0000ff;stroke:#0000ff;" x="616.29922" xlink:href="#m9717df3891" y="70.898012"/>
     <use style="fill:#0000ff;stroke:#0000ff;" x="624.628488" xlink:href="#m9717df3891" y="98.805154"/>
     <use style="fill:#0000ff;stroke:#0000ff;" x="632.957756" xlink:href="#m9717df3891" y="97.789647"/>
     <use style="fill:#0000ff;stroke:#0000ff;" x="641.287024" xlink:href="#m9717df3891" y="111.244742"/>
     <use style="fill:#0000ff;stroke:#0000ff;" x="649.616293" xlink:href="#m9717df3891" y="117.812199"/>
     <use style="fill:#0000ff;stroke:#0000ff;" x="657.945561" xlink:href="#m9717df3891" y="76.971612"/>
     <use style="fill:#0000ff;stroke:#0000ff;" x="666.274829" xlink:href="#m9717df3891" y="101.167617"/>
     <use style="fill:#0000ff;stroke:#0000ff;" x="674.604098" xlink:href="#m9717df3891" y="107.499743"/>
     <use style="fill:#0000ff;stroke:#0000ff;" x="682.933366" xlink:href="#m9717df3891" y="108.075206"/>
     <use style="fill:#0000ff;stroke:#0000ff;" x="691.262634" xlink:href="#m9717df3891" y="92.413996"/>
     <use style="fill:#0000ff;stroke:#0000ff;" x="699.591902" xlink:href="#m9717df3891" y="92.665904"/>
     <use style="fill:#0000ff;stroke:#0000ff;" x="707.921171" xlink:href="#m9717df3891" y="65.7824"/>
     <use style="fill:#0000ff;stroke:#0000ff;" x="716.250439" xlink:href="#m9717df3891" y="103.38383"/>
     <use style="fill:#0000ff;stroke:#0000ff;" x="724.579707" xlink:href="#m9717df3891" y="106.013987"/>
     <use style="fill:#0000ff;stroke:#0000ff;" x="732.908976" xlink:href="#m9717df3891" y="103.614604"/>
     <use style="fill:#0000ff;stroke:#0000ff;" x="741.238244" xlink:href="#m9717df3891" y="100.84308"/>
     <use style="fill:#0000ff;stroke:#0000ff;" x="749.567512" xlink:href="#m9717df3891" y="102.099093"/>
     <use style="fill:#0000ff;stroke:#0000ff;" x="757.89678" xlink:href="#m9717df3891" y="93.585888"/>
     <use style="fill:#0000ff;stroke:#0000ff;" x="766.226049" xlink:href="#m9717df3891" y="102.098303"/>
     <use style="fill:#0000ff;stroke:#0000ff;" x="774.555317" xlink:href="#m9717df3891" y="113.94239"/>
     <use style="fill:#0000ff;stroke:#0000ff;" x="782.884585" xlink:href="#m9717df3891" y="91.171454"/>
     <use style="fill:#0000ff;stroke:#0000ff;" x="791.213854" xlink:href="#m9717df3891" y="100.276581"/>
     <use style="fill:#0000ff;stroke:#0000ff;" x="799.543122" xlink:href="#m9717df3891" y="93.439752"/>
     <use style="fill:#0000ff;stroke:#0000ff;" x="807.87239" xlink:href="#m9717df3891" y="73.73231"/>
     <use style="fill:#0000ff;stroke:#0000ff;" x="816.201659" xlink:href="#m9717df3891" y="116.688915"/>
     <use style="fill:#0000ff;stroke:#0000ff;" x="824.530927" xlink:href="#m9717df3891" y="133.1824"/>
     <use style="fill:#0000ff;stroke:#0000ff;" x="832.860195" xlink:href="#m9717df3891" y="117.376695"/>
     <use style="fill:#0000ff;stroke:#0000ff;" x="841.189463" xlink:href="#m9717df3891" y="129.08304"/>
     <use style="fill:#0000ff;stroke:#0000ff;" x="849.518732" xlink:href="#m9717df3891" y="84.770771"/>
     <use style="fill:#0000ff;stroke:#0000ff;" x="857.848" xlink:href="#m9717df3891" y="111.339821"/>
    </g>
   </g>
   <g id="patch_3">
    <path d="M 147.528 135.8784 
L 147.528 63.0864 
" style="fill:none;stroke:#000000;stroke-linecap:square;stroke-linejoin:miter;stroke-width:0.8;"/>
   </g>
   <g id="patch_4">
    <path d="M 885.168 135.8784 
L 885.168 63.0864 
" style="fill:none;stroke:#000000;stroke-linecap:square;stroke-linejoin:miter;stroke-width:0.8;"/>
   </g>
   <g id="patch_5">
    <path d="M 147.528 135.8784 
L 885.168 135.8784 
" style="fill:none;stroke:#000000;stroke-linecap:square;stroke-linejoin:miter;stroke-width:0.8;"/>
   </g>
   <g id="patch_6">
    <path d="M 147.528 63.0864 
L 885.168 63.0864 
" style="fill:none;stroke:#000000;stroke-linecap:square;stroke-linejoin:miter;stroke-width:0.8;"/>
   </g>
   <g id="text_4">
    <!-- Function (0/0): y = a*exp(-(x-x0)**2/w**2)+b -->
    <defs>
     <path d="M 9.8125 72.90625 
L 51.703125 72.90625 
L 51.703125 64.59375 
L 19.671875 64.59375 
L 19.671875 43.109375 
L 48.578125 43.109375 
L 48.578125 34.8125 
L 19.671875 34.8125 
L 19.671875 0 
L 9.8125 0 
z
" id="DejaVuSans-46"/>
     <path d="M 48.78125 52.59375 
L 48.78125 44.1875 
Q 44.96875 46.296875 41.140625 47.34375 
Q 37.3125 48.390625 33.40625 48.390625 
Q 24.65625 48.390625 19.8125 42.84375 
Q 14.984375 37.3125 14.984375 27.296875 
Q 14.984375 17.28125 19.8125 11.734375 
Q 24.65625 6.203125 33.40625 6.203125 
Q 37.3125 6.203125 41.140625 7.25 
Q 44.96875 8.296875 48.78125 10.40625 
L 48.78125 2.09375 
Q 45.015625 0.34375 40.984375 -0.53125 
Q 36.96875 -1.421875 32.421875 -1.421875 
Q 20.0625 -1.421875 12.78125 6.34375 
Q 5.515625 14.109375 5.515625 27.296875 
Q 5.515625 40.671875 12.859375 48.328125 
Q 20.21875 56 33.015625 56 
Q 37.15625 56 41.109375 55.140625 
Q 45.0625 54.296875 48.78125 52.59375 
z
" id="DejaVuSans-63"/>
     <path d="M 30.609375 48.390625 
Q 23.390625 48.390625 19.1875 42.75 
Q 14.984375 37.109375 14.984375 27.296875 
Q 14.984375 17.484375 19.15625 11.84375 
Q 23.34375 6.203125 30.609375 6.203125 
Q 37.796875 6.203125 41.984375 11.859375 
Q 46.1875 17.53125 46.1875 27.296875 
Q 46.1875 37.015625 41.984375 42.703125 
Q 37.796875 48.390625 30.609375 48.390625 
z
M 30.609375 56 
Q 42.328125 56 49.015625 48.375 
Q 55.71875 40.765625 55.71875 27.296875 
Q 55.71875 13.875 49.015625 6.21875 
Q 42.328125 -1.421875 30.609375 -1.421875 
Q 18.84375 -1.421875 12.171875 6.21875 
Q 5.515625 13.875 5.515625 27.296875 
Q 5.515625 40.765625 12.171875 48.375 
Q 18.84375 56 30.609375 56 
z
" id="DejaVuSans-6f"/>
     <path id="DejaVuSans-20"/>
     <path d="M 31 75.875 
Q 24.46875 64.65625 21.28125 53.65625 
Q 18.109375 42.671875 18.109375 31.390625 
Q 18.109375 20.125 21.3125 9.0625 
Q 24.515625 -2 31 -13.1875 
L 23.1875 -13.1875 
Q 15.875 -1.703125 12.234375 9.375 
Q 8.59375 20.453125 8.59375 31.390625 
Q 8.59375 42.28125 12.203125 53.3125 
Q 15.828125 64.359375 23.1875 75.875 
z
" id="DejaVuSans-28"/>
     <path d="M 31.78125 66.40625 
Q 24.171875 66.40625 20.328125 58.90625 
Q 16.5 51.421875 16.5 36.375 
Q 16.5 21.390625 20.328125 13.890625 
Q 24.171875 6.390625 31.78125 6.390625 
Q 39.453125 6.390625 43.28125 13.890625 
Q 47.125 21.390625 47.125 36.375 
Q 47.125 51.421875 43.28125 58.90625 
Q 39.453125 66.40625 31.78125 66.40625 
z
M 31.78125 74.21875 
Q 44.046875 74.21875 50.515625 64.515625 
Q 56.984375 54.828125 56.984375 36.375 
Q 56.984375 17.96875 50.515625 8.265625 
Q 44.046875 -1.421875 31.78125 -1.421875 
Q 19.53125 -1.421875 13.0625 8.265625 
Q 6.59375 17.96875 6.59375 36.375 
Q 6.59375 54.828125 13.0625 64.515625 
Q 19.53125 74.21875 31.78125 74.21875 
z
" id="DejaVuSans-30"/>
     <path d="M 25.390625 72.90625 
L 33.6875 72.90625 
L 8.296875 -9.28125 
L 0 -9.28125 
z
" id="DejaVuSans-2f"/>
     <path d="M 8.015625 75.875 
L 15.828125 75.875 
Q 23.140625 64.359375 26.78125 53.3125 
Q 30.421875 42.28125 30.421875 31.390625 
Q 30.421875 20.453125 26.78125 9.375 
Q 23.140625 -1.703125 15.828125 -13.1875 
L 8.015625 -13.1875 
Q 14.5 -2 17.703125 9.0625 
Q 20.90625 20.125 20.90625 31.390625 
Q 20.90625 42.671875 17.703125 53.65625 
Q 14.5 64.65625 8.015625 75.875 
z
" id="DejaVuSans-29"/>
     <path d="M 11.71875 12.40625 
L 22.015625 12.40625 
L 22.015625 0 
L 11.71875 0 
z
M 11.71875 51.703125 
L 22.015625 51.703125 
L 22.015625 39.3125 
L 11.71875 39.3125 
z
" id="DejaVuSans-3a"/>
     <path d="M 32.171875 -5.078125 
Q 28.375 -14.84375 24.75 -17.8125 
Q 21.140625 -20.796875 15.09375 -20.796875 
L 7.90625 -20.796875 
L 7.90625 -13.28125 
L 13.1875 -13.28125 
Q 16.890625 -13.28125 18.9375 -11.515625 
Q 21 -9.765625 23.484375 -3.21875 
L 25.09375 0.875 
L 2.984375 54.6875 
L 12.5 54.6875 
L 29.59375 11.921875 
L 46.6875 54.6875 
L 56.203125 54.6875 
z
" id="DejaVuSans-79"/>
     <path d="M 10.59375 45.40625 
L 73.1875 45.40625 
L 73.1875 37.203125 
L 10.59375 37.203125 
z
M 10.59375 25.484375 
L 73.1875 25.484375 
L 73.1875 17.1875 
L 10.59375 17.1875 
z
" id="DejaVuSans-3d"/>
     <path d="M 47.015625 60.890625 
L 29.5 51.421875 
L 47.015625 41.890625 
L 44.1875 37.109375 
L 27.78125 47.015625 
L 27.78125 28.609375 
L 22.21875 28.609375 
L 22.21875 47.015625 
L 5.8125 37.109375 
L 2.984375 41.890625 
L 20.515625 51.421875 
L 2.984375 60.890625 
L 5.8125 65.71875 
L 22.21875 55.8125 
L 22.21875 74.21875 
L 27.78125 74.21875 
L 27.78125 55.8125 
L 44.1875 65.71875 
z
" id="DejaVuSans-2a"/>
     <path d="M 54.890625 54.6875 
L 35.109375 28.078125 
L 55.90625 0 
L 45.3125 0 
L 29.390625 21.484375 
L 13.484375 0 
L 2.875 0 
L 24.125 28.609375 
L 4.6875 54.6875 
L 15.28125 54.6875 
L 29.78125 35.203125 
L 44.28125 54.6875 
z
" id="DejaVuSans-78"/>
     <path d="M 18.109375 8.203125 
L 18.109375 -20.796875 
L 9.078125 -20.796875 
L 9.078125 54.6875 
L 18.109375 54.6875 
L 18.109375 46.390625 
Q 20.953125 51.265625 25.265625 53.625 
Q 29.59375 56 35.59375 56 
Q 45.5625 56 51.78125 48.09375 
Q 58.015625 40.1875 58.015625 27.296875 
Q 58.015625 14.40625 51.78125 6.484375 
Q 45.5625 -1.421875 35.59375 -1.421875 
Q 29.59375 -1.421875 25.265625 0.953125 
Q 20.953125 3.328125 18.109375 8.203125 
z
M 48.6875 27.296875 
Q 48.6875 37.203125 44.609375 42.84375 
Q 40.53125 48.484375 33.40625 48.484375 
Q 26.265625 48.484375 22.1875 42.84375 
Q 18.109375 37.203125 18.109375 27.296875 
Q 18.109375 17.390625 22.1875 11.75 
Q 26.265625 6.109375 33.40625 6.109375 
Q 40.53125 6.109375 44.609375 11.75 
Q 48.6875 17.390625 48.6875 27.296875 
z
" id="DejaVuSans-70"/>
     <path d="M 4.890625 31.390625 
L 31.203125 31.390625 
L 31.203125 23.390625 
L 4.890625 23.390625 
z
" id="DejaVuSans-2d"/>
     <path d="M 19.1875 8.296875 
L 53.609375 8.296875 
L 53.609375 0 
L 7.328125 0 
L 7.328125 8.296875 
Q 12.9375 14.109375 22.625 23.890625 
Q 32.328125 33.6875 34.8125 36.53125 
Q 39.546875 41.84375 41.421875 45.53125 
Q 43.3125 49.21875 43.3125 52.78125 
Q 43.3125 58.59375 39.234375 62.25 
Q 35.15625 65.921875 28.609375 65.921875 
Q 23.96875 65.921875 18.8125 64.3125 
Q 13.671875 62.703125 7.8125 59.421875 
L 7.8125 69.390625 
Q 13.765625 71.78125 18.9375 73 
Q 24.125 74.21875 28.421875 74.21875 
Q 39.75 74.21875 46.484375 68.546875 
Q 53.21875 62.890625 53.21875 53.421875 
Q 53.21875 48.921875 51.53125 44.890625 
Q 49.859375 40.875 45.40625 35.40625 
Q 44.1875 33.984375 37.640625 27.21875 
Q 31.109375 20.453125 19.1875 8.296875 
z
" id="DejaVuSans-32"/>
     <path d="M 4.203125 54.6875 
L 13.1875 54.6875 
L 24.421875 12.015625 
L 35.59375 54.6875 
L 46.1875 54.6875 
L 57.421875 12.015625 
L 68.609375 54.6875 
L 77.59375 54.6875 
L 63.28125 0 
L 52.6875 0 
L 40.921875 44.828125 
L 29.109375 0 
L 18.5 0 
z
" id="DejaVuSans-77"/>
     <path d="M 46 62.703125 
L 46 35.5 
L 73.1875 35.5 
L 73.1875 27.203125 
L 46 27.203125 
L 46 0 
L 37.796875 0 
L 37.796875 27.203125 
L 10.59375 27.203125 
L 10.59375 35.5 
L 37.796875 35.5 
L 37.796875 62.703125 
z
" id="DejaVuSans-2b"/>
     <path d="M 48.6875 27.296875 
Q 48.6875 37.203125 44.609375 42.84375 
Q 40.53125 48.484375 33.40625 48.484375 
Q 26.265625 48.484375 22.1875 42.84375 
Q 18.109375 37.203125 18.109375 27.296875 
Q 18.109375 17.390625 22.1875 11.75 
Q 26.265625 6.109375 33.40625 6.109375 
Q 40.53125 6.109375 44.609375 11.75 
Q 48.6875 17.390625 48.6875 27.296875 
z
M 18.109375 46.390625 
Q 20.953125 51.265625 25.265625 53.625 
Q 29.59375 56 35.59375 56 
Q 45.5625 56 51.78125 48.09375 
Q 58.015625 40.1875 58.015625 27.296875 
Q 58.015625 14.40625 51.78125 6.484375 
Q 45.5625 -1.421875 35.59375 -1.421875 
Q 29.59375 -1.421875 25.265625 0.953125 
Q 20.953125 3.328125 18.109375 8.203125 
L 18.109375 0 
L 9.078125 0 
L 9.078125 75.984375 
L 18.109375 75.984375 
z
" id="DejaVuSans-62"/>
    </defs>
    <g transform="translate(147.528 34.690775)scale(0.1 -0.1)">
     <use xlink:href="#DejaVuSans-46"/>
     <use x="57.441406" xlink:href="#DejaVuSans-75"/>
     <use x="120.820312" xlink:href="#DejaVuSans-6e"/>
     <use x="184.199219" xlink:href="#DejaVuSans-63"/>
     <use x="239.179688" xlink:href="#DejaVuSans-74"/>
     <use x="278.388672" xlink:href="#DejaVuSans-69"/>
     <use x="306.171875" xlink:href="#DejaVuSans-6f"/>
     <use x="367.353516" xlink:href="#DejaVuSans-6e"/>
     <use x="430.732422" xlink:href="#DejaVuSans-20"/>
     <use x="462.519531" xlink:href="#DejaVuSans-28"/>
     <use x="501.533203" xlink:href="#DejaVuSans-30"/>
     <use x="565.15625" xlink:href="#DejaVuSans-2f"/>
     <use x="598.847656" xlink:href="#DejaVuSans-30"/>
     <use x="662.470703" xlink:href="#DejaVuSans-29"/>
     <use x="701.484375" xlink:href="#DejaVuSans-3a"/>
     <use x="735.175781" xlink:href="#DejaVuSans-20"/>
     <use x="766.962891" xlink:href="#DejaVuSans-79"/>
     <use x="826.142578" xlink:href="#DejaVuSans-20"/>
     <use x="857.929688" xlink:href="#DejaVuSans-3d"/>
     <use x="941.71875" xlink:href="#DejaVuSans-20"/>
     <use x="973.505859" xlink:href="#DejaVuSans-61"/>
     <use x="1034.785156" xlink:href="#DejaVuSans-2a"/>
     <use x="1084.785156" xlink:href="#DejaVuSans-65"/>
     <use x="1146.292969" xlink:href="#DejaVuSans-78"/>
     <use x="1205.472656" xlink:href="#DejaVuSans-70"/>
     <use x="1268.949219" xlink:href="#DejaVuSans-28"/>
     <use x="1307.962891" xlink:href="#DejaVuSans-2d"/>
     <use x="1344.046875" xlink:href="#DejaVuSans-28"/>
     <use x="1383.060547" xlink:href="#DejaVuSans-78"/>
     <use x="1442.240234" xlink:href="#DejaVuSans-2d"/>
     <use x="1478.324219" xlink:href="#DejaVuSans-78"/>
     <use x="1537.503906" xlink:href="#DejaVuSans-30"/>
     <use x="1601.126953" xlink:href="#DejaVuSans-29"/>
     <use x="1640.140625" xlink:href="#DejaVuSans-2a"/>
     <use x="1690.140625" xlink:href="#DejaVuSans-2a"/>
     <use x="1740.140625" xlink:href="#DejaVuSans-32"/>
     <use x="1803.763672" xlink:href="#DejaVuSans-2f"/>
     <use x="1837.455078" xlink:href="#DejaVuSans-77"/>
     <use x="1919.242188" xlink:href="#DejaVuSans-2a"/>
     <use x="1969.242188" xlink:href="#DejaVuSans-2a"/>
     <use x="2019.242188" xlink:href="#DejaVuSans-32"/>
     <use x="2082.865234" xlink:href="#DejaVuSans-29"/>
     <use x="2121.878906" xlink:href="#DejaVuSans-2b"/>
     <use x="2205.667969" xlink:href="#DejaVuSans-62"/>
    </g>
    <!-- Fit: a=448.8$\pm$8.2, b=23.2$\pm$9.3, x0=4.57845$\pm$0.00097, -->
    <defs>
     <path d="M 37.796875 64.3125 
L 12.890625 25.390625 
L 37.796875 25.390625 
z
M 35.203125 72.90625 
L 47.609375 72.90625 
L 47.609375 25.390625 
L 58.015625 25.390625 
L 58.015625 17.1875 
L 47.609375 17.1875 
L 47.609375 0 
L 37.796875 0 
L 37.796875 17.1875 
L 4.890625 17.1875 
L 4.890625 26.703125 
z
" id="DejaVuSans-34"/>
     <path d="M 31.78125 34.625 
Q 24.75 34.625 20.71875 30.859375 
Q 16.703125 27.09375 16.703125 20.515625 
Q 16.703125 13.921875 20.71875 10.15625 
Q 24.75 6.390625 31.78125 6.390625 
Q 38.8125 6.390625 42.859375 10.171875 
Q 46.921875 13.96875 46.921875 20.515625 
Q 46.921875 27.09375 42.890625 30.859375 
Q 38.875 34.625 31.78125 34.625 
z
M 21.921875 38.8125 
Q 15.578125 40.375 12.03125 44.71875 
Q 8.5 49.078125 8.5 55.328125 
Q 8.5 64.0625 14.71875 69.140625 
Q 20.953125 74.21875 31.78125 74.21875 
Q 42.671875 74.21875 48.875 69.140625 
Q 55.078125 64.0625 55.078125 55.328125 
Q 55.078125 49.078125 51.53125 44.71875 
Q 48 40.375 41.703125 38.8125 
Q 48.828125 37.15625 52.796875 32.3125 
Q 56.78125 27.484375 56.78125 20.515625 
Q 56.78125 9.90625 50.3125 4.234375 
Q 43.84375 -1.421875 31.78125 -1.421875 
Q 19.734375 -1.421875 13.25 4.234375 
Q 6.78125 9.90625 6.78125 20.515625 
Q 6.78125 27.484375 10.78125 32.3125 
Q 14.796875 37.15625 21.921875 38.8125 
z
M 18.3125 54.390625 
Q 18.3125 48.734375 21.84375 45.5625 
Q 25.390625 42.390625 31.78125 42.390625 
Q 38.140625 42.390625 41.71875 45.5625 
Q 45.3125 48.734375 45.3125 54.390625 
Q 45.3125 60.0625 41.71875 63.234375 
Q 38.140625 66.40625 31.78125 66.40625 
Q 25.390625 66.40625 21.84375 63.234375 
Q 18.3125 60.0625 18.3125 54.390625 
z
" id="DejaVuSans-38"/>
     <path d="M 10.6875 12.40625 
L 21 12.40625 
L 21 0 
L 10.6875 0 
z
" id="DejaVuSans-2e"/>
     <path d="M 46 62.703125 
L 46 43.796875 
L 73.1875 43.796875 
L 73.1875 35.5 
L 46 35.5 
L 46 16.609375 
L 37.796875 16.609375 
L 37.796875 35.5 
L 10.59375 35.5 
L 10.59375 43.796875 
L 37.796875 43.796875 
L 37.796875 62.703125 
z
M 10.59375 8.296875 
L 73.1875 8.296875 
L 73.1875 0 
L 10.59375 0 
z
" id="DejaVuSans-b1"/>
     <path d="M 11.71875 12.40625 
L 22.015625 12.40625 
L 22.015625 4 
L 14.015625 -11.625 
L 7.71875 -11.625 
L 11.71875 4 
z
" id="DejaVuSans-2c"/>
     <path d="M 40.578125 39.3125 
Q 47.65625 37.796875 51.625 33 
Q 55.609375 28.21875 55.609375 21.1875 
Q 55.609375 10.40625 48.1875 4.484375 
Q 40.765625 -1.421875 27.09375 -1.421875 
Q 22.515625 -1.421875 17.65625 -0.515625 
Q 12.796875 0.390625 7.625 2.203125 
L 7.625 11.71875 
Q 11.71875 9.328125 16.59375 8.109375 
Q 21.484375 6.890625 26.8125 6.890625 
Q 36.078125 6.890625 40.9375 10.546875 
Q 45.796875 14.203125 45.796875 21.1875 
Q 45.796875 27.640625 41.28125 31.265625 
Q 36.765625 34.90625 28.71875 34.90625 
L 20.21875 34.90625 
L 20.21875 43.015625 
L 29.109375 43.015625 
Q 36.375 43.015625 40.234375 45.921875 
Q 44.09375 48.828125 44.09375 54.296875 
Q 44.09375 59.90625 40.109375 62.90625 
Q 36.140625 65.921875 28.71875 65.921875 
Q 24.65625 65.921875 20.015625 65.03125 
Q 15.375 64.15625 9.8125 62.3125 
L 9.8125 71.09375 
Q 15.4375 72.65625 20.34375 73.4375 
Q 25.25 74.21875 29.59375 74.21875 
Q 40.828125 74.21875 47.359375 69.109375 
Q 53.90625 64.015625 53.90625 55.328125 
Q 53.90625 49.265625 50.4375 45.09375 
Q 46.96875 40.921875 40.578125 39.3125 
z
" id="DejaVuSans-33"/>
     <path d="M 10.984375 1.515625 
L 10.984375 10.5 
Q 14.703125 8.734375 18.5 7.8125 
Q 22.3125 6.890625 25.984375 6.890625 
Q 35.75 6.890625 40.890625 13.453125 
Q 46.046875 20.015625 46.78125 33.40625 
Q 43.953125 29.203125 39.59375 26.953125 
Q 35.25 24.703125 29.984375 24.703125 
Q 19.046875 24.703125 12.671875 31.3125 
Q 6.296875 37.9375 6.296875 49.421875 
Q 6.296875 60.640625 12.9375 67.421875 
Q 19.578125 74.21875 30.609375 74.21875 
Q 43.265625 74.21875 49.921875 64.515625 
Q 56.59375 54.828125 56.59375 36.375 
Q 56.59375 19.140625 48.40625 8.859375 
Q 40.234375 -1.421875 26.421875 -1.421875 
Q 22.703125 -1.421875 18.890625 -0.6875 
Q 15.09375 0.046875 10.984375 1.515625 
z
M 30.609375 32.421875 
Q 37.25 32.421875 41.125 36.953125 
Q 45.015625 41.5 45.015625 49.421875 
Q 45.015625 57.28125 41.125 61.84375 
Q 37.25 66.40625 30.609375 66.40625 
Q 23.96875 66.40625 20.09375 61.84375 
Q 16.21875 57.28125 16.21875 49.421875 
Q 16.21875 41.5 20.09375 36.953125 
Q 23.96875 32.421875 30.609375 32.421875 
z
" id="DejaVuSans-39"/>
     <path d="M 10.796875 72.90625 
L 49.515625 72.90625 
L 49.515625 64.59375 
L 19.828125 64.59375 
L 19.828125 46.734375 
Q 21.96875 47.46875 24.109375 47.828125 
Q 26.265625 48.1875 28.421875 48.1875 
Q 40.625 48.1875 47.75 41.5 
Q 54.890625 34.8125 54.890625 23.390625 
Q 54.890625 11.625 47.5625 5.09375 
Q 40.234375 -1.421875 26.90625 -1.421875 
Q 22.3125 -1.421875 17.546875 -0.640625 
Q 12.796875 0.140625 7.71875 1.703125 
L 7.71875 11.625 
Q 12.109375 9.234375 16.796875 8.0625 
Q 21.484375 6.890625 26.703125 6.890625 
Q 35.15625 6.890625 40.078125 11.328125 
Q 45.015625 15.765625 45.015625 23.390625 
Q 45.015625 31 40.078125 35.4375 
Q 35.15625 39.890625 26.703125 39.890625 
Q 22.75 39.890625 18.8125 39.015625 
Q 14.890625 38.140625 10.796875 36.28125 
z
" id="DejaVuSans-35"/>
     <path d="M 8.203125 72.90625 
L 55.078125 72.90625 
L 55.078125 68.703125 
L 28.609375 0 
L 18.3125 0 
L 43.21875 64.59375 
L 8.203125 64.59375 
z
" id="DejaVuSans-37"/>
    </defs>
    <g transform="translate(147.528 45.888588)scale(0.1 -0.1)">
     <use transform="translate(0 0.015625)" xlink:href="#DejaVuSans-46"/>
     <use transform="translate(57.519531 0.015625)" xlink:href="#DejaVuSans-69"/>
     <use transform="translate(85.302734 0.015625)" xlink:href="#DejaVuSans-74"/>
     <use transform="translate(124.511719 0.015625)" xlink:href="#DejaVuSans-3a"/>
     <use transform="translate(158.203125 0.015625)" xlink:href="#DejaVuSans-20"/>
     <use transform="translate(189.990234 0.015625)" xlink:href="#DejaVuSans-61"/>
     <use transform="translate(251.269531 0.015625)" xlink:href="#DejaVuSans-3d"/>
     <use transform="translate(335.058594 0.015625)" xlink:href="#DejaVuSans-34"/>
     <use transform="translate(398.681641 0.015625)" xlink:href="#DejaVuSans-34"/>
     <use transform="translate(462.304688 0.015625)" xlink:href="#DejaVuSans-38"/>
     <use transform="translate(525.927734 0.015625)" xlink:href="#DejaVuSans-2e"/>
     <use transform="translate(557.683594 0.015625)" xlink:href="#DejaVuSans-38"/>
     <use transform="translate(621.306641 0.015625)" xlink:href="#DejaVuSans-b1"/>
     <use transform="translate(705.095703 0.015625)" xlink:href="#DejaVuSans-38"/>
     <use transform="translate(768.71875 0.015625)" xlink:href="#DejaVuSans-2e"/>
     <use transform="translate(800.427734 0.015625)" xlink:href="#DejaVuSans-32"/>
     <use transform="translate(864.050781 0.015625)" xlink:href="#DejaVuSans-2c"/>
     <use transform="translate(895.837891 0.015625)" xlink:href="#DejaVuSans-20"/>
     <use transform="translate(927.625 0.015625)" xlink:href="#DejaVuSans-62"/>
     <use transform="translate(991.101562 0.015625)" xlink:href="#DejaVuSans-3d"/>
     <use transform="translate(1074.890625 0.015625)" xlink:href="#DejaVuSans-32"/>
     <use transform="translate(1138.513672 0.015625)" xlink:href="#DejaVuSans-33"/>
     <use transform="translate(1202.136719 0.015625)" xlink:href="#DejaVuSans-2e"/>
     <use transform="translate(1233.845703 0.015625)" xlink:href="#DejaVuSans-32"/>
     <use transform="translate(1297.46875 0.015625)" xlink:href="#DejaVuSans-b1"/>
     <use transform="translate(1381.257812 0.015625)" xlink:href="#DejaVuSans-39"/>
     <use transform="translate(1444.880859 0.015625)" xlink:href="#DejaVuSans-2e"/>
     <use transform="translate(1476.667969 0.015625)" xlink:href="#DejaVuSans-33"/>
     <use transform="translate(1540.291016 0.015625)" xlink:href="#DejaVuSans-2c"/>
     <use transform="translate(1572.078125 0.015625)" xlink:href="#DejaVuSans-20"/>
     <use transform="translate(1603.865234 0.015625)" xlink:href="#DejaVuSans-78"/>
     <use transform="translate(1663.044922 0.015625)" xlink:href="#DejaVuSans-30"/>
     <use transform="translate(1726.667969 0.015625)" xlink:href="#DejaVuSans-3d"/>
     <use transform="translate(1810.457031 0.015625)" xlink:href="#DejaVuSans-34"/>
     <use transform="translate(1874.080078 0.015625)" xlink:href="#DejaVuSans-2e"/>
     <use transform="translate(1905.867188 0.015625)" xlink:href="#DejaVuSans-35"/>
     <use transform="translate(1969.380859 0.015625)" xlink:href="#DejaVuSans-37"/>
     <use transform="translate(2033.003906 0.015625)" xlink:href="#DejaVuSans-38"/>
     <use transform="translate(2096.626953 0.015625)" xlink:href="#DejaVuSans-34"/>
     <use transform="translate(2160.25 0.015625)" xlink:href="#DejaVuSans-35"/>
     <use transform="translate(2223.873047 0.015625)" xlink:href="#DejaVuSans-b1"/>
     <use transform="translate(2307.662109 0.015625)" xlink:href="#DejaVuSans-30"/>
     <use transform="translate(2371.285156 0.015625)" xlink:href="#DejaVuSans-2e"/>
     <use transform="translate(2403.072266 0.015625)" xlink:href="#DejaVuSans-30"/>
     <use transform="translate(2466.695312 0.015625)" xlink:href="#DejaVuSans-30"/>
     <use transform="translate(2530.318359 0.015625)" xlink:href="#DejaVuSans-30"/>
     <use transform="translate(2593.941406 0.015625)" xlink:href="#DejaVuSans-39"/>
     <use transform="translate(2657.564453 0.015625)" xlink:href="#DejaVuSans-37"/>
     <use transform="translate(2721.1875 0.015625)" xlink:href="#DejaVuSans-2c"/>
    </g>
    <!--       w=0.1674$\pm$0.0043, -->
    <defs>
     <path d="M 33.015625 40.375 
Q 26.375 40.375 22.484375 35.828125 
Q 18.609375 31.296875 18.609375 23.390625 
Q 18.609375 15.53125 22.484375 10.953125 
Q 26.375 6.390625 33.015625 6.390625 
Q 39.65625 6.390625 43.53125 10.953125 
Q 47.40625 15.53125 47.40625 23.390625 
Q 47.40625 31.296875 43.53125 35.828125 
Q 39.65625 40.375 33.015625 40.375 
z
M 52.59375 71.296875 
L 52.59375 62.3125 
Q 48.875 64.0625 45.09375 64.984375 
Q 41.3125 65.921875 37.59375 65.921875 
Q 27.828125 65.921875 22.671875 59.328125 
Q 17.53125 52.734375 16.796875 39.40625 
Q 19.671875 43.65625 24.015625 45.921875 
Q 28.375 48.1875 33.59375 48.1875 
Q 44.578125 48.1875 50.953125 41.515625 
Q 57.328125 34.859375 57.328125 23.390625 
Q 57.328125 12.15625 50.6875 5.359375 
Q 44.046875 -1.421875 33.015625 -1.421875 
Q 20.359375 -1.421875 13.671875 8.265625 
Q 6.984375 17.96875 6.984375 36.375 
Q 6.984375 53.65625 15.1875 63.9375 
Q 23.390625 74.21875 37.203125 74.21875 
Q 40.921875 74.21875 44.703125 73.484375 
Q 48.484375 72.75 52.59375 71.296875 
z
" id="DejaVuSans-36"/>
    </defs>
    <g transform="translate(147.528 57.0864)scale(0.1 -0.1)">
     <use transform="translate(0 0.78125)" xlink:href="#DejaVuSans-20"/>
     <use transform="translate(31.787109 0.78125)" xlink:href="#DejaVuSans-20"/>
     <use transform="translate(63.574219 0.78125)" xlink:href="#DejaVuSans-20"/>
     <use transform="translate(95.361328 0.78125)" xlink:href="#DejaVuSans-20"/>
     <use transform="translate(127.148438 0.78125)" xlink:href="#DejaVuSans-20"/>
     <use transform="translate(158.935547 0.78125)" xlink:href="#DejaVuSans-20"/>
     <use transform="translate(190.722656 0.78125)" xlink:href="#DejaVuSans-77"/>
     <use transform="translate(272.509766 0.78125)" xlink:href="#DejaVuSans-3d"/>
     <use transform="translate(356.298828 0.78125)" xlink:href="#DejaVuSans-30"/>
     <use transform="translate(419.921875 0.78125)" xlink:href="#DejaVuSans-2e"/>
     <use transform="translate(451.708984 0.78125)" xlink:href="#DejaVuSans-31"/>
     <use transform="translate(515.332031 0.78125)" xlink:href="#DejaVuSans-36"/>
     <use transform="translate(578.955078 0.78125)" xlink:href="#DejaVuSans-37"/>
     <use transform="translate(642.578125 0.78125)" xlink:href="#DejaVuSans-34"/>
     <use transform="translate(706.201172 0.78125)" xlink:href="#DejaVuSans-b1"/>
     <use transform="translate(789.990234 0.78125)" xlink:href="#DejaVuSans-30"/>
     <use transform="translate(853.613281 0.78125)" xlink:href="#DejaVuSans-2e"/>
     <use transform="translate(885.400391 0.78125)" xlink:href="#DejaVuSans-30"/>
     <use transform="translate(949.023438 0.78125)" xlink:href="#DejaVuSans-30"/>
     <use transform="translate(1012.646484 0.78125)" xlink:href="#DejaVuSans-34"/>
     <use transform="translate(1076.269531 0.78125)" xlink:href="#DejaVuSans-33"/>
     <use transform="translate(1139.892578 0.78125)" xlink:href="#DejaVuSans-2c"/>
    </g>
   </g>
  </g>
  <g id="axes_2">
   <g id="patch_7">
    <path d="M 147.528 436.752 
L 885.168 436.752 
L 885.168 145.584 
L 147.528 145.584 
z
" style="fill:#ffffff;"/>
   </g>
   <g id="matplotlib.axis_3">
    <g id="xtick_6">
     <g id="line2d_11">
      <g>
       <use style="stroke:#000000;stroke-width:0.8;" x="269.879554" xlink:href="#m2f8fb33d69" y="436.752"/>
      </g>
     </g>
     <g id="text_5">
      <!-- 4.4 -->
      <g transform="translate(260.337679 452.870125)scale(0.12 -0.12)">
       <use xlink:href="#DejaVuSans-34"/>
       <use x="63.623047" xlink:href="#DejaVuSans-2e"/>
       <use x="95.410156" xlink:href="#DejaVuSans-34"/>
      </g>
     </g>
    </g>
    <g id="xtick_7">
     <g id="line2d_12">
      <g>
       <use style="stroke:#000000;stroke-width:0.8;" x="409.895756" xlink:href="#m2f8fb33d69" y="436.752"/>
      </g>
     </g>
     <g id="text_6">
      <!-- 4.5 -->
      <g transform="translate(400.353881 452.870125)scale(0.12 -0.12)">
       <use xlink:href="#DejaVuSans-34"/>
       <use x="63.623047" xlink:href="#DejaVuSans-2e"/>
       <use x="95.410156" xlink:href="#DejaVuSans-35"/>
      </g>
     </g>
    </g>
    <g id="xtick_8">
     <g id="line2d_13">
      <g>
       <use style="stroke:#000000;stroke-width:0.8;" x="549.911958" xlink:href="#m2f8fb33d69" y="436.752"/>
      </g>
     </g>
     <g id="text_7">
      <!-- 4.6 -->
      <g transform="translate(540.370083 452.870125)scale(0.12 -0.12)">
       <use xlink:href="#DejaVuSans-34"/>
       <use x="63.623047" xlink:href="#DejaVuSans-2e"/>
       <use x="95.410156" xlink:href="#DejaVuSans-36"/>
      </g>
     </g>
    </g>
    <g id="xtick_9">
     <g id="line2d_14">
      <g>
       <use style="stroke:#000000;stroke-width:0.8;" x="689.92816" xlink:href="#m2f8fb33d69" y="436.752"/>
      </g>
     </g>
     <g id="text_8">
      <!-- 4.7 -->
      <g transform="translate(680.386285 452.870125)scale(0.12 -0.12)">
       <use xlink:href="#DejaVuSans-34"/>
       <use x="63.623047" xlink:href="#DejaVuSans-2e"/>
       <use x="95.410156" xlink:href="#DejaVuSans-37"/>
      </g>
     </g>
    </g>
    <g id="xtick_10">
     <g id="line2d_15">
      <g>
       <use style="stroke:#000000;stroke-width:0.8;" x="829.944363" xlink:href="#m2f8fb33d69" y="436.752"/>
      </g>
     </g>
     <g id="text_9">
      <!-- 4.8 -->
      <g transform="translate(820.402488 452.870125)scale(0.12 -0.12)">
       <use xlink:href="#DejaVuSans-34"/>
       <use x="63.623047" xlink:href="#DejaVuSans-2e"/>
       <use x="95.410156" xlink:href="#DejaVuSans-38"/>
      </g>
     </g>
    </g>
    <g id="text_10">
     <!-- Energy [MeV] -->
     <defs>
      <path d="M 9.8125 72.90625 
L 55.90625 72.90625 
L 55.90625 64.59375 
L 19.671875 64.59375 
L 19.671875 43.015625 
L 54.390625 43.015625 
L 54.390625 34.71875 
L 19.671875 34.71875 
L 19.671875 8.296875 
L 56.78125 8.296875 
L 56.78125 0 
L 9.8125 0 
z
" id="DejaVuSans-45"/>
      <path d="M 41.109375 46.296875 
Q 39.59375 47.171875 37.8125 47.578125 
Q 36.03125 48 33.890625 48 
Q 26.265625 48 22.1875 43.046875 
Q 18.109375 38.09375 18.109375 28.8125 
L 18.109375 0 
L 9.078125 0 
L 9.078125 54.6875 
L 18.109375 54.6875 
L 18.109375 46.1875 
Q 20.953125 51.171875 25.484375 53.578125 
Q 30.03125 56 36.53125 56 
Q 37.453125 56 38.578125 55.875 
Q 39.703125 55.765625 41.0625 55.515625 
z
" id="DejaVuSans-72"/>
      <path d="M 45.40625 27.984375 
Q 45.40625 37.75 41.375 43.109375 
Q 37.359375 48.484375 30.078125 48.484375 
Q 22.859375 48.484375 18.828125 43.109375 
Q 14.796875 37.75 14.796875 27.984375 
Q 14.796875 18.265625 18.828125 12.890625 
Q 22.859375 7.515625 30.078125 7.515625 
Q 37.359375 7.515625 41.375 12.890625 
Q 45.40625 18.265625 45.40625 27.984375 
z
M 54.390625 6.78125 
Q 54.390625 -7.171875 48.1875 -13.984375 
Q 42 -20.796875 29.203125 -20.796875 
Q 24.46875 -20.796875 20.265625 -20.09375 
Q 16.0625 -19.390625 12.109375 -17.921875 
L 12.109375 -9.1875 
Q 16.0625 -11.328125 19.921875 -12.34375 
Q 23.78125 -13.375 27.78125 -13.375 
Q 36.625 -13.375 41.015625 -8.765625 
Q 45.40625 -4.15625 45.40625 5.171875 
L 45.40625 9.625 
Q 42.625 4.78125 38.28125 2.390625 
Q 33.9375 0 27.875 0 
Q 17.828125 0 11.671875 7.65625 
Q 5.515625 15.328125 5.515625 27.984375 
Q 5.515625 40.671875 11.671875 48.328125 
Q 17.828125 56 27.875 56 
Q 33.9375 56 38.28125 53.609375 
Q 42.625 51.21875 45.40625 46.390625 
L 45.40625 54.6875 
L 54.390625 54.6875 
z
" id="DejaVuSans-67"/>
      <path d="M 8.59375 75.984375 
L 29.296875 75.984375 
L 29.296875 69 
L 17.578125 69 
L 17.578125 -6.203125 
L 29.296875 -6.203125 
L 29.296875 -13.1875 
L 8.59375 -13.1875 
z
" id="DejaVuSans-5b"/>
      <path d="M 9.8125 72.90625 
L 24.515625 72.90625 
L 43.109375 23.296875 
L 61.8125 72.90625 
L 76.515625 72.90625 
L 76.515625 0 
L 66.890625 0 
L 66.890625 64.015625 
L 48.09375 14.015625 
L 38.1875 14.015625 
L 19.390625 64.015625 
L 19.390625 0 
L 9.8125 0 
z
" id="DejaVuSans-4d"/>
      <path d="M 28.609375 0 
L 0.78125 72.90625 
L 11.078125 72.90625 
L 34.1875 11.53125 
L 57.328125 72.90625 
L 67.578125 72.90625 
L 39.796875 0 
z
" id="DejaVuSans-56"/>
      <path d="M 30.421875 75.984375 
L 30.421875 -13.1875 
L 9.71875 -13.1875 
L 9.71875 -6.203125 
L 21.390625 -6.203125 
L 21.390625 69 
L 9.71875 69 
L 9.71875 75.984375 
z
" id="DejaVuSans-5d"/>
     </defs>
     <g transform="translate(475.674562 468.483875)scale(0.12 -0.12)">
      <use xlink:href="#DejaVuSans-45"/>
      <use x="63.183594" xlink:href="#DejaVuSans-6e"/>
      <use x="126.5625" xlink:href="#DejaVuSans-65"/>
      <use x="188.085938" xlink:href="#DejaVuSans-72"/>
      <use x="229.183594" xlink:href="#DejaVuSans-67"/>
      <use x="292.660156" xlink:href="#DejaVuSans-79"/>
      <use x="351.839844" xlink:href="#DejaVuSans-20"/>
      <use x="383.626953" xlink:href="#DejaVuSans-5b"/>
      <use x="422.640625" xlink:href="#DejaVuSans-4d"/>
      <use x="508.919922" xlink:href="#DejaVuSans-65"/>
      <use x="570.443359" xlink:href="#DejaVuSans-56"/>
      <use x="638.851562" xlink:href="#DejaVuSans-5d"/>
     </g>
    </g>
   </g>
   <g id="matplotlib.axis_4">
    <g id="ytick_4">
     <g id="line2d_16">
      <g>
       <use style="stroke:#000000;stroke-width:0.8;" x="147.528" xlink:href="#m654bac9a11" y="409.579919"/>
      </g>
     </g>
     <g id="text_11">
      <!-- 100 -->
      <g transform="translate(117.623 414.138981)scale(0.12 -0.12)">
       <use xlink:href="#DejaVuSans-31"/>
       <use x="63.623047" xlink:href="#DejaVuSans-30"/>
       <use x="127.246094" xlink:href="#DejaVuSans-30"/>
      </g>
     </g>
    </g>
    <g id="ytick_5">
     <g id="line2d_17">
      <g>
       <use style="stroke:#000000;stroke-width:0.8;" x="147.528" xlink:href="#m654bac9a11" y="345.312934"/>
      </g>
     </g>
     <g id="text_12">
      <!-- 200 -->
      <g transform="translate(117.623 349.871997)scale(0.12 -0.12)">
       <use xlink:href="#DejaVuSans-32"/>
       <use x="63.623047" xlink:href="#DejaVuSans-30"/>
       <use x="127.246094" xlink:href="#DejaVuSans-30"/>
      </g>
     </g>
    </g>
    <g id="ytick_6">
     <g id="line2d_18">
      <g>
       <use style="stroke:#000000;stroke-width:0.8;" x="147.528" xlink:href="#m654bac9a11" y="281.04595"/>
      </g>
     </g>
     <g id="text_13">
      <!-- 300 -->
      <g transform="translate(117.623 285.605012)scale(0.12 -0.12)">
       <use xlink:href="#DejaVuSans-33"/>
       <use x="63.623047" xlink:href="#DejaVuSans-30"/>
       <use x="127.246094" xlink:href="#DejaVuSans-30"/>
      </g>
     </g>
    </g>
    <g id="ytick_7">
     <g id="line2d_19">
      <g>
       <use style="stroke:#000000;stroke-width:0.8;" x="147.528" xlink:href="#m654bac9a11" y="216.778965"/>
      </g>
     </g>
     <g id="text_14">
      <!-- 400 -->
      <g transform="translate(117.623 221.338028)scale(0.12 -0.12)">
       <use xlink:href="#DejaVuSans-34"/>
       <use x="63.623047" xlink:href="#DejaVuSans-30"/>
       <use x="127.246094" xlink:href="#DejaVuSans-30"/>
      </g>
     </g>
    </g>
    <g id="ytick_8">
     <g id="line2d_20">
      <g>
       <use style="stroke:#000000;stroke-width:0.8;" x="147.528" xlink:href="#m654bac9a11" y="152.511981"/>
      </g>
     </g>
     <g id="text_15">
      <!-- 500 -->
      <g transform="translate(117.623 157.071043)scale(0.12 -0.12)">
       <use xlink:href="#DejaVuSans-35"/>
       <use x="63.623047" xlink:href="#DejaVuSans-30"/>
       <use x="127.246094" xlink:href="#DejaVuSans-30"/>
      </g>
     </g>
    </g>
    <g id="text_16">
     <!-- Counts -->
     <defs>
      <path d="M 64.40625 67.28125 
L 64.40625 56.890625 
Q 59.421875 61.53125 53.78125 63.8125 
Q 48.140625 66.109375 41.796875 66.109375 
Q 29.296875 66.109375 22.65625 58.46875 
Q 16.015625 50.828125 16.015625 36.375 
Q 16.015625 21.96875 22.65625 14.328125 
Q 29.296875 6.6875 41.796875 6.6875 
Q 48.140625 6.6875 53.78125 8.984375 
Q 59.421875 11.28125 64.40625 15.921875 
L 64.40625 5.609375 
Q 59.234375 2.09375 53.4375 0.328125 
Q 47.65625 -1.421875 41.21875 -1.421875 
Q 24.65625 -1.421875 15.125 8.703125 
Q 5.609375 18.84375 5.609375 36.375 
Q 5.609375 53.953125 15.125 64.078125 
Q 24.65625 74.21875 41.21875 74.21875 
Q 47.75 74.21875 53.53125 72.484375 
Q 59.328125 70.75 64.40625 67.28125 
z
" id="DejaVuSans-43"/>
     </defs>
     <g transform="translate(111.127375 312.11175)rotate(-90)scale(0.12 -0.12)">
      <use xlink:href="#DejaVuSans-43"/>
      <use x="69.824219" xlink:href="#DejaVuSans-6f"/>
      <use x="131.005859" xlink:href="#DejaVuSans-75"/>
      <use x="194.384766" xlink:href="#DejaVuSans-6e"/>
      <use x="257.763672" xlink:href="#DejaVuSans-74"/>
      <use x="296.972656" xlink:href="#DejaVuSans-73"/>
     </g>
    </g>
   </g>
   <g id="LineCollection_2">
    <path clip-path="url(#pc86a4d8c31)" d="M 174.848 430.606661 
L 174.848 419.401329 
" style="fill:none;stroke:#0000ff;stroke-width:1.5;"/>
    <path clip-path="url(#pc86a4d8c31)" d="M 183.177268 421.190112 
L 183.177268 408.895114 
" style="fill:none;stroke:#0000ff;stroke-width:1.5;"/>
    <path clip-path="url(#pc86a4d8c31)" d="M 191.506537 419.971595 
L 191.506537 407.542951 
" style="fill:none;stroke:#0000ff;stroke-width:1.5;"/>
    <path clip-path="url(#pc86a4d8c31)" d="M 199.835805 415.701329 
L 199.835805 402.815839 
" style="fill:none;stroke:#0000ff;stroke-width:1.5;"/>
    <path clip-path="url(#pc86a4d8c31)" d="M 208.165073 420.580943 
L 208.165073 408.218942 
" style="fill:none;stroke:#0000ff;stroke-width:1.5;"/>
    <path clip-path="url(#pc86a4d8c31)" d="M 216.494341 416.311865 
L 216.494341 403.490642 
" style="fill:none;stroke:#0000ff;stroke-width:1.5;"/>
    <path clip-path="url(#pc86a4d8c31)" d="M 224.82361 404.379892 
L 224.82361 390.358492 
" style="fill:none;stroke:#0000ff;stroke-width:1.5;"/>
    <path clip-path="url(#pc86a4d8c31)" d="M 233.152878 391.785041 
L 233.152878 376.603879 
" style="fill:none;stroke:#0000ff;stroke-width:1.5;"/>
    <path clip-path="url(#pc86a4d8c31)" d="M 241.482146 392.708126 
L 241.482146 377.608804 
" style="fill:none;stroke:#0000ff;stroke-width:1.5;"/>
    <path clip-path="url(#pc86a4d8c31)" d="M 249.811415 389.630329 
L 249.811415 374.259902 
" style="fill:none;stroke:#0000ff;stroke-width:1.5;"/>
    <path clip-path="url(#pc86a4d8c31)" d="M 258.140683 374.517253 
L 258.140683 357.882156 
" style="fill:none;stroke:#0000ff;stroke-width:1.5;"/>
    <path clip-path="url(#pc86a4d8c31)" d="M 266.469951 375.752786 
L 266.469951 359.217302 
" style="fill:none;stroke:#0000ff;stroke-width:1.5;"/>
    <path clip-path="url(#pc86a4d8c31)" d="M 274.79922 367.098003 
L 274.79922 349.877329 
" style="fill:none;stroke:#0000ff;stroke-width:1.5;"/>
    <path clip-path="url(#pc86a4d8c31)" d="M 283.128488 370.190584 
L 283.128488 353.211447 
" style="fill:none;stroke:#0000ff;stroke-width:1.5;"/>
    <path clip-path="url(#pc86a4d8c31)" d="M 291.457756 356.571126 
L 291.457756 338.553432 
" style="fill:none;stroke:#0000ff;stroke-width:1.5;"/>
    <path clip-path="url(#pc86a4d8c31)" d="M 299.787024 353.161649 
L 299.787024 334.89354 
" style="fill:none;stroke:#0000ff;stroke-width:1.5;"/>
    <path clip-path="url(#pc86a4d8c31)" d="M 308.116293 337.954311 
L 308.116293 318.610056 
" style="fill:none;stroke:#0000ff;stroke-width:1.5;"/>
    <path clip-path="url(#pc86a4d8c31)" d="M 316.445561 340.439205 
L 316.445561 321.266521 
" style="fill:none;stroke:#0000ff;stroke-width:1.5;"/>
    <path clip-path="url(#pc86a4d8c31)" d="M 324.774829 327.385329 
L 324.774829 307.328263 
" style="fill:none;stroke:#0000ff;stroke-width:1.5;"/>
    <path clip-path="url(#pc86a4d8c31)" d="M 333.104098 318.983535 
L 333.104098 298.377972 
" style="fill:none;stroke:#0000ff;stroke-width:1.5;"/>
    <path clip-path="url(#pc86a4d8c31)" d="M 341.433366 319.917429 
L 341.433366 299.372087 
" style="fill:none;stroke:#0000ff;stroke-width:1.5;"/>
    <path clip-path="url(#pc86a4d8c31)" d="M 349.762634 296.233422 
L 349.762634 274.213186 
" style="fill:none;stroke:#0000ff;stroke-width:1.5;"/>
    <path clip-path="url(#pc86a4d8c31)" d="M 358.091902 284.373482 
L 358.091902 261.651672 
" style="fill:none;stroke:#0000ff;stroke-width:1.5;"/>
    <path clip-path="url(#pc86a4d8c31)" d="M 366.421171 281.875281 
L 366.421171 259.008514 
" style="fill:none;stroke:#0000ff;stroke-width:1.5;"/>
    <path clip-path="url(#pc86a4d8c31)" d="M 374.750439 273.440532 
L 374.750439 250.091177 
" style="fill:none;stroke:#0000ff;stroke-width:1.5;"/>
    <path clip-path="url(#pc86a4d8c31)" d="M 383.079707 262.499367 
L 383.079707 238.538898 
" style="fill:none;stroke:#0000ff;stroke-width:1.5;"/>
    <path clip-path="url(#pc86a4d8c31)" d="M 391.408976 255.618137 
L 391.408976 231.281391 
" style="fill:none;stroke:#0000ff;stroke-width:1.5;"/>
    <path clip-path="url(#pc86a4d8c31)" d="M 399.738244 254.992426 
L 399.738244 230.621762 
" style="fill:none;stroke:#0000ff;stroke-width:1.5;"/>
    <path clip-path="url(#pc86a4d8c31)" d="M 408.067512 247.795086 
L 408.067512 223.037696 
" style="fill:none;stroke:#0000ff;stroke-width:1.5;"/>
    <path clip-path="url(#pc86a4d8c31)" d="M 416.39678 234.644538 
L 416.39678 209.19611 
" style="fill:none;stroke:#0000ff;stroke-width:1.5;"/>
    <path clip-path="url(#pc86a4d8c31)" d="M 424.726049 229.319058 
L 424.726049 203.596203 
" style="fill:none;stroke:#0000ff;stroke-width:1.5;"/>
    <path clip-path="url(#pc86a4d8c31)" d="M 433.055317 237.776477 
L 433.055317 212.490869 
" style="fill:none;stroke:#0000ff;stroke-width:1.5;"/>
    <path clip-path="url(#pc86a4d8c31)" d="M 441.384585 212.393433 
L 441.384585 185.817656 
" style="fill:none;stroke:#0000ff;stroke-width:1.5;"/>
    <path clip-path="url(#pc86a4d8c31)" d="M 449.713854 213.961198 
L 449.713854 187.463241 
" style="fill:none;stroke:#0000ff;stroke-width:1.5;"/>
    <path clip-path="url(#pc86a4d8c31)" d="M 458.043122 197.964796 
L 458.043122 170.68348 
" style="fill:none;stroke:#0000ff;stroke-width:1.5;"/>
    <path clip-path="url(#pc86a4d8c31)" d="M 466.37239 192.630187 
L 466.37239 165.092702 
" style="fill:none;stroke:#0000ff;stroke-width:1.5;"/>
    <path clip-path="url(#pc86a4d8c31)" d="M 474.701659 193.571675 
L 474.701659 166.079224 
" style="fill:none;stroke:#0000ff;stroke-width:1.5;"/>
    <path clip-path="url(#pc86a4d8c31)" d="M 483.030927 197.651029 
L 483.030927 170.354578 
" style="fill:none;stroke:#0000ff;stroke-width:1.5;"/>
    <path clip-path="url(#pc86a4d8c31)" d="M 491.360195 203.298192 
L 491.360195 176.275472 
" style="fill:none;stroke:#0000ff;stroke-width:1.5;"/>
    <path clip-path="url(#pc86a4d8c31)" d="M 499.689463 192.316349 
L 499.689463 164.76387 
" style="fill:none;stroke:#0000ff;stroke-width:1.5;"/>
    <path clip-path="url(#pc86a4d8c31)" d="M 508.018732 180.701544 
L 508.018732 152.599891 
" style="fill:none;stroke:#0000ff;stroke-width:1.5;"/>
    <path clip-path="url(#pc86a4d8c31)" d="M 516.348 191.374812 
L 516.348 163.777398 
" style="fill:none;stroke:#0000ff;stroke-width:1.5;"/>
    <path clip-path="url(#pc86a4d8c31)" d="M 524.677268 170.652051 
L 524.677268 142.083949 
" style="fill:none;stroke:#0000ff;stroke-width:1.5;"/>
    <path clip-path="url(#pc86a4d8c31)" d="M 533.006537 194.199314 
L 533.006537 166.736925 
" style="fill:none;stroke:#0000ff;stroke-width:1.5;"/>
    <path clip-path="url(#pc86a4d8c31)" d="M 541.335805 186.352666 
L 541.335805 158.516826 
" style="fill:none;stroke:#0000ff;stroke-width:1.5;"/>
    <path clip-path="url(#pc86a4d8c31)" d="M 549.665073 182.899353 
L 549.665073 154.900771 
" style="fill:none;stroke:#0000ff;stroke-width:1.5;"/>
    <path clip-path="url(#pc86a4d8c31)" d="M 557.994341 189.177749 
L 557.994341 161.475772 
" style="fill:none;stroke:#0000ff;stroke-width:1.5;"/>
    <path clip-path="url(#pc86a4d8c31)" d="M 566.32361 196.395918 
L 566.32361 169.039009 
" style="fill:none;stroke:#0000ff;stroke-width:1.5;"/>
    <path clip-path="url(#pc86a4d8c31)" d="M 574.652878 188.863867 
L 574.652878 161.146984 
" style="fill:none;stroke:#0000ff;stroke-width:1.5;"/>
    <path clip-path="url(#pc86a4d8c31)" d="M 582.982146 203.925569 
L 582.982146 176.933435 
" style="fill:none;stroke:#0000ff;stroke-width:1.5;"/>
    <path clip-path="url(#pc86a4d8c31)" d="M 591.311415 199.219823 
L 591.311415 171.999133 
" style="fill:none;stroke:#0000ff;stroke-width:1.5;"/>
    <path clip-path="url(#pc86a4d8c31)" d="M 599.640683 214.588271 
L 599.640683 188.121507 
" style="fill:none;stroke:#0000ff;stroke-width:1.5;"/>
    <path clip-path="url(#pc86a4d8c31)" d="M 607.969951 218.977268 
L 607.969951 192.729888 
" style="fill:none;stroke:#0000ff;stroke-width:1.5;"/>
    <path clip-path="url(#pc86a4d8c31)" d="M 616.29922 209.571172 
L 616.29922 182.855889 
" style="fill:none;stroke:#0000ff;stroke-width:1.5;"/>
    <path clip-path="url(#pc86a4d8c31)" d="M 624.628488 234.644538 
L 624.628488 209.19611 
" style="fill:none;stroke:#0000ff;stroke-width:1.5;"/>
    <path clip-path="url(#pc86a4d8c31)" d="M 632.957756 241.534107 
L 632.957756 216.445278 
" style="fill:none;stroke:#0000ff;stroke-width:1.5;"/>
    <path clip-path="url(#pc86a4d8c31)" d="M 641.287024 257.182309 
L 641.287024 232.930568 
" style="fill:none;stroke:#0000ff;stroke-width:1.5;"/>
    <path clip-path="url(#pc86a4d8c31)" d="M 649.616293 268.75243 
L 649.616293 245.139232 
" style="fill:none;stroke:#0000ff;stroke-width:1.5;"/>
    <path clip-path="url(#pc86a4d8c31)" d="M 657.945561 253.428047 
L 657.945561 228.972792 
" style="fill:none;stroke:#0000ff;stroke-width:1.5;"/>
    <path clip-path="url(#pc86a4d8c31)" d="M 666.274829 275.94024 
L 666.274829 252.732828 
" style="fill:none;stroke:#0000ff;stroke-width:1.5;"/>
    <path clip-path="url(#pc86a4d8c31)" d="M 674.604098 287.807746 
L 674.604098 265.286776 
" style="fill:none;stroke:#0000ff;stroke-width:1.5;"/>
    <path clip-path="url(#pc86a4d8c31)" d="M 682.933366 296.545375 
L 682.933366 274.543903 
" style="fill:none;stroke:#0000ff;stroke-width:1.5;"/>
    <path clip-path="url(#pc86a4d8c31)" d="M 691.262634 296.857319 
L 691.262634 274.874628 
" style="fill:none;stroke:#0000ff;stroke-width:1.5;"/>
    <path clip-path="url(#pc86a4d8c31)" d="M 699.591902 305.588431 
L 699.591902 284.138272 
" style="fill:none;stroke:#0000ff;stroke-width:1.5;"/>
    <path clip-path="url(#pc86a4d8c31)" d="M 707.921171 299.97632 
L 707.921171 278.182326 
" style="fill:none;stroke:#0000ff;stroke-width:1.5;"/>
    <path clip-path="url(#pc86a4d8c31)" d="M 716.250439 327.696363 
L 716.250439 307.6599 
" style="fill:none;stroke:#0000ff;stroke-width:1.5;"/>
    <path clip-path="url(#pc86a4d8c31)" d="M 724.579707 337.022281 
L 724.579707 317.614077 
" style="fill:none;stroke:#0000ff;stroke-width:1.5;"/>
    <path clip-path="url(#pc86a4d8c31)" d="M 732.908976 343.854665 
L 732.908976 324.920429 
" style="fill:none;stroke:#0000ff;stroke-width:1.5;"/>
    <path clip-path="url(#pc86a4d8c31)" d="M 741.238244 350.370815 
L 741.238244 331.900345 
" style="fill:none;stroke:#0000ff;stroke-width:1.5;"/>
    <path clip-path="url(#pc86a4d8c31)" d="M 749.567512 358.430101 
L 749.567512 340.550476 
" style="fill:none;stroke:#0000ff;stroke-width:1.5;"/>
    <path clip-path="url(#pc86a4d8c31)" d="M 757.89678 362.146427 
L 757.89678 344.546188 
" style="fill:none;stroke:#0000ff;stroke-width:1.5;"/>
    <path clip-path="url(#pc86a4d8c31)" d="M 766.226049 372.663398 
L 766.226049 355.879992 
" style="fill:none;stroke:#0000ff;stroke-width:1.5;"/>
    <path clip-path="url(#pc86a4d8c31)" d="M 774.555317 383.776139 
L 774.555317 367.903365 
" style="fill:none;stroke:#0000ff;stroke-width:1.5;"/>
    <path clip-path="url(#pc86a4d8c31)" d="M 782.884585 381.617351 
L 782.884585 365.563464 
" style="fill:none;stroke:#0000ff;stroke-width:1.5;"/>
    <path clip-path="url(#pc86a4d8c31)" d="M 791.213854 391.169529 
L 791.213854 375.934051 
" style="fill:none;stroke:#0000ff;stroke-width:1.5;"/>
    <path clip-path="url(#pc86a4d8c31)" d="M 799.543122 394.553623 
L 799.543122 379.619326 
" style="fill:none;stroke:#0000ff;stroke-width:1.5;"/>
    <path clip-path="url(#pc86a4d8c31)" d="M 807.87239 393.015772 
L 807.87239 377.943828 
" style="fill:none;stroke:#0000ff;stroke-width:1.5;"/>
    <path clip-path="url(#pc86a4d8c31)" d="M 816.201659 412.646302 
L 816.201659 399.444168 
" style="fill:none;stroke:#0000ff;stroke-width:1.5;"/>
    <path clip-path="url(#pc86a4d8c31)" d="M 824.530927 421.799096 
L 824.530927 409.571469 
" style="fill:none;stroke:#0000ff;stroke-width:1.5;"/>
    <path clip-path="url(#pc86a4d8c31)" d="M 832.860195 421.799096 
L 832.860195 409.571469 
" style="fill:none;stroke:#0000ff;stroke-width:1.5;"/>
    <path clip-path="url(#pc86a4d8c31)" d="M 841.189463 428.78816 
L 841.189463 417.363811 
" style="fill:none;stroke:#0000ff;stroke-width:1.5;"/>
    <path clip-path="url(#pc86a4d8c31)" d="M 849.518732 420.580943 
L 849.518732 408.218942 
" style="fill:none;stroke:#0000ff;stroke-width:1.5;"/>
    <path clip-path="url(#pc86a4d8c31)" d="M 857.848 431.515101 
L 857.848 420.420899 
" style="fill:none;stroke:#0000ff;stroke-width:1.5;"/>
   </g>
   <g id="line2d_21">
    <path clip-path="url(#pc86a4d8c31)" d="M 174.848 473.476187 
L 194.674827 473.091818 
L 209.715868 472.58578 
L 222.022174 471.960818 
L 232.961113 471.184281 
L 242.532685 470.282472 
L 251.420573 469.212564 
L 258.941093 468.096297 
L 266.461614 466.75221 
L 273.29845 465.302409 
L 279.451604 463.787013 
L 285.604757 462.048517 
L 291.75791 460.062927 
L 297.227379 458.070339 
L 302.696849 455.84473 
L 308.166318 453.367749 
L 313.635788 450.620941 
L 318.421574 447.981726 
L 323.207359 445.109837 
L 327.993145 441.993588 
L 332.778931 438.621815 
L 337.564717 434.984041 
L 342.350503 431.070654 
L 347.136288 426.873084 
L 351.922074 422.384001 
L 356.70786 417.597501 
L 361.493646 412.509302 
L 366.279431 407.116937 
L 371.065217 401.419943 
L 376.534687 394.538389 
L 382.004156 387.267625 
L 387.473626 379.61831 
L 392.943095 371.605677 
L 399.096248 362.182298 
L 405.249401 352.360532 
L 412.086238 341.034024 
L 419.606759 328.156097 
L 429.17833 311.306477 
L 457.209361 261.618109 
L 464.046198 250.089316 
L 470.199351 240.133709 
L 475.668821 231.699484 
L 480.454607 224.694755 
L 485.240392 218.0857 
L 489.342494 212.767424 
L 493.444597 207.795674 
L 497.546699 203.194266 
L 500.965117 199.658817 
L 504.383536 196.408125 
L 507.801954 193.453359 
L 511.220372 190.804749 
L 514.638791 188.471528 
L 518.057209 186.461878 
L 520.791944 185.091928 
L 523.526679 183.936722 
L 526.261413 182.998886 
L 528.996148 182.280556 
L 531.730883 181.78337 
L 534.465618 181.508466 
L 537.200352 181.456471 
L 539.935087 181.627504 
L 542.669822 182.021175 
L 545.404557 182.636583 
L 548.139291 183.472323 
L 550.874026 184.52649 
L 553.608761 185.796686 
L 556.343495 187.280028 
L 559.07823 188.973163 
L 562.496649 191.378749 
L 565.915067 194.097718 
L 569.333485 197.120605 
L 572.751904 200.436963 
L 576.170322 204.035419 
L 580.272424 208.708658 
L 584.374527 213.747842 
L 588.476629 219.128894 
L 593.262414 225.805002 
L 598.0482 232.86985 
L 603.51767 241.364013 
L 609.670823 251.375629 
L 616.50766 262.952343 
L 624.711864 277.293099 
L 639.752905 304.153249 
L 652.059211 325.937005 
L 660.263415 340.036269 
L 667.783936 352.51086 
L 674.620773 363.393717 
L 680.773926 372.764125 
L 686.243395 380.726307 
L 691.712865 388.322723 
L 697.182334 395.538803 
L 702.651804 402.364514 
L 708.121273 408.794099 
L 712.907059 414.093538 
L 717.692845 419.08936 
L 722.478631 423.784606 
L 727.264416 428.184072 
L 732.050202 432.294118 
L 736.835988 436.122474 
L 741.621774 439.678046 
L 746.40756 442.970731 
L 751.193345 446.011231 
L 755.979131 448.810888 
L 760.764917 451.381515 
L 766.234386 454.054502 
L 771.703856 456.462587 
L 777.173325 458.624215 
L 782.642795 460.557677 
L 788.795948 462.482417 
L 794.949101 464.165853 
L 801.102254 465.631713 
L 807.939091 467.032581 
L 815.459612 468.329735 
L 822.980132 469.405666 
L 831.184336 470.36458 
L 840.755908 471.247586 
L 851.011163 471.966405 
L 857.848 472.340435 
L 857.848 472.340435 
" style="fill:none;stroke:#404040;stroke-linecap:square;stroke-width:1.5;"/>
   </g>
   <g id="line2d_22">
    <path clip-path="url(#pc86a4d8c31)" d="M 174.848 425.867719 
L 182.368521 422.629877 
L 189.889041 419.156908 
L 197.409562 415.441291 
L 204.930082 411.476362 
L 212.450603 407.256451 
L 219.971123 402.777022 
L 227.491644 398.034812 
L 235.012164 393.027969 
L 242.532685 387.756187 
L 250.053205 382.220838 
L 257.573726 376.425091 
L 265.77793 369.811495 
L 273.982134 362.903419 
L 282.186338 355.713176 
L 291.074226 347.623267 
L 300.645798 338.588352 
L 310.901053 328.576256 
L 321.839992 317.57493 
L 334.829982 304.177126 
L 353.289441 284.775932 
L 376.534687 260.384465 
L 388.840993 247.806061 
L 399.096248 237.651775 
L 407.984136 229.170188 
L 416.18834 221.659453 
L 423.708861 215.084839 
L 430.545698 209.396424 
L 437.382535 204.009675 
L 443.535688 199.440242 
L 449.688841 195.152902 
L 455.15831 191.592176 
L 460.62778 188.278443 
L 466.097249 185.222027 
L 471.566719 182.432528 
L 477.036188 179.918774 
L 481.821974 177.951751 
L 486.60776 176.206812 
L 491.393546 174.688256 
L 496.179331 173.399837 
L 500.965117 172.344753 
L 505.750903 171.525628 
L 510.536689 170.944506 
L 515.322474 170.602837 
L 520.10826 170.501476 
L 524.894046 170.640676 
L 529.679832 171.020089 
L 534.465618 171.638768 
L 539.251403 172.495166 
L 544.037189 173.587149 
L 548.822975 174.912001 
L 553.608761 176.466436 
L 558.394547 178.246614 
L 563.180332 180.24815 
L 567.966118 182.466141 
L 573.435588 185.259076 
L 578.905057 188.318812 
L 584.374527 191.635739 
L 589.843996 195.199523 
L 595.997149 199.490131 
L 602.150302 204.062642 
L 608.303455 208.899596 
L 615.140292 214.56195 
L 621.977129 220.502334 
L 629.49765 227.325965 
L 637.701854 235.073943 
L 646.589742 243.771423 
L 656.844997 254.121449 
L 669.834987 267.574973 
L 693.080232 292.061599 
L 710.856008 310.632659 
L 723.162314 323.182691 
L 734.101253 334.023501 
L 743.672825 343.211031 
L 752.560713 351.457678 
L 761.448601 359.403368 
L 769.652805 366.451874 
L 777.857009 373.211573 
L 786.061213 379.671681 
L 793.581734 385.323498 
L 801.102254 390.712929 
L 808.622775 395.837818 
L 816.143295 400.697739 
L 823.663816 405.293872 
L 831.184336 409.628868 
L 838.704857 413.706714 
L 846.225377 417.532592 
L 853.745898 421.112741 
L 857.848 422.964503 
L 857.848 422.964503 
" style="fill:none;stroke:#ff0000;stroke-linecap:square;stroke-width:1.5;"/>
   </g>
   <g id="line2d_23">
    <g clip-path="url(#pc86a4d8c31)">
     <use style="fill:#0000ff;stroke:#0000ff;" x="174.848" xlink:href="#m9717df3891" y="425.003995"/>
     <use style="fill:#0000ff;stroke:#0000ff;" x="183.177268" xlink:href="#m9717df3891" y="415.042613"/>
     <use style="fill:#0000ff;stroke:#0000ff;" x="191.506537" xlink:href="#m9717df3891" y="413.757273"/>
     <use style="fill:#0000ff;stroke:#0000ff;" x="199.835805" xlink:href="#m9717df3891" y="409.258584"/>
     <use style="fill:#0000ff;stroke:#0000ff;" x="208.165073" xlink:href="#m9717df3891" y="414.399943"/>
     <use style="fill:#0000ff;stroke:#0000ff;" x="216.494341" xlink:href="#m9717df3891" y="409.901254"/>
     <use style="fill:#0000ff;stroke:#0000ff;" x="224.82361" xlink:href="#m9717df3891" y="397.369192"/>
     <use style="fill:#0000ff;stroke:#0000ff;" x="233.152878" xlink:href="#m9717df3891" y="384.19446"/>
     <use style="fill:#0000ff;stroke:#0000ff;" x="241.482146" xlink:href="#m9717df3891" y="385.158465"/>
     <use style="fill:#0000ff;stroke:#0000ff;" x="249.811415" xlink:href="#m9717df3891" y="381.945116"/>
     <use style="fill:#0000ff;stroke:#0000ff;" x="258.140683" xlink:href="#m9717df3891" y="366.199704"/>
     <use style="fill:#0000ff;stroke:#0000ff;" x="266.469951" xlink:href="#m9717df3891" y="367.485044"/>
     <use style="fill:#0000ff;stroke:#0000ff;" x="274.79922" xlink:href="#m9717df3891" y="358.487666"/>
     <use style="fill:#0000ff;stroke:#0000ff;" x="283.128488" xlink:href="#m9717df3891" y="361.701015"/>
     <use style="fill:#0000ff;stroke:#0000ff;" x="291.457756" xlink:href="#m9717df3891" y="347.562279"/>
     <use style="fill:#0000ff;stroke:#0000ff;" x="299.787024" xlink:href="#m9717df3891" y="344.027595"/>
     <use style="fill:#0000ff;stroke:#0000ff;" x="308.116293" xlink:href="#m9717df3891" y="328.282184"/>
     <use style="fill:#0000ff;stroke:#0000ff;" x="316.445561" xlink:href="#m9717df3891" y="330.852863"/>
     <use style="fill:#0000ff;stroke:#0000ff;" x="324.774829" xlink:href="#m9717df3891" y="317.356796"/>
     <use style="fill:#0000ff;stroke:#0000ff;" x="333.104098" xlink:href="#m9717df3891" y="308.680753"/>
     <use style="fill:#0000ff;stroke:#0000ff;" x="341.433366" xlink:href="#m9717df3891" y="309.644758"/>
     <use style="fill:#0000ff;stroke:#0000ff;" x="349.762634" xlink:href="#m9717df3891" y="285.223304"/>
     <use style="fill:#0000ff;stroke:#0000ff;" x="358.091902" xlink:href="#m9717df3891" y="273.012577"/>
     <use style="fill:#0000ff;stroke:#0000ff;" x="366.421171" xlink:href="#m9717df3891" y="270.441897"/>
     <use style="fill:#0000ff;stroke:#0000ff;" x="374.750439" xlink:href="#m9717df3891" y="261.765855"/>
     <use style="fill:#0000ff;stroke:#0000ff;" x="383.079707" xlink:href="#m9717df3891" y="250.519132"/>
     <use style="fill:#0000ff;stroke:#0000ff;" x="391.408976" xlink:href="#m9717df3891" y="243.449764"/>
     <use style="fill:#0000ff;stroke:#0000ff;" x="399.738244" xlink:href="#m9717df3891" y="242.807094"/>
     <use style="fill:#0000ff;stroke:#0000ff;" x="408.067512" xlink:href="#m9717df3891" y="235.416391"/>
     <use style="fill:#0000ff;stroke:#0000ff;" x="416.39678" xlink:href="#m9717df3891" y="221.920324"/>
     <use style="fill:#0000ff;stroke:#0000ff;" x="424.726049" xlink:href="#m9717df3891" y="216.457631"/>
     <use style="fill:#0000ff;stroke:#0000ff;" x="433.055317" xlink:href="#m9717df3891" y="225.133673"/>
     <use style="fill:#0000ff;stroke:#0000ff;" x="441.384585" xlink:href="#m9717df3891" y="199.105545"/>
     <use style="fill:#0000ff;stroke:#0000ff;" x="449.713854" xlink:href="#m9717df3891" y="200.712219"/>
     <use style="fill:#0000ff;stroke:#0000ff;" x="458.043122" xlink:href="#m9717df3891" y="184.324138"/>
     <use style="fill:#0000ff;stroke:#0000ff;" x="466.37239" xlink:href="#m9717df3891" y="178.861445"/>
     <use style="fill:#0000ff;stroke:#0000ff;" x="474.701659" xlink:href="#m9717df3891" y="179.825449"/>
     <use style="fill:#0000ff;stroke:#0000ff;" x="483.030927" xlink:href="#m9717df3891" y="184.002803"/>
     <use style="fill:#0000ff;stroke:#0000ff;" x="491.360195" xlink:href="#m9717df3891" y="189.786832"/>
     <use style="fill:#0000ff;stroke:#0000ff;" x="499.689463" xlink:href="#m9717df3891" y="178.54011"/>
     <use style="fill:#0000ff;stroke:#0000ff;" x="508.018732" xlink:href="#m9717df3891" y="166.650718"/>
     <use style="fill:#0000ff;stroke:#0000ff;" x="516.348" xlink:href="#m9717df3891" y="177.576105"/>
     <use style="fill:#0000ff;stroke:#0000ff;" x="524.677268" xlink:href="#m9717df3891" y="156.368"/>
     <use style="fill:#0000ff;stroke:#0000ff;" x="533.006537" xlink:href="#m9717df3891" y="180.468119"/>
     <use style="fill:#0000ff;stroke:#0000ff;" x="541.335805" xlink:href="#m9717df3891" y="172.434746"/>
     <use style="fill:#0000ff;stroke:#0000ff;" x="549.665073" xlink:href="#m9717df3891" y="168.900062"/>
     <use style="fill:#0000ff;stroke:#0000ff;" x="557.994341" xlink:href="#m9717df3891" y="175.32676"/>
     <use style="fill:#0000ff;stroke:#0000ff;" x="566.32361" xlink:href="#m9717df3891" y="182.717464"/>
     <use style="fill:#0000ff;stroke:#0000ff;" x="574.652878" xlink:href="#m9717df3891" y="175.005426"/>
     <use style="fill:#0000ff;stroke:#0000ff;" x="582.982146" xlink:href="#m9717df3891" y="190.429502"/>
     <use style="fill:#0000ff;stroke:#0000ff;" x="591.311415" xlink:href="#m9717df3891" y="185.609478"/>
     <use style="fill:#0000ff;stroke:#0000ff;" x="599.640683" xlink:href="#m9717df3891" y="201.354889"/>
     <use style="fill:#0000ff;stroke:#0000ff;" x="607.969951" xlink:href="#m9717df3891" y="205.853578"/>
     <use style="fill:#0000ff;stroke:#0000ff;" x="616.29922" xlink:href="#m9717df3891" y="196.21353"/>
     <use style="fill:#0000ff;stroke:#0000ff;" x="624.628488" xlink:href="#m9717df3891" y="221.920324"/>
     <use style="fill:#0000ff;stroke:#0000ff;" x="632.957756" xlink:href="#m9717df3891" y="228.989692"/>
     <use style="fill:#0000ff;stroke:#0000ff;" x="641.287024" xlink:href="#m9717df3891" y="245.056439"/>
     <use style="fill:#0000ff;stroke:#0000ff;" x="649.616293" xlink:href="#m9717df3891" y="256.945831"/>
     <use style="fill:#0000ff;stroke:#0000ff;" x="657.945561" xlink:href="#m9717df3891" y="241.20042"/>
     <use style="fill:#0000ff;stroke:#0000ff;" x="666.274829" xlink:href="#m9717df3891" y="264.336534"/>
     <use style="fill:#0000ff;stroke:#0000ff;" x="674.604098" xlink:href="#m9717df3891" y="276.547261"/>
     <use style="fill:#0000ff;stroke:#0000ff;" x="682.933366" xlink:href="#m9717df3891" y="285.544639"/>
     <use style="fill:#0000ff;stroke:#0000ff;" x="691.262634" xlink:href="#m9717df3891" y="285.865974"/>
     <use style="fill:#0000ff;stroke:#0000ff;" x="699.591902" xlink:href="#m9717df3891" y="294.863352"/>
     <use style="fill:#0000ff;stroke:#0000ff;" x="707.921171" xlink:href="#m9717df3891" y="289.079323"/>
     <use style="fill:#0000ff;stroke:#0000ff;" x="716.250439" xlink:href="#m9717df3891" y="317.678131"/>
     <use style="fill:#0000ff;stroke:#0000ff;" x="724.579707" xlink:href="#m9717df3891" y="327.318179"/>
     <use style="fill:#0000ff;stroke:#0000ff;" x="732.908976" xlink:href="#m9717df3891" y="334.387547"/>
     <use style="fill:#0000ff;stroke:#0000ff;" x="741.238244" xlink:href="#m9717df3891" y="341.13558"/>
     <use style="fill:#0000ff;stroke:#0000ff;" x="749.567512" xlink:href="#m9717df3891" y="349.490288"/>
     <use style="fill:#0000ff;stroke:#0000ff;" x="757.89678" xlink:href="#m9717df3891" y="353.346308"/>
     <use style="fill:#0000ff;stroke:#0000ff;" x="766.226049" xlink:href="#m9717df3891" y="364.271695"/>
     <use style="fill:#0000ff;stroke:#0000ff;" x="774.555317" xlink:href="#m9717df3891" y="375.839752"/>
     <use style="fill:#0000ff;stroke:#0000ff;" x="782.884585" xlink:href="#m9717df3891" y="373.590408"/>
     <use style="fill:#0000ff;stroke:#0000ff;" x="791.213854" xlink:href="#m9717df3891" y="383.55179"/>
     <use style="fill:#0000ff;stroke:#0000ff;" x="799.543122" xlink:href="#m9717df3891" y="387.086474"/>
     <use style="fill:#0000ff;stroke:#0000ff;" x="807.87239" xlink:href="#m9717df3891" y="385.4798"/>
     <use style="fill:#0000ff;stroke:#0000ff;" x="816.201659" xlink:href="#m9717df3891" y="406.045235"/>
     <use style="fill:#0000ff;stroke:#0000ff;" x="824.530927" xlink:href="#m9717df3891" y="415.685282"/>
     <use style="fill:#0000ff;stroke:#0000ff;" x="832.860195" xlink:href="#m9717df3891" y="415.685282"/>
     <use style="fill:#0000ff;stroke:#0000ff;" x="841.189463" xlink:href="#m9717df3891" y="423.075986"/>
     <use style="fill:#0000ff;stroke:#0000ff;" x="849.518732" xlink:href="#m9717df3891" y="414.399943"/>
     <use style="fill:#0000ff;stroke:#0000ff;" x="857.848" xlink:href="#m9717df3891" y="425.968"/>
    </g>
   </g>
   <g id="patch_8">
    <path d="M 147.528 436.752 
L 147.528 145.584 
" style="fill:none;stroke:#000000;stroke-linecap:square;stroke-linejoin:miter;stroke-width:0.8;"/>
   </g>
   <g id="patch_9">
    <path d="M 885.168 436.752 
L 885.168 145.584 
" style="fill:none;stroke:#000000;stroke-linecap:square;stroke-linejoin:miter;stroke-width:0.8;"/>
   </g>
   <g id="patch_10">
    <path d="M 147.528 436.752 
L 885.168 436.752 
" style="fill:none;stroke:#000000;stroke-linecap:square;stroke-linejoin:miter;stroke-width:0.8;"/>
   </g>
   <g id="patch_11">
    <path d="M 147.528 145.584 
L 885.168 145.584 
" style="fill:none;stroke:#000000;stroke-linecap:square;stroke-linejoin:miter;stroke-width:0.8;"/>
   </g>
  </g>
 </g>
 <defs>
  <clipPath id="p018b5129a4">
   <rect height="72.792" width="737.64" x="147.528" y="63.0864"/>
  </clipPath>
  <clipPath id="pc86a4d8c31">
   <rect height="291.168" width="737.64" x="147.528" y="145.584"/>
  </clipPath>
 </defs>
</svg>
