<?xml version="1.0" encoding="utf-8" standalone="no"?>
<!DOCTYPE svg PUBLIC "-//W3C//DTD SVG 1.1//EN"
  "http://www.w3.org/Graphics/SVG/1.1/DTD/svg11.dtd">
<!-- Created with matplotlib (http://matplotlib.org/) -->
<svg height="485pt" version="1.1" viewBox="0 0 983 485" width="983pt" xmlns="http://www.w3.org/2000/svg" xmlns:xlink="http://www.w3.org/1999/xlink">
 <defs>
  <style type="text/css">
*{stroke-linecap:butt;stroke-linejoin:round;}
  </style>
 </defs>
 <g id="figure_1">
  <g id="patch_1">
   <path d="M 0 485.28 
L 983.52 485.28 
L 983.52 0 
L 0 0 
z
" style="fill:#ffffff;"/>
  </g>
  <g id="axes_1">
   <g id="patch_2">
    <path d="M 147.528 135.8784 
L 885.168 135.8784 
L 885.168 63.0864 
L 147.528 63.0864 
z
" style="fill:#ffffff;"/>
   </g>
   <g id="matplotlib.axis_1">
    <g id="xtick_1">
     <g id="line2d_1">
      <defs>
       <path d="M 0 0 
L 0 3.5 
" id="mda7e79c23c" style="stroke:#000000;stroke-width:0.8;"/>
      </defs>
      <g>
       <use style="stroke:#000000;stroke-width:0.8;" x="274.560793" xlink:href="#mda7e79c23c" y="135.8784"/>
      </g>
     </g>
    </g>
    <g id="xtick_2">
     <g id="line2d_2">
      <g>
       <use style="stroke:#000000;stroke-width:0.8;" x="409.635247" xlink:href="#mda7e79c23c" y="135.8784"/>
      </g>
     </g>
    </g>
    <g id="xtick_3">
     <g id="line2d_3">
      <g>
       <use style="stroke:#000000;stroke-width:0.8;" x="544.709701" xlink:href="#mda7e79c23c" y="135.8784"/>
      </g>
     </g>
    </g>
    <g id="xtick_4">
     <g id="line2d_4">
      <g>
       <use style="stroke:#000000;stroke-width:0.8;" x="679.784155" xlink:href="#mda7e79c23c" y="135.8784"/>
      </g>
     </g>
    </g>
    <g id="xtick_5">
     <g id="line2d_5">
      <g>
       <use style="stroke:#000000;stroke-width:0.8;" x="814.858609" xlink:href="#mda7e79c23c" y="135.8784"/>
      </g>
     </g>
    </g>
   </g>
   <g id="matplotlib.axis_2">
    <g id="ytick_1">
     <g id="line2d_6">
      <defs>
       <path d="M 0 0 
L -3.5 0 
" id="m0c3edbbb55" style="stroke:#000000;stroke-width:0.8;"/>
      </defs>
      <g>
       <use style="stroke:#000000;stroke-width:0.8;" x="147.528" xlink:href="#m0c3edbbb55" y="123.420338"/>
      </g>
     </g>
     <g id="text_1">
      <!-- −1 -->
      <defs>
       <path d="M 10.59375 35.5 
L 73.1875 35.5 
L 73.1875 27.203125 
L 10.59375 27.203125 
z
" id="DejaVuSans-2212"/>
       <path d="M 12.40625 8.296875 
L 28.515625 8.296875 
L 28.515625 63.921875 
L 10.984375 60.40625 
L 10.984375 69.390625 
L 28.421875 72.90625 
L 38.28125 72.90625 
L 38.28125 8.296875 
L 54.390625 8.296875 
L 54.390625 0 
L 12.40625 0 
z
" id="DejaVuSans-31"/>
      </defs>
      <g transform="translate(122.837375 127.979401)scale(0.12 -0.12)">
       <use xlink:href="#DejaVuSans-2212"/>
       <use x="83.789062" xlink:href="#DejaVuSans-31"/>
      </g>
     </g>
    </g>
    <g id="ytick_2">
     <g id="line2d_7">
      <g>
       <use style="stroke:#000000;stroke-width:0.8;" x="147.528" xlink:href="#m0c3edbbb55" y="96.660058"/>
      </g>
     </g>
    </g>
    <g id="ytick_3">
     <g id="line2d_8">
      <g>
       <use style="stroke:#000000;stroke-width:0.8;" x="147.528" xlink:href="#m0c3edbbb55" y="69.899777"/>
      </g>
     </g>
     <g id="text_2">
      <!-- 1 -->
      <g transform="translate(132.893 74.45884)scale(0.12 -0.12)">
       <use xlink:href="#DejaVuSans-31"/>
      </g>
     </g>
    </g>
    <g id="text_3">
     <!-- Studentized -->
     <defs>
      <path d="M 53.515625 70.515625 
L 53.515625 60.890625 
Q 47.90625 63.578125 42.921875 64.890625 
Q 37.9375 66.21875 33.296875 66.21875 
Q 25.25 66.21875 20.875 63.09375 
Q 16.5 59.96875 16.5 54.203125 
Q 16.5 49.359375 19.40625 46.890625 
Q 22.3125 44.4375 30.421875 42.921875 
L 36.375 41.703125 
Q 47.40625 39.59375 52.65625 34.296875 
Q 57.90625 29 57.90625 20.125 
Q 57.90625 9.515625 50.796875 4.046875 
Q 43.703125 -1.421875 29.984375 -1.421875 
Q 24.8125 -1.421875 18.96875 -0.25 
Q 13.140625 0.921875 6.890625 3.21875 
L 6.890625 13.375 
Q 12.890625 10.015625 18.65625 8.296875 
Q 24.421875 6.59375 29.984375 6.59375 
Q 38.421875 6.59375 43.015625 9.90625 
Q 47.609375 13.234375 47.609375 19.390625 
Q 47.609375 24.75 44.3125 27.78125 
Q 41.015625 30.8125 33.5 32.328125 
L 27.484375 33.5 
Q 16.453125 35.6875 11.515625 40.375 
Q 6.59375 45.0625 6.59375 53.421875 
Q 6.59375 63.09375 13.40625 68.65625 
Q 20.21875 74.21875 32.171875 74.21875 
Q 37.3125 74.21875 42.625 73.28125 
Q 47.953125 72.359375 53.515625 70.515625 
z
" id="DejaVuSans-53"/>
      <path d="M 18.3125 70.21875 
L 18.3125 54.6875 
L 36.8125 54.6875 
L 36.8125 47.703125 
L 18.3125 47.703125 
L 18.3125 18.015625 
Q 18.3125 11.328125 20.140625 9.421875 
Q 21.96875 7.515625 27.59375 7.515625 
L 36.8125 7.515625 
L 36.8125 0 
L 27.59375 0 
Q 17.1875 0 13.234375 3.875 
Q 9.28125 7.765625 9.28125 18.015625 
L 9.28125 47.703125 
L 2.6875 47.703125 
L 2.6875 54.6875 
L 9.28125 54.6875 
L 9.28125 70.21875 
z
" id="DejaVuSans-74"/>
      <path d="M 8.5 21.578125 
L 8.5 54.6875 
L 17.484375 54.6875 
L 17.484375 21.921875 
Q 17.484375 14.15625 20.5 10.265625 
Q 23.53125 6.390625 29.59375 6.390625 
Q 36.859375 6.390625 41.078125 11.03125 
Q 45.3125 15.671875 45.3125 23.6875 
L 45.3125 54.6875 
L 54.296875 54.6875 
L 54.296875 0 
L 45.3125 0 
L 45.3125 8.40625 
Q 42.046875 3.421875 37.71875 1 
Q 33.40625 -1.421875 27.6875 -1.421875 
Q 18.265625 -1.421875 13.375 4.4375 
Q 8.5 10.296875 8.5 21.578125 
z
M 31.109375 56 
z
" id="DejaVuSans-75"/>
      <path d="M 45.40625 46.390625 
L 45.40625 75.984375 
L 54.390625 75.984375 
L 54.390625 0 
L 45.40625 0 
L 45.40625 8.203125 
Q 42.578125 3.328125 38.25 0.953125 
Q 33.9375 -1.421875 27.875 -1.421875 
Q 17.96875 -1.421875 11.734375 6.484375 
Q 5.515625 14.40625 5.515625 27.296875 
Q 5.515625 40.1875 11.734375 48.09375 
Q 17.96875 56 27.875 56 
Q 33.9375 56 38.25 53.625 
Q 42.578125 51.265625 45.40625 46.390625 
z
M 14.796875 27.296875 
Q 14.796875 17.390625 18.875 11.75 
Q 22.953125 6.109375 30.078125 6.109375 
Q 37.203125 6.109375 41.296875 11.75 
Q 45.40625 17.390625 45.40625 27.296875 
Q 45.40625 37.203125 41.296875 42.84375 
Q 37.203125 48.484375 30.078125 48.484375 
Q 22.953125 48.484375 18.875 42.84375 
Q 14.796875 37.203125 14.796875 27.296875 
z
" id="DejaVuSans-64"/>
      <path d="M 56.203125 29.59375 
L 56.203125 25.203125 
L 14.890625 25.203125 
Q 15.484375 15.921875 20.484375 11.0625 
Q 25.484375 6.203125 34.421875 6.203125 
Q 39.59375 6.203125 44.453125 7.46875 
Q 49.3125 8.734375 54.109375 11.28125 
L 54.109375 2.78125 
Q 49.265625 0.734375 44.1875 -0.34375 
Q 39.109375 -1.421875 33.890625 -1.421875 
Q 20.796875 -1.421875 13.15625 6.1875 
Q 5.515625 13.8125 5.515625 26.8125 
Q 5.515625 40.234375 12.765625 48.109375 
Q 20.015625 56 32.328125 56 
Q 43.359375 56 49.78125 48.890625 
Q 56.203125 41.796875 56.203125 29.59375 
z
M 47.21875 32.234375 
Q 47.125 39.59375 43.09375 43.984375 
Q 39.0625 48.390625 32.421875 48.390625 
Q 24.90625 48.390625 20.390625 44.140625 
Q 15.875 39.890625 15.1875 32.171875 
z
" id="DejaVuSans-65"/>
      <path d="M 54.890625 33.015625 
L 54.890625 0 
L 45.90625 0 
L 45.90625 32.71875 
Q 45.90625 40.484375 42.875 44.328125 
Q 39.84375 48.1875 33.796875 48.1875 
Q 26.515625 48.1875 22.3125 43.546875 
Q 18.109375 38.921875 18.109375 30.90625 
L 18.109375 0 
L 9.078125 0 
L 9.078125 54.6875 
L 18.109375 54.6875 
L 18.109375 46.1875 
Q 21.34375 51.125 25.703125 53.5625 
Q 30.078125 56 35.796875 56 
Q 45.21875 56 50.046875 50.171875 
Q 54.890625 44.34375 54.890625 33.015625 
z
" id="DejaVuSans-6e"/>
      <path d="M 9.421875 54.6875 
L 18.40625 54.6875 
L 18.40625 0 
L 9.421875 0 
z
M 9.421875 75.984375 
L 18.40625 75.984375 
L 18.40625 64.59375 
L 9.421875 64.59375 
z
" id="DejaVuSans-69"/>
      <path d="M 5.515625 54.6875 
L 48.1875 54.6875 
L 48.1875 46.484375 
L 14.40625 7.171875 
L 48.1875 7.171875 
L 48.1875 0 
L 4.296875 0 
L 4.296875 8.203125 
L 38.09375 47.515625 
L 5.515625 47.515625 
z
" id="DejaVuSans-7a"/>
     </defs>
     <g transform="translate(102.904375 135.41865)rotate(-90)scale(0.12 -0.12)">
      <use xlink:href="#DejaVuSans-53"/>
      <use x="63.476562" xlink:href="#DejaVuSans-74"/>
      <use x="102.685547" xlink:href="#DejaVuSans-75"/>
      <use x="166.064453" xlink:href="#DejaVuSans-64"/>
      <use x="229.541016" xlink:href="#DejaVuSans-65"/>
      <use x="291.064453" xlink:href="#DejaVuSans-6e"/>
      <use x="354.443359" xlink:href="#DejaVuSans-74"/>
      <use x="393.652344" xlink:href="#DejaVuSans-69"/>
      <use x="421.435547" xlink:href="#DejaVuSans-7a"/>
      <use x="473.925781" xlink:href="#DejaVuSans-65"/>
      <use x="535.449219" xlink:href="#DejaVuSans-64"/>
     </g>
     <!-- Residuals -->
     <defs>
      <path d="M 44.390625 34.1875 
Q 47.5625 33.109375 50.5625 29.59375 
Q 53.5625 26.078125 56.59375 19.921875 
L 66.609375 0 
L 56 0 
L 46.6875 18.703125 
Q 43.0625 26.03125 39.671875 28.421875 
Q 36.28125 30.8125 30.421875 30.8125 
L 19.671875 30.8125 
L 19.671875 0 
L 9.8125 0 
L 9.8125 72.90625 
L 32.078125 72.90625 
Q 44.578125 72.90625 50.734375 67.671875 
Q 56.890625 62.453125 56.890625 51.90625 
Q 56.890625 45.015625 53.6875 40.46875 
Q 50.484375 35.9375 44.390625 34.1875 
z
M 19.671875 64.796875 
L 19.671875 38.921875 
L 32.078125 38.921875 
Q 39.203125 38.921875 42.84375 42.21875 
Q 46.484375 45.515625 46.484375 51.90625 
Q 46.484375 58.296875 42.84375 61.546875 
Q 39.203125 64.796875 32.078125 64.796875 
z
" id="DejaVuSans-52"/>
      <path d="M 44.28125 53.078125 
L 44.28125 44.578125 
Q 40.484375 46.53125 36.375 47.5 
Q 32.28125 48.484375 27.875 48.484375 
Q 21.1875 48.484375 17.84375 46.4375 
Q 14.5 44.390625 14.5 40.28125 
Q 14.5 37.15625 16.890625 35.375 
Q 19.28125 33.59375 26.515625 31.984375 
L 29.59375 31.296875 
Q 39.15625 29.25 43.1875 25.515625 
Q 47.21875 21.78125 47.21875 15.09375 
Q 47.21875 7.46875 41.1875 3.015625 
Q 35.15625 -1.421875 24.609375 -1.421875 
Q 20.21875 -1.421875 15.453125 -0.5625 
Q 10.6875 0.296875 5.421875 2 
L 5.421875 11.28125 
Q 10.40625 8.6875 15.234375 7.390625 
Q 20.0625 6.109375 24.8125 6.109375 
Q 31.15625 6.109375 34.5625 8.28125 
Q 37.984375 10.453125 37.984375 14.40625 
Q 37.984375 18.0625 35.515625 20.015625 
Q 33.0625 21.96875 24.703125 23.78125 
L 21.578125 24.515625 
Q 13.234375 26.265625 9.515625 29.90625 
Q 5.8125 33.546875 5.8125 39.890625 
Q 5.8125 47.609375 11.28125 51.796875 
Q 16.75 56 26.8125 56 
Q 31.78125 56 36.171875 55.265625 
Q 40.578125 54.546875 44.28125 53.078125 
z
" id="DejaVuSans-73"/>
      <path d="M 34.28125 27.484375 
Q 23.390625 27.484375 19.1875 25 
Q 14.984375 22.515625 14.984375 16.5 
Q 14.984375 11.71875 18.140625 8.90625 
Q 21.296875 6.109375 26.703125 6.109375 
Q 34.1875 6.109375 38.703125 11.40625 
Q 43.21875 16.703125 43.21875 25.484375 
L 43.21875 27.484375 
z
M 52.203125 31.203125 
L 52.203125 0 
L 43.21875 0 
L 43.21875 8.296875 
Q 40.140625 3.328125 35.546875 0.953125 
Q 30.953125 -1.421875 24.3125 -1.421875 
Q 15.921875 -1.421875 10.953125 3.296875 
Q 6 8.015625 6 15.921875 
Q 6 25.140625 12.171875 29.828125 
Q 18.359375 34.515625 30.609375 34.515625 
L 43.21875 34.515625 
L 43.21875 35.40625 
Q 43.21875 41.609375 39.140625 45 
Q 35.0625 48.390625 27.6875 48.390625 
Q 23 48.390625 18.546875 47.265625 
Q 14.109375 46.140625 10.015625 43.890625 
L 10.015625 52.203125 
Q 14.9375 54.109375 19.578125 55.046875 
Q 24.21875 56 28.609375 56 
Q 40.484375 56 46.34375 49.84375 
Q 52.203125 43.703125 52.203125 31.203125 
z
" id="DejaVuSans-61"/>
      <path d="M 9.421875 75.984375 
L 18.40625 75.984375 
L 18.40625 0 
L 9.421875 0 
z
" id="DejaVuSans-6c"/>
     </defs>
     <g transform="translate(116.34175 128.213025)rotate(-90)scale(0.12 -0.12)">
      <use xlink:href="#DejaVuSans-52"/>
      <use x="69.419922" xlink:href="#DejaVuSans-65"/>
      <use x="130.943359" xlink:href="#DejaVuSans-73"/>
      <use x="183.042969" xlink:href="#DejaVuSans-69"/>
      <use x="210.826172" xlink:href="#DejaVuSans-64"/>
      <use x="274.302734" xlink:href="#DejaVuSans-75"/>
      <use x="337.681641" xlink:href="#DejaVuSans-61"/>
      <use x="398.960938" xlink:href="#DejaVuSans-6c"/>
      <use x="426.744141" xlink:href="#DejaVuSans-73"/>
     </g>
    </g>
   </g>
   <g id="LineCollection_1">
    <path clip-path="url(#p6a3d58b7f1)" d="M 174.848 110.639366 
L 174.848 57.118805 
" style="fill:none;stroke:#0000ff;stroke-width:1.5;"/>
    <path clip-path="url(#p6a3d58b7f1)" d="M 182.883294 125.550662 
L 182.883294 72.030101 
" style="fill:none;stroke:#0000ff;stroke-width:1.5;"/>
    <path clip-path="url(#p6a3d58b7f1)" d="M 190.918588 144.849079 
L 190.918588 91.328518 
" style="fill:none;stroke:#0000ff;stroke-width:1.5;"/>
    <path clip-path="url(#p6a3d58b7f1)" d="M 198.953882 99.837045 
L 198.953882 46.316484 
" style="fill:none;stroke:#0000ff;stroke-width:1.5;"/>
    <path clip-path="url(#p6a3d58b7f1)" d="M 206.989176 96.155314 
L 206.989176 42.634753 
" style="fill:none;stroke:#0000ff;stroke-width:1.5;"/>
    <path clip-path="url(#p6a3d58b7f1)" d="M 215.024471 138.65712 
L 215.024471 85.13656 
" style="fill:none;stroke:#0000ff;stroke-width:1.5;"/>
    <path clip-path="url(#p6a3d58b7f1)" d="M 223.059765 102.141082 
L 223.059765 48.620522 
" style="fill:none;stroke:#0000ff;stroke-width:1.5;"/>
    <path clip-path="url(#p6a3d58b7f1)" d="M 231.095059 101.995344 
L 231.095059 48.474784 
" style="fill:none;stroke:#0000ff;stroke-width:1.5;"/>
    <path clip-path="url(#p6a3d58b7f1)" d="M 239.130353 128.293148 
L 239.130353 74.772587 
" style="fill:none;stroke:#0000ff;stroke-width:1.5;"/>
    <path clip-path="url(#p6a3d58b7f1)" d="M 247.165647 112.522255 
L 247.165647 59.001695 
" style="fill:none;stroke:#0000ff;stroke-width:1.5;"/>
    <path clip-path="url(#p6a3d58b7f1)" d="M 255.200941 122.821095 
L 255.200941 69.300534 
" style="fill:none;stroke:#0000ff;stroke-width:1.5;"/>
    <path clip-path="url(#p6a3d58b7f1)" d="M 263.236235 115.560593 
L 263.236235 62.040032 
" style="fill:none;stroke:#0000ff;stroke-width:1.5;"/>
    <path clip-path="url(#p6a3d58b7f1)" d="M 271.271529 100.957423 
L 271.271529 47.436863 
" style="fill:none;stroke:#0000ff;stroke-width:1.5;"/>
    <path clip-path="url(#p6a3d58b7f1)" d="M 279.306824 142.417274 
L 279.306824 88.896713 
" style="fill:none;stroke:#0000ff;stroke-width:1.5;"/>
    <path clip-path="url(#p6a3d58b7f1)" d="M 287.342118 121.649408 
L 287.342118 68.128847 
" style="fill:none;stroke:#0000ff;stroke-width:1.5;"/>
    <path clip-path="url(#p6a3d58b7f1)" d="M 295.377412 145.418954 
L 295.377412 91.898394 
" style="fill:none;stroke:#0000ff;stroke-width:1.5;"/>
    <path clip-path="url(#p6a3d58b7f1)" d="M 303.412706 149.81244 
L 303.412706 96.29188 
" style="fill:none;stroke:#0000ff;stroke-width:1.5;"/>
    <path clip-path="url(#p6a3d58b7f1)" d="M 311.448 102.336567 
L 311.448 48.816007 
" style="fill:none;stroke:#0000ff;stroke-width:1.5;"/>
    <path clip-path="url(#p6a3d58b7f1)" d="M 319.483294 107.335221 
L 319.483294 53.81466 
" style="fill:none;stroke:#0000ff;stroke-width:1.5;"/>
    <path clip-path="url(#p6a3d58b7f1)" d="M 327.518588 116.639107 
L 327.518588 63.118546 
" style="fill:none;stroke:#0000ff;stroke-width:1.5;"/>
    <path clip-path="url(#p6a3d58b7f1)" d="M 335.553882 147.157444 
L 335.553882 93.636884 
" style="fill:none;stroke:#0000ff;stroke-width:1.5;"/>
    <path clip-path="url(#p6a3d58b7f1)" d="M 343.589176 146.906954 
L 343.589176 93.386394 
" style="fill:none;stroke:#0000ff;stroke-width:1.5;"/>
    <path clip-path="url(#p6a3d58b7f1)" d="M 351.624471 120.312798 
L 351.624471 66.792237 
" style="fill:none;stroke:#0000ff;stroke-width:1.5;"/>
    <path clip-path="url(#p6a3d58b7f1)" d="M 359.659765 145.846356 
L 359.659765 92.325795 
" style="fill:none;stroke:#0000ff;stroke-width:1.5;"/>
    <path clip-path="url(#p6a3d58b7f1)" d="M 367.695059 112.956908 
L 367.695059 59.436348 
" style="fill:none;stroke:#0000ff;stroke-width:1.5;"/>
    <path clip-path="url(#p6a3d58b7f1)" d="M 375.730353 110.346477 
L 375.730353 56.825916 
" style="fill:none;stroke:#0000ff;stroke-width:1.5;"/>
    <path clip-path="url(#p6a3d58b7f1)" d="M 383.765647 130.437031 
L 383.765647 76.91647 
" style="fill:none;stroke:#0000ff;stroke-width:1.5;"/>
    <path clip-path="url(#p6a3d58b7f1)" d="M 391.800941 112.698462 
L 391.800941 59.177902 
" style="fill:none;stroke:#0000ff;stroke-width:1.5;"/>
    <path clip-path="url(#p6a3d58b7f1)" d="M 399.836235 119.300452 
L 399.836235 65.779892 
" style="fill:none;stroke:#0000ff;stroke-width:1.5;"/>
    <path clip-path="url(#p6a3d58b7f1)" d="M 407.871529 132.102796 
L 407.871529 78.582235 
" style="fill:none;stroke:#0000ff;stroke-width:1.5;"/>
    <path clip-path="url(#p6a3d58b7f1)" d="M 415.906824 106.76101 
L 415.906824 53.24045 
" style="fill:none;stroke:#0000ff;stroke-width:1.5;"/>
    <path clip-path="url(#p6a3d58b7f1)" d="M 423.942118 140.564411 
L 423.942118 87.043851 
" style="fill:none;stroke:#0000ff;stroke-width:1.5;"/>
    <path clip-path="url(#p6a3d58b7f1)" d="M 431.977412 113.128439 
L 431.977412 59.607878 
" style="fill:none;stroke:#0000ff;stroke-width:1.5;"/>
    <path clip-path="url(#p6a3d58b7f1)" d="M 440.012706 114.864281 
L 440.012706 61.343721 
" style="fill:none;stroke:#0000ff;stroke-width:1.5;"/>
    <path clip-path="url(#p6a3d58b7f1)" d="M 448.048 135.657457 
L 448.048 82.136896 
" style="fill:none;stroke:#0000ff;stroke-width:1.5;"/>
    <path clip-path="url(#p6a3d58b7f1)" d="M 456.083294 149.643775 
L 456.083294 96.123215 
" style="fill:none;stroke:#0000ff;stroke-width:1.5;"/>
    <path clip-path="url(#p6a3d58b7f1)" d="M 464.118588 153.765845 
L 464.118588 100.245284 
" style="fill:none;stroke:#0000ff;stroke-width:1.5;"/>
    <path clip-path="url(#p6a3d58b7f1)" d="M 472.153882 124.748389 
L 472.153882 71.227828 
" style="fill:none;stroke:#0000ff;stroke-width:1.5;"/>
    <path clip-path="url(#p6a3d58b7f1)" d="M 480.189176 151.551394 
L 480.189176 98.030833 
" style="fill:none;stroke:#0000ff;stroke-width:1.5;"/>
    <path clip-path="url(#p6a3d58b7f1)" d="M 488.224471 124.861434 
L 488.224471 71.340873 
" style="fill:none;stroke:#0000ff;stroke-width:1.5;"/>
    <path clip-path="url(#p6a3d58b7f1)" d="M 496.259765 118.939471 
L 496.259765 65.418911 
" style="fill:none;stroke:#0000ff;stroke-width:1.5;"/>
    <path clip-path="url(#p6a3d58b7f1)" d="M 504.295059 119.158032 
L 504.295059 65.637471 
" style="fill:none;stroke:#0000ff;stroke-width:1.5;"/>
    <path clip-path="url(#p6a3d58b7f1)" d="M 512.330353 104.642405 
L 512.330353 51.121844 
" style="fill:none;stroke:#0000ff;stroke-width:1.5;"/>
    <path clip-path="url(#p6a3d58b7f1)" d="M 520.365647 114.351381 
L 520.365647 60.83082 
" style="fill:none;stroke:#0000ff;stroke-width:1.5;"/>
    <path clip-path="url(#p6a3d58b7f1)" d="M 528.400941 102.701885 
L 528.400941 49.181324 
" style="fill:none;stroke:#0000ff;stroke-width:1.5;"/>
    <path clip-path="url(#p6a3d58b7f1)" d="M 536.436235 119.586437 
L 536.436235 66.065876 
" style="fill:none;stroke:#0000ff;stroke-width:1.5;"/>
    <path clip-path="url(#p6a3d58b7f1)" d="M 544.471529 92.54268 
L 544.471529 39.02212 
" style="fill:none;stroke:#0000ff;stroke-width:1.5;"/>
    <path clip-path="url(#p6a3d58b7f1)" d="M 552.506824 131.672097 
L 552.506824 78.151537 
" style="fill:none;stroke:#0000ff;stroke-width:1.5;"/>
    <path clip-path="url(#p6a3d58b7f1)" d="M 560.542118 113.076637 
L 560.542118 59.556076 
" style="fill:none;stroke:#0000ff;stroke-width:1.5;"/>
    <path clip-path="url(#p6a3d58b7f1)" d="M 568.577412 131.295189 
L 568.577412 77.774629 
" style="fill:none;stroke:#0000ff;stroke-width:1.5;"/>
    <path clip-path="url(#p6a3d58b7f1)" d="M 576.612706 113.884916 
L 576.612706 60.364356 
" style="fill:none;stroke:#0000ff;stroke-width:1.5;"/>
    <path clip-path="url(#p6a3d58b7f1)" d="M 584.648 111.346539 
L 584.648 57.825978 
" style="fill:none;stroke:#0000ff;stroke-width:1.5;"/>
    <path clip-path="url(#p6a3d58b7f1)" d="M 592.683294 129.956128 
L 592.683294 76.435568 
" style="fill:none;stroke:#0000ff;stroke-width:1.5;"/>
    <path clip-path="url(#p6a3d58b7f1)" d="M 600.718588 136.929281 
L 600.718588 83.40872 
" style="fill:none;stroke:#0000ff;stroke-width:1.5;"/>
    <path clip-path="url(#p6a3d58b7f1)" d="M 608.753882 135.607353 
L 608.753882 82.086792 
" style="fill:none;stroke:#0000ff;stroke-width:1.5;"/>
    <path clip-path="url(#p6a3d58b7f1)" d="M 616.789176 146.175547 
L 616.789176 92.654987 
" style="fill:none;stroke:#0000ff;stroke-width:1.5;"/>
    <path clip-path="url(#p6a3d58b7f1)" d="M 624.824471 118.621359 
L 624.824471 65.100799 
" style="fill:none;stroke:#0000ff;stroke-width:1.5;"/>
    <path clip-path="url(#p6a3d58b7f1)" d="M 632.859765 134.011752 
L 632.859765 80.491192 
" style="fill:none;stroke:#0000ff;stroke-width:1.5;"/>
    <path clip-path="url(#p6a3d58b7f1)" d="M 640.895059 124.705369 
L 640.895059 71.184809 
" style="fill:none;stroke:#0000ff;stroke-width:1.5;"/>
    <path clip-path="url(#p6a3d58b7f1)" d="M 648.930353 125.755822 
L 648.930353 72.235261 
" style="fill:none;stroke:#0000ff;stroke-width:1.5;"/>
    <path clip-path="url(#p6a3d58b7f1)" d="M 656.965647 99.382561 
L 656.965647 45.862001 
" style="fill:none;stroke:#0000ff;stroke-width:1.5;"/>
    <path clip-path="url(#p6a3d58b7f1)" d="M 665.000941 108.178558 
L 665.000941 54.657997 
" style="fill:none;stroke:#0000ff;stroke-width:1.5;"/>
    <path clip-path="url(#p6a3d58b7f1)" d="M 673.036235 125.189512 
L 673.036235 71.668951 
" style="fill:none;stroke:#0000ff;stroke-width:1.5;"/>
    <path clip-path="url(#p6a3d58b7f1)" d="M 681.071529 102.84344 
L 681.071529 49.322879 
" style="fill:none;stroke:#0000ff;stroke-width:1.5;"/>
    <path clip-path="url(#p6a3d58b7f1)" d="M 689.106824 113.912176 
L 689.106824 60.391616 
" style="fill:none;stroke:#0000ff;stroke-width:1.5;"/>
    <path clip-path="url(#p6a3d58b7f1)" d="M 697.142118 145.975017 
L 697.142118 92.454457 
" style="fill:none;stroke:#0000ff;stroke-width:1.5;"/>
    <path clip-path="url(#p6a3d58b7f1)" d="M 705.177412 105.010489 
L 705.177412 51.489928 
" style="fill:none;stroke:#0000ff;stroke-width:1.5;"/>
    <path clip-path="url(#p6a3d58b7f1)" d="M 713.212706 103.323055 
L 713.212706 49.802494 
" style="fill:none;stroke:#0000ff;stroke-width:1.5;"/>
    <path clip-path="url(#p6a3d58b7f1)" d="M 721.248 111.651242 
L 721.248 58.130682 
" style="fill:none;stroke:#0000ff;stroke-width:1.5;"/>
    <path clip-path="url(#p6a3d58b7f1)" d="M 729.283294 117.512217 
L 729.283294 63.991656 
" style="fill:none;stroke:#0000ff;stroke-width:1.5;"/>
    <path clip-path="url(#p6a3d58b7f1)" d="M 737.318588 100.054064 
L 737.318588 46.533504 
" style="fill:none;stroke:#0000ff;stroke-width:1.5;"/>
    <path clip-path="url(#p6a3d58b7f1)" d="M 745.353882 109.052311 
L 745.353882 55.53175 
" style="fill:none;stroke:#0000ff;stroke-width:1.5;"/>
    <path clip-path="url(#p6a3d58b7f1)" d="M 753.389176 130.06254 
L 753.389176 76.541979 
" style="fill:none;stroke:#0000ff;stroke-width:1.5;"/>
    <path clip-path="url(#p6a3d58b7f1)" d="M 761.424471 140.123806 
L 761.424471 86.603246 
" style="fill:none;stroke:#0000ff;stroke-width:1.5;"/>
    <path clip-path="url(#p6a3d58b7f1)" d="M 769.459765 129.099058 
L 769.459765 75.578497 
" style="fill:none;stroke:#0000ff;stroke-width:1.5;"/>
    <path clip-path="url(#p6a3d58b7f1)" d="M 777.495059 114.289536 
L 777.495059 60.768975 
" style="fill:none;stroke:#0000ff;stroke-width:1.5;"/>
    <path clip-path="url(#p6a3d58b7f1)" d="M 785.530353 157.833244 
L 785.530353 104.312683 
" style="fill:none;stroke:#0000ff;stroke-width:1.5;"/>
    <path clip-path="url(#p6a3d58b7f1)" d="M 793.565647 117.690268 
L 793.565647 64.169707 
" style="fill:none;stroke:#0000ff;stroke-width:1.5;"/>
    <path clip-path="url(#p6a3d58b7f1)" d="M 801.600941 125.844312 
L 801.600941 72.323751 
" style="fill:none;stroke:#0000ff;stroke-width:1.5;"/>
    <path clip-path="url(#p6a3d58b7f1)" d="M 809.636235 145.98369 
L 809.636235 92.46313 
" style="fill:none;stroke:#0000ff;stroke-width:1.5;"/>
    <path clip-path="url(#p6a3d58b7f1)" d="M 817.671529 159.94268 
L 817.671529 106.42212 
" style="fill:none;stroke:#0000ff;stroke-width:1.5;"/>
    <path clip-path="url(#p6a3d58b7f1)" d="M 825.706824 151.071106 
L 825.706824 97.550546 
" style="fill:none;stroke:#0000ff;stroke-width:1.5;"/>
    <path clip-path="url(#p6a3d58b7f1)" d="M 857.848 93.816419 
L 857.848 40.295858 
" style="fill:none;stroke:#0000ff;stroke-width:1.5;"/>
   </g>
   <g id="line2d_9">
    <path clip-path="url(#p6a3d58b7f1)" d="M 174.848 96.660058 
L 857.848 96.660058 
" style="fill:none;stroke:#ff0000;stroke-linecap:square;stroke-width:1.5;"/>
   </g>
   <g id="line2d_10">
    <defs>
     <path d="M -3 0 
L 3 0 
M 0 3 
L 0 -3 
" id="mcae24b7ba1" style="stroke:#0000ff;"/>
    </defs>
    <g clip-path="url(#p6a3d58b7f1)">
     <use style="fill:#0000ff;stroke:#0000ff;" x="174.848" xlink:href="#mcae24b7ba1" y="83.879086"/>
     <use style="fill:#0000ff;stroke:#0000ff;" x="182.883294" xlink:href="#mcae24b7ba1" y="98.790381"/>
     <use style="fill:#0000ff;stroke:#0000ff;" x="190.918588" xlink:href="#mcae24b7ba1" y="118.088798"/>
     <use style="fill:#0000ff;stroke:#0000ff;" x="198.953882" xlink:href="#mcae24b7ba1" y="73.076764"/>
     <use style="fill:#0000ff;stroke:#0000ff;" x="206.989176" xlink:href="#mcae24b7ba1" y="69.395033"/>
     <use style="fill:#0000ff;stroke:#0000ff;" x="215.024471" xlink:href="#mcae24b7ba1" y="111.89684"/>
     <use style="fill:#0000ff;stroke:#0000ff;" x="223.059765" xlink:href="#mcae24b7ba1" y="75.380802"/>
     <use style="fill:#0000ff;stroke:#0000ff;" x="231.095059" xlink:href="#mcae24b7ba1" y="75.235064"/>
     <use style="fill:#0000ff;stroke:#0000ff;" x="239.130353" xlink:href="#mcae24b7ba1" y="101.532868"/>
     <use style="fill:#0000ff;stroke:#0000ff;" x="247.165647" xlink:href="#mcae24b7ba1" y="85.761975"/>
     <use style="fill:#0000ff;stroke:#0000ff;" x="255.200941" xlink:href="#mcae24b7ba1" y="96.060814"/>
     <use style="fill:#0000ff;stroke:#0000ff;" x="263.236235" xlink:href="#mcae24b7ba1" y="88.800313"/>
     <use style="fill:#0000ff;stroke:#0000ff;" x="271.271529" xlink:href="#mcae24b7ba1" y="74.197143"/>
     <use style="fill:#0000ff;stroke:#0000ff;" x="279.306824" xlink:href="#mcae24b7ba1" y="115.656993"/>
     <use style="fill:#0000ff;stroke:#0000ff;" x="287.342118" xlink:href="#mcae24b7ba1" y="94.889128"/>
     <use style="fill:#0000ff;stroke:#0000ff;" x="295.377412" xlink:href="#mcae24b7ba1" y="118.658674"/>
     <use style="fill:#0000ff;stroke:#0000ff;" x="303.412706" xlink:href="#mcae24b7ba1" y="123.05216"/>
     <use style="fill:#0000ff;stroke:#0000ff;" x="311.448" xlink:href="#mcae24b7ba1" y="75.576287"/>
     <use style="fill:#0000ff;stroke:#0000ff;" x="319.483294" xlink:href="#mcae24b7ba1" y="80.574941"/>
     <use style="fill:#0000ff;stroke:#0000ff;" x="327.518588" xlink:href="#mcae24b7ba1" y="89.878826"/>
     <use style="fill:#0000ff;stroke:#0000ff;" x="335.553882" xlink:href="#mcae24b7ba1" y="120.397164"/>
     <use style="fill:#0000ff;stroke:#0000ff;" x="343.589176" xlink:href="#mcae24b7ba1" y="120.146674"/>
     <use style="fill:#0000ff;stroke:#0000ff;" x="351.624471" xlink:href="#mcae24b7ba1" y="93.552517"/>
     <use style="fill:#0000ff;stroke:#0000ff;" x="359.659765" xlink:href="#mcae24b7ba1" y="119.086075"/>
     <use style="fill:#0000ff;stroke:#0000ff;" x="367.695059" xlink:href="#mcae24b7ba1" y="86.196628"/>
     <use style="fill:#0000ff;stroke:#0000ff;" x="375.730353" xlink:href="#mcae24b7ba1" y="83.586196"/>
     <use style="fill:#0000ff;stroke:#0000ff;" x="383.765647" xlink:href="#mcae24b7ba1" y="103.676751"/>
     <use style="fill:#0000ff;stroke:#0000ff;" x="391.800941" xlink:href="#mcae24b7ba1" y="85.938182"/>
     <use style="fill:#0000ff;stroke:#0000ff;" x="399.836235" xlink:href="#mcae24b7ba1" y="92.540172"/>
     <use style="fill:#0000ff;stroke:#0000ff;" x="407.871529" xlink:href="#mcae24b7ba1" y="105.342515"/>
     <use style="fill:#0000ff;stroke:#0000ff;" x="415.906824" xlink:href="#mcae24b7ba1" y="80.00073"/>
     <use style="fill:#0000ff;stroke:#0000ff;" x="423.942118" xlink:href="#mcae24b7ba1" y="113.804131"/>
     <use style="fill:#0000ff;stroke:#0000ff;" x="431.977412" xlink:href="#mcae24b7ba1" y="86.368158"/>
     <use style="fill:#0000ff;stroke:#0000ff;" x="440.012706" xlink:href="#mcae24b7ba1" y="88.104001"/>
     <use style="fill:#0000ff;stroke:#0000ff;" x="448.048" xlink:href="#mcae24b7ba1" y="108.897177"/>
     <use style="fill:#0000ff;stroke:#0000ff;" x="456.083294" xlink:href="#mcae24b7ba1" y="122.883495"/>
     <use style="fill:#0000ff;stroke:#0000ff;" x="464.118588" xlink:href="#mcae24b7ba1" y="127.005565"/>
     <use style="fill:#0000ff;stroke:#0000ff;" x="472.153882" xlink:href="#mcae24b7ba1" y="97.988108"/>
     <use style="fill:#0000ff;stroke:#0000ff;" x="480.189176" xlink:href="#mcae24b7ba1" y="124.791113"/>
     <use style="fill:#0000ff;stroke:#0000ff;" x="488.224471" xlink:href="#mcae24b7ba1" y="98.101153"/>
     <use style="fill:#0000ff;stroke:#0000ff;" x="496.259765" xlink:href="#mcae24b7ba1" y="92.179191"/>
     <use style="fill:#0000ff;stroke:#0000ff;" x="504.295059" xlink:href="#mcae24b7ba1" y="92.397751"/>
     <use style="fill:#0000ff;stroke:#0000ff;" x="512.330353" xlink:href="#mcae24b7ba1" y="77.882125"/>
     <use style="fill:#0000ff;stroke:#0000ff;" x="520.365647" xlink:href="#mcae24b7ba1" y="87.5911"/>
     <use style="fill:#0000ff;stroke:#0000ff;" x="528.400941" xlink:href="#mcae24b7ba1" y="75.941605"/>
     <use style="fill:#0000ff;stroke:#0000ff;" x="536.436235" xlink:href="#mcae24b7ba1" y="92.826156"/>
     <use style="fill:#0000ff;stroke:#0000ff;" x="544.471529" xlink:href="#mcae24b7ba1" y="65.7824"/>
     <use style="fill:#0000ff;stroke:#0000ff;" x="552.506824" xlink:href="#mcae24b7ba1" y="104.911817"/>
     <use style="fill:#0000ff;stroke:#0000ff;" x="560.542118" xlink:href="#mcae24b7ba1" y="86.316356"/>
     <use style="fill:#0000ff;stroke:#0000ff;" x="568.577412" xlink:href="#mcae24b7ba1" y="104.534909"/>
     <use style="fill:#0000ff;stroke:#0000ff;" x="576.612706" xlink:href="#mcae24b7ba1" y="87.124636"/>
     <use style="fill:#0000ff;stroke:#0000ff;" x="584.648" xlink:href="#mcae24b7ba1" y="84.586259"/>
     <use style="fill:#0000ff;stroke:#0000ff;" x="592.683294" xlink:href="#mcae24b7ba1" y="103.195848"/>
     <use style="fill:#0000ff;stroke:#0000ff;" x="600.718588" xlink:href="#mcae24b7ba1" y="110.169"/>
     <use style="fill:#0000ff;stroke:#0000ff;" x="608.753882" xlink:href="#mcae24b7ba1" y="108.847073"/>
     <use style="fill:#0000ff;stroke:#0000ff;" x="616.789176" xlink:href="#mcae24b7ba1" y="119.415267"/>
     <use style="fill:#0000ff;stroke:#0000ff;" x="624.824471" xlink:href="#mcae24b7ba1" y="91.861079"/>
     <use style="fill:#0000ff;stroke:#0000ff;" x="632.859765" xlink:href="#mcae24b7ba1" y="107.251472"/>
     <use style="fill:#0000ff;stroke:#0000ff;" x="640.895059" xlink:href="#mcae24b7ba1" y="97.945089"/>
     <use style="fill:#0000ff;stroke:#0000ff;" x="648.930353" xlink:href="#mcae24b7ba1" y="98.995541"/>
     <use style="fill:#0000ff;stroke:#0000ff;" x="656.965647" xlink:href="#mcae24b7ba1" y="72.622281"/>
     <use style="fill:#0000ff;stroke:#0000ff;" x="665.000941" xlink:href="#mcae24b7ba1" y="81.418278"/>
     <use style="fill:#0000ff;stroke:#0000ff;" x="673.036235" xlink:href="#mcae24b7ba1" y="98.429232"/>
     <use style="fill:#0000ff;stroke:#0000ff;" x="681.071529" xlink:href="#mcae24b7ba1" y="76.08316"/>
     <use style="fill:#0000ff;stroke:#0000ff;" x="689.106824" xlink:href="#mcae24b7ba1" y="87.151896"/>
     <use style="fill:#0000ff;stroke:#0000ff;" x="697.142118" xlink:href="#mcae24b7ba1" y="119.214737"/>
     <use style="fill:#0000ff;stroke:#0000ff;" x="705.177412" xlink:href="#mcae24b7ba1" y="78.250208"/>
     <use style="fill:#0000ff;stroke:#0000ff;" x="713.212706" xlink:href="#mcae24b7ba1" y="76.562774"/>
     <use style="fill:#0000ff;stroke:#0000ff;" x="721.248" xlink:href="#mcae24b7ba1" y="84.890962"/>
     <use style="fill:#0000ff;stroke:#0000ff;" x="729.283294" xlink:href="#mcae24b7ba1" y="90.751936"/>
     <use style="fill:#0000ff;stroke:#0000ff;" x="737.318588" xlink:href="#mcae24b7ba1" y="73.293784"/>
     <use style="fill:#0000ff;stroke:#0000ff;" x="745.353882" xlink:href="#mcae24b7ba1" y="82.29203"/>
     <use style="fill:#0000ff;stroke:#0000ff;" x="753.389176" xlink:href="#mcae24b7ba1" y="103.302259"/>
     <use style="fill:#0000ff;stroke:#0000ff;" x="761.424471" xlink:href="#mcae24b7ba1" y="113.363526"/>
     <use style="fill:#0000ff;stroke:#0000ff;" x="769.459765" xlink:href="#mcae24b7ba1" y="102.338778"/>
     <use style="fill:#0000ff;stroke:#0000ff;" x="777.495059" xlink:href="#mcae24b7ba1" y="87.529255"/>
     <use style="fill:#0000ff;stroke:#0000ff;" x="785.530353" xlink:href="#mcae24b7ba1" y="131.072963"/>
     <use style="fill:#0000ff;stroke:#0000ff;" x="793.565647" xlink:href="#mcae24b7ba1" y="90.929987"/>
     <use style="fill:#0000ff;stroke:#0000ff;" x="801.600941" xlink:href="#mcae24b7ba1" y="99.084032"/>
     <use style="fill:#0000ff;stroke:#0000ff;" x="809.636235" xlink:href="#mcae24b7ba1" y="119.22341"/>
     <use style="fill:#0000ff;stroke:#0000ff;" x="817.671529" xlink:href="#mcae24b7ba1" y="133.1824"/>
     <use style="fill:#0000ff;stroke:#0000ff;" x="825.706824" xlink:href="#mcae24b7ba1" y="124.310826"/>
     <use style="fill:#0000ff;stroke:#0000ff;" x="857.848" xlink:href="#mcae24b7ba1" y="67.056139"/>
    </g>
   </g>
   <g id="patch_3">
    <path d="M 147.528 135.8784 
L 147.528 63.0864 
" style="fill:none;stroke:#000000;stroke-linecap:square;stroke-linejoin:miter;stroke-width:0.8;"/>
   </g>
   <g id="patch_4">
    <path d="M 885.168 135.8784 
L 885.168 63.0864 
" style="fill:none;stroke:#000000;stroke-linecap:square;stroke-linejoin:miter;stroke-width:0.8;"/>
   </g>
   <g id="patch_5">
    <path d="M 147.528 135.8784 
L 885.168 135.8784 
" style="fill:none;stroke:#000000;stroke-linecap:square;stroke-linejoin:miter;stroke-width:0.8;"/>
   </g>
   <g id="patch_6">
    <path d="M 147.528 63.0864 
L 885.168 63.0864 
" style="fill:none;stroke:#000000;stroke-linecap:square;stroke-linejoin:miter;stroke-width:0.8;"/>
   </g>
   <g id="text_4">
    <!-- Function (0/0): y = a*exp(-(x-x0)**2/w**2)+b -->
    <defs>
     <path d="M 9.8125 72.90625 
L 51.703125 72.90625 
L 51.703125 64.59375 
L 19.671875 64.59375 
L 19.671875 43.109375 
L 48.578125 43.109375 
L 48.578125 34.8125 
L 19.671875 34.8125 
L 19.671875 0 
L 9.8125 0 
z
" id="DejaVuSans-46"/>
     <path d="M 48.78125 52.59375 
L 48.78125 44.1875 
Q 44.96875 46.296875 41.140625 47.34375 
Q 37.3125 48.390625 33.40625 48.390625 
Q 24.65625 48.390625 19.8125 42.84375 
Q 14.984375 37.3125 14.984375 27.296875 
Q 14.984375 17.28125 19.8125 11.734375 
Q 24.65625 6.203125 33.40625 6.203125 
Q 37.3125 6.203125 41.140625 7.25 
Q 44.96875 8.296875 48.78125 10.40625 
L 48.78125 2.09375 
Q 45.015625 0.34375 40.984375 -0.53125 
Q 36.96875 -1.421875 32.421875 -1.421875 
Q 20.0625 -1.421875 12.78125 6.34375 
Q 5.515625 14.109375 5.515625 27.296875 
Q 5.515625 40.671875 12.859375 48.328125 
Q 20.21875 56 33.015625 56 
Q 37.15625 56 41.109375 55.140625 
Q 45.0625 54.296875 48.78125 52.59375 
z
" id="DejaVuSans-63"/>
     <path d="M 30.609375 48.390625 
Q 23.390625 48.390625 19.1875 42.75 
Q 14.984375 37.109375 14.984375 27.296875 
Q 14.984375 17.484375 19.15625 11.84375 
Q 23.34375 6.203125 30.609375 6.203125 
Q 37.796875 6.203125 41.984375 11.859375 
Q 46.1875 17.53125 46.1875 27.296875 
Q 46.1875 37.015625 41.984375 42.703125 
Q 37.796875 48.390625 30.609375 48.390625 
z
M 30.609375 56 
Q 42.328125 56 49.015625 48.375 
Q 55.71875 40.765625 55.71875 27.296875 
Q 55.71875 13.875 49.015625 6.21875 
Q 42.328125 -1.421875 30.609375 -1.421875 
Q 18.84375 -1.421875 12.171875 6.21875 
Q 5.515625 13.875 5.515625 27.296875 
Q 5.515625 40.765625 12.171875 48.375 
Q 18.84375 56 30.609375 56 
z
" id="DejaVuSans-6f"/>
     <path id="DejaVuSans-20"/>
     <path d="M 31 75.875 
Q 24.46875 64.65625 21.28125 53.65625 
Q 18.109375 42.671875 18.109375 31.390625 
Q 18.109375 20.125 21.3125 9.0625 
Q 24.515625 -2 31 -13.1875 
L 23.1875 -13.1875 
Q 15.875 -1.703125 12.234375 9.375 
Q 8.59375 20.453125 8.59375 31.390625 
Q 8.59375 42.28125 12.203125 53.3125 
Q 15.828125 64.359375 23.1875 75.875 
z
" id="DejaVuSans-28"/>
     <path d="M 31.78125 66.40625 
Q 24.171875 66.40625 20.328125 58.90625 
Q 16.5 51.421875 16.5 36.375 
Q 16.5 21.390625 20.328125 13.890625 
Q 24.171875 6.390625 31.78125 6.390625 
Q 39.453125 6.390625 43.28125 13.890625 
Q 47.125 21.390625 47.125 36.375 
Q 47.125 51.421875 43.28125 58.90625 
Q 39.453125 66.40625 31.78125 66.40625 
z
M 31.78125 74.21875 
Q 44.046875 74.21875 50.515625 64.515625 
Q 56.984375 54.828125 56.984375 36.375 
Q 56.984375 17.96875 50.515625 8.265625 
Q 44.046875 -1.421875 31.78125 -1.421875 
Q 19.53125 -1.421875 13.0625 8.265625 
Q 6.59375 17.96875 6.59375 36.375 
Q 6.59375 54.828125 13.0625 64.515625 
Q 19.53125 74.21875 31.78125 74.21875 
z
" id="DejaVuSans-30"/>
     <path d="M 25.390625 72.90625 
L 33.6875 72.90625 
L 8.296875 -9.28125 
L 0 -9.28125 
z
" id="DejaVuSans-2f"/>
     <path d="M 8.015625 75.875 
L 15.828125 75.875 
Q 23.140625 64.359375 26.78125 53.3125 
Q 30.421875 42.28125 30.421875 31.390625 
Q 30.421875 20.453125 26.78125 9.375 
Q 23.140625 -1.703125 15.828125 -13.1875 
L 8.015625 -13.1875 
Q 14.5 -2 17.703125 9.0625 
Q 20.90625 20.125 20.90625 31.390625 
Q 20.90625 42.671875 17.703125 53.65625 
Q 14.5 64.65625 8.015625 75.875 
z
" id="DejaVuSans-29"/>
     <path d="M 11.71875 12.40625 
L 22.015625 12.40625 
L 22.015625 0 
L 11.71875 0 
z
M 11.71875 51.703125 
L 22.015625 51.703125 
L 22.015625 39.3125 
L 11.71875 39.3125 
z
" id="DejaVuSans-3a"/>
     <path d="M 32.171875 -5.078125 
Q 28.375 -14.84375 24.75 -17.8125 
Q 21.140625 -20.796875 15.09375 -20.796875 
L 7.90625 -20.796875 
L 7.90625 -13.28125 
L 13.1875 -13.28125 
Q 16.890625 -13.28125 18.9375 -11.515625 
Q 21 -9.765625 23.484375 -3.21875 
L 25.09375 0.875 
L 2.984375 54.6875 
L 12.5 54.6875 
L 29.59375 11.921875 
L 46.6875 54.6875 
L 56.203125 54.6875 
z
" id="DejaVuSans-79"/>
     <path d="M 10.59375 45.40625 
L 73.1875 45.40625 
L 73.1875 37.203125 
L 10.59375 37.203125 
z
M 10.59375 25.484375 
L 73.1875 25.484375 
L 73.1875 17.1875 
L 10.59375 17.1875 
z
" id="DejaVuSans-3d"/>
     <path d="M 47.015625 60.890625 
L 29.5 51.421875 
L 47.015625 41.890625 
L 44.1875 37.109375 
L 27.78125 47.015625 
L 27.78125 28.609375 
L 22.21875 28.609375 
L 22.21875 47.015625 
L 5.8125 37.109375 
L 2.984375 41.890625 
L 20.515625 51.421875 
L 2.984375 60.890625 
L 5.8125 65.71875 
L 22.21875 55.8125 
L 22.21875 74.21875 
L 27.78125 74.21875 
L 27.78125 55.8125 
L 44.1875 65.71875 
z
" id="DejaVuSans-2a"/>
     <path d="M 54.890625 54.6875 
L 35.109375 28.078125 
L 55.90625 0 
L 45.3125 0 
L 29.390625 21.484375 
L 13.484375 0 
L 2.875 0 
L 24.125 28.609375 
L 4.6875 54.6875 
L 15.28125 54.6875 
L 29.78125 35.203125 
L 44.28125 54.6875 
z
" id="DejaVuSans-78"/>
     <path d="M 18.109375 8.203125 
L 18.109375 -20.796875 
L 9.078125 -20.796875 
L 9.078125 54.6875 
L 18.109375 54.6875 
L 18.109375 46.390625 
Q 20.953125 51.265625 25.265625 53.625 
Q 29.59375 56 35.59375 56 
Q 45.5625 56 51.78125 48.09375 
Q 58.015625 40.1875 58.015625 27.296875 
Q 58.015625 14.40625 51.78125 6.484375 
Q 45.5625 -1.421875 35.59375 -1.421875 
Q 29.59375 -1.421875 25.265625 0.953125 
Q 20.953125 3.328125 18.109375 8.203125 
z
M 48.6875 27.296875 
Q 48.6875 37.203125 44.609375 42.84375 
Q 40.53125 48.484375 33.40625 48.484375 
Q 26.265625 48.484375 22.1875 42.84375 
Q 18.109375 37.203125 18.109375 27.296875 
Q 18.109375 17.390625 22.1875 11.75 
Q 26.265625 6.109375 33.40625 6.109375 
Q 40.53125 6.109375 44.609375 11.75 
Q 48.6875 17.390625 48.6875 27.296875 
z
" id="DejaVuSans-70"/>
     <path d="M 4.890625 31.390625 
L 31.203125 31.390625 
L 31.203125 23.390625 
L 4.890625 23.390625 
z
" id="DejaVuSans-2d"/>
     <path d="M 19.1875 8.296875 
L 53.609375 8.296875 
L 53.609375 0 
L 7.328125 0 
L 7.328125 8.296875 
Q 12.9375 14.109375 22.625 23.890625 
Q 32.328125 33.6875 34.8125 36.53125 
Q 39.546875 41.84375 41.421875 45.53125 
Q 43.3125 49.21875 43.3125 52.78125 
Q 43.3125 58.59375 39.234375 62.25 
Q 35.15625 65.921875 28.609375 65.921875 
Q 23.96875 65.921875 18.8125 64.3125 
Q 13.671875 62.703125 7.8125 59.421875 
L 7.8125 69.390625 
Q 13.765625 71.78125 18.9375 73 
Q 24.125 74.21875 28.421875 74.21875 
Q 39.75 74.21875 46.484375 68.546875 
Q 53.21875 62.890625 53.21875 53.421875 
Q 53.21875 48.921875 51.53125 44.890625 
Q 49.859375 40.875 45.40625 35.40625 
Q 44.1875 33.984375 37.640625 27.21875 
Q 31.109375 20.453125 19.1875 8.296875 
z
" id="DejaVuSans-32"/>
     <path d="M 4.203125 54.6875 
L 13.1875 54.6875 
L 24.421875 12.015625 
L 35.59375 54.6875 
L 46.1875 54.6875 
L 57.421875 12.015625 
L 68.609375 54.6875 
L 77.59375 54.6875 
L 63.28125 0 
L 52.6875 0 
L 40.921875 44.828125 
L 29.109375 0 
L 18.5 0 
z
" id="DejaVuSans-77"/>
     <path d="M 46 62.703125 
L 46 35.5 
L 73.1875 35.5 
L 73.1875 27.203125 
L 46 27.203125 
L 46 0 
L 37.796875 0 
L 37.796875 27.203125 
L 10.59375 27.203125 
L 10.59375 35.5 
L 37.796875 35.5 
L 37.796875 62.703125 
z
" id="DejaVuSans-2b"/>
     <path d="M 48.6875 27.296875 
Q 48.6875 37.203125 44.609375 42.84375 
Q 40.53125 48.484375 33.40625 48.484375 
Q 26.265625 48.484375 22.1875 42.84375 
Q 18.109375 37.203125 18.109375 27.296875 
Q 18.109375 17.390625 22.1875 11.75 
Q 26.265625 6.109375 33.40625 6.109375 
Q 40.53125 6.109375 44.609375 11.75 
Q 48.6875 17.390625 48.6875 27.296875 
z
M 18.109375 46.390625 
Q 20.953125 51.265625 25.265625 53.625 
Q 29.59375 56 35.59375 56 
Q 45.5625 56 51.78125 48.09375 
Q 58.015625 40.1875 58.015625 27.296875 
Q 58.015625 14.40625 51.78125 6.484375 
Q 45.5625 -1.421875 35.59375 -1.421875 
Q 29.59375 -1.421875 25.265625 0.953125 
Q 20.953125 3.328125 18.109375 8.203125 
L 18.109375 0 
L 9.078125 0 
L 9.078125 75.984375 
L 18.109375 75.984375 
z
" id="DejaVuSans-62"/>
    </defs>
    <g transform="translate(147.528 34.690775)scale(0.1 -0.1)">
     <use xlink:href="#DejaVuSans-46"/>
     <use x="57.441406" xlink:href="#DejaVuSans-75"/>
     <use x="120.820312" xlink:href="#DejaVuSans-6e"/>
     <use x="184.199219" xlink:href="#DejaVuSans-63"/>
     <use x="239.179688" xlink:href="#DejaVuSans-74"/>
     <use x="278.388672" xlink:href="#DejaVuSans-69"/>
     <use x="306.171875" xlink:href="#DejaVuSans-6f"/>
     <use x="367.353516" xlink:href="#DejaVuSans-6e"/>
     <use x="430.732422" xlink:href="#DejaVuSans-20"/>
     <use x="462.519531" xlink:href="#DejaVuSans-28"/>
     <use x="501.533203" xlink:href="#DejaVuSans-30"/>
     <use x="565.15625" xlink:href="#DejaVuSans-2f"/>
     <use x="598.847656" xlink:href="#DejaVuSans-30"/>
     <use x="662.470703" xlink:href="#DejaVuSans-29"/>
     <use x="701.484375" xlink:href="#DejaVuSans-3a"/>
     <use x="735.175781" xlink:href="#DejaVuSans-20"/>
     <use x="766.962891" xlink:href="#DejaVuSans-79"/>
     <use x="826.142578" xlink:href="#DejaVuSans-20"/>
     <use x="857.929688" xlink:href="#DejaVuSans-3d"/>
     <use x="941.71875" xlink:href="#DejaVuSans-20"/>
     <use x="973.505859" xlink:href="#DejaVuSans-61"/>
     <use x="1034.785156" xlink:href="#DejaVuSans-2a"/>
     <use x="1084.785156" xlink:href="#DejaVuSans-65"/>
     <use x="1146.292969" xlink:href="#DejaVuSans-78"/>
     <use x="1205.472656" xlink:href="#DejaVuSans-70"/>
     <use x="1268.949219" xlink:href="#DejaVuSans-28"/>
     <use x="1307.962891" xlink:href="#DejaVuSans-2d"/>
     <use x="1344.046875" xlink:href="#DejaVuSans-28"/>
     <use x="1383.060547" xlink:href="#DejaVuSans-78"/>
     <use x="1442.240234" xlink:href="#DejaVuSans-2d"/>
     <use x="1478.324219" xlink:href="#DejaVuSans-78"/>
     <use x="1537.503906" xlink:href="#DejaVuSans-30"/>
     <use x="1601.126953" xlink:href="#DejaVuSans-29"/>
     <use x="1640.140625" xlink:href="#DejaVuSans-2a"/>
     <use x="1690.140625" xlink:href="#DejaVuSans-2a"/>
     <use x="1740.140625" xlink:href="#DejaVuSans-32"/>
     <use x="1803.763672" xlink:href="#DejaVuSans-2f"/>
     <use x="1837.455078" xlink:href="#DejaVuSans-77"/>
     <use x="1919.242188" xlink:href="#DejaVuSans-2a"/>
     <use x="1969.242188" xlink:href="#DejaVuSans-2a"/>
     <use x="2019.242188" xlink:href="#DejaVuSans-32"/>
     <use x="2082.865234" xlink:href="#DejaVuSans-29"/>
     <use x="2121.878906" xlink:href="#DejaVuSans-2b"/>
     <use x="2205.667969" xlink:href="#DejaVuSans-62"/>
    </g>
    <!-- Fit: a=440.7$\pm$8.1, b=22.5$\pm$9.1, x0=4.57628$\pm$0.00099, -->
    <defs>
     <path d="M 37.796875 64.3125 
L 12.890625 25.390625 
L 37.796875 25.390625 
z
M 35.203125 72.90625 
L 47.609375 72.90625 
L 47.609375 25.390625 
L 58.015625 25.390625 
L 58.015625 17.1875 
L 47.609375 17.1875 
L 47.609375 0 
L 37.796875 0 
L 37.796875 17.1875 
L 4.890625 17.1875 
L 4.890625 26.703125 
z
" id="DejaVuSans-34"/>
     <path d="M 10.6875 12.40625 
L 21 12.40625 
L 21 0 
L 10.6875 0 
z
" id="DejaVuSans-2e"/>
     <path d="M 8.203125 72.90625 
L 55.078125 72.90625 
L 55.078125 68.703125 
L 28.609375 0 
L 18.3125 0 
L 43.21875 64.59375 
L 8.203125 64.59375 
z
" id="DejaVuSans-37"/>
     <path d="M 46 62.703125 
L 46 43.796875 
L 73.1875 43.796875 
L 73.1875 35.5 
L 46 35.5 
L 46 16.609375 
L 37.796875 16.609375 
L 37.796875 35.5 
L 10.59375 35.5 
L 10.59375 43.796875 
L 37.796875 43.796875 
L 37.796875 62.703125 
z
M 10.59375 8.296875 
L 73.1875 8.296875 
L 73.1875 0 
L 10.59375 0 
z
" id="DejaVuSans-b1"/>
     <path d="M 31.78125 34.625 
Q 24.75 34.625 20.71875 30.859375 
Q 16.703125 27.09375 16.703125 20.515625 
Q 16.703125 13.921875 20.71875 10.15625 
Q 24.75 6.390625 31.78125 6.390625 
Q 38.8125 6.390625 42.859375 10.171875 
Q 46.921875 13.96875 46.921875 20.515625 
Q 46.921875 27.09375 42.890625 30.859375 
Q 38.875 34.625 31.78125 34.625 
z
M 21.921875 38.8125 
Q 15.578125 40.375 12.03125 44.71875 
Q 8.5 49.078125 8.5 55.328125 
Q 8.5 64.0625 14.71875 69.140625 
Q 20.953125 74.21875 31.78125 74.21875 
Q 42.671875 74.21875 48.875 69.140625 
Q 55.078125 64.0625 55.078125 55.328125 
Q 55.078125 49.078125 51.53125 44.71875 
Q 48 40.375 41.703125 38.8125 
Q 48.828125 37.15625 52.796875 32.3125 
Q 56.78125 27.484375 56.78125 20.515625 
Q 56.78125 9.90625 50.3125 4.234375 
Q 43.84375 -1.421875 31.78125 -1.421875 
Q 19.734375 -1.421875 13.25 4.234375 
Q 6.78125 9.90625 6.78125 20.515625 
Q 6.78125 27.484375 10.78125 32.3125 
Q 14.796875 37.15625 21.921875 38.8125 
z
M 18.3125 54.390625 
Q 18.3125 48.734375 21.84375 45.5625 
Q 25.390625 42.390625 31.78125 42.390625 
Q 38.140625 42.390625 41.71875 45.5625 
Q 45.3125 48.734375 45.3125 54.390625 
Q 45.3125 60.0625 41.71875 63.234375 
Q 38.140625 66.40625 31.78125 66.40625 
Q 25.390625 66.40625 21.84375 63.234375 
Q 18.3125 60.0625 18.3125 54.390625 
z
" id="DejaVuSans-38"/>
     <path d="M 11.71875 12.40625 
L 22.015625 12.40625 
L 22.015625 4 
L 14.015625 -11.625 
L 7.71875 -11.625 
L 11.71875 4 
z
" id="DejaVuSans-2c"/>
     <path d="M 10.796875 72.90625 
L 49.515625 72.90625 
L 49.515625 64.59375 
L 19.828125 64.59375 
L 19.828125 46.734375 
Q 21.96875 47.46875 24.109375 47.828125 
Q 26.265625 48.1875 28.421875 48.1875 
Q 40.625 48.1875 47.75 41.5 
Q 54.890625 34.8125 54.890625 23.390625 
Q 54.890625 11.625 47.5625 5.09375 
Q 40.234375 -1.421875 26.90625 -1.421875 
Q 22.3125 -1.421875 17.546875 -0.640625 
Q 12.796875 0.140625 7.71875 1.703125 
L 7.71875 11.625 
Q 12.109375 9.234375 16.796875 8.0625 
Q 21.484375 6.890625 26.703125 6.890625 
Q 35.15625 6.890625 40.078125 11.328125 
Q 45.015625 15.765625 45.015625 23.390625 
Q 45.015625 31 40.078125 35.4375 
Q 35.15625 39.890625 26.703125 39.890625 
Q 22.75 39.890625 18.8125 39.015625 
Q 14.890625 38.140625 10.796875 36.28125 
z
" id="DejaVuSans-35"/>
     <path d="M 10.984375 1.515625 
L 10.984375 10.5 
Q 14.703125 8.734375 18.5 7.8125 
Q 22.3125 6.890625 25.984375 6.890625 
Q 35.75 6.890625 40.890625 13.453125 
Q 46.046875 20.015625 46.78125 33.40625 
Q 43.953125 29.203125 39.59375 26.953125 
Q 35.25 24.703125 29.984375 24.703125 
Q 19.046875 24.703125 12.671875 31.3125 
Q 6.296875 37.9375 6.296875 49.421875 
Q 6.296875 60.640625 12.9375 67.421875 
Q 19.578125 74.21875 30.609375 74.21875 
Q 43.265625 74.21875 49.921875 64.515625 
Q 56.59375 54.828125 56.59375 36.375 
Q 56.59375 19.140625 48.40625 8.859375 
Q 40.234375 -1.421875 26.421875 -1.421875 
Q 22.703125 -1.421875 18.890625 -0.6875 
Q 15.09375 0.046875 10.984375 1.515625 
z
M 30.609375 32.421875 
Q 37.25 32.421875 41.125 36.953125 
Q 45.015625 41.5 45.015625 49.421875 
Q 45.015625 57.28125 41.125 61.84375 
Q 37.25 66.40625 30.609375 66.40625 
Q 23.96875 66.40625 20.09375 61.84375 
Q 16.21875 57.28125 16.21875 49.421875 
Q 16.21875 41.5 20.09375 36.953125 
Q 23.96875 32.421875 30.609375 32.421875 
z
" id="DejaVuSans-39"/>
     <path d="M 33.015625 40.375 
Q 26.375 40.375 22.484375 35.828125 
Q 18.609375 31.296875 18.609375 23.390625 
Q 18.609375 15.53125 22.484375 10.953125 
Q 26.375 6.390625 33.015625 6.390625 
Q 39.65625 6.390625 43.53125 10.953125 
Q 47.40625 15.53125 47.40625 23.390625 
Q 47.40625 31.296875 43.53125 35.828125 
Q 39.65625 40.375 33.015625 40.375 
z
M 52.59375 71.296875 
L 52.59375 62.3125 
Q 48.875 64.0625 45.09375 64.984375 
Q 41.3125 65.921875 37.59375 65.921875 
Q 27.828125 65.921875 22.671875 59.328125 
Q 17.53125 52.734375 16.796875 39.40625 
Q 19.671875 43.65625 24.015625 45.921875 
Q 28.375 48.1875 33.59375 48.1875 
Q 44.578125 48.1875 50.953125 41.515625 
Q 57.328125 34.859375 57.328125 23.390625 
Q 57.328125 12.15625 50.6875 5.359375 
Q 44.046875 -1.421875 33.015625 -1.421875 
Q 20.359375 -1.421875 13.671875 8.265625 
Q 6.984375 17.96875 6.984375 36.375 
Q 6.984375 53.65625 15.1875 63.9375 
Q 23.390625 74.21875 37.203125 74.21875 
Q 40.921875 74.21875 44.703125 73.484375 
Q 48.484375 72.75 52.59375 71.296875 
z
" id="DejaVuSans-36"/>
    </defs>
    <g transform="translate(147.528 45.888588)scale(0.1 -0.1)">
     <use transform="translate(0 0.015625)" xlink:href="#DejaVuSans-46"/>
     <use transform="translate(57.519531 0.015625)" xlink:href="#DejaVuSans-69"/>
     <use transform="translate(85.302734 0.015625)" xlink:href="#DejaVuSans-74"/>
     <use transform="translate(124.511719 0.015625)" xlink:href="#DejaVuSans-3a"/>
     <use transform="translate(158.203125 0.015625)" xlink:href="#DejaVuSans-20"/>
     <use transform="translate(189.990234 0.015625)" xlink:href="#DejaVuSans-61"/>
     <use transform="translate(251.269531 0.015625)" xlink:href="#DejaVuSans-3d"/>
     <use transform="translate(335.058594 0.015625)" xlink:href="#DejaVuSans-34"/>
     <use transform="translate(398.681641 0.015625)" xlink:href="#DejaVuSans-34"/>
     <use transform="translate(462.304688 0.015625)" xlink:href="#DejaVuSans-30"/>
     <use transform="translate(525.927734 0.015625)" xlink:href="#DejaVuSans-2e"/>
     <use transform="translate(557.605469 0.015625)" xlink:href="#DejaVuSans-37"/>
     <use transform="translate(621.228516 0.015625)" xlink:href="#DejaVuSans-b1"/>
     <use transform="translate(705.017578 0.015625)" xlink:href="#DejaVuSans-38"/>
     <use transform="translate(768.640625 0.015625)" xlink:href="#DejaVuSans-2e"/>
     <use transform="translate(800.427734 0.015625)" xlink:href="#DejaVuSans-31"/>
     <use transform="translate(864.050781 0.015625)" xlink:href="#DejaVuSans-2c"/>
     <use transform="translate(895.837891 0.015625)" xlink:href="#DejaVuSans-20"/>
     <use transform="translate(927.625 0.015625)" xlink:href="#DejaVuSans-62"/>
     <use transform="translate(991.101562 0.015625)" xlink:href="#DejaVuSans-3d"/>
     <use transform="translate(1074.890625 0.015625)" xlink:href="#DejaVuSans-32"/>
     <use transform="translate(1138.513672 0.015625)" xlink:href="#DejaVuSans-32"/>
     <use transform="translate(1202.136719 0.015625)" xlink:href="#DejaVuSans-2e"/>
     <use transform="translate(1233.923828 0.015625)" xlink:href="#DejaVuSans-35"/>
     <use transform="translate(1297.546875 0.015625)" xlink:href="#DejaVuSans-b1"/>
     <use transform="translate(1381.335938 0.015625)" xlink:href="#DejaVuSans-39"/>
     <use transform="translate(1444.958984 0.015625)" xlink:href="#DejaVuSans-2e"/>
     <use transform="translate(1476.746094 0.015625)" xlink:href="#DejaVuSans-31"/>
     <use transform="translate(1540.369141 0.015625)" xlink:href="#DejaVuSans-2c"/>
     <use transform="translate(1572.15625 0.015625)" xlink:href="#DejaVuSans-20"/>
     <use transform="translate(1603.943359 0.015625)" xlink:href="#DejaVuSans-78"/>
     <use transform="translate(1663.123047 0.015625)" xlink:href="#DejaVuSans-30"/>
     <use transform="translate(1726.746094 0.015625)" xlink:href="#DejaVuSans-3d"/>
     <use transform="translate(1810.535156 0.015625)" xlink:href="#DejaVuSans-34"/>
     <use transform="translate(1874.158203 0.015625)" xlink:href="#DejaVuSans-2e"/>
     <use transform="translate(1905.945312 0.015625)" xlink:href="#DejaVuSans-35"/>
     <use transform="translate(1969.458984 0.015625)" xlink:href="#DejaVuSans-37"/>
     <use transform="translate(2033.082031 0.015625)" xlink:href="#DejaVuSans-36"/>
     <use transform="translate(2096.705078 0.015625)" xlink:href="#DejaVuSans-32"/>
     <use transform="translate(2160.328125 0.015625)" xlink:href="#DejaVuSans-38"/>
     <use transform="translate(2223.951172 0.015625)" xlink:href="#DejaVuSans-b1"/>
     <use transform="translate(2307.740234 0.015625)" xlink:href="#DejaVuSans-30"/>
     <use transform="translate(2371.363281 0.015625)" xlink:href="#DejaVuSans-2e"/>
     <use transform="translate(2403.150391 0.015625)" xlink:href="#DejaVuSans-30"/>
     <use transform="translate(2466.773438 0.015625)" xlink:href="#DejaVuSans-30"/>
     <use transform="translate(2530.396484 0.015625)" xlink:href="#DejaVuSans-30"/>
     <use transform="translate(2594.019531 0.015625)" xlink:href="#DejaVuSans-39"/>
     <use transform="translate(2657.642578 0.015625)" xlink:href="#DejaVuSans-39"/>
     <use transform="translate(2721.265625 0.015625)" xlink:href="#DejaVuSans-2c"/>
    </g>
    <!--       w=0.1694$\pm$0.0043, -->
    <defs>
     <path d="M 40.578125 39.3125 
Q 47.65625 37.796875 51.625 33 
Q 55.609375 28.21875 55.609375 21.1875 
Q 55.609375 10.40625 48.1875 4.484375 
Q 40.765625 -1.421875 27.09375 -1.421875 
Q 22.515625 -1.421875 17.65625 -0.515625 
Q 12.796875 0.390625 7.625 2.203125 
L 7.625 11.71875 
Q 11.71875 9.328125 16.59375 8.109375 
Q 21.484375 6.890625 26.8125 6.890625 
Q 36.078125 6.890625 40.9375 10.546875 
Q 45.796875 14.203125 45.796875 21.1875 
Q 45.796875 27.640625 41.28125 31.265625 
Q 36.765625 34.90625 28.71875 34.90625 
L 20.21875 34.90625 
L 20.21875 43.015625 
L 29.109375 43.015625 
Q 36.375 43.015625 40.234375 45.921875 
Q 44.09375 48.828125 44.09375 54.296875 
Q 44.09375 59.90625 40.109375 62.90625 
Q 36.140625 65.921875 28.71875 65.921875 
Q 24.65625 65.921875 20.015625 65.03125 
Q 15.375 64.15625 9.8125 62.3125 
L 9.8125 71.09375 
Q 15.4375 72.65625 20.34375 73.4375 
Q 25.25 74.21875 29.59375 74.21875 
Q 40.828125 74.21875 47.359375 69.109375 
Q 53.90625 64.015625 53.90625 55.328125 
Q 53.90625 49.265625 50.4375 45.09375 
Q 46.96875 40.921875 40.578125 39.3125 
z
" id="DejaVuSans-33"/>
    </defs>
    <g transform="translate(147.528 57.0864)scale(0.1 -0.1)">
     <use transform="translate(0 0.78125)" xlink:href="#DejaVuSans-20"/>
     <use transform="translate(31.787109 0.78125)" xlink:href="#DejaVuSans-20"/>
     <use transform="translate(63.574219 0.78125)" xlink:href="#DejaVuSans-20"/>
     <use transform="translate(95.361328 0.78125)" xlink:href="#DejaVuSans-20"/>
     <use transform="translate(127.148438 0.78125)" xlink:href="#DejaVuSans-20"/>
     <use transform="translate(158.935547 0.78125)" xlink:href="#DejaVuSans-20"/>
     <use transform="translate(190.722656 0.78125)" xlink:href="#DejaVuSans-77"/>
     <use transform="translate(272.509766 0.78125)" xlink:href="#DejaVuSans-3d"/>
     <use transform="translate(356.298828 0.78125)" xlink:href="#DejaVuSans-30"/>
     <use transform="translate(419.921875 0.78125)" xlink:href="#DejaVuSans-2e"/>
     <use transform="translate(451.708984 0.78125)" xlink:href="#DejaVuSans-31"/>
     <use transform="translate(515.332031 0.78125)" xlink:href="#DejaVuSans-36"/>
     <use transform="translate(578.955078 0.78125)" xlink:href="#DejaVuSans-39"/>
     <use transform="translate(642.578125 0.78125)" xlink:href="#DejaVuSans-34"/>
     <use transform="translate(706.201172 0.78125)" xlink:href="#DejaVuSans-b1"/>
     <use transform="translate(789.990234 0.78125)" xlink:href="#DejaVuSans-30"/>
     <use transform="translate(853.613281 0.78125)" xlink:href="#DejaVuSans-2e"/>
     <use transform="translate(885.400391 0.78125)" xlink:href="#DejaVuSans-30"/>
     <use transform="translate(949.023438 0.78125)" xlink:href="#DejaVuSans-30"/>
     <use transform="translate(1012.646484 0.78125)" xlink:href="#DejaVuSans-34"/>
     <use transform="translate(1076.269531 0.78125)" xlink:href="#DejaVuSans-33"/>
     <use transform="translate(1139.892578 0.78125)" xlink:href="#DejaVuSans-2c"/>
    </g>
   </g>
  </g>
  <g id="axes_2">
   <g id="patch_7">
    <path d="M 147.528 436.752 
L 885.168 436.752 
L 885.168 145.584 
L 147.528 145.584 
z
" style="fill:#ffffff;"/>
   </g>
   <g id="matplotlib.axis_3">
    <g id="xtick_6">
     <g id="line2d_11">
      <g>
       <use style="stroke:#000000;stroke-width:0.8;" x="274.560793" xlink:href="#mda7e79c23c" y="436.752"/>
      </g>
     </g>
     <g id="text_5">
      <!-- 4.4 -->
      <g transform="translate(265.018918 452.870125)scale(0.12 -0.12)">
       <use xlink:href="#DejaVuSans-34"/>
       <use x="63.623047" xlink:href="#DejaVuSans-2e"/>
       <use x="95.410156" xlink:href="#DejaVuSans-34"/>
      </g>
     </g>
    </g>
    <g id="xtick_7">
     <g id="line2d_12">
      <g>
       <use style="stroke:#000000;stroke-width:0.8;" x="409.635247" xlink:href="#mda7e79c23c" y="436.752"/>
      </g>
     </g>
     <g id="text_6">
      <!-- 4.5 -->
      <g transform="translate(400.093372 452.870125)scale(0.12 -0.12)">
       <use xlink:href="#DejaVuSans-34"/>
       <use x="63.623047" xlink:href="#DejaVuSans-2e"/>
       <use x="95.410156" xlink:href="#DejaVuSans-35"/>
      </g>
     </g>
    </g>
    <g id="xtick_8">
     <g id="line2d_13">
      <g>
       <use style="stroke:#000000;stroke-width:0.8;" x="544.709701" xlink:href="#mda7e79c23c" y="436.752"/>
      </g>
     </g>
     <g id="text_7">
      <!-- 4.6 -->
      <g transform="translate(535.167826 452.870125)scale(0.12 -0.12)">
       <use xlink:href="#DejaVuSans-34"/>
       <use x="63.623047" xlink:href="#DejaVuSans-2e"/>
       <use x="95.410156" xlink:href="#DejaVuSans-36"/>
      </g>
     </g>
    </g>
    <g id="xtick_9">
     <g id="line2d_14">
      <g>
       <use style="stroke:#000000;stroke-width:0.8;" x="679.784155" xlink:href="#mda7e79c23c" y="436.752"/>
      </g>
     </g>
     <g id="text_8">
      <!-- 4.7 -->
      <g transform="translate(670.24228 452.870125)scale(0.12 -0.12)">
       <use xlink:href="#DejaVuSans-34"/>
       <use x="63.623047" xlink:href="#DejaVuSans-2e"/>
       <use x="95.410156" xlink:href="#DejaVuSans-37"/>
      </g>
     </g>
    </g>
    <g id="xtick_10">
     <g id="line2d_15">
      <g>
       <use style="stroke:#000000;stroke-width:0.8;" x="814.858609" xlink:href="#mda7e79c23c" y="436.752"/>
      </g>
     </g>
     <g id="text_9">
      <!-- 4.8 -->
      <g transform="translate(805.316734 452.870125)scale(0.12 -0.12)">
       <use xlink:href="#DejaVuSans-34"/>
       <use x="63.623047" xlink:href="#DejaVuSans-2e"/>
       <use x="95.410156" xlink:href="#DejaVuSans-38"/>
      </g>
     </g>
    </g>
    <g id="text_10">
     <!-- Energy [MeV] -->
     <defs>
      <path d="M 9.8125 72.90625 
L 55.90625 72.90625 
L 55.90625 64.59375 
L 19.671875 64.59375 
L 19.671875 43.015625 
L 54.390625 43.015625 
L 54.390625 34.71875 
L 19.671875 34.71875 
L 19.671875 8.296875 
L 56.78125 8.296875 
L 56.78125 0 
L 9.8125 0 
z
" id="DejaVuSans-45"/>
      <path d="M 41.109375 46.296875 
Q 39.59375 47.171875 37.8125 47.578125 
Q 36.03125 48 33.890625 48 
Q 26.265625 48 22.1875 43.046875 
Q 18.109375 38.09375 18.109375 28.8125 
L 18.109375 0 
L 9.078125 0 
L 9.078125 54.6875 
L 18.109375 54.6875 
L 18.109375 46.1875 
Q 20.953125 51.171875 25.484375 53.578125 
Q 30.03125 56 36.53125 56 
Q 37.453125 56 38.578125 55.875 
Q 39.703125 55.765625 41.0625 55.515625 
z
" id="DejaVuSans-72"/>
      <path d="M 45.40625 27.984375 
Q 45.40625 37.75 41.375 43.109375 
Q 37.359375 48.484375 30.078125 48.484375 
Q 22.859375 48.484375 18.828125 43.109375 
Q 14.796875 37.75 14.796875 27.984375 
Q 14.796875 18.265625 18.828125 12.890625 
Q 22.859375 7.515625 30.078125 7.515625 
Q 37.359375 7.515625 41.375 12.890625 
Q 45.40625 18.265625 45.40625 27.984375 
z
M 54.390625 6.78125 
Q 54.390625 -7.171875 48.1875 -13.984375 
Q 42 -20.796875 29.203125 -20.796875 
Q 24.46875 -20.796875 20.265625 -20.09375 
Q 16.0625 -19.390625 12.109375 -17.921875 
L 12.109375 -9.1875 
Q 16.0625 -11.328125 19.921875 -12.34375 
Q 23.78125 -13.375 27.78125 -13.375 
Q 36.625 -13.375 41.015625 -8.765625 
Q 45.40625 -4.15625 45.40625 5.171875 
L 45.40625 9.625 
Q 42.625 4.78125 38.28125 2.390625 
Q 33.9375 0 27.875 0 
Q 17.828125 0 11.671875 7.65625 
Q 5.515625 15.328125 5.515625 27.984375 
Q 5.515625 40.671875 11.671875 48.328125 
Q 17.828125 56 27.875 56 
Q 33.9375 56 38.28125 53.609375 
Q 42.625 51.21875 45.40625 46.390625 
L 45.40625 54.6875 
L 54.390625 54.6875 
z
" id="DejaVuSans-67"/>
      <path d="M 8.59375 75.984375 
L 29.296875 75.984375 
L 29.296875 69 
L 17.578125 69 
L 17.578125 -6.203125 
L 29.296875 -6.203125 
L 29.296875 -13.1875 
L 8.59375 -13.1875 
z
" id="DejaVuSans-5b"/>
      <path d="M 9.8125 72.90625 
L 24.515625 72.90625 
L 43.109375 23.296875 
L 61.8125 72.90625 
L 76.515625 72.90625 
L 76.515625 0 
L 66.890625 0 
L 66.890625 64.015625 
L 48.09375 14.015625 
L 38.1875 14.015625 
L 19.390625 64.015625 
L 19.390625 0 
L 9.8125 0 
z
" id="DejaVuSans-4d"/>
      <path d="M 28.609375 0 
L 0.78125 72.90625 
L 11.078125 72.90625 
L 34.1875 11.53125 
L 57.328125 72.90625 
L 67.578125 72.90625 
L 39.796875 0 
z
" id="DejaVuSans-56"/>
      <path d="M 30.421875 75.984375 
L 30.421875 -13.1875 
L 9.71875 -13.1875 
L 9.71875 -6.203125 
L 21.390625 -6.203125 
L 21.390625 69 
L 9.71875 69 
L 9.71875 75.984375 
z
" id="DejaVuSans-5d"/>
     </defs>
     <g transform="translate(475.674562 468.483875)scale(0.12 -0.12)">
      <use xlink:href="#DejaVuSans-45"/>
      <use x="63.183594" xlink:href="#DejaVuSans-6e"/>
      <use x="126.5625" xlink:href="#DejaVuSans-65"/>
      <use x="188.085938" xlink:href="#DejaVuSans-72"/>
      <use x="229.183594" xlink:href="#DejaVuSans-67"/>
      <use x="292.660156" xlink:href="#DejaVuSans-79"/>
      <use x="351.839844" xlink:href="#DejaVuSans-20"/>
      <use x="383.626953" xlink:href="#DejaVuSans-5b"/>
      <use x="422.640625" xlink:href="#DejaVuSans-4d"/>
      <use x="508.919922" xlink:href="#DejaVuSans-65"/>
      <use x="570.443359" xlink:href="#DejaVuSans-56"/>
      <use x="638.851562" xlink:href="#DejaVuSans-5d"/>
     </g>
    </g>
   </g>
   <g id="matplotlib.axis_4">
    <g id="ytick_4">
     <g id="line2d_16">
      <g>
       <use style="stroke:#000000;stroke-width:0.8;" x="147.528" xlink:href="#m0c3edbbb55" y="410.266389"/>
      </g>
     </g>
     <g id="text_11">
      <!-- 100 -->
      <g transform="translate(117.623 414.825452)scale(0.12 -0.12)">
       <use xlink:href="#DejaVuSans-31"/>
       <use x="63.623047" xlink:href="#DejaVuSans-30"/>
       <use x="127.246094" xlink:href="#DejaVuSans-30"/>
      </g>
     </g>
    </g>
    <g id="ytick_5">
     <g id="line2d_17">
      <g>
       <use style="stroke:#000000;stroke-width:0.8;" x="147.528" xlink:href="#m0c3edbbb55" y="376.858706"/>
      </g>
     </g>
     <g id="text_12">
      <!-- 150 -->
      <g transform="translate(117.623 381.417769)scale(0.12 -0.12)">
       <use xlink:href="#DejaVuSans-31"/>
       <use x="63.623047" xlink:href="#DejaVuSans-35"/>
       <use x="127.246094" xlink:href="#DejaVuSans-30"/>
      </g>
     </g>
    </g>
    <g id="ytick_6">
     <g id="line2d_18">
      <g>
       <use style="stroke:#000000;stroke-width:0.8;" x="147.528" xlink:href="#m0c3edbbb55" y="343.451024"/>
      </g>
     </g>
     <g id="text_13">
      <!-- 200 -->
      <g transform="translate(117.623 348.010086)scale(0.12 -0.12)">
       <use xlink:href="#DejaVuSans-32"/>
       <use x="63.623047" xlink:href="#DejaVuSans-30"/>
       <use x="127.246094" xlink:href="#DejaVuSans-30"/>
      </g>
     </g>
    </g>
    <g id="ytick_7">
     <g id="line2d_19">
      <g>
       <use style="stroke:#000000;stroke-width:0.8;" x="147.528" xlink:href="#m0c3edbbb55" y="310.043341"/>
      </g>
     </g>
     <g id="text_14">
      <!-- 250 -->
      <g transform="translate(117.623 314.602403)scale(0.12 -0.12)">
       <use xlink:href="#DejaVuSans-32"/>
       <use x="63.623047" xlink:href="#DejaVuSans-35"/>
       <use x="127.246094" xlink:href="#DejaVuSans-30"/>
      </g>
     </g>
    </g>
    <g id="ytick_8">
     <g id="line2d_20">
      <g>
       <use style="stroke:#000000;stroke-width:0.8;" x="147.528" xlink:href="#m0c3edbbb55" y="276.635658"/>
      </g>
     </g>
     <g id="text_15">
      <!-- 300 -->
      <g transform="translate(117.623 281.19472)scale(0.12 -0.12)">
       <use xlink:href="#DejaVuSans-33"/>
       <use x="63.623047" xlink:href="#DejaVuSans-30"/>
       <use x="127.246094" xlink:href="#DejaVuSans-30"/>
      </g>
     </g>
    </g>
    <g id="ytick_9">
     <g id="line2d_21">
      <g>
       <use style="stroke:#000000;stroke-width:0.8;" x="147.528" xlink:href="#m0c3edbbb55" y="243.227975"/>
      </g>
     </g>
     <g id="text_16">
      <!-- 350 -->
      <g transform="translate(117.623 247.787038)scale(0.12 -0.12)">
       <use xlink:href="#DejaVuSans-33"/>
       <use x="63.623047" xlink:href="#DejaVuSans-35"/>
       <use x="127.246094" xlink:href="#DejaVuSans-30"/>
      </g>
     </g>
    </g>
    <g id="ytick_10">
     <g id="line2d_22">
      <g>
       <use style="stroke:#000000;stroke-width:0.8;" x="147.528" xlink:href="#m0c3edbbb55" y="209.820292"/>
      </g>
     </g>
     <g id="text_17">
      <!-- 400 -->
      <g transform="translate(117.623 214.379355)scale(0.12 -0.12)">
       <use xlink:href="#DejaVuSans-34"/>
       <use x="63.623047" xlink:href="#DejaVuSans-30"/>
       <use x="127.246094" xlink:href="#DejaVuSans-30"/>
      </g>
     </g>
    </g>
    <g id="ytick_11">
     <g id="line2d_23">
      <g>
       <use style="stroke:#000000;stroke-width:0.8;" x="147.528" xlink:href="#m0c3edbbb55" y="176.41261"/>
      </g>
     </g>
     <g id="text_18">
      <!-- 450 -->
      <g transform="translate(117.623 180.971672)scale(0.12 -0.12)">
       <use xlink:href="#DejaVuSans-34"/>
       <use x="63.623047" xlink:href="#DejaVuSans-35"/>
       <use x="127.246094" xlink:href="#DejaVuSans-30"/>
      </g>
     </g>
    </g>
    <g id="text_19">
     <!-- Counts -->
     <defs>
      <path d="M 64.40625 67.28125 
L 64.40625 56.890625 
Q 59.421875 61.53125 53.78125 63.8125 
Q 48.140625 66.109375 41.796875 66.109375 
Q 29.296875 66.109375 22.65625 58.46875 
Q 16.015625 50.828125 16.015625 36.375 
Q 16.015625 21.96875 22.65625 14.328125 
Q 29.296875 6.6875 41.796875 6.6875 
Q 48.140625 6.6875 53.78125 8.984375 
Q 59.421875 11.28125 64.40625 15.921875 
L 64.40625 5.609375 
Q 59.234375 2.09375 53.4375 0.328125 
Q 47.65625 -1.421875 41.21875 -1.421875 
Q 24.65625 -1.421875 15.125 8.703125 
Q 5.609375 18.84375 5.609375 36.375 
Q 5.609375 53.953125 15.125 64.078125 
Q 24.65625 74.21875 41.21875 74.21875 
Q 47.75 74.21875 53.53125 72.484375 
Q 59.328125 70.75 64.40625 67.28125 
z
" id="DejaVuSans-43"/>
     </defs>
     <g transform="translate(111.127375 312.11175)rotate(-90)scale(0.12 -0.12)">
      <use xlink:href="#DejaVuSans-43"/>
      <use x="69.824219" xlink:href="#DejaVuSans-6f"/>
      <use x="131.005859" xlink:href="#DejaVuSans-75"/>
      <use x="194.384766" xlink:href="#DejaVuSans-6e"/>
      <use x="257.763672" xlink:href="#DejaVuSans-74"/>
      <use x="296.972656" xlink:href="#DejaVuSans-73"/>
     </g>
    </g>
   </g>
   <g id="LineCollection_2">
    <path clip-path="url(#pb872a275ca)" d="M 174.848 431.811958 
L 174.848 420.124042 
" style="fill:none;stroke:#0000ff;stroke-width:1.5;"/>
    <path clip-path="url(#pb872a275ca)" d="M 182.883294 431.496948 
L 182.883294 419.770899 
" style="fill:none;stroke:#0000ff;stroke-width:1.5;"/>
    <path clip-path="url(#pb872a275ca)" d="M 190.918588 431.811958 
L 190.918588 420.124042 
" style="fill:none;stroke:#0000ff;stroke-width:1.5;"/>
    <path clip-path="url(#pb872a275ca)" d="M 198.953882 417.899855 
L 198.953882 404.637384 
" style="fill:none;stroke:#0000ff;stroke-width:1.5;"/>
    <path clip-path="url(#pb872a275ca)" d="M 206.989176 412.500749 
L 206.989176 398.677878 
" style="fill:none;stroke:#0000ff;stroke-width:1.5;"/>
    <path clip-path="url(#pb872a275ca)" d="M 215.024471 418.21708 
L 215.024471 404.988313 
" style="fill:none;stroke:#0000ff;stroke-width:1.5;"/>
    <path clip-path="url(#pb872a275ca)" d="M 223.059765 404.222573 
L 223.059765 389.584059 
" style="fill:none;stroke:#0000ff;stroke-width:1.5;"/>
    <path clip-path="url(#pb872a275ca)" d="M 231.095059 398.798055 
L 231.095059 383.649964 
" style="fill:none;stroke:#0000ff;stroke-width:1.5;"/>
    <path clip-path="url(#pb872a275ca)" d="M 239.130353 400.3944 
L 239.130353 385.394388 
" style="fill:none;stroke:#0000ff;stroke-width:1.5;"/>
    <path clip-path="url(#pb872a275ca)" d="M 247.165647 390.165905 
L 247.165647 374.241966 
" style="fill:none;stroke:#0000ff;stroke-width:1.5;"/>
    <path clip-path="url(#pb872a275ca)" d="M 255.200941 386.9641 
L 255.200941 370.762235 
" style="fill:none;stroke:#0000ff;stroke-width:1.5;"/>
    <path clip-path="url(#pb872a275ca)" d="M 263.236235 378.307838 
L 263.236235 361.378348 
" style="fill:none;stroke:#0000ff;stroke-width:1.5;"/>
    <path clip-path="url(#pb872a275ca)" d="M 271.271529 366.74312 
L 271.271529 348.889534 
" style="fill:none;stroke:#0000ff;stroke-width:1.5;"/>
    <path clip-path="url(#pb872a275ca)" d="M 279.306824 372.849784 
L 279.306824 355.477789 
" style="fill:none;stroke:#0000ff;stroke-width:1.5;"/>
    <path clip-path="url(#pb872a275ca)" d="M 287.342118 359.020456 
L 287.342118 340.57651 
" style="fill:none;stroke:#0000ff;stroke-width:1.5;"/>
    <path clip-path="url(#pb872a275ca)" d="M 295.377412 359.342423 
L 295.377412 340.922698 
" style="fill:none;stroke:#0000ff;stroke-width:1.5;"/>
    <path clip-path="url(#pb872a275ca)" d="M 303.412706 353.222401 
L 303.412706 334.3478 
" style="fill:none;stroke:#0000ff;stroke-width:1.5;"/>
    <path clip-path="url(#pb872a275ca)" d="M 311.448 328.368957 
L 311.448 307.753412 
" style="fill:none;stroke:#0000ff;stroke-width:1.5;"/>
    <path clip-path="url(#pb872a275ca)" d="M 319.483294 321.901742 
L 319.483294 300.857554 
" style="fill:none;stroke:#0000ff;stroke-width:1.5;"/>
    <path clip-path="url(#pb872a275ca)" d="M 327.518588 317.048509 
L 327.518588 295.688482 
" style="fill:none;stroke:#0000ff;stroke-width:1.5;"/>
    <path clip-path="url(#pb872a275ca)" d="M 335.553882 320.28426 
L 335.553882 299.134268 
" style="fill:none;stroke:#0000ff;stroke-width:1.5;"/>
    <path clip-path="url(#pb872a275ca)" d="M 343.589176 311.869193 
L 343.589176 290.17734 
" style="fill:none;stroke:#0000ff;stroke-width:1.5;"/>
    <path clip-path="url(#pb872a275ca)" d="M 351.624471 292.749682 
L 351.624471 269.875785 
" style="fill:none;stroke:#0000ff;stroke-width:1.5;"/>
    <path clip-path="url(#pb872a275ca)" d="M 359.659765 294.695441 
L 359.659765 271.938948 
" style="fill:none;stroke:#0000ff;stroke-width:1.5;"/>
    <path clip-path="url(#pb872a275ca)" d="M 367.695059 272.301936 
L 367.695059 248.229851 
" style="fill:none;stroke:#0000ff;stroke-width:1.5;"/>
    <path clip-path="url(#pb872a275ca)" d="M 375.730353 262.554671 
L 375.730353 237.932506 
" style="fill:none;stroke:#0000ff;stroke-width:1.5;"/>
    <path clip-path="url(#pb872a275ca)" d="M 383.765647 263.20468 
L 383.765647 238.618804 
" style="fill:none;stroke:#0000ff;stroke-width:1.5;"/>
    <path clip-path="url(#pb872a275ca)" d="M 391.800941 246.946702 
L 391.800941 221.4691 
" style="fill:none;stroke:#0000ff;stroke-width:1.5;"/>
    <path clip-path="url(#pb872a275ca)" d="M 399.836235 242.066297 
L 399.836235 216.3272 
" style="fill:none;stroke:#0000ff;stroke-width:1.5;"/>
    <path clip-path="url(#pb872a275ca)" d="M 407.871529 240.439201 
L 407.871529 214.613528 
" style="fill:none;stroke:#0000ff;stroke-width:1.5;"/>
    <path clip-path="url(#pb872a275ca)" d="M 415.906824 220.903164 
L 415.906824 194.060345 
" style="fill:none;stroke:#0000ff;stroke-width:1.5;"/>
    <path clip-path="url(#pb872a275ca)" d="M 423.942118 230.348033 
L 423.942118 203.991933 
" style="fill:none;stroke:#0000ff;stroke-width:1.5;"/>
    <path clip-path="url(#pb872a275ca)" d="M 431.977412 210.476218 
L 431.977412 183.106374 
" style="fill:none;stroke:#0000ff;stroke-width:1.5;"/>
    <path clip-path="url(#pb872a275ca)" d="M 440.012706 205.260861 
L 440.012706 177.631273 
" style="fill:none;stroke:#0000ff;stroke-width:1.5;"/>
    <path clip-path="url(#pb872a275ca)" d="M 448.048 210.150295 
L 448.048 182.764144 
" style="fill:none;stroke:#0000ff;stroke-width:1.5;"/>
    <path clip-path="url(#pb872a275ca)" d="M 456.083294 212.105764 
L 456.083294 184.817597 
" style="fill:none;stroke:#0000ff;stroke-width:1.5;"/>
    <path clip-path="url(#pb872a275ca)" d="M 464.118588 209.824366 
L 464.118588 182.421919 
" style="fill:none;stroke:#0000ff;stroke-width:1.5;"/>
    <path clip-path="url(#pb872a275ca)" d="M 472.153882 191.564877 
L 472.153882 163.264803 
" style="fill:none;stroke:#0000ff;stroke-width:1.5;"/>
    <path clip-path="url(#pb872a275ca)" d="M 480.189176 202.000646 
L 480.189176 174.209951 
" style="fill:none;stroke:#0000ff;stroke-width:1.5;"/>
    <path clip-path="url(#pb872a275ca)" d="M 488.224471 186.019028 
L 488.224471 157.45204 
" style="fill:none;stroke:#0000ff;stroke-width:1.5;"/>
    <path clip-path="url(#pb872a275ca)" d="M 496.259765 181.124604 
L 496.259765 152.324159 
" style="fill:none;stroke:#0000ff;stroke-width:1.5;"/>
    <path clip-path="url(#pb872a275ca)" d="M 504.295059 180.145606 
L 504.295059 151.298696 
" style="fill:none;stroke:#0000ff;stroke-width:1.5;"/>
    <path clip-path="url(#pb872a275ca)" d="M 512.330353 171.985853 
L 512.330353 142.754608 
" style="fill:none;stroke:#0000ff;stroke-width:1.5;"/>
    <path clip-path="url(#pb872a275ca)" d="M 520.365647 177.534763 
L 520.365647 148.56431 
" style="fill:none;stroke:#0000ff;stroke-width:1.5;"/>
    <path clip-path="url(#pb872a275ca)" d="M 528.400941 172.312292 
L 528.400941 143.096323 
" style="fill:none;stroke:#0000ff;stroke-width:1.5;"/>
    <path clip-path="url(#pb872a275ca)" d="M 536.436235 183.082488 
L 536.436235 154.375198 
" style="fill:none;stroke:#0000ff;stroke-width:1.5;"/>
    <path clip-path="url(#pb872a275ca)" d="M 544.471529 171.006513 
L 544.471529 141.729487 
" style="fill:none;stroke:#0000ff;stroke-width:1.5;"/>
    <path clip-path="url(#pb872a275ca)" d="M 552.506824 194.82655 
L 552.506824 166.684667 
" style="fill:none;stroke:#0000ff;stroke-width:1.5;"/>
    <path clip-path="url(#pb872a275ca)" d="M 560.542118 188.955222 
L 560.542118 160.529229 
" style="fill:none;stroke:#0000ff;stroke-width:1.5;"/>
    <path clip-path="url(#pb872a275ca)" d="M 568.577412 202.652726 
L 568.577412 174.894178 
" style="fill:none;stroke:#0000ff;stroke-width:1.5;"/>
    <path clip-path="url(#pb872a275ca)" d="M 576.612706 198.739967 
L 576.612706 170.789094 
" style="fill:none;stroke:#0000ff;stroke-width:1.5;"/>
    <path clip-path="url(#pb872a275ca)" d="M 584.648 202.978759 
L 584.648 175.236299 
" style="fill:none;stroke:#0000ff;stroke-width:1.5;"/>
    <path clip-path="url(#pb872a275ca)" d="M 592.683294 218.29691 
L 592.683294 191.32137 
" style="fill:none;stroke:#0000ff;stroke-width:1.5;"/>
    <path clip-path="url(#pb872a275ca)" d="M 600.718588 228.068646 
L 600.718588 201.594243 
" style="fill:none;stroke:#0000ff;stroke-width:1.5;"/>
    <path clip-path="url(#pb872a275ca)" d="M 608.753882 234.254929 
L 608.753882 208.10288 
" style="fill:none;stroke:#0000ff;stroke-width:1.5;"/>
    <path clip-path="url(#pb872a275ca)" d="M 616.789176 246.296059 
L 616.789176 220.783436 
" style="fill:none;stroke:#0000ff;stroke-width:1.5;"/>
    <path clip-path="url(#pb872a275ca)" d="M 624.824471 241.090057 
L 624.824471 215.298979 
" style="fill:none;stroke:#0000ff;stroke-width:1.5;"/>
    <path clip-path="url(#pb872a275ca)" d="M 632.859765 256.053131 
L 632.859765 231.070974 
" style="fill:none;stroke:#0000ff;stroke-width:1.5;"/>
    <path clip-path="url(#pb872a275ca)" d="M 640.895059 259.954369 
L 640.895059 235.187579 
" style="fill:none;stroke:#0000ff;stroke-width:1.5;"/>
    <path clip-path="url(#pb872a275ca)" d="M 648.930353 268.728662 
L 648.930353 244.453434 
" style="fill:none;stroke:#0000ff;stroke-width:1.5;"/>
    <path clip-path="url(#pb872a275ca)" d="M 656.965647 265.4795 
L 656.965647 241.02106 
" style="fill:none;stroke:#0000ff;stroke-width:1.5;"/>
    <path clip-path="url(#pb872a275ca)" d="M 665.000941 278.147235 
L 665.000941 254.411318 
" style="fill:none;stroke:#0000ff;stroke-width:1.5;"/>
    <path clip-path="url(#pb872a275ca)" d="M 673.036235 294.046888 
L 673.036235 271.251193 
" style="fill:none;stroke:#0000ff;stroke-width:1.5;"/>
    <path clip-path="url(#pb872a275ca)" d="M 681.071529 293.398302 
L 681.071529 270.563473 
" style="fill:none;stroke:#0000ff;stroke-width:1.5;"/>
    <path clip-path="url(#pb872a275ca)" d="M 689.106824 306.687377 
L 689.106824 284.668698 
" style="fill:none;stroke:#0000ff;stroke-width:1.5;"/>
    <path clip-path="url(#pb872a275ca)" d="M 697.142118 327.399158 
L 697.142118 306.71875 
" style="fill:none;stroke:#0000ff;stroke-width:1.5;"/>
    <path clip-path="url(#pb872a275ca)" d="M 705.177412 320.28426 
L 705.177412 299.134268 
" style="fill:none;stroke:#0000ff;stroke-width:1.5;"/>
    <path clip-path="url(#pb872a275ca)" d="M 713.212706 328.045702 
L 713.212706 307.408513 
" style="fill:none;stroke:#0000ff;stroke-width:1.5;"/>
    <path clip-path="url(#pb872a275ca)" d="M 721.248 339.352615 
L 721.248 319.486979 
" style="fill:none;stroke:#0000ff;stroke-width:1.5;"/>
    <path clip-path="url(#pb872a275ca)" d="M 729.283294 349.354342 
L 729.283294 330.198015 
" style="fill:none;stroke:#0000ff;stroke-width:1.5;"/>
    <path clip-path="url(#pb872a275ca)" d="M 737.318588 350.966287 
L 737.318588 331.926838 
" style="fill:none;stroke:#0000ff;stroke-width:1.5;"/>
    <path clip-path="url(#pb872a275ca)" d="M 745.353882 361.595738 
L 745.353882 343.346457 
" style="fill:none;stroke:#0000ff;stroke-width:1.5;"/>
    <path clip-path="url(#pb872a275ca)" d="M 753.389176 375.418991 
L 753.389176 358.253812 
" style="fill:none;stroke:#0000ff;stroke-width:1.5;"/>
    <path clip-path="url(#pb872a275ca)" d="M 761.424471 385.041884 
L 761.424471 368.675529 
" style="fill:none;stroke:#0000ff;stroke-width:1.5;"/>
    <path clip-path="url(#pb872a275ca)" d="M 769.459765 388.24511 
L 769.459765 372.153839 
" style="fill:none;stroke:#0000ff;stroke-width:1.5;"/>
    <path clip-path="url(#pb872a275ca)" d="M 777.495059 390.165905 
L 777.495059 374.241966 
" style="fill:none;stroke:#0000ff;stroke-width:1.5;"/>
    <path clip-path="url(#pb872a275ca)" d="M 785.530353 407.409234 
L 785.530353 393.078935 
" style="fill:none;stroke:#0000ff;stroke-width:1.5;"/>
    <path clip-path="url(#pb872a275ca)" d="M 793.565647 402.628038 
L 793.565647 387.837826 
" style="fill:none;stroke:#0000ff;stroke-width:1.5;"/>
    <path clip-path="url(#pb872a275ca)" d="M 801.600941 409.956134 
L 801.600941 395.877263 
" style="fill:none;stroke:#0000ff;stroke-width:1.5;"/>
    <path clip-path="url(#pb872a275ca)" d="M 809.636235 419.485546 
L 809.636235 406.392462 
" style="fill:none;stroke:#0000ff;stroke-width:1.5;"/>
    <path clip-path="url(#pb872a275ca)" d="M 817.671529 426.764699 
L 817.671529 414.480843 
" style="fill:none;stroke:#0000ff;stroke-width:1.5;"/>
    <path clip-path="url(#pb872a275ca)" d="M 825.706824 428.974691 
L 825.706824 416.947926 
" style="fill:none;stroke:#0000ff;stroke-width:1.5;"/>
    <path clip-path="url(#pb872a275ca)" d="M 857.848 431.181876 
L 857.848 419.417817 
" style="fill:none;stroke:#0000ff;stroke-width:1.5;"/>
   </g>
   <g id="line2d_24">
    <path clip-path="url(#pb872a275ca)" d="M 174.848 476.827559 
L 196.725878 476.496874 
L 212.450603 476.051114 
L 225.440593 475.469331 
L 236.379532 474.764734 
L 245.951103 473.933816 
L 254.838991 472.93498 
L 262.359512 471.881263 
L 269.880032 470.600102 
L 276.716869 469.205931 
L 282.870022 467.737545 
L 289.023175 466.041307 
L 294.492645 464.321236 
L 299.962114 462.381469 
L 305.431584 460.202274 
L 310.901053 457.763485 
L 315.686839 455.400572 
L 320.472625 452.809655 
L 325.25841 449.977258 
L 330.044196 446.890234 
L 334.829982 443.535947 
L 339.615768 439.90246 
L 344.401554 435.978741 
L 349.187339 431.754876 
L 353.973125 427.222293 
L 358.758911 422.373987 
L 363.544697 417.204755 
L 368.330482 411.711423 
L 373.116268 405.893067 
L 377.902054 399.751239 
L 383.371524 392.341463 
L 388.840993 384.525698 
L 394.310462 376.320035 
L 400.463616 366.649655 
L 406.616769 356.552454 
L 413.453606 344.891974 
L 420.974126 331.621785 
L 430.545698 314.255085 
L 455.841994 268.064141 
L 462.678831 256.145825 
L 468.831984 245.854576 
L 474.301453 237.142505 
L 479.087239 229.916366 
L 483.873025 223.11104 
L 487.975127 217.647904 
L 492.077229 212.555641 
L 496.179331 207.860481 
L 499.59775 204.26893 
L 503.016168 200.983362 
L 506.434587 198.015924 
L 509.853005 195.377675 
L 512.58774 193.510784 
L 515.322474 191.86544 
L 518.057209 190.445633 
L 520.791944 189.254819 
L 523.526679 188.295905 
L 526.261413 187.571237 
L 528.996148 187.082593 
L 531.730883 186.831173 
L 534.465618 186.817594 
L 537.200352 187.04189 
L 539.935087 187.50351 
L 542.669822 188.20132 
L 545.404557 189.133607 
L 548.139291 190.298092 
L 550.874026 191.691928 
L 553.608761 193.311724 
L 556.343495 195.153549 
L 559.761914 197.761231 
L 563.180332 200.699054 
L 566.598751 203.956064 
L 570.017169 207.52021 
L 573.435588 211.378417 
L 577.53769 216.376632 
L 581.639792 221.752233 
L 585.741894 227.477831 
L 590.52768 234.561679 
L 595.313465 242.035352 
L 600.782935 250.991229 
L 606.936088 261.506009 
L 614.456609 274.838728 
L 624.711864 293.543889 
L 645.222374 331.062712 
L 653.426579 345.536434 
L 660.263415 357.173462 
L 666.416569 367.24617 
L 672.569722 376.889428 
L 678.039191 385.069223 
L 683.508661 392.857856 
L 688.97813 400.239599 
L 693.763916 406.356428 
L 698.549702 412.14957 
L 703.335487 417.617676 
L 708.121273 422.76185 
L 712.907059 427.585432 
L 717.692845 432.093774 
L 722.478631 436.29401 
L 727.264416 440.194824 
L 732.050202 443.806226 
L 736.835988 447.139324 
L 741.621774 450.206118 
L 746.40756 453.019291 
L 751.193345 455.592019 
L 755.979131 457.9378 
L 761.448601 460.358309 
L 766.91807 462.520604 
L 772.38754 464.444827 
L 777.857009 466.150673 
L 784.010162 467.832427 
L 790.163315 469.287857 
L 797.000152 470.669311 
L 803.836989 471.832868 
L 811.35751 472.895313 
L 819.561714 473.833705 
L 829.133285 474.688549 
L 839.388541 475.375582 
L 851.694847 475.962148 
L 857.848 476.180426 
L 857.848 476.180426 
" style="fill:none;stroke:#404040;stroke-linecap:square;stroke-width:1.5;"/>
   </g>
   <g id="line2d_25">
    <path clip-path="url(#pb872a275ca)" d="M 174.848 428.759131 
L 182.368521 425.405784 
L 189.889041 421.801726 
L 197.409562 417.938622 
L 204.930082 413.809085 
L 212.450603 409.40683 
L 219.971123 404.72684 
L 227.491644 399.765523 
L 235.012164 394.520873 
L 242.532685 388.992623 
L 250.053205 383.182394 
L 257.573726 377.093837 
L 265.094246 370.73276 
L 273.29845 363.492154 
L 281.502655 355.950597 
L 290.390543 347.460981 
L 299.27843 338.664958 
L 308.850002 328.885912 
L 319.788941 317.378599 
L 332.778931 303.3602 
L 351.922074 282.312391 
L 373.116268 259.079602 
L 384.738891 246.662619 
L 394.310462 236.743184 
L 403.19835 227.858694 
L 410.718871 220.637618 
L 418.239391 213.730961 
L 425.076228 207.75806 
L 431.229381 202.656014 
L 437.382535 197.834011 
L 443.535688 193.311323 
L 449.005157 189.557257 
L 454.474627 186.06631 
L 459.944096 182.849875 
L 465.413566 179.918544 
L 470.199351 177.595168 
L 474.985137 175.503472 
L 479.770923 173.648832 
L 484.556709 172.036036 
L 489.342494 170.669264 
L 494.12828 169.552074 
L 498.914066 168.687379 
L 503.699852 168.07744 
L 508.485638 167.723856 
L 513.271423 167.627553 
L 518.057209 167.788783 
L 522.842995 168.207125 
L 527.628781 168.881481 
L 532.414567 169.810086 
L 537.200352 170.990512 
L 541.986138 172.419682 
L 546.771924 174.093881 
L 551.55771 176.008774 
L 556.343495 178.15942 
L 561.129281 180.540301 
L 565.915067 183.145338 
L 571.384537 186.388499 
L 576.854006 189.905118 
L 582.323475 193.683724 
L 587.792945 197.712109 
L 593.946098 202.526543 
L 600.099251 207.621534 
L 606.936088 213.587222 
L 613.772925 219.845882 
L 621.293445 227.033648 
L 629.49765 235.191471 
L 638.385538 244.342468 
L 648.640793 255.220577 
L 661.630783 269.337375 
L 706.070222 317.935889 
L 717.009161 329.427869 
L 727.264416 339.876169 
L 736.152304 348.632327 
L 745.040192 357.078181 
L 753.244396 364.576463 
L 761.448601 371.771562 
L 768.969121 378.089392 
L 776.489642 384.133619 
L 784.010162 389.898791 
L 791.530683 395.381591 
L 799.051203 400.58071 
L 806.571724 405.496704 
L 814.092244 410.131845 
L 821.612765 414.489965 
L 829.133285 418.576295 
L 836.653806 422.397305 
L 844.174326 425.960548 
L 851.694847 429.274496 
L 857.848 431.80692 
L 857.848 431.80692 
" style="fill:none;stroke:#ff0000;stroke-linecap:square;stroke-width:1.5;"/>
   </g>
   <g id="line2d_26">
    <g clip-path="url(#pb872a275ca)">
     <use style="fill:#0000ff;stroke:#0000ff;" x="174.848" xlink:href="#mcae24b7ba1" y="425.968"/>
     <use style="fill:#0000ff;stroke:#0000ff;" x="182.883294" xlink:href="#mcae24b7ba1" y="425.633923"/>
     <use style="fill:#0000ff;stroke:#0000ff;" x="190.918588" xlink:href="#mcae24b7ba1" y="425.968"/>
     <use style="fill:#0000ff;stroke:#0000ff;" x="198.953882" xlink:href="#mcae24b7ba1" y="411.26862"/>
     <use style="fill:#0000ff;stroke:#0000ff;" x="206.989176" xlink:href="#mcae24b7ba1" y="405.589314"/>
     <use style="fill:#0000ff;stroke:#0000ff;" x="215.024471" xlink:href="#mcae24b7ba1" y="411.602696"/>
     <use style="fill:#0000ff;stroke:#0000ff;" x="223.059765" xlink:href="#mcae24b7ba1" y="396.903316"/>
     <use style="fill:#0000ff;stroke:#0000ff;" x="231.095059" xlink:href="#mcae24b7ba1" y="391.22401"/>
     <use style="fill:#0000ff;stroke:#0000ff;" x="239.130353" xlink:href="#mcae24b7ba1" y="392.894394"/>
     <use style="fill:#0000ff;stroke:#0000ff;" x="247.165647" xlink:href="#mcae24b7ba1" y="382.203936"/>
     <use style="fill:#0000ff;stroke:#0000ff;" x="255.200941" xlink:href="#mcae24b7ba1" y="378.863167"/>
     <use style="fill:#0000ff;stroke:#0000ff;" x="263.236235" xlink:href="#mcae24b7ba1" y="369.843093"/>
     <use style="fill:#0000ff;stroke:#0000ff;" x="271.271529" xlink:href="#mcae24b7ba1" y="357.816327"/>
     <use style="fill:#0000ff;stroke:#0000ff;" x="279.306824" xlink:href="#mcae24b7ba1" y="364.163787"/>
     <use style="fill:#0000ff;stroke:#0000ff;" x="287.342118" xlink:href="#mcae24b7ba1" y="349.798483"/>
     <use style="fill:#0000ff;stroke:#0000ff;" x="295.377412" xlink:href="#mcae24b7ba1" y="350.13256"/>
     <use style="fill:#0000ff;stroke:#0000ff;" x="303.412706" xlink:href="#mcae24b7ba1" y="343.7851"/>
     <use style="fill:#0000ff;stroke:#0000ff;" x="311.448" xlink:href="#mcae24b7ba1" y="318.061185"/>
     <use style="fill:#0000ff;stroke:#0000ff;" x="319.483294" xlink:href="#mcae24b7ba1" y="311.379648"/>
     <use style="fill:#0000ff;stroke:#0000ff;" x="327.518588" xlink:href="#mcae24b7ba1" y="306.368496"/>
     <use style="fill:#0000ff;stroke:#0000ff;" x="335.553882" xlink:href="#mcae24b7ba1" y="309.709264"/>
     <use style="fill:#0000ff;stroke:#0000ff;" x="343.589176" xlink:href="#mcae24b7ba1" y="301.023266"/>
     <use style="fill:#0000ff;stroke:#0000ff;" x="351.624471" xlink:href="#mcae24b7ba1" y="281.312734"/>
     <use style="fill:#0000ff;stroke:#0000ff;" x="359.659765" xlink:href="#mcae24b7ba1" y="283.317195"/>
     <use style="fill:#0000ff;stroke:#0000ff;" x="367.695059" xlink:href="#mcae24b7ba1" y="260.265893"/>
     <use style="fill:#0000ff;stroke:#0000ff;" x="375.730353" xlink:href="#mcae24b7ba1" y="250.243589"/>
     <use style="fill:#0000ff;stroke:#0000ff;" x="383.765647" xlink:href="#mcae24b7ba1" y="250.911742"/>
     <use style="fill:#0000ff;stroke:#0000ff;" x="391.800941" xlink:href="#mcae24b7ba1" y="234.207901"/>
     <use style="fill:#0000ff;stroke:#0000ff;" x="399.836235" xlink:href="#mcae24b7ba1" y="229.196748"/>
     <use style="fill:#0000ff;stroke:#0000ff;" x="407.871529" xlink:href="#mcae24b7ba1" y="227.526364"/>
     <use style="fill:#0000ff;stroke:#0000ff;" x="415.906824" xlink:href="#mcae24b7ba1" y="207.481755"/>
     <use style="fill:#0000ff;stroke:#0000ff;" x="423.942118" xlink:href="#mcae24b7ba1" y="217.169983"/>
     <use style="fill:#0000ff;stroke:#0000ff;" x="431.977412" xlink:href="#mcae24b7ba1" y="196.791296"/>
     <use style="fill:#0000ff;stroke:#0000ff;" x="440.012706" xlink:href="#mcae24b7ba1" y="191.446067"/>
     <use style="fill:#0000ff;stroke:#0000ff;" x="448.048" xlink:href="#mcae24b7ba1" y="196.457219"/>
     <use style="fill:#0000ff;stroke:#0000ff;" x="456.083294" xlink:href="#mcae24b7ba1" y="198.46168"/>
     <use style="fill:#0000ff;stroke:#0000ff;" x="464.118588" xlink:href="#mcae24b7ba1" y="196.123143"/>
     <use style="fill:#0000ff;stroke:#0000ff;" x="472.153882" xlink:href="#mcae24b7ba1" y="177.41484"/>
     <use style="fill:#0000ff;stroke:#0000ff;" x="480.189176" xlink:href="#mcae24b7ba1" y="188.105299"/>
     <use style="fill:#0000ff;stroke:#0000ff;" x="488.224471" xlink:href="#mcae24b7ba1" y="171.735534"/>
     <use style="fill:#0000ff;stroke:#0000ff;" x="496.259765" xlink:href="#mcae24b7ba1" y="166.724382"/>
     <use style="fill:#0000ff;stroke:#0000ff;" x="504.295059" xlink:href="#mcae24b7ba1" y="165.722151"/>
     <use style="fill:#0000ff;stroke:#0000ff;" x="512.330353" xlink:href="#mcae24b7ba1" y="157.37023"/>
     <use style="fill:#0000ff;stroke:#0000ff;" x="520.365647" xlink:href="#mcae24b7ba1" y="163.049537"/>
     <use style="fill:#0000ff;stroke:#0000ff;" x="528.400941" xlink:href="#mcae24b7ba1" y="157.704307"/>
     <use style="fill:#0000ff;stroke:#0000ff;" x="536.436235" xlink:href="#mcae24b7ba1" y="168.728843"/>
     <use style="fill:#0000ff;stroke:#0000ff;" x="544.471529" xlink:href="#mcae24b7ba1" y="156.368"/>
     <use style="fill:#0000ff;stroke:#0000ff;" x="552.506824" xlink:href="#mcae24b7ba1" y="180.755608"/>
     <use style="fill:#0000ff;stroke:#0000ff;" x="560.542118" xlink:href="#mcae24b7ba1" y="174.742226"/>
     <use style="fill:#0000ff;stroke:#0000ff;" x="568.577412" xlink:href="#mcae24b7ba1" y="188.773452"/>
     <use style="fill:#0000ff;stroke:#0000ff;" x="576.612706" xlink:href="#mcae24b7ba1" y="184.76453"/>
     <use style="fill:#0000ff;stroke:#0000ff;" x="584.648" xlink:href="#mcae24b7ba1" y="189.107529"/>
     <use style="fill:#0000ff;stroke:#0000ff;" x="592.683294" xlink:href="#mcae24b7ba1" y="204.80914"/>
     <use style="fill:#0000ff;stroke:#0000ff;" x="600.718588" xlink:href="#mcae24b7ba1" y="214.831445"/>
     <use style="fill:#0000ff;stroke:#0000ff;" x="608.753882" xlink:href="#mcae24b7ba1" y="221.178905"/>
     <use style="fill:#0000ff;stroke:#0000ff;" x="616.789176" xlink:href="#mcae24b7ba1" y="233.539747"/>
     <use style="fill:#0000ff;stroke:#0000ff;" x="624.824471" xlink:href="#mcae24b7ba1" y="228.194518"/>
     <use style="fill:#0000ff;stroke:#0000ff;" x="632.859765" xlink:href="#mcae24b7ba1" y="243.562052"/>
     <use style="fill:#0000ff;stroke:#0000ff;" x="640.895059" xlink:href="#mcae24b7ba1" y="247.570974"/>
     <use style="fill:#0000ff;stroke:#0000ff;" x="648.930353" xlink:href="#mcae24b7ba1" y="256.591048"/>
     <use style="fill:#0000ff;stroke:#0000ff;" x="656.965647" xlink:href="#mcae24b7ba1" y="253.25028"/>
     <use style="fill:#0000ff;stroke:#0000ff;" x="665.000941" xlink:href="#mcae24b7ba1" y="266.279276"/>
     <use style="fill:#0000ff;stroke:#0000ff;" x="673.036235" xlink:href="#mcae24b7ba1" y="282.649041"/>
     <use style="fill:#0000ff;stroke:#0000ff;" x="681.071529" xlink:href="#mcae24b7ba1" y="281.980887"/>
     <use style="fill:#0000ff;stroke:#0000ff;" x="689.106824" xlink:href="#mcae24b7ba1" y="295.678037"/>
     <use style="fill:#0000ff;stroke:#0000ff;" x="697.142118" xlink:href="#mcae24b7ba1" y="317.058954"/>
     <use style="fill:#0000ff;stroke:#0000ff;" x="705.177412" xlink:href="#mcae24b7ba1" y="309.709264"/>
     <use style="fill:#0000ff;stroke:#0000ff;" x="713.212706" xlink:href="#mcae24b7ba1" y="317.727108"/>
     <use style="fill:#0000ff;stroke:#0000ff;" x="721.248" xlink:href="#mcae24b7ba1" y="329.419797"/>
     <use style="fill:#0000ff;stroke:#0000ff;" x="729.283294" xlink:href="#mcae24b7ba1" y="339.776178"/>
     <use style="fill:#0000ff;stroke:#0000ff;" x="737.318588" xlink:href="#mcae24b7ba1" y="341.446563"/>
     <use style="fill:#0000ff;stroke:#0000ff;" x="745.353882" xlink:href="#mcae24b7ba1" y="352.471098"/>
     <use style="fill:#0000ff;stroke:#0000ff;" x="753.389176" xlink:href="#mcae24b7ba1" y="366.836401"/>
     <use style="fill:#0000ff;stroke:#0000ff;" x="761.424471" xlink:href="#mcae24b7ba1" y="376.858706"/>
     <use style="fill:#0000ff;stroke:#0000ff;" x="769.459765" xlink:href="#mcae24b7ba1" y="380.199475"/>
     <use style="fill:#0000ff;stroke:#0000ff;" x="777.495059" xlink:href="#mcae24b7ba1" y="382.203936"/>
     <use style="fill:#0000ff;stroke:#0000ff;" x="785.530353" xlink:href="#mcae24b7ba1" y="400.244084"/>
     <use style="fill:#0000ff;stroke:#0000ff;" x="793.565647" xlink:href="#mcae24b7ba1" y="395.232932"/>
     <use style="fill:#0000ff;stroke:#0000ff;" x="801.600941" xlink:href="#mcae24b7ba1" y="402.916699"/>
     <use style="fill:#0000ff;stroke:#0000ff;" x="809.636235" xlink:href="#mcae24b7ba1" y="412.939004"/>
     <use style="fill:#0000ff;stroke:#0000ff;" x="817.671529" xlink:href="#mcae24b7ba1" y="420.622771"/>
     <use style="fill:#0000ff;stroke:#0000ff;" x="825.706824" xlink:href="#mcae24b7ba1" y="422.961309"/>
     <use style="fill:#0000ff;stroke:#0000ff;" x="857.848" xlink:href="#mcae24b7ba1" y="425.299846"/>
    </g>
   </g>
   <g id="patch_8">
    <path d="M 147.528 436.752 
L 147.528 145.584 
" style="fill:none;stroke:#000000;stroke-linecap:square;stroke-linejoin:miter;stroke-width:0.8;"/>
   </g>
   <g id="patch_9">
    <path d="M 885.168 436.752 
L 885.168 145.584 
" style="fill:none;stroke:#000000;stroke-linecap:square;stroke-linejoin:miter;stroke-width:0.8;"/>
   </g>
   <g id="patch_10">
    <path d="M 147.528 436.752 
L 885.168 436.752 
" style="fill:none;stroke:#000000;stroke-linecap:square;stroke-linejoin:miter;stroke-width:0.8;"/>
   </g>
   <g id="patch_11">
    <path d="M 147.528 145.584 
L 885.168 145.584 
" style="fill:none;stroke:#000000;stroke-linecap:square;stroke-linejoin:miter;stroke-width:0.8;"/>
   </g>
  </g>
 </g>
 <defs>
  <clipPath id="p6a3d58b7f1">
   <rect height="72.792" width="737.64" x="147.528" y="63.0864"/>
  </clipPath>
  <clipPath id="pb872a275ca">
   <rect height="291.168" width="737.64" x="147.528" y="145.584"/>
  </clipPath>
 </defs>
</svg>
