<?xml version="1.0" encoding="utf-8" standalone="no"?>
<!DOCTYPE svg PUBLIC "-//W3C//DTD SVG 1.1//EN"
  "http://www.w3.org/Graphics/SVG/1.1/DTD/svg11.dtd">
<!-- Created with matplotlib (http://matplotlib.org/) -->
<svg height="485pt" version="1.1" viewBox="0 0 983 485" width="983pt" xmlns="http://www.w3.org/2000/svg" xmlns:xlink="http://www.w3.org/1999/xlink">
 <defs>
  <style type="text/css">
*{stroke-linecap:butt;stroke-linejoin:round;}
  </style>
 </defs>
 <g id="figure_1">
  <g id="patch_1">
   <path d="M 0 485.28 
L 983.52 485.28 
L 983.52 0 
L 0 0 
z
" style="fill:#ffffff;"/>
  </g>
  <g id="axes_1">
   <g id="patch_2">
    <path d="M 147.528 135.8784 
L 885.168 135.8784 
L 885.168 63.0864 
L 147.528 63.0864 
z
" style="fill:#ffffff;"/>
   </g>
   <g id="matplotlib.axis_1">
    <g id="xtick_1">
     <g id="line2d_1">
      <defs>
       <path d="M 0 0 
L 0 3.5 
" id="m6eb6388049" style="stroke:#000000;stroke-width:0.8;"/>
      </defs>
      <g>
       <use style="stroke:#000000;stroke-width:0.8;" x="262.620684" xlink:href="#m6eb6388049" y="135.8784"/>
      </g>
     </g>
    </g>
    <g id="xtick_2">
     <g id="line2d_2">
      <g>
       <use style="stroke:#000000;stroke-width:0.8;" x="404.365481" xlink:href="#m6eb6388049" y="135.8784"/>
      </g>
     </g>
    </g>
    <g id="xtick_3">
     <g id="line2d_3">
      <g>
       <use style="stroke:#000000;stroke-width:0.8;" x="546.110279" xlink:href="#m6eb6388049" y="135.8784"/>
      </g>
     </g>
    </g>
    <g id="xtick_4">
     <g id="line2d_4">
      <g>
       <use style="stroke:#000000;stroke-width:0.8;" x="687.855076" xlink:href="#m6eb6388049" y="135.8784"/>
      </g>
     </g>
    </g>
    <g id="xtick_5">
     <g id="line2d_5">
      <g>
       <use style="stroke:#000000;stroke-width:0.8;" x="829.599873" xlink:href="#m6eb6388049" y="135.8784"/>
      </g>
     </g>
    </g>
   </g>
   <g id="matplotlib.axis_2">
    <g id="ytick_1">
     <g id="line2d_6">
      <defs>
       <path d="M 0 0 
L -3.5 0 
" id="m0cd40a1f90" style="stroke:#000000;stroke-width:0.8;"/>
      </defs>
      <g>
       <use style="stroke:#000000;stroke-width:0.8;" x="147.528" xlink:href="#m0cd40a1f90" y="120.757285"/>
      </g>
     </g>
     <g id="text_1">
      <!-- −1 -->
      <defs>
       <path d="M 10.59375 35.5 
L 73.1875 35.5 
L 73.1875 27.203125 
L 10.59375 27.203125 
z
" id="DejaVuSans-2212"/>
       <path d="M 12.40625 8.296875 
L 28.515625 8.296875 
L 28.515625 63.921875 
L 10.984375 60.40625 
L 10.984375 69.390625 
L 28.421875 72.90625 
L 38.28125 72.90625 
L 38.28125 8.296875 
L 54.390625 8.296875 
L 54.390625 0 
L 12.40625 0 
z
" id="DejaVuSans-31"/>
      </defs>
      <g transform="translate(122.837375 125.316348)scale(0.12 -0.12)">
       <use xlink:href="#DejaVuSans-2212"/>
       <use x="83.789062" xlink:href="#DejaVuSans-31"/>
      </g>
     </g>
    </g>
    <g id="ytick_2">
     <g id="line2d_7">
      <g>
       <use style="stroke:#000000;stroke-width:0.8;" x="147.528" xlink:href="#m0cd40a1f90" y="99.831803"/>
      </g>
     </g>
    </g>
    <g id="ytick_3">
     <g id="line2d_8">
      <g>
       <use style="stroke:#000000;stroke-width:0.8;" x="147.528" xlink:href="#m0cd40a1f90" y="78.906321"/>
      </g>
     </g>
     <g id="text_2">
      <!-- 1 -->
      <g transform="translate(132.893 83.465384)scale(0.12 -0.12)">
       <use xlink:href="#DejaVuSans-31"/>
      </g>
     </g>
    </g>
    <g id="text_3">
     <!-- Studentized -->
     <defs>
      <path d="M 53.515625 70.515625 
L 53.515625 60.890625 
Q 47.90625 63.578125 42.921875 64.890625 
Q 37.9375 66.21875 33.296875 66.21875 
Q 25.25 66.21875 20.875 63.09375 
Q 16.5 59.96875 16.5 54.203125 
Q 16.5 49.359375 19.40625 46.890625 
Q 22.3125 44.4375 30.421875 42.921875 
L 36.375 41.703125 
Q 47.40625 39.59375 52.65625 34.296875 
Q 57.90625 29 57.90625 20.125 
Q 57.90625 9.515625 50.796875 4.046875 
Q 43.703125 -1.421875 29.984375 -1.421875 
Q 24.8125 -1.421875 18.96875 -0.25 
Q 13.140625 0.921875 6.890625 3.21875 
L 6.890625 13.375 
Q 12.890625 10.015625 18.65625 8.296875 
Q 24.421875 6.59375 29.984375 6.59375 
Q 38.421875 6.59375 43.015625 9.90625 
Q 47.609375 13.234375 47.609375 19.390625 
Q 47.609375 24.75 44.3125 27.78125 
Q 41.015625 30.8125 33.5 32.328125 
L 27.484375 33.5 
Q 16.453125 35.6875 11.515625 40.375 
Q 6.59375 45.0625 6.59375 53.421875 
Q 6.59375 63.09375 13.40625 68.65625 
Q 20.21875 74.21875 32.171875 74.21875 
Q 37.3125 74.21875 42.625 73.28125 
Q 47.953125 72.359375 53.515625 70.515625 
z
" id="DejaVuSans-53"/>
      <path d="M 18.3125 70.21875 
L 18.3125 54.6875 
L 36.8125 54.6875 
L 36.8125 47.703125 
L 18.3125 47.703125 
L 18.3125 18.015625 
Q 18.3125 11.328125 20.140625 9.421875 
Q 21.96875 7.515625 27.59375 7.515625 
L 36.8125 7.515625 
L 36.8125 0 
L 27.59375 0 
Q 17.1875 0 13.234375 3.875 
Q 9.28125 7.765625 9.28125 18.015625 
L 9.28125 47.703125 
L 2.6875 47.703125 
L 2.6875 54.6875 
L 9.28125 54.6875 
L 9.28125 70.21875 
z
" id="DejaVuSans-74"/>
      <path d="M 8.5 21.578125 
L 8.5 54.6875 
L 17.484375 54.6875 
L 17.484375 21.921875 
Q 17.484375 14.15625 20.5 10.265625 
Q 23.53125 6.390625 29.59375 6.390625 
Q 36.859375 6.390625 41.078125 11.03125 
Q 45.3125 15.671875 45.3125 23.6875 
L 45.3125 54.6875 
L 54.296875 54.6875 
L 54.296875 0 
L 45.3125 0 
L 45.3125 8.40625 
Q 42.046875 3.421875 37.71875 1 
Q 33.40625 -1.421875 27.6875 -1.421875 
Q 18.265625 -1.421875 13.375 4.4375 
Q 8.5 10.296875 8.5 21.578125 
z
M 31.109375 56 
z
" id="DejaVuSans-75"/>
      <path d="M 45.40625 46.390625 
L 45.40625 75.984375 
L 54.390625 75.984375 
L 54.390625 0 
L 45.40625 0 
L 45.40625 8.203125 
Q 42.578125 3.328125 38.25 0.953125 
Q 33.9375 -1.421875 27.875 -1.421875 
Q 17.96875 -1.421875 11.734375 6.484375 
Q 5.515625 14.40625 5.515625 27.296875 
Q 5.515625 40.1875 11.734375 48.09375 
Q 17.96875 56 27.875 56 
Q 33.9375 56 38.25 53.625 
Q 42.578125 51.265625 45.40625 46.390625 
z
M 14.796875 27.296875 
Q 14.796875 17.390625 18.875 11.75 
Q 22.953125 6.109375 30.078125 6.109375 
Q 37.203125 6.109375 41.296875 11.75 
Q 45.40625 17.390625 45.40625 27.296875 
Q 45.40625 37.203125 41.296875 42.84375 
Q 37.203125 48.484375 30.078125 48.484375 
Q 22.953125 48.484375 18.875 42.84375 
Q 14.796875 37.203125 14.796875 27.296875 
z
" id="DejaVuSans-64"/>
      <path d="M 56.203125 29.59375 
L 56.203125 25.203125 
L 14.890625 25.203125 
Q 15.484375 15.921875 20.484375 11.0625 
Q 25.484375 6.203125 34.421875 6.203125 
Q 39.59375 6.203125 44.453125 7.46875 
Q 49.3125 8.734375 54.109375 11.28125 
L 54.109375 2.78125 
Q 49.265625 0.734375 44.1875 -0.34375 
Q 39.109375 -1.421875 33.890625 -1.421875 
Q 20.796875 -1.421875 13.15625 6.1875 
Q 5.515625 13.8125 5.515625 26.8125 
Q 5.515625 40.234375 12.765625 48.109375 
Q 20.015625 56 32.328125 56 
Q 43.359375 56 49.78125 48.890625 
Q 56.203125 41.796875 56.203125 29.59375 
z
M 47.21875 32.234375 
Q 47.125 39.59375 43.09375 43.984375 
Q 39.0625 48.390625 32.421875 48.390625 
Q 24.90625 48.390625 20.390625 44.140625 
Q 15.875 39.890625 15.1875 32.171875 
z
" id="DejaVuSans-65"/>
      <path d="M 54.890625 33.015625 
L 54.890625 0 
L 45.90625 0 
L 45.90625 32.71875 
Q 45.90625 40.484375 42.875 44.328125 
Q 39.84375 48.1875 33.796875 48.1875 
Q 26.515625 48.1875 22.3125 43.546875 
Q 18.109375 38.921875 18.109375 30.90625 
L 18.109375 0 
L 9.078125 0 
L 9.078125 54.6875 
L 18.109375 54.6875 
L 18.109375 46.1875 
Q 21.34375 51.125 25.703125 53.5625 
Q 30.078125 56 35.796875 56 
Q 45.21875 56 50.046875 50.171875 
Q 54.890625 44.34375 54.890625 33.015625 
z
" id="DejaVuSans-6e"/>
      <path d="M 9.421875 54.6875 
L 18.40625 54.6875 
L 18.40625 0 
L 9.421875 0 
z
M 9.421875 75.984375 
L 18.40625 75.984375 
L 18.40625 64.59375 
L 9.421875 64.59375 
z
" id="DejaVuSans-69"/>
      <path d="M 5.515625 54.6875 
L 48.1875 54.6875 
L 48.1875 46.484375 
L 14.40625 7.171875 
L 48.1875 7.171875 
L 48.1875 0 
L 4.296875 0 
L 4.296875 8.203125 
L 38.09375 47.515625 
L 5.515625 47.515625 
z
" id="DejaVuSans-7a"/>
     </defs>
     <g transform="translate(102.904375 135.41865)rotate(-90)scale(0.12 -0.12)">
      <use xlink:href="#DejaVuSans-53"/>
      <use x="63.476562" xlink:href="#DejaVuSans-74"/>
      <use x="102.685547" xlink:href="#DejaVuSans-75"/>
      <use x="166.064453" xlink:href="#DejaVuSans-64"/>
      <use x="229.541016" xlink:href="#DejaVuSans-65"/>
      <use x="291.064453" xlink:href="#DejaVuSans-6e"/>
      <use x="354.443359" xlink:href="#DejaVuSans-74"/>
      <use x="393.652344" xlink:href="#DejaVuSans-69"/>
      <use x="421.435547" xlink:href="#DejaVuSans-7a"/>
      <use x="473.925781" xlink:href="#DejaVuSans-65"/>
      <use x="535.449219" xlink:href="#DejaVuSans-64"/>
     </g>
     <!-- Residuals -->
     <defs>
      <path d="M 44.390625 34.1875 
Q 47.5625 33.109375 50.5625 29.59375 
Q 53.5625 26.078125 56.59375 19.921875 
L 66.609375 0 
L 56 0 
L 46.6875 18.703125 
Q 43.0625 26.03125 39.671875 28.421875 
Q 36.28125 30.8125 30.421875 30.8125 
L 19.671875 30.8125 
L 19.671875 0 
L 9.8125 0 
L 9.8125 72.90625 
L 32.078125 72.90625 
Q 44.578125 72.90625 50.734375 67.671875 
Q 56.890625 62.453125 56.890625 51.90625 
Q 56.890625 45.015625 53.6875 40.46875 
Q 50.484375 35.9375 44.390625 34.1875 
z
M 19.671875 64.796875 
L 19.671875 38.921875 
L 32.078125 38.921875 
Q 39.203125 38.921875 42.84375 42.21875 
Q 46.484375 45.515625 46.484375 51.90625 
Q 46.484375 58.296875 42.84375 61.546875 
Q 39.203125 64.796875 32.078125 64.796875 
z
" id="DejaVuSans-52"/>
      <path d="M 44.28125 53.078125 
L 44.28125 44.578125 
Q 40.484375 46.53125 36.375 47.5 
Q 32.28125 48.484375 27.875 48.484375 
Q 21.1875 48.484375 17.84375 46.4375 
Q 14.5 44.390625 14.5 40.28125 
Q 14.5 37.15625 16.890625 35.375 
Q 19.28125 33.59375 26.515625 31.984375 
L 29.59375 31.296875 
Q 39.15625 29.25 43.1875 25.515625 
Q 47.21875 21.78125 47.21875 15.09375 
Q 47.21875 7.46875 41.1875 3.015625 
Q 35.15625 -1.421875 24.609375 -1.421875 
Q 20.21875 -1.421875 15.453125 -0.5625 
Q 10.6875 0.296875 5.421875 2 
L 5.421875 11.28125 
Q 10.40625 8.6875 15.234375 7.390625 
Q 20.0625 6.109375 24.8125 6.109375 
Q 31.15625 6.109375 34.5625 8.28125 
Q 37.984375 10.453125 37.984375 14.40625 
Q 37.984375 18.0625 35.515625 20.015625 
Q 33.0625 21.96875 24.703125 23.78125 
L 21.578125 24.515625 
Q 13.234375 26.265625 9.515625 29.90625 
Q 5.8125 33.546875 5.8125 39.890625 
Q 5.8125 47.609375 11.28125 51.796875 
Q 16.75 56 26.8125 56 
Q 31.78125 56 36.171875 55.265625 
Q 40.578125 54.546875 44.28125 53.078125 
z
" id="DejaVuSans-73"/>
      <path d="M 34.28125 27.484375 
Q 23.390625 27.484375 19.1875 25 
Q 14.984375 22.515625 14.984375 16.5 
Q 14.984375 11.71875 18.140625 8.90625 
Q 21.296875 6.109375 26.703125 6.109375 
Q 34.1875 6.109375 38.703125 11.40625 
Q 43.21875 16.703125 43.21875 25.484375 
L 43.21875 27.484375 
z
M 52.203125 31.203125 
L 52.203125 0 
L 43.21875 0 
L 43.21875 8.296875 
Q 40.140625 3.328125 35.546875 0.953125 
Q 30.953125 -1.421875 24.3125 -1.421875 
Q 15.921875 -1.421875 10.953125 3.296875 
Q 6 8.015625 6 15.921875 
Q 6 25.140625 12.171875 29.828125 
Q 18.359375 34.515625 30.609375 34.515625 
L 43.21875 34.515625 
L 43.21875 35.40625 
Q 43.21875 41.609375 39.140625 45 
Q 35.0625 48.390625 27.6875 48.390625 
Q 23 48.390625 18.546875 47.265625 
Q 14.109375 46.140625 10.015625 43.890625 
L 10.015625 52.203125 
Q 14.9375 54.109375 19.578125 55.046875 
Q 24.21875 56 28.609375 56 
Q 40.484375 56 46.34375 49.84375 
Q 52.203125 43.703125 52.203125 31.203125 
z
" id="DejaVuSans-61"/>
      <path d="M 9.421875 75.984375 
L 18.40625 75.984375 
L 18.40625 0 
L 9.421875 0 
z
" id="DejaVuSans-6c"/>
     </defs>
     <g transform="translate(116.34175 128.213025)rotate(-90)scale(0.12 -0.12)">
      <use xlink:href="#DejaVuSans-52"/>
      <use x="69.419922" xlink:href="#DejaVuSans-65"/>
      <use x="130.943359" xlink:href="#DejaVuSans-73"/>
      <use x="183.042969" xlink:href="#DejaVuSans-69"/>
      <use x="210.826172" xlink:href="#DejaVuSans-64"/>
      <use x="274.302734" xlink:href="#DejaVuSans-75"/>
      <use x="337.681641" xlink:href="#DejaVuSans-61"/>
      <use x="398.960938" xlink:href="#DejaVuSans-6c"/>
      <use x="426.744141" xlink:href="#DejaVuSans-73"/>
     </g>
    </g>
   </g>
   <g id="LineCollection_1">
    <path clip-path="url(#p7240226a97)" d="M 174.848 99.622332 
L 174.848 57.771368 
" style="fill:none;stroke:#0000ff;stroke-width:1.5;"/>
    <path clip-path="url(#p7240226a97)" d="M 183.280099 102.392862 
L 183.280099 60.541898 
" style="fill:none;stroke:#0000ff;stroke-width:1.5;"/>
    <path clip-path="url(#p7240226a97)" d="M 191.712198 132.748341 
L 191.712198 90.897377 
" style="fill:none;stroke:#0000ff;stroke-width:1.5;"/>
    <path clip-path="url(#p7240226a97)" d="M 200.144296 117.720259 
L 200.144296 75.869295 
" style="fill:none;stroke:#0000ff;stroke-width:1.5;"/>
    <path clip-path="url(#p7240226a97)" d="M 208.576395 120.71977 
L 208.576395 78.868806 
" style="fill:none;stroke:#0000ff;stroke-width:1.5;"/>
    <path clip-path="url(#p7240226a97)" d="M 217.008494 123.528207 
L 217.008494 81.677243 
" style="fill:none;stroke:#0000ff;stroke-width:1.5;"/>
    <path clip-path="url(#p7240226a97)" d="M 225.440593 126.165643 
L 225.440593 84.314679 
" style="fill:none;stroke:#0000ff;stroke-width:1.5;"/>
    <path clip-path="url(#p7240226a97)" d="M 233.872691 101.128833 
L 233.872691 59.277869 
" style="fill:none;stroke:#0000ff;stroke-width:1.5;"/>
    <path clip-path="url(#p7240226a97)" d="M 242.30479 110.969561 
L 242.30479 69.118597 
" style="fill:none;stroke:#0000ff;stroke-width:1.5;"/>
    <path clip-path="url(#p7240226a97)" d="M 250.736889 107.734688 
L 250.736889 65.883724 
" style="fill:none;stroke:#0000ff;stroke-width:1.5;"/>
    <path clip-path="url(#p7240226a97)" d="M 259.168988 143.424985 
L 259.168988 101.574021 
" style="fill:none;stroke:#0000ff;stroke-width:1.5;"/>
    <path clip-path="url(#p7240226a97)" d="M 267.601086 131.038168 
L 267.601086 89.187204 
" style="fill:none;stroke:#0000ff;stroke-width:1.5;"/>
    <path clip-path="url(#p7240226a97)" d="M 276.033185 92.73758 
L 276.033185 50.886616 
" style="fill:none;stroke:#0000ff;stroke-width:1.5;"/>
    <path clip-path="url(#p7240226a97)" d="M 284.465284 119.606131 
L 284.465284 77.755167 
" style="fill:none;stroke:#0000ff;stroke-width:1.5;"/>
    <path clip-path="url(#p7240226a97)" d="M 292.897383 104.69387 
L 292.897383 62.842906 
" style="fill:none;stroke:#0000ff;stroke-width:1.5;"/>
    <path clip-path="url(#p7240226a97)" d="M 301.329481 125.952032 
L 301.329481 84.101068 
" style="fill:none;stroke:#0000ff;stroke-width:1.5;"/>
    <path clip-path="url(#p7240226a97)" d="M 309.76158 135.178638 
L 309.76158 93.327674 
" style="fill:none;stroke:#0000ff;stroke-width:1.5;"/>
    <path clip-path="url(#p7240226a97)" d="M 318.193679 110.324831 
L 318.193679 68.473867 
" style="fill:none;stroke:#0000ff;stroke-width:1.5;"/>
    <path clip-path="url(#p7240226a97)" d="M 326.625778 119.807987 
L 326.625778 77.957023 
" style="fill:none;stroke:#0000ff;stroke-width:1.5;"/>
    <path clip-path="url(#p7240226a97)" d="M 335.057877 132.019289 
L 335.057877 90.168325 
" style="fill:none;stroke:#0000ff;stroke-width:1.5;"/>
    <path clip-path="url(#p7240226a97)" d="M 343.489975 124.478398 
L 343.489975 82.627434 
" style="fill:none;stroke:#0000ff;stroke-width:1.5;"/>
    <path clip-path="url(#p7240226a97)" d="M 351.922074 139.694148 
L 351.922074 97.843184 
" style="fill:none;stroke:#0000ff;stroke-width:1.5;"/>
    <path clip-path="url(#p7240226a97)" d="M 360.354173 111.722495 
L 360.354173 69.871531 
" style="fill:none;stroke:#0000ff;stroke-width:1.5;"/>
    <path clip-path="url(#p7240226a97)" d="M 368.786272 120.054171 
L 368.786272 78.203207 
" style="fill:none;stroke:#0000ff;stroke-width:1.5;"/>
    <path clip-path="url(#p7240226a97)" d="M 377.21837 100.763741 
L 377.21837 58.912777 
" style="fill:none;stroke:#0000ff;stroke-width:1.5;"/>
    <path clip-path="url(#p7240226a97)" d="M 385.650469 153.235499 
L 385.650469 111.384535 
" style="fill:none;stroke:#0000ff;stroke-width:1.5;"/>
    <path clip-path="url(#p7240226a97)" d="M 394.082568 117.254349 
L 394.082568 75.403385 
" style="fill:none;stroke:#0000ff;stroke-width:1.5;"/>
    <path clip-path="url(#p7240226a97)" d="M 402.514667 109.31823 
L 402.514667 67.467266 
" style="fill:none;stroke:#0000ff;stroke-width:1.5;"/>
    <path clip-path="url(#p7240226a97)" d="M 410.946765 108.591993 
L 410.946765 66.741029 
" style="fill:none;stroke:#0000ff;stroke-width:1.5;"/>
    <path clip-path="url(#p7240226a97)" d="M 419.378864 123.593265 
L 419.378864 81.742301 
" style="fill:none;stroke:#0000ff;stroke-width:1.5;"/>
    <path clip-path="url(#p7240226a97)" d="M 427.810963 123.606553 
L 427.810963 81.755589 
" style="fill:none;stroke:#0000ff;stroke-width:1.5;"/>
    <path clip-path="url(#p7240226a97)" d="M 436.243062 127.638322 
L 436.243062 85.787358 
" style="fill:none;stroke:#0000ff;stroke-width:1.5;"/>
    <path clip-path="url(#p7240226a97)" d="M 444.67516 130.332317 
L 444.67516 88.481353 
" style="fill:none;stroke:#0000ff;stroke-width:1.5;"/>
    <path clip-path="url(#p7240226a97)" d="M 453.107259 120.906148 
L 453.107259 79.055184 
" style="fill:none;stroke:#0000ff;stroke-width:1.5;"/>
    <path clip-path="url(#p7240226a97)" d="M 461.539358 126.456994 
L 461.539358 84.60603 
" style="fill:none;stroke:#0000ff;stroke-width:1.5;"/>
    <path clip-path="url(#p7240226a97)" d="M 469.971457 131.561531 
L 469.971457 89.710567 
" style="fill:none;stroke:#0000ff;stroke-width:1.5;"/>
    <path clip-path="url(#p7240226a97)" d="M 478.403556 142.348268 
L 478.403556 100.497304 
" style="fill:none;stroke:#0000ff;stroke-width:1.5;"/>
    <path clip-path="url(#p7240226a97)" d="M 486.835654 121.223247 
L 486.835654 79.372283 
" style="fill:none;stroke:#0000ff;stroke-width:1.5;"/>
    <path clip-path="url(#p7240226a97)" d="M 495.267753 122.736842 
L 495.267753 80.885878 
" style="fill:none;stroke:#0000ff;stroke-width:1.5;"/>
    <path clip-path="url(#p7240226a97)" d="M 503.699852 130.083168 
L 503.699852 88.232204 
" style="fill:none;stroke:#0000ff;stroke-width:1.5;"/>
    <path clip-path="url(#p7240226a97)" d="M 512.131951 149.156946 
L 512.131951 107.305982 
" style="fill:none;stroke:#0000ff;stroke-width:1.5;"/>
    <path clip-path="url(#p7240226a97)" d="M 520.564049 99.961575 
L 520.564049 58.110611 
" style="fill:none;stroke:#0000ff;stroke-width:1.5;"/>
    <path clip-path="url(#p7240226a97)" d="M 528.996148 123.356646 
L 528.996148 81.505682 
" style="fill:none;stroke:#0000ff;stroke-width:1.5;"/>
    <path clip-path="url(#p7240226a97)" d="M 537.428247 134.72646 
L 537.428247 92.875496 
" style="fill:none;stroke:#0000ff;stroke-width:1.5;"/>
    <path clip-path="url(#p7240226a97)" d="M 545.860346 121.251934 
L 545.860346 79.40097 
" style="fill:none;stroke:#0000ff;stroke-width:1.5;"/>
    <path clip-path="url(#p7240226a97)" d="M 554.292444 108.944571 
L 554.292444 67.093607 
" style="fill:none;stroke:#0000ff;stroke-width:1.5;"/>
    <path clip-path="url(#p7240226a97)" d="M 562.724543 114.382658 
L 562.724543 72.531694 
" style="fill:none;stroke:#0000ff;stroke-width:1.5;"/>
    <path clip-path="url(#p7240226a97)" d="M 571.156642 114.999635 
L 571.156642 73.148671 
" style="fill:none;stroke:#0000ff;stroke-width:1.5;"/>
    <path clip-path="url(#p7240226a97)" d="M 579.588741 119.101335 
L 579.588741 77.250371 
" style="fill:none;stroke:#0000ff;stroke-width:1.5;"/>
    <path clip-path="url(#p7240226a97)" d="M 588.02084 96.838633 
L 588.02084 54.987669 
" style="fill:none;stroke:#0000ff;stroke-width:1.5;"/>
    <path clip-path="url(#p7240226a97)" d="M 596.452938 102.787958 
L 596.452938 60.936994 
" style="fill:none;stroke:#0000ff;stroke-width:1.5;"/>
    <path clip-path="url(#p7240226a97)" d="M 604.885037 115.161883 
L 604.885037 73.310919 
" style="fill:none;stroke:#0000ff;stroke-width:1.5;"/>
    <path clip-path="url(#p7240226a97)" d="M 613.317136 110.808655 
L 613.317136 68.957691 
" style="fill:none;stroke:#0000ff;stroke-width:1.5;"/>
    <path clip-path="url(#p7240226a97)" d="M 621.749235 126.043215 
L 621.749235 84.192251 
" style="fill:none;stroke:#0000ff;stroke-width:1.5;"/>
    <path clip-path="url(#p7240226a97)" d="M 630.181333 131.626005 
L 630.181333 89.775041 
" style="fill:none;stroke:#0000ff;stroke-width:1.5;"/>
    <path clip-path="url(#p7240226a97)" d="M 638.613432 94.412768 
L 638.613432 52.561805 
" style="fill:none;stroke:#0000ff;stroke-width:1.5;"/>
    <path clip-path="url(#p7240226a97)" d="M 647.045531 103.483972 
L 647.045531 61.633008 
" style="fill:none;stroke:#0000ff;stroke-width:1.5;"/>
    <path clip-path="url(#p7240226a97)" d="M 655.47763 122.179045 
L 655.47763 80.328081 
" style="fill:none;stroke:#0000ff;stroke-width:1.5;"/>
    <path clip-path="url(#p7240226a97)" d="M 663.909728 147.771406 
L 663.909728 105.920442 
" style="fill:none;stroke:#0000ff;stroke-width:1.5;"/>
    <path clip-path="url(#p7240226a97)" d="M 672.341827 91.768117 
L 672.341827 49.917153 
" style="fill:none;stroke:#0000ff;stroke-width:1.5;"/>
    <path clip-path="url(#p7240226a97)" d="M 680.773926 109.985778 
L 680.773926 68.134814 
" style="fill:none;stroke:#0000ff;stroke-width:1.5;"/>
    <path clip-path="url(#p7240226a97)" d="M 689.206025 121.840122 
L 689.206025 79.989158 
" style="fill:none;stroke:#0000ff;stroke-width:1.5;"/>
    <path clip-path="url(#p7240226a97)" d="M 697.638123 128.869307 
L 697.638123 87.018343 
" style="fill:none;stroke:#0000ff;stroke-width:1.5;"/>
    <path clip-path="url(#p7240226a97)" d="M 706.070222 114.303482 
L 706.070222 72.452518 
" style="fill:none;stroke:#0000ff;stroke-width:1.5;"/>
    <path clip-path="url(#p7240226a97)" d="M 714.502321 105.444023 
L 714.502321 63.593059 
" style="fill:none;stroke:#0000ff;stroke-width:1.5;"/>
    <path clip-path="url(#p7240226a97)" d="M 722.93442 126.322991 
L 722.93442 84.472027 
" style="fill:none;stroke:#0000ff;stroke-width:1.5;"/>
    <path clip-path="url(#p7240226a97)" d="M 731.366519 136.838073 
L 731.366519 94.987109 
" style="fill:none;stroke:#0000ff;stroke-width:1.5;"/>
    <path clip-path="url(#p7240226a97)" d="M 739.798617 132.74212 
L 739.798617 90.891156 
" style="fill:none;stroke:#0000ff;stroke-width:1.5;"/>
    <path clip-path="url(#p7240226a97)" d="M 748.230716 104.144125 
L 748.230716 62.293161 
" style="fill:none;stroke:#0000ff;stroke-width:1.5;"/>
    <path clip-path="url(#p7240226a97)" d="M 756.662815 95.393982 
L 756.662815 53.543018 
" style="fill:none;stroke:#0000ff;stroke-width:1.5;"/>
    <path clip-path="url(#p7240226a97)" d="M 765.094914 134.883997 
L 765.094914 93.033033 
" style="fill:none;stroke:#0000ff;stroke-width:1.5;"/>
    <path clip-path="url(#p7240226a97)" d="M 773.527012 132.009195 
L 773.527012 90.158231 
" style="fill:none;stroke:#0000ff;stroke-width:1.5;"/>
    <path clip-path="url(#p7240226a97)" d="M 781.959111 139.529469 
L 781.959111 97.678505 
" style="fill:none;stroke:#0000ff;stroke-width:1.5;"/>
    <path clip-path="url(#p7240226a97)" d="M 790.39121 138.300479 
L 790.39121 96.449515 
" style="fill:none;stroke:#0000ff;stroke-width:1.5;"/>
    <path clip-path="url(#p7240226a97)" d="M 798.823309 86.707882 
L 798.823309 44.856918 
" style="fill:none;stroke:#0000ff;stroke-width:1.5;"/>
    <path clip-path="url(#p7240226a97)" d="M 807.255407 154.107882 
L 807.255407 112.256918 
" style="fill:none;stroke:#0000ff;stroke-width:1.5;"/>
    <path clip-path="url(#p7240226a97)" d="M 815.687506 102.502766 
L 815.687506 60.651802 
" style="fill:none;stroke:#0000ff;stroke-width:1.5;"/>
    <path clip-path="url(#p7240226a97)" d="M 824.119605 107.427976 
L 824.119605 65.577012 
" style="fill:none;stroke:#0000ff;stroke-width:1.5;"/>
    <path clip-path="url(#p7240226a97)" d="M 832.551704 131.589372 
L 832.551704 89.738408 
" style="fill:none;stroke:#0000ff;stroke-width:1.5;"/>
    <path clip-path="url(#p7240226a97)" d="M 840.983802 130.794213 
L 840.983802 88.943249 
" style="fill:none;stroke:#0000ff;stroke-width:1.5;"/>
    <path clip-path="url(#p7240226a97)" d="M 849.415901 148.200986 
L 849.415901 106.350022 
" style="fill:none;stroke:#0000ff;stroke-width:1.5;"/>
    <path clip-path="url(#p7240226a97)" d="M 857.848 117.152794 
L 857.848 75.30183 
" style="fill:none;stroke:#0000ff;stroke-width:1.5;"/>
   </g>
   <g id="line2d_9">
    <path clip-path="url(#p7240226a97)" d="M 174.848 99.831803 
L 857.848 99.831803 
" style="fill:none;stroke:#ff0000;stroke-linecap:square;stroke-width:1.5;"/>
   </g>
   <g id="line2d_10">
    <defs>
     <path d="M -3 0 
L 3 0 
M 0 3 
L 0 -3 
" id="m8408c22209" style="stroke:#0000ff;"/>
    </defs>
    <g clip-path="url(#p7240226a97)">
     <use style="fill:#0000ff;stroke:#0000ff;" x="174.848" xlink:href="#m8408c22209" y="78.69685"/>
     <use style="fill:#0000ff;stroke:#0000ff;" x="183.280099" xlink:href="#m8408c22209" y="81.46738"/>
     <use style="fill:#0000ff;stroke:#0000ff;" x="191.712198" xlink:href="#m8408c22209" y="111.822859"/>
     <use style="fill:#0000ff;stroke:#0000ff;" x="200.144296" xlink:href="#m8408c22209" y="96.794777"/>
     <use style="fill:#0000ff;stroke:#0000ff;" x="208.576395" xlink:href="#m8408c22209" y="99.794288"/>
     <use style="fill:#0000ff;stroke:#0000ff;" x="217.008494" xlink:href="#m8408c22209" y="102.602725"/>
     <use style="fill:#0000ff;stroke:#0000ff;" x="225.440593" xlink:href="#m8408c22209" y="105.240161"/>
     <use style="fill:#0000ff;stroke:#0000ff;" x="233.872691" xlink:href="#m8408c22209" y="80.203351"/>
     <use style="fill:#0000ff;stroke:#0000ff;" x="242.30479" xlink:href="#m8408c22209" y="90.044079"/>
     <use style="fill:#0000ff;stroke:#0000ff;" x="250.736889" xlink:href="#m8408c22209" y="86.809206"/>
     <use style="fill:#0000ff;stroke:#0000ff;" x="259.168988" xlink:href="#m8408c22209" y="122.499503"/>
     <use style="fill:#0000ff;stroke:#0000ff;" x="267.601086" xlink:href="#m8408c22209" y="110.112686"/>
     <use style="fill:#0000ff;stroke:#0000ff;" x="276.033185" xlink:href="#m8408c22209" y="71.812098"/>
     <use style="fill:#0000ff;stroke:#0000ff;" x="284.465284" xlink:href="#m8408c22209" y="98.680649"/>
     <use style="fill:#0000ff;stroke:#0000ff;" x="292.897383" xlink:href="#m8408c22209" y="83.768388"/>
     <use style="fill:#0000ff;stroke:#0000ff;" x="301.329481" xlink:href="#m8408c22209" y="105.02655"/>
     <use style="fill:#0000ff;stroke:#0000ff;" x="309.76158" xlink:href="#m8408c22209" y="114.253156"/>
     <use style="fill:#0000ff;stroke:#0000ff;" x="318.193679" xlink:href="#m8408c22209" y="89.399349"/>
     <use style="fill:#0000ff;stroke:#0000ff;" x="326.625778" xlink:href="#m8408c22209" y="98.882505"/>
     <use style="fill:#0000ff;stroke:#0000ff;" x="335.057877" xlink:href="#m8408c22209" y="111.093807"/>
     <use style="fill:#0000ff;stroke:#0000ff;" x="343.489975" xlink:href="#m8408c22209" y="103.552916"/>
     <use style="fill:#0000ff;stroke:#0000ff;" x="351.922074" xlink:href="#m8408c22209" y="118.768666"/>
     <use style="fill:#0000ff;stroke:#0000ff;" x="360.354173" xlink:href="#m8408c22209" y="90.797013"/>
     <use style="fill:#0000ff;stroke:#0000ff;" x="368.786272" xlink:href="#m8408c22209" y="99.128689"/>
     <use style="fill:#0000ff;stroke:#0000ff;" x="377.21837" xlink:href="#m8408c22209" y="79.838259"/>
     <use style="fill:#0000ff;stroke:#0000ff;" x="385.650469" xlink:href="#m8408c22209" y="132.310017"/>
     <use style="fill:#0000ff;stroke:#0000ff;" x="394.082568" xlink:href="#m8408c22209" y="96.328867"/>
     <use style="fill:#0000ff;stroke:#0000ff;" x="402.514667" xlink:href="#m8408c22209" y="88.392748"/>
     <use style="fill:#0000ff;stroke:#0000ff;" x="410.946765" xlink:href="#m8408c22209" y="87.666511"/>
     <use style="fill:#0000ff;stroke:#0000ff;" x="419.378864" xlink:href="#m8408c22209" y="102.667783"/>
     <use style="fill:#0000ff;stroke:#0000ff;" x="427.810963" xlink:href="#m8408c22209" y="102.681071"/>
     <use style="fill:#0000ff;stroke:#0000ff;" x="436.243062" xlink:href="#m8408c22209" y="106.71284"/>
     <use style="fill:#0000ff;stroke:#0000ff;" x="444.67516" xlink:href="#m8408c22209" y="109.406835"/>
     <use style="fill:#0000ff;stroke:#0000ff;" x="453.107259" xlink:href="#m8408c22209" y="99.980666"/>
     <use style="fill:#0000ff;stroke:#0000ff;" x="461.539358" xlink:href="#m8408c22209" y="105.531512"/>
     <use style="fill:#0000ff;stroke:#0000ff;" x="469.971457" xlink:href="#m8408c22209" y="110.636049"/>
     <use style="fill:#0000ff;stroke:#0000ff;" x="478.403556" xlink:href="#m8408c22209" y="121.422786"/>
     <use style="fill:#0000ff;stroke:#0000ff;" x="486.835654" xlink:href="#m8408c22209" y="100.297765"/>
     <use style="fill:#0000ff;stroke:#0000ff;" x="495.267753" xlink:href="#m8408c22209" y="101.81136"/>
     <use style="fill:#0000ff;stroke:#0000ff;" x="503.699852" xlink:href="#m8408c22209" y="109.157686"/>
     <use style="fill:#0000ff;stroke:#0000ff;" x="512.131951" xlink:href="#m8408c22209" y="128.231464"/>
     <use style="fill:#0000ff;stroke:#0000ff;" x="520.564049" xlink:href="#m8408c22209" y="79.036093"/>
     <use style="fill:#0000ff;stroke:#0000ff;" x="528.996148" xlink:href="#m8408c22209" y="102.431164"/>
     <use style="fill:#0000ff;stroke:#0000ff;" x="537.428247" xlink:href="#m8408c22209" y="113.800978"/>
     <use style="fill:#0000ff;stroke:#0000ff;" x="545.860346" xlink:href="#m8408c22209" y="100.326452"/>
     <use style="fill:#0000ff;stroke:#0000ff;" x="554.292444" xlink:href="#m8408c22209" y="88.019089"/>
     <use style="fill:#0000ff;stroke:#0000ff;" x="562.724543" xlink:href="#m8408c22209" y="93.457176"/>
     <use style="fill:#0000ff;stroke:#0000ff;" x="571.156642" xlink:href="#m8408c22209" y="94.074153"/>
     <use style="fill:#0000ff;stroke:#0000ff;" x="579.588741" xlink:href="#m8408c22209" y="98.175853"/>
     <use style="fill:#0000ff;stroke:#0000ff;" x="588.02084" xlink:href="#m8408c22209" y="75.913151"/>
     <use style="fill:#0000ff;stroke:#0000ff;" x="596.452938" xlink:href="#m8408c22209" y="81.862476"/>
     <use style="fill:#0000ff;stroke:#0000ff;" x="604.885037" xlink:href="#m8408c22209" y="94.236401"/>
     <use style="fill:#0000ff;stroke:#0000ff;" x="613.317136" xlink:href="#m8408c22209" y="89.883173"/>
     <use style="fill:#0000ff;stroke:#0000ff;" x="621.749235" xlink:href="#m8408c22209" y="105.117733"/>
     <use style="fill:#0000ff;stroke:#0000ff;" x="630.181333" xlink:href="#m8408c22209" y="110.700523"/>
     <use style="fill:#0000ff;stroke:#0000ff;" x="638.613432" xlink:href="#m8408c22209" y="73.487287"/>
     <use style="fill:#0000ff;stroke:#0000ff;" x="647.045531" xlink:href="#m8408c22209" y="82.55849"/>
     <use style="fill:#0000ff;stroke:#0000ff;" x="655.47763" xlink:href="#m8408c22209" y="101.253563"/>
     <use style="fill:#0000ff;stroke:#0000ff;" x="663.909728" xlink:href="#m8408c22209" y="126.845924"/>
     <use style="fill:#0000ff;stroke:#0000ff;" x="672.341827" xlink:href="#m8408c22209" y="70.842635"/>
     <use style="fill:#0000ff;stroke:#0000ff;" x="680.773926" xlink:href="#m8408c22209" y="89.060296"/>
     <use style="fill:#0000ff;stroke:#0000ff;" x="689.206025" xlink:href="#m8408c22209" y="100.91464"/>
     <use style="fill:#0000ff;stroke:#0000ff;" x="697.638123" xlink:href="#m8408c22209" y="107.943825"/>
     <use style="fill:#0000ff;stroke:#0000ff;" x="706.070222" xlink:href="#m8408c22209" y="93.378"/>
     <use style="fill:#0000ff;stroke:#0000ff;" x="714.502321" xlink:href="#m8408c22209" y="84.518541"/>
     <use style="fill:#0000ff;stroke:#0000ff;" x="722.93442" xlink:href="#m8408c22209" y="105.397509"/>
     <use style="fill:#0000ff;stroke:#0000ff;" x="731.366519" xlink:href="#m8408c22209" y="115.912591"/>
     <use style="fill:#0000ff;stroke:#0000ff;" x="739.798617" xlink:href="#m8408c22209" y="111.816638"/>
     <use style="fill:#0000ff;stroke:#0000ff;" x="748.230716" xlink:href="#m8408c22209" y="83.218643"/>
     <use style="fill:#0000ff;stroke:#0000ff;" x="756.662815" xlink:href="#m8408c22209" y="74.4685"/>
     <use style="fill:#0000ff;stroke:#0000ff;" x="765.094914" xlink:href="#m8408c22209" y="113.958515"/>
     <use style="fill:#0000ff;stroke:#0000ff;" x="773.527012" xlink:href="#m8408c22209" y="111.083713"/>
     <use style="fill:#0000ff;stroke:#0000ff;" x="781.959111" xlink:href="#m8408c22209" y="118.603987"/>
     <use style="fill:#0000ff;stroke:#0000ff;" x="790.39121" xlink:href="#m8408c22209" y="117.374997"/>
     <use style="fill:#0000ff;stroke:#0000ff;" x="798.823309" xlink:href="#m8408c22209" y="65.7824"/>
     <use style="fill:#0000ff;stroke:#0000ff;" x="807.255407" xlink:href="#m8408c22209" y="133.1824"/>
     <use style="fill:#0000ff;stroke:#0000ff;" x="815.687506" xlink:href="#m8408c22209" y="81.577284"/>
     <use style="fill:#0000ff;stroke:#0000ff;" x="824.119605" xlink:href="#m8408c22209" y="86.502494"/>
     <use style="fill:#0000ff;stroke:#0000ff;" x="832.551704" xlink:href="#m8408c22209" y="110.66389"/>
     <use style="fill:#0000ff;stroke:#0000ff;" x="840.983802" xlink:href="#m8408c22209" y="109.868731"/>
     <use style="fill:#0000ff;stroke:#0000ff;" x="849.415901" xlink:href="#m8408c22209" y="127.275504"/>
     <use style="fill:#0000ff;stroke:#0000ff;" x="857.848" xlink:href="#m8408c22209" y="96.227312"/>
    </g>
   </g>
   <g id="patch_3">
    <path d="M 147.528 135.8784 
L 147.528 63.0864 
" style="fill:none;stroke:#000000;stroke-linecap:square;stroke-linejoin:miter;stroke-width:0.8;"/>
   </g>
   <g id="patch_4">
    <path d="M 885.168 135.8784 
L 885.168 63.0864 
" style="fill:none;stroke:#000000;stroke-linecap:square;stroke-linejoin:miter;stroke-width:0.8;"/>
   </g>
   <g id="patch_5">
    <path d="M 147.528 135.8784 
L 885.168 135.8784 
" style="fill:none;stroke:#000000;stroke-linecap:square;stroke-linejoin:miter;stroke-width:0.8;"/>
   </g>
   <g id="patch_6">
    <path d="M 147.528 63.0864 
L 885.168 63.0864 
" style="fill:none;stroke:#000000;stroke-linecap:square;stroke-linejoin:miter;stroke-width:0.8;"/>
   </g>
   <g id="text_4">
    <!-- Function (0/0): y = a*exp(-(x-x0)**2/w**2)+b -->
    <defs>
     <path d="M 9.8125 72.90625 
L 51.703125 72.90625 
L 51.703125 64.59375 
L 19.671875 64.59375 
L 19.671875 43.109375 
L 48.578125 43.109375 
L 48.578125 34.8125 
L 19.671875 34.8125 
L 19.671875 0 
L 9.8125 0 
z
" id="DejaVuSans-46"/>
     <path d="M 48.78125 52.59375 
L 48.78125 44.1875 
Q 44.96875 46.296875 41.140625 47.34375 
Q 37.3125 48.390625 33.40625 48.390625 
Q 24.65625 48.390625 19.8125 42.84375 
Q 14.984375 37.3125 14.984375 27.296875 
Q 14.984375 17.28125 19.8125 11.734375 
Q 24.65625 6.203125 33.40625 6.203125 
Q 37.3125 6.203125 41.140625 7.25 
Q 44.96875 8.296875 48.78125 10.40625 
L 48.78125 2.09375 
Q 45.015625 0.34375 40.984375 -0.53125 
Q 36.96875 -1.421875 32.421875 -1.421875 
Q 20.0625 -1.421875 12.78125 6.34375 
Q 5.515625 14.109375 5.515625 27.296875 
Q 5.515625 40.671875 12.859375 48.328125 
Q 20.21875 56 33.015625 56 
Q 37.15625 56 41.109375 55.140625 
Q 45.0625 54.296875 48.78125 52.59375 
z
" id="DejaVuSans-63"/>
     <path d="M 30.609375 48.390625 
Q 23.390625 48.390625 19.1875 42.75 
Q 14.984375 37.109375 14.984375 27.296875 
Q 14.984375 17.484375 19.15625 11.84375 
Q 23.34375 6.203125 30.609375 6.203125 
Q 37.796875 6.203125 41.984375 11.859375 
Q 46.1875 17.53125 46.1875 27.296875 
Q 46.1875 37.015625 41.984375 42.703125 
Q 37.796875 48.390625 30.609375 48.390625 
z
M 30.609375 56 
Q 42.328125 56 49.015625 48.375 
Q 55.71875 40.765625 55.71875 27.296875 
Q 55.71875 13.875 49.015625 6.21875 
Q 42.328125 -1.421875 30.609375 -1.421875 
Q 18.84375 -1.421875 12.171875 6.21875 
Q 5.515625 13.875 5.515625 27.296875 
Q 5.515625 40.765625 12.171875 48.375 
Q 18.84375 56 30.609375 56 
z
" id="DejaVuSans-6f"/>
     <path id="DejaVuSans-20"/>
     <path d="M 31 75.875 
Q 24.46875 64.65625 21.28125 53.65625 
Q 18.109375 42.671875 18.109375 31.390625 
Q 18.109375 20.125 21.3125 9.0625 
Q 24.515625 -2 31 -13.1875 
L 23.1875 -13.1875 
Q 15.875 -1.703125 12.234375 9.375 
Q 8.59375 20.453125 8.59375 31.390625 
Q 8.59375 42.28125 12.203125 53.3125 
Q 15.828125 64.359375 23.1875 75.875 
z
" id="DejaVuSans-28"/>
     <path d="M 31.78125 66.40625 
Q 24.171875 66.40625 20.328125 58.90625 
Q 16.5 51.421875 16.5 36.375 
Q 16.5 21.390625 20.328125 13.890625 
Q 24.171875 6.390625 31.78125 6.390625 
Q 39.453125 6.390625 43.28125 13.890625 
Q 47.125 21.390625 47.125 36.375 
Q 47.125 51.421875 43.28125 58.90625 
Q 39.453125 66.40625 31.78125 66.40625 
z
M 31.78125 74.21875 
Q 44.046875 74.21875 50.515625 64.515625 
Q 56.984375 54.828125 56.984375 36.375 
Q 56.984375 17.96875 50.515625 8.265625 
Q 44.046875 -1.421875 31.78125 -1.421875 
Q 19.53125 -1.421875 13.0625 8.265625 
Q 6.59375 17.96875 6.59375 36.375 
Q 6.59375 54.828125 13.0625 64.515625 
Q 19.53125 74.21875 31.78125 74.21875 
z
" id="DejaVuSans-30"/>
     <path d="M 25.390625 72.90625 
L 33.6875 72.90625 
L 8.296875 -9.28125 
L 0 -9.28125 
z
" id="DejaVuSans-2f"/>
     <path d="M 8.015625 75.875 
L 15.828125 75.875 
Q 23.140625 64.359375 26.78125 53.3125 
Q 30.421875 42.28125 30.421875 31.390625 
Q 30.421875 20.453125 26.78125 9.375 
Q 23.140625 -1.703125 15.828125 -13.1875 
L 8.015625 -13.1875 
Q 14.5 -2 17.703125 9.0625 
Q 20.90625 20.125 20.90625 31.390625 
Q 20.90625 42.671875 17.703125 53.65625 
Q 14.5 64.65625 8.015625 75.875 
z
" id="DejaVuSans-29"/>
     <path d="M 11.71875 12.40625 
L 22.015625 12.40625 
L 22.015625 0 
L 11.71875 0 
z
M 11.71875 51.703125 
L 22.015625 51.703125 
L 22.015625 39.3125 
L 11.71875 39.3125 
z
" id="DejaVuSans-3a"/>
     <path d="M 32.171875 -5.078125 
Q 28.375 -14.84375 24.75 -17.8125 
Q 21.140625 -20.796875 15.09375 -20.796875 
L 7.90625 -20.796875 
L 7.90625 -13.28125 
L 13.1875 -13.28125 
Q 16.890625 -13.28125 18.9375 -11.515625 
Q 21 -9.765625 23.484375 -3.21875 
L 25.09375 0.875 
L 2.984375 54.6875 
L 12.5 54.6875 
L 29.59375 11.921875 
L 46.6875 54.6875 
L 56.203125 54.6875 
z
" id="DejaVuSans-79"/>
     <path d="M 10.59375 45.40625 
L 73.1875 45.40625 
L 73.1875 37.203125 
L 10.59375 37.203125 
z
M 10.59375 25.484375 
L 73.1875 25.484375 
L 73.1875 17.1875 
L 10.59375 17.1875 
z
" id="DejaVuSans-3d"/>
     <path d="M 47.015625 60.890625 
L 29.5 51.421875 
L 47.015625 41.890625 
L 44.1875 37.109375 
L 27.78125 47.015625 
L 27.78125 28.609375 
L 22.21875 28.609375 
L 22.21875 47.015625 
L 5.8125 37.109375 
L 2.984375 41.890625 
L 20.515625 51.421875 
L 2.984375 60.890625 
L 5.8125 65.71875 
L 22.21875 55.8125 
L 22.21875 74.21875 
L 27.78125 74.21875 
L 27.78125 55.8125 
L 44.1875 65.71875 
z
" id="DejaVuSans-2a"/>
     <path d="M 54.890625 54.6875 
L 35.109375 28.078125 
L 55.90625 0 
L 45.3125 0 
L 29.390625 21.484375 
L 13.484375 0 
L 2.875 0 
L 24.125 28.609375 
L 4.6875 54.6875 
L 15.28125 54.6875 
L 29.78125 35.203125 
L 44.28125 54.6875 
z
" id="DejaVuSans-78"/>
     <path d="M 18.109375 8.203125 
L 18.109375 -20.796875 
L 9.078125 -20.796875 
L 9.078125 54.6875 
L 18.109375 54.6875 
L 18.109375 46.390625 
Q 20.953125 51.265625 25.265625 53.625 
Q 29.59375 56 35.59375 56 
Q 45.5625 56 51.78125 48.09375 
Q 58.015625 40.1875 58.015625 27.296875 
Q 58.015625 14.40625 51.78125 6.484375 
Q 45.5625 -1.421875 35.59375 -1.421875 
Q 29.59375 -1.421875 25.265625 0.953125 
Q 20.953125 3.328125 18.109375 8.203125 
z
M 48.6875 27.296875 
Q 48.6875 37.203125 44.609375 42.84375 
Q 40.53125 48.484375 33.40625 48.484375 
Q 26.265625 48.484375 22.1875 42.84375 
Q 18.109375 37.203125 18.109375 27.296875 
Q 18.109375 17.390625 22.1875 11.75 
Q 26.265625 6.109375 33.40625 6.109375 
Q 40.53125 6.109375 44.609375 11.75 
Q 48.6875 17.390625 48.6875 27.296875 
z
" id="DejaVuSans-70"/>
     <path d="M 4.890625 31.390625 
L 31.203125 31.390625 
L 31.203125 23.390625 
L 4.890625 23.390625 
z
" id="DejaVuSans-2d"/>
     <path d="M 19.1875 8.296875 
L 53.609375 8.296875 
L 53.609375 0 
L 7.328125 0 
L 7.328125 8.296875 
Q 12.9375 14.109375 22.625 23.890625 
Q 32.328125 33.6875 34.8125 36.53125 
Q 39.546875 41.84375 41.421875 45.53125 
Q 43.3125 49.21875 43.3125 52.78125 
Q 43.3125 58.59375 39.234375 62.25 
Q 35.15625 65.921875 28.609375 65.921875 
Q 23.96875 65.921875 18.8125 64.3125 
Q 13.671875 62.703125 7.8125 59.421875 
L 7.8125 69.390625 
Q 13.765625 71.78125 18.9375 73 
Q 24.125 74.21875 28.421875 74.21875 
Q 39.75 74.21875 46.484375 68.546875 
Q 53.21875 62.890625 53.21875 53.421875 
Q 53.21875 48.921875 51.53125 44.890625 
Q 49.859375 40.875 45.40625 35.40625 
Q 44.1875 33.984375 37.640625 27.21875 
Q 31.109375 20.453125 19.1875 8.296875 
z
" id="DejaVuSans-32"/>
     <path d="M 4.203125 54.6875 
L 13.1875 54.6875 
L 24.421875 12.015625 
L 35.59375 54.6875 
L 46.1875 54.6875 
L 57.421875 12.015625 
L 68.609375 54.6875 
L 77.59375 54.6875 
L 63.28125 0 
L 52.6875 0 
L 40.921875 44.828125 
L 29.109375 0 
L 18.5 0 
z
" id="DejaVuSans-77"/>
     <path d="M 46 62.703125 
L 46 35.5 
L 73.1875 35.5 
L 73.1875 27.203125 
L 46 27.203125 
L 46 0 
L 37.796875 0 
L 37.796875 27.203125 
L 10.59375 27.203125 
L 10.59375 35.5 
L 37.796875 35.5 
L 37.796875 62.703125 
z
" id="DejaVuSans-2b"/>
     <path d="M 48.6875 27.296875 
Q 48.6875 37.203125 44.609375 42.84375 
Q 40.53125 48.484375 33.40625 48.484375 
Q 26.265625 48.484375 22.1875 42.84375 
Q 18.109375 37.203125 18.109375 27.296875 
Q 18.109375 17.390625 22.1875 11.75 
Q 26.265625 6.109375 33.40625 6.109375 
Q 40.53125 6.109375 44.609375 11.75 
Q 48.6875 17.390625 48.6875 27.296875 
z
M 18.109375 46.390625 
Q 20.953125 51.265625 25.265625 53.625 
Q 29.59375 56 35.59375 56 
Q 45.5625 56 51.78125 48.09375 
Q 58.015625 40.1875 58.015625 27.296875 
Q 58.015625 14.40625 51.78125 6.484375 
Q 45.5625 -1.421875 35.59375 -1.421875 
Q 29.59375 -1.421875 25.265625 0.953125 
Q 20.953125 3.328125 18.109375 8.203125 
L 18.109375 0 
L 9.078125 0 
L 9.078125 75.984375 
L 18.109375 75.984375 
z
" id="DejaVuSans-62"/>
    </defs>
    <g transform="translate(147.528 34.690775)scale(0.1 -0.1)">
     <use xlink:href="#DejaVuSans-46"/>
     <use x="57.441406" xlink:href="#DejaVuSans-75"/>
     <use x="120.820312" xlink:href="#DejaVuSans-6e"/>
     <use x="184.199219" xlink:href="#DejaVuSans-63"/>
     <use x="239.179688" xlink:href="#DejaVuSans-74"/>
     <use x="278.388672" xlink:href="#DejaVuSans-69"/>
     <use x="306.171875" xlink:href="#DejaVuSans-6f"/>
     <use x="367.353516" xlink:href="#DejaVuSans-6e"/>
     <use x="430.732422" xlink:href="#DejaVuSans-20"/>
     <use x="462.519531" xlink:href="#DejaVuSans-28"/>
     <use x="501.533203" xlink:href="#DejaVuSans-30"/>
     <use x="565.15625" xlink:href="#DejaVuSans-2f"/>
     <use x="598.847656" xlink:href="#DejaVuSans-30"/>
     <use x="662.470703" xlink:href="#DejaVuSans-29"/>
     <use x="701.484375" xlink:href="#DejaVuSans-3a"/>
     <use x="735.175781" xlink:href="#DejaVuSans-20"/>
     <use x="766.962891" xlink:href="#DejaVuSans-79"/>
     <use x="826.142578" xlink:href="#DejaVuSans-20"/>
     <use x="857.929688" xlink:href="#DejaVuSans-3d"/>
     <use x="941.71875" xlink:href="#DejaVuSans-20"/>
     <use x="973.505859" xlink:href="#DejaVuSans-61"/>
     <use x="1034.785156" xlink:href="#DejaVuSans-2a"/>
     <use x="1084.785156" xlink:href="#DejaVuSans-65"/>
     <use x="1146.292969" xlink:href="#DejaVuSans-78"/>
     <use x="1205.472656" xlink:href="#DejaVuSans-70"/>
     <use x="1268.949219" xlink:href="#DejaVuSans-28"/>
     <use x="1307.962891" xlink:href="#DejaVuSans-2d"/>
     <use x="1344.046875" xlink:href="#DejaVuSans-28"/>
     <use x="1383.060547" xlink:href="#DejaVuSans-78"/>
     <use x="1442.240234" xlink:href="#DejaVuSans-2d"/>
     <use x="1478.324219" xlink:href="#DejaVuSans-78"/>
     <use x="1537.503906" xlink:href="#DejaVuSans-30"/>
     <use x="1601.126953" xlink:href="#DejaVuSans-29"/>
     <use x="1640.140625" xlink:href="#DejaVuSans-2a"/>
     <use x="1690.140625" xlink:href="#DejaVuSans-2a"/>
     <use x="1740.140625" xlink:href="#DejaVuSans-32"/>
     <use x="1803.763672" xlink:href="#DejaVuSans-2f"/>
     <use x="1837.455078" xlink:href="#DejaVuSans-77"/>
     <use x="1919.242188" xlink:href="#DejaVuSans-2a"/>
     <use x="1969.242188" xlink:href="#DejaVuSans-2a"/>
     <use x="2019.242188" xlink:href="#DejaVuSans-32"/>
     <use x="2082.865234" xlink:href="#DejaVuSans-29"/>
     <use x="2121.878906" xlink:href="#DejaVuSans-2b"/>
     <use x="2205.667969" xlink:href="#DejaVuSans-62"/>
    </g>
    <!-- Fit: a=439.9$\pm$8.4, b=25.2$\pm$9.5, x0=4.58285$\pm$0.00098, -->
    <defs>
     <path d="M 37.796875 64.3125 
L 12.890625 25.390625 
L 37.796875 25.390625 
z
M 35.203125 72.90625 
L 47.609375 72.90625 
L 47.609375 25.390625 
L 58.015625 25.390625 
L 58.015625 17.1875 
L 47.609375 17.1875 
L 47.609375 0 
L 37.796875 0 
L 37.796875 17.1875 
L 4.890625 17.1875 
L 4.890625 26.703125 
z
" id="DejaVuSans-34"/>
     <path d="M 40.578125 39.3125 
Q 47.65625 37.796875 51.625 33 
Q 55.609375 28.21875 55.609375 21.1875 
Q 55.609375 10.40625 48.1875 4.484375 
Q 40.765625 -1.421875 27.09375 -1.421875 
Q 22.515625 -1.421875 17.65625 -0.515625 
Q 12.796875 0.390625 7.625 2.203125 
L 7.625 11.71875 
Q 11.71875 9.328125 16.59375 8.109375 
Q 21.484375 6.890625 26.8125 6.890625 
Q 36.078125 6.890625 40.9375 10.546875 
Q 45.796875 14.203125 45.796875 21.1875 
Q 45.796875 27.640625 41.28125 31.265625 
Q 36.765625 34.90625 28.71875 34.90625 
L 20.21875 34.90625 
L 20.21875 43.015625 
L 29.109375 43.015625 
Q 36.375 43.015625 40.234375 45.921875 
Q 44.09375 48.828125 44.09375 54.296875 
Q 44.09375 59.90625 40.109375 62.90625 
Q 36.140625 65.921875 28.71875 65.921875 
Q 24.65625 65.921875 20.015625 65.03125 
Q 15.375 64.15625 9.8125 62.3125 
L 9.8125 71.09375 
Q 15.4375 72.65625 20.34375 73.4375 
Q 25.25 74.21875 29.59375 74.21875 
Q 40.828125 74.21875 47.359375 69.109375 
Q 53.90625 64.015625 53.90625 55.328125 
Q 53.90625 49.265625 50.4375 45.09375 
Q 46.96875 40.921875 40.578125 39.3125 
z
" id="DejaVuSans-33"/>
     <path d="M 10.984375 1.515625 
L 10.984375 10.5 
Q 14.703125 8.734375 18.5 7.8125 
Q 22.3125 6.890625 25.984375 6.890625 
Q 35.75 6.890625 40.890625 13.453125 
Q 46.046875 20.015625 46.78125 33.40625 
Q 43.953125 29.203125 39.59375 26.953125 
Q 35.25 24.703125 29.984375 24.703125 
Q 19.046875 24.703125 12.671875 31.3125 
Q 6.296875 37.9375 6.296875 49.421875 
Q 6.296875 60.640625 12.9375 67.421875 
Q 19.578125 74.21875 30.609375 74.21875 
Q 43.265625 74.21875 49.921875 64.515625 
Q 56.59375 54.828125 56.59375 36.375 
Q 56.59375 19.140625 48.40625 8.859375 
Q 40.234375 -1.421875 26.421875 -1.421875 
Q 22.703125 -1.421875 18.890625 -0.6875 
Q 15.09375 0.046875 10.984375 1.515625 
z
M 30.609375 32.421875 
Q 37.25 32.421875 41.125 36.953125 
Q 45.015625 41.5 45.015625 49.421875 
Q 45.015625 57.28125 41.125 61.84375 
Q 37.25 66.40625 30.609375 66.40625 
Q 23.96875 66.40625 20.09375 61.84375 
Q 16.21875 57.28125 16.21875 49.421875 
Q 16.21875 41.5 20.09375 36.953125 
Q 23.96875 32.421875 30.609375 32.421875 
z
" id="DejaVuSans-39"/>
     <path d="M 10.6875 12.40625 
L 21 12.40625 
L 21 0 
L 10.6875 0 
z
" id="DejaVuSans-2e"/>
     <path d="M 46 62.703125 
L 46 43.796875 
L 73.1875 43.796875 
L 73.1875 35.5 
L 46 35.5 
L 46 16.609375 
L 37.796875 16.609375 
L 37.796875 35.5 
L 10.59375 35.5 
L 10.59375 43.796875 
L 37.796875 43.796875 
L 37.796875 62.703125 
z
M 10.59375 8.296875 
L 73.1875 8.296875 
L 73.1875 0 
L 10.59375 0 
z
" id="DejaVuSans-b1"/>
     <path d="M 31.78125 34.625 
Q 24.75 34.625 20.71875 30.859375 
Q 16.703125 27.09375 16.703125 20.515625 
Q 16.703125 13.921875 20.71875 10.15625 
Q 24.75 6.390625 31.78125 6.390625 
Q 38.8125 6.390625 42.859375 10.171875 
Q 46.921875 13.96875 46.921875 20.515625 
Q 46.921875 27.09375 42.890625 30.859375 
Q 38.875 34.625 31.78125 34.625 
z
M 21.921875 38.8125 
Q 15.578125 40.375 12.03125 44.71875 
Q 8.5 49.078125 8.5 55.328125 
Q 8.5 64.0625 14.71875 69.140625 
Q 20.953125 74.21875 31.78125 74.21875 
Q 42.671875 74.21875 48.875 69.140625 
Q 55.078125 64.0625 55.078125 55.328125 
Q 55.078125 49.078125 51.53125 44.71875 
Q 48 40.375 41.703125 38.8125 
Q 48.828125 37.15625 52.796875 32.3125 
Q 56.78125 27.484375 56.78125 20.515625 
Q 56.78125 9.90625 50.3125 4.234375 
Q 43.84375 -1.421875 31.78125 -1.421875 
Q 19.734375 -1.421875 13.25 4.234375 
Q 6.78125 9.90625 6.78125 20.515625 
Q 6.78125 27.484375 10.78125 32.3125 
Q 14.796875 37.15625 21.921875 38.8125 
z
M 18.3125 54.390625 
Q 18.3125 48.734375 21.84375 45.5625 
Q 25.390625 42.390625 31.78125 42.390625 
Q 38.140625 42.390625 41.71875 45.5625 
Q 45.3125 48.734375 45.3125 54.390625 
Q 45.3125 60.0625 41.71875 63.234375 
Q 38.140625 66.40625 31.78125 66.40625 
Q 25.390625 66.40625 21.84375 63.234375 
Q 18.3125 60.0625 18.3125 54.390625 
z
" id="DejaVuSans-38"/>
     <path d="M 11.71875 12.40625 
L 22.015625 12.40625 
L 22.015625 4 
L 14.015625 -11.625 
L 7.71875 -11.625 
L 11.71875 4 
z
" id="DejaVuSans-2c"/>
     <path d="M 10.796875 72.90625 
L 49.515625 72.90625 
L 49.515625 64.59375 
L 19.828125 64.59375 
L 19.828125 46.734375 
Q 21.96875 47.46875 24.109375 47.828125 
Q 26.265625 48.1875 28.421875 48.1875 
Q 40.625 48.1875 47.75 41.5 
Q 54.890625 34.8125 54.890625 23.390625 
Q 54.890625 11.625 47.5625 5.09375 
Q 40.234375 -1.421875 26.90625 -1.421875 
Q 22.3125 -1.421875 17.546875 -0.640625 
Q 12.796875 0.140625 7.71875 1.703125 
L 7.71875 11.625 
Q 12.109375 9.234375 16.796875 8.0625 
Q 21.484375 6.890625 26.703125 6.890625 
Q 35.15625 6.890625 40.078125 11.328125 
Q 45.015625 15.765625 45.015625 23.390625 
Q 45.015625 31 40.078125 35.4375 
Q 35.15625 39.890625 26.703125 39.890625 
Q 22.75 39.890625 18.8125 39.015625 
Q 14.890625 38.140625 10.796875 36.28125 
z
" id="DejaVuSans-35"/>
    </defs>
    <g transform="translate(147.528 45.888588)scale(0.1 -0.1)">
     <use transform="translate(0 0.015625)" xlink:href="#DejaVuSans-46"/>
     <use transform="translate(57.519531 0.015625)" xlink:href="#DejaVuSans-69"/>
     <use transform="translate(85.302734 0.015625)" xlink:href="#DejaVuSans-74"/>
     <use transform="translate(124.511719 0.015625)" xlink:href="#DejaVuSans-3a"/>
     <use transform="translate(158.203125 0.015625)" xlink:href="#DejaVuSans-20"/>
     <use transform="translate(189.990234 0.015625)" xlink:href="#DejaVuSans-61"/>
     <use transform="translate(251.269531 0.015625)" xlink:href="#DejaVuSans-3d"/>
     <use transform="translate(335.058594 0.015625)" xlink:href="#DejaVuSans-34"/>
     <use transform="translate(398.681641 0.015625)" xlink:href="#DejaVuSans-33"/>
     <use transform="translate(462.304688 0.015625)" xlink:href="#DejaVuSans-39"/>
     <use transform="translate(525.927734 0.015625)" xlink:href="#DejaVuSans-2e"/>
     <use transform="translate(557.714844 0.015625)" xlink:href="#DejaVuSans-39"/>
     <use transform="translate(621.337891 0.015625)" xlink:href="#DejaVuSans-b1"/>
     <use transform="translate(705.126953 0.015625)" xlink:href="#DejaVuSans-38"/>
     <use transform="translate(768.75 0.015625)" xlink:href="#DejaVuSans-2e"/>
     <use transform="translate(800.537109 0.015625)" xlink:href="#DejaVuSans-34"/>
     <use transform="translate(864.160156 0.015625)" xlink:href="#DejaVuSans-2c"/>
     <use transform="translate(895.947266 0.015625)" xlink:href="#DejaVuSans-20"/>
     <use transform="translate(927.734375 0.015625)" xlink:href="#DejaVuSans-62"/>
     <use transform="translate(991.210938 0.015625)" xlink:href="#DejaVuSans-3d"/>
     <use transform="translate(1075 0.015625)" xlink:href="#DejaVuSans-32"/>
     <use transform="translate(1138.623047 0.015625)" xlink:href="#DejaVuSans-35"/>
     <use transform="translate(1202.246094 0.015625)" xlink:href="#DejaVuSans-2e"/>
     <use transform="translate(1233.955078 0.015625)" xlink:href="#DejaVuSans-32"/>
     <use transform="translate(1297.578125 0.015625)" xlink:href="#DejaVuSans-b1"/>
     <use transform="translate(1381.367188 0.015625)" xlink:href="#DejaVuSans-39"/>
     <use transform="translate(1444.990234 0.015625)" xlink:href="#DejaVuSans-2e"/>
     <use transform="translate(1476.777344 0.015625)" xlink:href="#DejaVuSans-35"/>
     <use transform="translate(1540.400391 0.015625)" xlink:href="#DejaVuSans-2c"/>
     <use transform="translate(1572.1875 0.015625)" xlink:href="#DejaVuSans-20"/>
     <use transform="translate(1603.974609 0.015625)" xlink:href="#DejaVuSans-78"/>
     <use transform="translate(1663.154297 0.015625)" xlink:href="#DejaVuSans-30"/>
     <use transform="translate(1726.777344 0.015625)" xlink:href="#DejaVuSans-3d"/>
     <use transform="translate(1810.566406 0.015625)" xlink:href="#DejaVuSans-34"/>
     <use transform="translate(1874.189453 0.015625)" xlink:href="#DejaVuSans-2e"/>
     <use transform="translate(1905.976562 0.015625)" xlink:href="#DejaVuSans-35"/>
     <use transform="translate(1969.599609 0.015625)" xlink:href="#DejaVuSans-38"/>
     <use transform="translate(2033.222656 0.015625)" xlink:href="#DejaVuSans-32"/>
     <use transform="translate(2096.845703 0.015625)" xlink:href="#DejaVuSans-38"/>
     <use transform="translate(2160.46875 0.015625)" xlink:href="#DejaVuSans-35"/>
     <use transform="translate(2224.091797 0.015625)" xlink:href="#DejaVuSans-b1"/>
     <use transform="translate(2307.880859 0.015625)" xlink:href="#DejaVuSans-30"/>
     <use transform="translate(2371.503906 0.015625)" xlink:href="#DejaVuSans-2e"/>
     <use transform="translate(2403.291016 0.015625)" xlink:href="#DejaVuSans-30"/>
     <use transform="translate(2466.914062 0.015625)" xlink:href="#DejaVuSans-30"/>
     <use transform="translate(2530.537109 0.015625)" xlink:href="#DejaVuSans-30"/>
     <use transform="translate(2594.160156 0.015625)" xlink:href="#DejaVuSans-39"/>
     <use transform="translate(2657.783203 0.015625)" xlink:href="#DejaVuSans-38"/>
     <use transform="translate(2721.40625 0.015625)" xlink:href="#DejaVuSans-2c"/>
    </g>
    <!--       w=0.166$\pm$0.0044, -->
    <defs>
     <path d="M 33.015625 40.375 
Q 26.375 40.375 22.484375 35.828125 
Q 18.609375 31.296875 18.609375 23.390625 
Q 18.609375 15.53125 22.484375 10.953125 
Q 26.375 6.390625 33.015625 6.390625 
Q 39.65625 6.390625 43.53125 10.953125 
Q 47.40625 15.53125 47.40625 23.390625 
Q 47.40625 31.296875 43.53125 35.828125 
Q 39.65625 40.375 33.015625 40.375 
z
M 52.59375 71.296875 
L 52.59375 62.3125 
Q 48.875 64.0625 45.09375 64.984375 
Q 41.3125 65.921875 37.59375 65.921875 
Q 27.828125 65.921875 22.671875 59.328125 
Q 17.53125 52.734375 16.796875 39.40625 
Q 19.671875 43.65625 24.015625 45.921875 
Q 28.375 48.1875 33.59375 48.1875 
Q 44.578125 48.1875 50.953125 41.515625 
Q 57.328125 34.859375 57.328125 23.390625 
Q 57.328125 12.15625 50.6875 5.359375 
Q 44.046875 -1.421875 33.015625 -1.421875 
Q 20.359375 -1.421875 13.671875 8.265625 
Q 6.984375 17.96875 6.984375 36.375 
Q 6.984375 53.65625 15.1875 63.9375 
Q 23.390625 74.21875 37.203125 74.21875 
Q 40.921875 74.21875 44.703125 73.484375 
Q 48.484375 72.75 52.59375 71.296875 
z
" id="DejaVuSans-36"/>
    </defs>
    <g transform="translate(147.528 57.0864)scale(0.1 -0.1)">
     <use transform="translate(0 0.78125)" xlink:href="#DejaVuSans-20"/>
     <use transform="translate(31.787109 0.78125)" xlink:href="#DejaVuSans-20"/>
     <use transform="translate(63.574219 0.78125)" xlink:href="#DejaVuSans-20"/>
     <use transform="translate(95.361328 0.78125)" xlink:href="#DejaVuSans-20"/>
     <use transform="translate(127.148438 0.78125)" xlink:href="#DejaVuSans-20"/>
     <use transform="translate(158.935547 0.78125)" xlink:href="#DejaVuSans-20"/>
     <use transform="translate(190.722656 0.78125)" xlink:href="#DejaVuSans-77"/>
     <use transform="translate(272.509766 0.78125)" xlink:href="#DejaVuSans-3d"/>
     <use transform="translate(356.298828 0.78125)" xlink:href="#DejaVuSans-30"/>
     <use transform="translate(419.921875 0.78125)" xlink:href="#DejaVuSans-2e"/>
     <use transform="translate(451.708984 0.78125)" xlink:href="#DejaVuSans-31"/>
     <use transform="translate(515.332031 0.78125)" xlink:href="#DejaVuSans-36"/>
     <use transform="translate(578.955078 0.78125)" xlink:href="#DejaVuSans-36"/>
     <use transform="translate(642.578125 0.78125)" xlink:href="#DejaVuSans-b1"/>
     <use transform="translate(726.367188 0.78125)" xlink:href="#DejaVuSans-30"/>
     <use transform="translate(789.990234 0.78125)" xlink:href="#DejaVuSans-2e"/>
     <use transform="translate(821.777344 0.78125)" xlink:href="#DejaVuSans-30"/>
     <use transform="translate(885.400391 0.78125)" xlink:href="#DejaVuSans-30"/>
     <use transform="translate(949.023438 0.78125)" xlink:href="#DejaVuSans-34"/>
     <use transform="translate(1012.646484 0.78125)" xlink:href="#DejaVuSans-34"/>
     <use transform="translate(1076.269531 0.78125)" xlink:href="#DejaVuSans-2c"/>
    </g>
   </g>
  </g>
  <g id="axes_2">
   <g id="patch_7">
    <path d="M 147.528 436.752 
L 885.168 436.752 
L 885.168 145.584 
L 147.528 145.584 
z
" style="fill:#ffffff;"/>
   </g>
   <g id="matplotlib.axis_3">
    <g id="xtick_6">
     <g id="line2d_11">
      <g>
       <use style="stroke:#000000;stroke-width:0.8;" x="262.620684" xlink:href="#m6eb6388049" y="436.752"/>
      </g>
     </g>
     <g id="text_5">
      <!-- 4.4 -->
      <g transform="translate(253.078809 452.870125)scale(0.12 -0.12)">
       <use xlink:href="#DejaVuSans-34"/>
       <use x="63.623047" xlink:href="#DejaVuSans-2e"/>
       <use x="95.410156" xlink:href="#DejaVuSans-34"/>
      </g>
     </g>
    </g>
    <g id="xtick_7">
     <g id="line2d_12">
      <g>
       <use style="stroke:#000000;stroke-width:0.8;" x="404.365481" xlink:href="#m6eb6388049" y="436.752"/>
      </g>
     </g>
     <g id="text_6">
      <!-- 4.5 -->
      <g transform="translate(394.823606 452.870125)scale(0.12 -0.12)">
       <use xlink:href="#DejaVuSans-34"/>
       <use x="63.623047" xlink:href="#DejaVuSans-2e"/>
       <use x="95.410156" xlink:href="#DejaVuSans-35"/>
      </g>
     </g>
    </g>
    <g id="xtick_8">
     <g id="line2d_13">
      <g>
       <use style="stroke:#000000;stroke-width:0.8;" x="546.110279" xlink:href="#m6eb6388049" y="436.752"/>
      </g>
     </g>
     <g id="text_7">
      <!-- 4.6 -->
      <g transform="translate(536.568404 452.870125)scale(0.12 -0.12)">
       <use xlink:href="#DejaVuSans-34"/>
       <use x="63.623047" xlink:href="#DejaVuSans-2e"/>
       <use x="95.410156" xlink:href="#DejaVuSans-36"/>
      </g>
     </g>
    </g>
    <g id="xtick_9">
     <g id="line2d_14">
      <g>
       <use style="stroke:#000000;stroke-width:0.8;" x="687.855076" xlink:href="#m6eb6388049" y="436.752"/>
      </g>
     </g>
     <g id="text_8">
      <!-- 4.7 -->
      <defs>
       <path d="M 8.203125 72.90625 
L 55.078125 72.90625 
L 55.078125 68.703125 
L 28.609375 0 
L 18.3125 0 
L 43.21875 64.59375 
L 8.203125 64.59375 
z
" id="DejaVuSans-37"/>
      </defs>
      <g transform="translate(678.313201 452.870125)scale(0.12 -0.12)">
       <use xlink:href="#DejaVuSans-34"/>
       <use x="63.623047" xlink:href="#DejaVuSans-2e"/>
       <use x="95.410156" xlink:href="#DejaVuSans-37"/>
      </g>
     </g>
    </g>
    <g id="xtick_10">
     <g id="line2d_15">
      <g>
       <use style="stroke:#000000;stroke-width:0.8;" x="829.599873" xlink:href="#m6eb6388049" y="436.752"/>
      </g>
     </g>
     <g id="text_9">
      <!-- 4.8 -->
      <g transform="translate(820.057998 452.870125)scale(0.12 -0.12)">
       <use xlink:href="#DejaVuSans-34"/>
       <use x="63.623047" xlink:href="#DejaVuSans-2e"/>
       <use x="95.410156" xlink:href="#DejaVuSans-38"/>
      </g>
     </g>
    </g>
    <g id="text_10">
     <!-- Energy [MeV] -->
     <defs>
      <path d="M 9.8125 72.90625 
L 55.90625 72.90625 
L 55.90625 64.59375 
L 19.671875 64.59375 
L 19.671875 43.015625 
L 54.390625 43.015625 
L 54.390625 34.71875 
L 19.671875 34.71875 
L 19.671875 8.296875 
L 56.78125 8.296875 
L 56.78125 0 
L 9.8125 0 
z
" id="DejaVuSans-45"/>
      <path d="M 41.109375 46.296875 
Q 39.59375 47.171875 37.8125 47.578125 
Q 36.03125 48 33.890625 48 
Q 26.265625 48 22.1875 43.046875 
Q 18.109375 38.09375 18.109375 28.8125 
L 18.109375 0 
L 9.078125 0 
L 9.078125 54.6875 
L 18.109375 54.6875 
L 18.109375 46.1875 
Q 20.953125 51.171875 25.484375 53.578125 
Q 30.03125 56 36.53125 56 
Q 37.453125 56 38.578125 55.875 
Q 39.703125 55.765625 41.0625 55.515625 
z
" id="DejaVuSans-72"/>
      <path d="M 45.40625 27.984375 
Q 45.40625 37.75 41.375 43.109375 
Q 37.359375 48.484375 30.078125 48.484375 
Q 22.859375 48.484375 18.828125 43.109375 
Q 14.796875 37.75 14.796875 27.984375 
Q 14.796875 18.265625 18.828125 12.890625 
Q 22.859375 7.515625 30.078125 7.515625 
Q 37.359375 7.515625 41.375 12.890625 
Q 45.40625 18.265625 45.40625 27.984375 
z
M 54.390625 6.78125 
Q 54.390625 -7.171875 48.1875 -13.984375 
Q 42 -20.796875 29.203125 -20.796875 
Q 24.46875 -20.796875 20.265625 -20.09375 
Q 16.0625 -19.390625 12.109375 -17.921875 
L 12.109375 -9.1875 
Q 16.0625 -11.328125 19.921875 -12.34375 
Q 23.78125 -13.375 27.78125 -13.375 
Q 36.625 -13.375 41.015625 -8.765625 
Q 45.40625 -4.15625 45.40625 5.171875 
L 45.40625 9.625 
Q 42.625 4.78125 38.28125 2.390625 
Q 33.9375 0 27.875 0 
Q 17.828125 0 11.671875 7.65625 
Q 5.515625 15.328125 5.515625 27.984375 
Q 5.515625 40.671875 11.671875 48.328125 
Q 17.828125 56 27.875 56 
Q 33.9375 56 38.28125 53.609375 
Q 42.625 51.21875 45.40625 46.390625 
L 45.40625 54.6875 
L 54.390625 54.6875 
z
" id="DejaVuSans-67"/>
      <path d="M 8.59375 75.984375 
L 29.296875 75.984375 
L 29.296875 69 
L 17.578125 69 
L 17.578125 -6.203125 
L 29.296875 -6.203125 
L 29.296875 -13.1875 
L 8.59375 -13.1875 
z
" id="DejaVuSans-5b"/>
      <path d="M 9.8125 72.90625 
L 24.515625 72.90625 
L 43.109375 23.296875 
L 61.8125 72.90625 
L 76.515625 72.90625 
L 76.515625 0 
L 66.890625 0 
L 66.890625 64.015625 
L 48.09375 14.015625 
L 38.1875 14.015625 
L 19.390625 64.015625 
L 19.390625 0 
L 9.8125 0 
z
" id="DejaVuSans-4d"/>
      <path d="M 28.609375 0 
L 0.78125 72.90625 
L 11.078125 72.90625 
L 34.1875 11.53125 
L 57.328125 72.90625 
L 67.578125 72.90625 
L 39.796875 0 
z
" id="DejaVuSans-56"/>
      <path d="M 30.421875 75.984375 
L 30.421875 -13.1875 
L 9.71875 -13.1875 
L 9.71875 -6.203125 
L 21.390625 -6.203125 
L 21.390625 69 
L 9.71875 69 
L 9.71875 75.984375 
z
" id="DejaVuSans-5d"/>
     </defs>
     <g transform="translate(475.674562 468.483875)scale(0.12 -0.12)">
      <use xlink:href="#DejaVuSans-45"/>
      <use x="63.183594" xlink:href="#DejaVuSans-6e"/>
      <use x="126.5625" xlink:href="#DejaVuSans-65"/>
      <use x="188.085938" xlink:href="#DejaVuSans-72"/>
      <use x="229.183594" xlink:href="#DejaVuSans-67"/>
      <use x="292.660156" xlink:href="#DejaVuSans-79"/>
      <use x="351.839844" xlink:href="#DejaVuSans-20"/>
      <use x="383.626953" xlink:href="#DejaVuSans-5b"/>
      <use x="422.640625" xlink:href="#DejaVuSans-4d"/>
      <use x="508.919922" xlink:href="#DejaVuSans-65"/>
      <use x="570.443359" xlink:href="#DejaVuSans-56"/>
      <use x="638.851562" xlink:href="#DejaVuSans-5d"/>
     </g>
    </g>
   </g>
   <g id="matplotlib.axis_4">
    <g id="ytick_4">
     <g id="line2d_16">
      <g>
       <use style="stroke:#000000;stroke-width:0.8;" x="147.528" xlink:href="#m0cd40a1f90" y="410.844098"/>
      </g>
     </g>
     <g id="text_11">
      <!-- 100 -->
      <g transform="translate(117.623 415.40316)scale(0.12 -0.12)">
       <use xlink:href="#DejaVuSans-31"/>
       <use x="63.623047" xlink:href="#DejaVuSans-30"/>
       <use x="127.246094" xlink:href="#DejaVuSans-30"/>
      </g>
     </g>
    </g>
    <g id="ytick_5">
     <g id="line2d_17">
      <g>
       <use style="stroke:#000000;stroke-width:0.8;" x="147.528" xlink:href="#m0cd40a1f90" y="377.966049"/>
      </g>
     </g>
     <g id="text_12">
      <!-- 150 -->
      <g transform="translate(117.623 382.525111)scale(0.12 -0.12)">
       <use xlink:href="#DejaVuSans-31"/>
       <use x="63.623047" xlink:href="#DejaVuSans-35"/>
       <use x="127.246094" xlink:href="#DejaVuSans-30"/>
      </g>
     </g>
    </g>
    <g id="ytick_6">
     <g id="line2d_18">
      <g>
       <use style="stroke:#000000;stroke-width:0.8;" x="147.528" xlink:href="#m0cd40a1f90" y="345.088"/>
      </g>
     </g>
     <g id="text_13">
      <!-- 200 -->
      <g transform="translate(117.623 349.647063)scale(0.12 -0.12)">
       <use xlink:href="#DejaVuSans-32"/>
       <use x="63.623047" xlink:href="#DejaVuSans-30"/>
       <use x="127.246094" xlink:href="#DejaVuSans-30"/>
      </g>
     </g>
    </g>
    <g id="ytick_7">
     <g id="line2d_19">
      <g>
       <use style="stroke:#000000;stroke-width:0.8;" x="147.528" xlink:href="#m0cd40a1f90" y="312.209951"/>
      </g>
     </g>
     <g id="text_14">
      <!-- 250 -->
      <g transform="translate(117.623 316.769014)scale(0.12 -0.12)">
       <use xlink:href="#DejaVuSans-32"/>
       <use x="63.623047" xlink:href="#DejaVuSans-35"/>
       <use x="127.246094" xlink:href="#DejaVuSans-30"/>
      </g>
     </g>
    </g>
    <g id="ytick_8">
     <g id="line2d_20">
      <g>
       <use style="stroke:#000000;stroke-width:0.8;" x="147.528" xlink:href="#m0cd40a1f90" y="279.331902"/>
      </g>
     </g>
     <g id="text_15">
      <!-- 300 -->
      <g transform="translate(117.623 283.890965)scale(0.12 -0.12)">
       <use xlink:href="#DejaVuSans-33"/>
       <use x="63.623047" xlink:href="#DejaVuSans-30"/>
       <use x="127.246094" xlink:href="#DejaVuSans-30"/>
      </g>
     </g>
    </g>
    <g id="ytick_9">
     <g id="line2d_21">
      <g>
       <use style="stroke:#000000;stroke-width:0.8;" x="147.528" xlink:href="#m0cd40a1f90" y="246.453854"/>
      </g>
     </g>
     <g id="text_16">
      <!-- 350 -->
      <g transform="translate(117.623 251.012916)scale(0.12 -0.12)">
       <use xlink:href="#DejaVuSans-33"/>
       <use x="63.623047" xlink:href="#DejaVuSans-35"/>
       <use x="127.246094" xlink:href="#DejaVuSans-30"/>
      </g>
     </g>
    </g>
    <g id="ytick_10">
     <g id="line2d_22">
      <g>
       <use style="stroke:#000000;stroke-width:0.8;" x="147.528" xlink:href="#m0cd40a1f90" y="213.575805"/>
      </g>
     </g>
     <g id="text_17">
      <!-- 400 -->
      <g transform="translate(117.623 218.134867)scale(0.12 -0.12)">
       <use xlink:href="#DejaVuSans-34"/>
       <use x="63.623047" xlink:href="#DejaVuSans-30"/>
       <use x="127.246094" xlink:href="#DejaVuSans-30"/>
      </g>
     </g>
    </g>
    <g id="ytick_11">
     <g id="line2d_23">
      <g>
       <use style="stroke:#000000;stroke-width:0.8;" x="147.528" xlink:href="#m0cd40a1f90" y="180.697756"/>
      </g>
     </g>
     <g id="text_18">
      <!-- 450 -->
      <g transform="translate(117.623 185.256819)scale(0.12 -0.12)">
       <use xlink:href="#DejaVuSans-34"/>
       <use x="63.623047" xlink:href="#DejaVuSans-35"/>
       <use x="127.246094" xlink:href="#DejaVuSans-30"/>
      </g>
     </g>
    </g>
    <g id="ytick_12">
     <g id="line2d_24">
      <g>
       <use style="stroke:#000000;stroke-width:0.8;" x="147.528" xlink:href="#m0cd40a1f90" y="147.819707"/>
      </g>
     </g>
     <g id="text_19">
      <!-- 500 -->
      <g transform="translate(117.623 152.37877)scale(0.12 -0.12)">
       <use xlink:href="#DejaVuSans-35"/>
       <use x="63.623047" xlink:href="#DejaVuSans-30"/>
       <use x="127.246094" xlink:href="#DejaVuSans-30"/>
      </g>
     </g>
    </g>
    <g id="text_20">
     <!-- Counts -->
     <defs>
      <path d="M 64.40625 67.28125 
L 64.40625 56.890625 
Q 59.421875 61.53125 53.78125 63.8125 
Q 48.140625 66.109375 41.796875 66.109375 
Q 29.296875 66.109375 22.65625 58.46875 
Q 16.015625 50.828125 16.015625 36.375 
Q 16.015625 21.96875 22.65625 14.328125 
Q 29.296875 6.6875 41.796875 6.6875 
Q 48.140625 6.6875 53.78125 8.984375 
Q 59.421875 11.28125 64.40625 15.921875 
L 64.40625 5.609375 
Q 59.234375 2.09375 53.4375 0.328125 
Q 47.65625 -1.421875 41.21875 -1.421875 
Q 24.65625 -1.421875 15.125 8.703125 
Q 5.609375 18.84375 5.609375 36.375 
Q 5.609375 53.953125 15.125 64.078125 
Q 24.65625 74.21875 41.21875 74.21875 
Q 47.75 74.21875 53.53125 72.484375 
Q 59.328125 70.75 64.40625 67.28125 
z
" id="DejaVuSans-43"/>
     </defs>
     <g transform="translate(111.127375 312.11175)rotate(-90)scale(0.12 -0.12)">
      <use xlink:href="#DejaVuSans-43"/>
      <use x="69.824219" xlink:href="#DejaVuSans-6f"/>
      <use x="131.005859" xlink:href="#DejaVuSans-75"/>
      <use x="194.384766" xlink:href="#DejaVuSans-6e"/>
      <use x="257.763672" xlink:href="#DejaVuSans-74"/>
      <use x="296.972656" xlink:href="#DejaVuSans-73"/>
     </g>
    </g>
   </g>
   <g id="LineCollection_2">
    <path clip-path="url(#p91b6eb3cbd)" d="M 174.848 427.080848 
L 174.848 414.991737 
" style="fill:none;stroke:#0000ff;stroke-width:1.5;"/>
    <path clip-path="url(#p91b6eb3cbd)" d="M 183.280099 424.280686 
L 183.280099 411.87385 
" style="fill:none;stroke:#0000ff;stroke-width:1.5;"/>
    <path clip-path="url(#p91b6eb3cbd)" d="M 191.712198 428.945262 
L 191.712198 417.072689 
" style="fill:none;stroke:#0000ff;stroke-width:1.5;"/>
    <path clip-path="url(#p91b6eb3cbd)" d="M 200.144296 420.852906 
L 200.144296 408.06846 
" style="fill:none;stroke:#0000ff;stroke-width:1.5;"/>
    <path clip-path="url(#p91b6eb3cbd)" d="M 208.576395 417.419707 
L 208.576395 404.268488 
" style="fill:none;stroke:#0000ff;stroke-width:1.5;"/>
    <path clip-path="url(#p91b6eb3cbd)" d="M 217.008494 413.668736 
L 217.008494 400.128727 
" style="fill:none;stroke:#0000ff;stroke-width:1.5;"/>
    <path clip-path="url(#p91b6eb3cbd)" d="M 225.440593 409.599073 
L 225.440593 395.650098 
" style="fill:none;stroke:#0000ff;stroke-width:1.5;"/>
    <path clip-path="url(#p91b6eb3cbd)" d="M 233.872691 395.78425 
L 233.872691 380.532237 
" style="fill:none;stroke:#0000ff;stroke-width:1.5;"/>
    <path clip-path="url(#p91b6eb3cbd)" d="M 242.30479 393.581373 
L 242.30479 378.132188 
" style="fill:none;stroke:#0000ff;stroke-width:1.5;"/>
    <path clip-path="url(#p91b6eb3cbd)" d="M 250.736889 386.33484 
L 250.736889 370.254819 
" style="fill:none;stroke:#0000ff;stroke-width:1.5;"/>
    <path clip-path="url(#p91b6eb3cbd)" d="M 259.168988 392.951749 
L 259.168988 377.44669 
" style="fill:none;stroke:#0000ff;stroke-width:1.5;"/>
    <path clip-path="url(#p91b6eb3cbd)" d="M 267.601086 382.233617 
L 267.601086 365.807749 
" style="fill:none;stroke:#0000ff;stroke-width:1.5;"/>
    <path clip-path="url(#p91b6eb3cbd)" d="M 276.033185 359.776829 
L 276.033185 341.577708 
" style="fill:none;stroke:#0000ff;stroke-width:1.5;"/>
    <path clip-path="url(#p91b6eb3cbd)" d="M 284.465284 363.895211 
L 284.465284 346.007618 
" style="fill:none;stroke:#0000ff;stroke-width:1.5;"/>
    <path clip-path="url(#p91b6eb3cbd)" d="M 292.897383 349.945728 
L 292.897383 331.024418 
" style="fill:none;stroke:#0000ff;stroke-width:1.5;"/>
    <path clip-path="url(#p91b6eb3cbd)" d="M 301.329481 351.532327 
L 301.329481 332.725624 
" style="fill:none;stroke:#0000ff;stroke-width:1.5;"/>
    <path clip-path="url(#p91b6eb3cbd)" d="M 309.76158 347.723911 
L 309.76158 328.643309 
" style="fill:none;stroke:#0000ff;stroke-width:1.5;"/>
    <path clip-path="url(#p91b6eb3cbd)" d="M 318.193679 328.336091 
L 318.193679 307.919909 
" style="fill:none;stroke:#0000ff;stroke-width:1.5;"/>
    <path clip-path="url(#p91b6eb3cbd)" d="M 326.625778 324.517016 
L 326.625778 303.848252 
" style="fill:none;stroke:#0000ff;stroke-width:1.5;"/>
    <path clip-path="url(#p91b6eb3cbd)" d="M 335.057877 321.970115 
L 335.057877 301.134665 
" style="fill:none;stroke:#0000ff;stroke-width:1.5;"/>
    <path clip-path="url(#p91b6eb3cbd)" d="M 343.489975 309.863561 
L 343.489975 288.253902 
" style="fill:none;stroke:#0000ff;stroke-width:1.5;"/>
    <path clip-path="url(#p91b6eb3cbd)" d="M 351.922074 308.907191 
L 351.922074 287.237589 
" style="fill:none;stroke:#0000ff;stroke-width:1.5;"/>
    <path clip-path="url(#p91b6eb3cbd)" d="M 360.354173 285.930973 
L 360.354173 262.869418 
" style="fill:none;stroke:#0000ff;stroke-width:1.5;"/>
    <path clip-path="url(#p91b6eb3cbd)" d="M 368.786272 281.778059 
L 368.786272 258.474039 
" style="fill:none;stroke:#0000ff;stroke-width:1.5;"/>
    <path clip-path="url(#p91b6eb3cbd)" d="M 377.21837 262.275238 
L 377.21837 237.86564 
" style="fill:none;stroke:#0000ff;stroke-width:1.5;"/>
    <path clip-path="url(#p91b6eb3cbd)" d="M 385.650469 282.736536 
L 385.650469 259.488245 
" style="fill:none;stroke:#0000ff;stroke-width:1.5;"/>
    <path clip-path="url(#p91b6eb3cbd)" d="M 394.082568 254.915323 
L 394.082568 230.101652 
" style="fill:none;stroke:#0000ff;stroke-width:1.5;"/>
    <path clip-path="url(#p91b6eb3cbd)" d="M 402.514667 242.107849 
L 402.514667 216.606688 
" style="fill:none;stroke:#0000ff;stroke-width:1.5;"/>
    <path clip-path="url(#p91b6eb3cbd)" d="M 410.946765 233.778105 
L 410.946765 207.839846 
" style="fill:none;stroke:#0000ff;stroke-width:1.5;"/>
    <path clip-path="url(#p91b6eb3cbd)" d="M 419.378864 235.380266 
L 419.378864 209.52549 
" style="fill:none;stroke:#0000ff;stroke-width:1.5;"/>
    <path clip-path="url(#p91b6eb3cbd)" d="M 427.810963 228.329765 
L 427.810963 202.10965 
" style="fill:none;stroke:#0000ff;stroke-width:1.5;"/>
    <path clip-path="url(#p91b6eb3cbd)" d="M 436.243062 224.162373 
L 436.243062 197.728749 
" style="fill:none;stroke:#0000ff;stroke-width:1.5;"/>
    <path clip-path="url(#p91b6eb3cbd)" d="M 444.67516 219.673457 
L 444.67516 193.011812 
" style="fill:none;stroke:#0000ff;stroke-width:1.5;"/>
    <path clip-path="url(#p91b6eb3cbd)" d="M 453.107259 208.126147 
L 453.107259 180.886926 
" style="fill:none;stroke:#0000ff;stroke-width:1.5;"/>
    <path clip-path="url(#p91b6eb3cbd)" d="M 461.539358 206.521871 
L 461.539358 179.203397 
" style="fill:none;stroke:#0000ff;stroke-width:1.5;"/>
    <path clip-path="url(#p91b6eb3cbd)" d="M 469.971457 205.238368 
L 469.971457 177.856657 
" style="fill:none;stroke:#0000ff;stroke-width:1.5;"/>
    <path clip-path="url(#p91b6eb3cbd)" d="M 478.403556 208.126147 
L 478.403556 180.886926 
" style="fill:none;stroke:#0000ff;stroke-width:1.5;"/>
    <path clip-path="url(#p91b6eb3cbd)" d="M 486.835654 191.436206 
L 486.835654 163.383696 
" style="fill:none;stroke:#0000ff;stroke-width:1.5;"/>
    <path clip-path="url(#p91b6eb3cbd)" d="M 495.267753 189.830785 
L 495.267753 161.701313 
" style="fill:none;stroke:#0000ff;stroke-width:1.5;"/>
    <path clip-path="url(#p91b6eb3cbd)" d="M 503.699852 192.720467 
L 503.699852 164.729679 
" style="fill:none;stroke:#0000ff;stroke-width:1.5;"/>
    <path clip-path="url(#p91b6eb3cbd)" d="M 512.131951 203.633886 
L 512.131951 176.173333 
" style="fill:none;stroke:#0000ff;stroke-width:1.5;"/>
    <path clip-path="url(#p91b6eb3cbd)" d="M 520.564049 170.879106 
L 520.564049 141.856894 
" style="fill:none;stroke:#0000ff;stroke-width:1.5;"/>
    <path clip-path="url(#p91b6eb3cbd)" d="M 528.996148 186.940762 
L 528.996148 158.673287 
" style="fill:none;stroke:#0000ff;stroke-width:1.5;"/>
    <path clip-path="url(#p91b6eb3cbd)" d="M 537.428247 195.288784 
L 537.428247 167.42185 
" style="fill:none;stroke:#0000ff;stroke-width:1.5;"/>
    <path clip-path="url(#p91b6eb3cbd)" d="M 545.860346 188.225258 
L 545.860346 160.019035 
" style="fill:none;stroke:#0000ff;stroke-width:1.5;"/>
    <path clip-path="url(#p91b6eb3cbd)" d="M 554.292444 182.444506 
L 554.292444 153.963689 
" style="fill:none;stroke:#0000ff;stroke-width:1.5;"/>
    <path clip-path="url(#p91b6eb3cbd)" d="M 562.724543 189.188587 
L 562.724543 161.028389 
" style="fill:none;stroke:#0000ff;stroke-width:1.5;"/>
    <path clip-path="url(#p91b6eb3cbd)" d="M 571.156642 193.362572 
L 571.156642 165.402696 
" style="fill:none;stroke:#0000ff;stroke-width:1.5;"/>
    <path clip-path="url(#p91b6eb3cbd)" d="M 579.588741 200.424585 
L 579.588741 172.807024 
" style="fill:none;stroke:#0000ff;stroke-width:1.5;"/>
    <path clip-path="url(#p91b6eb3cbd)" d="M 588.02084 190.79405 
L 588.02084 162.71073 
" style="fill:none;stroke:#0000ff;stroke-width:1.5;"/>
    <path clip-path="url(#p91b6eb3cbd)" d="M 596.452938 200.424585 
L 596.452938 172.807024 
" style="fill:none;stroke:#0000ff;stroke-width:1.5;"/>
    <path clip-path="url(#p91b6eb3cbd)" d="M 604.885037 214.542084 
L 604.885037 187.622209 
" style="fill:none;stroke:#0000ff;stroke-width:1.5;"/>
    <path clip-path="url(#p91b6eb3cbd)" d="M 613.317136 218.39073 
L 613.317136 191.664294 
" style="fill:none;stroke:#0000ff;stroke-width:1.5;"/>
    <path clip-path="url(#p91b6eb3cbd)" d="M 621.749235 234.739418 
L 621.749235 208.851216 
" style="fill:none;stroke:#0000ff;stroke-width:1.5;"/>
    <path clip-path="url(#p91b6eb3cbd)" d="M 630.181333 245.310592 
L 630.181333 219.979554 
" style="fill:none;stroke:#0000ff;stroke-width:1.5;"/>
    <path clip-path="url(#p91b6eb3cbd)" d="M 638.613432 230.573383 
L 638.613432 204.468958 
" style="fill:none;stroke:#0000ff;stroke-width:1.5;"/>
    <path clip-path="url(#p91b6eb3cbd)" d="M 647.045531 244.349829 
L 647.045531 218.967635 
" style="fill:none;stroke:#0000ff;stroke-width:1.5;"/>
    <path clip-path="url(#p91b6eb3cbd)" d="M 655.47763 263.554881 
L 655.47763 239.216241 
" style="fill:none;stroke:#0000ff;stroke-width:1.5;"/>
    <path clip-path="url(#p91b6eb3cbd)" d="M 663.909728 285.611563 
L 663.909728 262.531266 
" style="fill:none;stroke:#0000ff;stroke-width:1.5;"/>
    <path clip-path="url(#p91b6eb3cbd)" d="M 672.341827 263.23498 
L 672.341827 238.878581 
" style="fill:none;stroke:#0000ff;stroke-width:1.5;"/>
    <path clip-path="url(#p91b6eb3cbd)" d="M 680.773926 282.417051 
L 680.773926 259.150169 
" style="fill:none;stroke:#0000ff;stroke-width:1.5;"/>
    <path clip-path="url(#p91b6eb3cbd)" d="M 689.206025 297.424495 
L 689.206025 275.04809 
" style="fill:none;stroke:#0000ff;stroke-width:1.5;"/>
    <path clip-path="url(#p91b6eb3cbd)" d="M 697.638123 309.54478 
L 697.638123 287.915122 
" style="fill:none;stroke:#0000ff;stroke-width:1.5;"/>
    <path clip-path="url(#p91b6eb3cbd)" d="M 706.070222 310.819847 
L 706.070222 289.270299 
" style="fill:none;stroke:#0000ff;stroke-width:1.5;"/>
    <path clip-path="url(#p91b6eb3cbd)" d="M 714.502321 314.962774 
L 714.502321 293.675665 
" style="fill:none;stroke:#0000ff;stroke-width:1.5;"/>
    <path clip-path="url(#p91b6eb3cbd)" d="M 722.93442 333.42572 
L 722.93442 313.351255 
" style="fill:none;stroke:#0000ff;stroke-width:1.5;"/>
    <path clip-path="url(#p91b6eb3cbd)" d="M 731.366519 346.136494 
L 731.366519 326.942921 
" style="fill:none;stroke:#0000ff;stroke-width:1.5;"/>
    <path clip-path="url(#p91b6eb3cbd)" d="M 739.798617 352.166869 
L 739.798617 333.406204 
" style="fill:none;stroke:#0000ff;stroke-width:1.5;"/>
    <path clip-path="url(#p91b6eb3cbd)" d="M 748.230716 347.406454 
L 748.230716 328.303204 
" style="fill:none;stroke:#0000ff;stroke-width:1.5;"/>
    <path clip-path="url(#p91b6eb3cbd)" d="M 756.662815 351.215036 
L 756.662815 332.385355 
" style="fill:none;stroke:#0000ff;stroke-width:1.5;"/>
    <path clip-path="url(#p91b6eb3cbd)" d="M 765.094914 374.969004 
L 765.094914 357.94846 
" style="fill:none;stroke:#0000ff;stroke-width:1.5;"/>
    <path clip-path="url(#p91b6eb3cbd)" d="M 773.527012 380.655262 
L 773.527012 364.098299 
" style="fill:none;stroke:#0000ff;stroke-width:1.5;"/>
    <path clip-path="url(#p91b6eb3cbd)" d="M 781.959111 389.802146 
L 781.959111 374.020683 
" style="fill:none;stroke:#0000ff;stroke-width:1.5;"/>
    <path clip-path="url(#p91b6eb3cbd)" d="M 790.39121 395.469632 
L 790.39121 380.189295 
" style="fill:none;stroke:#0000ff;stroke-width:1.5;"/>
    <path clip-path="url(#p91b6eb3cbd)" d="M 798.823309 382.549225 
L 798.823309 366.149702 
" style="fill:none;stroke:#0000ff;stroke-width:1.5;"/>
    <path clip-path="url(#p91b6eb3cbd)" d="M 807.255407 411.478134 
L 807.255407 397.716402 
" style="fill:none;stroke:#0000ff;stroke-width:1.5;"/>
    <path clip-path="url(#p91b6eb3cbd)" d="M 815.687506 400.18608 
L 815.687506 385.336262 
" style="fill:none;stroke:#0000ff;stroke-width:1.5;"/>
    <path clip-path="url(#p91b6eb3cbd)" d="M 824.119605 407.091737 
L 824.119605 392.896946 
" style="fill:none;stroke:#0000ff;stroke-width:1.5;"/>
    <path clip-path="url(#p91b6eb3cbd)" d="M 832.551704 419.293005 
L 832.551704 406.340556 
" style="fill:none;stroke:#0000ff;stroke-width:1.5;"/>
    <path clip-path="url(#p91b6eb3cbd)" d="M 840.983802 423.346402 
L 840.983802 410.835451 
" style="fill:none;stroke:#0000ff;stroke-width:1.5;"/>
    <path clip-path="url(#p91b6eb3cbd)" d="M 849.415901 431.738074 
L 849.415901 420.197926 
" style="fill:none;stroke:#0000ff;stroke-width:1.5;"/>
    <path clip-path="url(#p91b6eb3cbd)" d="M 857.848 427.391719 
L 857.848 415.338427 
" style="fill:none;stroke:#0000ff;stroke-width:1.5;"/>
   </g>
   <g id="line2d_25">
    <path clip-path="url(#p91b6eb3cbd)" d="M 174.848 437.565328 
L 179.633786 433.691752 
L 184.419572 429.541201 
L 189.205357 425.106701 
L 193.991143 420.382644 
L 198.776929 415.36497 
L 203.562715 410.051345 
L 208.348501 404.441341 
L 213.81797 397.669205 
L 219.287439 390.518225 
L 224.756909 382.99853 
L 230.226378 375.124584 
L 236.379532 365.866785 
L 242.532685 356.218938 
L 249.369522 345.0927 
L 256.890042 332.439343 
L 266.461614 315.873195 
L 296.543696 263.404971 
L 303.380533 252.105929 
L 309.533686 242.359405 
L 315.003155 234.109609 
L 319.788941 227.262863 
L 324.574727 220.806655 
L 328.676829 215.613896 
L 332.778931 210.761388 
L 336.881033 206.271852 
L 340.299451 202.823244 
L 343.71787 199.652983 
L 347.136288 196.771706 
L 350.554707 194.189154 
L 353.973125 191.914116 
L 357.391544 189.95438 
L 360.126278 188.618176 
L 362.861013 187.491057 
L 365.595748 186.57552 
L 368.330482 185.873601 
L 371.065217 185.386864 
L 373.799952 185.116392 
L 376.534687 185.062791 
L 379.269421 185.226179 
L 382.004156 185.606192 
L 384.738891 186.201982 
L 387.473626 187.012222 
L 390.20836 188.035109 
L 392.943095 189.268371 
L 395.67783 190.709279 
L 399.096248 192.797528 
L 402.514667 195.198049 
L 405.933085 197.902645 
L 409.351504 200.902133 
L 412.769922 204.186404 
L 416.18834 207.744475 
L 420.290442 212.358914 
L 424.392545 217.328811 
L 428.494647 222.631002 
L 433.280432 229.204315 
L 438.066218 236.156316 
L 443.535688 244.511412 
L 449.688841 254.35685 
L 456.525678 265.741281 
L 464.729882 279.847618 
L 478.403556 303.883295 
L 492.077229 327.778489 
L 500.965117 342.849136 
L 508.485638 355.151039 
L 515.322474 365.89211 
L 521.475628 375.148816 
L 527.628781 383.981262 
L 533.09825 391.454471 
L 538.56772 398.557431 
L 544.037189 405.280552 
L 549.506659 411.618294 
L 554.292444 416.846211 
L 559.07823 421.778665 
L 563.864016 426.418505 
L 568.649802 430.770259 
L 573.435588 434.839949 
L 578.221373 438.634908 
L 583.007159 442.163603 
L 587.792945 445.435457 
L 592.578731 448.460678 
L 597.364517 451.250098 
L 602.833986 454.163781 
L 608.303455 456.801617 
L 613.772925 459.181273 
L 619.242394 461.320479 
L 624.711864 463.236824 
L 630.865017 465.147809 
L 637.01817 466.82244 
L 643.855007 468.433731 
L 650.691844 469.811157 
L 658.212364 471.089252 
L 666.416569 472.238853 
L 675.304456 473.240781 
L 684.876028 474.086179 
L 695.814967 474.815197 
L 708.121273 475.403089 
L 722.478631 475.86325 
L 740.93809 476.216979 
L 765.550703 476.448185 
L 805.204356 476.570009 
L 857.848 476.597423 
L 857.848 476.597423 
" style="fill:none;stroke:#404040;stroke-linecap:square;stroke-width:1.5;"/>
   </g>
   <g id="line2d_26">
    <path clip-path="url(#p91b6eb3cbd)" d="M 174.848 427.141356 
L 182.368521 423.926785 
L 189.889041 420.479057 
L 197.409562 416.79066 
L 204.930082 412.85491 
L 212.450603 408.666096 
L 219.971123 404.219606 
L 227.491644 399.512072 
L 235.012164 394.541505 
L 242.532685 389.307423 
L 250.053205 383.810984 
L 257.573726 378.055107 
L 265.77793 371.485759 
L 273.982134 364.622293 
L 282.186338 357.476535 
L 291.074226 349.434047 
L 299.962114 341.100764 
L 309.533686 331.832732 
L 320.472625 320.918011 
L 332.778931 308.310274 
L 349.187339 291.148213 
L 379.953105 258.906589 
L 391.575728 247.086644 
L 401.147299 237.648981 
L 410.035187 229.196271 
L 418.239391 221.713168 
L 425.759912 215.164259 
L 432.596749 209.499176 
L 439.433586 204.135414 
L 445.586739 199.586127 
L 451.739892 195.318201 
L 457.209361 191.773949 
L 462.678831 188.47581 
L 468.1483 185.433977 
L 473.61777 182.657927 
L 479.087239 180.156372 
L 483.873025 178.198917 
L 488.658811 176.462445 
L 493.444597 174.951199 
L 498.230382 173.668885 
L 503.016168 172.618659 
L 507.801954 171.80311 
L 512.58774 171.224256 
L 517.373526 170.88353 
L 522.159311 170.781776 
L 526.945097 170.919248 
L 531.730883 171.295605 
L 536.516669 171.909912 
L 541.302454 172.76065 
L 546.08824 173.845715 
L 550.874026 175.162431 
L 555.659812 176.707561 
L 560.445598 178.477317 
L 565.231383 180.467378 
L 570.017169 182.672908 
L 575.486639 185.450491 
L 580.956108 188.493806 
L 586.425578 191.79337 
L 591.895047 195.338988 
L 598.0482 199.608374 
L 604.201353 204.159037 
L 610.354507 208.973734 
L 617.191343 214.611148 
L 624.02818 220.526665 
L 631.548701 227.323394 
L 639.752905 235.043016 
L 648.640793 243.71151 
L 658.896048 254.031093 
L 671.202354 266.738517 
L 691.712865 288.299956 
L 712.223375 309.757219 
L 725.213365 323.019142 
L 736.152304 333.872853 
L 745.723876 343.077628 
L 755.295447 351.969063 
L 764.183335 359.916163 
L 772.38754 366.968264 
L 780.591744 373.733751 
L 788.795948 380.2018 
L 796.316468 385.862721 
L 803.836989 391.262918 
L 811.35751 396.400134 
L 818.87803 401.273829 
L 826.398551 405.885053 
L 833.919071 410.23632 
L 841.439592 414.331469 
L 848.960112 418.175534 
L 856.480633 421.774598 
L 857.848 422.403185 
L 857.848 422.403185 
" style="fill:none;stroke:#ff0000;stroke-linecap:square;stroke-width:1.5;"/>
   </g>
   <g id="line2d_27">
    <g clip-path="url(#p91b6eb3cbd)">
     <use style="fill:#0000ff;stroke:#0000ff;" x="174.848" xlink:href="#m8408c22209" y="421.036293"/>
     <use style="fill:#0000ff;stroke:#0000ff;" x="183.280099" xlink:href="#m8408c22209" y="418.077268"/>
     <use style="fill:#0000ff;stroke:#0000ff;" x="191.712198" xlink:href="#m8408c22209" y="423.008976"/>
     <use style="fill:#0000ff;stroke:#0000ff;" x="200.144296" xlink:href="#m8408c22209" y="414.460683"/>
     <use style="fill:#0000ff;stroke:#0000ff;" x="208.576395" xlink:href="#m8408c22209" y="410.844098"/>
     <use style="fill:#0000ff;stroke:#0000ff;" x="217.008494" xlink:href="#m8408c22209" y="406.898732"/>
     <use style="fill:#0000ff;stroke:#0000ff;" x="225.440593" xlink:href="#m8408c22209" y="402.624585"/>
     <use style="fill:#0000ff;stroke:#0000ff;" x="233.872691" xlink:href="#m8408c22209" y="388.158244"/>
     <use style="fill:#0000ff;stroke:#0000ff;" x="242.30479" xlink:href="#m8408c22209" y="385.85678"/>
     <use style="fill:#0000ff;stroke:#0000ff;" x="250.736889" xlink:href="#m8408c22209" y="378.294829"/>
     <use style="fill:#0000ff;stroke:#0000ff;" x="259.168988" xlink:href="#m8408c22209" y="385.19922"/>
     <use style="fill:#0000ff;stroke:#0000ff;" x="267.601086" xlink:href="#m8408c22209" y="374.020683"/>
     <use style="fill:#0000ff;stroke:#0000ff;" x="276.033185" xlink:href="#m8408c22209" y="350.677268"/>
     <use style="fill:#0000ff;stroke:#0000ff;" x="284.465284" xlink:href="#m8408c22209" y="354.951415"/>
     <use style="fill:#0000ff;stroke:#0000ff;" x="292.897383" xlink:href="#m8408c22209" y="340.485073"/>
     <use style="fill:#0000ff;stroke:#0000ff;" x="301.329481" xlink:href="#m8408c22209" y="342.128976"/>
     <use style="fill:#0000ff;stroke:#0000ff;" x="309.76158" xlink:href="#m8408c22209" y="338.18361"/>
     <use style="fill:#0000ff;stroke:#0000ff;" x="318.193679" xlink:href="#m8408c22209" y="318.128"/>
     <use style="fill:#0000ff;stroke:#0000ff;" x="326.625778" xlink:href="#m8408c22209" y="314.182634"/>
     <use style="fill:#0000ff;stroke:#0000ff;" x="335.057877" xlink:href="#m8408c22209" y="311.55239"/>
     <use style="fill:#0000ff;stroke:#0000ff;" x="343.489975" xlink:href="#m8408c22209" y="299.058732"/>
     <use style="fill:#0000ff;stroke:#0000ff;" x="351.922074" xlink:href="#m8408c22209" y="298.07239"/>
     <use style="fill:#0000ff;stroke:#0000ff;" x="360.354173" xlink:href="#m8408c22209" y="274.400195"/>
     <use style="fill:#0000ff;stroke:#0000ff;" x="368.786272" xlink:href="#m8408c22209" y="270.126049"/>
     <use style="fill:#0000ff;stroke:#0000ff;" x="377.21837" xlink:href="#m8408c22209" y="250.070439"/>
     <use style="fill:#0000ff;stroke:#0000ff;" x="385.650469" xlink:href="#m8408c22209" y="271.11239"/>
     <use style="fill:#0000ff;stroke:#0000ff;" x="394.082568" xlink:href="#m8408c22209" y="242.508488"/>
     <use style="fill:#0000ff;stroke:#0000ff;" x="402.514667" xlink:href="#m8408c22209" y="229.357268"/>
     <use style="fill:#0000ff;stroke:#0000ff;" x="410.946765" xlink:href="#m8408c22209" y="220.808976"/>
     <use style="fill:#0000ff;stroke:#0000ff;" x="419.378864" xlink:href="#m8408c22209" y="222.452878"/>
     <use style="fill:#0000ff;stroke:#0000ff;" x="427.810963" xlink:href="#m8408c22209" y="215.219707"/>
     <use style="fill:#0000ff;stroke:#0000ff;" x="436.243062" xlink:href="#m8408c22209" y="210.945561"/>
     <use style="fill:#0000ff;stroke:#0000ff;" x="444.67516" xlink:href="#m8408c22209" y="206.342634"/>
     <use style="fill:#0000ff;stroke:#0000ff;" x="453.107259" xlink:href="#m8408c22209" y="194.506537"/>
     <use style="fill:#0000ff;stroke:#0000ff;" x="461.539358" xlink:href="#m8408c22209" y="192.862634"/>
     <use style="fill:#0000ff;stroke:#0000ff;" x="469.971457" xlink:href="#m8408c22209" y="191.547512"/>
     <use style="fill:#0000ff;stroke:#0000ff;" x="478.403556" xlink:href="#m8408c22209" y="194.506537"/>
     <use style="fill:#0000ff;stroke:#0000ff;" x="486.835654" xlink:href="#m8408c22209" y="177.409951"/>
     <use style="fill:#0000ff;stroke:#0000ff;" x="495.267753" xlink:href="#m8408c22209" y="175.766049"/>
     <use style="fill:#0000ff;stroke:#0000ff;" x="503.699852" xlink:href="#m8408c22209" y="178.725073"/>
     <use style="fill:#0000ff;stroke:#0000ff;" x="512.131951" xlink:href="#m8408c22209" y="189.90361"/>
     <use style="fill:#0000ff;stroke:#0000ff;" x="520.564049" xlink:href="#m8408c22209" y="156.368"/>
     <use style="fill:#0000ff;stroke:#0000ff;" x="528.996148" xlink:href="#m8408c22209" y="172.807024"/>
     <use style="fill:#0000ff;stroke:#0000ff;" x="537.428247" xlink:href="#m8408c22209" y="181.355317"/>
     <use style="fill:#0000ff;stroke:#0000ff;" x="545.860346" xlink:href="#m8408c22209" y="174.122146"/>
     <use style="fill:#0000ff;stroke:#0000ff;" x="554.292444" xlink:href="#m8408c22209" y="168.204098"/>
     <use style="fill:#0000ff;stroke:#0000ff;" x="562.724543" xlink:href="#m8408c22209" y="175.108488"/>
     <use style="fill:#0000ff;stroke:#0000ff;" x="571.156642" xlink:href="#m8408c22209" y="179.382634"/>
     <use style="fill:#0000ff;stroke:#0000ff;" x="579.588741" xlink:href="#m8408c22209" y="186.615805"/>
     <use style="fill:#0000ff;stroke:#0000ff;" x="588.02084" xlink:href="#m8408c22209" y="176.75239"/>
     <use style="fill:#0000ff;stroke:#0000ff;" x="596.452938" xlink:href="#m8408c22209" y="186.615805"/>
     <use style="fill:#0000ff;stroke:#0000ff;" x="604.885037" xlink:href="#m8408c22209" y="201.082146"/>
     <use style="fill:#0000ff;stroke:#0000ff;" x="613.317136" xlink:href="#m8408c22209" y="205.027512"/>
     <use style="fill:#0000ff;stroke:#0000ff;" x="621.749235" xlink:href="#m8408c22209" y="221.795317"/>
     <use style="fill:#0000ff;stroke:#0000ff;" x="630.181333" xlink:href="#m8408c22209" y="232.645073"/>
     <use style="fill:#0000ff;stroke:#0000ff;" x="638.613432" xlink:href="#m8408c22209" y="217.521171"/>
     <use style="fill:#0000ff;stroke:#0000ff;" x="647.045531" xlink:href="#m8408c22209" y="231.658732"/>
     <use style="fill:#0000ff;stroke:#0000ff;" x="655.47763" xlink:href="#m8408c22209" y="251.385561"/>
     <use style="fill:#0000ff;stroke:#0000ff;" x="663.909728" xlink:href="#m8408c22209" y="274.071415"/>
     <use style="fill:#0000ff;stroke:#0000ff;" x="672.341827" xlink:href="#m8408c22209" y="251.05678"/>
     <use style="fill:#0000ff;stroke:#0000ff;" x="680.773926" xlink:href="#m8408c22209" y="270.78361"/>
     <use style="fill:#0000ff;stroke:#0000ff;" x="689.206025" xlink:href="#m8408c22209" y="286.236293"/>
     <use style="fill:#0000ff;stroke:#0000ff;" x="697.638123" xlink:href="#m8408c22209" y="298.729951"/>
     <use style="fill:#0000ff;stroke:#0000ff;" x="706.070222" xlink:href="#m8408c22209" y="300.045073"/>
     <use style="fill:#0000ff;stroke:#0000ff;" x="714.502321" xlink:href="#m8408c22209" y="304.31922"/>
     <use style="fill:#0000ff;stroke:#0000ff;" x="722.93442" xlink:href="#m8408c22209" y="323.388488"/>
     <use style="fill:#0000ff;stroke:#0000ff;" x="731.366519" xlink:href="#m8408c22209" y="336.539707"/>
     <use style="fill:#0000ff;stroke:#0000ff;" x="739.798617" xlink:href="#m8408c22209" y="342.786537"/>
     <use style="fill:#0000ff;stroke:#0000ff;" x="748.230716" xlink:href="#m8408c22209" y="337.854829"/>
     <use style="fill:#0000ff;stroke:#0000ff;" x="756.662815" xlink:href="#m8408c22209" y="341.800195"/>
     <use style="fill:#0000ff;stroke:#0000ff;" x="765.094914" xlink:href="#m8408c22209" y="366.458732"/>
     <use style="fill:#0000ff;stroke:#0000ff;" x="773.527012" xlink:href="#m8408c22209" y="372.37678"/>
     <use style="fill:#0000ff;stroke:#0000ff;" x="781.959111" xlink:href="#m8408c22209" y="381.911415"/>
     <use style="fill:#0000ff;stroke:#0000ff;" x="790.39121" xlink:href="#m8408c22209" y="387.829463"/>
     <use style="fill:#0000ff;stroke:#0000ff;" x="798.823309" xlink:href="#m8408c22209" y="374.349463"/>
     <use style="fill:#0000ff;stroke:#0000ff;" x="807.255407" xlink:href="#m8408c22209" y="404.597268"/>
     <use style="fill:#0000ff;stroke:#0000ff;" x="815.687506" xlink:href="#m8408c22209" y="392.761171"/>
     <use style="fill:#0000ff;stroke:#0000ff;" x="824.119605" xlink:href="#m8408c22209" y="399.994341"/>
     <use style="fill:#0000ff;stroke:#0000ff;" x="832.551704" xlink:href="#m8408c22209" y="412.81678"/>
     <use style="fill:#0000ff;stroke:#0000ff;" x="840.983802" xlink:href="#m8408c22209" y="417.090927"/>
     <use style="fill:#0000ff;stroke:#0000ff;" x="849.415901" xlink:href="#m8408c22209" y="425.968"/>
     <use style="fill:#0000ff;stroke:#0000ff;" x="857.848" xlink:href="#m8408c22209" y="421.365073"/>
    </g>
   </g>
   <g id="patch_8">
    <path d="M 147.528 436.752 
L 147.528 145.584 
" style="fill:none;stroke:#000000;stroke-linecap:square;stroke-linejoin:miter;stroke-width:0.8;"/>
   </g>
   <g id="patch_9">
    <path d="M 885.168 436.752 
L 885.168 145.584 
" style="fill:none;stroke:#000000;stroke-linecap:square;stroke-linejoin:miter;stroke-width:0.8;"/>
   </g>
   <g id="patch_10">
    <path d="M 147.528 436.752 
L 885.168 436.752 
" style="fill:none;stroke:#000000;stroke-linecap:square;stroke-linejoin:miter;stroke-width:0.8;"/>
   </g>
   <g id="patch_11">
    <path d="M 147.528 145.584 
L 885.168 145.584 
" style="fill:none;stroke:#000000;stroke-linecap:square;stroke-linejoin:miter;stroke-width:0.8;"/>
   </g>
  </g>
 </g>
 <defs>
  <clipPath id="p7240226a97">
   <rect height="72.792" width="737.64" x="147.528" y="63.0864"/>
  </clipPath>
  <clipPath id="p91b6eb3cbd">
   <rect height="291.168" width="737.64" x="147.528" y="145.584"/>
  </clipPath>
 </defs>
</svg>
