<?xml version="1.0" encoding="utf-8" standalone="no"?>
<!DOCTYPE svg PUBLIC "-//W3C//DTD SVG 1.1//EN"
  "http://www.w3.org/Graphics/SVG/1.1/DTD/svg11.dtd">
<!-- Created with matplotlib (http://matplotlib.org/) -->
<svg height="345pt" version="1.1" viewBox="0 0 460 345" width="460pt" xmlns="http://www.w3.org/2000/svg" xmlns:xlink="http://www.w3.org/1999/xlink">
 <defs>
  <style type="text/css">
*{stroke-linecap:butt;stroke-linejoin:round;}
  </style>
 </defs>
 <g id="figure_1">
  <g id="patch_1">
   <path d="M 0 345.6 
L 460.8 345.6 
L 460.8 0 
L 0 0 
z
" style="fill:#ffffff;"/>
  </g>
  <g id="axes_1">
   <g id="patch_2">
    <path d="M 69.12 96.768 
L 414.72 96.768 
L 414.72 44.928 
L 69.12 44.928 
z
" style="fill:#ffffff;"/>
   </g>
   <g id="matplotlib.axis_1">
    <g id="xtick_1">
     <g id="line2d_1">
      <defs>
       <path d="M 0 0 
L 0 3.5 
" id="mcef7cda90d" style="stroke:#000000;stroke-width:0.8;"/>
      </defs>
      <g>
       <use style="stroke:#000000;stroke-width:0.8;" x="125.980392" xlink:href="#mcef7cda90d" y="96.768"/>
      </g>
     </g>
    </g>
    <g id="xtick_2">
     <g id="line2d_2">
      <g>
       <use style="stroke:#000000;stroke-width:0.8;" x="187.810807" xlink:href="#mcef7cda90d" y="96.768"/>
      </g>
     </g>
    </g>
    <g id="xtick_3">
     <g id="line2d_3">
      <g>
       <use style="stroke:#000000;stroke-width:0.8;" x="249.641223" xlink:href="#mcef7cda90d" y="96.768"/>
      </g>
     </g>
    </g>
    <g id="xtick_4">
     <g id="line2d_4">
      <g>
       <use style="stroke:#000000;stroke-width:0.8;" x="311.471639" xlink:href="#mcef7cda90d" y="96.768"/>
      </g>
     </g>
    </g>
    <g id="xtick_5">
     <g id="line2d_5">
      <g>
       <use style="stroke:#000000;stroke-width:0.8;" x="373.302055" xlink:href="#mcef7cda90d" y="96.768"/>
      </g>
     </g>
    </g>
   </g>
   <g id="matplotlib.axis_2">
    <g id="ytick_1">
     <g id="line2d_6">
      <defs>
       <path d="M 0 0 
L -3.5 0 
" id="mef0411de2d" style="stroke:#000000;stroke-width:0.8;"/>
      </defs>
      <g>
       <use style="stroke:#000000;stroke-width:0.8;" x="69.12" xlink:href="#mef0411de2d" y="87.800601"/>
      </g>
     </g>
     <g id="text_1">
      <!-- −1 -->
      <defs>
       <path d="M 10.59375 35.5 
L 73.1875 35.5 
L 73.1875 27.203125 
L 10.59375 27.203125 
z
" id="DejaVuSans-2212"/>
       <path d="M 12.40625 8.296875 
L 28.515625 8.296875 
L 28.515625 63.921875 
L 10.984375 60.40625 
L 10.984375 69.390625 
L 28.421875 72.90625 
L 38.28125 72.90625 
L 38.28125 8.296875 
L 54.390625 8.296875 
L 54.390625 0 
L 12.40625 0 
z
" id="DejaVuSans-31"/>
      </defs>
      <g transform="translate(40.006719 93.499429)scale(0.15 -0.15)">
       <use xlink:href="#DejaVuSans-2212"/>
       <use x="83.789062" xlink:href="#DejaVuSans-31"/>
      </g>
     </g>
    </g>
    <g id="ytick_2">
     <g id="line2d_7">
      <g>
       <use style="stroke:#000000;stroke-width:0.8;" x="69.12" xlink:href="#mef0411de2d" y="72.326581"/>
      </g>
     </g>
    </g>
    <g id="ytick_3">
     <g id="line2d_8">
      <g>
       <use style="stroke:#000000;stroke-width:0.8;" x="69.12" xlink:href="#mef0411de2d" y="56.852561"/>
      </g>
     </g>
     <g id="text_2">
      <!-- 1 -->
      <g transform="translate(52.57625 62.551389)scale(0.15 -0.15)">
       <use xlink:href="#DejaVuSans-31"/>
      </g>
     </g>
    </g>
    <g id="text_3">
     <!-- Studentized -->
     <defs>
      <path d="M 53.515625 70.515625 
L 53.515625 60.890625 
Q 47.90625 63.578125 42.921875 64.890625 
Q 37.9375 66.21875 33.296875 66.21875 
Q 25.25 66.21875 20.875 63.09375 
Q 16.5 59.96875 16.5 54.203125 
Q 16.5 49.359375 19.40625 46.890625 
Q 22.3125 44.4375 30.421875 42.921875 
L 36.375 41.703125 
Q 47.40625 39.59375 52.65625 34.296875 
Q 57.90625 29 57.90625 20.125 
Q 57.90625 9.515625 50.796875 4.046875 
Q 43.703125 -1.421875 29.984375 -1.421875 
Q 24.8125 -1.421875 18.96875 -0.25 
Q 13.140625 0.921875 6.890625 3.21875 
L 6.890625 13.375 
Q 12.890625 10.015625 18.65625 8.296875 
Q 24.421875 6.59375 29.984375 6.59375 
Q 38.421875 6.59375 43.015625 9.90625 
Q 47.609375 13.234375 47.609375 19.390625 
Q 47.609375 24.75 44.3125 27.78125 
Q 41.015625 30.8125 33.5 32.328125 
L 27.484375 33.5 
Q 16.453125 35.6875 11.515625 40.375 
Q 6.59375 45.0625 6.59375 53.421875 
Q 6.59375 63.09375 13.40625 68.65625 
Q 20.21875 74.21875 32.171875 74.21875 
Q 37.3125 74.21875 42.625 73.28125 
Q 47.953125 72.359375 53.515625 70.515625 
z
" id="DejaVuSans-53"/>
      <path d="M 18.3125 70.21875 
L 18.3125 54.6875 
L 36.8125 54.6875 
L 36.8125 47.703125 
L 18.3125 47.703125 
L 18.3125 18.015625 
Q 18.3125 11.328125 20.140625 9.421875 
Q 21.96875 7.515625 27.59375 7.515625 
L 36.8125 7.515625 
L 36.8125 0 
L 27.59375 0 
Q 17.1875 0 13.234375 3.875 
Q 9.28125 7.765625 9.28125 18.015625 
L 9.28125 47.703125 
L 2.6875 47.703125 
L 2.6875 54.6875 
L 9.28125 54.6875 
L 9.28125 70.21875 
z
" id="DejaVuSans-74"/>
      <path d="M 8.5 21.578125 
L 8.5 54.6875 
L 17.484375 54.6875 
L 17.484375 21.921875 
Q 17.484375 14.15625 20.5 10.265625 
Q 23.53125 6.390625 29.59375 6.390625 
Q 36.859375 6.390625 41.078125 11.03125 
Q 45.3125 15.671875 45.3125 23.6875 
L 45.3125 54.6875 
L 54.296875 54.6875 
L 54.296875 0 
L 45.3125 0 
L 45.3125 8.40625 
Q 42.046875 3.421875 37.71875 1 
Q 33.40625 -1.421875 27.6875 -1.421875 
Q 18.265625 -1.421875 13.375 4.4375 
Q 8.5 10.296875 8.5 21.578125 
z
M 31.109375 56 
z
" id="DejaVuSans-75"/>
      <path d="M 45.40625 46.390625 
L 45.40625 75.984375 
L 54.390625 75.984375 
L 54.390625 0 
L 45.40625 0 
L 45.40625 8.203125 
Q 42.578125 3.328125 38.25 0.953125 
Q 33.9375 -1.421875 27.875 -1.421875 
Q 17.96875 -1.421875 11.734375 6.484375 
Q 5.515625 14.40625 5.515625 27.296875 
Q 5.515625 40.1875 11.734375 48.09375 
Q 17.96875 56 27.875 56 
Q 33.9375 56 38.25 53.625 
Q 42.578125 51.265625 45.40625 46.390625 
z
M 14.796875 27.296875 
Q 14.796875 17.390625 18.875 11.75 
Q 22.953125 6.109375 30.078125 6.109375 
Q 37.203125 6.109375 41.296875 11.75 
Q 45.40625 17.390625 45.40625 27.296875 
Q 45.40625 37.203125 41.296875 42.84375 
Q 37.203125 48.484375 30.078125 48.484375 
Q 22.953125 48.484375 18.875 42.84375 
Q 14.796875 37.203125 14.796875 27.296875 
z
" id="DejaVuSans-64"/>
      <path d="M 56.203125 29.59375 
L 56.203125 25.203125 
L 14.890625 25.203125 
Q 15.484375 15.921875 20.484375 11.0625 
Q 25.484375 6.203125 34.421875 6.203125 
Q 39.59375 6.203125 44.453125 7.46875 
Q 49.3125 8.734375 54.109375 11.28125 
L 54.109375 2.78125 
Q 49.265625 0.734375 44.1875 -0.34375 
Q 39.109375 -1.421875 33.890625 -1.421875 
Q 20.796875 -1.421875 13.15625 6.1875 
Q 5.515625 13.8125 5.515625 26.8125 
Q 5.515625 40.234375 12.765625 48.109375 
Q 20.015625 56 32.328125 56 
Q 43.359375 56 49.78125 48.890625 
Q 56.203125 41.796875 56.203125 29.59375 
z
M 47.21875 32.234375 
Q 47.125 39.59375 43.09375 43.984375 
Q 39.0625 48.390625 32.421875 48.390625 
Q 24.90625 48.390625 20.390625 44.140625 
Q 15.875 39.890625 15.1875 32.171875 
z
" id="DejaVuSans-65"/>
      <path d="M 54.890625 33.015625 
L 54.890625 0 
L 45.90625 0 
L 45.90625 32.71875 
Q 45.90625 40.484375 42.875 44.328125 
Q 39.84375 48.1875 33.796875 48.1875 
Q 26.515625 48.1875 22.3125 43.546875 
Q 18.109375 38.921875 18.109375 30.90625 
L 18.109375 0 
L 9.078125 0 
L 9.078125 54.6875 
L 18.109375 54.6875 
L 18.109375 46.1875 
Q 21.34375 51.125 25.703125 53.5625 
Q 30.078125 56 35.796875 56 
Q 45.21875 56 50.046875 50.171875 
Q 54.890625 44.34375 54.890625 33.015625 
z
" id="DejaVuSans-6e"/>
      <path d="M 9.421875 54.6875 
L 18.40625 54.6875 
L 18.40625 0 
L 9.421875 0 
z
M 9.421875 75.984375 
L 18.40625 75.984375 
L 18.40625 64.59375 
L 9.421875 64.59375 
z
" id="DejaVuSans-69"/>
      <path d="M 5.515625 54.6875 
L 48.1875 54.6875 
L 48.1875 46.484375 
L 14.40625 7.171875 
L 48.1875 7.171875 
L 48.1875 0 
L 4.296875 0 
L 4.296875 8.203125 
L 38.09375 47.515625 
L 5.515625 47.515625 
z
" id="DejaVuSans-7a"/>
     </defs>
     <g transform="translate(16.090469 115.768313)rotate(-90)scale(0.15 -0.15)">
      <use xlink:href="#DejaVuSans-53"/>
      <use x="63.476562" xlink:href="#DejaVuSans-74"/>
      <use x="102.685547" xlink:href="#DejaVuSans-75"/>
      <use x="166.064453" xlink:href="#DejaVuSans-64"/>
      <use x="229.541016" xlink:href="#DejaVuSans-65"/>
      <use x="291.064453" xlink:href="#DejaVuSans-6e"/>
      <use x="354.443359" xlink:href="#DejaVuSans-74"/>
      <use x="393.652344" xlink:href="#DejaVuSans-69"/>
      <use x="421.435547" xlink:href="#DejaVuSans-7a"/>
      <use x="473.925781" xlink:href="#DejaVuSans-65"/>
      <use x="535.449219" xlink:href="#DejaVuSans-64"/>
     </g>
     <!-- Residuals -->
     <defs>
      <path d="M 44.390625 34.1875 
Q 47.5625 33.109375 50.5625 29.59375 
Q 53.5625 26.078125 56.59375 19.921875 
L 66.609375 0 
L 56 0 
L 46.6875 18.703125 
Q 43.0625 26.03125 39.671875 28.421875 
Q 36.28125 30.8125 30.421875 30.8125 
L 19.671875 30.8125 
L 19.671875 0 
L 9.8125 0 
L 9.8125 72.90625 
L 32.078125 72.90625 
Q 44.578125 72.90625 50.734375 67.671875 
Q 56.890625 62.453125 56.890625 51.90625 
Q 56.890625 45.015625 53.6875 40.46875 
Q 50.484375 35.9375 44.390625 34.1875 
z
M 19.671875 64.796875 
L 19.671875 38.921875 
L 32.078125 38.921875 
Q 39.203125 38.921875 42.84375 42.21875 
Q 46.484375 45.515625 46.484375 51.90625 
Q 46.484375 58.296875 42.84375 61.546875 
Q 39.203125 64.796875 32.078125 64.796875 
z
" id="DejaVuSans-52"/>
      <path d="M 44.28125 53.078125 
L 44.28125 44.578125 
Q 40.484375 46.53125 36.375 47.5 
Q 32.28125 48.484375 27.875 48.484375 
Q 21.1875 48.484375 17.84375 46.4375 
Q 14.5 44.390625 14.5 40.28125 
Q 14.5 37.15625 16.890625 35.375 
Q 19.28125 33.59375 26.515625 31.984375 
L 29.59375 31.296875 
Q 39.15625 29.25 43.1875 25.515625 
Q 47.21875 21.78125 47.21875 15.09375 
Q 47.21875 7.46875 41.1875 3.015625 
Q 35.15625 -1.421875 24.609375 -1.421875 
Q 20.21875 -1.421875 15.453125 -0.5625 
Q 10.6875 0.296875 5.421875 2 
L 5.421875 11.28125 
Q 10.40625 8.6875 15.234375 7.390625 
Q 20.0625 6.109375 24.8125 6.109375 
Q 31.15625 6.109375 34.5625 8.28125 
Q 37.984375 10.453125 37.984375 14.40625 
Q 37.984375 18.0625 35.515625 20.015625 
Q 33.0625 21.96875 24.703125 23.78125 
L 21.578125 24.515625 
Q 13.234375 26.265625 9.515625 29.90625 
Q 5.8125 33.546875 5.8125 39.890625 
Q 5.8125 47.609375 11.28125 51.796875 
Q 16.75 56 26.8125 56 
Q 31.78125 56 36.171875 55.265625 
Q 40.578125 54.546875 44.28125 53.078125 
z
" id="DejaVuSans-73"/>
      <path d="M 34.28125 27.484375 
Q 23.390625 27.484375 19.1875 25 
Q 14.984375 22.515625 14.984375 16.5 
Q 14.984375 11.71875 18.140625 8.90625 
Q 21.296875 6.109375 26.703125 6.109375 
Q 34.1875 6.109375 38.703125 11.40625 
Q 43.21875 16.703125 43.21875 25.484375 
L 43.21875 27.484375 
z
M 52.203125 31.203125 
L 52.203125 0 
L 43.21875 0 
L 43.21875 8.296875 
Q 40.140625 3.328125 35.546875 0.953125 
Q 30.953125 -1.421875 24.3125 -1.421875 
Q 15.921875 -1.421875 10.953125 3.296875 
Q 6 8.015625 6 15.921875 
Q 6 25.140625 12.171875 29.828125 
Q 18.359375 34.515625 30.609375 34.515625 
L 43.21875 34.515625 
L 43.21875 35.40625 
Q 43.21875 41.609375 39.140625 45 
Q 35.0625 48.390625 27.6875 48.390625 
Q 23 48.390625 18.546875 47.265625 
Q 14.109375 46.140625 10.015625 43.890625 
L 10.015625 52.203125 
Q 14.9375 54.109375 19.578125 55.046875 
Q 24.21875 56 28.609375 56 
Q 40.484375 56 46.34375 49.84375 
Q 52.203125 43.703125 52.203125 31.203125 
z
" id="DejaVuSans-61"/>
      <path d="M 9.421875 75.984375 
L 18.40625 75.984375 
L 18.40625 0 
L 9.421875 0 
z
" id="DejaVuSans-6c"/>
     </defs>
     <g transform="translate(32.887188 106.761281)rotate(-90)scale(0.15 -0.15)">
      <use xlink:href="#DejaVuSans-52"/>
      <use x="69.419922" xlink:href="#DejaVuSans-65"/>
      <use x="130.943359" xlink:href="#DejaVuSans-73"/>
      <use x="183.042969" xlink:href="#DejaVuSans-69"/>
      <use x="210.826172" xlink:href="#DejaVuSans-64"/>
      <use x="274.302734" xlink:href="#DejaVuSans-75"/>
      <use x="337.681641" xlink:href="#DejaVuSans-61"/>
      <use x="398.960938" xlink:href="#DejaVuSans-6c"/>
      <use x="426.744141" xlink:href="#DejaVuSans-73"/>
     </g>
    </g>
   </g>
   <g id="LineCollection_1">
    <path clip-path="url(#p1c465aac7b)" d="M 81.92 75.329444 
L 81.92 44.381404 
" style="fill:none;stroke:#0000ff;stroke-width:1.5;"/>
    <path clip-path="url(#p1c465aac7b)" d="M 85.598161 82.896085 
L 85.598161 51.948045 
" style="fill:none;stroke:#0000ff;stroke-width:1.5;"/>
    <path clip-path="url(#p1c465aac7b)" d="M 89.276322 87.511239 
L 89.276322 56.563199 
" style="fill:none;stroke:#0000ff;stroke-width:1.5;"/>
    <path clip-path="url(#p1c465aac7b)" d="M 92.954483 84.975261 
L 92.954483 54.027222 
" style="fill:none;stroke:#0000ff;stroke-width:1.5;"/>
    <path clip-path="url(#p1c465aac7b)" d="M 96.632644 86.878392 
L 96.632644 55.930352 
" style="fill:none;stroke:#0000ff;stroke-width:1.5;"/>
    <path clip-path="url(#p1c465aac7b)" d="M 100.310805 73.258491 
L 100.310805 42.310451 
" style="fill:none;stroke:#0000ff;stroke-width:1.5;"/>
    <path clip-path="url(#p1c465aac7b)" d="M 103.988966 84.601859 
L 103.988966 53.653819 
" style="fill:none;stroke:#0000ff;stroke-width:1.5;"/>
    <path clip-path="url(#p1c465aac7b)" d="M 107.667126 77.21226 
L 107.667126 46.26422 
" style="fill:none;stroke:#0000ff;stroke-width:1.5;"/>
    <path clip-path="url(#p1c465aac7b)" d="M 111.345287 80.959478 
L 111.345287 50.011438 
" style="fill:none;stroke:#0000ff;stroke-width:1.5;"/>
    <path clip-path="url(#p1c465aac7b)" d="M 115.023448 83.52273 
L 115.023448 52.57469 
" style="fill:none;stroke:#0000ff;stroke-width:1.5;"/>
    <path clip-path="url(#p1c465aac7b)" d="M 118.701609 86.994016 
L 118.701609 56.045976 
" style="fill:none;stroke:#0000ff;stroke-width:1.5;"/>
    <path clip-path="url(#p1c465aac7b)" d="M 122.37977 85.848046 
L 122.37977 54.900006 
" style="fill:none;stroke:#0000ff;stroke-width:1.5;"/>
    <path clip-path="url(#p1c465aac7b)" d="M 126.057931 73.512512 
L 126.057931 42.564472 
" style="fill:none;stroke:#0000ff;stroke-width:1.5;"/>
    <path clip-path="url(#p1c465aac7b)" d="M 129.736092 93.003032 
L 129.736092 62.054992 
" style="fill:none;stroke:#0000ff;stroke-width:1.5;"/>
    <path clip-path="url(#p1c465aac7b)" d="M 133.414253 84.740382 
L 133.414253 53.792343 
" style="fill:none;stroke:#0000ff;stroke-width:1.5;"/>
    <path clip-path="url(#p1c465aac7b)" d="M 137.092414 79.122356 
L 137.092414 48.174317 
" style="fill:none;stroke:#0000ff;stroke-width:1.5;"/>
    <path clip-path="url(#p1c465aac7b)" d="M 140.770575 82.824376 
L 140.770575 51.876336 
" style="fill:none;stroke:#0000ff;stroke-width:1.5;"/>
    <path clip-path="url(#p1c465aac7b)" d="M 144.448736 86.592277 
L 144.448736 55.644237 
" style="fill:none;stroke:#0000ff;stroke-width:1.5;"/>
    <path clip-path="url(#p1c465aac7b)" d="M 148.126897 83.349708 
L 148.126897 52.401668 
" style="fill:none;stroke:#0000ff;stroke-width:1.5;"/>
    <path clip-path="url(#p1c465aac7b)" d="M 151.805057 93.040683 
L 151.805057 62.092643 
" style="fill:none;stroke:#0000ff;stroke-width:1.5;"/>
    <path clip-path="url(#p1c465aac7b)" d="M 155.483218 101.061541 
L 155.483218 70.113501 
" style="fill:none;stroke:#0000ff;stroke-width:1.5;"/>
    <path clip-path="url(#p1c465aac7b)" d="M 159.161379 81.398704 
L 159.161379 50.450665 
" style="fill:none;stroke:#0000ff;stroke-width:1.5;"/>
    <path clip-path="url(#p1c465aac7b)" d="M 162.83954 81.385941 
L 162.83954 50.437902 
" style="fill:none;stroke:#0000ff;stroke-width:1.5;"/>
    <path clip-path="url(#p1c465aac7b)" d="M 166.517701 85.587258 
L 166.517701 54.639219 
" style="fill:none;stroke:#0000ff;stroke-width:1.5;"/>
    <path clip-path="url(#p1c465aac7b)" d="M 170.195862 95.647076 
L 170.195862 64.699037 
" style="fill:none;stroke:#0000ff;stroke-width:1.5;"/>
    <path clip-path="url(#p1c465aac7b)" d="M 173.874023 83.181918 
L 173.874023 52.233879 
" style="fill:none;stroke:#0000ff;stroke-width:1.5;"/>
    <path clip-path="url(#p1c465aac7b)" d="M 177.552184 98.539774 
L 177.552184 67.591734 
" style="fill:none;stroke:#0000ff;stroke-width:1.5;"/>
    <path clip-path="url(#p1c465aac7b)" d="M 181.230345 94.217944 
L 181.230345 63.269904 
" style="fill:none;stroke:#0000ff;stroke-width:1.5;"/>
    <path clip-path="url(#p1c465aac7b)" d="M 184.908506 89.939888 
L 184.908506 58.991848 
" style="fill:none;stroke:#0000ff;stroke-width:1.5;"/>
    <path clip-path="url(#p1c465aac7b)" d="M 188.586667 107.162452 
L 188.586667 76.214412 
" style="fill:none;stroke:#0000ff;stroke-width:1.5;"/>
    <path clip-path="url(#p1c465aac7b)" d="M 192.264828 99.108366 
L 192.264828 68.160326 
" style="fill:none;stroke:#0000ff;stroke-width:1.5;"/>
    <path clip-path="url(#p1c465aac7b)" d="M 195.942989 98.216769 
L 195.942989 67.268729 
" style="fill:none;stroke:#0000ff;stroke-width:1.5;"/>
    <path clip-path="url(#p1c465aac7b)" d="M 199.621149 98.080419 
L 199.621149 67.13238 
" style="fill:none;stroke:#0000ff;stroke-width:1.5;"/>
    <path clip-path="url(#p1c465aac7b)" d="M 203.29931 81.473473 
L 203.29931 50.525433 
" style="fill:none;stroke:#0000ff;stroke-width:1.5;"/>
    <path clip-path="url(#p1c465aac7b)" d="M 206.977471 105.338759 
L 206.977471 74.390719 
" style="fill:none;stroke:#0000ff;stroke-width:1.5;"/>
    <path clip-path="url(#p1c465aac7b)" d="M 210.655632 92.573845 
L 210.655632 61.625805 
" style="fill:none;stroke:#0000ff;stroke-width:1.5;"/>
    <path clip-path="url(#p1c465aac7b)" d="M 214.333793 99.330486 
L 214.333793 68.382446 
" style="fill:none;stroke:#0000ff;stroke-width:1.5;"/>
    <path clip-path="url(#p1c465aac7b)" d="M 218.011954 99.959571 
L 218.011954 69.011531 
" style="fill:none;stroke:#0000ff;stroke-width:1.5;"/>
    <path clip-path="url(#p1c465aac7b)" d="M 221.690115 97.816627 
L 221.690115 66.868587 
" style="fill:none;stroke:#0000ff;stroke-width:1.5;"/>
    <path clip-path="url(#p1c465aac7b)" d="M 225.368276 101.454993 
L 225.368276 70.506953 
" style="fill:none;stroke:#0000ff;stroke-width:1.5;"/>
    <path clip-path="url(#p1c465aac7b)" d="M 229.046437 90.17206 
L 229.046437 59.22402 
" style="fill:none;stroke:#0000ff;stroke-width:1.5;"/>
    <path clip-path="url(#p1c465aac7b)" d="M 232.724598 91.054523 
L 232.724598 60.106483 
" style="fill:none;stroke:#0000ff;stroke-width:1.5;"/>
    <path clip-path="url(#p1c465aac7b)" d="M 236.402759 76.892928 
L 236.402759 45.944888 
" style="fill:none;stroke:#0000ff;stroke-width:1.5;"/>
    <path clip-path="url(#p1c465aac7b)" d="M 240.08092 86.569157 
L 240.08092 55.621117 
" style="fill:none;stroke:#0000ff;stroke-width:1.5;"/>
    <path clip-path="url(#p1c465aac7b)" d="M 243.75908 90.192207 
L 243.75908 59.244167 
" style="fill:none;stroke:#0000ff;stroke-width:1.5;"/>
    <path clip-path="url(#p1c465aac7b)" d="M 247.437241 68.962029 
L 247.437241 38.013989 
" style="fill:none;stroke:#0000ff;stroke-width:1.5;"/>
    <path clip-path="url(#p1c465aac7b)" d="M 251.115402 74.055609 
L 251.115402 43.107569 
" style="fill:none;stroke:#0000ff;stroke-width:1.5;"/>
    <path clip-path="url(#p1c465aac7b)" d="M 254.793563 80.128297 
L 254.793563 49.180257 
" style="fill:none;stroke:#0000ff;stroke-width:1.5;"/>
    <path clip-path="url(#p1c465aac7b)" d="M 258.471724 91.341696 
L 258.471724 60.393656 
" style="fill:none;stroke:#0000ff;stroke-width:1.5;"/>
    <path clip-path="url(#p1c465aac7b)" d="M 262.149885 81.133787 
L 262.149885 50.185747 
" style="fill:none;stroke:#0000ff;stroke-width:1.5;"/>
    <path clip-path="url(#p1c465aac7b)" d="M 265.828046 74.686588 
L 265.828046 43.738548 
" style="fill:none;stroke:#0000ff;stroke-width:1.5;"/>
    <path clip-path="url(#p1c465aac7b)" d="M 269.506207 108.990755 
L 269.506207 78.042716 
" style="fill:none;stroke:#0000ff;stroke-width:1.5;"/>
    <path clip-path="url(#p1c465aac7b)" d="M 273.184368 81.12124 
L 273.184368 50.1732 
" style="fill:none;stroke:#0000ff;stroke-width:1.5;"/>
    <path clip-path="url(#p1c465aac7b)" d="M 276.862529 83.186884 
L 276.862529 52.238845 
" style="fill:none;stroke:#0000ff;stroke-width:1.5;"/>
    <path clip-path="url(#p1c465aac7b)" d="M 280.54069 87.696261 
L 280.54069 56.748221 
" style="fill:none;stroke:#0000ff;stroke-width:1.5;"/>
    <path clip-path="url(#p1c465aac7b)" d="M 284.218851 80.375408 
L 284.218851 49.427368 
" style="fill:none;stroke:#0000ff;stroke-width:1.5;"/>
    <path clip-path="url(#p1c465aac7b)" d="M 287.897011 104.037231 
L 287.897011 73.089191 
" style="fill:none;stroke:#0000ff;stroke-width:1.5;"/>
    <path clip-path="url(#p1c465aac7b)" d="M 291.575172 75.282245 
L 291.575172 44.334206 
" style="fill:none;stroke:#0000ff;stroke-width:1.5;"/>
    <path clip-path="url(#p1c465aac7b)" d="M 295.253333 66.672452 
L 295.253333 35.724412 
" style="fill:none;stroke:#0000ff;stroke-width:1.5;"/>
    <path clip-path="url(#p1c465aac7b)" d="M 298.931494 64.053581 
L 298.931494 33.105542 
" style="fill:none;stroke:#0000ff;stroke-width:1.5;"/>
    <path clip-path="url(#p1c465aac7b)" d="M 302.609655 74.812388 
L 302.609655 43.864349 
" style="fill:none;stroke:#0000ff;stroke-width:1.5;"/>
    <path clip-path="url(#p1c465aac7b)" d="M 306.287816 90.612551 
L 306.287816 59.664511 
" style="fill:none;stroke:#0000ff;stroke-width:1.5;"/>
    <path clip-path="url(#p1c465aac7b)" d="M 309.965977 87.240527 
L 309.965977 56.292488 
" style="fill:none;stroke:#0000ff;stroke-width:1.5;"/>
    <path clip-path="url(#p1c465aac7b)" d="M 313.644138 83.158656 
L 313.644138 52.210616 
" style="fill:none;stroke:#0000ff;stroke-width:1.5;"/>
    <path clip-path="url(#p1c465aac7b)" d="M 317.322299 82.941894 
L 317.322299 51.993855 
" style="fill:none;stroke:#0000ff;stroke-width:1.5;"/>
    <path clip-path="url(#p1c465aac7b)" d="M 321.00046 76.994982 
L 321.00046 46.046942 
" style="fill:none;stroke:#0000ff;stroke-width:1.5;"/>
    <path clip-path="url(#p1c465aac7b)" d="M 324.678621 80.104384 
L 324.678621 49.156345 
" style="fill:none;stroke:#0000ff;stroke-width:1.5;"/>
    <path clip-path="url(#p1c465aac7b)" d="M 328.356782 82.773729 
L 328.356782 51.825689 
" style="fill:none;stroke:#0000ff;stroke-width:1.5;"/>
    <path clip-path="url(#p1c465aac7b)" d="M 332.034943 82.26857 
L 332.034943 51.320531 
" style="fill:none;stroke:#0000ff;stroke-width:1.5;"/>
    <path clip-path="url(#p1c465aac7b)" d="M 335.713103 97.757551 
L 335.713103 66.809511 
" style="fill:none;stroke:#0000ff;stroke-width:1.5;"/>
    <path clip-path="url(#p1c465aac7b)" d="M 339.391264 76.281327 
L 339.391264 45.333287 
" style="fill:none;stroke:#0000ff;stroke-width:1.5;"/>
    <path clip-path="url(#p1c465aac7b)" d="M 343.069425 62.32202 
L 343.069425 31.37398 
" style="fill:none;stroke:#0000ff;stroke-width:1.5;"/>
    <path clip-path="url(#p1c465aac7b)" d="M 346.747586 110.32202 
L 346.747586 79.37398 
" style="fill:none;stroke:#0000ff;stroke-width:1.5;"/>
    <path clip-path="url(#p1c465aac7b)" d="M 350.425747 81.322123 
L 350.425747 50.374083 
" style="fill:none;stroke:#0000ff;stroke-width:1.5;"/>
    <path clip-path="url(#p1c465aac7b)" d="M 354.103908 91.749956 
L 354.103908 60.801917 
" style="fill:none;stroke:#0000ff;stroke-width:1.5;"/>
    <path clip-path="url(#p1c465aac7b)" d="M 357.782069 88.779896 
L 357.782069 57.831856 
" style="fill:none;stroke:#0000ff;stroke-width:1.5;"/>
    <path clip-path="url(#p1c465aac7b)" d="M 361.46023 94.519593 
L 361.46023 63.571553 
" style="fill:none;stroke:#0000ff;stroke-width:1.5;"/>
    <path clip-path="url(#p1c465aac7b)" d="M 365.138391 93.920181 
L 365.138391 62.972142 
" style="fill:none;stroke:#0000ff;stroke-width:1.5;"/>
    <path clip-path="url(#p1c465aac7b)" d="M 368.816552 96.386487 
L 368.816552 65.438448 
" style="fill:none;stroke:#0000ff;stroke-width:1.5;"/>
    <path clip-path="url(#p1c465aac7b)" d="M 372.494713 99.28838 
L 372.494713 68.34034 
" style="fill:none;stroke:#0000ff;stroke-width:1.5;"/>
    <path clip-path="url(#p1c465aac7b)" d="M 376.172874 85.642274 
L 376.172874 54.694234 
" style="fill:none;stroke:#0000ff;stroke-width:1.5;"/>
    <path clip-path="url(#p1c465aac7b)" d="M 379.851034 86.636207 
L 379.851034 55.688167 
" style="fill:none;stroke:#0000ff;stroke-width:1.5;"/>
    <path clip-path="url(#p1c465aac7b)" d="M 383.529195 108.759629 
L 383.529195 77.81159 
" style="fill:none;stroke:#0000ff;stroke-width:1.5;"/>
    <path clip-path="url(#p1c465aac7b)" d="M 387.207356 101.013324 
L 387.207356 70.065284 
" style="fill:none;stroke:#0000ff;stroke-width:1.5;"/>
    <path clip-path="url(#p1c465aac7b)" d="M 390.885517 84.152478 
L 390.885517 53.204438 
" style="fill:none;stroke:#0000ff;stroke-width:1.5;"/>
    <path clip-path="url(#p1c465aac7b)" d="M 394.563678 100.728509 
L 394.563678 69.78047 
" style="fill:none;stroke:#0000ff;stroke-width:1.5;"/>
    <path clip-path="url(#p1c465aac7b)" d="M 398.241839 95.421059 
L 398.241839 64.473019 
" style="fill:none;stroke:#0000ff;stroke-width:1.5;"/>
    <path clip-path="url(#p1c465aac7b)" d="M 401.92 94.758322 
L 401.92 63.810282 
" style="fill:none;stroke:#0000ff;stroke-width:1.5;"/>
   </g>
   <g id="line2d_9">
    <path clip-path="url(#p1c465aac7b)" d="M 81.92 72.326581 
L 401.92 72.326581 
" style="fill:none;stroke:#ff0000;stroke-linecap:square;stroke-width:1.5;"/>
   </g>
   <g id="line2d_10">
    <defs>
     <path d="M -3 0 
L 3 0 
M 0 3 
L 0 -3 
" id="me1c33e8dda" style="stroke:#0000ff;"/>
    </defs>
    <g clip-path="url(#p1c465aac7b)">
     <use style="fill:#0000ff;stroke:#0000ff;" x="81.92" xlink:href="#me1c33e8dda" y="59.855424"/>
     <use style="fill:#0000ff;stroke:#0000ff;" x="85.598161" xlink:href="#me1c33e8dda" y="67.422065"/>
     <use style="fill:#0000ff;stroke:#0000ff;" x="89.276322" xlink:href="#me1c33e8dda" y="72.037219"/>
     <use style="fill:#0000ff;stroke:#0000ff;" x="92.954483" xlink:href="#me1c33e8dda" y="69.501241"/>
     <use style="fill:#0000ff;stroke:#0000ff;" x="96.632644" xlink:href="#me1c33e8dda" y="71.404372"/>
     <use style="fill:#0000ff;stroke:#0000ff;" x="100.310805" xlink:href="#me1c33e8dda" y="57.784471"/>
     <use style="fill:#0000ff;stroke:#0000ff;" x="103.988966" xlink:href="#me1c33e8dda" y="69.127839"/>
     <use style="fill:#0000ff;stroke:#0000ff;" x="107.667126" xlink:href="#me1c33e8dda" y="61.73824"/>
     <use style="fill:#0000ff;stroke:#0000ff;" x="111.345287" xlink:href="#me1c33e8dda" y="65.485458"/>
     <use style="fill:#0000ff;stroke:#0000ff;" x="115.023448" xlink:href="#me1c33e8dda" y="68.04871"/>
     <use style="fill:#0000ff;stroke:#0000ff;" x="118.701609" xlink:href="#me1c33e8dda" y="71.519996"/>
     <use style="fill:#0000ff;stroke:#0000ff;" x="122.37977" xlink:href="#me1c33e8dda" y="70.374026"/>
     <use style="fill:#0000ff;stroke:#0000ff;" x="126.057931" xlink:href="#me1c33e8dda" y="58.038492"/>
     <use style="fill:#0000ff;stroke:#0000ff;" x="129.736092" xlink:href="#me1c33e8dda" y="77.529012"/>
     <use style="fill:#0000ff;stroke:#0000ff;" x="133.414253" xlink:href="#me1c33e8dda" y="69.266363"/>
     <use style="fill:#0000ff;stroke:#0000ff;" x="137.092414" xlink:href="#me1c33e8dda" y="63.648336"/>
     <use style="fill:#0000ff;stroke:#0000ff;" x="140.770575" xlink:href="#me1c33e8dda" y="67.350356"/>
     <use style="fill:#0000ff;stroke:#0000ff;" x="144.448736" xlink:href="#me1c33e8dda" y="71.118257"/>
     <use style="fill:#0000ff;stroke:#0000ff;" x="148.126897" xlink:href="#me1c33e8dda" y="67.875688"/>
     <use style="fill:#0000ff;stroke:#0000ff;" x="151.805057" xlink:href="#me1c33e8dda" y="77.566663"/>
     <use style="fill:#0000ff;stroke:#0000ff;" x="155.483218" xlink:href="#me1c33e8dda" y="85.587521"/>
     <use style="fill:#0000ff;stroke:#0000ff;" x="159.161379" xlink:href="#me1c33e8dda" y="65.924684"/>
     <use style="fill:#0000ff;stroke:#0000ff;" x="162.83954" xlink:href="#me1c33e8dda" y="65.911922"/>
     <use style="fill:#0000ff;stroke:#0000ff;" x="166.517701" xlink:href="#me1c33e8dda" y="70.113239"/>
     <use style="fill:#0000ff;stroke:#0000ff;" x="170.195862" xlink:href="#me1c33e8dda" y="80.173056"/>
     <use style="fill:#0000ff;stroke:#0000ff;" x="173.874023" xlink:href="#me1c33e8dda" y="67.707899"/>
     <use style="fill:#0000ff;stroke:#0000ff;" x="177.552184" xlink:href="#me1c33e8dda" y="83.065754"/>
     <use style="fill:#0000ff;stroke:#0000ff;" x="181.230345" xlink:href="#me1c33e8dda" y="78.743924"/>
     <use style="fill:#0000ff;stroke:#0000ff;" x="184.908506" xlink:href="#me1c33e8dda" y="74.465868"/>
     <use style="fill:#0000ff;stroke:#0000ff;" x="188.586667" xlink:href="#me1c33e8dda" y="91.688432"/>
     <use style="fill:#0000ff;stroke:#0000ff;" x="192.264828" xlink:href="#me1c33e8dda" y="83.634346"/>
     <use style="fill:#0000ff;stroke:#0000ff;" x="195.942989" xlink:href="#me1c33e8dda" y="82.742749"/>
     <use style="fill:#0000ff;stroke:#0000ff;" x="199.621149" xlink:href="#me1c33e8dda" y="82.6064"/>
     <use style="fill:#0000ff;stroke:#0000ff;" x="203.29931" xlink:href="#me1c33e8dda" y="65.999453"/>
     <use style="fill:#0000ff;stroke:#0000ff;" x="206.977471" xlink:href="#me1c33e8dda" y="89.864739"/>
     <use style="fill:#0000ff;stroke:#0000ff;" x="210.655632" xlink:href="#me1c33e8dda" y="77.099825"/>
     <use style="fill:#0000ff;stroke:#0000ff;" x="214.333793" xlink:href="#me1c33e8dda" y="83.856466"/>
     <use style="fill:#0000ff;stroke:#0000ff;" x="218.011954" xlink:href="#me1c33e8dda" y="84.485551"/>
     <use style="fill:#0000ff;stroke:#0000ff;" x="221.690115" xlink:href="#me1c33e8dda" y="82.342607"/>
     <use style="fill:#0000ff;stroke:#0000ff;" x="225.368276" xlink:href="#me1c33e8dda" y="85.980973"/>
     <use style="fill:#0000ff;stroke:#0000ff;" x="229.046437" xlink:href="#me1c33e8dda" y="74.69804"/>
     <use style="fill:#0000ff;stroke:#0000ff;" x="232.724598" xlink:href="#me1c33e8dda" y="75.580503"/>
     <use style="fill:#0000ff;stroke:#0000ff;" x="236.402759" xlink:href="#me1c33e8dda" y="61.418908"/>
     <use style="fill:#0000ff;stroke:#0000ff;" x="240.08092" xlink:href="#me1c33e8dda" y="71.095137"/>
     <use style="fill:#0000ff;stroke:#0000ff;" x="243.75908" xlink:href="#me1c33e8dda" y="74.718187"/>
     <use style="fill:#0000ff;stroke:#0000ff;" x="247.437241" xlink:href="#me1c33e8dda" y="53.488009"/>
     <use style="fill:#0000ff;stroke:#0000ff;" x="251.115402" xlink:href="#me1c33e8dda" y="58.581589"/>
     <use style="fill:#0000ff;stroke:#0000ff;" x="254.793563" xlink:href="#me1c33e8dda" y="64.654277"/>
     <use style="fill:#0000ff;stroke:#0000ff;" x="258.471724" xlink:href="#me1c33e8dda" y="75.867676"/>
     <use style="fill:#0000ff;stroke:#0000ff;" x="262.149885" xlink:href="#me1c33e8dda" y="65.659767"/>
     <use style="fill:#0000ff;stroke:#0000ff;" x="265.828046" xlink:href="#me1c33e8dda" y="59.212568"/>
     <use style="fill:#0000ff;stroke:#0000ff;" x="269.506207" xlink:href="#me1c33e8dda" y="93.516736"/>
     <use style="fill:#0000ff;stroke:#0000ff;" x="273.184368" xlink:href="#me1c33e8dda" y="65.64722"/>
     <use style="fill:#0000ff;stroke:#0000ff;" x="276.862529" xlink:href="#me1c33e8dda" y="67.712865"/>
     <use style="fill:#0000ff;stroke:#0000ff;" x="280.54069" xlink:href="#me1c33e8dda" y="72.222241"/>
     <use style="fill:#0000ff;stroke:#0000ff;" x="284.218851" xlink:href="#me1c33e8dda" y="64.901388"/>
     <use style="fill:#0000ff;stroke:#0000ff;" x="287.897011" xlink:href="#me1c33e8dda" y="88.563211"/>
     <use style="fill:#0000ff;stroke:#0000ff;" x="291.575172" xlink:href="#me1c33e8dda" y="59.808225"/>
     <use style="fill:#0000ff;stroke:#0000ff;" x="295.253333" xlink:href="#me1c33e8dda" y="51.198432"/>
     <use style="fill:#0000ff;stroke:#0000ff;" x="298.931494" xlink:href="#me1c33e8dda" y="48.579561"/>
     <use style="fill:#0000ff;stroke:#0000ff;" x="302.609655" xlink:href="#me1c33e8dda" y="59.338368"/>
     <use style="fill:#0000ff;stroke:#0000ff;" x="306.287816" xlink:href="#me1c33e8dda" y="75.138531"/>
     <use style="fill:#0000ff;stroke:#0000ff;" x="309.965977" xlink:href="#me1c33e8dda" y="71.766508"/>
     <use style="fill:#0000ff;stroke:#0000ff;" x="313.644138" xlink:href="#me1c33e8dda" y="67.684636"/>
     <use style="fill:#0000ff;stroke:#0000ff;" x="317.322299" xlink:href="#me1c33e8dda" y="67.467875"/>
     <use style="fill:#0000ff;stroke:#0000ff;" x="321.00046" xlink:href="#me1c33e8dda" y="61.520962"/>
     <use style="fill:#0000ff;stroke:#0000ff;" x="324.678621" xlink:href="#me1c33e8dda" y="64.630365"/>
     <use style="fill:#0000ff;stroke:#0000ff;" x="328.356782" xlink:href="#me1c33e8dda" y="67.299709"/>
     <use style="fill:#0000ff;stroke:#0000ff;" x="332.034943" xlink:href="#me1c33e8dda" y="66.79455"/>
     <use style="fill:#0000ff;stroke:#0000ff;" x="335.713103" xlink:href="#me1c33e8dda" y="82.283531"/>
     <use style="fill:#0000ff;stroke:#0000ff;" x="339.391264" xlink:href="#me1c33e8dda" y="60.807307"/>
     <use style="fill:#0000ff;stroke:#0000ff;" x="343.069425" xlink:href="#me1c33e8dda" y="46.848"/>
     <use style="fill:#0000ff;stroke:#0000ff;" x="346.747586" xlink:href="#me1c33e8dda" y="94.848"/>
     <use style="fill:#0000ff;stroke:#0000ff;" x="350.425747" xlink:href="#me1c33e8dda" y="65.848103"/>
     <use style="fill:#0000ff;stroke:#0000ff;" x="354.103908" xlink:href="#me1c33e8dda" y="76.275937"/>
     <use style="fill:#0000ff;stroke:#0000ff;" x="357.782069" xlink:href="#me1c33e8dda" y="73.305876"/>
     <use style="fill:#0000ff;stroke:#0000ff;" x="361.46023" xlink:href="#me1c33e8dda" y="79.045573"/>
     <use style="fill:#0000ff;stroke:#0000ff;" x="365.138391" xlink:href="#me1c33e8dda" y="78.446161"/>
     <use style="fill:#0000ff;stroke:#0000ff;" x="368.816552" xlink:href="#me1c33e8dda" y="80.912467"/>
     <use style="fill:#0000ff;stroke:#0000ff;" x="372.494713" xlink:href="#me1c33e8dda" y="83.81436"/>
     <use style="fill:#0000ff;stroke:#0000ff;" x="376.172874" xlink:href="#me1c33e8dda" y="70.168254"/>
     <use style="fill:#0000ff;stroke:#0000ff;" x="379.851034" xlink:href="#me1c33e8dda" y="71.162187"/>
     <use style="fill:#0000ff;stroke:#0000ff;" x="383.529195" xlink:href="#me1c33e8dda" y="93.285609"/>
     <use style="fill:#0000ff;stroke:#0000ff;" x="387.207356" xlink:href="#me1c33e8dda" y="85.539304"/>
     <use style="fill:#0000ff;stroke:#0000ff;" x="390.885517" xlink:href="#me1c33e8dda" y="68.678458"/>
     <use style="fill:#0000ff;stroke:#0000ff;" x="394.563678" xlink:href="#me1c33e8dda" y="85.254489"/>
     <use style="fill:#0000ff;stroke:#0000ff;" x="398.241839" xlink:href="#me1c33e8dda" y="79.947039"/>
     <use style="fill:#0000ff;stroke:#0000ff;" x="401.92" xlink:href="#me1c33e8dda" y="79.284302"/>
    </g>
   </g>
   <g id="patch_3">
    <path d="M 69.12 96.768 
L 69.12 44.928 
" style="fill:none;stroke:#000000;stroke-linecap:square;stroke-linejoin:miter;stroke-width:0.8;"/>
   </g>
   <g id="patch_4">
    <path d="M 414.72 96.768 
L 414.72 44.928 
" style="fill:none;stroke:#000000;stroke-linecap:square;stroke-linejoin:miter;stroke-width:0.8;"/>
   </g>
   <g id="patch_5">
    <path d="M 69.12 96.768 
L 414.72 96.768 
" style="fill:none;stroke:#000000;stroke-linecap:square;stroke-linejoin:miter;stroke-width:0.8;"/>
   </g>
   <g id="patch_6">
    <path d="M 69.12 44.928 
L 414.72 44.928 
" style="fill:none;stroke:#000000;stroke-linecap:square;stroke-linejoin:miter;stroke-width:0.8;"/>
   </g>
   <g id="text_4">
    <!-- Function (0/0): y = a*exp(-(x-x0)**2/w**2)+b -->
    <defs>
     <path d="M 9.8125 72.90625 
L 51.703125 72.90625 
L 51.703125 64.59375 
L 19.671875 64.59375 
L 19.671875 43.109375 
L 48.578125 43.109375 
L 48.578125 34.8125 
L 19.671875 34.8125 
L 19.671875 0 
L 9.8125 0 
z
" id="DejaVuSans-46"/>
     <path d="M 48.78125 52.59375 
L 48.78125 44.1875 
Q 44.96875 46.296875 41.140625 47.34375 
Q 37.3125 48.390625 33.40625 48.390625 
Q 24.65625 48.390625 19.8125 42.84375 
Q 14.984375 37.3125 14.984375 27.296875 
Q 14.984375 17.28125 19.8125 11.734375 
Q 24.65625 6.203125 33.40625 6.203125 
Q 37.3125 6.203125 41.140625 7.25 
Q 44.96875 8.296875 48.78125 10.40625 
L 48.78125 2.09375 
Q 45.015625 0.34375 40.984375 -0.53125 
Q 36.96875 -1.421875 32.421875 -1.421875 
Q 20.0625 -1.421875 12.78125 6.34375 
Q 5.515625 14.109375 5.515625 27.296875 
Q 5.515625 40.671875 12.859375 48.328125 
Q 20.21875 56 33.015625 56 
Q 37.15625 56 41.109375 55.140625 
Q 45.0625 54.296875 48.78125 52.59375 
z
" id="DejaVuSans-63"/>
     <path d="M 30.609375 48.390625 
Q 23.390625 48.390625 19.1875 42.75 
Q 14.984375 37.109375 14.984375 27.296875 
Q 14.984375 17.484375 19.15625 11.84375 
Q 23.34375 6.203125 30.609375 6.203125 
Q 37.796875 6.203125 41.984375 11.859375 
Q 46.1875 17.53125 46.1875 27.296875 
Q 46.1875 37.015625 41.984375 42.703125 
Q 37.796875 48.390625 30.609375 48.390625 
z
M 30.609375 56 
Q 42.328125 56 49.015625 48.375 
Q 55.71875 40.765625 55.71875 27.296875 
Q 55.71875 13.875 49.015625 6.21875 
Q 42.328125 -1.421875 30.609375 -1.421875 
Q 18.84375 -1.421875 12.171875 6.21875 
Q 5.515625 13.875 5.515625 27.296875 
Q 5.515625 40.765625 12.171875 48.375 
Q 18.84375 56 30.609375 56 
z
" id="DejaVuSans-6f"/>
     <path id="DejaVuSans-20"/>
     <path d="M 31 75.875 
Q 24.46875 64.65625 21.28125 53.65625 
Q 18.109375 42.671875 18.109375 31.390625 
Q 18.109375 20.125 21.3125 9.0625 
Q 24.515625 -2 31 -13.1875 
L 23.1875 -13.1875 
Q 15.875 -1.703125 12.234375 9.375 
Q 8.59375 20.453125 8.59375 31.390625 
Q 8.59375 42.28125 12.203125 53.3125 
Q 15.828125 64.359375 23.1875 75.875 
z
" id="DejaVuSans-28"/>
     <path d="M 31.78125 66.40625 
Q 24.171875 66.40625 20.328125 58.90625 
Q 16.5 51.421875 16.5 36.375 
Q 16.5 21.390625 20.328125 13.890625 
Q 24.171875 6.390625 31.78125 6.390625 
Q 39.453125 6.390625 43.28125 13.890625 
Q 47.125 21.390625 47.125 36.375 
Q 47.125 51.421875 43.28125 58.90625 
Q 39.453125 66.40625 31.78125 66.40625 
z
M 31.78125 74.21875 
Q 44.046875 74.21875 50.515625 64.515625 
Q 56.984375 54.828125 56.984375 36.375 
Q 56.984375 17.96875 50.515625 8.265625 
Q 44.046875 -1.421875 31.78125 -1.421875 
Q 19.53125 -1.421875 13.0625 8.265625 
Q 6.59375 17.96875 6.59375 36.375 
Q 6.59375 54.828125 13.0625 64.515625 
Q 19.53125 74.21875 31.78125 74.21875 
z
" id="DejaVuSans-30"/>
     <path d="M 25.390625 72.90625 
L 33.6875 72.90625 
L 8.296875 -9.28125 
L 0 -9.28125 
z
" id="DejaVuSans-2f"/>
     <path d="M 8.015625 75.875 
L 15.828125 75.875 
Q 23.140625 64.359375 26.78125 53.3125 
Q 30.421875 42.28125 30.421875 31.390625 
Q 30.421875 20.453125 26.78125 9.375 
Q 23.140625 -1.703125 15.828125 -13.1875 
L 8.015625 -13.1875 
Q 14.5 -2 17.703125 9.0625 
Q 20.90625 20.125 20.90625 31.390625 
Q 20.90625 42.671875 17.703125 53.65625 
Q 14.5 64.65625 8.015625 75.875 
z
" id="DejaVuSans-29"/>
     <path d="M 11.71875 12.40625 
L 22.015625 12.40625 
L 22.015625 0 
L 11.71875 0 
z
M 11.71875 51.703125 
L 22.015625 51.703125 
L 22.015625 39.3125 
L 11.71875 39.3125 
z
" id="DejaVuSans-3a"/>
     <path d="M 32.171875 -5.078125 
Q 28.375 -14.84375 24.75 -17.8125 
Q 21.140625 -20.796875 15.09375 -20.796875 
L 7.90625 -20.796875 
L 7.90625 -13.28125 
L 13.1875 -13.28125 
Q 16.890625 -13.28125 18.9375 -11.515625 
Q 21 -9.765625 23.484375 -3.21875 
L 25.09375 0.875 
L 2.984375 54.6875 
L 12.5 54.6875 
L 29.59375 11.921875 
L 46.6875 54.6875 
L 56.203125 54.6875 
z
" id="DejaVuSans-79"/>
     <path d="M 10.59375 45.40625 
L 73.1875 45.40625 
L 73.1875 37.203125 
L 10.59375 37.203125 
z
M 10.59375 25.484375 
L 73.1875 25.484375 
L 73.1875 17.1875 
L 10.59375 17.1875 
z
" id="DejaVuSans-3d"/>
     <path d="M 47.015625 60.890625 
L 29.5 51.421875 
L 47.015625 41.890625 
L 44.1875 37.109375 
L 27.78125 47.015625 
L 27.78125 28.609375 
L 22.21875 28.609375 
L 22.21875 47.015625 
L 5.8125 37.109375 
L 2.984375 41.890625 
L 20.515625 51.421875 
L 2.984375 60.890625 
L 5.8125 65.71875 
L 22.21875 55.8125 
L 22.21875 74.21875 
L 27.78125 74.21875 
L 27.78125 55.8125 
L 44.1875 65.71875 
z
" id="DejaVuSans-2a"/>
     <path d="M 54.890625 54.6875 
L 35.109375 28.078125 
L 55.90625 0 
L 45.3125 0 
L 29.390625 21.484375 
L 13.484375 0 
L 2.875 0 
L 24.125 28.609375 
L 4.6875 54.6875 
L 15.28125 54.6875 
L 29.78125 35.203125 
L 44.28125 54.6875 
z
" id="DejaVuSans-78"/>
     <path d="M 18.109375 8.203125 
L 18.109375 -20.796875 
L 9.078125 -20.796875 
L 9.078125 54.6875 
L 18.109375 54.6875 
L 18.109375 46.390625 
Q 20.953125 51.265625 25.265625 53.625 
Q 29.59375 56 35.59375 56 
Q 45.5625 56 51.78125 48.09375 
Q 58.015625 40.1875 58.015625 27.296875 
Q 58.015625 14.40625 51.78125 6.484375 
Q 45.5625 -1.421875 35.59375 -1.421875 
Q 29.59375 -1.421875 25.265625 0.953125 
Q 20.953125 3.328125 18.109375 8.203125 
z
M 48.6875 27.296875 
Q 48.6875 37.203125 44.609375 42.84375 
Q 40.53125 48.484375 33.40625 48.484375 
Q 26.265625 48.484375 22.1875 42.84375 
Q 18.109375 37.203125 18.109375 27.296875 
Q 18.109375 17.390625 22.1875 11.75 
Q 26.265625 6.109375 33.40625 6.109375 
Q 40.53125 6.109375 44.609375 11.75 
Q 48.6875 17.390625 48.6875 27.296875 
z
" id="DejaVuSans-70"/>
     <path d="M 4.890625 31.390625 
L 31.203125 31.390625 
L 31.203125 23.390625 
L 4.890625 23.390625 
z
" id="DejaVuSans-2d"/>
     <path d="M 19.1875 8.296875 
L 53.609375 8.296875 
L 53.609375 0 
L 7.328125 0 
L 7.328125 8.296875 
Q 12.9375 14.109375 22.625 23.890625 
Q 32.328125 33.6875 34.8125 36.53125 
Q 39.546875 41.84375 41.421875 45.53125 
Q 43.3125 49.21875 43.3125 52.78125 
Q 43.3125 58.59375 39.234375 62.25 
Q 35.15625 65.921875 28.609375 65.921875 
Q 23.96875 65.921875 18.8125 64.3125 
Q 13.671875 62.703125 7.8125 59.421875 
L 7.8125 69.390625 
Q 13.765625 71.78125 18.9375 73 
Q 24.125 74.21875 28.421875 74.21875 
Q 39.75 74.21875 46.484375 68.546875 
Q 53.21875 62.890625 53.21875 53.421875 
Q 53.21875 48.921875 51.53125 44.890625 
Q 49.859375 40.875 45.40625 35.40625 
Q 44.1875 33.984375 37.640625 27.21875 
Q 31.109375 20.453125 19.1875 8.296875 
z
" id="DejaVuSans-32"/>
     <path d="M 4.203125 54.6875 
L 13.1875 54.6875 
L 24.421875 12.015625 
L 35.59375 54.6875 
L 46.1875 54.6875 
L 57.421875 12.015625 
L 68.609375 54.6875 
L 77.59375 54.6875 
L 63.28125 0 
L 52.6875 0 
L 40.921875 44.828125 
L 29.109375 0 
L 18.5 0 
z
" id="DejaVuSans-77"/>
     <path d="M 46 62.703125 
L 46 35.5 
L 73.1875 35.5 
L 73.1875 27.203125 
L 46 27.203125 
L 46 0 
L 37.796875 0 
L 37.796875 27.203125 
L 10.59375 27.203125 
L 10.59375 35.5 
L 37.796875 35.5 
L 37.796875 62.703125 
z
" id="DejaVuSans-2b"/>
     <path d="M 48.6875 27.296875 
Q 48.6875 37.203125 44.609375 42.84375 
Q 40.53125 48.484375 33.40625 48.484375 
Q 26.265625 48.484375 22.1875 42.84375 
Q 18.109375 37.203125 18.109375 27.296875 
Q 18.109375 17.390625 22.1875 11.75 
Q 26.265625 6.109375 33.40625 6.109375 
Q 40.53125 6.109375 44.609375 11.75 
Q 48.6875 17.390625 48.6875 27.296875 
z
M 18.109375 46.390625 
Q 20.953125 51.265625 25.265625 53.625 
Q 29.59375 56 35.59375 56 
Q 45.5625 56 51.78125 48.09375 
Q 58.015625 40.1875 58.015625 27.296875 
Q 58.015625 14.40625 51.78125 6.484375 
Q 45.5625 -1.421875 35.59375 -1.421875 
Q 29.59375 -1.421875 25.265625 0.953125 
Q 20.953125 3.328125 18.109375 8.203125 
L 18.109375 0 
L 9.078125 0 
L 9.078125 75.984375 
L 18.109375 75.984375 
z
" id="DejaVuSans-62"/>
    </defs>
    <g transform="translate(69.12 27.730187)scale(0.1 -0.1)">
     <use xlink:href="#DejaVuSans-46"/>
     <use x="57.441406" xlink:href="#DejaVuSans-75"/>
     <use x="120.820312" xlink:href="#DejaVuSans-6e"/>
     <use x="184.199219" xlink:href="#DejaVuSans-63"/>
     <use x="239.179688" xlink:href="#DejaVuSans-74"/>
     <use x="278.388672" xlink:href="#DejaVuSans-69"/>
     <use x="306.171875" xlink:href="#DejaVuSans-6f"/>
     <use x="367.353516" xlink:href="#DejaVuSans-6e"/>
     <use x="430.732422" xlink:href="#DejaVuSans-20"/>
     <use x="462.519531" xlink:href="#DejaVuSans-28"/>
     <use x="501.533203" xlink:href="#DejaVuSans-30"/>
     <use x="565.15625" xlink:href="#DejaVuSans-2f"/>
     <use x="598.847656" xlink:href="#DejaVuSans-30"/>
     <use x="662.470703" xlink:href="#DejaVuSans-29"/>
     <use x="701.484375" xlink:href="#DejaVuSans-3a"/>
     <use x="735.175781" xlink:href="#DejaVuSans-20"/>
     <use x="766.962891" xlink:href="#DejaVuSans-79"/>
     <use x="826.142578" xlink:href="#DejaVuSans-20"/>
     <use x="857.929688" xlink:href="#DejaVuSans-3d"/>
     <use x="941.71875" xlink:href="#DejaVuSans-20"/>
     <use x="973.505859" xlink:href="#DejaVuSans-61"/>
     <use x="1034.785156" xlink:href="#DejaVuSans-2a"/>
     <use x="1084.785156" xlink:href="#DejaVuSans-65"/>
     <use x="1146.292969" xlink:href="#DejaVuSans-78"/>
     <use x="1205.472656" xlink:href="#DejaVuSans-70"/>
     <use x="1268.949219" xlink:href="#DejaVuSans-28"/>
     <use x="1307.962891" xlink:href="#DejaVuSans-2d"/>
     <use x="1344.046875" xlink:href="#DejaVuSans-28"/>
     <use x="1383.060547" xlink:href="#DejaVuSans-78"/>
     <use x="1442.240234" xlink:href="#DejaVuSans-2d"/>
     <use x="1478.324219" xlink:href="#DejaVuSans-78"/>
     <use x="1537.503906" xlink:href="#DejaVuSans-30"/>
     <use x="1601.126953" xlink:href="#DejaVuSans-29"/>
     <use x="1640.140625" xlink:href="#DejaVuSans-2a"/>
     <use x="1690.140625" xlink:href="#DejaVuSans-2a"/>
     <use x="1740.140625" xlink:href="#DejaVuSans-32"/>
     <use x="1803.763672" xlink:href="#DejaVuSans-2f"/>
     <use x="1837.455078" xlink:href="#DejaVuSans-77"/>
     <use x="1919.242188" xlink:href="#DejaVuSans-2a"/>
     <use x="1969.242188" xlink:href="#DejaVuSans-2a"/>
     <use x="2019.242188" xlink:href="#DejaVuSans-32"/>
     <use x="2082.865234" xlink:href="#DejaVuSans-29"/>
     <use x="2121.878906" xlink:href="#DejaVuSans-2b"/>
     <use x="2205.667969" xlink:href="#DejaVuSans-62"/>
    </g>
    <!-- Fit: a=262.0$\pm$10.0, b=36.0$\pm$11.0, x0=4.294$\pm$0.0016, w=0.1945$\pm$0.009, -->
    <defs>
     <path d="M 33.015625 40.375 
Q 26.375 40.375 22.484375 35.828125 
Q 18.609375 31.296875 18.609375 23.390625 
Q 18.609375 15.53125 22.484375 10.953125 
Q 26.375 6.390625 33.015625 6.390625 
Q 39.65625 6.390625 43.53125 10.953125 
Q 47.40625 15.53125 47.40625 23.390625 
Q 47.40625 31.296875 43.53125 35.828125 
Q 39.65625 40.375 33.015625 40.375 
z
M 52.59375 71.296875 
L 52.59375 62.3125 
Q 48.875 64.0625 45.09375 64.984375 
Q 41.3125 65.921875 37.59375 65.921875 
Q 27.828125 65.921875 22.671875 59.328125 
Q 17.53125 52.734375 16.796875 39.40625 
Q 19.671875 43.65625 24.015625 45.921875 
Q 28.375 48.1875 33.59375 48.1875 
Q 44.578125 48.1875 50.953125 41.515625 
Q 57.328125 34.859375 57.328125 23.390625 
Q 57.328125 12.15625 50.6875 5.359375 
Q 44.046875 -1.421875 33.015625 -1.421875 
Q 20.359375 -1.421875 13.671875 8.265625 
Q 6.984375 17.96875 6.984375 36.375 
Q 6.984375 53.65625 15.1875 63.9375 
Q 23.390625 74.21875 37.203125 74.21875 
Q 40.921875 74.21875 44.703125 73.484375 
Q 48.484375 72.75 52.59375 71.296875 
z
" id="DejaVuSans-36"/>
     <path d="M 10.6875 12.40625 
L 21 12.40625 
L 21 0 
L 10.6875 0 
z
" id="DejaVuSans-2e"/>
     <path d="M 46 62.703125 
L 46 43.796875 
L 73.1875 43.796875 
L 73.1875 35.5 
L 46 35.5 
L 46 16.609375 
L 37.796875 16.609375 
L 37.796875 35.5 
L 10.59375 35.5 
L 10.59375 43.796875 
L 37.796875 43.796875 
L 37.796875 62.703125 
z
M 10.59375 8.296875 
L 73.1875 8.296875 
L 73.1875 0 
L 10.59375 0 
z
" id="DejaVuSans-b1"/>
     <path d="M 11.71875 12.40625 
L 22.015625 12.40625 
L 22.015625 4 
L 14.015625 -11.625 
L 7.71875 -11.625 
L 11.71875 4 
z
" id="DejaVuSans-2c"/>
     <path d="M 40.578125 39.3125 
Q 47.65625 37.796875 51.625 33 
Q 55.609375 28.21875 55.609375 21.1875 
Q 55.609375 10.40625 48.1875 4.484375 
Q 40.765625 -1.421875 27.09375 -1.421875 
Q 22.515625 -1.421875 17.65625 -0.515625 
Q 12.796875 0.390625 7.625 2.203125 
L 7.625 11.71875 
Q 11.71875 9.328125 16.59375 8.109375 
Q 21.484375 6.890625 26.8125 6.890625 
Q 36.078125 6.890625 40.9375 10.546875 
Q 45.796875 14.203125 45.796875 21.1875 
Q 45.796875 27.640625 41.28125 31.265625 
Q 36.765625 34.90625 28.71875 34.90625 
L 20.21875 34.90625 
L 20.21875 43.015625 
L 29.109375 43.015625 
Q 36.375 43.015625 40.234375 45.921875 
Q 44.09375 48.828125 44.09375 54.296875 
Q 44.09375 59.90625 40.109375 62.90625 
Q 36.140625 65.921875 28.71875 65.921875 
Q 24.65625 65.921875 20.015625 65.03125 
Q 15.375 64.15625 9.8125 62.3125 
L 9.8125 71.09375 
Q 15.4375 72.65625 20.34375 73.4375 
Q 25.25 74.21875 29.59375 74.21875 
Q 40.828125 74.21875 47.359375 69.109375 
Q 53.90625 64.015625 53.90625 55.328125 
Q 53.90625 49.265625 50.4375 45.09375 
Q 46.96875 40.921875 40.578125 39.3125 
z
" id="DejaVuSans-33"/>
     <path d="M 37.796875 64.3125 
L 12.890625 25.390625 
L 37.796875 25.390625 
z
M 35.203125 72.90625 
L 47.609375 72.90625 
L 47.609375 25.390625 
L 58.015625 25.390625 
L 58.015625 17.1875 
L 47.609375 17.1875 
L 47.609375 0 
L 37.796875 0 
L 37.796875 17.1875 
L 4.890625 17.1875 
L 4.890625 26.703125 
z
" id="DejaVuSans-34"/>
     <path d="M 10.984375 1.515625 
L 10.984375 10.5 
Q 14.703125 8.734375 18.5 7.8125 
Q 22.3125 6.890625 25.984375 6.890625 
Q 35.75 6.890625 40.890625 13.453125 
Q 46.046875 20.015625 46.78125 33.40625 
Q 43.953125 29.203125 39.59375 26.953125 
Q 35.25 24.703125 29.984375 24.703125 
Q 19.046875 24.703125 12.671875 31.3125 
Q 6.296875 37.9375 6.296875 49.421875 
Q 6.296875 60.640625 12.9375 67.421875 
Q 19.578125 74.21875 30.609375 74.21875 
Q 43.265625 74.21875 49.921875 64.515625 
Q 56.59375 54.828125 56.59375 36.375 
Q 56.59375 19.140625 48.40625 8.859375 
Q 40.234375 -1.421875 26.421875 -1.421875 
Q 22.703125 -1.421875 18.890625 -0.6875 
Q 15.09375 0.046875 10.984375 1.515625 
z
M 30.609375 32.421875 
Q 37.25 32.421875 41.125 36.953125 
Q 45.015625 41.5 45.015625 49.421875 
Q 45.015625 57.28125 41.125 61.84375 
Q 37.25 66.40625 30.609375 66.40625 
Q 23.96875 66.40625 20.09375 61.84375 
Q 16.21875 57.28125 16.21875 49.421875 
Q 16.21875 41.5 20.09375 36.953125 
Q 23.96875 32.421875 30.609375 32.421875 
z
" id="DejaVuSans-39"/>
     <path d="M 10.796875 72.90625 
L 49.515625 72.90625 
L 49.515625 64.59375 
L 19.828125 64.59375 
L 19.828125 46.734375 
Q 21.96875 47.46875 24.109375 47.828125 
Q 26.265625 48.1875 28.421875 48.1875 
Q 40.625 48.1875 47.75 41.5 
Q 54.890625 34.8125 54.890625 23.390625 
Q 54.890625 11.625 47.5625 5.09375 
Q 40.234375 -1.421875 26.90625 -1.421875 
Q 22.3125 -1.421875 17.546875 -0.640625 
Q 12.796875 0.140625 7.71875 1.703125 
L 7.71875 11.625 
Q 12.109375 9.234375 16.796875 8.0625 
Q 21.484375 6.890625 26.703125 6.890625 
Q 35.15625 6.890625 40.078125 11.328125 
Q 45.015625 15.765625 45.015625 23.390625 
Q 45.015625 31 40.078125 35.4375 
Q 35.15625 39.890625 26.703125 39.890625 
Q 22.75 39.890625 18.8125 39.015625 
Q 14.890625 38.140625 10.796875 36.28125 
z
" id="DejaVuSans-35"/>
    </defs>
    <g transform="translate(69.12 38.928)scale(0.1 -0.1)">
     <use transform="translate(0 0.015625)" xlink:href="#DejaVuSans-46"/>
     <use transform="translate(57.519531 0.015625)" xlink:href="#DejaVuSans-69"/>
     <use transform="translate(85.302734 0.015625)" xlink:href="#DejaVuSans-74"/>
     <use transform="translate(124.511719 0.015625)" xlink:href="#DejaVuSans-3a"/>
     <use transform="translate(158.203125 0.015625)" xlink:href="#DejaVuSans-20"/>
     <use transform="translate(189.990234 0.015625)" xlink:href="#DejaVuSans-61"/>
     <use transform="translate(251.269531 0.015625)" xlink:href="#DejaVuSans-3d"/>
     <use transform="translate(335.058594 0.015625)" xlink:href="#DejaVuSans-32"/>
     <use transform="translate(398.681641 0.015625)" xlink:href="#DejaVuSans-36"/>
     <use transform="translate(462.304688 0.015625)" xlink:href="#DejaVuSans-32"/>
     <use transform="translate(525.927734 0.015625)" xlink:href="#DejaVuSans-2e"/>
     <use transform="translate(557.714844 0.015625)" xlink:href="#DejaVuSans-30"/>
     <use transform="translate(621.337891 0.015625)" xlink:href="#DejaVuSans-b1"/>
     <use transform="translate(705.126953 0.015625)" xlink:href="#DejaVuSans-31"/>
     <use transform="translate(768.75 0.015625)" xlink:href="#DejaVuSans-30"/>
     <use transform="translate(832.373047 0.015625)" xlink:href="#DejaVuSans-2e"/>
     <use transform="translate(864.160156 0.015625)" xlink:href="#DejaVuSans-30"/>
     <use transform="translate(927.783203 0.015625)" xlink:href="#DejaVuSans-2c"/>
     <use transform="translate(959.570312 0.015625)" xlink:href="#DejaVuSans-20"/>
     <use transform="translate(991.357422 0.015625)" xlink:href="#DejaVuSans-62"/>
     <use transform="translate(1054.833984 0.015625)" xlink:href="#DejaVuSans-3d"/>
     <use transform="translate(1138.623047 0.015625)" xlink:href="#DejaVuSans-33"/>
     <use transform="translate(1202.246094 0.015625)" xlink:href="#DejaVuSans-36"/>
     <use transform="translate(1265.869141 0.015625)" xlink:href="#DejaVuSans-2e"/>
     <use transform="translate(1297.65625 0.015625)" xlink:href="#DejaVuSans-30"/>
     <use transform="translate(1361.279297 0.015625)" xlink:href="#DejaVuSans-b1"/>
     <use transform="translate(1445.068359 0.015625)" xlink:href="#DejaVuSans-31"/>
     <use transform="translate(1508.691406 0.015625)" xlink:href="#DejaVuSans-31"/>
     <use transform="translate(1572.314453 0.015625)" xlink:href="#DejaVuSans-2e"/>
     <use transform="translate(1604.101562 0.015625)" xlink:href="#DejaVuSans-30"/>
     <use transform="translate(1667.724609 0.015625)" xlink:href="#DejaVuSans-2c"/>
     <use transform="translate(1699.511719 0.015625)" xlink:href="#DejaVuSans-20"/>
     <use transform="translate(1731.298828 0.015625)" xlink:href="#DejaVuSans-78"/>
     <use transform="translate(1790.478516 0.015625)" xlink:href="#DejaVuSans-30"/>
     <use transform="translate(1854.101562 0.015625)" xlink:href="#DejaVuSans-3d"/>
     <use transform="translate(1937.890625 0.015625)" xlink:href="#DejaVuSans-34"/>
     <use transform="translate(2001.513672 0.015625)" xlink:href="#DejaVuSans-2e"/>
     <use transform="translate(2033.222656 0.015625)" xlink:href="#DejaVuSans-32"/>
     <use transform="translate(2096.830078 0.015625)" xlink:href="#DejaVuSans-39"/>
     <use transform="translate(2160.453125 0.015625)" xlink:href="#DejaVuSans-34"/>
     <use transform="translate(2224.076172 0.015625)" xlink:href="#DejaVuSans-b1"/>
     <use transform="translate(2307.865234 0.015625)" xlink:href="#DejaVuSans-30"/>
     <use transform="translate(2371.488281 0.015625)" xlink:href="#DejaVuSans-2e"/>
     <use transform="translate(2403.275391 0.015625)" xlink:href="#DejaVuSans-30"/>
     <use transform="translate(2466.898438 0.015625)" xlink:href="#DejaVuSans-30"/>
     <use transform="translate(2530.521484 0.015625)" xlink:href="#DejaVuSans-31"/>
     <use transform="translate(2594.144531 0.015625)" xlink:href="#DejaVuSans-36"/>
     <use transform="translate(2657.767578 0.015625)" xlink:href="#DejaVuSans-2c"/>
     <use transform="translate(2689.554688 0.015625)" xlink:href="#DejaVuSans-20"/>
     <use transform="translate(2721.341797 0.015625)" xlink:href="#DejaVuSans-77"/>
     <use transform="translate(2803.128906 0.015625)" xlink:href="#DejaVuSans-3d"/>
     <use transform="translate(2886.917969 0.015625)" xlink:href="#DejaVuSans-30"/>
     <use transform="translate(2950.541016 0.015625)" xlink:href="#DejaVuSans-2e"/>
     <use transform="translate(2982.328125 0.015625)" xlink:href="#DejaVuSans-31"/>
     <use transform="translate(3045.951172 0.015625)" xlink:href="#DejaVuSans-39"/>
     <use transform="translate(3109.574219 0.015625)" xlink:href="#DejaVuSans-34"/>
     <use transform="translate(3173.197266 0.015625)" xlink:href="#DejaVuSans-35"/>
     <use transform="translate(3236.820312 0.015625)" xlink:href="#DejaVuSans-b1"/>
     <use transform="translate(3320.609375 0.015625)" xlink:href="#DejaVuSans-30"/>
     <use transform="translate(3384.232422 0.015625)" xlink:href="#DejaVuSans-2e"/>
     <use transform="translate(3416.019531 0.015625)" xlink:href="#DejaVuSans-30"/>
     <use transform="translate(3479.642578 0.015625)" xlink:href="#DejaVuSans-30"/>
     <use transform="translate(3543.265625 0.015625)" xlink:href="#DejaVuSans-39"/>
     <use transform="translate(3606.888672 0.015625)" xlink:href="#DejaVuSans-2c"/>
    </g>
   </g>
  </g>
  <g id="axes_2">
   <g id="patch_7">
    <path d="M 69.12 311.04 
L 414.72 311.04 
L 414.72 103.68 
L 69.12 103.68 
z
" style="fill:#ffffff;"/>
   </g>
   <g id="matplotlib.axis_3">
    <g id="xtick_6">
     <g id="line2d_11">
      <g>
       <use style="stroke:#000000;stroke-width:0.8;" x="125.980392" xlink:href="#mcef7cda90d" y="311.04"/>
      </g>
     </g>
     <g id="text_5">
      <!-- 4.1 -->
      <g transform="translate(114.053048 329.437656)scale(0.15 -0.15)">
       <use xlink:href="#DejaVuSans-34"/>
       <use x="63.623047" xlink:href="#DejaVuSans-2e"/>
       <use x="95.410156" xlink:href="#DejaVuSans-31"/>
      </g>
     </g>
    </g>
    <g id="xtick_7">
     <g id="line2d_12">
      <g>
       <use style="stroke:#000000;stroke-width:0.8;" x="187.810807" xlink:href="#mcef7cda90d" y="311.04"/>
      </g>
     </g>
     <g id="text_6">
      <!-- 4.2 -->
      <g transform="translate(175.883464 329.437656)scale(0.15 -0.15)">
       <use xlink:href="#DejaVuSans-34"/>
       <use x="63.623047" xlink:href="#DejaVuSans-2e"/>
       <use x="95.410156" xlink:href="#DejaVuSans-32"/>
      </g>
     </g>
    </g>
    <g id="xtick_8">
     <g id="line2d_13">
      <g>
       <use style="stroke:#000000;stroke-width:0.8;" x="249.641223" xlink:href="#mcef7cda90d" y="311.04"/>
      </g>
     </g>
     <g id="text_7">
      <!-- 4.3 -->
      <g transform="translate(237.71388 329.437656)scale(0.15 -0.15)">
       <use xlink:href="#DejaVuSans-34"/>
       <use x="63.623047" xlink:href="#DejaVuSans-2e"/>
       <use x="95.410156" xlink:href="#DejaVuSans-33"/>
      </g>
     </g>
    </g>
    <g id="xtick_9">
     <g id="line2d_14">
      <g>
       <use style="stroke:#000000;stroke-width:0.8;" x="311.471639" xlink:href="#mcef7cda90d" y="311.04"/>
      </g>
     </g>
     <g id="text_8">
      <!-- 4.4 -->
      <g transform="translate(299.544296 329.437656)scale(0.15 -0.15)">
       <use xlink:href="#DejaVuSans-34"/>
       <use x="63.623047" xlink:href="#DejaVuSans-2e"/>
       <use x="95.410156" xlink:href="#DejaVuSans-34"/>
      </g>
     </g>
    </g>
    <g id="xtick_10">
     <g id="line2d_15">
      <g>
       <use style="stroke:#000000;stroke-width:0.8;" x="373.302055" xlink:href="#mcef7cda90d" y="311.04"/>
      </g>
     </g>
     <g id="text_9">
      <!-- 4.5 -->
      <g transform="translate(361.374712 329.437656)scale(0.15 -0.15)">
       <use xlink:href="#DejaVuSans-34"/>
       <use x="63.623047" xlink:href="#DejaVuSans-2e"/>
       <use x="95.410156" xlink:href="#DejaVuSans-35"/>
      </g>
     </g>
    </g>
    <g id="text_10">
     <!-- Energy [MeV] -->
     <defs>
      <path d="M 9.8125 72.90625 
L 55.90625 72.90625 
L 55.90625 64.59375 
L 19.671875 64.59375 
L 19.671875 43.015625 
L 54.390625 43.015625 
L 54.390625 34.71875 
L 19.671875 34.71875 
L 19.671875 8.296875 
L 56.78125 8.296875 
L 56.78125 0 
L 9.8125 0 
z
" id="DejaVuSans-45"/>
      <path d="M 41.109375 46.296875 
Q 39.59375 47.171875 37.8125 47.578125 
Q 36.03125 48 33.890625 48 
Q 26.265625 48 22.1875 43.046875 
Q 18.109375 38.09375 18.109375 28.8125 
L 18.109375 0 
L 9.078125 0 
L 9.078125 54.6875 
L 18.109375 54.6875 
L 18.109375 46.1875 
Q 20.953125 51.171875 25.484375 53.578125 
Q 30.03125 56 36.53125 56 
Q 37.453125 56 38.578125 55.875 
Q 39.703125 55.765625 41.0625 55.515625 
z
" id="DejaVuSans-72"/>
      <path d="M 45.40625 27.984375 
Q 45.40625 37.75 41.375 43.109375 
Q 37.359375 48.484375 30.078125 48.484375 
Q 22.859375 48.484375 18.828125 43.109375 
Q 14.796875 37.75 14.796875 27.984375 
Q 14.796875 18.265625 18.828125 12.890625 
Q 22.859375 7.515625 30.078125 7.515625 
Q 37.359375 7.515625 41.375 12.890625 
Q 45.40625 18.265625 45.40625 27.984375 
z
M 54.390625 6.78125 
Q 54.390625 -7.171875 48.1875 -13.984375 
Q 42 -20.796875 29.203125 -20.796875 
Q 24.46875 -20.796875 20.265625 -20.09375 
Q 16.0625 -19.390625 12.109375 -17.921875 
L 12.109375 -9.1875 
Q 16.0625 -11.328125 19.921875 -12.34375 
Q 23.78125 -13.375 27.78125 -13.375 
Q 36.625 -13.375 41.015625 -8.765625 
Q 45.40625 -4.15625 45.40625 5.171875 
L 45.40625 9.625 
Q 42.625 4.78125 38.28125 2.390625 
Q 33.9375 0 27.875 0 
Q 17.828125 0 11.671875 7.65625 
Q 5.515625 15.328125 5.515625 27.984375 
Q 5.515625 40.671875 11.671875 48.328125 
Q 17.828125 56 27.875 56 
Q 33.9375 56 38.28125 53.609375 
Q 42.625 51.21875 45.40625 46.390625 
L 45.40625 54.6875 
L 54.390625 54.6875 
z
" id="DejaVuSans-67"/>
      <path d="M 8.59375 75.984375 
L 29.296875 75.984375 
L 29.296875 69 
L 17.578125 69 
L 17.578125 -6.203125 
L 29.296875 -6.203125 
L 29.296875 -13.1875 
L 8.59375 -13.1875 
z
" id="DejaVuSans-5b"/>
      <path d="M 9.8125 72.90625 
L 24.515625 72.90625 
L 43.109375 23.296875 
L 61.8125 72.90625 
L 76.515625 72.90625 
L 76.515625 0 
L 66.890625 0 
L 66.890625 64.015625 
L 48.09375 14.015625 
L 38.1875 14.015625 
L 19.390625 64.015625 
L 19.390625 0 
L 9.8125 0 
z
" id="DejaVuSans-4d"/>
      <path d="M 28.609375 0 
L 0.78125 72.90625 
L 11.078125 72.90625 
L 34.1875 11.53125 
L 57.328125 72.90625 
L 67.578125 72.90625 
L 39.796875 0 
z
" id="DejaVuSans-56"/>
      <path d="M 30.421875 75.984375 
L 30.421875 -13.1875 
L 9.71875 -13.1875 
L 9.71875 -6.203125 
L 21.390625 -6.203125 
L 21.390625 69 
L 9.71875 69 
L 9.71875 75.984375 
z
" id="DejaVuSans-5d"/>
     </defs>
     <g transform="translate(191.078203 347.954844)scale(0.15 -0.15)">
      <use xlink:href="#DejaVuSans-45"/>
      <use x="63.183594" xlink:href="#DejaVuSans-6e"/>
      <use x="126.5625" xlink:href="#DejaVuSans-65"/>
      <use x="188.085938" xlink:href="#DejaVuSans-72"/>
      <use x="229.183594" xlink:href="#DejaVuSans-67"/>
      <use x="292.660156" xlink:href="#DejaVuSans-79"/>
      <use x="351.839844" xlink:href="#DejaVuSans-20"/>
      <use x="383.626953" xlink:href="#DejaVuSans-5b"/>
      <use x="422.640625" xlink:href="#DejaVuSans-4d"/>
      <use x="508.919922" xlink:href="#DejaVuSans-65"/>
      <use x="570.443359" xlink:href="#DejaVuSans-56"/>
      <use x="638.851562" xlink:href="#DejaVuSans-5d"/>
     </g>
    </g>
   </g>
   <g id="matplotlib.axis_4">
    <g id="ytick_4">
     <g id="line2d_16">
      <g>
       <use style="stroke:#000000;stroke-width:0.8;" x="69.12" xlink:href="#mef0411de2d" y="288.128267"/>
      </g>
     </g>
     <g id="text_11">
      <!-- 100 -->
      <g transform="translate(33.48875 293.827095)scale(0.15 -0.15)">
       <use xlink:href="#DejaVuSans-31"/>
       <use x="63.623047" xlink:href="#DejaVuSans-30"/>
       <use x="127.246094" xlink:href="#DejaVuSans-30"/>
      </g>
     </g>
    </g>
    <g id="ytick_5">
     <g id="line2d_17">
      <g>
       <use style="stroke:#000000;stroke-width:0.8;" x="69.12" xlink:href="#mef0411de2d" y="248.04476"/>
      </g>
     </g>
     <g id="text_12">
      <!-- 150 -->
      <g transform="translate(33.48875 253.743588)scale(0.15 -0.15)">
       <use xlink:href="#DejaVuSans-31"/>
       <use x="63.623047" xlink:href="#DejaVuSans-35"/>
       <use x="127.246094" xlink:href="#DejaVuSans-30"/>
      </g>
     </g>
    </g>
    <g id="ytick_6">
     <g id="line2d_18">
      <g>
       <use style="stroke:#000000;stroke-width:0.8;" x="69.12" xlink:href="#mef0411de2d" y="207.961253"/>
      </g>
     </g>
     <g id="text_13">
      <!-- 200 -->
      <g transform="translate(33.48875 213.660081)scale(0.15 -0.15)">
       <use xlink:href="#DejaVuSans-32"/>
       <use x="63.623047" xlink:href="#DejaVuSans-30"/>
       <use x="127.246094" xlink:href="#DejaVuSans-30"/>
      </g>
     </g>
    </g>
    <g id="ytick_7">
     <g id="line2d_19">
      <g>
       <use style="stroke:#000000;stroke-width:0.8;" x="69.12" xlink:href="#mef0411de2d" y="167.877745"/>
      </g>
     </g>
     <g id="text_14">
      <!-- 250 -->
      <g transform="translate(33.48875 173.576573)scale(0.15 -0.15)">
       <use xlink:href="#DejaVuSans-32"/>
       <use x="63.623047" xlink:href="#DejaVuSans-35"/>
       <use x="127.246094" xlink:href="#DejaVuSans-30"/>
      </g>
     </g>
    </g>
    <g id="ytick_8">
     <g id="line2d_20">
      <g>
       <use style="stroke:#000000;stroke-width:0.8;" x="69.12" xlink:href="#mef0411de2d" y="127.794238"/>
      </g>
     </g>
     <g id="text_15">
      <!-- 300 -->
      <g transform="translate(33.48875 133.493066)scale(0.15 -0.15)">
       <use xlink:href="#DejaVuSans-33"/>
       <use x="63.623047" xlink:href="#DejaVuSans-30"/>
       <use x="127.246094" xlink:href="#DejaVuSans-30"/>
      </g>
     </g>
    </g>
    <g id="text_16">
     <!-- Counts -->
     <defs>
      <path d="M 64.40625 67.28125 
L 64.40625 56.890625 
Q 59.421875 61.53125 53.78125 63.8125 
Q 48.140625 66.109375 41.796875 66.109375 
Q 29.296875 66.109375 22.65625 58.46875 
Q 16.015625 50.828125 16.015625 36.375 
Q 16.015625 21.96875 22.65625 14.328125 
Q 29.296875 6.6875 41.796875 6.6875 
Q 48.140625 6.6875 53.78125 8.984375 
Q 59.421875 11.28125 64.40625 15.921875 
L 64.40625 5.609375 
Q 59.234375 2.09375 53.4375 0.328125 
Q 47.65625 -1.421875 41.21875 -1.421875 
Q 24.65625 -1.421875 15.125 8.703125 
Q 5.609375 18.84375 5.609375 36.375 
Q 5.609375 53.953125 15.125 64.078125 
Q 24.65625 74.21875 41.21875 74.21875 
Q 47.75 74.21875 53.53125 72.484375 
Q 59.328125 70.75 64.40625 67.28125 
z
" id="DejaVuSans-43"/>
     </defs>
     <g transform="translate(26.369219 233.539687)rotate(-90)scale(0.15 -0.15)">
      <use xlink:href="#DejaVuSans-43"/>
      <use x="69.824219" xlink:href="#DejaVuSans-6f"/>
      <use x="131.005859" xlink:href="#DejaVuSans-75"/>
      <use x="194.384766" xlink:href="#DejaVuSans-6e"/>
      <use x="257.763672" xlink:href="#DejaVuSans-74"/>
      <use x="296.972656" xlink:href="#DejaVuSans-73"/>
     </g>
    </g>
   </g>
   <g id="LineCollection_2">
    <path clip-path="url(#p9dea12bd05)" d="M 81.92 307.923418 
L 81.92 293.184891 
" style="fill:none;stroke:#0000ff;stroke-width:1.5;"/>
    <path clip-path="url(#p9dea12bd05)" d="M 85.598161 308.681353 
L 85.598161 294.030296 
" style="fill:none;stroke:#0000ff;stroke-width:1.5;"/>
    <path clip-path="url(#p9dea12bd05)" d="M 89.276322 307.923418 
L 89.276322 293.184891 
" style="fill:none;stroke:#0000ff;stroke-width:1.5;"/>
    <path clip-path="url(#p9dea12bd05)" d="M 92.954483 303.750279 
L 92.954483 288.539658 
" style="fill:none;stroke:#0000ff;stroke-width:1.5;"/>
    <path clip-path="url(#p9dea12bd05)" d="M 96.632644 301.470985 
L 96.632644 286.008931 
" style="fill:none;stroke:#0000ff;stroke-width:1.5;"/>
    <path clip-path="url(#p9dea12bd05)" d="M 100.310805 291.190554 
L 100.310805 274.644269 
" style="fill:none;stroke:#0000ff;stroke-width:1.5;"/>
    <path clip-path="url(#p9dea12bd05)" d="M 103.988966 293.478209 
L 103.988966 277.166635 
" style="fill:none;stroke:#0000ff;stroke-width:1.5;"/>
    <path clip-path="url(#p9dea12bd05)" d="M 107.667126 285.846424 
L 107.667126 268.765017 
" style="fill:none;stroke:#0000ff;stroke-width:1.5;"/>
    <path clip-path="url(#p9dea12bd05)" d="M 111.345287 283.935797 
L 111.345287 266.667293 
" style="fill:none;stroke:#0000ff;stroke-width:1.5;"/>
    <path clip-path="url(#p9dea12bd05)" d="M 115.023448 281.259241 
L 115.023448 263.732158 
" style="fill:none;stroke:#0000ff;stroke-width:1.5;"/>
    <path clip-path="url(#p9dea12bd05)" d="M 118.701609 278.963552 
L 118.701609 261.217826 
" style="fill:none;stroke:#0000ff;stroke-width:1.5;"/>
    <path clip-path="url(#p9dea12bd05)" d="M 122.37977 273.985056 
L 122.37977 255.77461 
" style="fill:none;stroke:#0000ff;stroke-width:1.5;"/>
    <path clip-path="url(#p9dea12bd05)" d="M 126.057931 262.090674 
L 126.057931 242.817217 
" style="fill:none;stroke:#0000ff;stroke-width:1.5;"/>
    <path clip-path="url(#p9dea12bd05)" d="M 129.736092 269.000776 
L 129.736092 250.337178 
" style="fill:none;stroke:#0000ff;stroke-width:1.5;"/>
    <path clip-path="url(#p9dea12bd05)" d="M 133.414253 259.400838 
L 133.414253 239.895362 
" style="fill:none;stroke:#0000ff;stroke-width:1.5;"/>
    <path clip-path="url(#p9dea12bd05)" d="M 137.092414 250.938405 
L 137.092414 230.721053 
" style="fill:none;stroke:#0000ff;stroke-width:1.5;"/>
    <path clip-path="url(#p9dea12bd05)" d="M 140.770575 248.243212 
L 140.770575 227.804554 
" style="fill:none;stroke:#0000ff;stroke-width:1.5;"/>
    <path clip-path="url(#p9dea12bd05)" d="M 144.448736 245.546835 
L 144.448736 224.88924 
" style="fill:none;stroke:#0000ff;stroke-width:1.5;"/>
    <path clip-path="url(#p9dea12bd05)" d="M 148.126897 238.22241 
L 148.126897 216.981933 
" style="fill:none;stroke:#0000ff;stroke-width:1.5;"/>
    <path clip-path="url(#p9dea12bd05)" d="M 151.805057 239.379432 
L 151.805057 218.229921 
" style="fill:none;stroke:#0000ff;stroke-width:1.5;"/>
    <path clip-path="url(#p9dea12bd05)" d="M 155.483218 239.379432 
L 155.483218 218.229921 
" style="fill:none;stroke:#0000ff;stroke-width:1.5;"/>
    <path clip-path="url(#p9dea12bd05)" d="M 159.161379 220.845092 
L 159.161379 198.284094 
" style="fill:none;stroke:#0000ff;stroke-width:1.5;"/>
    <path clip-path="url(#p9dea12bd05)" d="M 162.83954 215.431072 
L 162.83954 192.474732 
" style="fill:none;stroke:#0000ff;stroke-width:1.5;"/>
    <path clip-path="url(#p9dea12bd05)" d="M 166.517701 213.109743 
L 166.517701 189.98604 
" style="fill:none;stroke:#0000ff;stroke-width:1.5;"/>
    <path clip-path="url(#p9dea12bd05)" d="M 170.195862 215.044226 
L 170.195862 192.059908 
" style="fill:none;stroke:#0000ff;stroke-width:1.5;"/>
    <path clip-path="url(#p9dea12bd05)" d="M 173.874023 200.719469 
L 173.874023 176.722869 
" style="fill:none;stroke:#0000ff;stroke-width:1.5;"/>
    <path clip-path="url(#p9dea12bd05)" d="M 177.552184 206.916627 
L 177.552184 183.352433 
" style="fill:none;stroke:#0000ff;stroke-width:1.5;"/>
    <path clip-path="url(#p9dea12bd05)" d="M 181.230345 198.782063 
L 181.230345 174.651925 
" style="fill:none;stroke:#0000ff;stroke-width:1.5;"/>
    <path clip-path="url(#p9dea12bd05)" d="M 184.908506 190.641012 
L 184.908506 165.957902 
" style="fill:none;stroke:#0000ff;stroke-width:1.5;"/>
    <path clip-path="url(#p9dea12bd05)" d="M 188.586667 198.782063 
L 188.586667 174.651925 
" style="fill:none;stroke:#0000ff;stroke-width:1.5;"/>
    <path clip-path="url(#p9dea12bd05)" d="M 192.264828 188.313867 
L 192.264828 163.475026 
" style="fill:none;stroke:#0000ff;stroke-width:1.5;"/>
    <path clip-path="url(#p9dea12bd05)" d="M 195.942989 183.270067 
L 195.942989 158.097114 
" style="fill:none;stroke:#0000ff;stroke-width:1.5;"/>
    <path clip-path="url(#p9dea12bd05)" d="M 199.621149 179.000524 
L 199.621149 153.548286 
" style="fill:none;stroke:#0000ff;stroke-width:1.5;"/>
    <path clip-path="url(#p9dea12bd05)" d="M 203.29931 161.518931 
L 203.29931 134.954722 
" style="fill:none;stroke:#0000ff;stroke-width:1.5;"/>
    <path clip-path="url(#p9dea12bd05)" d="M 206.977471 177.059318 
L 206.977471 151.481141 
" style="fill:none;stroke:#0000ff;stroke-width:1.5;"/>
    <path clip-path="url(#p9dea12bd05)" d="M 210.655632 163.462485 
L 210.655632 137.019519 
" style="fill:none;stroke:#0000ff;stroke-width:1.5;"/>
    <path clip-path="url(#p9dea12bd05)" d="M 214.333793 165.794381 
L 214.333793 139.497645 
" style="fill:none;stroke:#0000ff;stroke-width:1.5;"/>
    <path clip-path="url(#p9dea12bd05)" d="M 218.011954 163.462485 
L 218.011954 137.019519 
" style="fill:none;stroke:#0000ff;stroke-width:1.5;"/>
    <path clip-path="url(#p9dea12bd05)" d="M 221.690115 159.186303 
L 221.690115 132.477329 
" style="fill:none;stroke:#0000ff;stroke-width:1.5;"/>
    <path clip-path="url(#p9dea12bd05)" d="M 225.368276 159.963889 
L 225.368276 133.303083 
" style="fill:none;stroke:#0000ff;stroke-width:1.5;"/>
    <path clip-path="url(#p9dea12bd05)" d="M 229.046437 148.684738 
L 229.046437 121.333801 
" style="fill:none;stroke:#0000ff;stroke-width:1.5;"/>
    <path clip-path="url(#p9dea12bd05)" d="M 232.724598 147.906545 
L 232.724598 120.508654 
" style="fill:none;stroke:#0000ff;stroke-width:1.5;"/>
    <path clip-path="url(#p9dea12bd05)" d="M 236.402759 134.281844 
L 236.402759 106.0749 
" style="fill:none;stroke:#0000ff;stroke-width:1.5;"/>
    <path clip-path="url(#p9dea12bd05)" d="M 240.08092 142.068831 
L 240.08092 114.321315 
" style="fill:none;stroke:#0000ff;stroke-width:1.5;"/>
    <path clip-path="url(#p9dea12bd05)" d="M 243.75908 144.793373 
L 243.75908 117.208464 
" style="fill:none;stroke:#0000ff;stroke-width:1.5;"/>
    <path clip-path="url(#p9dea12bd05)" d="M 247.437241 125.711911 
L 247.437241 97.008089 
" style="fill:none;stroke:#0000ff;stroke-width:1.5;"/>
    <path clip-path="url(#p9dea12bd05)" d="M 251.115402 130.776487 
L 251.115402 102.365225 
" style="fill:none;stroke:#0000ff;stroke-width:1.5;"/>
    <path clip-path="url(#p9dea12bd05)" d="M 254.793563 137.007717 
L 254.793563 108.960717 
" style="fill:none;stroke:#0000ff;stroke-width:1.5;"/>
    <path clip-path="url(#p9dea12bd05)" d="M 258.471724 147.906545 
L 258.471724 120.508654 
" style="fill:none;stroke:#0000ff;stroke-width:1.5;"/>
    <path clip-path="url(#p9dea12bd05)" d="M 262.149885 140.511737 
L 262.149885 112.671728 
" style="fill:none;stroke:#0000ff;stroke-width:1.5;"/>
    <path clip-path="url(#p9dea12bd05)" d="M 265.828046 136.618335 
L 265.828046 108.548429 
" style="fill:none;stroke:#0000ff;stroke-width:1.5;"/>
    <path clip-path="url(#p9dea12bd05)" d="M 269.506207 167.737315 
L 269.506207 141.563061 
" style="fill:none;stroke:#0000ff;stroke-width:1.5;"/>
    <path clip-path="url(#p9dea12bd05)" d="M 273.184368 147.128312 
L 273.184368 119.683547 
" style="fill:none;stroke:#0000ff;stroke-width:1.5;"/>
    <path clip-path="url(#p9dea12bd05)" d="M 276.862529 151.797103 
L 276.862529 124.634796 
" style="fill:none;stroke:#0000ff;stroke-width:1.5;"/>
    <path clip-path="url(#p9dea12bd05)" d="M 280.54069 158.797494 
L 280.54069 132.064469 
" style="fill:none;stroke:#0000ff;stroke-width:1.5;"/>
    <path clip-path="url(#p9dea12bd05)" d="M 284.218851 156.075527 
L 284.218851 129.174745 
" style="fill:none;stroke:#0000ff;stroke-width:1.5;"/>
    <path clip-path="url(#p9dea12bd05)" d="M 287.897011 179.000524 
L 287.897011 153.548286 
" style="fill:none;stroke:#0000ff;stroke-width:1.5;"/>
    <path clip-path="url(#p9dea12bd05)" d="M 291.575172 159.575102 
L 291.575172 132.890201 
" style="fill:none;stroke:#0000ff;stroke-width:1.5;"/>
    <path clip-path="url(#p9dea12bd05)" d="M 295.253333 156.464411 
L 295.253333 129.58753 
" style="fill:none;stroke:#0000ff;stroke-width:1.5;"/>
    <path clip-path="url(#p9dea12bd05)" d="M 298.931494 158.797494 
L 298.931494 132.064469 
" style="fill:none;stroke:#0000ff;stroke-width:1.5;"/>
    <path clip-path="url(#p9dea12bd05)" d="M 302.609655 172.787587 
L 302.609655 146.934501 
" style="fill:none;stroke:#0000ff;stroke-width:1.5;"/>
    <path clip-path="url(#p9dea12bd05)" d="M 306.287816 190.253189 
L 306.287816 165.544055 
" style="fill:none;stroke:#0000ff;stroke-width:1.5;"/>
    <path clip-path="url(#p9dea12bd05)" d="M 309.965977 192.579922 
L 309.965977 168.027343 
" style="fill:none;stroke:#0000ff;stroke-width:1.5;"/>
    <path clip-path="url(#p9dea12bd05)" d="M 313.644138 194.518484 
L 313.644138 170.097132 
" style="fill:none;stroke:#0000ff;stroke-width:1.5;"/>
    <path clip-path="url(#p9dea12bd05)" d="M 317.322299 199.55707 
L 317.322299 175.480258 
" style="fill:none;stroke:#0000ff;stroke-width:1.5;"/>
    <path clip-path="url(#p9dea12bd05)" d="M 321.00046 200.332018 
L 321.00046 176.30865 
" style="fill:none;stroke:#0000ff;stroke-width:1.5;"/>
    <path clip-path="url(#p9dea12bd05)" d="M 324.678621 208.078151 
L 324.678621 184.59592 
" style="fill:none;stroke:#0000ff;stroke-width:1.5;"/>
    <path clip-path="url(#p9dea12bd05)" d="M 328.356782 215.431072 
L 328.356782 192.474732 
" style="fill:none;stroke:#0000ff;stroke-width:1.5;"/>
    <path clip-path="url(#p9dea12bd05)" d="M 332.034943 220.458491 
L 332.034943 197.869025 
" style="fill:none;stroke:#0000ff;stroke-width:1.5;"/>
    <path clip-path="url(#p9dea12bd05)" d="M 335.713103 236.29361 
L 335.713103 214.902382 
" style="fill:none;stroke:#0000ff;stroke-width:1.5;"/>
    <path clip-path="url(#p9dea12bd05)" d="M 339.391264 227.028214 
L 339.391264 204.927694 
" style="fill:none;stroke:#0000ff;stroke-width:1.5;"/>
    <path clip-path="url(#p9dea12bd05)" d="M 343.069425 222.391315 
L 343.069425 199.944551 
" style="fill:none;stroke:#0000ff;stroke-width:1.5;"/>
    <path clip-path="url(#p9dea12bd05)" d="M 346.747586 259.016464 
L 346.747586 239.478067 
" style="fill:none;stroke:#0000ff;stroke-width:1.5;"/>
    <path clip-path="url(#p9dea12bd05)" d="M 350.425747 246.317347 
L 350.425747 225.722068 
" style="fill:none;stroke:#0000ff;stroke-width:1.5;"/>
    <path clip-path="url(#p9dea12bd05)" d="M 354.103908 257.863174 
L 354.103908 238.226346 
" style="fill:none;stroke:#0000ff;stroke-width:1.5;"/>
    <path clip-path="url(#p9dea12bd05)" d="M 357.782069 260.938058 
L 357.782069 241.564823 
" style="fill:none;stroke:#0000ff;stroke-width:1.5;"/>
    <path clip-path="url(#p9dea12bd05)" d="M 361.46023 269.000776 
L 361.46023 250.337178 
" style="fill:none;stroke:#0000ff;stroke-width:1.5;"/>
    <path clip-path="url(#p9dea12bd05)" d="M 365.138391 273.218609 
L 365.138391 254.937717 
" style="fill:none;stroke:#0000ff;stroke-width:1.5;"/>
    <path clip-path="url(#p9dea12bd05)" d="M 368.816552 278.963552 
L 368.816552 261.217826 
" style="fill:none;stroke:#0000ff;stroke-width:1.5;"/>
    <path clip-path="url(#p9dea12bd05)" d="M 372.494713 284.70017 
L 372.494713 267.50626 
" style="fill:none;stroke:#0000ff;stroke-width:1.5;"/>
    <path clip-path="url(#p9dea12bd05)" d="M 376.172874 281.641723 
L 376.172874 264.151346 
" style="fill:none;stroke:#0000ff;stroke-width:1.5;"/>
    <path clip-path="url(#p9dea12bd05)" d="M 379.851034 286.228426 
L 379.851034 269.184685 
" style="fill:none;stroke:#0000ff;stroke-width:1.5;"/>
    <path clip-path="url(#p9dea12bd05)" d="M 383.529195 300.710769 
L 383.529195 285.165808 
" style="fill:none;stroke:#0000ff;stroke-width:1.5;"/>
    <path clip-path="url(#p9dea12bd05)" d="M 387.207356 300.710769 
L 387.207356 285.165808 
" style="fill:none;stroke:#0000ff;stroke-width:1.5;"/>
    <path clip-path="url(#p9dea12bd05)" d="M 390.885517 296.144969 
L 390.885517 280.111566 
" style="fill:none;stroke:#0000ff;stroke-width:1.5;"/>
    <path clip-path="url(#p9dea12bd05)" d="M 394.563678 307.165224 
L 394.563678 292.339744 
" style="fill:none;stroke:#0000ff;stroke-width:1.5;"/>
    <path clip-path="url(#p9dea12bd05)" d="M 398.241839 307.923418 
L 398.241839 293.184891 
" style="fill:none;stroke:#0000ff;stroke-width:1.5;"/>
    <path clip-path="url(#p9dea12bd05)" d="M 401.92 310.575031 
L 401.92 296.144969 
" style="fill:none;stroke:#0000ff;stroke-width:1.5;"/>
   </g>
   <g id="line2d_21">
    <path clip-path="url(#p9dea12bd05)" d="M 81.92 306.49335 
L 86.724805 302.781322 
L 91.52961 298.777728 
L 96.334414 294.477471 
L 101.139219 289.877891 
L 105.944024 284.979061 
L 111.069149 279.427337 
L 116.194274 273.546533 
L 121.63972 266.951552 
L 127.405485 259.602254 
L 133.491572 251.471333 
L 140.218298 242.095895 
L 147.905986 230.981342 
L 158.476557 215.258915 
L 175.133213 190.462782 
L 182.500581 179.929964 
L 188.586667 171.620589 
L 193.711792 164.981793 
L 198.516597 159.114639 
L 203.001081 153.994986 
L 207.165245 149.583782 
L 211.009089 145.830896 
L 214.532613 142.678754 
L 218.056136 139.817992 
L 221.259339 137.482067 
L 224.462543 135.40827 
L 227.665746 133.605208 
L 230.548629 132.220178 
L 233.431512 131.065272 
L 236.314394 130.144434 
L 239.197277 129.46082 
L 242.08016 129.016779 
L 244.963043 128.81384 
L 247.845926 128.852703 
L 250.728809 129.133233 
L 253.611692 129.654464 
L 256.494575 130.414602 
L 259.377457 131.411038 
L 262.26034 132.640358 
L 265.143223 134.09837 
L 268.346426 135.980553 
L 271.54963 138.131089 
L 274.752833 140.541072 
L 278.276356 143.479864 
L 281.79988 146.706105 
L 285.643724 150.534975 
L 289.807888 155.022375 
L 293.972052 159.833878 
L 298.456537 165.342118 
L 303.581662 172.001064 
L 309.347427 179.881624 
L 316.074154 189.480361 
L 324.722803 202.242594 
L 348.746827 237.921602 
L 356.114194 248.340259 
L 362.520601 257.028181 
L 368.606687 264.903083 
L 374.052132 271.601688 
L 379.497578 277.948438 
L 384.622703 283.585579 
L 389.747828 288.887388 
L 394.552633 293.549073 
L 399.357437 297.911217 
L 401.92 300.115841 
L 401.92 300.115841 
" style="fill:none;stroke:#ff0000;stroke-linecap:square;stroke-width:1.5;"/>
   </g>
   <g id="line2d_22">
    <g clip-path="url(#p9dea12bd05)">
     <use style="fill:#0000ff;stroke:#0000ff;" x="81.92" xlink:href="#me1c33e8dda" y="300.554154"/>
     <use style="fill:#0000ff;stroke:#0000ff;" x="85.598161" xlink:href="#me1c33e8dda" y="301.355825"/>
     <use style="fill:#0000ff;stroke:#0000ff;" x="89.276322" xlink:href="#me1c33e8dda" y="300.554154"/>
     <use style="fill:#0000ff;stroke:#0000ff;" x="92.954483" xlink:href="#me1c33e8dda" y="296.144969"/>
     <use style="fill:#0000ff;stroke:#0000ff;" x="96.632644" xlink:href="#me1c33e8dda" y="293.739958"/>
     <use style="fill:#0000ff;stroke:#0000ff;" x="100.310805" xlink:href="#me1c33e8dda" y="282.917411"/>
     <use style="fill:#0000ff;stroke:#0000ff;" x="103.988966" xlink:href="#me1c33e8dda" y="285.322422"/>
     <use style="fill:#0000ff;stroke:#0000ff;" x="107.667126" xlink:href="#me1c33e8dda" y="277.30572"/>
     <use style="fill:#0000ff;stroke:#0000ff;" x="111.345287" xlink:href="#me1c33e8dda" y="275.301545"/>
     <use style="fill:#0000ff;stroke:#0000ff;" x="115.023448" xlink:href="#me1c33e8dda" y="272.495699"/>
     <use style="fill:#0000ff;stroke:#0000ff;" x="118.701609" xlink:href="#me1c33e8dda" y="270.090689"/>
     <use style="fill:#0000ff;stroke:#0000ff;" x="122.37977" xlink:href="#me1c33e8dda" y="264.879833"/>
     <use style="fill:#0000ff;stroke:#0000ff;" x="126.057931" xlink:href="#me1c33e8dda" y="252.453946"/>
     <use style="fill:#0000ff;stroke:#0000ff;" x="129.736092" xlink:href="#me1c33e8dda" y="259.668977"/>
     <use style="fill:#0000ff;stroke:#0000ff;" x="133.414253" xlink:href="#me1c33e8dda" y="249.6481"/>
     <use style="fill:#0000ff;stroke:#0000ff;" x="137.092414" xlink:href="#me1c33e8dda" y="240.829729"/>
     <use style="fill:#0000ff;stroke:#0000ff;" x="140.770575" xlink:href="#me1c33e8dda" y="238.023883"/>
     <use style="fill:#0000ff;stroke:#0000ff;" x="144.448736" xlink:href="#me1c33e8dda" y="235.218038"/>
     <use style="fill:#0000ff;stroke:#0000ff;" x="148.126897" xlink:href="#me1c33e8dda" y="227.602171"/>
     <use style="fill:#0000ff;stroke:#0000ff;" x="151.805057" xlink:href="#me1c33e8dda" y="228.804676"/>
     <use style="fill:#0000ff;stroke:#0000ff;" x="155.483218" xlink:href="#me1c33e8dda" y="228.804676"/>
     <use style="fill:#0000ff;stroke:#0000ff;" x="159.161379" xlink:href="#me1c33e8dda" y="209.564593"/>
     <use style="fill:#0000ff;stroke:#0000ff;" x="162.83954" xlink:href="#me1c33e8dda" y="203.952902"/>
     <use style="fill:#0000ff;stroke:#0000ff;" x="166.517701" xlink:href="#me1c33e8dda" y="201.547891"/>
     <use style="fill:#0000ff;stroke:#0000ff;" x="170.195862" xlink:href="#me1c33e8dda" y="203.552067"/>
     <use style="fill:#0000ff;stroke:#0000ff;" x="173.874023" xlink:href="#me1c33e8dda" y="188.721169"/>
     <use style="fill:#0000ff;stroke:#0000ff;" x="177.552184" xlink:href="#me1c33e8dda" y="195.13453"/>
     <use style="fill:#0000ff;stroke:#0000ff;" x="181.230345" xlink:href="#me1c33e8dda" y="186.716994"/>
     <use style="fill:#0000ff;stroke:#0000ff;" x="184.908506" xlink:href="#me1c33e8dda" y="178.299457"/>
     <use style="fill:#0000ff;stroke:#0000ff;" x="188.586667" xlink:href="#me1c33e8dda" y="186.716994"/>
     <use style="fill:#0000ff;stroke:#0000ff;" x="192.264828" xlink:href="#me1c33e8dda" y="175.894447"/>
     <use style="fill:#0000ff;stroke:#0000ff;" x="195.942989" xlink:href="#me1c33e8dda" y="170.683591"/>
     <use style="fill:#0000ff;stroke:#0000ff;" x="199.621149" xlink:href="#me1c33e8dda" y="166.274405"/>
     <use style="fill:#0000ff;stroke:#0000ff;" x="203.29931" xlink:href="#me1c33e8dda" y="148.236827"/>
     <use style="fill:#0000ff;stroke:#0000ff;" x="206.977471" xlink:href="#me1c33e8dda" y="164.27023"/>
     <use style="fill:#0000ff;stroke:#0000ff;" x="210.655632" xlink:href="#me1c33e8dda" y="150.241002"/>
     <use style="fill:#0000ff;stroke:#0000ff;" x="214.333793" xlink:href="#me1c33e8dda" y="152.646013"/>
     <use style="fill:#0000ff;stroke:#0000ff;" x="218.011954" xlink:href="#me1c33e8dda" y="150.241002"/>
     <use style="fill:#0000ff;stroke:#0000ff;" x="221.690115" xlink:href="#me1c33e8dda" y="145.831816"/>
     <use style="fill:#0000ff;stroke:#0000ff;" x="225.368276" xlink:href="#me1c33e8dda" y="146.633486"/>
     <use style="fill:#0000ff;stroke:#0000ff;" x="229.046437" xlink:href="#me1c33e8dda" y="135.009269"/>
     <use style="fill:#0000ff;stroke:#0000ff;" x="232.724598" xlink:href="#me1c33e8dda" y="134.207599"/>
     <use style="fill:#0000ff;stroke:#0000ff;" x="236.402759" xlink:href="#me1c33e8dda" y="120.178372"/>
     <use style="fill:#0000ff;stroke:#0000ff;" x="240.08092" xlink:href="#me1c33e8dda" y="128.195073"/>
     <use style="fill:#0000ff;stroke:#0000ff;" x="243.75908" xlink:href="#me1c33e8dda" y="131.000919"/>
     <use style="fill:#0000ff;stroke:#0000ff;" x="247.437241" xlink:href="#me1c33e8dda" y="111.36"/>
     <use style="fill:#0000ff;stroke:#0000ff;" x="251.115402" xlink:href="#me1c33e8dda" y="116.570856"/>
     <use style="fill:#0000ff;stroke:#0000ff;" x="254.793563" xlink:href="#me1c33e8dda" y="122.984217"/>
     <use style="fill:#0000ff;stroke:#0000ff;" x="258.471724" xlink:href="#me1c33e8dda" y="134.207599"/>
     <use style="fill:#0000ff;stroke:#0000ff;" x="262.149885" xlink:href="#me1c33e8dda" y="126.591733"/>
     <use style="fill:#0000ff;stroke:#0000ff;" x="265.828046" xlink:href="#me1c33e8dda" y="122.583382"/>
     <use style="fill:#0000ff;stroke:#0000ff;" x="269.506207" xlink:href="#me1c33e8dda" y="154.650188"/>
     <use style="fill:#0000ff;stroke:#0000ff;" x="273.184368" xlink:href="#me1c33e8dda" y="133.405929"/>
     <use style="fill:#0000ff;stroke:#0000ff;" x="276.862529" xlink:href="#me1c33e8dda" y="138.21595"/>
     <use style="fill:#0000ff;stroke:#0000ff;" x="280.54069" xlink:href="#me1c33e8dda" y="145.430981"/>
     <use style="fill:#0000ff;stroke:#0000ff;" x="284.218851" xlink:href="#me1c33e8dda" y="142.625136"/>
     <use style="fill:#0000ff;stroke:#0000ff;" x="287.897011" xlink:href="#me1c33e8dda" y="166.274405"/>
     <use style="fill:#0000ff;stroke:#0000ff;" x="291.575172" xlink:href="#me1c33e8dda" y="146.232651"/>
     <use style="fill:#0000ff;stroke:#0000ff;" x="295.253333" xlink:href="#me1c33e8dda" y="143.025971"/>
     <use style="fill:#0000ff;stroke:#0000ff;" x="298.931494" xlink:href="#me1c33e8dda" y="145.430981"/>
     <use style="fill:#0000ff;stroke:#0000ff;" x="302.609655" xlink:href="#me1c33e8dda" y="159.861044"/>
     <use style="fill:#0000ff;stroke:#0000ff;" x="306.287816" xlink:href="#me1c33e8dda" y="177.898622"/>
     <use style="fill:#0000ff;stroke:#0000ff;" x="309.965977" xlink:href="#me1c33e8dda" y="180.303633"/>
     <use style="fill:#0000ff;stroke:#0000ff;" x="313.644138" xlink:href="#me1c33e8dda" y="182.307808"/>
     <use style="fill:#0000ff;stroke:#0000ff;" x="317.322299" xlink:href="#me1c33e8dda" y="187.518664"/>
     <use style="fill:#0000ff;stroke:#0000ff;" x="321.00046" xlink:href="#me1c33e8dda" y="188.320334"/>
     <use style="fill:#0000ff;stroke:#0000ff;" x="324.678621" xlink:href="#me1c33e8dda" y="196.337035"/>
     <use style="fill:#0000ff;stroke:#0000ff;" x="328.356782" xlink:href="#me1c33e8dda" y="203.952902"/>
     <use style="fill:#0000ff;stroke:#0000ff;" x="332.034943" xlink:href="#me1c33e8dda" y="209.163758"/>
     <use style="fill:#0000ff;stroke:#0000ff;" x="335.713103" xlink:href="#me1c33e8dda" y="225.597996"/>
     <use style="fill:#0000ff;stroke:#0000ff;" x="339.391264" xlink:href="#me1c33e8dda" y="215.977954"/>
     <use style="fill:#0000ff;stroke:#0000ff;" x="343.069425" xlink:href="#me1c33e8dda" y="211.167933"/>
     <use style="fill:#0000ff;stroke:#0000ff;" x="346.747586" xlink:href="#me1c33e8dda" y="249.247265"/>
     <use style="fill:#0000ff;stroke:#0000ff;" x="350.425747" xlink:href="#me1c33e8dda" y="236.019708"/>
     <use style="fill:#0000ff;stroke:#0000ff;" x="354.103908" xlink:href="#me1c33e8dda" y="248.04476"/>
     <use style="fill:#0000ff;stroke:#0000ff;" x="357.782069" xlink:href="#me1c33e8dda" y="251.251441"/>
     <use style="fill:#0000ff;stroke:#0000ff;" x="361.46023" xlink:href="#me1c33e8dda" y="259.668977"/>
     <use style="fill:#0000ff;stroke:#0000ff;" x="365.138391" xlink:href="#me1c33e8dda" y="264.078163"/>
     <use style="fill:#0000ff;stroke:#0000ff;" x="368.816552" xlink:href="#me1c33e8dda" y="270.090689"/>
     <use style="fill:#0000ff;stroke:#0000ff;" x="372.494713" xlink:href="#me1c33e8dda" y="276.103215"/>
     <use style="fill:#0000ff;stroke:#0000ff;" x="376.172874" xlink:href="#me1c33e8dda" y="272.896534"/>
     <use style="fill:#0000ff;stroke:#0000ff;" x="379.851034" xlink:href="#me1c33e8dda" y="277.706555"/>
     <use style="fill:#0000ff;stroke:#0000ff;" x="383.529195" xlink:href="#me1c33e8dda" y="292.938288"/>
     <use style="fill:#0000ff;stroke:#0000ff;" x="387.207356" xlink:href="#me1c33e8dda" y="292.938288"/>
     <use style="fill:#0000ff;stroke:#0000ff;" x="390.885517" xlink:href="#me1c33e8dda" y="288.128267"/>
     <use style="fill:#0000ff;stroke:#0000ff;" x="394.563678" xlink:href="#me1c33e8dda" y="299.752484"/>
     <use style="fill:#0000ff;stroke:#0000ff;" x="398.241839" xlink:href="#me1c33e8dda" y="300.554154"/>
     <use style="fill:#0000ff;stroke:#0000ff;" x="401.92" xlink:href="#me1c33e8dda" y="303.36"/>
    </g>
   </g>
   <g id="patch_8">
    <path d="M 69.12 311.04 
L 69.12 103.68 
" style="fill:none;stroke:#000000;stroke-linecap:square;stroke-linejoin:miter;stroke-width:0.8;"/>
   </g>
   <g id="patch_9">
    <path d="M 414.72 311.04 
L 414.72 103.68 
" style="fill:none;stroke:#000000;stroke-linecap:square;stroke-linejoin:miter;stroke-width:0.8;"/>
   </g>
   <g id="patch_10">
    <path d="M 69.12 311.04 
L 414.72 311.04 
" style="fill:none;stroke:#000000;stroke-linecap:square;stroke-linejoin:miter;stroke-width:0.8;"/>
   </g>
   <g id="patch_11">
    <path d="M 69.12 103.68 
L 414.72 103.68 
" style="fill:none;stroke:#000000;stroke-linecap:square;stroke-linejoin:miter;stroke-width:0.8;"/>
   </g>
  </g>
 </g>
 <defs>
  <clipPath id="p1c465aac7b">
   <rect height="51.84" width="345.6" x="69.12" y="44.928"/>
  </clipPath>
  <clipPath id="p9dea12bd05">
   <rect height="207.36" width="345.6" x="69.12" y="103.68"/>
  </clipPath>
 </defs>
</svg>
