<?xml version="1.0" encoding="utf-8" standalone="no"?>
<!DOCTYPE svg PUBLIC "-//W3C//DTD SVG 1.1//EN"
  "http://www.w3.org/Graphics/SVG/1.1/DTD/svg11.dtd">
<!-- Created with matplotlib (http://matplotlib.org/) -->
<svg height="345pt" version="1.1" viewBox="0 0 460 345" width="460pt" xmlns="http://www.w3.org/2000/svg" xmlns:xlink="http://www.w3.org/1999/xlink">
 <defs>
  <style type="text/css">
*{stroke-linecap:butt;stroke-linejoin:round;}
  </style>
 </defs>
 <g id="figure_1">
  <g id="patch_1">
   <path d="M 0 345.6 
L 460.8 345.6 
L 460.8 0 
L 0 0 
z
" style="fill:#ffffff;"/>
  </g>
  <g id="axes_1">
   <g id="patch_2">
    <path d="M 69.12 96.768 
L 414.72 96.768 
L 414.72 44.928 
L 69.12 44.928 
z
" style="fill:#ffffff;"/>
   </g>
   <g id="matplotlib.axis_1">
    <g id="xtick_1">
     <g id="line2d_1">
      <defs>
       <path d="M 0 0 
L 0 3.5 
" id="mcf9d0e102b" style="stroke:#000000;stroke-width:0.8;"/>
      </defs>
      <g>
       <use style="stroke:#000000;stroke-width:0.8;" x="71.506297" xlink:href="#mcf9d0e102b" y="96.768"/>
      </g>
     </g>
    </g>
    <g id="xtick_2">
     <g id="line2d_2">
      <g>
       <use style="stroke:#000000;stroke-width:0.8;" x="133.336713" xlink:href="#mcf9d0e102b" y="96.768"/>
      </g>
     </g>
    </g>
    <g id="xtick_3">
     <g id="line2d_3">
      <g>
       <use style="stroke:#000000;stroke-width:0.8;" x="195.167129" xlink:href="#mcf9d0e102b" y="96.768"/>
      </g>
     </g>
    </g>
    <g id="xtick_4">
     <g id="line2d_4">
      <g>
       <use style="stroke:#000000;stroke-width:0.8;" x="256.997545" xlink:href="#mcf9d0e102b" y="96.768"/>
      </g>
     </g>
    </g>
    <g id="xtick_5">
     <g id="line2d_5">
      <g>
       <use style="stroke:#000000;stroke-width:0.8;" x="318.827961" xlink:href="#mcf9d0e102b" y="96.768"/>
      </g>
     </g>
    </g>
    <g id="xtick_6">
     <g id="line2d_6">
      <g>
       <use style="stroke:#000000;stroke-width:0.8;" x="380.658377" xlink:href="#mcf9d0e102b" y="96.768"/>
      </g>
     </g>
    </g>
   </g>
   <g id="matplotlib.axis_2">
    <g id="ytick_1">
     <g id="line2d_7">
      <defs>
       <path d="M 0 0 
L -3.5 0 
" id="mad153e4282" style="stroke:#000000;stroke-width:0.8;"/>
      </defs>
      <g>
       <use style="stroke:#000000;stroke-width:0.8;" x="69.12" xlink:href="#mad153e4282" y="93.875461"/>
      </g>
     </g>
     <g id="text_1">
      <!-- −2 -->
      <defs>
       <path d="M 10.59375 35.5 
L 73.1875 35.5 
L 73.1875 27.203125 
L 10.59375 27.203125 
z
" id="DejaVuSans-2212"/>
       <path d="M 19.1875 8.296875 
L 53.609375 8.296875 
L 53.609375 0 
L 7.328125 0 
L 7.328125 8.296875 
Q 12.9375 14.109375 22.625 23.890625 
Q 32.328125 33.6875 34.8125 36.53125 
Q 39.546875 41.84375 41.421875 45.53125 
Q 43.3125 49.21875 43.3125 52.78125 
Q 43.3125 58.59375 39.234375 62.25 
Q 35.15625 65.921875 28.609375 65.921875 
Q 23.96875 65.921875 18.8125 64.3125 
Q 13.671875 62.703125 7.8125 59.421875 
L 7.8125 69.390625 
Q 13.765625 71.78125 18.9375 73 
Q 24.125 74.21875 28.421875 74.21875 
Q 39.75 74.21875 46.484375 68.546875 
Q 53.21875 62.890625 53.21875 53.421875 
Q 53.21875 48.921875 51.53125 44.890625 
Q 49.859375 40.875 45.40625 35.40625 
Q 44.1875 33.984375 37.640625 27.21875 
Q 31.109375 20.453125 19.1875 8.296875 
z
" id="DejaVuSans-32"/>
      </defs>
      <g transform="translate(40.006719 99.57429)scale(0.15 -0.15)">
       <use xlink:href="#DejaVuSans-2212"/>
       <use x="83.789062" xlink:href="#DejaVuSans-32"/>
      </g>
     </g>
    </g>
    <g id="ytick_2">
     <g id="line2d_8">
      <g>
       <use style="stroke:#000000;stroke-width:0.8;" x="69.12" xlink:href="#mad153e4282" y="71.475233"/>
      </g>
     </g>
    </g>
    <g id="ytick_3">
     <g id="line2d_9">
      <g>
       <use style="stroke:#000000;stroke-width:0.8;" x="69.12" xlink:href="#mad153e4282" y="49.075005"/>
      </g>
     </g>
     <g id="text_2">
      <!-- 2 -->
      <g transform="translate(52.57625 54.773833)scale(0.15 -0.15)">
       <use xlink:href="#DejaVuSans-32"/>
      </g>
     </g>
    </g>
    <g id="text_3">
     <!-- Studentized -->
     <defs>
      <path d="M 53.515625 70.515625 
L 53.515625 60.890625 
Q 47.90625 63.578125 42.921875 64.890625 
Q 37.9375 66.21875 33.296875 66.21875 
Q 25.25 66.21875 20.875 63.09375 
Q 16.5 59.96875 16.5 54.203125 
Q 16.5 49.359375 19.40625 46.890625 
Q 22.3125 44.4375 30.421875 42.921875 
L 36.375 41.703125 
Q 47.40625 39.59375 52.65625 34.296875 
Q 57.90625 29 57.90625 20.125 
Q 57.90625 9.515625 50.796875 4.046875 
Q 43.703125 -1.421875 29.984375 -1.421875 
Q 24.8125 -1.421875 18.96875 -0.25 
Q 13.140625 0.921875 6.890625 3.21875 
L 6.890625 13.375 
Q 12.890625 10.015625 18.65625 8.296875 
Q 24.421875 6.59375 29.984375 6.59375 
Q 38.421875 6.59375 43.015625 9.90625 
Q 47.609375 13.234375 47.609375 19.390625 
Q 47.609375 24.75 44.3125 27.78125 
Q 41.015625 30.8125 33.5 32.328125 
L 27.484375 33.5 
Q 16.453125 35.6875 11.515625 40.375 
Q 6.59375 45.0625 6.59375 53.421875 
Q 6.59375 63.09375 13.40625 68.65625 
Q 20.21875 74.21875 32.171875 74.21875 
Q 37.3125 74.21875 42.625 73.28125 
Q 47.953125 72.359375 53.515625 70.515625 
z
" id="DejaVuSans-53"/>
      <path d="M 18.3125 70.21875 
L 18.3125 54.6875 
L 36.8125 54.6875 
L 36.8125 47.703125 
L 18.3125 47.703125 
L 18.3125 18.015625 
Q 18.3125 11.328125 20.140625 9.421875 
Q 21.96875 7.515625 27.59375 7.515625 
L 36.8125 7.515625 
L 36.8125 0 
L 27.59375 0 
Q 17.1875 0 13.234375 3.875 
Q 9.28125 7.765625 9.28125 18.015625 
L 9.28125 47.703125 
L 2.6875 47.703125 
L 2.6875 54.6875 
L 9.28125 54.6875 
L 9.28125 70.21875 
z
" id="DejaVuSans-74"/>
      <path d="M 8.5 21.578125 
L 8.5 54.6875 
L 17.484375 54.6875 
L 17.484375 21.921875 
Q 17.484375 14.15625 20.5 10.265625 
Q 23.53125 6.390625 29.59375 6.390625 
Q 36.859375 6.390625 41.078125 11.03125 
Q 45.3125 15.671875 45.3125 23.6875 
L 45.3125 54.6875 
L 54.296875 54.6875 
L 54.296875 0 
L 45.3125 0 
L 45.3125 8.40625 
Q 42.046875 3.421875 37.71875 1 
Q 33.40625 -1.421875 27.6875 -1.421875 
Q 18.265625 -1.421875 13.375 4.4375 
Q 8.5 10.296875 8.5 21.578125 
z
M 31.109375 56 
z
" id="DejaVuSans-75"/>
      <path d="M 45.40625 46.390625 
L 45.40625 75.984375 
L 54.390625 75.984375 
L 54.390625 0 
L 45.40625 0 
L 45.40625 8.203125 
Q 42.578125 3.328125 38.25 0.953125 
Q 33.9375 -1.421875 27.875 -1.421875 
Q 17.96875 -1.421875 11.734375 6.484375 
Q 5.515625 14.40625 5.515625 27.296875 
Q 5.515625 40.1875 11.734375 48.09375 
Q 17.96875 56 27.875 56 
Q 33.9375 56 38.25 53.625 
Q 42.578125 51.265625 45.40625 46.390625 
z
M 14.796875 27.296875 
Q 14.796875 17.390625 18.875 11.75 
Q 22.953125 6.109375 30.078125 6.109375 
Q 37.203125 6.109375 41.296875 11.75 
Q 45.40625 17.390625 45.40625 27.296875 
Q 45.40625 37.203125 41.296875 42.84375 
Q 37.203125 48.484375 30.078125 48.484375 
Q 22.953125 48.484375 18.875 42.84375 
Q 14.796875 37.203125 14.796875 27.296875 
z
" id="DejaVuSans-64"/>
      <path d="M 56.203125 29.59375 
L 56.203125 25.203125 
L 14.890625 25.203125 
Q 15.484375 15.921875 20.484375 11.0625 
Q 25.484375 6.203125 34.421875 6.203125 
Q 39.59375 6.203125 44.453125 7.46875 
Q 49.3125 8.734375 54.109375 11.28125 
L 54.109375 2.78125 
Q 49.265625 0.734375 44.1875 -0.34375 
Q 39.109375 -1.421875 33.890625 -1.421875 
Q 20.796875 -1.421875 13.15625 6.1875 
Q 5.515625 13.8125 5.515625 26.8125 
Q 5.515625 40.234375 12.765625 48.109375 
Q 20.015625 56 32.328125 56 
Q 43.359375 56 49.78125 48.890625 
Q 56.203125 41.796875 56.203125 29.59375 
z
M 47.21875 32.234375 
Q 47.125 39.59375 43.09375 43.984375 
Q 39.0625 48.390625 32.421875 48.390625 
Q 24.90625 48.390625 20.390625 44.140625 
Q 15.875 39.890625 15.1875 32.171875 
z
" id="DejaVuSans-65"/>
      <path d="M 54.890625 33.015625 
L 54.890625 0 
L 45.90625 0 
L 45.90625 32.71875 
Q 45.90625 40.484375 42.875 44.328125 
Q 39.84375 48.1875 33.796875 48.1875 
Q 26.515625 48.1875 22.3125 43.546875 
Q 18.109375 38.921875 18.109375 30.90625 
L 18.109375 0 
L 9.078125 0 
L 9.078125 54.6875 
L 18.109375 54.6875 
L 18.109375 46.1875 
Q 21.34375 51.125 25.703125 53.5625 
Q 30.078125 56 35.796875 56 
Q 45.21875 56 50.046875 50.171875 
Q 54.890625 44.34375 54.890625 33.015625 
z
" id="DejaVuSans-6e"/>
      <path d="M 9.421875 54.6875 
L 18.40625 54.6875 
L 18.40625 0 
L 9.421875 0 
z
M 9.421875 75.984375 
L 18.40625 75.984375 
L 18.40625 64.59375 
L 9.421875 64.59375 
z
" id="DejaVuSans-69"/>
      <path d="M 5.515625 54.6875 
L 48.1875 54.6875 
L 48.1875 46.484375 
L 14.40625 7.171875 
L 48.1875 7.171875 
L 48.1875 0 
L 4.296875 0 
L 4.296875 8.203125 
L 38.09375 47.515625 
L 5.515625 47.515625 
z
" id="DejaVuSans-7a"/>
     </defs>
     <g transform="translate(16.090469 115.768313)rotate(-90)scale(0.15 -0.15)">
      <use xlink:href="#DejaVuSans-53"/>
      <use x="63.476562" xlink:href="#DejaVuSans-74"/>
      <use x="102.685547" xlink:href="#DejaVuSans-75"/>
      <use x="166.064453" xlink:href="#DejaVuSans-64"/>
      <use x="229.541016" xlink:href="#DejaVuSans-65"/>
      <use x="291.064453" xlink:href="#DejaVuSans-6e"/>
      <use x="354.443359" xlink:href="#DejaVuSans-74"/>
      <use x="393.652344" xlink:href="#DejaVuSans-69"/>
      <use x="421.435547" xlink:href="#DejaVuSans-7a"/>
      <use x="473.925781" xlink:href="#DejaVuSans-65"/>
      <use x="535.449219" xlink:href="#DejaVuSans-64"/>
     </g>
     <!-- Residuals -->
     <defs>
      <path d="M 44.390625 34.1875 
Q 47.5625 33.109375 50.5625 29.59375 
Q 53.5625 26.078125 56.59375 19.921875 
L 66.609375 0 
L 56 0 
L 46.6875 18.703125 
Q 43.0625 26.03125 39.671875 28.421875 
Q 36.28125 30.8125 30.421875 30.8125 
L 19.671875 30.8125 
L 19.671875 0 
L 9.8125 0 
L 9.8125 72.90625 
L 32.078125 72.90625 
Q 44.578125 72.90625 50.734375 67.671875 
Q 56.890625 62.453125 56.890625 51.90625 
Q 56.890625 45.015625 53.6875 40.46875 
Q 50.484375 35.9375 44.390625 34.1875 
z
M 19.671875 64.796875 
L 19.671875 38.921875 
L 32.078125 38.921875 
Q 39.203125 38.921875 42.84375 42.21875 
Q 46.484375 45.515625 46.484375 51.90625 
Q 46.484375 58.296875 42.84375 61.546875 
Q 39.203125 64.796875 32.078125 64.796875 
z
" id="DejaVuSans-52"/>
      <path d="M 44.28125 53.078125 
L 44.28125 44.578125 
Q 40.484375 46.53125 36.375 47.5 
Q 32.28125 48.484375 27.875 48.484375 
Q 21.1875 48.484375 17.84375 46.4375 
Q 14.5 44.390625 14.5 40.28125 
Q 14.5 37.15625 16.890625 35.375 
Q 19.28125 33.59375 26.515625 31.984375 
L 29.59375 31.296875 
Q 39.15625 29.25 43.1875 25.515625 
Q 47.21875 21.78125 47.21875 15.09375 
Q 47.21875 7.46875 41.1875 3.015625 
Q 35.15625 -1.421875 24.609375 -1.421875 
Q 20.21875 -1.421875 15.453125 -0.5625 
Q 10.6875 0.296875 5.421875 2 
L 5.421875 11.28125 
Q 10.40625 8.6875 15.234375 7.390625 
Q 20.0625 6.109375 24.8125 6.109375 
Q 31.15625 6.109375 34.5625 8.28125 
Q 37.984375 10.453125 37.984375 14.40625 
Q 37.984375 18.0625 35.515625 20.015625 
Q 33.0625 21.96875 24.703125 23.78125 
L 21.578125 24.515625 
Q 13.234375 26.265625 9.515625 29.90625 
Q 5.8125 33.546875 5.8125 39.890625 
Q 5.8125 47.609375 11.28125 51.796875 
Q 16.75 56 26.8125 56 
Q 31.78125 56 36.171875 55.265625 
Q 40.578125 54.546875 44.28125 53.078125 
z
" id="DejaVuSans-73"/>
      <path d="M 34.28125 27.484375 
Q 23.390625 27.484375 19.1875 25 
Q 14.984375 22.515625 14.984375 16.5 
Q 14.984375 11.71875 18.140625 8.90625 
Q 21.296875 6.109375 26.703125 6.109375 
Q 34.1875 6.109375 38.703125 11.40625 
Q 43.21875 16.703125 43.21875 25.484375 
L 43.21875 27.484375 
z
M 52.203125 31.203125 
L 52.203125 0 
L 43.21875 0 
L 43.21875 8.296875 
Q 40.140625 3.328125 35.546875 0.953125 
Q 30.953125 -1.421875 24.3125 -1.421875 
Q 15.921875 -1.421875 10.953125 3.296875 
Q 6 8.015625 6 15.921875 
Q 6 25.140625 12.171875 29.828125 
Q 18.359375 34.515625 30.609375 34.515625 
L 43.21875 34.515625 
L 43.21875 35.40625 
Q 43.21875 41.609375 39.140625 45 
Q 35.0625 48.390625 27.6875 48.390625 
Q 23 48.390625 18.546875 47.265625 
Q 14.109375 46.140625 10.015625 43.890625 
L 10.015625 52.203125 
Q 14.9375 54.109375 19.578125 55.046875 
Q 24.21875 56 28.609375 56 
Q 40.484375 56 46.34375 49.84375 
Q 52.203125 43.703125 52.203125 31.203125 
z
" id="DejaVuSans-61"/>
      <path d="M 9.421875 75.984375 
L 18.40625 75.984375 
L 18.40625 0 
L 9.421875 0 
z
" id="DejaVuSans-6c"/>
     </defs>
     <g transform="translate(32.887188 106.761281)rotate(-90)scale(0.15 -0.15)">
      <use xlink:href="#DejaVuSans-52"/>
      <use x="69.419922" xlink:href="#DejaVuSans-65"/>
      <use x="130.943359" xlink:href="#DejaVuSans-73"/>
      <use x="183.042969" xlink:href="#DejaVuSans-69"/>
      <use x="210.826172" xlink:href="#DejaVuSans-64"/>
      <use x="274.302734" xlink:href="#DejaVuSans-75"/>
      <use x="337.681641" xlink:href="#DejaVuSans-61"/>
      <use x="398.960938" xlink:href="#DejaVuSans-6c"/>
      <use x="426.744141" xlink:href="#DejaVuSans-73"/>
     </g>
    </g>
   </g>
   <g id="LineCollection_1">
    <path clip-path="url(#pf20daece95)" d="M 81.92 76.055297 
L 81.92 53.655069 
" style="fill:none;stroke:#0000ff;stroke-width:1.5;"/>
    <path clip-path="url(#pf20daece95)" d="M 92.954483 58.048114 
L 92.954483 35.647886 
" style="fill:none;stroke:#0000ff;stroke-width:1.5;"/>
    <path clip-path="url(#pf20daece95)" d="M 96.632644 91.458672 
L 96.632644 69.058444 
" style="fill:none;stroke:#0000ff;stroke-width:1.5;"/>
    <path clip-path="url(#pf20daece95)" d="M 100.310805 79.094879 
L 100.310805 56.694651 
" style="fill:none;stroke:#0000ff;stroke-width:1.5;"/>
    <path clip-path="url(#pf20daece95)" d="M 103.988966 83.10287 
L 103.988966 60.702642 
" style="fill:none;stroke:#0000ff;stroke-width:1.5;"/>
    <path clip-path="url(#pf20daece95)" d="M 107.667126 64.177789 
L 107.667126 41.777561 
" style="fill:none;stroke:#0000ff;stroke-width:1.5;"/>
    <path clip-path="url(#pf20daece95)" d="M 111.345287 73.736444 
L 111.345287 51.336216 
" style="fill:none;stroke:#0000ff;stroke-width:1.5;"/>
    <path clip-path="url(#pf20daece95)" d="M 115.023448 64.923149 
L 115.023448 42.522921 
" style="fill:none;stroke:#0000ff;stroke-width:1.5;"/>
    <path clip-path="url(#pf20daece95)" d="M 118.701609 74.669092 
L 118.701609 52.268864 
" style="fill:none;stroke:#0000ff;stroke-width:1.5;"/>
    <path clip-path="url(#pf20daece95)" d="M 122.37977 63.375239 
L 122.37977 40.975011 
" style="fill:none;stroke:#0000ff;stroke-width:1.5;"/>
    <path clip-path="url(#pf20daece95)" d="M 126.057931 76.463531 
L 126.057931 54.063303 
" style="fill:none;stroke:#0000ff;stroke-width:1.5;"/>
    <path clip-path="url(#pf20daece95)" d="M 129.736092 87.593702 
L 129.736092 65.193474 
" style="fill:none;stroke:#0000ff;stroke-width:1.5;"/>
    <path clip-path="url(#pf20daece95)" d="M 133.414253 77.146385 
L 133.414253 54.746157 
" style="fill:none;stroke:#0000ff;stroke-width:1.5;"/>
    <path clip-path="url(#pf20daece95)" d="M 137.092414 78.699289 
L 137.092414 56.299061 
" style="fill:none;stroke:#0000ff;stroke-width:1.5;"/>
    <path clip-path="url(#pf20daece95)" d="M 140.770575 86.513715 
L 140.770575 64.113487 
" style="fill:none;stroke:#0000ff;stroke-width:1.5;"/>
    <path clip-path="url(#pf20daece95)" d="M 144.448736 100.802243 
L 144.448736 78.402015 
" style="fill:none;stroke:#0000ff;stroke-width:1.5;"/>
    <path clip-path="url(#pf20daece95)" d="M 148.126897 84.651184 
L 148.126897 62.250956 
" style="fill:none;stroke:#0000ff;stroke-width:1.5;"/>
    <path clip-path="url(#pf20daece95)" d="M 151.805057 66.085573 
L 151.805057 43.685345 
" style="fill:none;stroke:#0000ff;stroke-width:1.5;"/>
    <path clip-path="url(#pf20daece95)" d="M 155.483218 69.878756 
L 155.483218 47.478528 
" style="fill:none;stroke:#0000ff;stroke-width:1.5;"/>
    <path clip-path="url(#pf20daece95)" d="M 159.161379 88.38711 
L 159.161379 65.986882 
" style="fill:none;stroke:#0000ff;stroke-width:1.5;"/>
    <path clip-path="url(#pf20daece95)" d="M 162.83954 91.968362 
L 162.83954 69.568134 
" style="fill:none;stroke:#0000ff;stroke-width:1.5;"/>
    <path clip-path="url(#pf20daece95)" d="M 166.517701 83.631676 
L 166.517701 61.231448 
" style="fill:none;stroke:#0000ff;stroke-width:1.5;"/>
    <path clip-path="url(#pf20daece95)" d="M 170.195862 83.118147 
L 170.195862 60.717919 
" style="fill:none;stroke:#0000ff;stroke-width:1.5;"/>
    <path clip-path="url(#pf20daece95)" d="M 173.874023 97.494284 
L 173.874023 75.094056 
" style="fill:none;stroke:#0000ff;stroke-width:1.5;"/>
    <path clip-path="url(#pf20daece95)" d="M 177.552184 85.328551 
L 177.552184 62.928323 
" style="fill:none;stroke:#0000ff;stroke-width:1.5;"/>
    <path clip-path="url(#pf20daece95)" d="M 181.230345 84.441416 
L 181.230345 62.041187 
" style="fill:none;stroke:#0000ff;stroke-width:1.5;"/>
    <path clip-path="url(#pf20daece95)" d="M 184.908506 82.79593 
L 184.908506 60.395702 
" style="fill:none;stroke:#0000ff;stroke-width:1.5;"/>
    <path clip-path="url(#pf20daece95)" d="M 188.586667 90.947616 
L 188.586667 68.547388 
" style="fill:none;stroke:#0000ff;stroke-width:1.5;"/>
    <path clip-path="url(#pf20daece95)" d="M 192.264828 84.565666 
L 192.264828 62.165438 
" style="fill:none;stroke:#0000ff;stroke-width:1.5;"/>
    <path clip-path="url(#pf20daece95)" d="M 195.942989 100.105144 
L 195.942989 77.704916 
" style="fill:none;stroke:#0000ff;stroke-width:1.5;"/>
    <path clip-path="url(#pf20daece95)" d="M 199.621149 85.461943 
L 199.621149 63.061715 
" style="fill:none;stroke:#0000ff;stroke-width:1.5;"/>
    <path clip-path="url(#pf20daece95)" d="M 203.29931 79.546778 
L 203.29931 57.14655 
" style="fill:none;stroke:#0000ff;stroke-width:1.5;"/>
    <path clip-path="url(#pf20daece95)" d="M 206.977471 76.438737 
L 206.977471 54.038509 
" style="fill:none;stroke:#0000ff;stroke-width:1.5;"/>
    <path clip-path="url(#pf20daece95)" d="M 210.655632 82.266828 
L 210.655632 59.8666 
" style="fill:none;stroke:#0000ff;stroke-width:1.5;"/>
    <path clip-path="url(#pf20daece95)" d="M 214.333793 86.204698 
L 214.333793 63.80447 
" style="fill:none;stroke:#0000ff;stroke-width:1.5;"/>
    <path clip-path="url(#pf20daece95)" d="M 218.011954 98.505671 
L 218.011954 76.105443 
" style="fill:none;stroke:#0000ff;stroke-width:1.5;"/>
    <path clip-path="url(#pf20daece95)" d="M 221.690115 81.392725 
L 221.690115 58.992497 
" style="fill:none;stroke:#0000ff;stroke-width:1.5;"/>
    <path clip-path="url(#pf20daece95)" d="M 225.368276 75.008334 
L 225.368276 52.608105 
" style="fill:none;stroke:#0000ff;stroke-width:1.5;"/>
    <path clip-path="url(#pf20daece95)" d="M 229.046437 86.927054 
L 229.046437 64.526826 
" style="fill:none;stroke:#0000ff;stroke-width:1.5;"/>
    <path clip-path="url(#pf20daece95)" d="M 232.724598 95.630247 
L 232.724598 73.230019 
" style="fill:none;stroke:#0000ff;stroke-width:1.5;"/>
    <path clip-path="url(#pf20daece95)" d="M 236.402759 91.272231 
L 236.402759 68.872003 
" style="fill:none;stroke:#0000ff;stroke-width:1.5;"/>
    <path clip-path="url(#pf20daece95)" d="M 240.08092 87.064691 
L 240.08092 64.664463 
" style="fill:none;stroke:#0000ff;stroke-width:1.5;"/>
    <path clip-path="url(#pf20daece95)" d="M 243.75908 82.330758 
L 243.75908 59.93053 
" style="fill:none;stroke:#0000ff;stroke-width:1.5;"/>
    <path clip-path="url(#pf20daece95)" d="M 247.437241 90.070981 
L 247.437241 67.670753 
" style="fill:none;stroke:#0000ff;stroke-width:1.5;"/>
    <path clip-path="url(#pf20daece95)" d="M 251.115402 89.891425 
L 251.115402 67.491196 
" style="fill:none;stroke:#0000ff;stroke-width:1.5;"/>
    <path clip-path="url(#pf20daece95)" d="M 254.793563 82.482491 
L 254.793563 60.082262 
" style="fill:none;stroke:#0000ff;stroke-width:1.5;"/>
    <path clip-path="url(#pf20daece95)" d="M 258.471724 93.550572 
L 258.471724 71.150344 
" style="fill:none;stroke:#0000ff;stroke-width:1.5;"/>
    <path clip-path="url(#pf20daece95)" d="M 262.149885 68.990476 
L 262.149885 46.590248 
" style="fill:none;stroke:#0000ff;stroke-width:1.5;"/>
    <path clip-path="url(#pf20daece95)" d="M 265.828046 92.778892 
L 265.828046 70.378664 
" style="fill:none;stroke:#0000ff;stroke-width:1.5;"/>
    <path clip-path="url(#pf20daece95)" d="M 269.506207 81.596864 
L 269.506207 59.196635 
" style="fill:none;stroke:#0000ff;stroke-width:1.5;"/>
    <path clip-path="url(#pf20daece95)" d="M 273.184368 85.280153 
L 273.184368 62.879925 
" style="fill:none;stroke:#0000ff;stroke-width:1.5;"/>
    <path clip-path="url(#pf20daece95)" d="M 276.862529 68.842386 
L 276.862529 46.442158 
" style="fill:none;stroke:#0000ff;stroke-width:1.5;"/>
    <path clip-path="url(#pf20daece95)" d="M 280.54069 84.525847 
L 280.54069 62.125619 
" style="fill:none;stroke:#0000ff;stroke-width:1.5;"/>
    <path clip-path="url(#pf20daece95)" d="M 284.218851 75.532039 
L 284.218851 53.131811 
" style="fill:none;stroke:#0000ff;stroke-width:1.5;"/>
    <path clip-path="url(#pf20daece95)" d="M 287.897011 76.648472 
L 287.897011 54.248244 
" style="fill:none;stroke:#0000ff;stroke-width:1.5;"/>
    <path clip-path="url(#pf20daece95)" d="M 291.575172 82.168905 
L 291.575172 59.768677 
" style="fill:none;stroke:#0000ff;stroke-width:1.5;"/>
    <path clip-path="url(#pf20daece95)" d="M 295.253333 65.034726 
L 295.253333 42.634498 
" style="fill:none;stroke:#0000ff;stroke-width:1.5;"/>
    <path clip-path="url(#pf20daece95)" d="M 298.931494 76.255978 
L 298.931494 53.85575 
" style="fill:none;stroke:#0000ff;stroke-width:1.5;"/>
    <path clip-path="url(#pf20daece95)" d="M 302.609655 80.862359 
L 302.609655 58.462131 
" style="fill:none;stroke:#0000ff;stroke-width:1.5;"/>
    <path clip-path="url(#pf20daece95)" d="M 306.287816 69.797047 
L 306.287816 47.396819 
" style="fill:none;stroke:#0000ff;stroke-width:1.5;"/>
    <path clip-path="url(#pf20daece95)" d="M 309.965977 81.152101 
L 309.965977 58.751873 
" style="fill:none;stroke:#0000ff;stroke-width:1.5;"/>
    <path clip-path="url(#pf20daece95)" d="M 313.644138 70.84298 
L 313.644138 48.442752 
" style="fill:none;stroke:#0000ff;stroke-width:1.5;"/>
    <path clip-path="url(#pf20daece95)" d="M 317.322299 75.155644 
L 317.322299 52.755416 
" style="fill:none;stroke:#0000ff;stroke-width:1.5;"/>
    <path clip-path="url(#pf20daece95)" d="M 321.00046 73.519174 
L 321.00046 51.118945 
" style="fill:none;stroke:#0000ff;stroke-width:1.5;"/>
    <path clip-path="url(#pf20daece95)" d="M 324.678621 83.814127 
L 324.678621 61.413899 
" style="fill:none;stroke:#0000ff;stroke-width:1.5;"/>
    <path clip-path="url(#pf20daece95)" d="M 328.356782 71.704459 
L 328.356782 49.30423 
" style="fill:none;stroke:#0000ff;stroke-width:1.5;"/>
    <path clip-path="url(#pf20daece95)" d="M 332.034943 70.515065 
L 332.034943 48.114837 
" style="fill:none;stroke:#0000ff;stroke-width:1.5;"/>
    <path clip-path="url(#pf20daece95)" d="M 335.713103 78.240734 
L 335.713103 55.840506 
" style="fill:none;stroke:#0000ff;stroke-width:1.5;"/>
    <path clip-path="url(#pf20daece95)" d="M 339.391264 79.406384 
L 339.391264 57.006156 
" style="fill:none;stroke:#0000ff;stroke-width:1.5;"/>
    <path clip-path="url(#pf20daece95)" d="M 343.069425 74.328846 
L 343.069425 51.928618 
" style="fill:none;stroke:#0000ff;stroke-width:1.5;"/>
    <path clip-path="url(#pf20daece95)" d="M 346.747586 84.526363 
L 346.747586 62.126135 
" style="fill:none;stroke:#0000ff;stroke-width:1.5;"/>
    <path clip-path="url(#pf20daece95)" d="M 350.425747 75.624245 
L 350.425747 53.224016 
" style="fill:none;stroke:#0000ff;stroke-width:1.5;"/>
    <path clip-path="url(#pf20daece95)" d="M 354.103908 89.226075 
L 354.103908 66.825847 
" style="fill:none;stroke:#0000ff;stroke-width:1.5;"/>
    <path clip-path="url(#pf20daece95)" d="M 357.782069 78.703801 
L 357.782069 56.303573 
" style="fill:none;stroke:#0000ff;stroke-width:1.5;"/>
    <path clip-path="url(#pf20daece95)" d="M 361.46023 74.05991 
L 361.46023 51.659682 
" style="fill:none;stroke:#0000ff;stroke-width:1.5;"/>
    <path clip-path="url(#pf20daece95)" d="M 365.138391 82.219077 
L 365.138391 59.818849 
" style="fill:none;stroke:#0000ff;stroke-width:1.5;"/>
    <path clip-path="url(#pf20daece95)" d="M 368.816552 95.528103 
L 368.816552 73.127874 
" style="fill:none;stroke:#0000ff;stroke-width:1.5;"/>
    <path clip-path="url(#pf20daece95)" d="M 372.494713 82.977786 
L 372.494713 60.577558 
" style="fill:none;stroke:#0000ff;stroke-width:1.5;"/>
    <path clip-path="url(#pf20daece95)" d="M 376.172874 89.483931 
L 376.172874 67.083703 
" style="fill:none;stroke:#0000ff;stroke-width:1.5;"/>
    <path clip-path="url(#pf20daece95)" d="M 379.851034 81.157755 
L 379.851034 58.757527 
" style="fill:none;stroke:#0000ff;stroke-width:1.5;"/>
    <path clip-path="url(#pf20daece95)" d="M 383.529195 90.437425 
L 383.529195 68.037197 
" style="fill:none;stroke:#0000ff;stroke-width:1.5;"/>
    <path clip-path="url(#pf20daece95)" d="M 387.207356 86.400546 
L 387.207356 64.000318 
" style="fill:none;stroke:#0000ff;stroke-width:1.5;"/>
    <path clip-path="url(#pf20daece95)" d="M 390.885517 96.640654 
L 390.885517 74.240426 
" style="fill:none;stroke:#0000ff;stroke-width:1.5;"/>
    <path clip-path="url(#pf20daece95)" d="M 394.563678 106.048114 
L 394.563678 83.647886 
" style="fill:none;stroke:#0000ff;stroke-width:1.5;"/>
    <path clip-path="url(#pf20daece95)" d="M 398.241839 105.735146 
L 398.241839 83.334918 
" style="fill:none;stroke:#0000ff;stroke-width:1.5;"/>
    <path clip-path="url(#pf20daece95)" d="M 401.92 100.948753 
L 401.92 78.548525 
" style="fill:none;stroke:#0000ff;stroke-width:1.5;"/>
   </g>
   <g id="line2d_10">
    <path clip-path="url(#pf20daece95)" d="M 81.92 71.475233 
L 401.92 71.475233 
" style="fill:none;stroke:#ff0000;stroke-linecap:square;stroke-width:1.5;"/>
   </g>
   <g id="line2d_11">
    <defs>
     <path d="M -3 0 
L 3 0 
M 0 3 
L 0 -3 
" id="m181d93a30d" style="stroke:#0000ff;"/>
    </defs>
    <g clip-path="url(#pf20daece95)">
     <use style="fill:#0000ff;stroke:#0000ff;" x="81.92" xlink:href="#m181d93a30d" y="64.855183"/>
     <use style="fill:#0000ff;stroke:#0000ff;" x="92.954483" xlink:href="#m181d93a30d" y="46.848"/>
     <use style="fill:#0000ff;stroke:#0000ff;" x="96.632644" xlink:href="#m181d93a30d" y="80.258558"/>
     <use style="fill:#0000ff;stroke:#0000ff;" x="100.310805" xlink:href="#m181d93a30d" y="67.894765"/>
     <use style="fill:#0000ff;stroke:#0000ff;" x="103.988966" xlink:href="#m181d93a30d" y="71.902756"/>
     <use style="fill:#0000ff;stroke:#0000ff;" x="107.667126" xlink:href="#m181d93a30d" y="52.977675"/>
     <use style="fill:#0000ff;stroke:#0000ff;" x="111.345287" xlink:href="#m181d93a30d" y="62.53633"/>
     <use style="fill:#0000ff;stroke:#0000ff;" x="115.023448" xlink:href="#m181d93a30d" y="53.723035"/>
     <use style="fill:#0000ff;stroke:#0000ff;" x="118.701609" xlink:href="#m181d93a30d" y="63.468978"/>
     <use style="fill:#0000ff;stroke:#0000ff;" x="122.37977" xlink:href="#m181d93a30d" y="52.175125"/>
     <use style="fill:#0000ff;stroke:#0000ff;" x="126.057931" xlink:href="#m181d93a30d" y="65.263417"/>
     <use style="fill:#0000ff;stroke:#0000ff;" x="129.736092" xlink:href="#m181d93a30d" y="76.393588"/>
     <use style="fill:#0000ff;stroke:#0000ff;" x="133.414253" xlink:href="#m181d93a30d" y="65.946271"/>
     <use style="fill:#0000ff;stroke:#0000ff;" x="137.092414" xlink:href="#m181d93a30d" y="67.499175"/>
     <use style="fill:#0000ff;stroke:#0000ff;" x="140.770575" xlink:href="#m181d93a30d" y="75.313601"/>
     <use style="fill:#0000ff;stroke:#0000ff;" x="144.448736" xlink:href="#m181d93a30d" y="89.602129"/>
     <use style="fill:#0000ff;stroke:#0000ff;" x="148.126897" xlink:href="#m181d93a30d" y="73.45107"/>
     <use style="fill:#0000ff;stroke:#0000ff;" x="151.805057" xlink:href="#m181d93a30d" y="54.885459"/>
     <use style="fill:#0000ff;stroke:#0000ff;" x="155.483218" xlink:href="#m181d93a30d" y="58.678642"/>
     <use style="fill:#0000ff;stroke:#0000ff;" x="159.161379" xlink:href="#m181d93a30d" y="77.186996"/>
     <use style="fill:#0000ff;stroke:#0000ff;" x="162.83954" xlink:href="#m181d93a30d" y="80.768248"/>
     <use style="fill:#0000ff;stroke:#0000ff;" x="166.517701" xlink:href="#m181d93a30d" y="72.431562"/>
     <use style="fill:#0000ff;stroke:#0000ff;" x="170.195862" xlink:href="#m181d93a30d" y="71.918033"/>
     <use style="fill:#0000ff;stroke:#0000ff;" x="173.874023" xlink:href="#m181d93a30d" y="86.29417"/>
     <use style="fill:#0000ff;stroke:#0000ff;" x="177.552184" xlink:href="#m181d93a30d" y="74.128437"/>
     <use style="fill:#0000ff;stroke:#0000ff;" x="181.230345" xlink:href="#m181d93a30d" y="73.241302"/>
     <use style="fill:#0000ff;stroke:#0000ff;" x="184.908506" xlink:href="#m181d93a30d" y="71.595816"/>
     <use style="fill:#0000ff;stroke:#0000ff;" x="188.586667" xlink:href="#m181d93a30d" y="79.747502"/>
     <use style="fill:#0000ff;stroke:#0000ff;" x="192.264828" xlink:href="#m181d93a30d" y="73.365552"/>
     <use style="fill:#0000ff;stroke:#0000ff;" x="195.942989" xlink:href="#m181d93a30d" y="88.90503"/>
     <use style="fill:#0000ff;stroke:#0000ff;" x="199.621149" xlink:href="#m181d93a30d" y="74.261829"/>
     <use style="fill:#0000ff;stroke:#0000ff;" x="203.29931" xlink:href="#m181d93a30d" y="68.346664"/>
     <use style="fill:#0000ff;stroke:#0000ff;" x="206.977471" xlink:href="#m181d93a30d" y="65.238623"/>
     <use style="fill:#0000ff;stroke:#0000ff;" x="210.655632" xlink:href="#m181d93a30d" y="71.066714"/>
     <use style="fill:#0000ff;stroke:#0000ff;" x="214.333793" xlink:href="#m181d93a30d" y="75.004584"/>
     <use style="fill:#0000ff;stroke:#0000ff;" x="218.011954" xlink:href="#m181d93a30d" y="87.305557"/>
     <use style="fill:#0000ff;stroke:#0000ff;" x="221.690115" xlink:href="#m181d93a30d" y="70.192611"/>
     <use style="fill:#0000ff;stroke:#0000ff;" x="225.368276" xlink:href="#m181d93a30d" y="63.808219"/>
     <use style="fill:#0000ff;stroke:#0000ff;" x="229.046437" xlink:href="#m181d93a30d" y="75.72694"/>
     <use style="fill:#0000ff;stroke:#0000ff;" x="232.724598" xlink:href="#m181d93a30d" y="84.430133"/>
     <use style="fill:#0000ff;stroke:#0000ff;" x="236.402759" xlink:href="#m181d93a30d" y="80.072117"/>
     <use style="fill:#0000ff;stroke:#0000ff;" x="240.08092" xlink:href="#m181d93a30d" y="75.864577"/>
     <use style="fill:#0000ff;stroke:#0000ff;" x="243.75908" xlink:href="#m181d93a30d" y="71.130644"/>
     <use style="fill:#0000ff;stroke:#0000ff;" x="247.437241" xlink:href="#m181d93a30d" y="78.870867"/>
     <use style="fill:#0000ff;stroke:#0000ff;" x="251.115402" xlink:href="#m181d93a30d" y="78.691311"/>
     <use style="fill:#0000ff;stroke:#0000ff;" x="254.793563" xlink:href="#m181d93a30d" y="71.282376"/>
     <use style="fill:#0000ff;stroke:#0000ff;" x="258.471724" xlink:href="#m181d93a30d" y="82.350458"/>
     <use style="fill:#0000ff;stroke:#0000ff;" x="262.149885" xlink:href="#m181d93a30d" y="57.790362"/>
     <use style="fill:#0000ff;stroke:#0000ff;" x="265.828046" xlink:href="#m181d93a30d" y="81.578778"/>
     <use style="fill:#0000ff;stroke:#0000ff;" x="269.506207" xlink:href="#m181d93a30d" y="70.39675"/>
     <use style="fill:#0000ff;stroke:#0000ff;" x="273.184368" xlink:href="#m181d93a30d" y="74.080039"/>
     <use style="fill:#0000ff;stroke:#0000ff;" x="276.862529" xlink:href="#m181d93a30d" y="57.642272"/>
     <use style="fill:#0000ff;stroke:#0000ff;" x="280.54069" xlink:href="#m181d93a30d" y="73.325733"/>
     <use style="fill:#0000ff;stroke:#0000ff;" x="284.218851" xlink:href="#m181d93a30d" y="64.331925"/>
     <use style="fill:#0000ff;stroke:#0000ff;" x="287.897011" xlink:href="#m181d93a30d" y="65.448358"/>
     <use style="fill:#0000ff;stroke:#0000ff;" x="291.575172" xlink:href="#m181d93a30d" y="70.968791"/>
     <use style="fill:#0000ff;stroke:#0000ff;" x="295.253333" xlink:href="#m181d93a30d" y="53.834612"/>
     <use style="fill:#0000ff;stroke:#0000ff;" x="298.931494" xlink:href="#m181d93a30d" y="65.055864"/>
     <use style="fill:#0000ff;stroke:#0000ff;" x="302.609655" xlink:href="#m181d93a30d" y="69.662245"/>
     <use style="fill:#0000ff;stroke:#0000ff;" x="306.287816" xlink:href="#m181d93a30d" y="58.596933"/>
     <use style="fill:#0000ff;stroke:#0000ff;" x="309.965977" xlink:href="#m181d93a30d" y="69.951987"/>
     <use style="fill:#0000ff;stroke:#0000ff;" x="313.644138" xlink:href="#m181d93a30d" y="59.642866"/>
     <use style="fill:#0000ff;stroke:#0000ff;" x="317.322299" xlink:href="#m181d93a30d" y="63.95553"/>
     <use style="fill:#0000ff;stroke:#0000ff;" x="321.00046" xlink:href="#m181d93a30d" y="62.31906"/>
     <use style="fill:#0000ff;stroke:#0000ff;" x="324.678621" xlink:href="#m181d93a30d" y="72.614013"/>
     <use style="fill:#0000ff;stroke:#0000ff;" x="328.356782" xlink:href="#m181d93a30d" y="60.504344"/>
     <use style="fill:#0000ff;stroke:#0000ff;" x="332.034943" xlink:href="#m181d93a30d" y="59.314951"/>
     <use style="fill:#0000ff;stroke:#0000ff;" x="335.713103" xlink:href="#m181d93a30d" y="67.04062"/>
     <use style="fill:#0000ff;stroke:#0000ff;" x="339.391264" xlink:href="#m181d93a30d" y="68.20627"/>
     <use style="fill:#0000ff;stroke:#0000ff;" x="343.069425" xlink:href="#m181d93a30d" y="63.128732"/>
     <use style="fill:#0000ff;stroke:#0000ff;" x="346.747586" xlink:href="#m181d93a30d" y="73.326249"/>
     <use style="fill:#0000ff;stroke:#0000ff;" x="350.425747" xlink:href="#m181d93a30d" y="64.42413"/>
     <use style="fill:#0000ff;stroke:#0000ff;" x="354.103908" xlink:href="#m181d93a30d" y="78.025961"/>
     <use style="fill:#0000ff;stroke:#0000ff;" x="357.782069" xlink:href="#m181d93a30d" y="67.503687"/>
     <use style="fill:#0000ff;stroke:#0000ff;" x="361.46023" xlink:href="#m181d93a30d" y="62.859796"/>
     <use style="fill:#0000ff;stroke:#0000ff;" x="365.138391" xlink:href="#m181d93a30d" y="71.018963"/>
     <use style="fill:#0000ff;stroke:#0000ff;" x="368.816552" xlink:href="#m181d93a30d" y="84.327988"/>
     <use style="fill:#0000ff;stroke:#0000ff;" x="372.494713" xlink:href="#m181d93a30d" y="71.777672"/>
     <use style="fill:#0000ff;stroke:#0000ff;" x="376.172874" xlink:href="#m181d93a30d" y="78.283817"/>
     <use style="fill:#0000ff;stroke:#0000ff;" x="379.851034" xlink:href="#m181d93a30d" y="69.957641"/>
     <use style="fill:#0000ff;stroke:#0000ff;" x="383.529195" xlink:href="#m181d93a30d" y="79.237311"/>
     <use style="fill:#0000ff;stroke:#0000ff;" x="387.207356" xlink:href="#m181d93a30d" y="75.200432"/>
     <use style="fill:#0000ff;stroke:#0000ff;" x="390.885517" xlink:href="#m181d93a30d" y="85.44054"/>
     <use style="fill:#0000ff;stroke:#0000ff;" x="394.563678" xlink:href="#m181d93a30d" y="94.848"/>
     <use style="fill:#0000ff;stroke:#0000ff;" x="398.241839" xlink:href="#m181d93a30d" y="94.535032"/>
     <use style="fill:#0000ff;stroke:#0000ff;" x="401.92" xlink:href="#m181d93a30d" y="89.748639"/>
    </g>
   </g>
   <g id="patch_3">
    <path d="M 69.12 96.768 
L 69.12 44.928 
" style="fill:none;stroke:#000000;stroke-linecap:square;stroke-linejoin:miter;stroke-width:0.8;"/>
   </g>
   <g id="patch_4">
    <path d="M 414.72 96.768 
L 414.72 44.928 
" style="fill:none;stroke:#000000;stroke-linecap:square;stroke-linejoin:miter;stroke-width:0.8;"/>
   </g>
   <g id="patch_5">
    <path d="M 69.12 96.768 
L 414.72 96.768 
" style="fill:none;stroke:#000000;stroke-linecap:square;stroke-linejoin:miter;stroke-width:0.8;"/>
   </g>
   <g id="patch_6">
    <path d="M 69.12 44.928 
L 414.72 44.928 
" style="fill:none;stroke:#000000;stroke-linecap:square;stroke-linejoin:miter;stroke-width:0.8;"/>
   </g>
   <g id="text_4">
    <!-- Function (0/0): y = a*exp(-(x-x0)**2/w**2)+b -->
    <defs>
     <path d="M 9.8125 72.90625 
L 51.703125 72.90625 
L 51.703125 64.59375 
L 19.671875 64.59375 
L 19.671875 43.109375 
L 48.578125 43.109375 
L 48.578125 34.8125 
L 19.671875 34.8125 
L 19.671875 0 
L 9.8125 0 
z
" id="DejaVuSans-46"/>
     <path d="M 48.78125 52.59375 
L 48.78125 44.1875 
Q 44.96875 46.296875 41.140625 47.34375 
Q 37.3125 48.390625 33.40625 48.390625 
Q 24.65625 48.390625 19.8125 42.84375 
Q 14.984375 37.3125 14.984375 27.296875 
Q 14.984375 17.28125 19.8125 11.734375 
Q 24.65625 6.203125 33.40625 6.203125 
Q 37.3125 6.203125 41.140625 7.25 
Q 44.96875 8.296875 48.78125 10.40625 
L 48.78125 2.09375 
Q 45.015625 0.34375 40.984375 -0.53125 
Q 36.96875 -1.421875 32.421875 -1.421875 
Q 20.0625 -1.421875 12.78125 6.34375 
Q 5.515625 14.109375 5.515625 27.296875 
Q 5.515625 40.671875 12.859375 48.328125 
Q 20.21875 56 33.015625 56 
Q 37.15625 56 41.109375 55.140625 
Q 45.0625 54.296875 48.78125 52.59375 
z
" id="DejaVuSans-63"/>
     <path d="M 30.609375 48.390625 
Q 23.390625 48.390625 19.1875 42.75 
Q 14.984375 37.109375 14.984375 27.296875 
Q 14.984375 17.484375 19.15625 11.84375 
Q 23.34375 6.203125 30.609375 6.203125 
Q 37.796875 6.203125 41.984375 11.859375 
Q 46.1875 17.53125 46.1875 27.296875 
Q 46.1875 37.015625 41.984375 42.703125 
Q 37.796875 48.390625 30.609375 48.390625 
z
M 30.609375 56 
Q 42.328125 56 49.015625 48.375 
Q 55.71875 40.765625 55.71875 27.296875 
Q 55.71875 13.875 49.015625 6.21875 
Q 42.328125 -1.421875 30.609375 -1.421875 
Q 18.84375 -1.421875 12.171875 6.21875 
Q 5.515625 13.875 5.515625 27.296875 
Q 5.515625 40.765625 12.171875 48.375 
Q 18.84375 56 30.609375 56 
z
" id="DejaVuSans-6f"/>
     <path id="DejaVuSans-20"/>
     <path d="M 31 75.875 
Q 24.46875 64.65625 21.28125 53.65625 
Q 18.109375 42.671875 18.109375 31.390625 
Q 18.109375 20.125 21.3125 9.0625 
Q 24.515625 -2 31 -13.1875 
L 23.1875 -13.1875 
Q 15.875 -1.703125 12.234375 9.375 
Q 8.59375 20.453125 8.59375 31.390625 
Q 8.59375 42.28125 12.203125 53.3125 
Q 15.828125 64.359375 23.1875 75.875 
z
" id="DejaVuSans-28"/>
     <path d="M 31.78125 66.40625 
Q 24.171875 66.40625 20.328125 58.90625 
Q 16.5 51.421875 16.5 36.375 
Q 16.5 21.390625 20.328125 13.890625 
Q 24.171875 6.390625 31.78125 6.390625 
Q 39.453125 6.390625 43.28125 13.890625 
Q 47.125 21.390625 47.125 36.375 
Q 47.125 51.421875 43.28125 58.90625 
Q 39.453125 66.40625 31.78125 66.40625 
z
M 31.78125 74.21875 
Q 44.046875 74.21875 50.515625 64.515625 
Q 56.984375 54.828125 56.984375 36.375 
Q 56.984375 17.96875 50.515625 8.265625 
Q 44.046875 -1.421875 31.78125 -1.421875 
Q 19.53125 -1.421875 13.0625 8.265625 
Q 6.59375 17.96875 6.59375 36.375 
Q 6.59375 54.828125 13.0625 64.515625 
Q 19.53125 74.21875 31.78125 74.21875 
z
" id="DejaVuSans-30"/>
     <path d="M 25.390625 72.90625 
L 33.6875 72.90625 
L 8.296875 -9.28125 
L 0 -9.28125 
z
" id="DejaVuSans-2f"/>
     <path d="M 8.015625 75.875 
L 15.828125 75.875 
Q 23.140625 64.359375 26.78125 53.3125 
Q 30.421875 42.28125 30.421875 31.390625 
Q 30.421875 20.453125 26.78125 9.375 
Q 23.140625 -1.703125 15.828125 -13.1875 
L 8.015625 -13.1875 
Q 14.5 -2 17.703125 9.0625 
Q 20.90625 20.125 20.90625 31.390625 
Q 20.90625 42.671875 17.703125 53.65625 
Q 14.5 64.65625 8.015625 75.875 
z
" id="DejaVuSans-29"/>
     <path d="M 11.71875 12.40625 
L 22.015625 12.40625 
L 22.015625 0 
L 11.71875 0 
z
M 11.71875 51.703125 
L 22.015625 51.703125 
L 22.015625 39.3125 
L 11.71875 39.3125 
z
" id="DejaVuSans-3a"/>
     <path d="M 32.171875 -5.078125 
Q 28.375 -14.84375 24.75 -17.8125 
Q 21.140625 -20.796875 15.09375 -20.796875 
L 7.90625 -20.796875 
L 7.90625 -13.28125 
L 13.1875 -13.28125 
Q 16.890625 -13.28125 18.9375 -11.515625 
Q 21 -9.765625 23.484375 -3.21875 
L 25.09375 0.875 
L 2.984375 54.6875 
L 12.5 54.6875 
L 29.59375 11.921875 
L 46.6875 54.6875 
L 56.203125 54.6875 
z
" id="DejaVuSans-79"/>
     <path d="M 10.59375 45.40625 
L 73.1875 45.40625 
L 73.1875 37.203125 
L 10.59375 37.203125 
z
M 10.59375 25.484375 
L 73.1875 25.484375 
L 73.1875 17.1875 
L 10.59375 17.1875 
z
" id="DejaVuSans-3d"/>
     <path d="M 47.015625 60.890625 
L 29.5 51.421875 
L 47.015625 41.890625 
L 44.1875 37.109375 
L 27.78125 47.015625 
L 27.78125 28.609375 
L 22.21875 28.609375 
L 22.21875 47.015625 
L 5.8125 37.109375 
L 2.984375 41.890625 
L 20.515625 51.421875 
L 2.984375 60.890625 
L 5.8125 65.71875 
L 22.21875 55.8125 
L 22.21875 74.21875 
L 27.78125 74.21875 
L 27.78125 55.8125 
L 44.1875 65.71875 
z
" id="DejaVuSans-2a"/>
     <path d="M 54.890625 54.6875 
L 35.109375 28.078125 
L 55.90625 0 
L 45.3125 0 
L 29.390625 21.484375 
L 13.484375 0 
L 2.875 0 
L 24.125 28.609375 
L 4.6875 54.6875 
L 15.28125 54.6875 
L 29.78125 35.203125 
L 44.28125 54.6875 
z
" id="DejaVuSans-78"/>
     <path d="M 18.109375 8.203125 
L 18.109375 -20.796875 
L 9.078125 -20.796875 
L 9.078125 54.6875 
L 18.109375 54.6875 
L 18.109375 46.390625 
Q 20.953125 51.265625 25.265625 53.625 
Q 29.59375 56 35.59375 56 
Q 45.5625 56 51.78125 48.09375 
Q 58.015625 40.1875 58.015625 27.296875 
Q 58.015625 14.40625 51.78125 6.484375 
Q 45.5625 -1.421875 35.59375 -1.421875 
Q 29.59375 -1.421875 25.265625 0.953125 
Q 20.953125 3.328125 18.109375 8.203125 
z
M 48.6875 27.296875 
Q 48.6875 37.203125 44.609375 42.84375 
Q 40.53125 48.484375 33.40625 48.484375 
Q 26.265625 48.484375 22.1875 42.84375 
Q 18.109375 37.203125 18.109375 27.296875 
Q 18.109375 17.390625 22.1875 11.75 
Q 26.265625 6.109375 33.40625 6.109375 
Q 40.53125 6.109375 44.609375 11.75 
Q 48.6875 17.390625 48.6875 27.296875 
z
" id="DejaVuSans-70"/>
     <path d="M 4.890625 31.390625 
L 31.203125 31.390625 
L 31.203125 23.390625 
L 4.890625 23.390625 
z
" id="DejaVuSans-2d"/>
     <path d="M 4.203125 54.6875 
L 13.1875 54.6875 
L 24.421875 12.015625 
L 35.59375 54.6875 
L 46.1875 54.6875 
L 57.421875 12.015625 
L 68.609375 54.6875 
L 77.59375 54.6875 
L 63.28125 0 
L 52.6875 0 
L 40.921875 44.828125 
L 29.109375 0 
L 18.5 0 
z
" id="DejaVuSans-77"/>
     <path d="M 46 62.703125 
L 46 35.5 
L 73.1875 35.5 
L 73.1875 27.203125 
L 46 27.203125 
L 46 0 
L 37.796875 0 
L 37.796875 27.203125 
L 10.59375 27.203125 
L 10.59375 35.5 
L 37.796875 35.5 
L 37.796875 62.703125 
z
" id="DejaVuSans-2b"/>
     <path d="M 48.6875 27.296875 
Q 48.6875 37.203125 44.609375 42.84375 
Q 40.53125 48.484375 33.40625 48.484375 
Q 26.265625 48.484375 22.1875 42.84375 
Q 18.109375 37.203125 18.109375 27.296875 
Q 18.109375 17.390625 22.1875 11.75 
Q 26.265625 6.109375 33.40625 6.109375 
Q 40.53125 6.109375 44.609375 11.75 
Q 48.6875 17.390625 48.6875 27.296875 
z
M 18.109375 46.390625 
Q 20.953125 51.265625 25.265625 53.625 
Q 29.59375 56 35.59375 56 
Q 45.5625 56 51.78125 48.09375 
Q 58.015625 40.1875 58.015625 27.296875 
Q 58.015625 14.40625 51.78125 6.484375 
Q 45.5625 -1.421875 35.59375 -1.421875 
Q 29.59375 -1.421875 25.265625 0.953125 
Q 20.953125 3.328125 18.109375 8.203125 
L 18.109375 0 
L 9.078125 0 
L 9.078125 75.984375 
L 18.109375 75.984375 
z
" id="DejaVuSans-62"/>
    </defs>
    <g transform="translate(69.12 27.730187)scale(0.1 -0.1)">
     <use xlink:href="#DejaVuSans-46"/>
     <use x="57.441406" xlink:href="#DejaVuSans-75"/>
     <use x="120.820312" xlink:href="#DejaVuSans-6e"/>
     <use x="184.199219" xlink:href="#DejaVuSans-63"/>
     <use x="239.179688" xlink:href="#DejaVuSans-74"/>
     <use x="278.388672" xlink:href="#DejaVuSans-69"/>
     <use x="306.171875" xlink:href="#DejaVuSans-6f"/>
     <use x="367.353516" xlink:href="#DejaVuSans-6e"/>
     <use x="430.732422" xlink:href="#DejaVuSans-20"/>
     <use x="462.519531" xlink:href="#DejaVuSans-28"/>
     <use x="501.533203" xlink:href="#DejaVuSans-30"/>
     <use x="565.15625" xlink:href="#DejaVuSans-2f"/>
     <use x="598.847656" xlink:href="#DejaVuSans-30"/>
     <use x="662.470703" xlink:href="#DejaVuSans-29"/>
     <use x="701.484375" xlink:href="#DejaVuSans-3a"/>
     <use x="735.175781" xlink:href="#DejaVuSans-20"/>
     <use x="766.962891" xlink:href="#DejaVuSans-79"/>
     <use x="826.142578" xlink:href="#DejaVuSans-20"/>
     <use x="857.929688" xlink:href="#DejaVuSans-3d"/>
     <use x="941.71875" xlink:href="#DejaVuSans-20"/>
     <use x="973.505859" xlink:href="#DejaVuSans-61"/>
     <use x="1034.785156" xlink:href="#DejaVuSans-2a"/>
     <use x="1084.785156" xlink:href="#DejaVuSans-65"/>
     <use x="1146.292969" xlink:href="#DejaVuSans-78"/>
     <use x="1205.472656" xlink:href="#DejaVuSans-70"/>
     <use x="1268.949219" xlink:href="#DejaVuSans-28"/>
     <use x="1307.962891" xlink:href="#DejaVuSans-2d"/>
     <use x="1344.046875" xlink:href="#DejaVuSans-28"/>
     <use x="1383.060547" xlink:href="#DejaVuSans-78"/>
     <use x="1442.240234" xlink:href="#DejaVuSans-2d"/>
     <use x="1478.324219" xlink:href="#DejaVuSans-78"/>
     <use x="1537.503906" xlink:href="#DejaVuSans-30"/>
     <use x="1601.126953" xlink:href="#DejaVuSans-29"/>
     <use x="1640.140625" xlink:href="#DejaVuSans-2a"/>
     <use x="1690.140625" xlink:href="#DejaVuSans-2a"/>
     <use x="1740.140625" xlink:href="#DejaVuSans-32"/>
     <use x="1803.763672" xlink:href="#DejaVuSans-2f"/>
     <use x="1837.455078" xlink:href="#DejaVuSans-77"/>
     <use x="1919.242188" xlink:href="#DejaVuSans-2a"/>
     <use x="1969.242188" xlink:href="#DejaVuSans-2a"/>
     <use x="2019.242188" xlink:href="#DejaVuSans-32"/>
     <use x="2082.865234" xlink:href="#DejaVuSans-29"/>
     <use x="2121.878906" xlink:href="#DejaVuSans-2b"/>
     <use x="2205.667969" xlink:href="#DejaVuSans-62"/>
    </g>
    <!-- Fit: a=247.1$\pm$8.4, b=54.6$\pm$9.3, x0=4.2959$\pm$0.0016, w=0.1819$\pm$0.0078, -->
    <defs>
     <path d="M 37.796875 64.3125 
L 12.890625 25.390625 
L 37.796875 25.390625 
z
M 35.203125 72.90625 
L 47.609375 72.90625 
L 47.609375 25.390625 
L 58.015625 25.390625 
L 58.015625 17.1875 
L 47.609375 17.1875 
L 47.609375 0 
L 37.796875 0 
L 37.796875 17.1875 
L 4.890625 17.1875 
L 4.890625 26.703125 
z
" id="DejaVuSans-34"/>
     <path d="M 8.203125 72.90625 
L 55.078125 72.90625 
L 55.078125 68.703125 
L 28.609375 0 
L 18.3125 0 
L 43.21875 64.59375 
L 8.203125 64.59375 
z
" id="DejaVuSans-37"/>
     <path d="M 10.6875 12.40625 
L 21 12.40625 
L 21 0 
L 10.6875 0 
z
" id="DejaVuSans-2e"/>
     <path d="M 12.40625 8.296875 
L 28.515625 8.296875 
L 28.515625 63.921875 
L 10.984375 60.40625 
L 10.984375 69.390625 
L 28.421875 72.90625 
L 38.28125 72.90625 
L 38.28125 8.296875 
L 54.390625 8.296875 
L 54.390625 0 
L 12.40625 0 
z
" id="DejaVuSans-31"/>
     <path d="M 46 62.703125 
L 46 43.796875 
L 73.1875 43.796875 
L 73.1875 35.5 
L 46 35.5 
L 46 16.609375 
L 37.796875 16.609375 
L 37.796875 35.5 
L 10.59375 35.5 
L 10.59375 43.796875 
L 37.796875 43.796875 
L 37.796875 62.703125 
z
M 10.59375 8.296875 
L 73.1875 8.296875 
L 73.1875 0 
L 10.59375 0 
z
" id="DejaVuSans-b1"/>
     <path d="M 31.78125 34.625 
Q 24.75 34.625 20.71875 30.859375 
Q 16.703125 27.09375 16.703125 20.515625 
Q 16.703125 13.921875 20.71875 10.15625 
Q 24.75 6.390625 31.78125 6.390625 
Q 38.8125 6.390625 42.859375 10.171875 
Q 46.921875 13.96875 46.921875 20.515625 
Q 46.921875 27.09375 42.890625 30.859375 
Q 38.875 34.625 31.78125 34.625 
z
M 21.921875 38.8125 
Q 15.578125 40.375 12.03125 44.71875 
Q 8.5 49.078125 8.5 55.328125 
Q 8.5 64.0625 14.71875 69.140625 
Q 20.953125 74.21875 31.78125 74.21875 
Q 42.671875 74.21875 48.875 69.140625 
Q 55.078125 64.0625 55.078125 55.328125 
Q 55.078125 49.078125 51.53125 44.71875 
Q 48 40.375 41.703125 38.8125 
Q 48.828125 37.15625 52.796875 32.3125 
Q 56.78125 27.484375 56.78125 20.515625 
Q 56.78125 9.90625 50.3125 4.234375 
Q 43.84375 -1.421875 31.78125 -1.421875 
Q 19.734375 -1.421875 13.25 4.234375 
Q 6.78125 9.90625 6.78125 20.515625 
Q 6.78125 27.484375 10.78125 32.3125 
Q 14.796875 37.15625 21.921875 38.8125 
z
M 18.3125 54.390625 
Q 18.3125 48.734375 21.84375 45.5625 
Q 25.390625 42.390625 31.78125 42.390625 
Q 38.140625 42.390625 41.71875 45.5625 
Q 45.3125 48.734375 45.3125 54.390625 
Q 45.3125 60.0625 41.71875 63.234375 
Q 38.140625 66.40625 31.78125 66.40625 
Q 25.390625 66.40625 21.84375 63.234375 
Q 18.3125 60.0625 18.3125 54.390625 
z
" id="DejaVuSans-38"/>
     <path d="M 11.71875 12.40625 
L 22.015625 12.40625 
L 22.015625 4 
L 14.015625 -11.625 
L 7.71875 -11.625 
L 11.71875 4 
z
" id="DejaVuSans-2c"/>
     <path d="M 10.796875 72.90625 
L 49.515625 72.90625 
L 49.515625 64.59375 
L 19.828125 64.59375 
L 19.828125 46.734375 
Q 21.96875 47.46875 24.109375 47.828125 
Q 26.265625 48.1875 28.421875 48.1875 
Q 40.625 48.1875 47.75 41.5 
Q 54.890625 34.8125 54.890625 23.390625 
Q 54.890625 11.625 47.5625 5.09375 
Q 40.234375 -1.421875 26.90625 -1.421875 
Q 22.3125 -1.421875 17.546875 -0.640625 
Q 12.796875 0.140625 7.71875 1.703125 
L 7.71875 11.625 
Q 12.109375 9.234375 16.796875 8.0625 
Q 21.484375 6.890625 26.703125 6.890625 
Q 35.15625 6.890625 40.078125 11.328125 
Q 45.015625 15.765625 45.015625 23.390625 
Q 45.015625 31 40.078125 35.4375 
Q 35.15625 39.890625 26.703125 39.890625 
Q 22.75 39.890625 18.8125 39.015625 
Q 14.890625 38.140625 10.796875 36.28125 
z
" id="DejaVuSans-35"/>
     <path d="M 33.015625 40.375 
Q 26.375 40.375 22.484375 35.828125 
Q 18.609375 31.296875 18.609375 23.390625 
Q 18.609375 15.53125 22.484375 10.953125 
Q 26.375 6.390625 33.015625 6.390625 
Q 39.65625 6.390625 43.53125 10.953125 
Q 47.40625 15.53125 47.40625 23.390625 
Q 47.40625 31.296875 43.53125 35.828125 
Q 39.65625 40.375 33.015625 40.375 
z
M 52.59375 71.296875 
L 52.59375 62.3125 
Q 48.875 64.0625 45.09375 64.984375 
Q 41.3125 65.921875 37.59375 65.921875 
Q 27.828125 65.921875 22.671875 59.328125 
Q 17.53125 52.734375 16.796875 39.40625 
Q 19.671875 43.65625 24.015625 45.921875 
Q 28.375 48.1875 33.59375 48.1875 
Q 44.578125 48.1875 50.953125 41.515625 
Q 57.328125 34.859375 57.328125 23.390625 
Q 57.328125 12.15625 50.6875 5.359375 
Q 44.046875 -1.421875 33.015625 -1.421875 
Q 20.359375 -1.421875 13.671875 8.265625 
Q 6.984375 17.96875 6.984375 36.375 
Q 6.984375 53.65625 15.1875 63.9375 
Q 23.390625 74.21875 37.203125 74.21875 
Q 40.921875 74.21875 44.703125 73.484375 
Q 48.484375 72.75 52.59375 71.296875 
z
" id="DejaVuSans-36"/>
     <path d="M 10.984375 1.515625 
L 10.984375 10.5 
Q 14.703125 8.734375 18.5 7.8125 
Q 22.3125 6.890625 25.984375 6.890625 
Q 35.75 6.890625 40.890625 13.453125 
Q 46.046875 20.015625 46.78125 33.40625 
Q 43.953125 29.203125 39.59375 26.953125 
Q 35.25 24.703125 29.984375 24.703125 
Q 19.046875 24.703125 12.671875 31.3125 
Q 6.296875 37.9375 6.296875 49.421875 
Q 6.296875 60.640625 12.9375 67.421875 
Q 19.578125 74.21875 30.609375 74.21875 
Q 43.265625 74.21875 49.921875 64.515625 
Q 56.59375 54.828125 56.59375 36.375 
Q 56.59375 19.140625 48.40625 8.859375 
Q 40.234375 -1.421875 26.421875 -1.421875 
Q 22.703125 -1.421875 18.890625 -0.6875 
Q 15.09375 0.046875 10.984375 1.515625 
z
M 30.609375 32.421875 
Q 37.25 32.421875 41.125 36.953125 
Q 45.015625 41.5 45.015625 49.421875 
Q 45.015625 57.28125 41.125 61.84375 
Q 37.25 66.40625 30.609375 66.40625 
Q 23.96875 66.40625 20.09375 61.84375 
Q 16.21875 57.28125 16.21875 49.421875 
Q 16.21875 41.5 20.09375 36.953125 
Q 23.96875 32.421875 30.609375 32.421875 
z
" id="DejaVuSans-39"/>
     <path d="M 40.578125 39.3125 
Q 47.65625 37.796875 51.625 33 
Q 55.609375 28.21875 55.609375 21.1875 
Q 55.609375 10.40625 48.1875 4.484375 
Q 40.765625 -1.421875 27.09375 -1.421875 
Q 22.515625 -1.421875 17.65625 -0.515625 
Q 12.796875 0.390625 7.625 2.203125 
L 7.625 11.71875 
Q 11.71875 9.328125 16.59375 8.109375 
Q 21.484375 6.890625 26.8125 6.890625 
Q 36.078125 6.890625 40.9375 10.546875 
Q 45.796875 14.203125 45.796875 21.1875 
Q 45.796875 27.640625 41.28125 31.265625 
Q 36.765625 34.90625 28.71875 34.90625 
L 20.21875 34.90625 
L 20.21875 43.015625 
L 29.109375 43.015625 
Q 36.375 43.015625 40.234375 45.921875 
Q 44.09375 48.828125 44.09375 54.296875 
Q 44.09375 59.90625 40.109375 62.90625 
Q 36.140625 65.921875 28.71875 65.921875 
Q 24.65625 65.921875 20.015625 65.03125 
Q 15.375 64.15625 9.8125 62.3125 
L 9.8125 71.09375 
Q 15.4375 72.65625 20.34375 73.4375 
Q 25.25 74.21875 29.59375 74.21875 
Q 40.828125 74.21875 47.359375 69.109375 
Q 53.90625 64.015625 53.90625 55.328125 
Q 53.90625 49.265625 50.4375 45.09375 
Q 46.96875 40.921875 40.578125 39.3125 
z
" id="DejaVuSans-33"/>
    </defs>
    <g transform="translate(69.12 38.928)scale(0.1 -0.1)">
     <use transform="translate(0 0.015625)" xlink:href="#DejaVuSans-46"/>
     <use transform="translate(57.519531 0.015625)" xlink:href="#DejaVuSans-69"/>
     <use transform="translate(85.302734 0.015625)" xlink:href="#DejaVuSans-74"/>
     <use transform="translate(124.511719 0.015625)" xlink:href="#DejaVuSans-3a"/>
     <use transform="translate(158.203125 0.015625)" xlink:href="#DejaVuSans-20"/>
     <use transform="translate(189.990234 0.015625)" xlink:href="#DejaVuSans-61"/>
     <use transform="translate(251.269531 0.015625)" xlink:href="#DejaVuSans-3d"/>
     <use transform="translate(335.058594 0.015625)" xlink:href="#DejaVuSans-32"/>
     <use transform="translate(398.681641 0.015625)" xlink:href="#DejaVuSans-34"/>
     <use transform="translate(462.304688 0.015625)" xlink:href="#DejaVuSans-37"/>
     <use transform="translate(525.927734 0.015625)" xlink:href="#DejaVuSans-2e"/>
     <use transform="translate(557.714844 0.015625)" xlink:href="#DejaVuSans-31"/>
     <use transform="translate(621.337891 0.015625)" xlink:href="#DejaVuSans-b1"/>
     <use transform="translate(705.126953 0.015625)" xlink:href="#DejaVuSans-38"/>
     <use transform="translate(768.75 0.015625)" xlink:href="#DejaVuSans-2e"/>
     <use transform="translate(800.537109 0.015625)" xlink:href="#DejaVuSans-34"/>
     <use transform="translate(864.160156 0.015625)" xlink:href="#DejaVuSans-2c"/>
     <use transform="translate(895.947266 0.015625)" xlink:href="#DejaVuSans-20"/>
     <use transform="translate(927.734375 0.015625)" xlink:href="#DejaVuSans-62"/>
     <use transform="translate(991.210938 0.015625)" xlink:href="#DejaVuSans-3d"/>
     <use transform="translate(1075 0.015625)" xlink:href="#DejaVuSans-35"/>
     <use transform="translate(1138.623047 0.015625)" xlink:href="#DejaVuSans-34"/>
     <use transform="translate(1202.246094 0.015625)" xlink:href="#DejaVuSans-2e"/>
     <use transform="translate(1234.033203 0.015625)" xlink:href="#DejaVuSans-36"/>
     <use transform="translate(1297.65625 0.015625)" xlink:href="#DejaVuSans-b1"/>
     <use transform="translate(1381.445312 0.015625)" xlink:href="#DejaVuSans-39"/>
     <use transform="translate(1445.068359 0.015625)" xlink:href="#DejaVuSans-2e"/>
     <use transform="translate(1476.855469 0.015625)" xlink:href="#DejaVuSans-33"/>
     <use transform="translate(1540.478516 0.015625)" xlink:href="#DejaVuSans-2c"/>
     <use transform="translate(1572.265625 0.015625)" xlink:href="#DejaVuSans-20"/>
     <use transform="translate(1604.052734 0.015625)" xlink:href="#DejaVuSans-78"/>
     <use transform="translate(1663.232422 0.015625)" xlink:href="#DejaVuSans-30"/>
     <use transform="translate(1726.855469 0.015625)" xlink:href="#DejaVuSans-3d"/>
     <use transform="translate(1810.644531 0.015625)" xlink:href="#DejaVuSans-34"/>
     <use transform="translate(1874.267578 0.015625)" xlink:href="#DejaVuSans-2e"/>
     <use transform="translate(1905.976562 0.015625)" xlink:href="#DejaVuSans-32"/>
     <use transform="translate(1969.583984 0.015625)" xlink:href="#DejaVuSans-39"/>
     <use transform="translate(2033.207031 0.015625)" xlink:href="#DejaVuSans-35"/>
     <use transform="translate(2096.751953 0.015625)" xlink:href="#DejaVuSans-39"/>
     <use transform="translate(2160.375 0.015625)" xlink:href="#DejaVuSans-b1"/>
     <use transform="translate(2244.164062 0.015625)" xlink:href="#DejaVuSans-30"/>
     <use transform="translate(2307.787109 0.015625)" xlink:href="#DejaVuSans-2e"/>
     <use transform="translate(2339.574219 0.015625)" xlink:href="#DejaVuSans-30"/>
     <use transform="translate(2403.197266 0.015625)" xlink:href="#DejaVuSans-30"/>
     <use transform="translate(2466.820312 0.015625)" xlink:href="#DejaVuSans-31"/>
     <use transform="translate(2530.443359 0.015625)" xlink:href="#DejaVuSans-36"/>
     <use transform="translate(2594.066406 0.015625)" xlink:href="#DejaVuSans-2c"/>
     <use transform="translate(2625.853516 0.015625)" xlink:href="#DejaVuSans-20"/>
     <use transform="translate(2657.640625 0.015625)" xlink:href="#DejaVuSans-77"/>
     <use transform="translate(2739.427734 0.015625)" xlink:href="#DejaVuSans-3d"/>
     <use transform="translate(2823.216797 0.015625)" xlink:href="#DejaVuSans-30"/>
     <use transform="translate(2886.839844 0.015625)" xlink:href="#DejaVuSans-2e"/>
     <use transform="translate(2918.626953 0.015625)" xlink:href="#DejaVuSans-31"/>
     <use transform="translate(2982.25 0.015625)" xlink:href="#DejaVuSans-38"/>
     <use transform="translate(3045.873047 0.015625)" xlink:href="#DejaVuSans-31"/>
     <use transform="translate(3109.496094 0.015625)" xlink:href="#DejaVuSans-39"/>
     <use transform="translate(3173.119141 0.015625)" xlink:href="#DejaVuSans-b1"/>
     <use transform="translate(3256.908203 0.015625)" xlink:href="#DejaVuSans-30"/>
     <use transform="translate(3320.53125 0.015625)" xlink:href="#DejaVuSans-2e"/>
     <use transform="translate(3352.318359 0.015625)" xlink:href="#DejaVuSans-30"/>
     <use transform="translate(3415.941406 0.015625)" xlink:href="#DejaVuSans-30"/>
     <use transform="translate(3479.564453 0.015625)" xlink:href="#DejaVuSans-37"/>
     <use transform="translate(3543.1875 0.015625)" xlink:href="#DejaVuSans-38"/>
     <use transform="translate(3606.810547 0.015625)" xlink:href="#DejaVuSans-2c"/>
    </g>
   </g>
  </g>
  <g id="axes_2">
   <g id="patch_7">
    <path d="M 69.12 311.04 
L 414.72 311.04 
L 414.72 103.68 
L 69.12 103.68 
z
" style="fill:#ffffff;"/>
   </g>
   <g id="matplotlib.axis_3">
    <g id="xtick_7">
     <g id="line2d_12">
      <g>
       <use style="stroke:#000000;stroke-width:0.8;" x="71.506297" xlink:href="#mcf9d0e102b" y="311.04"/>
      </g>
     </g>
     <g id="text_5">
      <!-- 4.0 -->
      <g transform="translate(59.578954 329.437656)scale(0.15 -0.15)">
       <use xlink:href="#DejaVuSans-34"/>
       <use x="63.623047" xlink:href="#DejaVuSans-2e"/>
       <use x="95.410156" xlink:href="#DejaVuSans-30"/>
      </g>
     </g>
    </g>
    <g id="xtick_8">
     <g id="line2d_13">
      <g>
       <use style="stroke:#000000;stroke-width:0.8;" x="133.336713" xlink:href="#mcf9d0e102b" y="311.04"/>
      </g>
     </g>
     <g id="text_6">
      <!-- 4.1 -->
      <g transform="translate(121.40937 329.437656)scale(0.15 -0.15)">
       <use xlink:href="#DejaVuSans-34"/>
       <use x="63.623047" xlink:href="#DejaVuSans-2e"/>
       <use x="95.410156" xlink:href="#DejaVuSans-31"/>
      </g>
     </g>
    </g>
    <g id="xtick_9">
     <g id="line2d_14">
      <g>
       <use style="stroke:#000000;stroke-width:0.8;" x="195.167129" xlink:href="#mcf9d0e102b" y="311.04"/>
      </g>
     </g>
     <g id="text_7">
      <!-- 4.2 -->
      <g transform="translate(183.239786 329.437656)scale(0.15 -0.15)">
       <use xlink:href="#DejaVuSans-34"/>
       <use x="63.623047" xlink:href="#DejaVuSans-2e"/>
       <use x="95.410156" xlink:href="#DejaVuSans-32"/>
      </g>
     </g>
    </g>
    <g id="xtick_10">
     <g id="line2d_15">
      <g>
       <use style="stroke:#000000;stroke-width:0.8;" x="256.997545" xlink:href="#mcf9d0e102b" y="311.04"/>
      </g>
     </g>
     <g id="text_8">
      <!-- 4.3 -->
      <g transform="translate(245.070202 329.437656)scale(0.15 -0.15)">
       <use xlink:href="#DejaVuSans-34"/>
       <use x="63.623047" xlink:href="#DejaVuSans-2e"/>
       <use x="95.410156" xlink:href="#DejaVuSans-33"/>
      </g>
     </g>
    </g>
    <g id="xtick_11">
     <g id="line2d_16">
      <g>
       <use style="stroke:#000000;stroke-width:0.8;" x="318.827961" xlink:href="#mcf9d0e102b" y="311.04"/>
      </g>
     </g>
     <g id="text_9">
      <!-- 4.4 -->
      <g transform="translate(306.900617 329.437656)scale(0.15 -0.15)">
       <use xlink:href="#DejaVuSans-34"/>
       <use x="63.623047" xlink:href="#DejaVuSans-2e"/>
       <use x="95.410156" xlink:href="#DejaVuSans-34"/>
      </g>
     </g>
    </g>
    <g id="xtick_12">
     <g id="line2d_17">
      <g>
       <use style="stroke:#000000;stroke-width:0.8;" x="380.658377" xlink:href="#mcf9d0e102b" y="311.04"/>
      </g>
     </g>
     <g id="text_10">
      <!-- 4.5 -->
      <g transform="translate(368.731033 329.437656)scale(0.15 -0.15)">
       <use xlink:href="#DejaVuSans-34"/>
       <use x="63.623047" xlink:href="#DejaVuSans-2e"/>
       <use x="95.410156" xlink:href="#DejaVuSans-35"/>
      </g>
     </g>
    </g>
    <g id="text_11">
     <!-- Energy [MeV] -->
     <defs>
      <path d="M 9.8125 72.90625 
L 55.90625 72.90625 
L 55.90625 64.59375 
L 19.671875 64.59375 
L 19.671875 43.015625 
L 54.390625 43.015625 
L 54.390625 34.71875 
L 19.671875 34.71875 
L 19.671875 8.296875 
L 56.78125 8.296875 
L 56.78125 0 
L 9.8125 0 
z
" id="DejaVuSans-45"/>
      <path d="M 41.109375 46.296875 
Q 39.59375 47.171875 37.8125 47.578125 
Q 36.03125 48 33.890625 48 
Q 26.265625 48 22.1875 43.046875 
Q 18.109375 38.09375 18.109375 28.8125 
L 18.109375 0 
L 9.078125 0 
L 9.078125 54.6875 
L 18.109375 54.6875 
L 18.109375 46.1875 
Q 20.953125 51.171875 25.484375 53.578125 
Q 30.03125 56 36.53125 56 
Q 37.453125 56 38.578125 55.875 
Q 39.703125 55.765625 41.0625 55.515625 
z
" id="DejaVuSans-72"/>
      <path d="M 45.40625 27.984375 
Q 45.40625 37.75 41.375 43.109375 
Q 37.359375 48.484375 30.078125 48.484375 
Q 22.859375 48.484375 18.828125 43.109375 
Q 14.796875 37.75 14.796875 27.984375 
Q 14.796875 18.265625 18.828125 12.890625 
Q 22.859375 7.515625 30.078125 7.515625 
Q 37.359375 7.515625 41.375 12.890625 
Q 45.40625 18.265625 45.40625 27.984375 
z
M 54.390625 6.78125 
Q 54.390625 -7.171875 48.1875 -13.984375 
Q 42 -20.796875 29.203125 -20.796875 
Q 24.46875 -20.796875 20.265625 -20.09375 
Q 16.0625 -19.390625 12.109375 -17.921875 
L 12.109375 -9.1875 
Q 16.0625 -11.328125 19.921875 -12.34375 
Q 23.78125 -13.375 27.78125 -13.375 
Q 36.625 -13.375 41.015625 -8.765625 
Q 45.40625 -4.15625 45.40625 5.171875 
L 45.40625 9.625 
Q 42.625 4.78125 38.28125 2.390625 
Q 33.9375 0 27.875 0 
Q 17.828125 0 11.671875 7.65625 
Q 5.515625 15.328125 5.515625 27.984375 
Q 5.515625 40.671875 11.671875 48.328125 
Q 17.828125 56 27.875 56 
Q 33.9375 56 38.28125 53.609375 
Q 42.625 51.21875 45.40625 46.390625 
L 45.40625 54.6875 
L 54.390625 54.6875 
z
" id="DejaVuSans-67"/>
      <path d="M 8.59375 75.984375 
L 29.296875 75.984375 
L 29.296875 69 
L 17.578125 69 
L 17.578125 -6.203125 
L 29.296875 -6.203125 
L 29.296875 -13.1875 
L 8.59375 -13.1875 
z
" id="DejaVuSans-5b"/>
      <path d="M 9.8125 72.90625 
L 24.515625 72.90625 
L 43.109375 23.296875 
L 61.8125 72.90625 
L 76.515625 72.90625 
L 76.515625 0 
L 66.890625 0 
L 66.890625 64.015625 
L 48.09375 14.015625 
L 38.1875 14.015625 
L 19.390625 64.015625 
L 19.390625 0 
L 9.8125 0 
z
" id="DejaVuSans-4d"/>
      <path d="M 28.609375 0 
L 0.78125 72.90625 
L 11.078125 72.90625 
L 34.1875 11.53125 
L 57.328125 72.90625 
L 67.578125 72.90625 
L 39.796875 0 
z
" id="DejaVuSans-56"/>
      <path d="M 30.421875 75.984375 
L 30.421875 -13.1875 
L 9.71875 -13.1875 
L 9.71875 -6.203125 
L 21.390625 -6.203125 
L 21.390625 69 
L 9.71875 69 
L 9.71875 75.984375 
z
" id="DejaVuSans-5d"/>
     </defs>
     <g transform="translate(191.078203 347.954844)scale(0.15 -0.15)">
      <use xlink:href="#DejaVuSans-45"/>
      <use x="63.183594" xlink:href="#DejaVuSans-6e"/>
      <use x="126.5625" xlink:href="#DejaVuSans-65"/>
      <use x="188.085938" xlink:href="#DejaVuSans-72"/>
      <use x="229.183594" xlink:href="#DejaVuSans-67"/>
      <use x="292.660156" xlink:href="#DejaVuSans-79"/>
      <use x="351.839844" xlink:href="#DejaVuSans-20"/>
      <use x="383.626953" xlink:href="#DejaVuSans-5b"/>
      <use x="422.640625" xlink:href="#DejaVuSans-4d"/>
      <use x="508.919922" xlink:href="#DejaVuSans-65"/>
      <use x="570.443359" xlink:href="#DejaVuSans-56"/>
      <use x="638.851562" xlink:href="#DejaVuSans-5d"/>
     </g>
    </g>
   </g>
   <g id="matplotlib.axis_4">
    <g id="ytick_4">
     <g id="line2d_18">
      <g>
       <use style="stroke:#000000;stroke-width:0.8;" x="69.12" xlink:href="#mad153e4282" y="288.989938"/>
      </g>
     </g>
     <g id="text_12">
      <!-- 100 -->
      <g transform="translate(33.48875 294.688766)scale(0.15 -0.15)">
       <use xlink:href="#DejaVuSans-31"/>
       <use x="63.623047" xlink:href="#DejaVuSans-30"/>
       <use x="127.246094" xlink:href="#DejaVuSans-30"/>
      </g>
     </g>
    </g>
    <g id="ytick_5">
     <g id="line2d_19">
      <g>
       <use style="stroke:#000000;stroke-width:0.8;" x="69.12" xlink:href="#mad153e4282" y="249.073098"/>
      </g>
     </g>
     <g id="text_13">
      <!-- 150 -->
      <g transform="translate(33.48875 254.771926)scale(0.15 -0.15)">
       <use xlink:href="#DejaVuSans-31"/>
       <use x="63.623047" xlink:href="#DejaVuSans-35"/>
       <use x="127.246094" xlink:href="#DejaVuSans-30"/>
      </g>
     </g>
    </g>
    <g id="ytick_6">
     <g id="line2d_20">
      <g>
       <use style="stroke:#000000;stroke-width:0.8;" x="69.12" xlink:href="#mad153e4282" y="209.156258"/>
      </g>
     </g>
     <g id="text_14">
      <!-- 200 -->
      <g transform="translate(33.48875 214.855086)scale(0.15 -0.15)">
       <use xlink:href="#DejaVuSans-32"/>
       <use x="63.623047" xlink:href="#DejaVuSans-30"/>
       <use x="127.246094" xlink:href="#DejaVuSans-30"/>
      </g>
     </g>
    </g>
    <g id="ytick_7">
     <g id="line2d_21">
      <g>
       <use style="stroke:#000000;stroke-width:0.8;" x="69.12" xlink:href="#mad153e4282" y="169.239418"/>
      </g>
     </g>
     <g id="text_15">
      <!-- 250 -->
      <g transform="translate(33.48875 174.938246)scale(0.15 -0.15)">
       <use xlink:href="#DejaVuSans-32"/>
       <use x="63.623047" xlink:href="#DejaVuSans-35"/>
       <use x="127.246094" xlink:href="#DejaVuSans-30"/>
      </g>
     </g>
    </g>
    <g id="ytick_8">
     <g id="line2d_22">
      <g>
       <use style="stroke:#000000;stroke-width:0.8;" x="69.12" xlink:href="#mad153e4282" y="129.322578"/>
      </g>
     </g>
     <g id="text_16">
      <!-- 300 -->
      <g transform="translate(33.48875 135.021406)scale(0.15 -0.15)">
       <use xlink:href="#DejaVuSans-33"/>
       <use x="63.623047" xlink:href="#DejaVuSans-30"/>
       <use x="127.246094" xlink:href="#DejaVuSans-30"/>
      </g>
     </g>
    </g>
    <g id="text_17">
     <!-- Counts -->
     <defs>
      <path d="M 64.40625 67.28125 
L 64.40625 56.890625 
Q 59.421875 61.53125 53.78125 63.8125 
Q 48.140625 66.109375 41.796875 66.109375 
Q 29.296875 66.109375 22.65625 58.46875 
Q 16.015625 50.828125 16.015625 36.375 
Q 16.015625 21.96875 22.65625 14.328125 
Q 29.296875 6.6875 41.796875 6.6875 
Q 48.140625 6.6875 53.78125 8.984375 
Q 59.421875 11.28125 64.40625 15.921875 
L 64.40625 5.609375 
Q 59.234375 2.09375 53.4375 0.328125 
Q 47.65625 -1.421875 41.21875 -1.421875 
Q 24.65625 -1.421875 15.125 8.703125 
Q 5.609375 18.84375 5.609375 36.375 
Q 5.609375 53.953125 15.125 64.078125 
Q 24.65625 74.21875 41.21875 74.21875 
Q 47.75 74.21875 53.53125 72.484375 
Q 59.328125 70.75 64.40625 67.28125 
z
" id="DejaVuSans-43"/>
     </defs>
     <g transform="translate(26.369219 233.539687)rotate(-90)scale(0.15 -0.15)">
      <use xlink:href="#DejaVuSans-43"/>
      <use x="69.824219" xlink:href="#DejaVuSans-6f"/>
      <use x="131.005859" xlink:href="#DejaVuSans-75"/>
      <use x="194.384766" xlink:href="#DejaVuSans-6e"/>
      <use x="257.763672" xlink:href="#DejaVuSans-74"/>
      <use x="296.972656" xlink:href="#DejaVuSans-73"/>
     </g>
    </g>
   </g>
   <g id="LineCollection_2">
    <path clip-path="url(#pe68a39e4c5)" d="M 81.92 309.457563 
L 81.92 294.867426 
" style="fill:none;stroke:#0000ff;stroke-width:1.5;"/>
    <path clip-path="url(#pe68a39e4c5)" d="M 92.954483 290.139787 
L 92.954483 273.470026 
" style="fill:none;stroke:#0000ff;stroke-width:1.5;"/>
    <path clip-path="url(#pe68a39e4c5)" d="M 96.632644 310.589247 
L 96.632644 296.130753 
" style="fill:none;stroke:#0000ff;stroke-width:1.5;"/>
    <path clip-path="url(#pe68a39e4c5)" d="M 100.310805 300.384128 
L 100.310805 284.780779 
" style="fill:none;stroke:#0000ff;stroke-width:1.5;"/>
    <path clip-path="url(#pe68a39e4c5)" d="M 103.988966 300.384128 
L 103.988966 284.780779 
" style="fill:none;stroke:#0000ff;stroke-width:1.5;"/>
    <path clip-path="url(#pe68a39e4c5)" d="M 107.667126 283.672808 
L 107.667126 266.365279 
" style="fill:none;stroke:#0000ff;stroke-width:1.5;"/>
    <path clip-path="url(#pe68a39e4c5)" d="M 111.345287 287.858699 
L 111.345287 270.961094 
" style="fill:none;stroke:#0000ff;stroke-width:1.5;"/>
    <path clip-path="url(#pe68a39e4c5)" d="M 115.023448 277.57586 
L 115.023448 259.688839 
" style="fill:none;stroke:#0000ff;stroke-width:1.5;"/>
    <path clip-path="url(#pe68a39e4c5)" d="M 118.701609 281.768543 
L 118.701609 264.27786 
" style="fill:none;stroke:#0000ff;stroke-width:1.5;"/>
    <path clip-path="url(#pe68a39e4c5)" d="M 122.37977 268.795769 
L 122.37977 250.107183 
" style="fill:none;stroke:#0000ff;stroke-width:1.5;"/>
    <path clip-path="url(#pe68a39e4c5)" d="M 126.057931 275.668657 
L 126.057931 257.604357 
" style="fill:none;stroke:#0000ff;stroke-width:1.5;"/>
    <path clip-path="url(#pe68a39e4c5)" d="M 129.736092 280.244446 
L 129.736092 262.60861 
" style="fill:none;stroke:#0000ff;stroke-width:1.5;"/>
    <path clip-path="url(#pe68a39e4c5)" d="M 133.414253 268.031473 
L 133.414253 249.274805 
" style="fill:none;stroke:#0000ff;stroke-width:1.5;"/>
    <path clip-path="url(#pe68a39e4c5)" d="M 137.092414 264.973073 
L 137.092414 245.946511 
" style="fill:none;stroke:#0000ff;stroke-width:1.5;"/>
    <path clip-path="url(#pe68a39e4c5)" d="M 140.770575 266.884799 
L 140.770575 248.026469 
" style="fill:none;stroke:#0000ff;stroke-width:1.5;"/>
    <path clip-path="url(#pe68a39e4c5)" d="M 144.448736 273.378879 
L 144.448736 255.104115 
" style="fill:none;stroke:#0000ff;stroke-width:1.5;"/>
    <path clip-path="url(#pe68a39e4c5)" d="M 148.126897 256.169922 
L 148.126897 236.387916 
" style="fill:none;stroke:#0000ff;stroke-width:1.5;"/>
    <path clip-path="url(#pe68a39e4c5)" d="M 151.805057 234.296472 
L 151.805057 212.756168 
" style="fill:none;stroke:#0000ff;stroke-width:1.5;"/>
    <path clip-path="url(#pe68a39e4c5)" d="M 155.483218 232.758814 
L 155.483218 211.100479 
" style="fill:none;stroke:#0000ff;stroke-width:1.5;"/>
    <path clip-path="url(#pe68a39e4c5)" d="M 159.161379 244.666881 
L 159.161379 223.940853 
" style="fill:none;stroke:#0000ff;stroke-width:1.5;"/>
    <path clip-path="url(#pe68a39e4c5)" d="M 162.83954 242.747633 
L 162.83954 221.868417 
" style="fill:none;stroke:#0000ff;stroke-width:1.5;"/>
    <path clip-path="url(#pe68a39e4c5)" d="M 166.517701 230.067145 
L 166.517701 208.203791 
" style="fill:none;stroke:#0000ff;stroke-width:1.5;"/>
    <path clip-path="url(#pe68a39e4c5)" d="M 170.195862 224.296108 
L 170.195862 201.999775 
" style="fill:none;stroke:#0000ff;stroke-width:1.5;"/>
    <path clip-path="url(#pe68a39e4c5)" d="M 173.874023 232.374349 
L 173.874023 210.686607 
" style="fill:none;stroke:#0000ff;stroke-width:1.5;"/>
    <path clip-path="url(#pe68a39e4c5)" d="M 177.552184 215.824526 
L 177.552184 192.907948 
" style="fill:none;stroke:#0000ff;stroke-width:1.5;"/>
    <path clip-path="url(#pe68a39e4c5)" d="M 181.230345 209.658203 
L 181.230345 186.300882 
" style="fill:none;stroke:#0000ff;stroke-width:1.5;"/>
    <path clip-path="url(#pe68a39e4c5)" d="M 184.908506 202.716222 
L 184.908506 178.872801 
" style="fill:none;stroke:#0000ff;stroke-width:1.5;"/>
    <path clip-path="url(#pe68a39e4c5)" d="M 188.586667 205.802164 
L 188.586667 182.173553 
" style="fill:none;stroke:#0000ff;stroke-width:1.5;"/>
    <path clip-path="url(#pe68a39e4c5)" d="M 192.264828 194.225011 
L 192.264828 169.800602 
" style="fill:none;stroke:#0000ff;stroke-width:1.5;"/>
    <path clip-path="url(#pe68a39e4c5)" d="M 195.942989 205.03077 
L 195.942989 181.348274 
" style="fill:none;stroke:#0000ff;stroke-width:1.5;"/>
    <path clip-path="url(#pe68a39e4c5)" d="M 199.621149 185.340625 
L 199.621149 160.323242 
" style="fill:none;stroke:#0000ff;stroke-width:1.5;"/>
    <path clip-path="url(#pe68a39e4c5)" d="M 203.29931 174.128844 
L 203.29931 148.383256 
" style="fill:none;stroke:#0000ff;stroke-width:1.5;"/>
    <path clip-path="url(#pe68a39e4c5)" d="M 206.977471 166.003666 
L 206.977471 139.743361 
" style="fill:none;stroke:#0000ff;stroke-width:1.5;"/>
    <path clip-path="url(#pe68a39e4c5)" d="M 210.655632 168.325663 
L 210.655632 142.211384 
" style="fill:none;stroke:#0000ff;stroke-width:1.5;"/>
    <path clip-path="url(#pe68a39e4c5)" d="M 214.333793 168.712623 
L 214.333793 142.622762 
" style="fill:none;stroke:#0000ff;stroke-width:1.5;"/>
    <path clip-path="url(#pe68a39e4c5)" d="M 218.011954 178.382814 
L 218.011954 152.910991 
" style="fill:none;stroke:#0000ff;stroke-width:1.5;"/>
    <path clip-path="url(#pe68a39e4c5)" d="M 221.690115 155.937098 
L 221.690115 129.053173 
" style="fill:none;stroke:#0000ff;stroke-width:1.5;"/>
    <path clip-path="url(#pe68a39e4c5)" d="M 225.368276 145.088283 
L 225.368276 117.548557 
" style="fill:none;stroke:#0000ff;stroke-width:1.5;"/>
    <path clip-path="url(#pe68a39e4c5)" d="M 229.046437 156.324407 
L 229.046437 129.4642 
" style="fill:none;stroke:#0000ff;stroke-width:1.5;"/>
    <path clip-path="url(#pe68a39e4c5)" d="M 232.724598 163.681266 
L 232.724598 137.275741 
" style="fill:none;stroke:#0000ff;stroke-width:1.5;"/>
    <path clip-path="url(#pe68a39e4c5)" d="M 236.402759 156.711706 
L 236.402759 129.875238 
" style="fill:none;stroke:#0000ff;stroke-width:1.5;"/>
    <path clip-path="url(#pe68a39e4c5)" d="M 240.08092 150.126215 
L 240.08092 122.889004 
" style="fill:none;stroke:#0000ff;stroke-width:1.5;"/>
    <path clip-path="url(#pe68a39e4c5)" d="M 243.75908 143.150177 
L 243.75908 115.494979 
" style="fill:none;stroke:#0000ff;stroke-width:1.5;"/>
    <path clip-path="url(#pe68a39e4c5)" d="M 247.437241 151.288575 
L 247.437241 124.121654 
" style="fill:none;stroke:#0000ff;stroke-width:1.5;"/>
    <path clip-path="url(#pe68a39e4c5)" d="M 251.115402 150.513678 
L 251.115402 123.299877 
" style="fill:none;stroke:#0000ff;stroke-width:1.5;"/>
    <path clip-path="url(#pe68a39e4c5)" d="M 254.793563 141.599519 
L 254.793563 113.85229 
" style="fill:none;stroke:#0000ff;stroke-width:1.5;"/>
    <path clip-path="url(#pe68a39e4c5)" d="M 258.471724 154.775106 
L 258.471724 127.820154 
" style="fill:none;stroke:#0000ff;stroke-width:1.5;"/>
    <path clip-path="url(#pe68a39e4c5)" d="M 262.149885 125.69676 
L 262.149885 97.02324 
" style="fill:none;stroke:#0000ff;stroke-width:1.5;"/>
    <path clip-path="url(#pe68a39e4c5)" d="M 265.828046 155.549778 
L 265.828046 128.642156 
" style="fill:none;stroke:#0000ff;stroke-width:1.5;"/>
    <path clip-path="url(#pe68a39e4c5)" d="M 269.506207 143.925448 
L 269.506207 116.316381 
" style="fill:none;stroke:#0000ff;stroke-width:1.5;"/>
    <path clip-path="url(#pe68a39e4c5)" d="M 273.184368 150.126215 
L 273.184368 122.889004 
" style="fill:none;stroke:#0000ff;stroke-width:1.5;"/>
    <path clip-path="url(#pe68a39e4c5)" d="M 276.862529 132.292427 
L 276.862529 103.999299 
" style="fill:none;stroke:#0000ff;stroke-width:1.5;"/>
    <path clip-path="url(#pe68a39e4c5)" d="M 280.54069 154.000393 
L 280.54069 126.998193 
" style="fill:none;stroke:#0000ff;stroke-width:1.5;"/>
    <path clip-path="url(#pe68a39e4c5)" d="M 284.218851 146.251031 
L 284.218851 118.78082 
" style="fill:none;stroke:#0000ff;stroke-width:1.5;"/>
    <path clip-path="url(#pe68a39e4c5)" d="M 287.897011 150.901132 
L 287.897011 123.71076 
" style="fill:none;stroke:#0000ff;stroke-width:1.5;"/>
    <path clip-path="url(#pe68a39e4c5)" d="M 291.575172 160.971297 
L 291.575172 134.397352 
" style="fill:none;stroke:#0000ff;stroke-width:1.5;"/>
    <path clip-path="url(#pe68a39e4c5)" d="M 295.253333 144.31307 
L 295.253333 116.727097 
" style="fill:none;stroke:#0000ff;stroke-width:1.5;"/>
    <path clip-path="url(#pe68a39e4c5)" d="M 298.931494 162.132778 
L 298.931494 135.630882 
" style="fill:none;stroke:#0000ff;stroke-width:1.5;"/>
    <path clip-path="url(#pe68a39e4c5)" d="M 302.609655 171.807887 
L 302.609655 145.914192 
" style="fill:none;stroke:#0000ff;stroke-width:1.5;"/>
    <path clip-path="url(#pe68a39e4c5)" d="M 306.287816 163.681266 
L 306.287816 137.275741 
" style="fill:none;stroke:#0000ff;stroke-width:1.5;"/>
    <path clip-path="url(#pe68a39e4c5)" d="M 309.965977 181.475679 
L 309.965977 156.20482 
" style="fill:none;stroke:#0000ff;stroke-width:1.5;"/>
    <path clip-path="url(#pe68a39e4c5)" d="M 313.644138 174.902402 
L 313.644138 149.206372 
" style="fill:none;stroke:#0000ff;stroke-width:1.5;"/>
    <path clip-path="url(#pe68a39e4c5)" d="M 317.322299 184.954188 
L 317.322299 159.911342 
" style="fill:none;stroke:#0000ff;stroke-width:1.5;"/>
    <path clip-path="url(#pe68a39e4c5)" d="M 321.00046 188.43165 
L 321.00046 163.618911 
" style="fill:none;stroke:#0000ff;stroke-width:1.5;"/>
    <path clip-path="url(#pe68a39e4c5)" d="M 324.678621 204.64505 
L 324.678621 180.935657 
" style="fill:none;stroke:#0000ff;stroke-width:1.5;"/>
    <path clip-path="url(#pe68a39e4c5)" d="M 328.356782 197.313531 
L 328.356782 173.098777 
" style="fill:none;stroke:#0000ff;stroke-width:1.5;"/>
    <path clip-path="url(#pe68a39e4c5)" d="M 332.034943 201.558745 
L 332.034943 177.635267 
" style="fill:none;stroke:#0000ff;stroke-width:1.5;"/>
    <path clip-path="url(#pe68a39e4c5)" d="M 335.713103 215.053967 
L 335.713103 192.081834 
" style="fill:none;stroke:#0000ff;stroke-width:1.5;"/>
    <path clip-path="url(#pe68a39e4c5)" d="M 339.391264 221.601532 
L 339.391264 199.105994 
" style="fill:none;stroke:#0000ff;stroke-width:1.5;"/>
    <path clip-path="url(#pe68a39e4c5)" d="M 343.069425 221.986526 
L 343.069425 199.519337 
" style="fill:none;stroke:#0000ff;stroke-width:1.5;"/>
    <path clip-path="url(#pe68a39e4c5)" d="M 346.747586 236.986589 
L 346.747586 215.654409 
" style="fill:none;stroke:#0000ff;stroke-width:1.5;"/>
    <path clip-path="url(#pe68a39e4c5)" d="M 350.425747 233.912088 
L 350.425747 212.342216 
" style="fill:none;stroke:#0000ff;stroke-width:1.5;"/>
    <path clip-path="url(#pe68a39e4c5)" d="M 354.103908 251.18798 
L 354.103908 230.991479 
" style="fill:none;stroke:#0000ff;stroke-width:1.5;"/>
    <path clip-path="url(#pe68a39e4c5)" d="M 357.782069 246.969225 
L 357.782069 226.42853 
" style="fill:none;stroke:#0000ff;stroke-width:1.5;"/>
    <path clip-path="url(#pe68a39e4c5)" d="M 361.46023 247.736487 
L 361.46023 227.257942 
" style="fill:none;stroke:#0000ff;stroke-width:1.5;"/>
    <path clip-path="url(#pe68a39e4c5)" d="M 365.138391 259.616377 
L 365.138391 240.126492 
" style="fill:none;stroke:#0000ff;stroke-width:1.5;"/>
    <path clip-path="url(#pe68a39e4c5)" d="M 368.816552 274.523921 
L 368.816552 256.354084 
" style="fill:none;stroke:#0000ff;stroke-width:1.5;"/>
    <path clip-path="url(#pe68a39e4c5)" d="M 372.494713 269.17787 
L 372.494713 250.523419 
" style="fill:none;stroke:#0000ff;stroke-width:1.5;"/>
    <path clip-path="url(#pe68a39e4c5)" d="M 376.172874 278.338494 
L 376.172874 260.522879 
" style="fill:none;stroke:#0000ff;stroke-width:1.5;"/>
    <path clip-path="url(#pe68a39e4c5)" d="M 379.851034 276.050167 
L 379.851034 258.021184 
" style="fill:none;stroke:#0000ff;stroke-width:1.5;"/>
    <path clip-path="url(#pe68a39e4c5)" d="M 383.529195 286.717582 
L 383.529195 269.7072 
" style="fill:none;stroke:#0000ff;stroke-width:1.5;"/>
    <path clip-path="url(#pe68a39e4c5)" d="M 387.207356 287.478368 
L 387.207356 270.543087 
" style="fill:none;stroke:#0000ff;stroke-width:1.5;"/>
    <path clip-path="url(#pe68a39e4c5)" d="M 390.885517 297.731625 
L 390.885517 281.844924 
" style="fill:none;stroke:#0000ff;stroke-width:1.5;"/>
    <path clip-path="url(#pe68a39e4c5)" d="M 394.563678 306.436905 
L 394.563678 291.501391 
" style="fill:none;stroke:#0000ff;stroke-width:1.5;"/>
    <path clip-path="url(#pe68a39e4c5)" d="M 398.241839 309.080204 
L 398.241839 294.446449 
" style="fill:none;stroke:#0000ff;stroke-width:1.5;"/>
    <path clip-path="url(#pe68a39e4c5)" d="M 401.92 309.080204 
L 401.92 294.446449 
" style="fill:none;stroke:#0000ff;stroke-width:1.5;"/>
   </g>
   <g id="line2d_23">
    <path clip-path="url(#pe68a39e4c5)" d="M 81.92 306.47439 
L 86.724805 303.887546 
L 91.52961 301.032326 
L 96.014094 298.113197 
L 100.498579 294.938317 
L 104.983063 291.499068 
L 109.467548 287.788501 
L 113.952032 283.801612 
L 118.756837 279.220211 
L 123.561642 274.318243 
L 128.366446 269.099162 
L 133.491572 263.191092 
L 138.616697 256.945204 
L 144.062142 249.961662 
L 149.827908 242.212453 
L 156.234314 233.23165 
L 163.922002 222.050393 
L 175.133213 205.288964 
L 188.266346 185.72924 
L 195.313393 175.640591 
L 201.079159 167.7678 
L 206.204284 161.147915 
L 210.688769 155.705887 
L 214.852933 150.987672 
L 218.696777 146.950102 
L 222.540621 143.244426 
L 226.064144 140.159961 
L 229.267347 137.630255 
L 232.470551 135.374093 
L 235.673754 133.40212 
L 238.556637 131.878101 
L 241.43952 130.597793 
L 244.322402 129.566181 
L 247.205285 128.787299 
L 249.767848 128.30962 
L 252.33041 128.03554 
L 254.892973 127.965912 
L 257.455536 128.100952 
L 260.018098 128.44024 
L 262.580661 128.982722 
L 265.463544 129.833772 
L 268.346426 130.936504 
L 271.229309 132.286612 
L 274.112192 133.878843 
L 276.995075 135.707038 
L 280.198278 138.006532 
L 283.401481 140.577803 
L 286.925005 143.705739 
L 290.448529 147.130489 
L 294.292372 151.182853 
L 298.456537 155.915679 
L 302.941021 161.371708 
L 307.745826 167.579515 
L 313.191271 174.995312 
L 319.597678 184.123591 
L 327.926006 196.421415 
L 350.989069 230.729909 
L 358.036116 240.692507 
L 364.122202 248.930584 
L 369.887968 256.366103 
L 375.333413 263.022775 
L 380.458539 268.940411 
L 385.263343 274.168757 
L 390.068148 279.08015 
L 394.872953 283.671024 
L 399.677758 287.941488 
L 401.92 289.825567 
L 401.92 289.825567 
" style="fill:none;stroke:#ff0000;stroke-linecap:square;stroke-width:1.5;"/>
   </g>
   <g id="line2d_24">
    <g clip-path="url(#pe68a39e4c5)">
     <use style="fill:#0000ff;stroke:#0000ff;" x="81.92" xlink:href="#m181d93a30d" y="302.162495"/>
     <use style="fill:#0000ff;stroke:#0000ff;" x="92.954483" xlink:href="#m181d93a30d" y="281.804906"/>
     <use style="fill:#0000ff;stroke:#0000ff;" x="96.632644" xlink:href="#m181d93a30d" y="303.36"/>
     <use style="fill:#0000ff;stroke:#0000ff;" x="100.310805" xlink:href="#m181d93a30d" y="292.582453"/>
     <use style="fill:#0000ff;stroke:#0000ff;" x="103.988966" xlink:href="#m181d93a30d" y="292.582453"/>
     <use style="fill:#0000ff;stroke:#0000ff;" x="107.667126" xlink:href="#m181d93a30d" y="275.019044"/>
     <use style="fill:#0000ff;stroke:#0000ff;" x="111.345287" xlink:href="#m181d93a30d" y="279.409896"/>
     <use style="fill:#0000ff;stroke:#0000ff;" x="115.023448" xlink:href="#m181d93a30d" y="268.632349"/>
     <use style="fill:#0000ff;stroke:#0000ff;" x="118.701609" xlink:href="#m181d93a30d" y="273.023202"/>
     <use style="fill:#0000ff;stroke:#0000ff;" x="122.37977" xlink:href="#m181d93a30d" y="259.451476"/>
     <use style="fill:#0000ff;stroke:#0000ff;" x="126.057931" xlink:href="#m181d93a30d" y="266.636507"/>
     <use style="fill:#0000ff;stroke:#0000ff;" x="129.736092" xlink:href="#m181d93a30d" y="271.426528"/>
     <use style="fill:#0000ff;stroke:#0000ff;" x="133.414253" xlink:href="#m181d93a30d" y="258.653139"/>
     <use style="fill:#0000ff;stroke:#0000ff;" x="137.092414" xlink:href="#m181d93a30d" y="255.459792"/>
     <use style="fill:#0000ff;stroke:#0000ff;" x="140.770575" xlink:href="#m181d93a30d" y="257.455634"/>
     <use style="fill:#0000ff;stroke:#0000ff;" x="144.448736" xlink:href="#m181d93a30d" y="264.241497"/>
     <use style="fill:#0000ff;stroke:#0000ff;" x="148.126897" xlink:href="#m181d93a30d" y="246.278919"/>
     <use style="fill:#0000ff;stroke:#0000ff;" x="151.805057" xlink:href="#m181d93a30d" y="223.52632"/>
     <use style="fill:#0000ff;stroke:#0000ff;" x="155.483218" xlink:href="#m181d93a30d" y="221.929647"/>
     <use style="fill:#0000ff;stroke:#0000ff;" x="159.161379" xlink:href="#m181d93a30d" y="234.303867"/>
     <use style="fill:#0000ff;stroke:#0000ff;" x="162.83954" xlink:href="#m181d93a30d" y="232.308025"/>
     <use style="fill:#0000ff;stroke:#0000ff;" x="166.517701" xlink:href="#m181d93a30d" y="219.135468"/>
     <use style="fill:#0000ff;stroke:#0000ff;" x="170.195862" xlink:href="#m181d93a30d" y="213.147942"/>
     <use style="fill:#0000ff;stroke:#0000ff;" x="173.874023" xlink:href="#m181d93a30d" y="221.530478"/>
     <use style="fill:#0000ff;stroke:#0000ff;" x="177.552184" xlink:href="#m181d93a30d" y="204.366237"/>
     <use style="fill:#0000ff;stroke:#0000ff;" x="181.230345" xlink:href="#m181d93a30d" y="197.979543"/>
     <use style="fill:#0000ff;stroke:#0000ff;" x="184.908506" xlink:href="#m181d93a30d" y="190.794511"/>
     <use style="fill:#0000ff;stroke:#0000ff;" x="188.586667" xlink:href="#m181d93a30d" y="193.987859"/>
     <use style="fill:#0000ff;stroke:#0000ff;" x="192.264828" xlink:href="#m181d93a30d" y="182.012807"/>
     <use style="fill:#0000ff;stroke:#0000ff;" x="195.942989" xlink:href="#m181d93a30d" y="193.189522"/>
     <use style="fill:#0000ff;stroke:#0000ff;" x="199.621149" xlink:href="#m181d93a30d" y="172.831933"/>
     <use style="fill:#0000ff;stroke:#0000ff;" x="203.29931" xlink:href="#m181d93a30d" y="161.25605"/>
     <use style="fill:#0000ff;stroke:#0000ff;" x="206.977471" xlink:href="#m181d93a30d" y="152.873514"/>
     <use style="fill:#0000ff;stroke:#0000ff;" x="210.655632" xlink:href="#m181d93a30d" y="155.268524"/>
     <use style="fill:#0000ff;stroke:#0000ff;" x="214.333793" xlink:href="#m181d93a30d" y="155.667692"/>
     <use style="fill:#0000ff;stroke:#0000ff;" x="218.011954" xlink:href="#m181d93a30d" y="165.646902"/>
     <use style="fill:#0000ff;stroke:#0000ff;" x="221.690115" xlink:href="#m181d93a30d" y="142.495135"/>
     <use style="fill:#0000ff;stroke:#0000ff;" x="225.368276" xlink:href="#m181d93a30d" y="131.31842"/>
     <use style="fill:#0000ff;stroke:#0000ff;" x="229.046437" xlink:href="#m181d93a30d" y="142.894304"/>
     <use style="fill:#0000ff;stroke:#0000ff;" x="232.724598" xlink:href="#m181d93a30d" y="150.478503"/>
     <use style="fill:#0000ff;stroke:#0000ff;" x="236.402759" xlink:href="#m181d93a30d" y="143.293472"/>
     <use style="fill:#0000ff;stroke:#0000ff;" x="240.08092" xlink:href="#m181d93a30d" y="136.507609"/>
     <use style="fill:#0000ff;stroke:#0000ff;" x="243.75908" xlink:href="#m181d93a30d" y="129.322578"/>
     <use style="fill:#0000ff;stroke:#0000ff;" x="247.437241" xlink:href="#m181d93a30d" y="137.705114"/>
     <use style="fill:#0000ff;stroke:#0000ff;" x="251.115402" xlink:href="#m181d93a30d" y="136.906778"/>
     <use style="fill:#0000ff;stroke:#0000ff;" x="254.793563" xlink:href="#m181d93a30d" y="127.725904"/>
     <use style="fill:#0000ff;stroke:#0000ff;" x="258.471724" xlink:href="#m181d93a30d" y="141.29763"/>
     <use style="fill:#0000ff;stroke:#0000ff;" x="262.149885" xlink:href="#m181d93a30d" y="111.36"/>
     <use style="fill:#0000ff;stroke:#0000ff;" x="265.828046" xlink:href="#m181d93a30d" y="142.095967"/>
     <use style="fill:#0000ff;stroke:#0000ff;" x="269.506207" xlink:href="#m181d93a30d" y="130.120915"/>
     <use style="fill:#0000ff;stroke:#0000ff;" x="273.184368" xlink:href="#m181d93a30d" y="136.507609"/>
     <use style="fill:#0000ff;stroke:#0000ff;" x="276.862529" xlink:href="#m181d93a30d" y="118.145863"/>
     <use style="fill:#0000ff;stroke:#0000ff;" x="280.54069" xlink:href="#m181d93a30d" y="140.499293"/>
     <use style="fill:#0000ff;stroke:#0000ff;" x="284.218851" xlink:href="#m181d93a30d" y="132.515925"/>
     <use style="fill:#0000ff;stroke:#0000ff;" x="287.897011" xlink:href="#m181d93a30d" y="137.305946"/>
     <use style="fill:#0000ff;stroke:#0000ff;" x="291.575172" xlink:href="#m181d93a30d" y="147.684324"/>
     <use style="fill:#0000ff;stroke:#0000ff;" x="295.253333" xlink:href="#m181d93a30d" y="130.520083"/>
     <use style="fill:#0000ff;stroke:#0000ff;" x="298.931494" xlink:href="#m181d93a30d" y="148.88183"/>
     <use style="fill:#0000ff;stroke:#0000ff;" x="302.609655" xlink:href="#m181d93a30d" y="158.86104"/>
     <use style="fill:#0000ff;stroke:#0000ff;" x="306.287816" xlink:href="#m181d93a30d" y="150.478503"/>
     <use style="fill:#0000ff;stroke:#0000ff;" x="309.965977" xlink:href="#m181d93a30d" y="168.840249"/>
     <use style="fill:#0000ff;stroke:#0000ff;" x="313.644138" xlink:href="#m181d93a30d" y="162.054387"/>
     <use style="fill:#0000ff;stroke:#0000ff;" x="317.322299" xlink:href="#m181d93a30d" y="172.432765"/>
     <use style="fill:#0000ff;stroke:#0000ff;" x="321.00046" xlink:href="#m181d93a30d" y="176.025281"/>
     <use style="fill:#0000ff;stroke:#0000ff;" x="324.678621" xlink:href="#m181d93a30d" y="192.790353"/>
     <use style="fill:#0000ff;stroke:#0000ff;" x="328.356782" xlink:href="#m181d93a30d" y="185.206154"/>
     <use style="fill:#0000ff;stroke:#0000ff;" x="332.034943" xlink:href="#m181d93a30d" y="189.597006"/>
     <use style="fill:#0000ff;stroke:#0000ff;" x="335.713103" xlink:href="#m181d93a30d" y="203.5679"/>
     <use style="fill:#0000ff;stroke:#0000ff;" x="339.391264" xlink:href="#m181d93a30d" y="210.353763"/>
     <use style="fill:#0000ff;stroke:#0000ff;" x="343.069425" xlink:href="#m181d93a30d" y="210.752931"/>
     <use style="fill:#0000ff;stroke:#0000ff;" x="346.747586" xlink:href="#m181d93a30d" y="226.320499"/>
     <use style="fill:#0000ff;stroke:#0000ff;" x="350.425747" xlink:href="#m181d93a30d" y="223.127152"/>
     <use style="fill:#0000ff;stroke:#0000ff;" x="354.103908" xlink:href="#m181d93a30d" y="241.08973"/>
     <use style="fill:#0000ff;stroke:#0000ff;" x="357.782069" xlink:href="#m181d93a30d" y="236.698877"/>
     <use style="fill:#0000ff;stroke:#0000ff;" x="361.46023" xlink:href="#m181d93a30d" y="237.497214"/>
     <use style="fill:#0000ff;stroke:#0000ff;" x="365.138391" xlink:href="#m181d93a30d" y="249.871435"/>
     <use style="fill:#0000ff;stroke:#0000ff;" x="368.816552" xlink:href="#m181d93a30d" y="265.439002"/>
     <use style="fill:#0000ff;stroke:#0000ff;" x="372.494713" xlink:href="#m181d93a30d" y="259.850644"/>
     <use style="fill:#0000ff;stroke:#0000ff;" x="376.172874" xlink:href="#m181d93a30d" y="269.430686"/>
     <use style="fill:#0000ff;stroke:#0000ff;" x="379.851034" xlink:href="#m181d93a30d" y="267.035676"/>
     <use style="fill:#0000ff;stroke:#0000ff;" x="383.529195" xlink:href="#m181d93a30d" y="278.212391"/>
     <use style="fill:#0000ff;stroke:#0000ff;" x="387.207356" xlink:href="#m181d93a30d" y="279.010728"/>
     <use style="fill:#0000ff;stroke:#0000ff;" x="390.885517" xlink:href="#m181d93a30d" y="289.788274"/>
     <use style="fill:#0000ff;stroke:#0000ff;" x="394.563678" xlink:href="#m181d93a30d" y="298.969148"/>
     <use style="fill:#0000ff;stroke:#0000ff;" x="398.241839" xlink:href="#m181d93a30d" y="301.763326"/>
     <use style="fill:#0000ff;stroke:#0000ff;" x="401.92" xlink:href="#m181d93a30d" y="301.763326"/>
    </g>
   </g>
   <g id="patch_8">
    <path d="M 69.12 311.04 
L 69.12 103.68 
" style="fill:none;stroke:#000000;stroke-linecap:square;stroke-linejoin:miter;stroke-width:0.8;"/>
   </g>
   <g id="patch_9">
    <path d="M 414.72 311.04 
L 414.72 103.68 
" style="fill:none;stroke:#000000;stroke-linecap:square;stroke-linejoin:miter;stroke-width:0.8;"/>
   </g>
   <g id="patch_10">
    <path d="M 69.12 311.04 
L 414.72 311.04 
" style="fill:none;stroke:#000000;stroke-linecap:square;stroke-linejoin:miter;stroke-width:0.8;"/>
   </g>
   <g id="patch_11">
    <path d="M 69.12 103.68 
L 414.72 103.68 
" style="fill:none;stroke:#000000;stroke-linecap:square;stroke-linejoin:miter;stroke-width:0.8;"/>
   </g>
  </g>
 </g>
 <defs>
  <clipPath id="pf20daece95">
   <rect height="51.84" width="345.6" x="69.12" y="44.928"/>
  </clipPath>
  <clipPath id="pe68a39e4c5">
   <rect height="207.36" width="345.6" x="69.12" y="103.68"/>
  </clipPath>
 </defs>
</svg>
