<?xml version="1.0" encoding="utf-8" standalone="no"?>
<!DOCTYPE svg PUBLIC "-//W3C//DTD SVG 1.1//EN"
  "http://www.w3.org/Graphics/SVG/1.1/DTD/svg11.dtd">
<!-- Created with matplotlib (http://matplotlib.org/) -->
<svg height="345pt" version="1.1" viewBox="0 0 460 345" width="460pt" xmlns="http://www.w3.org/2000/svg" xmlns:xlink="http://www.w3.org/1999/xlink">
 <defs>
  <style type="text/css">
*{stroke-linecap:butt;stroke-linejoin:round;}
  </style>
 </defs>
 <g id="figure_1">
  <g id="patch_1">
   <path d="M 0 345.6 
L 460.8 345.6 
L 460.8 0 
L 0 0 
z
" style="fill:#ffffff;"/>
  </g>
  <g id="axes_1">
   <g id="patch_2">
    <path d="M 69.12 96.768 
L 414.72 96.768 
L 414.72 44.928 
L 69.12 44.928 
z
" style="fill:#ffffff;"/>
   </g>
   <g id="matplotlib.axis_1">
    <g id="xtick_1">
     <g id="line2d_1">
      <defs>
       <path d="M 0 0 
L 0 3.5 
" id="m994f96502f" style="stroke:#000000;stroke-width:0.8;"/>
      </defs>
      <g>
       <use style="stroke:#000000;stroke-width:0.8;" x="75.260999" xlink:href="#m994f96502f" y="96.768"/>
      </g>
     </g>
    </g>
    <g id="xtick_2">
     <g id="line2d_2">
      <g>
       <use style="stroke:#000000;stroke-width:0.8;" x="136.388796" xlink:href="#m994f96502f" y="96.768"/>
      </g>
     </g>
    </g>
    <g id="xtick_3">
     <g id="line2d_3">
      <g>
       <use style="stroke:#000000;stroke-width:0.8;" x="197.516594" xlink:href="#m994f96502f" y="96.768"/>
      </g>
     </g>
    </g>
    <g id="xtick_4">
     <g id="line2d_4">
      <g>
       <use style="stroke:#000000;stroke-width:0.8;" x="258.644391" xlink:href="#m994f96502f" y="96.768"/>
      </g>
     </g>
    </g>
    <g id="xtick_5">
     <g id="line2d_5">
      <g>
       <use style="stroke:#000000;stroke-width:0.8;" x="319.772189" xlink:href="#m994f96502f" y="96.768"/>
      </g>
     </g>
    </g>
    <g id="xtick_6">
     <g id="line2d_6">
      <g>
       <use style="stroke:#000000;stroke-width:0.8;" x="380.899987" xlink:href="#m994f96502f" y="96.768"/>
      </g>
     </g>
    </g>
   </g>
   <g id="matplotlib.axis_2">
    <g id="ytick_1">
     <g id="line2d_7">
      <defs>
       <path d="M 0 0 
L -3.5 0 
" id="m12f762f374" style="stroke:#000000;stroke-width:0.8;"/>
      </defs>
      <g>
       <use style="stroke:#000000;stroke-width:0.8;" x="69.12" xlink:href="#m12f762f374" y="96.476431"/>
      </g>
     </g>
     <g id="text_1">
      <!-- −2.5 -->
      <defs>
       <path d="M 10.59375 35.5 
L 73.1875 35.5 
L 73.1875 27.203125 
L 10.59375 27.203125 
z
" id="DejaVuSans-2212"/>
       <path d="M 19.1875 8.296875 
L 53.609375 8.296875 
L 53.609375 0 
L 7.328125 0 
L 7.328125 8.296875 
Q 12.9375 14.109375 22.625 23.890625 
Q 32.328125 33.6875 34.8125 36.53125 
Q 39.546875 41.84375 41.421875 45.53125 
Q 43.3125 49.21875 43.3125 52.78125 
Q 43.3125 58.59375 39.234375 62.25 
Q 35.15625 65.921875 28.609375 65.921875 
Q 23.96875 65.921875 18.8125 64.3125 
Q 13.671875 62.703125 7.8125 59.421875 
L 7.8125 69.390625 
Q 13.765625 71.78125 18.9375 73 
Q 24.125 74.21875 28.421875 74.21875 
Q 39.75 74.21875 46.484375 68.546875 
Q 53.21875 62.890625 53.21875 53.421875 
Q 53.21875 48.921875 51.53125 44.890625 
Q 49.859375 40.875 45.40625 35.40625 
Q 44.1875 33.984375 37.640625 27.21875 
Q 31.109375 20.453125 19.1875 8.296875 
z
" id="DejaVuSans-32"/>
       <path d="M 10.6875 12.40625 
L 21 12.40625 
L 21 0 
L 10.6875 0 
z
" id="DejaVuSans-2e"/>
       <path d="M 10.796875 72.90625 
L 49.515625 72.90625 
L 49.515625 64.59375 
L 19.828125 64.59375 
L 19.828125 46.734375 
Q 21.96875 47.46875 24.109375 47.828125 
Q 26.265625 48.1875 28.421875 48.1875 
Q 40.625 48.1875 47.75 41.5 
Q 54.890625 34.8125 54.890625 23.390625 
Q 54.890625 11.625 47.5625 5.09375 
Q 40.234375 -1.421875 26.90625 -1.421875 
Q 22.3125 -1.421875 17.546875 -0.640625 
Q 12.796875 0.140625 7.71875 1.703125 
L 7.71875 11.625 
Q 12.109375 9.234375 16.796875 8.0625 
Q 21.484375 6.890625 26.703125 6.890625 
Q 35.15625 6.890625 40.078125 11.328125 
Q 45.015625 15.765625 45.015625 23.390625 
Q 45.015625 31 40.078125 35.4375 
Q 35.15625 39.890625 26.703125 39.890625 
Q 22.75 39.890625 18.8125 39.015625 
Q 14.890625 38.140625 10.796875 36.28125 
z
" id="DejaVuSans-35"/>
      </defs>
      <g transform="translate(25.695781 102.175259)scale(0.15 -0.15)">
       <use xlink:href="#DejaVuSans-2212"/>
       <use x="83.789062" xlink:href="#DejaVuSans-32"/>
       <use x="147.412109" xlink:href="#DejaVuSans-2e"/>
       <use x="179.199219" xlink:href="#DejaVuSans-35"/>
      </g>
     </g>
    </g>
    <g id="ytick_2">
     <g id="line2d_8">
      <g>
       <use style="stroke:#000000;stroke-width:0.8;" x="69.12" xlink:href="#m12f762f374" y="66.979646"/>
      </g>
     </g>
     <g id="text_2">
      <!-- 0.0 -->
      <defs>
       <path d="M 31.78125 66.40625 
Q 24.171875 66.40625 20.328125 58.90625 
Q 16.5 51.421875 16.5 36.375 
Q 16.5 21.390625 20.328125 13.890625 
Q 24.171875 6.390625 31.78125 6.390625 
Q 39.453125 6.390625 43.28125 13.890625 
Q 47.125 21.390625 47.125 36.375 
Q 47.125 51.421875 43.28125 58.90625 
Q 39.453125 66.40625 31.78125 66.40625 
z
M 31.78125 74.21875 
Q 44.046875 74.21875 50.515625 64.515625 
Q 56.984375 54.828125 56.984375 36.375 
Q 56.984375 17.96875 50.515625 8.265625 
Q 44.046875 -1.421875 31.78125 -1.421875 
Q 19.53125 -1.421875 13.0625 8.265625 
Q 6.59375 17.96875 6.59375 36.375 
Q 6.59375 54.828125 13.0625 64.515625 
Q 19.53125 74.21875 31.78125 74.21875 
z
" id="DejaVuSans-30"/>
      </defs>
      <g transform="translate(38.265313 72.678474)scale(0.15 -0.15)">
       <use xlink:href="#DejaVuSans-30"/>
       <use x="63.623047" xlink:href="#DejaVuSans-2e"/>
       <use x="95.410156" xlink:href="#DejaVuSans-30"/>
      </g>
     </g>
    </g>
    <g id="text_3">
     <!-- Studentized -->
     <defs>
      <path d="M 53.515625 70.515625 
L 53.515625 60.890625 
Q 47.90625 63.578125 42.921875 64.890625 
Q 37.9375 66.21875 33.296875 66.21875 
Q 25.25 66.21875 20.875 63.09375 
Q 16.5 59.96875 16.5 54.203125 
Q 16.5 49.359375 19.40625 46.890625 
Q 22.3125 44.4375 30.421875 42.921875 
L 36.375 41.703125 
Q 47.40625 39.59375 52.65625 34.296875 
Q 57.90625 29 57.90625 20.125 
Q 57.90625 9.515625 50.796875 4.046875 
Q 43.703125 -1.421875 29.984375 -1.421875 
Q 24.8125 -1.421875 18.96875 -0.25 
Q 13.140625 0.921875 6.890625 3.21875 
L 6.890625 13.375 
Q 12.890625 10.015625 18.65625 8.296875 
Q 24.421875 6.59375 29.984375 6.59375 
Q 38.421875 6.59375 43.015625 9.90625 
Q 47.609375 13.234375 47.609375 19.390625 
Q 47.609375 24.75 44.3125 27.78125 
Q 41.015625 30.8125 33.5 32.328125 
L 27.484375 33.5 
Q 16.453125 35.6875 11.515625 40.375 
Q 6.59375 45.0625 6.59375 53.421875 
Q 6.59375 63.09375 13.40625 68.65625 
Q 20.21875 74.21875 32.171875 74.21875 
Q 37.3125 74.21875 42.625 73.28125 
Q 47.953125 72.359375 53.515625 70.515625 
z
" id="DejaVuSans-53"/>
      <path d="M 18.3125 70.21875 
L 18.3125 54.6875 
L 36.8125 54.6875 
L 36.8125 47.703125 
L 18.3125 47.703125 
L 18.3125 18.015625 
Q 18.3125 11.328125 20.140625 9.421875 
Q 21.96875 7.515625 27.59375 7.515625 
L 36.8125 7.515625 
L 36.8125 0 
L 27.59375 0 
Q 17.1875 0 13.234375 3.875 
Q 9.28125 7.765625 9.28125 18.015625 
L 9.28125 47.703125 
L 2.6875 47.703125 
L 2.6875 54.6875 
L 9.28125 54.6875 
L 9.28125 70.21875 
z
" id="DejaVuSans-74"/>
      <path d="M 8.5 21.578125 
L 8.5 54.6875 
L 17.484375 54.6875 
L 17.484375 21.921875 
Q 17.484375 14.15625 20.5 10.265625 
Q 23.53125 6.390625 29.59375 6.390625 
Q 36.859375 6.390625 41.078125 11.03125 
Q 45.3125 15.671875 45.3125 23.6875 
L 45.3125 54.6875 
L 54.296875 54.6875 
L 54.296875 0 
L 45.3125 0 
L 45.3125 8.40625 
Q 42.046875 3.421875 37.71875 1 
Q 33.40625 -1.421875 27.6875 -1.421875 
Q 18.265625 -1.421875 13.375 4.4375 
Q 8.5 10.296875 8.5 21.578125 
z
M 31.109375 56 
z
" id="DejaVuSans-75"/>
      <path d="M 45.40625 46.390625 
L 45.40625 75.984375 
L 54.390625 75.984375 
L 54.390625 0 
L 45.40625 0 
L 45.40625 8.203125 
Q 42.578125 3.328125 38.25 0.953125 
Q 33.9375 -1.421875 27.875 -1.421875 
Q 17.96875 -1.421875 11.734375 6.484375 
Q 5.515625 14.40625 5.515625 27.296875 
Q 5.515625 40.1875 11.734375 48.09375 
Q 17.96875 56 27.875 56 
Q 33.9375 56 38.25 53.625 
Q 42.578125 51.265625 45.40625 46.390625 
z
M 14.796875 27.296875 
Q 14.796875 17.390625 18.875 11.75 
Q 22.953125 6.109375 30.078125 6.109375 
Q 37.203125 6.109375 41.296875 11.75 
Q 45.40625 17.390625 45.40625 27.296875 
Q 45.40625 37.203125 41.296875 42.84375 
Q 37.203125 48.484375 30.078125 48.484375 
Q 22.953125 48.484375 18.875 42.84375 
Q 14.796875 37.203125 14.796875 27.296875 
z
" id="DejaVuSans-64"/>
      <path d="M 56.203125 29.59375 
L 56.203125 25.203125 
L 14.890625 25.203125 
Q 15.484375 15.921875 20.484375 11.0625 
Q 25.484375 6.203125 34.421875 6.203125 
Q 39.59375 6.203125 44.453125 7.46875 
Q 49.3125 8.734375 54.109375 11.28125 
L 54.109375 2.78125 
Q 49.265625 0.734375 44.1875 -0.34375 
Q 39.109375 -1.421875 33.890625 -1.421875 
Q 20.796875 -1.421875 13.15625 6.1875 
Q 5.515625 13.8125 5.515625 26.8125 
Q 5.515625 40.234375 12.765625 48.109375 
Q 20.015625 56 32.328125 56 
Q 43.359375 56 49.78125 48.890625 
Q 56.203125 41.796875 56.203125 29.59375 
z
M 47.21875 32.234375 
Q 47.125 39.59375 43.09375 43.984375 
Q 39.0625 48.390625 32.421875 48.390625 
Q 24.90625 48.390625 20.390625 44.140625 
Q 15.875 39.890625 15.1875 32.171875 
z
" id="DejaVuSans-65"/>
      <path d="M 54.890625 33.015625 
L 54.890625 0 
L 45.90625 0 
L 45.90625 32.71875 
Q 45.90625 40.484375 42.875 44.328125 
Q 39.84375 48.1875 33.796875 48.1875 
Q 26.515625 48.1875 22.3125 43.546875 
Q 18.109375 38.921875 18.109375 30.90625 
L 18.109375 0 
L 9.078125 0 
L 9.078125 54.6875 
L 18.109375 54.6875 
L 18.109375 46.1875 
Q 21.34375 51.125 25.703125 53.5625 
Q 30.078125 56 35.796875 56 
Q 45.21875 56 50.046875 50.171875 
Q 54.890625 44.34375 54.890625 33.015625 
z
" id="DejaVuSans-6e"/>
      <path d="M 9.421875 54.6875 
L 18.40625 54.6875 
L 18.40625 0 
L 9.421875 0 
z
M 9.421875 75.984375 
L 18.40625 75.984375 
L 18.40625 64.59375 
L 9.421875 64.59375 
z
" id="DejaVuSans-69"/>
      <path d="M 5.515625 54.6875 
L 48.1875 54.6875 
L 48.1875 46.484375 
L 14.40625 7.171875 
L 48.1875 7.171875 
L 48.1875 0 
L 4.296875 0 
L 4.296875 8.203125 
L 38.09375 47.515625 
L 5.515625 47.515625 
z
" id="DejaVuSans-7a"/>
     </defs>
     <g transform="translate(1.779531 115.768313)rotate(-90)scale(0.15 -0.15)">
      <use xlink:href="#DejaVuSans-53"/>
      <use x="63.476562" xlink:href="#DejaVuSans-74"/>
      <use x="102.685547" xlink:href="#DejaVuSans-75"/>
      <use x="166.064453" xlink:href="#DejaVuSans-64"/>
      <use x="229.541016" xlink:href="#DejaVuSans-65"/>
      <use x="291.064453" xlink:href="#DejaVuSans-6e"/>
      <use x="354.443359" xlink:href="#DejaVuSans-74"/>
      <use x="393.652344" xlink:href="#DejaVuSans-69"/>
      <use x="421.435547" xlink:href="#DejaVuSans-7a"/>
      <use x="473.925781" xlink:href="#DejaVuSans-65"/>
      <use x="535.449219" xlink:href="#DejaVuSans-64"/>
     </g>
     <!-- Residuals -->
     <defs>
      <path d="M 44.390625 34.1875 
Q 47.5625 33.109375 50.5625 29.59375 
Q 53.5625 26.078125 56.59375 19.921875 
L 66.609375 0 
L 56 0 
L 46.6875 18.703125 
Q 43.0625 26.03125 39.671875 28.421875 
Q 36.28125 30.8125 30.421875 30.8125 
L 19.671875 30.8125 
L 19.671875 0 
L 9.8125 0 
L 9.8125 72.90625 
L 32.078125 72.90625 
Q 44.578125 72.90625 50.734375 67.671875 
Q 56.890625 62.453125 56.890625 51.90625 
Q 56.890625 45.015625 53.6875 40.46875 
Q 50.484375 35.9375 44.390625 34.1875 
z
M 19.671875 64.796875 
L 19.671875 38.921875 
L 32.078125 38.921875 
Q 39.203125 38.921875 42.84375 42.21875 
Q 46.484375 45.515625 46.484375 51.90625 
Q 46.484375 58.296875 42.84375 61.546875 
Q 39.203125 64.796875 32.078125 64.796875 
z
" id="DejaVuSans-52"/>
      <path d="M 44.28125 53.078125 
L 44.28125 44.578125 
Q 40.484375 46.53125 36.375 47.5 
Q 32.28125 48.484375 27.875 48.484375 
Q 21.1875 48.484375 17.84375 46.4375 
Q 14.5 44.390625 14.5 40.28125 
Q 14.5 37.15625 16.890625 35.375 
Q 19.28125 33.59375 26.515625 31.984375 
L 29.59375 31.296875 
Q 39.15625 29.25 43.1875 25.515625 
Q 47.21875 21.78125 47.21875 15.09375 
Q 47.21875 7.46875 41.1875 3.015625 
Q 35.15625 -1.421875 24.609375 -1.421875 
Q 20.21875 -1.421875 15.453125 -0.5625 
Q 10.6875 0.296875 5.421875 2 
L 5.421875 11.28125 
Q 10.40625 8.6875 15.234375 7.390625 
Q 20.0625 6.109375 24.8125 6.109375 
Q 31.15625 6.109375 34.5625 8.28125 
Q 37.984375 10.453125 37.984375 14.40625 
Q 37.984375 18.0625 35.515625 20.015625 
Q 33.0625 21.96875 24.703125 23.78125 
L 21.578125 24.515625 
Q 13.234375 26.265625 9.515625 29.90625 
Q 5.8125 33.546875 5.8125 39.890625 
Q 5.8125 47.609375 11.28125 51.796875 
Q 16.75 56 26.8125 56 
Q 31.78125 56 36.171875 55.265625 
Q 40.578125 54.546875 44.28125 53.078125 
z
" id="DejaVuSans-73"/>
      <path d="M 34.28125 27.484375 
Q 23.390625 27.484375 19.1875 25 
Q 14.984375 22.515625 14.984375 16.5 
Q 14.984375 11.71875 18.140625 8.90625 
Q 21.296875 6.109375 26.703125 6.109375 
Q 34.1875 6.109375 38.703125 11.40625 
Q 43.21875 16.703125 43.21875 25.484375 
L 43.21875 27.484375 
z
M 52.203125 31.203125 
L 52.203125 0 
L 43.21875 0 
L 43.21875 8.296875 
Q 40.140625 3.328125 35.546875 0.953125 
Q 30.953125 -1.421875 24.3125 -1.421875 
Q 15.921875 -1.421875 10.953125 3.296875 
Q 6 8.015625 6 15.921875 
Q 6 25.140625 12.171875 29.828125 
Q 18.359375 34.515625 30.609375 34.515625 
L 43.21875 34.515625 
L 43.21875 35.40625 
Q 43.21875 41.609375 39.140625 45 
Q 35.0625 48.390625 27.6875 48.390625 
Q 23 48.390625 18.546875 47.265625 
Q 14.109375 46.140625 10.015625 43.890625 
L 10.015625 52.203125 
Q 14.9375 54.109375 19.578125 55.046875 
Q 24.21875 56 28.609375 56 
Q 40.484375 56 46.34375 49.84375 
Q 52.203125 43.703125 52.203125 31.203125 
z
" id="DejaVuSans-61"/>
      <path d="M 9.421875 75.984375 
L 18.40625 75.984375 
L 18.40625 0 
L 9.421875 0 
z
" id="DejaVuSans-6c"/>
     </defs>
     <g transform="translate(18.57625 106.761281)rotate(-90)scale(0.15 -0.15)">
      <use xlink:href="#DejaVuSans-52"/>
      <use x="69.419922" xlink:href="#DejaVuSans-65"/>
      <use x="130.943359" xlink:href="#DejaVuSans-73"/>
      <use x="183.042969" xlink:href="#DejaVuSans-69"/>
      <use x="210.826172" xlink:href="#DejaVuSans-64"/>
      <use x="274.302734" xlink:href="#DejaVuSans-75"/>
      <use x="337.681641" xlink:href="#DejaVuSans-61"/>
      <use x="398.960938" xlink:href="#DejaVuSans-6c"/>
      <use x="426.744141" xlink:href="#DejaVuSans-73"/>
     </g>
    </g>
   </g>
   <g id="LineCollection_1">
    <path clip-path="url(#p5a75f84bfb)" d="M 81.92 70.830544 
L 81.92 47.233115 
" style="fill:none;stroke:#0000ff;stroke-width:1.5;"/>
    <path clip-path="url(#p5a75f84bfb)" d="M 85.556364 72.78428 
L 85.556364 49.186852 
" style="fill:none;stroke:#0000ff;stroke-width:1.5;"/>
    <path clip-path="url(#p5a75f84bfb)" d="M 89.192727 82.761896 
L 89.192727 59.164468 
" style="fill:none;stroke:#0000ff;stroke-width:1.5;"/>
    <path clip-path="url(#p5a75f84bfb)" d="M 96.465455 65.751668 
L 96.465455 42.15424 
" style="fill:none;stroke:#0000ff;stroke-width:1.5;"/>
    <path clip-path="url(#p5a75f84bfb)" d="M 100.101818 73.717148 
L 100.101818 50.119719 
" style="fill:none;stroke:#0000ff;stroke-width:1.5;"/>
    <path clip-path="url(#p5a75f84bfb)" d="M 103.738182 67.095955 
L 103.738182 43.498527 
" style="fill:none;stroke:#0000ff;stroke-width:1.5;"/>
    <path clip-path="url(#p5a75f84bfb)" d="M 107.374545 70.860152 
L 107.374545 47.262723 
" style="fill:none;stroke:#0000ff;stroke-width:1.5;"/>
    <path clip-path="url(#p5a75f84bfb)" d="M 111.010909 72.091192 
L 111.010909 48.493764 
" style="fill:none;stroke:#0000ff;stroke-width:1.5;"/>
    <path clip-path="url(#p5a75f84bfb)" d="M 114.647273 58.646714 
L 114.647273 35.049286 
" style="fill:none;stroke:#0000ff;stroke-width:1.5;"/>
    <path clip-path="url(#p5a75f84bfb)" d="M 118.283636 68.880103 
L 118.283636 45.282675 
" style="fill:none;stroke:#0000ff;stroke-width:1.5;"/>
    <path clip-path="url(#p5a75f84bfb)" d="M 121.92 71.831589 
L 121.92 48.23416 
" style="fill:none;stroke:#0000ff;stroke-width:1.5;"/>
    <path clip-path="url(#p5a75f84bfb)" d="M 125.556364 74.982415 
L 125.556364 51.384987 
" style="fill:none;stroke:#0000ff;stroke-width:1.5;"/>
    <path clip-path="url(#p5a75f84bfb)" d="M 129.192727 72.697134 
L 129.192727 49.099706 
" style="fill:none;stroke:#0000ff;stroke-width:1.5;"/>
    <path clip-path="url(#p5a75f84bfb)" d="M 132.829091 73.695583 
L 132.829091 50.098155 
" style="fill:none;stroke:#0000ff;stroke-width:1.5;"/>
    <path clip-path="url(#p5a75f84bfb)" d="M 136.465455 74.878378 
L 136.465455 51.280949 
" style="fill:none;stroke:#0000ff;stroke-width:1.5;"/>
    <path clip-path="url(#p5a75f84bfb)" d="M 140.101818 76.714041 
L 140.101818 53.116613 
" style="fill:none;stroke:#0000ff;stroke-width:1.5;"/>
    <path clip-path="url(#p5a75f84bfb)" d="M 143.738182 84.600932 
L 143.738182 61.003504 
" style="fill:none;stroke:#0000ff;stroke-width:1.5;"/>
    <path clip-path="url(#p5a75f84bfb)" d="M 147.374545 80.320165 
L 147.374545 56.722737 
" style="fill:none;stroke:#0000ff;stroke-width:1.5;"/>
    <path clip-path="url(#p5a75f84bfb)" d="M 151.010909 69.786424 
L 151.010909 46.188996 
" style="fill:none;stroke:#0000ff;stroke-width:1.5;"/>
    <path clip-path="url(#p5a75f84bfb)" d="M 154.647273 74.782051 
L 154.647273 51.184622 
" style="fill:none;stroke:#0000ff;stroke-width:1.5;"/>
    <path clip-path="url(#p5a75f84bfb)" d="M 158.283636 71.569053 
L 158.283636 47.971625 
" style="fill:none;stroke:#0000ff;stroke-width:1.5;"/>
    <path clip-path="url(#p5a75f84bfb)" d="M 161.92 85.037757 
L 161.92 61.440329 
" style="fill:none;stroke:#0000ff;stroke-width:1.5;"/>
    <path clip-path="url(#p5a75f84bfb)" d="M 165.556364 67.909769 
L 165.556364 44.31234 
" style="fill:none;stroke:#0000ff;stroke-width:1.5;"/>
    <path clip-path="url(#p5a75f84bfb)" d="M 169.192727 78.66671 
L 169.192727 55.069282 
" style="fill:none;stroke:#0000ff;stroke-width:1.5;"/>
    <path clip-path="url(#p5a75f84bfb)" d="M 172.829091 84.998441 
L 172.829091 61.401012 
" style="fill:none;stroke:#0000ff;stroke-width:1.5;"/>
    <path clip-path="url(#p5a75f84bfb)" d="M 176.465455 89.181161 
L 176.465455 65.583733 
" style="fill:none;stroke:#0000ff;stroke-width:1.5;"/>
    <path clip-path="url(#p5a75f84bfb)" d="M 180.101818 87.315102 
L 180.101818 63.717673 
" style="fill:none;stroke:#0000ff;stroke-width:1.5;"/>
    <path clip-path="url(#p5a75f84bfb)" d="M 183.738182 69.080658 
L 183.738182 45.483229 
" style="fill:none;stroke:#0000ff;stroke-width:1.5;"/>
    <path clip-path="url(#p5a75f84bfb)" d="M 187.374545 86.92054 
L 187.374545 63.323112 
" style="fill:none;stroke:#0000ff;stroke-width:1.5;"/>
    <path clip-path="url(#p5a75f84bfb)" d="M 191.010909 87.825223 
L 191.010909 64.227795 
" style="fill:none;stroke:#0000ff;stroke-width:1.5;"/>
    <path clip-path="url(#p5a75f84bfb)" d="M 194.647273 95.088368 
L 194.647273 71.49094 
" style="fill:none;stroke:#0000ff;stroke-width:1.5;"/>
    <path clip-path="url(#p5a75f84bfb)" d="M 198.283636 93.210515 
L 198.283636 69.613086 
" style="fill:none;stroke:#0000ff;stroke-width:1.5;"/>
    <path clip-path="url(#p5a75f84bfb)" d="M 201.92 76.865967 
L 201.92 53.268539 
" style="fill:none;stroke:#0000ff;stroke-width:1.5;"/>
    <path clip-path="url(#p5a75f84bfb)" d="M 205.556364 94.634767 
L 205.556364 71.037339 
" style="fill:none;stroke:#0000ff;stroke-width:1.5;"/>
    <path clip-path="url(#p5a75f84bfb)" d="M 209.192727 91.538225 
L 209.192727 67.940796 
" style="fill:none;stroke:#0000ff;stroke-width:1.5;"/>
    <path clip-path="url(#p5a75f84bfb)" d="M 212.829091 78.130981 
L 212.829091 54.533553 
" style="fill:none;stroke:#0000ff;stroke-width:1.5;"/>
    <path clip-path="url(#p5a75f84bfb)" d="M 216.465455 85.380098 
L 216.465455 61.78267 
" style="fill:none;stroke:#0000ff;stroke-width:1.5;"/>
    <path clip-path="url(#p5a75f84bfb)" d="M 220.101818 97.827643 
L 220.101818 74.230215 
" style="fill:none;stroke:#0000ff;stroke-width:1.5;"/>
    <path clip-path="url(#p5a75f84bfb)" d="M 223.738182 85.333181 
L 223.738182 61.735753 
" style="fill:none;stroke:#0000ff;stroke-width:1.5;"/>
    <path clip-path="url(#p5a75f84bfb)" d="M 227.374545 89.923967 
L 227.374545 66.326539 
" style="fill:none;stroke:#0000ff;stroke-width:1.5;"/>
    <path clip-path="url(#p5a75f84bfb)" d="M 231.010909 72.491519 
L 231.010909 48.894091 
" style="fill:none;stroke:#0000ff;stroke-width:1.5;"/>
    <path clip-path="url(#p5a75f84bfb)" d="M 234.647273 70.233452 
L 234.647273 46.636023 
" style="fill:none;stroke:#0000ff;stroke-width:1.5;"/>
    <path clip-path="url(#p5a75f84bfb)" d="M 238.283636 92.674208 
L 238.283636 69.076779 
" style="fill:none;stroke:#0000ff;stroke-width:1.5;"/>
    <path clip-path="url(#p5a75f84bfb)" d="M 241.92 90.851784 
L 241.92 67.254356 
" style="fill:none;stroke:#0000ff;stroke-width:1.5;"/>
    <path clip-path="url(#p5a75f84bfb)" d="M 245.556364 72.679758 
L 245.556364 49.082329 
" style="fill:none;stroke:#0000ff;stroke-width:1.5;"/>
    <path clip-path="url(#p5a75f84bfb)" d="M 249.192727 74.344525 
L 249.192727 50.747096 
" style="fill:none;stroke:#0000ff;stroke-width:1.5;"/>
    <path clip-path="url(#p5a75f84bfb)" d="M 252.829091 83.446736 
L 252.829091 59.849307 
" style="fill:none;stroke:#0000ff;stroke-width:1.5;"/>
    <path clip-path="url(#p5a75f84bfb)" d="M 256.465455 74.977145 
L 256.465455 51.379716 
" style="fill:none;stroke:#0000ff;stroke-width:1.5;"/>
    <path clip-path="url(#p5a75f84bfb)" d="M 260.101818 76.926143 
L 260.101818 53.328715 
" style="fill:none;stroke:#0000ff;stroke-width:1.5;"/>
    <path clip-path="url(#p5a75f84bfb)" d="M 263.738182 75.526428 
L 263.738182 51.929 
" style="fill:none;stroke:#0000ff;stroke-width:1.5;"/>
    <path clip-path="url(#p5a75f84bfb)" d="M 267.374545 83.607357 
L 267.374545 60.009929 
" style="fill:none;stroke:#0000ff;stroke-width:1.5;"/>
    <path clip-path="url(#p5a75f84bfb)" d="M 271.010909 77.709135 
L 271.010909 54.111706 
" style="fill:none;stroke:#0000ff;stroke-width:1.5;"/>
    <path clip-path="url(#p5a75f84bfb)" d="M 274.647273 75.600201 
L 274.647273 52.002772 
" style="fill:none;stroke:#0000ff;stroke-width:1.5;"/>
    <path clip-path="url(#p5a75f84bfb)" d="M 278.283636 77.218476 
L 278.283636 53.621047 
" style="fill:none;stroke:#0000ff;stroke-width:1.5;"/>
    <path clip-path="url(#p5a75f84bfb)" d="M 281.92 71.097388 
L 281.92 47.49996 
" style="fill:none;stroke:#0000ff;stroke-width:1.5;"/>
    <path clip-path="url(#p5a75f84bfb)" d="M 285.556364 62.211269 
L 285.556364 38.613841 
" style="fill:none;stroke:#0000ff;stroke-width:1.5;"/>
    <path clip-path="url(#p5a75f84bfb)" d="M 289.192727 63.124992 
L 289.192727 39.527563 
" style="fill:none;stroke:#0000ff;stroke-width:1.5;"/>
    <path clip-path="url(#p5a75f84bfb)" d="M 292.829091 79.827448 
L 292.829091 56.230019 
" style="fill:none;stroke:#0000ff;stroke-width:1.5;"/>
    <path clip-path="url(#p5a75f84bfb)" d="M 296.465455 79.726769 
L 296.465455 56.12934 
" style="fill:none;stroke:#0000ff;stroke-width:1.5;"/>
    <path clip-path="url(#p5a75f84bfb)" d="M 300.101818 70.549697 
L 300.101818 46.952269 
" style="fill:none;stroke:#0000ff;stroke-width:1.5;"/>
    <path clip-path="url(#p5a75f84bfb)" d="M 303.738182 69.567904 
L 303.738182 45.970475 
" style="fill:none;stroke:#0000ff;stroke-width:1.5;"/>
    <path clip-path="url(#p5a75f84bfb)" d="M 307.374545 78.042836 
L 307.374545 54.445408 
" style="fill:none;stroke:#0000ff;stroke-width:1.5;"/>
    <path clip-path="url(#p5a75f84bfb)" d="M 311.010909 64.902153 
L 311.010909 41.304724 
" style="fill:none;stroke:#0000ff;stroke-width:1.5;"/>
    <path clip-path="url(#p5a75f84bfb)" d="M 314.647273 70.434787 
L 314.647273 46.837359 
" style="fill:none;stroke:#0000ff;stroke-width:1.5;"/>
    <path clip-path="url(#p5a75f84bfb)" d="M 318.283636 66.222993 
L 318.283636 42.625564 
" style="fill:none;stroke:#0000ff;stroke-width:1.5;"/>
    <path clip-path="url(#p5a75f84bfb)" d="M 321.92 70.607237 
L 321.92 47.009808 
" style="fill:none;stroke:#0000ff;stroke-width:1.5;"/>
    <path clip-path="url(#p5a75f84bfb)" d="M 325.556364 67.94115 
L 325.556364 44.343721 
" style="fill:none;stroke:#0000ff;stroke-width:1.5;"/>
    <path clip-path="url(#p5a75f84bfb)" d="M 329.192727 76.297872 
L 329.192727 52.700444 
" style="fill:none;stroke:#0000ff;stroke-width:1.5;"/>
    <path clip-path="url(#p5a75f84bfb)" d="M 332.829091 84.067069 
L 332.829091 60.469641 
" style="fill:none;stroke:#0000ff;stroke-width:1.5;"/>
    <path clip-path="url(#p5a75f84bfb)" d="M 336.465455 76.190419 
L 336.465455 52.592991 
" style="fill:none;stroke:#0000ff;stroke-width:1.5;"/>
    <path clip-path="url(#p5a75f84bfb)" d="M 340.101818 69.221669 
L 340.101818 45.62424 
" style="fill:none;stroke:#0000ff;stroke-width:1.5;"/>
    <path clip-path="url(#p5a75f84bfb)" d="M 343.738182 63.514285 
L 343.738182 39.916857 
" style="fill:none;stroke:#0000ff;stroke-width:1.5;"/>
    <path clip-path="url(#p5a75f84bfb)" d="M 347.374545 59.415551 
L 347.374545 35.818122 
" style="fill:none;stroke:#0000ff;stroke-width:1.5;"/>
    <path clip-path="url(#p5a75f84bfb)" d="M 351.010909 77.223923 
L 351.010909 53.626494 
" style="fill:none;stroke:#0000ff;stroke-width:1.5;"/>
    <path clip-path="url(#p5a75f84bfb)" d="M 354.647273 71.736099 
L 354.647273 48.13867 
" style="fill:none;stroke:#0000ff;stroke-width:1.5;"/>
    <path clip-path="url(#p5a75f84bfb)" d="M 358.283636 83.092675 
L 358.283636 59.495247 
" style="fill:none;stroke:#0000ff;stroke-width:1.5;"/>
    <path clip-path="url(#p5a75f84bfb)" d="M 361.92 88.297463 
L 361.92 64.700035 
" style="fill:none;stroke:#0000ff;stroke-width:1.5;"/>
    <path clip-path="url(#p5a75f84bfb)" d="M 365.556364 69.890496 
L 365.556364 46.293068 
" style="fill:none;stroke:#0000ff;stroke-width:1.5;"/>
    <path clip-path="url(#p5a75f84bfb)" d="M 369.192727 82.318443 
L 369.192727 58.721015 
" style="fill:none;stroke:#0000ff;stroke-width:1.5;"/>
    <path clip-path="url(#p5a75f84bfb)" d="M 372.829091 86.824811 
L 372.829091 63.227382 
" style="fill:none;stroke:#0000ff;stroke-width:1.5;"/>
    <path clip-path="url(#p5a75f84bfb)" d="M 376.465455 78.435357 
L 376.465455 54.837928 
" style="fill:none;stroke:#0000ff;stroke-width:1.5;"/>
    <path clip-path="url(#p5a75f84bfb)" d="M 380.101818 90.095377 
L 380.101818 66.497949 
" style="fill:none;stroke:#0000ff;stroke-width:1.5;"/>
    <path clip-path="url(#p5a75f84bfb)" d="M 383.738182 83.344685 
L 383.738182 59.747257 
" style="fill:none;stroke:#0000ff;stroke-width:1.5;"/>
    <path clip-path="url(#p5a75f84bfb)" d="M 387.374545 106.646714 
L 387.374545 83.049286 
" style="fill:none;stroke:#0000ff;stroke-width:1.5;"/>
    <path clip-path="url(#p5a75f84bfb)" d="M 391.010909 93.142996 
L 391.010909 69.545567 
" style="fill:none;stroke:#0000ff;stroke-width:1.5;"/>
    <path clip-path="url(#p5a75f84bfb)" d="M 394.647273 106.530136 
L 394.647273 82.932708 
" style="fill:none;stroke:#0000ff;stroke-width:1.5;"/>
    <path clip-path="url(#p5a75f84bfb)" d="M 398.283636 101.87245 
L 398.283636 78.275022 
" style="fill:none;stroke:#0000ff;stroke-width:1.5;"/>
    <path clip-path="url(#p5a75f84bfb)" d="M 401.92 87.454513 
L 401.92 63.857085 
" style="fill:none;stroke:#0000ff;stroke-width:1.5;"/>
   </g>
   <g id="line2d_9">
    <path clip-path="url(#p5a75f84bfb)" d="M 81.92 66.979646 
L 401.92 66.979646 
" style="fill:none;stroke:#ff0000;stroke-linecap:square;stroke-width:1.5;"/>
   </g>
   <g id="line2d_10">
    <defs>
     <path d="M -3 0 
L 3 0 
M 0 3 
L 0 -3 
" id="mcc63f9a6db" style="stroke:#0000ff;"/>
    </defs>
    <g clip-path="url(#p5a75f84bfb)">
     <use style="fill:#0000ff;stroke:#0000ff;" x="81.92" xlink:href="#mcc63f9a6db" y="59.031829"/>
     <use style="fill:#0000ff;stroke:#0000ff;" x="85.556364" xlink:href="#mcc63f9a6db" y="60.985566"/>
     <use style="fill:#0000ff;stroke:#0000ff;" x="89.192727" xlink:href="#mcc63f9a6db" y="70.963182"/>
     <use style="fill:#0000ff;stroke:#0000ff;" x="96.465455" xlink:href="#mcc63f9a6db" y="53.952954"/>
     <use style="fill:#0000ff;stroke:#0000ff;" x="100.101818" xlink:href="#mcc63f9a6db" y="61.918433"/>
     <use style="fill:#0000ff;stroke:#0000ff;" x="103.738182" xlink:href="#mcc63f9a6db" y="55.297241"/>
     <use style="fill:#0000ff;stroke:#0000ff;" x="107.374545" xlink:href="#mcc63f9a6db" y="59.061438"/>
     <use style="fill:#0000ff;stroke:#0000ff;" x="111.010909" xlink:href="#mcc63f9a6db" y="60.292478"/>
     <use style="fill:#0000ff;stroke:#0000ff;" x="114.647273" xlink:href="#mcc63f9a6db" y="46.848"/>
     <use style="fill:#0000ff;stroke:#0000ff;" x="118.283636" xlink:href="#mcc63f9a6db" y="57.081389"/>
     <use style="fill:#0000ff;stroke:#0000ff;" x="121.92" xlink:href="#mcc63f9a6db" y="60.032875"/>
     <use style="fill:#0000ff;stroke:#0000ff;" x="125.556364" xlink:href="#mcc63f9a6db" y="63.183701"/>
     <use style="fill:#0000ff;stroke:#0000ff;" x="129.192727" xlink:href="#mcc63f9a6db" y="60.89842"/>
     <use style="fill:#0000ff;stroke:#0000ff;" x="132.829091" xlink:href="#mcc63f9a6db" y="61.896869"/>
     <use style="fill:#0000ff;stroke:#0000ff;" x="136.465455" xlink:href="#mcc63f9a6db" y="63.079664"/>
     <use style="fill:#0000ff;stroke:#0000ff;" x="140.101818" xlink:href="#mcc63f9a6db" y="64.915327"/>
     <use style="fill:#0000ff;stroke:#0000ff;" x="143.738182" xlink:href="#mcc63f9a6db" y="72.802218"/>
     <use style="fill:#0000ff;stroke:#0000ff;" x="147.374545" xlink:href="#mcc63f9a6db" y="68.521451"/>
     <use style="fill:#0000ff;stroke:#0000ff;" x="151.010909" xlink:href="#mcc63f9a6db" y="57.98771"/>
     <use style="fill:#0000ff;stroke:#0000ff;" x="154.647273" xlink:href="#mcc63f9a6db" y="62.983336"/>
     <use style="fill:#0000ff;stroke:#0000ff;" x="158.283636" xlink:href="#mcc63f9a6db" y="59.770339"/>
     <use style="fill:#0000ff;stroke:#0000ff;" x="161.92" xlink:href="#mcc63f9a6db" y="73.239043"/>
     <use style="fill:#0000ff;stroke:#0000ff;" x="165.556364" xlink:href="#mcc63f9a6db" y="56.111055"/>
     <use style="fill:#0000ff;stroke:#0000ff;" x="169.192727" xlink:href="#mcc63f9a6db" y="66.867996"/>
     <use style="fill:#0000ff;stroke:#0000ff;" x="172.829091" xlink:href="#mcc63f9a6db" y="73.199726"/>
     <use style="fill:#0000ff;stroke:#0000ff;" x="176.465455" xlink:href="#mcc63f9a6db" y="77.382447"/>
     <use style="fill:#0000ff;stroke:#0000ff;" x="180.101818" xlink:href="#mcc63f9a6db" y="75.516388"/>
     <use style="fill:#0000ff;stroke:#0000ff;" x="183.738182" xlink:href="#mcc63f9a6db" y="57.281943"/>
     <use style="fill:#0000ff;stroke:#0000ff;" x="187.374545" xlink:href="#mcc63f9a6db" y="75.121826"/>
     <use style="fill:#0000ff;stroke:#0000ff;" x="191.010909" xlink:href="#mcc63f9a6db" y="76.026509"/>
     <use style="fill:#0000ff;stroke:#0000ff;" x="194.647273" xlink:href="#mcc63f9a6db" y="83.289654"/>
     <use style="fill:#0000ff;stroke:#0000ff;" x="198.283636" xlink:href="#mcc63f9a6db" y="81.4118"/>
     <use style="fill:#0000ff;stroke:#0000ff;" x="201.92" xlink:href="#mcc63f9a6db" y="65.067253"/>
     <use style="fill:#0000ff;stroke:#0000ff;" x="205.556364" xlink:href="#mcc63f9a6db" y="82.836053"/>
     <use style="fill:#0000ff;stroke:#0000ff;" x="209.192727" xlink:href="#mcc63f9a6db" y="79.73951"/>
     <use style="fill:#0000ff;stroke:#0000ff;" x="212.829091" xlink:href="#mcc63f9a6db" y="66.332267"/>
     <use style="fill:#0000ff;stroke:#0000ff;" x="216.465455" xlink:href="#mcc63f9a6db" y="73.581384"/>
     <use style="fill:#0000ff;stroke:#0000ff;" x="220.101818" xlink:href="#mcc63f9a6db" y="86.028929"/>
     <use style="fill:#0000ff;stroke:#0000ff;" x="223.738182" xlink:href="#mcc63f9a6db" y="73.534467"/>
     <use style="fill:#0000ff;stroke:#0000ff;" x="227.374545" xlink:href="#mcc63f9a6db" y="78.125253"/>
     <use style="fill:#0000ff;stroke:#0000ff;" x="231.010909" xlink:href="#mcc63f9a6db" y="60.692805"/>
     <use style="fill:#0000ff;stroke:#0000ff;" x="234.647273" xlink:href="#mcc63f9a6db" y="58.434738"/>
     <use style="fill:#0000ff;stroke:#0000ff;" x="238.283636" xlink:href="#mcc63f9a6db" y="80.875493"/>
     <use style="fill:#0000ff;stroke:#0000ff;" x="241.92" xlink:href="#mcc63f9a6db" y="79.05307"/>
     <use style="fill:#0000ff;stroke:#0000ff;" x="245.556364" xlink:href="#mcc63f9a6db" y="60.881044"/>
     <use style="fill:#0000ff;stroke:#0000ff;" x="249.192727" xlink:href="#mcc63f9a6db" y="62.54581"/>
     <use style="fill:#0000ff;stroke:#0000ff;" x="252.829091" xlink:href="#mcc63f9a6db" y="71.648022"/>
     <use style="fill:#0000ff;stroke:#0000ff;" x="256.465455" xlink:href="#mcc63f9a6db" y="63.178431"/>
     <use style="fill:#0000ff;stroke:#0000ff;" x="260.101818" xlink:href="#mcc63f9a6db" y="65.127429"/>
     <use style="fill:#0000ff;stroke:#0000ff;" x="263.738182" xlink:href="#mcc63f9a6db" y="63.727714"/>
     <use style="fill:#0000ff;stroke:#0000ff;" x="267.374545" xlink:href="#mcc63f9a6db" y="71.808643"/>
     <use style="fill:#0000ff;stroke:#0000ff;" x="271.010909" xlink:href="#mcc63f9a6db" y="65.91042"/>
     <use style="fill:#0000ff;stroke:#0000ff;" x="274.647273" xlink:href="#mcc63f9a6db" y="63.801486"/>
     <use style="fill:#0000ff;stroke:#0000ff;" x="278.283636" xlink:href="#mcc63f9a6db" y="65.419761"/>
     <use style="fill:#0000ff;stroke:#0000ff;" x="281.92" xlink:href="#mcc63f9a6db" y="59.298674"/>
     <use style="fill:#0000ff;stroke:#0000ff;" x="285.556364" xlink:href="#mcc63f9a6db" y="50.412555"/>
     <use style="fill:#0000ff;stroke:#0000ff;" x="289.192727" xlink:href="#mcc63f9a6db" y="51.326278"/>
     <use style="fill:#0000ff;stroke:#0000ff;" x="292.829091" xlink:href="#mcc63f9a6db" y="68.028733"/>
     <use style="fill:#0000ff;stroke:#0000ff;" x="296.465455" xlink:href="#mcc63f9a6db" y="67.928055"/>
     <use style="fill:#0000ff;stroke:#0000ff;" x="300.101818" xlink:href="#mcc63f9a6db" y="58.750983"/>
     <use style="fill:#0000ff;stroke:#0000ff;" x="303.738182" xlink:href="#mcc63f9a6db" y="57.769189"/>
     <use style="fill:#0000ff;stroke:#0000ff;" x="307.374545" xlink:href="#mcc63f9a6db" y="66.244122"/>
     <use style="fill:#0000ff;stroke:#0000ff;" x="311.010909" xlink:href="#mcc63f9a6db" y="53.103438"/>
     <use style="fill:#0000ff;stroke:#0000ff;" x="314.647273" xlink:href="#mcc63f9a6db" y="58.636073"/>
     <use style="fill:#0000ff;stroke:#0000ff;" x="318.283636" xlink:href="#mcc63f9a6db" y="54.424278"/>
     <use style="fill:#0000ff;stroke:#0000ff;" x="321.92" xlink:href="#mcc63f9a6db" y="58.808523"/>
     <use style="fill:#0000ff;stroke:#0000ff;" x="325.556364" xlink:href="#mcc63f9a6db" y="56.142435"/>
     <use style="fill:#0000ff;stroke:#0000ff;" x="329.192727" xlink:href="#mcc63f9a6db" y="64.499158"/>
     <use style="fill:#0000ff;stroke:#0000ff;" x="332.829091" xlink:href="#mcc63f9a6db" y="72.268355"/>
     <use style="fill:#0000ff;stroke:#0000ff;" x="336.465455" xlink:href="#mcc63f9a6db" y="64.391705"/>
     <use style="fill:#0000ff;stroke:#0000ff;" x="340.101818" xlink:href="#mcc63f9a6db" y="57.422955"/>
     <use style="fill:#0000ff;stroke:#0000ff;" x="343.738182" xlink:href="#mcc63f9a6db" y="51.715571"/>
     <use style="fill:#0000ff;stroke:#0000ff;" x="347.374545" xlink:href="#mcc63f9a6db" y="47.616836"/>
     <use style="fill:#0000ff;stroke:#0000ff;" x="351.010909" xlink:href="#mcc63f9a6db" y="65.425209"/>
     <use style="fill:#0000ff;stroke:#0000ff;" x="354.647273" xlink:href="#mcc63f9a6db" y="59.937384"/>
     <use style="fill:#0000ff;stroke:#0000ff;" x="358.283636" xlink:href="#mcc63f9a6db" y="71.293961"/>
     <use style="fill:#0000ff;stroke:#0000ff;" x="361.92" xlink:href="#mcc63f9a6db" y="76.498749"/>
     <use style="fill:#0000ff;stroke:#0000ff;" x="365.556364" xlink:href="#mcc63f9a6db" y="58.091782"/>
     <use style="fill:#0000ff;stroke:#0000ff;" x="369.192727" xlink:href="#mcc63f9a6db" y="70.519729"/>
     <use style="fill:#0000ff;stroke:#0000ff;" x="372.829091" xlink:href="#mcc63f9a6db" y="75.026096"/>
     <use style="fill:#0000ff;stroke:#0000ff;" x="376.465455" xlink:href="#mcc63f9a6db" y="66.636643"/>
     <use style="fill:#0000ff;stroke:#0000ff;" x="380.101818" xlink:href="#mcc63f9a6db" y="78.296663"/>
     <use style="fill:#0000ff;stroke:#0000ff;" x="383.738182" xlink:href="#mcc63f9a6db" y="71.545971"/>
     <use style="fill:#0000ff;stroke:#0000ff;" x="387.374545" xlink:href="#mcc63f9a6db" y="94.848"/>
     <use style="fill:#0000ff;stroke:#0000ff;" x="391.010909" xlink:href="#mcc63f9a6db" y="81.344281"/>
     <use style="fill:#0000ff;stroke:#0000ff;" x="394.647273" xlink:href="#mcc63f9a6db" y="94.731422"/>
     <use style="fill:#0000ff;stroke:#0000ff;" x="398.283636" xlink:href="#mcc63f9a6db" y="90.073736"/>
     <use style="fill:#0000ff;stroke:#0000ff;" x="401.92" xlink:href="#mcc63f9a6db" y="75.655799"/>
    </g>
   </g>
   <g id="patch_3">
    <path d="M 69.12 96.768 
L 69.12 44.928 
" style="fill:none;stroke:#000000;stroke-linecap:square;stroke-linejoin:miter;stroke-width:0.8;"/>
   </g>
   <g id="patch_4">
    <path d="M 414.72 96.768 
L 414.72 44.928 
" style="fill:none;stroke:#000000;stroke-linecap:square;stroke-linejoin:miter;stroke-width:0.8;"/>
   </g>
   <g id="patch_5">
    <path d="M 69.12 96.768 
L 414.72 96.768 
" style="fill:none;stroke:#000000;stroke-linecap:square;stroke-linejoin:miter;stroke-width:0.8;"/>
   </g>
   <g id="patch_6">
    <path d="M 69.12 44.928 
L 414.72 44.928 
" style="fill:none;stroke:#000000;stroke-linecap:square;stroke-linejoin:miter;stroke-width:0.8;"/>
   </g>
   <g id="text_4">
    <!-- Function (0/0): y = a*exp(-(x-x0)**2/w**2)+b -->
    <defs>
     <path d="M 9.8125 72.90625 
L 51.703125 72.90625 
L 51.703125 64.59375 
L 19.671875 64.59375 
L 19.671875 43.109375 
L 48.578125 43.109375 
L 48.578125 34.8125 
L 19.671875 34.8125 
L 19.671875 0 
L 9.8125 0 
z
" id="DejaVuSans-46"/>
     <path d="M 48.78125 52.59375 
L 48.78125 44.1875 
Q 44.96875 46.296875 41.140625 47.34375 
Q 37.3125 48.390625 33.40625 48.390625 
Q 24.65625 48.390625 19.8125 42.84375 
Q 14.984375 37.3125 14.984375 27.296875 
Q 14.984375 17.28125 19.8125 11.734375 
Q 24.65625 6.203125 33.40625 6.203125 
Q 37.3125 6.203125 41.140625 7.25 
Q 44.96875 8.296875 48.78125 10.40625 
L 48.78125 2.09375 
Q 45.015625 0.34375 40.984375 -0.53125 
Q 36.96875 -1.421875 32.421875 -1.421875 
Q 20.0625 -1.421875 12.78125 6.34375 
Q 5.515625 14.109375 5.515625 27.296875 
Q 5.515625 40.671875 12.859375 48.328125 
Q 20.21875 56 33.015625 56 
Q 37.15625 56 41.109375 55.140625 
Q 45.0625 54.296875 48.78125 52.59375 
z
" id="DejaVuSans-63"/>
     <path d="M 30.609375 48.390625 
Q 23.390625 48.390625 19.1875 42.75 
Q 14.984375 37.109375 14.984375 27.296875 
Q 14.984375 17.484375 19.15625 11.84375 
Q 23.34375 6.203125 30.609375 6.203125 
Q 37.796875 6.203125 41.984375 11.859375 
Q 46.1875 17.53125 46.1875 27.296875 
Q 46.1875 37.015625 41.984375 42.703125 
Q 37.796875 48.390625 30.609375 48.390625 
z
M 30.609375 56 
Q 42.328125 56 49.015625 48.375 
Q 55.71875 40.765625 55.71875 27.296875 
Q 55.71875 13.875 49.015625 6.21875 
Q 42.328125 -1.421875 30.609375 -1.421875 
Q 18.84375 -1.421875 12.171875 6.21875 
Q 5.515625 13.875 5.515625 27.296875 
Q 5.515625 40.765625 12.171875 48.375 
Q 18.84375 56 30.609375 56 
z
" id="DejaVuSans-6f"/>
     <path id="DejaVuSans-20"/>
     <path d="M 31 75.875 
Q 24.46875 64.65625 21.28125 53.65625 
Q 18.109375 42.671875 18.109375 31.390625 
Q 18.109375 20.125 21.3125 9.0625 
Q 24.515625 -2 31 -13.1875 
L 23.1875 -13.1875 
Q 15.875 -1.703125 12.234375 9.375 
Q 8.59375 20.453125 8.59375 31.390625 
Q 8.59375 42.28125 12.203125 53.3125 
Q 15.828125 64.359375 23.1875 75.875 
z
" id="DejaVuSans-28"/>
     <path d="M 25.390625 72.90625 
L 33.6875 72.90625 
L 8.296875 -9.28125 
L 0 -9.28125 
z
" id="DejaVuSans-2f"/>
     <path d="M 8.015625 75.875 
L 15.828125 75.875 
Q 23.140625 64.359375 26.78125 53.3125 
Q 30.421875 42.28125 30.421875 31.390625 
Q 30.421875 20.453125 26.78125 9.375 
Q 23.140625 -1.703125 15.828125 -13.1875 
L 8.015625 -13.1875 
Q 14.5 -2 17.703125 9.0625 
Q 20.90625 20.125 20.90625 31.390625 
Q 20.90625 42.671875 17.703125 53.65625 
Q 14.5 64.65625 8.015625 75.875 
z
" id="DejaVuSans-29"/>
     <path d="M 11.71875 12.40625 
L 22.015625 12.40625 
L 22.015625 0 
L 11.71875 0 
z
M 11.71875 51.703125 
L 22.015625 51.703125 
L 22.015625 39.3125 
L 11.71875 39.3125 
z
" id="DejaVuSans-3a"/>
     <path d="M 32.171875 -5.078125 
Q 28.375 -14.84375 24.75 -17.8125 
Q 21.140625 -20.796875 15.09375 -20.796875 
L 7.90625 -20.796875 
L 7.90625 -13.28125 
L 13.1875 -13.28125 
Q 16.890625 -13.28125 18.9375 -11.515625 
Q 21 -9.765625 23.484375 -3.21875 
L 25.09375 0.875 
L 2.984375 54.6875 
L 12.5 54.6875 
L 29.59375 11.921875 
L 46.6875 54.6875 
L 56.203125 54.6875 
z
" id="DejaVuSans-79"/>
     <path d="M 10.59375 45.40625 
L 73.1875 45.40625 
L 73.1875 37.203125 
L 10.59375 37.203125 
z
M 10.59375 25.484375 
L 73.1875 25.484375 
L 73.1875 17.1875 
L 10.59375 17.1875 
z
" id="DejaVuSans-3d"/>
     <path d="M 47.015625 60.890625 
L 29.5 51.421875 
L 47.015625 41.890625 
L 44.1875 37.109375 
L 27.78125 47.015625 
L 27.78125 28.609375 
L 22.21875 28.609375 
L 22.21875 47.015625 
L 5.8125 37.109375 
L 2.984375 41.890625 
L 20.515625 51.421875 
L 2.984375 60.890625 
L 5.8125 65.71875 
L 22.21875 55.8125 
L 22.21875 74.21875 
L 27.78125 74.21875 
L 27.78125 55.8125 
L 44.1875 65.71875 
z
" id="DejaVuSans-2a"/>
     <path d="M 54.890625 54.6875 
L 35.109375 28.078125 
L 55.90625 0 
L 45.3125 0 
L 29.390625 21.484375 
L 13.484375 0 
L 2.875 0 
L 24.125 28.609375 
L 4.6875 54.6875 
L 15.28125 54.6875 
L 29.78125 35.203125 
L 44.28125 54.6875 
z
" id="DejaVuSans-78"/>
     <path d="M 18.109375 8.203125 
L 18.109375 -20.796875 
L 9.078125 -20.796875 
L 9.078125 54.6875 
L 18.109375 54.6875 
L 18.109375 46.390625 
Q 20.953125 51.265625 25.265625 53.625 
Q 29.59375 56 35.59375 56 
Q 45.5625 56 51.78125 48.09375 
Q 58.015625 40.1875 58.015625 27.296875 
Q 58.015625 14.40625 51.78125 6.484375 
Q 45.5625 -1.421875 35.59375 -1.421875 
Q 29.59375 -1.421875 25.265625 0.953125 
Q 20.953125 3.328125 18.109375 8.203125 
z
M 48.6875 27.296875 
Q 48.6875 37.203125 44.609375 42.84375 
Q 40.53125 48.484375 33.40625 48.484375 
Q 26.265625 48.484375 22.1875 42.84375 
Q 18.109375 37.203125 18.109375 27.296875 
Q 18.109375 17.390625 22.1875 11.75 
Q 26.265625 6.109375 33.40625 6.109375 
Q 40.53125 6.109375 44.609375 11.75 
Q 48.6875 17.390625 48.6875 27.296875 
z
" id="DejaVuSans-70"/>
     <path d="M 4.890625 31.390625 
L 31.203125 31.390625 
L 31.203125 23.390625 
L 4.890625 23.390625 
z
" id="DejaVuSans-2d"/>
     <path d="M 4.203125 54.6875 
L 13.1875 54.6875 
L 24.421875 12.015625 
L 35.59375 54.6875 
L 46.1875 54.6875 
L 57.421875 12.015625 
L 68.609375 54.6875 
L 77.59375 54.6875 
L 63.28125 0 
L 52.6875 0 
L 40.921875 44.828125 
L 29.109375 0 
L 18.5 0 
z
" id="DejaVuSans-77"/>
     <path d="M 46 62.703125 
L 46 35.5 
L 73.1875 35.5 
L 73.1875 27.203125 
L 46 27.203125 
L 46 0 
L 37.796875 0 
L 37.796875 27.203125 
L 10.59375 27.203125 
L 10.59375 35.5 
L 37.796875 35.5 
L 37.796875 62.703125 
z
" id="DejaVuSans-2b"/>
     <path d="M 48.6875 27.296875 
Q 48.6875 37.203125 44.609375 42.84375 
Q 40.53125 48.484375 33.40625 48.484375 
Q 26.265625 48.484375 22.1875 42.84375 
Q 18.109375 37.203125 18.109375 27.296875 
Q 18.109375 17.390625 22.1875 11.75 
Q 26.265625 6.109375 33.40625 6.109375 
Q 40.53125 6.109375 44.609375 11.75 
Q 48.6875 17.390625 48.6875 27.296875 
z
M 18.109375 46.390625 
Q 20.953125 51.265625 25.265625 53.625 
Q 29.59375 56 35.59375 56 
Q 45.5625 56 51.78125 48.09375 
Q 58.015625 40.1875 58.015625 27.296875 
Q 58.015625 14.40625 51.78125 6.484375 
Q 45.5625 -1.421875 35.59375 -1.421875 
Q 29.59375 -1.421875 25.265625 0.953125 
Q 20.953125 3.328125 18.109375 8.203125 
L 18.109375 0 
L 9.078125 0 
L 9.078125 75.984375 
L 18.109375 75.984375 
z
" id="DejaVuSans-62"/>
    </defs>
    <g transform="translate(69.12 27.730187)scale(0.1 -0.1)">
     <use xlink:href="#DejaVuSans-46"/>
     <use x="57.441406" xlink:href="#DejaVuSans-75"/>
     <use x="120.820312" xlink:href="#DejaVuSans-6e"/>
     <use x="184.199219" xlink:href="#DejaVuSans-63"/>
     <use x="239.179688" xlink:href="#DejaVuSans-74"/>
     <use x="278.388672" xlink:href="#DejaVuSans-69"/>
     <use x="306.171875" xlink:href="#DejaVuSans-6f"/>
     <use x="367.353516" xlink:href="#DejaVuSans-6e"/>
     <use x="430.732422" xlink:href="#DejaVuSans-20"/>
     <use x="462.519531" xlink:href="#DejaVuSans-28"/>
     <use x="501.533203" xlink:href="#DejaVuSans-30"/>
     <use x="565.15625" xlink:href="#DejaVuSans-2f"/>
     <use x="598.847656" xlink:href="#DejaVuSans-30"/>
     <use x="662.470703" xlink:href="#DejaVuSans-29"/>
     <use x="701.484375" xlink:href="#DejaVuSans-3a"/>
     <use x="735.175781" xlink:href="#DejaVuSans-20"/>
     <use x="766.962891" xlink:href="#DejaVuSans-79"/>
     <use x="826.142578" xlink:href="#DejaVuSans-20"/>
     <use x="857.929688" xlink:href="#DejaVuSans-3d"/>
     <use x="941.71875" xlink:href="#DejaVuSans-20"/>
     <use x="973.505859" xlink:href="#DejaVuSans-61"/>
     <use x="1034.785156" xlink:href="#DejaVuSans-2a"/>
     <use x="1084.785156" xlink:href="#DejaVuSans-65"/>
     <use x="1146.292969" xlink:href="#DejaVuSans-78"/>
     <use x="1205.472656" xlink:href="#DejaVuSans-70"/>
     <use x="1268.949219" xlink:href="#DejaVuSans-28"/>
     <use x="1307.962891" xlink:href="#DejaVuSans-2d"/>
     <use x="1344.046875" xlink:href="#DejaVuSans-28"/>
     <use x="1383.060547" xlink:href="#DejaVuSans-78"/>
     <use x="1442.240234" xlink:href="#DejaVuSans-2d"/>
     <use x="1478.324219" xlink:href="#DejaVuSans-78"/>
     <use x="1537.503906" xlink:href="#DejaVuSans-30"/>
     <use x="1601.126953" xlink:href="#DejaVuSans-29"/>
     <use x="1640.140625" xlink:href="#DejaVuSans-2a"/>
     <use x="1690.140625" xlink:href="#DejaVuSans-2a"/>
     <use x="1740.140625" xlink:href="#DejaVuSans-32"/>
     <use x="1803.763672" xlink:href="#DejaVuSans-2f"/>
     <use x="1837.455078" xlink:href="#DejaVuSans-77"/>
     <use x="1919.242188" xlink:href="#DejaVuSans-2a"/>
     <use x="1969.242188" xlink:href="#DejaVuSans-2a"/>
     <use x="2019.242188" xlink:href="#DejaVuSans-32"/>
     <use x="2082.865234" xlink:href="#DejaVuSans-29"/>
     <use x="2121.878906" xlink:href="#DejaVuSans-2b"/>
     <use x="2205.667969" xlink:href="#DejaVuSans-62"/>
    </g>
    <!-- Fit: a=253.2$\pm$7.7, b=53.2$\pm$8.5, x0=4.293$\pm$0.0016, w=0.184$\pm$0.0072, -->
    <defs>
     <path d="M 40.578125 39.3125 
Q 47.65625 37.796875 51.625 33 
Q 55.609375 28.21875 55.609375 21.1875 
Q 55.609375 10.40625 48.1875 4.484375 
Q 40.765625 -1.421875 27.09375 -1.421875 
Q 22.515625 -1.421875 17.65625 -0.515625 
Q 12.796875 0.390625 7.625 2.203125 
L 7.625 11.71875 
Q 11.71875 9.328125 16.59375 8.109375 
Q 21.484375 6.890625 26.8125 6.890625 
Q 36.078125 6.890625 40.9375 10.546875 
Q 45.796875 14.203125 45.796875 21.1875 
Q 45.796875 27.640625 41.28125 31.265625 
Q 36.765625 34.90625 28.71875 34.90625 
L 20.21875 34.90625 
L 20.21875 43.015625 
L 29.109375 43.015625 
Q 36.375 43.015625 40.234375 45.921875 
Q 44.09375 48.828125 44.09375 54.296875 
Q 44.09375 59.90625 40.109375 62.90625 
Q 36.140625 65.921875 28.71875 65.921875 
Q 24.65625 65.921875 20.015625 65.03125 
Q 15.375 64.15625 9.8125 62.3125 
L 9.8125 71.09375 
Q 15.4375 72.65625 20.34375 73.4375 
Q 25.25 74.21875 29.59375 74.21875 
Q 40.828125 74.21875 47.359375 69.109375 
Q 53.90625 64.015625 53.90625 55.328125 
Q 53.90625 49.265625 50.4375 45.09375 
Q 46.96875 40.921875 40.578125 39.3125 
z
" id="DejaVuSans-33"/>
     <path d="M 46 62.703125 
L 46 43.796875 
L 73.1875 43.796875 
L 73.1875 35.5 
L 46 35.5 
L 46 16.609375 
L 37.796875 16.609375 
L 37.796875 35.5 
L 10.59375 35.5 
L 10.59375 43.796875 
L 37.796875 43.796875 
L 37.796875 62.703125 
z
M 10.59375 8.296875 
L 73.1875 8.296875 
L 73.1875 0 
L 10.59375 0 
z
" id="DejaVuSans-b1"/>
     <path d="M 8.203125 72.90625 
L 55.078125 72.90625 
L 55.078125 68.703125 
L 28.609375 0 
L 18.3125 0 
L 43.21875 64.59375 
L 8.203125 64.59375 
z
" id="DejaVuSans-37"/>
     <path d="M 11.71875 12.40625 
L 22.015625 12.40625 
L 22.015625 4 
L 14.015625 -11.625 
L 7.71875 -11.625 
L 11.71875 4 
z
" id="DejaVuSans-2c"/>
     <path d="M 31.78125 34.625 
Q 24.75 34.625 20.71875 30.859375 
Q 16.703125 27.09375 16.703125 20.515625 
Q 16.703125 13.921875 20.71875 10.15625 
Q 24.75 6.390625 31.78125 6.390625 
Q 38.8125 6.390625 42.859375 10.171875 
Q 46.921875 13.96875 46.921875 20.515625 
Q 46.921875 27.09375 42.890625 30.859375 
Q 38.875 34.625 31.78125 34.625 
z
M 21.921875 38.8125 
Q 15.578125 40.375 12.03125 44.71875 
Q 8.5 49.078125 8.5 55.328125 
Q 8.5 64.0625 14.71875 69.140625 
Q 20.953125 74.21875 31.78125 74.21875 
Q 42.671875 74.21875 48.875 69.140625 
Q 55.078125 64.0625 55.078125 55.328125 
Q 55.078125 49.078125 51.53125 44.71875 
Q 48 40.375 41.703125 38.8125 
Q 48.828125 37.15625 52.796875 32.3125 
Q 56.78125 27.484375 56.78125 20.515625 
Q 56.78125 9.90625 50.3125 4.234375 
Q 43.84375 -1.421875 31.78125 -1.421875 
Q 19.734375 -1.421875 13.25 4.234375 
Q 6.78125 9.90625 6.78125 20.515625 
Q 6.78125 27.484375 10.78125 32.3125 
Q 14.796875 37.15625 21.921875 38.8125 
z
M 18.3125 54.390625 
Q 18.3125 48.734375 21.84375 45.5625 
Q 25.390625 42.390625 31.78125 42.390625 
Q 38.140625 42.390625 41.71875 45.5625 
Q 45.3125 48.734375 45.3125 54.390625 
Q 45.3125 60.0625 41.71875 63.234375 
Q 38.140625 66.40625 31.78125 66.40625 
Q 25.390625 66.40625 21.84375 63.234375 
Q 18.3125 60.0625 18.3125 54.390625 
z
" id="DejaVuSans-38"/>
     <path d="M 37.796875 64.3125 
L 12.890625 25.390625 
L 37.796875 25.390625 
z
M 35.203125 72.90625 
L 47.609375 72.90625 
L 47.609375 25.390625 
L 58.015625 25.390625 
L 58.015625 17.1875 
L 47.609375 17.1875 
L 47.609375 0 
L 37.796875 0 
L 37.796875 17.1875 
L 4.890625 17.1875 
L 4.890625 26.703125 
z
" id="DejaVuSans-34"/>
     <path d="M 10.984375 1.515625 
L 10.984375 10.5 
Q 14.703125 8.734375 18.5 7.8125 
Q 22.3125 6.890625 25.984375 6.890625 
Q 35.75 6.890625 40.890625 13.453125 
Q 46.046875 20.015625 46.78125 33.40625 
Q 43.953125 29.203125 39.59375 26.953125 
Q 35.25 24.703125 29.984375 24.703125 
Q 19.046875 24.703125 12.671875 31.3125 
Q 6.296875 37.9375 6.296875 49.421875 
Q 6.296875 60.640625 12.9375 67.421875 
Q 19.578125 74.21875 30.609375 74.21875 
Q 43.265625 74.21875 49.921875 64.515625 
Q 56.59375 54.828125 56.59375 36.375 
Q 56.59375 19.140625 48.40625 8.859375 
Q 40.234375 -1.421875 26.421875 -1.421875 
Q 22.703125 -1.421875 18.890625 -0.6875 
Q 15.09375 0.046875 10.984375 1.515625 
z
M 30.609375 32.421875 
Q 37.25 32.421875 41.125 36.953125 
Q 45.015625 41.5 45.015625 49.421875 
Q 45.015625 57.28125 41.125 61.84375 
Q 37.25 66.40625 30.609375 66.40625 
Q 23.96875 66.40625 20.09375 61.84375 
Q 16.21875 57.28125 16.21875 49.421875 
Q 16.21875 41.5 20.09375 36.953125 
Q 23.96875 32.421875 30.609375 32.421875 
z
" id="DejaVuSans-39"/>
     <path d="M 12.40625 8.296875 
L 28.515625 8.296875 
L 28.515625 63.921875 
L 10.984375 60.40625 
L 10.984375 69.390625 
L 28.421875 72.90625 
L 38.28125 72.90625 
L 38.28125 8.296875 
L 54.390625 8.296875 
L 54.390625 0 
L 12.40625 0 
z
" id="DejaVuSans-31"/>
     <path d="M 33.015625 40.375 
Q 26.375 40.375 22.484375 35.828125 
Q 18.609375 31.296875 18.609375 23.390625 
Q 18.609375 15.53125 22.484375 10.953125 
Q 26.375 6.390625 33.015625 6.390625 
Q 39.65625 6.390625 43.53125 10.953125 
Q 47.40625 15.53125 47.40625 23.390625 
Q 47.40625 31.296875 43.53125 35.828125 
Q 39.65625 40.375 33.015625 40.375 
z
M 52.59375 71.296875 
L 52.59375 62.3125 
Q 48.875 64.0625 45.09375 64.984375 
Q 41.3125 65.921875 37.59375 65.921875 
Q 27.828125 65.921875 22.671875 59.328125 
Q 17.53125 52.734375 16.796875 39.40625 
Q 19.671875 43.65625 24.015625 45.921875 
Q 28.375 48.1875 33.59375 48.1875 
Q 44.578125 48.1875 50.953125 41.515625 
Q 57.328125 34.859375 57.328125 23.390625 
Q 57.328125 12.15625 50.6875 5.359375 
Q 44.046875 -1.421875 33.015625 -1.421875 
Q 20.359375 -1.421875 13.671875 8.265625 
Q 6.984375 17.96875 6.984375 36.375 
Q 6.984375 53.65625 15.1875 63.9375 
Q 23.390625 74.21875 37.203125 74.21875 
Q 40.921875 74.21875 44.703125 73.484375 
Q 48.484375 72.75 52.59375 71.296875 
z
" id="DejaVuSans-36"/>
    </defs>
    <g transform="translate(69.12 38.928)scale(0.1 -0.1)">
     <use transform="translate(0 0.015625)" xlink:href="#DejaVuSans-46"/>
     <use transform="translate(57.519531 0.015625)" xlink:href="#DejaVuSans-69"/>
     <use transform="translate(85.302734 0.015625)" xlink:href="#DejaVuSans-74"/>
     <use transform="translate(124.511719 0.015625)" xlink:href="#DejaVuSans-3a"/>
     <use transform="translate(158.203125 0.015625)" xlink:href="#DejaVuSans-20"/>
     <use transform="translate(189.990234 0.015625)" xlink:href="#DejaVuSans-61"/>
     <use transform="translate(251.269531 0.015625)" xlink:href="#DejaVuSans-3d"/>
     <use transform="translate(335.058594 0.015625)" xlink:href="#DejaVuSans-32"/>
     <use transform="translate(398.681641 0.015625)" xlink:href="#DejaVuSans-35"/>
     <use transform="translate(462.304688 0.015625)" xlink:href="#DejaVuSans-33"/>
     <use transform="translate(525.927734 0.015625)" xlink:href="#DejaVuSans-2e"/>
     <use transform="translate(557.636719 0.015625)" xlink:href="#DejaVuSans-32"/>
     <use transform="translate(621.259766 0.015625)" xlink:href="#DejaVuSans-b1"/>
     <use transform="translate(705.048828 0.015625)" xlink:href="#DejaVuSans-37"/>
     <use transform="translate(768.671875 0.015625)" xlink:href="#DejaVuSans-2e"/>
     <use transform="translate(800.349609 0.015625)" xlink:href="#DejaVuSans-37"/>
     <use transform="translate(863.972656 0.015625)" xlink:href="#DejaVuSans-2c"/>
     <use transform="translate(895.759766 0.015625)" xlink:href="#DejaVuSans-20"/>
     <use transform="translate(927.546875 0.015625)" xlink:href="#DejaVuSans-62"/>
     <use transform="translate(991.023438 0.015625)" xlink:href="#DejaVuSans-3d"/>
     <use transform="translate(1074.8125 0.015625)" xlink:href="#DejaVuSans-35"/>
     <use transform="translate(1138.435547 0.015625)" xlink:href="#DejaVuSans-33"/>
     <use transform="translate(1202.058594 0.015625)" xlink:href="#DejaVuSans-2e"/>
     <use transform="translate(1233.767578 0.015625)" xlink:href="#DejaVuSans-32"/>
     <use transform="translate(1297.390625 0.015625)" xlink:href="#DejaVuSans-b1"/>
     <use transform="translate(1381.179688 0.015625)" xlink:href="#DejaVuSans-38"/>
     <use transform="translate(1444.802734 0.015625)" xlink:href="#DejaVuSans-2e"/>
     <use transform="translate(1476.589844 0.015625)" xlink:href="#DejaVuSans-35"/>
     <use transform="translate(1540.212891 0.015625)" xlink:href="#DejaVuSans-2c"/>
     <use transform="translate(1572 0.015625)" xlink:href="#DejaVuSans-20"/>
     <use transform="translate(1603.787109 0.015625)" xlink:href="#DejaVuSans-78"/>
     <use transform="translate(1662.966797 0.015625)" xlink:href="#DejaVuSans-30"/>
     <use transform="translate(1726.589844 0.015625)" xlink:href="#DejaVuSans-3d"/>
     <use transform="translate(1810.378906 0.015625)" xlink:href="#DejaVuSans-34"/>
     <use transform="translate(1874.001953 0.015625)" xlink:href="#DejaVuSans-2e"/>
     <use transform="translate(1905.710938 0.015625)" xlink:href="#DejaVuSans-32"/>
     <use transform="translate(1969.318359 0.015625)" xlink:href="#DejaVuSans-39"/>
     <use transform="translate(2032.941406 0.015625)" xlink:href="#DejaVuSans-33"/>
     <use transform="translate(2096.564453 0.015625)" xlink:href="#DejaVuSans-b1"/>
     <use transform="translate(2180.353516 0.015625)" xlink:href="#DejaVuSans-30"/>
     <use transform="translate(2243.976562 0.015625)" xlink:href="#DejaVuSans-2e"/>
     <use transform="translate(2275.763672 0.015625)" xlink:href="#DejaVuSans-30"/>
     <use transform="translate(2339.386719 0.015625)" xlink:href="#DejaVuSans-30"/>
     <use transform="translate(2403.009766 0.015625)" xlink:href="#DejaVuSans-31"/>
     <use transform="translate(2466.632812 0.015625)" xlink:href="#DejaVuSans-36"/>
     <use transform="translate(2530.255859 0.015625)" xlink:href="#DejaVuSans-2c"/>
     <use transform="translate(2562.042969 0.015625)" xlink:href="#DejaVuSans-20"/>
     <use transform="translate(2593.830078 0.015625)" xlink:href="#DejaVuSans-77"/>
     <use transform="translate(2675.617188 0.015625)" xlink:href="#DejaVuSans-3d"/>
     <use transform="translate(2759.40625 0.015625)" xlink:href="#DejaVuSans-30"/>
     <use transform="translate(2823.029297 0.015625)" xlink:href="#DejaVuSans-2e"/>
     <use transform="translate(2854.816406 0.015625)" xlink:href="#DejaVuSans-31"/>
     <use transform="translate(2918.439453 0.015625)" xlink:href="#DejaVuSans-38"/>
     <use transform="translate(2982.0625 0.015625)" xlink:href="#DejaVuSans-34"/>
     <use transform="translate(3045.685547 0.015625)" xlink:href="#DejaVuSans-b1"/>
     <use transform="translate(3129.474609 0.015625)" xlink:href="#DejaVuSans-30"/>
     <use transform="translate(3193.097656 0.015625)" xlink:href="#DejaVuSans-2e"/>
     <use transform="translate(3224.884766 0.015625)" xlink:href="#DejaVuSans-30"/>
     <use transform="translate(3288.507812 0.015625)" xlink:href="#DejaVuSans-30"/>
     <use transform="translate(3352.130859 0.015625)" xlink:href="#DejaVuSans-37"/>
     <use transform="translate(3415.753906 0.015625)" xlink:href="#DejaVuSans-32"/>
     <use transform="translate(3479.376953 0.015625)" xlink:href="#DejaVuSans-2c"/>
    </g>
   </g>
  </g>
  <g id="axes_2">
   <g id="patch_7">
    <path d="M 69.12 311.04 
L 414.72 311.04 
L 414.72 103.68 
L 69.12 103.68 
z
" style="fill:#ffffff;"/>
   </g>
   <g id="matplotlib.axis_3">
    <g id="xtick_7">
     <g id="line2d_11">
      <g>
       <use style="stroke:#000000;stroke-width:0.8;" x="75.260999" xlink:href="#m994f96502f" y="311.04"/>
      </g>
     </g>
     <g id="text_5">
      <!-- 4.0 -->
      <g transform="translate(63.333655 329.437656)scale(0.15 -0.15)">
       <use xlink:href="#DejaVuSans-34"/>
       <use x="63.623047" xlink:href="#DejaVuSans-2e"/>
       <use x="95.410156" xlink:href="#DejaVuSans-30"/>
      </g>
     </g>
    </g>
    <g id="xtick_8">
     <g id="line2d_12">
      <g>
       <use style="stroke:#000000;stroke-width:0.8;" x="136.388796" xlink:href="#m994f96502f" y="311.04"/>
      </g>
     </g>
     <g id="text_6">
      <!-- 4.1 -->
      <g transform="translate(124.461452 329.437656)scale(0.15 -0.15)">
       <use xlink:href="#DejaVuSans-34"/>
       <use x="63.623047" xlink:href="#DejaVuSans-2e"/>
       <use x="95.410156" xlink:href="#DejaVuSans-31"/>
      </g>
     </g>
    </g>
    <g id="xtick_9">
     <g id="line2d_13">
      <g>
       <use style="stroke:#000000;stroke-width:0.8;" x="197.516594" xlink:href="#m994f96502f" y="311.04"/>
      </g>
     </g>
     <g id="text_7">
      <!-- 4.2 -->
      <g transform="translate(185.58925 329.437656)scale(0.15 -0.15)">
       <use xlink:href="#DejaVuSans-34"/>
       <use x="63.623047" xlink:href="#DejaVuSans-2e"/>
       <use x="95.410156" xlink:href="#DejaVuSans-32"/>
      </g>
     </g>
    </g>
    <g id="xtick_10">
     <g id="line2d_14">
      <g>
       <use style="stroke:#000000;stroke-width:0.8;" x="258.644391" xlink:href="#m994f96502f" y="311.04"/>
      </g>
     </g>
     <g id="text_8">
      <!-- 4.3 -->
      <g transform="translate(246.717048 329.437656)scale(0.15 -0.15)">
       <use xlink:href="#DejaVuSans-34"/>
       <use x="63.623047" xlink:href="#DejaVuSans-2e"/>
       <use x="95.410156" xlink:href="#DejaVuSans-33"/>
      </g>
     </g>
    </g>
    <g id="xtick_11">
     <g id="line2d_15">
      <g>
       <use style="stroke:#000000;stroke-width:0.8;" x="319.772189" xlink:href="#m994f96502f" y="311.04"/>
      </g>
     </g>
     <g id="text_9">
      <!-- 4.4 -->
      <g transform="translate(307.844845 329.437656)scale(0.15 -0.15)">
       <use xlink:href="#DejaVuSans-34"/>
       <use x="63.623047" xlink:href="#DejaVuSans-2e"/>
       <use x="95.410156" xlink:href="#DejaVuSans-34"/>
      </g>
     </g>
    </g>
    <g id="xtick_12">
     <g id="line2d_16">
      <g>
       <use style="stroke:#000000;stroke-width:0.8;" x="380.899987" xlink:href="#m994f96502f" y="311.04"/>
      </g>
     </g>
     <g id="text_10">
      <!-- 4.5 -->
      <g transform="translate(368.972643 329.437656)scale(0.15 -0.15)">
       <use xlink:href="#DejaVuSans-34"/>
       <use x="63.623047" xlink:href="#DejaVuSans-2e"/>
       <use x="95.410156" xlink:href="#DejaVuSans-35"/>
      </g>
     </g>
    </g>
    <g id="text_11">
     <!-- Energy [MeV] -->
     <defs>
      <path d="M 9.8125 72.90625 
L 55.90625 72.90625 
L 55.90625 64.59375 
L 19.671875 64.59375 
L 19.671875 43.015625 
L 54.390625 43.015625 
L 54.390625 34.71875 
L 19.671875 34.71875 
L 19.671875 8.296875 
L 56.78125 8.296875 
L 56.78125 0 
L 9.8125 0 
z
" id="DejaVuSans-45"/>
      <path d="M 41.109375 46.296875 
Q 39.59375 47.171875 37.8125 47.578125 
Q 36.03125 48 33.890625 48 
Q 26.265625 48 22.1875 43.046875 
Q 18.109375 38.09375 18.109375 28.8125 
L 18.109375 0 
L 9.078125 0 
L 9.078125 54.6875 
L 18.109375 54.6875 
L 18.109375 46.1875 
Q 20.953125 51.171875 25.484375 53.578125 
Q 30.03125 56 36.53125 56 
Q 37.453125 56 38.578125 55.875 
Q 39.703125 55.765625 41.0625 55.515625 
z
" id="DejaVuSans-72"/>
      <path d="M 45.40625 27.984375 
Q 45.40625 37.75 41.375 43.109375 
Q 37.359375 48.484375 30.078125 48.484375 
Q 22.859375 48.484375 18.828125 43.109375 
Q 14.796875 37.75 14.796875 27.984375 
Q 14.796875 18.265625 18.828125 12.890625 
Q 22.859375 7.515625 30.078125 7.515625 
Q 37.359375 7.515625 41.375 12.890625 
Q 45.40625 18.265625 45.40625 27.984375 
z
M 54.390625 6.78125 
Q 54.390625 -7.171875 48.1875 -13.984375 
Q 42 -20.796875 29.203125 -20.796875 
Q 24.46875 -20.796875 20.265625 -20.09375 
Q 16.0625 -19.390625 12.109375 -17.921875 
L 12.109375 -9.1875 
Q 16.0625 -11.328125 19.921875 -12.34375 
Q 23.78125 -13.375 27.78125 -13.375 
Q 36.625 -13.375 41.015625 -8.765625 
Q 45.40625 -4.15625 45.40625 5.171875 
L 45.40625 9.625 
Q 42.625 4.78125 38.28125 2.390625 
Q 33.9375 0 27.875 0 
Q 17.828125 0 11.671875 7.65625 
Q 5.515625 15.328125 5.515625 27.984375 
Q 5.515625 40.671875 11.671875 48.328125 
Q 17.828125 56 27.875 56 
Q 33.9375 56 38.28125 53.609375 
Q 42.625 51.21875 45.40625 46.390625 
L 45.40625 54.6875 
L 54.390625 54.6875 
z
" id="DejaVuSans-67"/>
      <path d="M 8.59375 75.984375 
L 29.296875 75.984375 
L 29.296875 69 
L 17.578125 69 
L 17.578125 -6.203125 
L 29.296875 -6.203125 
L 29.296875 -13.1875 
L 8.59375 -13.1875 
z
" id="DejaVuSans-5b"/>
      <path d="M 9.8125 72.90625 
L 24.515625 72.90625 
L 43.109375 23.296875 
L 61.8125 72.90625 
L 76.515625 72.90625 
L 76.515625 0 
L 66.890625 0 
L 66.890625 64.015625 
L 48.09375 14.015625 
L 38.1875 14.015625 
L 19.390625 64.015625 
L 19.390625 0 
L 9.8125 0 
z
" id="DejaVuSans-4d"/>
      <path d="M 28.609375 0 
L 0.78125 72.90625 
L 11.078125 72.90625 
L 34.1875 11.53125 
L 57.328125 72.90625 
L 67.578125 72.90625 
L 39.796875 0 
z
" id="DejaVuSans-56"/>
      <path d="M 30.421875 75.984375 
L 30.421875 -13.1875 
L 9.71875 -13.1875 
L 9.71875 -6.203125 
L 21.390625 -6.203125 
L 21.390625 69 
L 9.71875 69 
L 9.71875 75.984375 
z
" id="DejaVuSans-5d"/>
     </defs>
     <g transform="translate(191.078203 347.954844)scale(0.15 -0.15)">
      <use xlink:href="#DejaVuSans-45"/>
      <use x="63.183594" xlink:href="#DejaVuSans-6e"/>
      <use x="126.5625" xlink:href="#DejaVuSans-65"/>
      <use x="188.085938" xlink:href="#DejaVuSans-72"/>
      <use x="229.183594" xlink:href="#DejaVuSans-67"/>
      <use x="292.660156" xlink:href="#DejaVuSans-79"/>
      <use x="351.839844" xlink:href="#DejaVuSans-20"/>
      <use x="383.626953" xlink:href="#DejaVuSans-5b"/>
      <use x="422.640625" xlink:href="#DejaVuSans-4d"/>
      <use x="508.919922" xlink:href="#DejaVuSans-65"/>
      <use x="570.443359" xlink:href="#DejaVuSans-56"/>
      <use x="638.851562" xlink:href="#DejaVuSans-5d"/>
     </g>
    </g>
   </g>
   <g id="matplotlib.axis_4">
    <g id="ytick_3">
     <g id="line2d_17">
      <g>
       <use style="stroke:#000000;stroke-width:0.8;" x="69.12" xlink:href="#m12f762f374" y="286.575352"/>
      </g>
     </g>
     <g id="text_12">
      <!-- 100 -->
      <g transform="translate(33.48875 292.27418)scale(0.15 -0.15)">
       <use xlink:href="#DejaVuSans-31"/>
       <use x="63.623047" xlink:href="#DejaVuSans-30"/>
       <use x="127.246094" xlink:href="#DejaVuSans-30"/>
      </g>
     </g>
    </g>
    <g id="ytick_4">
     <g id="line2d_18">
      <g>
       <use style="stroke:#000000;stroke-width:0.8;" x="69.12" xlink:href="#m12f762f374" y="245.637186"/>
      </g>
     </g>
     <g id="text_13">
      <!-- 150 -->
      <g transform="translate(33.48875 251.336014)scale(0.15 -0.15)">
       <use xlink:href="#DejaVuSans-31"/>
       <use x="63.623047" xlink:href="#DejaVuSans-35"/>
       <use x="127.246094" xlink:href="#DejaVuSans-30"/>
      </g>
     </g>
    </g>
    <g id="ytick_5">
     <g id="line2d_19">
      <g>
       <use style="stroke:#000000;stroke-width:0.8;" x="69.12" xlink:href="#m12f762f374" y="204.699019"/>
      </g>
     </g>
     <g id="text_14">
      <!-- 200 -->
      <g transform="translate(33.48875 210.397847)scale(0.15 -0.15)">
       <use xlink:href="#DejaVuSans-32"/>
       <use x="63.623047" xlink:href="#DejaVuSans-30"/>
       <use x="127.246094" xlink:href="#DejaVuSans-30"/>
      </g>
     </g>
    </g>
    <g id="ytick_6">
     <g id="line2d_20">
      <g>
       <use style="stroke:#000000;stroke-width:0.8;" x="69.12" xlink:href="#m12f762f374" y="163.760853"/>
      </g>
     </g>
     <g id="text_15">
      <!-- 250 -->
      <g transform="translate(33.48875 169.459681)scale(0.15 -0.15)">
       <use xlink:href="#DejaVuSans-32"/>
       <use x="63.623047" xlink:href="#DejaVuSans-35"/>
       <use x="127.246094" xlink:href="#DejaVuSans-30"/>
      </g>
     </g>
    </g>
    <g id="ytick_7">
     <g id="line2d_21">
      <g>
       <use style="stroke:#000000;stroke-width:0.8;" x="69.12" xlink:href="#m12f762f374" y="122.822687"/>
      </g>
     </g>
     <g id="text_16">
      <!-- 300 -->
      <g transform="translate(33.48875 128.521515)scale(0.15 -0.15)">
       <use xlink:href="#DejaVuSans-33"/>
       <use x="63.623047" xlink:href="#DejaVuSans-30"/>
       <use x="127.246094" xlink:href="#DejaVuSans-30"/>
      </g>
     </g>
    </g>
    <g id="text_17">
     <!-- Counts -->
     <defs>
      <path d="M 64.40625 67.28125 
L 64.40625 56.890625 
Q 59.421875 61.53125 53.78125 63.8125 
Q 48.140625 66.109375 41.796875 66.109375 
Q 29.296875 66.109375 22.65625 58.46875 
Q 16.015625 50.828125 16.015625 36.375 
Q 16.015625 21.96875 22.65625 14.328125 
Q 29.296875 6.6875 41.796875 6.6875 
Q 48.140625 6.6875 53.78125 8.984375 
Q 59.421875 11.28125 64.40625 15.921875 
L 64.40625 5.609375 
Q 59.234375 2.09375 53.4375 0.328125 
Q 47.65625 -1.421875 41.21875 -1.421875 
Q 24.65625 -1.421875 15.125 8.703125 
Q 5.609375 18.84375 5.609375 36.375 
Q 5.609375 53.953125 15.125 64.078125 
Q 24.65625 74.21875 41.21875 74.21875 
Q 47.75 74.21875 53.53125 72.484375 
Q 59.328125 70.75 64.40625 67.28125 
z
" id="DejaVuSans-43"/>
     </defs>
     <g transform="translate(26.369219 233.539687)rotate(-90)scale(0.15 -0.15)">
      <use xlink:href="#DejaVuSans-43"/>
      <use x="69.824219" xlink:href="#DejaVuSans-6f"/>
      <use x="131.005859" xlink:href="#DejaVuSans-75"/>
      <use x="194.384766" xlink:href="#DejaVuSans-6e"/>
      <use x="257.763672" xlink:href="#DejaVuSans-74"/>
      <use x="296.972656" xlink:href="#DejaVuSans-73"/>
     </g>
    </g>
   </g>
   <g id="LineCollection_2">
    <path clip-path="url(#pb6089f6f09)" d="M 81.92 307.56667 
L 81.92 292.603224 
" style="fill:none;stroke:#0000ff;stroke-width:1.5;"/>
    <path clip-path="url(#pb6089f6f09)" d="M 85.556364 306.792574 
L 85.556364 291.739793 
" style="fill:none;stroke:#0000ff;stroke-width:1.5;"/>
    <path clip-path="url(#pb6089f6f09)" d="M 89.192727 310.660321 
L 89.192727 296.059679 
" style="fill:none;stroke:#0000ff;stroke-width:1.5;"/>
    <path clip-path="url(#pb6089f6f09)" d="M 96.465455 295.151872 
L 96.465455 278.817595 
" style="fill:none;stroke:#0000ff;stroke-width:1.5;"/>
    <path clip-path="url(#pb6089f6f09)" d="M 100.101818 297.872615 
L 100.101818 281.828196 
" style="fill:none;stroke:#0000ff;stroke-width:1.5;"/>
    <path clip-path="url(#pb6089f6f09)" d="M 103.738182 290.481933 
L 103.738182 273.662374 
" style="fill:none;stroke:#0000ff;stroke-width:1.5;"/>
    <path clip-path="url(#pb6089f6f09)" d="M 107.374545 290.092456 
L 107.374545 273.233087 
" style="fill:none;stroke:#0000ff;stroke-width:1.5;"/>
    <path clip-path="url(#pb6089f6f09)" d="M 111.010909 287.754622 
L 111.010909 270.658342 
" style="fill:none;stroke:#0000ff;stroke-width:1.5;"/>
    <path clip-path="url(#pb6089f6f09)" d="M 114.647273 274.086936 
L 114.647273 255.669311 
" style="fill:none;stroke:#0000ff;stroke-width:1.5;"/>
    <path clip-path="url(#pb6089f6f09)" d="M 118.283636 278.387719 
L 118.283636 260.374925 
" style="fill:none;stroke:#0000ff;stroke-width:1.5;"/>
    <path clip-path="url(#pb6089f6f09)" d="M 121.92 276.82432 
L 121.92 258.663271 
" style="fill:none;stroke:#0000ff;stroke-width:1.5;"/>
    <path clip-path="url(#pb6089f6f09)" d="M 125.556364 275.260321 
L 125.556364 256.952216 
" style="fill:none;stroke:#0000ff;stroke-width:1.5;"/>
    <path clip-path="url(#pb6089f6f09)" d="M 129.192727 269.390217 
L 129.192727 250.54087 
" style="fill:none;stroke:#0000ff;stroke-width:1.5;"/>
    <path clip-path="url(#pb6089f6f09)" d="M 132.829091 265.864488 
L 132.829091 246.69773 
" style="fill:none;stroke:#0000ff;stroke-width:1.5;"/>
    <path clip-path="url(#pb6089f6f09)" d="M 136.465455 262.336172 
L 136.465455 242.857175 
" style="fill:none;stroke:#0000ff;stroke-width:1.5;"/>
    <path clip-path="url(#pb6089f6f09)" d="M 140.101818 259.197821 
L 140.101818 239.44542 
" style="fill:none;stroke:#0000ff;stroke-width:1.5;"/>
    <path clip-path="url(#pb6089f6f09)" d="M 143.738182 260.767235 
L 143.738182 241.15106 
" style="fill:none;stroke:#0000ff;stroke-width:1.5;"/>
    <path clip-path="url(#pb6089f6f09)" d="M 147.374545 252.522718 
L 147.374545 232.201547 
" style="fill:none;stroke:#0000ff;stroke-width:1.5;"/>
    <path clip-path="url(#pb6089f6f09)" d="M 151.010909 238.362373 
L 151.010909 216.886412 
" style="fill:none;stroke:#0000ff;stroke-width:1.5;"/>
    <path clip-path="url(#pb6089f6f09)" d="M 154.647273 237.574779 
L 154.647273 216.036479 
" style="fill:none;stroke:#0000ff;stroke-width:1.5;"/>
    <path clip-path="url(#pb6089f6f09)" d="M 158.283636 229.29976 
L 158.283636 207.117468 
" style="fill:none;stroke:#0000ff;stroke-width:1.5;"/>
    <path clip-path="url(#pb6089f6f09)" d="M 161.92 235.999323 
L 161.92 214.336882 
" style="fill:none;stroke:#0000ff;stroke-width:1.5;"/>
    <path clip-path="url(#pb6089f6f09)" d="M 165.556364 214.698306 
L 165.556364 191.424679 
" style="fill:none;stroke:#0000ff;stroke-width:1.5;"/>
    <path clip-path="url(#pb6089f6f09)" d="M 169.192727 219.436759 
L 169.192727 196.511386 
" style="fill:none;stroke:#0000ff;stroke-width:1.5;"/>
    <path clip-path="url(#pb6089f6f09)" d="M 172.829091 219.831511 
L 172.829091 196.935398 
" style="fill:none;stroke:#0000ff;stroke-width:1.5;"/>
    <path clip-path="url(#pb6089f6f09)" d="M 176.465455 218.252393 
L 176.465455 195.239462 
" style="fill:none;stroke:#0000ff;stroke-width:1.5;"/>
    <path clip-path="url(#pb6089f6f09)" d="M 180.101818 211.142775 
L 180.101818 187.61134 
" style="fill:none;stroke:#0000ff;stroke-width:1.5;"/>
    <path clip-path="url(#pb6089f6f09)" d="M 183.738182 187.405556 
L 183.738182 162.22276 
" style="fill:none;stroke:#0000ff;stroke-width:1.5;"/>
    <path clip-path="url(#pb6089f6f09)" d="M 187.374545 200.072386 
L 187.374545 175.756356 
" style="fill:none;stroke:#0000ff;stroke-width:1.5;"/>
    <path clip-path="url(#pb6089f6f09)" d="M 191.010909 195.719884 
L 191.010909 171.102461 
" style="fill:none;stroke:#0000ff;stroke-width:1.5;"/>
    <path clip-path="url(#pb6089f6f09)" d="M 194.647273 197.698524 
L 194.647273 173.217638 
" style="fill:none;stroke:#0000ff;stroke-width:1.5;"/>
    <path clip-path="url(#pb6089f6f09)" d="M 198.283636 190.969624 
L 198.283636 166.027561 
" style="fill:none;stroke:#0000ff;stroke-width:1.5;"/>
    <path clip-path="url(#pb6089f6f09)" d="M 201.92 169.172063 
L 201.92 142.79314 
" style="fill:none;stroke:#0000ff;stroke-width:1.5;"/>
    <path clip-path="url(#pb6089f6f09)" d="M 205.556364 183.047928 
L 205.556364 157.573991 
" style="fill:none;stroke:#0000ff;stroke-width:1.5;"/>
    <path clip-path="url(#pb6089f6f09)" d="M 209.192727 175.517272 
L 209.192727 149.548144 
" style="fill:none;stroke:#0000ff;stroke-width:1.5;"/>
    <path clip-path="url(#pb6089f6f09)" d="M 212.829091 156.869423 
L 212.829091 129.714116 
" style="fill:none;stroke:#0000ff;stroke-width:1.5;"/>
    <path clip-path="url(#pb6089f6f09)" d="M 216.465455 160.839241 
L 216.465455 133.931932 
" style="fill:none;stroke:#0000ff;stroke-width:1.5;"/>
    <path clip-path="url(#pb6089f6f09)" d="M 220.101818 170.362033 
L 220.101818 144.05946 
" style="fill:none;stroke:#0000ff;stroke-width:1.5;"/>
    <path clip-path="url(#pb6089f6f09)" d="M 223.738182 153.69276 
L 223.738182 126.340673 
" style="fill:none;stroke:#0000ff;stroke-width:1.5;"/>
    <path clip-path="url(#pb6089f6f09)" d="M 227.374545 155.678258 
L 227.374545 128.448991 
" style="fill:none;stroke:#0000ff;stroke-width:1.5;"/>
    <path clip-path="url(#pb6089f6f09)" d="M 231.010909 133.027957 
L 231.010909 104.429783 
" style="fill:none;stroke:#0000ff;stroke-width:1.5;"/>
    <path clip-path="url(#pb6089f6f09)" d="M 234.647273 127.857559 
L 234.647273 98.956257 
" style="fill:none;stroke:#0000ff;stroke-width:1.5;"/>
    <path clip-path="url(#pb6089f6f09)" d="M 238.283636 151.706988 
L 238.283636 124.232628 
" style="fill:none;stroke:#0000ff;stroke-width:1.5;"/>
    <path clip-path="url(#pb6089f6f09)" d="M 241.92 148.131917 
L 241.92 120.438829 
" style="fill:none;stroke:#0000ff;stroke-width:1.5;"/>
    <path clip-path="url(#pb6089f6f09)" d="M 245.556364 125.868523 
L 245.556364 96.851477 
" style="fill:none;stroke:#0000ff;stroke-width:1.5;"/>
    <path clip-path="url(#pb6089f6f09)" d="M 249.192727 127.061972 
L 249.192727 98.114317 
" style="fill:none;stroke:#0000ff;stroke-width:1.5;"/>
    <path clip-path="url(#pb6089f6f09)" d="M 252.829091 137.401642 
L 252.829091 109.062494 
" style="fill:none;stroke:#0000ff;stroke-width:1.5;"/>
    <path clip-path="url(#pb6089f6f09)" d="M 256.465455 127.45977 
L 256.465455 98.535283 
" style="fill:none;stroke:#0000ff;stroke-width:1.5;"/>
    <path clip-path="url(#pb6089f6f09)" d="M 260.101818 130.244095 
L 260.101818 101.482302 
" style="fill:none;stroke:#0000ff;stroke-width:1.5;"/>
    <path clip-path="url(#pb6089f6f09)" d="M 263.738182 129.448621 
L 263.738182 100.640249 
" style="fill:none;stroke:#0000ff;stroke-width:1.5;"/>
    <path clip-path="url(#pb6089f6f09)" d="M 267.374545 140.184277 
L 267.374545 112.011203 
" style="fill:none;stroke:#0000ff;stroke-width:1.5;"/>
    <path clip-path="url(#pb6089f6f09)" d="M 271.010909 135.016142 
L 271.010909 106.535415 
" style="fill:none;stroke:#0000ff;stroke-width:1.5;"/>
    <path clip-path="url(#pb6089f6f09)" d="M 274.647273 134.618524 
L 274.647273 106.114269 
" style="fill:none;stroke:#0000ff;stroke-width:1.5;"/>
    <path clip-path="url(#pb6089f6f09)" d="M 278.283636 138.991779 
L 278.283636 110.747411 
" style="fill:none;stroke:#0000ff;stroke-width:1.5;"/>
    <path clip-path="url(#pb6089f6f09)" d="M 281.92 134.618524 
L 281.92 106.114269 
" style="fill:none;stroke:#0000ff;stroke-width:1.5;"/>
    <path clip-path="url(#pb6089f6f09)" d="M 285.556364 127.061972 
L 285.556364 98.114317 
" style="fill:none;stroke:#0000ff;stroke-width:1.5;"/>
    <path clip-path="url(#pb6089f6f09)" d="M 289.192727 131.83493 
L 289.192727 103.16652 
" style="fill:none;stroke:#0000ff;stroke-width:1.5;"/>
    <path clip-path="url(#pb6089f6f09)" d="M 292.829091 155.281181 
L 292.829091 128.027306 
" style="fill:none;stroke:#0000ff;stroke-width:1.5;"/>
    <path clip-path="url(#pb6089f6f09)" d="M 296.465455 159.25145 
L 296.465455 132.244669 
" style="fill:none;stroke:#0000ff;stroke-width:1.5;"/>
    <path clip-path="url(#pb6089f6f09)" d="M 300.101818 153.295628 
L 300.101818 125.919042 
" style="fill:none;stroke:#0000ff;stroke-width:1.5;"/>
    <path clip-path="url(#pb6089f6f09)" d="M 303.738182 156.869423 
L 303.738182 129.714116 
" style="fill:none;stroke:#0000ff;stroke-width:1.5;"/>
    <path clip-path="url(#pb6089f6f09)" d="M 307.374545 171.155284 
L 307.374545 144.903735 
" style="fill:none;stroke:#0000ff;stroke-width:1.5;"/>
    <path clip-path="url(#pb6089f6f09)" d="M 311.010909 161.633067 
L 311.010909 134.775633 
" style="fill:none;stroke:#0000ff;stroke-width:1.5;"/>
    <path clip-path="url(#pb6089f6f09)" d="M 314.647273 173.138195 
L 314.647273 147.014641 
" style="fill:none;stroke:#0000ff;stroke-width:1.5;"/>
    <path clip-path="url(#pb6089f6f09)" d="M 318.283636 173.931272 
L 318.283636 147.859091 
" style="fill:none;stroke:#0000ff;stroke-width:1.5;"/>
    <path clip-path="url(#pb6089f6f09)" d="M 321.92 184.236537 
L 321.92 158.841672 
" style="fill:none;stroke:#0000ff;stroke-width:1.5;"/>
    <path clip-path="url(#pb6089f6f09)" d="M 325.556364 187.009477 
L 325.556364 161.800075 
" style="fill:none;stroke:#0000ff;stroke-width:1.5;"/>
    <path clip-path="url(#pb6089f6f09)" d="M 329.192727 201.259107 
L 329.192727 177.025925 
" style="fill:none;stroke:#0000ff;stroke-width:1.5;"/>
    <path clip-path="url(#pb6089f6f09)" d="M 332.829091 214.303317 
L 332.829091 191.000904 
" style="fill:none;stroke:#0000ff;stroke-width:1.5;"/>
    <path clip-path="url(#pb6089f6f09)" d="M 336.465455 212.328109 
L 336.465455 188.882296 
" style="fill:none;stroke:#0000ff;stroke-width:1.5;"/>
    <path clip-path="url(#pb6089f6f09)" d="M 340.101818 211.142775 
L 340.101818 187.61134 
" style="fill:none;stroke:#0000ff;stroke-width:1.5;"/>
    <path clip-path="url(#pb6089f6f09)" d="M 343.738182 211.142775 
L 343.738182 187.61134 
" style="fill:none;stroke:#0000ff;stroke-width:1.5;"/>
    <path clip-path="url(#pb6089f6f09)" d="M 347.374545 212.723186 
L 347.374545 189.305982 
" style="fill:none;stroke:#0000ff;stroke-width:1.5;"/>
    <path clip-path="url(#pb6089f6f09)" d="M 351.010909 235.211462 
L 351.010909 213.487216 
" style="fill:none;stroke:#0000ff;stroke-width:1.5;"/>
    <path clip-path="url(#pb6089f6f09)" d="M 354.647273 235.605404 
L 354.647273 213.912038 
" style="fill:none;stroke:#0000ff;stroke-width:1.5;"/>
    <path clip-path="url(#pb6089f6f09)" d="M 358.283636 250.55795 
L 358.283636 230.072498 
" style="fill:none;stroke:#0000ff;stroke-width:1.5;"/>
    <path clip-path="url(#pb6089f6f09)" d="M 361.92 259.590218 
L 361.92 239.871786 
" style="fill:none;stroke:#0000ff;stroke-width:1.5;"/>
    <path clip-path="url(#pb6089f6f09)" d="M 365.556364 249.378774 
L 365.556364 228.795383 
" style="fill:none;stroke:#0000ff;stroke-width:1.5;"/>
    <path clip-path="url(#pb6089f6f09)" d="M 369.192727 264.296659 
L 369.192727 244.990505 
" style="fill:none;stroke:#0000ff;stroke-width:1.5;"/>
    <path clip-path="url(#pb6089f6f09)" d="M 372.829091 272.130579 
L 372.829091 253.531852 
" style="fill:none;stroke:#0000ff;stroke-width:1.5;"/>
    <path clip-path="url(#pb6089f6f09)" d="M 376.465455 270.173349 
L 376.465455 251.395266 
" style="fill:none;stroke:#0000ff;stroke-width:1.5;"/>
    <path clip-path="url(#pb6089f6f09)" d="M 380.101818 282.683846 
L 380.101818 265.085195 
" style="fill:none;stroke:#0000ff;stroke-width:1.5;"/>
    <path clip-path="url(#pb6089f6f09)" d="M 383.738182 281.903092 
L 383.738182 264.228421 
" style="fill:none;stroke:#0000ff;stroke-width:1.5;"/>
    <path clip-path="url(#pb6089f6f09)" d="M 387.374545 300.202563 
L 387.374545 284.410828 
" style="fill:none;stroke:#0000ff;stroke-width:1.5;"/>
    <path clip-path="url(#pb6089f6f09)" d="M 391.010909 295.540707 
L 391.010909 279.247523 
" style="fill:none;stroke:#0000ff;stroke-width:1.5;"/>
    <path clip-path="url(#pb6089f6f09)" d="M 394.647273 306.405427 
L 394.647273 291.308177 
" style="fill:none;stroke:#0000ff;stroke-width:1.5;"/>
    <path clip-path="url(#pb6089f6f09)" d="M 398.283636 306.792574 
L 398.283636 291.739793 
" style="fill:none;stroke:#0000ff;stroke-width:1.5;"/>
    <path clip-path="url(#pb6089f6f09)" d="M 401.92 301.366772 
L 401.92 285.702908 
" style="fill:none;stroke:#0000ff;stroke-width:1.5;"/>
   </g>
   <g id="line2d_22">
    <path clip-path="url(#pb6089f6f09)" d="M 81.92 305.124764 
L 86.404484 302.592471 
L 90.888969 299.815116 
L 95.373453 296.780874 
L 99.857938 293.47906 
L 104.342422 289.900413 
L 108.826907 286.037385 
L 113.311391 281.884439 
L 117.795876 277.438343 
L 122.600681 272.348699 
L 127.405485 266.924733 
L 132.21029 261.17348 
L 137.335415 254.691115 
L 142.780861 247.432366 
L 148.546627 239.364661 
L 154.953033 229.9976 
L 162.3204 218.804283 
L 172.25033 203.262384 
L 188.586667 177.662792 
L 195.313393 167.556325 
L 201.079159 159.288648 
L 206.204284 152.338483 
L 210.688769 146.62644 
L 214.852933 141.675495 
L 218.696777 137.440053 
L 222.2203 133.863963 
L 225.743824 130.601344 
L 228.947027 127.922744 
L 232.15023 125.530846 
L 235.033113 123.632621 
L 237.915996 121.983089 
L 240.798879 120.588638 
L 243.681762 119.454698 
L 246.244324 118.669056 
L 248.806887 118.095201 
L 251.369449 117.734913 
L 253.932012 117.589313 
L 256.494575 117.658855 
L 259.057137 117.943322 
L 261.6197 118.441828 
L 264.182262 119.152826 
L 266.744825 120.074109 
L 269.627708 121.358338 
L 272.510591 122.900077 
L 275.393473 124.693342 
L 278.276356 126.731211 
L 281.47956 129.272857 
L 284.682763 132.094877 
L 288.206286 135.50723 
L 291.72981 139.223941 
L 295.573654 143.601637 
L 299.737818 148.692758 
L 304.222302 154.538741 
L 309.027107 161.165819 
L 314.472553 169.054388 
L 320.878959 178.72956 
L 329.847928 192.72237 
L 349.067147 222.824376 
L 356.434515 233.871275 
L 362.840921 243.072989 
L 368.606687 250.967316 
L 374.052132 258.045437 
L 379.177257 264.346438 
L 383.982062 269.920537 
L 388.786867 275.162983 
L 393.591672 280.069041 
L 398.076156 284.343789 
L 401.92 287.775649 
L 401.92 287.775649 
" style="fill:none;stroke:#ff0000;stroke-linecap:square;stroke-width:1.5;"/>
   </g>
   <g id="line2d_23">
    <g clip-path="url(#pb6089f6f09)">
     <use style="fill:#0000ff;stroke:#0000ff;" x="81.92" xlink:href="#mcc63f9a6db" y="300.084947"/>
     <use style="fill:#0000ff;stroke:#0000ff;" x="85.556364" xlink:href="#mcc63f9a6db" y="299.266183"/>
     <use style="fill:#0000ff;stroke:#0000ff;" x="89.192727" xlink:href="#mcc63f9a6db" y="303.36"/>
     <use style="fill:#0000ff;stroke:#0000ff;" x="96.465455" xlink:href="#mcc63f9a6db" y="286.984733"/>
     <use style="fill:#0000ff;stroke:#0000ff;" x="100.101818" xlink:href="#mcc63f9a6db" y="289.850405"/>
     <use style="fill:#0000ff;stroke:#0000ff;" x="103.738182" xlink:href="#mcc63f9a6db" y="282.072154"/>
     <use style="fill:#0000ff;stroke:#0000ff;" x="107.374545" xlink:href="#mcc63f9a6db" y="281.662772"/>
     <use style="fill:#0000ff;stroke:#0000ff;" x="111.010909" xlink:href="#mcc63f9a6db" y="279.206482"/>
     <use style="fill:#0000ff;stroke:#0000ff;" x="114.647273" xlink:href="#mcc63f9a6db" y="264.878124"/>
     <use style="fill:#0000ff;stroke:#0000ff;" x="118.283636" xlink:href="#mcc63f9a6db" y="269.381322"/>
     <use style="fill:#0000ff;stroke:#0000ff;" x="121.92" xlink:href="#mcc63f9a6db" y="267.743795"/>
     <use style="fill:#0000ff;stroke:#0000ff;" x="125.556364" xlink:href="#mcc63f9a6db" y="266.106269"/>
     <use style="fill:#0000ff;stroke:#0000ff;" x="129.192727" xlink:href="#mcc63f9a6db" y="259.965544"/>
     <use style="fill:#0000ff;stroke:#0000ff;" x="132.829091" xlink:href="#mcc63f9a6db" y="256.281109"/>
     <use style="fill:#0000ff;stroke:#0000ff;" x="136.465455" xlink:href="#mcc63f9a6db" y="252.596674"/>
     <use style="fill:#0000ff;stroke:#0000ff;" x="140.101818" xlink:href="#mcc63f9a6db" y="249.32162"/>
     <use style="fill:#0000ff;stroke:#0000ff;" x="143.738182" xlink:href="#mcc63f9a6db" y="250.959147"/>
     <use style="fill:#0000ff;stroke:#0000ff;" x="147.374545" xlink:href="#mcc63f9a6db" y="242.362132"/>
     <use style="fill:#0000ff;stroke:#0000ff;" x="151.010909" xlink:href="#mcc63f9a6db" y="227.624392"/>
     <use style="fill:#0000ff;stroke:#0000ff;" x="154.647273" xlink:href="#mcc63f9a6db" y="226.805629"/>
     <use style="fill:#0000ff;stroke:#0000ff;" x="158.283636" xlink:href="#mcc63f9a6db" y="218.208614"/>
     <use style="fill:#0000ff;stroke:#0000ff;" x="161.92" xlink:href="#mcc63f9a6db" y="225.168102"/>
     <use style="fill:#0000ff;stroke:#0000ff;" x="165.556364" xlink:href="#mcc63f9a6db" y="203.061493"/>
     <use style="fill:#0000ff;stroke:#0000ff;" x="169.192727" xlink:href="#mcc63f9a6db" y="207.974072"/>
     <use style="fill:#0000ff;stroke:#0000ff;" x="172.829091" xlink:href="#mcc63f9a6db" y="208.383454"/>
     <use style="fill:#0000ff;stroke:#0000ff;" x="176.465455" xlink:href="#mcc63f9a6db" y="206.745928"/>
     <use style="fill:#0000ff;stroke:#0000ff;" x="180.101818" xlink:href="#mcc63f9a6db" y="199.377058"/>
     <use style="fill:#0000ff;stroke:#0000ff;" x="183.738182" xlink:href="#mcc63f9a6db" y="174.814158"/>
     <use style="fill:#0000ff;stroke:#0000ff;" x="187.374545" xlink:href="#mcc63f9a6db" y="187.914371"/>
     <use style="fill:#0000ff;stroke:#0000ff;" x="191.010909" xlink:href="#mcc63f9a6db" y="183.411173"/>
     <use style="fill:#0000ff;stroke:#0000ff;" x="194.647273" xlink:href="#mcc63f9a6db" y="185.458081"/>
     <use style="fill:#0000ff;stroke:#0000ff;" x="198.283636" xlink:href="#mcc63f9a6db" y="178.498593"/>
     <use style="fill:#0000ff;stroke:#0000ff;" x="201.92" xlink:href="#mcc63f9a6db" y="155.982601"/>
     <use style="fill:#0000ff;stroke:#0000ff;" x="205.556364" xlink:href="#mcc63f9a6db" y="170.310959"/>
     <use style="fill:#0000ff;stroke:#0000ff;" x="209.192727" xlink:href="#mcc63f9a6db" y="162.532708"/>
     <use style="fill:#0000ff;stroke:#0000ff;" x="212.829091" xlink:href="#mcc63f9a6db" y="143.29177"/>
     <use style="fill:#0000ff;stroke:#0000ff;" x="216.465455" xlink:href="#mcc63f9a6db" y="147.385586"/>
     <use style="fill:#0000ff;stroke:#0000ff;" x="220.101818" xlink:href="#mcc63f9a6db" y="157.210746"/>
     <use style="fill:#0000ff;stroke:#0000ff;" x="223.738182" xlink:href="#mcc63f9a6db" y="140.016716"/>
     <use style="fill:#0000ff;stroke:#0000ff;" x="227.374545" xlink:href="#mcc63f9a6db" y="142.063625"/>
     <use style="fill:#0000ff;stroke:#0000ff;" x="231.010909" xlink:href="#mcc63f9a6db" y="118.72887"/>
     <use style="fill:#0000ff;stroke:#0000ff;" x="234.647273" xlink:href="#mcc63f9a6db" y="113.406908"/>
     <use style="fill:#0000ff;stroke:#0000ff;" x="238.283636" xlink:href="#mcc63f9a6db" y="137.969808"/>
     <use style="fill:#0000ff;stroke:#0000ff;" x="241.92" xlink:href="#mcc63f9a6db" y="134.285373"/>
     <use style="fill:#0000ff;stroke:#0000ff;" x="245.556364" xlink:href="#mcc63f9a6db" y="111.36"/>
     <use style="fill:#0000ff;stroke:#0000ff;" x="249.192727" xlink:href="#mcc63f9a6db" y="112.588145"/>
     <use style="fill:#0000ff;stroke:#0000ff;" x="252.829091" xlink:href="#mcc63f9a6db" y="123.232068"/>
     <use style="fill:#0000ff;stroke:#0000ff;" x="256.465455" xlink:href="#mcc63f9a6db" y="112.997527"/>
     <use style="fill:#0000ff;stroke:#0000ff;" x="260.101818" xlink:href="#mcc63f9a6db" y="115.863198"/>
     <use style="fill:#0000ff;stroke:#0000ff;" x="263.738182" xlink:href="#mcc63f9a6db" y="115.044435"/>
     <use style="fill:#0000ff;stroke:#0000ff;" x="267.374545" xlink:href="#mcc63f9a6db" y="126.09774"/>
     <use style="fill:#0000ff;stroke:#0000ff;" x="271.010909" xlink:href="#mcc63f9a6db" y="120.775778"/>
     <use style="fill:#0000ff;stroke:#0000ff;" x="274.647273" xlink:href="#mcc63f9a6db" y="120.366397"/>
     <use style="fill:#0000ff;stroke:#0000ff;" x="278.283636" xlink:href="#mcc63f9a6db" y="124.869595"/>
     <use style="fill:#0000ff;stroke:#0000ff;" x="281.92" xlink:href="#mcc63f9a6db" y="120.366397"/>
     <use style="fill:#0000ff;stroke:#0000ff;" x="285.556364" xlink:href="#mcc63f9a6db" y="112.588145"/>
     <use style="fill:#0000ff;stroke:#0000ff;" x="289.192727" xlink:href="#mcc63f9a6db" y="117.500725"/>
     <use style="fill:#0000ff;stroke:#0000ff;" x="292.829091" xlink:href="#mcc63f9a6db" y="141.654243"/>
     <use style="fill:#0000ff;stroke:#0000ff;" x="296.465455" xlink:href="#mcc63f9a6db" y="145.74806"/>
     <use style="fill:#0000ff;stroke:#0000ff;" x="300.101818" xlink:href="#mcc63f9a6db" y="139.607335"/>
     <use style="fill:#0000ff;stroke:#0000ff;" x="303.738182" xlink:href="#mcc63f9a6db" y="143.29177"/>
     <use style="fill:#0000ff;stroke:#0000ff;" x="307.374545" xlink:href="#mcc63f9a6db" y="158.02951"/>
     <use style="fill:#0000ff;stroke:#0000ff;" x="311.010909" xlink:href="#mcc63f9a6db" y="148.20435"/>
     <use style="fill:#0000ff;stroke:#0000ff;" x="314.647273" xlink:href="#mcc63f9a6db" y="160.076418"/>
     <use style="fill:#0000ff;stroke:#0000ff;" x="318.283636" xlink:href="#mcc63f9a6db" y="160.895181"/>
     <use style="fill:#0000ff;stroke:#0000ff;" x="321.92" xlink:href="#mcc63f9a6db" y="171.539104"/>
     <use style="fill:#0000ff;stroke:#0000ff;" x="325.556364" xlink:href="#mcc63f9a6db" y="174.404776"/>
     <use style="fill:#0000ff;stroke:#0000ff;" x="329.192727" xlink:href="#mcc63f9a6db" y="189.142516"/>
     <use style="fill:#0000ff;stroke:#0000ff;" x="332.829091" xlink:href="#mcc63f9a6db" y="202.652111"/>
     <use style="fill:#0000ff;stroke:#0000ff;" x="336.465455" xlink:href="#mcc63f9a6db" y="200.605203"/>
     <use style="fill:#0000ff;stroke:#0000ff;" x="340.101818" xlink:href="#mcc63f9a6db" y="199.377058"/>
     <use style="fill:#0000ff;stroke:#0000ff;" x="343.738182" xlink:href="#mcc63f9a6db" y="199.377058"/>
     <use style="fill:#0000ff;stroke:#0000ff;" x="347.374545" xlink:href="#mcc63f9a6db" y="201.014584"/>
     <use style="fill:#0000ff;stroke:#0000ff;" x="351.010909" xlink:href="#mcc63f9a6db" y="224.349339"/>
     <use style="fill:#0000ff;stroke:#0000ff;" x="354.647273" xlink:href="#mcc63f9a6db" y="224.758721"/>
     <use style="fill:#0000ff;stroke:#0000ff;" x="358.283636" xlink:href="#mcc63f9a6db" y="240.315224"/>
     <use style="fill:#0000ff;stroke:#0000ff;" x="361.92" xlink:href="#mcc63f9a6db" y="249.731002"/>
     <use style="fill:#0000ff;stroke:#0000ff;" x="365.556364" xlink:href="#mcc63f9a6db" y="239.087079"/>
     <use style="fill:#0000ff;stroke:#0000ff;" x="369.192727" xlink:href="#mcc63f9a6db" y="254.643582"/>
     <use style="fill:#0000ff;stroke:#0000ff;" x="372.829091" xlink:href="#mcc63f9a6db" y="262.831215"/>
     <use style="fill:#0000ff;stroke:#0000ff;" x="376.465455" xlink:href="#mcc63f9a6db" y="260.784307"/>
     <use style="fill:#0000ff;stroke:#0000ff;" x="380.101818" xlink:href="#mcc63f9a6db" y="273.88452"/>
     <use style="fill:#0000ff;stroke:#0000ff;" x="383.738182" xlink:href="#mcc63f9a6db" y="273.065757"/>
     <use style="fill:#0000ff;stroke:#0000ff;" x="387.374545" xlink:href="#mcc63f9a6db" y="292.306695"/>
     <use style="fill:#0000ff;stroke:#0000ff;" x="391.010909" xlink:href="#mcc63f9a6db" y="287.394115"/>
     <use style="fill:#0000ff;stroke:#0000ff;" x="394.647273" xlink:href="#mcc63f9a6db" y="298.856802"/>
     <use style="fill:#0000ff;stroke:#0000ff;" x="398.283636" xlink:href="#mcc63f9a6db" y="299.266183"/>
     <use style="fill:#0000ff;stroke:#0000ff;" x="401.92" xlink:href="#mcc63f9a6db" y="293.53484"/>
    </g>
   </g>
   <g id="patch_8">
    <path d="M 69.12 311.04 
L 69.12 103.68 
" style="fill:none;stroke:#000000;stroke-linecap:square;stroke-linejoin:miter;stroke-width:0.8;"/>
   </g>
   <g id="patch_9">
    <path d="M 414.72 311.04 
L 414.72 103.68 
" style="fill:none;stroke:#000000;stroke-linecap:square;stroke-linejoin:miter;stroke-width:0.8;"/>
   </g>
   <g id="patch_10">
    <path d="M 69.12 311.04 
L 414.72 311.04 
" style="fill:none;stroke:#000000;stroke-linecap:square;stroke-linejoin:miter;stroke-width:0.8;"/>
   </g>
   <g id="patch_11">
    <path d="M 69.12 103.68 
L 414.72 103.68 
" style="fill:none;stroke:#000000;stroke-linecap:square;stroke-linejoin:miter;stroke-width:0.8;"/>
   </g>
  </g>
 </g>
 <defs>
  <clipPath id="p5a75f84bfb">
   <rect height="51.84" width="345.6" x="69.12" y="44.928"/>
  </clipPath>
  <clipPath id="pb6089f6f09">
   <rect height="207.36" width="345.6" x="69.12" y="103.68"/>
  </clipPath>
 </defs>
</svg>
