<?xml version="1.0" encoding="utf-8" standalone="no"?>
<!DOCTYPE svg PUBLIC "-//W3C//DTD SVG 1.1//EN"
  "http://www.w3.org/Graphics/SVG/1.1/DTD/svg11.dtd">
<!-- Created with matplotlib (http://matplotlib.org/) -->
<svg height="345pt" version="1.1" viewBox="0 0 460 345" width="460pt" xmlns="http://www.w3.org/2000/svg" xmlns:xlink="http://www.w3.org/1999/xlink">
 <defs>
  <style type="text/css">
*{stroke-linecap:butt;stroke-linejoin:round;}
  </style>
 </defs>
 <g id="figure_1">
  <g id="patch_1">
   <path d="M 0 345.6 
L 460.8 345.6 
L 460.8 0 
L 0 0 
z
" style="fill:#ffffff;"/>
  </g>
  <g id="axes_1">
   <g id="patch_2">
    <path d="M 69.12 96.768 
L 414.72 96.768 
L 414.72 44.928 
L 69.12 44.928 
z
" style="fill:#ffffff;"/>
   </g>
   <g id="matplotlib.axis_1">
    <g id="xtick_1">
     <g id="line2d_1">
      <defs>
       <path d="M 0 0 
L 0 3.5 
" id="mb0506e0acf" style="stroke:#000000;stroke-width:0.8;"/>
      </defs>
      <g>
       <use style="stroke:#000000;stroke-width:0.8;" x="71.624635" xlink:href="#mb0506e0acf" y="96.768"/>
      </g>
     </g>
    </g>
    <g id="xtick_2">
     <g id="line2d_2">
      <g>
       <use style="stroke:#000000;stroke-width:0.8;" x="132.752433" xlink:href="#mb0506e0acf" y="96.768"/>
      </g>
     </g>
    </g>
    <g id="xtick_3">
     <g id="line2d_3">
      <g>
       <use style="stroke:#000000;stroke-width:0.8;" x="193.88023" xlink:href="#mb0506e0acf" y="96.768"/>
      </g>
     </g>
    </g>
    <g id="xtick_4">
     <g id="line2d_4">
      <g>
       <use style="stroke:#000000;stroke-width:0.8;" x="255.008028" xlink:href="#mb0506e0acf" y="96.768"/>
      </g>
     </g>
    </g>
    <g id="xtick_5">
     <g id="line2d_5">
      <g>
       <use style="stroke:#000000;stroke-width:0.8;" x="316.135825" xlink:href="#mb0506e0acf" y="96.768"/>
      </g>
     </g>
    </g>
    <g id="xtick_6">
     <g id="line2d_6">
      <g>
       <use style="stroke:#000000;stroke-width:0.8;" x="377.263623" xlink:href="#mb0506e0acf" y="96.768"/>
      </g>
     </g>
    </g>
   </g>
   <g id="matplotlib.axis_2">
    <g id="ytick_1">
     <g id="line2d_7">
      <defs>
       <path d="M 0 0 
L -3.5 0 
" id="mda67ae5a04" style="stroke:#000000;stroke-width:0.8;"/>
      </defs>
      <g>
       <use style="stroke:#000000;stroke-width:0.8;" x="69.12" xlink:href="#mda67ae5a04" y="84.473316"/>
      </g>
     </g>
     <g id="text_1">
      <!-- −1 -->
      <defs>
       <path d="M 10.59375 35.5 
L 73.1875 35.5 
L 73.1875 27.203125 
L 10.59375 27.203125 
z
" id="DejaVuSans-2212"/>
       <path d="M 12.40625 8.296875 
L 28.515625 8.296875 
L 28.515625 63.921875 
L 10.984375 60.40625 
L 10.984375 69.390625 
L 28.421875 72.90625 
L 38.28125 72.90625 
L 38.28125 8.296875 
L 54.390625 8.296875 
L 54.390625 0 
L 12.40625 0 
z
" id="DejaVuSans-31"/>
      </defs>
      <g transform="translate(40.006719 90.172144)scale(0.15 -0.15)">
       <use xlink:href="#DejaVuSans-2212"/>
       <use x="83.789062" xlink:href="#DejaVuSans-31"/>
      </g>
     </g>
    </g>
    <g id="ytick_2">
     <g id="line2d_8">
      <g>
       <use style="stroke:#000000;stroke-width:0.8;" x="69.12" xlink:href="#mda67ae5a04" y="71.26673"/>
      </g>
     </g>
    </g>
    <g id="ytick_3">
     <g id="line2d_9">
      <g>
       <use style="stroke:#000000;stroke-width:0.8;" x="69.12" xlink:href="#mda67ae5a04" y="58.060144"/>
      </g>
     </g>
     <g id="text_2">
      <!-- 1 -->
      <g transform="translate(52.57625 63.758972)scale(0.15 -0.15)">
       <use xlink:href="#DejaVuSans-31"/>
      </g>
     </g>
    </g>
    <g id="ytick_4">
     <g id="line2d_10">
      <g>
       <use style="stroke:#000000;stroke-width:0.8;" x="69.12" xlink:href="#mda67ae5a04" y="44.853558"/>
      </g>
     </g>
     <g id="text_3">
      <!-- 2 -->
      <defs>
       <path d="M 19.1875 8.296875 
L 53.609375 8.296875 
L 53.609375 0 
L 7.328125 0 
L 7.328125 8.296875 
Q 12.9375 14.109375 22.625 23.890625 
Q 32.328125 33.6875 34.8125 36.53125 
Q 39.546875 41.84375 41.421875 45.53125 
Q 43.3125 49.21875 43.3125 52.78125 
Q 43.3125 58.59375 39.234375 62.25 
Q 35.15625 65.921875 28.609375 65.921875 
Q 23.96875 65.921875 18.8125 64.3125 
Q 13.671875 62.703125 7.8125 59.421875 
L 7.8125 69.390625 
Q 13.765625 71.78125 18.9375 73 
Q 24.125 74.21875 28.421875 74.21875 
Q 39.75 74.21875 46.484375 68.546875 
Q 53.21875 62.890625 53.21875 53.421875 
Q 53.21875 48.921875 51.53125 44.890625 
Q 49.859375 40.875 45.40625 35.40625 
Q 44.1875 33.984375 37.640625 27.21875 
Q 31.109375 20.453125 19.1875 8.296875 
z
" id="DejaVuSans-32"/>
      </defs>
      <g transform="translate(52.57625 50.552387)scale(0.15 -0.15)">
       <use xlink:href="#DejaVuSans-32"/>
      </g>
     </g>
    </g>
    <g id="text_4">
     <!-- Studentized -->
     <defs>
      <path d="M 53.515625 70.515625 
L 53.515625 60.890625 
Q 47.90625 63.578125 42.921875 64.890625 
Q 37.9375 66.21875 33.296875 66.21875 
Q 25.25 66.21875 20.875 63.09375 
Q 16.5 59.96875 16.5 54.203125 
Q 16.5 49.359375 19.40625 46.890625 
Q 22.3125 44.4375 30.421875 42.921875 
L 36.375 41.703125 
Q 47.40625 39.59375 52.65625 34.296875 
Q 57.90625 29 57.90625 20.125 
Q 57.90625 9.515625 50.796875 4.046875 
Q 43.703125 -1.421875 29.984375 -1.421875 
Q 24.8125 -1.421875 18.96875 -0.25 
Q 13.140625 0.921875 6.890625 3.21875 
L 6.890625 13.375 
Q 12.890625 10.015625 18.65625 8.296875 
Q 24.421875 6.59375 29.984375 6.59375 
Q 38.421875 6.59375 43.015625 9.90625 
Q 47.609375 13.234375 47.609375 19.390625 
Q 47.609375 24.75 44.3125 27.78125 
Q 41.015625 30.8125 33.5 32.328125 
L 27.484375 33.5 
Q 16.453125 35.6875 11.515625 40.375 
Q 6.59375 45.0625 6.59375 53.421875 
Q 6.59375 63.09375 13.40625 68.65625 
Q 20.21875 74.21875 32.171875 74.21875 
Q 37.3125 74.21875 42.625 73.28125 
Q 47.953125 72.359375 53.515625 70.515625 
z
" id="DejaVuSans-53"/>
      <path d="M 18.3125 70.21875 
L 18.3125 54.6875 
L 36.8125 54.6875 
L 36.8125 47.703125 
L 18.3125 47.703125 
L 18.3125 18.015625 
Q 18.3125 11.328125 20.140625 9.421875 
Q 21.96875 7.515625 27.59375 7.515625 
L 36.8125 7.515625 
L 36.8125 0 
L 27.59375 0 
Q 17.1875 0 13.234375 3.875 
Q 9.28125 7.765625 9.28125 18.015625 
L 9.28125 47.703125 
L 2.6875 47.703125 
L 2.6875 54.6875 
L 9.28125 54.6875 
L 9.28125 70.21875 
z
" id="DejaVuSans-74"/>
      <path d="M 8.5 21.578125 
L 8.5 54.6875 
L 17.484375 54.6875 
L 17.484375 21.921875 
Q 17.484375 14.15625 20.5 10.265625 
Q 23.53125 6.390625 29.59375 6.390625 
Q 36.859375 6.390625 41.078125 11.03125 
Q 45.3125 15.671875 45.3125 23.6875 
L 45.3125 54.6875 
L 54.296875 54.6875 
L 54.296875 0 
L 45.3125 0 
L 45.3125 8.40625 
Q 42.046875 3.421875 37.71875 1 
Q 33.40625 -1.421875 27.6875 -1.421875 
Q 18.265625 -1.421875 13.375 4.4375 
Q 8.5 10.296875 8.5 21.578125 
z
M 31.109375 56 
z
" id="DejaVuSans-75"/>
      <path d="M 45.40625 46.390625 
L 45.40625 75.984375 
L 54.390625 75.984375 
L 54.390625 0 
L 45.40625 0 
L 45.40625 8.203125 
Q 42.578125 3.328125 38.25 0.953125 
Q 33.9375 -1.421875 27.875 -1.421875 
Q 17.96875 -1.421875 11.734375 6.484375 
Q 5.515625 14.40625 5.515625 27.296875 
Q 5.515625 40.1875 11.734375 48.09375 
Q 17.96875 56 27.875 56 
Q 33.9375 56 38.25 53.625 
Q 42.578125 51.265625 45.40625 46.390625 
z
M 14.796875 27.296875 
Q 14.796875 17.390625 18.875 11.75 
Q 22.953125 6.109375 30.078125 6.109375 
Q 37.203125 6.109375 41.296875 11.75 
Q 45.40625 17.390625 45.40625 27.296875 
Q 45.40625 37.203125 41.296875 42.84375 
Q 37.203125 48.484375 30.078125 48.484375 
Q 22.953125 48.484375 18.875 42.84375 
Q 14.796875 37.203125 14.796875 27.296875 
z
" id="DejaVuSans-64"/>
      <path d="M 56.203125 29.59375 
L 56.203125 25.203125 
L 14.890625 25.203125 
Q 15.484375 15.921875 20.484375 11.0625 
Q 25.484375 6.203125 34.421875 6.203125 
Q 39.59375 6.203125 44.453125 7.46875 
Q 49.3125 8.734375 54.109375 11.28125 
L 54.109375 2.78125 
Q 49.265625 0.734375 44.1875 -0.34375 
Q 39.109375 -1.421875 33.890625 -1.421875 
Q 20.796875 -1.421875 13.15625 6.1875 
Q 5.515625 13.8125 5.515625 26.8125 
Q 5.515625 40.234375 12.765625 48.109375 
Q 20.015625 56 32.328125 56 
Q 43.359375 56 49.78125 48.890625 
Q 56.203125 41.796875 56.203125 29.59375 
z
M 47.21875 32.234375 
Q 47.125 39.59375 43.09375 43.984375 
Q 39.0625 48.390625 32.421875 48.390625 
Q 24.90625 48.390625 20.390625 44.140625 
Q 15.875 39.890625 15.1875 32.171875 
z
" id="DejaVuSans-65"/>
      <path d="M 54.890625 33.015625 
L 54.890625 0 
L 45.90625 0 
L 45.90625 32.71875 
Q 45.90625 40.484375 42.875 44.328125 
Q 39.84375 48.1875 33.796875 48.1875 
Q 26.515625 48.1875 22.3125 43.546875 
Q 18.109375 38.921875 18.109375 30.90625 
L 18.109375 0 
L 9.078125 0 
L 9.078125 54.6875 
L 18.109375 54.6875 
L 18.109375 46.1875 
Q 21.34375 51.125 25.703125 53.5625 
Q 30.078125 56 35.796875 56 
Q 45.21875 56 50.046875 50.171875 
Q 54.890625 44.34375 54.890625 33.015625 
z
" id="DejaVuSans-6e"/>
      <path d="M 9.421875 54.6875 
L 18.40625 54.6875 
L 18.40625 0 
L 9.421875 0 
z
M 9.421875 75.984375 
L 18.40625 75.984375 
L 18.40625 64.59375 
L 9.421875 64.59375 
z
" id="DejaVuSans-69"/>
      <path d="M 5.515625 54.6875 
L 48.1875 54.6875 
L 48.1875 46.484375 
L 14.40625 7.171875 
L 48.1875 7.171875 
L 48.1875 0 
L 4.296875 0 
L 4.296875 8.203125 
L 38.09375 47.515625 
L 5.515625 47.515625 
z
" id="DejaVuSans-7a"/>
     </defs>
     <g transform="translate(16.090469 115.768313)rotate(-90)scale(0.15 -0.15)">
      <use xlink:href="#DejaVuSans-53"/>
      <use x="63.476562" xlink:href="#DejaVuSans-74"/>
      <use x="102.685547" xlink:href="#DejaVuSans-75"/>
      <use x="166.064453" xlink:href="#DejaVuSans-64"/>
      <use x="229.541016" xlink:href="#DejaVuSans-65"/>
      <use x="291.064453" xlink:href="#DejaVuSans-6e"/>
      <use x="354.443359" xlink:href="#DejaVuSans-74"/>
      <use x="393.652344" xlink:href="#DejaVuSans-69"/>
      <use x="421.435547" xlink:href="#DejaVuSans-7a"/>
      <use x="473.925781" xlink:href="#DejaVuSans-65"/>
      <use x="535.449219" xlink:href="#DejaVuSans-64"/>
     </g>
     <!-- Residuals -->
     <defs>
      <path d="M 44.390625 34.1875 
Q 47.5625 33.109375 50.5625 29.59375 
Q 53.5625 26.078125 56.59375 19.921875 
L 66.609375 0 
L 56 0 
L 46.6875 18.703125 
Q 43.0625 26.03125 39.671875 28.421875 
Q 36.28125 30.8125 30.421875 30.8125 
L 19.671875 30.8125 
L 19.671875 0 
L 9.8125 0 
L 9.8125 72.90625 
L 32.078125 72.90625 
Q 44.578125 72.90625 50.734375 67.671875 
Q 56.890625 62.453125 56.890625 51.90625 
Q 56.890625 45.015625 53.6875 40.46875 
Q 50.484375 35.9375 44.390625 34.1875 
z
M 19.671875 64.796875 
L 19.671875 38.921875 
L 32.078125 38.921875 
Q 39.203125 38.921875 42.84375 42.21875 
Q 46.484375 45.515625 46.484375 51.90625 
Q 46.484375 58.296875 42.84375 61.546875 
Q 39.203125 64.796875 32.078125 64.796875 
z
" id="DejaVuSans-52"/>
      <path d="M 44.28125 53.078125 
L 44.28125 44.578125 
Q 40.484375 46.53125 36.375 47.5 
Q 32.28125 48.484375 27.875 48.484375 
Q 21.1875 48.484375 17.84375 46.4375 
Q 14.5 44.390625 14.5 40.28125 
Q 14.5 37.15625 16.890625 35.375 
Q 19.28125 33.59375 26.515625 31.984375 
L 29.59375 31.296875 
Q 39.15625 29.25 43.1875 25.515625 
Q 47.21875 21.78125 47.21875 15.09375 
Q 47.21875 7.46875 41.1875 3.015625 
Q 35.15625 -1.421875 24.609375 -1.421875 
Q 20.21875 -1.421875 15.453125 -0.5625 
Q 10.6875 0.296875 5.421875 2 
L 5.421875 11.28125 
Q 10.40625 8.6875 15.234375 7.390625 
Q 20.0625 6.109375 24.8125 6.109375 
Q 31.15625 6.109375 34.5625 8.28125 
Q 37.984375 10.453125 37.984375 14.40625 
Q 37.984375 18.0625 35.515625 20.015625 
Q 33.0625 21.96875 24.703125 23.78125 
L 21.578125 24.515625 
Q 13.234375 26.265625 9.515625 29.90625 
Q 5.8125 33.546875 5.8125 39.890625 
Q 5.8125 47.609375 11.28125 51.796875 
Q 16.75 56 26.8125 56 
Q 31.78125 56 36.171875 55.265625 
Q 40.578125 54.546875 44.28125 53.078125 
z
" id="DejaVuSans-73"/>
      <path d="M 34.28125 27.484375 
Q 23.390625 27.484375 19.1875 25 
Q 14.984375 22.515625 14.984375 16.5 
Q 14.984375 11.71875 18.140625 8.90625 
Q 21.296875 6.109375 26.703125 6.109375 
Q 34.1875 6.109375 38.703125 11.40625 
Q 43.21875 16.703125 43.21875 25.484375 
L 43.21875 27.484375 
z
M 52.203125 31.203125 
L 52.203125 0 
L 43.21875 0 
L 43.21875 8.296875 
Q 40.140625 3.328125 35.546875 0.953125 
Q 30.953125 -1.421875 24.3125 -1.421875 
Q 15.921875 -1.421875 10.953125 3.296875 
Q 6 8.015625 6 15.921875 
Q 6 25.140625 12.171875 29.828125 
Q 18.359375 34.515625 30.609375 34.515625 
L 43.21875 34.515625 
L 43.21875 35.40625 
Q 43.21875 41.609375 39.140625 45 
Q 35.0625 48.390625 27.6875 48.390625 
Q 23 48.390625 18.546875 47.265625 
Q 14.109375 46.140625 10.015625 43.890625 
L 10.015625 52.203125 
Q 14.9375 54.109375 19.578125 55.046875 
Q 24.21875 56 28.609375 56 
Q 40.484375 56 46.34375 49.84375 
Q 52.203125 43.703125 52.203125 31.203125 
z
" id="DejaVuSans-61"/>
      <path d="M 9.421875 75.984375 
L 18.40625 75.984375 
L 18.40625 0 
L 9.421875 0 
z
" id="DejaVuSans-6c"/>
     </defs>
     <g transform="translate(32.887188 106.761281)rotate(-90)scale(0.15 -0.15)">
      <use xlink:href="#DejaVuSans-52"/>
      <use x="69.419922" xlink:href="#DejaVuSans-65"/>
      <use x="130.943359" xlink:href="#DejaVuSans-73"/>
      <use x="183.042969" xlink:href="#DejaVuSans-69"/>
      <use x="210.826172" xlink:href="#DejaVuSans-64"/>
      <use x="274.302734" xlink:href="#DejaVuSans-75"/>
      <use x="337.681641" xlink:href="#DejaVuSans-61"/>
      <use x="398.960938" xlink:href="#DejaVuSans-6c"/>
      <use x="426.744141" xlink:href="#DejaVuSans-73"/>
     </g>
    </g>
   </g>
   <g id="LineCollection_1">
    <path clip-path="url(#p707b3acabc)" d="M 81.92 72.697751 
L 81.92 46.284579 
" style="fill:none;stroke:#0000ff;stroke-width:1.5;"/>
    <path clip-path="url(#p707b3acabc)" d="M 89.192727 79.895702 
L 89.192727 53.482531 
" style="fill:none;stroke:#0000ff;stroke-width:1.5;"/>
    <path clip-path="url(#p707b3acabc)" d="M 92.829091 84.98507 
L 92.829091 58.571898 
" style="fill:none;stroke:#0000ff;stroke-width:1.5;"/>
    <path clip-path="url(#p707b3acabc)" d="M 96.465455 77.083396 
L 96.465455 50.670224 
" style="fill:none;stroke:#0000ff;stroke-width:1.5;"/>
    <path clip-path="url(#p707b3acabc)" d="M 100.101818 77.821352 
L 100.101818 51.40818 
" style="fill:none;stroke:#0000ff;stroke-width:1.5;"/>
    <path clip-path="url(#p707b3acabc)" d="M 103.738182 68.224008 
L 103.738182 41.810837 
" style="fill:none;stroke:#0000ff;stroke-width:1.5;"/>
    <path clip-path="url(#p707b3acabc)" d="M 107.374545 66.054218 
L 107.374545 39.641046 
" style="fill:none;stroke:#0000ff;stroke-width:1.5;"/>
    <path clip-path="url(#p707b3acabc)" d="M 111.010909 78.439121 
L 111.010909 52.025949 
" style="fill:none;stroke:#0000ff;stroke-width:1.5;"/>
    <path clip-path="url(#p707b3acabc)" d="M 114.647273 89.156665 
L 114.647273 62.743493 
" style="fill:none;stroke:#0000ff;stroke-width:1.5;"/>
    <path clip-path="url(#p707b3acabc)" d="M 118.283636 60.054586 
L 118.283636 33.641414 
" style="fill:none;stroke:#0000ff;stroke-width:1.5;"/>
    <path clip-path="url(#p707b3acabc)" d="M 121.92 77.858112 
L 121.92 51.44494 
" style="fill:none;stroke:#0000ff;stroke-width:1.5;"/>
    <path clip-path="url(#p707b3acabc)" d="M 125.556364 75.725968 
L 125.556364 49.312797 
" style="fill:none;stroke:#0000ff;stroke-width:1.5;"/>
    <path clip-path="url(#p707b3acabc)" d="M 129.192727 84.123207 
L 129.192727 57.710036 
" style="fill:none;stroke:#0000ff;stroke-width:1.5;"/>
    <path clip-path="url(#p707b3acabc)" d="M 132.829091 87.529149 
L 132.829091 61.115977 
" style="fill:none;stroke:#0000ff;stroke-width:1.5;"/>
    <path clip-path="url(#p707b3acabc)" d="M 136.465455 89.347897 
L 136.465455 62.934726 
" style="fill:none;stroke:#0000ff;stroke-width:1.5;"/>
    <path clip-path="url(#p707b3acabc)" d="M 140.101818 78.615674 
L 140.101818 52.202502 
" style="fill:none;stroke:#0000ff;stroke-width:1.5;"/>
    <path clip-path="url(#p707b3acabc)" d="M 143.738182 92.311603 
L 143.738182 65.898431 
" style="fill:none;stroke:#0000ff;stroke-width:1.5;"/>
    <path clip-path="url(#p707b3acabc)" d="M 147.374545 87.407498 
L 147.374545 60.994326 
" style="fill:none;stroke:#0000ff;stroke-width:1.5;"/>
    <path clip-path="url(#p707b3acabc)" d="M 151.010909 64.491169 
L 151.010909 38.077997 
" style="fill:none;stroke:#0000ff;stroke-width:1.5;"/>
    <path clip-path="url(#p707b3acabc)" d="M 154.647273 82.453261 
L 154.647273 56.04009 
" style="fill:none;stroke:#0000ff;stroke-width:1.5;"/>
    <path clip-path="url(#p707b3acabc)" d="M 158.283636 85.531979 
L 158.283636 59.118807 
" style="fill:none;stroke:#0000ff;stroke-width:1.5;"/>
    <path clip-path="url(#p707b3acabc)" d="M 161.92 81.7537 
L 161.92 55.340529 
" style="fill:none;stroke:#0000ff;stroke-width:1.5;"/>
    <path clip-path="url(#p707b3acabc)" d="M 165.556364 86.813191 
L 165.556364 60.400019 
" style="fill:none;stroke:#0000ff;stroke-width:1.5;"/>
    <path clip-path="url(#p707b3acabc)" d="M 169.192727 88.461526 
L 169.192727 62.048354 
" style="fill:none;stroke:#0000ff;stroke-width:1.5;"/>
    <path clip-path="url(#p707b3acabc)" d="M 172.829091 106.601615 
L 172.829091 80.188443 
" style="fill:none;stroke:#0000ff;stroke-width:1.5;"/>
    <path clip-path="url(#p707b3acabc)" d="M 176.465455 101.901789 
L 176.465455 75.488617 
" style="fill:none;stroke:#0000ff;stroke-width:1.5;"/>
    <path clip-path="url(#p707b3acabc)" d="M 180.101818 77.355615 
L 180.101818 50.942443 
" style="fill:none;stroke:#0000ff;stroke-width:1.5;"/>
    <path clip-path="url(#p707b3acabc)" d="M 183.738182 79.316626 
L 183.738182 52.903455 
" style="fill:none;stroke:#0000ff;stroke-width:1.5;"/>
    <path clip-path="url(#p707b3acabc)" d="M 187.374545 86.376276 
L 187.374545 59.963105 
" style="fill:none;stroke:#0000ff;stroke-width:1.5;"/>
    <path clip-path="url(#p707b3acabc)" d="M 191.010909 74.478087 
L 191.010909 48.064916 
" style="fill:none;stroke:#0000ff;stroke-width:1.5;"/>
    <path clip-path="url(#p707b3acabc)" d="M 194.647273 85.22574 
L 194.647273 58.812569 
" style="fill:none;stroke:#0000ff;stroke-width:1.5;"/>
    <path clip-path="url(#p707b3acabc)" d="M 198.283636 95.217948 
L 198.283636 68.804776 
" style="fill:none;stroke:#0000ff;stroke-width:1.5;"/>
    <path clip-path="url(#p707b3acabc)" d="M 201.92 87.262806 
L 201.92 60.849634 
" style="fill:none;stroke:#0000ff;stroke-width:1.5;"/>
    <path clip-path="url(#p707b3acabc)" d="M 205.556364 93.233194 
L 205.556364 66.820023 
" style="fill:none;stroke:#0000ff;stroke-width:1.5;"/>
    <path clip-path="url(#p707b3acabc)" d="M 209.192727 101.629013 
L 209.192727 75.215842 
" style="fill:none;stroke:#0000ff;stroke-width:1.5;"/>
    <path clip-path="url(#p707b3acabc)" d="M 212.829091 106.322798 
L 212.829091 79.909626 
" style="fill:none;stroke:#0000ff;stroke-width:1.5;"/>
    <path clip-path="url(#p707b3acabc)" d="M 216.465455 70.939861 
L 216.465455 44.526689 
" style="fill:none;stroke:#0000ff;stroke-width:1.5;"/>
    <path clip-path="url(#p707b3acabc)" d="M 220.101818 102.90254 
L 220.101818 76.489369 
" style="fill:none;stroke:#0000ff;stroke-width:1.5;"/>
    <path clip-path="url(#p707b3acabc)" d="M 223.738182 101.854166 
L 223.738182 75.440994 
" style="fill:none;stroke:#0000ff;stroke-width:1.5;"/>
    <path clip-path="url(#p707b3acabc)" d="M 227.374545 80.435894 
L 227.374545 54.022722 
" style="fill:none;stroke:#0000ff;stroke-width:1.5;"/>
    <path clip-path="url(#p707b3acabc)" d="M 231.010909 88.690077 
L 231.010909 62.276905 
" style="fill:none;stroke:#0000ff;stroke-width:1.5;"/>
    <path clip-path="url(#p707b3acabc)" d="M 234.647273 82.944709 
L 234.647273 56.531538 
" style="fill:none;stroke:#0000ff;stroke-width:1.5;"/>
    <path clip-path="url(#p707b3acabc)" d="M 238.283636 98.948223 
L 238.283636 72.535051 
" style="fill:none;stroke:#0000ff;stroke-width:1.5;"/>
    <path clip-path="url(#p707b3acabc)" d="M 241.92 97.024511 
L 241.92 70.611339 
" style="fill:none;stroke:#0000ff;stroke-width:1.5;"/>
    <path clip-path="url(#p707b3acabc)" d="M 245.556364 77.373539 
L 245.556364 50.960368 
" style="fill:none;stroke:#0000ff;stroke-width:1.5;"/>
    <path clip-path="url(#p707b3acabc)" d="M 249.192727 84.708601 
L 249.192727 58.29543 
" style="fill:none;stroke:#0000ff;stroke-width:1.5;"/>
    <path clip-path="url(#p707b3acabc)" d="M 252.829091 84.486741 
L 252.829091 58.073569 
" style="fill:none;stroke:#0000ff;stroke-width:1.5;"/>
    <path clip-path="url(#p707b3acabc)" d="M 256.465455 72.334923 
L 256.465455 45.921751 
" style="fill:none;stroke:#0000ff;stroke-width:1.5;"/>
    <path clip-path="url(#p707b3acabc)" d="M 260.101818 73.931696 
L 260.101818 47.518525 
" style="fill:none;stroke:#0000ff;stroke-width:1.5;"/>
    <path clip-path="url(#p707b3acabc)" d="M 263.738182 97.240856 
L 263.738182 70.827684 
" style="fill:none;stroke:#0000ff;stroke-width:1.5;"/>
    <path clip-path="url(#p707b3acabc)" d="M 267.374545 88.262772 
L 267.374545 61.8496 
" style="fill:none;stroke:#0000ff;stroke-width:1.5;"/>
    <path clip-path="url(#p707b3acabc)" d="M 271.010909 83.795136 
L 271.010909 57.381965 
" style="fill:none;stroke:#0000ff;stroke-width:1.5;"/>
    <path clip-path="url(#p707b3acabc)" d="M 274.647273 87.927586 
L 274.647273 61.514414 
" style="fill:none;stroke:#0000ff;stroke-width:1.5;"/>
    <path clip-path="url(#p707b3acabc)" d="M 278.283636 67.350419 
L 278.283636 40.937247 
" style="fill:none;stroke:#0000ff;stroke-width:1.5;"/>
    <path clip-path="url(#p707b3acabc)" d="M 281.92 88.167026 
L 281.92 61.753854 
" style="fill:none;stroke:#0000ff;stroke-width:1.5;"/>
    <path clip-path="url(#p707b3acabc)" d="M 285.556364 77.957427 
L 285.556364 51.544256 
" style="fill:none;stroke:#0000ff;stroke-width:1.5;"/>
    <path clip-path="url(#p707b3acabc)" d="M 289.192727 67.027293 
L 289.192727 40.614122 
" style="fill:none;stroke:#0000ff;stroke-width:1.5;"/>
    <path clip-path="url(#p707b3acabc)" d="M 292.829091 67.822052 
L 292.829091 41.40888 
" style="fill:none;stroke:#0000ff;stroke-width:1.5;"/>
    <path clip-path="url(#p707b3acabc)" d="M 296.465455 76.841384 
L 296.465455 50.428212 
" style="fill:none;stroke:#0000ff;stroke-width:1.5;"/>
    <path clip-path="url(#p707b3acabc)" d="M 300.101818 73.31792 
L 300.101818 46.904749 
" style="fill:none;stroke:#0000ff;stroke-width:1.5;"/>
    <path clip-path="url(#p707b3acabc)" d="M 303.738182 85.648783 
L 303.738182 59.235612 
" style="fill:none;stroke:#0000ff;stroke-width:1.5;"/>
    <path clip-path="url(#p707b3acabc)" d="M 307.374545 88.726511 
L 307.374545 62.31334 
" style="fill:none;stroke:#0000ff;stroke-width:1.5;"/>
    <path clip-path="url(#p707b3acabc)" d="M 311.010909 64.116274 
L 311.010909 37.703102 
" style="fill:none;stroke:#0000ff;stroke-width:1.5;"/>
    <path clip-path="url(#p707b3acabc)" d="M 314.647273 90.677389 
L 314.647273 64.264218 
" style="fill:none;stroke:#0000ff;stroke-width:1.5;"/>
    <path clip-path="url(#p707b3acabc)" d="M 318.283636 84.576939 
L 318.283636 58.163767 
" style="fill:none;stroke:#0000ff;stroke-width:1.5;"/>
    <path clip-path="url(#p707b3acabc)" d="M 321.92 63.853329 
L 321.92 37.440158 
" style="fill:none;stroke:#0000ff;stroke-width:1.5;"/>
    <path clip-path="url(#p707b3acabc)" d="M 325.556364 71.698524 
L 325.556364 45.285352 
" style="fill:none;stroke:#0000ff;stroke-width:1.5;"/>
    <path clip-path="url(#p707b3acabc)" d="M 329.192727 85.969236 
L 329.192727 59.556064 
" style="fill:none;stroke:#0000ff;stroke-width:1.5;"/>
    <path clip-path="url(#p707b3acabc)" d="M 332.829091 86.211379 
L 332.829091 59.798208 
" style="fill:none;stroke:#0000ff;stroke-width:1.5;"/>
    <path clip-path="url(#p707b3acabc)" d="M 336.465455 66.923022 
L 336.465455 40.50985 
" style="fill:none;stroke:#0000ff;stroke-width:1.5;"/>
    <path clip-path="url(#p707b3acabc)" d="M 340.101818 65.981778 
L 340.101818 39.568606 
" style="fill:none;stroke:#0000ff;stroke-width:1.5;"/>
    <path clip-path="url(#p707b3acabc)" d="M 343.738182 81.188907 
L 343.738182 54.775736 
" style="fill:none;stroke:#0000ff;stroke-width:1.5;"/>
    <path clip-path="url(#p707b3acabc)" d="M 347.374545 80.019416 
L 347.374545 53.606245 
" style="fill:none;stroke:#0000ff;stroke-width:1.5;"/>
    <path clip-path="url(#p707b3acabc)" d="M 351.010909 66.97701 
L 351.010909 40.563839 
" style="fill:none;stroke:#0000ff;stroke-width:1.5;"/>
    <path clip-path="url(#p707b3acabc)" d="M 354.647273 99.189544 
L 354.647273 72.776372 
" style="fill:none;stroke:#0000ff;stroke-width:1.5;"/>
    <path clip-path="url(#p707b3acabc)" d="M 358.283636 72.441498 
L 358.283636 46.028327 
" style="fill:none;stroke:#0000ff;stroke-width:1.5;"/>
    <path clip-path="url(#p707b3acabc)" d="M 361.92 77.172688 
L 361.92 50.759516 
" style="fill:none;stroke:#0000ff;stroke-width:1.5;"/>
    <path clip-path="url(#p707b3acabc)" d="M 365.556364 76.00681 
L 365.556364 49.593639 
" style="fill:none;stroke:#0000ff;stroke-width:1.5;"/>
    <path clip-path="url(#p707b3acabc)" d="M 369.192727 104.136453 
L 369.192727 77.723282 
" style="fill:none;stroke:#0000ff;stroke-width:1.5;"/>
    <path clip-path="url(#p707b3acabc)" d="M 372.829091 92.455421 
L 372.829091 66.042249 
" style="fill:none;stroke:#0000ff;stroke-width:1.5;"/>
    <path clip-path="url(#p707b3acabc)" d="M 376.465455 102.414611 
L 376.465455 76.00144 
" style="fill:none;stroke:#0000ff;stroke-width:1.5;"/>
    <path clip-path="url(#p707b3acabc)" d="M 380.101818 91.437663 
L 380.101818 65.024492 
" style="fill:none;stroke:#0000ff;stroke-width:1.5;"/>
    <path clip-path="url(#p707b3acabc)" d="M 383.738182 94.233443 
L 383.738182 67.820272 
" style="fill:none;stroke:#0000ff;stroke-width:1.5;"/>
    <path clip-path="url(#p707b3acabc)" d="M 387.374545 101.007038 
L 387.374545 74.593866 
" style="fill:none;stroke:#0000ff;stroke-width:1.5;"/>
    <path clip-path="url(#p707b3acabc)" d="M 391.010909 108.054586 
L 391.010909 81.641414 
" style="fill:none;stroke:#0000ff;stroke-width:1.5;"/>
    <path clip-path="url(#p707b3acabc)" d="M 394.647273 105.062667 
L 394.647273 78.649496 
" style="fill:none;stroke:#0000ff;stroke-width:1.5;"/>
    <path clip-path="url(#p707b3acabc)" d="M 401.92 103.748112 
L 401.92 77.334941 
" style="fill:none;stroke:#0000ff;stroke-width:1.5;"/>
   </g>
   <g id="line2d_11">
    <path clip-path="url(#p707b3acabc)" d="M 81.92 71.26673 
L 401.92 71.26673 
" style="fill:none;stroke:#ff0000;stroke-linecap:square;stroke-width:1.5;"/>
   </g>
   <g id="line2d_12">
    <defs>
     <path d="M -3 0 
L 3 0 
M 0 3 
L 0 -3 
" id="m15c8bed748" style="stroke:#0000ff;"/>
    </defs>
    <g clip-path="url(#p707b3acabc)">
     <use style="fill:#0000ff;stroke:#0000ff;" x="81.92" xlink:href="#m15c8bed748" y="59.491165"/>
     <use style="fill:#0000ff;stroke:#0000ff;" x="89.192727" xlink:href="#m15c8bed748" y="66.689116"/>
     <use style="fill:#0000ff;stroke:#0000ff;" x="92.829091" xlink:href="#m15c8bed748" y="71.778484"/>
     <use style="fill:#0000ff;stroke:#0000ff;" x="96.465455" xlink:href="#m15c8bed748" y="63.87681"/>
     <use style="fill:#0000ff;stroke:#0000ff;" x="100.101818" xlink:href="#m15c8bed748" y="64.614766"/>
     <use style="fill:#0000ff;stroke:#0000ff;" x="103.738182" xlink:href="#m15c8bed748" y="55.017422"/>
     <use style="fill:#0000ff;stroke:#0000ff;" x="107.374545" xlink:href="#m15c8bed748" y="52.847632"/>
     <use style="fill:#0000ff;stroke:#0000ff;" x="111.010909" xlink:href="#m15c8bed748" y="65.232535"/>
     <use style="fill:#0000ff;stroke:#0000ff;" x="114.647273" xlink:href="#m15c8bed748" y="75.950079"/>
     <use style="fill:#0000ff;stroke:#0000ff;" x="118.283636" xlink:href="#m15c8bed748" y="46.848"/>
     <use style="fill:#0000ff;stroke:#0000ff;" x="121.92" xlink:href="#m15c8bed748" y="64.651526"/>
     <use style="fill:#0000ff;stroke:#0000ff;" x="125.556364" xlink:href="#m15c8bed748" y="62.519382"/>
     <use style="fill:#0000ff;stroke:#0000ff;" x="129.192727" xlink:href="#m15c8bed748" y="70.916622"/>
     <use style="fill:#0000ff;stroke:#0000ff;" x="132.829091" xlink:href="#m15c8bed748" y="74.322563"/>
     <use style="fill:#0000ff;stroke:#0000ff;" x="136.465455" xlink:href="#m15c8bed748" y="76.141312"/>
     <use style="fill:#0000ff;stroke:#0000ff;" x="140.101818" xlink:href="#m15c8bed748" y="65.409088"/>
     <use style="fill:#0000ff;stroke:#0000ff;" x="143.738182" xlink:href="#m15c8bed748" y="79.105017"/>
     <use style="fill:#0000ff;stroke:#0000ff;" x="147.374545" xlink:href="#m15c8bed748" y="74.200912"/>
     <use style="fill:#0000ff;stroke:#0000ff;" x="151.010909" xlink:href="#m15c8bed748" y="51.284583"/>
     <use style="fill:#0000ff;stroke:#0000ff;" x="154.647273" xlink:href="#m15c8bed748" y="69.246675"/>
     <use style="fill:#0000ff;stroke:#0000ff;" x="158.283636" xlink:href="#m15c8bed748" y="72.325393"/>
     <use style="fill:#0000ff;stroke:#0000ff;" x="161.92" xlink:href="#m15c8bed748" y="68.547115"/>
     <use style="fill:#0000ff;stroke:#0000ff;" x="165.556364" xlink:href="#m15c8bed748" y="73.606605"/>
     <use style="fill:#0000ff;stroke:#0000ff;" x="169.192727" xlink:href="#m15c8bed748" y="75.25494"/>
     <use style="fill:#0000ff;stroke:#0000ff;" x="172.829091" xlink:href="#m15c8bed748" y="93.395029"/>
     <use style="fill:#0000ff;stroke:#0000ff;" x="176.465455" xlink:href="#m15c8bed748" y="88.695203"/>
     <use style="fill:#0000ff;stroke:#0000ff;" x="180.101818" xlink:href="#m15c8bed748" y="64.149029"/>
     <use style="fill:#0000ff;stroke:#0000ff;" x="183.738182" xlink:href="#m15c8bed748" y="66.110041"/>
     <use style="fill:#0000ff;stroke:#0000ff;" x="187.374545" xlink:href="#m15c8bed748" y="73.16969"/>
     <use style="fill:#0000ff;stroke:#0000ff;" x="191.010909" xlink:href="#m15c8bed748" y="61.271502"/>
     <use style="fill:#0000ff;stroke:#0000ff;" x="194.647273" xlink:href="#m15c8bed748" y="72.019154"/>
     <use style="fill:#0000ff;stroke:#0000ff;" x="198.283636" xlink:href="#m15c8bed748" y="82.011362"/>
     <use style="fill:#0000ff;stroke:#0000ff;" x="201.92" xlink:href="#m15c8bed748" y="74.05622"/>
     <use style="fill:#0000ff;stroke:#0000ff;" x="205.556364" xlink:href="#m15c8bed748" y="80.026609"/>
     <use style="fill:#0000ff;stroke:#0000ff;" x="209.192727" xlink:href="#m15c8bed748" y="88.422428"/>
     <use style="fill:#0000ff;stroke:#0000ff;" x="212.829091" xlink:href="#m15c8bed748" y="93.116212"/>
     <use style="fill:#0000ff;stroke:#0000ff;" x="216.465455" xlink:href="#m15c8bed748" y="57.733275"/>
     <use style="fill:#0000ff;stroke:#0000ff;" x="220.101818" xlink:href="#m15c8bed748" y="89.695955"/>
     <use style="fill:#0000ff;stroke:#0000ff;" x="223.738182" xlink:href="#m15c8bed748" y="88.64758"/>
     <use style="fill:#0000ff;stroke:#0000ff;" x="227.374545" xlink:href="#m15c8bed748" y="67.229308"/>
     <use style="fill:#0000ff;stroke:#0000ff;" x="231.010909" xlink:href="#m15c8bed748" y="75.483491"/>
     <use style="fill:#0000ff;stroke:#0000ff;" x="234.647273" xlink:href="#m15c8bed748" y="69.738124"/>
     <use style="fill:#0000ff;stroke:#0000ff;" x="238.283636" xlink:href="#m15c8bed748" y="85.741637"/>
     <use style="fill:#0000ff;stroke:#0000ff;" x="241.92" xlink:href="#m15c8bed748" y="83.817925"/>
     <use style="fill:#0000ff;stroke:#0000ff;" x="245.556364" xlink:href="#m15c8bed748" y="64.166953"/>
     <use style="fill:#0000ff;stroke:#0000ff;" x="249.192727" xlink:href="#m15c8bed748" y="71.502016"/>
     <use style="fill:#0000ff;stroke:#0000ff;" x="252.829091" xlink:href="#m15c8bed748" y="71.280155"/>
     <use style="fill:#0000ff;stroke:#0000ff;" x="256.465455" xlink:href="#m15c8bed748" y="59.128337"/>
     <use style="fill:#0000ff;stroke:#0000ff;" x="260.101818" xlink:href="#m15c8bed748" y="60.72511"/>
     <use style="fill:#0000ff;stroke:#0000ff;" x="263.738182" xlink:href="#m15c8bed748" y="84.03427"/>
     <use style="fill:#0000ff;stroke:#0000ff;" x="267.374545" xlink:href="#m15c8bed748" y="75.056186"/>
     <use style="fill:#0000ff;stroke:#0000ff;" x="271.010909" xlink:href="#m15c8bed748" y="70.58855"/>
     <use style="fill:#0000ff;stroke:#0000ff;" x="274.647273" xlink:href="#m15c8bed748" y="74.721"/>
     <use style="fill:#0000ff;stroke:#0000ff;" x="278.283636" xlink:href="#m15c8bed748" y="54.143833"/>
     <use style="fill:#0000ff;stroke:#0000ff;" x="281.92" xlink:href="#m15c8bed748" y="74.96044"/>
     <use style="fill:#0000ff;stroke:#0000ff;" x="285.556364" xlink:href="#m15c8bed748" y="64.750842"/>
     <use style="fill:#0000ff;stroke:#0000ff;" x="289.192727" xlink:href="#m15c8bed748" y="53.820708"/>
     <use style="fill:#0000ff;stroke:#0000ff;" x="292.829091" xlink:href="#m15c8bed748" y="54.615466"/>
     <use style="fill:#0000ff;stroke:#0000ff;" x="296.465455" xlink:href="#m15c8bed748" y="63.634798"/>
     <use style="fill:#0000ff;stroke:#0000ff;" x="300.101818" xlink:href="#m15c8bed748" y="60.111334"/>
     <use style="fill:#0000ff;stroke:#0000ff;" x="303.738182" xlink:href="#m15c8bed748" y="72.442197"/>
     <use style="fill:#0000ff;stroke:#0000ff;" x="307.374545" xlink:href="#m15c8bed748" y="75.519925"/>
     <use style="fill:#0000ff;stroke:#0000ff;" x="311.010909" xlink:href="#m15c8bed748" y="50.909688"/>
     <use style="fill:#0000ff;stroke:#0000ff;" x="314.647273" xlink:href="#m15c8bed748" y="77.470804"/>
     <use style="fill:#0000ff;stroke:#0000ff;" x="318.283636" xlink:href="#m15c8bed748" y="71.370353"/>
     <use style="fill:#0000ff;stroke:#0000ff;" x="321.92" xlink:href="#m15c8bed748" y="50.646743"/>
     <use style="fill:#0000ff;stroke:#0000ff;" x="325.556364" xlink:href="#m15c8bed748" y="58.491938"/>
     <use style="fill:#0000ff;stroke:#0000ff;" x="329.192727" xlink:href="#m15c8bed748" y="72.76265"/>
     <use style="fill:#0000ff;stroke:#0000ff;" x="332.829091" xlink:href="#m15c8bed748" y="73.004794"/>
     <use style="fill:#0000ff;stroke:#0000ff;" x="336.465455" xlink:href="#m15c8bed748" y="53.716436"/>
     <use style="fill:#0000ff;stroke:#0000ff;" x="340.101818" xlink:href="#m15c8bed748" y="52.775192"/>
     <use style="fill:#0000ff;stroke:#0000ff;" x="343.738182" xlink:href="#m15c8bed748" y="67.982322"/>
     <use style="fill:#0000ff;stroke:#0000ff;" x="347.374545" xlink:href="#m15c8bed748" y="66.81283"/>
     <use style="fill:#0000ff;stroke:#0000ff;" x="351.010909" xlink:href="#m15c8bed748" y="53.770424"/>
     <use style="fill:#0000ff;stroke:#0000ff;" x="354.647273" xlink:href="#m15c8bed748" y="85.982958"/>
     <use style="fill:#0000ff;stroke:#0000ff;" x="358.283636" xlink:href="#m15c8bed748" y="59.234912"/>
     <use style="fill:#0000ff;stroke:#0000ff;" x="361.92" xlink:href="#m15c8bed748" y="63.966102"/>
     <use style="fill:#0000ff;stroke:#0000ff;" x="365.556364" xlink:href="#m15c8bed748" y="62.800224"/>
     <use style="fill:#0000ff;stroke:#0000ff;" x="369.192727" xlink:href="#m15c8bed748" y="90.929867"/>
     <use style="fill:#0000ff;stroke:#0000ff;" x="372.829091" xlink:href="#m15c8bed748" y="79.248835"/>
     <use style="fill:#0000ff;stroke:#0000ff;" x="376.465455" xlink:href="#m15c8bed748" y="89.208025"/>
     <use style="fill:#0000ff;stroke:#0000ff;" x="380.101818" xlink:href="#m15c8bed748" y="78.231078"/>
     <use style="fill:#0000ff;stroke:#0000ff;" x="383.738182" xlink:href="#m15c8bed748" y="81.026857"/>
     <use style="fill:#0000ff;stroke:#0000ff;" x="387.374545" xlink:href="#m15c8bed748" y="87.800452"/>
     <use style="fill:#0000ff;stroke:#0000ff;" x="391.010909" xlink:href="#m15c8bed748" y="94.848"/>
     <use style="fill:#0000ff;stroke:#0000ff;" x="394.647273" xlink:href="#m15c8bed748" y="91.856081"/>
     <use style="fill:#0000ff;stroke:#0000ff;" x="401.92" xlink:href="#m15c8bed748" y="90.541527"/>
    </g>
   </g>
   <g id="patch_3">
    <path d="M 69.12 96.768 
L 69.12 44.928 
" style="fill:none;stroke:#000000;stroke-linecap:square;stroke-linejoin:miter;stroke-width:0.8;"/>
   </g>
   <g id="patch_4">
    <path d="M 414.72 96.768 
L 414.72 44.928 
" style="fill:none;stroke:#000000;stroke-linecap:square;stroke-linejoin:miter;stroke-width:0.8;"/>
   </g>
   <g id="patch_5">
    <path d="M 69.12 96.768 
L 414.72 96.768 
" style="fill:none;stroke:#000000;stroke-linecap:square;stroke-linejoin:miter;stroke-width:0.8;"/>
   </g>
   <g id="patch_6">
    <path d="M 69.12 44.928 
L 414.72 44.928 
" style="fill:none;stroke:#000000;stroke-linecap:square;stroke-linejoin:miter;stroke-width:0.8;"/>
   </g>
   <g id="text_5">
    <!-- Function (0/0): y = a*exp(-(x-x0)**2/w**2)+b -->
    <defs>
     <path d="M 9.8125 72.90625 
L 51.703125 72.90625 
L 51.703125 64.59375 
L 19.671875 64.59375 
L 19.671875 43.109375 
L 48.578125 43.109375 
L 48.578125 34.8125 
L 19.671875 34.8125 
L 19.671875 0 
L 9.8125 0 
z
" id="DejaVuSans-46"/>
     <path d="M 48.78125 52.59375 
L 48.78125 44.1875 
Q 44.96875 46.296875 41.140625 47.34375 
Q 37.3125 48.390625 33.40625 48.390625 
Q 24.65625 48.390625 19.8125 42.84375 
Q 14.984375 37.3125 14.984375 27.296875 
Q 14.984375 17.28125 19.8125 11.734375 
Q 24.65625 6.203125 33.40625 6.203125 
Q 37.3125 6.203125 41.140625 7.25 
Q 44.96875 8.296875 48.78125 10.40625 
L 48.78125 2.09375 
Q 45.015625 0.34375 40.984375 -0.53125 
Q 36.96875 -1.421875 32.421875 -1.421875 
Q 20.0625 -1.421875 12.78125 6.34375 
Q 5.515625 14.109375 5.515625 27.296875 
Q 5.515625 40.671875 12.859375 48.328125 
Q 20.21875 56 33.015625 56 
Q 37.15625 56 41.109375 55.140625 
Q 45.0625 54.296875 48.78125 52.59375 
z
" id="DejaVuSans-63"/>
     <path d="M 30.609375 48.390625 
Q 23.390625 48.390625 19.1875 42.75 
Q 14.984375 37.109375 14.984375 27.296875 
Q 14.984375 17.484375 19.15625 11.84375 
Q 23.34375 6.203125 30.609375 6.203125 
Q 37.796875 6.203125 41.984375 11.859375 
Q 46.1875 17.53125 46.1875 27.296875 
Q 46.1875 37.015625 41.984375 42.703125 
Q 37.796875 48.390625 30.609375 48.390625 
z
M 30.609375 56 
Q 42.328125 56 49.015625 48.375 
Q 55.71875 40.765625 55.71875 27.296875 
Q 55.71875 13.875 49.015625 6.21875 
Q 42.328125 -1.421875 30.609375 -1.421875 
Q 18.84375 -1.421875 12.171875 6.21875 
Q 5.515625 13.875 5.515625 27.296875 
Q 5.515625 40.765625 12.171875 48.375 
Q 18.84375 56 30.609375 56 
z
" id="DejaVuSans-6f"/>
     <path id="DejaVuSans-20"/>
     <path d="M 31 75.875 
Q 24.46875 64.65625 21.28125 53.65625 
Q 18.109375 42.671875 18.109375 31.390625 
Q 18.109375 20.125 21.3125 9.0625 
Q 24.515625 -2 31 -13.1875 
L 23.1875 -13.1875 
Q 15.875 -1.703125 12.234375 9.375 
Q 8.59375 20.453125 8.59375 31.390625 
Q 8.59375 42.28125 12.203125 53.3125 
Q 15.828125 64.359375 23.1875 75.875 
z
" id="DejaVuSans-28"/>
     <path d="M 31.78125 66.40625 
Q 24.171875 66.40625 20.328125 58.90625 
Q 16.5 51.421875 16.5 36.375 
Q 16.5 21.390625 20.328125 13.890625 
Q 24.171875 6.390625 31.78125 6.390625 
Q 39.453125 6.390625 43.28125 13.890625 
Q 47.125 21.390625 47.125 36.375 
Q 47.125 51.421875 43.28125 58.90625 
Q 39.453125 66.40625 31.78125 66.40625 
z
M 31.78125 74.21875 
Q 44.046875 74.21875 50.515625 64.515625 
Q 56.984375 54.828125 56.984375 36.375 
Q 56.984375 17.96875 50.515625 8.265625 
Q 44.046875 -1.421875 31.78125 -1.421875 
Q 19.53125 -1.421875 13.0625 8.265625 
Q 6.59375 17.96875 6.59375 36.375 
Q 6.59375 54.828125 13.0625 64.515625 
Q 19.53125 74.21875 31.78125 74.21875 
z
" id="DejaVuSans-30"/>
     <path d="M 25.390625 72.90625 
L 33.6875 72.90625 
L 8.296875 -9.28125 
L 0 -9.28125 
z
" id="DejaVuSans-2f"/>
     <path d="M 8.015625 75.875 
L 15.828125 75.875 
Q 23.140625 64.359375 26.78125 53.3125 
Q 30.421875 42.28125 30.421875 31.390625 
Q 30.421875 20.453125 26.78125 9.375 
Q 23.140625 -1.703125 15.828125 -13.1875 
L 8.015625 -13.1875 
Q 14.5 -2 17.703125 9.0625 
Q 20.90625 20.125 20.90625 31.390625 
Q 20.90625 42.671875 17.703125 53.65625 
Q 14.5 64.65625 8.015625 75.875 
z
" id="DejaVuSans-29"/>
     <path d="M 11.71875 12.40625 
L 22.015625 12.40625 
L 22.015625 0 
L 11.71875 0 
z
M 11.71875 51.703125 
L 22.015625 51.703125 
L 22.015625 39.3125 
L 11.71875 39.3125 
z
" id="DejaVuSans-3a"/>
     <path d="M 32.171875 -5.078125 
Q 28.375 -14.84375 24.75 -17.8125 
Q 21.140625 -20.796875 15.09375 -20.796875 
L 7.90625 -20.796875 
L 7.90625 -13.28125 
L 13.1875 -13.28125 
Q 16.890625 -13.28125 18.9375 -11.515625 
Q 21 -9.765625 23.484375 -3.21875 
L 25.09375 0.875 
L 2.984375 54.6875 
L 12.5 54.6875 
L 29.59375 11.921875 
L 46.6875 54.6875 
L 56.203125 54.6875 
z
" id="DejaVuSans-79"/>
     <path d="M 10.59375 45.40625 
L 73.1875 45.40625 
L 73.1875 37.203125 
L 10.59375 37.203125 
z
M 10.59375 25.484375 
L 73.1875 25.484375 
L 73.1875 17.1875 
L 10.59375 17.1875 
z
" id="DejaVuSans-3d"/>
     <path d="M 47.015625 60.890625 
L 29.5 51.421875 
L 47.015625 41.890625 
L 44.1875 37.109375 
L 27.78125 47.015625 
L 27.78125 28.609375 
L 22.21875 28.609375 
L 22.21875 47.015625 
L 5.8125 37.109375 
L 2.984375 41.890625 
L 20.515625 51.421875 
L 2.984375 60.890625 
L 5.8125 65.71875 
L 22.21875 55.8125 
L 22.21875 74.21875 
L 27.78125 74.21875 
L 27.78125 55.8125 
L 44.1875 65.71875 
z
" id="DejaVuSans-2a"/>
     <path d="M 54.890625 54.6875 
L 35.109375 28.078125 
L 55.90625 0 
L 45.3125 0 
L 29.390625 21.484375 
L 13.484375 0 
L 2.875 0 
L 24.125 28.609375 
L 4.6875 54.6875 
L 15.28125 54.6875 
L 29.78125 35.203125 
L 44.28125 54.6875 
z
" id="DejaVuSans-78"/>
     <path d="M 18.109375 8.203125 
L 18.109375 -20.796875 
L 9.078125 -20.796875 
L 9.078125 54.6875 
L 18.109375 54.6875 
L 18.109375 46.390625 
Q 20.953125 51.265625 25.265625 53.625 
Q 29.59375 56 35.59375 56 
Q 45.5625 56 51.78125 48.09375 
Q 58.015625 40.1875 58.015625 27.296875 
Q 58.015625 14.40625 51.78125 6.484375 
Q 45.5625 -1.421875 35.59375 -1.421875 
Q 29.59375 -1.421875 25.265625 0.953125 
Q 20.953125 3.328125 18.109375 8.203125 
z
M 48.6875 27.296875 
Q 48.6875 37.203125 44.609375 42.84375 
Q 40.53125 48.484375 33.40625 48.484375 
Q 26.265625 48.484375 22.1875 42.84375 
Q 18.109375 37.203125 18.109375 27.296875 
Q 18.109375 17.390625 22.1875 11.75 
Q 26.265625 6.109375 33.40625 6.109375 
Q 40.53125 6.109375 44.609375 11.75 
Q 48.6875 17.390625 48.6875 27.296875 
z
" id="DejaVuSans-70"/>
     <path d="M 4.890625 31.390625 
L 31.203125 31.390625 
L 31.203125 23.390625 
L 4.890625 23.390625 
z
" id="DejaVuSans-2d"/>
     <path d="M 4.203125 54.6875 
L 13.1875 54.6875 
L 24.421875 12.015625 
L 35.59375 54.6875 
L 46.1875 54.6875 
L 57.421875 12.015625 
L 68.609375 54.6875 
L 77.59375 54.6875 
L 63.28125 0 
L 52.6875 0 
L 40.921875 44.828125 
L 29.109375 0 
L 18.5 0 
z
" id="DejaVuSans-77"/>
     <path d="M 46 62.703125 
L 46 35.5 
L 73.1875 35.5 
L 73.1875 27.203125 
L 46 27.203125 
L 46 0 
L 37.796875 0 
L 37.796875 27.203125 
L 10.59375 27.203125 
L 10.59375 35.5 
L 37.796875 35.5 
L 37.796875 62.703125 
z
" id="DejaVuSans-2b"/>
     <path d="M 48.6875 27.296875 
Q 48.6875 37.203125 44.609375 42.84375 
Q 40.53125 48.484375 33.40625 48.484375 
Q 26.265625 48.484375 22.1875 42.84375 
Q 18.109375 37.203125 18.109375 27.296875 
Q 18.109375 17.390625 22.1875 11.75 
Q 26.265625 6.109375 33.40625 6.109375 
Q 40.53125 6.109375 44.609375 11.75 
Q 48.6875 17.390625 48.6875 27.296875 
z
M 18.109375 46.390625 
Q 20.953125 51.265625 25.265625 53.625 
Q 29.59375 56 35.59375 56 
Q 45.5625 56 51.78125 48.09375 
Q 58.015625 40.1875 58.015625 27.296875 
Q 58.015625 14.40625 51.78125 6.484375 
Q 45.5625 -1.421875 35.59375 -1.421875 
Q 29.59375 -1.421875 25.265625 0.953125 
Q 20.953125 3.328125 18.109375 8.203125 
L 18.109375 0 
L 9.078125 0 
L 9.078125 75.984375 
L 18.109375 75.984375 
z
" id="DejaVuSans-62"/>
    </defs>
    <g transform="translate(69.12 27.730187)scale(0.1 -0.1)">
     <use xlink:href="#DejaVuSans-46"/>
     <use x="57.441406" xlink:href="#DejaVuSans-75"/>
     <use x="120.820312" xlink:href="#DejaVuSans-6e"/>
     <use x="184.199219" xlink:href="#DejaVuSans-63"/>
     <use x="239.179688" xlink:href="#DejaVuSans-74"/>
     <use x="278.388672" xlink:href="#DejaVuSans-69"/>
     <use x="306.171875" xlink:href="#DejaVuSans-6f"/>
     <use x="367.353516" xlink:href="#DejaVuSans-6e"/>
     <use x="430.732422" xlink:href="#DejaVuSans-20"/>
     <use x="462.519531" xlink:href="#DejaVuSans-28"/>
     <use x="501.533203" xlink:href="#DejaVuSans-30"/>
     <use x="565.15625" xlink:href="#DejaVuSans-2f"/>
     <use x="598.847656" xlink:href="#DejaVuSans-30"/>
     <use x="662.470703" xlink:href="#DejaVuSans-29"/>
     <use x="701.484375" xlink:href="#DejaVuSans-3a"/>
     <use x="735.175781" xlink:href="#DejaVuSans-20"/>
     <use x="766.962891" xlink:href="#DejaVuSans-79"/>
     <use x="826.142578" xlink:href="#DejaVuSans-20"/>
     <use x="857.929688" xlink:href="#DejaVuSans-3d"/>
     <use x="941.71875" xlink:href="#DejaVuSans-20"/>
     <use x="973.505859" xlink:href="#DejaVuSans-61"/>
     <use x="1034.785156" xlink:href="#DejaVuSans-2a"/>
     <use x="1084.785156" xlink:href="#DejaVuSans-65"/>
     <use x="1146.292969" xlink:href="#DejaVuSans-78"/>
     <use x="1205.472656" xlink:href="#DejaVuSans-70"/>
     <use x="1268.949219" xlink:href="#DejaVuSans-28"/>
     <use x="1307.962891" xlink:href="#DejaVuSans-2d"/>
     <use x="1344.046875" xlink:href="#DejaVuSans-28"/>
     <use x="1383.060547" xlink:href="#DejaVuSans-78"/>
     <use x="1442.240234" xlink:href="#DejaVuSans-2d"/>
     <use x="1478.324219" xlink:href="#DejaVuSans-78"/>
     <use x="1537.503906" xlink:href="#DejaVuSans-30"/>
     <use x="1601.126953" xlink:href="#DejaVuSans-29"/>
     <use x="1640.140625" xlink:href="#DejaVuSans-2a"/>
     <use x="1690.140625" xlink:href="#DejaVuSans-2a"/>
     <use x="1740.140625" xlink:href="#DejaVuSans-32"/>
     <use x="1803.763672" xlink:href="#DejaVuSans-2f"/>
     <use x="1837.455078" xlink:href="#DejaVuSans-77"/>
     <use x="1919.242188" xlink:href="#DejaVuSans-2a"/>
     <use x="1969.242188" xlink:href="#DejaVuSans-2a"/>
     <use x="2019.242188" xlink:href="#DejaVuSans-32"/>
     <use x="2082.865234" xlink:href="#DejaVuSans-29"/>
     <use x="2121.878906" xlink:href="#DejaVuSans-2b"/>
     <use x="2205.667969" xlink:href="#DejaVuSans-62"/>
    </g>
    <!-- Fit: a=248.6$\pm$8.6, b=48.9$\pm$9.6, x0=4.296$\pm$0.0016, w=0.1872$\pm$0.008, -->
    <defs>
     <path d="M 37.796875 64.3125 
L 12.890625 25.390625 
L 37.796875 25.390625 
z
M 35.203125 72.90625 
L 47.609375 72.90625 
L 47.609375 25.390625 
L 58.015625 25.390625 
L 58.015625 17.1875 
L 47.609375 17.1875 
L 47.609375 0 
L 37.796875 0 
L 37.796875 17.1875 
L 4.890625 17.1875 
L 4.890625 26.703125 
z
" id="DejaVuSans-34"/>
     <path d="M 31.78125 34.625 
Q 24.75 34.625 20.71875 30.859375 
Q 16.703125 27.09375 16.703125 20.515625 
Q 16.703125 13.921875 20.71875 10.15625 
Q 24.75 6.390625 31.78125 6.390625 
Q 38.8125 6.390625 42.859375 10.171875 
Q 46.921875 13.96875 46.921875 20.515625 
Q 46.921875 27.09375 42.890625 30.859375 
Q 38.875 34.625 31.78125 34.625 
z
M 21.921875 38.8125 
Q 15.578125 40.375 12.03125 44.71875 
Q 8.5 49.078125 8.5 55.328125 
Q 8.5 64.0625 14.71875 69.140625 
Q 20.953125 74.21875 31.78125 74.21875 
Q 42.671875 74.21875 48.875 69.140625 
Q 55.078125 64.0625 55.078125 55.328125 
Q 55.078125 49.078125 51.53125 44.71875 
Q 48 40.375 41.703125 38.8125 
Q 48.828125 37.15625 52.796875 32.3125 
Q 56.78125 27.484375 56.78125 20.515625 
Q 56.78125 9.90625 50.3125 4.234375 
Q 43.84375 -1.421875 31.78125 -1.421875 
Q 19.734375 -1.421875 13.25 4.234375 
Q 6.78125 9.90625 6.78125 20.515625 
Q 6.78125 27.484375 10.78125 32.3125 
Q 14.796875 37.15625 21.921875 38.8125 
z
M 18.3125 54.390625 
Q 18.3125 48.734375 21.84375 45.5625 
Q 25.390625 42.390625 31.78125 42.390625 
Q 38.140625 42.390625 41.71875 45.5625 
Q 45.3125 48.734375 45.3125 54.390625 
Q 45.3125 60.0625 41.71875 63.234375 
Q 38.140625 66.40625 31.78125 66.40625 
Q 25.390625 66.40625 21.84375 63.234375 
Q 18.3125 60.0625 18.3125 54.390625 
z
" id="DejaVuSans-38"/>
     <path d="M 10.6875 12.40625 
L 21 12.40625 
L 21 0 
L 10.6875 0 
z
" id="DejaVuSans-2e"/>
     <path d="M 33.015625 40.375 
Q 26.375 40.375 22.484375 35.828125 
Q 18.609375 31.296875 18.609375 23.390625 
Q 18.609375 15.53125 22.484375 10.953125 
Q 26.375 6.390625 33.015625 6.390625 
Q 39.65625 6.390625 43.53125 10.953125 
Q 47.40625 15.53125 47.40625 23.390625 
Q 47.40625 31.296875 43.53125 35.828125 
Q 39.65625 40.375 33.015625 40.375 
z
M 52.59375 71.296875 
L 52.59375 62.3125 
Q 48.875 64.0625 45.09375 64.984375 
Q 41.3125 65.921875 37.59375 65.921875 
Q 27.828125 65.921875 22.671875 59.328125 
Q 17.53125 52.734375 16.796875 39.40625 
Q 19.671875 43.65625 24.015625 45.921875 
Q 28.375 48.1875 33.59375 48.1875 
Q 44.578125 48.1875 50.953125 41.515625 
Q 57.328125 34.859375 57.328125 23.390625 
Q 57.328125 12.15625 50.6875 5.359375 
Q 44.046875 -1.421875 33.015625 -1.421875 
Q 20.359375 -1.421875 13.671875 8.265625 
Q 6.984375 17.96875 6.984375 36.375 
Q 6.984375 53.65625 15.1875 63.9375 
Q 23.390625 74.21875 37.203125 74.21875 
Q 40.921875 74.21875 44.703125 73.484375 
Q 48.484375 72.75 52.59375 71.296875 
z
" id="DejaVuSans-36"/>
     <path d="M 46 62.703125 
L 46 43.796875 
L 73.1875 43.796875 
L 73.1875 35.5 
L 46 35.5 
L 46 16.609375 
L 37.796875 16.609375 
L 37.796875 35.5 
L 10.59375 35.5 
L 10.59375 43.796875 
L 37.796875 43.796875 
L 37.796875 62.703125 
z
M 10.59375 8.296875 
L 73.1875 8.296875 
L 73.1875 0 
L 10.59375 0 
z
" id="DejaVuSans-b1"/>
     <path d="M 11.71875 12.40625 
L 22.015625 12.40625 
L 22.015625 4 
L 14.015625 -11.625 
L 7.71875 -11.625 
L 11.71875 4 
z
" id="DejaVuSans-2c"/>
     <path d="M 10.984375 1.515625 
L 10.984375 10.5 
Q 14.703125 8.734375 18.5 7.8125 
Q 22.3125 6.890625 25.984375 6.890625 
Q 35.75 6.890625 40.890625 13.453125 
Q 46.046875 20.015625 46.78125 33.40625 
Q 43.953125 29.203125 39.59375 26.953125 
Q 35.25 24.703125 29.984375 24.703125 
Q 19.046875 24.703125 12.671875 31.3125 
Q 6.296875 37.9375 6.296875 49.421875 
Q 6.296875 60.640625 12.9375 67.421875 
Q 19.578125 74.21875 30.609375 74.21875 
Q 43.265625 74.21875 49.921875 64.515625 
Q 56.59375 54.828125 56.59375 36.375 
Q 56.59375 19.140625 48.40625 8.859375 
Q 40.234375 -1.421875 26.421875 -1.421875 
Q 22.703125 -1.421875 18.890625 -0.6875 
Q 15.09375 0.046875 10.984375 1.515625 
z
M 30.609375 32.421875 
Q 37.25 32.421875 41.125 36.953125 
Q 45.015625 41.5 45.015625 49.421875 
Q 45.015625 57.28125 41.125 61.84375 
Q 37.25 66.40625 30.609375 66.40625 
Q 23.96875 66.40625 20.09375 61.84375 
Q 16.21875 57.28125 16.21875 49.421875 
Q 16.21875 41.5 20.09375 36.953125 
Q 23.96875 32.421875 30.609375 32.421875 
z
" id="DejaVuSans-39"/>
     <path d="M 8.203125 72.90625 
L 55.078125 72.90625 
L 55.078125 68.703125 
L 28.609375 0 
L 18.3125 0 
L 43.21875 64.59375 
L 8.203125 64.59375 
z
" id="DejaVuSans-37"/>
    </defs>
    <g transform="translate(69.12 38.928)scale(0.1 -0.1)">
     <use transform="translate(0 0.015625)" xlink:href="#DejaVuSans-46"/>
     <use transform="translate(57.519531 0.015625)" xlink:href="#DejaVuSans-69"/>
     <use transform="translate(85.302734 0.015625)" xlink:href="#DejaVuSans-74"/>
     <use transform="translate(124.511719 0.015625)" xlink:href="#DejaVuSans-3a"/>
     <use transform="translate(158.203125 0.015625)" xlink:href="#DejaVuSans-20"/>
     <use transform="translate(189.990234 0.015625)" xlink:href="#DejaVuSans-61"/>
     <use transform="translate(251.269531 0.015625)" xlink:href="#DejaVuSans-3d"/>
     <use transform="translate(335.058594 0.015625)" xlink:href="#DejaVuSans-32"/>
     <use transform="translate(398.681641 0.015625)" xlink:href="#DejaVuSans-34"/>
     <use transform="translate(462.304688 0.015625)" xlink:href="#DejaVuSans-38"/>
     <use transform="translate(525.927734 0.015625)" xlink:href="#DejaVuSans-2e"/>
     <use transform="translate(557.714844 0.015625)" xlink:href="#DejaVuSans-36"/>
     <use transform="translate(621.337891 0.015625)" xlink:href="#DejaVuSans-b1"/>
     <use transform="translate(705.126953 0.015625)" xlink:href="#DejaVuSans-38"/>
     <use transform="translate(768.75 0.015625)" xlink:href="#DejaVuSans-2e"/>
     <use transform="translate(800.537109 0.015625)" xlink:href="#DejaVuSans-36"/>
     <use transform="translate(864.160156 0.015625)" xlink:href="#DejaVuSans-2c"/>
     <use transform="translate(895.947266 0.015625)" xlink:href="#DejaVuSans-20"/>
     <use transform="translate(927.734375 0.015625)" xlink:href="#DejaVuSans-62"/>
     <use transform="translate(991.210938 0.015625)" xlink:href="#DejaVuSans-3d"/>
     <use transform="translate(1075 0.015625)" xlink:href="#DejaVuSans-34"/>
     <use transform="translate(1138.623047 0.015625)" xlink:href="#DejaVuSans-38"/>
     <use transform="translate(1202.246094 0.015625)" xlink:href="#DejaVuSans-2e"/>
     <use transform="translate(1234.033203 0.015625)" xlink:href="#DejaVuSans-39"/>
     <use transform="translate(1297.65625 0.015625)" xlink:href="#DejaVuSans-b1"/>
     <use transform="translate(1381.445312 0.015625)" xlink:href="#DejaVuSans-39"/>
     <use transform="translate(1445.068359 0.015625)" xlink:href="#DejaVuSans-2e"/>
     <use transform="translate(1476.855469 0.015625)" xlink:href="#DejaVuSans-36"/>
     <use transform="translate(1540.478516 0.015625)" xlink:href="#DejaVuSans-2c"/>
     <use transform="translate(1572.265625 0.015625)" xlink:href="#DejaVuSans-20"/>
     <use transform="translate(1604.052734 0.015625)" xlink:href="#DejaVuSans-78"/>
     <use transform="translate(1663.232422 0.015625)" xlink:href="#DejaVuSans-30"/>
     <use transform="translate(1726.855469 0.015625)" xlink:href="#DejaVuSans-3d"/>
     <use transform="translate(1810.644531 0.015625)" xlink:href="#DejaVuSans-34"/>
     <use transform="translate(1874.267578 0.015625)" xlink:href="#DejaVuSans-2e"/>
     <use transform="translate(1905.976562 0.015625)" xlink:href="#DejaVuSans-32"/>
     <use transform="translate(1969.583984 0.015625)" xlink:href="#DejaVuSans-39"/>
     <use transform="translate(2033.207031 0.015625)" xlink:href="#DejaVuSans-36"/>
     <use transform="translate(2096.830078 0.015625)" xlink:href="#DejaVuSans-b1"/>
     <use transform="translate(2180.619141 0.015625)" xlink:href="#DejaVuSans-30"/>
     <use transform="translate(2244.242188 0.015625)" xlink:href="#DejaVuSans-2e"/>
     <use transform="translate(2276.029297 0.015625)" xlink:href="#DejaVuSans-30"/>
     <use transform="translate(2339.652344 0.015625)" xlink:href="#DejaVuSans-30"/>
     <use transform="translate(2403.275391 0.015625)" xlink:href="#DejaVuSans-31"/>
     <use transform="translate(2466.898438 0.015625)" xlink:href="#DejaVuSans-36"/>
     <use transform="translate(2530.521484 0.015625)" xlink:href="#DejaVuSans-2c"/>
     <use transform="translate(2562.308594 0.015625)" xlink:href="#DejaVuSans-20"/>
     <use transform="translate(2594.095703 0.015625)" xlink:href="#DejaVuSans-77"/>
     <use transform="translate(2675.882812 0.015625)" xlink:href="#DejaVuSans-3d"/>
     <use transform="translate(2759.671875 0.015625)" xlink:href="#DejaVuSans-30"/>
     <use transform="translate(2823.294922 0.015625)" xlink:href="#DejaVuSans-2e"/>
     <use transform="translate(2855.082031 0.015625)" xlink:href="#DejaVuSans-31"/>
     <use transform="translate(2918.705078 0.015625)" xlink:href="#DejaVuSans-38"/>
     <use transform="translate(2982.328125 0.015625)" xlink:href="#DejaVuSans-37"/>
     <use transform="translate(3045.951172 0.015625)" xlink:href="#DejaVuSans-32"/>
     <use transform="translate(3109.574219 0.015625)" xlink:href="#DejaVuSans-b1"/>
     <use transform="translate(3193.363281 0.015625)" xlink:href="#DejaVuSans-30"/>
     <use transform="translate(3256.986328 0.015625)" xlink:href="#DejaVuSans-2e"/>
     <use transform="translate(3288.773438 0.015625)" xlink:href="#DejaVuSans-30"/>
     <use transform="translate(3352.396484 0.015625)" xlink:href="#DejaVuSans-30"/>
     <use transform="translate(3416.019531 0.015625)" xlink:href="#DejaVuSans-38"/>
     <use transform="translate(3479.642578 0.015625)" xlink:href="#DejaVuSans-2c"/>
    </g>
   </g>
  </g>
  <g id="axes_2">
   <g id="patch_7">
    <path d="M 69.12 311.04 
L 414.72 311.04 
L 414.72 103.68 
L 69.12 103.68 
z
" style="fill:#ffffff;"/>
   </g>
   <g id="matplotlib.axis_3">
    <g id="xtick_7">
     <g id="line2d_13">
      <g>
       <use style="stroke:#000000;stroke-width:0.8;" x="71.624635" xlink:href="#mb0506e0acf" y="311.04"/>
      </g>
     </g>
     <g id="text_6">
      <!-- 4.0 -->
      <g transform="translate(59.697291 329.437656)scale(0.15 -0.15)">
       <use xlink:href="#DejaVuSans-34"/>
       <use x="63.623047" xlink:href="#DejaVuSans-2e"/>
       <use x="95.410156" xlink:href="#DejaVuSans-30"/>
      </g>
     </g>
    </g>
    <g id="xtick_8">
     <g id="line2d_14">
      <g>
       <use style="stroke:#000000;stroke-width:0.8;" x="132.752433" xlink:href="#mb0506e0acf" y="311.04"/>
      </g>
     </g>
     <g id="text_7">
      <!-- 4.1 -->
      <g transform="translate(120.825089 329.437656)scale(0.15 -0.15)">
       <use xlink:href="#DejaVuSans-34"/>
       <use x="63.623047" xlink:href="#DejaVuSans-2e"/>
       <use x="95.410156" xlink:href="#DejaVuSans-31"/>
      </g>
     </g>
    </g>
    <g id="xtick_9">
     <g id="line2d_15">
      <g>
       <use style="stroke:#000000;stroke-width:0.8;" x="193.88023" xlink:href="#mb0506e0acf" y="311.04"/>
      </g>
     </g>
     <g id="text_8">
      <!-- 4.2 -->
      <g transform="translate(181.952886 329.437656)scale(0.15 -0.15)">
       <use xlink:href="#DejaVuSans-34"/>
       <use x="63.623047" xlink:href="#DejaVuSans-2e"/>
       <use x="95.410156" xlink:href="#DejaVuSans-32"/>
      </g>
     </g>
    </g>
    <g id="xtick_10">
     <g id="line2d_16">
      <g>
       <use style="stroke:#000000;stroke-width:0.8;" x="255.008028" xlink:href="#mb0506e0acf" y="311.04"/>
      </g>
     </g>
     <g id="text_9">
      <!-- 4.3 -->
      <defs>
       <path d="M 40.578125 39.3125 
Q 47.65625 37.796875 51.625 33 
Q 55.609375 28.21875 55.609375 21.1875 
Q 55.609375 10.40625 48.1875 4.484375 
Q 40.765625 -1.421875 27.09375 -1.421875 
Q 22.515625 -1.421875 17.65625 -0.515625 
Q 12.796875 0.390625 7.625 2.203125 
L 7.625 11.71875 
Q 11.71875 9.328125 16.59375 8.109375 
Q 21.484375 6.890625 26.8125 6.890625 
Q 36.078125 6.890625 40.9375 10.546875 
Q 45.796875 14.203125 45.796875 21.1875 
Q 45.796875 27.640625 41.28125 31.265625 
Q 36.765625 34.90625 28.71875 34.90625 
L 20.21875 34.90625 
L 20.21875 43.015625 
L 29.109375 43.015625 
Q 36.375 43.015625 40.234375 45.921875 
Q 44.09375 48.828125 44.09375 54.296875 
Q 44.09375 59.90625 40.109375 62.90625 
Q 36.140625 65.921875 28.71875 65.921875 
Q 24.65625 65.921875 20.015625 65.03125 
Q 15.375 64.15625 9.8125 62.3125 
L 9.8125 71.09375 
Q 15.4375 72.65625 20.34375 73.4375 
Q 25.25 74.21875 29.59375 74.21875 
Q 40.828125 74.21875 47.359375 69.109375 
Q 53.90625 64.015625 53.90625 55.328125 
Q 53.90625 49.265625 50.4375 45.09375 
Q 46.96875 40.921875 40.578125 39.3125 
z
" id="DejaVuSans-33"/>
      </defs>
      <g transform="translate(243.080684 329.437656)scale(0.15 -0.15)">
       <use xlink:href="#DejaVuSans-34"/>
       <use x="63.623047" xlink:href="#DejaVuSans-2e"/>
       <use x="95.410156" xlink:href="#DejaVuSans-33"/>
      </g>
     </g>
    </g>
    <g id="xtick_11">
     <g id="line2d_17">
      <g>
       <use style="stroke:#000000;stroke-width:0.8;" x="316.135825" xlink:href="#mb0506e0acf" y="311.04"/>
      </g>
     </g>
     <g id="text_10">
      <!-- 4.4 -->
      <g transform="translate(304.208482 329.437656)scale(0.15 -0.15)">
       <use xlink:href="#DejaVuSans-34"/>
       <use x="63.623047" xlink:href="#DejaVuSans-2e"/>
       <use x="95.410156" xlink:href="#DejaVuSans-34"/>
      </g>
     </g>
    </g>
    <g id="xtick_12">
     <g id="line2d_18">
      <g>
       <use style="stroke:#000000;stroke-width:0.8;" x="377.263623" xlink:href="#mb0506e0acf" y="311.04"/>
      </g>
     </g>
     <g id="text_11">
      <!-- 4.5 -->
      <defs>
       <path d="M 10.796875 72.90625 
L 49.515625 72.90625 
L 49.515625 64.59375 
L 19.828125 64.59375 
L 19.828125 46.734375 
Q 21.96875 47.46875 24.109375 47.828125 
Q 26.265625 48.1875 28.421875 48.1875 
Q 40.625 48.1875 47.75 41.5 
Q 54.890625 34.8125 54.890625 23.390625 
Q 54.890625 11.625 47.5625 5.09375 
Q 40.234375 -1.421875 26.90625 -1.421875 
Q 22.3125 -1.421875 17.546875 -0.640625 
Q 12.796875 0.140625 7.71875 1.703125 
L 7.71875 11.625 
Q 12.109375 9.234375 16.796875 8.0625 
Q 21.484375 6.890625 26.703125 6.890625 
Q 35.15625 6.890625 40.078125 11.328125 
Q 45.015625 15.765625 45.015625 23.390625 
Q 45.015625 31 40.078125 35.4375 
Q 35.15625 39.890625 26.703125 39.890625 
Q 22.75 39.890625 18.8125 39.015625 
Q 14.890625 38.140625 10.796875 36.28125 
z
" id="DejaVuSans-35"/>
      </defs>
      <g transform="translate(365.336279 329.437656)scale(0.15 -0.15)">
       <use xlink:href="#DejaVuSans-34"/>
       <use x="63.623047" xlink:href="#DejaVuSans-2e"/>
       <use x="95.410156" xlink:href="#DejaVuSans-35"/>
      </g>
     </g>
    </g>
    <g id="text_12">
     <!-- Energy [MeV] -->
     <defs>
      <path d="M 9.8125 72.90625 
L 55.90625 72.90625 
L 55.90625 64.59375 
L 19.671875 64.59375 
L 19.671875 43.015625 
L 54.390625 43.015625 
L 54.390625 34.71875 
L 19.671875 34.71875 
L 19.671875 8.296875 
L 56.78125 8.296875 
L 56.78125 0 
L 9.8125 0 
z
" id="DejaVuSans-45"/>
      <path d="M 41.109375 46.296875 
Q 39.59375 47.171875 37.8125 47.578125 
Q 36.03125 48 33.890625 48 
Q 26.265625 48 22.1875 43.046875 
Q 18.109375 38.09375 18.109375 28.8125 
L 18.109375 0 
L 9.078125 0 
L 9.078125 54.6875 
L 18.109375 54.6875 
L 18.109375 46.1875 
Q 20.953125 51.171875 25.484375 53.578125 
Q 30.03125 56 36.53125 56 
Q 37.453125 56 38.578125 55.875 
Q 39.703125 55.765625 41.0625 55.515625 
z
" id="DejaVuSans-72"/>
      <path d="M 45.40625 27.984375 
Q 45.40625 37.75 41.375 43.109375 
Q 37.359375 48.484375 30.078125 48.484375 
Q 22.859375 48.484375 18.828125 43.109375 
Q 14.796875 37.75 14.796875 27.984375 
Q 14.796875 18.265625 18.828125 12.890625 
Q 22.859375 7.515625 30.078125 7.515625 
Q 37.359375 7.515625 41.375 12.890625 
Q 45.40625 18.265625 45.40625 27.984375 
z
M 54.390625 6.78125 
Q 54.390625 -7.171875 48.1875 -13.984375 
Q 42 -20.796875 29.203125 -20.796875 
Q 24.46875 -20.796875 20.265625 -20.09375 
Q 16.0625 -19.390625 12.109375 -17.921875 
L 12.109375 -9.1875 
Q 16.0625 -11.328125 19.921875 -12.34375 
Q 23.78125 -13.375 27.78125 -13.375 
Q 36.625 -13.375 41.015625 -8.765625 
Q 45.40625 -4.15625 45.40625 5.171875 
L 45.40625 9.625 
Q 42.625 4.78125 38.28125 2.390625 
Q 33.9375 0 27.875 0 
Q 17.828125 0 11.671875 7.65625 
Q 5.515625 15.328125 5.515625 27.984375 
Q 5.515625 40.671875 11.671875 48.328125 
Q 17.828125 56 27.875 56 
Q 33.9375 56 38.28125 53.609375 
Q 42.625 51.21875 45.40625 46.390625 
L 45.40625 54.6875 
L 54.390625 54.6875 
z
" id="DejaVuSans-67"/>
      <path d="M 8.59375 75.984375 
L 29.296875 75.984375 
L 29.296875 69 
L 17.578125 69 
L 17.578125 -6.203125 
L 29.296875 -6.203125 
L 29.296875 -13.1875 
L 8.59375 -13.1875 
z
" id="DejaVuSans-5b"/>
      <path d="M 9.8125 72.90625 
L 24.515625 72.90625 
L 43.109375 23.296875 
L 61.8125 72.90625 
L 76.515625 72.90625 
L 76.515625 0 
L 66.890625 0 
L 66.890625 64.015625 
L 48.09375 14.015625 
L 38.1875 14.015625 
L 19.390625 64.015625 
L 19.390625 0 
L 9.8125 0 
z
" id="DejaVuSans-4d"/>
      <path d="M 28.609375 0 
L 0.78125 72.90625 
L 11.078125 72.90625 
L 34.1875 11.53125 
L 57.328125 72.90625 
L 67.578125 72.90625 
L 39.796875 0 
z
" id="DejaVuSans-56"/>
      <path d="M 30.421875 75.984375 
L 30.421875 -13.1875 
L 9.71875 -13.1875 
L 9.71875 -6.203125 
L 21.390625 -6.203125 
L 21.390625 69 
L 9.71875 69 
L 9.71875 75.984375 
z
" id="DejaVuSans-5d"/>
     </defs>
     <g transform="translate(191.078203 347.954844)scale(0.15 -0.15)">
      <use xlink:href="#DejaVuSans-45"/>
      <use x="63.183594" xlink:href="#DejaVuSans-6e"/>
      <use x="126.5625" xlink:href="#DejaVuSans-65"/>
      <use x="188.085938" xlink:href="#DejaVuSans-72"/>
      <use x="229.183594" xlink:href="#DejaVuSans-67"/>
      <use x="292.660156" xlink:href="#DejaVuSans-79"/>
      <use x="351.839844" xlink:href="#DejaVuSans-20"/>
      <use x="383.626953" xlink:href="#DejaVuSans-5b"/>
      <use x="422.640625" xlink:href="#DejaVuSans-4d"/>
      <use x="508.919922" xlink:href="#DejaVuSans-65"/>
      <use x="570.443359" xlink:href="#DejaVuSans-56"/>
      <use x="638.851562" xlink:href="#DejaVuSans-5d"/>
     </g>
    </g>
   </g>
   <g id="matplotlib.axis_4">
    <g id="ytick_5">
     <g id="line2d_19">
      <g>
       <use style="stroke:#000000;stroke-width:0.8;" x="69.12" xlink:href="#mda67ae5a04" y="287.669677"/>
      </g>
     </g>
     <g id="text_13">
      <!-- 100 -->
      <g transform="translate(33.48875 293.368506)scale(0.15 -0.15)">
       <use xlink:href="#DejaVuSans-31"/>
       <use x="63.623047" xlink:href="#DejaVuSans-30"/>
       <use x="127.246094" xlink:href="#DejaVuSans-30"/>
      </g>
     </g>
    </g>
    <g id="ytick_6">
     <g id="line2d_20">
      <g>
       <use style="stroke:#000000;stroke-width:0.8;" x="69.12" xlink:href="#mda67ae5a04" y="246.379355"/>
      </g>
     </g>
     <g id="text_14">
      <!-- 150 -->
      <g transform="translate(33.48875 252.078183)scale(0.15 -0.15)">
       <use xlink:href="#DejaVuSans-31"/>
       <use x="63.623047" xlink:href="#DejaVuSans-35"/>
       <use x="127.246094" xlink:href="#DejaVuSans-30"/>
      </g>
     </g>
    </g>
    <g id="ytick_7">
     <g id="line2d_21">
      <g>
       <use style="stroke:#000000;stroke-width:0.8;" x="69.12" xlink:href="#mda67ae5a04" y="205.089032"/>
      </g>
     </g>
     <g id="text_15">
      <!-- 200 -->
      <g transform="translate(33.48875 210.78786)scale(0.15 -0.15)">
       <use xlink:href="#DejaVuSans-32"/>
       <use x="63.623047" xlink:href="#DejaVuSans-30"/>
       <use x="127.246094" xlink:href="#DejaVuSans-30"/>
      </g>
     </g>
    </g>
    <g id="ytick_8">
     <g id="line2d_22">
      <g>
       <use style="stroke:#000000;stroke-width:0.8;" x="69.12" xlink:href="#mda67ae5a04" y="163.79871"/>
      </g>
     </g>
     <g id="text_16">
      <!-- 250 -->
      <g transform="translate(33.48875 169.497538)scale(0.15 -0.15)">
       <use xlink:href="#DejaVuSans-32"/>
       <use x="63.623047" xlink:href="#DejaVuSans-35"/>
       <use x="127.246094" xlink:href="#DejaVuSans-30"/>
      </g>
     </g>
    </g>
    <g id="ytick_9">
     <g id="line2d_23">
      <g>
       <use style="stroke:#000000;stroke-width:0.8;" x="69.12" xlink:href="#mda67ae5a04" y="122.508387"/>
      </g>
     </g>
     <g id="text_17">
      <!-- 300 -->
      <g transform="translate(33.48875 128.207215)scale(0.15 -0.15)">
       <use xlink:href="#DejaVuSans-33"/>
       <use x="63.623047" xlink:href="#DejaVuSans-30"/>
       <use x="127.246094" xlink:href="#DejaVuSans-30"/>
      </g>
     </g>
    </g>
    <g id="text_18">
     <!-- Counts -->
     <defs>
      <path d="M 64.40625 67.28125 
L 64.40625 56.890625 
Q 59.421875 61.53125 53.78125 63.8125 
Q 48.140625 66.109375 41.796875 66.109375 
Q 29.296875 66.109375 22.65625 58.46875 
Q 16.015625 50.828125 16.015625 36.375 
Q 16.015625 21.96875 22.65625 14.328125 
Q 29.296875 6.6875 41.796875 6.6875 
Q 48.140625 6.6875 53.78125 8.984375 
Q 59.421875 11.28125 64.40625 15.921875 
L 64.40625 5.609375 
Q 59.234375 2.09375 53.4375 0.328125 
Q 47.65625 -1.421875 41.21875 -1.421875 
Q 24.65625 -1.421875 15.125 8.703125 
Q 5.609375 18.84375 5.609375 36.375 
Q 5.609375 53.953125 15.125 64.078125 
Q 24.65625 74.21875 41.21875 74.21875 
Q 47.75 74.21875 53.53125 72.484375 
Q 59.328125 70.75 64.40625 67.28125 
z
" id="DejaVuSans-43"/>
     </defs>
     <g transform="translate(26.369219 233.539687)rotate(-90)scale(0.15 -0.15)">
      <use xlink:href="#DejaVuSans-43"/>
      <use x="69.824219" xlink:href="#DejaVuSans-6f"/>
      <use x="131.005859" xlink:href="#DejaVuSans-75"/>
      <use x="194.384766" xlink:href="#DejaVuSans-6e"/>
      <use x="257.763672" xlink:href="#DejaVuSans-74"/>
      <use x="296.972656" xlink:href="#DejaVuSans-73"/>
     </g>
    </g>
   </g>
   <g id="LineCollection_2">
    <path clip-path="url(#p414e933e7f)" d="M 81.92 308.451222 
L 81.92 293.313939 
" style="fill:none;stroke:#0000ff;stroke-width:1.5;"/>
    <path clip-path="url(#p414e933e7f)" d="M 89.192727 308.060811 
L 89.192727 292.878544 
" style="fill:none;stroke:#0000ff;stroke-width:1.5;"/>
    <path clip-path="url(#p414e933e7f)" d="M 92.829091 308.451222 
L 92.829091 293.313939 
" style="fill:none;stroke:#0000ff;stroke-width:1.5;"/>
    <path clip-path="url(#p414e933e7f)" d="M 96.465455 301.414112 
L 96.465455 285.486534 
" style="fill:none;stroke:#0000ff;stroke-width:1.5;"/>
    <path clip-path="url(#p414e933e7f)" d="M 100.101818 299.064121 
L 100.101818 282.881685 
" style="fill:none;stroke:#0000ff;stroke-width:1.5;"/>
    <path clip-path="url(#p414e933e7f)" d="M 103.738182 290.038273 
L 103.738182 272.913986 
" style="fill:none;stroke:#0000ff;stroke-width:1.5;"/>
    <path clip-path="url(#p414e933e7f)" d="M 107.374545 285.319133 
L 107.374545 267.723447 
" style="fill:none;stroke:#0000ff;stroke-width:1.5;"/>
    <path clip-path="url(#p414e933e7f)" d="M 111.010909 290.038273 
L 111.010909 272.913986 
" style="fill:none;stroke:#0000ff;stroke-width:1.5;"/>
    <path clip-path="url(#p414e933e7f)" d="M 114.647273 293.180693 
L 114.647273 276.378017 
" style="fill:none;stroke:#0000ff;stroke-width:1.5;"/>
    <path clip-path="url(#p414e933e7f)" d="M 118.283636 269.941729 
L 118.283636 250.8944 
" style="fill:none;stroke:#0000ff;stroke-width:1.5;"/>
    <path clip-path="url(#p414e933e7f)" d="M 121.92 278.623266 
L 121.92 260.380605 
" style="fill:none;stroke:#0000ff;stroke-width:1.5;"/>
    <path clip-path="url(#p414e933e7f)" d="M 125.556364 273.100649 
L 125.556364 254.341932 
" style="fill:none;stroke:#0000ff;stroke-width:1.5;"/>
    <path clip-path="url(#p414e933e7f)" d="M 129.192727 274.679269 
L 129.192727 256.066537 
" style="fill:none;stroke:#0000ff;stroke-width:1.5;"/>
    <path clip-path="url(#p414e933e7f)" d="M 132.829091 272.705905 
L 132.829091 253.910869 
" style="fill:none;stroke:#0000ff;stroke-width:1.5;"/>
    <path clip-path="url(#p414e933e7f)" d="M 136.465455 269.546711 
L 136.465455 250.463612 
" style="fill:none;stroke:#0000ff;stroke-width:1.5;"/>
    <path clip-path="url(#p414e933e7f)" d="M 140.101818 257.285414 
L 140.101818 237.124909 
" style="fill:none;stroke:#0000ff;stroke-width:1.5;"/>
    <path clip-path="url(#p414e933e7f)" d="M 143.738182 262.430833 
L 143.738182 242.714974 
" style="fill:none;stroke:#0000ff;stroke-width:1.5;"/>
    <path clip-path="url(#p414e933e7f)" d="M 147.374545 254.116597 
L 147.374545 233.687274 
" style="fill:none;stroke:#0000ff;stroke-width:1.5;"/>
    <path clip-path="url(#p414e933e7f)" d="M 151.010909 230.696676 
L 151.010909 208.384614 
" style="fill:none;stroke:#0000ff;stroke-width:1.5;"/>
    <path clip-path="url(#p414e933e7f)" d="M 154.647273 240.233344 
L 154.647273 218.667301 
" style="fill:none;stroke:#0000ff;stroke-width:1.5;"/>
    <path clip-path="url(#p414e933e7f)" d="M 158.283636 237.453135 
L 158.283636 215.666865 
" style="fill:none;stroke:#0000ff;stroke-width:1.5;"/>
    <path clip-path="url(#p414e933e7f)" d="M 161.92 229.106025 
L 161.92 206.672039 
" style="fill:none;stroke:#0000ff;stroke-width:1.5;"/>
    <path clip-path="url(#p414e933e7f)" d="M 165.556364 227.912821 
L 165.556364 205.387824 
" style="fill:none;stroke:#0000ff;stroke-width:1.5;"/>
    <path clip-path="url(#p414e933e7f)" d="M 169.192727 223.934163 
L 169.192727 201.108418 
" style="fill:none;stroke:#0000ff;stroke-width:1.5;"/>
    <path clip-path="url(#p414e933e7f)" d="M 172.829091 233.082022 
L 172.829091 210.954107 
" style="fill:none;stroke:#0000ff;stroke-width:1.5;"/>
    <path clip-path="url(#p414e933e7f)" d="M 176.465455 224.332118 
L 176.465455 201.536269 
" style="fill:none;stroke:#0000ff;stroke-width:1.5;"/>
    <path clip-path="url(#p414e933e7f)" d="M 180.101818 198.028318 
L 180.101818 173.336843 
" style="fill:none;stroke:#0000ff;stroke-width:1.5;"/>
    <path clip-path="url(#p414e933e7f)" d="M 183.738182 194.435856 
L 183.738182 169.497048 
" style="fill:none;stroke:#0000ff;stroke-width:1.5;"/>
    <path clip-path="url(#p414e933e7f)" d="M 187.374545 195.63348 
L 187.374545 170.776843 
" style="fill:none;stroke:#0000ff;stroke-width:1.5;"/>
    <path clip-path="url(#p414e933e7f)" d="M 191.010909 179.254696 
L 191.010909 153.297562 
" style="fill:none;stroke:#0000ff;stroke-width:1.5;"/>
    <path clip-path="url(#p414e933e7f)" d="M 194.647273 184.450529 
L 194.647273 158.837213 
" style="fill:none;stroke:#0000ff;stroke-width:1.5;"/>
    <path clip-path="url(#p414e933e7f)" d="M 198.283636 188.84518 
L 198.283636 163.526433 
" style="fill:none;stroke:#0000ff;stroke-width:1.5;"/>
    <path clip-path="url(#p414e933e7f)" d="M 201.92 176.855856 
L 201.92 150.741563 
" style="fill:none;stroke:#0000ff;stroke-width:1.5;"/>
    <path clip-path="url(#p414e933e7f)" d="M 205.556364 178.055335 
L 205.556364 152.019503 
" style="fill:none;stroke:#0000ff;stroke-width:1.5;"/>
    <path clip-path="url(#p414e933e7f)" d="M 209.192727 181.653058 
L 209.192727 155.854039 
" style="fill:none;stroke:#0000ff;stroke-width:1.5;"/>
    <path clip-path="url(#p414e933e7f)" d="M 212.829091 182.052737 
L 212.829091 156.280166 
" style="fill:none;stroke:#0000ff;stroke-width:1.5;"/>
    <path clip-path="url(#p414e933e7f)" d="M 216.465455 143.627042 
L 216.465455 115.428442 
" style="fill:none;stroke:#0000ff;stroke-width:1.5;"/>
    <path clip-path="url(#p414e933e7f)" d="M 220.101818 172.056774 
L 220.101818 145.630968 
" style="fill:none;stroke:#0000ff;stroke-width:1.5;"/>
    <path clip-path="url(#p414e933e7f)" d="M 223.738182 168.05615 
L 223.738182 141.373527 
" style="fill:none;stroke:#0000ff;stroke-width:1.5;"/>
    <path clip-path="url(#p414e933e7f)" d="M 227.374545 144.027848 
L 227.374545 115.853442 
" style="fill:none;stroke:#0000ff;stroke-width:1.5;"/>
    <path clip-path="url(#p414e933e7f)" d="M 231.010909 150.038675 
L 231.010909 122.229712 
" style="fill:none;stroke:#0000ff;stroke-width:1.5;"/>
    <path clip-path="url(#p414e933e7f)" d="M 234.647273 142.023714 
L 234.647273 113.728544 
" style="fill:none;stroke:#0000ff;stroke-width:1.5;"/>
    <path clip-path="url(#p414e933e7f)" d="M 238.283636 156.44754 
L 238.283636 129.033751 
" style="fill:none;stroke:#0000ff;stroke-width:1.5;"/>
    <path clip-path="url(#p414e933e7f)" d="M 241.92 153.243461 
L 241.92 125.631378 
" style="fill:none;stroke:#0000ff;stroke-width:1.5;"/>
    <path clip-path="url(#p414e933e7f)" d="M 245.556364 131.999261 
L 245.556364 103.107835 
" style="fill:none;stroke:#0000ff;stroke-width:1.5;"/>
    <path clip-path="url(#p414e933e7f)" d="M 249.192727 139.217497 
L 249.192727 110.754116 
" style="fill:none;stroke:#0000ff;stroke-width:1.5;"/>
    <path clip-path="url(#p414e933e7f)" d="M 252.829091 138.816568 
L 252.829091 110.329238 
" style="fill:none;stroke:#0000ff;stroke-width:1.5;"/>
    <path clip-path="url(#p414e933e7f)" d="M 256.465455 125.981672 
L 256.465455 96.738328 
" style="fill:none;stroke:#0000ff;stroke-width:1.5;"/>
    <path clip-path="url(#p414e933e7f)" d="M 260.101818 128.388963 
L 260.101818 99.285875 
" style="fill:none;stroke:#0000ff;stroke-width:1.5;"/>
    <path clip-path="url(#p414e933e7f)" d="M 263.738182 153.64401 
L 263.738182 126.056635 
" style="fill:none;stroke:#0000ff;stroke-width:1.5;"/>
    <path clip-path="url(#p414e933e7f)" d="M 267.374545 146.031721 
L 267.374545 117.978601 
" style="fill:none;stroke:#0000ff;stroke-width:1.5;"/>
    <path clip-path="url(#p414e933e7f)" d="M 271.010909 143.226226 
L 271.010909 115.003452 
" style="fill:none;stroke:#0000ff;stroke-width:1.5;"/>
    <path clip-path="url(#p414e933e7f)" d="M 274.647273 149.638028 
L 274.647273 121.804553 
" style="fill:none;stroke:#0000ff;stroke-width:1.5;"/>
    <path clip-path="url(#p414e933e7f)" d="M 278.283636 130.39478 
L 278.283636 101.409091 
" style="fill:none;stroke:#0000ff;stroke-width:1.5;"/>
    <path clip-path="url(#p414e933e7f)" d="M 281.92 155.246094 
L 281.92 127.757777 
" style="fill:none;stroke:#0000ff;stroke-width:1.5;"/>
    <path clip-path="url(#p414e933e7f)" d="M 285.556364 148.035332 
L 285.556364 120.104023 
" style="fill:none;stroke:#0000ff;stroke-width:1.5;"/>
    <path clip-path="url(#p414e933e7f)" d="M 289.192727 140.019324 
L 289.192727 111.603901 
" style="fill:none;stroke:#0000ff;stroke-width:1.5;"/>
    <path clip-path="url(#p414e933e7f)" d="M 292.829091 144.829429 
L 292.829091 116.703474 
" style="fill:none;stroke:#0000ff;stroke-width:1.5;"/>
    <path clip-path="url(#p414e933e7f)" d="M 296.465455 158.449723 
L 296.465455 131.160599 
" style="fill:none;stroke:#0000ff;stroke-width:1.5;"/>
    <path clip-path="url(#p414e933e7f)" d="M 300.101818 159.250517 
L 300.101818 132.011419 
" style="fill:none;stroke:#0000ff;stroke-width:1.5;"/>
    <path clip-path="url(#p414e933e7f)" d="M 303.738182 176.056138 
L 303.738182 149.889669 
" style="fill:none;stroke:#0000ff;stroke-width:1.5;"/>
    <path clip-path="url(#p414e933e7f)" d="M 307.374545 183.65132 
L 307.374545 157.984809 
" style="fill:none;stroke:#0000ff;stroke-width:1.5;"/>
    <path clip-path="url(#p414e933e7f)" d="M 311.010909 164.454541 
L 311.010909 137.542878 
" style="fill:none;stroke:#0000ff;stroke-width:1.5;"/>
    <path clip-path="url(#p414e933e7f)" d="M 314.647273 195.234287 
L 314.647273 170.350229 
" style="fill:none;stroke:#0000ff;stroke-width:1.5;"/>
    <path clip-path="url(#p414e933e7f)" d="M 318.283636 194.835079 
L 318.283636 169.923631 
" style="fill:none;stroke:#0000ff;stroke-width:1.5;"/>
    <path clip-path="url(#p414e933e7f)" d="M 321.92 180.453937 
L 321.92 154.57574 
" style="fill:none;stroke:#0000ff;stroke-width:1.5;"/>
    <path clip-path="url(#p414e933e7f)" d="M 325.556364 193.637364 
L 325.556364 168.643926 
" style="fill:none;stroke:#0000ff;stroke-width:1.5;"/>
    <path clip-path="url(#p414e933e7f)" d="M 329.192727 211.986746 
L 329.192727 188.281641 
" style="fill:none;stroke:#0000ff;stroke-width:1.5;"/>
    <path clip-path="url(#p414e933e7f)" d="M 332.829091 217.564272 
L 332.829091 194.265405 
" style="fill:none;stroke:#0000ff;stroke-width:1.5;"/>
    <path clip-path="url(#p414e933e7f)" d="M 336.465455 206.007031 
L 336.465455 181.874259 
" style="fill:none;stroke:#0000ff;stroke-width:1.5;"/>
    <path clip-path="url(#p414e933e7f)" d="M 340.101818 210.79111 
L 340.101818 186.999857 
" style="fill:none;stroke:#0000ff;stroke-width:1.5;"/>
    <path clip-path="url(#p414e933e7f)" d="M 343.738182 229.503719 
L 343.738182 207.100152 
" style="fill:none;stroke:#0000ff;stroke-width:1.5;"/>
    <path clip-path="url(#p414e933e7f)" d="M 347.374545 233.876967 
L 347.374545 211.810775 
" style="fill:none;stroke:#0000ff;stroke-width:1.5;"/>
    <path clip-path="url(#p414e933e7f)" d="M 351.010909 228.310576 
L 351.010909 205.815875 
" style="fill:none;stroke:#0000ff;stroke-width:1.5;"/>
    <path clip-path="url(#p414e933e7f)" d="M 354.647273 258.473255 
L 354.647273 238.414486 
" style="fill:none;stroke:#0000ff;stroke-width:1.5;"/>
    <path clip-path="url(#p414e933e7f)" d="M 358.283636 243.409332 
L 358.283636 222.097765 
" style="fill:none;stroke:#0000ff;stroke-width:1.5;"/>
    <path clip-path="url(#p414e933e7f)" d="M 361.92 252.135196 
L 361.92 231.539643 
" style="fill:none;stroke:#0000ff;stroke-width:1.5;"/>
    <path clip-path="url(#p414e933e7f)" d="M 365.556364 256.097316 
L 365.556364 235.835587 
" style="fill:none;stroke:#0000ff;stroke-width:1.5;"/>
    <path clip-path="url(#p414e933e7f)" d="M 369.192727 279.805728 
L 369.192727 261.675562 
" style="fill:none;stroke:#0000ff;stroke-width:1.5;"/>
    <path clip-path="url(#p414e933e7f)" d="M 372.829091 276.651732 
L 372.829091 258.223107 
" style="fill:none;stroke:#0000ff;stroke-width:1.5;"/>
    <path clip-path="url(#p414e933e7f)" d="M 376.465455 286.892888 
L 376.465455 269.452919 
" style="fill:none;stroke:#0000ff;stroke-width:1.5;"/>
    <path clip-path="url(#p414e933e7f)" d="M 380.101818 284.138368 
L 380.101818 266.426793 
" style="fill:none;stroke:#0000ff;stroke-width:1.5;"/>
    <path clip-path="url(#p414e933e7f)" d="M 383.738182 289.645258 
L 383.738182 272.481193 
" style="fill:none;stroke:#0000ff;stroke-width:1.5;"/>
    <path clip-path="url(#p414e933e7f)" d="M 387.374545 297.104282 
L 387.374545 280.712492 
" style="fill:none;stroke:#0000ff;stroke-width:1.5;"/>
    <path clip-path="url(#p414e933e7f)" d="M 391.010909 304.153141 
L 391.010909 288.52815 
" style="fill:none;stroke:#0000ff;stroke-width:1.5;"/>
    <path clip-path="url(#p414e933e7f)" d="M 394.647273 305.71697 
L 394.647273 290.267546 
" style="fill:none;stroke:#0000ff;stroke-width:1.5;"/>
    <path clip-path="url(#p414e933e7f)" d="M 401.92 310.792258 
L 401.92 295.927742 
" style="fill:none;stroke:#0000ff;stroke-width:1.5;"/>
   </g>
   <g id="line2d_24">
    <path clip-path="url(#p414e933e7f)" d="M 81.92 307.63111 
L 86.724805 304.710471 
L 91.209289 301.728927 
L 95.693774 298.490407 
L 100.178258 294.986337 
L 104.662743 291.209746 
L 109.147227 287.155543 
L 113.952032 282.500386 
L 118.756837 277.522645 
L 123.561642 272.225296 
L 128.686767 266.230286 
L 133.811892 259.892954 
L 139.257337 252.806014 
L 145.023103 244.938516 
L 151.42951 235.812964 
L 158.796877 224.916351 
L 168.726807 209.791014 
L 185.703784 183.893503 
L 192.750831 173.600162 
L 198.516597 165.570213 
L 203.641722 158.817377 
L 208.126206 153.263495 
L 212.29037 148.444618 
L 216.134214 144.316478 
L 219.978058 140.522172 
L 223.501582 137.357945 
L 226.704785 134.756826 
L 229.907988 132.430211 
L 233.111191 130.388706 
L 235.994074 128.802893 
L 238.876957 127.461566 
L 241.75984 126.369769 
L 244.642723 125.531625 
L 247.205285 125.002142 
L 249.767848 124.677188 
L 252.33041 124.55774 
L 254.892973 124.644158 
L 257.455536 124.93618 
L 260.018098 125.43293 
L 262.900981 126.234607 
L 265.783864 127.290449 
L 268.666747 128.596467 
L 271.54963 130.147745 
L 274.432513 131.938471 
L 277.635716 134.200861 
L 280.838919 136.740282 
L 284.362442 139.83986 
L 287.885966 143.243906 
L 291.72981 147.283189 
L 295.573654 151.637698 
L 299.737818 156.679559 
L 304.222302 162.44647 
L 309.347427 169.40709 
L 315.113193 177.624274 
L 322.16024 188.079245 
L 332.41049 203.737572 
L 347.465546 226.700903 
L 355.153233 237.997607 
L 361.55964 247.033702 
L 367.325405 254.807006 
L 372.770851 261.795481 
L 377.895976 268.033644 
L 383.021101 273.92493 
L 387.825906 279.12234 
L 392.630711 283.998807 
L 397.435516 288.552496 
L 401.92 292.51274 
L 401.92 292.51274 
" style="fill:none;stroke:#ff0000;stroke-linecap:square;stroke-width:1.5;"/>
   </g>
   <g id="line2d_25">
    <g clip-path="url(#p414e933e7f)">
     <use style="fill:#0000ff;stroke:#0000ff;" x="81.92" xlink:href="#m15c8bed748" y="300.882581"/>
     <use style="fill:#0000ff;stroke:#0000ff;" x="89.192727" xlink:href="#m15c8bed748" y="300.469677"/>
     <use style="fill:#0000ff;stroke:#0000ff;" x="92.829091" xlink:href="#m15c8bed748" y="300.882581"/>
     <use style="fill:#0000ff;stroke:#0000ff;" x="96.465455" xlink:href="#m15c8bed748" y="293.450323"/>
     <use style="fill:#0000ff;stroke:#0000ff;" x="100.101818" xlink:href="#m15c8bed748" y="290.972903"/>
     <use style="fill:#0000ff;stroke:#0000ff;" x="103.738182" xlink:href="#m15c8bed748" y="281.476129"/>
     <use style="fill:#0000ff;stroke:#0000ff;" x="107.374545" xlink:href="#m15c8bed748" y="276.52129"/>
     <use style="fill:#0000ff;stroke:#0000ff;" x="111.010909" xlink:href="#m15c8bed748" y="281.476129"/>
     <use style="fill:#0000ff;stroke:#0000ff;" x="114.647273" xlink:href="#m15c8bed748" y="284.779355"/>
     <use style="fill:#0000ff;stroke:#0000ff;" x="118.283636" xlink:href="#m15c8bed748" y="260.418065"/>
     <use style="fill:#0000ff;stroke:#0000ff;" x="121.92" xlink:href="#m15c8bed748" y="269.501935"/>
     <use style="fill:#0000ff;stroke:#0000ff;" x="125.556364" xlink:href="#m15c8bed748" y="263.72129"/>
     <use style="fill:#0000ff;stroke:#0000ff;" x="129.192727" xlink:href="#m15c8bed748" y="265.372903"/>
     <use style="fill:#0000ff;stroke:#0000ff;" x="132.829091" xlink:href="#m15c8bed748" y="263.308387"/>
     <use style="fill:#0000ff;stroke:#0000ff;" x="136.465455" xlink:href="#m15c8bed748" y="260.005161"/>
     <use style="fill:#0000ff;stroke:#0000ff;" x="140.101818" xlink:href="#m15c8bed748" y="247.205161"/>
     <use style="fill:#0000ff;stroke:#0000ff;" x="143.738182" xlink:href="#m15c8bed748" y="252.572903"/>
     <use style="fill:#0000ff;stroke:#0000ff;" x="147.374545" xlink:href="#m15c8bed748" y="243.901935"/>
     <use style="fill:#0000ff;stroke:#0000ff;" x="151.010909" xlink:href="#m15c8bed748" y="219.540645"/>
     <use style="fill:#0000ff;stroke:#0000ff;" x="154.647273" xlink:href="#m15c8bed748" y="229.450323"/>
     <use style="fill:#0000ff;stroke:#0000ff;" x="158.283636" xlink:href="#m15c8bed748" y="226.56"/>
     <use style="fill:#0000ff;stroke:#0000ff;" x="161.92" xlink:href="#m15c8bed748" y="217.889032"/>
     <use style="fill:#0000ff;stroke:#0000ff;" x="165.556364" xlink:href="#m15c8bed748" y="216.650323"/>
     <use style="fill:#0000ff;stroke:#0000ff;" x="169.192727" xlink:href="#m15c8bed748" y="212.52129"/>
     <use style="fill:#0000ff;stroke:#0000ff;" x="172.829091" xlink:href="#m15c8bed748" y="222.018065"/>
     <use style="fill:#0000ff;stroke:#0000ff;" x="176.465455" xlink:href="#m15c8bed748" y="212.934194"/>
     <use style="fill:#0000ff;stroke:#0000ff;" x="180.101818" xlink:href="#m15c8bed748" y="185.682581"/>
     <use style="fill:#0000ff;stroke:#0000ff;" x="183.738182" xlink:href="#m15c8bed748" y="181.966452"/>
     <use style="fill:#0000ff;stroke:#0000ff;" x="187.374545" xlink:href="#m15c8bed748" y="183.205161"/>
     <use style="fill:#0000ff;stroke:#0000ff;" x="191.010909" xlink:href="#m15c8bed748" y="166.276129"/>
     <use style="fill:#0000ff;stroke:#0000ff;" x="194.647273" xlink:href="#m15c8bed748" y="171.643871"/>
     <use style="fill:#0000ff;stroke:#0000ff;" x="198.283636" xlink:href="#m15c8bed748" y="176.185806"/>
     <use style="fill:#0000ff;stroke:#0000ff;" x="201.92" xlink:href="#m15c8bed748" y="163.79871"/>
     <use style="fill:#0000ff;stroke:#0000ff;" x="205.556364" xlink:href="#m15c8bed748" y="165.037419"/>
     <use style="fill:#0000ff;stroke:#0000ff;" x="209.192727" xlink:href="#m15c8bed748" y="168.753548"/>
     <use style="fill:#0000ff;stroke:#0000ff;" x="212.829091" xlink:href="#m15c8bed748" y="169.166452"/>
     <use style="fill:#0000ff;stroke:#0000ff;" x="216.465455" xlink:href="#m15c8bed748" y="129.527742"/>
     <use style="fill:#0000ff;stroke:#0000ff;" x="220.101818" xlink:href="#m15c8bed748" y="158.843871"/>
     <use style="fill:#0000ff;stroke:#0000ff;" x="223.738182" xlink:href="#m15c8bed748" y="154.714839"/>
     <use style="fill:#0000ff;stroke:#0000ff;" x="227.374545" xlink:href="#m15c8bed748" y="129.940645"/>
     <use style="fill:#0000ff;stroke:#0000ff;" x="231.010909" xlink:href="#m15c8bed748" y="136.134194"/>
     <use style="fill:#0000ff;stroke:#0000ff;" x="234.647273" xlink:href="#m15c8bed748" y="127.876129"/>
     <use style="fill:#0000ff;stroke:#0000ff;" x="238.283636" xlink:href="#m15c8bed748" y="142.740645"/>
     <use style="fill:#0000ff;stroke:#0000ff;" x="241.92" xlink:href="#m15c8bed748" y="139.437419"/>
     <use style="fill:#0000ff;stroke:#0000ff;" x="245.556364" xlink:href="#m15c8bed748" y="117.553548"/>
     <use style="fill:#0000ff;stroke:#0000ff;" x="249.192727" xlink:href="#m15c8bed748" y="124.985806"/>
     <use style="fill:#0000ff;stroke:#0000ff;" x="252.829091" xlink:href="#m15c8bed748" y="124.572903"/>
     <use style="fill:#0000ff;stroke:#0000ff;" x="256.465455" xlink:href="#m15c8bed748" y="111.36"/>
     <use style="fill:#0000ff;stroke:#0000ff;" x="260.101818" xlink:href="#m15c8bed748" y="113.837419"/>
     <use style="fill:#0000ff;stroke:#0000ff;" x="263.738182" xlink:href="#m15c8bed748" y="139.850323"/>
     <use style="fill:#0000ff;stroke:#0000ff;" x="267.374545" xlink:href="#m15c8bed748" y="132.005161"/>
     <use style="fill:#0000ff;stroke:#0000ff;" x="271.010909" xlink:href="#m15c8bed748" y="129.114839"/>
     <use style="fill:#0000ff;stroke:#0000ff;" x="274.647273" xlink:href="#m15c8bed748" y="135.72129"/>
     <use style="fill:#0000ff;stroke:#0000ff;" x="278.283636" xlink:href="#m15c8bed748" y="115.901935"/>
     <use style="fill:#0000ff;stroke:#0000ff;" x="281.92" xlink:href="#m15c8bed748" y="141.501935"/>
     <use style="fill:#0000ff;stroke:#0000ff;" x="285.556364" xlink:href="#m15c8bed748" y="134.069677"/>
     <use style="fill:#0000ff;stroke:#0000ff;" x="289.192727" xlink:href="#m15c8bed748" y="125.811613"/>
     <use style="fill:#0000ff;stroke:#0000ff;" x="292.829091" xlink:href="#m15c8bed748" y="130.766452"/>
     <use style="fill:#0000ff;stroke:#0000ff;" x="296.465455" xlink:href="#m15c8bed748" y="144.805161"/>
     <use style="fill:#0000ff;stroke:#0000ff;" x="300.101818" xlink:href="#m15c8bed748" y="145.630968"/>
     <use style="fill:#0000ff;stroke:#0000ff;" x="303.738182" xlink:href="#m15c8bed748" y="162.972903"/>
     <use style="fill:#0000ff;stroke:#0000ff;" x="307.374545" xlink:href="#m15c8bed748" y="170.818065"/>
     <use style="fill:#0000ff;stroke:#0000ff;" x="311.010909" xlink:href="#m15c8bed748" y="150.99871"/>
     <use style="fill:#0000ff;stroke:#0000ff;" x="314.647273" xlink:href="#m15c8bed748" y="182.792258"/>
     <use style="fill:#0000ff;stroke:#0000ff;" x="318.283636" xlink:href="#m15c8bed748" y="182.379355"/>
     <use style="fill:#0000ff;stroke:#0000ff;" x="321.92" xlink:href="#m15c8bed748" y="167.514839"/>
     <use style="fill:#0000ff;stroke:#0000ff;" x="325.556364" xlink:href="#m15c8bed748" y="181.140645"/>
     <use style="fill:#0000ff;stroke:#0000ff;" x="329.192727" xlink:href="#m15c8bed748" y="200.134194"/>
     <use style="fill:#0000ff;stroke:#0000ff;" x="332.829091" xlink:href="#m15c8bed748" y="205.914839"/>
     <use style="fill:#0000ff;stroke:#0000ff;" x="336.465455" xlink:href="#m15c8bed748" y="193.940645"/>
     <use style="fill:#0000ff;stroke:#0000ff;" x="340.101818" xlink:href="#m15c8bed748" y="198.895484"/>
     <use style="fill:#0000ff;stroke:#0000ff;" x="343.738182" xlink:href="#m15c8bed748" y="218.301935"/>
     <use style="fill:#0000ff;stroke:#0000ff;" x="347.374545" xlink:href="#m15c8bed748" y="222.843871"/>
     <use style="fill:#0000ff;stroke:#0000ff;" x="351.010909" xlink:href="#m15c8bed748" y="217.063226"/>
     <use style="fill:#0000ff;stroke:#0000ff;" x="354.647273" xlink:href="#m15c8bed748" y="248.443871"/>
     <use style="fill:#0000ff;stroke:#0000ff;" x="358.283636" xlink:href="#m15c8bed748" y="232.753548"/>
     <use style="fill:#0000ff;stroke:#0000ff;" x="361.92" xlink:href="#m15c8bed748" y="241.837419"/>
     <use style="fill:#0000ff;stroke:#0000ff;" x="365.556364" xlink:href="#m15c8bed748" y="245.966452"/>
     <use style="fill:#0000ff;stroke:#0000ff;" x="369.192727" xlink:href="#m15c8bed748" y="270.740645"/>
     <use style="fill:#0000ff;stroke:#0000ff;" x="372.829091" xlink:href="#m15c8bed748" y="267.437419"/>
     <use style="fill:#0000ff;stroke:#0000ff;" x="376.465455" xlink:href="#m15c8bed748" y="278.172903"/>
     <use style="fill:#0000ff;stroke:#0000ff;" x="380.101818" xlink:href="#m15c8bed748" y="275.282581"/>
     <use style="fill:#0000ff;stroke:#0000ff;" x="383.738182" xlink:href="#m15c8bed748" y="281.063226"/>
     <use style="fill:#0000ff;stroke:#0000ff;" x="387.374545" xlink:href="#m15c8bed748" y="288.908387"/>
     <use style="fill:#0000ff;stroke:#0000ff;" x="391.010909" xlink:href="#m15c8bed748" y="296.340645"/>
     <use style="fill:#0000ff;stroke:#0000ff;" x="394.647273" xlink:href="#m15c8bed748" y="297.992258"/>
     <use style="fill:#0000ff;stroke:#0000ff;" x="401.92" xlink:href="#m15c8bed748" y="303.36"/>
    </g>
   </g>
   <g id="patch_8">
    <path d="M 69.12 311.04 
L 69.12 103.68 
" style="fill:none;stroke:#000000;stroke-linecap:square;stroke-linejoin:miter;stroke-width:0.8;"/>
   </g>
   <g id="patch_9">
    <path d="M 414.72 311.04 
L 414.72 103.68 
" style="fill:none;stroke:#000000;stroke-linecap:square;stroke-linejoin:miter;stroke-width:0.8;"/>
   </g>
   <g id="patch_10">
    <path d="M 69.12 311.04 
L 414.72 311.04 
" style="fill:none;stroke:#000000;stroke-linecap:square;stroke-linejoin:miter;stroke-width:0.8;"/>
   </g>
   <g id="patch_11">
    <path d="M 69.12 103.68 
L 414.72 103.68 
" style="fill:none;stroke:#000000;stroke-linecap:square;stroke-linejoin:miter;stroke-width:0.8;"/>
   </g>
  </g>
 </g>
 <defs>
  <clipPath id="p707b3acabc">
   <rect height="51.84" width="345.6" x="69.12" y="44.928"/>
  </clipPath>
  <clipPath id="p414e933e7f">
   <rect height="207.36" width="345.6" x="69.12" y="103.68"/>
  </clipPath>
 </defs>
</svg>
