<?xml version="1.0" encoding="utf-8" standalone="no"?>
<!DOCTYPE svg PUBLIC "-//W3C//DTD SVG 1.1//EN"
  "http://www.w3.org/Graphics/SVG/1.1/DTD/svg11.dtd">
<!-- Created with matplotlib (http://matplotlib.org/) -->
<svg height="345pt" version="1.1" viewBox="0 0 460 345" width="460pt" xmlns="http://www.w3.org/2000/svg" xmlns:xlink="http://www.w3.org/1999/xlink">
 <defs>
  <style type="text/css">
*{stroke-linecap:butt;stroke-linejoin:round;}
  </style>
 </defs>
 <g id="figure_1">
  <g id="patch_1">
   <path d="M 0 345.6 
L 460.8 345.6 
L 460.8 0 
L 0 0 
z
" style="fill:#ffffff;"/>
  </g>
  <g id="axes_1">
   <g id="patch_2">
    <path d="M 69.12 96.768 
L 414.72 96.768 
L 414.72 44.928 
L 69.12 44.928 
z
" style="fill:#ffffff;"/>
   </g>
   <g id="matplotlib.axis_1">
    <g id="xtick_1">
     <g id="line2d_1">
      <defs>
       <path d="M 0 0 
L 0 3.5 
" id="m75c1305900" style="stroke:#000000;stroke-width:0.8;"/>
      </defs>
      <g>
       <use style="stroke:#000000;stroke-width:0.8;" x="129.658552" xlink:href="#m75c1305900" y="96.768"/>
      </g>
     </g>
    </g>
    <g id="xtick_2">
     <g id="line2d_2">
      <g>
       <use style="stroke:#000000;stroke-width:0.8;" x="191.488968" xlink:href="#m75c1305900" y="96.768"/>
      </g>
     </g>
    </g>
    <g id="xtick_3">
     <g id="line2d_3">
      <g>
       <use style="stroke:#000000;stroke-width:0.8;" x="253.319384" xlink:href="#m75c1305900" y="96.768"/>
      </g>
     </g>
    </g>
    <g id="xtick_4">
     <g id="line2d_4">
      <g>
       <use style="stroke:#000000;stroke-width:0.8;" x="315.1498" xlink:href="#m75c1305900" y="96.768"/>
      </g>
     </g>
    </g>
    <g id="xtick_5">
     <g id="line2d_5">
      <g>
       <use style="stroke:#000000;stroke-width:0.8;" x="376.980216" xlink:href="#m75c1305900" y="96.768"/>
      </g>
     </g>
    </g>
   </g>
   <g id="matplotlib.axis_2">
    <g id="ytick_1">
     <g id="line2d_6">
      <defs>
       <path d="M 0 0 
L -3.5 0 
" id="mfd05ab9b98" style="stroke:#000000;stroke-width:0.8;"/>
      </defs>
      <g>
       <use style="stroke:#000000;stroke-width:0.8;" x="69.12" xlink:href="#mfd05ab9b98" y="96.343247"/>
      </g>
     </g>
     <g id="text_1">
      <!-- −2 -->
      <defs>
       <path d="M 10.59375 35.5 
L 73.1875 35.5 
L 73.1875 27.203125 
L 10.59375 27.203125 
z
" id="DejaVuSans-2212"/>
       <path d="M 19.1875 8.296875 
L 53.609375 8.296875 
L 53.609375 0 
L 7.328125 0 
L 7.328125 8.296875 
Q 12.9375 14.109375 22.625 23.890625 
Q 32.328125 33.6875 34.8125 36.53125 
Q 39.546875 41.84375 41.421875 45.53125 
Q 43.3125 49.21875 43.3125 52.78125 
Q 43.3125 58.59375 39.234375 62.25 
Q 35.15625 65.921875 28.609375 65.921875 
Q 23.96875 65.921875 18.8125 64.3125 
Q 13.671875 62.703125 7.8125 59.421875 
L 7.8125 69.390625 
Q 13.765625 71.78125 18.9375 73 
Q 24.125 74.21875 28.421875 74.21875 
Q 39.75 74.21875 46.484375 68.546875 
Q 53.21875 62.890625 53.21875 53.421875 
Q 53.21875 48.921875 51.53125 44.890625 
Q 49.859375 40.875 45.40625 35.40625 
Q 44.1875 33.984375 37.640625 27.21875 
Q 31.109375 20.453125 19.1875 8.296875 
z
" id="DejaVuSans-32"/>
      </defs>
      <g transform="translate(40.006719 102.042075)scale(0.15 -0.15)">
       <use xlink:href="#DejaVuSans-2212"/>
       <use x="83.789062" xlink:href="#DejaVuSans-32"/>
      </g>
     </g>
    </g>
    <g id="ytick_2">
     <g id="line2d_7">
      <g>
       <use style="stroke:#000000;stroke-width:0.8;" x="69.12" xlink:href="#mfd05ab9b98" y="72.532785"/>
      </g>
     </g>
    </g>
    <g id="ytick_3">
     <g id="line2d_8">
      <g>
       <use style="stroke:#000000;stroke-width:0.8;" x="69.12" xlink:href="#mfd05ab9b98" y="48.722324"/>
      </g>
     </g>
     <g id="text_2">
      <!-- 2 -->
      <g transform="translate(52.57625 54.421152)scale(0.15 -0.15)">
       <use xlink:href="#DejaVuSans-32"/>
      </g>
     </g>
    </g>
    <g id="text_3">
     <!-- Studentized -->
     <defs>
      <path d="M 53.515625 70.515625 
L 53.515625 60.890625 
Q 47.90625 63.578125 42.921875 64.890625 
Q 37.9375 66.21875 33.296875 66.21875 
Q 25.25 66.21875 20.875 63.09375 
Q 16.5 59.96875 16.5 54.203125 
Q 16.5 49.359375 19.40625 46.890625 
Q 22.3125 44.4375 30.421875 42.921875 
L 36.375 41.703125 
Q 47.40625 39.59375 52.65625 34.296875 
Q 57.90625 29 57.90625 20.125 
Q 57.90625 9.515625 50.796875 4.046875 
Q 43.703125 -1.421875 29.984375 -1.421875 
Q 24.8125 -1.421875 18.96875 -0.25 
Q 13.140625 0.921875 6.890625 3.21875 
L 6.890625 13.375 
Q 12.890625 10.015625 18.65625 8.296875 
Q 24.421875 6.59375 29.984375 6.59375 
Q 38.421875 6.59375 43.015625 9.90625 
Q 47.609375 13.234375 47.609375 19.390625 
Q 47.609375 24.75 44.3125 27.78125 
Q 41.015625 30.8125 33.5 32.328125 
L 27.484375 33.5 
Q 16.453125 35.6875 11.515625 40.375 
Q 6.59375 45.0625 6.59375 53.421875 
Q 6.59375 63.09375 13.40625 68.65625 
Q 20.21875 74.21875 32.171875 74.21875 
Q 37.3125 74.21875 42.625 73.28125 
Q 47.953125 72.359375 53.515625 70.515625 
z
" id="DejaVuSans-53"/>
      <path d="M 18.3125 70.21875 
L 18.3125 54.6875 
L 36.8125 54.6875 
L 36.8125 47.703125 
L 18.3125 47.703125 
L 18.3125 18.015625 
Q 18.3125 11.328125 20.140625 9.421875 
Q 21.96875 7.515625 27.59375 7.515625 
L 36.8125 7.515625 
L 36.8125 0 
L 27.59375 0 
Q 17.1875 0 13.234375 3.875 
Q 9.28125 7.765625 9.28125 18.015625 
L 9.28125 47.703125 
L 2.6875 47.703125 
L 2.6875 54.6875 
L 9.28125 54.6875 
L 9.28125 70.21875 
z
" id="DejaVuSans-74"/>
      <path d="M 8.5 21.578125 
L 8.5 54.6875 
L 17.484375 54.6875 
L 17.484375 21.921875 
Q 17.484375 14.15625 20.5 10.265625 
Q 23.53125 6.390625 29.59375 6.390625 
Q 36.859375 6.390625 41.078125 11.03125 
Q 45.3125 15.671875 45.3125 23.6875 
L 45.3125 54.6875 
L 54.296875 54.6875 
L 54.296875 0 
L 45.3125 0 
L 45.3125 8.40625 
Q 42.046875 3.421875 37.71875 1 
Q 33.40625 -1.421875 27.6875 -1.421875 
Q 18.265625 -1.421875 13.375 4.4375 
Q 8.5 10.296875 8.5 21.578125 
z
M 31.109375 56 
z
" id="DejaVuSans-75"/>
      <path d="M 45.40625 46.390625 
L 45.40625 75.984375 
L 54.390625 75.984375 
L 54.390625 0 
L 45.40625 0 
L 45.40625 8.203125 
Q 42.578125 3.328125 38.25 0.953125 
Q 33.9375 -1.421875 27.875 -1.421875 
Q 17.96875 -1.421875 11.734375 6.484375 
Q 5.515625 14.40625 5.515625 27.296875 
Q 5.515625 40.1875 11.734375 48.09375 
Q 17.96875 56 27.875 56 
Q 33.9375 56 38.25 53.625 
Q 42.578125 51.265625 45.40625 46.390625 
z
M 14.796875 27.296875 
Q 14.796875 17.390625 18.875 11.75 
Q 22.953125 6.109375 30.078125 6.109375 
Q 37.203125 6.109375 41.296875 11.75 
Q 45.40625 17.390625 45.40625 27.296875 
Q 45.40625 37.203125 41.296875 42.84375 
Q 37.203125 48.484375 30.078125 48.484375 
Q 22.953125 48.484375 18.875 42.84375 
Q 14.796875 37.203125 14.796875 27.296875 
z
" id="DejaVuSans-64"/>
      <path d="M 56.203125 29.59375 
L 56.203125 25.203125 
L 14.890625 25.203125 
Q 15.484375 15.921875 20.484375 11.0625 
Q 25.484375 6.203125 34.421875 6.203125 
Q 39.59375 6.203125 44.453125 7.46875 
Q 49.3125 8.734375 54.109375 11.28125 
L 54.109375 2.78125 
Q 49.265625 0.734375 44.1875 -0.34375 
Q 39.109375 -1.421875 33.890625 -1.421875 
Q 20.796875 -1.421875 13.15625 6.1875 
Q 5.515625 13.8125 5.515625 26.8125 
Q 5.515625 40.234375 12.765625 48.109375 
Q 20.015625 56 32.328125 56 
Q 43.359375 56 49.78125 48.890625 
Q 56.203125 41.796875 56.203125 29.59375 
z
M 47.21875 32.234375 
Q 47.125 39.59375 43.09375 43.984375 
Q 39.0625 48.390625 32.421875 48.390625 
Q 24.90625 48.390625 20.390625 44.140625 
Q 15.875 39.890625 15.1875 32.171875 
z
" id="DejaVuSans-65"/>
      <path d="M 54.890625 33.015625 
L 54.890625 0 
L 45.90625 0 
L 45.90625 32.71875 
Q 45.90625 40.484375 42.875 44.328125 
Q 39.84375 48.1875 33.796875 48.1875 
Q 26.515625 48.1875 22.3125 43.546875 
Q 18.109375 38.921875 18.109375 30.90625 
L 18.109375 0 
L 9.078125 0 
L 9.078125 54.6875 
L 18.109375 54.6875 
L 18.109375 46.1875 
Q 21.34375 51.125 25.703125 53.5625 
Q 30.078125 56 35.796875 56 
Q 45.21875 56 50.046875 50.171875 
Q 54.890625 44.34375 54.890625 33.015625 
z
" id="DejaVuSans-6e"/>
      <path d="M 9.421875 54.6875 
L 18.40625 54.6875 
L 18.40625 0 
L 9.421875 0 
z
M 9.421875 75.984375 
L 18.40625 75.984375 
L 18.40625 64.59375 
L 9.421875 64.59375 
z
" id="DejaVuSans-69"/>
      <path d="M 5.515625 54.6875 
L 48.1875 54.6875 
L 48.1875 46.484375 
L 14.40625 7.171875 
L 48.1875 7.171875 
L 48.1875 0 
L 4.296875 0 
L 4.296875 8.203125 
L 38.09375 47.515625 
L 5.515625 47.515625 
z
" id="DejaVuSans-7a"/>
     </defs>
     <g transform="translate(16.090469 115.768313)rotate(-90)scale(0.15 -0.15)">
      <use xlink:href="#DejaVuSans-53"/>
      <use x="63.476562" xlink:href="#DejaVuSans-74"/>
      <use x="102.685547" xlink:href="#DejaVuSans-75"/>
      <use x="166.064453" xlink:href="#DejaVuSans-64"/>
      <use x="229.541016" xlink:href="#DejaVuSans-65"/>
      <use x="291.064453" xlink:href="#DejaVuSans-6e"/>
      <use x="354.443359" xlink:href="#DejaVuSans-74"/>
      <use x="393.652344" xlink:href="#DejaVuSans-69"/>
      <use x="421.435547" xlink:href="#DejaVuSans-7a"/>
      <use x="473.925781" xlink:href="#DejaVuSans-65"/>
      <use x="535.449219" xlink:href="#DejaVuSans-64"/>
     </g>
     <!-- Residuals -->
     <defs>
      <path d="M 44.390625 34.1875 
Q 47.5625 33.109375 50.5625 29.59375 
Q 53.5625 26.078125 56.59375 19.921875 
L 66.609375 0 
L 56 0 
L 46.6875 18.703125 
Q 43.0625 26.03125 39.671875 28.421875 
Q 36.28125 30.8125 30.421875 30.8125 
L 19.671875 30.8125 
L 19.671875 0 
L 9.8125 0 
L 9.8125 72.90625 
L 32.078125 72.90625 
Q 44.578125 72.90625 50.734375 67.671875 
Q 56.890625 62.453125 56.890625 51.90625 
Q 56.890625 45.015625 53.6875 40.46875 
Q 50.484375 35.9375 44.390625 34.1875 
z
M 19.671875 64.796875 
L 19.671875 38.921875 
L 32.078125 38.921875 
Q 39.203125 38.921875 42.84375 42.21875 
Q 46.484375 45.515625 46.484375 51.90625 
Q 46.484375 58.296875 42.84375 61.546875 
Q 39.203125 64.796875 32.078125 64.796875 
z
" id="DejaVuSans-52"/>
      <path d="M 44.28125 53.078125 
L 44.28125 44.578125 
Q 40.484375 46.53125 36.375 47.5 
Q 32.28125 48.484375 27.875 48.484375 
Q 21.1875 48.484375 17.84375 46.4375 
Q 14.5 44.390625 14.5 40.28125 
Q 14.5 37.15625 16.890625 35.375 
Q 19.28125 33.59375 26.515625 31.984375 
L 29.59375 31.296875 
Q 39.15625 29.25 43.1875 25.515625 
Q 47.21875 21.78125 47.21875 15.09375 
Q 47.21875 7.46875 41.1875 3.015625 
Q 35.15625 -1.421875 24.609375 -1.421875 
Q 20.21875 -1.421875 15.453125 -0.5625 
Q 10.6875 0.296875 5.421875 2 
L 5.421875 11.28125 
Q 10.40625 8.6875 15.234375 7.390625 
Q 20.0625 6.109375 24.8125 6.109375 
Q 31.15625 6.109375 34.5625 8.28125 
Q 37.984375 10.453125 37.984375 14.40625 
Q 37.984375 18.0625 35.515625 20.015625 
Q 33.0625 21.96875 24.703125 23.78125 
L 21.578125 24.515625 
Q 13.234375 26.265625 9.515625 29.90625 
Q 5.8125 33.546875 5.8125 39.890625 
Q 5.8125 47.609375 11.28125 51.796875 
Q 16.75 56 26.8125 56 
Q 31.78125 56 36.171875 55.265625 
Q 40.578125 54.546875 44.28125 53.078125 
z
" id="DejaVuSans-73"/>
      <path d="M 34.28125 27.484375 
Q 23.390625 27.484375 19.1875 25 
Q 14.984375 22.515625 14.984375 16.5 
Q 14.984375 11.71875 18.140625 8.90625 
Q 21.296875 6.109375 26.703125 6.109375 
Q 34.1875 6.109375 38.703125 11.40625 
Q 43.21875 16.703125 43.21875 25.484375 
L 43.21875 27.484375 
z
M 52.203125 31.203125 
L 52.203125 0 
L 43.21875 0 
L 43.21875 8.296875 
Q 40.140625 3.328125 35.546875 0.953125 
Q 30.953125 -1.421875 24.3125 -1.421875 
Q 15.921875 -1.421875 10.953125 3.296875 
Q 6 8.015625 6 15.921875 
Q 6 25.140625 12.171875 29.828125 
Q 18.359375 34.515625 30.609375 34.515625 
L 43.21875 34.515625 
L 43.21875 35.40625 
Q 43.21875 41.609375 39.140625 45 
Q 35.0625 48.390625 27.6875 48.390625 
Q 23 48.390625 18.546875 47.265625 
Q 14.109375 46.140625 10.015625 43.890625 
L 10.015625 52.203125 
Q 14.9375 54.109375 19.578125 55.046875 
Q 24.21875 56 28.609375 56 
Q 40.484375 56 46.34375 49.84375 
Q 52.203125 43.703125 52.203125 31.203125 
z
" id="DejaVuSans-61"/>
      <path d="M 9.421875 75.984375 
L 18.40625 75.984375 
L 18.40625 0 
L 9.421875 0 
z
" id="DejaVuSans-6c"/>
     </defs>
     <g transform="translate(32.887188 106.761281)rotate(-90)scale(0.15 -0.15)">
      <use xlink:href="#DejaVuSans-52"/>
      <use x="69.419922" xlink:href="#DejaVuSans-65"/>
      <use x="130.943359" xlink:href="#DejaVuSans-73"/>
      <use x="183.042969" xlink:href="#DejaVuSans-69"/>
      <use x="210.826172" xlink:href="#DejaVuSans-64"/>
      <use x="274.302734" xlink:href="#DejaVuSans-75"/>
      <use x="337.681641" xlink:href="#DejaVuSans-61"/>
      <use x="398.960938" xlink:href="#DejaVuSans-6c"/>
      <use x="426.744141" xlink:href="#DejaVuSans-73"/>
     </g>
    </g>
   </g>
   <g id="LineCollection_1">
    <path clip-path="url(#pdea826c3c6)" d="M 81.92 77.969958 
L 81.92 54.159496 
" style="fill:none;stroke:#0000ff;stroke-width:1.5;"/>
    <path clip-path="url(#pdea826c3c6)" d="M 85.598161 84.056256 
L 85.598161 60.245795 
" style="fill:none;stroke:#0000ff;stroke-width:1.5;"/>
    <path clip-path="url(#pdea826c3c6)" d="M 92.954483 65.613932 
L 92.954483 41.803471 
" style="fill:none;stroke:#0000ff;stroke-width:1.5;"/>
    <path clip-path="url(#pdea826c3c6)" d="M 96.632644 81.03746 
L 96.632644 57.226999 
" style="fill:none;stroke:#0000ff;stroke-width:1.5;"/>
    <path clip-path="url(#pdea826c3c6)" d="M 100.310805 69.11666 
L 100.310805 45.306199 
" style="fill:none;stroke:#0000ff;stroke-width:1.5;"/>
    <path clip-path="url(#pdea826c3c6)" d="M 103.988966 68.506343 
L 103.988966 44.695882 
" style="fill:none;stroke:#0000ff;stroke-width:1.5;"/>
    <path clip-path="url(#pdea826c3c6)" d="M 107.667126 84.678068 
L 107.667126 60.867607 
" style="fill:none;stroke:#0000ff;stroke-width:1.5;"/>
    <path clip-path="url(#pdea826c3c6)" d="M 111.345287 79.122169 
L 111.345287 55.311708 
" style="fill:none;stroke:#0000ff;stroke-width:1.5;"/>
    <path clip-path="url(#pdea826c3c6)" d="M 115.023448 78.473075 
L 115.023448 54.662614 
" style="fill:none;stroke:#0000ff;stroke-width:1.5;"/>
    <path clip-path="url(#pdea826c3c6)" d="M 118.701609 81.804283 
L 118.701609 57.993821 
" style="fill:none;stroke:#0000ff;stroke-width:1.5;"/>
    <path clip-path="url(#pdea826c3c6)" d="M 122.37977 87.493097 
L 122.37977 63.682636 
" style="fill:none;stroke:#0000ff;stroke-width:1.5;"/>
    <path clip-path="url(#pdea826c3c6)" d="M 126.057931 92.276377 
L 126.057931 68.465916 
" style="fill:none;stroke:#0000ff;stroke-width:1.5;"/>
    <path clip-path="url(#pdea826c3c6)" d="M 129.736092 79.186537 
L 129.736092 55.376075 
" style="fill:none;stroke:#0000ff;stroke-width:1.5;"/>
    <path clip-path="url(#pdea826c3c6)" d="M 133.414253 95.600133 
L 133.414253 71.789671 
" style="fill:none;stroke:#0000ff;stroke-width:1.5;"/>
    <path clip-path="url(#pdea826c3c6)" d="M 137.092414 89.035762 
L 137.092414 65.2253 
" style="fill:none;stroke:#0000ff;stroke-width:1.5;"/>
    <path clip-path="url(#pdea826c3c6)" d="M 140.770575 78.910422 
L 140.770575 55.09996 
" style="fill:none;stroke:#0000ff;stroke-width:1.5;"/>
    <path clip-path="url(#pdea826c3c6)" d="M 144.448736 80.646965 
L 144.448736 56.836504 
" style="fill:none;stroke:#0000ff;stroke-width:1.5;"/>
    <path clip-path="url(#pdea826c3c6)" d="M 148.126897 79.72136 
L 148.126897 55.910898 
" style="fill:none;stroke:#0000ff;stroke-width:1.5;"/>
    <path clip-path="url(#pdea826c3c6)" d="M 151.805057 71.192432 
L 151.805057 47.381971 
" style="fill:none;stroke:#0000ff;stroke-width:1.5;"/>
    <path clip-path="url(#pdea826c3c6)" d="M 155.483218 82.186882 
L 155.483218 58.376421 
" style="fill:none;stroke:#0000ff;stroke-width:1.5;"/>
    <path clip-path="url(#pdea826c3c6)" d="M 159.161379 78.094204 
L 159.161379 54.283742 
" style="fill:none;stroke:#0000ff;stroke-width:1.5;"/>
    <path clip-path="url(#pdea826c3c6)" d="M 162.83954 77.974846 
L 162.83954 54.164384 
" style="fill:none;stroke:#0000ff;stroke-width:1.5;"/>
    <path clip-path="url(#pdea826c3c6)" d="M 166.517701 91.038646 
L 166.517701 67.228185 
" style="fill:none;stroke:#0000ff;stroke-width:1.5;"/>
    <path clip-path="url(#pdea826c3c6)" d="M 170.195862 84.333929 
L 170.195862 60.523467 
" style="fill:none;stroke:#0000ff;stroke-width:1.5;"/>
    <path clip-path="url(#pdea826c3c6)" d="M 173.874023 82.887695 
L 173.874023 59.077234 
" style="fill:none;stroke:#0000ff;stroke-width:1.5;"/>
    <path clip-path="url(#pdea826c3c6)" d="M 177.552184 89.592151 
L 177.552184 65.78169 
" style="fill:none;stroke:#0000ff;stroke-width:1.5;"/>
    <path clip-path="url(#pdea826c3c6)" d="M 181.230345 96.705897 
L 181.230345 72.895436 
" style="fill:none;stroke:#0000ff;stroke-width:1.5;"/>
    <path clip-path="url(#pdea826c3c6)" d="M 184.908506 83.162658 
L 184.908506 59.352197 
" style="fill:none;stroke:#0000ff;stroke-width:1.5;"/>
    <path clip-path="url(#pdea826c3c6)" d="M 188.586667 103.813642 
L 188.586667 80.003181 
" style="fill:none;stroke:#0000ff;stroke-width:1.5;"/>
    <path clip-path="url(#pdea826c3c6)" d="M 192.264828 86.679506 
L 192.264828 62.869044 
" style="fill:none;stroke:#0000ff;stroke-width:1.5;"/>
    <path clip-path="url(#pdea826c3c6)" d="M 195.942989 92.076609 
L 195.942989 68.266148 
" style="fill:none;stroke:#0000ff;stroke-width:1.5;"/>
    <path clip-path="url(#pdea826c3c6)" d="M 199.621149 97.72443 
L 199.621149 73.913968 
" style="fill:none;stroke:#0000ff;stroke-width:1.5;"/>
    <path clip-path="url(#pdea826c3c6)" d="M 203.29931 86.444311 
L 203.29931 62.63385 
" style="fill:none;stroke:#0000ff;stroke-width:1.5;"/>
    <path clip-path="url(#pdea826c3c6)" d="M 206.977471 86.602981 
L 206.977471 62.79252 
" style="fill:none;stroke:#0000ff;stroke-width:1.5;"/>
    <path clip-path="url(#pdea826c3c6)" d="M 210.655632 99.798378 
L 210.655632 75.987917 
" style="fill:none;stroke:#0000ff;stroke-width:1.5;"/>
    <path clip-path="url(#pdea826c3c6)" d="M 214.333793 73.931836 
L 214.333793 50.121374 
" style="fill:none;stroke:#0000ff;stroke-width:1.5;"/>
    <path clip-path="url(#pdea826c3c6)" d="M 218.011954 92.244356 
L 218.011954 68.433895 
" style="fill:none;stroke:#0000ff;stroke-width:1.5;"/>
    <path clip-path="url(#pdea826c3c6)" d="M 221.690115 78.236142 
L 221.690115 54.425681 
" style="fill:none;stroke:#0000ff;stroke-width:1.5;"/>
    <path clip-path="url(#pdea826c3c6)" d="M 225.368276 80.657473 
L 225.368276 56.847011 
" style="fill:none;stroke:#0000ff;stroke-width:1.5;"/>
    <path clip-path="url(#pdea826c3c6)" d="M 229.046437 88.778134 
L 229.046437 64.967672 
" style="fill:none;stroke:#0000ff;stroke-width:1.5;"/>
    <path clip-path="url(#pdea826c3c6)" d="M 232.724598 82.877486 
L 232.724598 59.067025 
" style="fill:none;stroke:#0000ff;stroke-width:1.5;"/>
    <path clip-path="url(#pdea826c3c6)" d="M 236.402759 102.908966 
L 236.402759 79.098505 
" style="fill:none;stroke:#0000ff;stroke-width:1.5;"/>
    <path clip-path="url(#pdea826c3c6)" d="M 240.08092 95.925562 
L 240.08092 72.115101 
" style="fill:none;stroke:#0000ff;stroke-width:1.5;"/>
    <path clip-path="url(#pdea826c3c6)" d="M 243.75908 86.430425 
L 243.75908 62.619964 
" style="fill:none;stroke:#0000ff;stroke-width:1.5;"/>
    <path clip-path="url(#pdea826c3c6)" d="M 247.437241 92.624756 
L 247.437241 68.814295 
" style="fill:none;stroke:#0000ff;stroke-width:1.5;"/>
    <path clip-path="url(#pdea826c3c6)" d="M 251.115402 89.611689 
L 251.115402 65.801228 
" style="fill:none;stroke:#0000ff;stroke-width:1.5;"/>
    <path clip-path="url(#pdea826c3c6)" d="M 254.793563 80.474761 
L 254.793563 56.664299 
" style="fill:none;stroke:#0000ff;stroke-width:1.5;"/>
    <path clip-path="url(#pdea826c3c6)" d="M 258.471724 86.878104 
L 258.471724 63.067642 
" style="fill:none;stroke:#0000ff;stroke-width:1.5;"/>
    <path clip-path="url(#pdea826c3c6)" d="M 262.149885 87.115696 
L 262.149885 63.305234 
" style="fill:none;stroke:#0000ff;stroke-width:1.5;"/>
    <path clip-path="url(#pdea826c3c6)" d="M 265.828046 89.499995 
L 265.828046 65.689534 
" style="fill:none;stroke:#0000ff;stroke-width:1.5;"/>
    <path clip-path="url(#pdea826c3c6)" d="M 269.506207 74.645666 
L 269.506207 50.835204 
" style="fill:none;stroke:#0000ff;stroke-width:1.5;"/>
    <path clip-path="url(#pdea826c3c6)" d="M 273.184368 69.954392 
L 273.184368 46.143931 
" style="fill:none;stroke:#0000ff;stroke-width:1.5;"/>
    <path clip-path="url(#pdea826c3c6)" d="M 276.862529 89.10092 
L 276.862529 65.290459 
" style="fill:none;stroke:#0000ff;stroke-width:1.5;"/>
    <path clip-path="url(#pdea826c3c6)" d="M 280.54069 92.480782 
L 280.54069 68.670321 
" style="fill:none;stroke:#0000ff;stroke-width:1.5;"/>
    <path clip-path="url(#pdea826c3c6)" d="M 284.218851 89.362089 
L 284.218851 65.551628 
" style="fill:none;stroke:#0000ff;stroke-width:1.5;"/>
    <path clip-path="url(#pdea826c3c6)" d="M 287.897011 73.024803 
L 287.897011 49.214341 
" style="fill:none;stroke:#0000ff;stroke-width:1.5;"/>
    <path clip-path="url(#pdea826c3c6)" d="M 291.575172 73.239141 
L 291.575172 49.42868 
" style="fill:none;stroke:#0000ff;stroke-width:1.5;"/>
    <path clip-path="url(#pdea826c3c6)" d="M 295.253333 69.461712 
L 295.253333 45.65125 
" style="fill:none;stroke:#0000ff;stroke-width:1.5;"/>
    <path clip-path="url(#pdea826c3c6)" d="M 298.931494 82.23059 
L 298.931494 58.420129 
" style="fill:none;stroke:#0000ff;stroke-width:1.5;"/>
    <path clip-path="url(#pdea826c3c6)" d="M 302.609655 70.77906 
L 302.609655 46.968598 
" style="fill:none;stroke:#0000ff;stroke-width:1.5;"/>
    <path clip-path="url(#pdea826c3c6)" d="M 306.287816 74.002895 
L 306.287816 50.192433 
" style="fill:none;stroke:#0000ff;stroke-width:1.5;"/>
    <path clip-path="url(#pdea826c3c6)" d="M 309.965977 70.689725 
L 309.965977 46.879264 
" style="fill:none;stroke:#0000ff;stroke-width:1.5;"/>
    <path clip-path="url(#pdea826c3c6)" d="M 313.644138 79.966623 
L 313.644138 56.156162 
" style="fill:none;stroke:#0000ff;stroke-width:1.5;"/>
    <path clip-path="url(#pdea826c3c6)" d="M 317.322299 58.753231 
L 317.322299 34.942769 
" style="fill:none;stroke:#0000ff;stroke-width:1.5;"/>
    <path clip-path="url(#pdea826c3c6)" d="M 321.00046 88.734581 
L 321.00046 64.924119 
" style="fill:none;stroke:#0000ff;stroke-width:1.5;"/>
    <path clip-path="url(#pdea826c3c6)" d="M 324.678621 89.144958 
L 324.678621 65.334497 
" style="fill:none;stroke:#0000ff;stroke-width:1.5;"/>
    <path clip-path="url(#pdea826c3c6)" d="M 328.356782 65.500467 
L 328.356782 41.690006 
" style="fill:none;stroke:#0000ff;stroke-width:1.5;"/>
    <path clip-path="url(#pdea826c3c6)" d="M 332.034943 78.598316 
L 332.034943 54.787855 
" style="fill:none;stroke:#0000ff;stroke-width:1.5;"/>
    <path clip-path="url(#pdea826c3c6)" d="M 335.713103 81.595733 
L 335.713103 57.785272 
" style="fill:none;stroke:#0000ff;stroke-width:1.5;"/>
    <path clip-path="url(#pdea826c3c6)" d="M 339.391264 71.482246 
L 339.391264 47.671785 
" style="fill:none;stroke:#0000ff;stroke-width:1.5;"/>
    <path clip-path="url(#pdea826c3c6)" d="M 343.069425 71.483993 
L 343.069425 47.673532 
" style="fill:none;stroke:#0000ff;stroke-width:1.5;"/>
    <path clip-path="url(#pdea826c3c6)" d="M 346.747586 74.433611 
L 346.747586 50.623149 
" style="fill:none;stroke:#0000ff;stroke-width:1.5;"/>
    <path clip-path="url(#pdea826c3c6)" d="M 350.425747 89.843559 
L 350.425747 66.033098 
" style="fill:none;stroke:#0000ff;stroke-width:1.5;"/>
    <path clip-path="url(#pdea826c3c6)" d="M 354.103908 82.415107 
L 354.103908 58.604646 
" style="fill:none;stroke:#0000ff;stroke-width:1.5;"/>
    <path clip-path="url(#pdea826c3c6)" d="M 357.782069 95.643293 
L 357.782069 71.832832 
" style="fill:none;stroke:#0000ff;stroke-width:1.5;"/>
    <path clip-path="url(#pdea826c3c6)" d="M 361.46023 98.757628 
L 361.46023 74.947166 
" style="fill:none;stroke:#0000ff;stroke-width:1.5;"/>
    <path clip-path="url(#pdea826c3c6)" d="M 365.138391 81.951998 
L 365.138391 58.141537 
" style="fill:none;stroke:#0000ff;stroke-width:1.5;"/>
    <path clip-path="url(#pdea826c3c6)" d="M 368.816552 75.619298 
L 368.816552 51.808837 
" style="fill:none;stroke:#0000ff;stroke-width:1.5;"/>
    <path clip-path="url(#pdea826c3c6)" d="M 372.494713 81.541844 
L 372.494713 57.731382 
" style="fill:none;stroke:#0000ff;stroke-width:1.5;"/>
    <path clip-path="url(#pdea826c3c6)" d="M 376.172874 106.753231 
L 376.172874 82.942769 
" style="fill:none;stroke:#0000ff;stroke-width:1.5;"/>
    <path clip-path="url(#pdea826c3c6)" d="M 379.851034 99.926398 
L 379.851034 76.115937 
" style="fill:none;stroke:#0000ff;stroke-width:1.5;"/>
    <path clip-path="url(#pdea826c3c6)" d="M 383.529195 95.736783 
L 383.529195 71.926322 
" style="fill:none;stroke:#0000ff;stroke-width:1.5;"/>
    <path clip-path="url(#pdea826c3c6)" d="M 387.207356 95.35115 
L 387.207356 71.540689 
" style="fill:none;stroke:#0000ff;stroke-width:1.5;"/>
    <path clip-path="url(#pdea826c3c6)" d="M 390.885517 97.102017 
L 390.885517 73.291556 
" style="fill:none;stroke:#0000ff;stroke-width:1.5;"/>
    <path clip-path="url(#pdea826c3c6)" d="M 394.563678 93.408629 
L 394.563678 69.598168 
" style="fill:none;stroke:#0000ff;stroke-width:1.5;"/>
    <path clip-path="url(#pdea826c3c6)" d="M 401.92 100.588208 
L 401.92 76.777746 
" style="fill:none;stroke:#0000ff;stroke-width:1.5;"/>
   </g>
   <g id="line2d_9">
    <path clip-path="url(#pdea826c3c6)" d="M 81.92 72.532785 
L 401.92 72.532785 
" style="fill:none;stroke:#ff0000;stroke-linecap:square;stroke-width:1.5;"/>
   </g>
   <g id="line2d_10">
    <defs>
     <path d="M -3 0 
L 3 0 
M 0 3 
L 0 -3 
" id="mb7de0240a8" style="stroke:#0000ff;"/>
    </defs>
    <g clip-path="url(#pdea826c3c6)">
     <use style="fill:#0000ff;stroke:#0000ff;" x="81.92" xlink:href="#mb7de0240a8" y="66.064727"/>
     <use style="fill:#0000ff;stroke:#0000ff;" x="85.598161" xlink:href="#mb7de0240a8" y="72.151025"/>
     <use style="fill:#0000ff;stroke:#0000ff;" x="92.954483" xlink:href="#mb7de0240a8" y="53.708702"/>
     <use style="fill:#0000ff;stroke:#0000ff;" x="96.632644" xlink:href="#mb7de0240a8" y="69.13223"/>
     <use style="fill:#0000ff;stroke:#0000ff;" x="100.310805" xlink:href="#mb7de0240a8" y="57.211429"/>
     <use style="fill:#0000ff;stroke:#0000ff;" x="103.988966" xlink:href="#mb7de0240a8" y="56.601113"/>
     <use style="fill:#0000ff;stroke:#0000ff;" x="107.667126" xlink:href="#mb7de0240a8" y="72.772837"/>
     <use style="fill:#0000ff;stroke:#0000ff;" x="111.345287" xlink:href="#mb7de0240a8" y="67.216939"/>
     <use style="fill:#0000ff;stroke:#0000ff;" x="115.023448" xlink:href="#mb7de0240a8" y="66.567845"/>
     <use style="fill:#0000ff;stroke:#0000ff;" x="118.701609" xlink:href="#mb7de0240a8" y="69.899052"/>
     <use style="fill:#0000ff;stroke:#0000ff;" x="122.37977" xlink:href="#mb7de0240a8" y="75.587866"/>
     <use style="fill:#0000ff;stroke:#0000ff;" x="126.057931" xlink:href="#mb7de0240a8" y="80.371147"/>
     <use style="fill:#0000ff;stroke:#0000ff;" x="129.736092" xlink:href="#mb7de0240a8" y="67.281306"/>
     <use style="fill:#0000ff;stroke:#0000ff;" x="133.414253" xlink:href="#mb7de0240a8" y="83.694902"/>
     <use style="fill:#0000ff;stroke:#0000ff;" x="137.092414" xlink:href="#mb7de0240a8" y="77.130531"/>
     <use style="fill:#0000ff;stroke:#0000ff;" x="140.770575" xlink:href="#mb7de0240a8" y="67.005191"/>
     <use style="fill:#0000ff;stroke:#0000ff;" x="144.448736" xlink:href="#mb7de0240a8" y="68.741734"/>
     <use style="fill:#0000ff;stroke:#0000ff;" x="148.126897" xlink:href="#mb7de0240a8" y="67.816129"/>
     <use style="fill:#0000ff;stroke:#0000ff;" x="151.805057" xlink:href="#mb7de0240a8" y="59.287202"/>
     <use style="fill:#0000ff;stroke:#0000ff;" x="155.483218" xlink:href="#mb7de0240a8" y="70.281652"/>
     <use style="fill:#0000ff;stroke:#0000ff;" x="159.161379" xlink:href="#mb7de0240a8" y="66.188973"/>
     <use style="fill:#0000ff;stroke:#0000ff;" x="162.83954" xlink:href="#mb7de0240a8" y="66.069615"/>
     <use style="fill:#0000ff;stroke:#0000ff;" x="166.517701" xlink:href="#mb7de0240a8" y="79.133415"/>
     <use style="fill:#0000ff;stroke:#0000ff;" x="170.195862" xlink:href="#mb7de0240a8" y="72.428698"/>
     <use style="fill:#0000ff;stroke:#0000ff;" x="173.874023" xlink:href="#mb7de0240a8" y="70.982465"/>
     <use style="fill:#0000ff;stroke:#0000ff;" x="177.552184" xlink:href="#mb7de0240a8" y="77.68692"/>
     <use style="fill:#0000ff;stroke:#0000ff;" x="181.230345" xlink:href="#mb7de0240a8" y="84.800667"/>
     <use style="fill:#0000ff;stroke:#0000ff;" x="184.908506" xlink:href="#mb7de0240a8" y="71.257428"/>
     <use style="fill:#0000ff;stroke:#0000ff;" x="188.586667" xlink:href="#mb7de0240a8" y="91.908411"/>
     <use style="fill:#0000ff;stroke:#0000ff;" x="192.264828" xlink:href="#mb7de0240a8" y="74.774275"/>
     <use style="fill:#0000ff;stroke:#0000ff;" x="195.942989" xlink:href="#mb7de0240a8" y="80.171378"/>
     <use style="fill:#0000ff;stroke:#0000ff;" x="199.621149" xlink:href="#mb7de0240a8" y="85.819199"/>
     <use style="fill:#0000ff;stroke:#0000ff;" x="203.29931" xlink:href="#mb7de0240a8" y="74.53908"/>
     <use style="fill:#0000ff;stroke:#0000ff;" x="206.977471" xlink:href="#mb7de0240a8" y="74.69775"/>
     <use style="fill:#0000ff;stroke:#0000ff;" x="210.655632" xlink:href="#mb7de0240a8" y="87.893148"/>
     <use style="fill:#0000ff;stroke:#0000ff;" x="214.333793" xlink:href="#mb7de0240a8" y="62.026605"/>
     <use style="fill:#0000ff;stroke:#0000ff;" x="218.011954" xlink:href="#mb7de0240a8" y="80.339125"/>
     <use style="fill:#0000ff;stroke:#0000ff;" x="221.690115" xlink:href="#mb7de0240a8" y="66.330911"/>
     <use style="fill:#0000ff;stroke:#0000ff;" x="225.368276" xlink:href="#mb7de0240a8" y="68.752242"/>
     <use style="fill:#0000ff;stroke:#0000ff;" x="229.046437" xlink:href="#mb7de0240a8" y="76.872903"/>
     <use style="fill:#0000ff;stroke:#0000ff;" x="232.724598" xlink:href="#mb7de0240a8" y="70.972256"/>
     <use style="fill:#0000ff;stroke:#0000ff;" x="236.402759" xlink:href="#mb7de0240a8" y="91.003735"/>
     <use style="fill:#0000ff;stroke:#0000ff;" x="240.08092" xlink:href="#mb7de0240a8" y="84.020331"/>
     <use style="fill:#0000ff;stroke:#0000ff;" x="243.75908" xlink:href="#mb7de0240a8" y="74.525195"/>
     <use style="fill:#0000ff;stroke:#0000ff;" x="247.437241" xlink:href="#mb7de0240a8" y="80.719525"/>
     <use style="fill:#0000ff;stroke:#0000ff;" x="251.115402" xlink:href="#mb7de0240a8" y="77.706459"/>
     <use style="fill:#0000ff;stroke:#0000ff;" x="254.793563" xlink:href="#mb7de0240a8" y="68.56953"/>
     <use style="fill:#0000ff;stroke:#0000ff;" x="258.471724" xlink:href="#mb7de0240a8" y="74.972873"/>
     <use style="fill:#0000ff;stroke:#0000ff;" x="262.149885" xlink:href="#mb7de0240a8" y="75.210465"/>
     <use style="fill:#0000ff;stroke:#0000ff;" x="265.828046" xlink:href="#mb7de0240a8" y="77.594765"/>
     <use style="fill:#0000ff;stroke:#0000ff;" x="269.506207" xlink:href="#mb7de0240a8" y="62.740435"/>
     <use style="fill:#0000ff;stroke:#0000ff;" x="273.184368" xlink:href="#mb7de0240a8" y="58.049162"/>
     <use style="fill:#0000ff;stroke:#0000ff;" x="276.862529" xlink:href="#mb7de0240a8" y="77.195689"/>
     <use style="fill:#0000ff;stroke:#0000ff;" x="280.54069" xlink:href="#mb7de0240a8" y="80.575551"/>
     <use style="fill:#0000ff;stroke:#0000ff;" x="284.218851" xlink:href="#mb7de0240a8" y="77.456858"/>
     <use style="fill:#0000ff;stroke:#0000ff;" x="287.897011" xlink:href="#mb7de0240a8" y="61.119572"/>
     <use style="fill:#0000ff;stroke:#0000ff;" x="291.575172" xlink:href="#mb7de0240a8" y="61.333911"/>
     <use style="fill:#0000ff;stroke:#0000ff;" x="295.253333" xlink:href="#mb7de0240a8" y="57.556481"/>
     <use style="fill:#0000ff;stroke:#0000ff;" x="298.931494" xlink:href="#mb7de0240a8" y="70.32536"/>
     <use style="fill:#0000ff;stroke:#0000ff;" x="302.609655" xlink:href="#mb7de0240a8" y="58.873829"/>
     <use style="fill:#0000ff;stroke:#0000ff;" x="306.287816" xlink:href="#mb7de0240a8" y="62.097664"/>
     <use style="fill:#0000ff;stroke:#0000ff;" x="309.965977" xlink:href="#mb7de0240a8" y="58.784494"/>
     <use style="fill:#0000ff;stroke:#0000ff;" x="313.644138" xlink:href="#mb7de0240a8" y="68.061392"/>
     <use style="fill:#0000ff;stroke:#0000ff;" x="317.322299" xlink:href="#mb7de0240a8" y="46.848"/>
     <use style="fill:#0000ff;stroke:#0000ff;" x="321.00046" xlink:href="#mb7de0240a8" y="76.82935"/>
     <use style="fill:#0000ff;stroke:#0000ff;" x="324.678621" xlink:href="#mb7de0240a8" y="77.239728"/>
     <use style="fill:#0000ff;stroke:#0000ff;" x="328.356782" xlink:href="#mb7de0240a8" y="53.595237"/>
     <use style="fill:#0000ff;stroke:#0000ff;" x="332.034943" xlink:href="#mb7de0240a8" y="66.693085"/>
     <use style="fill:#0000ff;stroke:#0000ff;" x="335.713103" xlink:href="#mb7de0240a8" y="69.690502"/>
     <use style="fill:#0000ff;stroke:#0000ff;" x="339.391264" xlink:href="#mb7de0240a8" y="59.577015"/>
     <use style="fill:#0000ff;stroke:#0000ff;" x="343.069425" xlink:href="#mb7de0240a8" y="59.578763"/>
     <use style="fill:#0000ff;stroke:#0000ff;" x="346.747586" xlink:href="#mb7de0240a8" y="62.52838"/>
     <use style="fill:#0000ff;stroke:#0000ff;" x="350.425747" xlink:href="#mb7de0240a8" y="77.938328"/>
     <use style="fill:#0000ff;stroke:#0000ff;" x="354.103908" xlink:href="#mb7de0240a8" y="70.509876"/>
     <use style="fill:#0000ff;stroke:#0000ff;" x="357.782069" xlink:href="#mb7de0240a8" y="83.738063"/>
     <use style="fill:#0000ff;stroke:#0000ff;" x="361.46023" xlink:href="#mb7de0240a8" y="86.852397"/>
     <use style="fill:#0000ff;stroke:#0000ff;" x="365.138391" xlink:href="#mb7de0240a8" y="70.046767"/>
     <use style="fill:#0000ff;stroke:#0000ff;" x="368.816552" xlink:href="#mb7de0240a8" y="63.714067"/>
     <use style="fill:#0000ff;stroke:#0000ff;" x="372.494713" xlink:href="#mb7de0240a8" y="69.636613"/>
     <use style="fill:#0000ff;stroke:#0000ff;" x="376.172874" xlink:href="#mb7de0240a8" y="94.848"/>
     <use style="fill:#0000ff;stroke:#0000ff;" x="379.851034" xlink:href="#mb7de0240a8" y="88.021168"/>
     <use style="fill:#0000ff;stroke:#0000ff;" x="383.529195" xlink:href="#mb7de0240a8" y="83.831553"/>
     <use style="fill:#0000ff;stroke:#0000ff;" x="387.207356" xlink:href="#mb7de0240a8" y="83.445919"/>
     <use style="fill:#0000ff;stroke:#0000ff;" x="390.885517" xlink:href="#mb7de0240a8" y="85.196787"/>
     <use style="fill:#0000ff;stroke:#0000ff;" x="394.563678" xlink:href="#mb7de0240a8" y="81.503399"/>
     <use style="fill:#0000ff;stroke:#0000ff;" x="401.92" xlink:href="#mb7de0240a8" y="88.682977"/>
    </g>
   </g>
   <g id="patch_3">
    <path d="M 69.12 96.768 
L 69.12 44.928 
" style="fill:none;stroke:#000000;stroke-linecap:square;stroke-linejoin:miter;stroke-width:0.8;"/>
   </g>
   <g id="patch_4">
    <path d="M 414.72 96.768 
L 414.72 44.928 
" style="fill:none;stroke:#000000;stroke-linecap:square;stroke-linejoin:miter;stroke-width:0.8;"/>
   </g>
   <g id="patch_5">
    <path d="M 69.12 96.768 
L 414.72 96.768 
" style="fill:none;stroke:#000000;stroke-linecap:square;stroke-linejoin:miter;stroke-width:0.8;"/>
   </g>
   <g id="patch_6">
    <path d="M 69.12 44.928 
L 414.72 44.928 
" style="fill:none;stroke:#000000;stroke-linecap:square;stroke-linejoin:miter;stroke-width:0.8;"/>
   </g>
   <g id="text_4">
    <!-- Function (0/0): y = a*exp(-(x-x0)**2/w**2)+b -->
    <defs>
     <path d="M 9.8125 72.90625 
L 51.703125 72.90625 
L 51.703125 64.59375 
L 19.671875 64.59375 
L 19.671875 43.109375 
L 48.578125 43.109375 
L 48.578125 34.8125 
L 19.671875 34.8125 
L 19.671875 0 
L 9.8125 0 
z
" id="DejaVuSans-46"/>
     <path d="M 48.78125 52.59375 
L 48.78125 44.1875 
Q 44.96875 46.296875 41.140625 47.34375 
Q 37.3125 48.390625 33.40625 48.390625 
Q 24.65625 48.390625 19.8125 42.84375 
Q 14.984375 37.3125 14.984375 27.296875 
Q 14.984375 17.28125 19.8125 11.734375 
Q 24.65625 6.203125 33.40625 6.203125 
Q 37.3125 6.203125 41.140625 7.25 
Q 44.96875 8.296875 48.78125 10.40625 
L 48.78125 2.09375 
Q 45.015625 0.34375 40.984375 -0.53125 
Q 36.96875 -1.421875 32.421875 -1.421875 
Q 20.0625 -1.421875 12.78125 6.34375 
Q 5.515625 14.109375 5.515625 27.296875 
Q 5.515625 40.671875 12.859375 48.328125 
Q 20.21875 56 33.015625 56 
Q 37.15625 56 41.109375 55.140625 
Q 45.0625 54.296875 48.78125 52.59375 
z
" id="DejaVuSans-63"/>
     <path d="M 30.609375 48.390625 
Q 23.390625 48.390625 19.1875 42.75 
Q 14.984375 37.109375 14.984375 27.296875 
Q 14.984375 17.484375 19.15625 11.84375 
Q 23.34375 6.203125 30.609375 6.203125 
Q 37.796875 6.203125 41.984375 11.859375 
Q 46.1875 17.53125 46.1875 27.296875 
Q 46.1875 37.015625 41.984375 42.703125 
Q 37.796875 48.390625 30.609375 48.390625 
z
M 30.609375 56 
Q 42.328125 56 49.015625 48.375 
Q 55.71875 40.765625 55.71875 27.296875 
Q 55.71875 13.875 49.015625 6.21875 
Q 42.328125 -1.421875 30.609375 -1.421875 
Q 18.84375 -1.421875 12.171875 6.21875 
Q 5.515625 13.875 5.515625 27.296875 
Q 5.515625 40.765625 12.171875 48.375 
Q 18.84375 56 30.609375 56 
z
" id="DejaVuSans-6f"/>
     <path id="DejaVuSans-20"/>
     <path d="M 31 75.875 
Q 24.46875 64.65625 21.28125 53.65625 
Q 18.109375 42.671875 18.109375 31.390625 
Q 18.109375 20.125 21.3125 9.0625 
Q 24.515625 -2 31 -13.1875 
L 23.1875 -13.1875 
Q 15.875 -1.703125 12.234375 9.375 
Q 8.59375 20.453125 8.59375 31.390625 
Q 8.59375 42.28125 12.203125 53.3125 
Q 15.828125 64.359375 23.1875 75.875 
z
" id="DejaVuSans-28"/>
     <path d="M 31.78125 66.40625 
Q 24.171875 66.40625 20.328125 58.90625 
Q 16.5 51.421875 16.5 36.375 
Q 16.5 21.390625 20.328125 13.890625 
Q 24.171875 6.390625 31.78125 6.390625 
Q 39.453125 6.390625 43.28125 13.890625 
Q 47.125 21.390625 47.125 36.375 
Q 47.125 51.421875 43.28125 58.90625 
Q 39.453125 66.40625 31.78125 66.40625 
z
M 31.78125 74.21875 
Q 44.046875 74.21875 50.515625 64.515625 
Q 56.984375 54.828125 56.984375 36.375 
Q 56.984375 17.96875 50.515625 8.265625 
Q 44.046875 -1.421875 31.78125 -1.421875 
Q 19.53125 -1.421875 13.0625 8.265625 
Q 6.59375 17.96875 6.59375 36.375 
Q 6.59375 54.828125 13.0625 64.515625 
Q 19.53125 74.21875 31.78125 74.21875 
z
" id="DejaVuSans-30"/>
     <path d="M 25.390625 72.90625 
L 33.6875 72.90625 
L 8.296875 -9.28125 
L 0 -9.28125 
z
" id="DejaVuSans-2f"/>
     <path d="M 8.015625 75.875 
L 15.828125 75.875 
Q 23.140625 64.359375 26.78125 53.3125 
Q 30.421875 42.28125 30.421875 31.390625 
Q 30.421875 20.453125 26.78125 9.375 
Q 23.140625 -1.703125 15.828125 -13.1875 
L 8.015625 -13.1875 
Q 14.5 -2 17.703125 9.0625 
Q 20.90625 20.125 20.90625 31.390625 
Q 20.90625 42.671875 17.703125 53.65625 
Q 14.5 64.65625 8.015625 75.875 
z
" id="DejaVuSans-29"/>
     <path d="M 11.71875 12.40625 
L 22.015625 12.40625 
L 22.015625 0 
L 11.71875 0 
z
M 11.71875 51.703125 
L 22.015625 51.703125 
L 22.015625 39.3125 
L 11.71875 39.3125 
z
" id="DejaVuSans-3a"/>
     <path d="M 32.171875 -5.078125 
Q 28.375 -14.84375 24.75 -17.8125 
Q 21.140625 -20.796875 15.09375 -20.796875 
L 7.90625 -20.796875 
L 7.90625 -13.28125 
L 13.1875 -13.28125 
Q 16.890625 -13.28125 18.9375 -11.515625 
Q 21 -9.765625 23.484375 -3.21875 
L 25.09375 0.875 
L 2.984375 54.6875 
L 12.5 54.6875 
L 29.59375 11.921875 
L 46.6875 54.6875 
L 56.203125 54.6875 
z
" id="DejaVuSans-79"/>
     <path d="M 10.59375 45.40625 
L 73.1875 45.40625 
L 73.1875 37.203125 
L 10.59375 37.203125 
z
M 10.59375 25.484375 
L 73.1875 25.484375 
L 73.1875 17.1875 
L 10.59375 17.1875 
z
" id="DejaVuSans-3d"/>
     <path d="M 47.015625 60.890625 
L 29.5 51.421875 
L 47.015625 41.890625 
L 44.1875 37.109375 
L 27.78125 47.015625 
L 27.78125 28.609375 
L 22.21875 28.609375 
L 22.21875 47.015625 
L 5.8125 37.109375 
L 2.984375 41.890625 
L 20.515625 51.421875 
L 2.984375 60.890625 
L 5.8125 65.71875 
L 22.21875 55.8125 
L 22.21875 74.21875 
L 27.78125 74.21875 
L 27.78125 55.8125 
L 44.1875 65.71875 
z
" id="DejaVuSans-2a"/>
     <path d="M 54.890625 54.6875 
L 35.109375 28.078125 
L 55.90625 0 
L 45.3125 0 
L 29.390625 21.484375 
L 13.484375 0 
L 2.875 0 
L 24.125 28.609375 
L 4.6875 54.6875 
L 15.28125 54.6875 
L 29.78125 35.203125 
L 44.28125 54.6875 
z
" id="DejaVuSans-78"/>
     <path d="M 18.109375 8.203125 
L 18.109375 -20.796875 
L 9.078125 -20.796875 
L 9.078125 54.6875 
L 18.109375 54.6875 
L 18.109375 46.390625 
Q 20.953125 51.265625 25.265625 53.625 
Q 29.59375 56 35.59375 56 
Q 45.5625 56 51.78125 48.09375 
Q 58.015625 40.1875 58.015625 27.296875 
Q 58.015625 14.40625 51.78125 6.484375 
Q 45.5625 -1.421875 35.59375 -1.421875 
Q 29.59375 -1.421875 25.265625 0.953125 
Q 20.953125 3.328125 18.109375 8.203125 
z
M 48.6875 27.296875 
Q 48.6875 37.203125 44.609375 42.84375 
Q 40.53125 48.484375 33.40625 48.484375 
Q 26.265625 48.484375 22.1875 42.84375 
Q 18.109375 37.203125 18.109375 27.296875 
Q 18.109375 17.390625 22.1875 11.75 
Q 26.265625 6.109375 33.40625 6.109375 
Q 40.53125 6.109375 44.609375 11.75 
Q 48.6875 17.390625 48.6875 27.296875 
z
" id="DejaVuSans-70"/>
     <path d="M 4.890625 31.390625 
L 31.203125 31.390625 
L 31.203125 23.390625 
L 4.890625 23.390625 
z
" id="DejaVuSans-2d"/>
     <path d="M 4.203125 54.6875 
L 13.1875 54.6875 
L 24.421875 12.015625 
L 35.59375 54.6875 
L 46.1875 54.6875 
L 57.421875 12.015625 
L 68.609375 54.6875 
L 77.59375 54.6875 
L 63.28125 0 
L 52.6875 0 
L 40.921875 44.828125 
L 29.109375 0 
L 18.5 0 
z
" id="DejaVuSans-77"/>
     <path d="M 46 62.703125 
L 46 35.5 
L 73.1875 35.5 
L 73.1875 27.203125 
L 46 27.203125 
L 46 0 
L 37.796875 0 
L 37.796875 27.203125 
L 10.59375 27.203125 
L 10.59375 35.5 
L 37.796875 35.5 
L 37.796875 62.703125 
z
" id="DejaVuSans-2b"/>
     <path d="M 48.6875 27.296875 
Q 48.6875 37.203125 44.609375 42.84375 
Q 40.53125 48.484375 33.40625 48.484375 
Q 26.265625 48.484375 22.1875 42.84375 
Q 18.109375 37.203125 18.109375 27.296875 
Q 18.109375 17.390625 22.1875 11.75 
Q 26.265625 6.109375 33.40625 6.109375 
Q 40.53125 6.109375 44.609375 11.75 
Q 48.6875 17.390625 48.6875 27.296875 
z
M 18.109375 46.390625 
Q 20.953125 51.265625 25.265625 53.625 
Q 29.59375 56 35.59375 56 
Q 45.5625 56 51.78125 48.09375 
Q 58.015625 40.1875 58.015625 27.296875 
Q 58.015625 14.40625 51.78125 6.484375 
Q 45.5625 -1.421875 35.59375 -1.421875 
Q 29.59375 -1.421875 25.265625 0.953125 
Q 20.953125 3.328125 18.109375 8.203125 
L 18.109375 0 
L 9.078125 0 
L 9.078125 75.984375 
L 18.109375 75.984375 
z
" id="DejaVuSans-62"/>
    </defs>
    <g transform="translate(69.12 16.532375)scale(0.1 -0.1)">
     <use xlink:href="#DejaVuSans-46"/>
     <use x="57.441406" xlink:href="#DejaVuSans-75"/>
     <use x="120.820312" xlink:href="#DejaVuSans-6e"/>
     <use x="184.199219" xlink:href="#DejaVuSans-63"/>
     <use x="239.179688" xlink:href="#DejaVuSans-74"/>
     <use x="278.388672" xlink:href="#DejaVuSans-69"/>
     <use x="306.171875" xlink:href="#DejaVuSans-6f"/>
     <use x="367.353516" xlink:href="#DejaVuSans-6e"/>
     <use x="430.732422" xlink:href="#DejaVuSans-20"/>
     <use x="462.519531" xlink:href="#DejaVuSans-28"/>
     <use x="501.533203" xlink:href="#DejaVuSans-30"/>
     <use x="565.15625" xlink:href="#DejaVuSans-2f"/>
     <use x="598.847656" xlink:href="#DejaVuSans-30"/>
     <use x="662.470703" xlink:href="#DejaVuSans-29"/>
     <use x="701.484375" xlink:href="#DejaVuSans-3a"/>
     <use x="735.175781" xlink:href="#DejaVuSans-20"/>
     <use x="766.962891" xlink:href="#DejaVuSans-79"/>
     <use x="826.142578" xlink:href="#DejaVuSans-20"/>
     <use x="857.929688" xlink:href="#DejaVuSans-3d"/>
     <use x="941.71875" xlink:href="#DejaVuSans-20"/>
     <use x="973.505859" xlink:href="#DejaVuSans-61"/>
     <use x="1034.785156" xlink:href="#DejaVuSans-2a"/>
     <use x="1084.785156" xlink:href="#DejaVuSans-65"/>
     <use x="1146.292969" xlink:href="#DejaVuSans-78"/>
     <use x="1205.472656" xlink:href="#DejaVuSans-70"/>
     <use x="1268.949219" xlink:href="#DejaVuSans-28"/>
     <use x="1307.962891" xlink:href="#DejaVuSans-2d"/>
     <use x="1344.046875" xlink:href="#DejaVuSans-28"/>
     <use x="1383.060547" xlink:href="#DejaVuSans-78"/>
     <use x="1442.240234" xlink:href="#DejaVuSans-2d"/>
     <use x="1478.324219" xlink:href="#DejaVuSans-78"/>
     <use x="1537.503906" xlink:href="#DejaVuSans-30"/>
     <use x="1601.126953" xlink:href="#DejaVuSans-29"/>
     <use x="1640.140625" xlink:href="#DejaVuSans-2a"/>
     <use x="1690.140625" xlink:href="#DejaVuSans-2a"/>
     <use x="1740.140625" xlink:href="#DejaVuSans-32"/>
     <use x="1803.763672" xlink:href="#DejaVuSans-2f"/>
     <use x="1837.455078" xlink:href="#DejaVuSans-77"/>
     <use x="1919.242188" xlink:href="#DejaVuSans-2a"/>
     <use x="1969.242188" xlink:href="#DejaVuSans-2a"/>
     <use x="2019.242188" xlink:href="#DejaVuSans-32"/>
     <use x="2082.865234" xlink:href="#DejaVuSans-29"/>
     <use x="2121.878906" xlink:href="#DejaVuSans-2b"/>
     <use x="2205.667969" xlink:href="#DejaVuSans-62"/>
    </g>
    <!-- Fit: a=256.0$\pm$10.0, b=42.0$\pm$11.0, x0=4.2969$\pm$0.0016, -->
    <defs>
     <path d="M 10.796875 72.90625 
L 49.515625 72.90625 
L 49.515625 64.59375 
L 19.828125 64.59375 
L 19.828125 46.734375 
Q 21.96875 47.46875 24.109375 47.828125 
Q 26.265625 48.1875 28.421875 48.1875 
Q 40.625 48.1875 47.75 41.5 
Q 54.890625 34.8125 54.890625 23.390625 
Q 54.890625 11.625 47.5625 5.09375 
Q 40.234375 -1.421875 26.90625 -1.421875 
Q 22.3125 -1.421875 17.546875 -0.640625 
Q 12.796875 0.140625 7.71875 1.703125 
L 7.71875 11.625 
Q 12.109375 9.234375 16.796875 8.0625 
Q 21.484375 6.890625 26.703125 6.890625 
Q 35.15625 6.890625 40.078125 11.328125 
Q 45.015625 15.765625 45.015625 23.390625 
Q 45.015625 31 40.078125 35.4375 
Q 35.15625 39.890625 26.703125 39.890625 
Q 22.75 39.890625 18.8125 39.015625 
Q 14.890625 38.140625 10.796875 36.28125 
z
" id="DejaVuSans-35"/>
     <path d="M 33.015625 40.375 
Q 26.375 40.375 22.484375 35.828125 
Q 18.609375 31.296875 18.609375 23.390625 
Q 18.609375 15.53125 22.484375 10.953125 
Q 26.375 6.390625 33.015625 6.390625 
Q 39.65625 6.390625 43.53125 10.953125 
Q 47.40625 15.53125 47.40625 23.390625 
Q 47.40625 31.296875 43.53125 35.828125 
Q 39.65625 40.375 33.015625 40.375 
z
M 52.59375 71.296875 
L 52.59375 62.3125 
Q 48.875 64.0625 45.09375 64.984375 
Q 41.3125 65.921875 37.59375 65.921875 
Q 27.828125 65.921875 22.671875 59.328125 
Q 17.53125 52.734375 16.796875 39.40625 
Q 19.671875 43.65625 24.015625 45.921875 
Q 28.375 48.1875 33.59375 48.1875 
Q 44.578125 48.1875 50.953125 41.515625 
Q 57.328125 34.859375 57.328125 23.390625 
Q 57.328125 12.15625 50.6875 5.359375 
Q 44.046875 -1.421875 33.015625 -1.421875 
Q 20.359375 -1.421875 13.671875 8.265625 
Q 6.984375 17.96875 6.984375 36.375 
Q 6.984375 53.65625 15.1875 63.9375 
Q 23.390625 74.21875 37.203125 74.21875 
Q 40.921875 74.21875 44.703125 73.484375 
Q 48.484375 72.75 52.59375 71.296875 
z
" id="DejaVuSans-36"/>
     <path d="M 10.6875 12.40625 
L 21 12.40625 
L 21 0 
L 10.6875 0 
z
" id="DejaVuSans-2e"/>
     <path d="M 46 62.703125 
L 46 43.796875 
L 73.1875 43.796875 
L 73.1875 35.5 
L 46 35.5 
L 46 16.609375 
L 37.796875 16.609375 
L 37.796875 35.5 
L 10.59375 35.5 
L 10.59375 43.796875 
L 37.796875 43.796875 
L 37.796875 62.703125 
z
M 10.59375 8.296875 
L 73.1875 8.296875 
L 73.1875 0 
L 10.59375 0 
z
" id="DejaVuSans-b1"/>
     <path d="M 12.40625 8.296875 
L 28.515625 8.296875 
L 28.515625 63.921875 
L 10.984375 60.40625 
L 10.984375 69.390625 
L 28.421875 72.90625 
L 38.28125 72.90625 
L 38.28125 8.296875 
L 54.390625 8.296875 
L 54.390625 0 
L 12.40625 0 
z
" id="DejaVuSans-31"/>
     <path d="M 11.71875 12.40625 
L 22.015625 12.40625 
L 22.015625 4 
L 14.015625 -11.625 
L 7.71875 -11.625 
L 11.71875 4 
z
" id="DejaVuSans-2c"/>
     <path d="M 37.796875 64.3125 
L 12.890625 25.390625 
L 37.796875 25.390625 
z
M 35.203125 72.90625 
L 47.609375 72.90625 
L 47.609375 25.390625 
L 58.015625 25.390625 
L 58.015625 17.1875 
L 47.609375 17.1875 
L 47.609375 0 
L 37.796875 0 
L 37.796875 17.1875 
L 4.890625 17.1875 
L 4.890625 26.703125 
z
" id="DejaVuSans-34"/>
     <path d="M 10.984375 1.515625 
L 10.984375 10.5 
Q 14.703125 8.734375 18.5 7.8125 
Q 22.3125 6.890625 25.984375 6.890625 
Q 35.75 6.890625 40.890625 13.453125 
Q 46.046875 20.015625 46.78125 33.40625 
Q 43.953125 29.203125 39.59375 26.953125 
Q 35.25 24.703125 29.984375 24.703125 
Q 19.046875 24.703125 12.671875 31.3125 
Q 6.296875 37.9375 6.296875 49.421875 
Q 6.296875 60.640625 12.9375 67.421875 
Q 19.578125 74.21875 30.609375 74.21875 
Q 43.265625 74.21875 49.921875 64.515625 
Q 56.59375 54.828125 56.59375 36.375 
Q 56.59375 19.140625 48.40625 8.859375 
Q 40.234375 -1.421875 26.421875 -1.421875 
Q 22.703125 -1.421875 18.890625 -0.6875 
Q 15.09375 0.046875 10.984375 1.515625 
z
M 30.609375 32.421875 
Q 37.25 32.421875 41.125 36.953125 
Q 45.015625 41.5 45.015625 49.421875 
Q 45.015625 57.28125 41.125 61.84375 
Q 37.25 66.40625 30.609375 66.40625 
Q 23.96875 66.40625 20.09375 61.84375 
Q 16.21875 57.28125 16.21875 49.421875 
Q 16.21875 41.5 20.09375 36.953125 
Q 23.96875 32.421875 30.609375 32.421875 
z
" id="DejaVuSans-39"/>
    </defs>
    <g transform="translate(69.12 27.730187)scale(0.1 -0.1)">
     <use transform="translate(0 0.015625)" xlink:href="#DejaVuSans-46"/>
     <use transform="translate(57.519531 0.015625)" xlink:href="#DejaVuSans-69"/>
     <use transform="translate(85.302734 0.015625)" xlink:href="#DejaVuSans-74"/>
     <use transform="translate(124.511719 0.015625)" xlink:href="#DejaVuSans-3a"/>
     <use transform="translate(158.203125 0.015625)" xlink:href="#DejaVuSans-20"/>
     <use transform="translate(189.990234 0.015625)" xlink:href="#DejaVuSans-61"/>
     <use transform="translate(251.269531 0.015625)" xlink:href="#DejaVuSans-3d"/>
     <use transform="translate(335.058594 0.015625)" xlink:href="#DejaVuSans-32"/>
     <use transform="translate(398.681641 0.015625)" xlink:href="#DejaVuSans-35"/>
     <use transform="translate(462.304688 0.015625)" xlink:href="#DejaVuSans-36"/>
     <use transform="translate(525.927734 0.015625)" xlink:href="#DejaVuSans-2e"/>
     <use transform="translate(557.714844 0.015625)" xlink:href="#DejaVuSans-30"/>
     <use transform="translate(621.337891 0.015625)" xlink:href="#DejaVuSans-b1"/>
     <use transform="translate(705.126953 0.015625)" xlink:href="#DejaVuSans-31"/>
     <use transform="translate(768.75 0.015625)" xlink:href="#DejaVuSans-30"/>
     <use transform="translate(832.373047 0.015625)" xlink:href="#DejaVuSans-2e"/>
     <use transform="translate(864.160156 0.015625)" xlink:href="#DejaVuSans-30"/>
     <use transform="translate(927.783203 0.015625)" xlink:href="#DejaVuSans-2c"/>
     <use transform="translate(959.570312 0.015625)" xlink:href="#DejaVuSans-20"/>
     <use transform="translate(991.357422 0.015625)" xlink:href="#DejaVuSans-62"/>
     <use transform="translate(1054.833984 0.015625)" xlink:href="#DejaVuSans-3d"/>
     <use transform="translate(1138.623047 0.015625)" xlink:href="#DejaVuSans-34"/>
     <use transform="translate(1202.246094 0.015625)" xlink:href="#DejaVuSans-32"/>
     <use transform="translate(1265.869141 0.015625)" xlink:href="#DejaVuSans-2e"/>
     <use transform="translate(1297.65625 0.015625)" xlink:href="#DejaVuSans-30"/>
     <use transform="translate(1361.279297 0.015625)" xlink:href="#DejaVuSans-b1"/>
     <use transform="translate(1445.068359 0.015625)" xlink:href="#DejaVuSans-31"/>
     <use transform="translate(1508.691406 0.015625)" xlink:href="#DejaVuSans-31"/>
     <use transform="translate(1572.314453 0.015625)" xlink:href="#DejaVuSans-2e"/>
     <use transform="translate(1604.101562 0.015625)" xlink:href="#DejaVuSans-30"/>
     <use transform="translate(1667.724609 0.015625)" xlink:href="#DejaVuSans-2c"/>
     <use transform="translate(1699.511719 0.015625)" xlink:href="#DejaVuSans-20"/>
     <use transform="translate(1731.298828 0.015625)" xlink:href="#DejaVuSans-78"/>
     <use transform="translate(1790.478516 0.015625)" xlink:href="#DejaVuSans-30"/>
     <use transform="translate(1854.101562 0.015625)" xlink:href="#DejaVuSans-3d"/>
     <use transform="translate(1937.890625 0.015625)" xlink:href="#DejaVuSans-34"/>
     <use transform="translate(2001.513672 0.015625)" xlink:href="#DejaVuSans-2e"/>
     <use transform="translate(2033.222656 0.015625)" xlink:href="#DejaVuSans-32"/>
     <use transform="translate(2096.830078 0.015625)" xlink:href="#DejaVuSans-39"/>
     <use transform="translate(2160.453125 0.015625)" xlink:href="#DejaVuSans-36"/>
     <use transform="translate(2224.076172 0.015625)" xlink:href="#DejaVuSans-39"/>
     <use transform="translate(2287.699219 0.015625)" xlink:href="#DejaVuSans-b1"/>
     <use transform="translate(2371.488281 0.015625)" xlink:href="#DejaVuSans-30"/>
     <use transform="translate(2435.111328 0.015625)" xlink:href="#DejaVuSans-2e"/>
     <use transform="translate(2466.898438 0.015625)" xlink:href="#DejaVuSans-30"/>
     <use transform="translate(2530.521484 0.015625)" xlink:href="#DejaVuSans-30"/>
     <use transform="translate(2594.144531 0.015625)" xlink:href="#DejaVuSans-31"/>
     <use transform="translate(2657.767578 0.015625)" xlink:href="#DejaVuSans-36"/>
     <use transform="translate(2721.390625 0.015625)" xlink:href="#DejaVuSans-2c"/>
    </g>
    <!--       w=0.1936$\pm$0.009, -->
    <defs>
     <path d="M 40.578125 39.3125 
Q 47.65625 37.796875 51.625 33 
Q 55.609375 28.21875 55.609375 21.1875 
Q 55.609375 10.40625 48.1875 4.484375 
Q 40.765625 -1.421875 27.09375 -1.421875 
Q 22.515625 -1.421875 17.65625 -0.515625 
Q 12.796875 0.390625 7.625 2.203125 
L 7.625 11.71875 
Q 11.71875 9.328125 16.59375 8.109375 
Q 21.484375 6.890625 26.8125 6.890625 
Q 36.078125 6.890625 40.9375 10.546875 
Q 45.796875 14.203125 45.796875 21.1875 
Q 45.796875 27.640625 41.28125 31.265625 
Q 36.765625 34.90625 28.71875 34.90625 
L 20.21875 34.90625 
L 20.21875 43.015625 
L 29.109375 43.015625 
Q 36.375 43.015625 40.234375 45.921875 
Q 44.09375 48.828125 44.09375 54.296875 
Q 44.09375 59.90625 40.109375 62.90625 
Q 36.140625 65.921875 28.71875 65.921875 
Q 24.65625 65.921875 20.015625 65.03125 
Q 15.375 64.15625 9.8125 62.3125 
L 9.8125 71.09375 
Q 15.4375 72.65625 20.34375 73.4375 
Q 25.25 74.21875 29.59375 74.21875 
Q 40.828125 74.21875 47.359375 69.109375 
Q 53.90625 64.015625 53.90625 55.328125 
Q 53.90625 49.265625 50.4375 45.09375 
Q 46.96875 40.921875 40.578125 39.3125 
z
" id="DejaVuSans-33"/>
    </defs>
    <g transform="translate(69.12 38.928)scale(0.1 -0.1)">
     <use transform="translate(0 0.78125)" xlink:href="#DejaVuSans-20"/>
     <use transform="translate(31.787109 0.78125)" xlink:href="#DejaVuSans-20"/>
     <use transform="translate(63.574219 0.78125)" xlink:href="#DejaVuSans-20"/>
     <use transform="translate(95.361328 0.78125)" xlink:href="#DejaVuSans-20"/>
     <use transform="translate(127.148438 0.78125)" xlink:href="#DejaVuSans-20"/>
     <use transform="translate(158.935547 0.78125)" xlink:href="#DejaVuSans-20"/>
     <use transform="translate(190.722656 0.78125)" xlink:href="#DejaVuSans-77"/>
     <use transform="translate(272.509766 0.78125)" xlink:href="#DejaVuSans-3d"/>
     <use transform="translate(356.298828 0.78125)" xlink:href="#DejaVuSans-30"/>
     <use transform="translate(419.921875 0.78125)" xlink:href="#DejaVuSans-2e"/>
     <use transform="translate(451.708984 0.78125)" xlink:href="#DejaVuSans-31"/>
     <use transform="translate(515.332031 0.78125)" xlink:href="#DejaVuSans-39"/>
     <use transform="translate(578.955078 0.78125)" xlink:href="#DejaVuSans-33"/>
     <use transform="translate(642.578125 0.78125)" xlink:href="#DejaVuSans-36"/>
     <use transform="translate(706.201172 0.78125)" xlink:href="#DejaVuSans-b1"/>
     <use transform="translate(789.990234 0.78125)" xlink:href="#DejaVuSans-30"/>
     <use transform="translate(853.613281 0.78125)" xlink:href="#DejaVuSans-2e"/>
     <use transform="translate(885.400391 0.78125)" xlink:href="#DejaVuSans-30"/>
     <use transform="translate(949.023438 0.78125)" xlink:href="#DejaVuSans-30"/>
     <use transform="translate(1012.646484 0.78125)" xlink:href="#DejaVuSans-39"/>
     <use transform="translate(1076.269531 0.78125)" xlink:href="#DejaVuSans-2c"/>
    </g>
   </g>
  </g>
  <g id="axes_2">
   <g id="patch_7">
    <path d="M 69.12 311.04 
L 414.72 311.04 
L 414.72 103.68 
L 69.12 103.68 
z
" style="fill:#ffffff;"/>
   </g>
   <g id="matplotlib.axis_3">
    <g id="xtick_6">
     <g id="line2d_11">
      <g>
       <use style="stroke:#000000;stroke-width:0.8;" x="129.658552" xlink:href="#m75c1305900" y="311.04"/>
      </g>
     </g>
     <g id="text_5">
      <!-- 4.1 -->
      <g transform="translate(117.731209 329.437656)scale(0.15 -0.15)">
       <use xlink:href="#DejaVuSans-34"/>
       <use x="63.623047" xlink:href="#DejaVuSans-2e"/>
       <use x="95.410156" xlink:href="#DejaVuSans-31"/>
      </g>
     </g>
    </g>
    <g id="xtick_7">
     <g id="line2d_12">
      <g>
       <use style="stroke:#000000;stroke-width:0.8;" x="191.488968" xlink:href="#m75c1305900" y="311.04"/>
      </g>
     </g>
     <g id="text_6">
      <!-- 4.2 -->
      <g transform="translate(179.561625 329.437656)scale(0.15 -0.15)">
       <use xlink:href="#DejaVuSans-34"/>
       <use x="63.623047" xlink:href="#DejaVuSans-2e"/>
       <use x="95.410156" xlink:href="#DejaVuSans-32"/>
      </g>
     </g>
    </g>
    <g id="xtick_8">
     <g id="line2d_13">
      <g>
       <use style="stroke:#000000;stroke-width:0.8;" x="253.319384" xlink:href="#m75c1305900" y="311.04"/>
      </g>
     </g>
     <g id="text_7">
      <!-- 4.3 -->
      <g transform="translate(241.392041 329.437656)scale(0.15 -0.15)">
       <use xlink:href="#DejaVuSans-34"/>
       <use x="63.623047" xlink:href="#DejaVuSans-2e"/>
       <use x="95.410156" xlink:href="#DejaVuSans-33"/>
      </g>
     </g>
    </g>
    <g id="xtick_9">
     <g id="line2d_14">
      <g>
       <use style="stroke:#000000;stroke-width:0.8;" x="315.1498" xlink:href="#m75c1305900" y="311.04"/>
      </g>
     </g>
     <g id="text_8">
      <!-- 4.4 -->
      <g transform="translate(303.222457 329.437656)scale(0.15 -0.15)">
       <use xlink:href="#DejaVuSans-34"/>
       <use x="63.623047" xlink:href="#DejaVuSans-2e"/>
       <use x="95.410156" xlink:href="#DejaVuSans-34"/>
      </g>
     </g>
    </g>
    <g id="xtick_10">
     <g id="line2d_15">
      <g>
       <use style="stroke:#000000;stroke-width:0.8;" x="376.980216" xlink:href="#m75c1305900" y="311.04"/>
      </g>
     </g>
     <g id="text_9">
      <!-- 4.5 -->
      <g transform="translate(365.052873 329.437656)scale(0.15 -0.15)">
       <use xlink:href="#DejaVuSans-34"/>
       <use x="63.623047" xlink:href="#DejaVuSans-2e"/>
       <use x="95.410156" xlink:href="#DejaVuSans-35"/>
      </g>
     </g>
    </g>
    <g id="text_10">
     <!-- Energy [MeV] -->
     <defs>
      <path d="M 9.8125 72.90625 
L 55.90625 72.90625 
L 55.90625 64.59375 
L 19.671875 64.59375 
L 19.671875 43.015625 
L 54.390625 43.015625 
L 54.390625 34.71875 
L 19.671875 34.71875 
L 19.671875 8.296875 
L 56.78125 8.296875 
L 56.78125 0 
L 9.8125 0 
z
" id="DejaVuSans-45"/>
      <path d="M 41.109375 46.296875 
Q 39.59375 47.171875 37.8125 47.578125 
Q 36.03125 48 33.890625 48 
Q 26.265625 48 22.1875 43.046875 
Q 18.109375 38.09375 18.109375 28.8125 
L 18.109375 0 
L 9.078125 0 
L 9.078125 54.6875 
L 18.109375 54.6875 
L 18.109375 46.1875 
Q 20.953125 51.171875 25.484375 53.578125 
Q 30.03125 56 36.53125 56 
Q 37.453125 56 38.578125 55.875 
Q 39.703125 55.765625 41.0625 55.515625 
z
" id="DejaVuSans-72"/>
      <path d="M 45.40625 27.984375 
Q 45.40625 37.75 41.375 43.109375 
Q 37.359375 48.484375 30.078125 48.484375 
Q 22.859375 48.484375 18.828125 43.109375 
Q 14.796875 37.75 14.796875 27.984375 
Q 14.796875 18.265625 18.828125 12.890625 
Q 22.859375 7.515625 30.078125 7.515625 
Q 37.359375 7.515625 41.375 12.890625 
Q 45.40625 18.265625 45.40625 27.984375 
z
M 54.390625 6.78125 
Q 54.390625 -7.171875 48.1875 -13.984375 
Q 42 -20.796875 29.203125 -20.796875 
Q 24.46875 -20.796875 20.265625 -20.09375 
Q 16.0625 -19.390625 12.109375 -17.921875 
L 12.109375 -9.1875 
Q 16.0625 -11.328125 19.921875 -12.34375 
Q 23.78125 -13.375 27.78125 -13.375 
Q 36.625 -13.375 41.015625 -8.765625 
Q 45.40625 -4.15625 45.40625 5.171875 
L 45.40625 9.625 
Q 42.625 4.78125 38.28125 2.390625 
Q 33.9375 0 27.875 0 
Q 17.828125 0 11.671875 7.65625 
Q 5.515625 15.328125 5.515625 27.984375 
Q 5.515625 40.671875 11.671875 48.328125 
Q 17.828125 56 27.875 56 
Q 33.9375 56 38.28125 53.609375 
Q 42.625 51.21875 45.40625 46.390625 
L 45.40625 54.6875 
L 54.390625 54.6875 
z
" id="DejaVuSans-67"/>
      <path d="M 8.59375 75.984375 
L 29.296875 75.984375 
L 29.296875 69 
L 17.578125 69 
L 17.578125 -6.203125 
L 29.296875 -6.203125 
L 29.296875 -13.1875 
L 8.59375 -13.1875 
z
" id="DejaVuSans-5b"/>
      <path d="M 9.8125 72.90625 
L 24.515625 72.90625 
L 43.109375 23.296875 
L 61.8125 72.90625 
L 76.515625 72.90625 
L 76.515625 0 
L 66.890625 0 
L 66.890625 64.015625 
L 48.09375 14.015625 
L 38.1875 14.015625 
L 19.390625 64.015625 
L 19.390625 0 
L 9.8125 0 
z
" id="DejaVuSans-4d"/>
      <path d="M 28.609375 0 
L 0.78125 72.90625 
L 11.078125 72.90625 
L 34.1875 11.53125 
L 57.328125 72.90625 
L 67.578125 72.90625 
L 39.796875 0 
z
" id="DejaVuSans-56"/>
      <path d="M 30.421875 75.984375 
L 30.421875 -13.1875 
L 9.71875 -13.1875 
L 9.71875 -6.203125 
L 21.390625 -6.203125 
L 21.390625 69 
L 9.71875 69 
L 9.71875 75.984375 
z
" id="DejaVuSans-5d"/>
     </defs>
     <g transform="translate(191.078203 347.954844)scale(0.15 -0.15)">
      <use xlink:href="#DejaVuSans-45"/>
      <use x="63.183594" xlink:href="#DejaVuSans-6e"/>
      <use x="126.5625" xlink:href="#DejaVuSans-65"/>
      <use x="188.085938" xlink:href="#DejaVuSans-72"/>
      <use x="229.183594" xlink:href="#DejaVuSans-67"/>
      <use x="292.660156" xlink:href="#DejaVuSans-79"/>
      <use x="351.839844" xlink:href="#DejaVuSans-20"/>
      <use x="383.626953" xlink:href="#DejaVuSans-5b"/>
      <use x="422.640625" xlink:href="#DejaVuSans-4d"/>
      <use x="508.919922" xlink:href="#DejaVuSans-65"/>
      <use x="570.443359" xlink:href="#DejaVuSans-56"/>
      <use x="638.851562" xlink:href="#DejaVuSans-5d"/>
     </g>
    </g>
   </g>
   <g id="matplotlib.axis_4">
    <g id="ytick_4">
     <g id="line2d_16">
      <g>
       <use style="stroke:#000000;stroke-width:0.8;" x="69.12" xlink:href="#mfd05ab9b98" y="286.35784"/>
      </g>
     </g>
     <g id="text_11">
      <!-- 100 -->
      <g transform="translate(33.48875 292.056668)scale(0.15 -0.15)">
       <use xlink:href="#DejaVuSans-31"/>
       <use x="63.623047" xlink:href="#DejaVuSans-30"/>
       <use x="127.246094" xlink:href="#DejaVuSans-30"/>
      </g>
     </g>
    </g>
    <g id="ytick_5">
     <g id="line2d_17">
      <g>
       <use style="stroke:#000000;stroke-width:0.8;" x="69.12" xlink:href="#mfd05ab9b98" y="244.889158"/>
      </g>
     </g>
     <g id="text_12">
      <!-- 150 -->
      <g transform="translate(33.48875 250.587986)scale(0.15 -0.15)">
       <use xlink:href="#DejaVuSans-31"/>
       <use x="63.623047" xlink:href="#DejaVuSans-35"/>
       <use x="127.246094" xlink:href="#DejaVuSans-30"/>
      </g>
     </g>
    </g>
    <g id="ytick_6">
     <g id="line2d_18">
      <g>
       <use style="stroke:#000000;stroke-width:0.8;" x="69.12" xlink:href="#mfd05ab9b98" y="203.420475"/>
      </g>
     </g>
     <g id="text_13">
      <!-- 200 -->
      <g transform="translate(33.48875 209.119303)scale(0.15 -0.15)">
       <use xlink:href="#DejaVuSans-32"/>
       <use x="63.623047" xlink:href="#DejaVuSans-30"/>
       <use x="127.246094" xlink:href="#DejaVuSans-30"/>
      </g>
     </g>
    </g>
    <g id="ytick_7">
     <g id="line2d_19">
      <g>
       <use style="stroke:#000000;stroke-width:0.8;" x="69.12" xlink:href="#mfd05ab9b98" y="161.951793"/>
      </g>
     </g>
     <g id="text_14">
      <!-- 250 -->
      <g transform="translate(33.48875 167.650621)scale(0.15 -0.15)">
       <use xlink:href="#DejaVuSans-32"/>
       <use x="63.623047" xlink:href="#DejaVuSans-35"/>
       <use x="127.246094" xlink:href="#DejaVuSans-30"/>
      </g>
     </g>
    </g>
    <g id="ytick_8">
     <g id="line2d_20">
      <g>
       <use style="stroke:#000000;stroke-width:0.8;" x="69.12" xlink:href="#mfd05ab9b98" y="120.48311"/>
      </g>
     </g>
     <g id="text_15">
      <!-- 300 -->
      <g transform="translate(33.48875 126.181938)scale(0.15 -0.15)">
       <use xlink:href="#DejaVuSans-33"/>
       <use x="63.623047" xlink:href="#DejaVuSans-30"/>
       <use x="127.246094" xlink:href="#DejaVuSans-30"/>
      </g>
     </g>
    </g>
    <g id="text_16">
     <!-- Counts -->
     <defs>
      <path d="M 64.40625 67.28125 
L 64.40625 56.890625 
Q 59.421875 61.53125 53.78125 63.8125 
Q 48.140625 66.109375 41.796875 66.109375 
Q 29.296875 66.109375 22.65625 58.46875 
Q 16.015625 50.828125 16.015625 36.375 
Q 16.015625 21.96875 22.65625 14.328125 
Q 29.296875 6.6875 41.796875 6.6875 
Q 48.140625 6.6875 53.78125 8.984375 
Q 59.421875 11.28125 64.40625 15.921875 
L 64.40625 5.609375 
Q 59.234375 2.09375 53.4375 0.328125 
Q 47.65625 -1.421875 41.21875 -1.421875 
Q 24.65625 -1.421875 15.125 8.703125 
Q 5.609375 18.84375 5.609375 36.375 
Q 5.609375 53.953125 15.125 64.078125 
Q 24.65625 74.21875 41.21875 74.21875 
Q 47.75 74.21875 53.53125 72.484375 
Q 59.328125 70.75 64.40625 67.28125 
z
" id="DejaVuSans-43"/>
     </defs>
     <g transform="translate(26.369219 233.539687)rotate(-90)scale(0.15 -0.15)">
      <use xlink:href="#DejaVuSans-43"/>
      <use x="69.824219" xlink:href="#DejaVuSans-6f"/>
      <use x="131.005859" xlink:href="#DejaVuSans-75"/>
      <use x="194.384766" xlink:href="#DejaVuSans-6e"/>
      <use x="257.763672" xlink:href="#DejaVuSans-74"/>
      <use x="296.972656" xlink:href="#DejaVuSans-73"/>
     </g>
    </g>
   </g>
   <g id="LineCollection_2">
    <path clip-path="url(#pdbbc74a883)" d="M 81.92 309.580302 
L 81.92 294.651577 
" style="fill:none;stroke:#0000ff;stroke-width:1.5;"/>
    <path clip-path="url(#pdbbc74a883)" d="M 85.598161 310.754925 
L 85.598161 295.965075 
" style="fill:none;stroke:#0000ff;stroke-width:1.5;"/>
    <path clip-path="url(#pdbbc74a883)" d="M 92.954483 293.075356 
L 92.954483 276.32283 
" style="fill:none;stroke:#0000ff;stroke-width:1.5;"/>
    <path clip-path="url(#pdbbc74a883)" d="M 96.632644 300.554803 
L 96.632644 284.601482 
" style="fill:none;stroke:#0000ff;stroke-width:1.5;"/>
    <path clip-path="url(#pdbbc74a883)" d="M 100.310805 289.131332 
L 100.310805 271.973117 
" style="fill:none;stroke:#0000ff;stroke-width:1.5;"/>
    <path clip-path="url(#pdbbc74a883)" d="M 103.988966 285.182622 
L 103.988966 267.628091 
" style="fill:none;stroke:#0000ff;stroke-width:1.5;"/>
    <path clip-path="url(#pdbbc74a883)" d="M 107.667126 293.075356 
L 107.667126 276.32283 
" style="fill:none;stroke:#0000ff;stroke-width:1.5;"/>
    <path clip-path="url(#pdbbc74a883)" d="M 111.345287 285.577695 
L 111.345287 268.062392 
" style="fill:none;stroke:#0000ff;stroke-width:1.5;"/>
    <path clip-path="url(#pdbbc74a883)" d="M 115.023448 281.229536 
L 115.023448 263.28744 
" style="fill:none;stroke:#0000ff;stroke-width:1.5;"/>
    <path clip-path="url(#pdbbc74a883)" d="M 118.701609 279.647139 
L 118.701609 261.552342 
" style="fill:none;stroke:#0000ff;stroke-width:1.5;"/>
    <path clip-path="url(#pdbbc74a883)" d="M 122.37977 279.647139 
L 122.37977 261.552342 
" style="fill:none;stroke:#0000ff;stroke-width:1.5;"/>
    <path clip-path="url(#pdbbc74a883)" d="M 126.057931 278.8557 
L 126.057931 260.685034 
" style="fill:none;stroke:#0000ff;stroke-width:1.5;"/>
    <path clip-path="url(#pdbbc74a883)" d="M 129.736092 264.584576 
L 129.736092 245.098707 
" style="fill:none;stroke:#0000ff;stroke-width:1.5;"/>
    <path clip-path="url(#pdbbc74a883)" d="M 133.414253 272.51867 
L 133.414253 253.752086 
" style="fill:none;stroke:#0000ff;stroke-width:1.5;"/>
    <path clip-path="url(#pdbbc74a883)" d="M 137.092414 262.996176 
L 137.092414 243.369613 
" style="fill:none;stroke:#0000ff;stroke-width:1.5;"/>
    <path clip-path="url(#pdbbc74a883)" d="M 140.770575 249.87369 
L 140.770575 229.122768 
" style="fill:none;stroke:#0000ff;stroke-width:1.5;"/>
    <path clip-path="url(#pdbbc74a883)" d="M 144.448736 246.289619 
L 144.448736 225.242476 
" style="fill:none;stroke:#0000ff;stroke-width:1.5;"/>
    <path clip-path="url(#pdbbc74a883)" d="M 148.126897 240.311641 
L 148.126897 218.779849 
" style="fill:none;stroke:#0000ff;stroke-width:1.5;"/>
    <path clip-path="url(#pdbbc74a883)" d="M 151.805057 227.141781 
L 151.805057 204.580379 
" style="fill:none;stroke:#0000ff;stroke-width:1.5;"/>
    <path clip-path="url(#pdbbc74a883)" d="M 155.483218 231.933585 
L 155.483218 209.741059 
" style="fill:none;stroke:#0000ff;stroke-width:1.5;"/>
    <path clip-path="url(#pdbbc74a883)" d="M 159.161379 222.746684 
L 159.161379 199.852366 
" style="fill:none;stroke:#0000ff;stroke-width:1.5;"/>
    <path clip-path="url(#pdbbc74a883)" d="M 162.83954 217.149486 
L 162.83954 193.838332 
" style="fill:none;stroke:#0000ff;stroke-width:1.5;"/>
    <path clip-path="url(#pdbbc74a883)" d="M 166.517701 223.945588 
L 166.517701 201.141583 
" style="fill:none;stroke:#0000ff;stroke-width:1.5;"/>
    <path clip-path="url(#pdbbc74a883)" d="M 170.195862 212.348967 
L 170.195862 188.686368 
" style="fill:none;stroke:#0000ff;stroke-width:1.5;"/>
    <path clip-path="url(#pdbbc74a883)" d="M 173.874023 205.543854 
L 173.874023 181.392129 
" style="fill:none;stroke:#0000ff;stroke-width:1.5;"/>
    <path clip-path="url(#pdbbc74a883)" d="M 177.552184 206.745117 
L 177.552184 182.678986 
" style="fill:none;stroke:#0000ff;stroke-width:1.5;"/>
    <path clip-path="url(#pdbbc74a883)" d="M 181.230345 208.346564 
L 181.230345 184.395034 
" style="fill:none;stroke:#0000ff;stroke-width:1.5;"/>
    <path clip-path="url(#pdbbc74a883)" d="M 184.908506 189.914228 
L 184.908506 164.676182 
" style="fill:none;stroke:#0000ff;stroke-width:1.5;"/>
    <path clip-path="url(#pdbbc74a883)" d="M 188.586667 205.143399 
L 188.586667 180.96321 
" style="fill:none;stroke:#0000ff;stroke-width:1.5;"/>
    <path clip-path="url(#pdbbc74a883)" d="M 192.264828 183.495426 
L 192.264828 157.825006 
" style="fill:none;stroke:#0000ff;stroke-width:1.5;"/>
    <path clip-path="url(#pdbbc74a883)" d="M 195.942989 184.297976 
L 195.942989 158.681203 
" style="fill:none;stroke:#0000ff;stroke-width:1.5;"/>
    <path clip-path="url(#pdbbc74a883)" d="M 199.621149 185.501695 
L 199.621149 159.965605 
" style="fill:none;stroke:#0000ff;stroke-width:1.5;"/>
    <path clip-path="url(#pdbbc74a883)" d="M 203.29931 169.442048 
L 203.29931 142.850306 
" style="fill:none;stroke:#0000ff;stroke-width:1.5;"/>
    <path clip-path="url(#pdbbc74a883)" d="M 206.977471 165.423894 
L 206.977471 138.574724 
" style="fill:none;stroke:#0000ff;stroke-width:1.5;"/>
    <path clip-path="url(#pdbbc74a883)" d="M 210.655632 175.466908 
L 210.655632 149.266051 
" style="fill:none;stroke:#0000ff;stroke-width:1.5;"/>
    <path clip-path="url(#pdbbc74a883)" d="M 214.333793 143.303077 
L 214.333793 115.07999 
" style="fill:none;stroke:#0000ff;stroke-width:1.5;"/>
    <path clip-path="url(#pdbbc74a883)" d="M 218.011954 160.600499 
L 218.011954 133.445635 
" style="fill:none;stroke:#0000ff;stroke-width:1.5;"/>
    <path clip-path="url(#pdbbc74a883)" d="M 221.690115 141.69299 
L 221.690115 113.372582 
" style="fill:none;stroke:#0000ff;stroke-width:1.5;"/>
    <path clip-path="url(#pdbbc74a883)" d="M 225.368276 141.69299 
L 225.368276 113.372582 
" style="fill:none;stroke:#0000ff;stroke-width:1.5;"/>
    <path clip-path="url(#pdbbc74a883)" d="M 229.046437 148.534687 
L 229.046437 120.630238 
" style="fill:none;stroke:#0000ff;stroke-width:1.5;"/>
    <path clip-path="url(#pdbbc74a883)" d="M 232.724598 139.680148 
L 232.724598 111.238556 
" style="fill:none;stroke:#0000ff;stroke-width:1.5;"/>
    <path clip-path="url(#pdbbc74a883)" d="M 236.402759 160.198472 
L 236.402759 133.018289 
" style="fill:none;stroke:#0000ff;stroke-width:1.5;"/>
    <path clip-path="url(#pdbbc74a883)" d="M 240.08092 151.350949 
L 240.08092 123.619591 
" style="fill:none;stroke:#0000ff;stroke-width:1.5;"/>
    <path clip-path="url(#pdbbc74a883)" d="M 243.75908 139.680148 
L 243.75908 111.238556 
" style="fill:none;stroke:#0000ff;stroke-width:1.5;"/>
    <path clip-path="url(#pdbbc74a883)" d="M 247.437241 146.120322 
L 247.437241 118.06836 
" style="fill:none;stroke:#0000ff;stroke-width:1.5;"/>
    <path clip-path="url(#pdbbc74a883)" d="M 251.115402 142.498055 
L 251.115402 114.226265 
" style="fill:none;stroke:#0000ff;stroke-width:1.5;"/>
    <path clip-path="url(#pdbbc74a883)" d="M 254.793563 132.029029 
L 254.793563 103.131576 
" style="fill:none;stroke:#0000ff;stroke-width:1.5;"/>
    <path clip-path="url(#pdbbc74a883)" d="M 258.471724 140.082737 
L 258.471724 111.665341 
" style="fill:none;stroke:#0000ff;stroke-width:1.5;"/>
    <path clip-path="url(#pdbbc74a883)" d="M 262.149885 141.290442 
L 262.149885 112.945756 
" style="fill:none;stroke:#0000ff;stroke-width:1.5;"/>
    <path clip-path="url(#pdbbc74a883)" d="M 265.828046 145.315448 
L 265.828046 117.214487 
" style="fill:none;stroke:#0000ff;stroke-width:1.5;"/>
    <path clip-path="url(#pdbbc74a883)" d="M 269.506207 129.612143 
L 269.506207 100.57222 
" style="fill:none;stroke:#0000ff;stroke-width:1.5;"/>
    <path clip-path="url(#pdbbc74a883)" d="M 273.184368 125.986164 
L 273.184368 96.733836 
" style="fill:none;stroke:#0000ff;stroke-width:1.5;"/>
    <path clip-path="url(#pdbbc74a883)" d="M 276.862529 150.948659 
L 276.862529 123.192508 
" style="fill:none;stroke:#0000ff;stroke-width:1.5;"/>
    <path clip-path="url(#pdbbc74a883)" d="M 280.54069 157.383953 
L 280.54069 130.027192 
" style="fill:none;stroke:#0000ff;stroke-width:1.5;"/>
    <path clip-path="url(#pdbbc74a883)" d="M 284.218851 156.981832 
L 284.218851 129.599939 
" style="fill:none;stroke:#0000ff;stroke-width:1.5;"/>
    <path clip-path="url(#pdbbc74a883)" d="M 287.897011 141.69299 
L 287.897011 113.372582 
" style="fill:none;stroke:#0000ff;stroke-width:1.5;"/>
    <path clip-path="url(#pdbbc74a883)" d="M 291.575172 145.717891 
L 291.575172 117.641418 
" style="fill:none;stroke:#0000ff;stroke-width:1.5;"/>
    <path clip-path="url(#pdbbc74a883)" d="M 295.253333 145.315448 
L 295.253333 117.214487 
" style="fill:none;stroke:#0000ff;stroke-width:1.5;"/>
    <path clip-path="url(#pdbbc74a883)" d="M 298.931494 164.218208 
L 298.931494 137.292289 
" style="fill:none;stroke:#0000ff;stroke-width:1.5;"/>
    <path clip-path="url(#pdbbc74a883)" d="M 302.609655 155.775402 
L 302.609655 128.318248 
" style="fill:none;stroke:#0000ff;stroke-width:1.5;"/>
    <path clip-path="url(#pdbbc74a883)" d="M 306.287816 164.218208 
L 306.287816 137.292289 
" style="fill:none;stroke:#0000ff;stroke-width:1.5;"/>
    <path clip-path="url(#pdbbc74a883)" d="M 309.965977 165.423894 
L 309.965977 138.574724 
" style="fill:none;stroke:#0000ff;stroke-width:1.5;"/>
    <path clip-path="url(#pdbbc74a883)" d="M 313.644138 180.686064 
L 313.644138 154.828753 
" style="fill:none;stroke:#0000ff;stroke-width:1.5;"/>
    <path clip-path="url(#pdbbc74a883)" d="M 317.322299 162.208489 
L 317.322299 135.155139 
" style="fill:none;stroke:#0000ff;stroke-width:1.5;"/>
    <path clip-path="url(#pdbbc74a883)" d="M 321.00046 199.935985 
L 321.00046 175.388767 
" style="fill:none;stroke:#0000ff;stroke-width:1.5;"/>
    <path clip-path="url(#pdbbc74a883)" d="M 324.678621 205.543854 
L 324.678621 181.392129 
" style="fill:none;stroke:#0000ff;stroke-width:1.5;"/>
    <path clip-path="url(#pdbbc74a883)" d="M 328.356782 186.705286 
L 328.356782 161.250135 
" style="fill:none;stroke:#0000ff;stroke-width:1.5;"/>
    <path clip-path="url(#pdbbc74a883)" d="M 332.034943 205.944292 
L 332.034943 181.821064 
" style="fill:none;stroke:#0000ff;stroke-width:1.5;"/>
    <path clip-path="url(#pdbbc74a883)" d="M 335.713103 214.349502 
L 335.713103 190.832701 
" style="fill:none;stroke:#0000ff;stroke-width:1.5;"/>
    <path clip-path="url(#pdbbc74a883)" d="M 339.391264 209.947735 
L 339.391264 186.111358 
" style="fill:none;stroke:#0000ff;stroke-width:1.5;"/>
    <path clip-path="url(#pdbbc74a883)" d="M 343.069425 215.549606 
L 343.069425 192.120718 
" style="fill:none;stroke:#0000ff;stroke-width:1.5;"/>
    <path clip-path="url(#pdbbc74a883)" d="M 346.747586 223.945588 
L 346.747586 201.141583 
" style="fill:none;stroke:#0000ff;stroke-width:1.5;"/>
    <path clip-path="url(#pdbbc74a883)" d="M 350.425747 243.10205 
L 350.425747 221.795055 
" style="fill:none;stroke:#0000ff;stroke-width:1.5;"/>
    <path clip-path="url(#pdbbc74a883)" d="M 354.103908 241.906305 
L 354.103908 220.50268 
" style="fill:none;stroke:#0000ff;stroke-width:1.5;"/>
    <path clip-path="url(#pdbbc74a883)" d="M 357.782069 257.830471 
L 357.782069 237.75346 
" style="fill:none;stroke:#0000ff;stroke-width:1.5;"/>
    <path clip-path="url(#pdbbc74a883)" d="M 361.46023 264.981596 
L 361.46023 245.53106 
" style="fill:none;stroke:#0000ff;stroke-width:1.5;"/>
    <path clip-path="url(#pdbbc74a883)" d="M 365.138391 256.637671 
L 365.138391 236.458139 
" style="fill:none;stroke:#0000ff;stroke-width:1.5;"/>
    <path clip-path="url(#pdbbc74a883)" d="M 368.816552 256.240013 
L 368.816552 236.026423 
" style="fill:none;stroke:#0000ff;stroke-width:1.5;"/>
    <path clip-path="url(#pdbbc74a883)" d="M 372.494713 265.775541 
L 372.494713 246.395863 
" style="fill:none;stroke:#0000ff;stroke-width:1.5;"/>
    <path clip-path="url(#pdbbc74a883)" d="M 376.172874 287.947197 
L 376.172874 270.669132 
" style="fill:none;stroke:#0000ff;stroke-width:1.5;"/>
    <path clip-path="url(#pdbbc74a883)" d="M 379.851034 287.552392 
L 379.851034 270.234562 
" style="fill:none;stroke:#0000ff;stroke-width:1.5;"/>
    <path clip-path="url(#pdbbc74a883)" d="M 383.529195 288.736667 
L 383.529195 271.538409 
" style="fill:none;stroke:#0000ff;stroke-width:1.5;"/>
    <path clip-path="url(#pdbbc74a883)" d="M 387.207356 292.286942 
L 387.207356 275.452496 
" style="fill:none;stroke:#0000ff;stroke-width:1.5;"/>
    <path clip-path="url(#pdbbc74a883)" d="M 390.885517 297.014344 
L 390.885517 280.677578 
" style="fill:none;stroke:#0000ff;stroke-width:1.5;"/>
    <path clip-path="url(#pdbbc74a883)" d="M 394.563678 298.195001 
L 394.563678 281.985042 
" style="fill:none;stroke:#0000ff;stroke-width:1.5;"/>
    <path clip-path="url(#pdbbc74a883)" d="M 401.92 308.796864 
L 401.92 293.776268 
" style="fill:none;stroke:#0000ff;stroke-width:1.5;"/>
   </g>
   <g id="line2d_21">
    <path clip-path="url(#pdbbc74a883)" d="M 81.92 306.171294 
L 86.724805 302.775388 
L 91.52961 299.092081 
L 96.334414 295.113394 
L 101.139219 290.833453 
L 105.944024 286.248806 
L 110.748829 281.358729 
L 115.873954 275.808645 
L 120.999079 269.920638 
L 126.444525 263.307349 
L 131.88997 256.345532 
L 137.655736 248.623746 
L 144.062142 239.668815 
L 151.42951 228.966905 
L 160.718799 215.041472 
L 183.461542 180.752592 
L 190.188268 171.123386 
L 195.954034 163.256853 
L 201.079159 156.643083 
L 205.563644 151.200353 
L 209.727808 146.47168 
L 213.891972 142.088331 
L 217.735816 138.374193 
L 221.259339 135.26862 
L 224.782863 132.464965 
L 227.986066 130.190009 
L 231.189269 128.185663 
L 234.392472 126.460343 
L 237.275355 125.152172 
L 240.158238 124.080432 
L 243.041121 123.248823 
L 245.924004 122.660226 
L 248.806887 122.316684 
L 251.68977 122.219391 
L 254.572653 122.368686 
L 257.455536 122.764049 
L 260.338418 123.404106 
L 263.221301 124.286636 
L 266.104184 125.408585 
L 268.987067 126.766081 
L 271.86995 128.35446 
L 275.073153 130.383481 
L 278.276356 132.682302 
L 281.47956 135.241345 
L 285.003083 138.3442 
L 288.526607 141.733749 
L 292.37045 145.738896 
L 296.534615 150.413821 
L 301.019099 155.804443 
L 305.823904 161.944761 
L 310.949029 168.853049 
L 317.035115 177.450226 
L 324.082162 187.802758 
L 334.332412 203.29515 
L 350.348428 227.49674 
L 358.356436 239.165351 
L 365.083163 248.579247 
L 371.169249 256.721804 
L 376.935015 264.063603 
L 382.38046 270.636619 
L 387.505586 276.48504 
L 392.630711 281.994481 
L 397.435516 286.845962 
L 401.92 291.098376 
L 401.92 291.098376 
" style="fill:none;stroke:#ff0000;stroke-linecap:square;stroke-width:1.5;"/>
   </g>
   <g id="line2d_22">
    <g clip-path="url(#pdbbc74a883)">
     <use style="fill:#0000ff;stroke:#0000ff;" x="81.92" xlink:href="#mb7de0240a8" y="302.11594"/>
     <use style="fill:#0000ff;stroke:#0000ff;" x="85.598161" xlink:href="#mb7de0240a8" y="303.36"/>
     <use style="fill:#0000ff;stroke:#0000ff;" x="92.954483" xlink:href="#mb7de0240a8" y="284.699093"/>
     <use style="fill:#0000ff;stroke:#0000ff;" x="96.632644" xlink:href="#mb7de0240a8" y="292.578143"/>
     <use style="fill:#0000ff;stroke:#0000ff;" x="100.310805" xlink:href="#mb7de0240a8" y="280.552225"/>
     <use style="fill:#0000ff;stroke:#0000ff;" x="103.988966" xlink:href="#mb7de0240a8" y="276.405356"/>
     <use style="fill:#0000ff;stroke:#0000ff;" x="107.667126" xlink:href="#mb7de0240a8" y="284.699093"/>
     <use style="fill:#0000ff;stroke:#0000ff;" x="111.345287" xlink:href="#mb7de0240a8" y="276.820043"/>
     <use style="fill:#0000ff;stroke:#0000ff;" x="115.023448" xlink:href="#mb7de0240a8" y="272.258488"/>
     <use style="fill:#0000ff;stroke:#0000ff;" x="118.701609" xlink:href="#mb7de0240a8" y="270.599741"/>
     <use style="fill:#0000ff;stroke:#0000ff;" x="122.37977" xlink:href="#mb7de0240a8" y="270.599741"/>
     <use style="fill:#0000ff;stroke:#0000ff;" x="126.057931" xlink:href="#mb7de0240a8" y="269.770367"/>
     <use style="fill:#0000ff;stroke:#0000ff;" x="129.736092" xlink:href="#mb7de0240a8" y="254.841641"/>
     <use style="fill:#0000ff;stroke:#0000ff;" x="133.414253" xlink:href="#mb7de0240a8" y="263.135378"/>
     <use style="fill:#0000ff;stroke:#0000ff;" x="137.092414" xlink:href="#mb7de0240a8" y="253.182894"/>
     <use style="fill:#0000ff;stroke:#0000ff;" x="140.770575" xlink:href="#mb7de0240a8" y="239.498229"/>
     <use style="fill:#0000ff;stroke:#0000ff;" x="144.448736" xlink:href="#mb7de0240a8" y="235.766048"/>
     <use style="fill:#0000ff;stroke:#0000ff;" x="148.126897" xlink:href="#mb7de0240a8" y="229.545745"/>
     <use style="fill:#0000ff;stroke:#0000ff;" x="151.805057" xlink:href="#mb7de0240a8" y="215.86108"/>
     <use style="fill:#0000ff;stroke:#0000ff;" x="155.483218" xlink:href="#mb7de0240a8" y="220.837322"/>
     <use style="fill:#0000ff;stroke:#0000ff;" x="159.161379" xlink:href="#mb7de0240a8" y="211.299525"/>
     <use style="fill:#0000ff;stroke:#0000ff;" x="162.83954" xlink:href="#mb7de0240a8" y="205.493909"/>
     <use style="fill:#0000ff;stroke:#0000ff;" x="166.517701" xlink:href="#mb7de0240a8" y="212.543585"/>
     <use style="fill:#0000ff;stroke:#0000ff;" x="170.195862" xlink:href="#mb7de0240a8" y="200.517667"/>
     <use style="fill:#0000ff;stroke:#0000ff;" x="173.874023" xlink:href="#mb7de0240a8" y="193.467991"/>
     <use style="fill:#0000ff;stroke:#0000ff;" x="177.552184" xlink:href="#mb7de0240a8" y="194.712052"/>
     <use style="fill:#0000ff;stroke:#0000ff;" x="181.230345" xlink:href="#mb7de0240a8" y="196.370799"/>
     <use style="fill:#0000ff;stroke:#0000ff;" x="184.908506" xlink:href="#mb7de0240a8" y="177.295205"/>
     <use style="fill:#0000ff;stroke:#0000ff;" x="188.586667" xlink:href="#mb7de0240a8" y="193.053305"/>
     <use style="fill:#0000ff;stroke:#0000ff;" x="192.264828" xlink:href="#mb7de0240a8" y="170.660216"/>
     <use style="fill:#0000ff;stroke:#0000ff;" x="195.942989" xlink:href="#mb7de0240a8" y="171.48959"/>
     <use style="fill:#0000ff;stroke:#0000ff;" x="199.621149" xlink:href="#mb7de0240a8" y="172.73365"/>
     <use style="fill:#0000ff;stroke:#0000ff;" x="203.29931" xlink:href="#mb7de0240a8" y="156.146177"/>
     <use style="fill:#0000ff;stroke:#0000ff;" x="206.977471" xlink:href="#mb7de0240a8" y="151.999309"/>
     <use style="fill:#0000ff;stroke:#0000ff;" x="210.655632" xlink:href="#mb7de0240a8" y="162.366479"/>
     <use style="fill:#0000ff;stroke:#0000ff;" x="214.333793" xlink:href="#mb7de0240a8" y="129.191533"/>
     <use style="fill:#0000ff;stroke:#0000ff;" x="218.011954" xlink:href="#mb7de0240a8" y="147.023067"/>
     <use style="fill:#0000ff;stroke:#0000ff;" x="221.690115" xlink:href="#mb7de0240a8" y="127.532786"/>
     <use style="fill:#0000ff;stroke:#0000ff;" x="225.368276" xlink:href="#mb7de0240a8" y="127.532786"/>
     <use style="fill:#0000ff;stroke:#0000ff;" x="229.046437" xlink:href="#mb7de0240a8" y="134.582462"/>
     <use style="fill:#0000ff;stroke:#0000ff;" x="232.724598" xlink:href="#mb7de0240a8" y="125.459352"/>
     <use style="fill:#0000ff;stroke:#0000ff;" x="236.402759" xlink:href="#mb7de0240a8" y="146.60838"/>
     <use style="fill:#0000ff;stroke:#0000ff;" x="240.08092" xlink:href="#mb7de0240a8" y="137.48527"/>
     <use style="fill:#0000ff;stroke:#0000ff;" x="243.75908" xlink:href="#mb7de0240a8" y="125.459352"/>
     <use style="fill:#0000ff;stroke:#0000ff;" x="247.437241" xlink:href="#mb7de0240a8" y="132.094341"/>
     <use style="fill:#0000ff;stroke:#0000ff;" x="251.115402" xlink:href="#mb7de0240a8" y="128.36216"/>
     <use style="fill:#0000ff;stroke:#0000ff;" x="254.793563" xlink:href="#mb7de0240a8" y="117.580302"/>
     <use style="fill:#0000ff;stroke:#0000ff;" x="258.471724" xlink:href="#mb7de0240a8" y="125.874039"/>
     <use style="fill:#0000ff;stroke:#0000ff;" x="262.149885" xlink:href="#mb7de0240a8" y="127.118099"/>
     <use style="fill:#0000ff;stroke:#0000ff;" x="265.828046" xlink:href="#mb7de0240a8" y="131.264968"/>
     <use style="fill:#0000ff;stroke:#0000ff;" x="269.506207" xlink:href="#mb7de0240a8" y="115.092181"/>
     <use style="fill:#0000ff;stroke:#0000ff;" x="273.184368" xlink:href="#mb7de0240a8" y="111.36"/>
     <use style="fill:#0000ff;stroke:#0000ff;" x="276.862529" xlink:href="#mb7de0240a8" y="137.070583"/>
     <use style="fill:#0000ff;stroke:#0000ff;" x="280.54069" xlink:href="#mb7de0240a8" y="143.705572"/>
     <use style="fill:#0000ff;stroke:#0000ff;" x="284.218851" xlink:href="#mb7de0240a8" y="143.290886"/>
     <use style="fill:#0000ff;stroke:#0000ff;" x="287.897011" xlink:href="#mb7de0240a8" y="127.532786"/>
     <use style="fill:#0000ff;stroke:#0000ff;" x="291.575172" xlink:href="#mb7de0240a8" y="131.679654"/>
     <use style="fill:#0000ff;stroke:#0000ff;" x="295.253333" xlink:href="#mb7de0240a8" y="131.264968"/>
     <use style="fill:#0000ff;stroke:#0000ff;" x="298.931494" xlink:href="#mb7de0240a8" y="150.755248"/>
     <use style="fill:#0000ff;stroke:#0000ff;" x="302.609655" xlink:href="#mb7de0240a8" y="142.046825"/>
     <use style="fill:#0000ff;stroke:#0000ff;" x="306.287816" xlink:href="#mb7de0240a8" y="150.755248"/>
     <use style="fill:#0000ff;stroke:#0000ff;" x="309.965977" xlink:href="#mb7de0240a8" y="151.999309"/>
     <use style="fill:#0000ff;stroke:#0000ff;" x="313.644138" xlink:href="#mb7de0240a8" y="167.757408"/>
     <use style="fill:#0000ff;stroke:#0000ff;" x="317.322299" xlink:href="#mb7de0240a8" y="148.681814"/>
     <use style="fill:#0000ff;stroke:#0000ff;" x="321.00046" xlink:href="#mb7de0240a8" y="187.662376"/>
     <use style="fill:#0000ff;stroke:#0000ff;" x="324.678621" xlink:href="#mb7de0240a8" y="193.467991"/>
     <use style="fill:#0000ff;stroke:#0000ff;" x="328.356782" xlink:href="#mb7de0240a8" y="173.977711"/>
     <use style="fill:#0000ff;stroke:#0000ff;" x="332.034943" xlink:href="#mb7de0240a8" y="193.882678"/>
     <use style="fill:#0000ff;stroke:#0000ff;" x="335.713103" xlink:href="#mb7de0240a8" y="202.591102"/>
     <use style="fill:#0000ff;stroke:#0000ff;" x="339.391264" xlink:href="#mb7de0240a8" y="198.029546"/>
     <use style="fill:#0000ff;stroke:#0000ff;" x="343.069425" xlink:href="#mb7de0240a8" y="203.835162"/>
     <use style="fill:#0000ff;stroke:#0000ff;" x="346.747586" xlink:href="#mb7de0240a8" y="212.543585"/>
     <use style="fill:#0000ff;stroke:#0000ff;" x="350.425747" xlink:href="#mb7de0240a8" y="232.448553"/>
     <use style="fill:#0000ff;stroke:#0000ff;" x="354.103908" xlink:href="#mb7de0240a8" y="231.204492"/>
     <use style="fill:#0000ff;stroke:#0000ff;" x="357.782069" xlink:href="#mb7de0240a8" y="247.791965"/>
     <use style="fill:#0000ff;stroke:#0000ff;" x="361.46023" xlink:href="#mb7de0240a8" y="255.256328"/>
     <use style="fill:#0000ff;stroke:#0000ff;" x="365.138391" xlink:href="#mb7de0240a8" y="246.547905"/>
     <use style="fill:#0000ff;stroke:#0000ff;" x="368.816552" xlink:href="#mb7de0240a8" y="246.133218"/>
     <use style="fill:#0000ff;stroke:#0000ff;" x="372.494713" xlink:href="#mb7de0240a8" y="256.085702"/>
     <use style="fill:#0000ff;stroke:#0000ff;" x="376.172874" xlink:href="#mb7de0240a8" y="279.308164"/>
     <use style="fill:#0000ff;stroke:#0000ff;" x="379.851034" xlink:href="#mb7de0240a8" y="278.893477"/>
     <use style="fill:#0000ff;stroke:#0000ff;" x="383.529195" xlink:href="#mb7de0240a8" y="280.137538"/>
     <use style="fill:#0000ff;stroke:#0000ff;" x="387.207356" xlink:href="#mb7de0240a8" y="283.869719"/>
     <use style="fill:#0000ff;stroke:#0000ff;" x="390.885517" xlink:href="#mb7de0240a8" y="288.845961"/>
     <use style="fill:#0000ff;stroke:#0000ff;" x="394.563678" xlink:href="#mb7de0240a8" y="290.090022"/>
     <use style="fill:#0000ff;stroke:#0000ff;" x="401.92" xlink:href="#mb7de0240a8" y="301.286566"/>
    </g>
   </g>
   <g id="patch_8">
    <path d="M 69.12 311.04 
L 69.12 103.68 
" style="fill:none;stroke:#000000;stroke-linecap:square;stroke-linejoin:miter;stroke-width:0.8;"/>
   </g>
   <g id="patch_9">
    <path d="M 414.72 311.04 
L 414.72 103.68 
" style="fill:none;stroke:#000000;stroke-linecap:square;stroke-linejoin:miter;stroke-width:0.8;"/>
   </g>
   <g id="patch_10">
    <path d="M 69.12 311.04 
L 414.72 311.04 
" style="fill:none;stroke:#000000;stroke-linecap:square;stroke-linejoin:miter;stroke-width:0.8;"/>
   </g>
   <g id="patch_11">
    <path d="M 69.12 103.68 
L 414.72 103.68 
" style="fill:none;stroke:#000000;stroke-linecap:square;stroke-linejoin:miter;stroke-width:0.8;"/>
   </g>
  </g>
 </g>
 <defs>
  <clipPath id="pdea826c3c6">
   <rect height="51.84" width="345.6" x="69.12" y="44.928"/>
  </clipPath>
  <clipPath id="pdbbc74a883">
   <rect height="207.36" width="345.6" x="69.12" y="103.68"/>
  </clipPath>
 </defs>
</svg>
