<?xml version="1.0" encoding="utf-8" standalone="no"?>
<!DOCTYPE svg PUBLIC "-//W3C//DTD SVG 1.1//EN"
  "http://www.w3.org/Graphics/SVG/1.1/DTD/svg11.dtd">
<!-- Created with matplotlib (http://matplotlib.org/) -->
<svg height="345pt" version="1.1" viewBox="0 0 460 345" width="460pt" xmlns="http://www.w3.org/2000/svg" xmlns:xlink="http://www.w3.org/1999/xlink">
 <defs>
  <style type="text/css">
*{stroke-linecap:butt;stroke-linejoin:round;}
  </style>
 </defs>
 <g id="figure_1">
  <g id="patch_1">
   <path d="M 0 345.6 
L 460.8 345.6 
L 460.8 0 
L 0 0 
z
" style="fill:#ffffff;"/>
  </g>
  <g id="axes_1">
   <g id="patch_2">
    <path d="M 69.12 96.768 
L 414.72 96.768 
L 414.72 44.928 
L 69.12 44.928 
z
" style="fill:#ffffff;"/>
   </g>
   <g id="matplotlib.axis_1">
    <g id="xtick_1">
     <g id="line2d_1">
      <defs>
       <path d="M 0 0 
L 0 3.5 
" id="m5fb1bee538" style="stroke:#000000;stroke-width:0.8;"/>
      </defs>
      <g>
       <use style="stroke:#000000;stroke-width:0.8;" x="130.781812" xlink:href="#m5fb1bee538" y="96.768"/>
      </g>
     </g>
    </g>
    <g id="xtick_2">
     <g id="line2d_2">
      <g>
       <use style="stroke:#000000;stroke-width:0.8;" x="194.067062" xlink:href="#m5fb1bee538" y="96.768"/>
      </g>
     </g>
    </g>
    <g id="xtick_3">
     <g id="line2d_3">
      <g>
       <use style="stroke:#000000;stroke-width:0.8;" x="257.352311" xlink:href="#m5fb1bee538" y="96.768"/>
      </g>
     </g>
    </g>
    <g id="xtick_4">
     <g id="line2d_4">
      <g>
       <use style="stroke:#000000;stroke-width:0.8;" x="320.63756" xlink:href="#m5fb1bee538" y="96.768"/>
      </g>
     </g>
    </g>
    <g id="xtick_5">
     <g id="line2d_5">
      <g>
       <use style="stroke:#000000;stroke-width:0.8;" x="383.92281" xlink:href="#m5fb1bee538" y="96.768"/>
      </g>
     </g>
    </g>
   </g>
   <g id="matplotlib.axis_2">
    <g id="ytick_1">
     <g id="line2d_6">
      <defs>
       <path d="M 0 0 
L -3.5 0 
" id="mc01bf56e80" style="stroke:#000000;stroke-width:0.8;"/>
      </defs>
      <g>
       <use style="stroke:#000000;stroke-width:0.8;" x="69.12" xlink:href="#mc01bf56e80" y="84.524277"/>
      </g>
     </g>
     <g id="text_1">
      <!-- −1 -->
      <defs>
       <path d="M 10.59375 35.5 
L 73.1875 35.5 
L 73.1875 27.203125 
L 10.59375 27.203125 
z
" id="DejaVuSans-2212"/>
       <path d="M 12.40625 8.296875 
L 28.515625 8.296875 
L 28.515625 63.921875 
L 10.984375 60.40625 
L 10.984375 69.390625 
L 28.421875 72.90625 
L 38.28125 72.90625 
L 38.28125 8.296875 
L 54.390625 8.296875 
L 54.390625 0 
L 12.40625 0 
z
" id="DejaVuSans-31"/>
      </defs>
      <g transform="translate(40.006719 90.223105)scale(0.15 -0.15)">
       <use xlink:href="#DejaVuSans-2212"/>
       <use x="83.789062" xlink:href="#DejaVuSans-31"/>
      </g>
     </g>
    </g>
    <g id="ytick_2">
     <g id="line2d_7">
      <g>
       <use style="stroke:#000000;stroke-width:0.8;" x="69.12" xlink:href="#mc01bf56e80" y="70.186577"/>
      </g>
     </g>
    </g>
    <g id="ytick_3">
     <g id="line2d_8">
      <g>
       <use style="stroke:#000000;stroke-width:0.8;" x="69.12" xlink:href="#mc01bf56e80" y="55.848876"/>
      </g>
     </g>
     <g id="text_2">
      <!-- 1 -->
      <g transform="translate(52.57625 61.547704)scale(0.15 -0.15)">
       <use xlink:href="#DejaVuSans-31"/>
      </g>
     </g>
    </g>
    <g id="text_3">
     <!-- Studentized -->
     <defs>
      <path d="M 53.515625 70.515625 
L 53.515625 60.890625 
Q 47.90625 63.578125 42.921875 64.890625 
Q 37.9375 66.21875 33.296875 66.21875 
Q 25.25 66.21875 20.875 63.09375 
Q 16.5 59.96875 16.5 54.203125 
Q 16.5 49.359375 19.40625 46.890625 
Q 22.3125 44.4375 30.421875 42.921875 
L 36.375 41.703125 
Q 47.40625 39.59375 52.65625 34.296875 
Q 57.90625 29 57.90625 20.125 
Q 57.90625 9.515625 50.796875 4.046875 
Q 43.703125 -1.421875 29.984375 -1.421875 
Q 24.8125 -1.421875 18.96875 -0.25 
Q 13.140625 0.921875 6.890625 3.21875 
L 6.890625 13.375 
Q 12.890625 10.015625 18.65625 8.296875 
Q 24.421875 6.59375 29.984375 6.59375 
Q 38.421875 6.59375 43.015625 9.90625 
Q 47.609375 13.234375 47.609375 19.390625 
Q 47.609375 24.75 44.3125 27.78125 
Q 41.015625 30.8125 33.5 32.328125 
L 27.484375 33.5 
Q 16.453125 35.6875 11.515625 40.375 
Q 6.59375 45.0625 6.59375 53.421875 
Q 6.59375 63.09375 13.40625 68.65625 
Q 20.21875 74.21875 32.171875 74.21875 
Q 37.3125 74.21875 42.625 73.28125 
Q 47.953125 72.359375 53.515625 70.515625 
z
" id="DejaVuSans-53"/>
      <path d="M 18.3125 70.21875 
L 18.3125 54.6875 
L 36.8125 54.6875 
L 36.8125 47.703125 
L 18.3125 47.703125 
L 18.3125 18.015625 
Q 18.3125 11.328125 20.140625 9.421875 
Q 21.96875 7.515625 27.59375 7.515625 
L 36.8125 7.515625 
L 36.8125 0 
L 27.59375 0 
Q 17.1875 0 13.234375 3.875 
Q 9.28125 7.765625 9.28125 18.015625 
L 9.28125 47.703125 
L 2.6875 47.703125 
L 2.6875 54.6875 
L 9.28125 54.6875 
L 9.28125 70.21875 
z
" id="DejaVuSans-74"/>
      <path d="M 8.5 21.578125 
L 8.5 54.6875 
L 17.484375 54.6875 
L 17.484375 21.921875 
Q 17.484375 14.15625 20.5 10.265625 
Q 23.53125 6.390625 29.59375 6.390625 
Q 36.859375 6.390625 41.078125 11.03125 
Q 45.3125 15.671875 45.3125 23.6875 
L 45.3125 54.6875 
L 54.296875 54.6875 
L 54.296875 0 
L 45.3125 0 
L 45.3125 8.40625 
Q 42.046875 3.421875 37.71875 1 
Q 33.40625 -1.421875 27.6875 -1.421875 
Q 18.265625 -1.421875 13.375 4.4375 
Q 8.5 10.296875 8.5 21.578125 
z
M 31.109375 56 
z
" id="DejaVuSans-75"/>
      <path d="M 45.40625 46.390625 
L 45.40625 75.984375 
L 54.390625 75.984375 
L 54.390625 0 
L 45.40625 0 
L 45.40625 8.203125 
Q 42.578125 3.328125 38.25 0.953125 
Q 33.9375 -1.421875 27.875 -1.421875 
Q 17.96875 -1.421875 11.734375 6.484375 
Q 5.515625 14.40625 5.515625 27.296875 
Q 5.515625 40.1875 11.734375 48.09375 
Q 17.96875 56 27.875 56 
Q 33.9375 56 38.25 53.625 
Q 42.578125 51.265625 45.40625 46.390625 
z
M 14.796875 27.296875 
Q 14.796875 17.390625 18.875 11.75 
Q 22.953125 6.109375 30.078125 6.109375 
Q 37.203125 6.109375 41.296875 11.75 
Q 45.40625 17.390625 45.40625 27.296875 
Q 45.40625 37.203125 41.296875 42.84375 
Q 37.203125 48.484375 30.078125 48.484375 
Q 22.953125 48.484375 18.875 42.84375 
Q 14.796875 37.203125 14.796875 27.296875 
z
" id="DejaVuSans-64"/>
      <path d="M 56.203125 29.59375 
L 56.203125 25.203125 
L 14.890625 25.203125 
Q 15.484375 15.921875 20.484375 11.0625 
Q 25.484375 6.203125 34.421875 6.203125 
Q 39.59375 6.203125 44.453125 7.46875 
Q 49.3125 8.734375 54.109375 11.28125 
L 54.109375 2.78125 
Q 49.265625 0.734375 44.1875 -0.34375 
Q 39.109375 -1.421875 33.890625 -1.421875 
Q 20.796875 -1.421875 13.15625 6.1875 
Q 5.515625 13.8125 5.515625 26.8125 
Q 5.515625 40.234375 12.765625 48.109375 
Q 20.015625 56 32.328125 56 
Q 43.359375 56 49.78125 48.890625 
Q 56.203125 41.796875 56.203125 29.59375 
z
M 47.21875 32.234375 
Q 47.125 39.59375 43.09375 43.984375 
Q 39.0625 48.390625 32.421875 48.390625 
Q 24.90625 48.390625 20.390625 44.140625 
Q 15.875 39.890625 15.1875 32.171875 
z
" id="DejaVuSans-65"/>
      <path d="M 54.890625 33.015625 
L 54.890625 0 
L 45.90625 0 
L 45.90625 32.71875 
Q 45.90625 40.484375 42.875 44.328125 
Q 39.84375 48.1875 33.796875 48.1875 
Q 26.515625 48.1875 22.3125 43.546875 
Q 18.109375 38.921875 18.109375 30.90625 
L 18.109375 0 
L 9.078125 0 
L 9.078125 54.6875 
L 18.109375 54.6875 
L 18.109375 46.1875 
Q 21.34375 51.125 25.703125 53.5625 
Q 30.078125 56 35.796875 56 
Q 45.21875 56 50.046875 50.171875 
Q 54.890625 44.34375 54.890625 33.015625 
z
" id="DejaVuSans-6e"/>
      <path d="M 9.421875 54.6875 
L 18.40625 54.6875 
L 18.40625 0 
L 9.421875 0 
z
M 9.421875 75.984375 
L 18.40625 75.984375 
L 18.40625 64.59375 
L 9.421875 64.59375 
z
" id="DejaVuSans-69"/>
      <path d="M 5.515625 54.6875 
L 48.1875 54.6875 
L 48.1875 46.484375 
L 14.40625 7.171875 
L 48.1875 7.171875 
L 48.1875 0 
L 4.296875 0 
L 4.296875 8.203125 
L 38.09375 47.515625 
L 5.515625 47.515625 
z
" id="DejaVuSans-7a"/>
     </defs>
     <g transform="translate(16.090469 115.768313)rotate(-90)scale(0.15 -0.15)">
      <use xlink:href="#DejaVuSans-53"/>
      <use x="63.476562" xlink:href="#DejaVuSans-74"/>
      <use x="102.685547" xlink:href="#DejaVuSans-75"/>
      <use x="166.064453" xlink:href="#DejaVuSans-64"/>
      <use x="229.541016" xlink:href="#DejaVuSans-65"/>
      <use x="291.064453" xlink:href="#DejaVuSans-6e"/>
      <use x="354.443359" xlink:href="#DejaVuSans-74"/>
      <use x="393.652344" xlink:href="#DejaVuSans-69"/>
      <use x="421.435547" xlink:href="#DejaVuSans-7a"/>
      <use x="473.925781" xlink:href="#DejaVuSans-65"/>
      <use x="535.449219" xlink:href="#DejaVuSans-64"/>
     </g>
     <!-- Residuals -->
     <defs>
      <path d="M 44.390625 34.1875 
Q 47.5625 33.109375 50.5625 29.59375 
Q 53.5625 26.078125 56.59375 19.921875 
L 66.609375 0 
L 56 0 
L 46.6875 18.703125 
Q 43.0625 26.03125 39.671875 28.421875 
Q 36.28125 30.8125 30.421875 30.8125 
L 19.671875 30.8125 
L 19.671875 0 
L 9.8125 0 
L 9.8125 72.90625 
L 32.078125 72.90625 
Q 44.578125 72.90625 50.734375 67.671875 
Q 56.890625 62.453125 56.890625 51.90625 
Q 56.890625 45.015625 53.6875 40.46875 
Q 50.484375 35.9375 44.390625 34.1875 
z
M 19.671875 64.796875 
L 19.671875 38.921875 
L 32.078125 38.921875 
Q 39.203125 38.921875 42.84375 42.21875 
Q 46.484375 45.515625 46.484375 51.90625 
Q 46.484375 58.296875 42.84375 61.546875 
Q 39.203125 64.796875 32.078125 64.796875 
z
" id="DejaVuSans-52"/>
      <path d="M 44.28125 53.078125 
L 44.28125 44.578125 
Q 40.484375 46.53125 36.375 47.5 
Q 32.28125 48.484375 27.875 48.484375 
Q 21.1875 48.484375 17.84375 46.4375 
Q 14.5 44.390625 14.5 40.28125 
Q 14.5 37.15625 16.890625 35.375 
Q 19.28125 33.59375 26.515625 31.984375 
L 29.59375 31.296875 
Q 39.15625 29.25 43.1875 25.515625 
Q 47.21875 21.78125 47.21875 15.09375 
Q 47.21875 7.46875 41.1875 3.015625 
Q 35.15625 -1.421875 24.609375 -1.421875 
Q 20.21875 -1.421875 15.453125 -0.5625 
Q 10.6875 0.296875 5.421875 2 
L 5.421875 11.28125 
Q 10.40625 8.6875 15.234375 7.390625 
Q 20.0625 6.109375 24.8125 6.109375 
Q 31.15625 6.109375 34.5625 8.28125 
Q 37.984375 10.453125 37.984375 14.40625 
Q 37.984375 18.0625 35.515625 20.015625 
Q 33.0625 21.96875 24.703125 23.78125 
L 21.578125 24.515625 
Q 13.234375 26.265625 9.515625 29.90625 
Q 5.8125 33.546875 5.8125 39.890625 
Q 5.8125 47.609375 11.28125 51.796875 
Q 16.75 56 26.8125 56 
Q 31.78125 56 36.171875 55.265625 
Q 40.578125 54.546875 44.28125 53.078125 
z
" id="DejaVuSans-73"/>
      <path d="M 34.28125 27.484375 
Q 23.390625 27.484375 19.1875 25 
Q 14.984375 22.515625 14.984375 16.5 
Q 14.984375 11.71875 18.140625 8.90625 
Q 21.296875 6.109375 26.703125 6.109375 
Q 34.1875 6.109375 38.703125 11.40625 
Q 43.21875 16.703125 43.21875 25.484375 
L 43.21875 27.484375 
z
M 52.203125 31.203125 
L 52.203125 0 
L 43.21875 0 
L 43.21875 8.296875 
Q 40.140625 3.328125 35.546875 0.953125 
Q 30.953125 -1.421875 24.3125 -1.421875 
Q 15.921875 -1.421875 10.953125 3.296875 
Q 6 8.015625 6 15.921875 
Q 6 25.140625 12.171875 29.828125 
Q 18.359375 34.515625 30.609375 34.515625 
L 43.21875 34.515625 
L 43.21875 35.40625 
Q 43.21875 41.609375 39.140625 45 
Q 35.0625 48.390625 27.6875 48.390625 
Q 23 48.390625 18.546875 47.265625 
Q 14.109375 46.140625 10.015625 43.890625 
L 10.015625 52.203125 
Q 14.9375 54.109375 19.578125 55.046875 
Q 24.21875 56 28.609375 56 
Q 40.484375 56 46.34375 49.84375 
Q 52.203125 43.703125 52.203125 31.203125 
z
" id="DejaVuSans-61"/>
      <path d="M 9.421875 75.984375 
L 18.40625 75.984375 
L 18.40625 0 
L 9.421875 0 
z
" id="DejaVuSans-6c"/>
     </defs>
     <g transform="translate(32.887188 106.761281)rotate(-90)scale(0.15 -0.15)">
      <use xlink:href="#DejaVuSans-52"/>
      <use x="69.419922" xlink:href="#DejaVuSans-65"/>
      <use x="130.943359" xlink:href="#DejaVuSans-73"/>
      <use x="183.042969" xlink:href="#DejaVuSans-69"/>
      <use x="210.826172" xlink:href="#DejaVuSans-64"/>
      <use x="274.302734" xlink:href="#DejaVuSans-75"/>
      <use x="337.681641" xlink:href="#DejaVuSans-61"/>
      <use x="398.960938" xlink:href="#DejaVuSans-6c"/>
      <use x="426.744141" xlink:href="#DejaVuSans-73"/>
     </g>
    </g>
   </g>
   <g id="LineCollection_1">
    <path clip-path="url(#p161c6ee3de)" d="M 81.92 64.913608 
L 81.92 36.238207 
" style="fill:none;stroke:#0000ff;stroke-width:1.5;"/>
    <path clip-path="url(#p161c6ee3de)" d="M 85.684706 73.408741 
L 85.684706 44.73334 
" style="fill:none;stroke:#0000ff;stroke-width:1.5;"/>
    <path clip-path="url(#p161c6ee3de)" d="M 89.449412 84.048654 
L 89.449412 55.373253 
" style="fill:none;stroke:#0000ff;stroke-width:1.5;"/>
    <path clip-path="url(#p161c6ee3de)" d="M 93.214118 84.424925 
L 93.214118 55.749524 
" style="fill:none;stroke:#0000ff;stroke-width:1.5;"/>
    <path clip-path="url(#p161c6ee3de)" d="M 96.978824 75.684027 
L 96.978824 47.008625 
" style="fill:none;stroke:#0000ff;stroke-width:1.5;"/>
    <path clip-path="url(#p161c6ee3de)" d="M 100.743529 88.363919 
L 100.743529 59.688518 
" style="fill:none;stroke:#0000ff;stroke-width:1.5;"/>
    <path clip-path="url(#p161c6ee3de)" d="M 104.508235 67.58658 
L 104.508235 38.911178 
" style="fill:none;stroke:#0000ff;stroke-width:1.5;"/>
    <path clip-path="url(#p161c6ee3de)" d="M 108.272941 99.567 
L 108.272941 70.891599 
" style="fill:none;stroke:#0000ff;stroke-width:1.5;"/>
    <path clip-path="url(#p161c6ee3de)" d="M 112.037647 86.643855 
L 112.037647 57.968453 
" style="fill:none;stroke:#0000ff;stroke-width:1.5;"/>
    <path clip-path="url(#p161c6ee3de)" d="M 115.802353 94.490813 
L 115.802353 65.815412 
" style="fill:none;stroke:#0000ff;stroke-width:1.5;"/>
    <path clip-path="url(#p161c6ee3de)" d="M 119.567059 89.889349 
L 119.567059 61.213948 
" style="fill:none;stroke:#0000ff;stroke-width:1.5;"/>
    <path clip-path="url(#p161c6ee3de)" d="M 123.331765 66.839159 
L 123.331765 38.163758 
" style="fill:none;stroke:#0000ff;stroke-width:1.5;"/>
    <path clip-path="url(#p161c6ee3de)" d="M 127.096471 66.94466 
L 127.096471 38.269259 
" style="fill:none;stroke:#0000ff;stroke-width:1.5;"/>
    <path clip-path="url(#p161c6ee3de)" d="M 130.861176 85.623772 
L 130.861176 56.948371 
" style="fill:none;stroke:#0000ff;stroke-width:1.5;"/>
    <path clip-path="url(#p161c6ee3de)" d="M 134.625882 79.272223 
L 134.625882 50.596821 
" style="fill:none;stroke:#0000ff;stroke-width:1.5;"/>
    <path clip-path="url(#p161c6ee3de)" d="M 138.390588 86.971091 
L 138.390588 58.29569 
" style="fill:none;stroke:#0000ff;stroke-width:1.5;"/>
    <path clip-path="url(#p161c6ee3de)" d="M 142.155294 79.530686 
L 142.155294 50.855284 
" style="fill:none;stroke:#0000ff;stroke-width:1.5;"/>
    <path clip-path="url(#p161c6ee3de)" d="M 145.92 74.463974 
L 145.92 45.788573 
" style="fill:none;stroke:#0000ff;stroke-width:1.5;"/>
    <path clip-path="url(#p161c6ee3de)" d="M 149.684706 84.963523 
L 149.684706 56.288122 
" style="fill:none;stroke:#0000ff;stroke-width:1.5;"/>
    <path clip-path="url(#p161c6ee3de)" d="M 153.449412 82.314292 
L 153.449412 53.638891 
" style="fill:none;stroke:#0000ff;stroke-width:1.5;"/>
    <path clip-path="url(#p161c6ee3de)" d="M 157.214118 93.542824 
L 157.214118 64.867423 
" style="fill:none;stroke:#0000ff;stroke-width:1.5;"/>
    <path clip-path="url(#p161c6ee3de)" d="M 160.978824 92.590383 
L 160.978824 63.914982 
" style="fill:none;stroke:#0000ff;stroke-width:1.5;"/>
    <path clip-path="url(#p161c6ee3de)" d="M 164.743529 82.811127 
L 164.743529 54.135725 
" style="fill:none;stroke:#0000ff;stroke-width:1.5;"/>
    <path clip-path="url(#p161c6ee3de)" d="M 168.508235 83.259522 
L 168.508235 54.584121 
" style="fill:none;stroke:#0000ff;stroke-width:1.5;"/>
    <path clip-path="url(#p161c6ee3de)" d="M 172.272941 71.126018 
L 172.272941 42.450617 
" style="fill:none;stroke:#0000ff;stroke-width:1.5;"/>
    <path clip-path="url(#p161c6ee3de)" d="M 176.037647 79.756152 
L 176.037647 51.080751 
" style="fill:none;stroke:#0000ff;stroke-width:1.5;"/>
    <path clip-path="url(#p161c6ee3de)" d="M 179.802353 91.410931 
L 179.802353 62.73553 
" style="fill:none;stroke:#0000ff;stroke-width:1.5;"/>
    <path clip-path="url(#p161c6ee3de)" d="M 183.567059 85.761112 
L 183.567059 57.085711 
" style="fill:none;stroke:#0000ff;stroke-width:1.5;"/>
    <path clip-path="url(#p161c6ee3de)" d="M 187.331765 87.836484 
L 187.331765 59.161083 
" style="fill:none;stroke:#0000ff;stroke-width:1.5;"/>
    <path clip-path="url(#p161c6ee3de)" d="M 191.096471 89.267755 
L 191.096471 60.592354 
" style="fill:none;stroke:#0000ff;stroke-width:1.5;"/>
    <path clip-path="url(#p161c6ee3de)" d="M 194.861176 92.400735 
L 194.861176 63.725334 
" style="fill:none;stroke:#0000ff;stroke-width:1.5;"/>
    <path clip-path="url(#p161c6ee3de)" d="M 198.625882 101.560546 
L 198.625882 72.885145 
" style="fill:none;stroke:#0000ff;stroke-width:1.5;"/>
    <path clip-path="url(#p161c6ee3de)" d="M 202.390588 82.82241 
L 202.390588 54.147008 
" style="fill:none;stroke:#0000ff;stroke-width:1.5;"/>
    <path clip-path="url(#p161c6ee3de)" d="M 206.155294 84.765938 
L 206.155294 56.090537 
" style="fill:none;stroke:#0000ff;stroke-width:1.5;"/>
    <path clip-path="url(#p161c6ee3de)" d="M 209.92 92.228277 
L 209.92 63.552876 
" style="fill:none;stroke:#0000ff;stroke-width:1.5;"/>
    <path clip-path="url(#p161c6ee3de)" d="M 213.684706 100.871861 
L 213.684706 72.196459 
" style="fill:none;stroke:#0000ff;stroke-width:1.5;"/>
    <path clip-path="url(#p161c6ee3de)" d="M 217.449412 68.632505 
L 217.449412 39.957104 
" style="fill:none;stroke:#0000ff;stroke-width:1.5;"/>
    <path clip-path="url(#p161c6ee3de)" d="M 221.214118 89.876393 
L 221.214118 61.200991 
" style="fill:none;stroke:#0000ff;stroke-width:1.5;"/>
    <path clip-path="url(#p161c6ee3de)" d="M 224.978824 85.026001 
L 224.978824 56.3506 
" style="fill:none;stroke:#0000ff;stroke-width:1.5;"/>
    <path clip-path="url(#p161c6ee3de)" d="M 228.743529 94.890519 
L 228.743529 66.215118 
" style="fill:none;stroke:#0000ff;stroke-width:1.5;"/>
    <path clip-path="url(#p161c6ee3de)" d="M 232.508235 91.35767 
L 232.508235 62.682269 
" style="fill:none;stroke:#0000ff;stroke-width:1.5;"/>
    <path clip-path="url(#p161c6ee3de)" d="M 236.272941 85.408492 
L 236.272941 56.733091 
" style="fill:none;stroke:#0000ff;stroke-width:1.5;"/>
    <path clip-path="url(#p161c6ee3de)" d="M 240.037647 88.789998 
L 240.037647 60.114597 
" style="fill:none;stroke:#0000ff;stroke-width:1.5;"/>
    <path clip-path="url(#p161c6ee3de)" d="M 243.802353 107.654191 
L 243.802353 78.97879 
" style="fill:none;stroke:#0000ff;stroke-width:1.5;"/>
    <path clip-path="url(#p161c6ee3de)" d="M 247.567059 82.966814 
L 247.567059 54.291413 
" style="fill:none;stroke:#0000ff;stroke-width:1.5;"/>
    <path clip-path="url(#p161c6ee3de)" d="M 251.331765 84.608085 
L 251.331765 55.932684 
" style="fill:none;stroke:#0000ff;stroke-width:1.5;"/>
    <path clip-path="url(#p161c6ee3de)" d="M 255.096471 83.751704 
L 255.096471 55.076303 
" style="fill:none;stroke:#0000ff;stroke-width:1.5;"/>
    <path clip-path="url(#p161c6ee3de)" d="M 258.861176 75.179273 
L 258.861176 46.503872 
" style="fill:none;stroke:#0000ff;stroke-width:1.5;"/>
    <path clip-path="url(#p161c6ee3de)" d="M 262.625882 74.301906 
L 262.625882 45.626505 
" style="fill:none;stroke:#0000ff;stroke-width:1.5;"/>
    <path clip-path="url(#p161c6ee3de)" d="M 266.390588 66.730744 
L 266.390588 38.055343 
" style="fill:none;stroke:#0000ff;stroke-width:1.5;"/>
    <path clip-path="url(#p161c6ee3de)" d="M 270.155294 82.229437 
L 270.155294 53.554036 
" style="fill:none;stroke:#0000ff;stroke-width:1.5;"/>
    <path clip-path="url(#p161c6ee3de)" d="M 273.92 90.170675 
L 273.92 61.495274 
" style="fill:none;stroke:#0000ff;stroke-width:1.5;"/>
    <path clip-path="url(#p161c6ee3de)" d="M 277.684706 79.595009 
L 277.684706 50.919607 
" style="fill:none;stroke:#0000ff;stroke-width:1.5;"/>
    <path clip-path="url(#p161c6ee3de)" d="M 281.449412 93.672371 
L 281.449412 64.99697 
" style="fill:none;stroke:#0000ff;stroke-width:1.5;"/>
    <path clip-path="url(#p161c6ee3de)" d="M 285.214118 72.551066 
L 285.214118 43.875664 
" style="fill:none;stroke:#0000ff;stroke-width:1.5;"/>
    <path clip-path="url(#p161c6ee3de)" d="M 288.978824 86.925209 
L 288.978824 58.249808 
" style="fill:none;stroke:#0000ff;stroke-width:1.5;"/>
    <path clip-path="url(#p161c6ee3de)" d="M 292.743529 88.052258 
L 292.743529 59.376857 
" style="fill:none;stroke:#0000ff;stroke-width:1.5;"/>
    <path clip-path="url(#p161c6ee3de)" d="M 296.508235 90.683183 
L 296.508235 62.007781 
" style="fill:none;stroke:#0000ff;stroke-width:1.5;"/>
    <path clip-path="url(#p161c6ee3de)" d="M 300.272941 81.450822 
L 300.272941 52.775421 
" style="fill:none;stroke:#0000ff;stroke-width:1.5;"/>
    <path clip-path="url(#p161c6ee3de)" d="M 304.037647 79.024207 
L 304.037647 50.348806 
" style="fill:none;stroke:#0000ff;stroke-width:1.5;"/>
    <path clip-path="url(#p161c6ee3de)" d="M 307.802353 86.159489 
L 307.802353 57.484088 
" style="fill:none;stroke:#0000ff;stroke-width:1.5;"/>
    <path clip-path="url(#p161c6ee3de)" d="M 311.567059 78.707352 
L 311.567059 50.031951 
" style="fill:none;stroke:#0000ff;stroke-width:1.5;"/>
    <path clip-path="url(#p161c6ee3de)" d="M 315.331765 65.940396 
L 315.331765 37.264995 
" style="fill:none;stroke:#0000ff;stroke-width:1.5;"/>
    <path clip-path="url(#p161c6ee3de)" d="M 319.096471 69.997204 
L 319.096471 41.321803 
" style="fill:none;stroke:#0000ff;stroke-width:1.5;"/>
    <path clip-path="url(#p161c6ee3de)" d="M 322.861176 92.678804 
L 322.861176 64.003403 
" style="fill:none;stroke:#0000ff;stroke-width:1.5;"/>
    <path clip-path="url(#p161c6ee3de)" d="M 326.625882 75.989367 
L 326.625882 47.313966 
" style="fill:none;stroke:#0000ff;stroke-width:1.5;"/>
    <path clip-path="url(#p161c6ee3de)" d="M 330.390588 81.732664 
L 330.390588 53.057262 
" style="fill:none;stroke:#0000ff;stroke-width:1.5;"/>
    <path clip-path="url(#p161c6ee3de)" d="M 334.155294 75.419143 
L 334.155294 46.743741 
" style="fill:none;stroke:#0000ff;stroke-width:1.5;"/>
    <path clip-path="url(#p161c6ee3de)" d="M 337.92 61.185701 
L 337.92 32.510299 
" style="fill:none;stroke:#0000ff;stroke-width:1.5;"/>
    <path clip-path="url(#p161c6ee3de)" d="M 341.684706 74.277086 
L 341.684706 45.601685 
" style="fill:none;stroke:#0000ff;stroke-width:1.5;"/>
    <path clip-path="url(#p161c6ee3de)" d="M 345.449412 66.353934 
L 345.449412 37.678533 
" style="fill:none;stroke:#0000ff;stroke-width:1.5;"/>
    <path clip-path="url(#p161c6ee3de)" d="M 349.214118 84.791818 
L 349.214118 56.116417 
" style="fill:none;stroke:#0000ff;stroke-width:1.5;"/>
    <path clip-path="url(#p161c6ee3de)" d="M 352.978824 89.050189 
L 352.978824 60.374788 
" style="fill:none;stroke:#0000ff;stroke-width:1.5;"/>
    <path clip-path="url(#p161c6ee3de)" d="M 356.743529 87.919053 
L 356.743529 59.243652 
" style="fill:none;stroke:#0000ff;stroke-width:1.5;"/>
    <path clip-path="url(#p161c6ee3de)" d="M 360.508235 92.215328 
L 360.508235 63.539927 
" style="fill:none;stroke:#0000ff;stroke-width:1.5;"/>
    <path clip-path="url(#p161c6ee3de)" d="M 364.272941 97.63902 
L 364.272941 68.963619 
" style="fill:none;stroke:#0000ff;stroke-width:1.5;"/>
    <path clip-path="url(#p161c6ee3de)" d="M 368.037647 79.479648 
L 368.037647 50.804247 
" style="fill:none;stroke:#0000ff;stroke-width:1.5;"/>
    <path clip-path="url(#p161c6ee3de)" d="M 371.802353 88.609281 
L 371.802353 59.933879 
" style="fill:none;stroke:#0000ff;stroke-width:1.5;"/>
    <path clip-path="url(#p161c6ee3de)" d="M 375.567059 97.620438 
L 375.567059 68.945036 
" style="fill:none;stroke:#0000ff;stroke-width:1.5;"/>
    <path clip-path="url(#p161c6ee3de)" d="M 379.331765 82.778798 
L 379.331765 54.103396 
" style="fill:none;stroke:#0000ff;stroke-width:1.5;"/>
    <path clip-path="url(#p161c6ee3de)" d="M 383.096471 100.004724 
L 383.096471 71.329322 
" style="fill:none;stroke:#0000ff;stroke-width:1.5;"/>
    <path clip-path="url(#p161c6ee3de)" d="M 386.861176 81.639324 
L 386.861176 52.963923 
" style="fill:none;stroke:#0000ff;stroke-width:1.5;"/>
    <path clip-path="url(#p161c6ee3de)" d="M 390.625882 76.592057 
L 390.625882 47.916655 
" style="fill:none;stroke:#0000ff;stroke-width:1.5;"/>
    <path clip-path="url(#p161c6ee3de)" d="M 394.390588 109.185701 
L 394.390588 80.510299 
" style="fill:none;stroke:#0000ff;stroke-width:1.5;"/>
    <path clip-path="url(#p161c6ee3de)" d="M 398.155294 105.892196 
L 398.155294 77.216795 
" style="fill:none;stroke:#0000ff;stroke-width:1.5;"/>
    <path clip-path="url(#p161c6ee3de)" d="M 401.92 91.836576 
L 401.92 63.161175 
" style="fill:none;stroke:#0000ff;stroke-width:1.5;"/>
   </g>
   <g id="line2d_9">
    <path clip-path="url(#p161c6ee3de)" d="M 81.92 70.186577 
L 401.92 70.186577 
" style="fill:none;stroke:#ff0000;stroke-linecap:square;stroke-width:1.5;"/>
   </g>
   <g id="line2d_10">
    <defs>
     <path d="M -3 0 
L 3 0 
M 0 3 
L 0 -3 
" id="me02cfa46f6" style="stroke:#0000ff;"/>
    </defs>
    <g clip-path="url(#p161c6ee3de)">
     <use style="fill:#0000ff;stroke:#0000ff;" x="81.92" xlink:href="#me02cfa46f6" y="50.575908"/>
     <use style="fill:#0000ff;stroke:#0000ff;" x="85.684706" xlink:href="#me02cfa46f6" y="59.07104"/>
     <use style="fill:#0000ff;stroke:#0000ff;" x="89.449412" xlink:href="#me02cfa46f6" y="69.710954"/>
     <use style="fill:#0000ff;stroke:#0000ff;" x="93.214118" xlink:href="#me02cfa46f6" y="70.087225"/>
     <use style="fill:#0000ff;stroke:#0000ff;" x="96.978824" xlink:href="#me02cfa46f6" y="61.346326"/>
     <use style="fill:#0000ff;stroke:#0000ff;" x="100.743529" xlink:href="#me02cfa46f6" y="74.026219"/>
     <use style="fill:#0000ff;stroke:#0000ff;" x="104.508235" xlink:href="#me02cfa46f6" y="53.248879"/>
     <use style="fill:#0000ff;stroke:#0000ff;" x="108.272941" xlink:href="#me02cfa46f6" y="85.2293"/>
     <use style="fill:#0000ff;stroke:#0000ff;" x="112.037647" xlink:href="#me02cfa46f6" y="72.306154"/>
     <use style="fill:#0000ff;stroke:#0000ff;" x="115.802353" xlink:href="#me02cfa46f6" y="80.153113"/>
     <use style="fill:#0000ff;stroke:#0000ff;" x="119.567059" xlink:href="#me02cfa46f6" y="75.551648"/>
     <use style="fill:#0000ff;stroke:#0000ff;" x="123.331765" xlink:href="#me02cfa46f6" y="52.501459"/>
     <use style="fill:#0000ff;stroke:#0000ff;" x="127.096471" xlink:href="#me02cfa46f6" y="52.606959"/>
     <use style="fill:#0000ff;stroke:#0000ff;" x="130.861176" xlink:href="#me02cfa46f6" y="71.286072"/>
     <use style="fill:#0000ff;stroke:#0000ff;" x="134.625882" xlink:href="#me02cfa46f6" y="64.934522"/>
     <use style="fill:#0000ff;stroke:#0000ff;" x="138.390588" xlink:href="#me02cfa46f6" y="72.633391"/>
     <use style="fill:#0000ff;stroke:#0000ff;" x="142.155294" xlink:href="#me02cfa46f6" y="65.192985"/>
     <use style="fill:#0000ff;stroke:#0000ff;" x="145.92" xlink:href="#me02cfa46f6" y="60.126274"/>
     <use style="fill:#0000ff;stroke:#0000ff;" x="149.684706" xlink:href="#me02cfa46f6" y="70.625822"/>
     <use style="fill:#0000ff;stroke:#0000ff;" x="153.449412" xlink:href="#me02cfa46f6" y="67.976592"/>
     <use style="fill:#0000ff;stroke:#0000ff;" x="157.214118" xlink:href="#me02cfa46f6" y="79.205124"/>
     <use style="fill:#0000ff;stroke:#0000ff;" x="160.978824" xlink:href="#me02cfa46f6" y="78.252682"/>
     <use style="fill:#0000ff;stroke:#0000ff;" x="164.743529" xlink:href="#me02cfa46f6" y="68.473426"/>
     <use style="fill:#0000ff;stroke:#0000ff;" x="168.508235" xlink:href="#me02cfa46f6" y="68.921822"/>
     <use style="fill:#0000ff;stroke:#0000ff;" x="172.272941" xlink:href="#me02cfa46f6" y="56.788317"/>
     <use style="fill:#0000ff;stroke:#0000ff;" x="176.037647" xlink:href="#me02cfa46f6" y="65.418452"/>
     <use style="fill:#0000ff;stroke:#0000ff;" x="179.802353" xlink:href="#me02cfa46f6" y="77.07323"/>
     <use style="fill:#0000ff;stroke:#0000ff;" x="183.567059" xlink:href="#me02cfa46f6" y="71.423412"/>
     <use style="fill:#0000ff;stroke:#0000ff;" x="187.331765" xlink:href="#me02cfa46f6" y="73.498784"/>
     <use style="fill:#0000ff;stroke:#0000ff;" x="191.096471" xlink:href="#me02cfa46f6" y="74.930055"/>
     <use style="fill:#0000ff;stroke:#0000ff;" x="194.861176" xlink:href="#me02cfa46f6" y="78.063034"/>
     <use style="fill:#0000ff;stroke:#0000ff;" x="198.625882" xlink:href="#me02cfa46f6" y="87.222845"/>
     <use style="fill:#0000ff;stroke:#0000ff;" x="202.390588" xlink:href="#me02cfa46f6" y="68.484709"/>
     <use style="fill:#0000ff;stroke:#0000ff;" x="206.155294" xlink:href="#me02cfa46f6" y="70.428237"/>
     <use style="fill:#0000ff;stroke:#0000ff;" x="209.92" xlink:href="#me02cfa46f6" y="77.890577"/>
     <use style="fill:#0000ff;stroke:#0000ff;" x="213.684706" xlink:href="#me02cfa46f6" y="86.53416"/>
     <use style="fill:#0000ff;stroke:#0000ff;" x="217.449412" xlink:href="#me02cfa46f6" y="54.294805"/>
     <use style="fill:#0000ff;stroke:#0000ff;" x="221.214118" xlink:href="#me02cfa46f6" y="75.538692"/>
     <use style="fill:#0000ff;stroke:#0000ff;" x="224.978824" xlink:href="#me02cfa46f6" y="70.6883"/>
     <use style="fill:#0000ff;stroke:#0000ff;" x="228.743529" xlink:href="#me02cfa46f6" y="80.552819"/>
     <use style="fill:#0000ff;stroke:#0000ff;" x="232.508235" xlink:href="#me02cfa46f6" y="77.01997"/>
     <use style="fill:#0000ff;stroke:#0000ff;" x="236.272941" xlink:href="#me02cfa46f6" y="71.070791"/>
     <use style="fill:#0000ff;stroke:#0000ff;" x="240.037647" xlink:href="#me02cfa46f6" y="74.452297"/>
     <use style="fill:#0000ff;stroke:#0000ff;" x="243.802353" xlink:href="#me02cfa46f6" y="93.31649"/>
     <use style="fill:#0000ff;stroke:#0000ff;" x="247.567059" xlink:href="#me02cfa46f6" y="68.629114"/>
     <use style="fill:#0000ff;stroke:#0000ff;" x="251.331765" xlink:href="#me02cfa46f6" y="70.270385"/>
     <use style="fill:#0000ff;stroke:#0000ff;" x="255.096471" xlink:href="#me02cfa46f6" y="69.414003"/>
     <use style="fill:#0000ff;stroke:#0000ff;" x="258.861176" xlink:href="#me02cfa46f6" y="60.841573"/>
     <use style="fill:#0000ff;stroke:#0000ff;" x="262.625882" xlink:href="#me02cfa46f6" y="59.964206"/>
     <use style="fill:#0000ff;stroke:#0000ff;" x="266.390588" xlink:href="#me02cfa46f6" y="52.393044"/>
     <use style="fill:#0000ff;stroke:#0000ff;" x="270.155294" xlink:href="#me02cfa46f6" y="67.891736"/>
     <use style="fill:#0000ff;stroke:#0000ff;" x="273.92" xlink:href="#me02cfa46f6" y="75.832974"/>
     <use style="fill:#0000ff;stroke:#0000ff;" x="277.684706" xlink:href="#me02cfa46f6" y="65.257308"/>
     <use style="fill:#0000ff;stroke:#0000ff;" x="281.449412" xlink:href="#me02cfa46f6" y="79.334671"/>
     <use style="fill:#0000ff;stroke:#0000ff;" x="285.214118" xlink:href="#me02cfa46f6" y="58.213365"/>
     <use style="fill:#0000ff;stroke:#0000ff;" x="288.978824" xlink:href="#me02cfa46f6" y="72.587509"/>
     <use style="fill:#0000ff;stroke:#0000ff;" x="292.743529" xlink:href="#me02cfa46f6" y="73.714558"/>
     <use style="fill:#0000ff;stroke:#0000ff;" x="296.508235" xlink:href="#me02cfa46f6" y="76.345482"/>
     <use style="fill:#0000ff;stroke:#0000ff;" x="300.272941" xlink:href="#me02cfa46f6" y="67.113122"/>
     <use style="fill:#0000ff;stroke:#0000ff;" x="304.037647" xlink:href="#me02cfa46f6" y="64.686507"/>
     <use style="fill:#0000ff;stroke:#0000ff;" x="307.802353" xlink:href="#me02cfa46f6" y="71.821788"/>
     <use style="fill:#0000ff;stroke:#0000ff;" x="311.567059" xlink:href="#me02cfa46f6" y="64.369652"/>
     <use style="fill:#0000ff;stroke:#0000ff;" x="315.331765" xlink:href="#me02cfa46f6" y="51.602696"/>
     <use style="fill:#0000ff;stroke:#0000ff;" x="319.096471" xlink:href="#me02cfa46f6" y="55.659504"/>
     <use style="fill:#0000ff;stroke:#0000ff;" x="322.861176" xlink:href="#me02cfa46f6" y="78.341104"/>
     <use style="fill:#0000ff;stroke:#0000ff;" x="326.625882" xlink:href="#me02cfa46f6" y="61.651666"/>
     <use style="fill:#0000ff;stroke:#0000ff;" x="330.390588" xlink:href="#me02cfa46f6" y="67.394963"/>
     <use style="fill:#0000ff;stroke:#0000ff;" x="334.155294" xlink:href="#me02cfa46f6" y="61.081442"/>
     <use style="fill:#0000ff;stroke:#0000ff;" x="337.92" xlink:href="#me02cfa46f6" y="46.848"/>
     <use style="fill:#0000ff;stroke:#0000ff;" x="341.684706" xlink:href="#me02cfa46f6" y="59.939386"/>
     <use style="fill:#0000ff;stroke:#0000ff;" x="345.449412" xlink:href="#me02cfa46f6" y="52.016234"/>
     <use style="fill:#0000ff;stroke:#0000ff;" x="349.214118" xlink:href="#me02cfa46f6" y="70.454118"/>
     <use style="fill:#0000ff;stroke:#0000ff;" x="352.978824" xlink:href="#me02cfa46f6" y="74.712488"/>
     <use style="fill:#0000ff;stroke:#0000ff;" x="356.743529" xlink:href="#me02cfa46f6" y="73.581352"/>
     <use style="fill:#0000ff;stroke:#0000ff;" x="360.508235" xlink:href="#me02cfa46f6" y="77.877628"/>
     <use style="fill:#0000ff;stroke:#0000ff;" x="364.272941" xlink:href="#me02cfa46f6" y="83.301319"/>
     <use style="fill:#0000ff;stroke:#0000ff;" x="368.037647" xlink:href="#me02cfa46f6" y="65.141947"/>
     <use style="fill:#0000ff;stroke:#0000ff;" x="371.802353" xlink:href="#me02cfa46f6" y="74.27158"/>
     <use style="fill:#0000ff;stroke:#0000ff;" x="375.567059" xlink:href="#me02cfa46f6" y="83.282737"/>
     <use style="fill:#0000ff;stroke:#0000ff;" x="379.331765" xlink:href="#me02cfa46f6" y="68.441097"/>
     <use style="fill:#0000ff;stroke:#0000ff;" x="383.096471" xlink:href="#me02cfa46f6" y="85.667023"/>
     <use style="fill:#0000ff;stroke:#0000ff;" x="386.861176" xlink:href="#me02cfa46f6" y="67.301624"/>
     <use style="fill:#0000ff;stroke:#0000ff;" x="390.625882" xlink:href="#me02cfa46f6" y="62.254356"/>
     <use style="fill:#0000ff;stroke:#0000ff;" x="394.390588" xlink:href="#me02cfa46f6" y="94.848"/>
     <use style="fill:#0000ff;stroke:#0000ff;" x="398.155294" xlink:href="#me02cfa46f6" y="91.554496"/>
     <use style="fill:#0000ff;stroke:#0000ff;" x="401.92" xlink:href="#me02cfa46f6" y="77.498875"/>
    </g>
   </g>
   <g id="patch_3">
    <path d="M 69.12 96.768 
L 69.12 44.928 
" style="fill:none;stroke:#000000;stroke-linecap:square;stroke-linejoin:miter;stroke-width:0.8;"/>
   </g>
   <g id="patch_4">
    <path d="M 414.72 96.768 
L 414.72 44.928 
" style="fill:none;stroke:#000000;stroke-linecap:square;stroke-linejoin:miter;stroke-width:0.8;"/>
   </g>
   <g id="patch_5">
    <path d="M 69.12 96.768 
L 414.72 96.768 
" style="fill:none;stroke:#000000;stroke-linecap:square;stroke-linejoin:miter;stroke-width:0.8;"/>
   </g>
   <g id="patch_6">
    <path d="M 69.12 44.928 
L 414.72 44.928 
" style="fill:none;stroke:#000000;stroke-linecap:square;stroke-linejoin:miter;stroke-width:0.8;"/>
   </g>
   <g id="text_4">
    <!-- Function (0/0): y = a*exp(-(x-x0)**2/w**2)+b -->
    <defs>
     <path d="M 9.8125 72.90625 
L 51.703125 72.90625 
L 51.703125 64.59375 
L 19.671875 64.59375 
L 19.671875 43.109375 
L 48.578125 43.109375 
L 48.578125 34.8125 
L 19.671875 34.8125 
L 19.671875 0 
L 9.8125 0 
z
" id="DejaVuSans-46"/>
     <path d="M 48.78125 52.59375 
L 48.78125 44.1875 
Q 44.96875 46.296875 41.140625 47.34375 
Q 37.3125 48.390625 33.40625 48.390625 
Q 24.65625 48.390625 19.8125 42.84375 
Q 14.984375 37.3125 14.984375 27.296875 
Q 14.984375 17.28125 19.8125 11.734375 
Q 24.65625 6.203125 33.40625 6.203125 
Q 37.3125 6.203125 41.140625 7.25 
Q 44.96875 8.296875 48.78125 10.40625 
L 48.78125 2.09375 
Q 45.015625 0.34375 40.984375 -0.53125 
Q 36.96875 -1.421875 32.421875 -1.421875 
Q 20.0625 -1.421875 12.78125 6.34375 
Q 5.515625 14.109375 5.515625 27.296875 
Q 5.515625 40.671875 12.859375 48.328125 
Q 20.21875 56 33.015625 56 
Q 37.15625 56 41.109375 55.140625 
Q 45.0625 54.296875 48.78125 52.59375 
z
" id="DejaVuSans-63"/>
     <path d="M 30.609375 48.390625 
Q 23.390625 48.390625 19.1875 42.75 
Q 14.984375 37.109375 14.984375 27.296875 
Q 14.984375 17.484375 19.15625 11.84375 
Q 23.34375 6.203125 30.609375 6.203125 
Q 37.796875 6.203125 41.984375 11.859375 
Q 46.1875 17.53125 46.1875 27.296875 
Q 46.1875 37.015625 41.984375 42.703125 
Q 37.796875 48.390625 30.609375 48.390625 
z
M 30.609375 56 
Q 42.328125 56 49.015625 48.375 
Q 55.71875 40.765625 55.71875 27.296875 
Q 55.71875 13.875 49.015625 6.21875 
Q 42.328125 -1.421875 30.609375 -1.421875 
Q 18.84375 -1.421875 12.171875 6.21875 
Q 5.515625 13.875 5.515625 27.296875 
Q 5.515625 40.765625 12.171875 48.375 
Q 18.84375 56 30.609375 56 
z
" id="DejaVuSans-6f"/>
     <path id="DejaVuSans-20"/>
     <path d="M 31 75.875 
Q 24.46875 64.65625 21.28125 53.65625 
Q 18.109375 42.671875 18.109375 31.390625 
Q 18.109375 20.125 21.3125 9.0625 
Q 24.515625 -2 31 -13.1875 
L 23.1875 -13.1875 
Q 15.875 -1.703125 12.234375 9.375 
Q 8.59375 20.453125 8.59375 31.390625 
Q 8.59375 42.28125 12.203125 53.3125 
Q 15.828125 64.359375 23.1875 75.875 
z
" id="DejaVuSans-28"/>
     <path d="M 31.78125 66.40625 
Q 24.171875 66.40625 20.328125 58.90625 
Q 16.5 51.421875 16.5 36.375 
Q 16.5 21.390625 20.328125 13.890625 
Q 24.171875 6.390625 31.78125 6.390625 
Q 39.453125 6.390625 43.28125 13.890625 
Q 47.125 21.390625 47.125 36.375 
Q 47.125 51.421875 43.28125 58.90625 
Q 39.453125 66.40625 31.78125 66.40625 
z
M 31.78125 74.21875 
Q 44.046875 74.21875 50.515625 64.515625 
Q 56.984375 54.828125 56.984375 36.375 
Q 56.984375 17.96875 50.515625 8.265625 
Q 44.046875 -1.421875 31.78125 -1.421875 
Q 19.53125 -1.421875 13.0625 8.265625 
Q 6.59375 17.96875 6.59375 36.375 
Q 6.59375 54.828125 13.0625 64.515625 
Q 19.53125 74.21875 31.78125 74.21875 
z
" id="DejaVuSans-30"/>
     <path d="M 25.390625 72.90625 
L 33.6875 72.90625 
L 8.296875 -9.28125 
L 0 -9.28125 
z
" id="DejaVuSans-2f"/>
     <path d="M 8.015625 75.875 
L 15.828125 75.875 
Q 23.140625 64.359375 26.78125 53.3125 
Q 30.421875 42.28125 30.421875 31.390625 
Q 30.421875 20.453125 26.78125 9.375 
Q 23.140625 -1.703125 15.828125 -13.1875 
L 8.015625 -13.1875 
Q 14.5 -2 17.703125 9.0625 
Q 20.90625 20.125 20.90625 31.390625 
Q 20.90625 42.671875 17.703125 53.65625 
Q 14.5 64.65625 8.015625 75.875 
z
" id="DejaVuSans-29"/>
     <path d="M 11.71875 12.40625 
L 22.015625 12.40625 
L 22.015625 0 
L 11.71875 0 
z
M 11.71875 51.703125 
L 22.015625 51.703125 
L 22.015625 39.3125 
L 11.71875 39.3125 
z
" id="DejaVuSans-3a"/>
     <path d="M 32.171875 -5.078125 
Q 28.375 -14.84375 24.75 -17.8125 
Q 21.140625 -20.796875 15.09375 -20.796875 
L 7.90625 -20.796875 
L 7.90625 -13.28125 
L 13.1875 -13.28125 
Q 16.890625 -13.28125 18.9375 -11.515625 
Q 21 -9.765625 23.484375 -3.21875 
L 25.09375 0.875 
L 2.984375 54.6875 
L 12.5 54.6875 
L 29.59375 11.921875 
L 46.6875 54.6875 
L 56.203125 54.6875 
z
" id="DejaVuSans-79"/>
     <path d="M 10.59375 45.40625 
L 73.1875 45.40625 
L 73.1875 37.203125 
L 10.59375 37.203125 
z
M 10.59375 25.484375 
L 73.1875 25.484375 
L 73.1875 17.1875 
L 10.59375 17.1875 
z
" id="DejaVuSans-3d"/>
     <path d="M 47.015625 60.890625 
L 29.5 51.421875 
L 47.015625 41.890625 
L 44.1875 37.109375 
L 27.78125 47.015625 
L 27.78125 28.609375 
L 22.21875 28.609375 
L 22.21875 47.015625 
L 5.8125 37.109375 
L 2.984375 41.890625 
L 20.515625 51.421875 
L 2.984375 60.890625 
L 5.8125 65.71875 
L 22.21875 55.8125 
L 22.21875 74.21875 
L 27.78125 74.21875 
L 27.78125 55.8125 
L 44.1875 65.71875 
z
" id="DejaVuSans-2a"/>
     <path d="M 54.890625 54.6875 
L 35.109375 28.078125 
L 55.90625 0 
L 45.3125 0 
L 29.390625 21.484375 
L 13.484375 0 
L 2.875 0 
L 24.125 28.609375 
L 4.6875 54.6875 
L 15.28125 54.6875 
L 29.78125 35.203125 
L 44.28125 54.6875 
z
" id="DejaVuSans-78"/>
     <path d="M 18.109375 8.203125 
L 18.109375 -20.796875 
L 9.078125 -20.796875 
L 9.078125 54.6875 
L 18.109375 54.6875 
L 18.109375 46.390625 
Q 20.953125 51.265625 25.265625 53.625 
Q 29.59375 56 35.59375 56 
Q 45.5625 56 51.78125 48.09375 
Q 58.015625 40.1875 58.015625 27.296875 
Q 58.015625 14.40625 51.78125 6.484375 
Q 45.5625 -1.421875 35.59375 -1.421875 
Q 29.59375 -1.421875 25.265625 0.953125 
Q 20.953125 3.328125 18.109375 8.203125 
z
M 48.6875 27.296875 
Q 48.6875 37.203125 44.609375 42.84375 
Q 40.53125 48.484375 33.40625 48.484375 
Q 26.265625 48.484375 22.1875 42.84375 
Q 18.109375 37.203125 18.109375 27.296875 
Q 18.109375 17.390625 22.1875 11.75 
Q 26.265625 6.109375 33.40625 6.109375 
Q 40.53125 6.109375 44.609375 11.75 
Q 48.6875 17.390625 48.6875 27.296875 
z
" id="DejaVuSans-70"/>
     <path d="M 4.890625 31.390625 
L 31.203125 31.390625 
L 31.203125 23.390625 
L 4.890625 23.390625 
z
" id="DejaVuSans-2d"/>
     <path d="M 19.1875 8.296875 
L 53.609375 8.296875 
L 53.609375 0 
L 7.328125 0 
L 7.328125 8.296875 
Q 12.9375 14.109375 22.625 23.890625 
Q 32.328125 33.6875 34.8125 36.53125 
Q 39.546875 41.84375 41.421875 45.53125 
Q 43.3125 49.21875 43.3125 52.78125 
Q 43.3125 58.59375 39.234375 62.25 
Q 35.15625 65.921875 28.609375 65.921875 
Q 23.96875 65.921875 18.8125 64.3125 
Q 13.671875 62.703125 7.8125 59.421875 
L 7.8125 69.390625 
Q 13.765625 71.78125 18.9375 73 
Q 24.125 74.21875 28.421875 74.21875 
Q 39.75 74.21875 46.484375 68.546875 
Q 53.21875 62.890625 53.21875 53.421875 
Q 53.21875 48.921875 51.53125 44.890625 
Q 49.859375 40.875 45.40625 35.40625 
Q 44.1875 33.984375 37.640625 27.21875 
Q 31.109375 20.453125 19.1875 8.296875 
z
" id="DejaVuSans-32"/>
     <path d="M 4.203125 54.6875 
L 13.1875 54.6875 
L 24.421875 12.015625 
L 35.59375 54.6875 
L 46.1875 54.6875 
L 57.421875 12.015625 
L 68.609375 54.6875 
L 77.59375 54.6875 
L 63.28125 0 
L 52.6875 0 
L 40.921875 44.828125 
L 29.109375 0 
L 18.5 0 
z
" id="DejaVuSans-77"/>
     <path d="M 46 62.703125 
L 46 35.5 
L 73.1875 35.5 
L 73.1875 27.203125 
L 46 27.203125 
L 46 0 
L 37.796875 0 
L 37.796875 27.203125 
L 10.59375 27.203125 
L 10.59375 35.5 
L 37.796875 35.5 
L 37.796875 62.703125 
z
" id="DejaVuSans-2b"/>
     <path d="M 48.6875 27.296875 
Q 48.6875 37.203125 44.609375 42.84375 
Q 40.53125 48.484375 33.40625 48.484375 
Q 26.265625 48.484375 22.1875 42.84375 
Q 18.109375 37.203125 18.109375 27.296875 
Q 18.109375 17.390625 22.1875 11.75 
Q 26.265625 6.109375 33.40625 6.109375 
Q 40.53125 6.109375 44.609375 11.75 
Q 48.6875 17.390625 48.6875 27.296875 
z
M 18.109375 46.390625 
Q 20.953125 51.265625 25.265625 53.625 
Q 29.59375 56 35.59375 56 
Q 45.5625 56 51.78125 48.09375 
Q 58.015625 40.1875 58.015625 27.296875 
Q 58.015625 14.40625 51.78125 6.484375 
Q 45.5625 -1.421875 35.59375 -1.421875 
Q 29.59375 -1.421875 25.265625 0.953125 
Q 20.953125 3.328125 18.109375 8.203125 
L 18.109375 0 
L 9.078125 0 
L 9.078125 75.984375 
L 18.109375 75.984375 
z
" id="DejaVuSans-62"/>
    </defs>
    <g transform="translate(69.12 27.730187)scale(0.1 -0.1)">
     <use xlink:href="#DejaVuSans-46"/>
     <use x="57.441406" xlink:href="#DejaVuSans-75"/>
     <use x="120.820312" xlink:href="#DejaVuSans-6e"/>
     <use x="184.199219" xlink:href="#DejaVuSans-63"/>
     <use x="239.179688" xlink:href="#DejaVuSans-74"/>
     <use x="278.388672" xlink:href="#DejaVuSans-69"/>
     <use x="306.171875" xlink:href="#DejaVuSans-6f"/>
     <use x="367.353516" xlink:href="#DejaVuSans-6e"/>
     <use x="430.732422" xlink:href="#DejaVuSans-20"/>
     <use x="462.519531" xlink:href="#DejaVuSans-28"/>
     <use x="501.533203" xlink:href="#DejaVuSans-30"/>
     <use x="565.15625" xlink:href="#DejaVuSans-2f"/>
     <use x="598.847656" xlink:href="#DejaVuSans-30"/>
     <use x="662.470703" xlink:href="#DejaVuSans-29"/>
     <use x="701.484375" xlink:href="#DejaVuSans-3a"/>
     <use x="735.175781" xlink:href="#DejaVuSans-20"/>
     <use x="766.962891" xlink:href="#DejaVuSans-79"/>
     <use x="826.142578" xlink:href="#DejaVuSans-20"/>
     <use x="857.929688" xlink:href="#DejaVuSans-3d"/>
     <use x="941.71875" xlink:href="#DejaVuSans-20"/>
     <use x="973.505859" xlink:href="#DejaVuSans-61"/>
     <use x="1034.785156" xlink:href="#DejaVuSans-2a"/>
     <use x="1084.785156" xlink:href="#DejaVuSans-65"/>
     <use x="1146.292969" xlink:href="#DejaVuSans-78"/>
     <use x="1205.472656" xlink:href="#DejaVuSans-70"/>
     <use x="1268.949219" xlink:href="#DejaVuSans-28"/>
     <use x="1307.962891" xlink:href="#DejaVuSans-2d"/>
     <use x="1344.046875" xlink:href="#DejaVuSans-28"/>
     <use x="1383.060547" xlink:href="#DejaVuSans-78"/>
     <use x="1442.240234" xlink:href="#DejaVuSans-2d"/>
     <use x="1478.324219" xlink:href="#DejaVuSans-78"/>
     <use x="1537.503906" xlink:href="#DejaVuSans-30"/>
     <use x="1601.126953" xlink:href="#DejaVuSans-29"/>
     <use x="1640.140625" xlink:href="#DejaVuSans-2a"/>
     <use x="1690.140625" xlink:href="#DejaVuSans-2a"/>
     <use x="1740.140625" xlink:href="#DejaVuSans-32"/>
     <use x="1803.763672" xlink:href="#DejaVuSans-2f"/>
     <use x="1837.455078" xlink:href="#DejaVuSans-77"/>
     <use x="1919.242188" xlink:href="#DejaVuSans-2a"/>
     <use x="1969.242188" xlink:href="#DejaVuSans-2a"/>
     <use x="2019.242188" xlink:href="#DejaVuSans-32"/>
     <use x="2082.865234" xlink:href="#DejaVuSans-29"/>
     <use x="2121.878906" xlink:href="#DejaVuSans-2b"/>
     <use x="2205.667969" xlink:href="#DejaVuSans-62"/>
    </g>
    <!-- Fit: a=249.3$\pm$8.6, b=50.9$\pm$9.6, x0=4.2931$\pm$0.0016, w=0.1835$\pm$0.008, -->
    <defs>
     <path d="M 37.796875 64.3125 
L 12.890625 25.390625 
L 37.796875 25.390625 
z
M 35.203125 72.90625 
L 47.609375 72.90625 
L 47.609375 25.390625 
L 58.015625 25.390625 
L 58.015625 17.1875 
L 47.609375 17.1875 
L 47.609375 0 
L 37.796875 0 
L 37.796875 17.1875 
L 4.890625 17.1875 
L 4.890625 26.703125 
z
" id="DejaVuSans-34"/>
     <path d="M 10.984375 1.515625 
L 10.984375 10.5 
Q 14.703125 8.734375 18.5 7.8125 
Q 22.3125 6.890625 25.984375 6.890625 
Q 35.75 6.890625 40.890625 13.453125 
Q 46.046875 20.015625 46.78125 33.40625 
Q 43.953125 29.203125 39.59375 26.953125 
Q 35.25 24.703125 29.984375 24.703125 
Q 19.046875 24.703125 12.671875 31.3125 
Q 6.296875 37.9375 6.296875 49.421875 
Q 6.296875 60.640625 12.9375 67.421875 
Q 19.578125 74.21875 30.609375 74.21875 
Q 43.265625 74.21875 49.921875 64.515625 
Q 56.59375 54.828125 56.59375 36.375 
Q 56.59375 19.140625 48.40625 8.859375 
Q 40.234375 -1.421875 26.421875 -1.421875 
Q 22.703125 -1.421875 18.890625 -0.6875 
Q 15.09375 0.046875 10.984375 1.515625 
z
M 30.609375 32.421875 
Q 37.25 32.421875 41.125 36.953125 
Q 45.015625 41.5 45.015625 49.421875 
Q 45.015625 57.28125 41.125 61.84375 
Q 37.25 66.40625 30.609375 66.40625 
Q 23.96875 66.40625 20.09375 61.84375 
Q 16.21875 57.28125 16.21875 49.421875 
Q 16.21875 41.5 20.09375 36.953125 
Q 23.96875 32.421875 30.609375 32.421875 
z
" id="DejaVuSans-39"/>
     <path d="M 10.6875 12.40625 
L 21 12.40625 
L 21 0 
L 10.6875 0 
z
" id="DejaVuSans-2e"/>
     <path d="M 40.578125 39.3125 
Q 47.65625 37.796875 51.625 33 
Q 55.609375 28.21875 55.609375 21.1875 
Q 55.609375 10.40625 48.1875 4.484375 
Q 40.765625 -1.421875 27.09375 -1.421875 
Q 22.515625 -1.421875 17.65625 -0.515625 
Q 12.796875 0.390625 7.625 2.203125 
L 7.625 11.71875 
Q 11.71875 9.328125 16.59375 8.109375 
Q 21.484375 6.890625 26.8125 6.890625 
Q 36.078125 6.890625 40.9375 10.546875 
Q 45.796875 14.203125 45.796875 21.1875 
Q 45.796875 27.640625 41.28125 31.265625 
Q 36.765625 34.90625 28.71875 34.90625 
L 20.21875 34.90625 
L 20.21875 43.015625 
L 29.109375 43.015625 
Q 36.375 43.015625 40.234375 45.921875 
Q 44.09375 48.828125 44.09375 54.296875 
Q 44.09375 59.90625 40.109375 62.90625 
Q 36.140625 65.921875 28.71875 65.921875 
Q 24.65625 65.921875 20.015625 65.03125 
Q 15.375 64.15625 9.8125 62.3125 
L 9.8125 71.09375 
Q 15.4375 72.65625 20.34375 73.4375 
Q 25.25 74.21875 29.59375 74.21875 
Q 40.828125 74.21875 47.359375 69.109375 
Q 53.90625 64.015625 53.90625 55.328125 
Q 53.90625 49.265625 50.4375 45.09375 
Q 46.96875 40.921875 40.578125 39.3125 
z
" id="DejaVuSans-33"/>
     <path d="M 46 62.703125 
L 46 43.796875 
L 73.1875 43.796875 
L 73.1875 35.5 
L 46 35.5 
L 46 16.609375 
L 37.796875 16.609375 
L 37.796875 35.5 
L 10.59375 35.5 
L 10.59375 43.796875 
L 37.796875 43.796875 
L 37.796875 62.703125 
z
M 10.59375 8.296875 
L 73.1875 8.296875 
L 73.1875 0 
L 10.59375 0 
z
" id="DejaVuSans-b1"/>
     <path d="M 31.78125 34.625 
Q 24.75 34.625 20.71875 30.859375 
Q 16.703125 27.09375 16.703125 20.515625 
Q 16.703125 13.921875 20.71875 10.15625 
Q 24.75 6.390625 31.78125 6.390625 
Q 38.8125 6.390625 42.859375 10.171875 
Q 46.921875 13.96875 46.921875 20.515625 
Q 46.921875 27.09375 42.890625 30.859375 
Q 38.875 34.625 31.78125 34.625 
z
M 21.921875 38.8125 
Q 15.578125 40.375 12.03125 44.71875 
Q 8.5 49.078125 8.5 55.328125 
Q 8.5 64.0625 14.71875 69.140625 
Q 20.953125 74.21875 31.78125 74.21875 
Q 42.671875 74.21875 48.875 69.140625 
Q 55.078125 64.0625 55.078125 55.328125 
Q 55.078125 49.078125 51.53125 44.71875 
Q 48 40.375 41.703125 38.8125 
Q 48.828125 37.15625 52.796875 32.3125 
Q 56.78125 27.484375 56.78125 20.515625 
Q 56.78125 9.90625 50.3125 4.234375 
Q 43.84375 -1.421875 31.78125 -1.421875 
Q 19.734375 -1.421875 13.25 4.234375 
Q 6.78125 9.90625 6.78125 20.515625 
Q 6.78125 27.484375 10.78125 32.3125 
Q 14.796875 37.15625 21.921875 38.8125 
z
M 18.3125 54.390625 
Q 18.3125 48.734375 21.84375 45.5625 
Q 25.390625 42.390625 31.78125 42.390625 
Q 38.140625 42.390625 41.71875 45.5625 
Q 45.3125 48.734375 45.3125 54.390625 
Q 45.3125 60.0625 41.71875 63.234375 
Q 38.140625 66.40625 31.78125 66.40625 
Q 25.390625 66.40625 21.84375 63.234375 
Q 18.3125 60.0625 18.3125 54.390625 
z
" id="DejaVuSans-38"/>
     <path d="M 33.015625 40.375 
Q 26.375 40.375 22.484375 35.828125 
Q 18.609375 31.296875 18.609375 23.390625 
Q 18.609375 15.53125 22.484375 10.953125 
Q 26.375 6.390625 33.015625 6.390625 
Q 39.65625 6.390625 43.53125 10.953125 
Q 47.40625 15.53125 47.40625 23.390625 
Q 47.40625 31.296875 43.53125 35.828125 
Q 39.65625 40.375 33.015625 40.375 
z
M 52.59375 71.296875 
L 52.59375 62.3125 
Q 48.875 64.0625 45.09375 64.984375 
Q 41.3125 65.921875 37.59375 65.921875 
Q 27.828125 65.921875 22.671875 59.328125 
Q 17.53125 52.734375 16.796875 39.40625 
Q 19.671875 43.65625 24.015625 45.921875 
Q 28.375 48.1875 33.59375 48.1875 
Q 44.578125 48.1875 50.953125 41.515625 
Q 57.328125 34.859375 57.328125 23.390625 
Q 57.328125 12.15625 50.6875 5.359375 
Q 44.046875 -1.421875 33.015625 -1.421875 
Q 20.359375 -1.421875 13.671875 8.265625 
Q 6.984375 17.96875 6.984375 36.375 
Q 6.984375 53.65625 15.1875 63.9375 
Q 23.390625 74.21875 37.203125 74.21875 
Q 40.921875 74.21875 44.703125 73.484375 
Q 48.484375 72.75 52.59375 71.296875 
z
" id="DejaVuSans-36"/>
     <path d="M 11.71875 12.40625 
L 22.015625 12.40625 
L 22.015625 4 
L 14.015625 -11.625 
L 7.71875 -11.625 
L 11.71875 4 
z
" id="DejaVuSans-2c"/>
     <path d="M 10.796875 72.90625 
L 49.515625 72.90625 
L 49.515625 64.59375 
L 19.828125 64.59375 
L 19.828125 46.734375 
Q 21.96875 47.46875 24.109375 47.828125 
Q 26.265625 48.1875 28.421875 48.1875 
Q 40.625 48.1875 47.75 41.5 
Q 54.890625 34.8125 54.890625 23.390625 
Q 54.890625 11.625 47.5625 5.09375 
Q 40.234375 -1.421875 26.90625 -1.421875 
Q 22.3125 -1.421875 17.546875 -0.640625 
Q 12.796875 0.140625 7.71875 1.703125 
L 7.71875 11.625 
Q 12.109375 9.234375 16.796875 8.0625 
Q 21.484375 6.890625 26.703125 6.890625 
Q 35.15625 6.890625 40.078125 11.328125 
Q 45.015625 15.765625 45.015625 23.390625 
Q 45.015625 31 40.078125 35.4375 
Q 35.15625 39.890625 26.703125 39.890625 
Q 22.75 39.890625 18.8125 39.015625 
Q 14.890625 38.140625 10.796875 36.28125 
z
" id="DejaVuSans-35"/>
    </defs>
    <g transform="translate(69.12 38.928)scale(0.1 -0.1)">
     <use transform="translate(0 0.015625)" xlink:href="#DejaVuSans-46"/>
     <use transform="translate(57.519531 0.015625)" xlink:href="#DejaVuSans-69"/>
     <use transform="translate(85.302734 0.015625)" xlink:href="#DejaVuSans-74"/>
     <use transform="translate(124.511719 0.015625)" xlink:href="#DejaVuSans-3a"/>
     <use transform="translate(158.203125 0.015625)" xlink:href="#DejaVuSans-20"/>
     <use transform="translate(189.990234 0.015625)" xlink:href="#DejaVuSans-61"/>
     <use transform="translate(251.269531 0.015625)" xlink:href="#DejaVuSans-3d"/>
     <use transform="translate(335.058594 0.015625)" xlink:href="#DejaVuSans-32"/>
     <use transform="translate(398.681641 0.015625)" xlink:href="#DejaVuSans-34"/>
     <use transform="translate(462.304688 0.015625)" xlink:href="#DejaVuSans-39"/>
     <use transform="translate(525.927734 0.015625)" xlink:href="#DejaVuSans-2e"/>
     <use transform="translate(557.714844 0.015625)" xlink:href="#DejaVuSans-33"/>
     <use transform="translate(621.337891 0.015625)" xlink:href="#DejaVuSans-b1"/>
     <use transform="translate(705.126953 0.015625)" xlink:href="#DejaVuSans-38"/>
     <use transform="translate(768.75 0.015625)" xlink:href="#DejaVuSans-2e"/>
     <use transform="translate(800.537109 0.015625)" xlink:href="#DejaVuSans-36"/>
     <use transform="translate(864.160156 0.015625)" xlink:href="#DejaVuSans-2c"/>
     <use transform="translate(895.947266 0.015625)" xlink:href="#DejaVuSans-20"/>
     <use transform="translate(927.734375 0.015625)" xlink:href="#DejaVuSans-62"/>
     <use transform="translate(991.210938 0.015625)" xlink:href="#DejaVuSans-3d"/>
     <use transform="translate(1075 0.015625)" xlink:href="#DejaVuSans-35"/>
     <use transform="translate(1138.623047 0.015625)" xlink:href="#DejaVuSans-30"/>
     <use transform="translate(1202.246094 0.015625)" xlink:href="#DejaVuSans-2e"/>
     <use transform="translate(1234.033203 0.015625)" xlink:href="#DejaVuSans-39"/>
     <use transform="translate(1297.65625 0.015625)" xlink:href="#DejaVuSans-b1"/>
     <use transform="translate(1381.445312 0.015625)" xlink:href="#DejaVuSans-39"/>
     <use transform="translate(1445.068359 0.015625)" xlink:href="#DejaVuSans-2e"/>
     <use transform="translate(1476.855469 0.015625)" xlink:href="#DejaVuSans-36"/>
     <use transform="translate(1540.478516 0.015625)" xlink:href="#DejaVuSans-2c"/>
     <use transform="translate(1572.265625 0.015625)" xlink:href="#DejaVuSans-20"/>
     <use transform="translate(1604.052734 0.015625)" xlink:href="#DejaVuSans-78"/>
     <use transform="translate(1663.232422 0.015625)" xlink:href="#DejaVuSans-30"/>
     <use transform="translate(1726.855469 0.015625)" xlink:href="#DejaVuSans-3d"/>
     <use transform="translate(1810.644531 0.015625)" xlink:href="#DejaVuSans-34"/>
     <use transform="translate(1874.267578 0.015625)" xlink:href="#DejaVuSans-2e"/>
     <use transform="translate(1905.976562 0.015625)" xlink:href="#DejaVuSans-32"/>
     <use transform="translate(1969.583984 0.015625)" xlink:href="#DejaVuSans-39"/>
     <use transform="translate(2033.207031 0.015625)" xlink:href="#DejaVuSans-33"/>
     <use transform="translate(2096.830078 0.015625)" xlink:href="#DejaVuSans-31"/>
     <use transform="translate(2160.453125 0.015625)" xlink:href="#DejaVuSans-b1"/>
     <use transform="translate(2244.242188 0.015625)" xlink:href="#DejaVuSans-30"/>
     <use transform="translate(2307.865234 0.015625)" xlink:href="#DejaVuSans-2e"/>
     <use transform="translate(2339.652344 0.015625)" xlink:href="#DejaVuSans-30"/>
     <use transform="translate(2403.275391 0.015625)" xlink:href="#DejaVuSans-30"/>
     <use transform="translate(2466.898438 0.015625)" xlink:href="#DejaVuSans-31"/>
     <use transform="translate(2530.521484 0.015625)" xlink:href="#DejaVuSans-36"/>
     <use transform="translate(2594.144531 0.015625)" xlink:href="#DejaVuSans-2c"/>
     <use transform="translate(2625.931641 0.015625)" xlink:href="#DejaVuSans-20"/>
     <use transform="translate(2657.71875 0.015625)" xlink:href="#DejaVuSans-77"/>
     <use transform="translate(2739.505859 0.015625)" xlink:href="#DejaVuSans-3d"/>
     <use transform="translate(2823.294922 0.015625)" xlink:href="#DejaVuSans-30"/>
     <use transform="translate(2886.917969 0.015625)" xlink:href="#DejaVuSans-2e"/>
     <use transform="translate(2918.705078 0.015625)" xlink:href="#DejaVuSans-31"/>
     <use transform="translate(2982.328125 0.015625)" xlink:href="#DejaVuSans-38"/>
     <use transform="translate(3045.951172 0.015625)" xlink:href="#DejaVuSans-33"/>
     <use transform="translate(3109.574219 0.015625)" xlink:href="#DejaVuSans-35"/>
     <use transform="translate(3173.197266 0.015625)" xlink:href="#DejaVuSans-b1"/>
     <use transform="translate(3256.986328 0.015625)" xlink:href="#DejaVuSans-30"/>
     <use transform="translate(3320.609375 0.015625)" xlink:href="#DejaVuSans-2e"/>
     <use transform="translate(3352.396484 0.015625)" xlink:href="#DejaVuSans-30"/>
     <use transform="translate(3416.019531 0.015625)" xlink:href="#DejaVuSans-30"/>
     <use transform="translate(3479.642578 0.015625)" xlink:href="#DejaVuSans-38"/>
     <use transform="translate(3543.265625 0.015625)" xlink:href="#DejaVuSans-2c"/>
    </g>
   </g>
  </g>
  <g id="axes_2">
   <g id="patch_7">
    <path d="M 69.12 311.04 
L 414.72 311.04 
L 414.72 103.68 
L 69.12 103.68 
z
" style="fill:#ffffff;"/>
   </g>
   <g id="matplotlib.axis_3">
    <g id="xtick_6">
     <g id="line2d_11">
      <g>
       <use style="stroke:#000000;stroke-width:0.8;" x="130.781812" xlink:href="#m5fb1bee538" y="311.04"/>
      </g>
     </g>
     <g id="text_5">
      <!-- 4.1 -->
      <g transform="translate(118.854469 329.437656)scale(0.15 -0.15)">
       <use xlink:href="#DejaVuSans-34"/>
       <use x="63.623047" xlink:href="#DejaVuSans-2e"/>
       <use x="95.410156" xlink:href="#DejaVuSans-31"/>
      </g>
     </g>
    </g>
    <g id="xtick_7">
     <g id="line2d_12">
      <g>
       <use style="stroke:#000000;stroke-width:0.8;" x="194.067062" xlink:href="#m5fb1bee538" y="311.04"/>
      </g>
     </g>
     <g id="text_6">
      <!-- 4.2 -->
      <g transform="translate(182.139718 329.437656)scale(0.15 -0.15)">
       <use xlink:href="#DejaVuSans-34"/>
       <use x="63.623047" xlink:href="#DejaVuSans-2e"/>
       <use x="95.410156" xlink:href="#DejaVuSans-32"/>
      </g>
     </g>
    </g>
    <g id="xtick_8">
     <g id="line2d_13">
      <g>
       <use style="stroke:#000000;stroke-width:0.8;" x="257.352311" xlink:href="#m5fb1bee538" y="311.04"/>
      </g>
     </g>
     <g id="text_7">
      <!-- 4.3 -->
      <g transform="translate(245.424967 329.437656)scale(0.15 -0.15)">
       <use xlink:href="#DejaVuSans-34"/>
       <use x="63.623047" xlink:href="#DejaVuSans-2e"/>
       <use x="95.410156" xlink:href="#DejaVuSans-33"/>
      </g>
     </g>
    </g>
    <g id="xtick_9">
     <g id="line2d_14">
      <g>
       <use style="stroke:#000000;stroke-width:0.8;" x="320.63756" xlink:href="#m5fb1bee538" y="311.04"/>
      </g>
     </g>
     <g id="text_8">
      <!-- 4.4 -->
      <g transform="translate(308.710217 329.437656)scale(0.15 -0.15)">
       <use xlink:href="#DejaVuSans-34"/>
       <use x="63.623047" xlink:href="#DejaVuSans-2e"/>
       <use x="95.410156" xlink:href="#DejaVuSans-34"/>
      </g>
     </g>
    </g>
    <g id="xtick_10">
     <g id="line2d_15">
      <g>
       <use style="stroke:#000000;stroke-width:0.8;" x="383.92281" xlink:href="#m5fb1bee538" y="311.04"/>
      </g>
     </g>
     <g id="text_9">
      <!-- 4.5 -->
      <g transform="translate(371.995466 329.437656)scale(0.15 -0.15)">
       <use xlink:href="#DejaVuSans-34"/>
       <use x="63.623047" xlink:href="#DejaVuSans-2e"/>
       <use x="95.410156" xlink:href="#DejaVuSans-35"/>
      </g>
     </g>
    </g>
    <g id="text_10">
     <!-- Energy [MeV] -->
     <defs>
      <path d="M 9.8125 72.90625 
L 55.90625 72.90625 
L 55.90625 64.59375 
L 19.671875 64.59375 
L 19.671875 43.015625 
L 54.390625 43.015625 
L 54.390625 34.71875 
L 19.671875 34.71875 
L 19.671875 8.296875 
L 56.78125 8.296875 
L 56.78125 0 
L 9.8125 0 
z
" id="DejaVuSans-45"/>
      <path d="M 41.109375 46.296875 
Q 39.59375 47.171875 37.8125 47.578125 
Q 36.03125 48 33.890625 48 
Q 26.265625 48 22.1875 43.046875 
Q 18.109375 38.09375 18.109375 28.8125 
L 18.109375 0 
L 9.078125 0 
L 9.078125 54.6875 
L 18.109375 54.6875 
L 18.109375 46.1875 
Q 20.953125 51.171875 25.484375 53.578125 
Q 30.03125 56 36.53125 56 
Q 37.453125 56 38.578125 55.875 
Q 39.703125 55.765625 41.0625 55.515625 
z
" id="DejaVuSans-72"/>
      <path d="M 45.40625 27.984375 
Q 45.40625 37.75 41.375 43.109375 
Q 37.359375 48.484375 30.078125 48.484375 
Q 22.859375 48.484375 18.828125 43.109375 
Q 14.796875 37.75 14.796875 27.984375 
Q 14.796875 18.265625 18.828125 12.890625 
Q 22.859375 7.515625 30.078125 7.515625 
Q 37.359375 7.515625 41.375 12.890625 
Q 45.40625 18.265625 45.40625 27.984375 
z
M 54.390625 6.78125 
Q 54.390625 -7.171875 48.1875 -13.984375 
Q 42 -20.796875 29.203125 -20.796875 
Q 24.46875 -20.796875 20.265625 -20.09375 
Q 16.0625 -19.390625 12.109375 -17.921875 
L 12.109375 -9.1875 
Q 16.0625 -11.328125 19.921875 -12.34375 
Q 23.78125 -13.375 27.78125 -13.375 
Q 36.625 -13.375 41.015625 -8.765625 
Q 45.40625 -4.15625 45.40625 5.171875 
L 45.40625 9.625 
Q 42.625 4.78125 38.28125 2.390625 
Q 33.9375 0 27.875 0 
Q 17.828125 0 11.671875 7.65625 
Q 5.515625 15.328125 5.515625 27.984375 
Q 5.515625 40.671875 11.671875 48.328125 
Q 17.828125 56 27.875 56 
Q 33.9375 56 38.28125 53.609375 
Q 42.625 51.21875 45.40625 46.390625 
L 45.40625 54.6875 
L 54.390625 54.6875 
z
" id="DejaVuSans-67"/>
      <path d="M 8.59375 75.984375 
L 29.296875 75.984375 
L 29.296875 69 
L 17.578125 69 
L 17.578125 -6.203125 
L 29.296875 -6.203125 
L 29.296875 -13.1875 
L 8.59375 -13.1875 
z
" id="DejaVuSans-5b"/>
      <path d="M 9.8125 72.90625 
L 24.515625 72.90625 
L 43.109375 23.296875 
L 61.8125 72.90625 
L 76.515625 72.90625 
L 76.515625 0 
L 66.890625 0 
L 66.890625 64.015625 
L 48.09375 14.015625 
L 38.1875 14.015625 
L 19.390625 64.015625 
L 19.390625 0 
L 9.8125 0 
z
" id="DejaVuSans-4d"/>
      <path d="M 28.609375 0 
L 0.78125 72.90625 
L 11.078125 72.90625 
L 34.1875 11.53125 
L 57.328125 72.90625 
L 67.578125 72.90625 
L 39.796875 0 
z
" id="DejaVuSans-56"/>
      <path d="M 30.421875 75.984375 
L 30.421875 -13.1875 
L 9.71875 -13.1875 
L 9.71875 -6.203125 
L 21.390625 -6.203125 
L 21.390625 69 
L 9.71875 69 
L 9.71875 75.984375 
z
" id="DejaVuSans-5d"/>
     </defs>
     <g transform="translate(191.078203 347.954844)scale(0.15 -0.15)">
      <use xlink:href="#DejaVuSans-45"/>
      <use x="63.183594" xlink:href="#DejaVuSans-6e"/>
      <use x="126.5625" xlink:href="#DejaVuSans-65"/>
      <use x="188.085938" xlink:href="#DejaVuSans-72"/>
      <use x="229.183594" xlink:href="#DejaVuSans-67"/>
      <use x="292.660156" xlink:href="#DejaVuSans-79"/>
      <use x="351.839844" xlink:href="#DejaVuSans-20"/>
      <use x="383.626953" xlink:href="#DejaVuSans-5b"/>
      <use x="422.640625" xlink:href="#DejaVuSans-4d"/>
      <use x="508.919922" xlink:href="#DejaVuSans-65"/>
      <use x="570.443359" xlink:href="#DejaVuSans-56"/>
      <use x="638.851562" xlink:href="#DejaVuSans-5d"/>
     </g>
    </g>
   </g>
   <g id="matplotlib.axis_4">
    <g id="ytick_4">
     <g id="line2d_16">
      <g>
       <use style="stroke:#000000;stroke-width:0.8;" x="69.12" xlink:href="#mc01bf56e80" y="291.437088"/>
      </g>
     </g>
     <g id="text_11">
      <!-- 100 -->
      <g transform="translate(33.48875 297.135916)scale(0.15 -0.15)">
       <use xlink:href="#DejaVuSans-31"/>
       <use x="63.623047" xlink:href="#DejaVuSans-30"/>
       <use x="127.246094" xlink:href="#DejaVuSans-30"/>
      </g>
     </g>
    </g>
    <g id="ytick_5">
     <g id="line2d_17">
      <g>
       <use style="stroke:#000000;stroke-width:0.8;" x="69.12" xlink:href="#mc01bf56e80" y="250.323597"/>
      </g>
     </g>
     <g id="text_12">
      <!-- 150 -->
      <g transform="translate(33.48875 256.022426)scale(0.15 -0.15)">
       <use xlink:href="#DejaVuSans-31"/>
       <use x="63.623047" xlink:href="#DejaVuSans-35"/>
       <use x="127.246094" xlink:href="#DejaVuSans-30"/>
      </g>
     </g>
    </g>
    <g id="ytick_6">
     <g id="line2d_18">
      <g>
       <use style="stroke:#000000;stroke-width:0.8;" x="69.12" xlink:href="#mc01bf56e80" y="209.210107"/>
      </g>
     </g>
     <g id="text_13">
      <!-- 200 -->
      <g transform="translate(33.48875 214.908935)scale(0.15 -0.15)">
       <use xlink:href="#DejaVuSans-32"/>
       <use x="63.623047" xlink:href="#DejaVuSans-30"/>
       <use x="127.246094" xlink:href="#DejaVuSans-30"/>
      </g>
     </g>
    </g>
    <g id="ytick_7">
     <g id="line2d_19">
      <g>
       <use style="stroke:#000000;stroke-width:0.8;" x="69.12" xlink:href="#mc01bf56e80" y="168.096617"/>
      </g>
     </g>
     <g id="text_14">
      <!-- 250 -->
      <g transform="translate(33.48875 173.795445)scale(0.15 -0.15)">
       <use xlink:href="#DejaVuSans-32"/>
       <use x="63.623047" xlink:href="#DejaVuSans-35"/>
       <use x="127.246094" xlink:href="#DejaVuSans-30"/>
      </g>
     </g>
    </g>
    <g id="ytick_8">
     <g id="line2d_20">
      <g>
       <use style="stroke:#000000;stroke-width:0.8;" x="69.12" xlink:href="#mc01bf56e80" y="126.983126"/>
      </g>
     </g>
     <g id="text_15">
      <!-- 300 -->
      <g transform="translate(33.48875 132.681954)scale(0.15 -0.15)">
       <use xlink:href="#DejaVuSans-33"/>
       <use x="63.623047" xlink:href="#DejaVuSans-30"/>
       <use x="127.246094" xlink:href="#DejaVuSans-30"/>
      </g>
     </g>
    </g>
    <g id="text_16">
     <!-- Counts -->
     <defs>
      <path d="M 64.40625 67.28125 
L 64.40625 56.890625 
Q 59.421875 61.53125 53.78125 63.8125 
Q 48.140625 66.109375 41.796875 66.109375 
Q 29.296875 66.109375 22.65625 58.46875 
Q 16.015625 50.828125 16.015625 36.375 
Q 16.015625 21.96875 22.65625 14.328125 
Q 29.296875 6.6875 41.796875 6.6875 
Q 48.140625 6.6875 53.78125 8.984375 
Q 59.421875 11.28125 64.40625 15.921875 
L 64.40625 5.609375 
Q 59.234375 2.09375 53.4375 0.328125 
Q 47.65625 -1.421875 41.21875 -1.421875 
Q 24.65625 -1.421875 15.125 8.703125 
Q 5.609375 18.84375 5.609375 36.375 
Q 5.609375 53.953125 15.125 64.078125 
Q 24.65625 74.21875 41.21875 74.21875 
Q 47.75 74.21875 53.53125 72.484375 
Q 59.328125 70.75 64.40625 67.28125 
z
" id="DejaVuSans-43"/>
     </defs>
     <g transform="translate(26.369219 233.539687)rotate(-90)scale(0.15 -0.15)">
      <use xlink:href="#DejaVuSans-43"/>
      <use x="69.824219" xlink:href="#DejaVuSans-6f"/>
      <use x="131.005859" xlink:href="#DejaVuSans-75"/>
      <use x="194.384766" xlink:href="#DejaVuSans-6e"/>
      <use x="257.763672" xlink:href="#DejaVuSans-74"/>
      <use x="296.972656" xlink:href="#DejaVuSans-73"/>
     </g>
    </g>
   </g>
   <g id="LineCollection_2">
    <path clip-path="url(#pf507122d5c)" d="M 81.92 305.512449 
L 81.92 289.695774 
" style="fill:none;stroke:#0000ff;stroke-width:1.5;"/>
    <path clip-path="url(#pf507122d5c)" d="M 85.684706 307.849958 
L 85.684706 292.291883 
" style="fill:none;stroke:#0000ff;stroke-width:1.5;"/>
    <path clip-path="url(#pf507122d5c)" d="M 89.449412 310.963217 
L 89.449412 295.756783 
" style="fill:none;stroke:#0000ff;stroke-width:1.5;"/>
    <path clip-path="url(#pf507122d5c)" d="M 93.214118 308.628648 
L 93.214118 293.157734 
" style="fill:none;stroke:#0000ff;stroke-width:1.5;"/>
    <path clip-path="url(#pf507122d5c)" d="M 96.978824 301.221683 
L 96.978824 284.941572 
" style="fill:none;stroke:#0000ff;stroke-width:1.5;"/>
    <path clip-path="url(#pf507122d5c)" d="M 100.743529 305.122659 
L 100.743529 289.263294 
" style="fill:none;stroke:#0000ff;stroke-width:1.5;"/>
    <path clip-path="url(#pf507122d5c)" d="M 104.508235 290.271936 
L 104.508235 272.867764 
" style="fill:none;stroke:#0000ff;stroke-width:1.5;"/>
    <path clip-path="url(#pf507122d5c)" d="M 108.272941 304.732812 
L 108.272941 288.830871 
" style="fill:none;stroke:#0000ff;stroke-width:1.5;"/>
    <path clip-path="url(#pf507122d5c)" d="M 112.037647 294.578063 
L 112.037647 277.606605 
" style="fill:none;stroke:#0000ff;stroke-width:1.5;"/>
    <path clip-path="url(#pf507122d5c)" d="M 115.802353 295.3604 
L 115.802353 278.468808 
" style="fill:none;stroke:#0000ff;stroke-width:1.5;"/>
    <path clip-path="url(#pf507122d5c)" d="M 119.567059 289.09661 
L 119.567059 271.576281 
" style="fill:none;stroke:#0000ff;stroke-width:1.5;"/>
    <path clip-path="url(#pf507122d5c)" d="M 123.331765 270.637526 
L 123.331765 251.388684 
" style="fill:none;stroke:#0000ff;stroke-width:1.5;"/>
    <path clip-path="url(#pf507122d5c)" d="M 127.096471 266.306332 
L 127.096471 246.67491 
" style="fill:none;stroke:#0000ff;stroke-width:1.5;"/>
    <path clip-path="url(#pf507122d5c)" d="M 130.861176 274.178355 
L 130.861176 255.248283 
" style="fill:none;stroke:#0000ff;stroke-width:1.5;"/>
    <path clip-path="url(#pf507122d5c)" d="M 134.625882 265.518443 
L 134.625882 245.818259 
" style="fill:none;stroke:#0000ff;stroke-width:1.5;"/>
    <path clip-path="url(#pf507122d5c)" d="M 138.390588 265.912403 
L 138.390588 246.246569 
" style="fill:none;stroke:#0000ff;stroke-width:1.5;"/>
    <path clip-path="url(#pf507122d5c)" d="M 142.155294 256.054788 
L 142.155294 235.547439 
" style="fill:none;stroke:#0000ff;stroke-width:1.5;"/>
    <path clip-path="url(#pf507122d5c)" d="M 145.92 247.366294 
L 145.92 226.145997 
" style="fill:none;stroke:#0000ff;stroke-width:1.5;"/>
    <path clip-path="url(#pf507122d5c)" d="M 149.684706 249.737082 
L 149.684706 228.708828 
" style="fill:none;stroke:#0000ff;stroke-width:1.5;"/>
    <path clip-path="url(#pf507122d5c)" d="M 153.449412 242.622157 
L 153.449412 221.022896 
" style="fill:none;stroke:#0000ff;stroke-width:1.5;"/>
    <path clip-path="url(#pf507122d5c)" d="M 157.214118 245.389979 
L 157.214118 224.010964 
" style="fill:none;stroke:#0000ff;stroke-width:1.5;"/>
    <path clip-path="url(#pf507122d5c)" d="M 160.978824 239.457573 
L 160.978824 217.609322 
" style="fill:none;stroke:#0000ff;stroke-width:1.5;"/>
    <path clip-path="url(#pf507122d5c)" d="M 164.743529 226.785661 
L 164.743529 203.9686 
" style="fill:none;stroke:#0000ff;stroke-width:1.5;"/>
    <path clip-path="url(#pf507122d5c)" d="M 168.508235 221.63192 
L 168.508235 198.432834 
" style="fill:none;stroke:#0000ff;stroke-width:1.5;"/>
    <path clip-path="url(#pf507122d5c)" d="M 172.272941 206.152699 
L 172.272941 181.843533 
" style="fill:none;stroke:#0000ff;stroke-width:1.5;"/>
    <path clip-path="url(#pf507122d5c)" d="M 176.037647 207.741483 
L 176.037647 183.543827 
" style="fill:none;stroke:#0000ff;stroke-width:1.5;"/>
    <path clip-path="url(#pf507122d5c)" d="M 179.802353 211.712307 
L 179.802353 187.795702 
" style="fill:none;stroke:#0000ff;stroke-width:1.5;"/>
    <path clip-path="url(#pf507122d5c)" d="M 183.567059 201.782239 
L 183.567059 177.169024 
" style="fill:none;stroke:#0000ff;stroke-width:1.5;"/>
    <path clip-path="url(#pf507122d5c)" d="M 187.331765 198.205026 
L 187.331765 173.345809 
" style="fill:none;stroke:#0000ff;stroke-width:1.5;"/>
    <path clip-path="url(#pf507122d5c)" d="M 191.096471 194.228932 
L 191.096471 169.099205 
" style="fill:none;stroke:#0000ff;stroke-width:1.5;"/>
    <path clip-path="url(#pf507122d5c)" d="M 194.861176 191.842582 
L 194.861176 166.551936 
" style="fill:none;stroke:#0000ff;stroke-width:1.5;"/>
    <path clip-path="url(#pf507122d5c)" d="M 198.625882 194.626607 
L 198.625882 169.5238 
" style="fill:none;stroke:#0000ff;stroke-width:1.5;"/>
    <path clip-path="url(#pf507122d5c)" d="M 202.390588 173.929369 
L 202.390588 147.463008 
" style="fill:none;stroke:#0000ff;stroke-width:1.5;"/>
    <path clip-path="url(#pf507122d5c)" d="M 206.155294 171.140538 
L 206.155294 144.495951 
" style="fill:none;stroke:#0000ff;stroke-width:1.5;"/>
    <path clip-path="url(#pf507122d5c)" d="M 209.92 173.531001 
L 209.92 147.039106 
" style="fill:none;stroke:#0000ff;stroke-width:1.5;"/>
    <path clip-path="url(#pf507122d5c)" d="M 213.684706 177.115864 
L 213.684706 150.854672 
" style="fill:none;stroke:#0000ff;stroke-width:1.5;"/>
    <path clip-path="url(#pf507122d5c)" d="M 217.449412 143.620677 
L 217.449412 115.279194 
" style="fill:none;stroke:#0000ff;stroke-width:1.5;"/>
    <path clip-path="url(#pf507122d5c)" d="M 221.214118 160.378174 
L 221.214118 133.05703 
" style="fill:none;stroke:#0000ff;stroke-width:1.5;"/>
    <path clip-path="url(#pf507122d5c)" d="M 224.978824 152.799722 
L 224.978824 125.012355 
" style="fill:none;stroke:#0000ff;stroke-width:1.5;"/>
    <path clip-path="url(#pf507122d5c)" d="M 228.743529 159.18184 
L 228.743529 131.786554 
" style="fill:none;stroke:#0000ff;stroke-width:1.5;"/>
    <path clip-path="url(#pf507122d5c)" d="M 232.508235 153.597638 
L 232.508235 125.858978 
" style="fill:none;stroke:#0000ff;stroke-width:1.5;"/>
    <path clip-path="url(#pf507122d5c)" d="M 236.272941 146.015735 
L 236.272941 117.817755 
" style="fill:none;stroke:#0000ff;stroke-width:1.5;"/>
    <path clip-path="url(#pf507122d5c)" d="M 240.037647 147.612237 
L 240.037647 119.510332 
" style="fill:none;stroke:#0000ff;stroke-width:1.5;"/>
    <path clip-path="url(#pf507122d5c)" d="M 243.802353 163.567902 
L 243.802353 136.44546 
" style="fill:none;stroke:#0000ff;stroke-width:1.5;"/>
    <path clip-path="url(#pf507122d5c)" d="M 247.567059 140.027413 
L 247.567059 111.47203 
" style="fill:none;stroke:#0000ff;stroke-width:1.5;"/>
    <path clip-path="url(#pf507122d5c)" d="M 251.331765 141.225257 
L 251.331765 112.740996 
" style="fill:none;stroke:#0000ff;stroke-width:1.5;"/>
    <path clip-path="url(#pf507122d5c)" d="M 255.096471 140.426705 
L 255.096471 111.895009 
" style="fill:none;stroke:#0000ff;stroke-width:1.5;"/>
    <path clip-path="url(#pf507122d5c)" d="M 258.861176 132.439044 
L 258.861176 103.437272 
" style="fill:none;stroke:#0000ff;stroke-width:1.5;"/>
    <path clip-path="url(#pf507122d5c)" d="M 262.625882 132.439044 
L 262.625882 103.437272 
" style="fill:none;stroke:#0000ff;stroke-width:1.5;"/>
    <path clip-path="url(#pf507122d5c)" d="M 266.390588 126.046208 
L 266.390588 96.673792 
" style="fill:none;stroke:#0000ff;stroke-width:1.5;"/>
    <path clip-path="url(#pf507122d5c)" d="M 270.155294 143.221465 
L 270.155294 114.856136 
" style="fill:none;stroke:#0000ff;stroke-width:1.5;"/>
    <path clip-path="url(#pf507122d5c)" d="M 273.92 152.799722 
L 273.92 125.012355 
" style="fill:none;stroke:#0000ff;stroke-width:1.5;"/>
    <path clip-path="url(#pf507122d5c)" d="M 277.684706 145.217423 
L 277.684706 116.971528 
" style="fill:none;stroke:#0000ff;stroke-width:1.5;"/>
    <path clip-path="url(#pf507122d5c)" d="M 281.449412 161.175674 
L 281.449412 133.904069 
" style="fill:none;stroke:#0000ff;stroke-width:1.5;"/>
    <path clip-path="url(#pf507122d5c)" d="M 285.214118 144.41907 
L 285.214118 116.125341 
" style="fill:none;stroke:#0000ff;stroke-width:1.5;"/>
    <path clip-path="url(#pf507122d5c)" d="M 288.978824 161.574407 
L 288.978824 134.327606 
" style="fill:none;stroke:#0000ff;stroke-width:1.5;"/>
    <path clip-path="url(#pf507122d5c)" d="M 292.743529 166.358313 
L 292.743529 139.410937 
" style="fill:none;stroke:#0000ff;stroke-width:1.5;"/>
    <path clip-path="url(#pf507122d5c)" d="M 296.508235 172.734229 
L 296.508235 146.191339 
" style="fill:none;stroke:#0000ff;stroke-width:1.5;"/>
    <path clip-path="url(#pf507122d5c)" d="M 300.272941 168.749639 
L 300.272941 141.95323 
" style="fill:none;stroke:#0000ff;stroke-width:1.5;"/>
    <path clip-path="url(#pf507122d5c)" d="M 304.037647 171.140538 
L 304.037647 144.495951 
" style="fill:none;stroke:#0000ff;stroke-width:1.5;"/>
    <path clip-path="url(#pf507122d5c)" d="M 307.802353 182.292186 
L 307.802353 156.367857 
" style="fill:none;stroke:#0000ff;stroke-width:1.5;"/>
    <path clip-path="url(#pf507122d5c)" d="M 311.567059 180.699704 
L 311.567059 154.67126 
" style="fill:none;stroke:#0000ff;stroke-width:1.5;"/>
    <path clip-path="url(#pf507122d5c)" d="M 315.331765 174.327724 
L 315.331765 147.886923 
" style="fill:none;stroke:#0000ff;stroke-width:1.5;"/>
    <path clip-path="url(#pf507122d5c)" d="M 319.096471 183.486411 
L 319.096471 157.640442 
" style="fill:none;stroke:#0000ff;stroke-width:1.5;"/>
    <path clip-path="url(#pf507122d5c)" d="M 322.861176 208.138639 
L 322.861176 183.968941 
" style="fill:none;stroke:#0000ff;stroke-width:1.5;"/>
    <path clip-path="url(#pf507122d5c)" d="M 326.625882 199.795049 
L 326.625882 175.044865 
" style="fill:none;stroke:#0000ff;stroke-width:1.5;"/>
    <path clip-path="url(#pf507122d5c)" d="M 330.390588 210.124174 
L 330.390588 186.094755 
" style="fill:none;stroke:#0000ff;stroke-width:1.5;"/>
    <path clip-path="url(#pf507122d5c)" d="M 334.155294 210.521232 
L 334.155294 186.519967 
" style="fill:none;stroke:#0000ff;stroke-width:1.5;"/>
    <path clip-path="url(#pf507122d5c)" d="M 337.92 204.166361 
L 337.92 179.718522 
" style="fill:none;stroke:#0000ff;stroke-width:1.5;"/>
    <path clip-path="url(#pf507122d5c)" d="M 341.684706 220.838758 
L 341.684706 197.581456 
" style="fill:none;stroke:#0000ff;stroke-width:1.5;"/>
    <path clip-path="url(#pf507122d5c)" d="M 345.449412 220.045524 
L 345.449412 196.730151 
" style="fill:none;stroke:#0000ff;stroke-width:1.5;"/>
    <path clip-path="url(#pf507122d5c)" d="M 349.214118 239.853224 
L 349.214118 218.035941 
" style="fill:none;stroke:#0000ff;stroke-width:1.5;"/>
    <path clip-path="url(#pf507122d5c)" d="M 352.978824 248.156654 
L 352.978824 227.000177 
" style="fill:none;stroke:#0000ff;stroke-width:1.5;"/>
    <path clip-path="url(#pf507122d5c)" d="M 356.743529 252.501881 
L 356.743529 231.699918 
" style="fill:none;stroke:#0000ff;stroke-width:1.5;"/>
    <path clip-path="url(#pf507122d5c)" d="M 360.508235 260.394305 
L 360.508235 240.25289 
" style="fill:none;stroke:#0000ff;stroke-width:1.5;"/>
    <path clip-path="url(#pf507122d5c)" d="M 364.272941 268.669269 
L 364.272941 249.245592 
" style="fill:none;stroke:#0000ff;stroke-width:1.5;"/>
    <path clip-path="url(#pf507122d5c)" d="M 368.037647 261.577229 
L 368.037647 241.536775 
" style="fill:none;stroke:#0000ff;stroke-width:1.5;"/>
    <path clip-path="url(#pf507122d5c)" d="M 371.802353 272.211556 
L 371.802353 253.103733 
" style="fill:none;stroke:#0000ff;stroke-width:1.5;"/>
    <path clip-path="url(#pf507122d5c)" d="M 375.567059 282.036876 
L 375.567059 263.835158 
" style="fill:none;stroke:#0000ff;stroke-width:1.5;"/>
    <path clip-path="url(#pf507122d5c)" d="M 379.331765 277.323471 
L 379.331765 258.681325 
" style="fill:none;stroke:#0000ff;stroke-width:1.5;"/>
    <path clip-path="url(#pf507122d5c)" d="M 383.096471 291.446871 
L 383.096471 274.159638 
" style="fill:none;stroke:#0000ff;stroke-width:1.5;"/>
    <path clip-path="url(#pf507122d5c)" d="M 386.861176 284.783866 
L 386.861176 266.844057 
" style="fill:none;stroke:#0000ff;stroke-width:1.5;"/>
    <path clip-path="url(#pf507122d5c)" d="M 390.625882 285.568368 
L 390.625882 267.704095 
" style="fill:none;stroke:#0000ff;stroke-width:1.5;"/>
    <path clip-path="url(#pf507122d5c)" d="M 394.390588 306.68147 
L 394.390588 290.993562 
" style="fill:none;stroke:#0000ff;stroke-width:1.5;"/>
    <path clip-path="url(#pf507122d5c)" d="M 398.155294 308.239334 
L 398.155294 292.724778 
" style="fill:none;stroke:#0000ff;stroke-width:1.5;"/>
    <path clip-path="url(#pf507122d5c)" d="M 401.92 304.342908 
L 401.92 288.398505 
" style="fill:none;stroke:#0000ff;stroke-width:1.5;"/>
   </g>
   <g id="line2d_21">
    <path clip-path="url(#pf507122d5c)" d="M 81.92 308.420894 
L 86.724805 305.431228 
L 91.52961 302.161505 
L 96.014094 298.847407 
L 100.498579 295.272322 
L 105.303383 291.145667 
L 110.108188 286.707974 
L 114.912993 281.957315 
L 119.717798 276.894932 
L 124.842923 271.156867 
L 129.968048 265.080042 
L 135.413493 258.269896 
L 141.179259 250.690316 
L 147.265345 242.320947 
L 154.312392 232.231907 
L 162.640721 219.900713 
L 189.867948 179.254166 
L 195.954034 170.754744 
L 201.399479 163.535113 
L 206.204284 157.534459 
L 210.688769 152.296552 
L 214.852933 147.784231 
L 218.696777 143.947867 
L 222.2203 140.729301 
L 225.743824 137.813256 
L 228.947027 135.437835 
L 232.15023 133.335689 
L 235.353433 131.516171 
L 238.236316 130.127015 
L 241.119199 128.978475 
L 244.002082 128.074759 
L 246.884965 127.41919 
L 249.767848 127.014185 
L 252.33041 126.86576 
L 254.892973 126.91694 
L 257.455536 127.167574 
L 260.338418 127.687014 
L 263.221301 128.45603 
L 266.104184 129.47179 
L 268.987067 130.730566 
L 271.86995 132.227752 
L 274.752833 133.957898 
L 277.956036 136.145862 
L 281.159239 138.603965 
L 284.682763 141.60694 
L 288.206286 144.907823 
L 292.05013 148.828292 
L 295.893974 153.058798 
L 300.058138 157.962132 
L 304.542623 163.577068 
L 309.667748 170.363364 
L 315.433514 178.387664 
L 322.16024 188.145121 
L 331.44953 202.048053 
L 350.028108 229.937345 
L 357.715796 241.014384 
L 364.122202 249.870356 
L 370.208288 257.900369 
L 375.653734 264.729132 
L 381.099179 271.194438 
L 386.224304 276.93031 
L 391.029109 281.990591 
L 395.833914 286.739128 
L 400.638719 291.174701 
L 401.92 292.304844 
L 401.92 292.304844 
" style="fill:none;stroke:#ff0000;stroke-linecap:square;stroke-width:1.5;"/>
   </g>
   <g id="line2d_22">
    <g clip-path="url(#pf507122d5c)">
     <use style="fill:#0000ff;stroke:#0000ff;" x="81.92" xlink:href="#me02cfa46f6" y="297.604111"/>
     <use style="fill:#0000ff;stroke:#0000ff;" x="85.684706" xlink:href="#me02cfa46f6" y="300.070921"/>
     <use style="fill:#0000ff;stroke:#0000ff;" x="89.449412" xlink:href="#me02cfa46f6" y="303.36"/>
     <use style="fill:#0000ff;stroke:#0000ff;" x="93.214118" xlink:href="#me02cfa46f6" y="300.893191"/>
     <use style="fill:#0000ff;stroke:#0000ff;" x="96.978824" xlink:href="#me02cfa46f6" y="293.081627"/>
     <use style="fill:#0000ff;stroke:#0000ff;" x="100.743529" xlink:href="#me02cfa46f6" y="297.192976"/>
     <use style="fill:#0000ff;stroke:#0000ff;" x="104.508235" xlink:href="#me02cfa46f6" y="281.56985"/>
     <use style="fill:#0000ff;stroke:#0000ff;" x="108.272941" xlink:href="#me02cfa46f6" y="296.781842"/>
     <use style="fill:#0000ff;stroke:#0000ff;" x="112.037647" xlink:href="#me02cfa46f6" y="286.092334"/>
     <use style="fill:#0000ff;stroke:#0000ff;" x="115.802353" xlink:href="#me02cfa46f6" y="286.914604"/>
     <use style="fill:#0000ff;stroke:#0000ff;" x="119.567059" xlink:href="#me02cfa46f6" y="280.336445"/>
     <use style="fill:#0000ff;stroke:#0000ff;" x="123.331765" xlink:href="#me02cfa46f6" y="261.013105"/>
     <use style="fill:#0000ff;stroke:#0000ff;" x="127.096471" xlink:href="#me02cfa46f6" y="256.490621"/>
     <use style="fill:#0000ff;stroke:#0000ff;" x="130.861176" xlink:href="#me02cfa46f6" y="264.713319"/>
     <use style="fill:#0000ff;stroke:#0000ff;" x="134.625882" xlink:href="#me02cfa46f6" y="255.668351"/>
     <use style="fill:#0000ff;stroke:#0000ff;" x="138.390588" xlink:href="#me02cfa46f6" y="256.079486"/>
     <use style="fill:#0000ff;stroke:#0000ff;" x="142.155294" xlink:href="#me02cfa46f6" y="245.801113"/>
     <use style="fill:#0000ff;stroke:#0000ff;" x="145.92" xlink:href="#me02cfa46f6" y="236.756146"/>
     <use style="fill:#0000ff;stroke:#0000ff;" x="149.684706" xlink:href="#me02cfa46f6" y="239.222955"/>
     <use style="fill:#0000ff;stroke:#0000ff;" x="153.449412" xlink:href="#me02cfa46f6" y="231.822527"/>
     <use style="fill:#0000ff;stroke:#0000ff;" x="157.214118" xlink:href="#me02cfa46f6" y="234.700471"/>
     <use style="fill:#0000ff;stroke:#0000ff;" x="160.978824" xlink:href="#me02cfa46f6" y="228.533448"/>
     <use style="fill:#0000ff;stroke:#0000ff;" x="164.743529" xlink:href="#me02cfa46f6" y="215.377131"/>
     <use style="fill:#0000ff;stroke:#0000ff;" x="168.508235" xlink:href="#me02cfa46f6" y="210.032377"/>
     <use style="fill:#0000ff;stroke:#0000ff;" x="172.272941" xlink:href="#me02cfa46f6" y="193.998116"/>
     <use style="fill:#0000ff;stroke:#0000ff;" x="176.037647" xlink:href="#me02cfa46f6" y="195.642655"/>
     <use style="fill:#0000ff;stroke:#0000ff;" x="179.802353" xlink:href="#me02cfa46f6" y="199.754004"/>
     <use style="fill:#0000ff;stroke:#0000ff;" x="183.567059" xlink:href="#me02cfa46f6" y="189.475632"/>
     <use style="fill:#0000ff;stroke:#0000ff;" x="187.331765" xlink:href="#me02cfa46f6" y="185.775418"/>
     <use style="fill:#0000ff;stroke:#0000ff;" x="191.096471" xlink:href="#me02cfa46f6" y="181.664069"/>
     <use style="fill:#0000ff;stroke:#0000ff;" x="194.861176" xlink:href="#me02cfa46f6" y="179.197259"/>
     <use style="fill:#0000ff;stroke:#0000ff;" x="198.625882" xlink:href="#me02cfa46f6" y="182.075203"/>
     <use style="fill:#0000ff;stroke:#0000ff;" x="202.390588" xlink:href="#me02cfa46f6" y="160.696188"/>
     <use style="fill:#0000ff;stroke:#0000ff;" x="206.155294" xlink:href="#me02cfa46f6" y="157.818244"/>
     <use style="fill:#0000ff;stroke:#0000ff;" x="209.92" xlink:href="#me02cfa46f6" y="160.285054"/>
     <use style="fill:#0000ff;stroke:#0000ff;" x="213.684706" xlink:href="#me02cfa46f6" y="163.985268"/>
     <use style="fill:#0000ff;stroke:#0000ff;" x="217.449412" xlink:href="#me02cfa46f6" y="129.449936"/>
     <use style="fill:#0000ff;stroke:#0000ff;" x="221.214118" xlink:href="#me02cfa46f6" y="146.717602"/>
     <use style="fill:#0000ff;stroke:#0000ff;" x="224.978824" xlink:href="#me02cfa46f6" y="138.906039"/>
     <use style="fill:#0000ff;stroke:#0000ff;" x="228.743529" xlink:href="#me02cfa46f6" y="145.484197"/>
     <use style="fill:#0000ff;stroke:#0000ff;" x="232.508235" xlink:href="#me02cfa46f6" y="139.728308"/>
     <use style="fill:#0000ff;stroke:#0000ff;" x="236.272941" xlink:href="#me02cfa46f6" y="131.916745"/>
     <use style="fill:#0000ff;stroke:#0000ff;" x="240.037647" xlink:href="#me02cfa46f6" y="133.561285"/>
     <use style="fill:#0000ff;stroke:#0000ff;" x="243.802353" xlink:href="#me02cfa46f6" y="150.006681"/>
     <use style="fill:#0000ff;stroke:#0000ff;" x="247.567059" xlink:href="#me02cfa46f6" y="125.749722"/>
     <use style="fill:#0000ff;stroke:#0000ff;" x="251.331765" xlink:href="#me02cfa46f6" y="126.983126"/>
     <use style="fill:#0000ff;stroke:#0000ff;" x="255.096471" xlink:href="#me02cfa46f6" y="126.160857"/>
     <use style="fill:#0000ff;stroke:#0000ff;" x="258.861176" xlink:href="#me02cfa46f6" y="117.938158"/>
     <use style="fill:#0000ff;stroke:#0000ff;" x="262.625882" xlink:href="#me02cfa46f6" y="117.938158"/>
     <use style="fill:#0000ff;stroke:#0000ff;" x="266.390588" xlink:href="#me02cfa46f6" y="111.36"/>
     <use style="fill:#0000ff;stroke:#0000ff;" x="270.155294" xlink:href="#me02cfa46f6" y="129.038801"/>
     <use style="fill:#0000ff;stroke:#0000ff;" x="273.92" xlink:href="#me02cfa46f6" y="138.906039"/>
     <use style="fill:#0000ff;stroke:#0000ff;" x="277.684706" xlink:href="#me02cfa46f6" y="131.094475"/>
     <use style="fill:#0000ff;stroke:#0000ff;" x="281.449412" xlink:href="#me02cfa46f6" y="147.539872"/>
     <use style="fill:#0000ff;stroke:#0000ff;" x="285.214118" xlink:href="#me02cfa46f6" y="130.272206"/>
     <use style="fill:#0000ff;stroke:#0000ff;" x="288.978824" xlink:href="#me02cfa46f6" y="147.951006"/>
     <use style="fill:#0000ff;stroke:#0000ff;" x="292.743529" xlink:href="#me02cfa46f6" y="152.884625"/>
     <use style="fill:#0000ff;stroke:#0000ff;" x="296.508235" xlink:href="#me02cfa46f6" y="159.462784"/>
     <use style="fill:#0000ff;stroke:#0000ff;" x="300.272941" xlink:href="#me02cfa46f6" y="155.351435"/>
     <use style="fill:#0000ff;stroke:#0000ff;" x="304.037647" xlink:href="#me02cfa46f6" y="157.818244"/>
     <use style="fill:#0000ff;stroke:#0000ff;" x="307.802353" xlink:href="#me02cfa46f6" y="169.330021"/>
     <use style="fill:#0000ff;stroke:#0000ff;" x="311.567059" xlink:href="#me02cfa46f6" y="167.685482"/>
     <use style="fill:#0000ff;stroke:#0000ff;" x="315.331765" xlink:href="#me02cfa46f6" y="161.107323"/>
     <use style="fill:#0000ff;stroke:#0000ff;" x="319.096471" xlink:href="#me02cfa46f6" y="170.563426"/>
     <use style="fill:#0000ff;stroke:#0000ff;" x="322.861176" xlink:href="#me02cfa46f6" y="196.05379"/>
     <use style="fill:#0000ff;stroke:#0000ff;" x="326.625882" xlink:href="#me02cfa46f6" y="187.419957"/>
     <use style="fill:#0000ff;stroke:#0000ff;" x="330.390588" xlink:href="#me02cfa46f6" y="198.109465"/>
     <use style="fill:#0000ff;stroke:#0000ff;" x="334.155294" xlink:href="#me02cfa46f6" y="198.5206"/>
     <use style="fill:#0000ff;stroke:#0000ff;" x="337.92" xlink:href="#me02cfa46f6" y="191.942441"/>
     <use style="fill:#0000ff;stroke:#0000ff;" x="341.684706" xlink:href="#me02cfa46f6" y="209.210107"/>
     <use style="fill:#0000ff;stroke:#0000ff;" x="345.449412" xlink:href="#me02cfa46f6" y="208.387837"/>
     <use style="fill:#0000ff;stroke:#0000ff;" x="349.214118" xlink:href="#me02cfa46f6" y="228.944582"/>
     <use style="fill:#0000ff;stroke:#0000ff;" x="352.978824" xlink:href="#me02cfa46f6" y="237.578415"/>
     <use style="fill:#0000ff;stroke:#0000ff;" x="356.743529" xlink:href="#me02cfa46f6" y="242.100899"/>
     <use style="fill:#0000ff;stroke:#0000ff;" x="360.508235" xlink:href="#me02cfa46f6" y="250.323597"/>
     <use style="fill:#0000ff;stroke:#0000ff;" x="364.272941" xlink:href="#me02cfa46f6" y="258.95743"/>
     <use style="fill:#0000ff;stroke:#0000ff;" x="368.037647" xlink:href="#me02cfa46f6" y="251.557002"/>
     <use style="fill:#0000ff;stroke:#0000ff;" x="371.802353" xlink:href="#me02cfa46f6" y="262.657645"/>
     <use style="fill:#0000ff;stroke:#0000ff;" x="375.567059" xlink:href="#me02cfa46f6" y="272.936017"/>
     <use style="fill:#0000ff;stroke:#0000ff;" x="379.331765" xlink:href="#me02cfa46f6" y="268.002398"/>
     <use style="fill:#0000ff;stroke:#0000ff;" x="383.096471" xlink:href="#me02cfa46f6" y="282.803255"/>
     <use style="fill:#0000ff;stroke:#0000ff;" x="386.861176" xlink:href="#me02cfa46f6" y="275.813961"/>
     <use style="fill:#0000ff;stroke:#0000ff;" x="390.625882" xlink:href="#me02cfa46f6" y="276.636231"/>
     <use style="fill:#0000ff;stroke:#0000ff;" x="394.390588" xlink:href="#me02cfa46f6" y="298.837516"/>
     <use style="fill:#0000ff;stroke:#0000ff;" x="398.155294" xlink:href="#me02cfa46f6" y="300.482056"/>
     <use style="fill:#0000ff;stroke:#0000ff;" x="401.92" xlink:href="#me02cfa46f6" y="296.370707"/>
    </g>
   </g>
   <g id="patch_8">
    <path d="M 69.12 311.04 
L 69.12 103.68 
" style="fill:none;stroke:#000000;stroke-linecap:square;stroke-linejoin:miter;stroke-width:0.8;"/>
   </g>
   <g id="patch_9">
    <path d="M 414.72 311.04 
L 414.72 103.68 
" style="fill:none;stroke:#000000;stroke-linecap:square;stroke-linejoin:miter;stroke-width:0.8;"/>
   </g>
   <g id="patch_10">
    <path d="M 69.12 311.04 
L 414.72 311.04 
" style="fill:none;stroke:#000000;stroke-linecap:square;stroke-linejoin:miter;stroke-width:0.8;"/>
   </g>
   <g id="patch_11">
    <path d="M 69.12 103.68 
L 414.72 103.68 
" style="fill:none;stroke:#000000;stroke-linecap:square;stroke-linejoin:miter;stroke-width:0.8;"/>
   </g>
  </g>
 </g>
 <defs>
  <clipPath id="p161c6ee3de">
   <rect height="51.84" width="345.6" x="69.12" y="44.928"/>
  </clipPath>
  <clipPath id="pf507122d5c">
   <rect height="207.36" width="345.6" x="69.12" y="103.68"/>
  </clipPath>
 </defs>
</svg>
