<?xml version="1.0" encoding="utf-8" standalone="no"?>
<!DOCTYPE svg PUBLIC "-//W3C//DTD SVG 1.1//EN"
  "http://www.w3.org/Graphics/SVG/1.1/DTD/svg11.dtd">
<!-- Created with matplotlib (http://matplotlib.org/) -->
<svg height="345pt" version="1.1" viewBox="0 0 460 345" width="460pt" xmlns="http://www.w3.org/2000/svg" xmlns:xlink="http://www.w3.org/1999/xlink">
 <defs>
  <style type="text/css">
*{stroke-linecap:butt;stroke-linejoin:round;}
  </style>
 </defs>
 <g id="figure_1">
  <g id="patch_1">
   <path d="M 0 345.6 
L 460.8 345.6 
L 460.8 0 
L 0 0 
z
" style="fill:#ffffff;"/>
  </g>
  <g id="axes_1">
   <g id="patch_2">
    <path d="M 69.12 96.768 
L 414.72 96.768 
L 414.72 44.928 
L 69.12 44.928 
z
" style="fill:#ffffff;"/>
   </g>
   <g id="matplotlib.axis_1">
    <g id="xtick_1">
     <g id="line2d_1">
      <defs>
       <path d="M 0 0 
L 0 3.5 
" id="m16aa0035b3" style="stroke:#000000;stroke-width:0.8;"/>
      </defs>
      <g>
       <use style="stroke:#000000;stroke-width:0.8;" x="71.385208" xlink:href="#m16aa0035b3" y="96.768"/>
      </g>
     </g>
    </g>
    <g id="xtick_2">
     <g id="line2d_2">
      <g>
       <use style="stroke:#000000;stroke-width:0.8;" x="133.934582" xlink:href="#m16aa0035b3" y="96.768"/>
      </g>
     </g>
    </g>
    <g id="xtick_3">
     <g id="line2d_3">
      <g>
       <use style="stroke:#000000;stroke-width:0.8;" x="196.483956" xlink:href="#m16aa0035b3" y="96.768"/>
      </g>
     </g>
    </g>
    <g id="xtick_4">
     <g id="line2d_4">
      <g>
       <use style="stroke:#000000;stroke-width:0.8;" x="259.033331" xlink:href="#m16aa0035b3" y="96.768"/>
      </g>
     </g>
    </g>
    <g id="xtick_5">
     <g id="line2d_5">
      <g>
       <use style="stroke:#000000;stroke-width:0.8;" x="321.582705" xlink:href="#m16aa0035b3" y="96.768"/>
      </g>
     </g>
    </g>
    <g id="xtick_6">
     <g id="line2d_6">
      <g>
       <use style="stroke:#000000;stroke-width:0.8;" x="384.132079" xlink:href="#m16aa0035b3" y="96.768"/>
      </g>
     </g>
    </g>
   </g>
   <g id="matplotlib.axis_2">
    <g id="ytick_1">
     <g id="line2d_7">
      <defs>
       <path d="M 0 0 
L -3.5 0 
" id="m46db3ed1cf" style="stroke:#000000;stroke-width:0.8;"/>
      </defs>
      <g>
       <use style="stroke:#000000;stroke-width:0.8;" x="69.12" xlink:href="#m46db3ed1cf" y="95.473942"/>
      </g>
     </g>
     <g id="text_1">
      <!-- −2.5 -->
      <defs>
       <path d="M 10.59375 35.5 
L 73.1875 35.5 
L 73.1875 27.203125 
L 10.59375 27.203125 
z
" id="DejaVuSans-2212"/>
       <path d="M 19.1875 8.296875 
L 53.609375 8.296875 
L 53.609375 0 
L 7.328125 0 
L 7.328125 8.296875 
Q 12.9375 14.109375 22.625 23.890625 
Q 32.328125 33.6875 34.8125 36.53125 
Q 39.546875 41.84375 41.421875 45.53125 
Q 43.3125 49.21875 43.3125 52.78125 
Q 43.3125 58.59375 39.234375 62.25 
Q 35.15625 65.921875 28.609375 65.921875 
Q 23.96875 65.921875 18.8125 64.3125 
Q 13.671875 62.703125 7.8125 59.421875 
L 7.8125 69.390625 
Q 13.765625 71.78125 18.9375 73 
Q 24.125 74.21875 28.421875 74.21875 
Q 39.75 74.21875 46.484375 68.546875 
Q 53.21875 62.890625 53.21875 53.421875 
Q 53.21875 48.921875 51.53125 44.890625 
Q 49.859375 40.875 45.40625 35.40625 
Q 44.1875 33.984375 37.640625 27.21875 
Q 31.109375 20.453125 19.1875 8.296875 
z
" id="DejaVuSans-32"/>
       <path d="M 10.6875 12.40625 
L 21 12.40625 
L 21 0 
L 10.6875 0 
z
" id="DejaVuSans-2e"/>
       <path d="M 10.796875 72.90625 
L 49.515625 72.90625 
L 49.515625 64.59375 
L 19.828125 64.59375 
L 19.828125 46.734375 
Q 21.96875 47.46875 24.109375 47.828125 
Q 26.265625 48.1875 28.421875 48.1875 
Q 40.625 48.1875 47.75 41.5 
Q 54.890625 34.8125 54.890625 23.390625 
Q 54.890625 11.625 47.5625 5.09375 
Q 40.234375 -1.421875 26.90625 -1.421875 
Q 22.3125 -1.421875 17.546875 -0.640625 
Q 12.796875 0.140625 7.71875 1.703125 
L 7.71875 11.625 
Q 12.109375 9.234375 16.796875 8.0625 
Q 21.484375 6.890625 26.703125 6.890625 
Q 35.15625 6.890625 40.078125 11.328125 
Q 45.015625 15.765625 45.015625 23.390625 
Q 45.015625 31 40.078125 35.4375 
Q 35.15625 39.890625 26.703125 39.890625 
Q 22.75 39.890625 18.8125 39.015625 
Q 14.890625 38.140625 10.796875 36.28125 
z
" id="DejaVuSans-35"/>
      </defs>
      <g transform="translate(25.695781 101.17277)scale(0.15 -0.15)">
       <use xlink:href="#DejaVuSans-2212"/>
       <use x="83.789062" xlink:href="#DejaVuSans-32"/>
       <use x="147.412109" xlink:href="#DejaVuSans-2e"/>
       <use x="179.199219" xlink:href="#DejaVuSans-35"/>
      </g>
     </g>
    </g>
    <g id="ytick_2">
     <g id="line2d_8">
      <g>
       <use style="stroke:#000000;stroke-width:0.8;" x="69.12" xlink:href="#m46db3ed1cf" y="68.385327"/>
      </g>
     </g>
     <g id="text_2">
      <!-- 0.0 -->
      <defs>
       <path d="M 31.78125 66.40625 
Q 24.171875 66.40625 20.328125 58.90625 
Q 16.5 51.421875 16.5 36.375 
Q 16.5 21.390625 20.328125 13.890625 
Q 24.171875 6.390625 31.78125 6.390625 
Q 39.453125 6.390625 43.28125 13.890625 
Q 47.125 21.390625 47.125 36.375 
Q 47.125 51.421875 43.28125 58.90625 
Q 39.453125 66.40625 31.78125 66.40625 
z
M 31.78125 74.21875 
Q 44.046875 74.21875 50.515625 64.515625 
Q 56.984375 54.828125 56.984375 36.375 
Q 56.984375 17.96875 50.515625 8.265625 
Q 44.046875 -1.421875 31.78125 -1.421875 
Q 19.53125 -1.421875 13.0625 8.265625 
Q 6.59375 17.96875 6.59375 36.375 
Q 6.59375 54.828125 13.0625 64.515625 
Q 19.53125 74.21875 31.78125 74.21875 
z
" id="DejaVuSans-30"/>
      </defs>
      <g transform="translate(38.265313 74.084155)scale(0.15 -0.15)">
       <use xlink:href="#DejaVuSans-30"/>
       <use x="63.623047" xlink:href="#DejaVuSans-2e"/>
       <use x="95.410156" xlink:href="#DejaVuSans-30"/>
      </g>
     </g>
    </g>
    <g id="text_3">
     <!-- Studentized -->
     <defs>
      <path d="M 53.515625 70.515625 
L 53.515625 60.890625 
Q 47.90625 63.578125 42.921875 64.890625 
Q 37.9375 66.21875 33.296875 66.21875 
Q 25.25 66.21875 20.875 63.09375 
Q 16.5 59.96875 16.5 54.203125 
Q 16.5 49.359375 19.40625 46.890625 
Q 22.3125 44.4375 30.421875 42.921875 
L 36.375 41.703125 
Q 47.40625 39.59375 52.65625 34.296875 
Q 57.90625 29 57.90625 20.125 
Q 57.90625 9.515625 50.796875 4.046875 
Q 43.703125 -1.421875 29.984375 -1.421875 
Q 24.8125 -1.421875 18.96875 -0.25 
Q 13.140625 0.921875 6.890625 3.21875 
L 6.890625 13.375 
Q 12.890625 10.015625 18.65625 8.296875 
Q 24.421875 6.59375 29.984375 6.59375 
Q 38.421875 6.59375 43.015625 9.90625 
Q 47.609375 13.234375 47.609375 19.390625 
Q 47.609375 24.75 44.3125 27.78125 
Q 41.015625 30.8125 33.5 32.328125 
L 27.484375 33.5 
Q 16.453125 35.6875 11.515625 40.375 
Q 6.59375 45.0625 6.59375 53.421875 
Q 6.59375 63.09375 13.40625 68.65625 
Q 20.21875 74.21875 32.171875 74.21875 
Q 37.3125 74.21875 42.625 73.28125 
Q 47.953125 72.359375 53.515625 70.515625 
z
" id="DejaVuSans-53"/>
      <path d="M 18.3125 70.21875 
L 18.3125 54.6875 
L 36.8125 54.6875 
L 36.8125 47.703125 
L 18.3125 47.703125 
L 18.3125 18.015625 
Q 18.3125 11.328125 20.140625 9.421875 
Q 21.96875 7.515625 27.59375 7.515625 
L 36.8125 7.515625 
L 36.8125 0 
L 27.59375 0 
Q 17.1875 0 13.234375 3.875 
Q 9.28125 7.765625 9.28125 18.015625 
L 9.28125 47.703125 
L 2.6875 47.703125 
L 2.6875 54.6875 
L 9.28125 54.6875 
L 9.28125 70.21875 
z
" id="DejaVuSans-74"/>
      <path d="M 8.5 21.578125 
L 8.5 54.6875 
L 17.484375 54.6875 
L 17.484375 21.921875 
Q 17.484375 14.15625 20.5 10.265625 
Q 23.53125 6.390625 29.59375 6.390625 
Q 36.859375 6.390625 41.078125 11.03125 
Q 45.3125 15.671875 45.3125 23.6875 
L 45.3125 54.6875 
L 54.296875 54.6875 
L 54.296875 0 
L 45.3125 0 
L 45.3125 8.40625 
Q 42.046875 3.421875 37.71875 1 
Q 33.40625 -1.421875 27.6875 -1.421875 
Q 18.265625 -1.421875 13.375 4.4375 
Q 8.5 10.296875 8.5 21.578125 
z
M 31.109375 56 
z
" id="DejaVuSans-75"/>
      <path d="M 45.40625 46.390625 
L 45.40625 75.984375 
L 54.390625 75.984375 
L 54.390625 0 
L 45.40625 0 
L 45.40625 8.203125 
Q 42.578125 3.328125 38.25 0.953125 
Q 33.9375 -1.421875 27.875 -1.421875 
Q 17.96875 -1.421875 11.734375 6.484375 
Q 5.515625 14.40625 5.515625 27.296875 
Q 5.515625 40.1875 11.734375 48.09375 
Q 17.96875 56 27.875 56 
Q 33.9375 56 38.25 53.625 
Q 42.578125 51.265625 45.40625 46.390625 
z
M 14.796875 27.296875 
Q 14.796875 17.390625 18.875 11.75 
Q 22.953125 6.109375 30.078125 6.109375 
Q 37.203125 6.109375 41.296875 11.75 
Q 45.40625 17.390625 45.40625 27.296875 
Q 45.40625 37.203125 41.296875 42.84375 
Q 37.203125 48.484375 30.078125 48.484375 
Q 22.953125 48.484375 18.875 42.84375 
Q 14.796875 37.203125 14.796875 27.296875 
z
" id="DejaVuSans-64"/>
      <path d="M 56.203125 29.59375 
L 56.203125 25.203125 
L 14.890625 25.203125 
Q 15.484375 15.921875 20.484375 11.0625 
Q 25.484375 6.203125 34.421875 6.203125 
Q 39.59375 6.203125 44.453125 7.46875 
Q 49.3125 8.734375 54.109375 11.28125 
L 54.109375 2.78125 
Q 49.265625 0.734375 44.1875 -0.34375 
Q 39.109375 -1.421875 33.890625 -1.421875 
Q 20.796875 -1.421875 13.15625 6.1875 
Q 5.515625 13.8125 5.515625 26.8125 
Q 5.515625 40.234375 12.765625 48.109375 
Q 20.015625 56 32.328125 56 
Q 43.359375 56 49.78125 48.890625 
Q 56.203125 41.796875 56.203125 29.59375 
z
M 47.21875 32.234375 
Q 47.125 39.59375 43.09375 43.984375 
Q 39.0625 48.390625 32.421875 48.390625 
Q 24.90625 48.390625 20.390625 44.140625 
Q 15.875 39.890625 15.1875 32.171875 
z
" id="DejaVuSans-65"/>
      <path d="M 54.890625 33.015625 
L 54.890625 0 
L 45.90625 0 
L 45.90625 32.71875 
Q 45.90625 40.484375 42.875 44.328125 
Q 39.84375 48.1875 33.796875 48.1875 
Q 26.515625 48.1875 22.3125 43.546875 
Q 18.109375 38.921875 18.109375 30.90625 
L 18.109375 0 
L 9.078125 0 
L 9.078125 54.6875 
L 18.109375 54.6875 
L 18.109375 46.1875 
Q 21.34375 51.125 25.703125 53.5625 
Q 30.078125 56 35.796875 56 
Q 45.21875 56 50.046875 50.171875 
Q 54.890625 44.34375 54.890625 33.015625 
z
" id="DejaVuSans-6e"/>
      <path d="M 9.421875 54.6875 
L 18.40625 54.6875 
L 18.40625 0 
L 9.421875 0 
z
M 9.421875 75.984375 
L 18.40625 75.984375 
L 18.40625 64.59375 
L 9.421875 64.59375 
z
" id="DejaVuSans-69"/>
      <path d="M 5.515625 54.6875 
L 48.1875 54.6875 
L 48.1875 46.484375 
L 14.40625 7.171875 
L 48.1875 7.171875 
L 48.1875 0 
L 4.296875 0 
L 4.296875 8.203125 
L 38.09375 47.515625 
L 5.515625 47.515625 
z
" id="DejaVuSans-7a"/>
     </defs>
     <g transform="translate(1.779531 115.768313)rotate(-90)scale(0.15 -0.15)">
      <use xlink:href="#DejaVuSans-53"/>
      <use x="63.476562" xlink:href="#DejaVuSans-74"/>
      <use x="102.685547" xlink:href="#DejaVuSans-75"/>
      <use x="166.064453" xlink:href="#DejaVuSans-64"/>
      <use x="229.541016" xlink:href="#DejaVuSans-65"/>
      <use x="291.064453" xlink:href="#DejaVuSans-6e"/>
      <use x="354.443359" xlink:href="#DejaVuSans-74"/>
      <use x="393.652344" xlink:href="#DejaVuSans-69"/>
      <use x="421.435547" xlink:href="#DejaVuSans-7a"/>
      <use x="473.925781" xlink:href="#DejaVuSans-65"/>
      <use x="535.449219" xlink:href="#DejaVuSans-64"/>
     </g>
     <!-- Residuals -->
     <defs>
      <path d="M 44.390625 34.1875 
Q 47.5625 33.109375 50.5625 29.59375 
Q 53.5625 26.078125 56.59375 19.921875 
L 66.609375 0 
L 56 0 
L 46.6875 18.703125 
Q 43.0625 26.03125 39.671875 28.421875 
Q 36.28125 30.8125 30.421875 30.8125 
L 19.671875 30.8125 
L 19.671875 0 
L 9.8125 0 
L 9.8125 72.90625 
L 32.078125 72.90625 
Q 44.578125 72.90625 50.734375 67.671875 
Q 56.890625 62.453125 56.890625 51.90625 
Q 56.890625 45.015625 53.6875 40.46875 
Q 50.484375 35.9375 44.390625 34.1875 
z
M 19.671875 64.796875 
L 19.671875 38.921875 
L 32.078125 38.921875 
Q 39.203125 38.921875 42.84375 42.21875 
Q 46.484375 45.515625 46.484375 51.90625 
Q 46.484375 58.296875 42.84375 61.546875 
Q 39.203125 64.796875 32.078125 64.796875 
z
" id="DejaVuSans-52"/>
      <path d="M 44.28125 53.078125 
L 44.28125 44.578125 
Q 40.484375 46.53125 36.375 47.5 
Q 32.28125 48.484375 27.875 48.484375 
Q 21.1875 48.484375 17.84375 46.4375 
Q 14.5 44.390625 14.5 40.28125 
Q 14.5 37.15625 16.890625 35.375 
Q 19.28125 33.59375 26.515625 31.984375 
L 29.59375 31.296875 
Q 39.15625 29.25 43.1875 25.515625 
Q 47.21875 21.78125 47.21875 15.09375 
Q 47.21875 7.46875 41.1875 3.015625 
Q 35.15625 -1.421875 24.609375 -1.421875 
Q 20.21875 -1.421875 15.453125 -0.5625 
Q 10.6875 0.296875 5.421875 2 
L 5.421875 11.28125 
Q 10.40625 8.6875 15.234375 7.390625 
Q 20.0625 6.109375 24.8125 6.109375 
Q 31.15625 6.109375 34.5625 8.28125 
Q 37.984375 10.453125 37.984375 14.40625 
Q 37.984375 18.0625 35.515625 20.015625 
Q 33.0625 21.96875 24.703125 23.78125 
L 21.578125 24.515625 
Q 13.234375 26.265625 9.515625 29.90625 
Q 5.8125 33.546875 5.8125 39.890625 
Q 5.8125 47.609375 11.28125 51.796875 
Q 16.75 56 26.8125 56 
Q 31.78125 56 36.171875 55.265625 
Q 40.578125 54.546875 44.28125 53.078125 
z
" id="DejaVuSans-73"/>
      <path d="M 34.28125 27.484375 
Q 23.390625 27.484375 19.1875 25 
Q 14.984375 22.515625 14.984375 16.5 
Q 14.984375 11.71875 18.140625 8.90625 
Q 21.296875 6.109375 26.703125 6.109375 
Q 34.1875 6.109375 38.703125 11.40625 
Q 43.21875 16.703125 43.21875 25.484375 
L 43.21875 27.484375 
z
M 52.203125 31.203125 
L 52.203125 0 
L 43.21875 0 
L 43.21875 8.296875 
Q 40.140625 3.328125 35.546875 0.953125 
Q 30.953125 -1.421875 24.3125 -1.421875 
Q 15.921875 -1.421875 10.953125 3.296875 
Q 6 8.015625 6 15.921875 
Q 6 25.140625 12.171875 29.828125 
Q 18.359375 34.515625 30.609375 34.515625 
L 43.21875 34.515625 
L 43.21875 35.40625 
Q 43.21875 41.609375 39.140625 45 
Q 35.0625 48.390625 27.6875 48.390625 
Q 23 48.390625 18.546875 47.265625 
Q 14.109375 46.140625 10.015625 43.890625 
L 10.015625 52.203125 
Q 14.9375 54.109375 19.578125 55.046875 
Q 24.21875 56 28.609375 56 
Q 40.484375 56 46.34375 49.84375 
Q 52.203125 43.703125 52.203125 31.203125 
z
" id="DejaVuSans-61"/>
      <path d="M 9.421875 75.984375 
L 18.40625 75.984375 
L 18.40625 0 
L 9.421875 0 
z
" id="DejaVuSans-6c"/>
     </defs>
     <g transform="translate(18.57625 106.761281)rotate(-90)scale(0.15 -0.15)">
      <use xlink:href="#DejaVuSans-52"/>
      <use x="69.419922" xlink:href="#DejaVuSans-65"/>
      <use x="130.943359" xlink:href="#DejaVuSans-73"/>
      <use x="183.042969" xlink:href="#DejaVuSans-69"/>
      <use x="210.826172" xlink:href="#DejaVuSans-64"/>
      <use x="274.302734" xlink:href="#DejaVuSans-75"/>
      <use x="337.681641" xlink:href="#DejaVuSans-61"/>
      <use x="398.960938" xlink:href="#DejaVuSans-6c"/>
      <use x="426.744141" xlink:href="#DejaVuSans-73"/>
     </g>
    </g>
   </g>
   <g id="LineCollection_1">
    <path clip-path="url(#p7ee7fa1f7e)" d="M 81.92 75.235954 
L 81.92 53.565062 
" style="fill:none;stroke:#0000ff;stroke-width:1.5;"/>
    <path clip-path="url(#p7ee7fa1f7e)" d="M 85.64093 76.686375 
L 85.64093 55.015483 
" style="fill:none;stroke:#0000ff;stroke-width:1.5;"/>
    <path clip-path="url(#p7ee7fa1f7e)" d="M 93.082791 83.137009 
L 93.082791 61.466117 
" style="fill:none;stroke:#0000ff;stroke-width:1.5;"/>
    <path clip-path="url(#p7ee7fa1f7e)" d="M 96.803721 80.551126 
L 96.803721 58.880234 
" style="fill:none;stroke:#0000ff;stroke-width:1.5;"/>
    <path clip-path="url(#p7ee7fa1f7e)" d="M 100.524651 75.623871 
L 100.524651 53.952979 
" style="fill:none;stroke:#0000ff;stroke-width:1.5;"/>
    <path clip-path="url(#p7ee7fa1f7e)" d="M 104.245581 66.811793 
L 104.245581 45.140901 
" style="fill:none;stroke:#0000ff;stroke-width:1.5;"/>
    <path clip-path="url(#p7ee7fa1f7e)" d="M 107.966512 85.22781 
L 107.966512 63.556918 
" style="fill:none;stroke:#0000ff;stroke-width:1.5;"/>
    <path clip-path="url(#p7ee7fa1f7e)" d="M 111.687442 62.28363 
L 111.687442 40.612738 
" style="fill:none;stroke:#0000ff;stroke-width:1.5;"/>
    <path clip-path="url(#p7ee7fa1f7e)" d="M 115.408372 57.683446 
L 115.408372 36.012554 
" style="fill:none;stroke:#0000ff;stroke-width:1.5;"/>
    <path clip-path="url(#p7ee7fa1f7e)" d="M 119.129302 75.539305 
L 119.129302 53.868413 
" style="fill:none;stroke:#0000ff;stroke-width:1.5;"/>
    <path clip-path="url(#p7ee7fa1f7e)" d="M 122.850233 93.238472 
L 122.850233 71.56758 
" style="fill:none;stroke:#0000ff;stroke-width:1.5;"/>
    <path clip-path="url(#p7ee7fa1f7e)" d="M 126.571163 63.166798 
L 126.571163 41.495906 
" style="fill:none;stroke:#0000ff;stroke-width:1.5;"/>
    <path clip-path="url(#p7ee7fa1f7e)" d="M 130.292093 65.932331 
L 130.292093 44.261439 
" style="fill:none;stroke:#0000ff;stroke-width:1.5;"/>
    <path clip-path="url(#p7ee7fa1f7e)" d="M 134.013023 81.610473 
L 134.013023 59.939581 
" style="fill:none;stroke:#0000ff;stroke-width:1.5;"/>
    <path clip-path="url(#p7ee7fa1f7e)" d="M 137.733953 76.857477 
L 137.733953 55.186586 
" style="fill:none;stroke:#0000ff;stroke-width:1.5;"/>
    <path clip-path="url(#p7ee7fa1f7e)" d="M 141.454884 77.449432 
L 141.454884 55.77854 
" style="fill:none;stroke:#0000ff;stroke-width:1.5;"/>
    <path clip-path="url(#p7ee7fa1f7e)" d="M 145.175814 66.847135 
L 145.175814 45.176243 
" style="fill:none;stroke:#0000ff;stroke-width:1.5;"/>
    <path clip-path="url(#p7ee7fa1f7e)" d="M 148.896744 83.9767 
L 148.896744 62.305808 
" style="fill:none;stroke:#0000ff;stroke-width:1.5;"/>
    <path clip-path="url(#p7ee7fa1f7e)" d="M 152.617674 73.881803 
L 152.617674 52.210911 
" style="fill:none;stroke:#0000ff;stroke-width:1.5;"/>
    <path clip-path="url(#p7ee7fa1f7e)" d="M 156.338605 86.938207 
L 156.338605 65.267315 
" style="fill:none;stroke:#0000ff;stroke-width:1.5;"/>
    <path clip-path="url(#p7ee7fa1f7e)" d="M 160.059535 76.013184 
L 160.059535 54.342292 
" style="fill:none;stroke:#0000ff;stroke-width:1.5;"/>
    <path clip-path="url(#p7ee7fa1f7e)" d="M 163.780465 91.122716 
L 163.780465 69.451824 
" style="fill:none;stroke:#0000ff;stroke-width:1.5;"/>
    <path clip-path="url(#p7ee7fa1f7e)" d="M 167.501395 84.034751 
L 167.501395 62.363859 
" style="fill:none;stroke:#0000ff;stroke-width:1.5;"/>
    <path clip-path="url(#p7ee7fa1f7e)" d="M 171.222326 82.648441 
L 171.222326 60.977549 
" style="fill:none;stroke:#0000ff;stroke-width:1.5;"/>
    <path clip-path="url(#p7ee7fa1f7e)" d="M 174.943256 69.476847 
L 174.943256 47.805955 
" style="fill:none;stroke:#0000ff;stroke-width:1.5;"/>
    <path clip-path="url(#p7ee7fa1f7e)" d="M 178.664186 85.529043 
L 178.664186 63.858151 
" style="fill:none;stroke:#0000ff;stroke-width:1.5;"/>
    <path clip-path="url(#p7ee7fa1f7e)" d="M 182.385116 84.622054 
L 182.385116 62.951162 
" style="fill:none;stroke:#0000ff;stroke-width:1.5;"/>
    <path clip-path="url(#p7ee7fa1f7e)" d="M 186.106047 75.722081 
L 186.106047 54.051189 
" style="fill:none;stroke:#0000ff;stroke-width:1.5;"/>
    <path clip-path="url(#p7ee7fa1f7e)" d="M 189.826977 68.819329 
L 189.826977 47.148437 
" style="fill:none;stroke:#0000ff;stroke-width:1.5;"/>
    <path clip-path="url(#p7ee7fa1f7e)" d="M 193.547907 77.973527 
L 193.547907 56.302635 
" style="fill:none;stroke:#0000ff;stroke-width:1.5;"/>
    <path clip-path="url(#p7ee7fa1f7e)" d="M 197.268837 90.223678 
L 197.268837 68.552786 
" style="fill:none;stroke:#0000ff;stroke-width:1.5;"/>
    <path clip-path="url(#p7ee7fa1f7e)" d="M 200.989767 76.008883 
L 200.989767 54.337991 
" style="fill:none;stroke:#0000ff;stroke-width:1.5;"/>
    <path clip-path="url(#p7ee7fa1f7e)" d="M 204.710698 82.296129 
L 204.710698 60.625237 
" style="fill:none;stroke:#0000ff;stroke-width:1.5;"/>
    <path clip-path="url(#p7ee7fa1f7e)" d="M 208.431628 82.933429 
L 208.431628 61.262537 
" style="fill:none;stroke:#0000ff;stroke-width:1.5;"/>
    <path clip-path="url(#p7ee7fa1f7e)" d="M 212.152558 79.350512 
L 212.152558 57.67962 
" style="fill:none;stroke:#0000ff;stroke-width:1.5;"/>
    <path clip-path="url(#p7ee7fa1f7e)" d="M 215.873488 98.667421 
L 215.873488 76.996529 
" style="fill:none;stroke:#0000ff;stroke-width:1.5;"/>
    <path clip-path="url(#p7ee7fa1f7e)" d="M 219.594419 100.692125 
L 219.594419 79.021233 
" style="fill:none;stroke:#0000ff;stroke-width:1.5;"/>
    <path clip-path="url(#p7ee7fa1f7e)" d="M 223.315349 83.667654 
L 223.315349 61.996762 
" style="fill:none;stroke:#0000ff;stroke-width:1.5;"/>
    <path clip-path="url(#p7ee7fa1f7e)" d="M 227.036279 76.105906 
L 227.036279 54.435014 
" style="fill:none;stroke:#0000ff;stroke-width:1.5;"/>
    <path clip-path="url(#p7ee7fa1f7e)" d="M 230.757209 99.291181 
L 230.757209 77.620289 
" style="fill:none;stroke:#0000ff;stroke-width:1.5;"/>
    <path clip-path="url(#p7ee7fa1f7e)" d="M 234.47814 89.148692 
L 234.47814 67.4778 
" style="fill:none;stroke:#0000ff;stroke-width:1.5;"/>
    <path clip-path="url(#p7ee7fa1f7e)" d="M 238.19907 72.252516 
L 238.19907 50.581624 
" style="fill:none;stroke:#0000ff;stroke-width:1.5;"/>
    <path clip-path="url(#p7ee7fa1f7e)" d="M 241.92 76.182018 
L 241.92 54.511126 
" style="fill:none;stroke:#0000ff;stroke-width:1.5;"/>
    <path clip-path="url(#p7ee7fa1f7e)" d="M 245.64093 71.87323 
L 245.64093 50.202338 
" style="fill:none;stroke:#0000ff;stroke-width:1.5;"/>
    <path clip-path="url(#p7ee7fa1f7e)" d="M 249.36186 73.912681 
L 249.36186 52.241789 
" style="fill:none;stroke:#0000ff;stroke-width:1.5;"/>
    <path clip-path="url(#p7ee7fa1f7e)" d="M 253.082791 85.98016 
L 253.082791 64.309268 
" style="fill:none;stroke:#0000ff;stroke-width:1.5;"/>
    <path clip-path="url(#p7ee7fa1f7e)" d="M 256.803721 75.809054 
L 256.803721 54.138162 
" style="fill:none;stroke:#0000ff;stroke-width:1.5;"/>
    <path clip-path="url(#p7ee7fa1f7e)" d="M 260.524651 84.709094 
L 260.524651 63.038202 
" style="fill:none;stroke:#0000ff;stroke-width:1.5;"/>
    <path clip-path="url(#p7ee7fa1f7e)" d="M 264.245581 64.778163 
L 264.245581 43.107271 
" style="fill:none;stroke:#0000ff;stroke-width:1.5;"/>
    <path clip-path="url(#p7ee7fa1f7e)" d="M 267.966512 80.823521 
L 267.966512 59.152629 
" style="fill:none;stroke:#0000ff;stroke-width:1.5;"/>
    <path clip-path="url(#p7ee7fa1f7e)" d="M 271.687442 75.312919 
L 271.687442 53.642027 
" style="fill:none;stroke:#0000ff;stroke-width:1.5;"/>
    <path clip-path="url(#p7ee7fa1f7e)" d="M 275.408372 85.489461 
L 275.408372 63.818569 
" style="fill:none;stroke:#0000ff;stroke-width:1.5;"/>
    <path clip-path="url(#p7ee7fa1f7e)" d="M 279.129302 60.274264 
L 279.129302 38.603372 
" style="fill:none;stroke:#0000ff;stroke-width:1.5;"/>
    <path clip-path="url(#p7ee7fa1f7e)" d="M 282.850233 84.41726 
L 282.850233 62.746368 
" style="fill:none;stroke:#0000ff;stroke-width:1.5;"/>
    <path clip-path="url(#p7ee7fa1f7e)" d="M 286.571163 80.342076 
L 286.571163 58.671184 
" style="fill:none;stroke:#0000ff;stroke-width:1.5;"/>
    <path clip-path="url(#p7ee7fa1f7e)" d="M 290.292093 80.835355 
L 290.292093 59.164463 
" style="fill:none;stroke:#0000ff;stroke-width:1.5;"/>
    <path clip-path="url(#p7ee7fa1f7e)" d="M 294.013023 73.679398 
L 294.013023 52.008506 
" style="fill:none;stroke:#0000ff;stroke-width:1.5;"/>
    <path clip-path="url(#p7ee7fa1f7e)" d="M 297.733953 72.656319 
L 297.733953 50.985427 
" style="fill:none;stroke:#0000ff;stroke-width:1.5;"/>
    <path clip-path="url(#p7ee7fa1f7e)" d="M 301.454884 64.863644 
L 301.454884 43.192752 
" style="fill:none;stroke:#0000ff;stroke-width:1.5;"/>
    <path clip-path="url(#p7ee7fa1f7e)" d="M 305.175814 64.599663 
L 305.175814 42.928771 
" style="fill:none;stroke:#0000ff;stroke-width:1.5;"/>
    <path clip-path="url(#p7ee7fa1f7e)" d="M 308.896744 79.047424 
L 308.896744 57.376532 
" style="fill:none;stroke:#0000ff;stroke-width:1.5;"/>
    <path clip-path="url(#p7ee7fa1f7e)" d="M 312.617674 79.236407 
L 312.617674 57.565515 
" style="fill:none;stroke:#0000ff;stroke-width:1.5;"/>
    <path clip-path="url(#p7ee7fa1f7e)" d="M 316.338605 76.871364 
L 316.338605 55.200472 
" style="fill:none;stroke:#0000ff;stroke-width:1.5;"/>
    <path clip-path="url(#p7ee7fa1f7e)" d="M 320.059535 83.489591 
L 320.059535 61.818699 
" style="fill:none;stroke:#0000ff;stroke-width:1.5;"/>
    <path clip-path="url(#p7ee7fa1f7e)" d="M 323.780465 79.038568 
L 323.780465 57.367676 
" style="fill:none;stroke:#0000ff;stroke-width:1.5;"/>
    <path clip-path="url(#p7ee7fa1f7e)" d="M 327.501395 77.345386 
L 327.501395 55.674494 
" style="fill:none;stroke:#0000ff;stroke-width:1.5;"/>
    <path clip-path="url(#p7ee7fa1f7e)" d="M 331.222326 71.305748 
L 331.222326 49.634856 
" style="fill:none;stroke:#0000ff;stroke-width:1.5;"/>
    <path clip-path="url(#p7ee7fa1f7e)" d="M 334.943256 76.277056 
L 334.943256 54.606164 
" style="fill:none;stroke:#0000ff;stroke-width:1.5;"/>
    <path clip-path="url(#p7ee7fa1f7e)" d="M 338.664186 71.119074 
L 338.664186 49.448182 
" style="fill:none;stroke:#0000ff;stroke-width:1.5;"/>
    <path clip-path="url(#p7ee7fa1f7e)" d="M 342.385116 67.767682 
L 342.385116 46.09679 
" style="fill:none;stroke:#0000ff;stroke-width:1.5;"/>
    <path clip-path="url(#p7ee7fa1f7e)" d="M 346.106047 80.228407 
L 346.106047 58.557515 
" style="fill:none;stroke:#0000ff;stroke-width:1.5;"/>
    <path clip-path="url(#p7ee7fa1f7e)" d="M 349.826977 81.229448 
L 349.826977 59.558556 
" style="fill:none;stroke:#0000ff;stroke-width:1.5;"/>
    <path clip-path="url(#p7ee7fa1f7e)" d="M 353.547907 78.243912 
L 353.547907 56.57302 
" style="fill:none;stroke:#0000ff;stroke-width:1.5;"/>
    <path clip-path="url(#p7ee7fa1f7e)" d="M 357.268837 79.849667 
L 357.268837 58.178775 
" style="fill:none;stroke:#0000ff;stroke-width:1.5;"/>
    <path clip-path="url(#p7ee7fa1f7e)" d="M 360.989767 88.776373 
L 360.989767 67.105481 
" style="fill:none;stroke:#0000ff;stroke-width:1.5;"/>
    <path clip-path="url(#p7ee7fa1f7e)" d="M 364.710698 68.091893 
L 364.710698 46.421001 
" style="fill:none;stroke:#0000ff;stroke-width:1.5;"/>
    <path clip-path="url(#p7ee7fa1f7e)" d="M 368.431628 66.240927 
L 368.431628 44.570035 
" style="fill:none;stroke:#0000ff;stroke-width:1.5;"/>
    <path clip-path="url(#p7ee7fa1f7e)" d="M 372.152558 80.355433 
L 372.152558 58.684541 
" style="fill:none;stroke:#0000ff;stroke-width:1.5;"/>
    <path clip-path="url(#p7ee7fa1f7e)" d="M 375.873488 86.931144 
L 375.873488 65.260252 
" style="fill:none;stroke:#0000ff;stroke-width:1.5;"/>
    <path clip-path="url(#p7ee7fa1f7e)" d="M 379.594419 79.907184 
L 379.594419 58.236292 
" style="fill:none;stroke:#0000ff;stroke-width:1.5;"/>
    <path clip-path="url(#p7ee7fa1f7e)" d="M 383.315349 97.321949 
L 383.315349 75.651057 
" style="fill:none;stroke:#0000ff;stroke-width:1.5;"/>
    <path clip-path="url(#p7ee7fa1f7e)" d="M 387.036279 84.33683 
L 387.036279 62.665938 
" style="fill:none;stroke:#0000ff;stroke-width:1.5;"/>
    <path clip-path="url(#p7ee7fa1f7e)" d="M 390.757209 80.15813 
L 390.757209 58.487238 
" style="fill:none;stroke:#0000ff;stroke-width:1.5;"/>
    <path clip-path="url(#p7ee7fa1f7e)" d="M 394.47814 96.721232 
L 394.47814 75.05034 
" style="fill:none;stroke:#0000ff;stroke-width:1.5;"/>
    <path clip-path="url(#p7ee7fa1f7e)" d="M 401.92 105.683446 
L 401.92 84.012554 
" style="fill:none;stroke:#0000ff;stroke-width:1.5;"/>
   </g>
   <g id="line2d_9">
    <path clip-path="url(#p7ee7fa1f7e)" d="M 81.92 68.385327 
L 401.92 68.385327 
" style="fill:none;stroke:#ff0000;stroke-linecap:square;stroke-width:1.5;"/>
   </g>
   <g id="line2d_10">
    <defs>
     <path d="M -3 0 
L 3 0 
M 0 3 
L 0 -3 
" id="m5676849945" style="stroke:#0000ff;"/>
    </defs>
    <g clip-path="url(#p7ee7fa1f7e)">
     <use style="fill:#0000ff;stroke:#0000ff;" x="81.92" xlink:href="#m5676849945" y="64.400508"/>
     <use style="fill:#0000ff;stroke:#0000ff;" x="85.64093" xlink:href="#m5676849945" y="65.850929"/>
     <use style="fill:#0000ff;stroke:#0000ff;" x="93.082791" xlink:href="#m5676849945" y="72.301563"/>
     <use style="fill:#0000ff;stroke:#0000ff;" x="96.803721" xlink:href="#m5676849945" y="69.71568"/>
     <use style="fill:#0000ff;stroke:#0000ff;" x="100.524651" xlink:href="#m5676849945" y="64.788425"/>
     <use style="fill:#0000ff;stroke:#0000ff;" x="104.245581" xlink:href="#m5676849945" y="55.976347"/>
     <use style="fill:#0000ff;stroke:#0000ff;" x="107.966512" xlink:href="#m5676849945" y="74.392364"/>
     <use style="fill:#0000ff;stroke:#0000ff;" x="111.687442" xlink:href="#m5676849945" y="51.448184"/>
     <use style="fill:#0000ff;stroke:#0000ff;" x="115.408372" xlink:href="#m5676849945" y="46.848"/>
     <use style="fill:#0000ff;stroke:#0000ff;" x="119.129302" xlink:href="#m5676849945" y="64.703859"/>
     <use style="fill:#0000ff;stroke:#0000ff;" x="122.850233" xlink:href="#m5676849945" y="82.403026"/>
     <use style="fill:#0000ff;stroke:#0000ff;" x="126.571163" xlink:href="#m5676849945" y="52.331352"/>
     <use style="fill:#0000ff;stroke:#0000ff;" x="130.292093" xlink:href="#m5676849945" y="55.096885"/>
     <use style="fill:#0000ff;stroke:#0000ff;" x="134.013023" xlink:href="#m5676849945" y="70.775027"/>
     <use style="fill:#0000ff;stroke:#0000ff;" x="137.733953" xlink:href="#m5676849945" y="66.022031"/>
     <use style="fill:#0000ff;stroke:#0000ff;" x="141.454884" xlink:href="#m5676849945" y="66.613986"/>
     <use style="fill:#0000ff;stroke:#0000ff;" x="145.175814" xlink:href="#m5676849945" y="56.011689"/>
     <use style="fill:#0000ff;stroke:#0000ff;" x="148.896744" xlink:href="#m5676849945" y="73.141254"/>
     <use style="fill:#0000ff;stroke:#0000ff;" x="152.617674" xlink:href="#m5676849945" y="63.046357"/>
     <use style="fill:#0000ff;stroke:#0000ff;" x="156.338605" xlink:href="#m5676849945" y="76.102761"/>
     <use style="fill:#0000ff;stroke:#0000ff;" x="160.059535" xlink:href="#m5676849945" y="65.177738"/>
     <use style="fill:#0000ff;stroke:#0000ff;" x="163.780465" xlink:href="#m5676849945" y="80.28727"/>
     <use style="fill:#0000ff;stroke:#0000ff;" x="167.501395" xlink:href="#m5676849945" y="73.199305"/>
     <use style="fill:#0000ff;stroke:#0000ff;" x="171.222326" xlink:href="#m5676849945" y="71.812995"/>
     <use style="fill:#0000ff;stroke:#0000ff;" x="174.943256" xlink:href="#m5676849945" y="58.641401"/>
     <use style="fill:#0000ff;stroke:#0000ff;" x="178.664186" xlink:href="#m5676849945" y="74.693597"/>
     <use style="fill:#0000ff;stroke:#0000ff;" x="182.385116" xlink:href="#m5676849945" y="73.786608"/>
     <use style="fill:#0000ff;stroke:#0000ff;" x="186.106047" xlink:href="#m5676849945" y="64.886635"/>
     <use style="fill:#0000ff;stroke:#0000ff;" x="189.826977" xlink:href="#m5676849945" y="57.983883"/>
     <use style="fill:#0000ff;stroke:#0000ff;" x="193.547907" xlink:href="#m5676849945" y="67.138081"/>
     <use style="fill:#0000ff;stroke:#0000ff;" x="197.268837" xlink:href="#m5676849945" y="79.388232"/>
     <use style="fill:#0000ff;stroke:#0000ff;" x="200.989767" xlink:href="#m5676849945" y="65.173437"/>
     <use style="fill:#0000ff;stroke:#0000ff;" x="204.710698" xlink:href="#m5676849945" y="71.460683"/>
     <use style="fill:#0000ff;stroke:#0000ff;" x="208.431628" xlink:href="#m5676849945" y="72.097983"/>
     <use style="fill:#0000ff;stroke:#0000ff;" x="212.152558" xlink:href="#m5676849945" y="68.515066"/>
     <use style="fill:#0000ff;stroke:#0000ff;" x="215.873488" xlink:href="#m5676849945" y="87.831975"/>
     <use style="fill:#0000ff;stroke:#0000ff;" x="219.594419" xlink:href="#m5676849945" y="89.856679"/>
     <use style="fill:#0000ff;stroke:#0000ff;" x="223.315349" xlink:href="#m5676849945" y="72.832208"/>
     <use style="fill:#0000ff;stroke:#0000ff;" x="227.036279" xlink:href="#m5676849945" y="65.27046"/>
     <use style="fill:#0000ff;stroke:#0000ff;" x="230.757209" xlink:href="#m5676849945" y="88.455735"/>
     <use style="fill:#0000ff;stroke:#0000ff;" x="234.47814" xlink:href="#m5676849945" y="78.313246"/>
     <use style="fill:#0000ff;stroke:#0000ff;" x="238.19907" xlink:href="#m5676849945" y="61.41707"/>
     <use style="fill:#0000ff;stroke:#0000ff;" x="241.92" xlink:href="#m5676849945" y="65.346572"/>
     <use style="fill:#0000ff;stroke:#0000ff;" x="245.64093" xlink:href="#m5676849945" y="61.037784"/>
     <use style="fill:#0000ff;stroke:#0000ff;" x="249.36186" xlink:href="#m5676849945" y="63.077235"/>
     <use style="fill:#0000ff;stroke:#0000ff;" x="253.082791" xlink:href="#m5676849945" y="75.144714"/>
     <use style="fill:#0000ff;stroke:#0000ff;" x="256.803721" xlink:href="#m5676849945" y="64.973608"/>
     <use style="fill:#0000ff;stroke:#0000ff;" x="260.524651" xlink:href="#m5676849945" y="73.873648"/>
     <use style="fill:#0000ff;stroke:#0000ff;" x="264.245581" xlink:href="#m5676849945" y="53.942717"/>
     <use style="fill:#0000ff;stroke:#0000ff;" x="267.966512" xlink:href="#m5676849945" y="69.988075"/>
     <use style="fill:#0000ff;stroke:#0000ff;" x="271.687442" xlink:href="#m5676849945" y="64.477473"/>
     <use style="fill:#0000ff;stroke:#0000ff;" x="275.408372" xlink:href="#m5676849945" y="74.654015"/>
     <use style="fill:#0000ff;stroke:#0000ff;" x="279.129302" xlink:href="#m5676849945" y="49.438818"/>
     <use style="fill:#0000ff;stroke:#0000ff;" x="282.850233" xlink:href="#m5676849945" y="73.581814"/>
     <use style="fill:#0000ff;stroke:#0000ff;" x="286.571163" xlink:href="#m5676849945" y="69.50663"/>
     <use style="fill:#0000ff;stroke:#0000ff;" x="290.292093" xlink:href="#m5676849945" y="69.999909"/>
     <use style="fill:#0000ff;stroke:#0000ff;" x="294.013023" xlink:href="#m5676849945" y="62.843952"/>
     <use style="fill:#0000ff;stroke:#0000ff;" x="297.733953" xlink:href="#m5676849945" y="61.820873"/>
     <use style="fill:#0000ff;stroke:#0000ff;" x="301.454884" xlink:href="#m5676849945" y="54.028198"/>
     <use style="fill:#0000ff;stroke:#0000ff;" x="305.175814" xlink:href="#m5676849945" y="53.764217"/>
     <use style="fill:#0000ff;stroke:#0000ff;" x="308.896744" xlink:href="#m5676849945" y="68.211978"/>
     <use style="fill:#0000ff;stroke:#0000ff;" x="312.617674" xlink:href="#m5676849945" y="68.400961"/>
     <use style="fill:#0000ff;stroke:#0000ff;" x="316.338605" xlink:href="#m5676849945" y="66.035918"/>
     <use style="fill:#0000ff;stroke:#0000ff;" x="320.059535" xlink:href="#m5676849945" y="72.654145"/>
     <use style="fill:#0000ff;stroke:#0000ff;" x="323.780465" xlink:href="#m5676849945" y="68.203122"/>
     <use style="fill:#0000ff;stroke:#0000ff;" x="327.501395" xlink:href="#m5676849945" y="66.50994"/>
     <use style="fill:#0000ff;stroke:#0000ff;" x="331.222326" xlink:href="#m5676849945" y="60.470302"/>
     <use style="fill:#0000ff;stroke:#0000ff;" x="334.943256" xlink:href="#m5676849945" y="65.44161"/>
     <use style="fill:#0000ff;stroke:#0000ff;" x="338.664186" xlink:href="#m5676849945" y="60.283628"/>
     <use style="fill:#0000ff;stroke:#0000ff;" x="342.385116" xlink:href="#m5676849945" y="56.932236"/>
     <use style="fill:#0000ff;stroke:#0000ff;" x="346.106047" xlink:href="#m5676849945" y="69.392961"/>
     <use style="fill:#0000ff;stroke:#0000ff;" x="349.826977" xlink:href="#m5676849945" y="70.394002"/>
     <use style="fill:#0000ff;stroke:#0000ff;" x="353.547907" xlink:href="#m5676849945" y="67.408466"/>
     <use style="fill:#0000ff;stroke:#0000ff;" x="357.268837" xlink:href="#m5676849945" y="69.014221"/>
     <use style="fill:#0000ff;stroke:#0000ff;" x="360.989767" xlink:href="#m5676849945" y="77.940927"/>
     <use style="fill:#0000ff;stroke:#0000ff;" x="364.710698" xlink:href="#m5676849945" y="57.256447"/>
     <use style="fill:#0000ff;stroke:#0000ff;" x="368.431628" xlink:href="#m5676849945" y="55.405481"/>
     <use style="fill:#0000ff;stroke:#0000ff;" x="372.152558" xlink:href="#m5676849945" y="69.519987"/>
     <use style="fill:#0000ff;stroke:#0000ff;" x="375.873488" xlink:href="#m5676849945" y="76.095698"/>
     <use style="fill:#0000ff;stroke:#0000ff;" x="379.594419" xlink:href="#m5676849945" y="69.071738"/>
     <use style="fill:#0000ff;stroke:#0000ff;" x="383.315349" xlink:href="#m5676849945" y="86.486503"/>
     <use style="fill:#0000ff;stroke:#0000ff;" x="387.036279" xlink:href="#m5676849945" y="73.501384"/>
     <use style="fill:#0000ff;stroke:#0000ff;" x="390.757209" xlink:href="#m5676849945" y="69.322684"/>
     <use style="fill:#0000ff;stroke:#0000ff;" x="394.47814" xlink:href="#m5676849945" y="85.885786"/>
     <use style="fill:#0000ff;stroke:#0000ff;" x="401.92" xlink:href="#m5676849945" y="94.848"/>
    </g>
   </g>
   <g id="patch_3">
    <path d="M 69.12 96.768 
L 69.12 44.928 
" style="fill:none;stroke:#000000;stroke-linecap:square;stroke-linejoin:miter;stroke-width:0.8;"/>
   </g>
   <g id="patch_4">
    <path d="M 414.72 96.768 
L 414.72 44.928 
" style="fill:none;stroke:#000000;stroke-linecap:square;stroke-linejoin:miter;stroke-width:0.8;"/>
   </g>
   <g id="patch_5">
    <path d="M 69.12 96.768 
L 414.72 96.768 
" style="fill:none;stroke:#000000;stroke-linecap:square;stroke-linejoin:miter;stroke-width:0.8;"/>
   </g>
   <g id="patch_6">
    <path d="M 69.12 44.928 
L 414.72 44.928 
" style="fill:none;stroke:#000000;stroke-linecap:square;stroke-linejoin:miter;stroke-width:0.8;"/>
   </g>
   <g id="text_4">
    <!-- Function (0/0): y = a*exp(-(x-x0)**2/w**2)+b -->
    <defs>
     <path d="M 9.8125 72.90625 
L 51.703125 72.90625 
L 51.703125 64.59375 
L 19.671875 64.59375 
L 19.671875 43.109375 
L 48.578125 43.109375 
L 48.578125 34.8125 
L 19.671875 34.8125 
L 19.671875 0 
L 9.8125 0 
z
" id="DejaVuSans-46"/>
     <path d="M 48.78125 52.59375 
L 48.78125 44.1875 
Q 44.96875 46.296875 41.140625 47.34375 
Q 37.3125 48.390625 33.40625 48.390625 
Q 24.65625 48.390625 19.8125 42.84375 
Q 14.984375 37.3125 14.984375 27.296875 
Q 14.984375 17.28125 19.8125 11.734375 
Q 24.65625 6.203125 33.40625 6.203125 
Q 37.3125 6.203125 41.140625 7.25 
Q 44.96875 8.296875 48.78125 10.40625 
L 48.78125 2.09375 
Q 45.015625 0.34375 40.984375 -0.53125 
Q 36.96875 -1.421875 32.421875 -1.421875 
Q 20.0625 -1.421875 12.78125 6.34375 
Q 5.515625 14.109375 5.515625 27.296875 
Q 5.515625 40.671875 12.859375 48.328125 
Q 20.21875 56 33.015625 56 
Q 37.15625 56 41.109375 55.140625 
Q 45.0625 54.296875 48.78125 52.59375 
z
" id="DejaVuSans-63"/>
     <path d="M 30.609375 48.390625 
Q 23.390625 48.390625 19.1875 42.75 
Q 14.984375 37.109375 14.984375 27.296875 
Q 14.984375 17.484375 19.15625 11.84375 
Q 23.34375 6.203125 30.609375 6.203125 
Q 37.796875 6.203125 41.984375 11.859375 
Q 46.1875 17.53125 46.1875 27.296875 
Q 46.1875 37.015625 41.984375 42.703125 
Q 37.796875 48.390625 30.609375 48.390625 
z
M 30.609375 56 
Q 42.328125 56 49.015625 48.375 
Q 55.71875 40.765625 55.71875 27.296875 
Q 55.71875 13.875 49.015625 6.21875 
Q 42.328125 -1.421875 30.609375 -1.421875 
Q 18.84375 -1.421875 12.171875 6.21875 
Q 5.515625 13.875 5.515625 27.296875 
Q 5.515625 40.765625 12.171875 48.375 
Q 18.84375 56 30.609375 56 
z
" id="DejaVuSans-6f"/>
     <path id="DejaVuSans-20"/>
     <path d="M 31 75.875 
Q 24.46875 64.65625 21.28125 53.65625 
Q 18.109375 42.671875 18.109375 31.390625 
Q 18.109375 20.125 21.3125 9.0625 
Q 24.515625 -2 31 -13.1875 
L 23.1875 -13.1875 
Q 15.875 -1.703125 12.234375 9.375 
Q 8.59375 20.453125 8.59375 31.390625 
Q 8.59375 42.28125 12.203125 53.3125 
Q 15.828125 64.359375 23.1875 75.875 
z
" id="DejaVuSans-28"/>
     <path d="M 25.390625 72.90625 
L 33.6875 72.90625 
L 8.296875 -9.28125 
L 0 -9.28125 
z
" id="DejaVuSans-2f"/>
     <path d="M 8.015625 75.875 
L 15.828125 75.875 
Q 23.140625 64.359375 26.78125 53.3125 
Q 30.421875 42.28125 30.421875 31.390625 
Q 30.421875 20.453125 26.78125 9.375 
Q 23.140625 -1.703125 15.828125 -13.1875 
L 8.015625 -13.1875 
Q 14.5 -2 17.703125 9.0625 
Q 20.90625 20.125 20.90625 31.390625 
Q 20.90625 42.671875 17.703125 53.65625 
Q 14.5 64.65625 8.015625 75.875 
z
" id="DejaVuSans-29"/>
     <path d="M 11.71875 12.40625 
L 22.015625 12.40625 
L 22.015625 0 
L 11.71875 0 
z
M 11.71875 51.703125 
L 22.015625 51.703125 
L 22.015625 39.3125 
L 11.71875 39.3125 
z
" id="DejaVuSans-3a"/>
     <path d="M 32.171875 -5.078125 
Q 28.375 -14.84375 24.75 -17.8125 
Q 21.140625 -20.796875 15.09375 -20.796875 
L 7.90625 -20.796875 
L 7.90625 -13.28125 
L 13.1875 -13.28125 
Q 16.890625 -13.28125 18.9375 -11.515625 
Q 21 -9.765625 23.484375 -3.21875 
L 25.09375 0.875 
L 2.984375 54.6875 
L 12.5 54.6875 
L 29.59375 11.921875 
L 46.6875 54.6875 
L 56.203125 54.6875 
z
" id="DejaVuSans-79"/>
     <path d="M 10.59375 45.40625 
L 73.1875 45.40625 
L 73.1875 37.203125 
L 10.59375 37.203125 
z
M 10.59375 25.484375 
L 73.1875 25.484375 
L 73.1875 17.1875 
L 10.59375 17.1875 
z
" id="DejaVuSans-3d"/>
     <path d="M 47.015625 60.890625 
L 29.5 51.421875 
L 47.015625 41.890625 
L 44.1875 37.109375 
L 27.78125 47.015625 
L 27.78125 28.609375 
L 22.21875 28.609375 
L 22.21875 47.015625 
L 5.8125 37.109375 
L 2.984375 41.890625 
L 20.515625 51.421875 
L 2.984375 60.890625 
L 5.8125 65.71875 
L 22.21875 55.8125 
L 22.21875 74.21875 
L 27.78125 74.21875 
L 27.78125 55.8125 
L 44.1875 65.71875 
z
" id="DejaVuSans-2a"/>
     <path d="M 54.890625 54.6875 
L 35.109375 28.078125 
L 55.90625 0 
L 45.3125 0 
L 29.390625 21.484375 
L 13.484375 0 
L 2.875 0 
L 24.125 28.609375 
L 4.6875 54.6875 
L 15.28125 54.6875 
L 29.78125 35.203125 
L 44.28125 54.6875 
z
" id="DejaVuSans-78"/>
     <path d="M 18.109375 8.203125 
L 18.109375 -20.796875 
L 9.078125 -20.796875 
L 9.078125 54.6875 
L 18.109375 54.6875 
L 18.109375 46.390625 
Q 20.953125 51.265625 25.265625 53.625 
Q 29.59375 56 35.59375 56 
Q 45.5625 56 51.78125 48.09375 
Q 58.015625 40.1875 58.015625 27.296875 
Q 58.015625 14.40625 51.78125 6.484375 
Q 45.5625 -1.421875 35.59375 -1.421875 
Q 29.59375 -1.421875 25.265625 0.953125 
Q 20.953125 3.328125 18.109375 8.203125 
z
M 48.6875 27.296875 
Q 48.6875 37.203125 44.609375 42.84375 
Q 40.53125 48.484375 33.40625 48.484375 
Q 26.265625 48.484375 22.1875 42.84375 
Q 18.109375 37.203125 18.109375 27.296875 
Q 18.109375 17.390625 22.1875 11.75 
Q 26.265625 6.109375 33.40625 6.109375 
Q 40.53125 6.109375 44.609375 11.75 
Q 48.6875 17.390625 48.6875 27.296875 
z
" id="DejaVuSans-70"/>
     <path d="M 4.890625 31.390625 
L 31.203125 31.390625 
L 31.203125 23.390625 
L 4.890625 23.390625 
z
" id="DejaVuSans-2d"/>
     <path d="M 4.203125 54.6875 
L 13.1875 54.6875 
L 24.421875 12.015625 
L 35.59375 54.6875 
L 46.1875 54.6875 
L 57.421875 12.015625 
L 68.609375 54.6875 
L 77.59375 54.6875 
L 63.28125 0 
L 52.6875 0 
L 40.921875 44.828125 
L 29.109375 0 
L 18.5 0 
z
" id="DejaVuSans-77"/>
     <path d="M 46 62.703125 
L 46 35.5 
L 73.1875 35.5 
L 73.1875 27.203125 
L 46 27.203125 
L 46 0 
L 37.796875 0 
L 37.796875 27.203125 
L 10.59375 27.203125 
L 10.59375 35.5 
L 37.796875 35.5 
L 37.796875 62.703125 
z
" id="DejaVuSans-2b"/>
     <path d="M 48.6875 27.296875 
Q 48.6875 37.203125 44.609375 42.84375 
Q 40.53125 48.484375 33.40625 48.484375 
Q 26.265625 48.484375 22.1875 42.84375 
Q 18.109375 37.203125 18.109375 27.296875 
Q 18.109375 17.390625 22.1875 11.75 
Q 26.265625 6.109375 33.40625 6.109375 
Q 40.53125 6.109375 44.609375 11.75 
Q 48.6875 17.390625 48.6875 27.296875 
z
M 18.109375 46.390625 
Q 20.953125 51.265625 25.265625 53.625 
Q 29.59375 56 35.59375 56 
Q 45.5625 56 51.78125 48.09375 
Q 58.015625 40.1875 58.015625 27.296875 
Q 58.015625 14.40625 51.78125 6.484375 
Q 45.5625 -1.421875 35.59375 -1.421875 
Q 29.59375 -1.421875 25.265625 0.953125 
Q 20.953125 3.328125 18.109375 8.203125 
L 18.109375 0 
L 9.078125 0 
L 9.078125 75.984375 
L 18.109375 75.984375 
z
" id="DejaVuSans-62"/>
    </defs>
    <g transform="translate(69.12 27.730187)scale(0.1 -0.1)">
     <use xlink:href="#DejaVuSans-46"/>
     <use x="57.441406" xlink:href="#DejaVuSans-75"/>
     <use x="120.820312" xlink:href="#DejaVuSans-6e"/>
     <use x="184.199219" xlink:href="#DejaVuSans-63"/>
     <use x="239.179688" xlink:href="#DejaVuSans-74"/>
     <use x="278.388672" xlink:href="#DejaVuSans-69"/>
     <use x="306.171875" xlink:href="#DejaVuSans-6f"/>
     <use x="367.353516" xlink:href="#DejaVuSans-6e"/>
     <use x="430.732422" xlink:href="#DejaVuSans-20"/>
     <use x="462.519531" xlink:href="#DejaVuSans-28"/>
     <use x="501.533203" xlink:href="#DejaVuSans-30"/>
     <use x="565.15625" xlink:href="#DejaVuSans-2f"/>
     <use x="598.847656" xlink:href="#DejaVuSans-30"/>
     <use x="662.470703" xlink:href="#DejaVuSans-29"/>
     <use x="701.484375" xlink:href="#DejaVuSans-3a"/>
     <use x="735.175781" xlink:href="#DejaVuSans-20"/>
     <use x="766.962891" xlink:href="#DejaVuSans-79"/>
     <use x="826.142578" xlink:href="#DejaVuSans-20"/>
     <use x="857.929688" xlink:href="#DejaVuSans-3d"/>
     <use x="941.71875" xlink:href="#DejaVuSans-20"/>
     <use x="973.505859" xlink:href="#DejaVuSans-61"/>
     <use x="1034.785156" xlink:href="#DejaVuSans-2a"/>
     <use x="1084.785156" xlink:href="#DejaVuSans-65"/>
     <use x="1146.292969" xlink:href="#DejaVuSans-78"/>
     <use x="1205.472656" xlink:href="#DejaVuSans-70"/>
     <use x="1268.949219" xlink:href="#DejaVuSans-28"/>
     <use x="1307.962891" xlink:href="#DejaVuSans-2d"/>
     <use x="1344.046875" xlink:href="#DejaVuSans-28"/>
     <use x="1383.060547" xlink:href="#DejaVuSans-78"/>
     <use x="1442.240234" xlink:href="#DejaVuSans-2d"/>
     <use x="1478.324219" xlink:href="#DejaVuSans-78"/>
     <use x="1537.503906" xlink:href="#DejaVuSans-30"/>
     <use x="1601.126953" xlink:href="#DejaVuSans-29"/>
     <use x="1640.140625" xlink:href="#DejaVuSans-2a"/>
     <use x="1690.140625" xlink:href="#DejaVuSans-2a"/>
     <use x="1740.140625" xlink:href="#DejaVuSans-32"/>
     <use x="1803.763672" xlink:href="#DejaVuSans-2f"/>
     <use x="1837.455078" xlink:href="#DejaVuSans-77"/>
     <use x="1919.242188" xlink:href="#DejaVuSans-2a"/>
     <use x="1969.242188" xlink:href="#DejaVuSans-2a"/>
     <use x="2019.242188" xlink:href="#DejaVuSans-32"/>
     <use x="2082.865234" xlink:href="#DejaVuSans-29"/>
     <use x="2121.878906" xlink:href="#DejaVuSans-2b"/>
     <use x="2205.667969" xlink:href="#DejaVuSans-62"/>
    </g>
    <!-- Fit: a=242.1$\pm$7.4, b=61.9$\pm$8.2, x0=4.2966$\pm$0.0017, w=0.1775$\pm$0.0071, -->
    <defs>
     <path d="M 37.796875 64.3125 
L 12.890625 25.390625 
L 37.796875 25.390625 
z
M 35.203125 72.90625 
L 47.609375 72.90625 
L 47.609375 25.390625 
L 58.015625 25.390625 
L 58.015625 17.1875 
L 47.609375 17.1875 
L 47.609375 0 
L 37.796875 0 
L 37.796875 17.1875 
L 4.890625 17.1875 
L 4.890625 26.703125 
z
" id="DejaVuSans-34"/>
     <path d="M 12.40625 8.296875 
L 28.515625 8.296875 
L 28.515625 63.921875 
L 10.984375 60.40625 
L 10.984375 69.390625 
L 28.421875 72.90625 
L 38.28125 72.90625 
L 38.28125 8.296875 
L 54.390625 8.296875 
L 54.390625 0 
L 12.40625 0 
z
" id="DejaVuSans-31"/>
     <path d="M 46 62.703125 
L 46 43.796875 
L 73.1875 43.796875 
L 73.1875 35.5 
L 46 35.5 
L 46 16.609375 
L 37.796875 16.609375 
L 37.796875 35.5 
L 10.59375 35.5 
L 10.59375 43.796875 
L 37.796875 43.796875 
L 37.796875 62.703125 
z
M 10.59375 8.296875 
L 73.1875 8.296875 
L 73.1875 0 
L 10.59375 0 
z
" id="DejaVuSans-b1"/>
     <path d="M 8.203125 72.90625 
L 55.078125 72.90625 
L 55.078125 68.703125 
L 28.609375 0 
L 18.3125 0 
L 43.21875 64.59375 
L 8.203125 64.59375 
z
" id="DejaVuSans-37"/>
     <path d="M 11.71875 12.40625 
L 22.015625 12.40625 
L 22.015625 4 
L 14.015625 -11.625 
L 7.71875 -11.625 
L 11.71875 4 
z
" id="DejaVuSans-2c"/>
     <path d="M 33.015625 40.375 
Q 26.375 40.375 22.484375 35.828125 
Q 18.609375 31.296875 18.609375 23.390625 
Q 18.609375 15.53125 22.484375 10.953125 
Q 26.375 6.390625 33.015625 6.390625 
Q 39.65625 6.390625 43.53125 10.953125 
Q 47.40625 15.53125 47.40625 23.390625 
Q 47.40625 31.296875 43.53125 35.828125 
Q 39.65625 40.375 33.015625 40.375 
z
M 52.59375 71.296875 
L 52.59375 62.3125 
Q 48.875 64.0625 45.09375 64.984375 
Q 41.3125 65.921875 37.59375 65.921875 
Q 27.828125 65.921875 22.671875 59.328125 
Q 17.53125 52.734375 16.796875 39.40625 
Q 19.671875 43.65625 24.015625 45.921875 
Q 28.375 48.1875 33.59375 48.1875 
Q 44.578125 48.1875 50.953125 41.515625 
Q 57.328125 34.859375 57.328125 23.390625 
Q 57.328125 12.15625 50.6875 5.359375 
Q 44.046875 -1.421875 33.015625 -1.421875 
Q 20.359375 -1.421875 13.671875 8.265625 
Q 6.984375 17.96875 6.984375 36.375 
Q 6.984375 53.65625 15.1875 63.9375 
Q 23.390625 74.21875 37.203125 74.21875 
Q 40.921875 74.21875 44.703125 73.484375 
Q 48.484375 72.75 52.59375 71.296875 
z
" id="DejaVuSans-36"/>
     <path d="M 10.984375 1.515625 
L 10.984375 10.5 
Q 14.703125 8.734375 18.5 7.8125 
Q 22.3125 6.890625 25.984375 6.890625 
Q 35.75 6.890625 40.890625 13.453125 
Q 46.046875 20.015625 46.78125 33.40625 
Q 43.953125 29.203125 39.59375 26.953125 
Q 35.25 24.703125 29.984375 24.703125 
Q 19.046875 24.703125 12.671875 31.3125 
Q 6.296875 37.9375 6.296875 49.421875 
Q 6.296875 60.640625 12.9375 67.421875 
Q 19.578125 74.21875 30.609375 74.21875 
Q 43.265625 74.21875 49.921875 64.515625 
Q 56.59375 54.828125 56.59375 36.375 
Q 56.59375 19.140625 48.40625 8.859375 
Q 40.234375 -1.421875 26.421875 -1.421875 
Q 22.703125 -1.421875 18.890625 -0.6875 
Q 15.09375 0.046875 10.984375 1.515625 
z
M 30.609375 32.421875 
Q 37.25 32.421875 41.125 36.953125 
Q 45.015625 41.5 45.015625 49.421875 
Q 45.015625 57.28125 41.125 61.84375 
Q 37.25 66.40625 30.609375 66.40625 
Q 23.96875 66.40625 20.09375 61.84375 
Q 16.21875 57.28125 16.21875 49.421875 
Q 16.21875 41.5 20.09375 36.953125 
Q 23.96875 32.421875 30.609375 32.421875 
z
" id="DejaVuSans-39"/>
     <path d="M 31.78125 34.625 
Q 24.75 34.625 20.71875 30.859375 
Q 16.703125 27.09375 16.703125 20.515625 
Q 16.703125 13.921875 20.71875 10.15625 
Q 24.75 6.390625 31.78125 6.390625 
Q 38.8125 6.390625 42.859375 10.171875 
Q 46.921875 13.96875 46.921875 20.515625 
Q 46.921875 27.09375 42.890625 30.859375 
Q 38.875 34.625 31.78125 34.625 
z
M 21.921875 38.8125 
Q 15.578125 40.375 12.03125 44.71875 
Q 8.5 49.078125 8.5 55.328125 
Q 8.5 64.0625 14.71875 69.140625 
Q 20.953125 74.21875 31.78125 74.21875 
Q 42.671875 74.21875 48.875 69.140625 
Q 55.078125 64.0625 55.078125 55.328125 
Q 55.078125 49.078125 51.53125 44.71875 
Q 48 40.375 41.703125 38.8125 
Q 48.828125 37.15625 52.796875 32.3125 
Q 56.78125 27.484375 56.78125 20.515625 
Q 56.78125 9.90625 50.3125 4.234375 
Q 43.84375 -1.421875 31.78125 -1.421875 
Q 19.734375 -1.421875 13.25 4.234375 
Q 6.78125 9.90625 6.78125 20.515625 
Q 6.78125 27.484375 10.78125 32.3125 
Q 14.796875 37.15625 21.921875 38.8125 
z
M 18.3125 54.390625 
Q 18.3125 48.734375 21.84375 45.5625 
Q 25.390625 42.390625 31.78125 42.390625 
Q 38.140625 42.390625 41.71875 45.5625 
Q 45.3125 48.734375 45.3125 54.390625 
Q 45.3125 60.0625 41.71875 63.234375 
Q 38.140625 66.40625 31.78125 66.40625 
Q 25.390625 66.40625 21.84375 63.234375 
Q 18.3125 60.0625 18.3125 54.390625 
z
" id="DejaVuSans-38"/>
    </defs>
    <g transform="translate(69.12 38.928)scale(0.1 -0.1)">
     <use transform="translate(0 0.015625)" xlink:href="#DejaVuSans-46"/>
     <use transform="translate(57.519531 0.015625)" xlink:href="#DejaVuSans-69"/>
     <use transform="translate(85.302734 0.015625)" xlink:href="#DejaVuSans-74"/>
     <use transform="translate(124.511719 0.015625)" xlink:href="#DejaVuSans-3a"/>
     <use transform="translate(158.203125 0.015625)" xlink:href="#DejaVuSans-20"/>
     <use transform="translate(189.990234 0.015625)" xlink:href="#DejaVuSans-61"/>
     <use transform="translate(251.269531 0.015625)" xlink:href="#DejaVuSans-3d"/>
     <use transform="translate(335.058594 0.015625)" xlink:href="#DejaVuSans-32"/>
     <use transform="translate(398.681641 0.015625)" xlink:href="#DejaVuSans-34"/>
     <use transform="translate(462.304688 0.015625)" xlink:href="#DejaVuSans-32"/>
     <use transform="translate(525.927734 0.015625)" xlink:href="#DejaVuSans-2e"/>
     <use transform="translate(557.714844 0.015625)" xlink:href="#DejaVuSans-31"/>
     <use transform="translate(621.337891 0.015625)" xlink:href="#DejaVuSans-b1"/>
     <use transform="translate(705.126953 0.015625)" xlink:href="#DejaVuSans-37"/>
     <use transform="translate(768.75 0.015625)" xlink:href="#DejaVuSans-2e"/>
     <use transform="translate(800.537109 0.015625)" xlink:href="#DejaVuSans-34"/>
     <use transform="translate(864.160156 0.015625)" xlink:href="#DejaVuSans-2c"/>
     <use transform="translate(895.947266 0.015625)" xlink:href="#DejaVuSans-20"/>
     <use transform="translate(927.734375 0.015625)" xlink:href="#DejaVuSans-62"/>
     <use transform="translate(991.210938 0.015625)" xlink:href="#DejaVuSans-3d"/>
     <use transform="translate(1075 0.015625)" xlink:href="#DejaVuSans-36"/>
     <use transform="translate(1138.623047 0.015625)" xlink:href="#DejaVuSans-31"/>
     <use transform="translate(1202.246094 0.015625)" xlink:href="#DejaVuSans-2e"/>
     <use transform="translate(1234.033203 0.015625)" xlink:href="#DejaVuSans-39"/>
     <use transform="translate(1297.65625 0.015625)" xlink:href="#DejaVuSans-b1"/>
     <use transform="translate(1381.445312 0.015625)" xlink:href="#DejaVuSans-38"/>
     <use transform="translate(1445.068359 0.015625)" xlink:href="#DejaVuSans-2e"/>
     <use transform="translate(1476.777344 0.015625)" xlink:href="#DejaVuSans-32"/>
     <use transform="translate(1540.400391 0.015625)" xlink:href="#DejaVuSans-2c"/>
     <use transform="translate(1572.1875 0.015625)" xlink:href="#DejaVuSans-20"/>
     <use transform="translate(1603.974609 0.015625)" xlink:href="#DejaVuSans-78"/>
     <use transform="translate(1663.154297 0.015625)" xlink:href="#DejaVuSans-30"/>
     <use transform="translate(1726.777344 0.015625)" xlink:href="#DejaVuSans-3d"/>
     <use transform="translate(1810.566406 0.015625)" xlink:href="#DejaVuSans-34"/>
     <use transform="translate(1874.189453 0.015625)" xlink:href="#DejaVuSans-2e"/>
     <use transform="translate(1905.898438 0.015625)" xlink:href="#DejaVuSans-32"/>
     <use transform="translate(1969.505859 0.015625)" xlink:href="#DejaVuSans-39"/>
     <use transform="translate(2033.128906 0.015625)" xlink:href="#DejaVuSans-36"/>
     <use transform="translate(2096.751953 0.015625)" xlink:href="#DejaVuSans-36"/>
     <use transform="translate(2160.375 0.015625)" xlink:href="#DejaVuSans-b1"/>
     <use transform="translate(2244.164062 0.015625)" xlink:href="#DejaVuSans-30"/>
     <use transform="translate(2307.787109 0.015625)" xlink:href="#DejaVuSans-2e"/>
     <use transform="translate(2339.574219 0.015625)" xlink:href="#DejaVuSans-30"/>
     <use transform="translate(2403.197266 0.015625)" xlink:href="#DejaVuSans-30"/>
     <use transform="translate(2466.820312 0.015625)" xlink:href="#DejaVuSans-31"/>
     <use transform="translate(2530.443359 0.015625)" xlink:href="#DejaVuSans-37"/>
     <use transform="translate(2594.066406 0.015625)" xlink:href="#DejaVuSans-2c"/>
     <use transform="translate(2625.853516 0.015625)" xlink:href="#DejaVuSans-20"/>
     <use transform="translate(2657.640625 0.015625)" xlink:href="#DejaVuSans-77"/>
     <use transform="translate(2739.427734 0.015625)" xlink:href="#DejaVuSans-3d"/>
     <use transform="translate(2823.216797 0.015625)" xlink:href="#DejaVuSans-30"/>
     <use transform="translate(2886.839844 0.015625)" xlink:href="#DejaVuSans-2e"/>
     <use transform="translate(2918.626953 0.015625)" xlink:href="#DejaVuSans-31"/>
     <use transform="translate(2982.25 0.015625)" xlink:href="#DejaVuSans-37"/>
     <use transform="translate(3045.857422 0.015625)" xlink:href="#DejaVuSans-37"/>
     <use transform="translate(3109.480469 0.015625)" xlink:href="#DejaVuSans-35"/>
     <use transform="translate(3173.103516 0.015625)" xlink:href="#DejaVuSans-b1"/>
     <use transform="translate(3256.892578 0.015625)" xlink:href="#DejaVuSans-30"/>
     <use transform="translate(3320.515625 0.015625)" xlink:href="#DejaVuSans-2e"/>
     <use transform="translate(3352.302734 0.015625)" xlink:href="#DejaVuSans-30"/>
     <use transform="translate(3415.925781 0.015625)" xlink:href="#DejaVuSans-30"/>
     <use transform="translate(3479.548828 0.015625)" xlink:href="#DejaVuSans-37"/>
     <use transform="translate(3543.171875 0.015625)" xlink:href="#DejaVuSans-31"/>
     <use transform="translate(3606.794922 0.015625)" xlink:href="#DejaVuSans-2c"/>
    </g>
   </g>
  </g>
  <g id="axes_2">
   <g id="patch_7">
    <path d="M 69.12 311.04 
L 414.72 311.04 
L 414.72 103.68 
L 69.12 103.68 
z
" style="fill:#ffffff;"/>
   </g>
   <g id="matplotlib.axis_3">
    <g id="xtick_7">
     <g id="line2d_11">
      <g>
       <use style="stroke:#000000;stroke-width:0.8;" x="71.385208" xlink:href="#m16aa0035b3" y="311.04"/>
      </g>
     </g>
     <g id="text_5">
      <!-- 4.0 -->
      <g transform="translate(59.457864 329.437656)scale(0.15 -0.15)">
       <use xlink:href="#DejaVuSans-34"/>
       <use x="63.623047" xlink:href="#DejaVuSans-2e"/>
       <use x="95.410156" xlink:href="#DejaVuSans-30"/>
      </g>
     </g>
    </g>
    <g id="xtick_8">
     <g id="line2d_12">
      <g>
       <use style="stroke:#000000;stroke-width:0.8;" x="133.934582" xlink:href="#m16aa0035b3" y="311.04"/>
      </g>
     </g>
     <g id="text_6">
      <!-- 4.1 -->
      <g transform="translate(122.007238 329.437656)scale(0.15 -0.15)">
       <use xlink:href="#DejaVuSans-34"/>
       <use x="63.623047" xlink:href="#DejaVuSans-2e"/>
       <use x="95.410156" xlink:href="#DejaVuSans-31"/>
      </g>
     </g>
    </g>
    <g id="xtick_9">
     <g id="line2d_13">
      <g>
       <use style="stroke:#000000;stroke-width:0.8;" x="196.483956" xlink:href="#m16aa0035b3" y="311.04"/>
      </g>
     </g>
     <g id="text_7">
      <!-- 4.2 -->
      <g transform="translate(184.556613 329.437656)scale(0.15 -0.15)">
       <use xlink:href="#DejaVuSans-34"/>
       <use x="63.623047" xlink:href="#DejaVuSans-2e"/>
       <use x="95.410156" xlink:href="#DejaVuSans-32"/>
      </g>
     </g>
    </g>
    <g id="xtick_10">
     <g id="line2d_14">
      <g>
       <use style="stroke:#000000;stroke-width:0.8;" x="259.033331" xlink:href="#m16aa0035b3" y="311.04"/>
      </g>
     </g>
     <g id="text_8">
      <!-- 4.3 -->
      <defs>
       <path d="M 40.578125 39.3125 
Q 47.65625 37.796875 51.625 33 
Q 55.609375 28.21875 55.609375 21.1875 
Q 55.609375 10.40625 48.1875 4.484375 
Q 40.765625 -1.421875 27.09375 -1.421875 
Q 22.515625 -1.421875 17.65625 -0.515625 
Q 12.796875 0.390625 7.625 2.203125 
L 7.625 11.71875 
Q 11.71875 9.328125 16.59375 8.109375 
Q 21.484375 6.890625 26.8125 6.890625 
Q 36.078125 6.890625 40.9375 10.546875 
Q 45.796875 14.203125 45.796875 21.1875 
Q 45.796875 27.640625 41.28125 31.265625 
Q 36.765625 34.90625 28.71875 34.90625 
L 20.21875 34.90625 
L 20.21875 43.015625 
L 29.109375 43.015625 
Q 36.375 43.015625 40.234375 45.921875 
Q 44.09375 48.828125 44.09375 54.296875 
Q 44.09375 59.90625 40.109375 62.90625 
Q 36.140625 65.921875 28.71875 65.921875 
Q 24.65625 65.921875 20.015625 65.03125 
Q 15.375 64.15625 9.8125 62.3125 
L 9.8125 71.09375 
Q 15.4375 72.65625 20.34375 73.4375 
Q 25.25 74.21875 29.59375 74.21875 
Q 40.828125 74.21875 47.359375 69.109375 
Q 53.90625 64.015625 53.90625 55.328125 
Q 53.90625 49.265625 50.4375 45.09375 
Q 46.96875 40.921875 40.578125 39.3125 
z
" id="DejaVuSans-33"/>
      </defs>
      <g transform="translate(247.105987 329.437656)scale(0.15 -0.15)">
       <use xlink:href="#DejaVuSans-34"/>
       <use x="63.623047" xlink:href="#DejaVuSans-2e"/>
       <use x="95.410156" xlink:href="#DejaVuSans-33"/>
      </g>
     </g>
    </g>
    <g id="xtick_11">
     <g id="line2d_15">
      <g>
       <use style="stroke:#000000;stroke-width:0.8;" x="321.582705" xlink:href="#m16aa0035b3" y="311.04"/>
      </g>
     </g>
     <g id="text_9">
      <!-- 4.4 -->
      <g transform="translate(309.655361 329.437656)scale(0.15 -0.15)">
       <use xlink:href="#DejaVuSans-34"/>
       <use x="63.623047" xlink:href="#DejaVuSans-2e"/>
       <use x="95.410156" xlink:href="#DejaVuSans-34"/>
      </g>
     </g>
    </g>
    <g id="xtick_12">
     <g id="line2d_16">
      <g>
       <use style="stroke:#000000;stroke-width:0.8;" x="384.132079" xlink:href="#m16aa0035b3" y="311.04"/>
      </g>
     </g>
     <g id="text_10">
      <!-- 4.5 -->
      <g transform="translate(372.204736 329.437656)scale(0.15 -0.15)">
       <use xlink:href="#DejaVuSans-34"/>
       <use x="63.623047" xlink:href="#DejaVuSans-2e"/>
       <use x="95.410156" xlink:href="#DejaVuSans-35"/>
      </g>
     </g>
    </g>
    <g id="text_11">
     <!-- Energy [MeV] -->
     <defs>
      <path d="M 9.8125 72.90625 
L 55.90625 72.90625 
L 55.90625 64.59375 
L 19.671875 64.59375 
L 19.671875 43.015625 
L 54.390625 43.015625 
L 54.390625 34.71875 
L 19.671875 34.71875 
L 19.671875 8.296875 
L 56.78125 8.296875 
L 56.78125 0 
L 9.8125 0 
z
" id="DejaVuSans-45"/>
      <path d="M 41.109375 46.296875 
Q 39.59375 47.171875 37.8125 47.578125 
Q 36.03125 48 33.890625 48 
Q 26.265625 48 22.1875 43.046875 
Q 18.109375 38.09375 18.109375 28.8125 
L 18.109375 0 
L 9.078125 0 
L 9.078125 54.6875 
L 18.109375 54.6875 
L 18.109375 46.1875 
Q 20.953125 51.171875 25.484375 53.578125 
Q 30.03125 56 36.53125 56 
Q 37.453125 56 38.578125 55.875 
Q 39.703125 55.765625 41.0625 55.515625 
z
" id="DejaVuSans-72"/>
      <path d="M 45.40625 27.984375 
Q 45.40625 37.75 41.375 43.109375 
Q 37.359375 48.484375 30.078125 48.484375 
Q 22.859375 48.484375 18.828125 43.109375 
Q 14.796875 37.75 14.796875 27.984375 
Q 14.796875 18.265625 18.828125 12.890625 
Q 22.859375 7.515625 30.078125 7.515625 
Q 37.359375 7.515625 41.375 12.890625 
Q 45.40625 18.265625 45.40625 27.984375 
z
M 54.390625 6.78125 
Q 54.390625 -7.171875 48.1875 -13.984375 
Q 42 -20.796875 29.203125 -20.796875 
Q 24.46875 -20.796875 20.265625 -20.09375 
Q 16.0625 -19.390625 12.109375 -17.921875 
L 12.109375 -9.1875 
Q 16.0625 -11.328125 19.921875 -12.34375 
Q 23.78125 -13.375 27.78125 -13.375 
Q 36.625 -13.375 41.015625 -8.765625 
Q 45.40625 -4.15625 45.40625 5.171875 
L 45.40625 9.625 
Q 42.625 4.78125 38.28125 2.390625 
Q 33.9375 0 27.875 0 
Q 17.828125 0 11.671875 7.65625 
Q 5.515625 15.328125 5.515625 27.984375 
Q 5.515625 40.671875 11.671875 48.328125 
Q 17.828125 56 27.875 56 
Q 33.9375 56 38.28125 53.609375 
Q 42.625 51.21875 45.40625 46.390625 
L 45.40625 54.6875 
L 54.390625 54.6875 
z
" id="DejaVuSans-67"/>
      <path d="M 8.59375 75.984375 
L 29.296875 75.984375 
L 29.296875 69 
L 17.578125 69 
L 17.578125 -6.203125 
L 29.296875 -6.203125 
L 29.296875 -13.1875 
L 8.59375 -13.1875 
z
" id="DejaVuSans-5b"/>
      <path d="M 9.8125 72.90625 
L 24.515625 72.90625 
L 43.109375 23.296875 
L 61.8125 72.90625 
L 76.515625 72.90625 
L 76.515625 0 
L 66.890625 0 
L 66.890625 64.015625 
L 48.09375 14.015625 
L 38.1875 14.015625 
L 19.390625 64.015625 
L 19.390625 0 
L 9.8125 0 
z
" id="DejaVuSans-4d"/>
      <path d="M 28.609375 0 
L 0.78125 72.90625 
L 11.078125 72.90625 
L 34.1875 11.53125 
L 57.328125 72.90625 
L 67.578125 72.90625 
L 39.796875 0 
z
" id="DejaVuSans-56"/>
      <path d="M 30.421875 75.984375 
L 30.421875 -13.1875 
L 9.71875 -13.1875 
L 9.71875 -6.203125 
L 21.390625 -6.203125 
L 21.390625 69 
L 9.71875 69 
L 9.71875 75.984375 
z
" id="DejaVuSans-5d"/>
     </defs>
     <g transform="translate(191.078203 347.954844)scale(0.15 -0.15)">
      <use xlink:href="#DejaVuSans-45"/>
      <use x="63.183594" xlink:href="#DejaVuSans-6e"/>
      <use x="126.5625" xlink:href="#DejaVuSans-65"/>
      <use x="188.085938" xlink:href="#DejaVuSans-72"/>
      <use x="229.183594" xlink:href="#DejaVuSans-67"/>
      <use x="292.660156" xlink:href="#DejaVuSans-79"/>
      <use x="351.839844" xlink:href="#DejaVuSans-20"/>
      <use x="383.626953" xlink:href="#DejaVuSans-5b"/>
      <use x="422.640625" xlink:href="#DejaVuSans-4d"/>
      <use x="508.919922" xlink:href="#DejaVuSans-65"/>
      <use x="570.443359" xlink:href="#DejaVuSans-56"/>
      <use x="638.851562" xlink:href="#DejaVuSans-5d"/>
     </g>
    </g>
   </g>
   <g id="matplotlib.axis_4">
    <g id="ytick_3">
     <g id="line2d_17">
      <g>
       <use style="stroke:#000000;stroke-width:0.8;" x="69.12" xlink:href="#m46db3ed1cf" y="290.349733"/>
      </g>
     </g>
     <g id="text_12">
      <!-- 100 -->
      <g transform="translate(33.48875 296.048561)scale(0.15 -0.15)">
       <use xlink:href="#DejaVuSans-31"/>
       <use x="63.623047" xlink:href="#DejaVuSans-30"/>
       <use x="127.246094" xlink:href="#DejaVuSans-30"/>
      </g>
     </g>
    </g>
    <g id="ytick_4">
     <g id="line2d_18">
      <g>
       <use style="stroke:#000000;stroke-width:0.8;" x="69.12" xlink:href="#m46db3ed1cf" y="250.924682"/>
      </g>
     </g>
     <g id="text_13">
      <!-- 150 -->
      <g transform="translate(33.48875 256.62351)scale(0.15 -0.15)">
       <use xlink:href="#DejaVuSans-31"/>
       <use x="63.623047" xlink:href="#DejaVuSans-35"/>
       <use x="127.246094" xlink:href="#DejaVuSans-30"/>
      </g>
     </g>
    </g>
    <g id="ytick_5">
     <g id="line2d_19">
      <g>
       <use style="stroke:#000000;stroke-width:0.8;" x="69.12" xlink:href="#m46db3ed1cf" y="211.49963"/>
      </g>
     </g>
     <g id="text_14">
      <!-- 200 -->
      <g transform="translate(33.48875 217.198459)scale(0.15 -0.15)">
       <use xlink:href="#DejaVuSans-32"/>
       <use x="63.623047" xlink:href="#DejaVuSans-30"/>
       <use x="127.246094" xlink:href="#DejaVuSans-30"/>
      </g>
     </g>
    </g>
    <g id="ytick_6">
     <g id="line2d_20">
      <g>
       <use style="stroke:#000000;stroke-width:0.8;" x="69.12" xlink:href="#m46db3ed1cf" y="172.074579"/>
      </g>
     </g>
     <g id="text_15">
      <!-- 250 -->
      <g transform="translate(33.48875 177.773407)scale(0.15 -0.15)">
       <use xlink:href="#DejaVuSans-32"/>
       <use x="63.623047" xlink:href="#DejaVuSans-35"/>
       <use x="127.246094" xlink:href="#DejaVuSans-30"/>
      </g>
     </g>
    </g>
    <g id="ytick_7">
     <g id="line2d_21">
      <g>
       <use style="stroke:#000000;stroke-width:0.8;" x="69.12" xlink:href="#m46db3ed1cf" y="132.649528"/>
      </g>
     </g>
     <g id="text_16">
      <!-- 300 -->
      <g transform="translate(33.48875 138.348356)scale(0.15 -0.15)">
       <use xlink:href="#DejaVuSans-33"/>
       <use x="63.623047" xlink:href="#DejaVuSans-30"/>
       <use x="127.246094" xlink:href="#DejaVuSans-30"/>
      </g>
     </g>
    </g>
    <g id="text_17">
     <!-- Counts -->
     <defs>
      <path d="M 64.40625 67.28125 
L 64.40625 56.890625 
Q 59.421875 61.53125 53.78125 63.8125 
Q 48.140625 66.109375 41.796875 66.109375 
Q 29.296875 66.109375 22.65625 58.46875 
Q 16.015625 50.828125 16.015625 36.375 
Q 16.015625 21.96875 22.65625 14.328125 
Q 29.296875 6.6875 41.796875 6.6875 
Q 48.140625 6.6875 53.78125 8.984375 
Q 59.421875 11.28125 64.40625 15.921875 
L 64.40625 5.609375 
Q 59.234375 2.09375 53.4375 0.328125 
Q 47.65625 -1.421875 41.21875 -1.421875 
Q 24.65625 -1.421875 15.125 8.703125 
Q 5.609375 18.84375 5.609375 36.375 
Q 5.609375 53.953125 15.125 64.078125 
Q 24.65625 74.21875 41.21875 74.21875 
Q 47.75 74.21875 53.53125 72.484375 
Q 59.328125 70.75 64.40625 67.28125 
z
" id="DejaVuSans-43"/>
     </defs>
     <g transform="translate(26.369219 233.539687)rotate(-90)scale(0.15 -0.15)">
      <use xlink:href="#DejaVuSans-43"/>
      <use x="69.824219" xlink:href="#DejaVuSans-6f"/>
      <use x="131.005859" xlink:href="#DejaVuSans-75"/>
      <use x="194.384766" xlink:href="#DejaVuSans-6e"/>
      <use x="257.763672" xlink:href="#DejaVuSans-74"/>
      <use x="296.972656" xlink:href="#DejaVuSans-73"/>
     </g>
    </g>
   </g>
   <g id="LineCollection_2">
    <path clip-path="url(#p43b9bbc9ea)" d="M 81.92 309.073968 
L 81.92 294.492028 
" style="fill:none;stroke:#0000ff;stroke-width:1.5;"/>
    <path clip-path="url(#p43b9bbc9ea)" d="M 85.64093 308.32798 
L 85.64093 293.661013 
" style="fill:none;stroke:#0000ff;stroke-width:1.5;"/>
    <path clip-path="url(#p43b9bbc9ea)" d="M 93.082791 308.701005 
L 93.082791 294.07649 
" style="fill:none;stroke:#0000ff;stroke-width:1.5;"/>
    <path clip-path="url(#p43b9bbc9ea)" d="M 96.803721 304.968063 
L 96.803721 289.924422 
" style="fill:none;stroke:#0000ff;stroke-width:1.5;"/>
    <path clip-path="url(#p43b9bbc9ea)" d="M 100.524651 299.358134 
L 100.524651 283.706835 
" style="fill:none;stroke:#0000ff;stroke-width:1.5;"/>
    <path clip-path="url(#p43b9bbc9ea)" d="M 104.245581 290.359115 
L 104.245581 273.78183 
" style="fill:none;stroke:#0000ff;stroke-width:1.5;"/>
    <path clip-path="url(#p43b9bbc9ea)" d="M 107.966512 300.85528 
L 107.966512 285.363693 
" style="fill:none;stroke:#0000ff;stroke-width:1.5;"/>
    <path clip-path="url(#p43b9bbc9ea)" d="M 111.687442 280.959109 
L 111.687442 263.46931 
" style="fill:none;stroke:#0000ff;stroke-width:1.5;"/>
    <path clip-path="url(#p43b9bbc9ea)" d="M 115.408372 273.799778 
L 115.408372 255.647121 
" style="fill:none;stroke:#0000ff;stroke-width:1.5;"/>
    <path clip-path="url(#p43b9bbc9ea)" d="M 119.129302 285.098113 
L 119.129302 268.003818 
" style="fill:none;stroke:#0000ff;stroke-width:1.5;"/>
    <path clip-path="url(#p43b9bbc9ea)" d="M 122.850233 294.486959 
L 122.850233 278.327497 
" style="fill:none;stroke:#0000ff;stroke-width:1.5;"/>
    <path clip-path="url(#p43b9bbc9ea)" d="M 126.571163 267.761757 
L 126.571163 249.069126 
" style="fill:none;stroke:#0000ff;stroke-width:1.5;"/>
    <path clip-path="url(#p43b9bbc9ea)" d="M 130.292093 266.251041 
L 130.292093 247.425837 
" style="fill:none;stroke:#0000ff;stroke-width:1.5;"/>
    <path clip-path="url(#p43b9bbc9ea)" d="M 134.013023 275.308019 
L 134.013023 257.292884 
" style="fill:none;stroke:#0000ff;stroke-width:1.5;"/>
    <path clip-path="url(#p43b9bbc9ea)" d="M 137.733953 267.384122 
L 137.733953 248.65826 
" style="fill:none;stroke:#0000ff;stroke-width:1.5;"/>
    <path clip-path="url(#p43b9bbc9ea)" d="M 141.454884 263.60618 
L 141.454884 244.551192 
" style="fill:none;stroke:#0000ff;stroke-width:1.5;"/>
    <path clip-path="url(#p43b9bbc9ea)" d="M 145.175814 249.604538 
L 145.175814 229.378296 
" style="fill:none;stroke:#0000ff;stroke-width:1.5;"/>
    <path clip-path="url(#p43b9bbc9ea)" d="M 148.896744 260.203639 
L 148.896744 240.857224 
" style="fill:none;stroke:#0000ff;stroke-width:1.5;"/>
    <path clip-path="url(#p43b9bbc9ea)" d="M 152.617674 246.572751 
L 152.617674 226.102074 
" style="fill:none;stroke:#0000ff;stroke-width:1.5;"/>
    <path clip-path="url(#p43b9bbc9ea)" d="M 156.338605 253.392162 
L 156.338605 233.475682 
" style="fill:none;stroke:#0000ff;stroke-width:1.5;"/>
    <path clip-path="url(#p43b9bbc9ea)" d="M 160.059535 238.607577 
L 160.059535 217.508727 
" style="fill:none;stroke:#0000ff;stroke-width:1.5;"/>
    <path clip-path="url(#p43b9bbc9ea)" d="M 163.780465 247.330835 
L 163.780465 226.920992 
" style="fill:none;stroke:#0000ff;stroke-width:1.5;"/>
    <path clip-path="url(#p43b9bbc9ea)" d="M 167.501395 235.950461 
L 167.501395 214.646336 
" style="fill:none;stroke:#0000ff;stroke-width:1.5;"/>
    <path clip-path="url(#p43b9bbc9ea)" d="M 171.222326 229.493441 
L 171.222326 207.698839 
" style="fill:none;stroke:#0000ff;stroke-width:1.5;"/>
    <path clip-path="url(#p43b9bbc9ea)" d="M 174.943256 210.852995 
L 174.943256 187.702734 
" style="fill:none;stroke:#0000ff;stroke-width:1.5;"/>
    <path clip-path="url(#p43b9bbc9ea)" d="M 178.664186 221.890061 
L 178.664186 199.532198 
" style="fill:none;stroke:#0000ff;stroke-width:1.5;"/>
    <path clip-path="url(#p43b9bbc9ea)" d="M 182.385116 215.802348 
L 182.385116 193.003894 
" style="fill:none;stroke:#0000ff;stroke-width:1.5;"/>
    <path clip-path="url(#p43b9bbc9ea)" d="M 186.106047 201.327706 
L 186.106047 177.515497 
" style="fill:none;stroke:#0000ff;stroke-width:1.5;"/>
    <path clip-path="url(#p43b9bbc9ea)" d="M 189.826977 188.359077 
L 189.826977 163.675091 
" style="fill:none;stroke:#0000ff;stroke-width:1.5;"/>
    <path clip-path="url(#p43b9bbc9ea)" d="M 193.547907 193.319513 
L 193.547907 168.965168 
" style="fill:none;stroke:#0000ff;stroke-width:1.5;"/>
    <path clip-path="url(#p43b9bbc9ea)" d="M 197.268837 201.327706 
L 197.268837 177.515497 
" style="fill:none;stroke:#0000ff;stroke-width:1.5;"/>
    <path clip-path="url(#p43b9bbc9ea)" d="M 200.989767 181.105326 
L 200.989767 155.947323 
" style="fill:none;stroke:#0000ff;stroke-width:1.5;"/>
    <path clip-path="url(#p43b9bbc9ea)" d="M 204.710698 183.396469 
L 204.710698 158.387186 
" style="fill:none;stroke:#0000ff;stroke-width:1.5;"/>
    <path clip-path="url(#p43b9bbc9ea)" d="M 208.431628 179.577653 
L 208.431628 154.320992 
" style="fill:none;stroke:#0000ff;stroke-width:1.5;"/>
    <path clip-path="url(#p43b9bbc9ea)" d="M 212.152558 171.172082 
L 212.152558 145.37954 
" style="fill:none;stroke:#0000ff;stroke-width:1.5;"/>
    <path clip-path="url(#p43b9bbc9ea)" d="M 215.873488 188.359077 
L 215.873488 163.675091 
" style="fill:none;stroke:#0000ff;stroke-width:1.5;"/>
    <path clip-path="url(#p43b9bbc9ea)" d="M 219.594419 186.832349 
L 219.594419 162.047816 
" style="fill:none;stroke:#0000ff;stroke-width:1.5;"/>
    <path clip-path="url(#p43b9bbc9ea)" d="M 223.315349 164.673115 
L 223.315349 138.473989 
" style="fill:none;stroke:#0000ff;stroke-width:1.5;"/>
    <path clip-path="url(#p43b9bbc9ea)" d="M 227.036279 152.431447 
L 227.036279 125.483624 
" style="fill:none;stroke:#0000ff;stroke-width:1.5;"/>
    <path clip-path="url(#p43b9bbc9ea)" d="M 230.757209 176.139692 
L 230.757209 150.662444 
" style="fill:none;stroke:#0000ff;stroke-width:1.5;"/>
    <path clip-path="url(#p43b9bbc9ea)" d="M 234.47814 162.378613 
L 234.47814 136.037486 
" style="fill:none;stroke:#0000ff;stroke-width:1.5;"/>
    <path clip-path="url(#p43b9bbc9ea)" d="M 238.19907 139.796634 
L 238.19907 112.097904 
" style="fill:none;stroke:#0000ff;stroke-width:1.5;"/>
    <path clip-path="url(#p43b9bbc9ea)" d="M 241.92 142.86056 
L 241.92 115.341987 
" style="fill:none;stroke:#0000ff;stroke-width:1.5;"/>
    <path clip-path="url(#p43b9bbc9ea)" d="M 245.64093 135.965909 
L 245.64093 108.043619 
" style="fill:none;stroke:#0000ff;stroke-width:1.5;"/>
    <path clip-path="url(#p43b9bbc9ea)" d="M 249.36186 137.498306 
L 249.36186 109.665225 
" style="fill:none;stroke:#0000ff;stroke-width:1.5;"/>
    <path clip-path="url(#p43b9bbc9ea)" d="M 253.082791 151.665998 
L 253.082791 124.672071 
" style="fill:none;stroke:#0000ff;stroke-width:1.5;"/>
    <path clip-path="url(#p43b9bbc9ea)" d="M 256.803721 139.030561 
L 256.803721 111.286975 
" style="fill:none;stroke:#0000ff;stroke-width:1.5;"/>
    <path clip-path="url(#p43b9bbc9ea)" d="M 260.524651 150.134983 
L 260.524651 123.049083 
" style="fill:none;stroke:#0000ff;stroke-width:1.5;"/>
    <path clip-path="url(#p43b9bbc9ea)" d="M 264.245581 125.618575 
L 264.245581 97.101425 
" style="fill:none;stroke:#0000ff;stroke-width:1.5;"/>
    <path clip-path="url(#p43b9bbc9ea)" d="M 267.966512 147.072486 
L 267.966512 119.803571 
" style="fill:none;stroke:#0000ff;stroke-width:1.5;"/>
    <path clip-path="url(#p43b9bbc9ea)" d="M 271.687442 141.711656 
L 271.687442 114.125387 
" style="fill:none;stroke:#0000ff;stroke-width:1.5;"/>
    <path clip-path="url(#p43b9bbc9ea)" d="M 275.408372 155.875476 
L 275.408372 129.136105 
" style="fill:none;stroke:#0000ff;stroke-width:1.5;"/>
    <path clip-path="url(#p43b9bbc9ea)" d="M 279.129302 126.385258 
L 279.129302 97.911744 
" style="fill:none;stroke:#0000ff;stroke-width:1.5;"/>
    <path clip-path="url(#p43b9bbc9ea)" d="M 282.850233 159.318686 
L 282.850233 132.789405 
" style="fill:none;stroke:#0000ff;stroke-width:1.5;"/>
    <path clip-path="url(#p43b9bbc9ea)" d="M 286.571163 157.405894 
L 286.571163 130.759692 
" style="fill:none;stroke:#0000ff;stroke-width:1.5;"/>
    <path clip-path="url(#p43b9bbc9ea)" d="M 290.292093 161.231219 
L 290.292093 134.819377 
" style="fill:none;stroke:#0000ff;stroke-width:1.5;"/>
    <path clip-path="url(#p43b9bbc9ea)" d="M 294.013023 156.258096 
L 294.013023 129.541987 
" style="fill:none;stroke:#0000ff;stroke-width:1.5;"/>
    <path clip-path="url(#p43b9bbc9ea)" d="M 297.733953 158.936148 
L 297.733953 132.383442 
" style="fill:none;stroke:#0000ff;stroke-width:1.5;"/>
    <path clip-path="url(#p43b9bbc9ea)" d="M 301.454884 153.579547 
L 301.454884 126.701028 
" style="fill:none;stroke:#0000ff;stroke-width:1.5;"/>
    <path clip-path="url(#p43b9bbc9ea)" d="M 305.175814 157.788473 
L 305.175814 131.165614 
" style="fill:none;stroke:#0000ff;stroke-width:1.5;"/>
    <path clip-path="url(#p43b9bbc9ea)" d="M 308.896744 179.577653 
L 308.896744 154.320992 
" style="fill:none;stroke:#0000ff;stroke-width:1.5;"/>
    <path clip-path="url(#p43b9bbc9ea)" d="M 312.617674 184.541875 
L 312.617674 159.607283 
" style="fill:none;stroke:#0000ff;stroke-width:1.5;"/>
    <path clip-path="url(#p43b9bbc9ea)" d="M 316.338605 186.832349 
L 316.338605 162.047816 
" style="fill:none;stroke:#0000ff;stroke-width:1.5;"/>
    <path clip-path="url(#p43b9bbc9ea)" d="M 320.059535 199.040277 
L 320.059535 175.071921 
" style="fill:none;stroke:#0000ff;stroke-width:1.5;"/>
    <path clip-path="url(#p43b9bbc9ea)" d="M 323.780465 199.42155 
L 323.780465 175.479148 
" style="fill:none;stroke:#0000ff;stroke-width:1.5;"/>
    <path clip-path="url(#p43b9bbc9ea)" d="M 327.501395 202.852373 
L 327.501395 179.144834 
" style="fill:none;stroke:#0000ff;stroke-width:1.5;"/>
    <path clip-path="url(#p43b9bbc9ea)" d="M 331.222326 201.708894 
L 331.222326 177.92281 
" style="fill:none;stroke:#0000ff;stroke-width:1.5;"/>
    <path clip-path="url(#p43b9bbc9ea)" d="M 334.943256 212.376159 
L 334.943256 189.333574 
" style="fill:none;stroke:#0000ff;stroke-width:1.5;"/>
    <path clip-path="url(#p43b9bbc9ea)" d="M 338.664186 212.376159 
L 338.664186 189.333574 
" style="fill:none;stroke:#0000ff;stroke-width:1.5;"/>
    <path clip-path="url(#p43b9bbc9ea)" d="M 342.385116 214.279758 
L 342.385116 191.37248 
" style="fill:none;stroke:#0000ff;stroke-width:1.5;"/>
    <path clip-path="url(#p43b9bbc9ea)" d="M 346.106047 232.152888 
L 346.106047 210.558898 
" style="fill:none;stroke:#0000ff;stroke-width:1.5;"/>
    <path clip-path="url(#p43b9bbc9ea)" d="M 349.826977 238.22805 
L 349.826977 217.099753 
" style="fill:none;stroke:#0000ff;stroke-width:1.5;"/>
    <path clip-path="url(#p43b9bbc9ea)" d="M 353.547907 240.504901 
L 353.547907 219.553908 
" style="fill:none;stroke:#0000ff;stroke-width:1.5;"/>
    <path clip-path="url(#p43b9bbc9ea)" d="M 357.268837 246.951805 
L 357.268837 226.511522 
" style="fill:none;stroke:#0000ff;stroke-width:1.5;"/>
    <path clip-path="url(#p43b9bbc9ea)" d="M 360.989767 259.447222 
L 360.989767 240.036639 
" style="fill:none;stroke:#0000ff;stroke-width:1.5;"/>
    <path clip-path="url(#p43b9bbc9ea)" d="M 364.710698 245.814577 
L 364.710698 225.283246 
" style="fill:none;stroke:#0000ff;stroke-width:1.5;"/>
    <path clip-path="url(#p43b9bbc9ea)" d="M 368.431628 248.846729 
L 368.431628 228.559102 
" style="fill:none;stroke:#0000ff;stroke-width:1.5;"/>
    <path clip-path="url(#p43b9bbc9ea)" d="M 372.152558 265.87329 
L 372.152558 247.015088 
" style="fill:none;stroke:#0000ff;stroke-width:1.5;"/>
    <path clip-path="url(#p43b9bbc9ea)" d="M 375.873488 275.308019 
L 375.873488 257.292884 
" style="fill:none;stroke:#0000ff;stroke-width:1.5;"/>
    <path clip-path="url(#p43b9bbc9ea)" d="M 379.594419 273.799778 
L 379.594419 255.647121 
" style="fill:none;stroke:#0000ff;stroke-width:1.5;"/>
    <path clip-path="url(#p43b9bbc9ea)" d="M 383.315349 290.359115 
L 383.315349 273.78183 
" style="fill:none;stroke:#0000ff;stroke-width:1.5;"/>
    <path clip-path="url(#p43b9bbc9ea)" d="M 387.036279 284.722028 
L 387.036279 267.591401 
" style="fill:none;stroke:#0000ff;stroke-width:1.5;"/>
    <path clip-path="url(#p43b9bbc9ea)" d="M 390.757209 285.098113 
L 390.757209 268.003818 
" style="fill:none;stroke:#0000ff;stroke-width:1.5;"/>
    <path clip-path="url(#p43b9bbc9ea)" d="M 394.47814 299.732497 
L 394.47814 284.120973 
" style="fill:none;stroke:#0000ff;stroke-width:1.5;"/>
    <path clip-path="url(#p43b9bbc9ea)" d="M 401.92 310.565191 
L 401.92 296.154809 
" style="fill:none;stroke:#0000ff;stroke-width:1.5;"/>
   </g>
   <g id="line2d_22">
    <path clip-path="url(#p43b9bbc9ea)" d="M 81.92 304.464309 
L 86.724805 302.170962 
L 91.52961 299.625268 
L 96.334414 296.812333 
L 100.818899 293.933673 
L 105.303383 290.800247 
L 109.787868 287.403508 
L 114.272352 283.736633 
L 118.756837 279.794813 
L 123.561642 275.263542 
L 128.366446 270.414043 
L 133.171251 265.250335 
L 138.296376 259.405314 
L 143.421502 253.227571 
L 148.866947 246.323326 
L 154.953033 238.232748 
L 161.67976 228.900507 
L 169.687768 217.389638 
L 197.555636 176.935015 
L 203.321401 169.155876 
L 208.446527 162.603875 
L 212.931011 157.210015 
L 217.095175 152.527704 
L 220.939019 148.516213 
L 224.782863 144.830301 
L 228.306386 141.758797 
L 231.50959 139.236903 
L 234.712793 136.985041 
L 237.915996 135.014106 
L 240.798879 133.48843 
L 243.681762 132.204175 
L 246.564645 131.166475 
L 249.447528 130.379492 
L 252.33041 129.846397 
L 254.892973 129.587436 
L 257.455536 129.531619 
L 260.018098 129.679123 
L 262.580661 130.029477 
L 265.143223 130.581563 
L 268.026106 131.441578 
L 270.908989 132.551205 
L 273.791872 133.905997 
L 276.674755 135.500546 
L 279.877958 137.545736 
L 283.081161 139.869131 
L 286.284364 142.459515 
L 289.807888 145.602492 
L 293.331411 149.035531 
L 297.175255 153.088672 
L 301.339419 157.811945 
L 305.823904 163.244834 
L 310.628709 169.412239 
L 316.074154 176.761828 
L 322.800881 186.24286 
L 331.76985 199.308853 
L 350.028108 225.992647 
L 357.395475 236.312231 
L 363.801882 244.906627 
L 369.567648 252.276778 
L 375.013093 258.880916 
L 380.138218 264.755576 
L 385.263343 270.283175 
L 390.068148 275.140947 
L 394.872953 279.680547 
L 399.677758 283.901649 
L 401.92 285.763252 
L 401.92 285.763252 
" style="fill:none;stroke:#ff0000;stroke-linecap:square;stroke-width:1.5;"/>
   </g>
   <g id="line2d_23">
    <g clip-path="url(#p43b9bbc9ea)">
     <use style="fill:#0000ff;stroke:#0000ff;" x="81.92" xlink:href="#m5676849945" y="301.782998"/>
     <use style="fill:#0000ff;stroke:#0000ff;" x="85.64093" xlink:href="#m5676849945" y="300.994497"/>
     <use style="fill:#0000ff;stroke:#0000ff;" x="93.082791" xlink:href="#m5676849945" y="301.388747"/>
     <use style="fill:#0000ff;stroke:#0000ff;" x="96.803721" xlink:href="#m5676849945" y="297.446242"/>
     <use style="fill:#0000ff;stroke:#0000ff;" x="100.524651" xlink:href="#m5676849945" y="291.532485"/>
     <use style="fill:#0000ff;stroke:#0000ff;" x="104.245581" xlink:href="#m5676849945" y="282.070472"/>
     <use style="fill:#0000ff;stroke:#0000ff;" x="107.966512" xlink:href="#m5676849945" y="293.109487"/>
     <use style="fill:#0000ff;stroke:#0000ff;" x="111.687442" xlink:href="#m5676849945" y="272.214209"/>
     <use style="fill:#0000ff;stroke:#0000ff;" x="115.408372" xlink:href="#m5676849945" y="264.72345"/>
     <use style="fill:#0000ff;stroke:#0000ff;" x="119.129302" xlink:href="#m5676849945" y="276.550965"/>
     <use style="fill:#0000ff;stroke:#0000ff;" x="122.850233" xlink:href="#m5676849945" y="286.407228"/>
     <use style="fill:#0000ff;stroke:#0000ff;" x="126.571163" xlink:href="#m5676849945" y="258.415441"/>
     <use style="fill:#0000ff;stroke:#0000ff;" x="130.292093" xlink:href="#m5676849945" y="256.838439"/>
     <use style="fill:#0000ff;stroke:#0000ff;" x="134.013023" xlink:href="#m5676849945" y="266.300452"/>
     <use style="fill:#0000ff;stroke:#0000ff;" x="137.733953" xlink:href="#m5676849945" y="258.021191"/>
     <use style="fill:#0000ff;stroke:#0000ff;" x="141.454884" xlink:href="#m5676849945" y="254.078686"/>
     <use style="fill:#0000ff;stroke:#0000ff;" x="145.175814" xlink:href="#m5676849945" y="239.491417"/>
     <use style="fill:#0000ff;stroke:#0000ff;" x="148.896744" xlink:href="#m5676849945" y="250.530431"/>
     <use style="fill:#0000ff;stroke:#0000ff;" x="152.617674" xlink:href="#m5676849945" y="236.337413"/>
     <use style="fill:#0000ff;stroke:#0000ff;" x="156.338605" xlink:href="#m5676849945" y="243.433922"/>
     <use style="fill:#0000ff;stroke:#0000ff;" x="160.059535" xlink:href="#m5676849945" y="228.058152"/>
     <use style="fill:#0000ff;stroke:#0000ff;" x="163.780465" xlink:href="#m5676849945" y="237.125914"/>
     <use style="fill:#0000ff;stroke:#0000ff;" x="167.501395" xlink:href="#m5676849945" y="225.298398"/>
     <use style="fill:#0000ff;stroke:#0000ff;" x="171.222326" xlink:href="#m5676849945" y="218.59614"/>
     <use style="fill:#0000ff;stroke:#0000ff;" x="174.943256" xlink:href="#m5676849945" y="199.277864"/>
     <use style="fill:#0000ff;stroke:#0000ff;" x="178.664186" xlink:href="#m5676849945" y="210.711129"/>
     <use style="fill:#0000ff;stroke:#0000ff;" x="182.385116" xlink:href="#m5676849945" y="204.403121"/>
     <use style="fill:#0000ff;stroke:#0000ff;" x="186.106047" xlink:href="#m5676849945" y="189.421602"/>
     <use style="fill:#0000ff;stroke:#0000ff;" x="189.826977" xlink:href="#m5676849945" y="176.017084"/>
     <use style="fill:#0000ff;stroke:#0000ff;" x="193.547907" xlink:href="#m5676849945" y="181.142341"/>
     <use style="fill:#0000ff;stroke:#0000ff;" x="197.268837" xlink:href="#m5676849945" y="189.421602"/>
     <use style="fill:#0000ff;stroke:#0000ff;" x="200.989767" xlink:href="#m5676849945" y="168.526324"/>
     <use style="fill:#0000ff;stroke:#0000ff;" x="204.710698" xlink:href="#m5676849945" y="170.891828"/>
     <use style="fill:#0000ff;stroke:#0000ff;" x="208.431628" xlink:href="#m5676849945" y="166.949322"/>
     <use style="fill:#0000ff;stroke:#0000ff;" x="212.152558" xlink:href="#m5676849945" y="158.275811"/>
     <use style="fill:#0000ff;stroke:#0000ff;" x="215.873488" xlink:href="#m5676849945" y="176.017084"/>
     <use style="fill:#0000ff;stroke:#0000ff;" x="219.594419" xlink:href="#m5676849945" y="174.440082"/>
     <use style="fill:#0000ff;stroke:#0000ff;" x="223.315349" xlink:href="#m5676849945" y="151.573552"/>
     <use style="fill:#0000ff;stroke:#0000ff;" x="227.036279" xlink:href="#m5676849945" y="138.957536"/>
     <use style="fill:#0000ff;stroke:#0000ff;" x="230.757209" xlink:href="#m5676849945" y="163.401068"/>
     <use style="fill:#0000ff;stroke:#0000ff;" x="234.47814" xlink:href="#m5676849945" y="149.208049"/>
     <use style="fill:#0000ff;stroke:#0000ff;" x="238.19907" xlink:href="#m5676849945" y="125.947269"/>
     <use style="fill:#0000ff;stroke:#0000ff;" x="241.92" xlink:href="#m5676849945" y="129.101273"/>
     <use style="fill:#0000ff;stroke:#0000ff;" x="245.64093" xlink:href="#m5676849945" y="122.004764"/>
     <use style="fill:#0000ff;stroke:#0000ff;" x="249.36186" xlink:href="#m5676849945" y="123.581766"/>
     <use style="fill:#0000ff;stroke:#0000ff;" x="253.082791" xlink:href="#m5676849945" y="138.169035"/>
     <use style="fill:#0000ff;stroke:#0000ff;" x="256.803721" xlink:href="#m5676849945" y="125.158768"/>
     <use style="fill:#0000ff;stroke:#0000ff;" x="260.524651" xlink:href="#m5676849945" y="136.592033"/>
     <use style="fill:#0000ff;stroke:#0000ff;" x="264.245581" xlink:href="#m5676849945" y="111.36"/>
     <use style="fill:#0000ff;stroke:#0000ff;" x="267.966512" xlink:href="#m5676849945" y="133.438029"/>
     <use style="fill:#0000ff;stroke:#0000ff;" x="271.687442" xlink:href="#m5676849945" y="127.918522"/>
     <use style="fill:#0000ff;stroke:#0000ff;" x="275.408372" xlink:href="#m5676849945" y="142.505791"/>
     <use style="fill:#0000ff;stroke:#0000ff;" x="279.129302" xlink:href="#m5676849945" y="112.148501"/>
     <use style="fill:#0000ff;stroke:#0000ff;" x="282.850233" xlink:href="#m5676849945" y="146.054045"/>
     <use style="fill:#0000ff;stroke:#0000ff;" x="286.571163" xlink:href="#m5676849945" y="144.082793"/>
     <use style="fill:#0000ff;stroke:#0000ff;" x="290.292093" xlink:href="#m5676849945" y="148.025298"/>
     <use style="fill:#0000ff;stroke:#0000ff;" x="294.013023" xlink:href="#m5676849945" y="142.900041"/>
     <use style="fill:#0000ff;stroke:#0000ff;" x="297.733953" xlink:href="#m5676849945" y="145.659795"/>
     <use style="fill:#0000ff;stroke:#0000ff;" x="301.454884" xlink:href="#m5676849945" y="140.140287"/>
     <use style="fill:#0000ff;stroke:#0000ff;" x="305.175814" xlink:href="#m5676849945" y="144.477043"/>
     <use style="fill:#0000ff;stroke:#0000ff;" x="308.896744" xlink:href="#m5676849945" y="166.949322"/>
     <use style="fill:#0000ff;stroke:#0000ff;" x="312.617674" xlink:href="#m5676849945" y="172.074579"/>
     <use style="fill:#0000ff;stroke:#0000ff;" x="316.338605" xlink:href="#m5676849945" y="174.440082"/>
     <use style="fill:#0000ff;stroke:#0000ff;" x="320.059535" xlink:href="#m5676849945" y="187.056099"/>
     <use style="fill:#0000ff;stroke:#0000ff;" x="323.780465" xlink:href="#m5676849945" y="187.450349"/>
     <use style="fill:#0000ff;stroke:#0000ff;" x="327.501395" xlink:href="#m5676849945" y="190.998604"/>
     <use style="fill:#0000ff;stroke:#0000ff;" x="331.222326" xlink:href="#m5676849945" y="189.815852"/>
     <use style="fill:#0000ff;stroke:#0000ff;" x="334.943256" xlink:href="#m5676849945" y="200.854867"/>
     <use style="fill:#0000ff;stroke:#0000ff;" x="338.664186" xlink:href="#m5676849945" y="200.854867"/>
     <use style="fill:#0000ff;stroke:#0000ff;" x="342.385116" xlink:href="#m5676849945" y="202.826119"/>
     <use style="fill:#0000ff;stroke:#0000ff;" x="346.106047" xlink:href="#m5676849945" y="221.355893"/>
     <use style="fill:#0000ff;stroke:#0000ff;" x="349.826977" xlink:href="#m5676849945" y="227.663901"/>
     <use style="fill:#0000ff;stroke:#0000ff;" x="353.547907" xlink:href="#m5676849945" y="230.029405"/>
     <use style="fill:#0000ff;stroke:#0000ff;" x="357.268837" xlink:href="#m5676849945" y="236.731663"/>
     <use style="fill:#0000ff;stroke:#0000ff;" x="360.989767" xlink:href="#m5676849945" y="249.74193"/>
     <use style="fill:#0000ff;stroke:#0000ff;" x="364.710698" xlink:href="#m5676849945" y="235.548912"/>
     <use style="fill:#0000ff;stroke:#0000ff;" x="368.431628" xlink:href="#m5676849945" y="238.702916"/>
     <use style="fill:#0000ff;stroke:#0000ff;" x="372.152558" xlink:href="#m5676849945" y="256.444189"/>
     <use style="fill:#0000ff;stroke:#0000ff;" x="375.873488" xlink:href="#m5676849945" y="266.300452"/>
     <use style="fill:#0000ff;stroke:#0000ff;" x="379.594419" xlink:href="#m5676849945" y="264.72345"/>
     <use style="fill:#0000ff;stroke:#0000ff;" x="383.315349" xlink:href="#m5676849945" y="282.070472"/>
     <use style="fill:#0000ff;stroke:#0000ff;" x="387.036279" xlink:href="#m5676849945" y="276.156715"/>
     <use style="fill:#0000ff;stroke:#0000ff;" x="390.757209" xlink:href="#m5676849945" y="276.550965"/>
     <use style="fill:#0000ff;stroke:#0000ff;" x="394.47814" xlink:href="#m5676849945" y="291.926735"/>
     <use style="fill:#0000ff;stroke:#0000ff;" x="401.92" xlink:href="#m5676849945" y="303.36"/>
    </g>
   </g>
   <g id="patch_8">
    <path d="M 69.12 311.04 
L 69.12 103.68 
" style="fill:none;stroke:#000000;stroke-linecap:square;stroke-linejoin:miter;stroke-width:0.8;"/>
   </g>
   <g id="patch_9">
    <path d="M 414.72 311.04 
L 414.72 103.68 
" style="fill:none;stroke:#000000;stroke-linecap:square;stroke-linejoin:miter;stroke-width:0.8;"/>
   </g>
   <g id="patch_10">
    <path d="M 69.12 311.04 
L 414.72 311.04 
" style="fill:none;stroke:#000000;stroke-linecap:square;stroke-linejoin:miter;stroke-width:0.8;"/>
   </g>
   <g id="patch_11">
    <path d="M 69.12 103.68 
L 414.72 103.68 
" style="fill:none;stroke:#000000;stroke-linecap:square;stroke-linejoin:miter;stroke-width:0.8;"/>
   </g>
  </g>
 </g>
 <defs>
  <clipPath id="p7ee7fa1f7e">
   <rect height="51.84" width="345.6" x="69.12" y="44.928"/>
  </clipPath>
  <clipPath id="p43b9bbc9ea">
   <rect height="207.36" width="345.6" x="69.12" y="103.68"/>
  </clipPath>
 </defs>
</svg>
