<?xml version="1.0" encoding="utf-8" standalone="no"?>
<!DOCTYPE svg PUBLIC "-//W3C//DTD SVG 1.1//EN"
  "http://www.w3.org/Graphics/SVG/1.1/DTD/svg11.dtd">
<!-- Created with matplotlib (http://matplotlib.org/) -->
<svg height="345pt" version="1.1" viewBox="0 0 460 345" width="460pt" xmlns="http://www.w3.org/2000/svg" xmlns:xlink="http://www.w3.org/1999/xlink">
 <defs>
  <style type="text/css">
*{stroke-linecap:butt;stroke-linejoin:round;}
  </style>
 </defs>
 <g id="figure_1">
  <g id="patch_1">
   <path d="M 0 345.6 
L 460.8 345.6 
L 460.8 0 
L 0 0 
z
" style="fill:#ffffff;"/>
  </g>
  <g id="axes_1">
   <g id="patch_2">
    <path d="M 69.12 96.768 
L 414.72 96.768 
L 414.72 44.928 
L 69.12 44.928 
z
" style="fill:#ffffff;"/>
   </g>
   <g id="matplotlib.axis_1">
    <g id="xtick_1">
     <g id="line2d_1">
      <defs>
       <path d="M 0 0 
L 0 3.5 
" id="m9450973c7c" style="stroke:#000000;stroke-width:0.8;"/>
      </defs>
      <g>
       <use style="stroke:#000000;stroke-width:0.8;" x="151.351102" xlink:href="#m9450973c7c" y="96.768"/>
      </g>
     </g>
    </g>
    <g id="xtick_2">
     <g id="line2d_2">
      <g>
       <use style="stroke:#000000;stroke-width:0.8;" x="244.096726" xlink:href="#m9450973c7c" y="96.768"/>
      </g>
     </g>
    </g>
    <g id="xtick_3">
     <g id="line2d_3">
      <g>
       <use style="stroke:#000000;stroke-width:0.8;" x="336.84235" xlink:href="#m9450973c7c" y="96.768"/>
      </g>
     </g>
    </g>
   </g>
   <g id="matplotlib.axis_2">
    <g id="ytick_1">
     <g id="line2d_4">
      <defs>
       <path d="M 0 0 
L -3.5 0 
" id="m0c2f53fcf2" style="stroke:#000000;stroke-width:0.8;"/>
      </defs>
      <g>
       <use style="stroke:#000000;stroke-width:0.8;" x="69.12" xlink:href="#m0c2f53fcf2" y="87.53612"/>
      </g>
     </g>
     <g id="text_1">
      <!-- −1 -->
      <defs>
       <path d="M 10.59375 35.5 
L 73.1875 35.5 
L 73.1875 27.203125 
L 10.59375 27.203125 
z
" id="DejaVuSans-2212"/>
       <path d="M 12.40625 8.296875 
L 28.515625 8.296875 
L 28.515625 63.921875 
L 10.984375 60.40625 
L 10.984375 69.390625 
L 28.421875 72.90625 
L 38.28125 72.90625 
L 38.28125 8.296875 
L 54.390625 8.296875 
L 54.390625 0 
L 12.40625 0 
z
" id="DejaVuSans-31"/>
      </defs>
      <g transform="translate(40.006719 93.234948)scale(0.15 -0.15)">
       <use xlink:href="#DejaVuSans-2212"/>
       <use x="83.789062" xlink:href="#DejaVuSans-31"/>
      </g>
     </g>
    </g>
    <g id="ytick_2">
     <g id="line2d_5">
      <g>
       <use style="stroke:#000000;stroke-width:0.8;" x="69.12" xlink:href="#m0c2f53fcf2" y="69.111313"/>
      </g>
     </g>
    </g>
    <g id="ytick_3">
     <g id="line2d_6">
      <g>
       <use style="stroke:#000000;stroke-width:0.8;" x="69.12" xlink:href="#m0c2f53fcf2" y="50.686506"/>
      </g>
     </g>
     <g id="text_2">
      <!-- 1 -->
      <g transform="translate(52.57625 56.385334)scale(0.15 -0.15)">
       <use xlink:href="#DejaVuSans-31"/>
      </g>
     </g>
    </g>
    <g id="text_3">
     <!-- Studentized -->
     <defs>
      <path d="M 53.515625 70.515625 
L 53.515625 60.890625 
Q 47.90625 63.578125 42.921875 64.890625 
Q 37.9375 66.21875 33.296875 66.21875 
Q 25.25 66.21875 20.875 63.09375 
Q 16.5 59.96875 16.5 54.203125 
Q 16.5 49.359375 19.40625 46.890625 
Q 22.3125 44.4375 30.421875 42.921875 
L 36.375 41.703125 
Q 47.40625 39.59375 52.65625 34.296875 
Q 57.90625 29 57.90625 20.125 
Q 57.90625 9.515625 50.796875 4.046875 
Q 43.703125 -1.421875 29.984375 -1.421875 
Q 24.8125 -1.421875 18.96875 -0.25 
Q 13.140625 0.921875 6.890625 3.21875 
L 6.890625 13.375 
Q 12.890625 10.015625 18.65625 8.296875 
Q 24.421875 6.59375 29.984375 6.59375 
Q 38.421875 6.59375 43.015625 9.90625 
Q 47.609375 13.234375 47.609375 19.390625 
Q 47.609375 24.75 44.3125 27.78125 
Q 41.015625 30.8125 33.5 32.328125 
L 27.484375 33.5 
Q 16.453125 35.6875 11.515625 40.375 
Q 6.59375 45.0625 6.59375 53.421875 
Q 6.59375 63.09375 13.40625 68.65625 
Q 20.21875 74.21875 32.171875 74.21875 
Q 37.3125 74.21875 42.625 73.28125 
Q 47.953125 72.359375 53.515625 70.515625 
z
" id="DejaVuSans-53"/>
      <path d="M 18.3125 70.21875 
L 18.3125 54.6875 
L 36.8125 54.6875 
L 36.8125 47.703125 
L 18.3125 47.703125 
L 18.3125 18.015625 
Q 18.3125 11.328125 20.140625 9.421875 
Q 21.96875 7.515625 27.59375 7.515625 
L 36.8125 7.515625 
L 36.8125 0 
L 27.59375 0 
Q 17.1875 0 13.234375 3.875 
Q 9.28125 7.765625 9.28125 18.015625 
L 9.28125 47.703125 
L 2.6875 47.703125 
L 2.6875 54.6875 
L 9.28125 54.6875 
L 9.28125 70.21875 
z
" id="DejaVuSans-74"/>
      <path d="M 8.5 21.578125 
L 8.5 54.6875 
L 17.484375 54.6875 
L 17.484375 21.921875 
Q 17.484375 14.15625 20.5 10.265625 
Q 23.53125 6.390625 29.59375 6.390625 
Q 36.859375 6.390625 41.078125 11.03125 
Q 45.3125 15.671875 45.3125 23.6875 
L 45.3125 54.6875 
L 54.296875 54.6875 
L 54.296875 0 
L 45.3125 0 
L 45.3125 8.40625 
Q 42.046875 3.421875 37.71875 1 
Q 33.40625 -1.421875 27.6875 -1.421875 
Q 18.265625 -1.421875 13.375 4.4375 
Q 8.5 10.296875 8.5 21.578125 
z
M 31.109375 56 
z
" id="DejaVuSans-75"/>
      <path d="M 45.40625 46.390625 
L 45.40625 75.984375 
L 54.390625 75.984375 
L 54.390625 0 
L 45.40625 0 
L 45.40625 8.203125 
Q 42.578125 3.328125 38.25 0.953125 
Q 33.9375 -1.421875 27.875 -1.421875 
Q 17.96875 -1.421875 11.734375 6.484375 
Q 5.515625 14.40625 5.515625 27.296875 
Q 5.515625 40.1875 11.734375 48.09375 
Q 17.96875 56 27.875 56 
Q 33.9375 56 38.25 53.625 
Q 42.578125 51.265625 45.40625 46.390625 
z
M 14.796875 27.296875 
Q 14.796875 17.390625 18.875 11.75 
Q 22.953125 6.109375 30.078125 6.109375 
Q 37.203125 6.109375 41.296875 11.75 
Q 45.40625 17.390625 45.40625 27.296875 
Q 45.40625 37.203125 41.296875 42.84375 
Q 37.203125 48.484375 30.078125 48.484375 
Q 22.953125 48.484375 18.875 42.84375 
Q 14.796875 37.203125 14.796875 27.296875 
z
" id="DejaVuSans-64"/>
      <path d="M 56.203125 29.59375 
L 56.203125 25.203125 
L 14.890625 25.203125 
Q 15.484375 15.921875 20.484375 11.0625 
Q 25.484375 6.203125 34.421875 6.203125 
Q 39.59375 6.203125 44.453125 7.46875 
Q 49.3125 8.734375 54.109375 11.28125 
L 54.109375 2.78125 
Q 49.265625 0.734375 44.1875 -0.34375 
Q 39.109375 -1.421875 33.890625 -1.421875 
Q 20.796875 -1.421875 13.15625 6.1875 
Q 5.515625 13.8125 5.515625 26.8125 
Q 5.515625 40.234375 12.765625 48.109375 
Q 20.015625 56 32.328125 56 
Q 43.359375 56 49.78125 48.890625 
Q 56.203125 41.796875 56.203125 29.59375 
z
M 47.21875 32.234375 
Q 47.125 39.59375 43.09375 43.984375 
Q 39.0625 48.390625 32.421875 48.390625 
Q 24.90625 48.390625 20.390625 44.140625 
Q 15.875 39.890625 15.1875 32.171875 
z
" id="DejaVuSans-65"/>
      <path d="M 54.890625 33.015625 
L 54.890625 0 
L 45.90625 0 
L 45.90625 32.71875 
Q 45.90625 40.484375 42.875 44.328125 
Q 39.84375 48.1875 33.796875 48.1875 
Q 26.515625 48.1875 22.3125 43.546875 
Q 18.109375 38.921875 18.109375 30.90625 
L 18.109375 0 
L 9.078125 0 
L 9.078125 54.6875 
L 18.109375 54.6875 
L 18.109375 46.1875 
Q 21.34375 51.125 25.703125 53.5625 
Q 30.078125 56 35.796875 56 
Q 45.21875 56 50.046875 50.171875 
Q 54.890625 44.34375 54.890625 33.015625 
z
" id="DejaVuSans-6e"/>
      <path d="M 9.421875 54.6875 
L 18.40625 54.6875 
L 18.40625 0 
L 9.421875 0 
z
M 9.421875 75.984375 
L 18.40625 75.984375 
L 18.40625 64.59375 
L 9.421875 64.59375 
z
" id="DejaVuSans-69"/>
      <path d="M 5.515625 54.6875 
L 48.1875 54.6875 
L 48.1875 46.484375 
L 14.40625 7.171875 
L 48.1875 7.171875 
L 48.1875 0 
L 4.296875 0 
L 4.296875 8.203125 
L 38.09375 47.515625 
L 5.515625 47.515625 
z
" id="DejaVuSans-7a"/>
     </defs>
     <g transform="translate(16.090469 115.768313)rotate(-90)scale(0.15 -0.15)">
      <use xlink:href="#DejaVuSans-53"/>
      <use x="63.476562" xlink:href="#DejaVuSans-74"/>
      <use x="102.685547" xlink:href="#DejaVuSans-75"/>
      <use x="166.064453" xlink:href="#DejaVuSans-64"/>
      <use x="229.541016" xlink:href="#DejaVuSans-65"/>
      <use x="291.064453" xlink:href="#DejaVuSans-6e"/>
      <use x="354.443359" xlink:href="#DejaVuSans-74"/>
      <use x="393.652344" xlink:href="#DejaVuSans-69"/>
      <use x="421.435547" xlink:href="#DejaVuSans-7a"/>
      <use x="473.925781" xlink:href="#DejaVuSans-65"/>
      <use x="535.449219" xlink:href="#DejaVuSans-64"/>
     </g>
     <!-- Residuals -->
     <defs>
      <path d="M 44.390625 34.1875 
Q 47.5625 33.109375 50.5625 29.59375 
Q 53.5625 26.078125 56.59375 19.921875 
L 66.609375 0 
L 56 0 
L 46.6875 18.703125 
Q 43.0625 26.03125 39.671875 28.421875 
Q 36.28125 30.8125 30.421875 30.8125 
L 19.671875 30.8125 
L 19.671875 0 
L 9.8125 0 
L 9.8125 72.90625 
L 32.078125 72.90625 
Q 44.578125 72.90625 50.734375 67.671875 
Q 56.890625 62.453125 56.890625 51.90625 
Q 56.890625 45.015625 53.6875 40.46875 
Q 50.484375 35.9375 44.390625 34.1875 
z
M 19.671875 64.796875 
L 19.671875 38.921875 
L 32.078125 38.921875 
Q 39.203125 38.921875 42.84375 42.21875 
Q 46.484375 45.515625 46.484375 51.90625 
Q 46.484375 58.296875 42.84375 61.546875 
Q 39.203125 64.796875 32.078125 64.796875 
z
" id="DejaVuSans-52"/>
      <path d="M 44.28125 53.078125 
L 44.28125 44.578125 
Q 40.484375 46.53125 36.375 47.5 
Q 32.28125 48.484375 27.875 48.484375 
Q 21.1875 48.484375 17.84375 46.4375 
Q 14.5 44.390625 14.5 40.28125 
Q 14.5 37.15625 16.890625 35.375 
Q 19.28125 33.59375 26.515625 31.984375 
L 29.59375 31.296875 
Q 39.15625 29.25 43.1875 25.515625 
Q 47.21875 21.78125 47.21875 15.09375 
Q 47.21875 7.46875 41.1875 3.015625 
Q 35.15625 -1.421875 24.609375 -1.421875 
Q 20.21875 -1.421875 15.453125 -0.5625 
Q 10.6875 0.296875 5.421875 2 
L 5.421875 11.28125 
Q 10.40625 8.6875 15.234375 7.390625 
Q 20.0625 6.109375 24.8125 6.109375 
Q 31.15625 6.109375 34.5625 8.28125 
Q 37.984375 10.453125 37.984375 14.40625 
Q 37.984375 18.0625 35.515625 20.015625 
Q 33.0625 21.96875 24.703125 23.78125 
L 21.578125 24.515625 
Q 13.234375 26.265625 9.515625 29.90625 
Q 5.8125 33.546875 5.8125 39.890625 
Q 5.8125 47.609375 11.28125 51.796875 
Q 16.75 56 26.8125 56 
Q 31.78125 56 36.171875 55.265625 
Q 40.578125 54.546875 44.28125 53.078125 
z
" id="DejaVuSans-73"/>
      <path d="M 34.28125 27.484375 
Q 23.390625 27.484375 19.1875 25 
Q 14.984375 22.515625 14.984375 16.5 
Q 14.984375 11.71875 18.140625 8.90625 
Q 21.296875 6.109375 26.703125 6.109375 
Q 34.1875 6.109375 38.703125 11.40625 
Q 43.21875 16.703125 43.21875 25.484375 
L 43.21875 27.484375 
z
M 52.203125 31.203125 
L 52.203125 0 
L 43.21875 0 
L 43.21875 8.296875 
Q 40.140625 3.328125 35.546875 0.953125 
Q 30.953125 -1.421875 24.3125 -1.421875 
Q 15.921875 -1.421875 10.953125 3.296875 
Q 6 8.015625 6 15.921875 
Q 6 25.140625 12.171875 29.828125 
Q 18.359375 34.515625 30.609375 34.515625 
L 43.21875 34.515625 
L 43.21875 35.40625 
Q 43.21875 41.609375 39.140625 45 
Q 35.0625 48.390625 27.6875 48.390625 
Q 23 48.390625 18.546875 47.265625 
Q 14.109375 46.140625 10.015625 43.890625 
L 10.015625 52.203125 
Q 14.9375 54.109375 19.578125 55.046875 
Q 24.21875 56 28.609375 56 
Q 40.484375 56 46.34375 49.84375 
Q 52.203125 43.703125 52.203125 31.203125 
z
" id="DejaVuSans-61"/>
      <path d="M 9.421875 75.984375 
L 18.40625 75.984375 
L 18.40625 0 
L 9.421875 0 
z
" id="DejaVuSans-6c"/>
     </defs>
     <g transform="translate(32.887188 106.761281)rotate(-90)scale(0.15 -0.15)">
      <use xlink:href="#DejaVuSans-52"/>
      <use x="69.419922" xlink:href="#DejaVuSans-65"/>
      <use x="130.943359" xlink:href="#DejaVuSans-73"/>
      <use x="183.042969" xlink:href="#DejaVuSans-69"/>
      <use x="210.826172" xlink:href="#DejaVuSans-64"/>
      <use x="274.302734" xlink:href="#DejaVuSans-75"/>
      <use x="337.681641" xlink:href="#DejaVuSans-61"/>
      <use x="398.960938" xlink:href="#DejaVuSans-6c"/>
      <use x="426.744141" xlink:href="#DejaVuSans-73"/>
     </g>
    </g>
   </g>
   <g id="LineCollection_1">
    <path clip-path="url(#p01cdf70c75)" d="M 81.92 84.345431 
L 81.92 47.495816 
" style="fill:none;stroke:#0000ff;stroke-width:1.5;"/>
    <path clip-path="url(#p01cdf70c75)" d="M 117.782069 86.494361 
L 117.782069 49.644746 
" style="fill:none;stroke:#0000ff;stroke-width:1.5;"/>
    <path clip-path="url(#p01cdf70c75)" d="M 153.644138 91.160068 
L 153.644138 54.310453 
" style="fill:none;stroke:#0000ff;stroke-width:1.5;"/>
    <path clip-path="url(#p01cdf70c75)" d="M 172.954483 94.915598 
L 172.954483 58.065984 
" style="fill:none;stroke:#0000ff;stroke-width:1.5;"/>
    <path clip-path="url(#p01cdf70c75)" d="M 175.713103 95.515378 
L 175.713103 58.665763 
" style="fill:none;stroke:#0000ff;stroke-width:1.5;"/>
    <path clip-path="url(#p01cdf70c75)" d="M 178.471724 79.258717 
L 178.471724 42.409102 
" style="fill:none;stroke:#0000ff;stroke-width:1.5;"/>
    <path clip-path="url(#p01cdf70c75)" d="M 181.230345 75.629498 
L 181.230345 38.779884 
" style="fill:none;stroke:#0000ff;stroke-width:1.5;"/>
    <path clip-path="url(#p01cdf70c75)" d="M 183.988966 80.213064 
L 183.988966 43.36345 
" style="fill:none;stroke:#0000ff;stroke-width:1.5;"/>
    <path clip-path="url(#p01cdf70c75)" d="M 186.747586 91.102787 
L 186.747586 54.253172 
" style="fill:none;stroke:#0000ff;stroke-width:1.5;"/>
    <path clip-path="url(#p01cdf70c75)" d="M 189.506207 77.000693 
L 189.506207 40.151078 
" style="fill:none;stroke:#0000ff;stroke-width:1.5;"/>
    <path clip-path="url(#p01cdf70c75)" d="M 197.782069 87.64391 
L 197.782069 50.794295 
" style="fill:none;stroke:#0000ff;stroke-width:1.5;"/>
    <path clip-path="url(#p01cdf70c75)" d="M 200.54069 71.566519 
L 200.54069 34.716905 
" style="fill:none;stroke:#0000ff;stroke-width:1.5;"/>
    <path clip-path="url(#p01cdf70c75)" d="M 203.29931 102.045762 
L 203.29931 65.196148 
" style="fill:none;stroke:#0000ff;stroke-width:1.5;"/>
    <path clip-path="url(#p01cdf70c75)" d="M 208.816552 84.747272 
L 208.816552 47.897657 
" style="fill:none;stroke:#0000ff;stroke-width:1.5;"/>
    <path clip-path="url(#p01cdf70c75)" d="M 211.575172 76.83419 
L 211.575172 39.984576 
" style="fill:none;stroke:#0000ff;stroke-width:1.5;"/>
    <path clip-path="url(#p01cdf70c75)" d="M 214.333793 90.92203 
L 214.333793 54.072416 
" style="fill:none;stroke:#0000ff;stroke-width:1.5;"/>
    <path clip-path="url(#p01cdf70c75)" d="M 217.092414 81.714095 
L 217.092414 44.864481 
" style="fill:none;stroke:#0000ff;stroke-width:1.5;"/>
    <path clip-path="url(#p01cdf70c75)" d="M 219.851034 98.220189 
L 219.851034 61.370574 
" style="fill:none;stroke:#0000ff;stroke-width:1.5;"/>
    <path clip-path="url(#p01cdf70c75)" d="M 222.609655 65.600242 
L 222.609655 28.750628 
" style="fill:none;stroke:#0000ff;stroke-width:1.5;"/>
    <path clip-path="url(#p01cdf70c75)" d="M 225.368276 78.948099 
L 225.368276 42.098485 
" style="fill:none;stroke:#0000ff;stroke-width:1.5;"/>
    <path clip-path="url(#p01cdf70c75)" d="M 228.126897 83.449792 
L 228.126897 46.600177 
" style="fill:none;stroke:#0000ff;stroke-width:1.5;"/>
    <path clip-path="url(#p01cdf70c75)" d="M 230.885517 100.355489 
L 230.885517 63.505874 
" style="fill:none;stroke:#0000ff;stroke-width:1.5;"/>
    <path clip-path="url(#p01cdf70c75)" d="M 236.402759 84.608653 
L 236.402759 47.759039 
" style="fill:none;stroke:#0000ff;stroke-width:1.5;"/>
    <path clip-path="url(#p01cdf70c75)" d="M 239.161379 89.706452 
L 239.161379 52.856838 
" style="fill:none;stroke:#0000ff;stroke-width:1.5;"/>
    <path clip-path="url(#p01cdf70c75)" d="M 244.678621 90.393364 
L 244.678621 53.54375 
" style="fill:none;stroke:#0000ff;stroke-width:1.5;"/>
    <path clip-path="url(#p01cdf70c75)" d="M 247.437241 90.701948 
L 247.437241 53.852334 
" style="fill:none;stroke:#0000ff;stroke-width:1.5;"/>
    <path clip-path="url(#p01cdf70c75)" d="M 250.195862 96.580822 
L 250.195862 59.731208 
" style="fill:none;stroke:#0000ff;stroke-width:1.5;"/>
    <path clip-path="url(#p01cdf70c75)" d="M 252.954483 103.575446 
L 252.954483 66.725831 
" style="fill:none;stroke:#0000ff;stroke-width:1.5;"/>
    <path clip-path="url(#p01cdf70c75)" d="M 258.471724 78.640677 
L 258.471724 41.791063 
" style="fill:none;stroke:#0000ff;stroke-width:1.5;"/>
    <path clip-path="url(#p01cdf70c75)" d="M 261.230345 86.96583 
L 261.230345 50.116215 
" style="fill:none;stroke:#0000ff;stroke-width:1.5;"/>
    <path clip-path="url(#p01cdf70c75)" d="M 263.988966 78.907084 
L 263.988966 42.05747 
" style="fill:none;stroke:#0000ff;stroke-width:1.5;"/>
    <path clip-path="url(#p01cdf70c75)" d="M 266.747586 87.20798 
L 266.747586 50.358366 
" style="fill:none;stroke:#0000ff;stroke-width:1.5;"/>
    <path clip-path="url(#p01cdf70c75)" d="M 269.506207 87.286427 
L 269.506207 50.436813 
" style="fill:none;stroke:#0000ff;stroke-width:1.5;"/>
    <path clip-path="url(#p01cdf70c75)" d="M 272.264828 92.246406 
L 272.264828 55.396791 
" style="fill:none;stroke:#0000ff;stroke-width:1.5;"/>
    <path clip-path="url(#p01cdf70c75)" d="M 275.023448 92.268287 
L 275.023448 55.418672 
" style="fill:none;stroke:#0000ff;stroke-width:1.5;"/>
    <path clip-path="url(#p01cdf70c75)" d="M 277.782069 75.590929 
L 277.782069 38.741314 
" style="fill:none;stroke:#0000ff;stroke-width:1.5;"/>
    <path clip-path="url(#p01cdf70c75)" d="M 280.54069 113.272807 
L 280.54069 76.423193 
" style="fill:none;stroke:#0000ff;stroke-width:1.5;"/>
    <path clip-path="url(#p01cdf70c75)" d="M 283.29931 75.501657 
L 283.29931 38.652042 
" style="fill:none;stroke:#0000ff;stroke-width:1.5;"/>
    <path clip-path="url(#p01cdf70c75)" d="M 286.057931 72.175042 
L 286.057931 35.325427 
" style="fill:none;stroke:#0000ff;stroke-width:1.5;"/>
    <path clip-path="url(#p01cdf70c75)" d="M 288.816552 112.868014 
L 288.816552 76.0184 
" style="fill:none;stroke:#0000ff;stroke-width:1.5;"/>
    <path clip-path="url(#p01cdf70c75)" d="M 291.575172 86.871998 
L 291.575172 50.022383 
" style="fill:none;stroke:#0000ff;stroke-width:1.5;"/>
    <path clip-path="url(#p01cdf70c75)" d="M 294.333793 66.007116 
L 294.333793 29.157502 
" style="fill:none;stroke:#0000ff;stroke-width:1.5;"/>
    <path clip-path="url(#p01cdf70c75)" d="M 297.092414 71.636382 
L 297.092414 34.786768 
" style="fill:none;stroke:#0000ff;stroke-width:1.5;"/>
    <path clip-path="url(#p01cdf70c75)" d="M 299.851034 91.09274 
L 299.851034 54.243125 
" style="fill:none;stroke:#0000ff;stroke-width:1.5;"/>
    <path clip-path="url(#p01cdf70c75)" d="M 302.609655 68.264971 
L 302.609655 31.415356 
" style="fill:none;stroke:#0000ff;stroke-width:1.5;"/>
    <path clip-path="url(#p01cdf70c75)" d="M 305.368276 65.272807 
L 305.368276 28.423193 
" style="fill:none;stroke:#0000ff;stroke-width:1.5;"/>
    <path clip-path="url(#p01cdf70c75)" d="M 308.126897 70.764298 
L 308.126897 33.914684 
" style="fill:none;stroke:#0000ff;stroke-width:1.5;"/>
    <path clip-path="url(#p01cdf70c75)" d="M 310.885517 85.096274 
L 310.885517 48.246659 
" style="fill:none;stroke:#0000ff;stroke-width:1.5;"/>
    <path clip-path="url(#p01cdf70c75)" d="M 313.644138 80.569049 
L 313.644138 43.719434 
" style="fill:none;stroke:#0000ff;stroke-width:1.5;"/>
    <path clip-path="url(#p01cdf70c75)" d="M 316.402759 76.482396 
L 316.402759 39.632782 
" style="fill:none;stroke:#0000ff;stroke-width:1.5;"/>
    <path clip-path="url(#p01cdf70c75)" d="M 319.161379 76.142442 
L 319.161379 39.292827 
" style="fill:none;stroke:#0000ff;stroke-width:1.5;"/>
    <path clip-path="url(#p01cdf70c75)" d="M 324.678621 107.464575 
L 324.678621 70.61496 
" style="fill:none;stroke:#0000ff;stroke-width:1.5;"/>
    <path clip-path="url(#p01cdf70c75)" d="M 327.437241 92.680281 
L 327.437241 55.830667 
" style="fill:none;stroke:#0000ff;stroke-width:1.5;"/>
    <path clip-path="url(#p01cdf70c75)" d="M 330.195862 92.176914 
L 330.195862 55.3273 
" style="fill:none;stroke:#0000ff;stroke-width:1.5;"/>
    <path clip-path="url(#p01cdf70c75)" d="M 332.954483 91.661688 
L 332.954483 54.812073 
" style="fill:none;stroke:#0000ff;stroke-width:1.5;"/>
    <path clip-path="url(#p01cdf70c75)" d="M 335.713103 85.945026 
L 335.713103 49.095412 
" style="fill:none;stroke:#0000ff;stroke-width:1.5;"/>
    <path clip-path="url(#p01cdf70c75)" d="M 338.471724 96.721656 
L 338.471724 59.872042 
" style="fill:none;stroke:#0000ff;stroke-width:1.5;"/>
    <path clip-path="url(#p01cdf70c75)" d="M 343.988966 76.124788 
L 343.988966 39.275173 
" style="fill:none;stroke:#0000ff;stroke-width:1.5;"/>
    <path clip-path="url(#p01cdf70c75)" d="M 346.747586 83.937132 
L 346.747586 47.087518 
" style="fill:none;stroke:#0000ff;stroke-width:1.5;"/>
    <path clip-path="url(#p01cdf70c75)" d="M 352.264828 78.609225 
L 352.264828 41.75961 
" style="fill:none;stroke:#0000ff;stroke-width:1.5;"/>
    <path clip-path="url(#p01cdf70c75)" d="M 355.023448 82.408126 
L 355.023448 45.558511 
" style="fill:none;stroke:#0000ff;stroke-width:1.5;"/>
    <path clip-path="url(#p01cdf70c75)" d="M 357.782069 92.522171 
L 357.782069 55.672556 
" style="fill:none;stroke:#0000ff;stroke-width:1.5;"/>
    <path clip-path="url(#p01cdf70c75)" d="M 360.54069 98.959772 
L 360.54069 62.110157 
" style="fill:none;stroke:#0000ff;stroke-width:1.5;"/>
    <path clip-path="url(#p01cdf70c75)" d="M 363.29931 85.688238 
L 363.29931 48.838624 
" style="fill:none;stroke:#0000ff;stroke-width:1.5;"/>
    <path clip-path="url(#p01cdf70c75)" d="M 366.057931 97.650757 
L 366.057931 60.801143 
" style="fill:none;stroke:#0000ff;stroke-width:1.5;"/>
    <path clip-path="url(#p01cdf70c75)" d="M 368.816552 79.924774 
L 368.816552 43.07516 
" style="fill:none;stroke:#0000ff;stroke-width:1.5;"/>
    <path clip-path="url(#p01cdf70c75)" d="M 374.333793 78.98088 
L 374.333793 42.131266 
" style="fill:none;stroke:#0000ff;stroke-width:1.5;"/>
    <path clip-path="url(#p01cdf70c75)" d="M 377.092414 88.524879 
L 377.092414 51.675265 
" style="fill:none;stroke:#0000ff;stroke-width:1.5;"/>
    <path clip-path="url(#p01cdf70c75)" d="M 379.851034 87.996008 
L 379.851034 51.146393 
" style="fill:none;stroke:#0000ff;stroke-width:1.5;"/>
    <path clip-path="url(#p01cdf70c75)" d="M 396.402759 91.353417 
L 396.402759 54.503802 
" style="fill:none;stroke:#0000ff;stroke-width:1.5;"/>
    <path clip-path="url(#p01cdf70c75)" d="M 401.92 90.423433 
L 401.92 53.573819 
" style="fill:none;stroke:#0000ff;stroke-width:1.5;"/>
   </g>
   <g id="line2d_7">
    <path clip-path="url(#p01cdf70c75)" d="M 81.92 69.111313 
L 401.92 69.111313 
" style="fill:none;stroke:#ff0000;stroke-linecap:square;stroke-width:1.5;"/>
   </g>
   <g id="line2d_8">
    <defs>
     <path d="M -3 0 
L 3 0 
M 0 3 
L 0 -3 
" id="madc90bfdb1" style="stroke:#0000ff;"/>
    </defs>
    <g clip-path="url(#p01cdf70c75)">
     <use style="fill:#0000ff;stroke:#0000ff;" x="81.92" xlink:href="#madc90bfdb1" y="65.920623"/>
     <use style="fill:#0000ff;stroke:#0000ff;" x="117.782069" xlink:href="#madc90bfdb1" y="68.069554"/>
     <use style="fill:#0000ff;stroke:#0000ff;" x="153.644138" xlink:href="#madc90bfdb1" y="72.735261"/>
     <use style="fill:#0000ff;stroke:#0000ff;" x="172.954483" xlink:href="#madc90bfdb1" y="76.490791"/>
     <use style="fill:#0000ff;stroke:#0000ff;" x="175.713103" xlink:href="#madc90bfdb1" y="77.09057"/>
     <use style="fill:#0000ff;stroke:#0000ff;" x="178.471724" xlink:href="#madc90bfdb1" y="60.83391"/>
     <use style="fill:#0000ff;stroke:#0000ff;" x="181.230345" xlink:href="#madc90bfdb1" y="57.204691"/>
     <use style="fill:#0000ff;stroke:#0000ff;" x="183.988966" xlink:href="#madc90bfdb1" y="61.788257"/>
     <use style="fill:#0000ff;stroke:#0000ff;" x="186.747586" xlink:href="#madc90bfdb1" y="72.67798"/>
     <use style="fill:#0000ff;stroke:#0000ff;" x="189.506207" xlink:href="#madc90bfdb1" y="58.575886"/>
     <use style="fill:#0000ff;stroke:#0000ff;" x="197.782069" xlink:href="#madc90bfdb1" y="69.219102"/>
     <use style="fill:#0000ff;stroke:#0000ff;" x="200.54069" xlink:href="#madc90bfdb1" y="53.141712"/>
     <use style="fill:#0000ff;stroke:#0000ff;" x="203.29931" xlink:href="#madc90bfdb1" y="83.620955"/>
     <use style="fill:#0000ff;stroke:#0000ff;" x="208.816552" xlink:href="#madc90bfdb1" y="66.322465"/>
     <use style="fill:#0000ff;stroke:#0000ff;" x="211.575172" xlink:href="#madc90bfdb1" y="58.409383"/>
     <use style="fill:#0000ff;stroke:#0000ff;" x="214.333793" xlink:href="#madc90bfdb1" y="72.497223"/>
     <use style="fill:#0000ff;stroke:#0000ff;" x="217.092414" xlink:href="#madc90bfdb1" y="63.289288"/>
     <use style="fill:#0000ff;stroke:#0000ff;" x="219.851034" xlink:href="#madc90bfdb1" y="79.795382"/>
     <use style="fill:#0000ff;stroke:#0000ff;" x="222.609655" xlink:href="#madc90bfdb1" y="47.175435"/>
     <use style="fill:#0000ff;stroke:#0000ff;" x="225.368276" xlink:href="#madc90bfdb1" y="60.523292"/>
     <use style="fill:#0000ff;stroke:#0000ff;" x="228.126897" xlink:href="#madc90bfdb1" y="65.024985"/>
     <use style="fill:#0000ff;stroke:#0000ff;" x="230.885517" xlink:href="#madc90bfdb1" y="81.930682"/>
     <use style="fill:#0000ff;stroke:#0000ff;" x="236.402759" xlink:href="#madc90bfdb1" y="66.183846"/>
     <use style="fill:#0000ff;stroke:#0000ff;" x="239.161379" xlink:href="#madc90bfdb1" y="71.281645"/>
     <use style="fill:#0000ff;stroke:#0000ff;" x="244.678621" xlink:href="#madc90bfdb1" y="71.968557"/>
     <use style="fill:#0000ff;stroke:#0000ff;" x="247.437241" xlink:href="#madc90bfdb1" y="72.277141"/>
     <use style="fill:#0000ff;stroke:#0000ff;" x="250.195862" xlink:href="#madc90bfdb1" y="78.156015"/>
     <use style="fill:#0000ff;stroke:#0000ff;" x="252.954483" xlink:href="#madc90bfdb1" y="85.150638"/>
     <use style="fill:#0000ff;stroke:#0000ff;" x="258.471724" xlink:href="#madc90bfdb1" y="60.21587"/>
     <use style="fill:#0000ff;stroke:#0000ff;" x="261.230345" xlink:href="#madc90bfdb1" y="68.541023"/>
     <use style="fill:#0000ff;stroke:#0000ff;" x="263.988966" xlink:href="#madc90bfdb1" y="60.482277"/>
     <use style="fill:#0000ff;stroke:#0000ff;" x="266.747586" xlink:href="#madc90bfdb1" y="68.783173"/>
     <use style="fill:#0000ff;stroke:#0000ff;" x="269.506207" xlink:href="#madc90bfdb1" y="68.86162"/>
     <use style="fill:#0000ff;stroke:#0000ff;" x="272.264828" xlink:href="#madc90bfdb1" y="73.821598"/>
     <use style="fill:#0000ff;stroke:#0000ff;" x="275.023448" xlink:href="#madc90bfdb1" y="73.84348"/>
     <use style="fill:#0000ff;stroke:#0000ff;" x="277.782069" xlink:href="#madc90bfdb1" y="57.166121"/>
     <use style="fill:#0000ff;stroke:#0000ff;" x="280.54069" xlink:href="#madc90bfdb1" y="94.848"/>
     <use style="fill:#0000ff;stroke:#0000ff;" x="283.29931" xlink:href="#madc90bfdb1" y="57.07685"/>
     <use style="fill:#0000ff;stroke:#0000ff;" x="286.057931" xlink:href="#madc90bfdb1" y="53.750234"/>
     <use style="fill:#0000ff;stroke:#0000ff;" x="288.816552" xlink:href="#madc90bfdb1" y="94.443207"/>
     <use style="fill:#0000ff;stroke:#0000ff;" x="291.575172" xlink:href="#madc90bfdb1" y="68.447191"/>
     <use style="fill:#0000ff;stroke:#0000ff;" x="294.333793" xlink:href="#madc90bfdb1" y="47.582309"/>
     <use style="fill:#0000ff;stroke:#0000ff;" x="297.092414" xlink:href="#madc90bfdb1" y="53.211575"/>
     <use style="fill:#0000ff;stroke:#0000ff;" x="299.851034" xlink:href="#madc90bfdb1" y="72.667932"/>
     <use style="fill:#0000ff;stroke:#0000ff;" x="302.609655" xlink:href="#madc90bfdb1" y="49.840163"/>
     <use style="fill:#0000ff;stroke:#0000ff;" x="305.368276" xlink:href="#madc90bfdb1" y="46.848"/>
     <use style="fill:#0000ff;stroke:#0000ff;" x="308.126897" xlink:href="#madc90bfdb1" y="52.339491"/>
     <use style="fill:#0000ff;stroke:#0000ff;" x="310.885517" xlink:href="#madc90bfdb1" y="66.671467"/>
     <use style="fill:#0000ff;stroke:#0000ff;" x="313.644138" xlink:href="#madc90bfdb1" y="62.144241"/>
     <use style="fill:#0000ff;stroke:#0000ff;" x="316.402759" xlink:href="#madc90bfdb1" y="58.057589"/>
     <use style="fill:#0000ff;stroke:#0000ff;" x="319.161379" xlink:href="#madc90bfdb1" y="57.717635"/>
     <use style="fill:#0000ff;stroke:#0000ff;" x="324.678621" xlink:href="#madc90bfdb1" y="89.039768"/>
     <use style="fill:#0000ff;stroke:#0000ff;" x="327.437241" xlink:href="#madc90bfdb1" y="74.255474"/>
     <use style="fill:#0000ff;stroke:#0000ff;" x="330.195862" xlink:href="#madc90bfdb1" y="73.752107"/>
     <use style="fill:#0000ff;stroke:#0000ff;" x="332.954483" xlink:href="#madc90bfdb1" y="73.236881"/>
     <use style="fill:#0000ff;stroke:#0000ff;" x="335.713103" xlink:href="#madc90bfdb1" y="67.520219"/>
     <use style="fill:#0000ff;stroke:#0000ff;" x="338.471724" xlink:href="#madc90bfdb1" y="78.296849"/>
     <use style="fill:#0000ff;stroke:#0000ff;" x="343.988966" xlink:href="#madc90bfdb1" y="57.699981"/>
     <use style="fill:#0000ff;stroke:#0000ff;" x="346.747586" xlink:href="#madc90bfdb1" y="65.512325"/>
     <use style="fill:#0000ff;stroke:#0000ff;" x="352.264828" xlink:href="#madc90bfdb1" y="60.184418"/>
     <use style="fill:#0000ff;stroke:#0000ff;" x="355.023448" xlink:href="#madc90bfdb1" y="63.983319"/>
     <use style="fill:#0000ff;stroke:#0000ff;" x="357.782069" xlink:href="#madc90bfdb1" y="74.097363"/>
     <use style="fill:#0000ff;stroke:#0000ff;" x="360.54069" xlink:href="#madc90bfdb1" y="80.534964"/>
     <use style="fill:#0000ff;stroke:#0000ff;" x="363.29931" xlink:href="#madc90bfdb1" y="67.263431"/>
     <use style="fill:#0000ff;stroke:#0000ff;" x="366.057931" xlink:href="#madc90bfdb1" y="79.22595"/>
     <use style="fill:#0000ff;stroke:#0000ff;" x="368.816552" xlink:href="#madc90bfdb1" y="61.499967"/>
     <use style="fill:#0000ff;stroke:#0000ff;" x="374.333793" xlink:href="#madc90bfdb1" y="60.556073"/>
     <use style="fill:#0000ff;stroke:#0000ff;" x="377.092414" xlink:href="#madc90bfdb1" y="70.100072"/>
     <use style="fill:#0000ff;stroke:#0000ff;" x="379.851034" xlink:href="#madc90bfdb1" y="69.5712"/>
     <use style="fill:#0000ff;stroke:#0000ff;" x="396.402759" xlink:href="#madc90bfdb1" y="72.92861"/>
     <use style="fill:#0000ff;stroke:#0000ff;" x="401.92" xlink:href="#madc90bfdb1" y="71.998626"/>
    </g>
   </g>
   <g id="patch_3">
    <path d="M 69.12 96.768 
L 69.12 44.928 
" style="fill:none;stroke:#000000;stroke-linecap:square;stroke-linejoin:miter;stroke-width:0.8;"/>
   </g>
   <g id="patch_4">
    <path d="M 414.72 96.768 
L 414.72 44.928 
" style="fill:none;stroke:#000000;stroke-linecap:square;stroke-linejoin:miter;stroke-width:0.8;"/>
   </g>
   <g id="patch_5">
    <path d="M 69.12 96.768 
L 414.72 96.768 
" style="fill:none;stroke:#000000;stroke-linecap:square;stroke-linejoin:miter;stroke-width:0.8;"/>
   </g>
   <g id="patch_6">
    <path d="M 69.12 44.928 
L 414.72 44.928 
" style="fill:none;stroke:#000000;stroke-linecap:square;stroke-linejoin:miter;stroke-width:0.8;"/>
   </g>
   <g id="text_4">
    <!-- Function (0/0): y = a*exp(-(x-x0)**2/w**2)+b -->
    <defs>
     <path d="M 9.8125 72.90625 
L 51.703125 72.90625 
L 51.703125 64.59375 
L 19.671875 64.59375 
L 19.671875 43.109375 
L 48.578125 43.109375 
L 48.578125 34.8125 
L 19.671875 34.8125 
L 19.671875 0 
L 9.8125 0 
z
" id="DejaVuSans-46"/>
     <path d="M 48.78125 52.59375 
L 48.78125 44.1875 
Q 44.96875 46.296875 41.140625 47.34375 
Q 37.3125 48.390625 33.40625 48.390625 
Q 24.65625 48.390625 19.8125 42.84375 
Q 14.984375 37.3125 14.984375 27.296875 
Q 14.984375 17.28125 19.8125 11.734375 
Q 24.65625 6.203125 33.40625 6.203125 
Q 37.3125 6.203125 41.140625 7.25 
Q 44.96875 8.296875 48.78125 10.40625 
L 48.78125 2.09375 
Q 45.015625 0.34375 40.984375 -0.53125 
Q 36.96875 -1.421875 32.421875 -1.421875 
Q 20.0625 -1.421875 12.78125 6.34375 
Q 5.515625 14.109375 5.515625 27.296875 
Q 5.515625 40.671875 12.859375 48.328125 
Q 20.21875 56 33.015625 56 
Q 37.15625 56 41.109375 55.140625 
Q 45.0625 54.296875 48.78125 52.59375 
z
" id="DejaVuSans-63"/>
     <path d="M 30.609375 48.390625 
Q 23.390625 48.390625 19.1875 42.75 
Q 14.984375 37.109375 14.984375 27.296875 
Q 14.984375 17.484375 19.15625 11.84375 
Q 23.34375 6.203125 30.609375 6.203125 
Q 37.796875 6.203125 41.984375 11.859375 
Q 46.1875 17.53125 46.1875 27.296875 
Q 46.1875 37.015625 41.984375 42.703125 
Q 37.796875 48.390625 30.609375 48.390625 
z
M 30.609375 56 
Q 42.328125 56 49.015625 48.375 
Q 55.71875 40.765625 55.71875 27.296875 
Q 55.71875 13.875 49.015625 6.21875 
Q 42.328125 -1.421875 30.609375 -1.421875 
Q 18.84375 -1.421875 12.171875 6.21875 
Q 5.515625 13.875 5.515625 27.296875 
Q 5.515625 40.765625 12.171875 48.375 
Q 18.84375 56 30.609375 56 
z
" id="DejaVuSans-6f"/>
     <path id="DejaVuSans-20"/>
     <path d="M 31 75.875 
Q 24.46875 64.65625 21.28125 53.65625 
Q 18.109375 42.671875 18.109375 31.390625 
Q 18.109375 20.125 21.3125 9.0625 
Q 24.515625 -2 31 -13.1875 
L 23.1875 -13.1875 
Q 15.875 -1.703125 12.234375 9.375 
Q 8.59375 20.453125 8.59375 31.390625 
Q 8.59375 42.28125 12.203125 53.3125 
Q 15.828125 64.359375 23.1875 75.875 
z
" id="DejaVuSans-28"/>
     <path d="M 31.78125 66.40625 
Q 24.171875 66.40625 20.328125 58.90625 
Q 16.5 51.421875 16.5 36.375 
Q 16.5 21.390625 20.328125 13.890625 
Q 24.171875 6.390625 31.78125 6.390625 
Q 39.453125 6.390625 43.28125 13.890625 
Q 47.125 21.390625 47.125 36.375 
Q 47.125 51.421875 43.28125 58.90625 
Q 39.453125 66.40625 31.78125 66.40625 
z
M 31.78125 74.21875 
Q 44.046875 74.21875 50.515625 64.515625 
Q 56.984375 54.828125 56.984375 36.375 
Q 56.984375 17.96875 50.515625 8.265625 
Q 44.046875 -1.421875 31.78125 -1.421875 
Q 19.53125 -1.421875 13.0625 8.265625 
Q 6.59375 17.96875 6.59375 36.375 
Q 6.59375 54.828125 13.0625 64.515625 
Q 19.53125 74.21875 31.78125 74.21875 
z
" id="DejaVuSans-30"/>
     <path d="M 25.390625 72.90625 
L 33.6875 72.90625 
L 8.296875 -9.28125 
L 0 -9.28125 
z
" id="DejaVuSans-2f"/>
     <path d="M 8.015625 75.875 
L 15.828125 75.875 
Q 23.140625 64.359375 26.78125 53.3125 
Q 30.421875 42.28125 30.421875 31.390625 
Q 30.421875 20.453125 26.78125 9.375 
Q 23.140625 -1.703125 15.828125 -13.1875 
L 8.015625 -13.1875 
Q 14.5 -2 17.703125 9.0625 
Q 20.90625 20.125 20.90625 31.390625 
Q 20.90625 42.671875 17.703125 53.65625 
Q 14.5 64.65625 8.015625 75.875 
z
" id="DejaVuSans-29"/>
     <path d="M 11.71875 12.40625 
L 22.015625 12.40625 
L 22.015625 0 
L 11.71875 0 
z
M 11.71875 51.703125 
L 22.015625 51.703125 
L 22.015625 39.3125 
L 11.71875 39.3125 
z
" id="DejaVuSans-3a"/>
     <path d="M 32.171875 -5.078125 
Q 28.375 -14.84375 24.75 -17.8125 
Q 21.140625 -20.796875 15.09375 -20.796875 
L 7.90625 -20.796875 
L 7.90625 -13.28125 
L 13.1875 -13.28125 
Q 16.890625 -13.28125 18.9375 -11.515625 
Q 21 -9.765625 23.484375 -3.21875 
L 25.09375 0.875 
L 2.984375 54.6875 
L 12.5 54.6875 
L 29.59375 11.921875 
L 46.6875 54.6875 
L 56.203125 54.6875 
z
" id="DejaVuSans-79"/>
     <path d="M 10.59375 45.40625 
L 73.1875 45.40625 
L 73.1875 37.203125 
L 10.59375 37.203125 
z
M 10.59375 25.484375 
L 73.1875 25.484375 
L 73.1875 17.1875 
L 10.59375 17.1875 
z
" id="DejaVuSans-3d"/>
     <path d="M 47.015625 60.890625 
L 29.5 51.421875 
L 47.015625 41.890625 
L 44.1875 37.109375 
L 27.78125 47.015625 
L 27.78125 28.609375 
L 22.21875 28.609375 
L 22.21875 47.015625 
L 5.8125 37.109375 
L 2.984375 41.890625 
L 20.515625 51.421875 
L 2.984375 60.890625 
L 5.8125 65.71875 
L 22.21875 55.8125 
L 22.21875 74.21875 
L 27.78125 74.21875 
L 27.78125 55.8125 
L 44.1875 65.71875 
z
" id="DejaVuSans-2a"/>
     <path d="M 54.890625 54.6875 
L 35.109375 28.078125 
L 55.90625 0 
L 45.3125 0 
L 29.390625 21.484375 
L 13.484375 0 
L 2.875 0 
L 24.125 28.609375 
L 4.6875 54.6875 
L 15.28125 54.6875 
L 29.78125 35.203125 
L 44.28125 54.6875 
z
" id="DejaVuSans-78"/>
     <path d="M 18.109375 8.203125 
L 18.109375 -20.796875 
L 9.078125 -20.796875 
L 9.078125 54.6875 
L 18.109375 54.6875 
L 18.109375 46.390625 
Q 20.953125 51.265625 25.265625 53.625 
Q 29.59375 56 35.59375 56 
Q 45.5625 56 51.78125 48.09375 
Q 58.015625 40.1875 58.015625 27.296875 
Q 58.015625 14.40625 51.78125 6.484375 
Q 45.5625 -1.421875 35.59375 -1.421875 
Q 29.59375 -1.421875 25.265625 0.953125 
Q 20.953125 3.328125 18.109375 8.203125 
z
M 48.6875 27.296875 
Q 48.6875 37.203125 44.609375 42.84375 
Q 40.53125 48.484375 33.40625 48.484375 
Q 26.265625 48.484375 22.1875 42.84375 
Q 18.109375 37.203125 18.109375 27.296875 
Q 18.109375 17.390625 22.1875 11.75 
Q 26.265625 6.109375 33.40625 6.109375 
Q 40.53125 6.109375 44.609375 11.75 
Q 48.6875 17.390625 48.6875 27.296875 
z
" id="DejaVuSans-70"/>
     <path d="M 4.890625 31.390625 
L 31.203125 31.390625 
L 31.203125 23.390625 
L 4.890625 23.390625 
z
" id="DejaVuSans-2d"/>
     <path d="M 19.1875 8.296875 
L 53.609375 8.296875 
L 53.609375 0 
L 7.328125 0 
L 7.328125 8.296875 
Q 12.9375 14.109375 22.625 23.890625 
Q 32.328125 33.6875 34.8125 36.53125 
Q 39.546875 41.84375 41.421875 45.53125 
Q 43.3125 49.21875 43.3125 52.78125 
Q 43.3125 58.59375 39.234375 62.25 
Q 35.15625 65.921875 28.609375 65.921875 
Q 23.96875 65.921875 18.8125 64.3125 
Q 13.671875 62.703125 7.8125 59.421875 
L 7.8125 69.390625 
Q 13.765625 71.78125 18.9375 73 
Q 24.125 74.21875 28.421875 74.21875 
Q 39.75 74.21875 46.484375 68.546875 
Q 53.21875 62.890625 53.21875 53.421875 
Q 53.21875 48.921875 51.53125 44.890625 
Q 49.859375 40.875 45.40625 35.40625 
Q 44.1875 33.984375 37.640625 27.21875 
Q 31.109375 20.453125 19.1875 8.296875 
z
" id="DejaVuSans-32"/>
     <path d="M 4.203125 54.6875 
L 13.1875 54.6875 
L 24.421875 12.015625 
L 35.59375 54.6875 
L 46.1875 54.6875 
L 57.421875 12.015625 
L 68.609375 54.6875 
L 77.59375 54.6875 
L 63.28125 0 
L 52.6875 0 
L 40.921875 44.828125 
L 29.109375 0 
L 18.5 0 
z
" id="DejaVuSans-77"/>
     <path d="M 46 62.703125 
L 46 35.5 
L 73.1875 35.5 
L 73.1875 27.203125 
L 46 27.203125 
L 46 0 
L 37.796875 0 
L 37.796875 27.203125 
L 10.59375 27.203125 
L 10.59375 35.5 
L 37.796875 35.5 
L 37.796875 62.703125 
z
" id="DejaVuSans-2b"/>
     <path d="M 48.6875 27.296875 
Q 48.6875 37.203125 44.609375 42.84375 
Q 40.53125 48.484375 33.40625 48.484375 
Q 26.265625 48.484375 22.1875 42.84375 
Q 18.109375 37.203125 18.109375 27.296875 
Q 18.109375 17.390625 22.1875 11.75 
Q 26.265625 6.109375 33.40625 6.109375 
Q 40.53125 6.109375 44.609375 11.75 
Q 48.6875 17.390625 48.6875 27.296875 
z
M 18.109375 46.390625 
Q 20.953125 51.265625 25.265625 53.625 
Q 29.59375 56 35.59375 56 
Q 45.5625 56 51.78125 48.09375 
Q 58.015625 40.1875 58.015625 27.296875 
Q 58.015625 14.40625 51.78125 6.484375 
Q 45.5625 -1.421875 35.59375 -1.421875 
Q 29.59375 -1.421875 25.265625 0.953125 
Q 20.953125 3.328125 18.109375 8.203125 
L 18.109375 0 
L 9.078125 0 
L 9.078125 75.984375 
L 18.109375 75.984375 
z
" id="DejaVuSans-62"/>
    </defs>
    <g transform="translate(69.12 27.730187)scale(0.1 -0.1)">
     <use xlink:href="#DejaVuSans-46"/>
     <use x="57.441406" xlink:href="#DejaVuSans-75"/>
     <use x="120.820312" xlink:href="#DejaVuSans-6e"/>
     <use x="184.199219" xlink:href="#DejaVuSans-63"/>
     <use x="239.179688" xlink:href="#DejaVuSans-74"/>
     <use x="278.388672" xlink:href="#DejaVuSans-69"/>
     <use x="306.171875" xlink:href="#DejaVuSans-6f"/>
     <use x="367.353516" xlink:href="#DejaVuSans-6e"/>
     <use x="430.732422" xlink:href="#DejaVuSans-20"/>
     <use x="462.519531" xlink:href="#DejaVuSans-28"/>
     <use x="501.533203" xlink:href="#DejaVuSans-30"/>
     <use x="565.15625" xlink:href="#DejaVuSans-2f"/>
     <use x="598.847656" xlink:href="#DejaVuSans-30"/>
     <use x="662.470703" xlink:href="#DejaVuSans-29"/>
     <use x="701.484375" xlink:href="#DejaVuSans-3a"/>
     <use x="735.175781" xlink:href="#DejaVuSans-20"/>
     <use x="766.962891" xlink:href="#DejaVuSans-79"/>
     <use x="826.142578" xlink:href="#DejaVuSans-20"/>
     <use x="857.929688" xlink:href="#DejaVuSans-3d"/>
     <use x="941.71875" xlink:href="#DejaVuSans-20"/>
     <use x="973.505859" xlink:href="#DejaVuSans-61"/>
     <use x="1034.785156" xlink:href="#DejaVuSans-2a"/>
     <use x="1084.785156" xlink:href="#DejaVuSans-65"/>
     <use x="1146.292969" xlink:href="#DejaVuSans-78"/>
     <use x="1205.472656" xlink:href="#DejaVuSans-70"/>
     <use x="1268.949219" xlink:href="#DejaVuSans-28"/>
     <use x="1307.962891" xlink:href="#DejaVuSans-2d"/>
     <use x="1344.046875" xlink:href="#DejaVuSans-28"/>
     <use x="1383.060547" xlink:href="#DejaVuSans-78"/>
     <use x="1442.240234" xlink:href="#DejaVuSans-2d"/>
     <use x="1478.324219" xlink:href="#DejaVuSans-78"/>
     <use x="1537.503906" xlink:href="#DejaVuSans-30"/>
     <use x="1601.126953" xlink:href="#DejaVuSans-29"/>
     <use x="1640.140625" xlink:href="#DejaVuSans-2a"/>
     <use x="1690.140625" xlink:href="#DejaVuSans-2a"/>
     <use x="1740.140625" xlink:href="#DejaVuSans-32"/>
     <use x="1803.763672" xlink:href="#DejaVuSans-2f"/>
     <use x="1837.455078" xlink:href="#DejaVuSans-77"/>
     <use x="1919.242188" xlink:href="#DejaVuSans-2a"/>
     <use x="1969.242188" xlink:href="#DejaVuSans-2a"/>
     <use x="2019.242188" xlink:href="#DejaVuSans-32"/>
     <use x="2082.865234" xlink:href="#DejaVuSans-29"/>
     <use x="2121.878906" xlink:href="#DejaVuSans-2b"/>
     <use x="2205.667969" xlink:href="#DejaVuSans-62"/>
    </g>
    <!-- Fit: a=2.3$\pm$1.3, b=1.7$\pm$1.4, x0=4.268$\pm$0.031, w=0.23$\pm$0.13, -->
    <defs>
     <path d="M 10.6875 12.40625 
L 21 12.40625 
L 21 0 
L 10.6875 0 
z
" id="DejaVuSans-2e"/>
     <path d="M 40.578125 39.3125 
Q 47.65625 37.796875 51.625 33 
Q 55.609375 28.21875 55.609375 21.1875 
Q 55.609375 10.40625 48.1875 4.484375 
Q 40.765625 -1.421875 27.09375 -1.421875 
Q 22.515625 -1.421875 17.65625 -0.515625 
Q 12.796875 0.390625 7.625 2.203125 
L 7.625 11.71875 
Q 11.71875 9.328125 16.59375 8.109375 
Q 21.484375 6.890625 26.8125 6.890625 
Q 36.078125 6.890625 40.9375 10.546875 
Q 45.796875 14.203125 45.796875 21.1875 
Q 45.796875 27.640625 41.28125 31.265625 
Q 36.765625 34.90625 28.71875 34.90625 
L 20.21875 34.90625 
L 20.21875 43.015625 
L 29.109375 43.015625 
Q 36.375 43.015625 40.234375 45.921875 
Q 44.09375 48.828125 44.09375 54.296875 
Q 44.09375 59.90625 40.109375 62.90625 
Q 36.140625 65.921875 28.71875 65.921875 
Q 24.65625 65.921875 20.015625 65.03125 
Q 15.375 64.15625 9.8125 62.3125 
L 9.8125 71.09375 
Q 15.4375 72.65625 20.34375 73.4375 
Q 25.25 74.21875 29.59375 74.21875 
Q 40.828125 74.21875 47.359375 69.109375 
Q 53.90625 64.015625 53.90625 55.328125 
Q 53.90625 49.265625 50.4375 45.09375 
Q 46.96875 40.921875 40.578125 39.3125 
z
" id="DejaVuSans-33"/>
     <path d="M 46 62.703125 
L 46 43.796875 
L 73.1875 43.796875 
L 73.1875 35.5 
L 46 35.5 
L 46 16.609375 
L 37.796875 16.609375 
L 37.796875 35.5 
L 10.59375 35.5 
L 10.59375 43.796875 
L 37.796875 43.796875 
L 37.796875 62.703125 
z
M 10.59375 8.296875 
L 73.1875 8.296875 
L 73.1875 0 
L 10.59375 0 
z
" id="DejaVuSans-b1"/>
     <path d="M 11.71875 12.40625 
L 22.015625 12.40625 
L 22.015625 4 
L 14.015625 -11.625 
L 7.71875 -11.625 
L 11.71875 4 
z
" id="DejaVuSans-2c"/>
     <path d="M 8.203125 72.90625 
L 55.078125 72.90625 
L 55.078125 68.703125 
L 28.609375 0 
L 18.3125 0 
L 43.21875 64.59375 
L 8.203125 64.59375 
z
" id="DejaVuSans-37"/>
     <path d="M 37.796875 64.3125 
L 12.890625 25.390625 
L 37.796875 25.390625 
z
M 35.203125 72.90625 
L 47.609375 72.90625 
L 47.609375 25.390625 
L 58.015625 25.390625 
L 58.015625 17.1875 
L 47.609375 17.1875 
L 47.609375 0 
L 37.796875 0 
L 37.796875 17.1875 
L 4.890625 17.1875 
L 4.890625 26.703125 
z
" id="DejaVuSans-34"/>
     <path d="M 33.015625 40.375 
Q 26.375 40.375 22.484375 35.828125 
Q 18.609375 31.296875 18.609375 23.390625 
Q 18.609375 15.53125 22.484375 10.953125 
Q 26.375 6.390625 33.015625 6.390625 
Q 39.65625 6.390625 43.53125 10.953125 
Q 47.40625 15.53125 47.40625 23.390625 
Q 47.40625 31.296875 43.53125 35.828125 
Q 39.65625 40.375 33.015625 40.375 
z
M 52.59375 71.296875 
L 52.59375 62.3125 
Q 48.875 64.0625 45.09375 64.984375 
Q 41.3125 65.921875 37.59375 65.921875 
Q 27.828125 65.921875 22.671875 59.328125 
Q 17.53125 52.734375 16.796875 39.40625 
Q 19.671875 43.65625 24.015625 45.921875 
Q 28.375 48.1875 33.59375 48.1875 
Q 44.578125 48.1875 50.953125 41.515625 
Q 57.328125 34.859375 57.328125 23.390625 
Q 57.328125 12.15625 50.6875 5.359375 
Q 44.046875 -1.421875 33.015625 -1.421875 
Q 20.359375 -1.421875 13.671875 8.265625 
Q 6.984375 17.96875 6.984375 36.375 
Q 6.984375 53.65625 15.1875 63.9375 
Q 23.390625 74.21875 37.203125 74.21875 
Q 40.921875 74.21875 44.703125 73.484375 
Q 48.484375 72.75 52.59375 71.296875 
z
" id="DejaVuSans-36"/>
     <path d="M 31.78125 34.625 
Q 24.75 34.625 20.71875 30.859375 
Q 16.703125 27.09375 16.703125 20.515625 
Q 16.703125 13.921875 20.71875 10.15625 
Q 24.75 6.390625 31.78125 6.390625 
Q 38.8125 6.390625 42.859375 10.171875 
Q 46.921875 13.96875 46.921875 20.515625 
Q 46.921875 27.09375 42.890625 30.859375 
Q 38.875 34.625 31.78125 34.625 
z
M 21.921875 38.8125 
Q 15.578125 40.375 12.03125 44.71875 
Q 8.5 49.078125 8.5 55.328125 
Q 8.5 64.0625 14.71875 69.140625 
Q 20.953125 74.21875 31.78125 74.21875 
Q 42.671875 74.21875 48.875 69.140625 
Q 55.078125 64.0625 55.078125 55.328125 
Q 55.078125 49.078125 51.53125 44.71875 
Q 48 40.375 41.703125 38.8125 
Q 48.828125 37.15625 52.796875 32.3125 
Q 56.78125 27.484375 56.78125 20.515625 
Q 56.78125 9.90625 50.3125 4.234375 
Q 43.84375 -1.421875 31.78125 -1.421875 
Q 19.734375 -1.421875 13.25 4.234375 
Q 6.78125 9.90625 6.78125 20.515625 
Q 6.78125 27.484375 10.78125 32.3125 
Q 14.796875 37.15625 21.921875 38.8125 
z
M 18.3125 54.390625 
Q 18.3125 48.734375 21.84375 45.5625 
Q 25.390625 42.390625 31.78125 42.390625 
Q 38.140625 42.390625 41.71875 45.5625 
Q 45.3125 48.734375 45.3125 54.390625 
Q 45.3125 60.0625 41.71875 63.234375 
Q 38.140625 66.40625 31.78125 66.40625 
Q 25.390625 66.40625 21.84375 63.234375 
Q 18.3125 60.0625 18.3125 54.390625 
z
" id="DejaVuSans-38"/>
    </defs>
    <g transform="translate(69.12 38.928)scale(0.1 -0.1)">
     <use transform="translate(0 0.015625)" xlink:href="#DejaVuSans-46"/>
     <use transform="translate(57.519531 0.015625)" xlink:href="#DejaVuSans-69"/>
     <use transform="translate(85.302734 0.015625)" xlink:href="#DejaVuSans-74"/>
     <use transform="translate(124.511719 0.015625)" xlink:href="#DejaVuSans-3a"/>
     <use transform="translate(158.203125 0.015625)" xlink:href="#DejaVuSans-20"/>
     <use transform="translate(189.990234 0.015625)" xlink:href="#DejaVuSans-61"/>
     <use transform="translate(251.269531 0.015625)" xlink:href="#DejaVuSans-3d"/>
     <use transform="translate(335.058594 0.015625)" xlink:href="#DejaVuSans-32"/>
     <use transform="translate(398.681641 0.015625)" xlink:href="#DejaVuSans-2e"/>
     <use transform="translate(430.46875 0.015625)" xlink:href="#DejaVuSans-33"/>
     <use transform="translate(494.091797 0.015625)" xlink:href="#DejaVuSans-b1"/>
     <use transform="translate(577.880859 0.015625)" xlink:href="#DejaVuSans-31"/>
     <use transform="translate(641.503906 0.015625)" xlink:href="#DejaVuSans-2e"/>
     <use transform="translate(673.291016 0.015625)" xlink:href="#DejaVuSans-33"/>
     <use transform="translate(736.914062 0.015625)" xlink:href="#DejaVuSans-2c"/>
     <use transform="translate(768.701172 0.015625)" xlink:href="#DejaVuSans-20"/>
     <use transform="translate(800.488281 0.015625)" xlink:href="#DejaVuSans-62"/>
     <use transform="translate(863.964844 0.015625)" xlink:href="#DejaVuSans-3d"/>
     <use transform="translate(947.753906 0.015625)" xlink:href="#DejaVuSans-31"/>
     <use transform="translate(1011.376953 0.015625)" xlink:href="#DejaVuSans-2e"/>
     <use transform="translate(1043.054688 0.015625)" xlink:href="#DejaVuSans-37"/>
     <use transform="translate(1106.677734 0.015625)" xlink:href="#DejaVuSans-b1"/>
     <use transform="translate(1190.466797 0.015625)" xlink:href="#DejaVuSans-31"/>
     <use transform="translate(1254.089844 0.015625)" xlink:href="#DejaVuSans-2e"/>
     <use transform="translate(1285.876953 0.015625)" xlink:href="#DejaVuSans-34"/>
     <use transform="translate(1349.5 0.015625)" xlink:href="#DejaVuSans-2c"/>
     <use transform="translate(1381.287109 0.015625)" xlink:href="#DejaVuSans-20"/>
     <use transform="translate(1413.074219 0.015625)" xlink:href="#DejaVuSans-78"/>
     <use transform="translate(1472.253906 0.015625)" xlink:href="#DejaVuSans-30"/>
     <use transform="translate(1535.876953 0.015625)" xlink:href="#DejaVuSans-3d"/>
     <use transform="translate(1619.666016 0.015625)" xlink:href="#DejaVuSans-34"/>
     <use transform="translate(1683.289062 0.015625)" xlink:href="#DejaVuSans-2e"/>
     <use transform="translate(1714.998047 0.015625)" xlink:href="#DejaVuSans-32"/>
     <use transform="translate(1778.621094 0.015625)" xlink:href="#DejaVuSans-36"/>
     <use transform="translate(1842.244141 0.015625)" xlink:href="#DejaVuSans-38"/>
     <use transform="translate(1905.867188 0.015625)" xlink:href="#DejaVuSans-b1"/>
     <use transform="translate(1989.65625 0.015625)" xlink:href="#DejaVuSans-30"/>
     <use transform="translate(2053.279297 0.015625)" xlink:href="#DejaVuSans-2e"/>
     <use transform="translate(2085.066406 0.015625)" xlink:href="#DejaVuSans-30"/>
     <use transform="translate(2148.689453 0.015625)" xlink:href="#DejaVuSans-33"/>
     <use transform="translate(2212.3125 0.015625)" xlink:href="#DejaVuSans-31"/>
     <use transform="translate(2275.935547 0.015625)" xlink:href="#DejaVuSans-2c"/>
     <use transform="translate(2307.722656 0.015625)" xlink:href="#DejaVuSans-20"/>
     <use transform="translate(2339.509766 0.015625)" xlink:href="#DejaVuSans-77"/>
     <use transform="translate(2421.296875 0.015625)" xlink:href="#DejaVuSans-3d"/>
     <use transform="translate(2505.085938 0.015625)" xlink:href="#DejaVuSans-30"/>
     <use transform="translate(2568.708984 0.015625)" xlink:href="#DejaVuSans-2e"/>
     <use transform="translate(2600.417969 0.015625)" xlink:href="#DejaVuSans-32"/>
     <use transform="translate(2664.041016 0.015625)" xlink:href="#DejaVuSans-33"/>
     <use transform="translate(2727.664062 0.015625)" xlink:href="#DejaVuSans-b1"/>
     <use transform="translate(2811.453125 0.015625)" xlink:href="#DejaVuSans-30"/>
     <use transform="translate(2875.076172 0.015625)" xlink:href="#DejaVuSans-2e"/>
     <use transform="translate(2906.863281 0.015625)" xlink:href="#DejaVuSans-31"/>
     <use transform="translate(2970.486328 0.015625)" xlink:href="#DejaVuSans-33"/>
     <use transform="translate(3034.109375 0.015625)" xlink:href="#DejaVuSans-2c"/>
    </g>
   </g>
  </g>
  <g id="axes_2">
   <g id="patch_7">
    <path d="M 69.12 311.04 
L 414.72 311.04 
L 414.72 103.68 
L 69.12 103.68 
z
" style="fill:#ffffff;"/>
   </g>
   <g id="matplotlib.axis_3">
    <g id="xtick_4">
     <g id="line2d_9">
      <g>
       <use style="stroke:#000000;stroke-width:0.8;" x="151.351102" xlink:href="#m9450973c7c" y="311.04"/>
      </g>
     </g>
     <g id="text_5">
      <!-- 4.0 -->
      <g transform="translate(139.423759 329.437656)scale(0.15 -0.15)">
       <use xlink:href="#DejaVuSans-34"/>
       <use x="63.623047" xlink:href="#DejaVuSans-2e"/>
       <use x="95.410156" xlink:href="#DejaVuSans-30"/>
      </g>
     </g>
    </g>
    <g id="xtick_5">
     <g id="line2d_10">
      <g>
       <use style="stroke:#000000;stroke-width:0.8;" x="244.096726" xlink:href="#m9450973c7c" y="311.04"/>
      </g>
     </g>
     <g id="text_6">
      <!-- 4.2 -->
      <g transform="translate(232.169383 329.437656)scale(0.15 -0.15)">
       <use xlink:href="#DejaVuSans-34"/>
       <use x="63.623047" xlink:href="#DejaVuSans-2e"/>
       <use x="95.410156" xlink:href="#DejaVuSans-32"/>
      </g>
     </g>
    </g>
    <g id="xtick_6">
     <g id="line2d_11">
      <g>
       <use style="stroke:#000000;stroke-width:0.8;" x="336.84235" xlink:href="#m9450973c7c" y="311.04"/>
      </g>
     </g>
     <g id="text_7">
      <!-- 4.4 -->
      <g transform="translate(324.915006 329.437656)scale(0.15 -0.15)">
       <use xlink:href="#DejaVuSans-34"/>
       <use x="63.623047" xlink:href="#DejaVuSans-2e"/>
       <use x="95.410156" xlink:href="#DejaVuSans-34"/>
      </g>
     </g>
    </g>
    <g id="text_8">
     <!-- Energy [MeV] -->
     <defs>
      <path d="M 9.8125 72.90625 
L 55.90625 72.90625 
L 55.90625 64.59375 
L 19.671875 64.59375 
L 19.671875 43.015625 
L 54.390625 43.015625 
L 54.390625 34.71875 
L 19.671875 34.71875 
L 19.671875 8.296875 
L 56.78125 8.296875 
L 56.78125 0 
L 9.8125 0 
z
" id="DejaVuSans-45"/>
      <path d="M 41.109375 46.296875 
Q 39.59375 47.171875 37.8125 47.578125 
Q 36.03125 48 33.890625 48 
Q 26.265625 48 22.1875 43.046875 
Q 18.109375 38.09375 18.109375 28.8125 
L 18.109375 0 
L 9.078125 0 
L 9.078125 54.6875 
L 18.109375 54.6875 
L 18.109375 46.1875 
Q 20.953125 51.171875 25.484375 53.578125 
Q 30.03125 56 36.53125 56 
Q 37.453125 56 38.578125 55.875 
Q 39.703125 55.765625 41.0625 55.515625 
z
" id="DejaVuSans-72"/>
      <path d="M 45.40625 27.984375 
Q 45.40625 37.75 41.375 43.109375 
Q 37.359375 48.484375 30.078125 48.484375 
Q 22.859375 48.484375 18.828125 43.109375 
Q 14.796875 37.75 14.796875 27.984375 
Q 14.796875 18.265625 18.828125 12.890625 
Q 22.859375 7.515625 30.078125 7.515625 
Q 37.359375 7.515625 41.375 12.890625 
Q 45.40625 18.265625 45.40625 27.984375 
z
M 54.390625 6.78125 
Q 54.390625 -7.171875 48.1875 -13.984375 
Q 42 -20.796875 29.203125 -20.796875 
Q 24.46875 -20.796875 20.265625 -20.09375 
Q 16.0625 -19.390625 12.109375 -17.921875 
L 12.109375 -9.1875 
Q 16.0625 -11.328125 19.921875 -12.34375 
Q 23.78125 -13.375 27.78125 -13.375 
Q 36.625 -13.375 41.015625 -8.765625 
Q 45.40625 -4.15625 45.40625 5.171875 
L 45.40625 9.625 
Q 42.625 4.78125 38.28125 2.390625 
Q 33.9375 0 27.875 0 
Q 17.828125 0 11.671875 7.65625 
Q 5.515625 15.328125 5.515625 27.984375 
Q 5.515625 40.671875 11.671875 48.328125 
Q 17.828125 56 27.875 56 
Q 33.9375 56 38.28125 53.609375 
Q 42.625 51.21875 45.40625 46.390625 
L 45.40625 54.6875 
L 54.390625 54.6875 
z
" id="DejaVuSans-67"/>
      <path d="M 8.59375 75.984375 
L 29.296875 75.984375 
L 29.296875 69 
L 17.578125 69 
L 17.578125 -6.203125 
L 29.296875 -6.203125 
L 29.296875 -13.1875 
L 8.59375 -13.1875 
z
" id="DejaVuSans-5b"/>
      <path d="M 9.8125 72.90625 
L 24.515625 72.90625 
L 43.109375 23.296875 
L 61.8125 72.90625 
L 76.515625 72.90625 
L 76.515625 0 
L 66.890625 0 
L 66.890625 64.015625 
L 48.09375 14.015625 
L 38.1875 14.015625 
L 19.390625 64.015625 
L 19.390625 0 
L 9.8125 0 
z
" id="DejaVuSans-4d"/>
      <path d="M 28.609375 0 
L 0.78125 72.90625 
L 11.078125 72.90625 
L 34.1875 11.53125 
L 57.328125 72.90625 
L 67.578125 72.90625 
L 39.796875 0 
z
" id="DejaVuSans-56"/>
      <path d="M 30.421875 75.984375 
L 30.421875 -13.1875 
L 9.71875 -13.1875 
L 9.71875 -6.203125 
L 21.390625 -6.203125 
L 21.390625 69 
L 9.71875 69 
L 9.71875 75.984375 
z
" id="DejaVuSans-5d"/>
     </defs>
     <g transform="translate(191.078203 347.954844)scale(0.15 -0.15)">
      <use xlink:href="#DejaVuSans-45"/>
      <use x="63.183594" xlink:href="#DejaVuSans-6e"/>
      <use x="126.5625" xlink:href="#DejaVuSans-65"/>
      <use x="188.085938" xlink:href="#DejaVuSans-72"/>
      <use x="229.183594" xlink:href="#DejaVuSans-67"/>
      <use x="292.660156" xlink:href="#DejaVuSans-79"/>
      <use x="351.839844" xlink:href="#DejaVuSans-20"/>
      <use x="383.626953" xlink:href="#DejaVuSans-5b"/>
      <use x="422.640625" xlink:href="#DejaVuSans-4d"/>
      <use x="508.919922" xlink:href="#DejaVuSans-65"/>
      <use x="570.443359" xlink:href="#DejaVuSans-56"/>
      <use x="638.851562" xlink:href="#DejaVuSans-5d"/>
     </g>
    </g>
   </g>
   <g id="matplotlib.axis_4">
    <g id="ytick_4">
     <g id="line2d_12">
      <g>
       <use style="stroke:#000000;stroke-width:0.8;" x="69.12" xlink:href="#m0c2f53fcf2" y="303.36"/>
      </g>
     </g>
     <g id="text_9">
      <!-- 2 -->
      <g transform="translate(52.57625 309.058828)scale(0.15 -0.15)">
       <use xlink:href="#DejaVuSans-32"/>
      </g>
     </g>
    </g>
    <g id="ytick_5">
     <g id="line2d_13">
      <g>
       <use style="stroke:#000000;stroke-width:0.8;" x="69.12" xlink:href="#m0c2f53fcf2" y="264.96"/>
      </g>
     </g>
     <g id="text_10">
      <!-- 3 -->
      <g transform="translate(52.57625 270.658828)scale(0.15 -0.15)">
       <use xlink:href="#DejaVuSans-33"/>
      </g>
     </g>
    </g>
    <g id="ytick_6">
     <g id="line2d_14">
      <g>
       <use style="stroke:#000000;stroke-width:0.8;" x="69.12" xlink:href="#m0c2f53fcf2" y="226.56"/>
      </g>
     </g>
     <g id="text_11">
      <!-- 4 -->
      <g transform="translate(52.57625 232.258828)scale(0.15 -0.15)">
       <use xlink:href="#DejaVuSans-34"/>
      </g>
     </g>
    </g>
    <g id="ytick_7">
     <g id="line2d_15">
      <g>
       <use style="stroke:#000000;stroke-width:0.8;" x="69.12" xlink:href="#m0c2f53fcf2" y="188.16"/>
      </g>
     </g>
     <g id="text_12">
      <!-- 5 -->
      <defs>
       <path d="M 10.796875 72.90625 
L 49.515625 72.90625 
L 49.515625 64.59375 
L 19.828125 64.59375 
L 19.828125 46.734375 
Q 21.96875 47.46875 24.109375 47.828125 
Q 26.265625 48.1875 28.421875 48.1875 
Q 40.625 48.1875 47.75 41.5 
Q 54.890625 34.8125 54.890625 23.390625 
Q 54.890625 11.625 47.5625 5.09375 
Q 40.234375 -1.421875 26.90625 -1.421875 
Q 22.3125 -1.421875 17.546875 -0.640625 
Q 12.796875 0.140625 7.71875 1.703125 
L 7.71875 11.625 
Q 12.109375 9.234375 16.796875 8.0625 
Q 21.484375 6.890625 26.703125 6.890625 
Q 35.15625 6.890625 40.078125 11.328125 
Q 45.015625 15.765625 45.015625 23.390625 
Q 45.015625 31 40.078125 35.4375 
Q 35.15625 39.890625 26.703125 39.890625 
Q 22.75 39.890625 18.8125 39.015625 
Q 14.890625 38.140625 10.796875 36.28125 
z
" id="DejaVuSans-35"/>
      </defs>
      <g transform="translate(52.57625 193.858828)scale(0.15 -0.15)">
       <use xlink:href="#DejaVuSans-35"/>
      </g>
     </g>
    </g>
    <g id="ytick_8">
     <g id="line2d_16">
      <g>
       <use style="stroke:#000000;stroke-width:0.8;" x="69.12" xlink:href="#m0c2f53fcf2" y="149.76"/>
      </g>
     </g>
     <g id="text_13">
      <!-- 6 -->
      <g transform="translate(52.57625 155.458828)scale(0.15 -0.15)">
       <use xlink:href="#DejaVuSans-36"/>
      </g>
     </g>
    </g>
    <g id="ytick_9">
     <g id="line2d_17">
      <g>
       <use style="stroke:#000000;stroke-width:0.8;" x="69.12" xlink:href="#m0c2f53fcf2" y="111.36"/>
      </g>
     </g>
     <g id="text_14">
      <!-- 7 -->
      <g transform="translate(52.57625 117.058828)scale(0.15 -0.15)">
       <use xlink:href="#DejaVuSans-37"/>
      </g>
     </g>
    </g>
    <g id="text_15">
     <!-- Counts -->
     <defs>
      <path d="M 64.40625 67.28125 
L 64.40625 56.890625 
Q 59.421875 61.53125 53.78125 63.8125 
Q 48.140625 66.109375 41.796875 66.109375 
Q 29.296875 66.109375 22.65625 58.46875 
Q 16.015625 50.828125 16.015625 36.375 
Q 16.015625 21.96875 22.65625 14.328125 
Q 29.296875 6.6875 41.796875 6.6875 
Q 48.140625 6.6875 53.78125 8.984375 
Q 59.421875 11.28125 64.40625 15.921875 
L 64.40625 5.609375 
Q 59.234375 2.09375 53.4375 0.328125 
Q 47.65625 -1.421875 41.21875 -1.421875 
Q 24.65625 -1.421875 15.125 8.703125 
Q 5.609375 18.84375 5.609375 36.375 
Q 5.609375 53.953125 15.125 64.078125 
Q 24.65625 74.21875 41.21875 74.21875 
Q 47.75 74.21875 53.53125 72.484375 
Q 59.328125 70.75 64.40625 67.28125 
z
" id="DejaVuSans-43"/>
     </defs>
     <g transform="translate(45.456719 233.539687)rotate(-90)scale(0.15 -0.15)">
      <use xlink:href="#DejaVuSans-43"/>
      <use x="69.824219" xlink:href="#DejaVuSans-6f"/>
      <use x="131.005859" xlink:href="#DejaVuSans-75"/>
      <use x="194.384766" xlink:href="#DejaVuSans-6e"/>
      <use x="257.763672" xlink:href="#DejaVuSans-74"/>
      <use x="296.972656" xlink:href="#DejaVuSans-73"/>
     </g>
    </g>
   </g>
   <g id="LineCollection_2">
    <path clip-path="url(#p8be18c87b8)" d="M 81.92 346.6 
L 81.92 249.054199 
" style="fill:none;stroke:#0000ff;stroke-width:1.5;"/>
    <path clip-path="url(#p8be18c87b8)" d="M 117.782069 346.6 
L 117.782069 249.054199 
" style="fill:none;stroke:#0000ff;stroke-width:1.5;"/>
    <path clip-path="url(#p8be18c87b8)" d="M 153.644138 346.6 
L 153.644138 249.054199 
" style="fill:none;stroke:#0000ff;stroke-width:1.5;"/>
    <path clip-path="url(#p8be18c87b8)" d="M 172.954483 346.6 
L 172.954483 249.054199 
" style="fill:none;stroke:#0000ff;stroke-width:1.5;"/>
    <path clip-path="url(#p8be18c87b8)" d="M 175.713103 346.6 
L 175.713103 249.054199 
" style="fill:none;stroke:#0000ff;stroke-width:1.5;"/>
    <path clip-path="url(#p8be18c87b8)" d="M 178.471724 317.599822 
L 178.471724 173.920178 
" style="fill:none;stroke:#0000ff;stroke-width:1.5;"/>
    <path clip-path="url(#p8be18c87b8)" d="M 181.230345 303.36 
L 181.230345 149.76 
" style="fill:none;stroke:#0000ff;stroke-width:1.5;"/>
    <path clip-path="url(#p8be18c87b8)" d="M 183.988966 317.599822 
L 183.988966 173.920178 
" style="fill:none;stroke:#0000ff;stroke-width:1.5;"/>
    <path clip-path="url(#p8be18c87b8)" d="M 186.747586 344.875731 
L 186.747586 223.444269 
" style="fill:none;stroke:#0000ff;stroke-width:1.5;"/>
    <path clip-path="url(#p8be18c87b8)" d="M 189.506207 303.36 
L 189.506207 149.76 
" style="fill:none;stroke:#0000ff;stroke-width:1.5;"/>
    <path clip-path="url(#p8be18c87b8)" d="M 197.782069 331.470751 
L 197.782069 198.449249 
" style="fill:none;stroke:#0000ff;stroke-width:1.5;"/>
    <path clip-path="url(#p8be18c87b8)" d="M 200.54069 274.02501 
L 200.54069 102.29499 
" style="fill:none;stroke:#0000ff;stroke-width:1.5;"/>
    <path clip-path="url(#p8be18c87b8)" d="M 203.29931 346.6 
L 203.29931 249.054199 
" style="fill:none;stroke:#0000ff;stroke-width:1.5;"/>
    <path clip-path="url(#p8be18c87b8)" d="M 208.816552 317.599822 
L 208.816552 173.920178 
" style="fill:none;stroke:#0000ff;stroke-width:1.5;"/>
    <path clip-path="url(#p8be18c87b8)" d="M 211.575172 288.818701 
L 211.575172 125.901299 
" style="fill:none;stroke:#0000ff;stroke-width:1.5;"/>
    <path clip-path="url(#p8be18c87b8)" d="M 214.333793 331.470751 
L 214.333793 198.449249 
" style="fill:none;stroke:#0000ff;stroke-width:1.5;"/>
    <path clip-path="url(#p8be18c87b8)" d="M 217.092414 303.36 
L 217.092414 149.76 
" style="fill:none;stroke:#0000ff;stroke-width:1.5;"/>
    <path clip-path="url(#p8be18c87b8)" d="M 219.851034 344.875731 
L 219.851034 223.444269 
" style="fill:none;stroke:#0000ff;stroke-width:1.5;"/>
    <path clip-path="url(#p8be18c87b8)" d="M 222.609655 228.461175 
L 222.609655 32.658825 
" style="fill:none;stroke:#0000ff;stroke-width:1.5;"/>
    <path clip-path="url(#p8be18c87b8)" d="M 225.368276 288.818701 
L 225.368276 125.901299 
" style="fill:none;stroke:#0000ff;stroke-width:1.5;"/>
    <path clip-path="url(#p8be18c87b8)" d="M 228.126897 303.36 
L 228.126897 149.76 
" style="fill:none;stroke:#0000ff;stroke-width:1.5;"/>
    <path clip-path="url(#p8be18c87b8)" d="M 230.885517 344.875731 
L 230.885517 223.444269 
" style="fill:none;stroke:#0000ff;stroke-width:1.5;"/>
    <path clip-path="url(#p8be18c87b8)" d="M 236.402759 303.36 
L 236.402759 149.76 
" style="fill:none;stroke:#0000ff;stroke-width:1.5;"/>
    <path clip-path="url(#p8be18c87b8)" d="M 239.161379 317.599822 
L 239.161379 173.920178 
" style="fill:none;stroke:#0000ff;stroke-width:1.5;"/>
    <path clip-path="url(#p8be18c87b8)" d="M 244.678621 317.599822 
L 244.678621 173.920178 
" style="fill:none;stroke:#0000ff;stroke-width:1.5;"/>
    <path clip-path="url(#p8be18c87b8)" d="M 247.437241 317.599822 
L 247.437241 173.920178 
" style="fill:none;stroke:#0000ff;stroke-width:1.5;"/>
    <path clip-path="url(#p8be18c87b8)" d="M 250.195862 331.470751 
L 250.195862 198.449249 
" style="fill:none;stroke:#0000ff;stroke-width:1.5;"/>
    <path clip-path="url(#p8be18c87b8)" d="M 252.954483 344.875731 
L 252.954483 223.444269 
" style="fill:none;stroke:#0000ff;stroke-width:1.5;"/>
    <path clip-path="url(#p8be18c87b8)" d="M 258.471724 274.02501 
L 258.471724 102.29499 
" style="fill:none;stroke:#0000ff;stroke-width:1.5;"/>
    <path clip-path="url(#p8be18c87b8)" d="M 261.230345 303.36 
L 261.230345 149.76 
" style="fill:none;stroke:#0000ff;stroke-width:1.5;"/>
    <path clip-path="url(#p8be18c87b8)" d="M 263.988966 274.02501 
L 263.988966 102.29499 
" style="fill:none;stroke:#0000ff;stroke-width:1.5;"/>
    <path clip-path="url(#p8be18c87b8)" d="M 266.747586 303.36 
L 266.747586 149.76 
" style="fill:none;stroke:#0000ff;stroke-width:1.5;"/>
    <path clip-path="url(#p8be18c87b8)" d="M 269.506207 303.36 
L 269.506207 149.76 
" style="fill:none;stroke:#0000ff;stroke-width:1.5;"/>
    <path clip-path="url(#p8be18c87b8)" d="M 272.264828 317.599822 
L 272.264828 173.920178 
" style="fill:none;stroke:#0000ff;stroke-width:1.5;"/>
    <path clip-path="url(#p8be18c87b8)" d="M 275.023448 317.599822 
L 275.023448 173.920178 
" style="fill:none;stroke:#0000ff;stroke-width:1.5;"/>
    <path clip-path="url(#p8be18c87b8)" d="M 277.782069 259.015983 
L 277.782069 78.904017 
" style="fill:none;stroke:#0000ff;stroke-width:1.5;"/>
    <path clip-path="url(#p8be18c87b8)" d="M 280.54069 346.6 
L 280.54069 249.054199 
" style="fill:none;stroke:#0000ff;stroke-width:1.5;"/>
    <path clip-path="url(#p8be18c87b8)" d="M 283.29931 259.015983 
L 283.29931 78.904017 
" style="fill:none;stroke:#0000ff;stroke-width:1.5;"/>
    <path clip-path="url(#p8be18c87b8)" d="M 286.057931 243.820406 
L 286.057931 55.699594 
" style="fill:none;stroke:#0000ff;stroke-width:1.5;"/>
    <path clip-path="url(#p8be18c87b8)" d="M 288.816552 346.6 
L 288.816552 249.054199 
" style="fill:none;stroke:#0000ff;stroke-width:1.5;"/>
    <path clip-path="url(#p8be18c87b8)" d="M 291.575172 303.36 
L 291.575172 149.76 
" style="fill:none;stroke:#0000ff;stroke-width:1.5;"/>
    <path clip-path="url(#p8be18c87b8)" d="M 294.333793 212.95685 
L 294.333793 9.76315 
" style="fill:none;stroke:#0000ff;stroke-width:1.5;"/>
    <path clip-path="url(#p8be18c87b8)" d="M 297.092414 243.820406 
L 297.092414 55.699594 
" style="fill:none;stroke:#0000ff;stroke-width:1.5;"/>
    <path clip-path="url(#p8be18c87b8)" d="M 299.851034 317.599822 
L 299.851034 173.920178 
" style="fill:none;stroke:#0000ff;stroke-width:1.5;"/>
    <path clip-path="url(#p8be18c87b8)" d="M 302.609655 228.461175 
L 302.609655 32.658825 
" style="fill:none;stroke:#0000ff;stroke-width:1.5;"/>
    <path clip-path="url(#p8be18c87b8)" d="M 305.368276 212.95685 
L 305.368276 9.76315 
" style="fill:none;stroke:#0000ff;stroke-width:1.5;"/>
    <path clip-path="url(#p8be18c87b8)" d="M 308.126897 243.820406 
L 308.126897 55.699594 
" style="fill:none;stroke:#0000ff;stroke-width:1.5;"/>
    <path clip-path="url(#p8be18c87b8)" d="M 310.885517 303.36 
L 310.885517 149.76 
" style="fill:none;stroke:#0000ff;stroke-width:1.5;"/>
    <path clip-path="url(#p8be18c87b8)" d="M 313.644138 288.818701 
L 313.644138 125.901299 
" style="fill:none;stroke:#0000ff;stroke-width:1.5;"/>
    <path clip-path="url(#p8be18c87b8)" d="M 316.402759 274.02501 
L 316.402759 102.29499 
" style="fill:none;stroke:#0000ff;stroke-width:1.5;"/>
    <path clip-path="url(#p8be18c87b8)" d="M 319.161379 274.02501 
L 319.161379 102.29499 
" style="fill:none;stroke:#0000ff;stroke-width:1.5;"/>
    <path clip-path="url(#p8be18c87b8)" d="M 324.678621 346.6 
L 324.678621 249.054199 
" style="fill:none;stroke:#0000ff;stroke-width:1.5;"/>
    <path clip-path="url(#p8be18c87b8)" d="M 327.437241 331.470751 
L 327.437241 198.449249 
" style="fill:none;stroke:#0000ff;stroke-width:1.5;"/>
    <path clip-path="url(#p8be18c87b8)" d="M 330.195862 331.470751 
L 330.195862 198.449249 
" style="fill:none;stroke:#0000ff;stroke-width:1.5;"/>
    <path clip-path="url(#p8be18c87b8)" d="M 332.954483 331.470751 
L 332.954483 198.449249 
" style="fill:none;stroke:#0000ff;stroke-width:1.5;"/>
    <path clip-path="url(#p8be18c87b8)" d="M 335.713103 317.599822 
L 335.713103 173.920178 
" style="fill:none;stroke:#0000ff;stroke-width:1.5;"/>
    <path clip-path="url(#p8be18c87b8)" d="M 338.471724 344.875731 
L 338.471724 223.444269 
" style="fill:none;stroke:#0000ff;stroke-width:1.5;"/>
    <path clip-path="url(#p8be18c87b8)" d="M 343.988966 288.818701 
L 343.988966 125.901299 
" style="fill:none;stroke:#0000ff;stroke-width:1.5;"/>
    <path clip-path="url(#p8be18c87b8)" d="M 346.747586 317.599822 
L 346.747586 173.920178 
" style="fill:none;stroke:#0000ff;stroke-width:1.5;"/>
    <path clip-path="url(#p8be18c87b8)" d="M 352.264828 303.36 
L 352.264828 149.76 
" style="fill:none;stroke:#0000ff;stroke-width:1.5;"/>
    <path clip-path="url(#p8be18c87b8)" d="M 355.023448 317.599822 
L 355.023448 173.920178 
" style="fill:none;stroke:#0000ff;stroke-width:1.5;"/>
    <path clip-path="url(#p8be18c87b8)" d="M 357.782069 344.875731 
L 357.782069 223.444269 
" style="fill:none;stroke:#0000ff;stroke-width:1.5;"/>
    <path clip-path="url(#p8be18c87b8)" d="M 360.54069 346.6 
L 360.54069 249.054199 
" style="fill:none;stroke:#0000ff;stroke-width:1.5;"/>
    <path clip-path="url(#p8be18c87b8)" d="M 363.29931 331.470751 
L 363.29931 198.449249 
" style="fill:none;stroke:#0000ff;stroke-width:1.5;"/>
    <path clip-path="url(#p8be18c87b8)" d="M 366.057931 346.6 
L 366.057931 249.054199 
" style="fill:none;stroke:#0000ff;stroke-width:1.5;"/>
    <path clip-path="url(#p8be18c87b8)" d="M 368.816552 317.599822 
L 368.816552 173.920178 
" style="fill:none;stroke:#0000ff;stroke-width:1.5;"/>
    <path clip-path="url(#p8be18c87b8)" d="M 374.333793 317.599822 
L 374.333793 173.920178 
" style="fill:none;stroke:#0000ff;stroke-width:1.5;"/>
    <path clip-path="url(#p8be18c87b8)" d="M 377.092414 344.875731 
L 377.092414 223.444269 
" style="fill:none;stroke:#0000ff;stroke-width:1.5;"/>
    <path clip-path="url(#p8be18c87b8)" d="M 379.851034 344.875731 
L 379.851034 223.444269 
" style="fill:none;stroke:#0000ff;stroke-width:1.5;"/>
    <path clip-path="url(#p8be18c87b8)" d="M 396.402759 346.6 
L 396.402759 249.054199 
" style="fill:none;stroke:#0000ff;stroke-width:1.5;"/>
    <path clip-path="url(#p8be18c87b8)" d="M 401.92 346.6 
L 401.92 249.054199 
" style="fill:none;stroke:#0000ff;stroke-width:1.5;"/>
   </g>
   <g id="line2d_18">
    <path clip-path="url(#p8be18c87b8)" d="M 81.92 312.764328 
L 90.248328 311.779986 
L 97.936016 310.642277 
L 104.983063 309.374856 
L 111.70979 307.938125 
L 118.116196 306.341395 
L 124.202282 304.599879 
L 130.288368 302.624025 
L 136.054134 300.524337 
L 141.8199 298.194462 
L 147.585666 295.629221 
L 153.351431 292.827203 
L 159.437518 289.615959 
L 165.523604 286.153586 
L 171.93001 282.255366 
L 178.977057 277.699119 
L 186.985065 272.241302 
L 197.235315 264.964267 
L 216.454535 251.266633 
L 223.821902 246.325367 
L 229.907988 242.503152 
L 235.353433 239.340129 
L 240.478559 236.626871 
L 244.963043 234.490968 
L 249.447528 232.600231 
L 253.611692 231.081228 
L 257.775856 229.804297 
L 261.6197 228.850608 
L 265.463544 228.120694 
L 269.307387 227.620346 
L 273.151231 227.35355 
L 276.995075 227.32244 
L 280.838919 227.527264 
L 284.682763 227.966385 
L 288.526607 228.6363 
L 292.37045 229.531686 
L 296.214294 230.645474 
L 300.378458 232.088382 
L 304.542623 233.764215 
L 309.027107 235.812147 
L 313.831912 238.262845 
L 318.957037 241.138151 
L 324.402482 244.448261 
L 330.808889 248.617267 
L 338.496577 253.908149 
L 350.028108 262.15728 
L 364.762843 272.650957 
L 373.091171 278.301172 
L 380.138218 282.823471 
L 386.864945 286.872569 
L 392.951031 290.285281 
L 399.037117 293.444454 
L 401.92 294.84985 
L 401.92 294.84985 
" style="fill:none;stroke:#ff0000;stroke-linecap:square;stroke-width:1.5;"/>
   </g>
   <g id="line2d_19">
    <g clip-path="url(#p8be18c87b8)">
     <use style="fill:#0000ff;stroke:#0000ff;" x="81.92" xlink:href="#madc90bfdb1" y="303.36"/>
     <use style="fill:#0000ff;stroke:#0000ff;" x="117.782069" xlink:href="#madc90bfdb1" y="303.36"/>
     <use style="fill:#0000ff;stroke:#0000ff;" x="153.644138" xlink:href="#madc90bfdb1" y="303.36"/>
     <use style="fill:#0000ff;stroke:#0000ff;" x="172.954483" xlink:href="#madc90bfdb1" y="303.36"/>
     <use style="fill:#0000ff;stroke:#0000ff;" x="175.713103" xlink:href="#madc90bfdb1" y="303.36"/>
     <use style="fill:#0000ff;stroke:#0000ff;" x="178.471724" xlink:href="#madc90bfdb1" y="245.76"/>
     <use style="fill:#0000ff;stroke:#0000ff;" x="181.230345" xlink:href="#madc90bfdb1" y="226.56"/>
     <use style="fill:#0000ff;stroke:#0000ff;" x="183.988966" xlink:href="#madc90bfdb1" y="245.76"/>
     <use style="fill:#0000ff;stroke:#0000ff;" x="186.747586" xlink:href="#madc90bfdb1" y="284.16"/>
     <use style="fill:#0000ff;stroke:#0000ff;" x="189.506207" xlink:href="#madc90bfdb1" y="226.56"/>
     <use style="fill:#0000ff;stroke:#0000ff;" x="197.782069" xlink:href="#madc90bfdb1" y="264.96"/>
     <use style="fill:#0000ff;stroke:#0000ff;" x="200.54069" xlink:href="#madc90bfdb1" y="188.16"/>
     <use style="fill:#0000ff;stroke:#0000ff;" x="203.29931" xlink:href="#madc90bfdb1" y="303.36"/>
     <use style="fill:#0000ff;stroke:#0000ff;" x="208.816552" xlink:href="#madc90bfdb1" y="245.76"/>
     <use style="fill:#0000ff;stroke:#0000ff;" x="211.575172" xlink:href="#madc90bfdb1" y="207.36"/>
     <use style="fill:#0000ff;stroke:#0000ff;" x="214.333793" xlink:href="#madc90bfdb1" y="264.96"/>
     <use style="fill:#0000ff;stroke:#0000ff;" x="217.092414" xlink:href="#madc90bfdb1" y="226.56"/>
     <use style="fill:#0000ff;stroke:#0000ff;" x="219.851034" xlink:href="#madc90bfdb1" y="284.16"/>
     <use style="fill:#0000ff;stroke:#0000ff;" x="222.609655" xlink:href="#madc90bfdb1" y="130.56"/>
     <use style="fill:#0000ff;stroke:#0000ff;" x="225.368276" xlink:href="#madc90bfdb1" y="207.36"/>
     <use style="fill:#0000ff;stroke:#0000ff;" x="228.126897" xlink:href="#madc90bfdb1" y="226.56"/>
     <use style="fill:#0000ff;stroke:#0000ff;" x="230.885517" xlink:href="#madc90bfdb1" y="284.16"/>
     <use style="fill:#0000ff;stroke:#0000ff;" x="236.402759" xlink:href="#madc90bfdb1" y="226.56"/>
     <use style="fill:#0000ff;stroke:#0000ff;" x="239.161379" xlink:href="#madc90bfdb1" y="245.76"/>
     <use style="fill:#0000ff;stroke:#0000ff;" x="244.678621" xlink:href="#madc90bfdb1" y="245.76"/>
     <use style="fill:#0000ff;stroke:#0000ff;" x="247.437241" xlink:href="#madc90bfdb1" y="245.76"/>
     <use style="fill:#0000ff;stroke:#0000ff;" x="250.195862" xlink:href="#madc90bfdb1" y="264.96"/>
     <use style="fill:#0000ff;stroke:#0000ff;" x="252.954483" xlink:href="#madc90bfdb1" y="284.16"/>
     <use style="fill:#0000ff;stroke:#0000ff;" x="258.471724" xlink:href="#madc90bfdb1" y="188.16"/>
     <use style="fill:#0000ff;stroke:#0000ff;" x="261.230345" xlink:href="#madc90bfdb1" y="226.56"/>
     <use style="fill:#0000ff;stroke:#0000ff;" x="263.988966" xlink:href="#madc90bfdb1" y="188.16"/>
     <use style="fill:#0000ff;stroke:#0000ff;" x="266.747586" xlink:href="#madc90bfdb1" y="226.56"/>
     <use style="fill:#0000ff;stroke:#0000ff;" x="269.506207" xlink:href="#madc90bfdb1" y="226.56"/>
     <use style="fill:#0000ff;stroke:#0000ff;" x="272.264828" xlink:href="#madc90bfdb1" y="245.76"/>
     <use style="fill:#0000ff;stroke:#0000ff;" x="275.023448" xlink:href="#madc90bfdb1" y="245.76"/>
     <use style="fill:#0000ff;stroke:#0000ff;" x="277.782069" xlink:href="#madc90bfdb1" y="168.96"/>
     <use style="fill:#0000ff;stroke:#0000ff;" x="280.54069" xlink:href="#madc90bfdb1" y="303.36"/>
     <use style="fill:#0000ff;stroke:#0000ff;" x="283.29931" xlink:href="#madc90bfdb1" y="168.96"/>
     <use style="fill:#0000ff;stroke:#0000ff;" x="286.057931" xlink:href="#madc90bfdb1" y="149.76"/>
     <use style="fill:#0000ff;stroke:#0000ff;" x="288.816552" xlink:href="#madc90bfdb1" y="303.36"/>
     <use style="fill:#0000ff;stroke:#0000ff;" x="291.575172" xlink:href="#madc90bfdb1" y="226.56"/>
     <use style="fill:#0000ff;stroke:#0000ff;" x="294.333793" xlink:href="#madc90bfdb1" y="111.36"/>
     <use style="fill:#0000ff;stroke:#0000ff;" x="297.092414" xlink:href="#madc90bfdb1" y="149.76"/>
     <use style="fill:#0000ff;stroke:#0000ff;" x="299.851034" xlink:href="#madc90bfdb1" y="245.76"/>
     <use style="fill:#0000ff;stroke:#0000ff;" x="302.609655" xlink:href="#madc90bfdb1" y="130.56"/>
     <use style="fill:#0000ff;stroke:#0000ff;" x="305.368276" xlink:href="#madc90bfdb1" y="111.36"/>
     <use style="fill:#0000ff;stroke:#0000ff;" x="308.126897" xlink:href="#madc90bfdb1" y="149.76"/>
     <use style="fill:#0000ff;stroke:#0000ff;" x="310.885517" xlink:href="#madc90bfdb1" y="226.56"/>
     <use style="fill:#0000ff;stroke:#0000ff;" x="313.644138" xlink:href="#madc90bfdb1" y="207.36"/>
     <use style="fill:#0000ff;stroke:#0000ff;" x="316.402759" xlink:href="#madc90bfdb1" y="188.16"/>
     <use style="fill:#0000ff;stroke:#0000ff;" x="319.161379" xlink:href="#madc90bfdb1" y="188.16"/>
     <use style="fill:#0000ff;stroke:#0000ff;" x="324.678621" xlink:href="#madc90bfdb1" y="303.36"/>
     <use style="fill:#0000ff;stroke:#0000ff;" x="327.437241" xlink:href="#madc90bfdb1" y="264.96"/>
     <use style="fill:#0000ff;stroke:#0000ff;" x="330.195862" xlink:href="#madc90bfdb1" y="264.96"/>
     <use style="fill:#0000ff;stroke:#0000ff;" x="332.954483" xlink:href="#madc90bfdb1" y="264.96"/>
     <use style="fill:#0000ff;stroke:#0000ff;" x="335.713103" xlink:href="#madc90bfdb1" y="245.76"/>
     <use style="fill:#0000ff;stroke:#0000ff;" x="338.471724" xlink:href="#madc90bfdb1" y="284.16"/>
     <use style="fill:#0000ff;stroke:#0000ff;" x="343.988966" xlink:href="#madc90bfdb1" y="207.36"/>
     <use style="fill:#0000ff;stroke:#0000ff;" x="346.747586" xlink:href="#madc90bfdb1" y="245.76"/>
     <use style="fill:#0000ff;stroke:#0000ff;" x="352.264828" xlink:href="#madc90bfdb1" y="226.56"/>
     <use style="fill:#0000ff;stroke:#0000ff;" x="355.023448" xlink:href="#madc90bfdb1" y="245.76"/>
     <use style="fill:#0000ff;stroke:#0000ff;" x="357.782069" xlink:href="#madc90bfdb1" y="284.16"/>
     <use style="fill:#0000ff;stroke:#0000ff;" x="360.54069" xlink:href="#madc90bfdb1" y="303.36"/>
     <use style="fill:#0000ff;stroke:#0000ff;" x="363.29931" xlink:href="#madc90bfdb1" y="264.96"/>
     <use style="fill:#0000ff;stroke:#0000ff;" x="366.057931" xlink:href="#madc90bfdb1" y="303.36"/>
     <use style="fill:#0000ff;stroke:#0000ff;" x="368.816552" xlink:href="#madc90bfdb1" y="245.76"/>
     <use style="fill:#0000ff;stroke:#0000ff;" x="374.333793" xlink:href="#madc90bfdb1" y="245.76"/>
     <use style="fill:#0000ff;stroke:#0000ff;" x="377.092414" xlink:href="#madc90bfdb1" y="284.16"/>
     <use style="fill:#0000ff;stroke:#0000ff;" x="379.851034" xlink:href="#madc90bfdb1" y="284.16"/>
     <use style="fill:#0000ff;stroke:#0000ff;" x="396.402759" xlink:href="#madc90bfdb1" y="303.36"/>
     <use style="fill:#0000ff;stroke:#0000ff;" x="401.92" xlink:href="#madc90bfdb1" y="303.36"/>
    </g>
   </g>
   <g id="patch_8">
    <path d="M 69.12 311.04 
L 69.12 103.68 
" style="fill:none;stroke:#000000;stroke-linecap:square;stroke-linejoin:miter;stroke-width:0.8;"/>
   </g>
   <g id="patch_9">
    <path d="M 414.72 311.04 
L 414.72 103.68 
" style="fill:none;stroke:#000000;stroke-linecap:square;stroke-linejoin:miter;stroke-width:0.8;"/>
   </g>
   <g id="patch_10">
    <path d="M 69.12 311.04 
L 414.72 311.04 
" style="fill:none;stroke:#000000;stroke-linecap:square;stroke-linejoin:miter;stroke-width:0.8;"/>
   </g>
   <g id="patch_11">
    <path d="M 69.12 103.68 
L 414.72 103.68 
" style="fill:none;stroke:#000000;stroke-linecap:square;stroke-linejoin:miter;stroke-width:0.8;"/>
   </g>
  </g>
 </g>
 <defs>
  <clipPath id="p01cdf70c75">
   <rect height="51.84" width="345.6" x="69.12" y="44.928"/>
  </clipPath>
  <clipPath id="p8be18c87b8">
   <rect height="207.36" width="345.6" x="69.12" y="103.68"/>
  </clipPath>
 </defs>
</svg>
