<?xml version="1.0" encoding="utf-8" standalone="no"?>
<!DOCTYPE svg PUBLIC "-//W3C//DTD SVG 1.1//EN"
  "http://www.w3.org/Graphics/SVG/1.1/DTD/svg11.dtd">
<!-- Created with matplotlib (http://matplotlib.org/) -->
<svg height="345pt" version="1.1" viewBox="0 0 460 345" width="460pt" xmlns="http://www.w3.org/2000/svg" xmlns:xlink="http://www.w3.org/1999/xlink">
 <defs>
  <style type="text/css">
*{stroke-linecap:butt;stroke-linejoin:round;}
  </style>
 </defs>
 <g id="figure_1">
  <g id="patch_1">
   <path d="M 0 345.6 
L 460.8 345.6 
L 460.8 0 
L 0 0 
z
" style="fill:#ffffff;"/>
  </g>
  <g id="axes_1">
   <g id="patch_2">
    <path d="M 69.12 96.768 
L 414.72 96.768 
L 414.72 44.928 
L 69.12 44.928 
z
" style="fill:#ffffff;"/>
   </g>
   <g id="matplotlib.axis_1">
    <g id="xtick_1">
     <g id="line2d_1">
      <defs>
       <path d="M 0 0 
L 0 3.5 
" id="m5b21ce02e5" style="stroke:#000000;stroke-width:0.8;"/>
      </defs>
      <g>
       <use style="stroke:#000000;stroke-width:0.8;" x="78.174157" xlink:href="#m5b21ce02e5" y="96.768"/>
      </g>
     </g>
    </g>
    <g id="xtick_2">
     <g id="line2d_2">
      <g>
       <use style="stroke:#000000;stroke-width:0.8;" x="164.936193" xlink:href="#m5b21ce02e5" y="96.768"/>
      </g>
     </g>
    </g>
    <g id="xtick_3">
     <g id="line2d_3">
      <g>
       <use style="stroke:#000000;stroke-width:0.8;" x="251.698228" xlink:href="#m5b21ce02e5" y="96.768"/>
      </g>
     </g>
    </g>
    <g id="xtick_4">
     <g id="line2d_4">
      <g>
       <use style="stroke:#000000;stroke-width:0.8;" x="338.460263" xlink:href="#m5b21ce02e5" y="96.768"/>
      </g>
     </g>
    </g>
   </g>
   <g id="matplotlib.axis_2">
    <g id="ytick_1">
     <g id="line2d_5">
      <defs>
       <path d="M 0 0 
L -3.5 0 
" id="m22264fcf46" style="stroke:#000000;stroke-width:0.8;"/>
      </defs>
      <g>
       <use style="stroke:#000000;stroke-width:0.8;" x="69.12" xlink:href="#m22264fcf46" y="86.688984"/>
      </g>
     </g>
     <g id="text_1">
      <!-- −1 -->
      <defs>
       <path d="M 10.59375 35.5 
L 73.1875 35.5 
L 73.1875 27.203125 
L 10.59375 27.203125 
z
" id="DejaVuSans-2212"/>
       <path d="M 12.40625 8.296875 
L 28.515625 8.296875 
L 28.515625 63.921875 
L 10.984375 60.40625 
L 10.984375 69.390625 
L 28.421875 72.90625 
L 38.28125 72.90625 
L 38.28125 8.296875 
L 54.390625 8.296875 
L 54.390625 0 
L 12.40625 0 
z
" id="DejaVuSans-31"/>
      </defs>
      <g transform="translate(40.006719 92.387812)scale(0.15 -0.15)">
       <use xlink:href="#DejaVuSans-2212"/>
       <use x="83.789062" xlink:href="#DejaVuSans-31"/>
      </g>
     </g>
    </g>
    <g id="ytick_2">
     <g id="line2d_6">
      <g>
       <use style="stroke:#000000;stroke-width:0.8;" x="69.12" xlink:href="#m22264fcf46" y="69.180002"/>
      </g>
     </g>
    </g>
    <g id="ytick_3">
     <g id="line2d_7">
      <g>
       <use style="stroke:#000000;stroke-width:0.8;" x="69.12" xlink:href="#m22264fcf46" y="51.671019"/>
      </g>
     </g>
     <g id="text_2">
      <!-- 1 -->
      <g transform="translate(52.57625 57.369847)scale(0.15 -0.15)">
       <use xlink:href="#DejaVuSans-31"/>
      </g>
     </g>
    </g>
    <g id="text_3">
     <!-- Studentized -->
     <defs>
      <path d="M 53.515625 70.515625 
L 53.515625 60.890625 
Q 47.90625 63.578125 42.921875 64.890625 
Q 37.9375 66.21875 33.296875 66.21875 
Q 25.25 66.21875 20.875 63.09375 
Q 16.5 59.96875 16.5 54.203125 
Q 16.5 49.359375 19.40625 46.890625 
Q 22.3125 44.4375 30.421875 42.921875 
L 36.375 41.703125 
Q 47.40625 39.59375 52.65625 34.296875 
Q 57.90625 29 57.90625 20.125 
Q 57.90625 9.515625 50.796875 4.046875 
Q 43.703125 -1.421875 29.984375 -1.421875 
Q 24.8125 -1.421875 18.96875 -0.25 
Q 13.140625 0.921875 6.890625 3.21875 
L 6.890625 13.375 
Q 12.890625 10.015625 18.65625 8.296875 
Q 24.421875 6.59375 29.984375 6.59375 
Q 38.421875 6.59375 43.015625 9.90625 
Q 47.609375 13.234375 47.609375 19.390625 
Q 47.609375 24.75 44.3125 27.78125 
Q 41.015625 30.8125 33.5 32.328125 
L 27.484375 33.5 
Q 16.453125 35.6875 11.515625 40.375 
Q 6.59375 45.0625 6.59375 53.421875 
Q 6.59375 63.09375 13.40625 68.65625 
Q 20.21875 74.21875 32.171875 74.21875 
Q 37.3125 74.21875 42.625 73.28125 
Q 47.953125 72.359375 53.515625 70.515625 
z
" id="DejaVuSans-53"/>
      <path d="M 18.3125 70.21875 
L 18.3125 54.6875 
L 36.8125 54.6875 
L 36.8125 47.703125 
L 18.3125 47.703125 
L 18.3125 18.015625 
Q 18.3125 11.328125 20.140625 9.421875 
Q 21.96875 7.515625 27.59375 7.515625 
L 36.8125 7.515625 
L 36.8125 0 
L 27.59375 0 
Q 17.1875 0 13.234375 3.875 
Q 9.28125 7.765625 9.28125 18.015625 
L 9.28125 47.703125 
L 2.6875 47.703125 
L 2.6875 54.6875 
L 9.28125 54.6875 
L 9.28125 70.21875 
z
" id="DejaVuSans-74"/>
      <path d="M 8.5 21.578125 
L 8.5 54.6875 
L 17.484375 54.6875 
L 17.484375 21.921875 
Q 17.484375 14.15625 20.5 10.265625 
Q 23.53125 6.390625 29.59375 6.390625 
Q 36.859375 6.390625 41.078125 11.03125 
Q 45.3125 15.671875 45.3125 23.6875 
L 45.3125 54.6875 
L 54.296875 54.6875 
L 54.296875 0 
L 45.3125 0 
L 45.3125 8.40625 
Q 42.046875 3.421875 37.71875 1 
Q 33.40625 -1.421875 27.6875 -1.421875 
Q 18.265625 -1.421875 13.375 4.4375 
Q 8.5 10.296875 8.5 21.578125 
z
M 31.109375 56 
z
" id="DejaVuSans-75"/>
      <path d="M 45.40625 46.390625 
L 45.40625 75.984375 
L 54.390625 75.984375 
L 54.390625 0 
L 45.40625 0 
L 45.40625 8.203125 
Q 42.578125 3.328125 38.25 0.953125 
Q 33.9375 -1.421875 27.875 -1.421875 
Q 17.96875 -1.421875 11.734375 6.484375 
Q 5.515625 14.40625 5.515625 27.296875 
Q 5.515625 40.1875 11.734375 48.09375 
Q 17.96875 56 27.875 56 
Q 33.9375 56 38.25 53.625 
Q 42.578125 51.265625 45.40625 46.390625 
z
M 14.796875 27.296875 
Q 14.796875 17.390625 18.875 11.75 
Q 22.953125 6.109375 30.078125 6.109375 
Q 37.203125 6.109375 41.296875 11.75 
Q 45.40625 17.390625 45.40625 27.296875 
Q 45.40625 37.203125 41.296875 42.84375 
Q 37.203125 48.484375 30.078125 48.484375 
Q 22.953125 48.484375 18.875 42.84375 
Q 14.796875 37.203125 14.796875 27.296875 
z
" id="DejaVuSans-64"/>
      <path d="M 56.203125 29.59375 
L 56.203125 25.203125 
L 14.890625 25.203125 
Q 15.484375 15.921875 20.484375 11.0625 
Q 25.484375 6.203125 34.421875 6.203125 
Q 39.59375 6.203125 44.453125 7.46875 
Q 49.3125 8.734375 54.109375 11.28125 
L 54.109375 2.78125 
Q 49.265625 0.734375 44.1875 -0.34375 
Q 39.109375 -1.421875 33.890625 -1.421875 
Q 20.796875 -1.421875 13.15625 6.1875 
Q 5.515625 13.8125 5.515625 26.8125 
Q 5.515625 40.234375 12.765625 48.109375 
Q 20.015625 56 32.328125 56 
Q 43.359375 56 49.78125 48.890625 
Q 56.203125 41.796875 56.203125 29.59375 
z
M 47.21875 32.234375 
Q 47.125 39.59375 43.09375 43.984375 
Q 39.0625 48.390625 32.421875 48.390625 
Q 24.90625 48.390625 20.390625 44.140625 
Q 15.875 39.890625 15.1875 32.171875 
z
" id="DejaVuSans-65"/>
      <path d="M 54.890625 33.015625 
L 54.890625 0 
L 45.90625 0 
L 45.90625 32.71875 
Q 45.90625 40.484375 42.875 44.328125 
Q 39.84375 48.1875 33.796875 48.1875 
Q 26.515625 48.1875 22.3125 43.546875 
Q 18.109375 38.921875 18.109375 30.90625 
L 18.109375 0 
L 9.078125 0 
L 9.078125 54.6875 
L 18.109375 54.6875 
L 18.109375 46.1875 
Q 21.34375 51.125 25.703125 53.5625 
Q 30.078125 56 35.796875 56 
Q 45.21875 56 50.046875 50.171875 
Q 54.890625 44.34375 54.890625 33.015625 
z
" id="DejaVuSans-6e"/>
      <path d="M 9.421875 54.6875 
L 18.40625 54.6875 
L 18.40625 0 
L 9.421875 0 
z
M 9.421875 75.984375 
L 18.40625 75.984375 
L 18.40625 64.59375 
L 9.421875 64.59375 
z
" id="DejaVuSans-69"/>
      <path d="M 5.515625 54.6875 
L 48.1875 54.6875 
L 48.1875 46.484375 
L 14.40625 7.171875 
L 48.1875 7.171875 
L 48.1875 0 
L 4.296875 0 
L 4.296875 8.203125 
L 38.09375 47.515625 
L 5.515625 47.515625 
z
" id="DejaVuSans-7a"/>
     </defs>
     <g transform="translate(16.090469 115.768313)rotate(-90)scale(0.15 -0.15)">
      <use xlink:href="#DejaVuSans-53"/>
      <use x="63.476562" xlink:href="#DejaVuSans-74"/>
      <use x="102.685547" xlink:href="#DejaVuSans-75"/>
      <use x="166.064453" xlink:href="#DejaVuSans-64"/>
      <use x="229.541016" xlink:href="#DejaVuSans-65"/>
      <use x="291.064453" xlink:href="#DejaVuSans-6e"/>
      <use x="354.443359" xlink:href="#DejaVuSans-74"/>
      <use x="393.652344" xlink:href="#DejaVuSans-69"/>
      <use x="421.435547" xlink:href="#DejaVuSans-7a"/>
      <use x="473.925781" xlink:href="#DejaVuSans-65"/>
      <use x="535.449219" xlink:href="#DejaVuSans-64"/>
     </g>
     <!-- Residuals -->
     <defs>
      <path d="M 44.390625 34.1875 
Q 47.5625 33.109375 50.5625 29.59375 
Q 53.5625 26.078125 56.59375 19.921875 
L 66.609375 0 
L 56 0 
L 46.6875 18.703125 
Q 43.0625 26.03125 39.671875 28.421875 
Q 36.28125 30.8125 30.421875 30.8125 
L 19.671875 30.8125 
L 19.671875 0 
L 9.8125 0 
L 9.8125 72.90625 
L 32.078125 72.90625 
Q 44.578125 72.90625 50.734375 67.671875 
Q 56.890625 62.453125 56.890625 51.90625 
Q 56.890625 45.015625 53.6875 40.46875 
Q 50.484375 35.9375 44.390625 34.1875 
z
M 19.671875 64.796875 
L 19.671875 38.921875 
L 32.078125 38.921875 
Q 39.203125 38.921875 42.84375 42.21875 
Q 46.484375 45.515625 46.484375 51.90625 
Q 46.484375 58.296875 42.84375 61.546875 
Q 39.203125 64.796875 32.078125 64.796875 
z
" id="DejaVuSans-52"/>
      <path d="M 44.28125 53.078125 
L 44.28125 44.578125 
Q 40.484375 46.53125 36.375 47.5 
Q 32.28125 48.484375 27.875 48.484375 
Q 21.1875 48.484375 17.84375 46.4375 
Q 14.5 44.390625 14.5 40.28125 
Q 14.5 37.15625 16.890625 35.375 
Q 19.28125 33.59375 26.515625 31.984375 
L 29.59375 31.296875 
Q 39.15625 29.25 43.1875 25.515625 
Q 47.21875 21.78125 47.21875 15.09375 
Q 47.21875 7.46875 41.1875 3.015625 
Q 35.15625 -1.421875 24.609375 -1.421875 
Q 20.21875 -1.421875 15.453125 -0.5625 
Q 10.6875 0.296875 5.421875 2 
L 5.421875 11.28125 
Q 10.40625 8.6875 15.234375 7.390625 
Q 20.0625 6.109375 24.8125 6.109375 
Q 31.15625 6.109375 34.5625 8.28125 
Q 37.984375 10.453125 37.984375 14.40625 
Q 37.984375 18.0625 35.515625 20.015625 
Q 33.0625 21.96875 24.703125 23.78125 
L 21.578125 24.515625 
Q 13.234375 26.265625 9.515625 29.90625 
Q 5.8125 33.546875 5.8125 39.890625 
Q 5.8125 47.609375 11.28125 51.796875 
Q 16.75 56 26.8125 56 
Q 31.78125 56 36.171875 55.265625 
Q 40.578125 54.546875 44.28125 53.078125 
z
" id="DejaVuSans-73"/>
      <path d="M 34.28125 27.484375 
Q 23.390625 27.484375 19.1875 25 
Q 14.984375 22.515625 14.984375 16.5 
Q 14.984375 11.71875 18.140625 8.90625 
Q 21.296875 6.109375 26.703125 6.109375 
Q 34.1875 6.109375 38.703125 11.40625 
Q 43.21875 16.703125 43.21875 25.484375 
L 43.21875 27.484375 
z
M 52.203125 31.203125 
L 52.203125 0 
L 43.21875 0 
L 43.21875 8.296875 
Q 40.140625 3.328125 35.546875 0.953125 
Q 30.953125 -1.421875 24.3125 -1.421875 
Q 15.921875 -1.421875 10.953125 3.296875 
Q 6 8.015625 6 15.921875 
Q 6 25.140625 12.171875 29.828125 
Q 18.359375 34.515625 30.609375 34.515625 
L 43.21875 34.515625 
L 43.21875 35.40625 
Q 43.21875 41.609375 39.140625 45 
Q 35.0625 48.390625 27.6875 48.390625 
Q 23 48.390625 18.546875 47.265625 
Q 14.109375 46.140625 10.015625 43.890625 
L 10.015625 52.203125 
Q 14.9375 54.109375 19.578125 55.046875 
Q 24.21875 56 28.609375 56 
Q 40.484375 56 46.34375 49.84375 
Q 52.203125 43.703125 52.203125 31.203125 
z
" id="DejaVuSans-61"/>
      <path d="M 9.421875 75.984375 
L 18.40625 75.984375 
L 18.40625 0 
L 9.421875 0 
z
" id="DejaVuSans-6c"/>
     </defs>
     <g transform="translate(32.887188 106.761281)rotate(-90)scale(0.15 -0.15)">
      <use xlink:href="#DejaVuSans-52"/>
      <use x="69.419922" xlink:href="#DejaVuSans-65"/>
      <use x="130.943359" xlink:href="#DejaVuSans-73"/>
      <use x="183.042969" xlink:href="#DejaVuSans-69"/>
      <use x="210.826172" xlink:href="#DejaVuSans-64"/>
      <use x="274.302734" xlink:href="#DejaVuSans-75"/>
      <use x="337.681641" xlink:href="#DejaVuSans-61"/>
      <use x="398.960938" xlink:href="#DejaVuSans-6c"/>
      <use x="426.744141" xlink:href="#DejaVuSans-73"/>
     </g>
    </g>
   </g>
   <g id="LineCollection_1">
    <path clip-path="url(#p61cee64f46)" d="M 81.92 85.405269 
L 81.92 50.387304 
" style="fill:none;stroke:#0000ff;stroke-width:1.5;"/>
    <path clip-path="url(#p61cee64f46)" d="M 138.694194 91.463514 
L 138.694194 56.445548 
" style="fill:none;stroke:#0000ff;stroke-width:1.5;"/>
    <path clip-path="url(#p61cee64f46)" d="M 141.274839 91.469327 
L 141.274839 56.451362 
" style="fill:none;stroke:#0000ff;stroke-width:1.5;"/>
    <path clip-path="url(#p61cee64f46)" d="M 143.855484 85.434437 
L 143.855484 50.416471 
" style="fill:none;stroke:#0000ff;stroke-width:1.5;"/>
    <path clip-path="url(#p61cee64f46)" d="M 146.436129 91.486062 
L 146.436129 56.468097 
" style="fill:none;stroke:#0000ff;stroke-width:1.5;"/>
    <path clip-path="url(#p61cee64f46)" d="M 149.016774 80.506562 
L 149.016774 45.488596 
" style="fill:none;stroke:#0000ff;stroke-width:1.5;"/>
    <path clip-path="url(#p61cee64f46)" d="M 151.597419 76.296813 
L 151.597419 41.278848 
" style="fill:none;stroke:#0000ff;stroke-width:1.5;"/>
    <path clip-path="url(#p61cee64f46)" d="M 154.178065 91.530804 
L 154.178065 56.512839 
" style="fill:none;stroke:#0000ff;stroke-width:1.5;"/>
    <path clip-path="url(#p61cee64f46)" d="M 174.823226 85.836456 
L 174.823226 50.818491 
" style="fill:none;stroke:#0000ff;stroke-width:1.5;"/>
    <path clip-path="url(#p61cee64f46)" d="M 187.726452 81.440723 
L 187.726452 46.422758 
" style="fill:none;stroke:#0000ff;stroke-width:1.5;"/>
    <path clip-path="url(#p61cee64f46)" d="M 192.887742 86.894218 
L 192.887742 51.876252 
" style="fill:none;stroke:#0000ff;stroke-width:1.5;"/>
    <path clip-path="url(#p61cee64f46)" d="M 195.468387 70.523106 
L 195.468387 35.50514 
" style="fill:none;stroke:#0000ff;stroke-width:1.5;"/>
    <path clip-path="url(#p61cee64f46)" d="M 203.210323 88.11406 
L 203.210323 53.096095 
" style="fill:none;stroke:#0000ff;stroke-width:1.5;"/>
    <path clip-path="url(#p61cee64f46)" d="M 205.790968 65.520644 
L 205.790968 30.502678 
" style="fill:none;stroke:#0000ff;stroke-width:1.5;"/>
    <path clip-path="url(#p61cee64f46)" d="M 208.371613 83.699665 
L 208.371613 48.6817 
" style="fill:none;stroke:#0000ff;stroke-width:1.5;"/>
    <path clip-path="url(#p61cee64f46)" d="M 213.532903 76.139503 
L 213.532903 41.121538 
" style="fill:none;stroke:#0000ff;stroke-width:1.5;"/>
    <path clip-path="url(#p61cee64f46)" d="M 218.694194 97.842842 
L 218.694194 62.824877 
" style="fill:none;stroke:#0000ff;stroke-width:1.5;"/>
    <path clip-path="url(#p61cee64f46)" d="M 221.274839 73.973135 
L 221.274839 38.95517 
" style="fill:none;stroke:#0000ff;stroke-width:1.5;"/>
    <path clip-path="url(#p61cee64f46)" d="M 223.855484 92.461929 
L 223.855484 57.443964 
" style="fill:none;stroke:#0000ff;stroke-width:1.5;"/>
    <path clip-path="url(#p61cee64f46)" d="M 226.436129 78.690898 
L 226.436129 43.672932 
" style="fill:none;stroke:#0000ff;stroke-width:1.5;"/>
    <path clip-path="url(#p61cee64f46)" d="M 229.016774 79.285107 
L 229.016774 44.267141 
" style="fill:none;stroke:#0000ff;stroke-width:1.5;"/>
    <path clip-path="url(#p61cee64f46)" d="M 231.597419 84.11068 
L 231.597419 49.092715 
" style="fill:none;stroke:#0000ff;stroke-width:1.5;"/>
    <path clip-path="url(#p61cee64f46)" d="M 234.178065 89.687092 
L 234.178065 54.669127 
" style="fill:none;stroke:#0000ff;stroke-width:1.5;"/>
    <path clip-path="url(#p61cee64f46)" d="M 236.75871 103.649457 
L 236.75871 68.631491 
" style="fill:none;stroke:#0000ff;stroke-width:1.5;"/>
    <path clip-path="url(#p61cee64f46)" d="M 239.339355 91.175582 
L 239.339355 56.157617 
" style="fill:none;stroke:#0000ff;stroke-width:1.5;"/>
    <path clip-path="url(#p61cee64f46)" d="M 241.92 75.081616 
L 241.92 40.06365 
" style="fill:none;stroke:#0000ff;stroke-width:1.5;"/>
    <path clip-path="url(#p61cee64f46)" d="M 247.08129 83.727611 
L 247.08129 48.709645 
" style="fill:none;stroke:#0000ff;stroke-width:1.5;"/>
    <path clip-path="url(#p61cee64f46)" d="M 249.661935 84.328816 
L 249.661935 49.31085 
" style="fill:none;stroke:#0000ff;stroke-width:1.5;"/>
    <path clip-path="url(#p61cee64f46)" d="M 252.242581 77.259103 
L 252.242581 42.241137 
" style="fill:none;stroke:#0000ff;stroke-width:1.5;"/>
    <path clip-path="url(#p61cee64f46)" d="M 254.823226 95.35046 
L 254.823226 60.332494 
" style="fill:none;stroke:#0000ff;stroke-width:1.5;"/>
    <path clip-path="url(#p61cee64f46)" d="M 257.403871 81.84348 
L 257.403871 46.825514 
" style="fill:none;stroke:#0000ff;stroke-width:1.5;"/>
    <path clip-path="url(#p61cee64f46)" d="M 259.984516 102.892987 
L 259.984516 67.875022 
" style="fill:none;stroke:#0000ff;stroke-width:1.5;"/>
    <path clip-path="url(#p61cee64f46)" d="M 262.565161 78.91505 
L 262.565161 43.897084 
" style="fill:none;stroke:#0000ff;stroke-width:1.5;"/>
    <path clip-path="url(#p61cee64f46)" d="M 265.145806 79.203362 
L 265.145806 44.185397 
" style="fill:none;stroke:#0000ff;stroke-width:1.5;"/>
    <path clip-path="url(#p61cee64f46)" d="M 267.726452 112.356983 
L 267.726452 77.339017 
" style="fill:none;stroke:#0000ff;stroke-width:1.5;"/>
    <path clip-path="url(#p61cee64f46)" d="M 270.307097 87.515378 
L 270.307097 52.497412 
" style="fill:none;stroke:#0000ff;stroke-width:1.5;"/>
    <path clip-path="url(#p61cee64f46)" d="M 275.468387 67.573563 
L 275.468387 32.555598 
" style="fill:none;stroke:#0000ff;stroke-width:1.5;"/>
    <path clip-path="url(#p61cee64f46)" d="M 278.049032 104.486349 
L 278.049032 69.468384 
" style="fill:none;stroke:#0000ff;stroke-width:1.5;"/>
    <path clip-path="url(#p61cee64f46)" d="M 280.629677 76.194377 
L 280.629677 41.176411 
" style="fill:none;stroke:#0000ff;stroke-width:1.5;"/>
    <path clip-path="url(#p61cee64f46)" d="M 283.210323 76.036024 
L 283.210323 41.018058 
" style="fill:none;stroke:#0000ff;stroke-width:1.5;"/>
    <path clip-path="url(#p61cee64f46)" d="M 285.790968 79.202191 
L 285.790968 44.184225 
" style="fill:none;stroke:#0000ff;stroke-width:1.5;"/>
    <path clip-path="url(#p61cee64f46)" d="M 288.371613 64.356983 
L 288.371613 29.339017 
" style="fill:none;stroke:#0000ff;stroke-width:1.5;"/>
    <path clip-path="url(#p61cee64f46)" d="M 290.952258 91.022924 
L 290.952258 56.004958 
" style="fill:none;stroke:#0000ff;stroke-width:1.5;"/>
    <path clip-path="url(#p61cee64f46)" d="M 293.532903 68.920449 
L 293.532903 33.902483 
" style="fill:none;stroke:#0000ff;stroke-width:1.5;"/>
    <path clip-path="url(#p61cee64f46)" d="M 296.113548 85.433227 
L 296.113548 50.415261 
" style="fill:none;stroke:#0000ff;stroke-width:1.5;"/>
    <path clip-path="url(#p61cee64f46)" d="M 298.694194 77.256862 
L 298.694194 42.238896 
" style="fill:none;stroke:#0000ff;stroke-width:1.5;"/>
    <path clip-path="url(#p61cee64f46)" d="M 301.274839 84.32616 
L 301.274839 49.308195 
" style="fill:none;stroke:#0000ff;stroke-width:1.5;"/>
    <path clip-path="url(#p61cee64f46)" d="M 303.855484 67.194747 
L 303.855484 32.176782 
" style="fill:none;stroke:#0000ff;stroke-width:1.5;"/>
    <path clip-path="url(#p61cee64f46)" d="M 306.436129 75.649905 
L 306.436129 40.63194 
" style="fill:none;stroke:#0000ff;stroke-width:1.5;"/>
    <path clip-path="url(#p61cee64f46)" d="M 309.016774 82.463137 
L 309.016774 47.445171 
" style="fill:none;stroke:#0000ff;stroke-width:1.5;"/>
    <path clip-path="url(#p61cee64f46)" d="M 311.597419 104.560504 
L 311.597419 69.542539 
" style="fill:none;stroke:#0000ff;stroke-width:1.5;"/>
    <path clip-path="url(#p61cee64f46)" d="M 314.178065 85.468361 
L 314.178065 50.450396 
" style="fill:none;stroke:#0000ff;stroke-width:1.5;"/>
    <path clip-path="url(#p61cee64f46)" d="M 316.75871 102.73755 
L 316.75871 67.719584 
" style="fill:none;stroke:#0000ff;stroke-width:1.5;"/>
    <path clip-path="url(#p61cee64f46)" d="M 319.339355 94.708382 
L 319.339355 59.690417 
" style="fill:none;stroke:#0000ff;stroke-width:1.5;"/>
    <path clip-path="url(#p61cee64f46)" d="M 321.92 93.930759 
L 321.92 58.912793 
" style="fill:none;stroke:#0000ff;stroke-width:1.5;"/>
    <path clip-path="url(#p61cee64f46)" d="M 324.500645 87.559366 
L 324.500645 52.541401 
" style="fill:none;stroke:#0000ff;stroke-width:1.5;"/>
    <path clip-path="url(#p61cee64f46)" d="M 327.08129 92.45875 
L 327.08129 57.440784 
" style="fill:none;stroke:#0000ff;stroke-width:1.5;"/>
    <path clip-path="url(#p61cee64f46)" d="M 329.661935 70.708412 
L 329.661935 35.690447 
" style="fill:none;stroke:#0000ff;stroke-width:1.5;"/>
    <path clip-path="url(#p61cee64f46)" d="M 332.242581 91.125635 
L 332.242581 56.10767 
" style="fill:none;stroke:#0000ff;stroke-width:1.5;"/>
    <path clip-path="url(#p61cee64f46)" d="M 337.403871 80.088508 
L 337.403871 45.070543 
" style="fill:none;stroke:#0000ff;stroke-width:1.5;"/>
    <path clip-path="url(#p61cee64f46)" d="M 339.984516 95.943611 
L 339.984516 60.925645 
" style="fill:none;stroke:#0000ff;stroke-width:1.5;"/>
    <path clip-path="url(#p61cee64f46)" d="M 342.565161 83.697769 
L 342.565161 48.679804 
" style="fill:none;stroke:#0000ff;stroke-width:1.5;"/>
    <path clip-path="url(#p61cee64f46)" d="M 345.145806 94.915671 
L 345.145806 59.897706 
" style="fill:none;stroke:#0000ff;stroke-width:1.5;"/>
    <path clip-path="url(#p61cee64f46)" d="M 347.726452 71.242272 
L 347.726452 36.224307 
" style="fill:none;stroke:#0000ff;stroke-width:1.5;"/>
    <path clip-path="url(#p61cee64f46)" d="M 350.307097 74.398932 
L 350.307097 39.380967 
" style="fill:none;stroke:#0000ff;stroke-width:1.5;"/>
    <path clip-path="url(#p61cee64f46)" d="M 352.887742 70.735412 
L 352.887742 35.717446 
" style="fill:none;stroke:#0000ff;stroke-width:1.5;"/>
    <path clip-path="url(#p61cee64f46)" d="M 355.468387 87.146272 
L 355.468387 52.128306 
" style="fill:none;stroke:#0000ff;stroke-width:1.5;"/>
    <path clip-path="url(#p61cee64f46)" d="M 358.049032 93.107603 
L 358.049032 58.089637 
" style="fill:none;stroke:#0000ff;stroke-width:1.5;"/>
    <path clip-path="url(#p61cee64f46)" d="M 360.629677 92.858672 
L 360.629677 57.840706 
" style="fill:none;stroke:#0000ff;stroke-width:1.5;"/>
    <path clip-path="url(#p61cee64f46)" d="M 363.210323 92.641007 
L 363.210323 57.623041 
" style="fill:none;stroke:#0000ff;stroke-width:1.5;"/>
    <path clip-path="url(#p61cee64f46)" d="M 365.790968 86.306574 
L 365.790968 51.288608 
" style="fill:none;stroke:#0000ff;stroke-width:1.5;"/>
    <path clip-path="url(#p61cee64f46)" d="M 368.371613 92.288276 
L 368.371613 57.27031 
" style="fill:none;stroke:#0000ff;stroke-width:1.5;"/>
    <path clip-path="url(#p61cee64f46)" d="M 373.532903 76.686283 
L 373.532903 41.668317 
" style="fill:none;stroke:#0000ff;stroke-width:1.5;"/>
    <path clip-path="url(#p61cee64f46)" d="M 378.694194 85.759039 
L 378.694194 50.741074 
" style="fill:none;stroke:#0000ff;stroke-width:1.5;"/>
    <path clip-path="url(#p61cee64f46)" d="M 383.855484 91.706861 
L 383.855484 56.688896 
" style="fill:none;stroke:#0000ff;stroke-width:1.5;"/>
    <path clip-path="url(#p61cee64f46)" d="M 389.016774 91.615208 
L 389.016774 56.597243 
" style="fill:none;stroke:#0000ff;stroke-width:1.5;"/>
    <path clip-path="url(#p61cee64f46)" d="M 399.339355 85.466388 
L 399.339355 50.448423 
" style="fill:none;stroke:#0000ff;stroke-width:1.5;"/>
    <path clip-path="url(#p61cee64f46)" d="M 401.92 91.497755 
L 401.92 56.479789 
" style="fill:none;stroke:#0000ff;stroke-width:1.5;"/>
   </g>
   <g id="line2d_8">
    <path clip-path="url(#p61cee64f46)" d="M 81.92 69.180002 
L 401.92 69.180002 
" style="fill:none;stroke:#ff0000;stroke-linecap:square;stroke-width:1.5;"/>
   </g>
   <g id="line2d_9">
    <defs>
     <path d="M -3 0 
L 3 0 
M 0 3 
L 0 -3 
" id="mfd7817e514" style="stroke:#0000ff;"/>
    </defs>
    <g clip-path="url(#p61cee64f46)">
     <use style="fill:#0000ff;stroke:#0000ff;" x="81.92" xlink:href="#mfd7817e514" y="67.896286"/>
     <use style="fill:#0000ff;stroke:#0000ff;" x="138.694194" xlink:href="#mfd7817e514" y="73.954531"/>
     <use style="fill:#0000ff;stroke:#0000ff;" x="141.274839" xlink:href="#mfd7817e514" y="73.960345"/>
     <use style="fill:#0000ff;stroke:#0000ff;" x="143.855484" xlink:href="#mfd7817e514" y="67.925454"/>
     <use style="fill:#0000ff;stroke:#0000ff;" x="146.436129" xlink:href="#mfd7817e514" y="73.977079"/>
     <use style="fill:#0000ff;stroke:#0000ff;" x="149.016774" xlink:href="#mfd7817e514" y="62.997579"/>
     <use style="fill:#0000ff;stroke:#0000ff;" x="151.597419" xlink:href="#mfd7817e514" y="58.78783"/>
     <use style="fill:#0000ff;stroke:#0000ff;" x="154.178065" xlink:href="#mfd7817e514" y="74.021822"/>
     <use style="fill:#0000ff;stroke:#0000ff;" x="174.823226" xlink:href="#mfd7817e514" y="68.327473"/>
     <use style="fill:#0000ff;stroke:#0000ff;" x="187.726452" xlink:href="#mfd7817e514" y="63.931741"/>
     <use style="fill:#0000ff;stroke:#0000ff;" x="192.887742" xlink:href="#mfd7817e514" y="69.385235"/>
     <use style="fill:#0000ff;stroke:#0000ff;" x="195.468387" xlink:href="#mfd7817e514" y="53.014123"/>
     <use style="fill:#0000ff;stroke:#0000ff;" x="203.210323" xlink:href="#mfd7817e514" y="70.605077"/>
     <use style="fill:#0000ff;stroke:#0000ff;" x="205.790968" xlink:href="#mfd7817e514" y="48.011661"/>
     <use style="fill:#0000ff;stroke:#0000ff;" x="208.371613" xlink:href="#mfd7817e514" y="66.190682"/>
     <use style="fill:#0000ff;stroke:#0000ff;" x="213.532903" xlink:href="#mfd7817e514" y="58.63052"/>
     <use style="fill:#0000ff;stroke:#0000ff;" x="218.694194" xlink:href="#mfd7817e514" y="80.333859"/>
     <use style="fill:#0000ff;stroke:#0000ff;" x="221.274839" xlink:href="#mfd7817e514" y="56.464153"/>
     <use style="fill:#0000ff;stroke:#0000ff;" x="223.855484" xlink:href="#mfd7817e514" y="74.952947"/>
     <use style="fill:#0000ff;stroke:#0000ff;" x="226.436129" xlink:href="#mfd7817e514" y="61.181915"/>
     <use style="fill:#0000ff;stroke:#0000ff;" x="229.016774" xlink:href="#mfd7817e514" y="61.776124"/>
     <use style="fill:#0000ff;stroke:#0000ff;" x="231.597419" xlink:href="#mfd7817e514" y="66.601697"/>
     <use style="fill:#0000ff;stroke:#0000ff;" x="234.178065" xlink:href="#mfd7817e514" y="72.17811"/>
     <use style="fill:#0000ff;stroke:#0000ff;" x="236.75871" xlink:href="#mfd7817e514" y="86.140474"/>
     <use style="fill:#0000ff;stroke:#0000ff;" x="239.339355" xlink:href="#mfd7817e514" y="73.6666"/>
     <use style="fill:#0000ff;stroke:#0000ff;" x="241.92" xlink:href="#mfd7817e514" y="57.572633"/>
     <use style="fill:#0000ff;stroke:#0000ff;" x="247.08129" xlink:href="#mfd7817e514" y="66.218628"/>
     <use style="fill:#0000ff;stroke:#0000ff;" x="249.661935" xlink:href="#mfd7817e514" y="66.819833"/>
     <use style="fill:#0000ff;stroke:#0000ff;" x="252.242581" xlink:href="#mfd7817e514" y="59.75012"/>
     <use style="fill:#0000ff;stroke:#0000ff;" x="254.823226" xlink:href="#mfd7817e514" y="77.841477"/>
     <use style="fill:#0000ff;stroke:#0000ff;" x="257.403871" xlink:href="#mfd7817e514" y="64.334497"/>
     <use style="fill:#0000ff;stroke:#0000ff;" x="259.984516" xlink:href="#mfd7817e514" y="85.384005"/>
     <use style="fill:#0000ff;stroke:#0000ff;" x="262.565161" xlink:href="#mfd7817e514" y="61.406067"/>
     <use style="fill:#0000ff;stroke:#0000ff;" x="265.145806" xlink:href="#mfd7817e514" y="61.69438"/>
     <use style="fill:#0000ff;stroke:#0000ff;" x="267.726452" xlink:href="#mfd7817e514" y="94.848"/>
     <use style="fill:#0000ff;stroke:#0000ff;" x="270.307097" xlink:href="#mfd7817e514" y="70.006395"/>
     <use style="fill:#0000ff;stroke:#0000ff;" x="275.468387" xlink:href="#mfd7817e514" y="50.064581"/>
     <use style="fill:#0000ff;stroke:#0000ff;" x="278.049032" xlink:href="#mfd7817e514" y="86.977367"/>
     <use style="fill:#0000ff;stroke:#0000ff;" x="280.629677" xlink:href="#mfd7817e514" y="58.685394"/>
     <use style="fill:#0000ff;stroke:#0000ff;" x="283.210323" xlink:href="#mfd7817e514" y="58.527041"/>
     <use style="fill:#0000ff;stroke:#0000ff;" x="285.790968" xlink:href="#mfd7817e514" y="61.693208"/>
     <use style="fill:#0000ff;stroke:#0000ff;" x="288.371613" xlink:href="#mfd7817e514" y="46.848"/>
     <use style="fill:#0000ff;stroke:#0000ff;" x="290.952258" xlink:href="#mfd7817e514" y="73.513941"/>
     <use style="fill:#0000ff;stroke:#0000ff;" x="293.532903" xlink:href="#mfd7817e514" y="51.411466"/>
     <use style="fill:#0000ff;stroke:#0000ff;" x="296.113548" xlink:href="#mfd7817e514" y="67.924244"/>
     <use style="fill:#0000ff;stroke:#0000ff;" x="298.694194" xlink:href="#mfd7817e514" y="59.747879"/>
     <use style="fill:#0000ff;stroke:#0000ff;" x="301.274839" xlink:href="#mfd7817e514" y="66.817177"/>
     <use style="fill:#0000ff;stroke:#0000ff;" x="303.855484" xlink:href="#mfd7817e514" y="49.685764"/>
     <use style="fill:#0000ff;stroke:#0000ff;" x="306.436129" xlink:href="#mfd7817e514" y="58.140922"/>
     <use style="fill:#0000ff;stroke:#0000ff;" x="309.016774" xlink:href="#mfd7817e514" y="64.954154"/>
     <use style="fill:#0000ff;stroke:#0000ff;" x="311.597419" xlink:href="#mfd7817e514" y="87.051522"/>
     <use style="fill:#0000ff;stroke:#0000ff;" x="314.178065" xlink:href="#mfd7817e514" y="67.959378"/>
     <use style="fill:#0000ff;stroke:#0000ff;" x="316.75871" xlink:href="#mfd7817e514" y="85.228567"/>
     <use style="fill:#0000ff;stroke:#0000ff;" x="319.339355" xlink:href="#mfd7817e514" y="77.1994"/>
     <use style="fill:#0000ff;stroke:#0000ff;" x="321.92" xlink:href="#mfd7817e514" y="76.421776"/>
     <use style="fill:#0000ff;stroke:#0000ff;" x="324.500645" xlink:href="#mfd7817e514" y="70.050383"/>
     <use style="fill:#0000ff;stroke:#0000ff;" x="327.08129" xlink:href="#mfd7817e514" y="74.949767"/>
     <use style="fill:#0000ff;stroke:#0000ff;" x="329.661935" xlink:href="#mfd7817e514" y="53.199429"/>
     <use style="fill:#0000ff;stroke:#0000ff;" x="332.242581" xlink:href="#mfd7817e514" y="73.616652"/>
     <use style="fill:#0000ff;stroke:#0000ff;" x="337.403871" xlink:href="#mfd7817e514" y="62.579525"/>
     <use style="fill:#0000ff;stroke:#0000ff;" x="339.984516" xlink:href="#mfd7817e514" y="78.434628"/>
     <use style="fill:#0000ff;stroke:#0000ff;" x="342.565161" xlink:href="#mfd7817e514" y="66.188787"/>
     <use style="fill:#0000ff;stroke:#0000ff;" x="345.145806" xlink:href="#mfd7817e514" y="77.406689"/>
     <use style="fill:#0000ff;stroke:#0000ff;" x="347.726452" xlink:href="#mfd7817e514" y="53.73329"/>
     <use style="fill:#0000ff;stroke:#0000ff;" x="350.307097" xlink:href="#mfd7817e514" y="56.889949"/>
     <use style="fill:#0000ff;stroke:#0000ff;" x="352.887742" xlink:href="#mfd7817e514" y="53.226429"/>
     <use style="fill:#0000ff;stroke:#0000ff;" x="355.468387" xlink:href="#mfd7817e514" y="69.637289"/>
     <use style="fill:#0000ff;stroke:#0000ff;" x="358.049032" xlink:href="#mfd7817e514" y="75.59862"/>
     <use style="fill:#0000ff;stroke:#0000ff;" x="360.629677" xlink:href="#mfd7817e514" y="75.349689"/>
     <use style="fill:#0000ff;stroke:#0000ff;" x="363.210323" xlink:href="#mfd7817e514" y="75.132024"/>
     <use style="fill:#0000ff;stroke:#0000ff;" x="365.790968" xlink:href="#mfd7817e514" y="68.797591"/>
     <use style="fill:#0000ff;stroke:#0000ff;" x="368.371613" xlink:href="#mfd7817e514" y="74.779293"/>
     <use style="fill:#0000ff;stroke:#0000ff;" x="373.532903" xlink:href="#mfd7817e514" y="59.1773"/>
     <use style="fill:#0000ff;stroke:#0000ff;" x="378.694194" xlink:href="#mfd7817e514" y="68.250056"/>
     <use style="fill:#0000ff;stroke:#0000ff;" x="383.855484" xlink:href="#mfd7817e514" y="74.197878"/>
     <use style="fill:#0000ff;stroke:#0000ff;" x="389.016774" xlink:href="#mfd7817e514" y="74.106226"/>
     <use style="fill:#0000ff;stroke:#0000ff;" x="399.339355" xlink:href="#mfd7817e514" y="67.957406"/>
     <use style="fill:#0000ff;stroke:#0000ff;" x="401.92" xlink:href="#mfd7817e514" y="73.988772"/>
    </g>
   </g>
   <g id="patch_3">
    <path d="M 69.12 96.768 
L 69.12 44.928 
" style="fill:none;stroke:#000000;stroke-linecap:square;stroke-linejoin:miter;stroke-width:0.8;"/>
   </g>
   <g id="patch_4">
    <path d="M 414.72 96.768 
L 414.72 44.928 
" style="fill:none;stroke:#000000;stroke-linecap:square;stroke-linejoin:miter;stroke-width:0.8;"/>
   </g>
   <g id="patch_5">
    <path d="M 69.12 96.768 
L 414.72 96.768 
" style="fill:none;stroke:#000000;stroke-linecap:square;stroke-linejoin:miter;stroke-width:0.8;"/>
   </g>
   <g id="patch_6">
    <path d="M 69.12 44.928 
L 414.72 44.928 
" style="fill:none;stroke:#000000;stroke-linecap:square;stroke-linejoin:miter;stroke-width:0.8;"/>
   </g>
   <g id="text_4">
    <!-- Function (0/0): y = a*exp(-(x-x0)**2/w**2)+b -->
    <defs>
     <path d="M 9.8125 72.90625 
L 51.703125 72.90625 
L 51.703125 64.59375 
L 19.671875 64.59375 
L 19.671875 43.109375 
L 48.578125 43.109375 
L 48.578125 34.8125 
L 19.671875 34.8125 
L 19.671875 0 
L 9.8125 0 
z
" id="DejaVuSans-46"/>
     <path d="M 48.78125 52.59375 
L 48.78125 44.1875 
Q 44.96875 46.296875 41.140625 47.34375 
Q 37.3125 48.390625 33.40625 48.390625 
Q 24.65625 48.390625 19.8125 42.84375 
Q 14.984375 37.3125 14.984375 27.296875 
Q 14.984375 17.28125 19.8125 11.734375 
Q 24.65625 6.203125 33.40625 6.203125 
Q 37.3125 6.203125 41.140625 7.25 
Q 44.96875 8.296875 48.78125 10.40625 
L 48.78125 2.09375 
Q 45.015625 0.34375 40.984375 -0.53125 
Q 36.96875 -1.421875 32.421875 -1.421875 
Q 20.0625 -1.421875 12.78125 6.34375 
Q 5.515625 14.109375 5.515625 27.296875 
Q 5.515625 40.671875 12.859375 48.328125 
Q 20.21875 56 33.015625 56 
Q 37.15625 56 41.109375 55.140625 
Q 45.0625 54.296875 48.78125 52.59375 
z
" id="DejaVuSans-63"/>
     <path d="M 30.609375 48.390625 
Q 23.390625 48.390625 19.1875 42.75 
Q 14.984375 37.109375 14.984375 27.296875 
Q 14.984375 17.484375 19.15625 11.84375 
Q 23.34375 6.203125 30.609375 6.203125 
Q 37.796875 6.203125 41.984375 11.859375 
Q 46.1875 17.53125 46.1875 27.296875 
Q 46.1875 37.015625 41.984375 42.703125 
Q 37.796875 48.390625 30.609375 48.390625 
z
M 30.609375 56 
Q 42.328125 56 49.015625 48.375 
Q 55.71875 40.765625 55.71875 27.296875 
Q 55.71875 13.875 49.015625 6.21875 
Q 42.328125 -1.421875 30.609375 -1.421875 
Q 18.84375 -1.421875 12.171875 6.21875 
Q 5.515625 13.875 5.515625 27.296875 
Q 5.515625 40.765625 12.171875 48.375 
Q 18.84375 56 30.609375 56 
z
" id="DejaVuSans-6f"/>
     <path id="DejaVuSans-20"/>
     <path d="M 31 75.875 
Q 24.46875 64.65625 21.28125 53.65625 
Q 18.109375 42.671875 18.109375 31.390625 
Q 18.109375 20.125 21.3125 9.0625 
Q 24.515625 -2 31 -13.1875 
L 23.1875 -13.1875 
Q 15.875 -1.703125 12.234375 9.375 
Q 8.59375 20.453125 8.59375 31.390625 
Q 8.59375 42.28125 12.203125 53.3125 
Q 15.828125 64.359375 23.1875 75.875 
z
" id="DejaVuSans-28"/>
     <path d="M 31.78125 66.40625 
Q 24.171875 66.40625 20.328125 58.90625 
Q 16.5 51.421875 16.5 36.375 
Q 16.5 21.390625 20.328125 13.890625 
Q 24.171875 6.390625 31.78125 6.390625 
Q 39.453125 6.390625 43.28125 13.890625 
Q 47.125 21.390625 47.125 36.375 
Q 47.125 51.421875 43.28125 58.90625 
Q 39.453125 66.40625 31.78125 66.40625 
z
M 31.78125 74.21875 
Q 44.046875 74.21875 50.515625 64.515625 
Q 56.984375 54.828125 56.984375 36.375 
Q 56.984375 17.96875 50.515625 8.265625 
Q 44.046875 -1.421875 31.78125 -1.421875 
Q 19.53125 -1.421875 13.0625 8.265625 
Q 6.59375 17.96875 6.59375 36.375 
Q 6.59375 54.828125 13.0625 64.515625 
Q 19.53125 74.21875 31.78125 74.21875 
z
" id="DejaVuSans-30"/>
     <path d="M 25.390625 72.90625 
L 33.6875 72.90625 
L 8.296875 -9.28125 
L 0 -9.28125 
z
" id="DejaVuSans-2f"/>
     <path d="M 8.015625 75.875 
L 15.828125 75.875 
Q 23.140625 64.359375 26.78125 53.3125 
Q 30.421875 42.28125 30.421875 31.390625 
Q 30.421875 20.453125 26.78125 9.375 
Q 23.140625 -1.703125 15.828125 -13.1875 
L 8.015625 -13.1875 
Q 14.5 -2 17.703125 9.0625 
Q 20.90625 20.125 20.90625 31.390625 
Q 20.90625 42.671875 17.703125 53.65625 
Q 14.5 64.65625 8.015625 75.875 
z
" id="DejaVuSans-29"/>
     <path d="M 11.71875 12.40625 
L 22.015625 12.40625 
L 22.015625 0 
L 11.71875 0 
z
M 11.71875 51.703125 
L 22.015625 51.703125 
L 22.015625 39.3125 
L 11.71875 39.3125 
z
" id="DejaVuSans-3a"/>
     <path d="M 32.171875 -5.078125 
Q 28.375 -14.84375 24.75 -17.8125 
Q 21.140625 -20.796875 15.09375 -20.796875 
L 7.90625 -20.796875 
L 7.90625 -13.28125 
L 13.1875 -13.28125 
Q 16.890625 -13.28125 18.9375 -11.515625 
Q 21 -9.765625 23.484375 -3.21875 
L 25.09375 0.875 
L 2.984375 54.6875 
L 12.5 54.6875 
L 29.59375 11.921875 
L 46.6875 54.6875 
L 56.203125 54.6875 
z
" id="DejaVuSans-79"/>
     <path d="M 10.59375 45.40625 
L 73.1875 45.40625 
L 73.1875 37.203125 
L 10.59375 37.203125 
z
M 10.59375 25.484375 
L 73.1875 25.484375 
L 73.1875 17.1875 
L 10.59375 17.1875 
z
" id="DejaVuSans-3d"/>
     <path d="M 47.015625 60.890625 
L 29.5 51.421875 
L 47.015625 41.890625 
L 44.1875 37.109375 
L 27.78125 47.015625 
L 27.78125 28.609375 
L 22.21875 28.609375 
L 22.21875 47.015625 
L 5.8125 37.109375 
L 2.984375 41.890625 
L 20.515625 51.421875 
L 2.984375 60.890625 
L 5.8125 65.71875 
L 22.21875 55.8125 
L 22.21875 74.21875 
L 27.78125 74.21875 
L 27.78125 55.8125 
L 44.1875 65.71875 
z
" id="DejaVuSans-2a"/>
     <path d="M 54.890625 54.6875 
L 35.109375 28.078125 
L 55.90625 0 
L 45.3125 0 
L 29.390625 21.484375 
L 13.484375 0 
L 2.875 0 
L 24.125 28.609375 
L 4.6875 54.6875 
L 15.28125 54.6875 
L 29.78125 35.203125 
L 44.28125 54.6875 
z
" id="DejaVuSans-78"/>
     <path d="M 18.109375 8.203125 
L 18.109375 -20.796875 
L 9.078125 -20.796875 
L 9.078125 54.6875 
L 18.109375 54.6875 
L 18.109375 46.390625 
Q 20.953125 51.265625 25.265625 53.625 
Q 29.59375 56 35.59375 56 
Q 45.5625 56 51.78125 48.09375 
Q 58.015625 40.1875 58.015625 27.296875 
Q 58.015625 14.40625 51.78125 6.484375 
Q 45.5625 -1.421875 35.59375 -1.421875 
Q 29.59375 -1.421875 25.265625 0.953125 
Q 20.953125 3.328125 18.109375 8.203125 
z
M 48.6875 27.296875 
Q 48.6875 37.203125 44.609375 42.84375 
Q 40.53125 48.484375 33.40625 48.484375 
Q 26.265625 48.484375 22.1875 42.84375 
Q 18.109375 37.203125 18.109375 27.296875 
Q 18.109375 17.390625 22.1875 11.75 
Q 26.265625 6.109375 33.40625 6.109375 
Q 40.53125 6.109375 44.609375 11.75 
Q 48.6875 17.390625 48.6875 27.296875 
z
" id="DejaVuSans-70"/>
     <path d="M 4.890625 31.390625 
L 31.203125 31.390625 
L 31.203125 23.390625 
L 4.890625 23.390625 
z
" id="DejaVuSans-2d"/>
     <path d="M 19.1875 8.296875 
L 53.609375 8.296875 
L 53.609375 0 
L 7.328125 0 
L 7.328125 8.296875 
Q 12.9375 14.109375 22.625 23.890625 
Q 32.328125 33.6875 34.8125 36.53125 
Q 39.546875 41.84375 41.421875 45.53125 
Q 43.3125 49.21875 43.3125 52.78125 
Q 43.3125 58.59375 39.234375 62.25 
Q 35.15625 65.921875 28.609375 65.921875 
Q 23.96875 65.921875 18.8125 64.3125 
Q 13.671875 62.703125 7.8125 59.421875 
L 7.8125 69.390625 
Q 13.765625 71.78125 18.9375 73 
Q 24.125 74.21875 28.421875 74.21875 
Q 39.75 74.21875 46.484375 68.546875 
Q 53.21875 62.890625 53.21875 53.421875 
Q 53.21875 48.921875 51.53125 44.890625 
Q 49.859375 40.875 45.40625 35.40625 
Q 44.1875 33.984375 37.640625 27.21875 
Q 31.109375 20.453125 19.1875 8.296875 
z
" id="DejaVuSans-32"/>
     <path d="M 4.203125 54.6875 
L 13.1875 54.6875 
L 24.421875 12.015625 
L 35.59375 54.6875 
L 46.1875 54.6875 
L 57.421875 12.015625 
L 68.609375 54.6875 
L 77.59375 54.6875 
L 63.28125 0 
L 52.6875 0 
L 40.921875 44.828125 
L 29.109375 0 
L 18.5 0 
z
" id="DejaVuSans-77"/>
     <path d="M 46 62.703125 
L 46 35.5 
L 73.1875 35.5 
L 73.1875 27.203125 
L 46 27.203125 
L 46 0 
L 37.796875 0 
L 37.796875 27.203125 
L 10.59375 27.203125 
L 10.59375 35.5 
L 37.796875 35.5 
L 37.796875 62.703125 
z
" id="DejaVuSans-2b"/>
     <path d="M 48.6875 27.296875 
Q 48.6875 37.203125 44.609375 42.84375 
Q 40.53125 48.484375 33.40625 48.484375 
Q 26.265625 48.484375 22.1875 42.84375 
Q 18.109375 37.203125 18.109375 27.296875 
Q 18.109375 17.390625 22.1875 11.75 
Q 26.265625 6.109375 33.40625 6.109375 
Q 40.53125 6.109375 44.609375 11.75 
Q 48.6875 17.390625 48.6875 27.296875 
z
M 18.109375 46.390625 
Q 20.953125 51.265625 25.265625 53.625 
Q 29.59375 56 35.59375 56 
Q 45.5625 56 51.78125 48.09375 
Q 58.015625 40.1875 58.015625 27.296875 
Q 58.015625 14.40625 51.78125 6.484375 
Q 45.5625 -1.421875 35.59375 -1.421875 
Q 29.59375 -1.421875 25.265625 0.953125 
Q 20.953125 3.328125 18.109375 8.203125 
L 18.109375 0 
L 9.078125 0 
L 9.078125 75.984375 
L 18.109375 75.984375 
z
" id="DejaVuSans-62"/>
    </defs>
    <g transform="translate(69.12 27.730187)scale(0.1 -0.1)">
     <use xlink:href="#DejaVuSans-46"/>
     <use x="57.441406" xlink:href="#DejaVuSans-75"/>
     <use x="120.820312" xlink:href="#DejaVuSans-6e"/>
     <use x="184.199219" xlink:href="#DejaVuSans-63"/>
     <use x="239.179688" xlink:href="#DejaVuSans-74"/>
     <use x="278.388672" xlink:href="#DejaVuSans-69"/>
     <use x="306.171875" xlink:href="#DejaVuSans-6f"/>
     <use x="367.353516" xlink:href="#DejaVuSans-6e"/>
     <use x="430.732422" xlink:href="#DejaVuSans-20"/>
     <use x="462.519531" xlink:href="#DejaVuSans-28"/>
     <use x="501.533203" xlink:href="#DejaVuSans-30"/>
     <use x="565.15625" xlink:href="#DejaVuSans-2f"/>
     <use x="598.847656" xlink:href="#DejaVuSans-30"/>
     <use x="662.470703" xlink:href="#DejaVuSans-29"/>
     <use x="701.484375" xlink:href="#DejaVuSans-3a"/>
     <use x="735.175781" xlink:href="#DejaVuSans-20"/>
     <use x="766.962891" xlink:href="#DejaVuSans-79"/>
     <use x="826.142578" xlink:href="#DejaVuSans-20"/>
     <use x="857.929688" xlink:href="#DejaVuSans-3d"/>
     <use x="941.71875" xlink:href="#DejaVuSans-20"/>
     <use x="973.505859" xlink:href="#DejaVuSans-61"/>
     <use x="1034.785156" xlink:href="#DejaVuSans-2a"/>
     <use x="1084.785156" xlink:href="#DejaVuSans-65"/>
     <use x="1146.292969" xlink:href="#DejaVuSans-78"/>
     <use x="1205.472656" xlink:href="#DejaVuSans-70"/>
     <use x="1268.949219" xlink:href="#DejaVuSans-28"/>
     <use x="1307.962891" xlink:href="#DejaVuSans-2d"/>
     <use x="1344.046875" xlink:href="#DejaVuSans-28"/>
     <use x="1383.060547" xlink:href="#DejaVuSans-78"/>
     <use x="1442.240234" xlink:href="#DejaVuSans-2d"/>
     <use x="1478.324219" xlink:href="#DejaVuSans-78"/>
     <use x="1537.503906" xlink:href="#DejaVuSans-30"/>
     <use x="1601.126953" xlink:href="#DejaVuSans-29"/>
     <use x="1640.140625" xlink:href="#DejaVuSans-2a"/>
     <use x="1690.140625" xlink:href="#DejaVuSans-2a"/>
     <use x="1740.140625" xlink:href="#DejaVuSans-32"/>
     <use x="1803.763672" xlink:href="#DejaVuSans-2f"/>
     <use x="1837.455078" xlink:href="#DejaVuSans-77"/>
     <use x="1919.242188" xlink:href="#DejaVuSans-2a"/>
     <use x="1969.242188" xlink:href="#DejaVuSans-2a"/>
     <use x="2019.242188" xlink:href="#DejaVuSans-32"/>
     <use x="2082.865234" xlink:href="#DejaVuSans-29"/>
     <use x="2121.878906" xlink:href="#DejaVuSans-2b"/>
     <use x="2205.667969" xlink:href="#DejaVuSans-62"/>
    </g>
    <!-- Fit: a=1.73$\pm$0.58, b=2.38$\pm$0.38, x0=4.255$\pm$0.026, w=0.119$\pm$0.051, -->
    <defs>
     <path d="M 10.6875 12.40625 
L 21 12.40625 
L 21 0 
L 10.6875 0 
z
" id="DejaVuSans-2e"/>
     <path d="M 8.203125 72.90625 
L 55.078125 72.90625 
L 55.078125 68.703125 
L 28.609375 0 
L 18.3125 0 
L 43.21875 64.59375 
L 8.203125 64.59375 
z
" id="DejaVuSans-37"/>
     <path d="M 40.578125 39.3125 
Q 47.65625 37.796875 51.625 33 
Q 55.609375 28.21875 55.609375 21.1875 
Q 55.609375 10.40625 48.1875 4.484375 
Q 40.765625 -1.421875 27.09375 -1.421875 
Q 22.515625 -1.421875 17.65625 -0.515625 
Q 12.796875 0.390625 7.625 2.203125 
L 7.625 11.71875 
Q 11.71875 9.328125 16.59375 8.109375 
Q 21.484375 6.890625 26.8125 6.890625 
Q 36.078125 6.890625 40.9375 10.546875 
Q 45.796875 14.203125 45.796875 21.1875 
Q 45.796875 27.640625 41.28125 31.265625 
Q 36.765625 34.90625 28.71875 34.90625 
L 20.21875 34.90625 
L 20.21875 43.015625 
L 29.109375 43.015625 
Q 36.375 43.015625 40.234375 45.921875 
Q 44.09375 48.828125 44.09375 54.296875 
Q 44.09375 59.90625 40.109375 62.90625 
Q 36.140625 65.921875 28.71875 65.921875 
Q 24.65625 65.921875 20.015625 65.03125 
Q 15.375 64.15625 9.8125 62.3125 
L 9.8125 71.09375 
Q 15.4375 72.65625 20.34375 73.4375 
Q 25.25 74.21875 29.59375 74.21875 
Q 40.828125 74.21875 47.359375 69.109375 
Q 53.90625 64.015625 53.90625 55.328125 
Q 53.90625 49.265625 50.4375 45.09375 
Q 46.96875 40.921875 40.578125 39.3125 
z
" id="DejaVuSans-33"/>
     <path d="M 46 62.703125 
L 46 43.796875 
L 73.1875 43.796875 
L 73.1875 35.5 
L 46 35.5 
L 46 16.609375 
L 37.796875 16.609375 
L 37.796875 35.5 
L 10.59375 35.5 
L 10.59375 43.796875 
L 37.796875 43.796875 
L 37.796875 62.703125 
z
M 10.59375 8.296875 
L 73.1875 8.296875 
L 73.1875 0 
L 10.59375 0 
z
" id="DejaVuSans-b1"/>
     <path d="M 10.796875 72.90625 
L 49.515625 72.90625 
L 49.515625 64.59375 
L 19.828125 64.59375 
L 19.828125 46.734375 
Q 21.96875 47.46875 24.109375 47.828125 
Q 26.265625 48.1875 28.421875 48.1875 
Q 40.625 48.1875 47.75 41.5 
Q 54.890625 34.8125 54.890625 23.390625 
Q 54.890625 11.625 47.5625 5.09375 
Q 40.234375 -1.421875 26.90625 -1.421875 
Q 22.3125 -1.421875 17.546875 -0.640625 
Q 12.796875 0.140625 7.71875 1.703125 
L 7.71875 11.625 
Q 12.109375 9.234375 16.796875 8.0625 
Q 21.484375 6.890625 26.703125 6.890625 
Q 35.15625 6.890625 40.078125 11.328125 
Q 45.015625 15.765625 45.015625 23.390625 
Q 45.015625 31 40.078125 35.4375 
Q 35.15625 39.890625 26.703125 39.890625 
Q 22.75 39.890625 18.8125 39.015625 
Q 14.890625 38.140625 10.796875 36.28125 
z
" id="DejaVuSans-35"/>
     <path d="M 31.78125 34.625 
Q 24.75 34.625 20.71875 30.859375 
Q 16.703125 27.09375 16.703125 20.515625 
Q 16.703125 13.921875 20.71875 10.15625 
Q 24.75 6.390625 31.78125 6.390625 
Q 38.8125 6.390625 42.859375 10.171875 
Q 46.921875 13.96875 46.921875 20.515625 
Q 46.921875 27.09375 42.890625 30.859375 
Q 38.875 34.625 31.78125 34.625 
z
M 21.921875 38.8125 
Q 15.578125 40.375 12.03125 44.71875 
Q 8.5 49.078125 8.5 55.328125 
Q 8.5 64.0625 14.71875 69.140625 
Q 20.953125 74.21875 31.78125 74.21875 
Q 42.671875 74.21875 48.875 69.140625 
Q 55.078125 64.0625 55.078125 55.328125 
Q 55.078125 49.078125 51.53125 44.71875 
Q 48 40.375 41.703125 38.8125 
Q 48.828125 37.15625 52.796875 32.3125 
Q 56.78125 27.484375 56.78125 20.515625 
Q 56.78125 9.90625 50.3125 4.234375 
Q 43.84375 -1.421875 31.78125 -1.421875 
Q 19.734375 -1.421875 13.25 4.234375 
Q 6.78125 9.90625 6.78125 20.515625 
Q 6.78125 27.484375 10.78125 32.3125 
Q 14.796875 37.15625 21.921875 38.8125 
z
M 18.3125 54.390625 
Q 18.3125 48.734375 21.84375 45.5625 
Q 25.390625 42.390625 31.78125 42.390625 
Q 38.140625 42.390625 41.71875 45.5625 
Q 45.3125 48.734375 45.3125 54.390625 
Q 45.3125 60.0625 41.71875 63.234375 
Q 38.140625 66.40625 31.78125 66.40625 
Q 25.390625 66.40625 21.84375 63.234375 
Q 18.3125 60.0625 18.3125 54.390625 
z
" id="DejaVuSans-38"/>
     <path d="M 11.71875 12.40625 
L 22.015625 12.40625 
L 22.015625 4 
L 14.015625 -11.625 
L 7.71875 -11.625 
L 11.71875 4 
z
" id="DejaVuSans-2c"/>
     <path d="M 37.796875 64.3125 
L 12.890625 25.390625 
L 37.796875 25.390625 
z
M 35.203125 72.90625 
L 47.609375 72.90625 
L 47.609375 25.390625 
L 58.015625 25.390625 
L 58.015625 17.1875 
L 47.609375 17.1875 
L 47.609375 0 
L 37.796875 0 
L 37.796875 17.1875 
L 4.890625 17.1875 
L 4.890625 26.703125 
z
" id="DejaVuSans-34"/>
     <path d="M 33.015625 40.375 
Q 26.375 40.375 22.484375 35.828125 
Q 18.609375 31.296875 18.609375 23.390625 
Q 18.609375 15.53125 22.484375 10.953125 
Q 26.375 6.390625 33.015625 6.390625 
Q 39.65625 6.390625 43.53125 10.953125 
Q 47.40625 15.53125 47.40625 23.390625 
Q 47.40625 31.296875 43.53125 35.828125 
Q 39.65625 40.375 33.015625 40.375 
z
M 52.59375 71.296875 
L 52.59375 62.3125 
Q 48.875 64.0625 45.09375 64.984375 
Q 41.3125 65.921875 37.59375 65.921875 
Q 27.828125 65.921875 22.671875 59.328125 
Q 17.53125 52.734375 16.796875 39.40625 
Q 19.671875 43.65625 24.015625 45.921875 
Q 28.375 48.1875 33.59375 48.1875 
Q 44.578125 48.1875 50.953125 41.515625 
Q 57.328125 34.859375 57.328125 23.390625 
Q 57.328125 12.15625 50.6875 5.359375 
Q 44.046875 -1.421875 33.015625 -1.421875 
Q 20.359375 -1.421875 13.671875 8.265625 
Q 6.984375 17.96875 6.984375 36.375 
Q 6.984375 53.65625 15.1875 63.9375 
Q 23.390625 74.21875 37.203125 74.21875 
Q 40.921875 74.21875 44.703125 73.484375 
Q 48.484375 72.75 52.59375 71.296875 
z
" id="DejaVuSans-36"/>
     <path d="M 10.984375 1.515625 
L 10.984375 10.5 
Q 14.703125 8.734375 18.5 7.8125 
Q 22.3125 6.890625 25.984375 6.890625 
Q 35.75 6.890625 40.890625 13.453125 
Q 46.046875 20.015625 46.78125 33.40625 
Q 43.953125 29.203125 39.59375 26.953125 
Q 35.25 24.703125 29.984375 24.703125 
Q 19.046875 24.703125 12.671875 31.3125 
Q 6.296875 37.9375 6.296875 49.421875 
Q 6.296875 60.640625 12.9375 67.421875 
Q 19.578125 74.21875 30.609375 74.21875 
Q 43.265625 74.21875 49.921875 64.515625 
Q 56.59375 54.828125 56.59375 36.375 
Q 56.59375 19.140625 48.40625 8.859375 
Q 40.234375 -1.421875 26.421875 -1.421875 
Q 22.703125 -1.421875 18.890625 -0.6875 
Q 15.09375 0.046875 10.984375 1.515625 
z
M 30.609375 32.421875 
Q 37.25 32.421875 41.125 36.953125 
Q 45.015625 41.5 45.015625 49.421875 
Q 45.015625 57.28125 41.125 61.84375 
Q 37.25 66.40625 30.609375 66.40625 
Q 23.96875 66.40625 20.09375 61.84375 
Q 16.21875 57.28125 16.21875 49.421875 
Q 16.21875 41.5 20.09375 36.953125 
Q 23.96875 32.421875 30.609375 32.421875 
z
" id="DejaVuSans-39"/>
    </defs>
    <g transform="translate(69.12 38.928)scale(0.1 -0.1)">
     <use transform="translate(0 0.015625)" xlink:href="#DejaVuSans-46"/>
     <use transform="translate(57.519531 0.015625)" xlink:href="#DejaVuSans-69"/>
     <use transform="translate(85.302734 0.015625)" xlink:href="#DejaVuSans-74"/>
     <use transform="translate(124.511719 0.015625)" xlink:href="#DejaVuSans-3a"/>
     <use transform="translate(158.203125 0.015625)" xlink:href="#DejaVuSans-20"/>
     <use transform="translate(189.990234 0.015625)" xlink:href="#DejaVuSans-61"/>
     <use transform="translate(251.269531 0.015625)" xlink:href="#DejaVuSans-3d"/>
     <use transform="translate(335.058594 0.015625)" xlink:href="#DejaVuSans-31"/>
     <use transform="translate(398.681641 0.015625)" xlink:href="#DejaVuSans-2e"/>
     <use transform="translate(430.359375 0.015625)" xlink:href="#DejaVuSans-37"/>
     <use transform="translate(493.982422 0.015625)" xlink:href="#DejaVuSans-33"/>
     <use transform="translate(557.605469 0.015625)" xlink:href="#DejaVuSans-b1"/>
     <use transform="translate(641.394531 0.015625)" xlink:href="#DejaVuSans-30"/>
     <use transform="translate(705.017578 0.015625)" xlink:href="#DejaVuSans-2e"/>
     <use transform="translate(736.804688 0.015625)" xlink:href="#DejaVuSans-35"/>
     <use transform="translate(800.427734 0.015625)" xlink:href="#DejaVuSans-38"/>
     <use transform="translate(864.050781 0.015625)" xlink:href="#DejaVuSans-2c"/>
     <use transform="translate(895.837891 0.015625)" xlink:href="#DejaVuSans-20"/>
     <use transform="translate(927.625 0.015625)" xlink:href="#DejaVuSans-62"/>
     <use transform="translate(991.101562 0.015625)" xlink:href="#DejaVuSans-3d"/>
     <use transform="translate(1074.890625 0.015625)" xlink:href="#DejaVuSans-32"/>
     <use transform="translate(1138.513672 0.015625)" xlink:href="#DejaVuSans-2e"/>
     <use transform="translate(1170.300781 0.015625)" xlink:href="#DejaVuSans-33"/>
     <use transform="translate(1233.923828 0.015625)" xlink:href="#DejaVuSans-38"/>
     <use transform="translate(1297.546875 0.015625)" xlink:href="#DejaVuSans-b1"/>
     <use transform="translate(1381.335938 0.015625)" xlink:href="#DejaVuSans-30"/>
     <use transform="translate(1444.958984 0.015625)" xlink:href="#DejaVuSans-2e"/>
     <use transform="translate(1476.746094 0.015625)" xlink:href="#DejaVuSans-33"/>
     <use transform="translate(1540.369141 0.015625)" xlink:href="#DejaVuSans-38"/>
     <use transform="translate(1603.992188 0.015625)" xlink:href="#DejaVuSans-2c"/>
     <use transform="translate(1635.779297 0.015625)" xlink:href="#DejaVuSans-20"/>
     <use transform="translate(1667.566406 0.015625)" xlink:href="#DejaVuSans-78"/>
     <use transform="translate(1726.746094 0.015625)" xlink:href="#DejaVuSans-30"/>
     <use transform="translate(1790.369141 0.015625)" xlink:href="#DejaVuSans-3d"/>
     <use transform="translate(1874.158203 0.015625)" xlink:href="#DejaVuSans-34"/>
     <use transform="translate(1937.78125 0.015625)" xlink:href="#DejaVuSans-2e"/>
     <use transform="translate(1969.490234 0.015625)" xlink:href="#DejaVuSans-32"/>
     <use transform="translate(2033.113281 0.015625)" xlink:href="#DejaVuSans-35"/>
     <use transform="translate(2096.736328 0.015625)" xlink:href="#DejaVuSans-35"/>
     <use transform="translate(2160.359375 0.015625)" xlink:href="#DejaVuSans-b1"/>
     <use transform="translate(2244.148438 0.015625)" xlink:href="#DejaVuSans-30"/>
     <use transform="translate(2307.771484 0.015625)" xlink:href="#DejaVuSans-2e"/>
     <use transform="translate(2339.558594 0.015625)" xlink:href="#DejaVuSans-30"/>
     <use transform="translate(2403.181641 0.015625)" xlink:href="#DejaVuSans-32"/>
     <use transform="translate(2466.804688 0.015625)" xlink:href="#DejaVuSans-36"/>
     <use transform="translate(2530.427734 0.015625)" xlink:href="#DejaVuSans-2c"/>
     <use transform="translate(2562.214844 0.015625)" xlink:href="#DejaVuSans-20"/>
     <use transform="translate(2594.001953 0.015625)" xlink:href="#DejaVuSans-77"/>
     <use transform="translate(2675.789062 0.015625)" xlink:href="#DejaVuSans-3d"/>
     <use transform="translate(2759.578125 0.015625)" xlink:href="#DejaVuSans-30"/>
     <use transform="translate(2823.201172 0.015625)" xlink:href="#DejaVuSans-2e"/>
     <use transform="translate(2854.988281 0.015625)" xlink:href="#DejaVuSans-31"/>
     <use transform="translate(2918.611328 0.015625)" xlink:href="#DejaVuSans-31"/>
     <use transform="translate(2982.234375 0.015625)" xlink:href="#DejaVuSans-39"/>
     <use transform="translate(3045.857422 0.015625)" xlink:href="#DejaVuSans-b1"/>
     <use transform="translate(3129.646484 0.015625)" xlink:href="#DejaVuSans-30"/>
     <use transform="translate(3193.269531 0.015625)" xlink:href="#DejaVuSans-2e"/>
     <use transform="translate(3225.056641 0.015625)" xlink:href="#DejaVuSans-30"/>
     <use transform="translate(3288.679688 0.015625)" xlink:href="#DejaVuSans-35"/>
     <use transform="translate(3352.302734 0.015625)" xlink:href="#DejaVuSans-31"/>
     <use transform="translate(3415.925781 0.015625)" xlink:href="#DejaVuSans-2c"/>
    </g>
   </g>
  </g>
  <g id="axes_2">
   <g id="patch_7">
    <path d="M 69.12 311.04 
L 414.72 311.04 
L 414.72 103.68 
L 69.12 103.68 
z
" style="fill:#ffffff;"/>
   </g>
   <g id="matplotlib.axis_3">
    <g id="xtick_5">
     <g id="line2d_10">
      <g>
       <use style="stroke:#000000;stroke-width:0.8;" x="78.174157" xlink:href="#m5b21ce02e5" y="311.04"/>
      </g>
     </g>
     <g id="text_5">
      <!-- 3.8 -->
      <g transform="translate(66.246813 329.437656)scale(0.15 -0.15)">
       <use xlink:href="#DejaVuSans-33"/>
       <use x="63.623047" xlink:href="#DejaVuSans-2e"/>
       <use x="95.410156" xlink:href="#DejaVuSans-38"/>
      </g>
     </g>
    </g>
    <g id="xtick_6">
     <g id="line2d_11">
      <g>
       <use style="stroke:#000000;stroke-width:0.8;" x="164.936193" xlink:href="#m5b21ce02e5" y="311.04"/>
      </g>
     </g>
     <g id="text_6">
      <!-- 4.0 -->
      <g transform="translate(153.008849 329.437656)scale(0.15 -0.15)">
       <use xlink:href="#DejaVuSans-34"/>
       <use x="63.623047" xlink:href="#DejaVuSans-2e"/>
       <use x="95.410156" xlink:href="#DejaVuSans-30"/>
      </g>
     </g>
    </g>
    <g id="xtick_7">
     <g id="line2d_12">
      <g>
       <use style="stroke:#000000;stroke-width:0.8;" x="251.698228" xlink:href="#m5b21ce02e5" y="311.04"/>
      </g>
     </g>
     <g id="text_7">
      <!-- 4.2 -->
      <g transform="translate(239.770884 329.437656)scale(0.15 -0.15)">
       <use xlink:href="#DejaVuSans-34"/>
       <use x="63.623047" xlink:href="#DejaVuSans-2e"/>
       <use x="95.410156" xlink:href="#DejaVuSans-32"/>
      </g>
     </g>
    </g>
    <g id="xtick_8">
     <g id="line2d_13">
      <g>
       <use style="stroke:#000000;stroke-width:0.8;" x="338.460263" xlink:href="#m5b21ce02e5" y="311.04"/>
      </g>
     </g>
     <g id="text_8">
      <!-- 4.4 -->
      <g transform="translate(326.532919 329.437656)scale(0.15 -0.15)">
       <use xlink:href="#DejaVuSans-34"/>
       <use x="63.623047" xlink:href="#DejaVuSans-2e"/>
       <use x="95.410156" xlink:href="#DejaVuSans-34"/>
      </g>
     </g>
    </g>
    <g id="text_9">
     <!-- Energy [MeV] -->
     <defs>
      <path d="M 9.8125 72.90625 
L 55.90625 72.90625 
L 55.90625 64.59375 
L 19.671875 64.59375 
L 19.671875 43.015625 
L 54.390625 43.015625 
L 54.390625 34.71875 
L 19.671875 34.71875 
L 19.671875 8.296875 
L 56.78125 8.296875 
L 56.78125 0 
L 9.8125 0 
z
" id="DejaVuSans-45"/>
      <path d="M 41.109375 46.296875 
Q 39.59375 47.171875 37.8125 47.578125 
Q 36.03125 48 33.890625 48 
Q 26.265625 48 22.1875 43.046875 
Q 18.109375 38.09375 18.109375 28.8125 
L 18.109375 0 
L 9.078125 0 
L 9.078125 54.6875 
L 18.109375 54.6875 
L 18.109375 46.1875 
Q 20.953125 51.171875 25.484375 53.578125 
Q 30.03125 56 36.53125 56 
Q 37.453125 56 38.578125 55.875 
Q 39.703125 55.765625 41.0625 55.515625 
z
" id="DejaVuSans-72"/>
      <path d="M 45.40625 27.984375 
Q 45.40625 37.75 41.375 43.109375 
Q 37.359375 48.484375 30.078125 48.484375 
Q 22.859375 48.484375 18.828125 43.109375 
Q 14.796875 37.75 14.796875 27.984375 
Q 14.796875 18.265625 18.828125 12.890625 
Q 22.859375 7.515625 30.078125 7.515625 
Q 37.359375 7.515625 41.375 12.890625 
Q 45.40625 18.265625 45.40625 27.984375 
z
M 54.390625 6.78125 
Q 54.390625 -7.171875 48.1875 -13.984375 
Q 42 -20.796875 29.203125 -20.796875 
Q 24.46875 -20.796875 20.265625 -20.09375 
Q 16.0625 -19.390625 12.109375 -17.921875 
L 12.109375 -9.1875 
Q 16.0625 -11.328125 19.921875 -12.34375 
Q 23.78125 -13.375 27.78125 -13.375 
Q 36.625 -13.375 41.015625 -8.765625 
Q 45.40625 -4.15625 45.40625 5.171875 
L 45.40625 9.625 
Q 42.625 4.78125 38.28125 2.390625 
Q 33.9375 0 27.875 0 
Q 17.828125 0 11.671875 7.65625 
Q 5.515625 15.328125 5.515625 27.984375 
Q 5.515625 40.671875 11.671875 48.328125 
Q 17.828125 56 27.875 56 
Q 33.9375 56 38.28125 53.609375 
Q 42.625 51.21875 45.40625 46.390625 
L 45.40625 54.6875 
L 54.390625 54.6875 
z
" id="DejaVuSans-67"/>
      <path d="M 8.59375 75.984375 
L 29.296875 75.984375 
L 29.296875 69 
L 17.578125 69 
L 17.578125 -6.203125 
L 29.296875 -6.203125 
L 29.296875 -13.1875 
L 8.59375 -13.1875 
z
" id="DejaVuSans-5b"/>
      <path d="M 9.8125 72.90625 
L 24.515625 72.90625 
L 43.109375 23.296875 
L 61.8125 72.90625 
L 76.515625 72.90625 
L 76.515625 0 
L 66.890625 0 
L 66.890625 64.015625 
L 48.09375 14.015625 
L 38.1875 14.015625 
L 19.390625 64.015625 
L 19.390625 0 
L 9.8125 0 
z
" id="DejaVuSans-4d"/>
      <path d="M 28.609375 0 
L 0.78125 72.90625 
L 11.078125 72.90625 
L 34.1875 11.53125 
L 57.328125 72.90625 
L 67.578125 72.90625 
L 39.796875 0 
z
" id="DejaVuSans-56"/>
      <path d="M 30.421875 75.984375 
L 30.421875 -13.1875 
L 9.71875 -13.1875 
L 9.71875 -6.203125 
L 21.390625 -6.203125 
L 21.390625 69 
L 9.71875 69 
L 9.71875 75.984375 
z
" id="DejaVuSans-5d"/>
     </defs>
     <g transform="translate(191.078203 347.954844)scale(0.15 -0.15)">
      <use xlink:href="#DejaVuSans-45"/>
      <use x="63.183594" xlink:href="#DejaVuSans-6e"/>
      <use x="126.5625" xlink:href="#DejaVuSans-65"/>
      <use x="188.085938" xlink:href="#DejaVuSans-72"/>
      <use x="229.183594" xlink:href="#DejaVuSans-67"/>
      <use x="292.660156" xlink:href="#DejaVuSans-79"/>
      <use x="351.839844" xlink:href="#DejaVuSans-20"/>
      <use x="383.626953" xlink:href="#DejaVuSans-5b"/>
      <use x="422.640625" xlink:href="#DejaVuSans-4d"/>
      <use x="508.919922" xlink:href="#DejaVuSans-65"/>
      <use x="570.443359" xlink:href="#DejaVuSans-56"/>
      <use x="638.851562" xlink:href="#DejaVuSans-5d"/>
     </g>
    </g>
   </g>
   <g id="matplotlib.axis_4">
    <g id="ytick_4">
     <g id="line2d_14">
      <g>
       <use style="stroke:#000000;stroke-width:0.8;" x="69.12" xlink:href="#m22264fcf46" y="303.36"/>
      </g>
     </g>
     <g id="text_10">
      <!-- 2 -->
      <g transform="translate(52.57625 309.058828)scale(0.15 -0.15)">
       <use xlink:href="#DejaVuSans-32"/>
      </g>
     </g>
    </g>
    <g id="ytick_5">
     <g id="line2d_15">
      <g>
       <use style="stroke:#000000;stroke-width:0.8;" x="69.12" xlink:href="#m22264fcf46" y="268.450909"/>
      </g>
     </g>
     <g id="text_11">
      <!-- 3 -->
      <g transform="translate(52.57625 274.149737)scale(0.15 -0.15)">
       <use xlink:href="#DejaVuSans-33"/>
      </g>
     </g>
    </g>
    <g id="ytick_6">
     <g id="line2d_16">
      <g>
       <use style="stroke:#000000;stroke-width:0.8;" x="69.12" xlink:href="#m22264fcf46" y="233.541818"/>
      </g>
     </g>
     <g id="text_12">
      <!-- 4 -->
      <g transform="translate(52.57625 239.240646)scale(0.15 -0.15)">
       <use xlink:href="#DejaVuSans-34"/>
      </g>
     </g>
    </g>
    <g id="ytick_7">
     <g id="line2d_17">
      <g>
       <use style="stroke:#000000;stroke-width:0.8;" x="69.12" xlink:href="#m22264fcf46" y="198.632727"/>
      </g>
     </g>
     <g id="text_13">
      <!-- 5 -->
      <g transform="translate(52.57625 204.331555)scale(0.15 -0.15)">
       <use xlink:href="#DejaVuSans-35"/>
      </g>
     </g>
    </g>
    <g id="ytick_8">
     <g id="line2d_18">
      <g>
       <use style="stroke:#000000;stroke-width:0.8;" x="69.12" xlink:href="#m22264fcf46" y="163.723636"/>
      </g>
     </g>
     <g id="text_14">
      <!-- 6 -->
      <g transform="translate(52.57625 169.422464)scale(0.15 -0.15)">
       <use xlink:href="#DejaVuSans-36"/>
      </g>
     </g>
    </g>
    <g id="ytick_9">
     <g id="line2d_19">
      <g>
       <use style="stroke:#000000;stroke-width:0.8;" x="69.12" xlink:href="#m22264fcf46" y="128.814545"/>
      </g>
     </g>
     <g id="text_15">
      <!-- 7 -->
      <g transform="translate(52.57625 134.513374)scale(0.15 -0.15)">
       <use xlink:href="#DejaVuSans-37"/>
      </g>
     </g>
    </g>
    <g id="text_16">
     <!-- Counts -->
     <defs>
      <path d="M 64.40625 67.28125 
L 64.40625 56.890625 
Q 59.421875 61.53125 53.78125 63.8125 
Q 48.140625 66.109375 41.796875 66.109375 
Q 29.296875 66.109375 22.65625 58.46875 
Q 16.015625 50.828125 16.015625 36.375 
Q 16.015625 21.96875 22.65625 14.328125 
Q 29.296875 6.6875 41.796875 6.6875 
Q 48.140625 6.6875 53.78125 8.984375 
Q 59.421875 11.28125 64.40625 15.921875 
L 64.40625 5.609375 
Q 59.234375 2.09375 53.4375 0.328125 
Q 47.65625 -1.421875 41.21875 -1.421875 
Q 24.65625 -1.421875 15.125 8.703125 
Q 5.609375 18.84375 5.609375 36.375 
Q 5.609375 53.953125 15.125 64.078125 
Q 24.65625 74.21875 41.21875 74.21875 
Q 47.75 74.21875 53.53125 72.484375 
Q 59.328125 70.75 64.40625 67.28125 
z
" id="DejaVuSans-43"/>
     </defs>
     <g transform="translate(45.456719 233.539687)rotate(-90)scale(0.15 -0.15)">
      <use xlink:href="#DejaVuSans-43"/>
      <use x="69.824219" xlink:href="#DejaVuSans-6f"/>
      <use x="131.005859" xlink:href="#DejaVuSans-75"/>
      <use x="194.384766" xlink:href="#DejaVuSans-6e"/>
      <use x="257.763672" xlink:href="#DejaVuSans-74"/>
      <use x="296.972656" xlink:href="#DejaVuSans-73"/>
     </g>
    </g>
   </g>
   <g id="LineCollection_2">
    <path clip-path="url(#p344f1cec05)" d="M 81.92 341.101574 
L 81.92 230.709335 
" style="fill:none;stroke:#0000ff;stroke-width:1.5;"/>
    <path clip-path="url(#p344f1cec05)" d="M 138.694194 346.6 
L 138.694194 253.99109 
" style="fill:none;stroke:#0000ff;stroke-width:1.5;"/>
    <path clip-path="url(#p344f1cec05)" d="M 141.274839 346.6 
L 141.274839 253.99109 
" style="fill:none;stroke:#0000ff;stroke-width:1.5;"/>
    <path clip-path="url(#p344f1cec05)" d="M 143.855484 341.101574 
L 143.855484 230.709335 
" style="fill:none;stroke:#0000ff;stroke-width:1.5;"/>
    <path clip-path="url(#p344f1cec05)" d="M 146.436129 346.6 
L 146.436129 253.99109 
" style="fill:none;stroke:#0000ff;stroke-width:1.5;"/>
    <path clip-path="url(#p344f1cec05)" d="M 149.016774 328.915228 
L 149.016774 207.98659 
" style="fill:none;stroke:#0000ff;stroke-width:1.5;"/>
    <path clip-path="url(#p344f1cec05)" d="M 151.597419 316.305293 
L 151.597419 185.687435 
" style="fill:none;stroke:#0000ff;stroke-width:1.5;"/>
    <path clip-path="url(#p344f1cec05)" d="M 154.178065 346.6 
L 154.178065 253.99109 
" style="fill:none;stroke:#0000ff;stroke-width:1.5;"/>
    <path clip-path="url(#p344f1cec05)" d="M 174.823226 341.101574 
L 174.823226 230.709335 
" style="fill:none;stroke:#0000ff;stroke-width:1.5;"/>
    <path clip-path="url(#p344f1cec05)" d="M 187.726452 328.915228 
L 187.726452 207.98659 
" style="fill:none;stroke:#0000ff;stroke-width:1.5;"/>
    <path clip-path="url(#p344f1cec05)" d="M 192.887742 341.101574 
L 192.887742 230.709335 
" style="fill:none;stroke:#0000ff;stroke-width:1.5;"/>
    <path clip-path="url(#p344f1cec05)" d="M 195.468387 290.140637 
L 195.468387 142.033908 
" style="fill:none;stroke:#0000ff;stroke-width:1.5;"/>
    <path clip-path="url(#p344f1cec05)" d="M 203.210323 341.101574 
L 203.210323 230.709335 
" style="fill:none;stroke:#0000ff;stroke-width:1.5;"/>
    <path clip-path="url(#p344f1cec05)" d="M 205.790968 263.047257 
L 205.790968 99.309107 
" style="fill:none;stroke:#0000ff;stroke-width:1.5;"/>
    <path clip-path="url(#p344f1cec05)" d="M 208.371613 328.915228 
L 208.371613 207.98659 
" style="fill:none;stroke:#0000ff;stroke-width:1.5;"/>
    <path clip-path="url(#p344f1cec05)" d="M 213.532903 303.36 
L 213.532903 163.723636 
" style="fill:none;stroke:#0000ff;stroke-width:1.5;"/>
    <path clip-path="url(#p344f1cec05)" d="M 218.694194 346.6 
L 218.694194 253.99109 
" style="fill:none;stroke:#0000ff;stroke-width:1.5;"/>
    <path clip-path="url(#p344f1cec05)" d="M 221.274839 290.140637 
L 221.274839 142.033908 
" style="fill:none;stroke:#0000ff;stroke-width:1.5;"/>
    <path clip-path="url(#p344f1cec05)" d="M 223.855484 341.101574 
L 223.855484 230.709335 
" style="fill:none;stroke:#0000ff;stroke-width:1.5;"/>
    <path clip-path="url(#p344f1cec05)" d="M 226.436129 303.36 
L 226.436129 163.723636 
" style="fill:none;stroke:#0000ff;stroke-width:1.5;"/>
    <path clip-path="url(#p344f1cec05)" d="M 229.016774 303.36 
L 229.016774 163.723636 
" style="fill:none;stroke:#0000ff;stroke-width:1.5;"/>
    <path clip-path="url(#p344f1cec05)" d="M 231.597419 316.305293 
L 231.597419 185.687435 
" style="fill:none;stroke:#0000ff;stroke-width:1.5;"/>
    <path clip-path="url(#p344f1cec05)" d="M 234.178065 328.915228 
L 234.178065 207.98659 
" style="fill:none;stroke:#0000ff;stroke-width:1.5;"/>
    <path clip-path="url(#p344f1cec05)" d="M 236.75871 346.6 
L 236.75871 253.99109 
" style="fill:none;stroke:#0000ff;stroke-width:1.5;"/>
    <path clip-path="url(#p344f1cec05)" d="M 239.339355 328.915228 
L 239.339355 207.98659 
" style="fill:none;stroke:#0000ff;stroke-width:1.5;"/>
    <path clip-path="url(#p344f1cec05)" d="M 241.92 276.691828 
L 241.92 120.573627 
" style="fill:none;stroke:#0000ff;stroke-width:1.5;"/>
    <path clip-path="url(#p344f1cec05)" d="M 247.08129 303.36 
L 247.08129 163.723636 
" style="fill:none;stroke:#0000ff;stroke-width:1.5;"/>
    <path clip-path="url(#p344f1cec05)" d="M 249.661935 303.36 
L 249.661935 163.723636 
" style="fill:none;stroke:#0000ff;stroke-width:1.5;"/>
    <path clip-path="url(#p344f1cec05)" d="M 252.242581 276.691828 
L 252.242581 120.573627 
" style="fill:none;stroke:#0000ff;stroke-width:1.5;"/>
    <path clip-path="url(#p344f1cec05)" d="M 254.823226 328.915228 
L 254.823226 207.98659 
" style="fill:none;stroke:#0000ff;stroke-width:1.5;"/>
    <path clip-path="url(#p344f1cec05)" d="M 257.403871 290.140637 
L 257.403871 142.033908 
" style="fill:none;stroke:#0000ff;stroke-width:1.5;"/>
    <path clip-path="url(#p344f1cec05)" d="M 259.984516 341.101574 
L 259.984516 230.709335 
" style="fill:none;stroke:#0000ff;stroke-width:1.5;"/>
    <path clip-path="url(#p344f1cec05)" d="M 262.565161 276.691828 
L 262.565161 120.573627 
" style="fill:none;stroke:#0000ff;stroke-width:1.5;"/>
    <path clip-path="url(#p344f1cec05)" d="M 265.145806 276.691828 
L 265.145806 120.573627 
" style="fill:none;stroke:#0000ff;stroke-width:1.5;"/>
    <path clip-path="url(#p344f1cec05)" d="M 267.726452 346.6 
L 267.726452 253.99109 
" style="fill:none;stroke:#0000ff;stroke-width:1.5;"/>
    <path clip-path="url(#p344f1cec05)" d="M 270.307097 303.36 
L 270.307097 163.723636 
" style="fill:none;stroke:#0000ff;stroke-width:1.5;"/>
    <path clip-path="url(#p344f1cec05)" d="M 275.468387 221.175318 
L 275.468387 36.453772 
" style="fill:none;stroke:#0000ff;stroke-width:1.5;"/>
    <path clip-path="url(#p344f1cec05)" d="M 278.049032 341.101574 
L 278.049032 230.709335 
" style="fill:none;stroke:#0000ff;stroke-width:1.5;"/>
    <path clip-path="url(#p344f1cec05)" d="M 280.629677 263.047257 
L 280.629677 99.309107 
" style="fill:none;stroke:#0000ff;stroke-width:1.5;"/>
    <path clip-path="url(#p344f1cec05)" d="M 283.210323 263.047257 
L 283.210323 99.309107 
" style="fill:none;stroke:#0000ff;stroke-width:1.5;"/>
    <path clip-path="url(#p344f1cec05)" d="M 285.790968 276.691828 
L 285.790968 120.573627 
" style="fill:none;stroke:#0000ff;stroke-width:1.5;"/>
    <path clip-path="url(#p344f1cec05)" d="M 288.371613 206.962483 
L 288.371613 15.757517 
" style="fill:none;stroke:#0000ff;stroke-width:1.5;"/>
    <path clip-path="url(#p344f1cec05)" d="M 290.952258 316.305293 
L 290.952258 185.687435 
" style="fill:none;stroke:#0000ff;stroke-width:1.5;"/>
    <path clip-path="url(#p344f1cec05)" d="M 293.532903 235.270159 
L 293.532903 57.268023 
" style="fill:none;stroke:#0000ff;stroke-width:1.5;"/>
    <path clip-path="url(#p344f1cec05)" d="M 296.113548 303.36 
L 296.113548 163.723636 
" style="fill:none;stroke:#0000ff;stroke-width:1.5;"/>
    <path clip-path="url(#p344f1cec05)" d="M 298.694194 276.691828 
L 298.694194 120.573627 
" style="fill:none;stroke:#0000ff;stroke-width:1.5;"/>
    <path clip-path="url(#p344f1cec05)" d="M 301.274839 303.36 
L 301.274839 163.723636 
" style="fill:none;stroke:#0000ff;stroke-width:1.5;"/>
    <path clip-path="url(#p344f1cec05)" d="M 303.855484 235.270159 
L 303.855484 57.268023 
" style="fill:none;stroke:#0000ff;stroke-width:1.5;"/>
    <path clip-path="url(#p344f1cec05)" d="M 306.436129 276.691828 
L 306.436129 120.573627 
" style="fill:none;stroke:#0000ff;stroke-width:1.5;"/>
    <path clip-path="url(#p344f1cec05)" d="M 309.016774 303.36 
L 309.016774 163.723636 
" style="fill:none;stroke:#0000ff;stroke-width:1.5;"/>
    <path clip-path="url(#p344f1cec05)" d="M 311.597419 346.6 
L 311.597419 253.99109 
" style="fill:none;stroke:#0000ff;stroke-width:1.5;"/>
    <path clip-path="url(#p344f1cec05)" d="M 314.178065 316.305293 
L 314.178065 185.687435 
" style="fill:none;stroke:#0000ff;stroke-width:1.5;"/>
    <path clip-path="url(#p344f1cec05)" d="M 316.75871 346.6 
L 316.75871 253.99109 
" style="fill:none;stroke:#0000ff;stroke-width:1.5;"/>
    <path clip-path="url(#p344f1cec05)" d="M 319.339355 341.101574 
L 319.339355 230.709335 
" style="fill:none;stroke:#0000ff;stroke-width:1.5;"/>
    <path clip-path="url(#p344f1cec05)" d="M 321.92 341.101574 
L 321.92 230.709335 
" style="fill:none;stroke:#0000ff;stroke-width:1.5;"/>
    <path clip-path="url(#p344f1cec05)" d="M 324.500645 328.915228 
L 324.500645 207.98659 
" style="fill:none;stroke:#0000ff;stroke-width:1.5;"/>
    <path clip-path="url(#p344f1cec05)" d="M 327.08129 341.101574 
L 327.08129 230.709335 
" style="fill:none;stroke:#0000ff;stroke-width:1.5;"/>
    <path clip-path="url(#p344f1cec05)" d="M 329.661935 276.691828 
L 329.661935 120.573627 
" style="fill:none;stroke:#0000ff;stroke-width:1.5;"/>
    <path clip-path="url(#p344f1cec05)" d="M 332.242581 341.101574 
L 332.242581 230.709335 
" style="fill:none;stroke:#0000ff;stroke-width:1.5;"/>
    <path clip-path="url(#p344f1cec05)" d="M 337.403871 316.305293 
L 337.403871 185.687435 
" style="fill:none;stroke:#0000ff;stroke-width:1.5;"/>
    <path clip-path="url(#p344f1cec05)" d="M 339.984516 346.6 
L 339.984516 253.99109 
" style="fill:none;stroke:#0000ff;stroke-width:1.5;"/>
    <path clip-path="url(#p344f1cec05)" d="M 342.565161 328.915228 
L 342.565161 207.98659 
" style="fill:none;stroke:#0000ff;stroke-width:1.5;"/>
    <path clip-path="url(#p344f1cec05)" d="M 345.145806 346.6 
L 345.145806 253.99109 
" style="fill:none;stroke:#0000ff;stroke-width:1.5;"/>
    <path clip-path="url(#p344f1cec05)" d="M 347.726452 290.140637 
L 347.726452 142.033908 
" style="fill:none;stroke:#0000ff;stroke-width:1.5;"/>
    <path clip-path="url(#p344f1cec05)" d="M 350.307097 303.36 
L 350.307097 163.723636 
" style="fill:none;stroke:#0000ff;stroke-width:1.5;"/>
    <path clip-path="url(#p344f1cec05)" d="M 352.887742 290.140637 
L 352.887742 142.033908 
" style="fill:none;stroke:#0000ff;stroke-width:1.5;"/>
    <path clip-path="url(#p344f1cec05)" d="M 355.468387 341.101574 
L 355.468387 230.709335 
" style="fill:none;stroke:#0000ff;stroke-width:1.5;"/>
    <path clip-path="url(#p344f1cec05)" d="M 358.049032 346.6 
L 358.049032 253.99109 
" style="fill:none;stroke:#0000ff;stroke-width:1.5;"/>
    <path clip-path="url(#p344f1cec05)" d="M 360.629677 346.6 
L 360.629677 253.99109 
" style="fill:none;stroke:#0000ff;stroke-width:1.5;"/>
    <path clip-path="url(#p344f1cec05)" d="M 363.210323 346.6 
L 363.210323 253.99109 
" style="fill:none;stroke:#0000ff;stroke-width:1.5;"/>
    <path clip-path="url(#p344f1cec05)" d="M 365.790968 341.101574 
L 365.790968 230.709335 
" style="fill:none;stroke:#0000ff;stroke-width:1.5;"/>
    <path clip-path="url(#p344f1cec05)" d="M 368.371613 346.6 
L 368.371613 253.99109 
" style="fill:none;stroke:#0000ff;stroke-width:1.5;"/>
    <path clip-path="url(#p344f1cec05)" d="M 373.532903 316.305293 
L 373.532903 185.687435 
" style="fill:none;stroke:#0000ff;stroke-width:1.5;"/>
    <path clip-path="url(#p344f1cec05)" d="M 378.694194 341.101574 
L 378.694194 230.709335 
" style="fill:none;stroke:#0000ff;stroke-width:1.5;"/>
    <path clip-path="url(#p344f1cec05)" d="M 383.855484 346.6 
L 383.855484 253.99109 
" style="fill:none;stroke:#0000ff;stroke-width:1.5;"/>
    <path clip-path="url(#p344f1cec05)" d="M 389.016774 346.6 
L 389.016774 253.99109 
" style="fill:none;stroke:#0000ff;stroke-width:1.5;"/>
    <path clip-path="url(#p344f1cec05)" d="M 399.339355 341.101574 
L 399.339355 230.709335 
" style="fill:none;stroke:#0000ff;stroke-width:1.5;"/>
    <path clip-path="url(#p344f1cec05)" d="M 401.92 346.6 
L 401.92 253.99109 
" style="fill:none;stroke:#0000ff;stroke-width:1.5;"/>
   </g>
   <g id="line2d_20">
    <path clip-path="url(#p344f1cec05)" d="M 81.92 289.952297 
L 145.663744 289.842535 
L 158.476557 289.593561 
L 167.125205 289.208079 
L 173.851932 288.689402 
L 179.617698 288.01807 
L 184.422503 287.245036 
L 188.906987 286.304398 
L 193.071151 285.204988 
L 196.914995 283.967547 
L 200.758839 282.490575 
L 204.282362 280.906896 
L 207.805886 279.088575 
L 211.329409 277.025479 
L 214.852933 274.712937 
L 218.696777 271.90823 
L 222.540621 268.822431 
L 226.704785 265.19234 
L 231.50959 260.69811 
L 238.236316 254.061143 
L 247.205285 245.233044 
L 251.68977 241.150342 
L 255.213293 238.232012 
L 258.416496 235.865949 
L 261.299379 234.012799 
L 263.861942 232.6127 
L 266.424505 231.465881 
L 268.666747 230.683189 
L 270.908989 230.115735 
L 273.151231 229.769866 
L 275.393473 229.649469 
L 277.635716 229.755902 
L 279.877958 230.087964 
L 282.1202 230.641922 
L 284.362442 231.41158 
L 286.925005 232.544244 
L 289.487568 233.931162 
L 292.37045 235.770857 
L 295.253333 237.87527 
L 298.456537 240.48023 
L 302.30038 243.904187 
L 307.105185 248.502823 
L 324.082162 265.067289 
L 328.566647 268.974679 
L 332.41049 272.047635 
L 336.254334 274.8386 
L 339.777858 277.138233 
L 343.301381 279.188508 
L 346.824905 280.99441 
L 350.348428 282.566318 
L 354.192272 284.031402 
L 358.036116 285.258103 
L 362.20028 286.347261 
L 366.684765 287.278483 
L 371.48957 288.043218 
L 376.935015 288.676063 
L 383.341421 289.179933 
L 391.029109 289.546358 
L 401.279359 289.791591 
L 401.92 289.801031 
L 401.92 289.801031 
" style="fill:none;stroke:#ff0000;stroke-linecap:square;stroke-width:1.5;"/>
   </g>
   <g id="line2d_21">
    <g clip-path="url(#p344f1cec05)">
     <use style="fill:#0000ff;stroke:#0000ff;" x="81.92" xlink:href="#mfd7817e514" y="285.905455"/>
     <use style="fill:#0000ff;stroke:#0000ff;" x="138.694194" xlink:href="#mfd7817e514" y="303.36"/>
     <use style="fill:#0000ff;stroke:#0000ff;" x="141.274839" xlink:href="#mfd7817e514" y="303.36"/>
     <use style="fill:#0000ff;stroke:#0000ff;" x="143.855484" xlink:href="#mfd7817e514" y="285.905455"/>
     <use style="fill:#0000ff;stroke:#0000ff;" x="146.436129" xlink:href="#mfd7817e514" y="303.36"/>
     <use style="fill:#0000ff;stroke:#0000ff;" x="149.016774" xlink:href="#mfd7817e514" y="268.450909"/>
     <use style="fill:#0000ff;stroke:#0000ff;" x="151.597419" xlink:href="#mfd7817e514" y="250.996364"/>
     <use style="fill:#0000ff;stroke:#0000ff;" x="154.178065" xlink:href="#mfd7817e514" y="303.36"/>
     <use style="fill:#0000ff;stroke:#0000ff;" x="174.823226" xlink:href="#mfd7817e514" y="285.905455"/>
     <use style="fill:#0000ff;stroke:#0000ff;" x="187.726452" xlink:href="#mfd7817e514" y="268.450909"/>
     <use style="fill:#0000ff;stroke:#0000ff;" x="192.887742" xlink:href="#mfd7817e514" y="285.905455"/>
     <use style="fill:#0000ff;stroke:#0000ff;" x="195.468387" xlink:href="#mfd7817e514" y="216.087273"/>
     <use style="fill:#0000ff;stroke:#0000ff;" x="203.210323" xlink:href="#mfd7817e514" y="285.905455"/>
     <use style="fill:#0000ff;stroke:#0000ff;" x="205.790968" xlink:href="#mfd7817e514" y="181.178182"/>
     <use style="fill:#0000ff;stroke:#0000ff;" x="208.371613" xlink:href="#mfd7817e514" y="268.450909"/>
     <use style="fill:#0000ff;stroke:#0000ff;" x="213.532903" xlink:href="#mfd7817e514" y="233.541818"/>
     <use style="fill:#0000ff;stroke:#0000ff;" x="218.694194" xlink:href="#mfd7817e514" y="303.36"/>
     <use style="fill:#0000ff;stroke:#0000ff;" x="221.274839" xlink:href="#mfd7817e514" y="216.087273"/>
     <use style="fill:#0000ff;stroke:#0000ff;" x="223.855484" xlink:href="#mfd7817e514" y="285.905455"/>
     <use style="fill:#0000ff;stroke:#0000ff;" x="226.436129" xlink:href="#mfd7817e514" y="233.541818"/>
     <use style="fill:#0000ff;stroke:#0000ff;" x="229.016774" xlink:href="#mfd7817e514" y="233.541818"/>
     <use style="fill:#0000ff;stroke:#0000ff;" x="231.597419" xlink:href="#mfd7817e514" y="250.996364"/>
     <use style="fill:#0000ff;stroke:#0000ff;" x="234.178065" xlink:href="#mfd7817e514" y="268.450909"/>
     <use style="fill:#0000ff;stroke:#0000ff;" x="236.75871" xlink:href="#mfd7817e514" y="303.36"/>
     <use style="fill:#0000ff;stroke:#0000ff;" x="239.339355" xlink:href="#mfd7817e514" y="268.450909"/>
     <use style="fill:#0000ff;stroke:#0000ff;" x="241.92" xlink:href="#mfd7817e514" y="198.632727"/>
     <use style="fill:#0000ff;stroke:#0000ff;" x="247.08129" xlink:href="#mfd7817e514" y="233.541818"/>
     <use style="fill:#0000ff;stroke:#0000ff;" x="249.661935" xlink:href="#mfd7817e514" y="233.541818"/>
     <use style="fill:#0000ff;stroke:#0000ff;" x="252.242581" xlink:href="#mfd7817e514" y="198.632727"/>
     <use style="fill:#0000ff;stroke:#0000ff;" x="254.823226" xlink:href="#mfd7817e514" y="268.450909"/>
     <use style="fill:#0000ff;stroke:#0000ff;" x="257.403871" xlink:href="#mfd7817e514" y="216.087273"/>
     <use style="fill:#0000ff;stroke:#0000ff;" x="259.984516" xlink:href="#mfd7817e514" y="285.905455"/>
     <use style="fill:#0000ff;stroke:#0000ff;" x="262.565161" xlink:href="#mfd7817e514" y="198.632727"/>
     <use style="fill:#0000ff;stroke:#0000ff;" x="265.145806" xlink:href="#mfd7817e514" y="198.632727"/>
     <use style="fill:#0000ff;stroke:#0000ff;" x="267.726452" xlink:href="#mfd7817e514" y="303.36"/>
     <use style="fill:#0000ff;stroke:#0000ff;" x="270.307097" xlink:href="#mfd7817e514" y="233.541818"/>
     <use style="fill:#0000ff;stroke:#0000ff;" x="275.468387" xlink:href="#mfd7817e514" y="128.814545"/>
     <use style="fill:#0000ff;stroke:#0000ff;" x="278.049032" xlink:href="#mfd7817e514" y="285.905455"/>
     <use style="fill:#0000ff;stroke:#0000ff;" x="280.629677" xlink:href="#mfd7817e514" y="181.178182"/>
     <use style="fill:#0000ff;stroke:#0000ff;" x="283.210323" xlink:href="#mfd7817e514" y="181.178182"/>
     <use style="fill:#0000ff;stroke:#0000ff;" x="285.790968" xlink:href="#mfd7817e514" y="198.632727"/>
     <use style="fill:#0000ff;stroke:#0000ff;" x="288.371613" xlink:href="#mfd7817e514" y="111.36"/>
     <use style="fill:#0000ff;stroke:#0000ff;" x="290.952258" xlink:href="#mfd7817e514" y="250.996364"/>
     <use style="fill:#0000ff;stroke:#0000ff;" x="293.532903" xlink:href="#mfd7817e514" y="146.269091"/>
     <use style="fill:#0000ff;stroke:#0000ff;" x="296.113548" xlink:href="#mfd7817e514" y="233.541818"/>
     <use style="fill:#0000ff;stroke:#0000ff;" x="298.694194" xlink:href="#mfd7817e514" y="198.632727"/>
     <use style="fill:#0000ff;stroke:#0000ff;" x="301.274839" xlink:href="#mfd7817e514" y="233.541818"/>
     <use style="fill:#0000ff;stroke:#0000ff;" x="303.855484" xlink:href="#mfd7817e514" y="146.269091"/>
     <use style="fill:#0000ff;stroke:#0000ff;" x="306.436129" xlink:href="#mfd7817e514" y="198.632727"/>
     <use style="fill:#0000ff;stroke:#0000ff;" x="309.016774" xlink:href="#mfd7817e514" y="233.541818"/>
     <use style="fill:#0000ff;stroke:#0000ff;" x="311.597419" xlink:href="#mfd7817e514" y="303.36"/>
     <use style="fill:#0000ff;stroke:#0000ff;" x="314.178065" xlink:href="#mfd7817e514" y="250.996364"/>
     <use style="fill:#0000ff;stroke:#0000ff;" x="316.75871" xlink:href="#mfd7817e514" y="303.36"/>
     <use style="fill:#0000ff;stroke:#0000ff;" x="319.339355" xlink:href="#mfd7817e514" y="285.905455"/>
     <use style="fill:#0000ff;stroke:#0000ff;" x="321.92" xlink:href="#mfd7817e514" y="285.905455"/>
     <use style="fill:#0000ff;stroke:#0000ff;" x="324.500645" xlink:href="#mfd7817e514" y="268.450909"/>
     <use style="fill:#0000ff;stroke:#0000ff;" x="327.08129" xlink:href="#mfd7817e514" y="285.905455"/>
     <use style="fill:#0000ff;stroke:#0000ff;" x="329.661935" xlink:href="#mfd7817e514" y="198.632727"/>
     <use style="fill:#0000ff;stroke:#0000ff;" x="332.242581" xlink:href="#mfd7817e514" y="285.905455"/>
     <use style="fill:#0000ff;stroke:#0000ff;" x="337.403871" xlink:href="#mfd7817e514" y="250.996364"/>
     <use style="fill:#0000ff;stroke:#0000ff;" x="339.984516" xlink:href="#mfd7817e514" y="303.36"/>
     <use style="fill:#0000ff;stroke:#0000ff;" x="342.565161" xlink:href="#mfd7817e514" y="268.450909"/>
     <use style="fill:#0000ff;stroke:#0000ff;" x="345.145806" xlink:href="#mfd7817e514" y="303.36"/>
     <use style="fill:#0000ff;stroke:#0000ff;" x="347.726452" xlink:href="#mfd7817e514" y="216.087273"/>
     <use style="fill:#0000ff;stroke:#0000ff;" x="350.307097" xlink:href="#mfd7817e514" y="233.541818"/>
     <use style="fill:#0000ff;stroke:#0000ff;" x="352.887742" xlink:href="#mfd7817e514" y="216.087273"/>
     <use style="fill:#0000ff;stroke:#0000ff;" x="355.468387" xlink:href="#mfd7817e514" y="285.905455"/>
     <use style="fill:#0000ff;stroke:#0000ff;" x="358.049032" xlink:href="#mfd7817e514" y="303.36"/>
     <use style="fill:#0000ff;stroke:#0000ff;" x="360.629677" xlink:href="#mfd7817e514" y="303.36"/>
     <use style="fill:#0000ff;stroke:#0000ff;" x="363.210323" xlink:href="#mfd7817e514" y="303.36"/>
     <use style="fill:#0000ff;stroke:#0000ff;" x="365.790968" xlink:href="#mfd7817e514" y="285.905455"/>
     <use style="fill:#0000ff;stroke:#0000ff;" x="368.371613" xlink:href="#mfd7817e514" y="303.36"/>
     <use style="fill:#0000ff;stroke:#0000ff;" x="373.532903" xlink:href="#mfd7817e514" y="250.996364"/>
     <use style="fill:#0000ff;stroke:#0000ff;" x="378.694194" xlink:href="#mfd7817e514" y="285.905455"/>
     <use style="fill:#0000ff;stroke:#0000ff;" x="383.855484" xlink:href="#mfd7817e514" y="303.36"/>
     <use style="fill:#0000ff;stroke:#0000ff;" x="389.016774" xlink:href="#mfd7817e514" y="303.36"/>
     <use style="fill:#0000ff;stroke:#0000ff;" x="399.339355" xlink:href="#mfd7817e514" y="285.905455"/>
     <use style="fill:#0000ff;stroke:#0000ff;" x="401.92" xlink:href="#mfd7817e514" y="303.36"/>
    </g>
   </g>
   <g id="patch_8">
    <path d="M 69.12 311.04 
L 69.12 103.68 
" style="fill:none;stroke:#000000;stroke-linecap:square;stroke-linejoin:miter;stroke-width:0.8;"/>
   </g>
   <g id="patch_9">
    <path d="M 414.72 311.04 
L 414.72 103.68 
" style="fill:none;stroke:#000000;stroke-linecap:square;stroke-linejoin:miter;stroke-width:0.8;"/>
   </g>
   <g id="patch_10">
    <path d="M 69.12 311.04 
L 414.72 311.04 
" style="fill:none;stroke:#000000;stroke-linecap:square;stroke-linejoin:miter;stroke-width:0.8;"/>
   </g>
   <g id="patch_11">
    <path d="M 69.12 103.68 
L 414.72 103.68 
" style="fill:none;stroke:#000000;stroke-linecap:square;stroke-linejoin:miter;stroke-width:0.8;"/>
   </g>
  </g>
 </g>
 <defs>
  <clipPath id="p61cee64f46">
   <rect height="51.84" width="345.6" x="69.12" y="44.928"/>
  </clipPath>
  <clipPath id="p344f1cec05">
   <rect height="207.36" width="345.6" x="69.12" y="103.68"/>
  </clipPath>
 </defs>
</svg>
