<?xml version="1.0" encoding="utf-8" standalone="no"?>
<!DOCTYPE svg PUBLIC "-//W3C//DTD SVG 1.1//EN"
  "http://www.w3.org/Graphics/SVG/1.1/DTD/svg11.dtd">
<!-- Created with matplotlib (http://matplotlib.org/) -->
<svg height="345pt" version="1.1" viewBox="0 0 460 345" width="460pt" xmlns="http://www.w3.org/2000/svg" xmlns:xlink="http://www.w3.org/1999/xlink">
 <defs>
  <style type="text/css">
*{stroke-linecap:butt;stroke-linejoin:round;}
  </style>
 </defs>
 <g id="figure_1">
  <g id="patch_1">
   <path d="M 0 345.6 
L 460.8 345.6 
L 460.8 0 
L 0 0 
z
" style="fill:#ffffff;"/>
  </g>
  <g id="axes_1">
   <g id="patch_2">
    <path d="M 69.12 96.768 
L 414.72 96.768 
L 414.72 44.928 
L 69.12 44.928 
z
" style="fill:#ffffff;"/>
   </g>
   <g id="matplotlib.axis_1">
    <g id="xtick_1">
     <g id="line2d_1">
      <defs>
       <path d="M 0 0 
L 0 3.5 
" id="m39c4d3120e" style="stroke:#000000;stroke-width:0.8;"/>
      </defs>
      <g>
       <use style="stroke:#000000;stroke-width:0.8;" x="119.725902" xlink:href="#m39c4d3120e" y="96.768"/>
      </g>
     </g>
    </g>
    <g id="xtick_2">
     <g id="line2d_2">
      <g>
       <use style="stroke:#000000;stroke-width:0.8;" x="171.951593" xlink:href="#m39c4d3120e" y="96.768"/>
      </g>
     </g>
    </g>
    <g id="xtick_3">
     <g id="line2d_3">
      <g>
       <use style="stroke:#000000;stroke-width:0.8;" x="224.177284" xlink:href="#m39c4d3120e" y="96.768"/>
      </g>
     </g>
    </g>
    <g id="xtick_4">
     <g id="line2d_4">
      <g>
       <use style="stroke:#000000;stroke-width:0.8;" x="276.402975" xlink:href="#m39c4d3120e" y="96.768"/>
      </g>
     </g>
    </g>
    <g id="xtick_5">
     <g id="line2d_5">
      <g>
       <use style="stroke:#000000;stroke-width:0.8;" x="328.628666" xlink:href="#m39c4d3120e" y="96.768"/>
      </g>
     </g>
    </g>
    <g id="xtick_6">
     <g id="line2d_6">
      <g>
       <use style="stroke:#000000;stroke-width:0.8;" x="380.854357" xlink:href="#m39c4d3120e" y="96.768"/>
      </g>
     </g>
    </g>
   </g>
   <g id="matplotlib.axis_2">
    <g id="ytick_1">
     <g id="line2d_7">
      <defs>
       <path d="M 0 0 
L -3.5 0 
" id="md5e0549e47" style="stroke:#000000;stroke-width:0.8;"/>
      </defs>
      <g>
       <use style="stroke:#000000;stroke-width:0.8;" x="69.12" xlink:href="#md5e0549e47" y="82.969307"/>
      </g>
     </g>
     <g id="text_1">
      <!-- −1 -->
      <defs>
       <path d="M 10.59375 35.5 
L 73.1875 35.5 
L 73.1875 27.203125 
L 10.59375 27.203125 
z
" id="DejaVuSans-2212"/>
       <path d="M 12.40625 8.296875 
L 28.515625 8.296875 
L 28.515625 63.921875 
L 10.984375 60.40625 
L 10.984375 69.390625 
L 28.421875 72.90625 
L 38.28125 72.90625 
L 38.28125 8.296875 
L 54.390625 8.296875 
L 54.390625 0 
L 12.40625 0 
z
" id="DejaVuSans-31"/>
      </defs>
      <g transform="translate(40.006719 88.668135)scale(0.15 -0.15)">
       <use xlink:href="#DejaVuSans-2212"/>
       <use x="83.789062" xlink:href="#DejaVuSans-31"/>
      </g>
     </g>
    </g>
    <g id="ytick_2">
     <g id="line2d_8">
      <g>
       <use style="stroke:#000000;stroke-width:0.8;" x="69.12" xlink:href="#md5e0549e47" y="68.349087"/>
      </g>
     </g>
    </g>
    <g id="ytick_3">
     <g id="line2d_9">
      <g>
       <use style="stroke:#000000;stroke-width:0.8;" x="69.12" xlink:href="#md5e0549e47" y="53.728866"/>
      </g>
     </g>
     <g id="text_2">
      <!-- 1 -->
      <g transform="translate(52.57625 59.427695)scale(0.15 -0.15)">
       <use xlink:href="#DejaVuSans-31"/>
      </g>
     </g>
    </g>
    <g id="text_3">
     <!-- Studentized -->
     <defs>
      <path d="M 53.515625 70.515625 
L 53.515625 60.890625 
Q 47.90625 63.578125 42.921875 64.890625 
Q 37.9375 66.21875 33.296875 66.21875 
Q 25.25 66.21875 20.875 63.09375 
Q 16.5 59.96875 16.5 54.203125 
Q 16.5 49.359375 19.40625 46.890625 
Q 22.3125 44.4375 30.421875 42.921875 
L 36.375 41.703125 
Q 47.40625 39.59375 52.65625 34.296875 
Q 57.90625 29 57.90625 20.125 
Q 57.90625 9.515625 50.796875 4.046875 
Q 43.703125 -1.421875 29.984375 -1.421875 
Q 24.8125 -1.421875 18.96875 -0.25 
Q 13.140625 0.921875 6.890625 3.21875 
L 6.890625 13.375 
Q 12.890625 10.015625 18.65625 8.296875 
Q 24.421875 6.59375 29.984375 6.59375 
Q 38.421875 6.59375 43.015625 9.90625 
Q 47.609375 13.234375 47.609375 19.390625 
Q 47.609375 24.75 44.3125 27.78125 
Q 41.015625 30.8125 33.5 32.328125 
L 27.484375 33.5 
Q 16.453125 35.6875 11.515625 40.375 
Q 6.59375 45.0625 6.59375 53.421875 
Q 6.59375 63.09375 13.40625 68.65625 
Q 20.21875 74.21875 32.171875 74.21875 
Q 37.3125 74.21875 42.625 73.28125 
Q 47.953125 72.359375 53.515625 70.515625 
z
" id="DejaVuSans-53"/>
      <path d="M 18.3125 70.21875 
L 18.3125 54.6875 
L 36.8125 54.6875 
L 36.8125 47.703125 
L 18.3125 47.703125 
L 18.3125 18.015625 
Q 18.3125 11.328125 20.140625 9.421875 
Q 21.96875 7.515625 27.59375 7.515625 
L 36.8125 7.515625 
L 36.8125 0 
L 27.59375 0 
Q 17.1875 0 13.234375 3.875 
Q 9.28125 7.765625 9.28125 18.015625 
L 9.28125 47.703125 
L 2.6875 47.703125 
L 2.6875 54.6875 
L 9.28125 54.6875 
L 9.28125 70.21875 
z
" id="DejaVuSans-74"/>
      <path d="M 8.5 21.578125 
L 8.5 54.6875 
L 17.484375 54.6875 
L 17.484375 21.921875 
Q 17.484375 14.15625 20.5 10.265625 
Q 23.53125 6.390625 29.59375 6.390625 
Q 36.859375 6.390625 41.078125 11.03125 
Q 45.3125 15.671875 45.3125 23.6875 
L 45.3125 54.6875 
L 54.296875 54.6875 
L 54.296875 0 
L 45.3125 0 
L 45.3125 8.40625 
Q 42.046875 3.421875 37.71875 1 
Q 33.40625 -1.421875 27.6875 -1.421875 
Q 18.265625 -1.421875 13.375 4.4375 
Q 8.5 10.296875 8.5 21.578125 
z
M 31.109375 56 
z
" id="DejaVuSans-75"/>
      <path d="M 45.40625 46.390625 
L 45.40625 75.984375 
L 54.390625 75.984375 
L 54.390625 0 
L 45.40625 0 
L 45.40625 8.203125 
Q 42.578125 3.328125 38.25 0.953125 
Q 33.9375 -1.421875 27.875 -1.421875 
Q 17.96875 -1.421875 11.734375 6.484375 
Q 5.515625 14.40625 5.515625 27.296875 
Q 5.515625 40.1875 11.734375 48.09375 
Q 17.96875 56 27.875 56 
Q 33.9375 56 38.25 53.625 
Q 42.578125 51.265625 45.40625 46.390625 
z
M 14.796875 27.296875 
Q 14.796875 17.390625 18.875 11.75 
Q 22.953125 6.109375 30.078125 6.109375 
Q 37.203125 6.109375 41.296875 11.75 
Q 45.40625 17.390625 45.40625 27.296875 
Q 45.40625 37.203125 41.296875 42.84375 
Q 37.203125 48.484375 30.078125 48.484375 
Q 22.953125 48.484375 18.875 42.84375 
Q 14.796875 37.203125 14.796875 27.296875 
z
" id="DejaVuSans-64"/>
      <path d="M 56.203125 29.59375 
L 56.203125 25.203125 
L 14.890625 25.203125 
Q 15.484375 15.921875 20.484375 11.0625 
Q 25.484375 6.203125 34.421875 6.203125 
Q 39.59375 6.203125 44.453125 7.46875 
Q 49.3125 8.734375 54.109375 11.28125 
L 54.109375 2.78125 
Q 49.265625 0.734375 44.1875 -0.34375 
Q 39.109375 -1.421875 33.890625 -1.421875 
Q 20.796875 -1.421875 13.15625 6.1875 
Q 5.515625 13.8125 5.515625 26.8125 
Q 5.515625 40.234375 12.765625 48.109375 
Q 20.015625 56 32.328125 56 
Q 43.359375 56 49.78125 48.890625 
Q 56.203125 41.796875 56.203125 29.59375 
z
M 47.21875 32.234375 
Q 47.125 39.59375 43.09375 43.984375 
Q 39.0625 48.390625 32.421875 48.390625 
Q 24.90625 48.390625 20.390625 44.140625 
Q 15.875 39.890625 15.1875 32.171875 
z
" id="DejaVuSans-65"/>
      <path d="M 54.890625 33.015625 
L 54.890625 0 
L 45.90625 0 
L 45.90625 32.71875 
Q 45.90625 40.484375 42.875 44.328125 
Q 39.84375 48.1875 33.796875 48.1875 
Q 26.515625 48.1875 22.3125 43.546875 
Q 18.109375 38.921875 18.109375 30.90625 
L 18.109375 0 
L 9.078125 0 
L 9.078125 54.6875 
L 18.109375 54.6875 
L 18.109375 46.1875 
Q 21.34375 51.125 25.703125 53.5625 
Q 30.078125 56 35.796875 56 
Q 45.21875 56 50.046875 50.171875 
Q 54.890625 44.34375 54.890625 33.015625 
z
" id="DejaVuSans-6e"/>
      <path d="M 9.421875 54.6875 
L 18.40625 54.6875 
L 18.40625 0 
L 9.421875 0 
z
M 9.421875 75.984375 
L 18.40625 75.984375 
L 18.40625 64.59375 
L 9.421875 64.59375 
z
" id="DejaVuSans-69"/>
      <path d="M 5.515625 54.6875 
L 48.1875 54.6875 
L 48.1875 46.484375 
L 14.40625 7.171875 
L 48.1875 7.171875 
L 48.1875 0 
L 4.296875 0 
L 4.296875 8.203125 
L 38.09375 47.515625 
L 5.515625 47.515625 
z
" id="DejaVuSans-7a"/>
     </defs>
     <g transform="translate(16.090469 115.768313)rotate(-90)scale(0.15 -0.15)">
      <use xlink:href="#DejaVuSans-53"/>
      <use x="63.476562" xlink:href="#DejaVuSans-74"/>
      <use x="102.685547" xlink:href="#DejaVuSans-75"/>
      <use x="166.064453" xlink:href="#DejaVuSans-64"/>
      <use x="229.541016" xlink:href="#DejaVuSans-65"/>
      <use x="291.064453" xlink:href="#DejaVuSans-6e"/>
      <use x="354.443359" xlink:href="#DejaVuSans-74"/>
      <use x="393.652344" xlink:href="#DejaVuSans-69"/>
      <use x="421.435547" xlink:href="#DejaVuSans-7a"/>
      <use x="473.925781" xlink:href="#DejaVuSans-65"/>
      <use x="535.449219" xlink:href="#DejaVuSans-64"/>
     </g>
     <!-- Residuals -->
     <defs>
      <path d="M 44.390625 34.1875 
Q 47.5625 33.109375 50.5625 29.59375 
Q 53.5625 26.078125 56.59375 19.921875 
L 66.609375 0 
L 56 0 
L 46.6875 18.703125 
Q 43.0625 26.03125 39.671875 28.421875 
Q 36.28125 30.8125 30.421875 30.8125 
L 19.671875 30.8125 
L 19.671875 0 
L 9.8125 0 
L 9.8125 72.90625 
L 32.078125 72.90625 
Q 44.578125 72.90625 50.734375 67.671875 
Q 56.890625 62.453125 56.890625 51.90625 
Q 56.890625 45.015625 53.6875 40.46875 
Q 50.484375 35.9375 44.390625 34.1875 
z
M 19.671875 64.796875 
L 19.671875 38.921875 
L 32.078125 38.921875 
Q 39.203125 38.921875 42.84375 42.21875 
Q 46.484375 45.515625 46.484375 51.90625 
Q 46.484375 58.296875 42.84375 61.546875 
Q 39.203125 64.796875 32.078125 64.796875 
z
" id="DejaVuSans-52"/>
      <path d="M 44.28125 53.078125 
L 44.28125 44.578125 
Q 40.484375 46.53125 36.375 47.5 
Q 32.28125 48.484375 27.875 48.484375 
Q 21.1875 48.484375 17.84375 46.4375 
Q 14.5 44.390625 14.5 40.28125 
Q 14.5 37.15625 16.890625 35.375 
Q 19.28125 33.59375 26.515625 31.984375 
L 29.59375 31.296875 
Q 39.15625 29.25 43.1875 25.515625 
Q 47.21875 21.78125 47.21875 15.09375 
Q 47.21875 7.46875 41.1875 3.015625 
Q 35.15625 -1.421875 24.609375 -1.421875 
Q 20.21875 -1.421875 15.453125 -0.5625 
Q 10.6875 0.296875 5.421875 2 
L 5.421875 11.28125 
Q 10.40625 8.6875 15.234375 7.390625 
Q 20.0625 6.109375 24.8125 6.109375 
Q 31.15625 6.109375 34.5625 8.28125 
Q 37.984375 10.453125 37.984375 14.40625 
Q 37.984375 18.0625 35.515625 20.015625 
Q 33.0625 21.96875 24.703125 23.78125 
L 21.578125 24.515625 
Q 13.234375 26.265625 9.515625 29.90625 
Q 5.8125 33.546875 5.8125 39.890625 
Q 5.8125 47.609375 11.28125 51.796875 
Q 16.75 56 26.8125 56 
Q 31.78125 56 36.171875 55.265625 
Q 40.578125 54.546875 44.28125 53.078125 
z
" id="DejaVuSans-73"/>
      <path d="M 34.28125 27.484375 
Q 23.390625 27.484375 19.1875 25 
Q 14.984375 22.515625 14.984375 16.5 
Q 14.984375 11.71875 18.140625 8.90625 
Q 21.296875 6.109375 26.703125 6.109375 
Q 34.1875 6.109375 38.703125 11.40625 
Q 43.21875 16.703125 43.21875 25.484375 
L 43.21875 27.484375 
z
M 52.203125 31.203125 
L 52.203125 0 
L 43.21875 0 
L 43.21875 8.296875 
Q 40.140625 3.328125 35.546875 0.953125 
Q 30.953125 -1.421875 24.3125 -1.421875 
Q 15.921875 -1.421875 10.953125 3.296875 
Q 6 8.015625 6 15.921875 
Q 6 25.140625 12.171875 29.828125 
Q 18.359375 34.515625 30.609375 34.515625 
L 43.21875 34.515625 
L 43.21875 35.40625 
Q 43.21875 41.609375 39.140625 45 
Q 35.0625 48.390625 27.6875 48.390625 
Q 23 48.390625 18.546875 47.265625 
Q 14.109375 46.140625 10.015625 43.890625 
L 10.015625 52.203125 
Q 14.9375 54.109375 19.578125 55.046875 
Q 24.21875 56 28.609375 56 
Q 40.484375 56 46.34375 49.84375 
Q 52.203125 43.703125 52.203125 31.203125 
z
" id="DejaVuSans-61"/>
      <path d="M 9.421875 75.984375 
L 18.40625 75.984375 
L 18.40625 0 
L 9.421875 0 
z
" id="DejaVuSans-6c"/>
     </defs>
     <g transform="translate(32.887188 106.761281)rotate(-90)scale(0.15 -0.15)">
      <use xlink:href="#DejaVuSans-52"/>
      <use x="69.419922" xlink:href="#DejaVuSans-65"/>
      <use x="130.943359" xlink:href="#DejaVuSans-73"/>
      <use x="183.042969" xlink:href="#DejaVuSans-69"/>
      <use x="210.826172" xlink:href="#DejaVuSans-64"/>
      <use x="274.302734" xlink:href="#DejaVuSans-75"/>
      <use x="337.681641" xlink:href="#DejaVuSans-61"/>
      <use x="398.960938" xlink:href="#DejaVuSans-6c"/>
      <use x="426.744141" xlink:href="#DejaVuSans-73"/>
     </g>
    </g>
   </g>
   <g id="LineCollection_1">
    <path clip-path="url(#p48fe24018f)" d="M 81.92 83.175035 
L 81.92 53.934594 
" style="fill:none;stroke:#0000ff;stroke-width:1.5;"/>
    <path clip-path="url(#p48fe24018f)" d="M 112.987961 83.588779 
L 112.987961 54.348338 
" style="fill:none;stroke:#0000ff;stroke-width:1.5;"/>
    <path clip-path="url(#p48fe24018f)" d="M 122.30835 79.903859 
L 122.30835 50.663418 
" style="fill:none;stroke:#0000ff;stroke-width:1.5;"/>
    <path clip-path="url(#p48fe24018f)" d="M 128.521942 80.148699 
L 128.521942 50.908259 
" style="fill:none;stroke:#0000ff;stroke-width:1.5;"/>
    <path clip-path="url(#p48fe24018f)" d="M 134.735534 84.478441 
L 134.735534 55.238 
" style="fill:none;stroke:#0000ff;stroke-width:1.5;"/>
    <path clip-path="url(#p48fe24018f)" d="M 144.055922 81.073858 
L 144.055922 51.833418 
" style="fill:none;stroke:#0000ff;stroke-width:1.5;"/>
    <path clip-path="url(#p48fe24018f)" d="M 150.269515 81.601288 
L 150.269515 52.360848 
" style="fill:none;stroke:#0000ff;stroke-width:1.5;"/>
    <path clip-path="url(#p48fe24018f)" d="M 153.376311 86.040037 
L 153.376311 56.799597 
" style="fill:none;stroke:#0000ff;stroke-width:1.5;"/>
    <path clip-path="url(#p48fe24018f)" d="M 156.483107 82.236822 
L 156.483107 52.996382 
" style="fill:none;stroke:#0000ff;stroke-width:1.5;"/>
    <path clip-path="url(#p48fe24018f)" d="M 159.589903 82.598552 
L 159.589903 53.358112 
" style="fill:none;stroke:#0000ff;stroke-width:1.5;"/>
    <path clip-path="url(#p48fe24018f)" d="M 162.696699 87.21343 
L 162.696699 57.972989 
" style="fill:none;stroke:#0000ff;stroke-width:1.5;"/>
    <path clip-path="url(#p48fe24018f)" d="M 165.803495 83.415711 
L 165.803495 54.175271 
" style="fill:none;stroke:#0000ff;stroke-width:1.5;"/>
    <path clip-path="url(#p48fe24018f)" d="M 172.017087 84.363426 
L 172.017087 55.122986 
" style="fill:none;stroke:#0000ff;stroke-width:1.5;"/>
    <path clip-path="url(#p48fe24018f)" d="M 175.123883 81.10855 
L 175.123883 51.86811 
" style="fill:none;stroke:#0000ff;stroke-width:1.5;"/>
    <path clip-path="url(#p48fe24018f)" d="M 178.23068 81.630193 
L 178.23068 52.389753 
" style="fill:none;stroke:#0000ff;stroke-width:1.5;"/>
    <path clip-path="url(#p48fe24018f)" d="M 181.337476 90.502316 
L 181.337476 61.261876 
" style="fill:none;stroke:#0000ff;stroke-width:1.5;"/>
    <path clip-path="url(#p48fe24018f)" d="M 184.444272 73.445043 
L 184.444272 44.204603 
" style="fill:none;stroke:#0000ff;stroke-width:1.5;"/>
    <path clip-path="url(#p48fe24018f)" d="M 187.551068 76.797528 
L 187.551068 47.557088 
" style="fill:none;stroke:#0000ff;stroke-width:1.5;"/>
    <path clip-path="url(#p48fe24018f)" d="M 193.76466 93.394764 
L 193.76466 64.154324 
" style="fill:none;stroke:#0000ff;stroke-width:1.5;"/>
    <path clip-path="url(#p48fe24018f)" d="M 196.871456 89.45382 
L 196.871456 60.21338 
" style="fill:none;stroke:#0000ff;stroke-width:1.5;"/>
    <path clip-path="url(#p48fe24018f)" d="M 199.978252 90.217074 
L 199.978252 60.976634 
" style="fill:none;stroke:#0000ff;stroke-width:1.5;"/>
    <path clip-path="url(#p48fe24018f)" d="M 203.085049 79.881261 
L 203.085049 50.640821 
" style="fill:none;stroke:#0000ff;stroke-width:1.5;"/>
    <path clip-path="url(#p48fe24018f)" d="M 206.191845 83.866086 
L 206.191845 54.625646 
" style="fill:none;stroke:#0000ff;stroke-width:1.5;"/>
    <path clip-path="url(#p48fe24018f)" d="M 209.298641 88.33623 
L 209.298641 59.095789 
" style="fill:none;stroke:#0000ff;stroke-width:1.5;"/>
    <path clip-path="url(#p48fe24018f)" d="M 212.405437 93.435967 
L 212.405437 64.195527 
" style="fill:none;stroke:#0000ff;stroke-width:1.5;"/>
    <path clip-path="url(#p48fe24018f)" d="M 215.512233 82.609587 
L 215.512233 53.369147 
" style="fill:none;stroke:#0000ff;stroke-width:1.5;"/>
    <path clip-path="url(#p48fe24018f)" d="M 218.619029 72.196491 
L 218.619029 42.956051 
" style="fill:none;stroke:#0000ff;stroke-width:1.5;"/>
    <path clip-path="url(#p48fe24018f)" d="M 221.725825 66.196142 
L 221.725825 36.955702 
" style="fill:none;stroke:#0000ff;stroke-width:1.5;"/>
    <path clip-path="url(#p48fe24018f)" d="M 224.832621 71.002357 
L 224.832621 41.761916 
" style="fill:none;stroke:#0000ff;stroke-width:1.5;"/>
    <path clip-path="url(#p48fe24018f)" d="M 227.939417 71.541356 
L 227.939417 42.300915 
" style="fill:none;stroke:#0000ff;stroke-width:1.5;"/>
    <path clip-path="url(#p48fe24018f)" d="M 231.046214 93.622735 
L 231.046214 64.382295 
" style="fill:none;stroke:#0000ff;stroke-width:1.5;"/>
    <path clip-path="url(#p48fe24018f)" d="M 234.15301 70.313773 
L 234.15301 41.073333 
" style="fill:none;stroke:#0000ff;stroke-width:1.5;"/>
    <path clip-path="url(#p48fe24018f)" d="M 237.259806 68.634996 
L 237.259806 39.394556 
" style="fill:none;stroke:#0000ff;stroke-width:1.5;"/>
    <path clip-path="url(#p48fe24018f)" d="M 240.366602 81.335507 
L 240.366602 52.095066 
" style="fill:none;stroke:#0000ff;stroke-width:1.5;"/>
    <path clip-path="url(#p48fe24018f)" d="M 243.473398 84.871738 
L 243.473398 55.631298 
" style="fill:none;stroke:#0000ff;stroke-width:1.5;"/>
    <path clip-path="url(#p48fe24018f)" d="M 246.580194 82.238525 
L 246.580194 52.998085 
" style="fill:none;stroke:#0000ff;stroke-width:1.5;"/>
    <path clip-path="url(#p48fe24018f)" d="M 249.68699 102.059756 
L 249.68699 72.819315 
" style="fill:none;stroke:#0000ff;stroke-width:1.5;"/>
    <path clip-path="url(#p48fe24018f)" d="M 252.793786 82.971986 
L 252.793786 53.731546 
" style="fill:none;stroke:#0000ff;stroke-width:1.5;"/>
    <path clip-path="url(#p48fe24018f)" d="M 255.900583 66.603837 
L 255.900583 37.363396 
" style="fill:none;stroke:#0000ff;stroke-width:1.5;"/>
    <path clip-path="url(#p48fe24018f)" d="M 259.007379 80.621869 
L 259.007379 51.381428 
" style="fill:none;stroke:#0000ff;stroke-width:1.5;"/>
    <path clip-path="url(#p48fe24018f)" d="M 262.114175 61.46822 
L 262.114175 32.22778 
" style="fill:none;stroke:#0000ff;stroke-width:1.5;"/>
    <path clip-path="url(#p48fe24018f)" d="M 265.220971 71.159415 
L 265.220971 41.918975 
" style="fill:none;stroke:#0000ff;stroke-width:1.5;"/>
    <path clip-path="url(#p48fe24018f)" d="M 268.327767 81.007861 
L 268.327767 51.767421 
" style="fill:none;stroke:#0000ff;stroke-width:1.5;"/>
    <path clip-path="url(#p48fe24018f)" d="M 271.434563 87.09231 
L 271.434563 57.85187 
" style="fill:none;stroke:#0000ff;stroke-width:1.5;"/>
    <path clip-path="url(#p48fe24018f)" d="M 274.541359 75.789657 
L 274.541359 46.549217 
" style="fill:none;stroke:#0000ff;stroke-width:1.5;"/>
    <path clip-path="url(#p48fe24018f)" d="M 277.648155 109.46822 
L 277.648155 80.22778 
" style="fill:none;stroke:#0000ff;stroke-width:1.5;"/>
    <path clip-path="url(#p48fe24018f)" d="M 280.754951 73.220825 
L 280.754951 43.980384 
" style="fill:none;stroke:#0000ff;stroke-width:1.5;"/>
    <path clip-path="url(#p48fe24018f)" d="M 283.861748 98.171382 
L 283.861748 68.930942 
" style="fill:none;stroke:#0000ff;stroke-width:1.5;"/>
    <path clip-path="url(#p48fe24018f)" d="M 286.968544 93.557109 
L 286.968544 64.316669 
" style="fill:none;stroke:#0000ff;stroke-width:1.5;"/>
    <path clip-path="url(#p48fe24018f)" d="M 290.07534 89.405481 
L 290.07534 60.165041 
" style="fill:none;stroke:#0000ff;stroke-width:1.5;"/>
    <path clip-path="url(#p48fe24018f)" d="M 293.182136 72.240779 
L 293.182136 43.000339 
" style="fill:none;stroke:#0000ff;stroke-width:1.5;"/>
    <path clip-path="url(#p48fe24018f)" d="M 296.288932 79.282166 
L 296.288932 50.041726 
" style="fill:none;stroke:#0000ff;stroke-width:1.5;"/>
    <path clip-path="url(#p48fe24018f)" d="M 299.395728 67.289885 
L 299.395728 38.049444 
" style="fill:none;stroke:#0000ff;stroke-width:1.5;"/>
    <path clip-path="url(#p48fe24018f)" d="M 302.502524 105.776674 
L 302.502524 76.536234 
" style="fill:none;stroke:#0000ff;stroke-width:1.5;"/>
    <path clip-path="url(#p48fe24018f)" d="M 305.60932 70.6446 
L 305.60932 41.404159 
" style="fill:none;stroke:#0000ff;stroke-width:1.5;"/>
    <path clip-path="url(#p48fe24018f)" d="M 308.716117 83.121484 
L 308.716117 53.881044 
" style="fill:none;stroke:#0000ff;stroke-width:1.5;"/>
    <path clip-path="url(#p48fe24018f)" d="M 311.822913 82.526336 
L 311.822913 53.285896 
" style="fill:none;stroke:#0000ff;stroke-width:1.5;"/>
    <path clip-path="url(#p48fe24018f)" d="M 314.929709 67.072706 
L 314.929709 37.832266 
" style="fill:none;stroke:#0000ff;stroke-width:1.5;"/>
    <path clip-path="url(#p48fe24018f)" d="M 318.036505 75.67673 
L 318.036505 46.43629 
" style="fill:none;stroke:#0000ff;stroke-width:1.5;"/>
    <path clip-path="url(#p48fe24018f)" d="M 321.143301 75.082008 
L 321.143301 45.841568 
" style="fill:none;stroke:#0000ff;stroke-width:1.5;"/>
    <path clip-path="url(#p48fe24018f)" d="M 324.250097 77.11751 
L 324.250097 47.877069 
" style="fill:none;stroke:#0000ff;stroke-width:1.5;"/>
    <path clip-path="url(#p48fe24018f)" d="M 327.356893 73.874135 
L 327.356893 44.633695 
" style="fill:none;stroke:#0000ff;stroke-width:1.5;"/>
    <path clip-path="url(#p48fe24018f)" d="M 330.463689 73.268744 
L 330.463689 44.028304 
" style="fill:none;stroke:#0000ff;stroke-width:1.5;"/>
    <path clip-path="url(#p48fe24018f)" d="M 333.570485 97.348525 
L 333.570485 68.108085 
" style="fill:none;stroke:#0000ff;stroke-width:1.5;"/>
    <path clip-path="url(#p48fe24018f)" d="M 336.677282 77.357804 
L 336.677282 48.117364 
" style="fill:none;stroke:#0000ff;stroke-width:1.5;"/>
    <path clip-path="url(#p48fe24018f)" d="M 339.784078 82.955751 
L 339.784078 53.715311 
" style="fill:none;stroke:#0000ff;stroke-width:1.5;"/>
    <path clip-path="url(#p48fe24018f)" d="M 342.890874 70.918122 
L 342.890874 41.677682 
" style="fill:none;stroke:#0000ff;stroke-width:1.5;"/>
    <path clip-path="url(#p48fe24018f)" d="M 345.99767 93.95659 
L 345.99767 64.71615 
" style="fill:none;stroke:#0000ff;stroke-width:1.5;"/>
    <path clip-path="url(#p48fe24018f)" d="M 352.211262 92.403309 
L 352.211262 63.162869 
" style="fill:none;stroke:#0000ff;stroke-width:1.5;"/>
    <path clip-path="url(#p48fe24018f)" d="M 355.318058 91.6724 
L 355.318058 62.43196 
" style="fill:none;stroke:#0000ff;stroke-width:1.5;"/>
    <path clip-path="url(#p48fe24018f)" d="M 358.424854 86.473343 
L 358.424854 57.232902 
" style="fill:none;stroke:#0000ff;stroke-width:1.5;"/>
    <path clip-path="url(#p48fe24018f)" d="M 361.53165 67.886377 
L 361.53165 38.645937 
" style="fill:none;stroke:#0000ff;stroke-width:1.5;"/>
    <path clip-path="url(#p48fe24018f)" d="M 364.638447 85.278018 
L 364.638447 56.037577 
" style="fill:none;stroke:#0000ff;stroke-width:1.5;"/>
    <path clip-path="url(#p48fe24018f)" d="M 367.745243 69.392512 
L 367.745243 40.152072 
" style="fill:none;stroke:#0000ff;stroke-width:1.5;"/>
    <path clip-path="url(#p48fe24018f)" d="M 373.958835 83.73532 
L 373.958835 54.49488 
" style="fill:none;stroke:#0000ff;stroke-width:1.5;"/>
    <path clip-path="url(#p48fe24018f)" d="M 401.92 80.784716 
L 401.92 51.544276 
" style="fill:none;stroke:#0000ff;stroke-width:1.5;"/>
   </g>
   <g id="line2d_10">
    <path clip-path="url(#p48fe24018f)" d="M 81.92 68.349087 
L 401.92 68.349087 
" style="fill:none;stroke:#ff0000;stroke-linecap:square;stroke-width:1.5;"/>
   </g>
   <g id="line2d_11">
    <defs>
     <path d="M -3 0 
L 3 0 
M 0 3 
L 0 -3 
" id="m8fc4c5e76a" style="stroke:#0000ff;"/>
    </defs>
    <g clip-path="url(#p48fe24018f)">
     <use style="fill:#0000ff;stroke:#0000ff;" x="81.92" xlink:href="#m8fc4c5e76a" y="68.554815"/>
     <use style="fill:#0000ff;stroke:#0000ff;" x="112.987961" xlink:href="#m8fc4c5e76a" y="68.968559"/>
     <use style="fill:#0000ff;stroke:#0000ff;" x="122.30835" xlink:href="#m8fc4c5e76a" y="65.283638"/>
     <use style="fill:#0000ff;stroke:#0000ff;" x="128.521942" xlink:href="#m8fc4c5e76a" y="65.528479"/>
     <use style="fill:#0000ff;stroke:#0000ff;" x="134.735534" xlink:href="#m8fc4c5e76a" y="69.858221"/>
     <use style="fill:#0000ff;stroke:#0000ff;" x="144.055922" xlink:href="#m8fc4c5e76a" y="66.453638"/>
     <use style="fill:#0000ff;stroke:#0000ff;" x="150.269515" xlink:href="#m8fc4c5e76a" y="66.981068"/>
     <use style="fill:#0000ff;stroke:#0000ff;" x="153.376311" xlink:href="#m8fc4c5e76a" y="71.419817"/>
     <use style="fill:#0000ff;stroke:#0000ff;" x="156.483107" xlink:href="#m8fc4c5e76a" y="67.616602"/>
     <use style="fill:#0000ff;stroke:#0000ff;" x="159.589903" xlink:href="#m8fc4c5e76a" y="67.978332"/>
     <use style="fill:#0000ff;stroke:#0000ff;" x="162.696699" xlink:href="#m8fc4c5e76a" y="72.59321"/>
     <use style="fill:#0000ff;stroke:#0000ff;" x="165.803495" xlink:href="#m8fc4c5e76a" y="68.795491"/>
     <use style="fill:#0000ff;stroke:#0000ff;" x="172.017087" xlink:href="#m8fc4c5e76a" y="69.743206"/>
     <use style="fill:#0000ff;stroke:#0000ff;" x="175.123883" xlink:href="#m8fc4c5e76a" y="66.48833"/>
     <use style="fill:#0000ff;stroke:#0000ff;" x="178.23068" xlink:href="#m8fc4c5e76a" y="67.009973"/>
     <use style="fill:#0000ff;stroke:#0000ff;" x="181.337476" xlink:href="#m8fc4c5e76a" y="75.882096"/>
     <use style="fill:#0000ff;stroke:#0000ff;" x="184.444272" xlink:href="#m8fc4c5e76a" y="58.824823"/>
     <use style="fill:#0000ff;stroke:#0000ff;" x="187.551068" xlink:href="#m8fc4c5e76a" y="62.177308"/>
     <use style="fill:#0000ff;stroke:#0000ff;" x="193.76466" xlink:href="#m8fc4c5e76a" y="78.774544"/>
     <use style="fill:#0000ff;stroke:#0000ff;" x="196.871456" xlink:href="#m8fc4c5e76a" y="74.8336"/>
     <use style="fill:#0000ff;stroke:#0000ff;" x="199.978252" xlink:href="#m8fc4c5e76a" y="75.596854"/>
     <use style="fill:#0000ff;stroke:#0000ff;" x="203.085049" xlink:href="#m8fc4c5e76a" y="65.261041"/>
     <use style="fill:#0000ff;stroke:#0000ff;" x="206.191845" xlink:href="#m8fc4c5e76a" y="69.245866"/>
     <use style="fill:#0000ff;stroke:#0000ff;" x="209.298641" xlink:href="#m8fc4c5e76a" y="73.71601"/>
     <use style="fill:#0000ff;stroke:#0000ff;" x="212.405437" xlink:href="#m8fc4c5e76a" y="78.815747"/>
     <use style="fill:#0000ff;stroke:#0000ff;" x="215.512233" xlink:href="#m8fc4c5e76a" y="67.989367"/>
     <use style="fill:#0000ff;stroke:#0000ff;" x="218.619029" xlink:href="#m8fc4c5e76a" y="57.576271"/>
     <use style="fill:#0000ff;stroke:#0000ff;" x="221.725825" xlink:href="#m8fc4c5e76a" y="51.575922"/>
     <use style="fill:#0000ff;stroke:#0000ff;" x="224.832621" xlink:href="#m8fc4c5e76a" y="56.382136"/>
     <use style="fill:#0000ff;stroke:#0000ff;" x="227.939417" xlink:href="#m8fc4c5e76a" y="56.921135"/>
     <use style="fill:#0000ff;stroke:#0000ff;" x="231.046214" xlink:href="#m8fc4c5e76a" y="79.002515"/>
     <use style="fill:#0000ff;stroke:#0000ff;" x="234.15301" xlink:href="#m8fc4c5e76a" y="55.693553"/>
     <use style="fill:#0000ff;stroke:#0000ff;" x="237.259806" xlink:href="#m8fc4c5e76a" y="54.014776"/>
     <use style="fill:#0000ff;stroke:#0000ff;" x="240.366602" xlink:href="#m8fc4c5e76a" y="66.715287"/>
     <use style="fill:#0000ff;stroke:#0000ff;" x="243.473398" xlink:href="#m8fc4c5e76a" y="70.251518"/>
     <use style="fill:#0000ff;stroke:#0000ff;" x="246.580194" xlink:href="#m8fc4c5e76a" y="67.618305"/>
     <use style="fill:#0000ff;stroke:#0000ff;" x="249.68699" xlink:href="#m8fc4c5e76a" y="87.439535"/>
     <use style="fill:#0000ff;stroke:#0000ff;" x="252.793786" xlink:href="#m8fc4c5e76a" y="68.351766"/>
     <use style="fill:#0000ff;stroke:#0000ff;" x="255.900583" xlink:href="#m8fc4c5e76a" y="51.983616"/>
     <use style="fill:#0000ff;stroke:#0000ff;" x="259.007379" xlink:href="#m8fc4c5e76a" y="66.001648"/>
     <use style="fill:#0000ff;stroke:#0000ff;" x="262.114175" xlink:href="#m8fc4c5e76a" y="46.848"/>
     <use style="fill:#0000ff;stroke:#0000ff;" x="265.220971" xlink:href="#m8fc4c5e76a" y="56.539195"/>
     <use style="fill:#0000ff;stroke:#0000ff;" x="268.327767" xlink:href="#m8fc4c5e76a" y="66.387641"/>
     <use style="fill:#0000ff;stroke:#0000ff;" x="271.434563" xlink:href="#m8fc4c5e76a" y="72.47209"/>
     <use style="fill:#0000ff;stroke:#0000ff;" x="274.541359" xlink:href="#m8fc4c5e76a" y="61.169437"/>
     <use style="fill:#0000ff;stroke:#0000ff;" x="277.648155" xlink:href="#m8fc4c5e76a" y="94.848"/>
     <use style="fill:#0000ff;stroke:#0000ff;" x="280.754951" xlink:href="#m8fc4c5e76a" y="58.600604"/>
     <use style="fill:#0000ff;stroke:#0000ff;" x="283.861748" xlink:href="#m8fc4c5e76a" y="83.551162"/>
     <use style="fill:#0000ff;stroke:#0000ff;" x="286.968544" xlink:href="#m8fc4c5e76a" y="78.936889"/>
     <use style="fill:#0000ff;stroke:#0000ff;" x="290.07534" xlink:href="#m8fc4c5e76a" y="74.785261"/>
     <use style="fill:#0000ff;stroke:#0000ff;" x="293.182136" xlink:href="#m8fc4c5e76a" y="57.620559"/>
     <use style="fill:#0000ff;stroke:#0000ff;" x="296.288932" xlink:href="#m8fc4c5e76a" y="64.661946"/>
     <use style="fill:#0000ff;stroke:#0000ff;" x="299.395728" xlink:href="#m8fc4c5e76a" y="52.669664"/>
     <use style="fill:#0000ff;stroke:#0000ff;" x="302.502524" xlink:href="#m8fc4c5e76a" y="91.156454"/>
     <use style="fill:#0000ff;stroke:#0000ff;" x="305.60932" xlink:href="#m8fc4c5e76a" y="56.024379"/>
     <use style="fill:#0000ff;stroke:#0000ff;" x="308.716117" xlink:href="#m8fc4c5e76a" y="68.501264"/>
     <use style="fill:#0000ff;stroke:#0000ff;" x="311.822913" xlink:href="#m8fc4c5e76a" y="67.906116"/>
     <use style="fill:#0000ff;stroke:#0000ff;" x="314.929709" xlink:href="#m8fc4c5e76a" y="52.452486"/>
     <use style="fill:#0000ff;stroke:#0000ff;" x="318.036505" xlink:href="#m8fc4c5e76a" y="61.05651"/>
     <use style="fill:#0000ff;stroke:#0000ff;" x="321.143301" xlink:href="#m8fc4c5e76a" y="60.461788"/>
     <use style="fill:#0000ff;stroke:#0000ff;" x="324.250097" xlink:href="#m8fc4c5e76a" y="62.497289"/>
     <use style="fill:#0000ff;stroke:#0000ff;" x="327.356893" xlink:href="#m8fc4c5e76a" y="59.253915"/>
     <use style="fill:#0000ff;stroke:#0000ff;" x="330.463689" xlink:href="#m8fc4c5e76a" y="58.648524"/>
     <use style="fill:#0000ff;stroke:#0000ff;" x="333.570485" xlink:href="#m8fc4c5e76a" y="82.728305"/>
     <use style="fill:#0000ff;stroke:#0000ff;" x="336.677282" xlink:href="#m8fc4c5e76a" y="62.737584"/>
     <use style="fill:#0000ff;stroke:#0000ff;" x="339.784078" xlink:href="#m8fc4c5e76a" y="68.335531"/>
     <use style="fill:#0000ff;stroke:#0000ff;" x="342.890874" xlink:href="#m8fc4c5e76a" y="56.297902"/>
     <use style="fill:#0000ff;stroke:#0000ff;" x="345.99767" xlink:href="#m8fc4c5e76a" y="79.33637"/>
     <use style="fill:#0000ff;stroke:#0000ff;" x="352.211262" xlink:href="#m8fc4c5e76a" y="77.783089"/>
     <use style="fill:#0000ff;stroke:#0000ff;" x="355.318058" xlink:href="#m8fc4c5e76a" y="77.05218"/>
     <use style="fill:#0000ff;stroke:#0000ff;" x="358.424854" xlink:href="#m8fc4c5e76a" y="71.853123"/>
     <use style="fill:#0000ff;stroke:#0000ff;" x="361.53165" xlink:href="#m8fc4c5e76a" y="53.266157"/>
     <use style="fill:#0000ff;stroke:#0000ff;" x="364.638447" xlink:href="#m8fc4c5e76a" y="70.657797"/>
     <use style="fill:#0000ff;stroke:#0000ff;" x="367.745243" xlink:href="#m8fc4c5e76a" y="54.772292"/>
     <use style="fill:#0000ff;stroke:#0000ff;" x="373.958835" xlink:href="#m8fc4c5e76a" y="69.1151"/>
     <use style="fill:#0000ff;stroke:#0000ff;" x="401.92" xlink:href="#m8fc4c5e76a" y="66.164496"/>
    </g>
   </g>
   <g id="patch_3">
    <path d="M 69.12 96.768 
L 69.12 44.928 
" style="fill:none;stroke:#000000;stroke-linecap:square;stroke-linejoin:miter;stroke-width:0.8;"/>
   </g>
   <g id="patch_4">
    <path d="M 414.72 96.768 
L 414.72 44.928 
" style="fill:none;stroke:#000000;stroke-linecap:square;stroke-linejoin:miter;stroke-width:0.8;"/>
   </g>
   <g id="patch_5">
    <path d="M 69.12 96.768 
L 414.72 96.768 
" style="fill:none;stroke:#000000;stroke-linecap:square;stroke-linejoin:miter;stroke-width:0.8;"/>
   </g>
   <g id="patch_6">
    <path d="M 69.12 44.928 
L 414.72 44.928 
" style="fill:none;stroke:#000000;stroke-linecap:square;stroke-linejoin:miter;stroke-width:0.8;"/>
   </g>
   <g id="text_4">
    <!-- Function (0/0): y = a*exp(-(x-x0)**2/w**2)+b -->
    <defs>
     <path d="M 9.8125 72.90625 
L 51.703125 72.90625 
L 51.703125 64.59375 
L 19.671875 64.59375 
L 19.671875 43.109375 
L 48.578125 43.109375 
L 48.578125 34.8125 
L 19.671875 34.8125 
L 19.671875 0 
L 9.8125 0 
z
" id="DejaVuSans-46"/>
     <path d="M 48.78125 52.59375 
L 48.78125 44.1875 
Q 44.96875 46.296875 41.140625 47.34375 
Q 37.3125 48.390625 33.40625 48.390625 
Q 24.65625 48.390625 19.8125 42.84375 
Q 14.984375 37.3125 14.984375 27.296875 
Q 14.984375 17.28125 19.8125 11.734375 
Q 24.65625 6.203125 33.40625 6.203125 
Q 37.3125 6.203125 41.140625 7.25 
Q 44.96875 8.296875 48.78125 10.40625 
L 48.78125 2.09375 
Q 45.015625 0.34375 40.984375 -0.53125 
Q 36.96875 -1.421875 32.421875 -1.421875 
Q 20.0625 -1.421875 12.78125 6.34375 
Q 5.515625 14.109375 5.515625 27.296875 
Q 5.515625 40.671875 12.859375 48.328125 
Q 20.21875 56 33.015625 56 
Q 37.15625 56 41.109375 55.140625 
Q 45.0625 54.296875 48.78125 52.59375 
z
" id="DejaVuSans-63"/>
     <path d="M 30.609375 48.390625 
Q 23.390625 48.390625 19.1875 42.75 
Q 14.984375 37.109375 14.984375 27.296875 
Q 14.984375 17.484375 19.15625 11.84375 
Q 23.34375 6.203125 30.609375 6.203125 
Q 37.796875 6.203125 41.984375 11.859375 
Q 46.1875 17.53125 46.1875 27.296875 
Q 46.1875 37.015625 41.984375 42.703125 
Q 37.796875 48.390625 30.609375 48.390625 
z
M 30.609375 56 
Q 42.328125 56 49.015625 48.375 
Q 55.71875 40.765625 55.71875 27.296875 
Q 55.71875 13.875 49.015625 6.21875 
Q 42.328125 -1.421875 30.609375 -1.421875 
Q 18.84375 -1.421875 12.171875 6.21875 
Q 5.515625 13.875 5.515625 27.296875 
Q 5.515625 40.765625 12.171875 48.375 
Q 18.84375 56 30.609375 56 
z
" id="DejaVuSans-6f"/>
     <path id="DejaVuSans-20"/>
     <path d="M 31 75.875 
Q 24.46875 64.65625 21.28125 53.65625 
Q 18.109375 42.671875 18.109375 31.390625 
Q 18.109375 20.125 21.3125 9.0625 
Q 24.515625 -2 31 -13.1875 
L 23.1875 -13.1875 
Q 15.875 -1.703125 12.234375 9.375 
Q 8.59375 20.453125 8.59375 31.390625 
Q 8.59375 42.28125 12.203125 53.3125 
Q 15.828125 64.359375 23.1875 75.875 
z
" id="DejaVuSans-28"/>
     <path d="M 31.78125 66.40625 
Q 24.171875 66.40625 20.328125 58.90625 
Q 16.5 51.421875 16.5 36.375 
Q 16.5 21.390625 20.328125 13.890625 
Q 24.171875 6.390625 31.78125 6.390625 
Q 39.453125 6.390625 43.28125 13.890625 
Q 47.125 21.390625 47.125 36.375 
Q 47.125 51.421875 43.28125 58.90625 
Q 39.453125 66.40625 31.78125 66.40625 
z
M 31.78125 74.21875 
Q 44.046875 74.21875 50.515625 64.515625 
Q 56.984375 54.828125 56.984375 36.375 
Q 56.984375 17.96875 50.515625 8.265625 
Q 44.046875 -1.421875 31.78125 -1.421875 
Q 19.53125 -1.421875 13.0625 8.265625 
Q 6.59375 17.96875 6.59375 36.375 
Q 6.59375 54.828125 13.0625 64.515625 
Q 19.53125 74.21875 31.78125 74.21875 
z
" id="DejaVuSans-30"/>
     <path d="M 25.390625 72.90625 
L 33.6875 72.90625 
L 8.296875 -9.28125 
L 0 -9.28125 
z
" id="DejaVuSans-2f"/>
     <path d="M 8.015625 75.875 
L 15.828125 75.875 
Q 23.140625 64.359375 26.78125 53.3125 
Q 30.421875 42.28125 30.421875 31.390625 
Q 30.421875 20.453125 26.78125 9.375 
Q 23.140625 -1.703125 15.828125 -13.1875 
L 8.015625 -13.1875 
Q 14.5 -2 17.703125 9.0625 
Q 20.90625 20.125 20.90625 31.390625 
Q 20.90625 42.671875 17.703125 53.65625 
Q 14.5 64.65625 8.015625 75.875 
z
" id="DejaVuSans-29"/>
     <path d="M 11.71875 12.40625 
L 22.015625 12.40625 
L 22.015625 0 
L 11.71875 0 
z
M 11.71875 51.703125 
L 22.015625 51.703125 
L 22.015625 39.3125 
L 11.71875 39.3125 
z
" id="DejaVuSans-3a"/>
     <path d="M 32.171875 -5.078125 
Q 28.375 -14.84375 24.75 -17.8125 
Q 21.140625 -20.796875 15.09375 -20.796875 
L 7.90625 -20.796875 
L 7.90625 -13.28125 
L 13.1875 -13.28125 
Q 16.890625 -13.28125 18.9375 -11.515625 
Q 21 -9.765625 23.484375 -3.21875 
L 25.09375 0.875 
L 2.984375 54.6875 
L 12.5 54.6875 
L 29.59375 11.921875 
L 46.6875 54.6875 
L 56.203125 54.6875 
z
" id="DejaVuSans-79"/>
     <path d="M 10.59375 45.40625 
L 73.1875 45.40625 
L 73.1875 37.203125 
L 10.59375 37.203125 
z
M 10.59375 25.484375 
L 73.1875 25.484375 
L 73.1875 17.1875 
L 10.59375 17.1875 
z
" id="DejaVuSans-3d"/>
     <path d="M 47.015625 60.890625 
L 29.5 51.421875 
L 47.015625 41.890625 
L 44.1875 37.109375 
L 27.78125 47.015625 
L 27.78125 28.609375 
L 22.21875 28.609375 
L 22.21875 47.015625 
L 5.8125 37.109375 
L 2.984375 41.890625 
L 20.515625 51.421875 
L 2.984375 60.890625 
L 5.8125 65.71875 
L 22.21875 55.8125 
L 22.21875 74.21875 
L 27.78125 74.21875 
L 27.78125 55.8125 
L 44.1875 65.71875 
z
" id="DejaVuSans-2a"/>
     <path d="M 54.890625 54.6875 
L 35.109375 28.078125 
L 55.90625 0 
L 45.3125 0 
L 29.390625 21.484375 
L 13.484375 0 
L 2.875 0 
L 24.125 28.609375 
L 4.6875 54.6875 
L 15.28125 54.6875 
L 29.78125 35.203125 
L 44.28125 54.6875 
z
" id="DejaVuSans-78"/>
     <path d="M 18.109375 8.203125 
L 18.109375 -20.796875 
L 9.078125 -20.796875 
L 9.078125 54.6875 
L 18.109375 54.6875 
L 18.109375 46.390625 
Q 20.953125 51.265625 25.265625 53.625 
Q 29.59375 56 35.59375 56 
Q 45.5625 56 51.78125 48.09375 
Q 58.015625 40.1875 58.015625 27.296875 
Q 58.015625 14.40625 51.78125 6.484375 
Q 45.5625 -1.421875 35.59375 -1.421875 
Q 29.59375 -1.421875 25.265625 0.953125 
Q 20.953125 3.328125 18.109375 8.203125 
z
M 48.6875 27.296875 
Q 48.6875 37.203125 44.609375 42.84375 
Q 40.53125 48.484375 33.40625 48.484375 
Q 26.265625 48.484375 22.1875 42.84375 
Q 18.109375 37.203125 18.109375 27.296875 
Q 18.109375 17.390625 22.1875 11.75 
Q 26.265625 6.109375 33.40625 6.109375 
Q 40.53125 6.109375 44.609375 11.75 
Q 48.6875 17.390625 48.6875 27.296875 
z
" id="DejaVuSans-70"/>
     <path d="M 4.890625 31.390625 
L 31.203125 31.390625 
L 31.203125 23.390625 
L 4.890625 23.390625 
z
" id="DejaVuSans-2d"/>
     <path d="M 19.1875 8.296875 
L 53.609375 8.296875 
L 53.609375 0 
L 7.328125 0 
L 7.328125 8.296875 
Q 12.9375 14.109375 22.625 23.890625 
Q 32.328125 33.6875 34.8125 36.53125 
Q 39.546875 41.84375 41.421875 45.53125 
Q 43.3125 49.21875 43.3125 52.78125 
Q 43.3125 58.59375 39.234375 62.25 
Q 35.15625 65.921875 28.609375 65.921875 
Q 23.96875 65.921875 18.8125 64.3125 
Q 13.671875 62.703125 7.8125 59.421875 
L 7.8125 69.390625 
Q 13.765625 71.78125 18.9375 73 
Q 24.125 74.21875 28.421875 74.21875 
Q 39.75 74.21875 46.484375 68.546875 
Q 53.21875 62.890625 53.21875 53.421875 
Q 53.21875 48.921875 51.53125 44.890625 
Q 49.859375 40.875 45.40625 35.40625 
Q 44.1875 33.984375 37.640625 27.21875 
Q 31.109375 20.453125 19.1875 8.296875 
z
" id="DejaVuSans-32"/>
     <path d="M 4.203125 54.6875 
L 13.1875 54.6875 
L 24.421875 12.015625 
L 35.59375 54.6875 
L 46.1875 54.6875 
L 57.421875 12.015625 
L 68.609375 54.6875 
L 77.59375 54.6875 
L 63.28125 0 
L 52.6875 0 
L 40.921875 44.828125 
L 29.109375 0 
L 18.5 0 
z
" id="DejaVuSans-77"/>
     <path d="M 46 62.703125 
L 46 35.5 
L 73.1875 35.5 
L 73.1875 27.203125 
L 46 27.203125 
L 46 0 
L 37.796875 0 
L 37.796875 27.203125 
L 10.59375 27.203125 
L 10.59375 35.5 
L 37.796875 35.5 
L 37.796875 62.703125 
z
" id="DejaVuSans-2b"/>
     <path d="M 48.6875 27.296875 
Q 48.6875 37.203125 44.609375 42.84375 
Q 40.53125 48.484375 33.40625 48.484375 
Q 26.265625 48.484375 22.1875 42.84375 
Q 18.109375 37.203125 18.109375 27.296875 
Q 18.109375 17.390625 22.1875 11.75 
Q 26.265625 6.109375 33.40625 6.109375 
Q 40.53125 6.109375 44.609375 11.75 
Q 48.6875 17.390625 48.6875 27.296875 
z
M 18.109375 46.390625 
Q 20.953125 51.265625 25.265625 53.625 
Q 29.59375 56 35.59375 56 
Q 45.5625 56 51.78125 48.09375 
Q 58.015625 40.1875 58.015625 27.296875 
Q 58.015625 14.40625 51.78125 6.484375 
Q 45.5625 -1.421875 35.59375 -1.421875 
Q 29.59375 -1.421875 25.265625 0.953125 
Q 20.953125 3.328125 18.109375 8.203125 
L 18.109375 0 
L 9.078125 0 
L 9.078125 75.984375 
L 18.109375 75.984375 
z
" id="DejaVuSans-62"/>
    </defs>
    <g transform="translate(69.12 27.730187)scale(0.1 -0.1)">
     <use xlink:href="#DejaVuSans-46"/>
     <use x="57.441406" xlink:href="#DejaVuSans-75"/>
     <use x="120.820312" xlink:href="#DejaVuSans-6e"/>
     <use x="184.199219" xlink:href="#DejaVuSans-63"/>
     <use x="239.179688" xlink:href="#DejaVuSans-74"/>
     <use x="278.388672" xlink:href="#DejaVuSans-69"/>
     <use x="306.171875" xlink:href="#DejaVuSans-6f"/>
     <use x="367.353516" xlink:href="#DejaVuSans-6e"/>
     <use x="430.732422" xlink:href="#DejaVuSans-20"/>
     <use x="462.519531" xlink:href="#DejaVuSans-28"/>
     <use x="501.533203" xlink:href="#DejaVuSans-30"/>
     <use x="565.15625" xlink:href="#DejaVuSans-2f"/>
     <use x="598.847656" xlink:href="#DejaVuSans-30"/>
     <use x="662.470703" xlink:href="#DejaVuSans-29"/>
     <use x="701.484375" xlink:href="#DejaVuSans-3a"/>
     <use x="735.175781" xlink:href="#DejaVuSans-20"/>
     <use x="766.962891" xlink:href="#DejaVuSans-79"/>
     <use x="826.142578" xlink:href="#DejaVuSans-20"/>
     <use x="857.929688" xlink:href="#DejaVuSans-3d"/>
     <use x="941.71875" xlink:href="#DejaVuSans-20"/>
     <use x="973.505859" xlink:href="#DejaVuSans-61"/>
     <use x="1034.785156" xlink:href="#DejaVuSans-2a"/>
     <use x="1084.785156" xlink:href="#DejaVuSans-65"/>
     <use x="1146.292969" xlink:href="#DejaVuSans-78"/>
     <use x="1205.472656" xlink:href="#DejaVuSans-70"/>
     <use x="1268.949219" xlink:href="#DejaVuSans-28"/>
     <use x="1307.962891" xlink:href="#DejaVuSans-2d"/>
     <use x="1344.046875" xlink:href="#DejaVuSans-28"/>
     <use x="1383.060547" xlink:href="#DejaVuSans-78"/>
     <use x="1442.240234" xlink:href="#DejaVuSans-2d"/>
     <use x="1478.324219" xlink:href="#DejaVuSans-78"/>
     <use x="1537.503906" xlink:href="#DejaVuSans-30"/>
     <use x="1601.126953" xlink:href="#DejaVuSans-29"/>
     <use x="1640.140625" xlink:href="#DejaVuSans-2a"/>
     <use x="1690.140625" xlink:href="#DejaVuSans-2a"/>
     <use x="1740.140625" xlink:href="#DejaVuSans-32"/>
     <use x="1803.763672" xlink:href="#DejaVuSans-2f"/>
     <use x="1837.455078" xlink:href="#DejaVuSans-77"/>
     <use x="1919.242188" xlink:href="#DejaVuSans-2a"/>
     <use x="1969.242188" xlink:href="#DejaVuSans-2a"/>
     <use x="2019.242188" xlink:href="#DejaVuSans-32"/>
     <use x="2082.865234" xlink:href="#DejaVuSans-29"/>
     <use x="2121.878906" xlink:href="#DejaVuSans-2b"/>
     <use x="2205.667969" xlink:href="#DejaVuSans-62"/>
    </g>
    <!-- Fit: a=3.15$\pm$0.86, b=3.01$\pm$0.83, x0=4.29$\pm$0.02, w=0.152$\pm$0.054, -->
    <defs>
     <path d="M 40.578125 39.3125 
Q 47.65625 37.796875 51.625 33 
Q 55.609375 28.21875 55.609375 21.1875 
Q 55.609375 10.40625 48.1875 4.484375 
Q 40.765625 -1.421875 27.09375 -1.421875 
Q 22.515625 -1.421875 17.65625 -0.515625 
Q 12.796875 0.390625 7.625 2.203125 
L 7.625 11.71875 
Q 11.71875 9.328125 16.59375 8.109375 
Q 21.484375 6.890625 26.8125 6.890625 
Q 36.078125 6.890625 40.9375 10.546875 
Q 45.796875 14.203125 45.796875 21.1875 
Q 45.796875 27.640625 41.28125 31.265625 
Q 36.765625 34.90625 28.71875 34.90625 
L 20.21875 34.90625 
L 20.21875 43.015625 
L 29.109375 43.015625 
Q 36.375 43.015625 40.234375 45.921875 
Q 44.09375 48.828125 44.09375 54.296875 
Q 44.09375 59.90625 40.109375 62.90625 
Q 36.140625 65.921875 28.71875 65.921875 
Q 24.65625 65.921875 20.015625 65.03125 
Q 15.375 64.15625 9.8125 62.3125 
L 9.8125 71.09375 
Q 15.4375 72.65625 20.34375 73.4375 
Q 25.25 74.21875 29.59375 74.21875 
Q 40.828125 74.21875 47.359375 69.109375 
Q 53.90625 64.015625 53.90625 55.328125 
Q 53.90625 49.265625 50.4375 45.09375 
Q 46.96875 40.921875 40.578125 39.3125 
z
" id="DejaVuSans-33"/>
     <path d="M 10.6875 12.40625 
L 21 12.40625 
L 21 0 
L 10.6875 0 
z
" id="DejaVuSans-2e"/>
     <path d="M 10.796875 72.90625 
L 49.515625 72.90625 
L 49.515625 64.59375 
L 19.828125 64.59375 
L 19.828125 46.734375 
Q 21.96875 47.46875 24.109375 47.828125 
Q 26.265625 48.1875 28.421875 48.1875 
Q 40.625 48.1875 47.75 41.5 
Q 54.890625 34.8125 54.890625 23.390625 
Q 54.890625 11.625 47.5625 5.09375 
Q 40.234375 -1.421875 26.90625 -1.421875 
Q 22.3125 -1.421875 17.546875 -0.640625 
Q 12.796875 0.140625 7.71875 1.703125 
L 7.71875 11.625 
Q 12.109375 9.234375 16.796875 8.0625 
Q 21.484375 6.890625 26.703125 6.890625 
Q 35.15625 6.890625 40.078125 11.328125 
Q 45.015625 15.765625 45.015625 23.390625 
Q 45.015625 31 40.078125 35.4375 
Q 35.15625 39.890625 26.703125 39.890625 
Q 22.75 39.890625 18.8125 39.015625 
Q 14.890625 38.140625 10.796875 36.28125 
z
" id="DejaVuSans-35"/>
     <path d="M 46 62.703125 
L 46 43.796875 
L 73.1875 43.796875 
L 73.1875 35.5 
L 46 35.5 
L 46 16.609375 
L 37.796875 16.609375 
L 37.796875 35.5 
L 10.59375 35.5 
L 10.59375 43.796875 
L 37.796875 43.796875 
L 37.796875 62.703125 
z
M 10.59375 8.296875 
L 73.1875 8.296875 
L 73.1875 0 
L 10.59375 0 
z
" id="DejaVuSans-b1"/>
     <path d="M 31.78125 34.625 
Q 24.75 34.625 20.71875 30.859375 
Q 16.703125 27.09375 16.703125 20.515625 
Q 16.703125 13.921875 20.71875 10.15625 
Q 24.75 6.390625 31.78125 6.390625 
Q 38.8125 6.390625 42.859375 10.171875 
Q 46.921875 13.96875 46.921875 20.515625 
Q 46.921875 27.09375 42.890625 30.859375 
Q 38.875 34.625 31.78125 34.625 
z
M 21.921875 38.8125 
Q 15.578125 40.375 12.03125 44.71875 
Q 8.5 49.078125 8.5 55.328125 
Q 8.5 64.0625 14.71875 69.140625 
Q 20.953125 74.21875 31.78125 74.21875 
Q 42.671875 74.21875 48.875 69.140625 
Q 55.078125 64.0625 55.078125 55.328125 
Q 55.078125 49.078125 51.53125 44.71875 
Q 48 40.375 41.703125 38.8125 
Q 48.828125 37.15625 52.796875 32.3125 
Q 56.78125 27.484375 56.78125 20.515625 
Q 56.78125 9.90625 50.3125 4.234375 
Q 43.84375 -1.421875 31.78125 -1.421875 
Q 19.734375 -1.421875 13.25 4.234375 
Q 6.78125 9.90625 6.78125 20.515625 
Q 6.78125 27.484375 10.78125 32.3125 
Q 14.796875 37.15625 21.921875 38.8125 
z
M 18.3125 54.390625 
Q 18.3125 48.734375 21.84375 45.5625 
Q 25.390625 42.390625 31.78125 42.390625 
Q 38.140625 42.390625 41.71875 45.5625 
Q 45.3125 48.734375 45.3125 54.390625 
Q 45.3125 60.0625 41.71875 63.234375 
Q 38.140625 66.40625 31.78125 66.40625 
Q 25.390625 66.40625 21.84375 63.234375 
Q 18.3125 60.0625 18.3125 54.390625 
z
" id="DejaVuSans-38"/>
     <path d="M 33.015625 40.375 
Q 26.375 40.375 22.484375 35.828125 
Q 18.609375 31.296875 18.609375 23.390625 
Q 18.609375 15.53125 22.484375 10.953125 
Q 26.375 6.390625 33.015625 6.390625 
Q 39.65625 6.390625 43.53125 10.953125 
Q 47.40625 15.53125 47.40625 23.390625 
Q 47.40625 31.296875 43.53125 35.828125 
Q 39.65625 40.375 33.015625 40.375 
z
M 52.59375 71.296875 
L 52.59375 62.3125 
Q 48.875 64.0625 45.09375 64.984375 
Q 41.3125 65.921875 37.59375 65.921875 
Q 27.828125 65.921875 22.671875 59.328125 
Q 17.53125 52.734375 16.796875 39.40625 
Q 19.671875 43.65625 24.015625 45.921875 
Q 28.375 48.1875 33.59375 48.1875 
Q 44.578125 48.1875 50.953125 41.515625 
Q 57.328125 34.859375 57.328125 23.390625 
Q 57.328125 12.15625 50.6875 5.359375 
Q 44.046875 -1.421875 33.015625 -1.421875 
Q 20.359375 -1.421875 13.671875 8.265625 
Q 6.984375 17.96875 6.984375 36.375 
Q 6.984375 53.65625 15.1875 63.9375 
Q 23.390625 74.21875 37.203125 74.21875 
Q 40.921875 74.21875 44.703125 73.484375 
Q 48.484375 72.75 52.59375 71.296875 
z
" id="DejaVuSans-36"/>
     <path d="M 11.71875 12.40625 
L 22.015625 12.40625 
L 22.015625 4 
L 14.015625 -11.625 
L 7.71875 -11.625 
L 11.71875 4 
z
" id="DejaVuSans-2c"/>
     <path d="M 37.796875 64.3125 
L 12.890625 25.390625 
L 37.796875 25.390625 
z
M 35.203125 72.90625 
L 47.609375 72.90625 
L 47.609375 25.390625 
L 58.015625 25.390625 
L 58.015625 17.1875 
L 47.609375 17.1875 
L 47.609375 0 
L 37.796875 0 
L 37.796875 17.1875 
L 4.890625 17.1875 
L 4.890625 26.703125 
z
" id="DejaVuSans-34"/>
     <path d="M 10.984375 1.515625 
L 10.984375 10.5 
Q 14.703125 8.734375 18.5 7.8125 
Q 22.3125 6.890625 25.984375 6.890625 
Q 35.75 6.890625 40.890625 13.453125 
Q 46.046875 20.015625 46.78125 33.40625 
Q 43.953125 29.203125 39.59375 26.953125 
Q 35.25 24.703125 29.984375 24.703125 
Q 19.046875 24.703125 12.671875 31.3125 
Q 6.296875 37.9375 6.296875 49.421875 
Q 6.296875 60.640625 12.9375 67.421875 
Q 19.578125 74.21875 30.609375 74.21875 
Q 43.265625 74.21875 49.921875 64.515625 
Q 56.59375 54.828125 56.59375 36.375 
Q 56.59375 19.140625 48.40625 8.859375 
Q 40.234375 -1.421875 26.421875 -1.421875 
Q 22.703125 -1.421875 18.890625 -0.6875 
Q 15.09375 0.046875 10.984375 1.515625 
z
M 30.609375 32.421875 
Q 37.25 32.421875 41.125 36.953125 
Q 45.015625 41.5 45.015625 49.421875 
Q 45.015625 57.28125 41.125 61.84375 
Q 37.25 66.40625 30.609375 66.40625 
Q 23.96875 66.40625 20.09375 61.84375 
Q 16.21875 57.28125 16.21875 49.421875 
Q 16.21875 41.5 20.09375 36.953125 
Q 23.96875 32.421875 30.609375 32.421875 
z
" id="DejaVuSans-39"/>
    </defs>
    <g transform="translate(69.12 38.928)scale(0.1 -0.1)">
     <use transform="translate(0 0.015625)" xlink:href="#DejaVuSans-46"/>
     <use transform="translate(57.519531 0.015625)" xlink:href="#DejaVuSans-69"/>
     <use transform="translate(85.302734 0.015625)" xlink:href="#DejaVuSans-74"/>
     <use transform="translate(124.511719 0.015625)" xlink:href="#DejaVuSans-3a"/>
     <use transform="translate(158.203125 0.015625)" xlink:href="#DejaVuSans-20"/>
     <use transform="translate(189.990234 0.015625)" xlink:href="#DejaVuSans-61"/>
     <use transform="translate(251.269531 0.015625)" xlink:href="#DejaVuSans-3d"/>
     <use transform="translate(335.058594 0.015625)" xlink:href="#DejaVuSans-33"/>
     <use transform="translate(398.681641 0.015625)" xlink:href="#DejaVuSans-2e"/>
     <use transform="translate(430.46875 0.015625)" xlink:href="#DejaVuSans-31"/>
     <use transform="translate(494.091797 0.015625)" xlink:href="#DejaVuSans-35"/>
     <use transform="translate(557.714844 0.015625)" xlink:href="#DejaVuSans-b1"/>
     <use transform="translate(641.503906 0.015625)" xlink:href="#DejaVuSans-30"/>
     <use transform="translate(705.126953 0.015625)" xlink:href="#DejaVuSans-2e"/>
     <use transform="translate(736.882812 0.015625)" xlink:href="#DejaVuSans-38"/>
     <use transform="translate(800.505859 0.015625)" xlink:href="#DejaVuSans-36"/>
     <use transform="translate(864.128906 0.015625)" xlink:href="#DejaVuSans-2c"/>
     <use transform="translate(895.916016 0.015625)" xlink:href="#DejaVuSans-20"/>
     <use transform="translate(927.703125 0.015625)" xlink:href="#DejaVuSans-62"/>
     <use transform="translate(991.179688 0.015625)" xlink:href="#DejaVuSans-3d"/>
     <use transform="translate(1074.96875 0.015625)" xlink:href="#DejaVuSans-33"/>
     <use transform="translate(1138.591797 0.015625)" xlink:href="#DejaVuSans-2e"/>
     <use transform="translate(1170.378906 0.015625)" xlink:href="#DejaVuSans-30"/>
     <use transform="translate(1234.001953 0.015625)" xlink:href="#DejaVuSans-31"/>
     <use transform="translate(1297.625 0.015625)" xlink:href="#DejaVuSans-b1"/>
     <use transform="translate(1381.414062 0.015625)" xlink:href="#DejaVuSans-30"/>
     <use transform="translate(1445.037109 0.015625)" xlink:href="#DejaVuSans-2e"/>
     <use transform="translate(1476.792969 0.015625)" xlink:href="#DejaVuSans-38"/>
     <use transform="translate(1540.416016 0.015625)" xlink:href="#DejaVuSans-33"/>
     <use transform="translate(1604.039062 0.015625)" xlink:href="#DejaVuSans-2c"/>
     <use transform="translate(1635.826172 0.015625)" xlink:href="#DejaVuSans-20"/>
     <use transform="translate(1667.613281 0.015625)" xlink:href="#DejaVuSans-78"/>
     <use transform="translate(1726.792969 0.015625)" xlink:href="#DejaVuSans-30"/>
     <use transform="translate(1790.416016 0.015625)" xlink:href="#DejaVuSans-3d"/>
     <use transform="translate(1874.205078 0.015625)" xlink:href="#DejaVuSans-34"/>
     <use transform="translate(1937.828125 0.015625)" xlink:href="#DejaVuSans-2e"/>
     <use transform="translate(1969.537109 0.015625)" xlink:href="#DejaVuSans-32"/>
     <use transform="translate(2033.144531 0.015625)" xlink:href="#DejaVuSans-39"/>
     <use transform="translate(2096.767578 0.015625)" xlink:href="#DejaVuSans-b1"/>
     <use transform="translate(2180.556641 0.015625)" xlink:href="#DejaVuSans-30"/>
     <use transform="translate(2244.179688 0.015625)" xlink:href="#DejaVuSans-2e"/>
     <use transform="translate(2275.966797 0.015625)" xlink:href="#DejaVuSans-30"/>
     <use transform="translate(2339.589844 0.015625)" xlink:href="#DejaVuSans-32"/>
     <use transform="translate(2403.212891 0.015625)" xlink:href="#DejaVuSans-2c"/>
     <use transform="translate(2435 0.015625)" xlink:href="#DejaVuSans-20"/>
     <use transform="translate(2466.787109 0.015625)" xlink:href="#DejaVuSans-77"/>
     <use transform="translate(2548.574219 0.015625)" xlink:href="#DejaVuSans-3d"/>
     <use transform="translate(2632.363281 0.015625)" xlink:href="#DejaVuSans-30"/>
     <use transform="translate(2695.986328 0.015625)" xlink:href="#DejaVuSans-2e"/>
     <use transform="translate(2727.773438 0.015625)" xlink:href="#DejaVuSans-31"/>
     <use transform="translate(2791.396484 0.015625)" xlink:href="#DejaVuSans-35"/>
     <use transform="translate(2855.019531 0.015625)" xlink:href="#DejaVuSans-32"/>
     <use transform="translate(2918.642578 0.015625)" xlink:href="#DejaVuSans-b1"/>
     <use transform="translate(3002.431641 0.015625)" xlink:href="#DejaVuSans-30"/>
     <use transform="translate(3066.054688 0.015625)" xlink:href="#DejaVuSans-2e"/>
     <use transform="translate(3097.841797 0.015625)" xlink:href="#DejaVuSans-30"/>
     <use transform="translate(3161.464844 0.015625)" xlink:href="#DejaVuSans-35"/>
     <use transform="translate(3225.087891 0.015625)" xlink:href="#DejaVuSans-34"/>
     <use transform="translate(3288.710938 0.015625)" xlink:href="#DejaVuSans-2c"/>
    </g>
   </g>
  </g>
  <g id="axes_2">
   <g id="patch_7">
    <path d="M 69.12 311.04 
L 414.72 311.04 
L 414.72 103.68 
L 69.12 103.68 
z
" style="fill:#ffffff;"/>
   </g>
   <g id="matplotlib.axis_3">
    <g id="xtick_7">
     <g id="line2d_12">
      <g>
       <use style="stroke:#000000;stroke-width:0.8;" x="119.725902" xlink:href="#m39c4d3120e" y="311.04"/>
      </g>
     </g>
     <g id="text_5">
      <!-- 4.0 -->
      <g transform="translate(107.798558 329.437656)scale(0.15 -0.15)">
       <use xlink:href="#DejaVuSans-34"/>
       <use x="63.623047" xlink:href="#DejaVuSans-2e"/>
       <use x="95.410156" xlink:href="#DejaVuSans-30"/>
      </g>
     </g>
    </g>
    <g id="xtick_8">
     <g id="line2d_13">
      <g>
       <use style="stroke:#000000;stroke-width:0.8;" x="171.951593" xlink:href="#m39c4d3120e" y="311.04"/>
      </g>
     </g>
     <g id="text_6">
      <!-- 4.1 -->
      <g transform="translate(160.024249 329.437656)scale(0.15 -0.15)">
       <use xlink:href="#DejaVuSans-34"/>
       <use x="63.623047" xlink:href="#DejaVuSans-2e"/>
       <use x="95.410156" xlink:href="#DejaVuSans-31"/>
      </g>
     </g>
    </g>
    <g id="xtick_9">
     <g id="line2d_14">
      <g>
       <use style="stroke:#000000;stroke-width:0.8;" x="224.177284" xlink:href="#m39c4d3120e" y="311.04"/>
      </g>
     </g>
     <g id="text_7">
      <!-- 4.2 -->
      <g transform="translate(212.24994 329.437656)scale(0.15 -0.15)">
       <use xlink:href="#DejaVuSans-34"/>
       <use x="63.623047" xlink:href="#DejaVuSans-2e"/>
       <use x="95.410156" xlink:href="#DejaVuSans-32"/>
      </g>
     </g>
    </g>
    <g id="xtick_10">
     <g id="line2d_15">
      <g>
       <use style="stroke:#000000;stroke-width:0.8;" x="276.402975" xlink:href="#m39c4d3120e" y="311.04"/>
      </g>
     </g>
     <g id="text_8">
      <!-- 4.3 -->
      <g transform="translate(264.475631 329.437656)scale(0.15 -0.15)">
       <use xlink:href="#DejaVuSans-34"/>
       <use x="63.623047" xlink:href="#DejaVuSans-2e"/>
       <use x="95.410156" xlink:href="#DejaVuSans-33"/>
      </g>
     </g>
    </g>
    <g id="xtick_11">
     <g id="line2d_16">
      <g>
       <use style="stroke:#000000;stroke-width:0.8;" x="328.628666" xlink:href="#m39c4d3120e" y="311.04"/>
      </g>
     </g>
     <g id="text_9">
      <!-- 4.4 -->
      <g transform="translate(316.701323 329.437656)scale(0.15 -0.15)">
       <use xlink:href="#DejaVuSans-34"/>
       <use x="63.623047" xlink:href="#DejaVuSans-2e"/>
       <use x="95.410156" xlink:href="#DejaVuSans-34"/>
      </g>
     </g>
    </g>
    <g id="xtick_12">
     <g id="line2d_17">
      <g>
       <use style="stroke:#000000;stroke-width:0.8;" x="380.854357" xlink:href="#m39c4d3120e" y="311.04"/>
      </g>
     </g>
     <g id="text_10">
      <!-- 4.5 -->
      <g transform="translate(368.927014 329.437656)scale(0.15 -0.15)">
       <use xlink:href="#DejaVuSans-34"/>
       <use x="63.623047" xlink:href="#DejaVuSans-2e"/>
       <use x="95.410156" xlink:href="#DejaVuSans-35"/>
      </g>
     </g>
    </g>
    <g id="text_11">
     <!-- Energy [MeV] -->
     <defs>
      <path d="M 9.8125 72.90625 
L 55.90625 72.90625 
L 55.90625 64.59375 
L 19.671875 64.59375 
L 19.671875 43.015625 
L 54.390625 43.015625 
L 54.390625 34.71875 
L 19.671875 34.71875 
L 19.671875 8.296875 
L 56.78125 8.296875 
L 56.78125 0 
L 9.8125 0 
z
" id="DejaVuSans-45"/>
      <path d="M 41.109375 46.296875 
Q 39.59375 47.171875 37.8125 47.578125 
Q 36.03125 48 33.890625 48 
Q 26.265625 48 22.1875 43.046875 
Q 18.109375 38.09375 18.109375 28.8125 
L 18.109375 0 
L 9.078125 0 
L 9.078125 54.6875 
L 18.109375 54.6875 
L 18.109375 46.1875 
Q 20.953125 51.171875 25.484375 53.578125 
Q 30.03125 56 36.53125 56 
Q 37.453125 56 38.578125 55.875 
Q 39.703125 55.765625 41.0625 55.515625 
z
" id="DejaVuSans-72"/>
      <path d="M 45.40625 27.984375 
Q 45.40625 37.75 41.375 43.109375 
Q 37.359375 48.484375 30.078125 48.484375 
Q 22.859375 48.484375 18.828125 43.109375 
Q 14.796875 37.75 14.796875 27.984375 
Q 14.796875 18.265625 18.828125 12.890625 
Q 22.859375 7.515625 30.078125 7.515625 
Q 37.359375 7.515625 41.375 12.890625 
Q 45.40625 18.265625 45.40625 27.984375 
z
M 54.390625 6.78125 
Q 54.390625 -7.171875 48.1875 -13.984375 
Q 42 -20.796875 29.203125 -20.796875 
Q 24.46875 -20.796875 20.265625 -20.09375 
Q 16.0625 -19.390625 12.109375 -17.921875 
L 12.109375 -9.1875 
Q 16.0625 -11.328125 19.921875 -12.34375 
Q 23.78125 -13.375 27.78125 -13.375 
Q 36.625 -13.375 41.015625 -8.765625 
Q 45.40625 -4.15625 45.40625 5.171875 
L 45.40625 9.625 
Q 42.625 4.78125 38.28125 2.390625 
Q 33.9375 0 27.875 0 
Q 17.828125 0 11.671875 7.65625 
Q 5.515625 15.328125 5.515625 27.984375 
Q 5.515625 40.671875 11.671875 48.328125 
Q 17.828125 56 27.875 56 
Q 33.9375 56 38.28125 53.609375 
Q 42.625 51.21875 45.40625 46.390625 
L 45.40625 54.6875 
L 54.390625 54.6875 
z
" id="DejaVuSans-67"/>
      <path d="M 8.59375 75.984375 
L 29.296875 75.984375 
L 29.296875 69 
L 17.578125 69 
L 17.578125 -6.203125 
L 29.296875 -6.203125 
L 29.296875 -13.1875 
L 8.59375 -13.1875 
z
" id="DejaVuSans-5b"/>
      <path d="M 9.8125 72.90625 
L 24.515625 72.90625 
L 43.109375 23.296875 
L 61.8125 72.90625 
L 76.515625 72.90625 
L 76.515625 0 
L 66.890625 0 
L 66.890625 64.015625 
L 48.09375 14.015625 
L 38.1875 14.015625 
L 19.390625 64.015625 
L 19.390625 0 
L 9.8125 0 
z
" id="DejaVuSans-4d"/>
      <path d="M 28.609375 0 
L 0.78125 72.90625 
L 11.078125 72.90625 
L 34.1875 11.53125 
L 57.328125 72.90625 
L 67.578125 72.90625 
L 39.796875 0 
z
" id="DejaVuSans-56"/>
      <path d="M 30.421875 75.984375 
L 30.421875 -13.1875 
L 9.71875 -13.1875 
L 9.71875 -6.203125 
L 21.390625 -6.203125 
L 21.390625 69 
L 9.71875 69 
L 9.71875 75.984375 
z
" id="DejaVuSans-5d"/>
     </defs>
     <g transform="translate(191.078203 347.954844)scale(0.15 -0.15)">
      <use xlink:href="#DejaVuSans-45"/>
      <use x="63.183594" xlink:href="#DejaVuSans-6e"/>
      <use x="126.5625" xlink:href="#DejaVuSans-65"/>
      <use x="188.085938" xlink:href="#DejaVuSans-72"/>
      <use x="229.183594" xlink:href="#DejaVuSans-67"/>
      <use x="292.660156" xlink:href="#DejaVuSans-79"/>
      <use x="351.839844" xlink:href="#DejaVuSans-20"/>
      <use x="383.626953" xlink:href="#DejaVuSans-5b"/>
      <use x="422.640625" xlink:href="#DejaVuSans-4d"/>
      <use x="508.919922" xlink:href="#DejaVuSans-65"/>
      <use x="570.443359" xlink:href="#DejaVuSans-56"/>
      <use x="638.851562" xlink:href="#DejaVuSans-5d"/>
     </g>
    </g>
   </g>
   <g id="matplotlib.axis_4">
    <g id="ytick_4">
     <g id="line2d_18">
      <g>
       <use style="stroke:#000000;stroke-width:0.8;" x="69.12" xlink:href="#md5e0549e47" y="279.36"/>
      </g>
     </g>
     <g id="text_12">
      <!-- 4 -->
      <g transform="translate(52.57625 285.058828)scale(0.15 -0.15)">
       <use xlink:href="#DejaVuSans-34"/>
      </g>
     </g>
    </g>
    <g id="ytick_5">
     <g id="line2d_19">
      <g>
       <use style="stroke:#000000;stroke-width:0.8;" x="69.12" xlink:href="#md5e0549e47" y="231.36"/>
      </g>
     </g>
     <g id="text_13">
      <!-- 6 -->
      <g transform="translate(52.57625 237.058828)scale(0.15 -0.15)">
       <use xlink:href="#DejaVuSans-36"/>
      </g>
     </g>
    </g>
    <g id="ytick_6">
     <g id="line2d_20">
      <g>
       <use style="stroke:#000000;stroke-width:0.8;" x="69.12" xlink:href="#md5e0549e47" y="183.36"/>
      </g>
     </g>
     <g id="text_14">
      <!-- 8 -->
      <g transform="translate(52.57625 189.058828)scale(0.15 -0.15)">
       <use xlink:href="#DejaVuSans-38"/>
      </g>
     </g>
    </g>
    <g id="ytick_7">
     <g id="line2d_21">
      <g>
       <use style="stroke:#000000;stroke-width:0.8;" x="69.12" xlink:href="#md5e0549e47" y="135.36"/>
      </g>
     </g>
     <g id="text_15">
      <!-- 10 -->
      <g transform="translate(43.0325 141.058828)scale(0.15 -0.15)">
       <use xlink:href="#DejaVuSans-31"/>
       <use x="63.623047" xlink:href="#DejaVuSans-30"/>
      </g>
     </g>
    </g>
    <g id="text_16">
     <!-- Counts -->
     <defs>
      <path d="M 64.40625 67.28125 
L 64.40625 56.890625 
Q 59.421875 61.53125 53.78125 63.8125 
Q 48.140625 66.109375 41.796875 66.109375 
Q 29.296875 66.109375 22.65625 58.46875 
Q 16.015625 50.828125 16.015625 36.375 
Q 16.015625 21.96875 22.65625 14.328125 
Q 29.296875 6.6875 41.796875 6.6875 
Q 48.140625 6.6875 53.78125 8.984375 
Q 59.421875 11.28125 64.40625 15.921875 
L 64.40625 5.609375 
Q 59.234375 2.09375 53.4375 0.328125 
Q 47.65625 -1.421875 41.21875 -1.421875 
Q 24.65625 -1.421875 15.125 8.703125 
Q 5.609375 18.84375 5.609375 36.375 
Q 5.609375 53.953125 15.125 64.078125 
Q 24.65625 74.21875 41.21875 74.21875 
Q 47.75 74.21875 53.53125 72.484375 
Q 59.328125 70.75 64.40625 67.28125 
z
" id="DejaVuSans-43"/>
     </defs>
     <g transform="translate(35.912969 233.539687)rotate(-90)scale(0.15 -0.15)">
      <use xlink:href="#DejaVuSans-43"/>
      <use x="69.824219" xlink:href="#DejaVuSans-6f"/>
      <use x="131.005859" xlink:href="#DejaVuSans-75"/>
      <use x="194.384766" xlink:href="#DejaVuSans-6e"/>
      <use x="257.763672" xlink:href="#DejaVuSans-74"/>
      <use x="296.972656" xlink:href="#DejaVuSans-73"/>
     </g>
    </g>
   </g>
   <g id="LineCollection_2">
    <path clip-path="url(#p80341fc9e6)" d="M 81.92 344.929219 
L 81.92 261.790781 
" style="fill:none;stroke:#0000ff;stroke-width:1.5;"/>
    <path clip-path="url(#p80341fc9e6)" d="M 112.987961 344.929219 
L 112.987961 261.790781 
" style="fill:none;stroke:#0000ff;stroke-width:1.5;"/>
    <path clip-path="url(#p80341fc9e6)" d="M 122.30835 336.259889 
L 122.30835 246.460111 
" style="fill:none;stroke:#0000ff;stroke-width:1.5;"/>
    <path clip-path="url(#p80341fc9e6)" d="M 128.521942 336.259889 
L 128.521942 246.460111 
" style="fill:none;stroke:#0000ff;stroke-width:1.5;"/>
    <path clip-path="url(#p80341fc9e6)" d="M 134.735534 344.929219 
L 134.735534 261.790781 
" style="fill:none;stroke:#0000ff;stroke-width:1.5;"/>
    <path clip-path="url(#p80341fc9e6)" d="M 144.055922 336.259889 
L 144.055922 246.460111 
" style="fill:none;stroke:#0000ff;stroke-width:1.5;"/>
    <path clip-path="url(#p80341fc9e6)" d="M 150.269515 336.259889 
L 150.269515 246.460111 
" style="fill:none;stroke:#0000ff;stroke-width:1.5;"/>
    <path clip-path="url(#p80341fc9e6)" d="M 153.376311 344.929219 
L 153.376311 261.790781 
" style="fill:none;stroke:#0000ff;stroke-width:1.5;"/>
    <path clip-path="url(#p80341fc9e6)" d="M 156.483107 336.259889 
L 156.483107 246.460111 
" style="fill:none;stroke:#0000ff;stroke-width:1.5;"/>
    <path clip-path="url(#p80341fc9e6)" d="M 159.589903 336.259889 
L 159.589903 246.460111 
" style="fill:none;stroke:#0000ff;stroke-width:1.5;"/>
    <path clip-path="url(#p80341fc9e6)" d="M 162.696699 344.929219 
L 162.696699 261.790781 
" style="fill:none;stroke:#0000ff;stroke-width:1.5;"/>
    <path clip-path="url(#p80341fc9e6)" d="M 165.803495 336.259889 
L 165.803495 246.460111 
" style="fill:none;stroke:#0000ff;stroke-width:1.5;"/>
    <path clip-path="url(#p80341fc9e6)" d="M 172.017087 336.259889 
L 172.017087 246.460111 
" style="fill:none;stroke:#0000ff;stroke-width:1.5;"/>
    <path clip-path="url(#p80341fc9e6)" d="M 175.123883 327.36 
L 175.123883 231.36 
" style="fill:none;stroke:#0000ff;stroke-width:1.5;"/>
    <path clip-path="url(#p80341fc9e6)" d="M 178.23068 327.36 
L 178.23068 231.36 
" style="fill:none;stroke:#0000ff;stroke-width:1.5;"/>
    <path clip-path="url(#p80341fc9e6)" d="M 181.337476 344.929219 
L 181.337476 261.790781 
" style="fill:none;stroke:#0000ff;stroke-width:1.5;"/>
    <path clip-path="url(#p80341fc9e6)" d="M 184.444272 299.644989 
L 184.444272 187.075011 
" style="fill:none;stroke:#0000ff;stroke-width:1.5;"/>
    <path clip-path="url(#p80341fc9e6)" d="M 187.551068 309.025631 
L 187.551068 201.694369 
" style="fill:none;stroke:#0000ff;stroke-width:1.5;"/>
    <path clip-path="url(#p80341fc9e6)" d="M 193.76466 344.929219 
L 193.76466 261.790781 
" style="fill:none;stroke:#0000ff;stroke-width:1.5;"/>
    <path clip-path="url(#p80341fc9e6)" d="M 196.871456 336.259889 
L 196.871456 246.460111 
" style="fill:none;stroke:#0000ff;stroke-width:1.5;"/>
    <path clip-path="url(#p80341fc9e6)" d="M 199.978252 336.259889 
L 199.978252 246.460111 
" style="fill:none;stroke:#0000ff;stroke-width:1.5;"/>
    <path clip-path="url(#p80341fc9e6)" d="M 203.085049 309.025631 
L 203.085049 201.694369 
" style="fill:none;stroke:#0000ff;stroke-width:1.5;"/>
    <path clip-path="url(#p80341fc9e6)" d="M 206.191845 318.271688 
L 206.191845 216.448312 
" style="fill:none;stroke:#0000ff;stroke-width:1.5;"/>
    <path clip-path="url(#p80341fc9e6)" d="M 209.298641 327.36 
L 209.298641 231.36 
" style="fill:none;stroke:#0000ff;stroke-width:1.5;"/>
    <path clip-path="url(#p80341fc9e6)" d="M 212.405437 336.259889 
L 212.405437 246.460111 
" style="fill:none;stroke:#0000ff;stroke-width:1.5;"/>
    <path clip-path="url(#p80341fc9e6)" d="M 215.512233 309.025631 
L 215.512233 201.694369 
" style="fill:none;stroke:#0000ff;stroke-width:1.5;"/>
    <path clip-path="url(#p80341fc9e6)" d="M 218.619029 270.858031 
L 218.619029 143.861969 
" style="fill:none;stroke:#0000ff;stroke-width:1.5;"/>
    <path clip-path="url(#p80341fc9e6)" d="M 221.725825 241.331423 
L 221.725825 101.388577 
" style="fill:none;stroke:#0000ff;stroke-width:1.5;"/>
    <path clip-path="url(#p80341fc9e6)" d="M 224.832621 261.086707 
L 224.832621 129.633293 
" style="fill:none;stroke:#0000ff;stroke-width:1.5;"/>
    <path clip-path="url(#p80341fc9e6)" d="M 227.939417 261.086707 
L 227.939417 129.633293 
" style="fill:none;stroke:#0000ff;stroke-width:1.5;"/>
    <path clip-path="url(#p80341fc9e6)" d="M 231.046214 327.36 
L 231.046214 231.36 
" style="fill:none;stroke:#0000ff;stroke-width:1.5;"/>
    <path clip-path="url(#p80341fc9e6)" d="M 234.15301 251.242251 
L 234.15301 115.477749 
" style="fill:none;stroke:#0000ff;stroke-width:1.5;"/>
    <path clip-path="url(#p80341fc9e6)" d="M 237.259806 241.331423 
L 237.259806 101.388577 
" style="fill:none;stroke:#0000ff;stroke-width:1.5;"/>
    <path clip-path="url(#p80341fc9e6)" d="M 240.366602 290.147754 
L 240.366602 172.572246 
" style="fill:none;stroke:#0000ff;stroke-width:1.5;"/>
    <path clip-path="url(#p80341fc9e6)" d="M 243.473398 299.644989 
L 243.473398 187.075011 
" style="fill:none;stroke:#0000ff;stroke-width:1.5;"/>
    <path clip-path="url(#p80341fc9e6)" d="M 246.580194 290.147754 
L 246.580194 172.572246 
" style="fill:none;stroke:#0000ff;stroke-width:1.5;"/>
    <path clip-path="url(#p80341fc9e6)" d="M 249.68699 336.259889 
L 249.68699 246.460111 
" style="fill:none;stroke:#0000ff;stroke-width:1.5;"/>
    <path clip-path="url(#p80341fc9e6)" d="M 252.793786 290.147754 
L 252.793786 172.572246 
" style="fill:none;stroke:#0000ff;stroke-width:1.5;"/>
    <path clip-path="url(#p80341fc9e6)" d="M 255.900583 221.332968 
L 255.900583 73.387032 
" style="fill:none;stroke:#0000ff;stroke-width:1.5;"/>
    <path clip-path="url(#p80341fc9e6)" d="M 259.007379 280.548234 
L 259.007379 158.171766 
" style="fill:none;stroke:#0000ff;stroke-width:1.5;"/>
    <path clip-path="url(#p80341fc9e6)" d="M 262.114175 190.958995 
L 262.114175 31.761005 
" style="fill:none;stroke:#0000ff;stroke-width:1.5;"/>
    <path clip-path="url(#p80341fc9e6)" d="M 265.220971 241.331423 
L 265.220971 101.388577 
" style="fill:none;stroke:#0000ff;stroke-width:1.5;"/>
    <path clip-path="url(#p80341fc9e6)" d="M 268.327767 280.548234 
L 268.327767 158.171766 
" style="fill:none;stroke:#0000ff;stroke-width:1.5;"/>
    <path clip-path="url(#p80341fc9e6)" d="M 271.434563 299.644989 
L 271.434563 187.075011 
" style="fill:none;stroke:#0000ff;stroke-width:1.5;"/>
    <path clip-path="url(#p80341fc9e6)" d="M 274.541359 261.086707 
L 274.541359 129.633293 
" style="fill:none;stroke:#0000ff;stroke-width:1.5;"/>
    <path clip-path="url(#p80341fc9e6)" d="M 277.648155 344.929219 
L 277.648155 261.790781 
" style="fill:none;stroke:#0000ff;stroke-width:1.5;"/>
    <path clip-path="url(#p80341fc9e6)" d="M 280.754951 251.242251 
L 280.754951 115.477749 
" style="fill:none;stroke:#0000ff;stroke-width:1.5;"/>
    <path clip-path="url(#p80341fc9e6)" d="M 283.861748 327.36 
L 283.861748 231.36 
" style="fill:none;stroke:#0000ff;stroke-width:1.5;"/>
    <path clip-path="url(#p80341fc9e6)" d="M 286.968544 318.271688 
L 286.968544 216.448312 
" style="fill:none;stroke:#0000ff;stroke-width:1.5;"/>
    <path clip-path="url(#p80341fc9e6)" d="M 290.07534 309.025631 
L 290.07534 201.694369 
" style="fill:none;stroke:#0000ff;stroke-width:1.5;"/>
    <path clip-path="url(#p80341fc9e6)" d="M 293.182136 251.242251 
L 293.182136 115.477749 
" style="fill:none;stroke:#0000ff;stroke-width:1.5;"/>
    <path clip-path="url(#p80341fc9e6)" d="M 296.288932 280.548234 
L 296.288932 158.171766 
" style="fill:none;stroke:#0000ff;stroke-width:1.5;"/>
    <path clip-path="url(#p80341fc9e6)" d="M 299.395728 231.36 
L 299.395728 87.36 
" style="fill:none;stroke:#0000ff;stroke-width:1.5;"/>
    <path clip-path="url(#p80341fc9e6)" d="M 302.502524 344.929219 
L 302.502524 261.790781 
" style="fill:none;stroke:#0000ff;stroke-width:1.5;"/>
    <path clip-path="url(#p80341fc9e6)" d="M 305.60932 251.242251 
L 305.60932 115.477749 
" style="fill:none;stroke:#0000ff;stroke-width:1.5;"/>
    <path clip-path="url(#p80341fc9e6)" d="M 308.716117 299.644989 
L 308.716117 187.075011 
" style="fill:none;stroke:#0000ff;stroke-width:1.5;"/>
    <path clip-path="url(#p80341fc9e6)" d="M 311.822913 299.644989 
L 311.822913 187.075011 
" style="fill:none;stroke:#0000ff;stroke-width:1.5;"/>
    <path clip-path="url(#p80341fc9e6)" d="M 314.929709 241.331423 
L 314.929709 101.388577 
" style="fill:none;stroke:#0000ff;stroke-width:1.5;"/>
    <path clip-path="url(#p80341fc9e6)" d="M 318.036505 280.548234 
L 318.036505 158.171766 
" style="fill:none;stroke:#0000ff;stroke-width:1.5;"/>
    <path clip-path="url(#p80341fc9e6)" d="M 321.143301 280.548234 
L 321.143301 158.171766 
" style="fill:none;stroke:#0000ff;stroke-width:1.5;"/>
    <path clip-path="url(#p80341fc9e6)" d="M 324.250097 290.147754 
L 324.250097 172.572246 
" style="fill:none;stroke:#0000ff;stroke-width:1.5;"/>
    <path clip-path="url(#p80341fc9e6)" d="M 327.356893 280.548234 
L 327.356893 158.171766 
" style="fill:none;stroke:#0000ff;stroke-width:1.5;"/>
    <path clip-path="url(#p80341fc9e6)" d="M 330.463689 280.548234 
L 330.463689 158.171766 
" style="fill:none;stroke:#0000ff;stroke-width:1.5;"/>
    <path clip-path="url(#p80341fc9e6)" d="M 333.570485 344.929219 
L 333.570485 261.790781 
" style="fill:none;stroke:#0000ff;stroke-width:1.5;"/>
    <path clip-path="url(#p80341fc9e6)" d="M 336.677282 299.644989 
L 336.677282 187.075011 
" style="fill:none;stroke:#0000ff;stroke-width:1.5;"/>
    <path clip-path="url(#p80341fc9e6)" d="M 339.784078 318.271688 
L 339.784078 216.448312 
" style="fill:none;stroke:#0000ff;stroke-width:1.5;"/>
    <path clip-path="url(#p80341fc9e6)" d="M 342.890874 280.548234 
L 342.890874 158.171766 
" style="fill:none;stroke:#0000ff;stroke-width:1.5;"/>
    <path clip-path="url(#p80341fc9e6)" d="M 345.99767 344.929219 
L 345.99767 261.790781 
" style="fill:none;stroke:#0000ff;stroke-width:1.5;"/>
    <path clip-path="url(#p80341fc9e6)" d="M 352.211262 344.929219 
L 352.211262 261.790781 
" style="fill:none;stroke:#0000ff;stroke-width:1.5;"/>
    <path clip-path="url(#p80341fc9e6)" d="M 355.318058 344.929219 
L 355.318058 261.790781 
" style="fill:none;stroke:#0000ff;stroke-width:1.5;"/>
    <path clip-path="url(#p80341fc9e6)" d="M 358.424854 336.259889 
L 358.424854 246.460111 
" style="fill:none;stroke:#0000ff;stroke-width:1.5;"/>
    <path clip-path="url(#p80341fc9e6)" d="M 361.53165 280.548234 
L 361.53165 158.171766 
" style="fill:none;stroke:#0000ff;stroke-width:1.5;"/>
    <path clip-path="url(#p80341fc9e6)" d="M 364.638447 336.259889 
L 364.638447 246.460111 
" style="fill:none;stroke:#0000ff;stroke-width:1.5;"/>
    <path clip-path="url(#p80341fc9e6)" d="M 367.745243 290.147754 
L 367.745243 172.572246 
" style="fill:none;stroke:#0000ff;stroke-width:1.5;"/>
    <path clip-path="url(#p80341fc9e6)" d="M 373.958835 336.259889 
L 373.958835 246.460111 
" style="fill:none;stroke:#0000ff;stroke-width:1.5;"/>
    <path clip-path="url(#p80341fc9e6)" d="M 401.92 336.259889 
L 401.92 246.460111 
" style="fill:none;stroke:#0000ff;stroke-width:1.5;"/>
   </g>
   <g id="line2d_22">
    <path clip-path="url(#p80341fc9e6)" d="M 81.92 302.77506 
L 96.334414 302.438498 
L 107.225305 301.96475 
L 115.873954 301.377214 
L 123.561642 300.637085 
L 130.288368 299.773378 
L 136.374454 298.779581 
L 142.14022 297.619161 
L 147.585666 296.299568 
L 152.710791 294.835989 
L 157.835916 293.137241 
L 162.640721 291.315401 
L 167.445526 289.25955 
L 172.25033 286.961303 
L 177.055135 284.416591 
L 181.85994 281.626511 
L 186.985065 278.388033 
L 192.430511 274.669155 
L 198.196276 270.45425 
L 204.923003 265.246495 
L 214.212292 257.741851 
L 226.384464 247.940529 
L 232.470551 243.333747 
L 237.595676 239.736976 
L 242.08016 236.86678 
L 246.244324 234.478331 
L 250.088168 232.542522 
L 253.611692 231.017496 
L 257.135215 229.748976 
L 260.338418 228.830696 
L 263.541622 228.145318 
L 266.744825 227.699471 
L 269.948028 227.497492 
L 273.151231 227.541349 
L 276.354434 227.830616 
L 279.557638 228.362472 
L 282.760841 229.131755 
L 285.964044 230.131039 
L 289.167247 231.350758 
L 292.690771 232.933201 
L 296.214294 234.750452 
L 300.058138 236.976914 
L 304.222302 239.643591 
L 309.027107 242.99923 
L 314.472553 247.086104 
L 321.5196 252.673685 
L 342.34042 269.377535 
L 348.426507 273.885477 
L 353.871952 277.658866 
L 358.997077 280.95365 
L 364.122202 283.98023 
L 368.927007 286.564996 
L 373.731812 288.903104 
L 378.536617 290.997838 
L 383.341421 292.856942 
L 388.466547 294.593093 
L 393.591672 296.091227 
L 399.037117 297.444107 
L 401.92 298.069057 
L 401.92 298.069057 
" style="fill:none;stroke:#ff0000;stroke-linecap:square;stroke-width:1.5;"/>
   </g>
   <g id="line2d_23">
    <g clip-path="url(#p80341fc9e6)">
     <use style="fill:#0000ff;stroke:#0000ff;" x="81.92" xlink:href="#m8fc4c5e76a" y="303.36"/>
     <use style="fill:#0000ff;stroke:#0000ff;" x="112.987961" xlink:href="#m8fc4c5e76a" y="303.36"/>
     <use style="fill:#0000ff;stroke:#0000ff;" x="122.30835" xlink:href="#m8fc4c5e76a" y="291.36"/>
     <use style="fill:#0000ff;stroke:#0000ff;" x="128.521942" xlink:href="#m8fc4c5e76a" y="291.36"/>
     <use style="fill:#0000ff;stroke:#0000ff;" x="134.735534" xlink:href="#m8fc4c5e76a" y="303.36"/>
     <use style="fill:#0000ff;stroke:#0000ff;" x="144.055922" xlink:href="#m8fc4c5e76a" y="291.36"/>
     <use style="fill:#0000ff;stroke:#0000ff;" x="150.269515" xlink:href="#m8fc4c5e76a" y="291.36"/>
     <use style="fill:#0000ff;stroke:#0000ff;" x="153.376311" xlink:href="#m8fc4c5e76a" y="303.36"/>
     <use style="fill:#0000ff;stroke:#0000ff;" x="156.483107" xlink:href="#m8fc4c5e76a" y="291.36"/>
     <use style="fill:#0000ff;stroke:#0000ff;" x="159.589903" xlink:href="#m8fc4c5e76a" y="291.36"/>
     <use style="fill:#0000ff;stroke:#0000ff;" x="162.696699" xlink:href="#m8fc4c5e76a" y="303.36"/>
     <use style="fill:#0000ff;stroke:#0000ff;" x="165.803495" xlink:href="#m8fc4c5e76a" y="291.36"/>
     <use style="fill:#0000ff;stroke:#0000ff;" x="172.017087" xlink:href="#m8fc4c5e76a" y="291.36"/>
     <use style="fill:#0000ff;stroke:#0000ff;" x="175.123883" xlink:href="#m8fc4c5e76a" y="279.36"/>
     <use style="fill:#0000ff;stroke:#0000ff;" x="178.23068" xlink:href="#m8fc4c5e76a" y="279.36"/>
     <use style="fill:#0000ff;stroke:#0000ff;" x="181.337476" xlink:href="#m8fc4c5e76a" y="303.36"/>
     <use style="fill:#0000ff;stroke:#0000ff;" x="184.444272" xlink:href="#m8fc4c5e76a" y="243.36"/>
     <use style="fill:#0000ff;stroke:#0000ff;" x="187.551068" xlink:href="#m8fc4c5e76a" y="255.36"/>
     <use style="fill:#0000ff;stroke:#0000ff;" x="193.76466" xlink:href="#m8fc4c5e76a" y="303.36"/>
     <use style="fill:#0000ff;stroke:#0000ff;" x="196.871456" xlink:href="#m8fc4c5e76a" y="291.36"/>
     <use style="fill:#0000ff;stroke:#0000ff;" x="199.978252" xlink:href="#m8fc4c5e76a" y="291.36"/>
     <use style="fill:#0000ff;stroke:#0000ff;" x="203.085049" xlink:href="#m8fc4c5e76a" y="255.36"/>
     <use style="fill:#0000ff;stroke:#0000ff;" x="206.191845" xlink:href="#m8fc4c5e76a" y="267.36"/>
     <use style="fill:#0000ff;stroke:#0000ff;" x="209.298641" xlink:href="#m8fc4c5e76a" y="279.36"/>
     <use style="fill:#0000ff;stroke:#0000ff;" x="212.405437" xlink:href="#m8fc4c5e76a" y="291.36"/>
     <use style="fill:#0000ff;stroke:#0000ff;" x="215.512233" xlink:href="#m8fc4c5e76a" y="255.36"/>
     <use style="fill:#0000ff;stroke:#0000ff;" x="218.619029" xlink:href="#m8fc4c5e76a" y="207.36"/>
     <use style="fill:#0000ff;stroke:#0000ff;" x="221.725825" xlink:href="#m8fc4c5e76a" y="171.36"/>
     <use style="fill:#0000ff;stroke:#0000ff;" x="224.832621" xlink:href="#m8fc4c5e76a" y="195.36"/>
     <use style="fill:#0000ff;stroke:#0000ff;" x="227.939417" xlink:href="#m8fc4c5e76a" y="195.36"/>
     <use style="fill:#0000ff;stroke:#0000ff;" x="231.046214" xlink:href="#m8fc4c5e76a" y="279.36"/>
     <use style="fill:#0000ff;stroke:#0000ff;" x="234.15301" xlink:href="#m8fc4c5e76a" y="183.36"/>
     <use style="fill:#0000ff;stroke:#0000ff;" x="237.259806" xlink:href="#m8fc4c5e76a" y="171.36"/>
     <use style="fill:#0000ff;stroke:#0000ff;" x="240.366602" xlink:href="#m8fc4c5e76a" y="231.36"/>
     <use style="fill:#0000ff;stroke:#0000ff;" x="243.473398" xlink:href="#m8fc4c5e76a" y="243.36"/>
     <use style="fill:#0000ff;stroke:#0000ff;" x="246.580194" xlink:href="#m8fc4c5e76a" y="231.36"/>
     <use style="fill:#0000ff;stroke:#0000ff;" x="249.68699" xlink:href="#m8fc4c5e76a" y="291.36"/>
     <use style="fill:#0000ff;stroke:#0000ff;" x="252.793786" xlink:href="#m8fc4c5e76a" y="231.36"/>
     <use style="fill:#0000ff;stroke:#0000ff;" x="255.900583" xlink:href="#m8fc4c5e76a" y="147.36"/>
     <use style="fill:#0000ff;stroke:#0000ff;" x="259.007379" xlink:href="#m8fc4c5e76a" y="219.36"/>
     <use style="fill:#0000ff;stroke:#0000ff;" x="262.114175" xlink:href="#m8fc4c5e76a" y="111.36"/>
     <use style="fill:#0000ff;stroke:#0000ff;" x="265.220971" xlink:href="#m8fc4c5e76a" y="171.36"/>
     <use style="fill:#0000ff;stroke:#0000ff;" x="268.327767" xlink:href="#m8fc4c5e76a" y="219.36"/>
     <use style="fill:#0000ff;stroke:#0000ff;" x="271.434563" xlink:href="#m8fc4c5e76a" y="243.36"/>
     <use style="fill:#0000ff;stroke:#0000ff;" x="274.541359" xlink:href="#m8fc4c5e76a" y="195.36"/>
     <use style="fill:#0000ff;stroke:#0000ff;" x="277.648155" xlink:href="#m8fc4c5e76a" y="303.36"/>
     <use style="fill:#0000ff;stroke:#0000ff;" x="280.754951" xlink:href="#m8fc4c5e76a" y="183.36"/>
     <use style="fill:#0000ff;stroke:#0000ff;" x="283.861748" xlink:href="#m8fc4c5e76a" y="279.36"/>
     <use style="fill:#0000ff;stroke:#0000ff;" x="286.968544" xlink:href="#m8fc4c5e76a" y="267.36"/>
     <use style="fill:#0000ff;stroke:#0000ff;" x="290.07534" xlink:href="#m8fc4c5e76a" y="255.36"/>
     <use style="fill:#0000ff;stroke:#0000ff;" x="293.182136" xlink:href="#m8fc4c5e76a" y="183.36"/>
     <use style="fill:#0000ff;stroke:#0000ff;" x="296.288932" xlink:href="#m8fc4c5e76a" y="219.36"/>
     <use style="fill:#0000ff;stroke:#0000ff;" x="299.395728" xlink:href="#m8fc4c5e76a" y="159.36"/>
     <use style="fill:#0000ff;stroke:#0000ff;" x="302.502524" xlink:href="#m8fc4c5e76a" y="303.36"/>
     <use style="fill:#0000ff;stroke:#0000ff;" x="305.60932" xlink:href="#m8fc4c5e76a" y="183.36"/>
     <use style="fill:#0000ff;stroke:#0000ff;" x="308.716117" xlink:href="#m8fc4c5e76a" y="243.36"/>
     <use style="fill:#0000ff;stroke:#0000ff;" x="311.822913" xlink:href="#m8fc4c5e76a" y="243.36"/>
     <use style="fill:#0000ff;stroke:#0000ff;" x="314.929709" xlink:href="#m8fc4c5e76a" y="171.36"/>
     <use style="fill:#0000ff;stroke:#0000ff;" x="318.036505" xlink:href="#m8fc4c5e76a" y="219.36"/>
     <use style="fill:#0000ff;stroke:#0000ff;" x="321.143301" xlink:href="#m8fc4c5e76a" y="219.36"/>
     <use style="fill:#0000ff;stroke:#0000ff;" x="324.250097" xlink:href="#m8fc4c5e76a" y="231.36"/>
     <use style="fill:#0000ff;stroke:#0000ff;" x="327.356893" xlink:href="#m8fc4c5e76a" y="219.36"/>
     <use style="fill:#0000ff;stroke:#0000ff;" x="330.463689" xlink:href="#m8fc4c5e76a" y="219.36"/>
     <use style="fill:#0000ff;stroke:#0000ff;" x="333.570485" xlink:href="#m8fc4c5e76a" y="303.36"/>
     <use style="fill:#0000ff;stroke:#0000ff;" x="336.677282" xlink:href="#m8fc4c5e76a" y="243.36"/>
     <use style="fill:#0000ff;stroke:#0000ff;" x="339.784078" xlink:href="#m8fc4c5e76a" y="267.36"/>
     <use style="fill:#0000ff;stroke:#0000ff;" x="342.890874" xlink:href="#m8fc4c5e76a" y="219.36"/>
     <use style="fill:#0000ff;stroke:#0000ff;" x="345.99767" xlink:href="#m8fc4c5e76a" y="303.36"/>
     <use style="fill:#0000ff;stroke:#0000ff;" x="352.211262" xlink:href="#m8fc4c5e76a" y="303.36"/>
     <use style="fill:#0000ff;stroke:#0000ff;" x="355.318058" xlink:href="#m8fc4c5e76a" y="303.36"/>
     <use style="fill:#0000ff;stroke:#0000ff;" x="358.424854" xlink:href="#m8fc4c5e76a" y="291.36"/>
     <use style="fill:#0000ff;stroke:#0000ff;" x="361.53165" xlink:href="#m8fc4c5e76a" y="219.36"/>
     <use style="fill:#0000ff;stroke:#0000ff;" x="364.638447" xlink:href="#m8fc4c5e76a" y="291.36"/>
     <use style="fill:#0000ff;stroke:#0000ff;" x="367.745243" xlink:href="#m8fc4c5e76a" y="231.36"/>
     <use style="fill:#0000ff;stroke:#0000ff;" x="373.958835" xlink:href="#m8fc4c5e76a" y="291.36"/>
     <use style="fill:#0000ff;stroke:#0000ff;" x="401.92" xlink:href="#m8fc4c5e76a" y="291.36"/>
    </g>
   </g>
   <g id="patch_8">
    <path d="M 69.12 311.04 
L 69.12 103.68 
" style="fill:none;stroke:#000000;stroke-linecap:square;stroke-linejoin:miter;stroke-width:0.8;"/>
   </g>
   <g id="patch_9">
    <path d="M 414.72 311.04 
L 414.72 103.68 
" style="fill:none;stroke:#000000;stroke-linecap:square;stroke-linejoin:miter;stroke-width:0.8;"/>
   </g>
   <g id="patch_10">
    <path d="M 69.12 311.04 
L 414.72 311.04 
" style="fill:none;stroke:#000000;stroke-linecap:square;stroke-linejoin:miter;stroke-width:0.8;"/>
   </g>
   <g id="patch_11">
    <path d="M 69.12 103.68 
L 414.72 103.68 
" style="fill:none;stroke:#000000;stroke-linecap:square;stroke-linejoin:miter;stroke-width:0.8;"/>
   </g>
  </g>
 </g>
 <defs>
  <clipPath id="p48fe24018f">
   <rect height="51.84" width="345.6" x="69.12" y="44.928"/>
  </clipPath>
  <clipPath id="p80341fc9e6">
   <rect height="207.36" width="345.6" x="69.12" y="103.68"/>
  </clipPath>
 </defs>
</svg>
