<?xml version="1.0" encoding="utf-8" standalone="no"?>
<!DOCTYPE svg PUBLIC "-//W3C//DTD SVG 1.1//EN"
  "http://www.w3.org/Graphics/SVG/1.1/DTD/svg11.dtd">
<!-- Created with matplotlib (http://matplotlib.org/) -->
<svg height="345pt" version="1.1" viewBox="0 0 460 345" width="460pt" xmlns="http://www.w3.org/2000/svg" xmlns:xlink="http://www.w3.org/1999/xlink">
 <defs>
  <style type="text/css">
*{stroke-linecap:butt;stroke-linejoin:round;}
  </style>
 </defs>
 <g id="figure_1">
  <g id="patch_1">
   <path d="M 0 345.6 
L 460.8 345.6 
L 460.8 0 
L 0 0 
z
" style="fill:#ffffff;"/>
  </g>
  <g id="axes_1">
   <g id="patch_2">
    <path d="M 69.12 96.768 
L 414.72 96.768 
L 414.72 44.928 
L 69.12 44.928 
z
" style="fill:#ffffff;"/>
   </g>
   <g id="matplotlib.axis_1">
    <g id="xtick_1">
     <g id="line2d_1">
      <defs>
       <path d="M 0 0 
L 0 3.5 
" id="m7759a2d567" style="stroke:#000000;stroke-width:0.8;"/>
      </defs>
      <g>
       <use style="stroke:#000000;stroke-width:0.8;" x="147.46244" xlink:href="#m7759a2d567" y="96.768"/>
      </g>
     </g>
    </g>
    <g id="xtick_2">
     <g id="line2d_2">
      <g>
       <use style="stroke:#000000;stroke-width:0.8;" x="238.636104" xlink:href="#m7759a2d567" y="96.768"/>
      </g>
     </g>
    </g>
    <g id="xtick_3">
     <g id="line2d_3">
      <g>
       <use style="stroke:#000000;stroke-width:0.8;" x="329.809768" xlink:href="#m7759a2d567" y="96.768"/>
      </g>
     </g>
    </g>
   </g>
   <g id="matplotlib.axis_2">
    <g id="ytick_1">
     <g id="line2d_4">
      <defs>
       <path d="M 0 0 
L -3.5 0 
" id="m5c0e32f2d0" style="stroke:#000000;stroke-width:0.8;"/>
      </defs>
      <g>
       <use style="stroke:#000000;stroke-width:0.8;" x="69.12" xlink:href="#m5c0e32f2d0" y="92.805601"/>
      </g>
     </g>
     <g id="text_1">
      <!-- −1 -->
      <defs>
       <path d="M 10.59375 35.5 
L 73.1875 35.5 
L 73.1875 27.203125 
L 10.59375 27.203125 
z
" id="DejaVuSans-2212"/>
       <path d="M 12.40625 8.296875 
L 28.515625 8.296875 
L 28.515625 63.921875 
L 10.984375 60.40625 
L 10.984375 69.390625 
L 28.421875 72.90625 
L 38.28125 72.90625 
L 38.28125 8.296875 
L 54.390625 8.296875 
L 54.390625 0 
L 12.40625 0 
z
" id="DejaVuSans-31"/>
      </defs>
      <g transform="translate(40.006719 98.504429)scale(0.15 -0.15)">
       <use xlink:href="#DejaVuSans-2212"/>
       <use x="83.789062" xlink:href="#DejaVuSans-31"/>
      </g>
     </g>
    </g>
    <g id="ytick_2">
     <g id="line2d_5">
      <g>
       <use style="stroke:#000000;stroke-width:0.8;" x="69.12" xlink:href="#m5c0e32f2d0" y="76.598908"/>
      </g>
     </g>
    </g>
    <g id="ytick_3">
     <g id="line2d_6">
      <g>
       <use style="stroke:#000000;stroke-width:0.8;" x="69.12" xlink:href="#m5c0e32f2d0" y="60.392215"/>
      </g>
     </g>
     <g id="text_2">
      <!-- 1 -->
      <g transform="translate(52.57625 66.091043)scale(0.15 -0.15)">
       <use xlink:href="#DejaVuSans-31"/>
      </g>
     </g>
    </g>
    <g id="text_3">
     <!-- Studentized -->
     <defs>
      <path d="M 53.515625 70.515625 
L 53.515625 60.890625 
Q 47.90625 63.578125 42.921875 64.890625 
Q 37.9375 66.21875 33.296875 66.21875 
Q 25.25 66.21875 20.875 63.09375 
Q 16.5 59.96875 16.5 54.203125 
Q 16.5 49.359375 19.40625 46.890625 
Q 22.3125 44.4375 30.421875 42.921875 
L 36.375 41.703125 
Q 47.40625 39.59375 52.65625 34.296875 
Q 57.90625 29 57.90625 20.125 
Q 57.90625 9.515625 50.796875 4.046875 
Q 43.703125 -1.421875 29.984375 -1.421875 
Q 24.8125 -1.421875 18.96875 -0.25 
Q 13.140625 0.921875 6.890625 3.21875 
L 6.890625 13.375 
Q 12.890625 10.015625 18.65625 8.296875 
Q 24.421875 6.59375 29.984375 6.59375 
Q 38.421875 6.59375 43.015625 9.90625 
Q 47.609375 13.234375 47.609375 19.390625 
Q 47.609375 24.75 44.3125 27.78125 
Q 41.015625 30.8125 33.5 32.328125 
L 27.484375 33.5 
Q 16.453125 35.6875 11.515625 40.375 
Q 6.59375 45.0625 6.59375 53.421875 
Q 6.59375 63.09375 13.40625 68.65625 
Q 20.21875 74.21875 32.171875 74.21875 
Q 37.3125 74.21875 42.625 73.28125 
Q 47.953125 72.359375 53.515625 70.515625 
z
" id="DejaVuSans-53"/>
      <path d="M 18.3125 70.21875 
L 18.3125 54.6875 
L 36.8125 54.6875 
L 36.8125 47.703125 
L 18.3125 47.703125 
L 18.3125 18.015625 
Q 18.3125 11.328125 20.140625 9.421875 
Q 21.96875 7.515625 27.59375 7.515625 
L 36.8125 7.515625 
L 36.8125 0 
L 27.59375 0 
Q 17.1875 0 13.234375 3.875 
Q 9.28125 7.765625 9.28125 18.015625 
L 9.28125 47.703125 
L 2.6875 47.703125 
L 2.6875 54.6875 
L 9.28125 54.6875 
L 9.28125 70.21875 
z
" id="DejaVuSans-74"/>
      <path d="M 8.5 21.578125 
L 8.5 54.6875 
L 17.484375 54.6875 
L 17.484375 21.921875 
Q 17.484375 14.15625 20.5 10.265625 
Q 23.53125 6.390625 29.59375 6.390625 
Q 36.859375 6.390625 41.078125 11.03125 
Q 45.3125 15.671875 45.3125 23.6875 
L 45.3125 54.6875 
L 54.296875 54.6875 
L 54.296875 0 
L 45.3125 0 
L 45.3125 8.40625 
Q 42.046875 3.421875 37.71875 1 
Q 33.40625 -1.421875 27.6875 -1.421875 
Q 18.265625 -1.421875 13.375 4.4375 
Q 8.5 10.296875 8.5 21.578125 
z
M 31.109375 56 
z
" id="DejaVuSans-75"/>
      <path d="M 45.40625 46.390625 
L 45.40625 75.984375 
L 54.390625 75.984375 
L 54.390625 0 
L 45.40625 0 
L 45.40625 8.203125 
Q 42.578125 3.328125 38.25 0.953125 
Q 33.9375 -1.421875 27.875 -1.421875 
Q 17.96875 -1.421875 11.734375 6.484375 
Q 5.515625 14.40625 5.515625 27.296875 
Q 5.515625 40.1875 11.734375 48.09375 
Q 17.96875 56 27.875 56 
Q 33.9375 56 38.25 53.625 
Q 42.578125 51.265625 45.40625 46.390625 
z
M 14.796875 27.296875 
Q 14.796875 17.390625 18.875 11.75 
Q 22.953125 6.109375 30.078125 6.109375 
Q 37.203125 6.109375 41.296875 11.75 
Q 45.40625 17.390625 45.40625 27.296875 
Q 45.40625 37.203125 41.296875 42.84375 
Q 37.203125 48.484375 30.078125 48.484375 
Q 22.953125 48.484375 18.875 42.84375 
Q 14.796875 37.203125 14.796875 27.296875 
z
" id="DejaVuSans-64"/>
      <path d="M 56.203125 29.59375 
L 56.203125 25.203125 
L 14.890625 25.203125 
Q 15.484375 15.921875 20.484375 11.0625 
Q 25.484375 6.203125 34.421875 6.203125 
Q 39.59375 6.203125 44.453125 7.46875 
Q 49.3125 8.734375 54.109375 11.28125 
L 54.109375 2.78125 
Q 49.265625 0.734375 44.1875 -0.34375 
Q 39.109375 -1.421875 33.890625 -1.421875 
Q 20.796875 -1.421875 13.15625 6.1875 
Q 5.515625 13.8125 5.515625 26.8125 
Q 5.515625 40.234375 12.765625 48.109375 
Q 20.015625 56 32.328125 56 
Q 43.359375 56 49.78125 48.890625 
Q 56.203125 41.796875 56.203125 29.59375 
z
M 47.21875 32.234375 
Q 47.125 39.59375 43.09375 43.984375 
Q 39.0625 48.390625 32.421875 48.390625 
Q 24.90625 48.390625 20.390625 44.140625 
Q 15.875 39.890625 15.1875 32.171875 
z
" id="DejaVuSans-65"/>
      <path d="M 54.890625 33.015625 
L 54.890625 0 
L 45.90625 0 
L 45.90625 32.71875 
Q 45.90625 40.484375 42.875 44.328125 
Q 39.84375 48.1875 33.796875 48.1875 
Q 26.515625 48.1875 22.3125 43.546875 
Q 18.109375 38.921875 18.109375 30.90625 
L 18.109375 0 
L 9.078125 0 
L 9.078125 54.6875 
L 18.109375 54.6875 
L 18.109375 46.1875 
Q 21.34375 51.125 25.703125 53.5625 
Q 30.078125 56 35.796875 56 
Q 45.21875 56 50.046875 50.171875 
Q 54.890625 44.34375 54.890625 33.015625 
z
" id="DejaVuSans-6e"/>
      <path d="M 9.421875 54.6875 
L 18.40625 54.6875 
L 18.40625 0 
L 9.421875 0 
z
M 9.421875 75.984375 
L 18.40625 75.984375 
L 18.40625 64.59375 
L 9.421875 64.59375 
z
" id="DejaVuSans-69"/>
      <path d="M 5.515625 54.6875 
L 48.1875 54.6875 
L 48.1875 46.484375 
L 14.40625 7.171875 
L 48.1875 7.171875 
L 48.1875 0 
L 4.296875 0 
L 4.296875 8.203125 
L 38.09375 47.515625 
L 5.515625 47.515625 
z
" id="DejaVuSans-7a"/>
     </defs>
     <g transform="translate(16.090469 115.768313)rotate(-90)scale(0.15 -0.15)">
      <use xlink:href="#DejaVuSans-53"/>
      <use x="63.476562" xlink:href="#DejaVuSans-74"/>
      <use x="102.685547" xlink:href="#DejaVuSans-75"/>
      <use x="166.064453" xlink:href="#DejaVuSans-64"/>
      <use x="229.541016" xlink:href="#DejaVuSans-65"/>
      <use x="291.064453" xlink:href="#DejaVuSans-6e"/>
      <use x="354.443359" xlink:href="#DejaVuSans-74"/>
      <use x="393.652344" xlink:href="#DejaVuSans-69"/>
      <use x="421.435547" xlink:href="#DejaVuSans-7a"/>
      <use x="473.925781" xlink:href="#DejaVuSans-65"/>
      <use x="535.449219" xlink:href="#DejaVuSans-64"/>
     </g>
     <!-- Residuals -->
     <defs>
      <path d="M 44.390625 34.1875 
Q 47.5625 33.109375 50.5625 29.59375 
Q 53.5625 26.078125 56.59375 19.921875 
L 66.609375 0 
L 56 0 
L 46.6875 18.703125 
Q 43.0625 26.03125 39.671875 28.421875 
Q 36.28125 30.8125 30.421875 30.8125 
L 19.671875 30.8125 
L 19.671875 0 
L 9.8125 0 
L 9.8125 72.90625 
L 32.078125 72.90625 
Q 44.578125 72.90625 50.734375 67.671875 
Q 56.890625 62.453125 56.890625 51.90625 
Q 56.890625 45.015625 53.6875 40.46875 
Q 50.484375 35.9375 44.390625 34.1875 
z
M 19.671875 64.796875 
L 19.671875 38.921875 
L 32.078125 38.921875 
Q 39.203125 38.921875 42.84375 42.21875 
Q 46.484375 45.515625 46.484375 51.90625 
Q 46.484375 58.296875 42.84375 61.546875 
Q 39.203125 64.796875 32.078125 64.796875 
z
" id="DejaVuSans-52"/>
      <path d="M 44.28125 53.078125 
L 44.28125 44.578125 
Q 40.484375 46.53125 36.375 47.5 
Q 32.28125 48.484375 27.875 48.484375 
Q 21.1875 48.484375 17.84375 46.4375 
Q 14.5 44.390625 14.5 40.28125 
Q 14.5 37.15625 16.890625 35.375 
Q 19.28125 33.59375 26.515625 31.984375 
L 29.59375 31.296875 
Q 39.15625 29.25 43.1875 25.515625 
Q 47.21875 21.78125 47.21875 15.09375 
Q 47.21875 7.46875 41.1875 3.015625 
Q 35.15625 -1.421875 24.609375 -1.421875 
Q 20.21875 -1.421875 15.453125 -0.5625 
Q 10.6875 0.296875 5.421875 2 
L 5.421875 11.28125 
Q 10.40625 8.6875 15.234375 7.390625 
Q 20.0625 6.109375 24.8125 6.109375 
Q 31.15625 6.109375 34.5625 8.28125 
Q 37.984375 10.453125 37.984375 14.40625 
Q 37.984375 18.0625 35.515625 20.015625 
Q 33.0625 21.96875 24.703125 23.78125 
L 21.578125 24.515625 
Q 13.234375 26.265625 9.515625 29.90625 
Q 5.8125 33.546875 5.8125 39.890625 
Q 5.8125 47.609375 11.28125 51.796875 
Q 16.75 56 26.8125 56 
Q 31.78125 56 36.171875 55.265625 
Q 40.578125 54.546875 44.28125 53.078125 
z
" id="DejaVuSans-73"/>
      <path d="M 34.28125 27.484375 
Q 23.390625 27.484375 19.1875 25 
Q 14.984375 22.515625 14.984375 16.5 
Q 14.984375 11.71875 18.140625 8.90625 
Q 21.296875 6.109375 26.703125 6.109375 
Q 34.1875 6.109375 38.703125 11.40625 
Q 43.21875 16.703125 43.21875 25.484375 
L 43.21875 27.484375 
z
M 52.203125 31.203125 
L 52.203125 0 
L 43.21875 0 
L 43.21875 8.296875 
Q 40.140625 3.328125 35.546875 0.953125 
Q 30.953125 -1.421875 24.3125 -1.421875 
Q 15.921875 -1.421875 10.953125 3.296875 
Q 6 8.015625 6 15.921875 
Q 6 25.140625 12.171875 29.828125 
Q 18.359375 34.515625 30.609375 34.515625 
L 43.21875 34.515625 
L 43.21875 35.40625 
Q 43.21875 41.609375 39.140625 45 
Q 35.0625 48.390625 27.6875 48.390625 
Q 23 48.390625 18.546875 47.265625 
Q 14.109375 46.140625 10.015625 43.890625 
L 10.015625 52.203125 
Q 14.9375 54.109375 19.578125 55.046875 
Q 24.21875 56 28.609375 56 
Q 40.484375 56 46.34375 49.84375 
Q 52.203125 43.703125 52.203125 31.203125 
z
" id="DejaVuSans-61"/>
      <path d="M 9.421875 75.984375 
L 18.40625 75.984375 
L 18.40625 0 
L 9.421875 0 
z
" id="DejaVuSans-6c"/>
     </defs>
     <g transform="translate(32.887188 106.761281)rotate(-90)scale(0.15 -0.15)">
      <use xlink:href="#DejaVuSans-52"/>
      <use x="69.419922" xlink:href="#DejaVuSans-65"/>
      <use x="130.943359" xlink:href="#DejaVuSans-73"/>
      <use x="183.042969" xlink:href="#DejaVuSans-69"/>
      <use x="210.826172" xlink:href="#DejaVuSans-64"/>
      <use x="274.302734" xlink:href="#DejaVuSans-75"/>
      <use x="337.681641" xlink:href="#DejaVuSans-61"/>
      <use x="398.960938" xlink:href="#DejaVuSans-6c"/>
      <use x="426.744141" xlink:href="#DejaVuSans-73"/>
     </g>
    </g>
   </g>
   <g id="LineCollection_1">
    <path clip-path="url(#paada76ddfc)" d="M 81.92 91.043525 
L 81.92 58.630139 
" style="fill:none;stroke:#0000ff;stroke-width:1.5;"/>
    <path clip-path="url(#paada76ddfc)" d="M 95.479322 95.255853 
L 95.479322 62.842467 
" style="fill:none;stroke:#0000ff;stroke-width:1.5;"/>
    <path clip-path="url(#paada76ddfc)" d="M 111.750508 95.267267 
L 111.750508 62.853881 
" style="fill:none;stroke:#0000ff;stroke-width:1.5;"/>
    <path clip-path="url(#paada76ddfc)" d="M 114.462373 95.271091 
L 114.462373 62.857705 
" style="fill:none;stroke:#0000ff;stroke-width:1.5;"/>
    <path clip-path="url(#paada76ddfc)" d="M 163.275932 95.863582 
L 163.275932 63.450195 
" style="fill:none;stroke:#0000ff;stroke-width:1.5;"/>
    <path clip-path="url(#paada76ddfc)" d="M 168.699661 88.061965 
L 168.699661 55.648579 
" style="fill:none;stroke:#0000ff;stroke-width:1.5;"/>
    <path clip-path="url(#paada76ddfc)" d="M 171.411525 88.183133 
L 171.411525 55.769747 
" style="fill:none;stroke:#0000ff;stroke-width:1.5;"/>
    <path clip-path="url(#paada76ddfc)" d="M 174.12339 92.10018 
L 174.12339 59.686794 
" style="fill:none;stroke:#0000ff;stroke-width:1.5;"/>
    <path clip-path="url(#paada76ddfc)" d="M 176.835254 85.074068 
L 176.835254 52.660682 
" style="fill:none;stroke:#0000ff;stroke-width:1.5;"/>
    <path clip-path="url(#paada76ddfc)" d="M 190.394576 97.803782 
L 190.394576 65.390396 
" style="fill:none;stroke:#0000ff;stroke-width:1.5;"/>
    <path clip-path="url(#paada76ddfc)" d="M 193.106441 98.137725 
L 193.106441 65.724339 
" style="fill:none;stroke:#0000ff;stroke-width:1.5;"/>
    <path clip-path="url(#paada76ddfc)" d="M 195.818305 94.083914 
L 195.818305 61.670528 
" style="fill:none;stroke:#0000ff;stroke-width:1.5;"/>
    <path clip-path="url(#paada76ddfc)" d="M 201.242034 84.193825 
L 201.242034 51.780439 
" style="fill:none;stroke:#0000ff;stroke-width:1.5;"/>
    <path clip-path="url(#paada76ddfc)" d="M 206.665763 95.771299 
L 206.665763 63.357913 
" style="fill:none;stroke:#0000ff;stroke-width:1.5;"/>
    <path clip-path="url(#paada76ddfc)" d="M 212.089492 89.141506 
L 212.089492 56.72812 
" style="fill:none;stroke:#0000ff;stroke-width:1.5;"/>
    <path clip-path="url(#paada76ddfc)" d="M 214.801356 83.309055 
L 214.801356 50.895669 
" style="fill:none;stroke:#0000ff;stroke-width:1.5;"/>
    <path clip-path="url(#paada76ddfc)" d="M 220.225085 94.459012 
L 220.225085 62.045626 
" style="fill:none;stroke:#0000ff;stroke-width:1.5;"/>
    <path clip-path="url(#paada76ddfc)" d="M 222.936949 104.04534 
L 222.936949 71.631954 
" style="fill:none;stroke:#0000ff;stroke-width:1.5;"/>
    <path clip-path="url(#paada76ddfc)" d="M 225.648814 82.517548 
L 225.648814 50.104162 
" style="fill:none;stroke:#0000ff;stroke-width:1.5;"/>
    <path clip-path="url(#paada76ddfc)" d="M 228.360678 92.576093 
L 228.360678 60.162707 
" style="fill:none;stroke:#0000ff;stroke-width:1.5;"/>
    <path clip-path="url(#paada76ddfc)" d="M 231.072542 86.568597 
L 231.072542 54.15521 
" style="fill:none;stroke:#0000ff;stroke-width:1.5;"/>
    <path clip-path="url(#paada76ddfc)" d="M 236.496271 82.024483 
L 236.496271 49.611097 
" style="fill:none;stroke:#0000ff;stroke-width:1.5;"/>
    <path clip-path="url(#paada76ddfc)" d="M 239.208136 82.590966 
L 239.208136 50.17758 
" style="fill:none;stroke:#0000ff;stroke-width:1.5;"/>
    <path clip-path="url(#paada76ddfc)" d="M 241.92 109.480281 
L 241.92 77.066895 
" style="fill:none;stroke:#0000ff;stroke-width:1.5;"/>
    <path clip-path="url(#paada76ddfc)" d="M 244.631864 76.220615 
L 244.631864 43.807229 
" style="fill:none;stroke:#0000ff;stroke-width:1.5;"/>
    <path clip-path="url(#paada76ddfc)" d="M 247.343729 111.054693 
L 247.343729 78.641307 
" style="fill:none;stroke:#0000ff;stroke-width:1.5;"/>
    <path clip-path="url(#paada76ddfc)" d="M 250.055593 79.59509 
L 250.055593 47.181703 
" style="fill:none;stroke:#0000ff;stroke-width:1.5;"/>
    <path clip-path="url(#paada76ddfc)" d="M 252.767458 94.736067 
L 252.767458 62.322681 
" style="fill:none;stroke:#0000ff;stroke-width:1.5;"/>
    <path clip-path="url(#paada76ddfc)" d="M 255.479322 107.881605 
L 255.479322 75.468219 
" style="fill:none;stroke:#0000ff;stroke-width:1.5;"/>
    <path clip-path="url(#paada76ddfc)" d="M 258.191186 80.98516 
L 258.191186 48.571774 
" style="fill:none;stroke:#0000ff;stroke-width:1.5;"/>
    <path clip-path="url(#paada76ddfc)" d="M 260.903051 86.731713 
L 260.903051 54.318327 
" style="fill:none;stroke:#0000ff;stroke-width:1.5;"/>
    <path clip-path="url(#paada76ddfc)" d="M 263.614915 96.77129 
L 263.614915 64.357904 
" style="fill:none;stroke:#0000ff;stroke-width:1.5;"/>
    <path clip-path="url(#paada76ddfc)" d="M 266.32678 101.015188 
L 266.32678 68.601802 
" style="fill:none;stroke:#0000ff;stroke-width:1.5;"/>
    <path clip-path="url(#paada76ddfc)" d="M 269.038644 75.371341 
L 269.038644 42.957955 
" style="fill:none;stroke:#0000ff;stroke-width:1.5;"/>
    <path clip-path="url(#paada76ddfc)" d="M 271.750508 97.838193 
L 271.750508 65.424807 
" style="fill:none;stroke:#0000ff;stroke-width:1.5;"/>
    <path clip-path="url(#paada76ddfc)" d="M 274.462373 101.966691 
L 274.462373 69.553304 
" style="fill:none;stroke:#0000ff;stroke-width:1.5;"/>
    <path clip-path="url(#paada76ddfc)" d="M 277.174237 88.463387 
L 277.174237 56.050001 
" style="fill:none;stroke:#0000ff;stroke-width:1.5;"/>
    <path clip-path="url(#paada76ddfc)" d="M 279.886102 94.852908 
L 279.886102 62.439522 
" style="fill:none;stroke:#0000ff;stroke-width:1.5;"/>
    <path clip-path="url(#paada76ddfc)" d="M 282.597966 102.363169 
L 282.597966 69.949782 
" style="fill:none;stroke:#0000ff;stroke-width:1.5;"/>
    <path clip-path="url(#paada76ddfc)" d="M 285.309831 91.653524 
L 285.309831 59.240138 
" style="fill:none;stroke:#0000ff;stroke-width:1.5;"/>
    <path clip-path="url(#paada76ddfc)" d="M 288.021695 85.761566 
L 288.021695 53.34818 
" style="fill:none;stroke:#0000ff;stroke-width:1.5;"/>
    <path clip-path="url(#paada76ddfc)" d="M 290.733559 88.466076 
L 290.733559 56.052689 
" style="fill:none;stroke:#0000ff;stroke-width:1.5;"/>
    <path clip-path="url(#paada76ddfc)" d="M 293.445424 78.028234 
L 293.445424 45.614848 
" style="fill:none;stroke:#0000ff;stroke-width:1.5;"/>
    <path clip-path="url(#paada76ddfc)" d="M 296.157288 75.606297 
L 296.157288 43.192911 
" style="fill:none;stroke:#0000ff;stroke-width:1.5;"/>
    <path clip-path="url(#paada76ddfc)" d="M 298.869153 94.031331 
L 298.869153 61.617945 
" style="fill:none;stroke:#0000ff;stroke-width:1.5;"/>
    <path clip-path="url(#paada76ddfc)" d="M 301.581017 97.185246 
L 301.581017 64.77186 
" style="fill:none;stroke:#0000ff;stroke-width:1.5;"/>
    <path clip-path="url(#paada76ddfc)" d="M 304.292881 100.597496 
L 304.292881 68.18411 
" style="fill:none;stroke:#0000ff;stroke-width:1.5;"/>
    <path clip-path="url(#paada76ddfc)" d="M 307.004746 63.054693 
L 307.004746 30.641307 
" style="fill:none;stroke:#0000ff;stroke-width:1.5;"/>
    <path clip-path="url(#paada76ddfc)" d="M 309.71661 99.60774 
L 309.71661 67.194354 
" style="fill:none;stroke:#0000ff;stroke-width:1.5;"/>
    <path clip-path="url(#paada76ddfc)" d="M 312.428475 107.893983 
L 312.428475 75.480597 
" style="fill:none;stroke:#0000ff;stroke-width:1.5;"/>
    <path clip-path="url(#paada76ddfc)" d="M 315.140339 98.46587 
L 315.140339 66.052484 
" style="fill:none;stroke:#0000ff;stroke-width:1.5;"/>
    <path clip-path="url(#paada76ddfc)" d="M 317.852203 101.944049 
L 317.852203 69.530663 
" style="fill:none;stroke:#0000ff;stroke-width:1.5;"/>
    <path clip-path="url(#paada76ddfc)" d="M 320.564068 81.610917 
L 320.564068 49.197531 
" style="fill:none;stroke:#0000ff;stroke-width:1.5;"/>
    <path clip-path="url(#paada76ddfc)" d="M 323.275932 81.077801 
L 323.275932 48.664415 
" style="fill:none;stroke:#0000ff;stroke-width:1.5;"/>
    <path clip-path="url(#paada76ddfc)" d="M 325.987797 80.535734 
L 325.987797 48.122348 
" style="fill:none;stroke:#0000ff;stroke-width:1.5;"/>
    <path clip-path="url(#paada76ddfc)" d="M 328.699661 91.66015 
L 328.699661 59.246764 
" style="fill:none;stroke:#0000ff;stroke-width:1.5;"/>
    <path clip-path="url(#paada76ddfc)" d="M 331.411525 98.472601 
L 331.411525 66.059215 
" style="fill:none;stroke:#0000ff;stroke-width:1.5;"/>
    <path clip-path="url(#paada76ddfc)" d="M 334.12339 97.770296 
L 334.12339 65.356909 
" style="fill:none;stroke:#0000ff;stroke-width:1.5;"/>
    <path clip-path="url(#paada76ddfc)" d="M 339.547119 77.833665 
L 339.547119 45.420278 
" style="fill:none;stroke:#0000ff;stroke-width:1.5;"/>
    <path clip-path="url(#paada76ddfc)" d="M 344.970847 99.280702 
L 344.970847 66.867316 
" style="fill:none;stroke:#0000ff;stroke-width:1.5;"/>
    <path clip-path="url(#paada76ddfc)" d="M 353.106441 97.39277 
L 353.106441 64.979384 
" style="fill:none;stroke:#0000ff;stroke-width:1.5;"/>
    <path clip-path="url(#paada76ddfc)" d="M 363.953898 99.813399 
L 363.953898 67.400013 
" style="fill:none;stroke:#0000ff;stroke-width:1.5;"/>
    <path clip-path="url(#paada76ddfc)" d="M 374.801356 89.874157 
L 374.801356 57.460771 
" style="fill:none;stroke:#0000ff;stroke-width:1.5;"/>
    <path clip-path="url(#paada76ddfc)" d="M 382.936949 92.893405 
L 382.936949 60.480019 
" style="fill:none;stroke:#0000ff;stroke-width:1.5;"/>
    <path clip-path="url(#paada76ddfc)" d="M 401.92 91.7151 
L 401.92 59.301714 
" style="fill:none;stroke:#0000ff;stroke-width:1.5;"/>
   </g>
   <g id="line2d_7">
    <path clip-path="url(#paada76ddfc)" d="M 81.92 76.598908 
L 401.92 76.598908 
" style="fill:none;stroke:#ff0000;stroke-linecap:square;stroke-width:1.5;"/>
   </g>
   <g id="line2d_8">
    <defs>
     <path d="M -3 0 
L 3 0 
M 0 3 
L 0 -3 
" id="m6c16f09bc9" style="stroke:#0000ff;"/>
    </defs>
    <g clip-path="url(#paada76ddfc)">
     <use style="fill:#0000ff;stroke:#0000ff;" x="81.92" xlink:href="#m6c16f09bc9" y="74.836832"/>
     <use style="fill:#0000ff;stroke:#0000ff;" x="95.479322" xlink:href="#m6c16f09bc9" y="79.04916"/>
     <use style="fill:#0000ff;stroke:#0000ff;" x="111.750508" xlink:href="#m6c16f09bc9" y="79.060574"/>
     <use style="fill:#0000ff;stroke:#0000ff;" x="114.462373" xlink:href="#m6c16f09bc9" y="79.064398"/>
     <use style="fill:#0000ff;stroke:#0000ff;" x="163.275932" xlink:href="#m6c16f09bc9" y="79.656889"/>
     <use style="fill:#0000ff;stroke:#0000ff;" x="168.699661" xlink:href="#m6c16f09bc9" y="71.855272"/>
     <use style="fill:#0000ff;stroke:#0000ff;" x="171.411525" xlink:href="#m6c16f09bc9" y="71.97644"/>
     <use style="fill:#0000ff;stroke:#0000ff;" x="174.12339" xlink:href="#m6c16f09bc9" y="75.893487"/>
     <use style="fill:#0000ff;stroke:#0000ff;" x="176.835254" xlink:href="#m6c16f09bc9" y="68.867375"/>
     <use style="fill:#0000ff;stroke:#0000ff;" x="190.394576" xlink:href="#m6c16f09bc9" y="81.597089"/>
     <use style="fill:#0000ff;stroke:#0000ff;" x="193.106441" xlink:href="#m6c16f09bc9" y="81.931032"/>
     <use style="fill:#0000ff;stroke:#0000ff;" x="195.818305" xlink:href="#m6c16f09bc9" y="77.877221"/>
     <use style="fill:#0000ff;stroke:#0000ff;" x="201.242034" xlink:href="#m6c16f09bc9" y="67.987132"/>
     <use style="fill:#0000ff;stroke:#0000ff;" x="206.665763" xlink:href="#m6c16f09bc9" y="79.564606"/>
     <use style="fill:#0000ff;stroke:#0000ff;" x="212.089492" xlink:href="#m6c16f09bc9" y="72.934813"/>
     <use style="fill:#0000ff;stroke:#0000ff;" x="214.801356" xlink:href="#m6c16f09bc9" y="67.102362"/>
     <use style="fill:#0000ff;stroke:#0000ff;" x="220.225085" xlink:href="#m6c16f09bc9" y="78.252319"/>
     <use style="fill:#0000ff;stroke:#0000ff;" x="222.936949" xlink:href="#m6c16f09bc9" y="87.838647"/>
     <use style="fill:#0000ff;stroke:#0000ff;" x="225.648814" xlink:href="#m6c16f09bc9" y="66.310855"/>
     <use style="fill:#0000ff;stroke:#0000ff;" x="228.360678" xlink:href="#m6c16f09bc9" y="76.3694"/>
     <use style="fill:#0000ff;stroke:#0000ff;" x="231.072542" xlink:href="#m6c16f09bc9" y="70.361903"/>
     <use style="fill:#0000ff;stroke:#0000ff;" x="236.496271" xlink:href="#m6c16f09bc9" y="65.81779"/>
     <use style="fill:#0000ff;stroke:#0000ff;" x="239.208136" xlink:href="#m6c16f09bc9" y="66.384273"/>
     <use style="fill:#0000ff;stroke:#0000ff;" x="241.92" xlink:href="#m6c16f09bc9" y="93.273588"/>
     <use style="fill:#0000ff;stroke:#0000ff;" x="244.631864" xlink:href="#m6c16f09bc9" y="60.013922"/>
     <use style="fill:#0000ff;stroke:#0000ff;" x="247.343729" xlink:href="#m6c16f09bc9" y="94.848"/>
     <use style="fill:#0000ff;stroke:#0000ff;" x="250.055593" xlink:href="#m6c16f09bc9" y="63.388397"/>
     <use style="fill:#0000ff;stroke:#0000ff;" x="252.767458" xlink:href="#m6c16f09bc9" y="78.529374"/>
     <use style="fill:#0000ff;stroke:#0000ff;" x="255.479322" xlink:href="#m6c16f09bc9" y="91.674912"/>
     <use style="fill:#0000ff;stroke:#0000ff;" x="258.191186" xlink:href="#m6c16f09bc9" y="64.778467"/>
     <use style="fill:#0000ff;stroke:#0000ff;" x="260.903051" xlink:href="#m6c16f09bc9" y="70.52502"/>
     <use style="fill:#0000ff;stroke:#0000ff;" x="263.614915" xlink:href="#m6c16f09bc9" y="80.564597"/>
     <use style="fill:#0000ff;stroke:#0000ff;" x="266.32678" xlink:href="#m6c16f09bc9" y="84.808495"/>
     <use style="fill:#0000ff;stroke:#0000ff;" x="269.038644" xlink:href="#m6c16f09bc9" y="59.164648"/>
     <use style="fill:#0000ff;stroke:#0000ff;" x="271.750508" xlink:href="#m6c16f09bc9" y="81.6315"/>
     <use style="fill:#0000ff;stroke:#0000ff;" x="274.462373" xlink:href="#m6c16f09bc9" y="85.759998"/>
     <use style="fill:#0000ff;stroke:#0000ff;" x="277.174237" xlink:href="#m6c16f09bc9" y="72.256694"/>
     <use style="fill:#0000ff;stroke:#0000ff;" x="279.886102" xlink:href="#m6c16f09bc9" y="78.646215"/>
     <use style="fill:#0000ff;stroke:#0000ff;" x="282.597966" xlink:href="#m6c16f09bc9" y="86.156475"/>
     <use style="fill:#0000ff;stroke:#0000ff;" x="285.309831" xlink:href="#m6c16f09bc9" y="75.446831"/>
     <use style="fill:#0000ff;stroke:#0000ff;" x="288.021695" xlink:href="#m6c16f09bc9" y="69.554873"/>
     <use style="fill:#0000ff;stroke:#0000ff;" x="290.733559" xlink:href="#m6c16f09bc9" y="72.259382"/>
     <use style="fill:#0000ff;stroke:#0000ff;" x="293.445424" xlink:href="#m6c16f09bc9" y="61.821541"/>
     <use style="fill:#0000ff;stroke:#0000ff;" x="296.157288" xlink:href="#m6c16f09bc9" y="59.399604"/>
     <use style="fill:#0000ff;stroke:#0000ff;" x="298.869153" xlink:href="#m6c16f09bc9" y="77.824638"/>
     <use style="fill:#0000ff;stroke:#0000ff;" x="301.581017" xlink:href="#m6c16f09bc9" y="80.978553"/>
     <use style="fill:#0000ff;stroke:#0000ff;" x="304.292881" xlink:href="#m6c16f09bc9" y="84.390803"/>
     <use style="fill:#0000ff;stroke:#0000ff;" x="307.004746" xlink:href="#m6c16f09bc9" y="46.848"/>
     <use style="fill:#0000ff;stroke:#0000ff;" x="309.71661" xlink:href="#m6c16f09bc9" y="83.401047"/>
     <use style="fill:#0000ff;stroke:#0000ff;" x="312.428475" xlink:href="#m6c16f09bc9" y="91.68729"/>
     <use style="fill:#0000ff;stroke:#0000ff;" x="315.140339" xlink:href="#m6c16f09bc9" y="82.259177"/>
     <use style="fill:#0000ff;stroke:#0000ff;" x="317.852203" xlink:href="#m6c16f09bc9" y="85.737356"/>
     <use style="fill:#0000ff;stroke:#0000ff;" x="320.564068" xlink:href="#m6c16f09bc9" y="65.404224"/>
     <use style="fill:#0000ff;stroke:#0000ff;" x="323.275932" xlink:href="#m6c16f09bc9" y="64.871108"/>
     <use style="fill:#0000ff;stroke:#0000ff;" x="325.987797" xlink:href="#m6c16f09bc9" y="64.329041"/>
     <use style="fill:#0000ff;stroke:#0000ff;" x="328.699661" xlink:href="#m6c16f09bc9" y="75.453457"/>
     <use style="fill:#0000ff;stroke:#0000ff;" x="331.411525" xlink:href="#m6c16f09bc9" y="82.265908"/>
     <use style="fill:#0000ff;stroke:#0000ff;" x="334.12339" xlink:href="#m6c16f09bc9" y="81.563602"/>
     <use style="fill:#0000ff;stroke:#0000ff;" x="339.547119" xlink:href="#m6c16f09bc9" y="61.626972"/>
     <use style="fill:#0000ff;stroke:#0000ff;" x="344.970847" xlink:href="#m6c16f09bc9" y="83.074009"/>
     <use style="fill:#0000ff;stroke:#0000ff;" x="353.106441" xlink:href="#m6c16f09bc9" y="81.186077"/>
     <use style="fill:#0000ff;stroke:#0000ff;" x="363.953898" xlink:href="#m6c16f09bc9" y="83.606706"/>
     <use style="fill:#0000ff;stroke:#0000ff;" x="374.801356" xlink:href="#m6c16f09bc9" y="73.667464"/>
     <use style="fill:#0000ff;stroke:#0000ff;" x="382.936949" xlink:href="#m6c16f09bc9" y="76.686712"/>
     <use style="fill:#0000ff;stroke:#0000ff;" x="401.92" xlink:href="#m6c16f09bc9" y="75.508407"/>
    </g>
   </g>
   <g id="patch_3">
    <path d="M 69.12 96.768 
L 69.12 44.928 
" style="fill:none;stroke:#000000;stroke-linecap:square;stroke-linejoin:miter;stroke-width:0.8;"/>
   </g>
   <g id="patch_4">
    <path d="M 414.72 96.768 
L 414.72 44.928 
" style="fill:none;stroke:#000000;stroke-linecap:square;stroke-linejoin:miter;stroke-width:0.8;"/>
   </g>
   <g id="patch_5">
    <path d="M 69.12 96.768 
L 414.72 96.768 
" style="fill:none;stroke:#000000;stroke-linecap:square;stroke-linejoin:miter;stroke-width:0.8;"/>
   </g>
   <g id="patch_6">
    <path d="M 69.12 44.928 
L 414.72 44.928 
" style="fill:none;stroke:#000000;stroke-linecap:square;stroke-linejoin:miter;stroke-width:0.8;"/>
   </g>
   <g id="text_4">
    <!-- Function (0/0): y = a*exp(-(x-x0)**2/w**2)+b -->
    <defs>
     <path d="M 9.8125 72.90625 
L 51.703125 72.90625 
L 51.703125 64.59375 
L 19.671875 64.59375 
L 19.671875 43.109375 
L 48.578125 43.109375 
L 48.578125 34.8125 
L 19.671875 34.8125 
L 19.671875 0 
L 9.8125 0 
z
" id="DejaVuSans-46"/>
     <path d="M 48.78125 52.59375 
L 48.78125 44.1875 
Q 44.96875 46.296875 41.140625 47.34375 
Q 37.3125 48.390625 33.40625 48.390625 
Q 24.65625 48.390625 19.8125 42.84375 
Q 14.984375 37.3125 14.984375 27.296875 
Q 14.984375 17.28125 19.8125 11.734375 
Q 24.65625 6.203125 33.40625 6.203125 
Q 37.3125 6.203125 41.140625 7.25 
Q 44.96875 8.296875 48.78125 10.40625 
L 48.78125 2.09375 
Q 45.015625 0.34375 40.984375 -0.53125 
Q 36.96875 -1.421875 32.421875 -1.421875 
Q 20.0625 -1.421875 12.78125 6.34375 
Q 5.515625 14.109375 5.515625 27.296875 
Q 5.515625 40.671875 12.859375 48.328125 
Q 20.21875 56 33.015625 56 
Q 37.15625 56 41.109375 55.140625 
Q 45.0625 54.296875 48.78125 52.59375 
z
" id="DejaVuSans-63"/>
     <path d="M 30.609375 48.390625 
Q 23.390625 48.390625 19.1875 42.75 
Q 14.984375 37.109375 14.984375 27.296875 
Q 14.984375 17.484375 19.15625 11.84375 
Q 23.34375 6.203125 30.609375 6.203125 
Q 37.796875 6.203125 41.984375 11.859375 
Q 46.1875 17.53125 46.1875 27.296875 
Q 46.1875 37.015625 41.984375 42.703125 
Q 37.796875 48.390625 30.609375 48.390625 
z
M 30.609375 56 
Q 42.328125 56 49.015625 48.375 
Q 55.71875 40.765625 55.71875 27.296875 
Q 55.71875 13.875 49.015625 6.21875 
Q 42.328125 -1.421875 30.609375 -1.421875 
Q 18.84375 -1.421875 12.171875 6.21875 
Q 5.515625 13.875 5.515625 27.296875 
Q 5.515625 40.765625 12.171875 48.375 
Q 18.84375 56 30.609375 56 
z
" id="DejaVuSans-6f"/>
     <path id="DejaVuSans-20"/>
     <path d="M 31 75.875 
Q 24.46875 64.65625 21.28125 53.65625 
Q 18.109375 42.671875 18.109375 31.390625 
Q 18.109375 20.125 21.3125 9.0625 
Q 24.515625 -2 31 -13.1875 
L 23.1875 -13.1875 
Q 15.875 -1.703125 12.234375 9.375 
Q 8.59375 20.453125 8.59375 31.390625 
Q 8.59375 42.28125 12.203125 53.3125 
Q 15.828125 64.359375 23.1875 75.875 
z
" id="DejaVuSans-28"/>
     <path d="M 31.78125 66.40625 
Q 24.171875 66.40625 20.328125 58.90625 
Q 16.5 51.421875 16.5 36.375 
Q 16.5 21.390625 20.328125 13.890625 
Q 24.171875 6.390625 31.78125 6.390625 
Q 39.453125 6.390625 43.28125 13.890625 
Q 47.125 21.390625 47.125 36.375 
Q 47.125 51.421875 43.28125 58.90625 
Q 39.453125 66.40625 31.78125 66.40625 
z
M 31.78125 74.21875 
Q 44.046875 74.21875 50.515625 64.515625 
Q 56.984375 54.828125 56.984375 36.375 
Q 56.984375 17.96875 50.515625 8.265625 
Q 44.046875 -1.421875 31.78125 -1.421875 
Q 19.53125 -1.421875 13.0625 8.265625 
Q 6.59375 17.96875 6.59375 36.375 
Q 6.59375 54.828125 13.0625 64.515625 
Q 19.53125 74.21875 31.78125 74.21875 
z
" id="DejaVuSans-30"/>
     <path d="M 25.390625 72.90625 
L 33.6875 72.90625 
L 8.296875 -9.28125 
L 0 -9.28125 
z
" id="DejaVuSans-2f"/>
     <path d="M 8.015625 75.875 
L 15.828125 75.875 
Q 23.140625 64.359375 26.78125 53.3125 
Q 30.421875 42.28125 30.421875 31.390625 
Q 30.421875 20.453125 26.78125 9.375 
Q 23.140625 -1.703125 15.828125 -13.1875 
L 8.015625 -13.1875 
Q 14.5 -2 17.703125 9.0625 
Q 20.90625 20.125 20.90625 31.390625 
Q 20.90625 42.671875 17.703125 53.65625 
Q 14.5 64.65625 8.015625 75.875 
z
" id="DejaVuSans-29"/>
     <path d="M 11.71875 12.40625 
L 22.015625 12.40625 
L 22.015625 0 
L 11.71875 0 
z
M 11.71875 51.703125 
L 22.015625 51.703125 
L 22.015625 39.3125 
L 11.71875 39.3125 
z
" id="DejaVuSans-3a"/>
     <path d="M 32.171875 -5.078125 
Q 28.375 -14.84375 24.75 -17.8125 
Q 21.140625 -20.796875 15.09375 -20.796875 
L 7.90625 -20.796875 
L 7.90625 -13.28125 
L 13.1875 -13.28125 
Q 16.890625 -13.28125 18.9375 -11.515625 
Q 21 -9.765625 23.484375 -3.21875 
L 25.09375 0.875 
L 2.984375 54.6875 
L 12.5 54.6875 
L 29.59375 11.921875 
L 46.6875 54.6875 
L 56.203125 54.6875 
z
" id="DejaVuSans-79"/>
     <path d="M 10.59375 45.40625 
L 73.1875 45.40625 
L 73.1875 37.203125 
L 10.59375 37.203125 
z
M 10.59375 25.484375 
L 73.1875 25.484375 
L 73.1875 17.1875 
L 10.59375 17.1875 
z
" id="DejaVuSans-3d"/>
     <path d="M 47.015625 60.890625 
L 29.5 51.421875 
L 47.015625 41.890625 
L 44.1875 37.109375 
L 27.78125 47.015625 
L 27.78125 28.609375 
L 22.21875 28.609375 
L 22.21875 47.015625 
L 5.8125 37.109375 
L 2.984375 41.890625 
L 20.515625 51.421875 
L 2.984375 60.890625 
L 5.8125 65.71875 
L 22.21875 55.8125 
L 22.21875 74.21875 
L 27.78125 74.21875 
L 27.78125 55.8125 
L 44.1875 65.71875 
z
" id="DejaVuSans-2a"/>
     <path d="M 54.890625 54.6875 
L 35.109375 28.078125 
L 55.90625 0 
L 45.3125 0 
L 29.390625 21.484375 
L 13.484375 0 
L 2.875 0 
L 24.125 28.609375 
L 4.6875 54.6875 
L 15.28125 54.6875 
L 29.78125 35.203125 
L 44.28125 54.6875 
z
" id="DejaVuSans-78"/>
     <path d="M 18.109375 8.203125 
L 18.109375 -20.796875 
L 9.078125 -20.796875 
L 9.078125 54.6875 
L 18.109375 54.6875 
L 18.109375 46.390625 
Q 20.953125 51.265625 25.265625 53.625 
Q 29.59375 56 35.59375 56 
Q 45.5625 56 51.78125 48.09375 
Q 58.015625 40.1875 58.015625 27.296875 
Q 58.015625 14.40625 51.78125 6.484375 
Q 45.5625 -1.421875 35.59375 -1.421875 
Q 29.59375 -1.421875 25.265625 0.953125 
Q 20.953125 3.328125 18.109375 8.203125 
z
M 48.6875 27.296875 
Q 48.6875 37.203125 44.609375 42.84375 
Q 40.53125 48.484375 33.40625 48.484375 
Q 26.265625 48.484375 22.1875 42.84375 
Q 18.109375 37.203125 18.109375 27.296875 
Q 18.109375 17.390625 22.1875 11.75 
Q 26.265625 6.109375 33.40625 6.109375 
Q 40.53125 6.109375 44.609375 11.75 
Q 48.6875 17.390625 48.6875 27.296875 
z
" id="DejaVuSans-70"/>
     <path d="M 4.890625 31.390625 
L 31.203125 31.390625 
L 31.203125 23.390625 
L 4.890625 23.390625 
z
" id="DejaVuSans-2d"/>
     <path d="M 19.1875 8.296875 
L 53.609375 8.296875 
L 53.609375 0 
L 7.328125 0 
L 7.328125 8.296875 
Q 12.9375 14.109375 22.625 23.890625 
Q 32.328125 33.6875 34.8125 36.53125 
Q 39.546875 41.84375 41.421875 45.53125 
Q 43.3125 49.21875 43.3125 52.78125 
Q 43.3125 58.59375 39.234375 62.25 
Q 35.15625 65.921875 28.609375 65.921875 
Q 23.96875 65.921875 18.8125 64.3125 
Q 13.671875 62.703125 7.8125 59.421875 
L 7.8125 69.390625 
Q 13.765625 71.78125 18.9375 73 
Q 24.125 74.21875 28.421875 74.21875 
Q 39.75 74.21875 46.484375 68.546875 
Q 53.21875 62.890625 53.21875 53.421875 
Q 53.21875 48.921875 51.53125 44.890625 
Q 49.859375 40.875 45.40625 35.40625 
Q 44.1875 33.984375 37.640625 27.21875 
Q 31.109375 20.453125 19.1875 8.296875 
z
" id="DejaVuSans-32"/>
     <path d="M 4.203125 54.6875 
L 13.1875 54.6875 
L 24.421875 12.015625 
L 35.59375 54.6875 
L 46.1875 54.6875 
L 57.421875 12.015625 
L 68.609375 54.6875 
L 77.59375 54.6875 
L 63.28125 0 
L 52.6875 0 
L 40.921875 44.828125 
L 29.109375 0 
L 18.5 0 
z
" id="DejaVuSans-77"/>
     <path d="M 46 62.703125 
L 46 35.5 
L 73.1875 35.5 
L 73.1875 27.203125 
L 46 27.203125 
L 46 0 
L 37.796875 0 
L 37.796875 27.203125 
L 10.59375 27.203125 
L 10.59375 35.5 
L 37.796875 35.5 
L 37.796875 62.703125 
z
" id="DejaVuSans-2b"/>
     <path d="M 48.6875 27.296875 
Q 48.6875 37.203125 44.609375 42.84375 
Q 40.53125 48.484375 33.40625 48.484375 
Q 26.265625 48.484375 22.1875 42.84375 
Q 18.109375 37.203125 18.109375 27.296875 
Q 18.109375 17.390625 22.1875 11.75 
Q 26.265625 6.109375 33.40625 6.109375 
Q 40.53125 6.109375 44.609375 11.75 
Q 48.6875 17.390625 48.6875 27.296875 
z
M 18.109375 46.390625 
Q 20.953125 51.265625 25.265625 53.625 
Q 29.59375 56 35.59375 56 
Q 45.5625 56 51.78125 48.09375 
Q 58.015625 40.1875 58.015625 27.296875 
Q 58.015625 14.40625 51.78125 6.484375 
Q 45.5625 -1.421875 35.59375 -1.421875 
Q 29.59375 -1.421875 25.265625 0.953125 
Q 20.953125 3.328125 18.109375 8.203125 
L 18.109375 0 
L 9.078125 0 
L 9.078125 75.984375 
L 18.109375 75.984375 
z
" id="DejaVuSans-62"/>
    </defs>
    <g transform="translate(69.12 27.730187)scale(0.1 -0.1)">
     <use xlink:href="#DejaVuSans-46"/>
     <use x="57.441406" xlink:href="#DejaVuSans-75"/>
     <use x="120.820312" xlink:href="#DejaVuSans-6e"/>
     <use x="184.199219" xlink:href="#DejaVuSans-63"/>
     <use x="239.179688" xlink:href="#DejaVuSans-74"/>
     <use x="278.388672" xlink:href="#DejaVuSans-69"/>
     <use x="306.171875" xlink:href="#DejaVuSans-6f"/>
     <use x="367.353516" xlink:href="#DejaVuSans-6e"/>
     <use x="430.732422" xlink:href="#DejaVuSans-20"/>
     <use x="462.519531" xlink:href="#DejaVuSans-28"/>
     <use x="501.533203" xlink:href="#DejaVuSans-30"/>
     <use x="565.15625" xlink:href="#DejaVuSans-2f"/>
     <use x="598.847656" xlink:href="#DejaVuSans-30"/>
     <use x="662.470703" xlink:href="#DejaVuSans-29"/>
     <use x="701.484375" xlink:href="#DejaVuSans-3a"/>
     <use x="735.175781" xlink:href="#DejaVuSans-20"/>
     <use x="766.962891" xlink:href="#DejaVuSans-79"/>
     <use x="826.142578" xlink:href="#DejaVuSans-20"/>
     <use x="857.929688" xlink:href="#DejaVuSans-3d"/>
     <use x="941.71875" xlink:href="#DejaVuSans-20"/>
     <use x="973.505859" xlink:href="#DejaVuSans-61"/>
     <use x="1034.785156" xlink:href="#DejaVuSans-2a"/>
     <use x="1084.785156" xlink:href="#DejaVuSans-65"/>
     <use x="1146.292969" xlink:href="#DejaVuSans-78"/>
     <use x="1205.472656" xlink:href="#DejaVuSans-70"/>
     <use x="1268.949219" xlink:href="#DejaVuSans-28"/>
     <use x="1307.962891" xlink:href="#DejaVuSans-2d"/>
     <use x="1344.046875" xlink:href="#DejaVuSans-28"/>
     <use x="1383.060547" xlink:href="#DejaVuSans-78"/>
     <use x="1442.240234" xlink:href="#DejaVuSans-2d"/>
     <use x="1478.324219" xlink:href="#DejaVuSans-78"/>
     <use x="1537.503906" xlink:href="#DejaVuSans-30"/>
     <use x="1601.126953" xlink:href="#DejaVuSans-29"/>
     <use x="1640.140625" xlink:href="#DejaVuSans-2a"/>
     <use x="1690.140625" xlink:href="#DejaVuSans-2a"/>
     <use x="1740.140625" xlink:href="#DejaVuSans-32"/>
     <use x="1803.763672" xlink:href="#DejaVuSans-2f"/>
     <use x="1837.455078" xlink:href="#DejaVuSans-77"/>
     <use x="1919.242188" xlink:href="#DejaVuSans-2a"/>
     <use x="1969.242188" xlink:href="#DejaVuSans-2a"/>
     <use x="2019.242188" xlink:href="#DejaVuSans-32"/>
     <use x="2082.865234" xlink:href="#DejaVuSans-29"/>
     <use x="2121.878906" xlink:href="#DejaVuSans-2b"/>
     <use x="2205.667969" xlink:href="#DejaVuSans-62"/>
    </g>
    <!-- Fit: a=2.54$\pm$0.81, b=3.78$\pm$0.7, x0=4.299$\pm$0.027, w=0.14$\pm$0.062, -->
    <defs>
     <path d="M 10.6875 12.40625 
L 21 12.40625 
L 21 0 
L 10.6875 0 
z
" id="DejaVuSans-2e"/>
     <path d="M 10.796875 72.90625 
L 49.515625 72.90625 
L 49.515625 64.59375 
L 19.828125 64.59375 
L 19.828125 46.734375 
Q 21.96875 47.46875 24.109375 47.828125 
Q 26.265625 48.1875 28.421875 48.1875 
Q 40.625 48.1875 47.75 41.5 
Q 54.890625 34.8125 54.890625 23.390625 
Q 54.890625 11.625 47.5625 5.09375 
Q 40.234375 -1.421875 26.90625 -1.421875 
Q 22.3125 -1.421875 17.546875 -0.640625 
Q 12.796875 0.140625 7.71875 1.703125 
L 7.71875 11.625 
Q 12.109375 9.234375 16.796875 8.0625 
Q 21.484375 6.890625 26.703125 6.890625 
Q 35.15625 6.890625 40.078125 11.328125 
Q 45.015625 15.765625 45.015625 23.390625 
Q 45.015625 31 40.078125 35.4375 
Q 35.15625 39.890625 26.703125 39.890625 
Q 22.75 39.890625 18.8125 39.015625 
Q 14.890625 38.140625 10.796875 36.28125 
z
" id="DejaVuSans-35"/>
     <path d="M 37.796875 64.3125 
L 12.890625 25.390625 
L 37.796875 25.390625 
z
M 35.203125 72.90625 
L 47.609375 72.90625 
L 47.609375 25.390625 
L 58.015625 25.390625 
L 58.015625 17.1875 
L 47.609375 17.1875 
L 47.609375 0 
L 37.796875 0 
L 37.796875 17.1875 
L 4.890625 17.1875 
L 4.890625 26.703125 
z
" id="DejaVuSans-34"/>
     <path d="M 46 62.703125 
L 46 43.796875 
L 73.1875 43.796875 
L 73.1875 35.5 
L 46 35.5 
L 46 16.609375 
L 37.796875 16.609375 
L 37.796875 35.5 
L 10.59375 35.5 
L 10.59375 43.796875 
L 37.796875 43.796875 
L 37.796875 62.703125 
z
M 10.59375 8.296875 
L 73.1875 8.296875 
L 73.1875 0 
L 10.59375 0 
z
" id="DejaVuSans-b1"/>
     <path d="M 31.78125 34.625 
Q 24.75 34.625 20.71875 30.859375 
Q 16.703125 27.09375 16.703125 20.515625 
Q 16.703125 13.921875 20.71875 10.15625 
Q 24.75 6.390625 31.78125 6.390625 
Q 38.8125 6.390625 42.859375 10.171875 
Q 46.921875 13.96875 46.921875 20.515625 
Q 46.921875 27.09375 42.890625 30.859375 
Q 38.875 34.625 31.78125 34.625 
z
M 21.921875 38.8125 
Q 15.578125 40.375 12.03125 44.71875 
Q 8.5 49.078125 8.5 55.328125 
Q 8.5 64.0625 14.71875 69.140625 
Q 20.953125 74.21875 31.78125 74.21875 
Q 42.671875 74.21875 48.875 69.140625 
Q 55.078125 64.0625 55.078125 55.328125 
Q 55.078125 49.078125 51.53125 44.71875 
Q 48 40.375 41.703125 38.8125 
Q 48.828125 37.15625 52.796875 32.3125 
Q 56.78125 27.484375 56.78125 20.515625 
Q 56.78125 9.90625 50.3125 4.234375 
Q 43.84375 -1.421875 31.78125 -1.421875 
Q 19.734375 -1.421875 13.25 4.234375 
Q 6.78125 9.90625 6.78125 20.515625 
Q 6.78125 27.484375 10.78125 32.3125 
Q 14.796875 37.15625 21.921875 38.8125 
z
M 18.3125 54.390625 
Q 18.3125 48.734375 21.84375 45.5625 
Q 25.390625 42.390625 31.78125 42.390625 
Q 38.140625 42.390625 41.71875 45.5625 
Q 45.3125 48.734375 45.3125 54.390625 
Q 45.3125 60.0625 41.71875 63.234375 
Q 38.140625 66.40625 31.78125 66.40625 
Q 25.390625 66.40625 21.84375 63.234375 
Q 18.3125 60.0625 18.3125 54.390625 
z
" id="DejaVuSans-38"/>
     <path d="M 11.71875 12.40625 
L 22.015625 12.40625 
L 22.015625 4 
L 14.015625 -11.625 
L 7.71875 -11.625 
L 11.71875 4 
z
" id="DejaVuSans-2c"/>
     <path d="M 40.578125 39.3125 
Q 47.65625 37.796875 51.625 33 
Q 55.609375 28.21875 55.609375 21.1875 
Q 55.609375 10.40625 48.1875 4.484375 
Q 40.765625 -1.421875 27.09375 -1.421875 
Q 22.515625 -1.421875 17.65625 -0.515625 
Q 12.796875 0.390625 7.625 2.203125 
L 7.625 11.71875 
Q 11.71875 9.328125 16.59375 8.109375 
Q 21.484375 6.890625 26.8125 6.890625 
Q 36.078125 6.890625 40.9375 10.546875 
Q 45.796875 14.203125 45.796875 21.1875 
Q 45.796875 27.640625 41.28125 31.265625 
Q 36.765625 34.90625 28.71875 34.90625 
L 20.21875 34.90625 
L 20.21875 43.015625 
L 29.109375 43.015625 
Q 36.375 43.015625 40.234375 45.921875 
Q 44.09375 48.828125 44.09375 54.296875 
Q 44.09375 59.90625 40.109375 62.90625 
Q 36.140625 65.921875 28.71875 65.921875 
Q 24.65625 65.921875 20.015625 65.03125 
Q 15.375 64.15625 9.8125 62.3125 
L 9.8125 71.09375 
Q 15.4375 72.65625 20.34375 73.4375 
Q 25.25 74.21875 29.59375 74.21875 
Q 40.828125 74.21875 47.359375 69.109375 
Q 53.90625 64.015625 53.90625 55.328125 
Q 53.90625 49.265625 50.4375 45.09375 
Q 46.96875 40.921875 40.578125 39.3125 
z
" id="DejaVuSans-33"/>
     <path d="M 8.203125 72.90625 
L 55.078125 72.90625 
L 55.078125 68.703125 
L 28.609375 0 
L 18.3125 0 
L 43.21875 64.59375 
L 8.203125 64.59375 
z
" id="DejaVuSans-37"/>
     <path d="M 10.984375 1.515625 
L 10.984375 10.5 
Q 14.703125 8.734375 18.5 7.8125 
Q 22.3125 6.890625 25.984375 6.890625 
Q 35.75 6.890625 40.890625 13.453125 
Q 46.046875 20.015625 46.78125 33.40625 
Q 43.953125 29.203125 39.59375 26.953125 
Q 35.25 24.703125 29.984375 24.703125 
Q 19.046875 24.703125 12.671875 31.3125 
Q 6.296875 37.9375 6.296875 49.421875 
Q 6.296875 60.640625 12.9375 67.421875 
Q 19.578125 74.21875 30.609375 74.21875 
Q 43.265625 74.21875 49.921875 64.515625 
Q 56.59375 54.828125 56.59375 36.375 
Q 56.59375 19.140625 48.40625 8.859375 
Q 40.234375 -1.421875 26.421875 -1.421875 
Q 22.703125 -1.421875 18.890625 -0.6875 
Q 15.09375 0.046875 10.984375 1.515625 
z
M 30.609375 32.421875 
Q 37.25 32.421875 41.125 36.953125 
Q 45.015625 41.5 45.015625 49.421875 
Q 45.015625 57.28125 41.125 61.84375 
Q 37.25 66.40625 30.609375 66.40625 
Q 23.96875 66.40625 20.09375 61.84375 
Q 16.21875 57.28125 16.21875 49.421875 
Q 16.21875 41.5 20.09375 36.953125 
Q 23.96875 32.421875 30.609375 32.421875 
z
" id="DejaVuSans-39"/>
     <path d="M 33.015625 40.375 
Q 26.375 40.375 22.484375 35.828125 
Q 18.609375 31.296875 18.609375 23.390625 
Q 18.609375 15.53125 22.484375 10.953125 
Q 26.375 6.390625 33.015625 6.390625 
Q 39.65625 6.390625 43.53125 10.953125 
Q 47.40625 15.53125 47.40625 23.390625 
Q 47.40625 31.296875 43.53125 35.828125 
Q 39.65625 40.375 33.015625 40.375 
z
M 52.59375 71.296875 
L 52.59375 62.3125 
Q 48.875 64.0625 45.09375 64.984375 
Q 41.3125 65.921875 37.59375 65.921875 
Q 27.828125 65.921875 22.671875 59.328125 
Q 17.53125 52.734375 16.796875 39.40625 
Q 19.671875 43.65625 24.015625 45.921875 
Q 28.375 48.1875 33.59375 48.1875 
Q 44.578125 48.1875 50.953125 41.515625 
Q 57.328125 34.859375 57.328125 23.390625 
Q 57.328125 12.15625 50.6875 5.359375 
Q 44.046875 -1.421875 33.015625 -1.421875 
Q 20.359375 -1.421875 13.671875 8.265625 
Q 6.984375 17.96875 6.984375 36.375 
Q 6.984375 53.65625 15.1875 63.9375 
Q 23.390625 74.21875 37.203125 74.21875 
Q 40.921875 74.21875 44.703125 73.484375 
Q 48.484375 72.75 52.59375 71.296875 
z
" id="DejaVuSans-36"/>
    </defs>
    <g transform="translate(69.12 38.928)scale(0.1 -0.1)">
     <use transform="translate(0 0.015625)" xlink:href="#DejaVuSans-46"/>
     <use transform="translate(57.519531 0.015625)" xlink:href="#DejaVuSans-69"/>
     <use transform="translate(85.302734 0.015625)" xlink:href="#DejaVuSans-74"/>
     <use transform="translate(124.511719 0.015625)" xlink:href="#DejaVuSans-3a"/>
     <use transform="translate(158.203125 0.015625)" xlink:href="#DejaVuSans-20"/>
     <use transform="translate(189.990234 0.015625)" xlink:href="#DejaVuSans-61"/>
     <use transform="translate(251.269531 0.015625)" xlink:href="#DejaVuSans-3d"/>
     <use transform="translate(335.058594 0.015625)" xlink:href="#DejaVuSans-32"/>
     <use transform="translate(398.681641 0.015625)" xlink:href="#DejaVuSans-2e"/>
     <use transform="translate(430.46875 0.015625)" xlink:href="#DejaVuSans-35"/>
     <use transform="translate(494.091797 0.015625)" xlink:href="#DejaVuSans-34"/>
     <use transform="translate(557.714844 0.015625)" xlink:href="#DejaVuSans-b1"/>
     <use transform="translate(641.503906 0.015625)" xlink:href="#DejaVuSans-30"/>
     <use transform="translate(705.126953 0.015625)" xlink:href="#DejaVuSans-2e"/>
     <use transform="translate(736.882812 0.015625)" xlink:href="#DejaVuSans-38"/>
     <use transform="translate(800.505859 0.015625)" xlink:href="#DejaVuSans-31"/>
     <use transform="translate(864.128906 0.015625)" xlink:href="#DejaVuSans-2c"/>
     <use transform="translate(895.916016 0.015625)" xlink:href="#DejaVuSans-20"/>
     <use transform="translate(927.703125 0.015625)" xlink:href="#DejaVuSans-62"/>
     <use transform="translate(991.179688 0.015625)" xlink:href="#DejaVuSans-3d"/>
     <use transform="translate(1074.96875 0.015625)" xlink:href="#DejaVuSans-33"/>
     <use transform="translate(1138.591797 0.015625)" xlink:href="#DejaVuSans-2e"/>
     <use transform="translate(1170.269531 0.015625)" xlink:href="#DejaVuSans-37"/>
     <use transform="translate(1233.892578 0.015625)" xlink:href="#DejaVuSans-38"/>
     <use transform="translate(1297.515625 0.015625)" xlink:href="#DejaVuSans-b1"/>
     <use transform="translate(1381.304688 0.015625)" xlink:href="#DejaVuSans-30"/>
     <use transform="translate(1444.927734 0.015625)" xlink:href="#DejaVuSans-2e"/>
     <use transform="translate(1476.605469 0.015625)" xlink:href="#DejaVuSans-37"/>
     <use transform="translate(1540.228516 0.015625)" xlink:href="#DejaVuSans-2c"/>
     <use transform="translate(1572.015625 0.015625)" xlink:href="#DejaVuSans-20"/>
     <use transform="translate(1603.802734 0.015625)" xlink:href="#DejaVuSans-78"/>
     <use transform="translate(1662.982422 0.015625)" xlink:href="#DejaVuSans-30"/>
     <use transform="translate(1726.605469 0.015625)" xlink:href="#DejaVuSans-3d"/>
     <use transform="translate(1810.394531 0.015625)" xlink:href="#DejaVuSans-34"/>
     <use transform="translate(1874.017578 0.015625)" xlink:href="#DejaVuSans-2e"/>
     <use transform="translate(1905.726562 0.015625)" xlink:href="#DejaVuSans-32"/>
     <use transform="translate(1969.333984 0.015625)" xlink:href="#DejaVuSans-39"/>
     <use transform="translate(2032.957031 0.015625)" xlink:href="#DejaVuSans-39"/>
     <use transform="translate(2096.580078 0.015625)" xlink:href="#DejaVuSans-b1"/>
     <use transform="translate(2180.369141 0.015625)" xlink:href="#DejaVuSans-30"/>
     <use transform="translate(2243.992188 0.015625)" xlink:href="#DejaVuSans-2e"/>
     <use transform="translate(2275.779297 0.015625)" xlink:href="#DejaVuSans-30"/>
     <use transform="translate(2339.402344 0.015625)" xlink:href="#DejaVuSans-32"/>
     <use transform="translate(2403.025391 0.015625)" xlink:href="#DejaVuSans-37"/>
     <use transform="translate(2466.648438 0.015625)" xlink:href="#DejaVuSans-2c"/>
     <use transform="translate(2498.435547 0.015625)" xlink:href="#DejaVuSans-20"/>
     <use transform="translate(2530.222656 0.015625)" xlink:href="#DejaVuSans-77"/>
     <use transform="translate(2612.009766 0.015625)" xlink:href="#DejaVuSans-3d"/>
     <use transform="translate(2695.798828 0.015625)" xlink:href="#DejaVuSans-30"/>
     <use transform="translate(2759.421875 0.015625)" xlink:href="#DejaVuSans-2e"/>
     <use transform="translate(2791.208984 0.015625)" xlink:href="#DejaVuSans-31"/>
     <use transform="translate(2854.832031 0.015625)" xlink:href="#DejaVuSans-34"/>
     <use transform="translate(2918.455078 0.015625)" xlink:href="#DejaVuSans-b1"/>
     <use transform="translate(3002.244141 0.015625)" xlink:href="#DejaVuSans-30"/>
     <use transform="translate(3065.867188 0.015625)" xlink:href="#DejaVuSans-2e"/>
     <use transform="translate(3097.654297 0.015625)" xlink:href="#DejaVuSans-30"/>
     <use transform="translate(3161.277344 0.015625)" xlink:href="#DejaVuSans-36"/>
     <use transform="translate(3224.900391 0.015625)" xlink:href="#DejaVuSans-32"/>
     <use transform="translate(3288.523438 0.015625)" xlink:href="#DejaVuSans-2c"/>
    </g>
   </g>
  </g>
  <g id="axes_2">
   <g id="patch_7">
    <path d="M 69.12 311.04 
L 414.72 311.04 
L 414.72 103.68 
L 69.12 103.68 
z
" style="fill:#ffffff;"/>
   </g>
   <g id="matplotlib.axis_3">
    <g id="xtick_4">
     <g id="line2d_9">
      <g>
       <use style="stroke:#000000;stroke-width:0.8;" x="147.46244" xlink:href="#m7759a2d567" y="311.04"/>
      </g>
     </g>
     <g id="text_5">
      <!-- 4.0 -->
      <g transform="translate(135.535096 329.437656)scale(0.15 -0.15)">
       <use xlink:href="#DejaVuSans-34"/>
       <use x="63.623047" xlink:href="#DejaVuSans-2e"/>
       <use x="95.410156" xlink:href="#DejaVuSans-30"/>
      </g>
     </g>
    </g>
    <g id="xtick_5">
     <g id="line2d_10">
      <g>
       <use style="stroke:#000000;stroke-width:0.8;" x="238.636104" xlink:href="#m7759a2d567" y="311.04"/>
      </g>
     </g>
     <g id="text_6">
      <!-- 4.2 -->
      <g transform="translate(226.70876 329.437656)scale(0.15 -0.15)">
       <use xlink:href="#DejaVuSans-34"/>
       <use x="63.623047" xlink:href="#DejaVuSans-2e"/>
       <use x="95.410156" xlink:href="#DejaVuSans-32"/>
      </g>
     </g>
    </g>
    <g id="xtick_6">
     <g id="line2d_11">
      <g>
       <use style="stroke:#000000;stroke-width:0.8;" x="329.809768" xlink:href="#m7759a2d567" y="311.04"/>
      </g>
     </g>
     <g id="text_7">
      <!-- 4.4 -->
      <g transform="translate(317.882424 329.437656)scale(0.15 -0.15)">
       <use xlink:href="#DejaVuSans-34"/>
       <use x="63.623047" xlink:href="#DejaVuSans-2e"/>
       <use x="95.410156" xlink:href="#DejaVuSans-34"/>
      </g>
     </g>
    </g>
    <g id="text_8">
     <!-- Energy [MeV] -->
     <defs>
      <path d="M 9.8125 72.90625 
L 55.90625 72.90625 
L 55.90625 64.59375 
L 19.671875 64.59375 
L 19.671875 43.015625 
L 54.390625 43.015625 
L 54.390625 34.71875 
L 19.671875 34.71875 
L 19.671875 8.296875 
L 56.78125 8.296875 
L 56.78125 0 
L 9.8125 0 
z
" id="DejaVuSans-45"/>
      <path d="M 41.109375 46.296875 
Q 39.59375 47.171875 37.8125 47.578125 
Q 36.03125 48 33.890625 48 
Q 26.265625 48 22.1875 43.046875 
Q 18.109375 38.09375 18.109375 28.8125 
L 18.109375 0 
L 9.078125 0 
L 9.078125 54.6875 
L 18.109375 54.6875 
L 18.109375 46.1875 
Q 20.953125 51.171875 25.484375 53.578125 
Q 30.03125 56 36.53125 56 
Q 37.453125 56 38.578125 55.875 
Q 39.703125 55.765625 41.0625 55.515625 
z
" id="DejaVuSans-72"/>
      <path d="M 45.40625 27.984375 
Q 45.40625 37.75 41.375 43.109375 
Q 37.359375 48.484375 30.078125 48.484375 
Q 22.859375 48.484375 18.828125 43.109375 
Q 14.796875 37.75 14.796875 27.984375 
Q 14.796875 18.265625 18.828125 12.890625 
Q 22.859375 7.515625 30.078125 7.515625 
Q 37.359375 7.515625 41.375 12.890625 
Q 45.40625 18.265625 45.40625 27.984375 
z
M 54.390625 6.78125 
Q 54.390625 -7.171875 48.1875 -13.984375 
Q 42 -20.796875 29.203125 -20.796875 
Q 24.46875 -20.796875 20.265625 -20.09375 
Q 16.0625 -19.390625 12.109375 -17.921875 
L 12.109375 -9.1875 
Q 16.0625 -11.328125 19.921875 -12.34375 
Q 23.78125 -13.375 27.78125 -13.375 
Q 36.625 -13.375 41.015625 -8.765625 
Q 45.40625 -4.15625 45.40625 5.171875 
L 45.40625 9.625 
Q 42.625 4.78125 38.28125 2.390625 
Q 33.9375 0 27.875 0 
Q 17.828125 0 11.671875 7.65625 
Q 5.515625 15.328125 5.515625 27.984375 
Q 5.515625 40.671875 11.671875 48.328125 
Q 17.828125 56 27.875 56 
Q 33.9375 56 38.28125 53.609375 
Q 42.625 51.21875 45.40625 46.390625 
L 45.40625 54.6875 
L 54.390625 54.6875 
z
" id="DejaVuSans-67"/>
      <path d="M 8.59375 75.984375 
L 29.296875 75.984375 
L 29.296875 69 
L 17.578125 69 
L 17.578125 -6.203125 
L 29.296875 -6.203125 
L 29.296875 -13.1875 
L 8.59375 -13.1875 
z
" id="DejaVuSans-5b"/>
      <path d="M 9.8125 72.90625 
L 24.515625 72.90625 
L 43.109375 23.296875 
L 61.8125 72.90625 
L 76.515625 72.90625 
L 76.515625 0 
L 66.890625 0 
L 66.890625 64.015625 
L 48.09375 14.015625 
L 38.1875 14.015625 
L 19.390625 64.015625 
L 19.390625 0 
L 9.8125 0 
z
" id="DejaVuSans-4d"/>
      <path d="M 28.609375 0 
L 0.78125 72.90625 
L 11.078125 72.90625 
L 34.1875 11.53125 
L 57.328125 72.90625 
L 67.578125 72.90625 
L 39.796875 0 
z
" id="DejaVuSans-56"/>
      <path d="M 30.421875 75.984375 
L 30.421875 -13.1875 
L 9.71875 -13.1875 
L 9.71875 -6.203125 
L 21.390625 -6.203125 
L 21.390625 69 
L 9.71875 69 
L 9.71875 75.984375 
z
" id="DejaVuSans-5d"/>
     </defs>
     <g transform="translate(191.078203 347.954844)scale(0.15 -0.15)">
      <use xlink:href="#DejaVuSans-45"/>
      <use x="63.183594" xlink:href="#DejaVuSans-6e"/>
      <use x="126.5625" xlink:href="#DejaVuSans-65"/>
      <use x="188.085938" xlink:href="#DejaVuSans-72"/>
      <use x="229.183594" xlink:href="#DejaVuSans-67"/>
      <use x="292.660156" xlink:href="#DejaVuSans-79"/>
      <use x="351.839844" xlink:href="#DejaVuSans-20"/>
      <use x="383.626953" xlink:href="#DejaVuSans-5b"/>
      <use x="422.640625" xlink:href="#DejaVuSans-4d"/>
      <use x="508.919922" xlink:href="#DejaVuSans-65"/>
      <use x="570.443359" xlink:href="#DejaVuSans-56"/>
      <use x="638.851562" xlink:href="#DejaVuSans-5d"/>
     </g>
    </g>
   </g>
   <g id="matplotlib.axis_4">
    <g id="ytick_4">
     <g id="line2d_12">
      <g>
       <use style="stroke:#000000;stroke-width:0.8;" x="69.12" xlink:href="#m5c0e32f2d0" y="292.693333"/>
      </g>
     </g>
     <g id="text_9">
      <!-- 4 -->
      <g transform="translate(52.57625 298.392161)scale(0.15 -0.15)">
       <use xlink:href="#DejaVuSans-34"/>
      </g>
     </g>
    </g>
    <g id="ytick_5">
     <g id="line2d_13">
      <g>
       <use style="stroke:#000000;stroke-width:0.8;" x="69.12" xlink:href="#m5c0e32f2d0" y="250.026667"/>
      </g>
     </g>
     <g id="text_10">
      <!-- 6 -->
      <g transform="translate(52.57625 255.725495)scale(0.15 -0.15)">
       <use xlink:href="#DejaVuSans-36"/>
      </g>
     </g>
    </g>
    <g id="ytick_6">
     <g id="line2d_14">
      <g>
       <use style="stroke:#000000;stroke-width:0.8;" x="69.12" xlink:href="#m5c0e32f2d0" y="207.36"/>
      </g>
     </g>
     <g id="text_11">
      <!-- 8 -->
      <g transform="translate(52.57625 213.058828)scale(0.15 -0.15)">
       <use xlink:href="#DejaVuSans-38"/>
      </g>
     </g>
    </g>
    <g id="ytick_7">
     <g id="line2d_15">
      <g>
       <use style="stroke:#000000;stroke-width:0.8;" x="69.12" xlink:href="#m5c0e32f2d0" y="164.693333"/>
      </g>
     </g>
     <g id="text_12">
      <!-- 10 -->
      <g transform="translate(43.0325 170.392161)scale(0.15 -0.15)">
       <use xlink:href="#DejaVuSans-31"/>
       <use x="63.623047" xlink:href="#DejaVuSans-30"/>
      </g>
     </g>
    </g>
    <g id="ytick_8">
     <g id="line2d_16">
      <g>
       <use style="stroke:#000000;stroke-width:0.8;" x="69.12" xlink:href="#m5c0e32f2d0" y="122.026667"/>
      </g>
     </g>
     <g id="text_13">
      <!-- 12 -->
      <g transform="translate(43.0325 127.725495)scale(0.15 -0.15)">
       <use xlink:href="#DejaVuSans-31"/>
       <use x="63.623047" xlink:href="#DejaVuSans-32"/>
      </g>
     </g>
    </g>
    <g id="text_14">
     <!-- Counts -->
     <defs>
      <path d="M 64.40625 67.28125 
L 64.40625 56.890625 
Q 59.421875 61.53125 53.78125 63.8125 
Q 48.140625 66.109375 41.796875 66.109375 
Q 29.296875 66.109375 22.65625 58.46875 
Q 16.015625 50.828125 16.015625 36.375 
Q 16.015625 21.96875 22.65625 14.328125 
Q 29.296875 6.6875 41.796875 6.6875 
Q 48.140625 6.6875 53.78125 8.984375 
Q 59.421875 11.28125 64.40625 15.921875 
L 64.40625 5.609375 
Q 59.234375 2.09375 53.4375 0.328125 
Q 47.65625 -1.421875 41.21875 -1.421875 
Q 24.65625 -1.421875 15.125 8.703125 
Q 5.609375 18.84375 5.609375 36.375 
Q 5.609375 53.953125 15.125 64.078125 
Q 24.65625 74.21875 41.21875 74.21875 
Q 47.75 74.21875 53.53125 72.484375 
Q 59.328125 70.75 64.40625 67.28125 
z
" id="DejaVuSans-43"/>
     </defs>
     <g transform="translate(35.912969 233.539687)rotate(-90)scale(0.15 -0.15)">
      <use xlink:href="#DejaVuSans-43"/>
      <use x="69.824219" xlink:href="#DejaVuSans-6f"/>
      <use x="131.005859" xlink:href="#DejaVuSans-75"/>
      <use x="194.384766" xlink:href="#DejaVuSans-6e"/>
      <use x="257.763672" xlink:href="#DejaVuSans-74"/>
      <use x="296.972656" xlink:href="#DejaVuSans-73"/>
     </g>
    </g>
   </g>
   <g id="LineCollection_2">
    <path clip-path="url(#p02971077e5)" d="M 81.92 335.36 
L 81.92 250.026667 
" style="fill:none;stroke:#0000ff;stroke-width:1.5;"/>
    <path clip-path="url(#p02971077e5)" d="M 95.479322 343.271012 
L 95.479322 263.448988 
" style="fill:none;stroke:#0000ff;stroke-width:1.5;"/>
    <path clip-path="url(#p02971077e5)" d="M 111.750508 343.271012 
L 111.750508 263.448988 
" style="fill:none;stroke:#0000ff;stroke-width:1.5;"/>
    <path clip-path="url(#p02971077e5)" d="M 114.462373 343.271012 
L 114.462373 263.448988 
" style="fill:none;stroke:#0000ff;stroke-width:1.5;"/>
    <path clip-path="url(#p02971077e5)" d="M 163.275932 343.271012 
L 163.275932 263.448988 
" style="fill:none;stroke:#0000ff;stroke-width:1.5;"/>
    <path clip-path="url(#p02971077e5)" d="M 168.699661 327.281501 
L 168.699661 236.771833 
" style="fill:none;stroke:#0000ff;stroke-width:1.5;"/>
    <path clip-path="url(#p02971077e5)" d="M 171.411525 327.281501 
L 171.411525 236.771833 
" style="fill:none;stroke:#0000ff;stroke-width:1.5;"/>
    <path clip-path="url(#p02971077e5)" d="M 174.12339 335.36 
L 174.12339 250.026667 
" style="fill:none;stroke:#0000ff;stroke-width:1.5;"/>
    <path clip-path="url(#p02971077e5)" d="M 176.835254 319.062784 
L 176.835254 223.657216 
" style="fill:none;stroke:#0000ff;stroke-width:1.5;"/>
    <path clip-path="url(#p02971077e5)" d="M 190.394576 343.271012 
L 190.394576 263.448988 
" style="fill:none;stroke:#0000ff;stroke-width:1.5;"/>
    <path clip-path="url(#p02971077e5)" d="M 193.106441 343.271012 
L 193.106441 263.448988 
" style="fill:none;stroke:#0000ff;stroke-width:1.5;"/>
    <path clip-path="url(#p02971077e5)" d="M 195.818305 335.36 
L 195.818305 250.026667 
" style="fill:none;stroke:#0000ff;stroke-width:1.5;"/>
    <path clip-path="url(#p02971077e5)" d="M 201.242034 310.724435 
L 201.242034 210.662232 
" style="fill:none;stroke:#0000ff;stroke-width:1.5;"/>
    <path clip-path="url(#p02971077e5)" d="M 206.665763 335.36 
L 206.665763 250.026667 
" style="fill:none;stroke:#0000ff;stroke-width:1.5;"/>
    <path clip-path="url(#p02971077e5)" d="M 212.089492 319.062784 
L 212.089492 223.657216 
" style="fill:none;stroke:#0000ff;stroke-width:1.5;"/>
    <path clip-path="url(#p02971077e5)" d="M 214.801356 302.282448 
L 214.801356 197.770885 
" style="fill:none;stroke:#0000ff;stroke-width:1.5;"/>
    <path clip-path="url(#p02971077e5)" d="M 220.225085 327.281501 
L 220.225085 236.771833 
" style="fill:none;stroke:#0000ff;stroke-width:1.5;"/>
    <path clip-path="url(#p02971077e5)" d="M 222.936949 343.271012 
L 222.936949 263.448988 
" style="fill:none;stroke:#0000ff;stroke-width:1.5;"/>
    <path clip-path="url(#p02971077e5)" d="M 225.648814 293.749541 
L 225.648814 184.970459 
" style="fill:none;stroke:#0000ff;stroke-width:1.5;"/>
    <path clip-path="url(#p02971077e5)" d="M 228.360678 319.062784 
L 228.360678 223.657216 
" style="fill:none;stroke:#0000ff;stroke-width:1.5;"/>
    <path clip-path="url(#p02971077e5)" d="M 231.072542 302.282448 
L 231.072542 197.770885 
" style="fill:none;stroke:#0000ff;stroke-width:1.5;"/>
    <path clip-path="url(#p02971077e5)" d="M 236.496271 285.136028 
L 236.496271 172.250639 
" style="fill:none;stroke:#0000ff;stroke-width:1.5;"/>
    <path clip-path="url(#p02971077e5)" d="M 239.208136 285.136028 
L 239.208136 172.250639 
" style="fill:none;stroke:#0000ff;stroke-width:1.5;"/>
    <path clip-path="url(#p02971077e5)" d="M 241.92 343.271012 
L 241.92 263.448988 
" style="fill:none;stroke:#0000ff;stroke-width:1.5;"/>
    <path clip-path="url(#p02971077e5)" d="M 244.631864 258.890154 
L 244.631864 134.496513 
" style="fill:none;stroke:#0000ff;stroke-width:1.5;"/>
    <path clip-path="url(#p02971077e5)" d="M 247.343729 343.271012 
L 247.343729 263.448988 
" style="fill:none;stroke:#0000ff;stroke-width:1.5;"/>
    <path clip-path="url(#p02971077e5)" d="M 250.055593 267.699779 
L 250.055593 147.020221 
" style="fill:none;stroke:#0000ff;stroke-width:1.5;"/>
    <path clip-path="url(#p02971077e5)" d="M 252.767458 310.724435 
L 252.767458 210.662232 
" style="fill:none;stroke:#0000ff;stroke-width:1.5;"/>
    <path clip-path="url(#p02971077e5)" d="M 255.479322 335.36 
L 255.479322 250.026667 
" style="fill:none;stroke:#0000ff;stroke-width:1.5;"/>
    <path clip-path="url(#p02971077e5)" d="M 258.191186 267.699779 
L 258.191186 147.020221 
" style="fill:none;stroke:#0000ff;stroke-width:1.5;"/>
    <path clip-path="url(#p02971077e5)" d="M 260.903051 285.136028 
L 260.903051 172.250639 
" style="fill:none;stroke:#0000ff;stroke-width:1.5;"/>
    <path clip-path="url(#p02971077e5)" d="M 263.614915 310.724435 
L 263.614915 210.662232 
" style="fill:none;stroke:#0000ff;stroke-width:1.5;"/>
    <path clip-path="url(#p02971077e5)" d="M 266.32678 319.062784 
L 266.32678 223.657216 
" style="fill:none;stroke:#0000ff;stroke-width:1.5;"/>
    <path clip-path="url(#p02971077e5)" d="M 269.038644 241.113749 
L 269.038644 109.606251 
" style="fill:none;stroke:#0000ff;stroke-width:1.5;"/>
    <path clip-path="url(#p02971077e5)" d="M 271.750508 310.724435 
L 271.750508 210.662232 
" style="fill:none;stroke:#0000ff;stroke-width:1.5;"/>
    <path clip-path="url(#p02971077e5)" d="M 274.462373 319.062784 
L 274.462373 223.657216 
" style="fill:none;stroke:#0000ff;stroke-width:1.5;"/>
    <path clip-path="url(#p02971077e5)" d="M 277.174237 285.136028 
L 277.174237 172.250639 
" style="fill:none;stroke:#0000ff;stroke-width:1.5;"/>
    <path clip-path="url(#p02971077e5)" d="M 279.886102 302.282448 
L 279.886102 197.770885 
" style="fill:none;stroke:#0000ff;stroke-width:1.5;"/>
    <path clip-path="url(#p02971077e5)" d="M 282.597966 319.062784 
L 282.597966 223.657216 
" style="fill:none;stroke:#0000ff;stroke-width:1.5;"/>
    <path clip-path="url(#p02971077e5)" d="M 285.309831 293.749541 
L 285.309831 184.970459 
" style="fill:none;stroke:#0000ff;stroke-width:1.5;"/>
    <path clip-path="url(#p02971077e5)" d="M 288.021695 276.450406 
L 288.021695 159.602927 
" style="fill:none;stroke:#0000ff;stroke-width:1.5;"/>
    <path clip-path="url(#p02971077e5)" d="M 290.733559 285.136028 
L 290.733559 172.250639 
" style="fill:none;stroke:#0000ff;stroke-width:1.5;"/>
    <path clip-path="url(#p02971077e5)" d="M 293.445424 250.026667 
L 293.445424 122.026667 
" style="fill:none;stroke:#0000ff;stroke-width:1.5;"/>
    <path clip-path="url(#p02971077e5)" d="M 296.157288 241.113749 
L 296.157288 109.606251 
" style="fill:none;stroke:#0000ff;stroke-width:1.5;"/>
    <path clip-path="url(#p02971077e5)" d="M 298.869153 302.282448 
L 298.869153 197.770885 
" style="fill:none;stroke:#0000ff;stroke-width:1.5;"/>
    <path clip-path="url(#p02971077e5)" d="M 301.581017 310.724435 
L 301.581017 210.662232 
" style="fill:none;stroke:#0000ff;stroke-width:1.5;"/>
    <path clip-path="url(#p02971077e5)" d="M 304.292881 319.062784 
L 304.292881 223.657216 
" style="fill:none;stroke:#0000ff;stroke-width:1.5;"/>
    <path clip-path="url(#p02971077e5)" d="M 307.004746 186.784723 
L 307.004746 35.935277 
" style="fill:none;stroke:#0000ff;stroke-width:1.5;"/>
    <path clip-path="url(#p02971077e5)" d="M 309.71661 319.062784 
L 309.71661 223.657216 
" style="fill:none;stroke:#0000ff;stroke-width:1.5;"/>
    <path clip-path="url(#p02971077e5)" d="M 312.428475 335.36 
L 312.428475 250.026667 
" style="fill:none;stroke:#0000ff;stroke-width:1.5;"/>
    <path clip-path="url(#p02971077e5)" d="M 315.140339 319.062784 
L 315.140339 223.657216 
" style="fill:none;stroke:#0000ff;stroke-width:1.5;"/>
    <path clip-path="url(#p02971077e5)" d="M 317.852203 327.281501 
L 317.852203 236.771833 
" style="fill:none;stroke:#0000ff;stroke-width:1.5;"/>
    <path clip-path="url(#p02971077e5)" d="M 320.564068 276.450406 
L 320.564068 159.602927 
" style="fill:none;stroke:#0000ff;stroke-width:1.5;"/>
    <path clip-path="url(#p02971077e5)" d="M 323.275932 276.450406 
L 323.275932 159.602927 
" style="fill:none;stroke:#0000ff;stroke-width:1.5;"/>
    <path clip-path="url(#p02971077e5)" d="M 325.987797 276.450406 
L 325.987797 159.602927 
" style="fill:none;stroke:#0000ff;stroke-width:1.5;"/>
    <path clip-path="url(#p02971077e5)" d="M 328.699661 310.724435 
L 328.699661 210.662232 
" style="fill:none;stroke:#0000ff;stroke-width:1.5;"/>
    <path clip-path="url(#p02971077e5)" d="M 331.411525 327.281501 
L 331.411525 236.771833 
" style="fill:none;stroke:#0000ff;stroke-width:1.5;"/>
    <path clip-path="url(#p02971077e5)" d="M 334.12339 327.281501 
L 334.12339 236.771833 
" style="fill:none;stroke:#0000ff;stroke-width:1.5;"/>
    <path clip-path="url(#p02971077e5)" d="M 339.547119 276.450406 
L 339.547119 159.602927 
" style="fill:none;stroke:#0000ff;stroke-width:1.5;"/>
    <path clip-path="url(#p02971077e5)" d="M 344.970847 335.36 
L 344.970847 250.026667 
" style="fill:none;stroke:#0000ff;stroke-width:1.5;"/>
    <path clip-path="url(#p02971077e5)" d="M 353.106441 335.36 
L 353.106441 250.026667 
" style="fill:none;stroke:#0000ff;stroke-width:1.5;"/>
    <path clip-path="url(#p02971077e5)" d="M 363.953898 343.271012 
L 363.953898 263.448988 
" style="fill:none;stroke:#0000ff;stroke-width:1.5;"/>
    <path clip-path="url(#p02971077e5)" d="M 374.801356 327.281501 
L 374.801356 236.771833 
" style="fill:none;stroke:#0000ff;stroke-width:1.5;"/>
    <path clip-path="url(#p02971077e5)" d="M 382.936949 335.36 
L 382.936949 250.026667 
" style="fill:none;stroke:#0000ff;stroke-width:1.5;"/>
    <path clip-path="url(#p02971077e5)" d="M 401.92 335.36 
L 401.92 250.026667 
" style="fill:none;stroke:#0000ff;stroke-width:1.5;"/>
   </g>
   <g id="line2d_17">
    <path clip-path="url(#p02971077e5)" d="M 81.92 297.332273 
L 126.444525 297.2135 
L 141.8199 296.958503 
L 152.39047 296.568423 
L 160.718799 296.043408 
L 167.765846 295.379324 
L 173.851932 294.591047 
L 179.617698 293.61601 
L 184.742823 292.528326 
L 189.547628 291.292622 
L 194.352432 289.824961 
L 198.836917 288.228879 
L 203.321401 286.402227 
L 207.805886 284.338309 
L 212.29037 282.036791 
L 217.095175 279.315602 
L 222.2203 276.144281 
L 227.986066 272.294299 
L 235.033113 267.300743 
L 250.408488 256.304977 
L 255.533614 252.969668 
L 259.697778 250.508586 
L 263.541622 248.48693 
L 267.065145 246.88024 
L 270.268348 245.648365 
L 273.471552 244.652908 
L 276.354434 243.971331 
L 279.237317 243.501409 
L 282.1202 243.248856 
L 285.003083 243.216757 
L 287.885966 243.405505 
L 290.768849 243.812792 
L 293.651732 244.433658 
L 296.854935 245.364783 
L 300.058138 246.536485 
L 303.581662 248.082744 
L 307.105185 249.872599 
L 310.949029 252.067373 
L 315.433514 254.891568 
L 320.878959 258.603533 
L 329.207287 264.599005 
L 339.777858 272.158786 
L 345.863944 276.223999 
L 350.989069 279.388997 
L 355.793874 282.103564 
L 360.598679 284.553442 
L 365.083163 286.593724 
L 369.567648 288.397141 
L 374.052132 289.970949 
L 378.856937 291.416294 
L 383.661742 292.631645 
L 388.786867 293.70002 
L 394.232312 294.609416 
L 400.318398 295.393137 
L 401.92 295.564247 
L 401.92 295.564247 
" style="fill:none;stroke:#ff0000;stroke-linecap:square;stroke-width:1.5;"/>
   </g>
   <g id="line2d_18">
    <g clip-path="url(#p02971077e5)">
     <use style="fill:#0000ff;stroke:#0000ff;" x="81.92" xlink:href="#m6c16f09bc9" y="292.693333"/>
     <use style="fill:#0000ff;stroke:#0000ff;" x="95.479322" xlink:href="#m6c16f09bc9" y="303.36"/>
     <use style="fill:#0000ff;stroke:#0000ff;" x="111.750508" xlink:href="#m6c16f09bc9" y="303.36"/>
     <use style="fill:#0000ff;stroke:#0000ff;" x="114.462373" xlink:href="#m6c16f09bc9" y="303.36"/>
     <use style="fill:#0000ff;stroke:#0000ff;" x="163.275932" xlink:href="#m6c16f09bc9" y="303.36"/>
     <use style="fill:#0000ff;stroke:#0000ff;" x="168.699661" xlink:href="#m6c16f09bc9" y="282.026667"/>
     <use style="fill:#0000ff;stroke:#0000ff;" x="171.411525" xlink:href="#m6c16f09bc9" y="282.026667"/>
     <use style="fill:#0000ff;stroke:#0000ff;" x="174.12339" xlink:href="#m6c16f09bc9" y="292.693333"/>
     <use style="fill:#0000ff;stroke:#0000ff;" x="176.835254" xlink:href="#m6c16f09bc9" y="271.36"/>
     <use style="fill:#0000ff;stroke:#0000ff;" x="190.394576" xlink:href="#m6c16f09bc9" y="303.36"/>
     <use style="fill:#0000ff;stroke:#0000ff;" x="193.106441" xlink:href="#m6c16f09bc9" y="303.36"/>
     <use style="fill:#0000ff;stroke:#0000ff;" x="195.818305" xlink:href="#m6c16f09bc9" y="292.693333"/>
     <use style="fill:#0000ff;stroke:#0000ff;" x="201.242034" xlink:href="#m6c16f09bc9" y="260.693333"/>
     <use style="fill:#0000ff;stroke:#0000ff;" x="206.665763" xlink:href="#m6c16f09bc9" y="292.693333"/>
     <use style="fill:#0000ff;stroke:#0000ff;" x="212.089492" xlink:href="#m6c16f09bc9" y="271.36"/>
     <use style="fill:#0000ff;stroke:#0000ff;" x="214.801356" xlink:href="#m6c16f09bc9" y="250.026667"/>
     <use style="fill:#0000ff;stroke:#0000ff;" x="220.225085" xlink:href="#m6c16f09bc9" y="282.026667"/>
     <use style="fill:#0000ff;stroke:#0000ff;" x="222.936949" xlink:href="#m6c16f09bc9" y="303.36"/>
     <use style="fill:#0000ff;stroke:#0000ff;" x="225.648814" xlink:href="#m6c16f09bc9" y="239.36"/>
     <use style="fill:#0000ff;stroke:#0000ff;" x="228.360678" xlink:href="#m6c16f09bc9" y="271.36"/>
     <use style="fill:#0000ff;stroke:#0000ff;" x="231.072542" xlink:href="#m6c16f09bc9" y="250.026667"/>
     <use style="fill:#0000ff;stroke:#0000ff;" x="236.496271" xlink:href="#m6c16f09bc9" y="228.693333"/>
     <use style="fill:#0000ff;stroke:#0000ff;" x="239.208136" xlink:href="#m6c16f09bc9" y="228.693333"/>
     <use style="fill:#0000ff;stroke:#0000ff;" x="241.92" xlink:href="#m6c16f09bc9" y="303.36"/>
     <use style="fill:#0000ff;stroke:#0000ff;" x="244.631864" xlink:href="#m6c16f09bc9" y="196.693333"/>
     <use style="fill:#0000ff;stroke:#0000ff;" x="247.343729" xlink:href="#m6c16f09bc9" y="303.36"/>
     <use style="fill:#0000ff;stroke:#0000ff;" x="250.055593" xlink:href="#m6c16f09bc9" y="207.36"/>
     <use style="fill:#0000ff;stroke:#0000ff;" x="252.767458" xlink:href="#m6c16f09bc9" y="260.693333"/>
     <use style="fill:#0000ff;stroke:#0000ff;" x="255.479322" xlink:href="#m6c16f09bc9" y="292.693333"/>
     <use style="fill:#0000ff;stroke:#0000ff;" x="258.191186" xlink:href="#m6c16f09bc9" y="207.36"/>
     <use style="fill:#0000ff;stroke:#0000ff;" x="260.903051" xlink:href="#m6c16f09bc9" y="228.693333"/>
     <use style="fill:#0000ff;stroke:#0000ff;" x="263.614915" xlink:href="#m6c16f09bc9" y="260.693333"/>
     <use style="fill:#0000ff;stroke:#0000ff;" x="266.32678" xlink:href="#m6c16f09bc9" y="271.36"/>
     <use style="fill:#0000ff;stroke:#0000ff;" x="269.038644" xlink:href="#m6c16f09bc9" y="175.36"/>
     <use style="fill:#0000ff;stroke:#0000ff;" x="271.750508" xlink:href="#m6c16f09bc9" y="260.693333"/>
     <use style="fill:#0000ff;stroke:#0000ff;" x="274.462373" xlink:href="#m6c16f09bc9" y="271.36"/>
     <use style="fill:#0000ff;stroke:#0000ff;" x="277.174237" xlink:href="#m6c16f09bc9" y="228.693333"/>
     <use style="fill:#0000ff;stroke:#0000ff;" x="279.886102" xlink:href="#m6c16f09bc9" y="250.026667"/>
     <use style="fill:#0000ff;stroke:#0000ff;" x="282.597966" xlink:href="#m6c16f09bc9" y="271.36"/>
     <use style="fill:#0000ff;stroke:#0000ff;" x="285.309831" xlink:href="#m6c16f09bc9" y="239.36"/>
     <use style="fill:#0000ff;stroke:#0000ff;" x="288.021695" xlink:href="#m6c16f09bc9" y="218.026667"/>
     <use style="fill:#0000ff;stroke:#0000ff;" x="290.733559" xlink:href="#m6c16f09bc9" y="228.693333"/>
     <use style="fill:#0000ff;stroke:#0000ff;" x="293.445424" xlink:href="#m6c16f09bc9" y="186.026667"/>
     <use style="fill:#0000ff;stroke:#0000ff;" x="296.157288" xlink:href="#m6c16f09bc9" y="175.36"/>
     <use style="fill:#0000ff;stroke:#0000ff;" x="298.869153" xlink:href="#m6c16f09bc9" y="250.026667"/>
     <use style="fill:#0000ff;stroke:#0000ff;" x="301.581017" xlink:href="#m6c16f09bc9" y="260.693333"/>
     <use style="fill:#0000ff;stroke:#0000ff;" x="304.292881" xlink:href="#m6c16f09bc9" y="271.36"/>
     <use style="fill:#0000ff;stroke:#0000ff;" x="307.004746" xlink:href="#m6c16f09bc9" y="111.36"/>
     <use style="fill:#0000ff;stroke:#0000ff;" x="309.71661" xlink:href="#m6c16f09bc9" y="271.36"/>
     <use style="fill:#0000ff;stroke:#0000ff;" x="312.428475" xlink:href="#m6c16f09bc9" y="292.693333"/>
     <use style="fill:#0000ff;stroke:#0000ff;" x="315.140339" xlink:href="#m6c16f09bc9" y="271.36"/>
     <use style="fill:#0000ff;stroke:#0000ff;" x="317.852203" xlink:href="#m6c16f09bc9" y="282.026667"/>
     <use style="fill:#0000ff;stroke:#0000ff;" x="320.564068" xlink:href="#m6c16f09bc9" y="218.026667"/>
     <use style="fill:#0000ff;stroke:#0000ff;" x="323.275932" xlink:href="#m6c16f09bc9" y="218.026667"/>
     <use style="fill:#0000ff;stroke:#0000ff;" x="325.987797" xlink:href="#m6c16f09bc9" y="218.026667"/>
     <use style="fill:#0000ff;stroke:#0000ff;" x="328.699661" xlink:href="#m6c16f09bc9" y="260.693333"/>
     <use style="fill:#0000ff;stroke:#0000ff;" x="331.411525" xlink:href="#m6c16f09bc9" y="282.026667"/>
     <use style="fill:#0000ff;stroke:#0000ff;" x="334.12339" xlink:href="#m6c16f09bc9" y="282.026667"/>
     <use style="fill:#0000ff;stroke:#0000ff;" x="339.547119" xlink:href="#m6c16f09bc9" y="218.026667"/>
     <use style="fill:#0000ff;stroke:#0000ff;" x="344.970847" xlink:href="#m6c16f09bc9" y="292.693333"/>
     <use style="fill:#0000ff;stroke:#0000ff;" x="353.106441" xlink:href="#m6c16f09bc9" y="292.693333"/>
     <use style="fill:#0000ff;stroke:#0000ff;" x="363.953898" xlink:href="#m6c16f09bc9" y="303.36"/>
     <use style="fill:#0000ff;stroke:#0000ff;" x="374.801356" xlink:href="#m6c16f09bc9" y="282.026667"/>
     <use style="fill:#0000ff;stroke:#0000ff;" x="382.936949" xlink:href="#m6c16f09bc9" y="292.693333"/>
     <use style="fill:#0000ff;stroke:#0000ff;" x="401.92" xlink:href="#m6c16f09bc9" y="292.693333"/>
    </g>
   </g>
   <g id="patch_8">
    <path d="M 69.12 311.04 
L 69.12 103.68 
" style="fill:none;stroke:#000000;stroke-linecap:square;stroke-linejoin:miter;stroke-width:0.8;"/>
   </g>
   <g id="patch_9">
    <path d="M 414.72 311.04 
L 414.72 103.68 
" style="fill:none;stroke:#000000;stroke-linecap:square;stroke-linejoin:miter;stroke-width:0.8;"/>
   </g>
   <g id="patch_10">
    <path d="M 69.12 311.04 
L 414.72 311.04 
" style="fill:none;stroke:#000000;stroke-linecap:square;stroke-linejoin:miter;stroke-width:0.8;"/>
   </g>
   <g id="patch_11">
    <path d="M 69.12 103.68 
L 414.72 103.68 
" style="fill:none;stroke:#000000;stroke-linecap:square;stroke-linejoin:miter;stroke-width:0.8;"/>
   </g>
  </g>
 </g>
 <defs>
  <clipPath id="paada76ddfc">
   <rect height="51.84" width="345.6" x="69.12" y="44.928"/>
  </clipPath>
  <clipPath id="p02971077e5">
   <rect height="207.36" width="345.6" x="69.12" y="103.68"/>
  </clipPath>
 </defs>
</svg>
