<?xml version="1.0" encoding="utf-8" standalone="no"?>
<!DOCTYPE svg PUBLIC "-//W3C//DTD SVG 1.1//EN"
  "http://www.w3.org/Graphics/SVG/1.1/DTD/svg11.dtd">
<!-- Created with matplotlib (http://matplotlib.org/) -->
<svg height="345pt" version="1.1" viewBox="0 0 460 345" width="460pt" xmlns="http://www.w3.org/2000/svg" xmlns:xlink="http://www.w3.org/1999/xlink">
 <defs>
  <style type="text/css">
*{stroke-linecap:butt;stroke-linejoin:round;}
  </style>
 </defs>
 <g id="figure_1">
  <g id="patch_1">
   <path d="M 0 345.6 
L 460.8 345.6 
L 460.8 0 
L 0 0 
z
" style="fill:#ffffff;"/>
  </g>
  <g id="axes_1">
   <g id="patch_2">
    <path d="M 69.12 96.768 
L 414.72 96.768 
L 414.72 44.928 
L 69.12 44.928 
z
" style="fill:#ffffff;"/>
   </g>
   <g id="matplotlib.axis_1">
    <g id="xtick_1">
     <g id="line2d_1">
      <defs>
       <path d="M 0 0 
L 0 3.5 
" id="ma3dc672525" style="stroke:#000000;stroke-width:0.8;"/>
      </defs>
      <g>
       <use style="stroke:#000000;stroke-width:0.8;" x="142.402213" xlink:href="#ma3dc672525" y="96.768"/>
      </g>
     </g>
    </g>
    <g id="xtick_2">
     <g id="line2d_2">
      <g>
       <use style="stroke:#000000;stroke-width:0.8;" x="238.460181" xlink:href="#ma3dc672525" y="96.768"/>
      </g>
     </g>
    </g>
    <g id="xtick_3">
     <g id="line2d_3">
      <g>
       <use style="stroke:#000000;stroke-width:0.8;" x="334.518148" xlink:href="#ma3dc672525" y="96.768"/>
      </g>
     </g>
    </g>
   </g>
   <g id="matplotlib.axis_2">
    <g id="ytick_1">
     <g id="line2d_4">
      <defs>
       <path d="M 0 0 
L -3.5 0 
" id="m5bb06ca6a5" style="stroke:#000000;stroke-width:0.8;"/>
      </defs>
      <g>
       <use style="stroke:#000000;stroke-width:0.8;" x="69.12" xlink:href="#m5bb06ca6a5" y="93.571433"/>
      </g>
     </g>
     <g id="text_1">
      <!-- −1 -->
      <defs>
       <path d="M 10.59375 35.5 
L 73.1875 35.5 
L 73.1875 27.203125 
L 10.59375 27.203125 
z
" id="DejaVuSans-2212"/>
       <path d="M 12.40625 8.296875 
L 28.515625 8.296875 
L 28.515625 63.921875 
L 10.984375 60.40625 
L 10.984375 69.390625 
L 28.421875 72.90625 
L 38.28125 72.90625 
L 38.28125 8.296875 
L 54.390625 8.296875 
L 54.390625 0 
L 12.40625 0 
z
" id="DejaVuSans-31"/>
      </defs>
      <g transform="translate(40.006719 99.270261)scale(0.15 -0.15)">
       <use xlink:href="#DejaVuSans-2212"/>
       <use x="83.789062" xlink:href="#DejaVuSans-31"/>
      </g>
     </g>
    </g>
    <g id="ytick_2">
     <g id="line2d_5">
      <g>
       <use style="stroke:#000000;stroke-width:0.8;" x="69.12" xlink:href="#m5bb06ca6a5" y="74.251511"/>
      </g>
     </g>
    </g>
    <g id="ytick_3">
     <g id="line2d_6">
      <g>
       <use style="stroke:#000000;stroke-width:0.8;" x="69.12" xlink:href="#m5bb06ca6a5" y="54.931589"/>
      </g>
     </g>
     <g id="text_2">
      <!-- 1 -->
      <g transform="translate(52.57625 60.630417)scale(0.15 -0.15)">
       <use xlink:href="#DejaVuSans-31"/>
      </g>
     </g>
    </g>
    <g id="text_3">
     <!-- Studentized -->
     <defs>
      <path d="M 53.515625 70.515625 
L 53.515625 60.890625 
Q 47.90625 63.578125 42.921875 64.890625 
Q 37.9375 66.21875 33.296875 66.21875 
Q 25.25 66.21875 20.875 63.09375 
Q 16.5 59.96875 16.5 54.203125 
Q 16.5 49.359375 19.40625 46.890625 
Q 22.3125 44.4375 30.421875 42.921875 
L 36.375 41.703125 
Q 47.40625 39.59375 52.65625 34.296875 
Q 57.90625 29 57.90625 20.125 
Q 57.90625 9.515625 50.796875 4.046875 
Q 43.703125 -1.421875 29.984375 -1.421875 
Q 24.8125 -1.421875 18.96875 -0.25 
Q 13.140625 0.921875 6.890625 3.21875 
L 6.890625 13.375 
Q 12.890625 10.015625 18.65625 8.296875 
Q 24.421875 6.59375 29.984375 6.59375 
Q 38.421875 6.59375 43.015625 9.90625 
Q 47.609375 13.234375 47.609375 19.390625 
Q 47.609375 24.75 44.3125 27.78125 
Q 41.015625 30.8125 33.5 32.328125 
L 27.484375 33.5 
Q 16.453125 35.6875 11.515625 40.375 
Q 6.59375 45.0625 6.59375 53.421875 
Q 6.59375 63.09375 13.40625 68.65625 
Q 20.21875 74.21875 32.171875 74.21875 
Q 37.3125 74.21875 42.625 73.28125 
Q 47.953125 72.359375 53.515625 70.515625 
z
" id="DejaVuSans-53"/>
      <path d="M 18.3125 70.21875 
L 18.3125 54.6875 
L 36.8125 54.6875 
L 36.8125 47.703125 
L 18.3125 47.703125 
L 18.3125 18.015625 
Q 18.3125 11.328125 20.140625 9.421875 
Q 21.96875 7.515625 27.59375 7.515625 
L 36.8125 7.515625 
L 36.8125 0 
L 27.59375 0 
Q 17.1875 0 13.234375 3.875 
Q 9.28125 7.765625 9.28125 18.015625 
L 9.28125 47.703125 
L 2.6875 47.703125 
L 2.6875 54.6875 
L 9.28125 54.6875 
L 9.28125 70.21875 
z
" id="DejaVuSans-74"/>
      <path d="M 8.5 21.578125 
L 8.5 54.6875 
L 17.484375 54.6875 
L 17.484375 21.921875 
Q 17.484375 14.15625 20.5 10.265625 
Q 23.53125 6.390625 29.59375 6.390625 
Q 36.859375 6.390625 41.078125 11.03125 
Q 45.3125 15.671875 45.3125 23.6875 
L 45.3125 54.6875 
L 54.296875 54.6875 
L 54.296875 0 
L 45.3125 0 
L 45.3125 8.40625 
Q 42.046875 3.421875 37.71875 1 
Q 33.40625 -1.421875 27.6875 -1.421875 
Q 18.265625 -1.421875 13.375 4.4375 
Q 8.5 10.296875 8.5 21.578125 
z
M 31.109375 56 
z
" id="DejaVuSans-75"/>
      <path d="M 45.40625 46.390625 
L 45.40625 75.984375 
L 54.390625 75.984375 
L 54.390625 0 
L 45.40625 0 
L 45.40625 8.203125 
Q 42.578125 3.328125 38.25 0.953125 
Q 33.9375 -1.421875 27.875 -1.421875 
Q 17.96875 -1.421875 11.734375 6.484375 
Q 5.515625 14.40625 5.515625 27.296875 
Q 5.515625 40.1875 11.734375 48.09375 
Q 17.96875 56 27.875 56 
Q 33.9375 56 38.25 53.625 
Q 42.578125 51.265625 45.40625 46.390625 
z
M 14.796875 27.296875 
Q 14.796875 17.390625 18.875 11.75 
Q 22.953125 6.109375 30.078125 6.109375 
Q 37.203125 6.109375 41.296875 11.75 
Q 45.40625 17.390625 45.40625 27.296875 
Q 45.40625 37.203125 41.296875 42.84375 
Q 37.203125 48.484375 30.078125 48.484375 
Q 22.953125 48.484375 18.875 42.84375 
Q 14.796875 37.203125 14.796875 27.296875 
z
" id="DejaVuSans-64"/>
      <path d="M 56.203125 29.59375 
L 56.203125 25.203125 
L 14.890625 25.203125 
Q 15.484375 15.921875 20.484375 11.0625 
Q 25.484375 6.203125 34.421875 6.203125 
Q 39.59375 6.203125 44.453125 7.46875 
Q 49.3125 8.734375 54.109375 11.28125 
L 54.109375 2.78125 
Q 49.265625 0.734375 44.1875 -0.34375 
Q 39.109375 -1.421875 33.890625 -1.421875 
Q 20.796875 -1.421875 13.15625 6.1875 
Q 5.515625 13.8125 5.515625 26.8125 
Q 5.515625 40.234375 12.765625 48.109375 
Q 20.015625 56 32.328125 56 
Q 43.359375 56 49.78125 48.890625 
Q 56.203125 41.796875 56.203125 29.59375 
z
M 47.21875 32.234375 
Q 47.125 39.59375 43.09375 43.984375 
Q 39.0625 48.390625 32.421875 48.390625 
Q 24.90625 48.390625 20.390625 44.140625 
Q 15.875 39.890625 15.1875 32.171875 
z
" id="DejaVuSans-65"/>
      <path d="M 54.890625 33.015625 
L 54.890625 0 
L 45.90625 0 
L 45.90625 32.71875 
Q 45.90625 40.484375 42.875 44.328125 
Q 39.84375 48.1875 33.796875 48.1875 
Q 26.515625 48.1875 22.3125 43.546875 
Q 18.109375 38.921875 18.109375 30.90625 
L 18.109375 0 
L 9.078125 0 
L 9.078125 54.6875 
L 18.109375 54.6875 
L 18.109375 46.1875 
Q 21.34375 51.125 25.703125 53.5625 
Q 30.078125 56 35.796875 56 
Q 45.21875 56 50.046875 50.171875 
Q 54.890625 44.34375 54.890625 33.015625 
z
" id="DejaVuSans-6e"/>
      <path d="M 9.421875 54.6875 
L 18.40625 54.6875 
L 18.40625 0 
L 9.421875 0 
z
M 9.421875 75.984375 
L 18.40625 75.984375 
L 18.40625 64.59375 
L 9.421875 64.59375 
z
" id="DejaVuSans-69"/>
      <path d="M 5.515625 54.6875 
L 48.1875 54.6875 
L 48.1875 46.484375 
L 14.40625 7.171875 
L 48.1875 7.171875 
L 48.1875 0 
L 4.296875 0 
L 4.296875 8.203125 
L 38.09375 47.515625 
L 5.515625 47.515625 
z
" id="DejaVuSans-7a"/>
     </defs>
     <g transform="translate(16.090469 115.768313)rotate(-90)scale(0.15 -0.15)">
      <use xlink:href="#DejaVuSans-53"/>
      <use x="63.476562" xlink:href="#DejaVuSans-74"/>
      <use x="102.685547" xlink:href="#DejaVuSans-75"/>
      <use x="166.064453" xlink:href="#DejaVuSans-64"/>
      <use x="229.541016" xlink:href="#DejaVuSans-65"/>
      <use x="291.064453" xlink:href="#DejaVuSans-6e"/>
      <use x="354.443359" xlink:href="#DejaVuSans-74"/>
      <use x="393.652344" xlink:href="#DejaVuSans-69"/>
      <use x="421.435547" xlink:href="#DejaVuSans-7a"/>
      <use x="473.925781" xlink:href="#DejaVuSans-65"/>
      <use x="535.449219" xlink:href="#DejaVuSans-64"/>
     </g>
     <!-- Residuals -->
     <defs>
      <path d="M 44.390625 34.1875 
Q 47.5625 33.109375 50.5625 29.59375 
Q 53.5625 26.078125 56.59375 19.921875 
L 66.609375 0 
L 56 0 
L 46.6875 18.703125 
Q 43.0625 26.03125 39.671875 28.421875 
Q 36.28125 30.8125 30.421875 30.8125 
L 19.671875 30.8125 
L 19.671875 0 
L 9.8125 0 
L 9.8125 72.90625 
L 32.078125 72.90625 
Q 44.578125 72.90625 50.734375 67.671875 
Q 56.890625 62.453125 56.890625 51.90625 
Q 56.890625 45.015625 53.6875 40.46875 
Q 50.484375 35.9375 44.390625 34.1875 
z
M 19.671875 64.796875 
L 19.671875 38.921875 
L 32.078125 38.921875 
Q 39.203125 38.921875 42.84375 42.21875 
Q 46.484375 45.515625 46.484375 51.90625 
Q 46.484375 58.296875 42.84375 61.546875 
Q 39.203125 64.796875 32.078125 64.796875 
z
" id="DejaVuSans-52"/>
      <path d="M 44.28125 53.078125 
L 44.28125 44.578125 
Q 40.484375 46.53125 36.375 47.5 
Q 32.28125 48.484375 27.875 48.484375 
Q 21.1875 48.484375 17.84375 46.4375 
Q 14.5 44.390625 14.5 40.28125 
Q 14.5 37.15625 16.890625 35.375 
Q 19.28125 33.59375 26.515625 31.984375 
L 29.59375 31.296875 
Q 39.15625 29.25 43.1875 25.515625 
Q 47.21875 21.78125 47.21875 15.09375 
Q 47.21875 7.46875 41.1875 3.015625 
Q 35.15625 -1.421875 24.609375 -1.421875 
Q 20.21875 -1.421875 15.453125 -0.5625 
Q 10.6875 0.296875 5.421875 2 
L 5.421875 11.28125 
Q 10.40625 8.6875 15.234375 7.390625 
Q 20.0625 6.109375 24.8125 6.109375 
Q 31.15625 6.109375 34.5625 8.28125 
Q 37.984375 10.453125 37.984375 14.40625 
Q 37.984375 18.0625 35.515625 20.015625 
Q 33.0625 21.96875 24.703125 23.78125 
L 21.578125 24.515625 
Q 13.234375 26.265625 9.515625 29.90625 
Q 5.8125 33.546875 5.8125 39.890625 
Q 5.8125 47.609375 11.28125 51.796875 
Q 16.75 56 26.8125 56 
Q 31.78125 56 36.171875 55.265625 
Q 40.578125 54.546875 44.28125 53.078125 
z
" id="DejaVuSans-73"/>
      <path d="M 34.28125 27.484375 
Q 23.390625 27.484375 19.1875 25 
Q 14.984375 22.515625 14.984375 16.5 
Q 14.984375 11.71875 18.140625 8.90625 
Q 21.296875 6.109375 26.703125 6.109375 
Q 34.1875 6.109375 38.703125 11.40625 
Q 43.21875 16.703125 43.21875 25.484375 
L 43.21875 27.484375 
z
M 52.203125 31.203125 
L 52.203125 0 
L 43.21875 0 
L 43.21875 8.296875 
Q 40.140625 3.328125 35.546875 0.953125 
Q 30.953125 -1.421875 24.3125 -1.421875 
Q 15.921875 -1.421875 10.953125 3.296875 
Q 6 8.015625 6 15.921875 
Q 6 25.140625 12.171875 29.828125 
Q 18.359375 34.515625 30.609375 34.515625 
L 43.21875 34.515625 
L 43.21875 35.40625 
Q 43.21875 41.609375 39.140625 45 
Q 35.0625 48.390625 27.6875 48.390625 
Q 23 48.390625 18.546875 47.265625 
Q 14.109375 46.140625 10.015625 43.890625 
L 10.015625 52.203125 
Q 14.9375 54.109375 19.578125 55.046875 
Q 24.21875 56 28.609375 56 
Q 40.484375 56 46.34375 49.84375 
Q 52.203125 43.703125 52.203125 31.203125 
z
" id="DejaVuSans-61"/>
      <path d="M 9.421875 75.984375 
L 18.40625 75.984375 
L 18.40625 0 
L 9.421875 0 
z
" id="DejaVuSans-6c"/>
     </defs>
     <g transform="translate(32.887188 106.761281)rotate(-90)scale(0.15 -0.15)">
      <use xlink:href="#DejaVuSans-52"/>
      <use x="69.419922" xlink:href="#DejaVuSans-65"/>
      <use x="130.943359" xlink:href="#DejaVuSans-73"/>
      <use x="183.042969" xlink:href="#DejaVuSans-69"/>
      <use x="210.826172" xlink:href="#DejaVuSans-64"/>
      <use x="274.302734" xlink:href="#DejaVuSans-75"/>
      <use x="337.681641" xlink:href="#DejaVuSans-61"/>
      <use x="398.960938" xlink:href="#DejaVuSans-6c"/>
      <use x="426.744141" xlink:href="#DejaVuSans-73"/>
     </g>
    </g>
   </g>
   <g id="LineCollection_1">
    <path clip-path="url(#pd40cf72d42)" d="M 81.92 100.879001 
L 81.92 62.239157 
" style="fill:none;stroke:#0000ff;stroke-width:1.5;"/>
    <path clip-path="url(#pd40cf72d42)" d="M 90.491429 85.877377 
L 90.491429 47.237533 
" style="fill:none;stroke:#0000ff;stroke-width:1.5;"/>
    <path clip-path="url(#pd40cf72d42)" d="M 107.634286 90.245567 
L 107.634286 51.605723 
" style="fill:none;stroke:#0000ff;stroke-width:1.5;"/>
    <path clip-path="url(#pd40cf72d42)" d="M 124.777143 85.904199 
L 124.777143 47.264355 
" style="fill:none;stroke:#0000ff;stroke-width:1.5;"/>
    <path clip-path="url(#pd40cf72d42)" d="M 139.062857 95.278441 
L 139.062857 56.638597 
" style="fill:none;stroke:#0000ff;stroke-width:1.5;"/>
    <path clip-path="url(#pd40cf72d42)" d="M 147.634286 101.101034 
L 147.634286 62.46119 
" style="fill:none;stroke:#0000ff;stroke-width:1.5;"/>
    <path clip-path="url(#pd40cf72d42)" d="M 159.062857 95.645236 
L 159.062857 57.005392 
" style="fill:none;stroke:#0000ff;stroke-width:1.5;"/>
    <path clip-path="url(#pd40cf72d42)" d="M 164.777143 101.629958 
L 164.777143 62.990114 
" style="fill:none;stroke:#0000ff;stroke-width:1.5;"/>
    <path clip-path="url(#pd40cf72d42)" d="M 170.491429 96.179454 
L 170.491429 57.53961 
" style="fill:none;stroke:#0000ff;stroke-width:1.5;"/>
    <path clip-path="url(#pd40cf72d42)" d="M 173.348571 82.957117 
L 173.348571 44.317273 
" style="fill:none;stroke:#0000ff;stroke-width:1.5;"/>
    <path clip-path="url(#pd40cf72d42)" d="M 176.205714 73.062104 
L 176.205714 34.42226 
" style="fill:none;stroke:#0000ff;stroke-width:1.5;"/>
    <path clip-path="url(#pd40cf72d42)" d="M 187.634286 97.904805 
L 187.634286 59.264961 
" style="fill:none;stroke:#0000ff;stroke-width:1.5;"/>
    <path clip-path="url(#pd40cf72d42)" d="M 196.205714 72.138835 
L 196.205714 33.498991 
" style="fill:none;stroke:#0000ff;stroke-width:1.5;"/>
    <path clip-path="url(#pd40cf72d42)" d="M 199.062857 90.156376 
L 199.062857 51.516532 
" style="fill:none;stroke:#0000ff;stroke-width:1.5;"/>
    <path clip-path="url(#pd40cf72d42)" d="M 201.92 90.76169 
L 201.92 52.121846 
" style="fill:none;stroke:#0000ff;stroke-width:1.5;"/>
    <path clip-path="url(#pd40cf72d42)" d="M 204.777143 96.127202 
L 204.777143 57.487358 
" style="fill:none;stroke:#0000ff;stroke-width:1.5;"/>
    <path clip-path="url(#pd40cf72d42)" d="M 207.634286 84.052104 
L 207.634286 45.41226 
" style="fill:none;stroke:#0000ff;stroke-width:1.5;"/>
    <path clip-path="url(#pd40cf72d42)" d="M 210.491429 66.609413 
L 210.491429 27.969568 
" style="fill:none;stroke:#0000ff;stroke-width:1.5;"/>
    <path clip-path="url(#pd40cf72d42)" d="M 216.205714 105.197254 
L 216.205714 66.55741 
" style="fill:none;stroke:#0000ff;stroke-width:1.5;"/>
    <path clip-path="url(#pd40cf72d42)" d="M 219.062857 71.257194 
L 219.062857 32.61735 
" style="fill:none;stroke:#0000ff;stroke-width:1.5;"/>
    <path clip-path="url(#pd40cf72d42)" d="M 221.92 92.250242 
L 221.92 53.610397 
" style="fill:none;stroke:#0000ff;stroke-width:1.5;"/>
    <path clip-path="url(#pd40cf72d42)" d="M 224.777143 93.286394 
L 224.777143 54.64655 
" style="fill:none;stroke:#0000ff;stroke-width:1.5;"/>
    <path clip-path="url(#pd40cf72d42)" d="M 227.634286 94.370126 
L 227.634286 55.730282 
" style="fill:none;stroke:#0000ff;stroke-width:1.5;"/>
    <path clip-path="url(#pd40cf72d42)" d="M 230.491429 80.593221 
L 230.491429 41.953377 
" style="fill:none;stroke:#0000ff;stroke-width:1.5;"/>
    <path clip-path="url(#pd40cf72d42)" d="M 233.348571 112.748746 
L 233.348571 74.108901 
" style="fill:none;stroke:#0000ff;stroke-width:1.5;"/>
    <path clip-path="url(#pd40cf72d42)" d="M 236.205714 114.167922 
L 236.205714 75.528078 
" style="fill:none;stroke:#0000ff;stroke-width:1.5;"/>
    <path clip-path="url(#pd40cf72d42)" d="M 239.062857 103.898755 
L 239.062857 65.258911 
" style="fill:none;stroke:#0000ff;stroke-width:1.5;"/>
    <path clip-path="url(#pd40cf72d42)" d="M 241.92 67.754765 
L 241.92 29.11492 
" style="fill:none;stroke:#0000ff;stroke-width:1.5;"/>
    <path clip-path="url(#pd40cf72d42)" d="M 244.777143 101.471893 
L 244.777143 62.832049 
" style="fill:none;stroke:#0000ff;stroke-width:1.5;"/>
    <path clip-path="url(#pd40cf72d42)" d="M 247.634286 77.354363 
L 247.634286 38.714519 
" style="fill:none;stroke:#0000ff;stroke-width:1.5;"/>
    <path clip-path="url(#pd40cf72d42)" d="M 250.491429 87.642351 
L 250.491429 49.002507 
" style="fill:none;stroke:#0000ff;stroke-width:1.5;"/>
    <path clip-path="url(#pd40cf72d42)" d="M 253.348571 104.966142 
L 253.348571 66.326298 
" style="fill:none;stroke:#0000ff;stroke-width:1.5;"/>
    <path clip-path="url(#pd40cf72d42)" d="M 256.205714 97.070286 
L 256.205714 58.430442 
" style="fill:none;stroke:#0000ff;stroke-width:1.5;"/>
    <path clip-path="url(#pd40cf72d42)" d="M 259.062857 90.365634 
L 259.062857 51.72579 
" style="fill:none;stroke:#0000ff;stroke-width:1.5;"/>
    <path clip-path="url(#pd40cf72d42)" d="M 261.92 107.996571 
L 261.92 69.356727 
" style="fill:none;stroke:#0000ff;stroke-width:1.5;"/>
    <path clip-path="url(#pd40cf72d42)" d="M 264.777143 88.407223 
L 264.777143 49.767379 
" style="fill:none;stroke:#0000ff;stroke-width:1.5;"/>
    <path clip-path="url(#pd40cf72d42)" d="M 267.634286 92.512614 
L 267.634286 53.87277 
" style="fill:none;stroke:#0000ff;stroke-width:1.5;"/>
    <path clip-path="url(#pd40cf72d42)" d="M 270.491429 93.056805 
L 270.491429 54.416961 
" style="fill:none;stroke:#0000ff;stroke-width:1.5;"/>
    <path clip-path="url(#pd40cf72d42)" d="M 273.348571 101.38434 
L 273.348571 62.744496 
" style="fill:none;stroke:#0000ff;stroke-width:1.5;"/>
    <path clip-path="url(#pd40cf72d42)" d="M 276.205714 101.753037 
L 276.205714 63.113193 
" style="fill:none;stroke:#0000ff;stroke-width:1.5;"/>
    <path clip-path="url(#pd40cf72d42)" d="M 279.062857 90.531824 
L 279.062857 51.89198 
" style="fill:none;stroke:#0000ff;stroke-width:1.5;"/>
    <path clip-path="url(#pd40cf72d42)" d="M 281.92 94.196524 
L 281.92 55.556679 
" style="fill:none;stroke:#0000ff;stroke-width:1.5;"/>
    <path clip-path="url(#pd40cf72d42)" d="M 284.777143 66.167922 
L 284.777143 27.528078 
" style="fill:none;stroke:#0000ff;stroke-width:1.5;"/>
    <path clip-path="url(#pd40cf72d42)" d="M 287.634286 81.153852 
L 287.634286 42.514008 
" style="fill:none;stroke:#0000ff;stroke-width:1.5;"/>
    <path clip-path="url(#pd40cf72d42)" d="M 290.491429 80.960089 
L 290.491429 42.320245 
" style="fill:none;stroke:#0000ff;stroke-width:1.5;"/>
    <path clip-path="url(#pd40cf72d42)" d="M 293.348571 105.90081 
L 293.348571 67.260966 
" style="fill:none;stroke:#0000ff;stroke-width:1.5;"/>
    <path clip-path="url(#pd40cf72d42)" d="M 296.205714 77.507223 
L 296.205714 38.867379 
" style="fill:none;stroke:#0000ff;stroke-width:1.5;"/>
    <path clip-path="url(#pd40cf72d42)" d="M 299.062857 89.085833 
L 299.062857 50.445989 
" style="fill:none;stroke:#0000ff;stroke-width:1.5;"/>
    <path clip-path="url(#pd40cf72d42)" d="M 301.92 99.711761 
L 301.92 61.071917 
" style="fill:none;stroke:#0000ff;stroke-width:1.5;"/>
    <path clip-path="url(#pd40cf72d42)" d="M 304.777143 98.945277 
L 304.777143 60.305433 
" style="fill:none;stroke:#0000ff;stroke-width:1.5;"/>
    <path clip-path="url(#pd40cf72d42)" d="M 307.634286 102.41788 
L 307.634286 63.778036 
" style="fill:none;stroke:#0000ff;stroke-width:1.5;"/>
    <path clip-path="url(#pd40cf72d42)" d="M 310.491429 101.458616 
L 310.491429 62.818772 
" style="fill:none;stroke:#0000ff;stroke-width:1.5;"/>
    <path clip-path="url(#pd40cf72d42)" d="M 313.348571 73.722464 
L 313.348571 35.08262 
" style="fill:none;stroke:#0000ff;stroke-width:1.5;"/>
    <path clip-path="url(#pd40cf72d42)" d="M 316.205714 91.322575 
L 316.205714 52.682731 
" style="fill:none;stroke:#0000ff;stroke-width:1.5;"/>
    <path clip-path="url(#pd40cf72d42)" d="M 319.062857 86.7686 
L 319.062857 48.128756 
" style="fill:none;stroke:#0000ff;stroke-width:1.5;"/>
    <path clip-path="url(#pd40cf72d42)" d="M 321.92 89.254324 
L 321.92 50.61448 
" style="fill:none;stroke:#0000ff;stroke-width:1.5;"/>
    <path clip-path="url(#pd40cf72d42)" d="M 327.634286 104.044559 
L 327.634286 65.404715 
" style="fill:none;stroke:#0000ff;stroke-width:1.5;"/>
    <path clip-path="url(#pd40cf72d42)" d="M 330.491429 93.656193 
L 330.491429 55.016349 
" style="fill:none;stroke:#0000ff;stroke-width:1.5;"/>
    <path clip-path="url(#pd40cf72d42)" d="M 333.348571 101.518389 
L 333.348571 62.878545 
" style="fill:none;stroke:#0000ff;stroke-width:1.5;"/>
    <path clip-path="url(#pd40cf72d42)" d="M 336.205714 91.411895 
L 336.205714 52.772051 
" style="fill:none;stroke:#0000ff;stroke-width:1.5;"/>
    <path clip-path="url(#pd40cf72d42)" d="M 339.062857 94.496656 
L 339.062857 55.856812 
" style="fill:none;stroke:#0000ff;stroke-width:1.5;"/>
    <path clip-path="url(#pd40cf72d42)" d="M 341.92 103.048489 
L 341.92 64.408645 
" style="fill:none;stroke:#0000ff;stroke-width:1.5;"/>
    <path clip-path="url(#pd40cf72d42)" d="M 347.634286 74.142188 
L 347.634286 35.502344 
" style="fill:none;stroke:#0000ff;stroke-width:1.5;"/>
    <path clip-path="url(#pd40cf72d42)" d="M 350.491429 90.441181 
L 350.491429 51.801337 
" style="fill:none;stroke:#0000ff;stroke-width:1.5;"/>
    <path clip-path="url(#pd40cf72d42)" d="M 353.348571 98.75143 
L 353.348571 60.111586 
" style="fill:none;stroke:#0000ff;stroke-width:1.5;"/>
    <path clip-path="url(#pd40cf72d42)" d="M 356.205714 97.837753 
L 356.205714 59.197909 
" style="fill:none;stroke:#0000ff;stroke-width:1.5;"/>
    <path clip-path="url(#pd40cf72d42)" d="M 359.062857 92.242008 
L 359.062857 53.602164 
" style="fill:none;stroke:#0000ff;stroke-width:1.5;"/>
    <path clip-path="url(#pd40cf72d42)" d="M 361.92 91.50721 
L 361.92 52.867366 
" style="fill:none;stroke:#0000ff;stroke-width:1.5;"/>
    <path clip-path="url(#pd40cf72d42)" d="M 364.777143 76.138463 
L 364.777143 37.498619 
" style="fill:none;stroke:#0000ff;stroke-width:1.5;"/>
    <path clip-path="url(#pd40cf72d42)" d="M 367.634286 90.222517 
L 367.634286 51.582673 
" style="fill:none;stroke:#0000ff;stroke-width:1.5;"/>
    <path clip-path="url(#pd40cf72d42)" d="M 376.205714 104.366833 
L 376.205714 65.726988 
" style="fill:none;stroke:#0000ff;stroke-width:1.5;"/>
    <path clip-path="url(#pd40cf72d42)" d="M 379.062857 103.881026 
L 379.062857 65.241182 
" style="fill:none;stroke:#0000ff;stroke-width:1.5;"/>
    <path clip-path="url(#pd40cf72d42)" d="M 381.92 103.451139 
L 381.92 64.811295 
" style="fill:none;stroke:#0000ff;stroke-width:1.5;"/>
    <path clip-path="url(#pd40cf72d42)" d="M 401.92 101.646345 
L 401.92 63.006501 
" style="fill:none;stroke:#0000ff;stroke-width:1.5;"/>
   </g>
   <g id="line2d_7">
    <path clip-path="url(#pd40cf72d42)" d="M 81.92 74.251511 
L 401.92 74.251511 
" style="fill:none;stroke:#ff0000;stroke-linecap:square;stroke-width:1.5;"/>
   </g>
   <g id="line2d_8">
    <defs>
     <path d="M -3 0 
L 3 0 
M 0 3 
L 0 -3 
" id="m90e0166708" style="stroke:#0000ff;"/>
    </defs>
    <g clip-path="url(#pd40cf72d42)">
     <use style="fill:#0000ff;stroke:#0000ff;" x="81.92" xlink:href="#m90e0166708" y="81.559079"/>
     <use style="fill:#0000ff;stroke:#0000ff;" x="90.491429" xlink:href="#m90e0166708" y="66.557455"/>
     <use style="fill:#0000ff;stroke:#0000ff;" x="107.634286" xlink:href="#m90e0166708" y="70.925645"/>
     <use style="fill:#0000ff;stroke:#0000ff;" x="124.777143" xlink:href="#m90e0166708" y="66.584277"/>
     <use style="fill:#0000ff;stroke:#0000ff;" x="139.062857" xlink:href="#m90e0166708" y="75.958519"/>
     <use style="fill:#0000ff;stroke:#0000ff;" x="147.634286" xlink:href="#m90e0166708" y="81.781112"/>
     <use style="fill:#0000ff;stroke:#0000ff;" x="159.062857" xlink:href="#m90e0166708" y="76.325314"/>
     <use style="fill:#0000ff;stroke:#0000ff;" x="164.777143" xlink:href="#m90e0166708" y="82.310036"/>
     <use style="fill:#0000ff;stroke:#0000ff;" x="170.491429" xlink:href="#m90e0166708" y="76.859532"/>
     <use style="fill:#0000ff;stroke:#0000ff;" x="173.348571" xlink:href="#m90e0166708" y="63.637195"/>
     <use style="fill:#0000ff;stroke:#0000ff;" x="176.205714" xlink:href="#m90e0166708" y="53.742182"/>
     <use style="fill:#0000ff;stroke:#0000ff;" x="187.634286" xlink:href="#m90e0166708" y="78.584883"/>
     <use style="fill:#0000ff;stroke:#0000ff;" x="196.205714" xlink:href="#m90e0166708" y="52.818913"/>
     <use style="fill:#0000ff;stroke:#0000ff;" x="199.062857" xlink:href="#m90e0166708" y="70.836454"/>
     <use style="fill:#0000ff;stroke:#0000ff;" x="201.92" xlink:href="#m90e0166708" y="71.441768"/>
     <use style="fill:#0000ff;stroke:#0000ff;" x="204.777143" xlink:href="#m90e0166708" y="76.80728"/>
     <use style="fill:#0000ff;stroke:#0000ff;" x="207.634286" xlink:href="#m90e0166708" y="64.732182"/>
     <use style="fill:#0000ff;stroke:#0000ff;" x="210.491429" xlink:href="#m90e0166708" y="47.289491"/>
     <use style="fill:#0000ff;stroke:#0000ff;" x="216.205714" xlink:href="#m90e0166708" y="85.877332"/>
     <use style="fill:#0000ff;stroke:#0000ff;" x="219.062857" xlink:href="#m90e0166708" y="51.937272"/>
     <use style="fill:#0000ff;stroke:#0000ff;" x="221.92" xlink:href="#m90e0166708" y="72.930319"/>
     <use style="fill:#0000ff;stroke:#0000ff;" x="224.777143" xlink:href="#m90e0166708" y="73.966472"/>
     <use style="fill:#0000ff;stroke:#0000ff;" x="227.634286" xlink:href="#m90e0166708" y="75.050204"/>
     <use style="fill:#0000ff;stroke:#0000ff;" x="230.491429" xlink:href="#m90e0166708" y="61.273299"/>
     <use style="fill:#0000ff;stroke:#0000ff;" x="233.348571" xlink:href="#m90e0166708" y="93.428823"/>
     <use style="fill:#0000ff;stroke:#0000ff;" x="236.205714" xlink:href="#m90e0166708" y="94.848"/>
     <use style="fill:#0000ff;stroke:#0000ff;" x="239.062857" xlink:href="#m90e0166708" y="84.578833"/>
     <use style="fill:#0000ff;stroke:#0000ff;" x="241.92" xlink:href="#m90e0166708" y="48.434843"/>
     <use style="fill:#0000ff;stroke:#0000ff;" x="244.777143" xlink:href="#m90e0166708" y="82.151971"/>
     <use style="fill:#0000ff;stroke:#0000ff;" x="247.634286" xlink:href="#m90e0166708" y="58.034441"/>
     <use style="fill:#0000ff;stroke:#0000ff;" x="250.491429" xlink:href="#m90e0166708" y="68.322429"/>
     <use style="fill:#0000ff;stroke:#0000ff;" x="253.348571" xlink:href="#m90e0166708" y="85.64622"/>
     <use style="fill:#0000ff;stroke:#0000ff;" x="256.205714" xlink:href="#m90e0166708" y="77.750364"/>
     <use style="fill:#0000ff;stroke:#0000ff;" x="259.062857" xlink:href="#m90e0166708" y="71.045712"/>
     <use style="fill:#0000ff;stroke:#0000ff;" x="261.92" xlink:href="#m90e0166708" y="88.676649"/>
     <use style="fill:#0000ff;stroke:#0000ff;" x="264.777143" xlink:href="#m90e0166708" y="69.087301"/>
     <use style="fill:#0000ff;stroke:#0000ff;" x="267.634286" xlink:href="#m90e0166708" y="73.192692"/>
     <use style="fill:#0000ff;stroke:#0000ff;" x="270.491429" xlink:href="#m90e0166708" y="73.736883"/>
     <use style="fill:#0000ff;stroke:#0000ff;" x="273.348571" xlink:href="#m90e0166708" y="82.064418"/>
     <use style="fill:#0000ff;stroke:#0000ff;" x="276.205714" xlink:href="#m90e0166708" y="82.433115"/>
     <use style="fill:#0000ff;stroke:#0000ff;" x="279.062857" xlink:href="#m90e0166708" y="71.211902"/>
     <use style="fill:#0000ff;stroke:#0000ff;" x="281.92" xlink:href="#m90e0166708" y="74.876602"/>
     <use style="fill:#0000ff;stroke:#0000ff;" x="284.777143" xlink:href="#m90e0166708" y="46.848"/>
     <use style="fill:#0000ff;stroke:#0000ff;" x="287.634286" xlink:href="#m90e0166708" y="61.83393"/>
     <use style="fill:#0000ff;stroke:#0000ff;" x="290.491429" xlink:href="#m90e0166708" y="61.640167"/>
     <use style="fill:#0000ff;stroke:#0000ff;" x="293.348571" xlink:href="#m90e0166708" y="86.580888"/>
     <use style="fill:#0000ff;stroke:#0000ff;" x="296.205714" xlink:href="#m90e0166708" y="58.187301"/>
     <use style="fill:#0000ff;stroke:#0000ff;" x="299.062857" xlink:href="#m90e0166708" y="69.765911"/>
     <use style="fill:#0000ff;stroke:#0000ff;" x="301.92" xlink:href="#m90e0166708" y="80.391839"/>
     <use style="fill:#0000ff;stroke:#0000ff;" x="304.777143" xlink:href="#m90e0166708" y="79.625355"/>
     <use style="fill:#0000ff;stroke:#0000ff;" x="307.634286" xlink:href="#m90e0166708" y="83.097958"/>
     <use style="fill:#0000ff;stroke:#0000ff;" x="310.491429" xlink:href="#m90e0166708" y="82.138694"/>
     <use style="fill:#0000ff;stroke:#0000ff;" x="313.348571" xlink:href="#m90e0166708" y="54.402542"/>
     <use style="fill:#0000ff;stroke:#0000ff;" x="316.205714" xlink:href="#m90e0166708" y="72.002653"/>
     <use style="fill:#0000ff;stroke:#0000ff;" x="319.062857" xlink:href="#m90e0166708" y="67.448678"/>
     <use style="fill:#0000ff;stroke:#0000ff;" x="321.92" xlink:href="#m90e0166708" y="69.934402"/>
     <use style="fill:#0000ff;stroke:#0000ff;" x="327.634286" xlink:href="#m90e0166708" y="84.724637"/>
     <use style="fill:#0000ff;stroke:#0000ff;" x="330.491429" xlink:href="#m90e0166708" y="74.336271"/>
     <use style="fill:#0000ff;stroke:#0000ff;" x="333.348571" xlink:href="#m90e0166708" y="82.198467"/>
     <use style="fill:#0000ff;stroke:#0000ff;" x="336.205714" xlink:href="#m90e0166708" y="72.091973"/>
     <use style="fill:#0000ff;stroke:#0000ff;" x="339.062857" xlink:href="#m90e0166708" y="75.176734"/>
     <use style="fill:#0000ff;stroke:#0000ff;" x="341.92" xlink:href="#m90e0166708" y="83.728567"/>
     <use style="fill:#0000ff;stroke:#0000ff;" x="347.634286" xlink:href="#m90e0166708" y="54.822266"/>
     <use style="fill:#0000ff;stroke:#0000ff;" x="350.491429" xlink:href="#m90e0166708" y="71.121259"/>
     <use style="fill:#0000ff;stroke:#0000ff;" x="353.348571" xlink:href="#m90e0166708" y="79.431508"/>
     <use style="fill:#0000ff;stroke:#0000ff;" x="356.205714" xlink:href="#m90e0166708" y="78.517831"/>
     <use style="fill:#0000ff;stroke:#0000ff;" x="359.062857" xlink:href="#m90e0166708" y="72.922086"/>
     <use style="fill:#0000ff;stroke:#0000ff;" x="361.92" xlink:href="#m90e0166708" y="72.187288"/>
     <use style="fill:#0000ff;stroke:#0000ff;" x="364.777143" xlink:href="#m90e0166708" y="56.818541"/>
     <use style="fill:#0000ff;stroke:#0000ff;" x="367.634286" xlink:href="#m90e0166708" y="70.902595"/>
     <use style="fill:#0000ff;stroke:#0000ff;" x="376.205714" xlink:href="#m90e0166708" y="85.04691"/>
     <use style="fill:#0000ff;stroke:#0000ff;" x="379.062857" xlink:href="#m90e0166708" y="84.561104"/>
     <use style="fill:#0000ff;stroke:#0000ff;" x="381.92" xlink:href="#m90e0166708" y="84.131217"/>
     <use style="fill:#0000ff;stroke:#0000ff;" x="401.92" xlink:href="#m90e0166708" y="82.326423"/>
    </g>
   </g>
   <g id="patch_3">
    <path d="M 69.12 96.768 
L 69.12 44.928 
" style="fill:none;stroke:#000000;stroke-linecap:square;stroke-linejoin:miter;stroke-width:0.8;"/>
   </g>
   <g id="patch_4">
    <path d="M 414.72 96.768 
L 414.72 44.928 
" style="fill:none;stroke:#000000;stroke-linecap:square;stroke-linejoin:miter;stroke-width:0.8;"/>
   </g>
   <g id="patch_5">
    <path d="M 69.12 96.768 
L 414.72 96.768 
" style="fill:none;stroke:#000000;stroke-linecap:square;stroke-linejoin:miter;stroke-width:0.8;"/>
   </g>
   <g id="patch_6">
    <path d="M 69.12 44.928 
L 414.72 44.928 
" style="fill:none;stroke:#000000;stroke-linecap:square;stroke-linejoin:miter;stroke-width:0.8;"/>
   </g>
   <g id="text_4">
    <!-- Function (0/0): y = a*exp(-(x-x0)**2/w**2)+b -->
    <defs>
     <path d="M 9.8125 72.90625 
L 51.703125 72.90625 
L 51.703125 64.59375 
L 19.671875 64.59375 
L 19.671875 43.109375 
L 48.578125 43.109375 
L 48.578125 34.8125 
L 19.671875 34.8125 
L 19.671875 0 
L 9.8125 0 
z
" id="DejaVuSans-46"/>
     <path d="M 48.78125 52.59375 
L 48.78125 44.1875 
Q 44.96875 46.296875 41.140625 47.34375 
Q 37.3125 48.390625 33.40625 48.390625 
Q 24.65625 48.390625 19.8125 42.84375 
Q 14.984375 37.3125 14.984375 27.296875 
Q 14.984375 17.28125 19.8125 11.734375 
Q 24.65625 6.203125 33.40625 6.203125 
Q 37.3125 6.203125 41.140625 7.25 
Q 44.96875 8.296875 48.78125 10.40625 
L 48.78125 2.09375 
Q 45.015625 0.34375 40.984375 -0.53125 
Q 36.96875 -1.421875 32.421875 -1.421875 
Q 20.0625 -1.421875 12.78125 6.34375 
Q 5.515625 14.109375 5.515625 27.296875 
Q 5.515625 40.671875 12.859375 48.328125 
Q 20.21875 56 33.015625 56 
Q 37.15625 56 41.109375 55.140625 
Q 45.0625 54.296875 48.78125 52.59375 
z
" id="DejaVuSans-63"/>
     <path d="M 30.609375 48.390625 
Q 23.390625 48.390625 19.1875 42.75 
Q 14.984375 37.109375 14.984375 27.296875 
Q 14.984375 17.484375 19.15625 11.84375 
Q 23.34375 6.203125 30.609375 6.203125 
Q 37.796875 6.203125 41.984375 11.859375 
Q 46.1875 17.53125 46.1875 27.296875 
Q 46.1875 37.015625 41.984375 42.703125 
Q 37.796875 48.390625 30.609375 48.390625 
z
M 30.609375 56 
Q 42.328125 56 49.015625 48.375 
Q 55.71875 40.765625 55.71875 27.296875 
Q 55.71875 13.875 49.015625 6.21875 
Q 42.328125 -1.421875 30.609375 -1.421875 
Q 18.84375 -1.421875 12.171875 6.21875 
Q 5.515625 13.875 5.515625 27.296875 
Q 5.515625 40.765625 12.171875 48.375 
Q 18.84375 56 30.609375 56 
z
" id="DejaVuSans-6f"/>
     <path id="DejaVuSans-20"/>
     <path d="M 31 75.875 
Q 24.46875 64.65625 21.28125 53.65625 
Q 18.109375 42.671875 18.109375 31.390625 
Q 18.109375 20.125 21.3125 9.0625 
Q 24.515625 -2 31 -13.1875 
L 23.1875 -13.1875 
Q 15.875 -1.703125 12.234375 9.375 
Q 8.59375 20.453125 8.59375 31.390625 
Q 8.59375 42.28125 12.203125 53.3125 
Q 15.828125 64.359375 23.1875 75.875 
z
" id="DejaVuSans-28"/>
     <path d="M 31.78125 66.40625 
Q 24.171875 66.40625 20.328125 58.90625 
Q 16.5 51.421875 16.5 36.375 
Q 16.5 21.390625 20.328125 13.890625 
Q 24.171875 6.390625 31.78125 6.390625 
Q 39.453125 6.390625 43.28125 13.890625 
Q 47.125 21.390625 47.125 36.375 
Q 47.125 51.421875 43.28125 58.90625 
Q 39.453125 66.40625 31.78125 66.40625 
z
M 31.78125 74.21875 
Q 44.046875 74.21875 50.515625 64.515625 
Q 56.984375 54.828125 56.984375 36.375 
Q 56.984375 17.96875 50.515625 8.265625 
Q 44.046875 -1.421875 31.78125 -1.421875 
Q 19.53125 -1.421875 13.0625 8.265625 
Q 6.59375 17.96875 6.59375 36.375 
Q 6.59375 54.828125 13.0625 64.515625 
Q 19.53125 74.21875 31.78125 74.21875 
z
" id="DejaVuSans-30"/>
     <path d="M 25.390625 72.90625 
L 33.6875 72.90625 
L 8.296875 -9.28125 
L 0 -9.28125 
z
" id="DejaVuSans-2f"/>
     <path d="M 8.015625 75.875 
L 15.828125 75.875 
Q 23.140625 64.359375 26.78125 53.3125 
Q 30.421875 42.28125 30.421875 31.390625 
Q 30.421875 20.453125 26.78125 9.375 
Q 23.140625 -1.703125 15.828125 -13.1875 
L 8.015625 -13.1875 
Q 14.5 -2 17.703125 9.0625 
Q 20.90625 20.125 20.90625 31.390625 
Q 20.90625 42.671875 17.703125 53.65625 
Q 14.5 64.65625 8.015625 75.875 
z
" id="DejaVuSans-29"/>
     <path d="M 11.71875 12.40625 
L 22.015625 12.40625 
L 22.015625 0 
L 11.71875 0 
z
M 11.71875 51.703125 
L 22.015625 51.703125 
L 22.015625 39.3125 
L 11.71875 39.3125 
z
" id="DejaVuSans-3a"/>
     <path d="M 32.171875 -5.078125 
Q 28.375 -14.84375 24.75 -17.8125 
Q 21.140625 -20.796875 15.09375 -20.796875 
L 7.90625 -20.796875 
L 7.90625 -13.28125 
L 13.1875 -13.28125 
Q 16.890625 -13.28125 18.9375 -11.515625 
Q 21 -9.765625 23.484375 -3.21875 
L 25.09375 0.875 
L 2.984375 54.6875 
L 12.5 54.6875 
L 29.59375 11.921875 
L 46.6875 54.6875 
L 56.203125 54.6875 
z
" id="DejaVuSans-79"/>
     <path d="M 10.59375 45.40625 
L 73.1875 45.40625 
L 73.1875 37.203125 
L 10.59375 37.203125 
z
M 10.59375 25.484375 
L 73.1875 25.484375 
L 73.1875 17.1875 
L 10.59375 17.1875 
z
" id="DejaVuSans-3d"/>
     <path d="M 47.015625 60.890625 
L 29.5 51.421875 
L 47.015625 41.890625 
L 44.1875 37.109375 
L 27.78125 47.015625 
L 27.78125 28.609375 
L 22.21875 28.609375 
L 22.21875 47.015625 
L 5.8125 37.109375 
L 2.984375 41.890625 
L 20.515625 51.421875 
L 2.984375 60.890625 
L 5.8125 65.71875 
L 22.21875 55.8125 
L 22.21875 74.21875 
L 27.78125 74.21875 
L 27.78125 55.8125 
L 44.1875 65.71875 
z
" id="DejaVuSans-2a"/>
     <path d="M 54.890625 54.6875 
L 35.109375 28.078125 
L 55.90625 0 
L 45.3125 0 
L 29.390625 21.484375 
L 13.484375 0 
L 2.875 0 
L 24.125 28.609375 
L 4.6875 54.6875 
L 15.28125 54.6875 
L 29.78125 35.203125 
L 44.28125 54.6875 
z
" id="DejaVuSans-78"/>
     <path d="M 18.109375 8.203125 
L 18.109375 -20.796875 
L 9.078125 -20.796875 
L 9.078125 54.6875 
L 18.109375 54.6875 
L 18.109375 46.390625 
Q 20.953125 51.265625 25.265625 53.625 
Q 29.59375 56 35.59375 56 
Q 45.5625 56 51.78125 48.09375 
Q 58.015625 40.1875 58.015625 27.296875 
Q 58.015625 14.40625 51.78125 6.484375 
Q 45.5625 -1.421875 35.59375 -1.421875 
Q 29.59375 -1.421875 25.265625 0.953125 
Q 20.953125 3.328125 18.109375 8.203125 
z
M 48.6875 27.296875 
Q 48.6875 37.203125 44.609375 42.84375 
Q 40.53125 48.484375 33.40625 48.484375 
Q 26.265625 48.484375 22.1875 42.84375 
Q 18.109375 37.203125 18.109375 27.296875 
Q 18.109375 17.390625 22.1875 11.75 
Q 26.265625 6.109375 33.40625 6.109375 
Q 40.53125 6.109375 44.609375 11.75 
Q 48.6875 17.390625 48.6875 27.296875 
z
" id="DejaVuSans-70"/>
     <path d="M 4.890625 31.390625 
L 31.203125 31.390625 
L 31.203125 23.390625 
L 4.890625 23.390625 
z
" id="DejaVuSans-2d"/>
     <path d="M 19.1875 8.296875 
L 53.609375 8.296875 
L 53.609375 0 
L 7.328125 0 
L 7.328125 8.296875 
Q 12.9375 14.109375 22.625 23.890625 
Q 32.328125 33.6875 34.8125 36.53125 
Q 39.546875 41.84375 41.421875 45.53125 
Q 43.3125 49.21875 43.3125 52.78125 
Q 43.3125 58.59375 39.234375 62.25 
Q 35.15625 65.921875 28.609375 65.921875 
Q 23.96875 65.921875 18.8125 64.3125 
Q 13.671875 62.703125 7.8125 59.421875 
L 7.8125 69.390625 
Q 13.765625 71.78125 18.9375 73 
Q 24.125 74.21875 28.421875 74.21875 
Q 39.75 74.21875 46.484375 68.546875 
Q 53.21875 62.890625 53.21875 53.421875 
Q 53.21875 48.921875 51.53125 44.890625 
Q 49.859375 40.875 45.40625 35.40625 
Q 44.1875 33.984375 37.640625 27.21875 
Q 31.109375 20.453125 19.1875 8.296875 
z
" id="DejaVuSans-32"/>
     <path d="M 4.203125 54.6875 
L 13.1875 54.6875 
L 24.421875 12.015625 
L 35.59375 54.6875 
L 46.1875 54.6875 
L 57.421875 12.015625 
L 68.609375 54.6875 
L 77.59375 54.6875 
L 63.28125 0 
L 52.6875 0 
L 40.921875 44.828125 
L 29.109375 0 
L 18.5 0 
z
" id="DejaVuSans-77"/>
     <path d="M 46 62.703125 
L 46 35.5 
L 73.1875 35.5 
L 73.1875 27.203125 
L 46 27.203125 
L 46 0 
L 37.796875 0 
L 37.796875 27.203125 
L 10.59375 27.203125 
L 10.59375 35.5 
L 37.796875 35.5 
L 37.796875 62.703125 
z
" id="DejaVuSans-2b"/>
     <path d="M 48.6875 27.296875 
Q 48.6875 37.203125 44.609375 42.84375 
Q 40.53125 48.484375 33.40625 48.484375 
Q 26.265625 48.484375 22.1875 42.84375 
Q 18.109375 37.203125 18.109375 27.296875 
Q 18.109375 17.390625 22.1875 11.75 
Q 26.265625 6.109375 33.40625 6.109375 
Q 40.53125 6.109375 44.609375 11.75 
Q 48.6875 17.390625 48.6875 27.296875 
z
M 18.109375 46.390625 
Q 20.953125 51.265625 25.265625 53.625 
Q 29.59375 56 35.59375 56 
Q 45.5625 56 51.78125 48.09375 
Q 58.015625 40.1875 58.015625 27.296875 
Q 58.015625 14.40625 51.78125 6.484375 
Q 45.5625 -1.421875 35.59375 -1.421875 
Q 29.59375 -1.421875 25.265625 0.953125 
Q 20.953125 3.328125 18.109375 8.203125 
L 18.109375 0 
L 9.078125 0 
L 9.078125 75.984375 
L 18.109375 75.984375 
z
" id="DejaVuSans-62"/>
    </defs>
    <g transform="translate(69.12 27.730187)scale(0.1 -0.1)">
     <use xlink:href="#DejaVuSans-46"/>
     <use x="57.441406" xlink:href="#DejaVuSans-75"/>
     <use x="120.820312" xlink:href="#DejaVuSans-6e"/>
     <use x="184.199219" xlink:href="#DejaVuSans-63"/>
     <use x="239.179688" xlink:href="#DejaVuSans-74"/>
     <use x="278.388672" xlink:href="#DejaVuSans-69"/>
     <use x="306.171875" xlink:href="#DejaVuSans-6f"/>
     <use x="367.353516" xlink:href="#DejaVuSans-6e"/>
     <use x="430.732422" xlink:href="#DejaVuSans-20"/>
     <use x="462.519531" xlink:href="#DejaVuSans-28"/>
     <use x="501.533203" xlink:href="#DejaVuSans-30"/>
     <use x="565.15625" xlink:href="#DejaVuSans-2f"/>
     <use x="598.847656" xlink:href="#DejaVuSans-30"/>
     <use x="662.470703" xlink:href="#DejaVuSans-29"/>
     <use x="701.484375" xlink:href="#DejaVuSans-3a"/>
     <use x="735.175781" xlink:href="#DejaVuSans-20"/>
     <use x="766.962891" xlink:href="#DejaVuSans-79"/>
     <use x="826.142578" xlink:href="#DejaVuSans-20"/>
     <use x="857.929688" xlink:href="#DejaVuSans-3d"/>
     <use x="941.71875" xlink:href="#DejaVuSans-20"/>
     <use x="973.505859" xlink:href="#DejaVuSans-61"/>
     <use x="1034.785156" xlink:href="#DejaVuSans-2a"/>
     <use x="1084.785156" xlink:href="#DejaVuSans-65"/>
     <use x="1146.292969" xlink:href="#DejaVuSans-78"/>
     <use x="1205.472656" xlink:href="#DejaVuSans-70"/>
     <use x="1268.949219" xlink:href="#DejaVuSans-28"/>
     <use x="1307.962891" xlink:href="#DejaVuSans-2d"/>
     <use x="1344.046875" xlink:href="#DejaVuSans-28"/>
     <use x="1383.060547" xlink:href="#DejaVuSans-78"/>
     <use x="1442.240234" xlink:href="#DejaVuSans-2d"/>
     <use x="1478.324219" xlink:href="#DejaVuSans-78"/>
     <use x="1537.503906" xlink:href="#DejaVuSans-30"/>
     <use x="1601.126953" xlink:href="#DejaVuSans-29"/>
     <use x="1640.140625" xlink:href="#DejaVuSans-2a"/>
     <use x="1690.140625" xlink:href="#DejaVuSans-2a"/>
     <use x="1740.140625" xlink:href="#DejaVuSans-32"/>
     <use x="1803.763672" xlink:href="#DejaVuSans-2f"/>
     <use x="1837.455078" xlink:href="#DejaVuSans-77"/>
     <use x="1919.242188" xlink:href="#DejaVuSans-2a"/>
     <use x="1969.242188" xlink:href="#DejaVuSans-2a"/>
     <use x="2019.242188" xlink:href="#DejaVuSans-32"/>
     <use x="2082.865234" xlink:href="#DejaVuSans-29"/>
     <use x="2121.878906" xlink:href="#DejaVuSans-2b"/>
     <use x="2205.667969" xlink:href="#DejaVuSans-62"/>
    </g>
    <!-- Fit: a=3.43$\pm$0.76, b=3.66$\pm$0.57, x0=4.294$\pm$0.017, w=0.125$\pm$0.036, -->
    <defs>
     <path d="M 40.578125 39.3125 
Q 47.65625 37.796875 51.625 33 
Q 55.609375 28.21875 55.609375 21.1875 
Q 55.609375 10.40625 48.1875 4.484375 
Q 40.765625 -1.421875 27.09375 -1.421875 
Q 22.515625 -1.421875 17.65625 -0.515625 
Q 12.796875 0.390625 7.625 2.203125 
L 7.625 11.71875 
Q 11.71875 9.328125 16.59375 8.109375 
Q 21.484375 6.890625 26.8125 6.890625 
Q 36.078125 6.890625 40.9375 10.546875 
Q 45.796875 14.203125 45.796875 21.1875 
Q 45.796875 27.640625 41.28125 31.265625 
Q 36.765625 34.90625 28.71875 34.90625 
L 20.21875 34.90625 
L 20.21875 43.015625 
L 29.109375 43.015625 
Q 36.375 43.015625 40.234375 45.921875 
Q 44.09375 48.828125 44.09375 54.296875 
Q 44.09375 59.90625 40.109375 62.90625 
Q 36.140625 65.921875 28.71875 65.921875 
Q 24.65625 65.921875 20.015625 65.03125 
Q 15.375 64.15625 9.8125 62.3125 
L 9.8125 71.09375 
Q 15.4375 72.65625 20.34375 73.4375 
Q 25.25 74.21875 29.59375 74.21875 
Q 40.828125 74.21875 47.359375 69.109375 
Q 53.90625 64.015625 53.90625 55.328125 
Q 53.90625 49.265625 50.4375 45.09375 
Q 46.96875 40.921875 40.578125 39.3125 
z
" id="DejaVuSans-33"/>
     <path d="M 10.6875 12.40625 
L 21 12.40625 
L 21 0 
L 10.6875 0 
z
" id="DejaVuSans-2e"/>
     <path d="M 37.796875 64.3125 
L 12.890625 25.390625 
L 37.796875 25.390625 
z
M 35.203125 72.90625 
L 47.609375 72.90625 
L 47.609375 25.390625 
L 58.015625 25.390625 
L 58.015625 17.1875 
L 47.609375 17.1875 
L 47.609375 0 
L 37.796875 0 
L 37.796875 17.1875 
L 4.890625 17.1875 
L 4.890625 26.703125 
z
" id="DejaVuSans-34"/>
     <path d="M 46 62.703125 
L 46 43.796875 
L 73.1875 43.796875 
L 73.1875 35.5 
L 46 35.5 
L 46 16.609375 
L 37.796875 16.609375 
L 37.796875 35.5 
L 10.59375 35.5 
L 10.59375 43.796875 
L 37.796875 43.796875 
L 37.796875 62.703125 
z
M 10.59375 8.296875 
L 73.1875 8.296875 
L 73.1875 0 
L 10.59375 0 
z
" id="DejaVuSans-b1"/>
     <path d="M 8.203125 72.90625 
L 55.078125 72.90625 
L 55.078125 68.703125 
L 28.609375 0 
L 18.3125 0 
L 43.21875 64.59375 
L 8.203125 64.59375 
z
" id="DejaVuSans-37"/>
     <path d="M 33.015625 40.375 
Q 26.375 40.375 22.484375 35.828125 
Q 18.609375 31.296875 18.609375 23.390625 
Q 18.609375 15.53125 22.484375 10.953125 
Q 26.375 6.390625 33.015625 6.390625 
Q 39.65625 6.390625 43.53125 10.953125 
Q 47.40625 15.53125 47.40625 23.390625 
Q 47.40625 31.296875 43.53125 35.828125 
Q 39.65625 40.375 33.015625 40.375 
z
M 52.59375 71.296875 
L 52.59375 62.3125 
Q 48.875 64.0625 45.09375 64.984375 
Q 41.3125 65.921875 37.59375 65.921875 
Q 27.828125 65.921875 22.671875 59.328125 
Q 17.53125 52.734375 16.796875 39.40625 
Q 19.671875 43.65625 24.015625 45.921875 
Q 28.375 48.1875 33.59375 48.1875 
Q 44.578125 48.1875 50.953125 41.515625 
Q 57.328125 34.859375 57.328125 23.390625 
Q 57.328125 12.15625 50.6875 5.359375 
Q 44.046875 -1.421875 33.015625 -1.421875 
Q 20.359375 -1.421875 13.671875 8.265625 
Q 6.984375 17.96875 6.984375 36.375 
Q 6.984375 53.65625 15.1875 63.9375 
Q 23.390625 74.21875 37.203125 74.21875 
Q 40.921875 74.21875 44.703125 73.484375 
Q 48.484375 72.75 52.59375 71.296875 
z
" id="DejaVuSans-36"/>
     <path d="M 11.71875 12.40625 
L 22.015625 12.40625 
L 22.015625 4 
L 14.015625 -11.625 
L 7.71875 -11.625 
L 11.71875 4 
z
" id="DejaVuSans-2c"/>
     <path d="M 10.796875 72.90625 
L 49.515625 72.90625 
L 49.515625 64.59375 
L 19.828125 64.59375 
L 19.828125 46.734375 
Q 21.96875 47.46875 24.109375 47.828125 
Q 26.265625 48.1875 28.421875 48.1875 
Q 40.625 48.1875 47.75 41.5 
Q 54.890625 34.8125 54.890625 23.390625 
Q 54.890625 11.625 47.5625 5.09375 
Q 40.234375 -1.421875 26.90625 -1.421875 
Q 22.3125 -1.421875 17.546875 -0.640625 
Q 12.796875 0.140625 7.71875 1.703125 
L 7.71875 11.625 
Q 12.109375 9.234375 16.796875 8.0625 
Q 21.484375 6.890625 26.703125 6.890625 
Q 35.15625 6.890625 40.078125 11.328125 
Q 45.015625 15.765625 45.015625 23.390625 
Q 45.015625 31 40.078125 35.4375 
Q 35.15625 39.890625 26.703125 39.890625 
Q 22.75 39.890625 18.8125 39.015625 
Q 14.890625 38.140625 10.796875 36.28125 
z
" id="DejaVuSans-35"/>
     <path d="M 10.984375 1.515625 
L 10.984375 10.5 
Q 14.703125 8.734375 18.5 7.8125 
Q 22.3125 6.890625 25.984375 6.890625 
Q 35.75 6.890625 40.890625 13.453125 
Q 46.046875 20.015625 46.78125 33.40625 
Q 43.953125 29.203125 39.59375 26.953125 
Q 35.25 24.703125 29.984375 24.703125 
Q 19.046875 24.703125 12.671875 31.3125 
Q 6.296875 37.9375 6.296875 49.421875 
Q 6.296875 60.640625 12.9375 67.421875 
Q 19.578125 74.21875 30.609375 74.21875 
Q 43.265625 74.21875 49.921875 64.515625 
Q 56.59375 54.828125 56.59375 36.375 
Q 56.59375 19.140625 48.40625 8.859375 
Q 40.234375 -1.421875 26.421875 -1.421875 
Q 22.703125 -1.421875 18.890625 -0.6875 
Q 15.09375 0.046875 10.984375 1.515625 
z
M 30.609375 32.421875 
Q 37.25 32.421875 41.125 36.953125 
Q 45.015625 41.5 45.015625 49.421875 
Q 45.015625 57.28125 41.125 61.84375 
Q 37.25 66.40625 30.609375 66.40625 
Q 23.96875 66.40625 20.09375 61.84375 
Q 16.21875 57.28125 16.21875 49.421875 
Q 16.21875 41.5 20.09375 36.953125 
Q 23.96875 32.421875 30.609375 32.421875 
z
" id="DejaVuSans-39"/>
    </defs>
    <g transform="translate(69.12 38.928)scale(0.1 -0.1)">
     <use transform="translate(0 0.015625)" xlink:href="#DejaVuSans-46"/>
     <use transform="translate(57.519531 0.015625)" xlink:href="#DejaVuSans-69"/>
     <use transform="translate(85.302734 0.015625)" xlink:href="#DejaVuSans-74"/>
     <use transform="translate(124.511719 0.015625)" xlink:href="#DejaVuSans-3a"/>
     <use transform="translate(158.203125 0.015625)" xlink:href="#DejaVuSans-20"/>
     <use transform="translate(189.990234 0.015625)" xlink:href="#DejaVuSans-61"/>
     <use transform="translate(251.269531 0.015625)" xlink:href="#DejaVuSans-3d"/>
     <use transform="translate(335.058594 0.015625)" xlink:href="#DejaVuSans-33"/>
     <use transform="translate(398.681641 0.015625)" xlink:href="#DejaVuSans-2e"/>
     <use transform="translate(430.46875 0.015625)" xlink:href="#DejaVuSans-34"/>
     <use transform="translate(494.091797 0.015625)" xlink:href="#DejaVuSans-33"/>
     <use transform="translate(557.714844 0.015625)" xlink:href="#DejaVuSans-b1"/>
     <use transform="translate(641.503906 0.015625)" xlink:href="#DejaVuSans-30"/>
     <use transform="translate(705.126953 0.015625)" xlink:href="#DejaVuSans-2e"/>
     <use transform="translate(736.804688 0.015625)" xlink:href="#DejaVuSans-37"/>
     <use transform="translate(800.427734 0.015625)" xlink:href="#DejaVuSans-36"/>
     <use transform="translate(864.050781 0.015625)" xlink:href="#DejaVuSans-2c"/>
     <use transform="translate(895.837891 0.015625)" xlink:href="#DejaVuSans-20"/>
     <use transform="translate(927.625 0.015625)" xlink:href="#DejaVuSans-62"/>
     <use transform="translate(991.101562 0.015625)" xlink:href="#DejaVuSans-3d"/>
     <use transform="translate(1074.890625 0.015625)" xlink:href="#DejaVuSans-33"/>
     <use transform="translate(1138.513672 0.015625)" xlink:href="#DejaVuSans-2e"/>
     <use transform="translate(1170.300781 0.015625)" xlink:href="#DejaVuSans-36"/>
     <use transform="translate(1233.923828 0.015625)" xlink:href="#DejaVuSans-36"/>
     <use transform="translate(1297.546875 0.015625)" xlink:href="#DejaVuSans-b1"/>
     <use transform="translate(1381.335938 0.015625)" xlink:href="#DejaVuSans-30"/>
     <use transform="translate(1444.958984 0.015625)" xlink:href="#DejaVuSans-2e"/>
     <use transform="translate(1476.746094 0.015625)" xlink:href="#DejaVuSans-35"/>
     <use transform="translate(1540.259766 0.015625)" xlink:href="#DejaVuSans-37"/>
     <use transform="translate(1603.882812 0.015625)" xlink:href="#DejaVuSans-2c"/>
     <use transform="translate(1635.669922 0.015625)" xlink:href="#DejaVuSans-20"/>
     <use transform="translate(1667.457031 0.015625)" xlink:href="#DejaVuSans-78"/>
     <use transform="translate(1726.636719 0.015625)" xlink:href="#DejaVuSans-30"/>
     <use transform="translate(1790.259766 0.015625)" xlink:href="#DejaVuSans-3d"/>
     <use transform="translate(1874.048828 0.015625)" xlink:href="#DejaVuSans-34"/>
     <use transform="translate(1937.671875 0.015625)" xlink:href="#DejaVuSans-2e"/>
     <use transform="translate(1969.380859 0.015625)" xlink:href="#DejaVuSans-32"/>
     <use transform="translate(2032.988281 0.015625)" xlink:href="#DejaVuSans-39"/>
     <use transform="translate(2096.611328 0.015625)" xlink:href="#DejaVuSans-34"/>
     <use transform="translate(2160.234375 0.015625)" xlink:href="#DejaVuSans-b1"/>
     <use transform="translate(2244.023438 0.015625)" xlink:href="#DejaVuSans-30"/>
     <use transform="translate(2307.646484 0.015625)" xlink:href="#DejaVuSans-2e"/>
     <use transform="translate(2339.433594 0.015625)" xlink:href="#DejaVuSans-30"/>
     <use transform="translate(2403.056641 0.015625)" xlink:href="#DejaVuSans-31"/>
     <use transform="translate(2466.679688 0.015625)" xlink:href="#DejaVuSans-37"/>
     <use transform="translate(2530.302734 0.015625)" xlink:href="#DejaVuSans-2c"/>
     <use transform="translate(2562.089844 0.015625)" xlink:href="#DejaVuSans-20"/>
     <use transform="translate(2593.876953 0.015625)" xlink:href="#DejaVuSans-77"/>
     <use transform="translate(2675.664062 0.015625)" xlink:href="#DejaVuSans-3d"/>
     <use transform="translate(2759.453125 0.015625)" xlink:href="#DejaVuSans-30"/>
     <use transform="translate(2823.076172 0.015625)" xlink:href="#DejaVuSans-2e"/>
     <use transform="translate(2854.863281 0.015625)" xlink:href="#DejaVuSans-31"/>
     <use transform="translate(2918.486328 0.015625)" xlink:href="#DejaVuSans-32"/>
     <use transform="translate(2982.109375 0.015625)" xlink:href="#DejaVuSans-35"/>
     <use transform="translate(3045.732422 0.015625)" xlink:href="#DejaVuSans-b1"/>
     <use transform="translate(3129.521484 0.015625)" xlink:href="#DejaVuSans-30"/>
     <use transform="translate(3193.144531 0.015625)" xlink:href="#DejaVuSans-2e"/>
     <use transform="translate(3224.931641 0.015625)" xlink:href="#DejaVuSans-30"/>
     <use transform="translate(3288.554688 0.015625)" xlink:href="#DejaVuSans-33"/>
     <use transform="translate(3352.177734 0.015625)" xlink:href="#DejaVuSans-36"/>
     <use transform="translate(3415.800781 0.015625)" xlink:href="#DejaVuSans-2c"/>
    </g>
   </g>
  </g>
  <g id="axes_2">
   <g id="patch_7">
    <path d="M 69.12 311.04 
L 414.72 311.04 
L 414.72 103.68 
L 69.12 103.68 
z
" style="fill:#ffffff;"/>
   </g>
   <g id="matplotlib.axis_3">
    <g id="xtick_4">
     <g id="line2d_9">
      <g>
       <use style="stroke:#000000;stroke-width:0.8;" x="142.402213" xlink:href="#ma3dc672525" y="311.04"/>
      </g>
     </g>
     <g id="text_5">
      <!-- 4.0 -->
      <g transform="translate(130.474869 329.437656)scale(0.15 -0.15)">
       <use xlink:href="#DejaVuSans-34"/>
       <use x="63.623047" xlink:href="#DejaVuSans-2e"/>
       <use x="95.410156" xlink:href="#DejaVuSans-30"/>
      </g>
     </g>
    </g>
    <g id="xtick_5">
     <g id="line2d_10">
      <g>
       <use style="stroke:#000000;stroke-width:0.8;" x="238.460181" xlink:href="#ma3dc672525" y="311.04"/>
      </g>
     </g>
     <g id="text_6">
      <!-- 4.2 -->
      <g transform="translate(226.532837 329.437656)scale(0.15 -0.15)">
       <use xlink:href="#DejaVuSans-34"/>
       <use x="63.623047" xlink:href="#DejaVuSans-2e"/>
       <use x="95.410156" xlink:href="#DejaVuSans-32"/>
      </g>
     </g>
    </g>
    <g id="xtick_6">
     <g id="line2d_11">
      <g>
       <use style="stroke:#000000;stroke-width:0.8;" x="334.518148" xlink:href="#ma3dc672525" y="311.04"/>
      </g>
     </g>
     <g id="text_7">
      <!-- 4.4 -->
      <g transform="translate(322.590805 329.437656)scale(0.15 -0.15)">
       <use xlink:href="#DejaVuSans-34"/>
       <use x="63.623047" xlink:href="#DejaVuSans-2e"/>
       <use x="95.410156" xlink:href="#DejaVuSans-34"/>
      </g>
     </g>
    </g>
    <g id="text_8">
     <!-- Energy [MeV] -->
     <defs>
      <path d="M 9.8125 72.90625 
L 55.90625 72.90625 
L 55.90625 64.59375 
L 19.671875 64.59375 
L 19.671875 43.015625 
L 54.390625 43.015625 
L 54.390625 34.71875 
L 19.671875 34.71875 
L 19.671875 8.296875 
L 56.78125 8.296875 
L 56.78125 0 
L 9.8125 0 
z
" id="DejaVuSans-45"/>
      <path d="M 41.109375 46.296875 
Q 39.59375 47.171875 37.8125 47.578125 
Q 36.03125 48 33.890625 48 
Q 26.265625 48 22.1875 43.046875 
Q 18.109375 38.09375 18.109375 28.8125 
L 18.109375 0 
L 9.078125 0 
L 9.078125 54.6875 
L 18.109375 54.6875 
L 18.109375 46.1875 
Q 20.953125 51.171875 25.484375 53.578125 
Q 30.03125 56 36.53125 56 
Q 37.453125 56 38.578125 55.875 
Q 39.703125 55.765625 41.0625 55.515625 
z
" id="DejaVuSans-72"/>
      <path d="M 45.40625 27.984375 
Q 45.40625 37.75 41.375 43.109375 
Q 37.359375 48.484375 30.078125 48.484375 
Q 22.859375 48.484375 18.828125 43.109375 
Q 14.796875 37.75 14.796875 27.984375 
Q 14.796875 18.265625 18.828125 12.890625 
Q 22.859375 7.515625 30.078125 7.515625 
Q 37.359375 7.515625 41.375 12.890625 
Q 45.40625 18.265625 45.40625 27.984375 
z
M 54.390625 6.78125 
Q 54.390625 -7.171875 48.1875 -13.984375 
Q 42 -20.796875 29.203125 -20.796875 
Q 24.46875 -20.796875 20.265625 -20.09375 
Q 16.0625 -19.390625 12.109375 -17.921875 
L 12.109375 -9.1875 
Q 16.0625 -11.328125 19.921875 -12.34375 
Q 23.78125 -13.375 27.78125 -13.375 
Q 36.625 -13.375 41.015625 -8.765625 
Q 45.40625 -4.15625 45.40625 5.171875 
L 45.40625 9.625 
Q 42.625 4.78125 38.28125 2.390625 
Q 33.9375 0 27.875 0 
Q 17.828125 0 11.671875 7.65625 
Q 5.515625 15.328125 5.515625 27.984375 
Q 5.515625 40.671875 11.671875 48.328125 
Q 17.828125 56 27.875 56 
Q 33.9375 56 38.28125 53.609375 
Q 42.625 51.21875 45.40625 46.390625 
L 45.40625 54.6875 
L 54.390625 54.6875 
z
" id="DejaVuSans-67"/>
      <path d="M 8.59375 75.984375 
L 29.296875 75.984375 
L 29.296875 69 
L 17.578125 69 
L 17.578125 -6.203125 
L 29.296875 -6.203125 
L 29.296875 -13.1875 
L 8.59375 -13.1875 
z
" id="DejaVuSans-5b"/>
      <path d="M 9.8125 72.90625 
L 24.515625 72.90625 
L 43.109375 23.296875 
L 61.8125 72.90625 
L 76.515625 72.90625 
L 76.515625 0 
L 66.890625 0 
L 66.890625 64.015625 
L 48.09375 14.015625 
L 38.1875 14.015625 
L 19.390625 64.015625 
L 19.390625 0 
L 9.8125 0 
z
" id="DejaVuSans-4d"/>
      <path d="M 28.609375 0 
L 0.78125 72.90625 
L 11.078125 72.90625 
L 34.1875 11.53125 
L 57.328125 72.90625 
L 67.578125 72.90625 
L 39.796875 0 
z
" id="DejaVuSans-56"/>
      <path d="M 30.421875 75.984375 
L 30.421875 -13.1875 
L 9.71875 -13.1875 
L 9.71875 -6.203125 
L 21.390625 -6.203125 
L 21.390625 69 
L 9.71875 69 
L 9.71875 75.984375 
z
" id="DejaVuSans-5d"/>
     </defs>
     <g transform="translate(191.078203 347.954844)scale(0.15 -0.15)">
      <use xlink:href="#DejaVuSans-45"/>
      <use x="63.183594" xlink:href="#DejaVuSans-6e"/>
      <use x="126.5625" xlink:href="#DejaVuSans-65"/>
      <use x="188.085938" xlink:href="#DejaVuSans-72"/>
      <use x="229.183594" xlink:href="#DejaVuSans-67"/>
      <use x="292.660156" xlink:href="#DejaVuSans-79"/>
      <use x="351.839844" xlink:href="#DejaVuSans-20"/>
      <use x="383.626953" xlink:href="#DejaVuSans-5b"/>
      <use x="422.640625" xlink:href="#DejaVuSans-4d"/>
      <use x="508.919922" xlink:href="#DejaVuSans-65"/>
      <use x="570.443359" xlink:href="#DejaVuSans-56"/>
      <use x="638.851562" xlink:href="#DejaVuSans-5d"/>
     </g>
    </g>
   </g>
   <g id="matplotlib.axis_4">
    <g id="ytick_4">
     <g id="line2d_12">
      <g>
       <use style="stroke:#000000;stroke-width:0.8;" x="69.12" xlink:href="#m5bb06ca6a5" y="282.026667"/>
      </g>
     </g>
     <g id="text_9">
      <!-- 4 -->
      <g transform="translate(52.57625 287.725495)scale(0.15 -0.15)">
       <use xlink:href="#DejaVuSans-34"/>
      </g>
     </g>
    </g>
    <g id="ytick_5">
     <g id="line2d_13">
      <g>
       <use style="stroke:#000000;stroke-width:0.8;" x="69.12" xlink:href="#m5bb06ca6a5" y="239.36"/>
      </g>
     </g>
     <g id="text_10">
      <!-- 6 -->
      <g transform="translate(52.57625 245.058828)scale(0.15 -0.15)">
       <use xlink:href="#DejaVuSans-36"/>
      </g>
     </g>
    </g>
    <g id="ytick_6">
     <g id="line2d_14">
      <g>
       <use style="stroke:#000000;stroke-width:0.8;" x="69.12" xlink:href="#m5bb06ca6a5" y="196.693333"/>
      </g>
     </g>
     <g id="text_11">
      <!-- 8 -->
      <defs>
       <path d="M 31.78125 34.625 
Q 24.75 34.625 20.71875 30.859375 
Q 16.703125 27.09375 16.703125 20.515625 
Q 16.703125 13.921875 20.71875 10.15625 
Q 24.75 6.390625 31.78125 6.390625 
Q 38.8125 6.390625 42.859375 10.171875 
Q 46.921875 13.96875 46.921875 20.515625 
Q 46.921875 27.09375 42.890625 30.859375 
Q 38.875 34.625 31.78125 34.625 
z
M 21.921875 38.8125 
Q 15.578125 40.375 12.03125 44.71875 
Q 8.5 49.078125 8.5 55.328125 
Q 8.5 64.0625 14.71875 69.140625 
Q 20.953125 74.21875 31.78125 74.21875 
Q 42.671875 74.21875 48.875 69.140625 
Q 55.078125 64.0625 55.078125 55.328125 
Q 55.078125 49.078125 51.53125 44.71875 
Q 48 40.375 41.703125 38.8125 
Q 48.828125 37.15625 52.796875 32.3125 
Q 56.78125 27.484375 56.78125 20.515625 
Q 56.78125 9.90625 50.3125 4.234375 
Q 43.84375 -1.421875 31.78125 -1.421875 
Q 19.734375 -1.421875 13.25 4.234375 
Q 6.78125 9.90625 6.78125 20.515625 
Q 6.78125 27.484375 10.78125 32.3125 
Q 14.796875 37.15625 21.921875 38.8125 
z
M 18.3125 54.390625 
Q 18.3125 48.734375 21.84375 45.5625 
Q 25.390625 42.390625 31.78125 42.390625 
Q 38.140625 42.390625 41.71875 45.5625 
Q 45.3125 48.734375 45.3125 54.390625 
Q 45.3125 60.0625 41.71875 63.234375 
Q 38.140625 66.40625 31.78125 66.40625 
Q 25.390625 66.40625 21.84375 63.234375 
Q 18.3125 60.0625 18.3125 54.390625 
z
" id="DejaVuSans-38"/>
      </defs>
      <g transform="translate(52.57625 202.392161)scale(0.15 -0.15)">
       <use xlink:href="#DejaVuSans-38"/>
      </g>
     </g>
    </g>
    <g id="ytick_7">
     <g id="line2d_15">
      <g>
       <use style="stroke:#000000;stroke-width:0.8;" x="69.12" xlink:href="#m5bb06ca6a5" y="154.026667"/>
      </g>
     </g>
     <g id="text_12">
      <!-- 10 -->
      <g transform="translate(43.0325 159.725495)scale(0.15 -0.15)">
       <use xlink:href="#DejaVuSans-31"/>
       <use x="63.623047" xlink:href="#DejaVuSans-30"/>
      </g>
     </g>
    </g>
    <g id="ytick_8">
     <g id="line2d_16">
      <g>
       <use style="stroke:#000000;stroke-width:0.8;" x="69.12" xlink:href="#m5bb06ca6a5" y="111.36"/>
      </g>
     </g>
     <g id="text_13">
      <!-- 12 -->
      <g transform="translate(43.0325 117.058828)scale(0.15 -0.15)">
       <use xlink:href="#DejaVuSans-31"/>
       <use x="63.623047" xlink:href="#DejaVuSans-32"/>
      </g>
     </g>
    </g>
    <g id="text_14">
     <!-- Counts -->
     <defs>
      <path d="M 64.40625 67.28125 
L 64.40625 56.890625 
Q 59.421875 61.53125 53.78125 63.8125 
Q 48.140625 66.109375 41.796875 66.109375 
Q 29.296875 66.109375 22.65625 58.46875 
Q 16.015625 50.828125 16.015625 36.375 
Q 16.015625 21.96875 22.65625 14.328125 
Q 29.296875 6.6875 41.796875 6.6875 
Q 48.140625 6.6875 53.78125 8.984375 
Q 59.421875 11.28125 64.40625 15.921875 
L 64.40625 5.609375 
Q 59.234375 2.09375 53.4375 0.328125 
Q 47.65625 -1.421875 41.21875 -1.421875 
Q 24.65625 -1.421875 15.125 8.703125 
Q 5.609375 18.84375 5.609375 36.375 
Q 5.609375 53.953125 15.125 64.078125 
Q 24.65625 74.21875 41.21875 74.21875 
Q 47.75 74.21875 53.53125 72.484375 
Q 59.328125 70.75 64.40625 67.28125 
z
" id="DejaVuSans-43"/>
     </defs>
     <g transform="translate(35.912969 233.539687)rotate(-90)scale(0.15 -0.15)">
      <use xlink:href="#DejaVuSans-43"/>
      <use x="69.824219" xlink:href="#DejaVuSans-6f"/>
      <use x="131.005859" xlink:href="#DejaVuSans-75"/>
      <use x="194.384766" xlink:href="#DejaVuSans-6e"/>
      <use x="257.763672" xlink:href="#DejaVuSans-74"/>
      <use x="296.972656" xlink:href="#DejaVuSans-73"/>
     </g>
    </g>
   </g>
   <g id="LineCollection_2">
    <path clip-path="url(#pa8debc79d2)" d="M 81.92 340.310417 
L 81.92 266.409583 
" style="fill:none;stroke:#0000ff;stroke-width:1.5;"/>
    <path clip-path="url(#pa8debc79d2)" d="M 90.491429 316.614834 
L 90.491429 226.105166 
" style="fill:none;stroke:#0000ff;stroke-width:1.5;"/>
    <path clip-path="url(#pa8debc79d2)" d="M 107.634286 324.693333 
L 107.634286 239.36 
" style="fill:none;stroke:#0000ff;stroke-width:1.5;"/>
    <path clip-path="url(#pa8debc79d2)" d="M 124.777143 316.614834 
L 124.777143 226.105166 
" style="fill:none;stroke:#0000ff;stroke-width:1.5;"/>
    <path clip-path="url(#pa8debc79d2)" d="M 139.062857 332.604345 
L 139.062857 252.782321 
" style="fill:none;stroke:#0000ff;stroke-width:1.5;"/>
    <path clip-path="url(#pa8debc79d2)" d="M 147.634286 340.310417 
L 147.634286 266.409583 
" style="fill:none;stroke:#0000ff;stroke-width:1.5;"/>
    <path clip-path="url(#pa8debc79d2)" d="M 159.062857 332.604345 
L 159.062857 252.782321 
" style="fill:none;stroke:#0000ff;stroke-width:1.5;"/>
    <path clip-path="url(#pa8debc79d2)" d="M 164.777143 340.310417 
L 164.777143 266.409583 
" style="fill:none;stroke:#0000ff;stroke-width:1.5;"/>
    <path clip-path="url(#pa8debc79d2)" d="M 170.491429 332.604345 
L 170.491429 252.782321 
" style="fill:none;stroke:#0000ff;stroke-width:1.5;"/>
    <path clip-path="url(#pa8debc79d2)" d="M 173.348571 308.396117 
L 173.348571 212.99055 
" style="fill:none;stroke:#0000ff;stroke-width:1.5;"/>
    <path clip-path="url(#pa8debc79d2)" d="M 176.205714 283.082875 
L 176.205714 174.303792 
" style="fill:none;stroke:#0000ff;stroke-width:1.5;"/>
    <path clip-path="url(#pa8debc79d2)" d="M 187.634286 332.604345 
L 187.634286 252.782321 
" style="fill:none;stroke:#0000ff;stroke-width:1.5;"/>
    <path clip-path="url(#pa8debc79d2)" d="M 196.205714 274.469361 
L 196.205714 161.583972 
" style="fill:none;stroke:#0000ff;stroke-width:1.5;"/>
    <path clip-path="url(#pa8debc79d2)" d="M 199.062857 316.614834 
L 199.062857 226.105166 
" style="fill:none;stroke:#0000ff;stroke-width:1.5;"/>
    <path clip-path="url(#pa8debc79d2)" d="M 201.92 316.614834 
L 201.92 226.105166 
" style="fill:none;stroke:#0000ff;stroke-width:1.5;"/>
    <path clip-path="url(#pa8debc79d2)" d="M 204.777143 324.693333 
L 204.777143 239.36 
" style="fill:none;stroke:#0000ff;stroke-width:1.5;"/>
    <path clip-path="url(#pa8debc79d2)" d="M 207.634286 300.057768 
L 207.634286 199.995565 
" style="fill:none;stroke:#0000ff;stroke-width:1.5;"/>
    <path clip-path="url(#pa8debc79d2)" d="M 210.491429 248.223487 
L 210.491429 123.829846 
" style="fill:none;stroke:#0000ff;stroke-width:1.5;"/>
    <path clip-path="url(#pa8debc79d2)" d="M 216.205714 332.604345 
L 216.205714 252.782321 
" style="fill:none;stroke:#0000ff;stroke-width:1.5;"/>
    <path clip-path="url(#pa8debc79d2)" d="M 219.062857 257.033112 
L 219.062857 136.353555 
" style="fill:none;stroke:#0000ff;stroke-width:1.5;"/>
    <path clip-path="url(#pa8debc79d2)" d="M 221.92 308.396117 
L 221.92 212.99055 
" style="fill:none;stroke:#0000ff;stroke-width:1.5;"/>
    <path clip-path="url(#pa8debc79d2)" d="M 224.777143 308.396117 
L 224.777143 212.99055 
" style="fill:none;stroke:#0000ff;stroke-width:1.5;"/>
    <path clip-path="url(#pa8debc79d2)" d="M 227.634286 308.396117 
L 227.634286 212.99055 
" style="fill:none;stroke:#0000ff;stroke-width:1.5;"/>
    <path clip-path="url(#pa8debc79d2)" d="M 230.491429 274.469361 
L 230.491429 161.583972 
" style="fill:none;stroke:#0000ff;stroke-width:1.5;"/>
    <path clip-path="url(#pa8debc79d2)" d="M 233.348571 332.604345 
L 233.348571 252.782321 
" style="fill:none;stroke:#0000ff;stroke-width:1.5;"/>
    <path clip-path="url(#pa8debc79d2)" d="M 236.205714 332.604345 
L 236.205714 252.782321 
" style="fill:none;stroke:#0000ff;stroke-width:1.5;"/>
    <path clip-path="url(#pa8debc79d2)" d="M 239.062857 316.614834 
L 239.062857 226.105166 
" style="fill:none;stroke:#0000ff;stroke-width:1.5;"/>
    <path clip-path="url(#pa8debc79d2)" d="M 241.92 221.48859 
L 241.92 86.564743 
" style="fill:none;stroke:#0000ff;stroke-width:1.5;"/>
    <path clip-path="url(#pa8debc79d2)" d="M 244.777143 308.396117 
L 244.777143 212.99055 
" style="fill:none;stroke:#0000ff;stroke-width:1.5;"/>
    <path clip-path="url(#pa8debc79d2)" d="M 247.634286 248.223487 
L 247.634286 123.829846 
" style="fill:none;stroke:#0000ff;stroke-width:1.5;"/>
    <path clip-path="url(#pa8debc79d2)" d="M 250.491429 274.469361 
L 250.491429 161.583972 
" style="fill:none;stroke:#0000ff;stroke-width:1.5;"/>
    <path clip-path="url(#pa8debc79d2)" d="M 253.348571 308.396117 
L 253.348571 212.99055 
" style="fill:none;stroke:#0000ff;stroke-width:1.5;"/>
    <path clip-path="url(#pa8debc79d2)" d="M 256.205714 291.615781 
L 256.205714 187.104219 
" style="fill:none;stroke:#0000ff;stroke-width:1.5;"/>
    <path clip-path="url(#pa8debc79d2)" d="M 259.062857 274.469361 
L 259.062857 161.583972 
" style="fill:none;stroke:#0000ff;stroke-width:1.5;"/>
    <path clip-path="url(#pa8debc79d2)" d="M 261.92 308.396117 
L 261.92 212.99055 
" style="fill:none;stroke:#0000ff;stroke-width:1.5;"/>
    <path clip-path="url(#pa8debc79d2)" d="M 264.777143 265.783739 
L 264.777143 148.936261 
" style="fill:none;stroke:#0000ff;stroke-width:1.5;"/>
    <path clip-path="url(#pa8debc79d2)" d="M 267.634286 274.469361 
L 267.634286 161.583972 
" style="fill:none;stroke:#0000ff;stroke-width:1.5;"/>
    <path clip-path="url(#pa8debc79d2)" d="M 270.491429 274.469361 
L 270.491429 161.583972 
" style="fill:none;stroke:#0000ff;stroke-width:1.5;"/>
    <path clip-path="url(#pa8debc79d2)" d="M 273.348571 291.615781 
L 273.348571 187.104219 
" style="fill:none;stroke:#0000ff;stroke-width:1.5;"/>
    <path clip-path="url(#pa8debc79d2)" d="M 276.205714 291.615781 
L 276.205714 187.104219 
" style="fill:none;stroke:#0000ff;stroke-width:1.5;"/>
    <path clip-path="url(#pa8debc79d2)" d="M 279.062857 265.783739 
L 279.062857 148.936261 
" style="fill:none;stroke:#0000ff;stroke-width:1.5;"/>
    <path clip-path="url(#pa8debc79d2)" d="M 281.92 274.469361 
L 281.92 161.583972 
" style="fill:none;stroke:#0000ff;stroke-width:1.5;"/>
    <path clip-path="url(#pa8debc79d2)" d="M 284.777143 185.260834 
L 284.777143 37.459166 
" style="fill:none;stroke:#0000ff;stroke-width:1.5;"/>
    <path clip-path="url(#pa8debc79d2)" d="M 287.634286 239.36 
L 287.634286 111.36 
" style="fill:none;stroke:#0000ff;stroke-width:1.5;"/>
    <path clip-path="url(#pa8debc79d2)" d="M 290.491429 239.36 
L 290.491429 111.36 
" style="fill:none;stroke:#0000ff;stroke-width:1.5;"/>
    <path clip-path="url(#pa8debc79d2)" d="M 293.348571 300.057768 
L 293.348571 199.995565 
" style="fill:none;stroke:#0000ff;stroke-width:1.5;"/>
    <path clip-path="url(#pa8debc79d2)" d="M 296.205714 230.447083 
L 296.205714 98.939584 
" style="fill:none;stroke:#0000ff;stroke-width:1.5;"/>
    <path clip-path="url(#pa8debc79d2)" d="M 299.062857 265.783739 
L 299.062857 148.936261 
" style="fill:none;stroke:#0000ff;stroke-width:1.5;"/>
    <path clip-path="url(#pa8debc79d2)" d="M 301.92 291.615781 
L 301.92 187.104219 
" style="fill:none;stroke:#0000ff;stroke-width:1.5;"/>
    <path clip-path="url(#pa8debc79d2)" d="M 304.777143 291.615781 
L 304.777143 187.104219 
" style="fill:none;stroke:#0000ff;stroke-width:1.5;"/>
    <path clip-path="url(#pa8debc79d2)" d="M 307.634286 300.057768 
L 307.634286 199.995565 
" style="fill:none;stroke:#0000ff;stroke-width:1.5;"/>
    <path clip-path="url(#pa8debc79d2)" d="M 310.491429 300.057768 
L 310.491429 199.995565 
" style="fill:none;stroke:#0000ff;stroke-width:1.5;"/>
    <path clip-path="url(#pa8debc79d2)" d="M 313.348571 230.447083 
L 313.348571 98.939584 
" style="fill:none;stroke:#0000ff;stroke-width:1.5;"/>
    <path clip-path="url(#pa8debc79d2)" d="M 316.205714 283.082875 
L 316.205714 174.303792 
" style="fill:none;stroke:#0000ff;stroke-width:1.5;"/>
    <path clip-path="url(#pa8debc79d2)" d="M 319.062857 274.469361 
L 319.062857 161.583972 
" style="fill:none;stroke:#0000ff;stroke-width:1.5;"/>
    <path clip-path="url(#pa8debc79d2)" d="M 321.92 283.082875 
L 321.92 174.303792 
" style="fill:none;stroke:#0000ff;stroke-width:1.5;"/>
    <path clip-path="url(#pa8debc79d2)" d="M 327.634286 316.614834 
L 327.634286 226.105166 
" style="fill:none;stroke:#0000ff;stroke-width:1.5;"/>
    <path clip-path="url(#pa8debc79d2)" d="M 330.491429 300.057768 
L 330.491429 199.995565 
" style="fill:none;stroke:#0000ff;stroke-width:1.5;"/>
    <path clip-path="url(#pa8debc79d2)" d="M 333.348571 316.614834 
L 333.348571 226.105166 
" style="fill:none;stroke:#0000ff;stroke-width:1.5;"/>
    <path clip-path="url(#pa8debc79d2)" d="M 336.205714 300.057768 
L 336.205714 199.995565 
" style="fill:none;stroke:#0000ff;stroke-width:1.5;"/>
    <path clip-path="url(#pa8debc79d2)" d="M 339.062857 308.396117 
L 339.062857 212.99055 
" style="fill:none;stroke:#0000ff;stroke-width:1.5;"/>
    <path clip-path="url(#pa8debc79d2)" d="M 341.92 324.693333 
L 341.92 239.36 
" style="fill:none;stroke:#0000ff;stroke-width:1.5;"/>
    <path clip-path="url(#pa8debc79d2)" d="M 347.634286 265.783739 
L 347.634286 148.936261 
" style="fill:none;stroke:#0000ff;stroke-width:1.5;"/>
    <path clip-path="url(#pa8debc79d2)" d="M 350.491429 308.396117 
L 350.491429 212.99055 
" style="fill:none;stroke:#0000ff;stroke-width:1.5;"/>
    <path clip-path="url(#pa8debc79d2)" d="M 353.348571 324.693333 
L 353.348571 239.36 
" style="fill:none;stroke:#0000ff;stroke-width:1.5;"/>
    <path clip-path="url(#pa8debc79d2)" d="M 356.205714 324.693333 
L 356.205714 239.36 
" style="fill:none;stroke:#0000ff;stroke-width:1.5;"/>
    <path clip-path="url(#pa8debc79d2)" d="M 359.062857 316.614834 
L 359.062857 226.105166 
" style="fill:none;stroke:#0000ff;stroke-width:1.5;"/>
    <path clip-path="url(#pa8debc79d2)" d="M 361.92 316.614834 
L 361.92 226.105166 
" style="fill:none;stroke:#0000ff;stroke-width:1.5;"/>
    <path clip-path="url(#pa8debc79d2)" d="M 364.777143 283.082875 
L 364.777143 174.303792 
" style="fill:none;stroke:#0000ff;stroke-width:1.5;"/>
    <path clip-path="url(#pa8debc79d2)" d="M 367.634286 316.614834 
L 367.634286 226.105166 
" style="fill:none;stroke:#0000ff;stroke-width:1.5;"/>
    <path clip-path="url(#pa8debc79d2)" d="M 376.205714 340.310417 
L 376.205714 266.409583 
" style="fill:none;stroke:#0000ff;stroke-width:1.5;"/>
    <path clip-path="url(#pa8debc79d2)" d="M 379.062857 340.310417 
L 379.062857 266.409583 
" style="fill:none;stroke:#0000ff;stroke-width:1.5;"/>
    <path clip-path="url(#pa8debc79d2)" d="M 381.92 340.310417 
L 381.92 266.409583 
" style="fill:none;stroke:#0000ff;stroke-width:1.5;"/>
    <path clip-path="url(#pa8debc79d2)" d="M 401.92 340.310417 
L 401.92 266.409583 
" style="fill:none;stroke:#0000ff;stroke-width:1.5;"/>
   </g>
   <g id="line2d_17">
    <path clip-path="url(#pa8debc79d2)" d="M 81.92 289.383873 
L 131.249329 289.270672 
L 145.663744 289.018643 
L 155.273353 288.637864 
L 162.640721 288.138791 
L 169.047127 287.487702 
L 174.492573 286.72126 
L 179.617698 285.774025 
L 184.102182 284.728878 
L 188.586667 283.448161 
L 192.750831 282.019739 
L 196.594675 280.474715 
L 200.438519 278.694031 
L 204.282362 276.662733 
L 208.126206 274.36971 
L 211.97005 271.80881 
L 215.813894 268.97996 
L 219.978058 265.621349 
L 224.142222 261.976247 
L 228.947027 257.456266 
L 234.392472 252.012351 
L 243.361441 242.664094 
L 250.728809 235.112468 
L 255.533614 230.509594 
L 259.377457 227.127568 
L 262.900981 224.329582 
L 266.104184 222.082566 
L 268.987067 220.332623 
L 271.54963 219.013306 
L 274.112192 217.930934 
L 276.674755 217.097126 
L 279.237317 216.520913 
L 281.47956 216.233044 
L 283.721802 216.149663 
L 285.964044 216.271471 
L 288.206286 216.597444 
L 290.448529 217.124851 
L 293.011091 217.968535 
L 295.573654 219.060376 
L 298.136216 220.38866 
L 301.019099 222.14798 
L 303.901982 224.165425 
L 307.105185 226.677913 
L 310.628709 229.725593 
L 314.792873 233.636854 
L 319.917998 238.776807 
L 331.129209 250.467416 
L 337.535616 256.929183 
L 342.34042 261.483382 
L 346.824905 265.435346 
L 350.989069 268.809716 
L 354.832913 271.653792 
L 358.676757 274.230119 
L 362.520601 276.538391 
L 366.364444 278.584439 
L 370.208288 280.379123 
L 374.052132 281.937204 
L 378.216296 283.37856 
L 382.38046 284.587578 
L 386.864945 285.65941 
L 391.66975 286.578688 
L 397.115195 287.380923 
L 401.92 287.916286 
L 401.92 287.916286 
" style="fill:none;stroke:#ff0000;stroke-linecap:square;stroke-width:1.5;"/>
   </g>
   <g id="line2d_18">
    <g clip-path="url(#pa8debc79d2)">
     <use style="fill:#0000ff;stroke:#0000ff;" x="81.92" xlink:href="#m90e0166708" y="303.36"/>
     <use style="fill:#0000ff;stroke:#0000ff;" x="90.491429" xlink:href="#m90e0166708" y="271.36"/>
     <use style="fill:#0000ff;stroke:#0000ff;" x="107.634286" xlink:href="#m90e0166708" y="282.026667"/>
     <use style="fill:#0000ff;stroke:#0000ff;" x="124.777143" xlink:href="#m90e0166708" y="271.36"/>
     <use style="fill:#0000ff;stroke:#0000ff;" x="139.062857" xlink:href="#m90e0166708" y="292.693333"/>
     <use style="fill:#0000ff;stroke:#0000ff;" x="147.634286" xlink:href="#m90e0166708" y="303.36"/>
     <use style="fill:#0000ff;stroke:#0000ff;" x="159.062857" xlink:href="#m90e0166708" y="292.693333"/>
     <use style="fill:#0000ff;stroke:#0000ff;" x="164.777143" xlink:href="#m90e0166708" y="303.36"/>
     <use style="fill:#0000ff;stroke:#0000ff;" x="170.491429" xlink:href="#m90e0166708" y="292.693333"/>
     <use style="fill:#0000ff;stroke:#0000ff;" x="173.348571" xlink:href="#m90e0166708" y="260.693333"/>
     <use style="fill:#0000ff;stroke:#0000ff;" x="176.205714" xlink:href="#m90e0166708" y="228.693333"/>
     <use style="fill:#0000ff;stroke:#0000ff;" x="187.634286" xlink:href="#m90e0166708" y="292.693333"/>
     <use style="fill:#0000ff;stroke:#0000ff;" x="196.205714" xlink:href="#m90e0166708" y="218.026667"/>
     <use style="fill:#0000ff;stroke:#0000ff;" x="199.062857" xlink:href="#m90e0166708" y="271.36"/>
     <use style="fill:#0000ff;stroke:#0000ff;" x="201.92" xlink:href="#m90e0166708" y="271.36"/>
     <use style="fill:#0000ff;stroke:#0000ff;" x="204.777143" xlink:href="#m90e0166708" y="282.026667"/>
     <use style="fill:#0000ff;stroke:#0000ff;" x="207.634286" xlink:href="#m90e0166708" y="250.026667"/>
     <use style="fill:#0000ff;stroke:#0000ff;" x="210.491429" xlink:href="#m90e0166708" y="186.026667"/>
     <use style="fill:#0000ff;stroke:#0000ff;" x="216.205714" xlink:href="#m90e0166708" y="292.693333"/>
     <use style="fill:#0000ff;stroke:#0000ff;" x="219.062857" xlink:href="#m90e0166708" y="196.693333"/>
     <use style="fill:#0000ff;stroke:#0000ff;" x="221.92" xlink:href="#m90e0166708" y="260.693333"/>
     <use style="fill:#0000ff;stroke:#0000ff;" x="224.777143" xlink:href="#m90e0166708" y="260.693333"/>
     <use style="fill:#0000ff;stroke:#0000ff;" x="227.634286" xlink:href="#m90e0166708" y="260.693333"/>
     <use style="fill:#0000ff;stroke:#0000ff;" x="230.491429" xlink:href="#m90e0166708" y="218.026667"/>
     <use style="fill:#0000ff;stroke:#0000ff;" x="233.348571" xlink:href="#m90e0166708" y="292.693333"/>
     <use style="fill:#0000ff;stroke:#0000ff;" x="236.205714" xlink:href="#m90e0166708" y="292.693333"/>
     <use style="fill:#0000ff;stroke:#0000ff;" x="239.062857" xlink:href="#m90e0166708" y="271.36"/>
     <use style="fill:#0000ff;stroke:#0000ff;" x="241.92" xlink:href="#m90e0166708" y="154.026667"/>
     <use style="fill:#0000ff;stroke:#0000ff;" x="244.777143" xlink:href="#m90e0166708" y="260.693333"/>
     <use style="fill:#0000ff;stroke:#0000ff;" x="247.634286" xlink:href="#m90e0166708" y="186.026667"/>
     <use style="fill:#0000ff;stroke:#0000ff;" x="250.491429" xlink:href="#m90e0166708" y="218.026667"/>
     <use style="fill:#0000ff;stroke:#0000ff;" x="253.348571" xlink:href="#m90e0166708" y="260.693333"/>
     <use style="fill:#0000ff;stroke:#0000ff;" x="256.205714" xlink:href="#m90e0166708" y="239.36"/>
     <use style="fill:#0000ff;stroke:#0000ff;" x="259.062857" xlink:href="#m90e0166708" y="218.026667"/>
     <use style="fill:#0000ff;stroke:#0000ff;" x="261.92" xlink:href="#m90e0166708" y="260.693333"/>
     <use style="fill:#0000ff;stroke:#0000ff;" x="264.777143" xlink:href="#m90e0166708" y="207.36"/>
     <use style="fill:#0000ff;stroke:#0000ff;" x="267.634286" xlink:href="#m90e0166708" y="218.026667"/>
     <use style="fill:#0000ff;stroke:#0000ff;" x="270.491429" xlink:href="#m90e0166708" y="218.026667"/>
     <use style="fill:#0000ff;stroke:#0000ff;" x="273.348571" xlink:href="#m90e0166708" y="239.36"/>
     <use style="fill:#0000ff;stroke:#0000ff;" x="276.205714" xlink:href="#m90e0166708" y="239.36"/>
     <use style="fill:#0000ff;stroke:#0000ff;" x="279.062857" xlink:href="#m90e0166708" y="207.36"/>
     <use style="fill:#0000ff;stroke:#0000ff;" x="281.92" xlink:href="#m90e0166708" y="218.026667"/>
     <use style="fill:#0000ff;stroke:#0000ff;" x="284.777143" xlink:href="#m90e0166708" y="111.36"/>
     <use style="fill:#0000ff;stroke:#0000ff;" x="287.634286" xlink:href="#m90e0166708" y="175.36"/>
     <use style="fill:#0000ff;stroke:#0000ff;" x="290.491429" xlink:href="#m90e0166708" y="175.36"/>
     <use style="fill:#0000ff;stroke:#0000ff;" x="293.348571" xlink:href="#m90e0166708" y="250.026667"/>
     <use style="fill:#0000ff;stroke:#0000ff;" x="296.205714" xlink:href="#m90e0166708" y="164.693333"/>
     <use style="fill:#0000ff;stroke:#0000ff;" x="299.062857" xlink:href="#m90e0166708" y="207.36"/>
     <use style="fill:#0000ff;stroke:#0000ff;" x="301.92" xlink:href="#m90e0166708" y="239.36"/>
     <use style="fill:#0000ff;stroke:#0000ff;" x="304.777143" xlink:href="#m90e0166708" y="239.36"/>
     <use style="fill:#0000ff;stroke:#0000ff;" x="307.634286" xlink:href="#m90e0166708" y="250.026667"/>
     <use style="fill:#0000ff;stroke:#0000ff;" x="310.491429" xlink:href="#m90e0166708" y="250.026667"/>
     <use style="fill:#0000ff;stroke:#0000ff;" x="313.348571" xlink:href="#m90e0166708" y="164.693333"/>
     <use style="fill:#0000ff;stroke:#0000ff;" x="316.205714" xlink:href="#m90e0166708" y="228.693333"/>
     <use style="fill:#0000ff;stroke:#0000ff;" x="319.062857" xlink:href="#m90e0166708" y="218.026667"/>
     <use style="fill:#0000ff;stroke:#0000ff;" x="321.92" xlink:href="#m90e0166708" y="228.693333"/>
     <use style="fill:#0000ff;stroke:#0000ff;" x="327.634286" xlink:href="#m90e0166708" y="271.36"/>
     <use style="fill:#0000ff;stroke:#0000ff;" x="330.491429" xlink:href="#m90e0166708" y="250.026667"/>
     <use style="fill:#0000ff;stroke:#0000ff;" x="333.348571" xlink:href="#m90e0166708" y="271.36"/>
     <use style="fill:#0000ff;stroke:#0000ff;" x="336.205714" xlink:href="#m90e0166708" y="250.026667"/>
     <use style="fill:#0000ff;stroke:#0000ff;" x="339.062857" xlink:href="#m90e0166708" y="260.693333"/>
     <use style="fill:#0000ff;stroke:#0000ff;" x="341.92" xlink:href="#m90e0166708" y="282.026667"/>
     <use style="fill:#0000ff;stroke:#0000ff;" x="347.634286" xlink:href="#m90e0166708" y="207.36"/>
     <use style="fill:#0000ff;stroke:#0000ff;" x="350.491429" xlink:href="#m90e0166708" y="260.693333"/>
     <use style="fill:#0000ff;stroke:#0000ff;" x="353.348571" xlink:href="#m90e0166708" y="282.026667"/>
     <use style="fill:#0000ff;stroke:#0000ff;" x="356.205714" xlink:href="#m90e0166708" y="282.026667"/>
     <use style="fill:#0000ff;stroke:#0000ff;" x="359.062857" xlink:href="#m90e0166708" y="271.36"/>
     <use style="fill:#0000ff;stroke:#0000ff;" x="361.92" xlink:href="#m90e0166708" y="271.36"/>
     <use style="fill:#0000ff;stroke:#0000ff;" x="364.777143" xlink:href="#m90e0166708" y="228.693333"/>
     <use style="fill:#0000ff;stroke:#0000ff;" x="367.634286" xlink:href="#m90e0166708" y="271.36"/>
     <use style="fill:#0000ff;stroke:#0000ff;" x="376.205714" xlink:href="#m90e0166708" y="303.36"/>
     <use style="fill:#0000ff;stroke:#0000ff;" x="379.062857" xlink:href="#m90e0166708" y="303.36"/>
     <use style="fill:#0000ff;stroke:#0000ff;" x="381.92" xlink:href="#m90e0166708" y="303.36"/>
     <use style="fill:#0000ff;stroke:#0000ff;" x="401.92" xlink:href="#m90e0166708" y="303.36"/>
    </g>
   </g>
   <g id="patch_8">
    <path d="M 69.12 311.04 
L 69.12 103.68 
" style="fill:none;stroke:#000000;stroke-linecap:square;stroke-linejoin:miter;stroke-width:0.8;"/>
   </g>
   <g id="patch_9">
    <path d="M 414.72 311.04 
L 414.72 103.68 
" style="fill:none;stroke:#000000;stroke-linecap:square;stroke-linejoin:miter;stroke-width:0.8;"/>
   </g>
   <g id="patch_10">
    <path d="M 69.12 311.04 
L 414.72 311.04 
" style="fill:none;stroke:#000000;stroke-linecap:square;stroke-linejoin:miter;stroke-width:0.8;"/>
   </g>
   <g id="patch_11">
    <path d="M 69.12 103.68 
L 414.72 103.68 
" style="fill:none;stroke:#000000;stroke-linecap:square;stroke-linejoin:miter;stroke-width:0.8;"/>
   </g>
  </g>
 </g>
 <defs>
  <clipPath id="pd40cf72d42">
   <rect height="51.84" width="345.6" x="69.12" y="44.928"/>
  </clipPath>
  <clipPath id="pa8debc79d2">
   <rect height="207.36" width="345.6" x="69.12" y="103.68"/>
  </clipPath>
 </defs>
</svg>
