<?xml version="1.0" encoding="utf-8" standalone="no"?>
<!DOCTYPE svg PUBLIC "-//W3C//DTD SVG 1.1//EN"
  "http://www.w3.org/Graphics/SVG/1.1/DTD/svg11.dtd">
<!-- Created with matplotlib (http://matplotlib.org/) -->
<svg height="345pt" version="1.1" viewBox="0 0 460 345" width="460pt" xmlns="http://www.w3.org/2000/svg" xmlns:xlink="http://www.w3.org/1999/xlink">
 <defs>
  <style type="text/css">
*{stroke-linecap:butt;stroke-linejoin:round;}
  </style>
 </defs>
 <g id="figure_1">
  <g id="patch_1">
   <path d="M 0 345.6 
L 460.8 345.6 
L 460.8 0 
L 0 0 
z
" style="fill:#ffffff;"/>
  </g>
  <g id="axes_1">
   <g id="patch_2">
    <path d="M 69.12 96.768 
L 414.72 96.768 
L 414.72 44.928 
L 69.12 44.928 
z
" style="fill:#ffffff;"/>
   </g>
   <g id="matplotlib.axis_1">
    <g id="xtick_1">
     <g id="line2d_1">
      <defs>
       <path d="M 0 0 
L 0 3.5 
" id="m2993d0d5b3" style="stroke:#000000;stroke-width:0.8;"/>
      </defs>
      <g>
       <use style="stroke:#000000;stroke-width:0.8;" x="103.376607" xlink:href="#m2993d0d5b3" y="96.768"/>
      </g>
     </g>
    </g>
    <g id="xtick_2">
     <g id="line2d_2">
      <g>
       <use style="stroke:#000000;stroke-width:0.8;" x="161.846675" xlink:href="#m2993d0d5b3" y="96.768"/>
      </g>
     </g>
    </g>
    <g id="xtick_3">
     <g id="line2d_3">
      <g>
       <use style="stroke:#000000;stroke-width:0.8;" x="220.316742" xlink:href="#m2993d0d5b3" y="96.768"/>
      </g>
     </g>
    </g>
    <g id="xtick_4">
     <g id="line2d_4">
      <g>
       <use style="stroke:#000000;stroke-width:0.8;" x="278.786809" xlink:href="#m2993d0d5b3" y="96.768"/>
      </g>
     </g>
    </g>
    <g id="xtick_5">
     <g id="line2d_5">
      <g>
       <use style="stroke:#000000;stroke-width:0.8;" x="337.256876" xlink:href="#m2993d0d5b3" y="96.768"/>
      </g>
     </g>
    </g>
    <g id="xtick_6">
     <g id="line2d_6">
      <g>
       <use style="stroke:#000000;stroke-width:0.8;" x="395.726944" xlink:href="#m2993d0d5b3" y="96.768"/>
      </g>
     </g>
    </g>
   </g>
   <g id="matplotlib.axis_2">
    <g id="ytick_1">
     <g id="line2d_7">
      <defs>
       <path d="M 0 0 
L -3.5 0 
" id="m35f8f0e06d" style="stroke:#000000;stroke-width:0.8;"/>
      </defs>
      <g>
       <use style="stroke:#000000;stroke-width:0.8;" x="69.12" xlink:href="#m35f8f0e06d" y="91.2954"/>
      </g>
     </g>
     <g id="text_1">
      <!-- −1 -->
      <defs>
       <path d="M 10.59375 35.5 
L 73.1875 35.5 
L 73.1875 27.203125 
L 10.59375 27.203125 
z
" id="DejaVuSans-2212"/>
       <path d="M 12.40625 8.296875 
L 28.515625 8.296875 
L 28.515625 63.921875 
L 10.984375 60.40625 
L 10.984375 69.390625 
L 28.421875 72.90625 
L 38.28125 72.90625 
L 38.28125 8.296875 
L 54.390625 8.296875 
L 54.390625 0 
L 12.40625 0 
z
" id="DejaVuSans-31"/>
      </defs>
      <g transform="translate(40.006719 96.994228)scale(0.15 -0.15)">
       <use xlink:href="#DejaVuSans-2212"/>
       <use x="83.789062" xlink:href="#DejaVuSans-31"/>
      </g>
     </g>
    </g>
    <g id="ytick_2">
     <g id="line2d_8">
      <g>
       <use style="stroke:#000000;stroke-width:0.8;" x="69.12" xlink:href="#m35f8f0e06d" y="75.519867"/>
      </g>
     </g>
    </g>
    <g id="ytick_3">
     <g id="line2d_9">
      <g>
       <use style="stroke:#000000;stroke-width:0.8;" x="69.12" xlink:href="#m35f8f0e06d" y="59.744334"/>
      </g>
     </g>
     <g id="text_2">
      <!-- 1 -->
      <g transform="translate(52.57625 65.443162)scale(0.15 -0.15)">
       <use xlink:href="#DejaVuSans-31"/>
      </g>
     </g>
    </g>
    <g id="text_3">
     <!-- Studentized -->
     <defs>
      <path d="M 53.515625 70.515625 
L 53.515625 60.890625 
Q 47.90625 63.578125 42.921875 64.890625 
Q 37.9375 66.21875 33.296875 66.21875 
Q 25.25 66.21875 20.875 63.09375 
Q 16.5 59.96875 16.5 54.203125 
Q 16.5 49.359375 19.40625 46.890625 
Q 22.3125 44.4375 30.421875 42.921875 
L 36.375 41.703125 
Q 47.40625 39.59375 52.65625 34.296875 
Q 57.90625 29 57.90625 20.125 
Q 57.90625 9.515625 50.796875 4.046875 
Q 43.703125 -1.421875 29.984375 -1.421875 
Q 24.8125 -1.421875 18.96875 -0.25 
Q 13.140625 0.921875 6.890625 3.21875 
L 6.890625 13.375 
Q 12.890625 10.015625 18.65625 8.296875 
Q 24.421875 6.59375 29.984375 6.59375 
Q 38.421875 6.59375 43.015625 9.90625 
Q 47.609375 13.234375 47.609375 19.390625 
Q 47.609375 24.75 44.3125 27.78125 
Q 41.015625 30.8125 33.5 32.328125 
L 27.484375 33.5 
Q 16.453125 35.6875 11.515625 40.375 
Q 6.59375 45.0625 6.59375 53.421875 
Q 6.59375 63.09375 13.40625 68.65625 
Q 20.21875 74.21875 32.171875 74.21875 
Q 37.3125 74.21875 42.625 73.28125 
Q 47.953125 72.359375 53.515625 70.515625 
z
" id="DejaVuSans-53"/>
      <path d="M 18.3125 70.21875 
L 18.3125 54.6875 
L 36.8125 54.6875 
L 36.8125 47.703125 
L 18.3125 47.703125 
L 18.3125 18.015625 
Q 18.3125 11.328125 20.140625 9.421875 
Q 21.96875 7.515625 27.59375 7.515625 
L 36.8125 7.515625 
L 36.8125 0 
L 27.59375 0 
Q 17.1875 0 13.234375 3.875 
Q 9.28125 7.765625 9.28125 18.015625 
L 9.28125 47.703125 
L 2.6875 47.703125 
L 2.6875 54.6875 
L 9.28125 54.6875 
L 9.28125 70.21875 
z
" id="DejaVuSans-74"/>
      <path d="M 8.5 21.578125 
L 8.5 54.6875 
L 17.484375 54.6875 
L 17.484375 21.921875 
Q 17.484375 14.15625 20.5 10.265625 
Q 23.53125 6.390625 29.59375 6.390625 
Q 36.859375 6.390625 41.078125 11.03125 
Q 45.3125 15.671875 45.3125 23.6875 
L 45.3125 54.6875 
L 54.296875 54.6875 
L 54.296875 0 
L 45.3125 0 
L 45.3125 8.40625 
Q 42.046875 3.421875 37.71875 1 
Q 33.40625 -1.421875 27.6875 -1.421875 
Q 18.265625 -1.421875 13.375 4.4375 
Q 8.5 10.296875 8.5 21.578125 
z
M 31.109375 56 
z
" id="DejaVuSans-75"/>
      <path d="M 45.40625 46.390625 
L 45.40625 75.984375 
L 54.390625 75.984375 
L 54.390625 0 
L 45.40625 0 
L 45.40625 8.203125 
Q 42.578125 3.328125 38.25 0.953125 
Q 33.9375 -1.421875 27.875 -1.421875 
Q 17.96875 -1.421875 11.734375 6.484375 
Q 5.515625 14.40625 5.515625 27.296875 
Q 5.515625 40.1875 11.734375 48.09375 
Q 17.96875 56 27.875 56 
Q 33.9375 56 38.25 53.625 
Q 42.578125 51.265625 45.40625 46.390625 
z
M 14.796875 27.296875 
Q 14.796875 17.390625 18.875 11.75 
Q 22.953125 6.109375 30.078125 6.109375 
Q 37.203125 6.109375 41.296875 11.75 
Q 45.40625 17.390625 45.40625 27.296875 
Q 45.40625 37.203125 41.296875 42.84375 
Q 37.203125 48.484375 30.078125 48.484375 
Q 22.953125 48.484375 18.875 42.84375 
Q 14.796875 37.203125 14.796875 27.296875 
z
" id="DejaVuSans-64"/>
      <path d="M 56.203125 29.59375 
L 56.203125 25.203125 
L 14.890625 25.203125 
Q 15.484375 15.921875 20.484375 11.0625 
Q 25.484375 6.203125 34.421875 6.203125 
Q 39.59375 6.203125 44.453125 7.46875 
Q 49.3125 8.734375 54.109375 11.28125 
L 54.109375 2.78125 
Q 49.265625 0.734375 44.1875 -0.34375 
Q 39.109375 -1.421875 33.890625 -1.421875 
Q 20.796875 -1.421875 13.15625 6.1875 
Q 5.515625 13.8125 5.515625 26.8125 
Q 5.515625 40.234375 12.765625 48.109375 
Q 20.015625 56 32.328125 56 
Q 43.359375 56 49.78125 48.890625 
Q 56.203125 41.796875 56.203125 29.59375 
z
M 47.21875 32.234375 
Q 47.125 39.59375 43.09375 43.984375 
Q 39.0625 48.390625 32.421875 48.390625 
Q 24.90625 48.390625 20.390625 44.140625 
Q 15.875 39.890625 15.1875 32.171875 
z
" id="DejaVuSans-65"/>
      <path d="M 54.890625 33.015625 
L 54.890625 0 
L 45.90625 0 
L 45.90625 32.71875 
Q 45.90625 40.484375 42.875 44.328125 
Q 39.84375 48.1875 33.796875 48.1875 
Q 26.515625 48.1875 22.3125 43.546875 
Q 18.109375 38.921875 18.109375 30.90625 
L 18.109375 0 
L 9.078125 0 
L 9.078125 54.6875 
L 18.109375 54.6875 
L 18.109375 46.1875 
Q 21.34375 51.125 25.703125 53.5625 
Q 30.078125 56 35.796875 56 
Q 45.21875 56 50.046875 50.171875 
Q 54.890625 44.34375 54.890625 33.015625 
z
" id="DejaVuSans-6e"/>
      <path d="M 9.421875 54.6875 
L 18.40625 54.6875 
L 18.40625 0 
L 9.421875 0 
z
M 9.421875 75.984375 
L 18.40625 75.984375 
L 18.40625 64.59375 
L 9.421875 64.59375 
z
" id="DejaVuSans-69"/>
      <path d="M 5.515625 54.6875 
L 48.1875 54.6875 
L 48.1875 46.484375 
L 14.40625 7.171875 
L 48.1875 7.171875 
L 48.1875 0 
L 4.296875 0 
L 4.296875 8.203125 
L 38.09375 47.515625 
L 5.515625 47.515625 
z
" id="DejaVuSans-7a"/>
     </defs>
     <g transform="translate(16.090469 115.768313)rotate(-90)scale(0.15 -0.15)">
      <use xlink:href="#DejaVuSans-53"/>
      <use x="63.476562" xlink:href="#DejaVuSans-74"/>
      <use x="102.685547" xlink:href="#DejaVuSans-75"/>
      <use x="166.064453" xlink:href="#DejaVuSans-64"/>
      <use x="229.541016" xlink:href="#DejaVuSans-65"/>
      <use x="291.064453" xlink:href="#DejaVuSans-6e"/>
      <use x="354.443359" xlink:href="#DejaVuSans-74"/>
      <use x="393.652344" xlink:href="#DejaVuSans-69"/>
      <use x="421.435547" xlink:href="#DejaVuSans-7a"/>
      <use x="473.925781" xlink:href="#DejaVuSans-65"/>
      <use x="535.449219" xlink:href="#DejaVuSans-64"/>
     </g>
     <!-- Residuals -->
     <defs>
      <path d="M 44.390625 34.1875 
Q 47.5625 33.109375 50.5625 29.59375 
Q 53.5625 26.078125 56.59375 19.921875 
L 66.609375 0 
L 56 0 
L 46.6875 18.703125 
Q 43.0625 26.03125 39.671875 28.421875 
Q 36.28125 30.8125 30.421875 30.8125 
L 19.671875 30.8125 
L 19.671875 0 
L 9.8125 0 
L 9.8125 72.90625 
L 32.078125 72.90625 
Q 44.578125 72.90625 50.734375 67.671875 
Q 56.890625 62.453125 56.890625 51.90625 
Q 56.890625 45.015625 53.6875 40.46875 
Q 50.484375 35.9375 44.390625 34.1875 
z
M 19.671875 64.796875 
L 19.671875 38.921875 
L 32.078125 38.921875 
Q 39.203125 38.921875 42.84375 42.21875 
Q 46.484375 45.515625 46.484375 51.90625 
Q 46.484375 58.296875 42.84375 61.546875 
Q 39.203125 64.796875 32.078125 64.796875 
z
" id="DejaVuSans-52"/>
      <path d="M 44.28125 53.078125 
L 44.28125 44.578125 
Q 40.484375 46.53125 36.375 47.5 
Q 32.28125 48.484375 27.875 48.484375 
Q 21.1875 48.484375 17.84375 46.4375 
Q 14.5 44.390625 14.5 40.28125 
Q 14.5 37.15625 16.890625 35.375 
Q 19.28125 33.59375 26.515625 31.984375 
L 29.59375 31.296875 
Q 39.15625 29.25 43.1875 25.515625 
Q 47.21875 21.78125 47.21875 15.09375 
Q 47.21875 7.46875 41.1875 3.015625 
Q 35.15625 -1.421875 24.609375 -1.421875 
Q 20.21875 -1.421875 15.453125 -0.5625 
Q 10.6875 0.296875 5.421875 2 
L 5.421875 11.28125 
Q 10.40625 8.6875 15.234375 7.390625 
Q 20.0625 6.109375 24.8125 6.109375 
Q 31.15625 6.109375 34.5625 8.28125 
Q 37.984375 10.453125 37.984375 14.40625 
Q 37.984375 18.0625 35.515625 20.015625 
Q 33.0625 21.96875 24.703125 23.78125 
L 21.578125 24.515625 
Q 13.234375 26.265625 9.515625 29.90625 
Q 5.8125 33.546875 5.8125 39.890625 
Q 5.8125 47.609375 11.28125 51.796875 
Q 16.75 56 26.8125 56 
Q 31.78125 56 36.171875 55.265625 
Q 40.578125 54.546875 44.28125 53.078125 
z
" id="DejaVuSans-73"/>
      <path d="M 34.28125 27.484375 
Q 23.390625 27.484375 19.1875 25 
Q 14.984375 22.515625 14.984375 16.5 
Q 14.984375 11.71875 18.140625 8.90625 
Q 21.296875 6.109375 26.703125 6.109375 
Q 34.1875 6.109375 38.703125 11.40625 
Q 43.21875 16.703125 43.21875 25.484375 
L 43.21875 27.484375 
z
M 52.203125 31.203125 
L 52.203125 0 
L 43.21875 0 
L 43.21875 8.296875 
Q 40.140625 3.328125 35.546875 0.953125 
Q 30.953125 -1.421875 24.3125 -1.421875 
Q 15.921875 -1.421875 10.953125 3.296875 
Q 6 8.015625 6 15.921875 
Q 6 25.140625 12.171875 29.828125 
Q 18.359375 34.515625 30.609375 34.515625 
L 43.21875 34.515625 
L 43.21875 35.40625 
Q 43.21875 41.609375 39.140625 45 
Q 35.0625 48.390625 27.6875 48.390625 
Q 23 48.390625 18.546875 47.265625 
Q 14.109375 46.140625 10.015625 43.890625 
L 10.015625 52.203125 
Q 14.9375 54.109375 19.578125 55.046875 
Q 24.21875 56 28.609375 56 
Q 40.484375 56 46.34375 49.84375 
Q 52.203125 43.703125 52.203125 31.203125 
z
" id="DejaVuSans-61"/>
      <path d="M 9.421875 75.984375 
L 18.40625 75.984375 
L 18.40625 0 
L 9.421875 0 
z
" id="DejaVuSans-6c"/>
     </defs>
     <g transform="translate(32.887188 106.761281)rotate(-90)scale(0.15 -0.15)">
      <use xlink:href="#DejaVuSans-52"/>
      <use x="69.419922" xlink:href="#DejaVuSans-65"/>
      <use x="130.943359" xlink:href="#DejaVuSans-73"/>
      <use x="183.042969" xlink:href="#DejaVuSans-69"/>
      <use x="210.826172" xlink:href="#DejaVuSans-64"/>
      <use x="274.302734" xlink:href="#DejaVuSans-75"/>
      <use x="337.681641" xlink:href="#DejaVuSans-61"/>
      <use x="398.960938" xlink:href="#DejaVuSans-6c"/>
      <use x="426.744141" xlink:href="#DejaVuSans-73"/>
     </g>
    </g>
   </g>
   <g id="LineCollection_1">
    <path clip-path="url(#p4c11ee5a59)" d="M 81.92 90.877825 
L 81.92 59.326759 
" style="fill:none;stroke:#0000ff;stroke-width:1.5;"/>
    <path clip-path="url(#p4c11ee5a59)" d="M 102.789565 92.197317 
L 102.789565 60.646251 
" style="fill:none;stroke:#0000ff;stroke-width:1.5;"/>
    <path clip-path="url(#p4c11ee5a59)" d="M 134.093913 84.212211 
L 134.093913 52.661145 
" style="fill:none;stroke:#0000ff;stroke-width:1.5;"/>
    <path clip-path="url(#p4c11ee5a59)" d="M 137.572174 95.951192 
L 137.572174 64.400125 
" style="fill:none;stroke:#0000ff;stroke-width:1.5;"/>
    <path clip-path="url(#p4c11ee5a59)" d="M 141.050435 85.022582 
L 141.050435 53.471516 
" style="fill:none;stroke:#0000ff;stroke-width:1.5;"/>
    <path clip-path="url(#p4c11ee5a59)" d="M 148.006957 93.157348 
L 148.006957 61.606282 
" style="fill:none;stroke:#0000ff;stroke-width:1.5;"/>
    <path clip-path="url(#p4c11ee5a59)" d="M 154.963478 94.222366 
L 154.963478 62.6713 
" style="fill:none;stroke:#0000ff;stroke-width:1.5;"/>
    <path clip-path="url(#p4c11ee5a59)" d="M 158.441739 90.864421 
L 158.441739 59.313355 
" style="fill:none;stroke:#0000ff;stroke-width:1.5;"/>
    <path clip-path="url(#p4c11ee5a59)" d="M 165.398261 95.951336 
L 165.398261 64.400269 
" style="fill:none;stroke:#0000ff;stroke-width:1.5;"/>
    <path clip-path="url(#p4c11ee5a59)" d="M 168.876522 82.711825 
L 168.876522 51.160759 
" style="fill:none;stroke:#0000ff;stroke-width:1.5;"/>
    <path clip-path="url(#p4c11ee5a59)" d="M 172.354783 97.178121 
L 172.354783 65.627054 
" style="fill:none;stroke:#0000ff;stroke-width:1.5;"/>
    <path clip-path="url(#p4c11ee5a59)" d="M 175.833043 80.936168 
L 175.833043 49.385102 
" style="fill:none;stroke:#0000ff;stroke-width:1.5;"/>
    <path clip-path="url(#p4c11ee5a59)" d="M 179.311304 87.306888 
L 179.311304 55.755821 
" style="fill:none;stroke:#0000ff;stroke-width:1.5;"/>
    <path clip-path="url(#p4c11ee5a59)" d="M 182.789565 91.219669 
L 182.789565 59.668603 
" style="fill:none;stroke:#0000ff;stroke-width:1.5;"/>
    <path clip-path="url(#p4c11ee5a59)" d="M 186.267826 85.319875 
L 186.267826 53.768809 
" style="fill:none;stroke:#0000ff;stroke-width:1.5;"/>
    <path clip-path="url(#p4c11ee5a59)" d="M 189.746087 96.170144 
L 189.746087 64.619077 
" style="fill:none;stroke:#0000ff;stroke-width:1.5;"/>
    <path clip-path="url(#p4c11ee5a59)" d="M 193.224348 92.981283 
L 193.224348 61.430216 
" style="fill:none;stroke:#0000ff;stroke-width:1.5;"/>
    <path clip-path="url(#p4c11ee5a59)" d="M 196.702609 93.568829 
L 196.702609 62.017763 
" style="fill:none;stroke:#0000ff;stroke-width:1.5;"/>
    <path clip-path="url(#p4c11ee5a59)" d="M 203.65913 94.730996 
L 203.65913 63.179929 
" style="fill:none;stroke:#0000ff;stroke-width:1.5;"/>
    <path clip-path="url(#p4c11ee5a59)" d="M 207.137391 85.526933 
L 207.137391 53.975866 
" style="fill:none;stroke:#0000ff;stroke-width:1.5;"/>
    <path clip-path="url(#p4c11ee5a59)" d="M 210.615652 89.022025 
L 210.615652 57.470958 
" style="fill:none;stroke:#0000ff;stroke-width:1.5;"/>
    <path clip-path="url(#p4c11ee5a59)" d="M 214.093913 89.520479 
L 214.093913 57.969413 
" style="fill:none;stroke:#0000ff;stroke-width:1.5;"/>
    <path clip-path="url(#p4c11ee5a59)" d="M 217.572174 100.959974 
L 217.572174 69.408908 
" style="fill:none;stroke:#0000ff;stroke-width:1.5;"/>
    <path clip-path="url(#p4c11ee5a59)" d="M 221.050435 77.07648 
L 221.050435 45.525413 
" style="fill:none;stroke:#0000ff;stroke-width:1.5;"/>
    <path clip-path="url(#p4c11ee5a59)" d="M 224.528696 97.940598 
L 224.528696 66.389532 
" style="fill:none;stroke:#0000ff;stroke-width:1.5;"/>
    <path clip-path="url(#p4c11ee5a59)" d="M 228.006957 102.512629 
L 228.006957 70.961563 
" style="fill:none;stroke:#0000ff;stroke-width:1.5;"/>
    <path clip-path="url(#p4c11ee5a59)" d="M 231.485217 85.757679 
L 231.485217 54.206613 
" style="fill:none;stroke:#0000ff;stroke-width:1.5;"/>
    <path clip-path="url(#p4c11ee5a59)" d="M 234.963478 95.534921 
L 234.963478 63.983854 
" style="fill:none;stroke:#0000ff;stroke-width:1.5;"/>
    <path clip-path="url(#p4c11ee5a59)" d="M 238.441739 95.903573 
L 238.441739 64.352507 
" style="fill:none;stroke:#0000ff;stroke-width:1.5;"/>
    <path clip-path="url(#p4c11ee5a59)" d="M 241.92 86.736314 
L 241.92 55.185247 
" style="fill:none;stroke:#0000ff;stroke-width:1.5;"/>
    <path clip-path="url(#p4c11ee5a59)" d="M 245.398261 87.008148 
L 245.398261 55.457082 
" style="fill:none;stroke:#0000ff;stroke-width:1.5;"/>
    <path clip-path="url(#p4c11ee5a59)" d="M 248.876522 87.250284 
L 248.876522 55.699218 
" style="fill:none;stroke:#0000ff;stroke-width:1.5;"/>
    <path clip-path="url(#p4c11ee5a59)" d="M 252.354783 100.869047 
L 252.354783 69.31798 
" style="fill:none;stroke:#0000ff;stroke-width:1.5;"/>
    <path clip-path="url(#p4c11ee5a59)" d="M 255.833043 75.362348 
L 255.833043 43.811281 
" style="fill:none;stroke:#0000ff;stroke-width:1.5;"/>
    <path clip-path="url(#p4c11ee5a59)" d="M 259.311304 79.994529 
L 259.311304 48.443462 
" style="fill:none;stroke:#0000ff;stroke-width:1.5;"/>
    <path clip-path="url(#p4c11ee5a59)" d="M 262.789565 94.066476 
L 262.789565 62.515409 
" style="fill:none;stroke:#0000ff;stroke-width:1.5;"/>
    <path clip-path="url(#p4c11ee5a59)" d="M 266.267826 97.640449 
L 266.267826 66.089383 
" style="fill:none;stroke:#0000ff;stroke-width:1.5;"/>
    <path clip-path="url(#p4c11ee5a59)" d="M 269.746087 110.623533 
L 269.746087 79.072467 
" style="fill:none;stroke:#0000ff;stroke-width:1.5;"/>
    <path clip-path="url(#p4c11ee5a59)" d="M 273.224348 101.53666 
L 273.224348 69.985594 
" style="fill:none;stroke:#0000ff;stroke-width:1.5;"/>
    <path clip-path="url(#p4c11ee5a59)" d="M 276.702609 62.623533 
L 276.702609 31.072467 
" style="fill:none;stroke:#0000ff;stroke-width:1.5;"/>
    <path clip-path="url(#p4c11ee5a59)" d="M 280.18087 85.16857 
L 280.18087 53.617504 
" style="fill:none;stroke:#0000ff;stroke-width:1.5;"/>
    <path clip-path="url(#p4c11ee5a59)" d="M 283.65913 97.48403 
L 283.65913 65.932964 
" style="fill:none;stroke:#0000ff;stroke-width:1.5;"/>
    <path clip-path="url(#p4c11ee5a59)" d="M 287.137391 77.612195 
L 287.137391 46.061129 
" style="fill:none;stroke:#0000ff;stroke-width:1.5;"/>
    <path clip-path="url(#p4c11ee5a59)" d="M 290.615652 87.539963 
L 290.615652 55.988896 
" style="fill:none;stroke:#0000ff;stroke-width:1.5;"/>
    <path clip-path="url(#p4c11ee5a59)" d="M 294.093913 73.021829 
L 294.093913 41.470763 
" style="fill:none;stroke:#0000ff;stroke-width:1.5;"/>
    <path clip-path="url(#p4c11ee5a59)" d="M 297.572174 87.112705 
L 297.572174 55.561639 
" style="fill:none;stroke:#0000ff;stroke-width:1.5;"/>
    <path clip-path="url(#p4c11ee5a59)" d="M 301.050435 104.346492 
L 301.050435 72.795425 
" style="fill:none;stroke:#0000ff;stroke-width:1.5;"/>
    <path clip-path="url(#p4c11ee5a59)" d="M 304.528696 81.292622 
L 304.528696 49.741556 
" style="fill:none;stroke:#0000ff;stroke-width:1.5;"/>
    <path clip-path="url(#p4c11ee5a59)" d="M 308.006957 86.248713 
L 308.006957 54.697647 
" style="fill:none;stroke:#0000ff;stroke-width:1.5;"/>
    <path clip-path="url(#p4c11ee5a59)" d="M 311.485217 99.029996 
L 311.485217 67.478929 
" style="fill:none;stroke:#0000ff;stroke-width:1.5;"/>
    <path clip-path="url(#p4c11ee5a59)" d="M 314.963478 94.894324 
L 314.963478 63.343258 
" style="fill:none;stroke:#0000ff;stroke-width:1.5;"/>
    <path clip-path="url(#p4c11ee5a59)" d="M 318.441739 77.605712 
L 318.441739 46.054646 
" style="fill:none;stroke:#0000ff;stroke-width:1.5;"/>
    <path clip-path="url(#p4c11ee5a59)" d="M 321.92 97.656314 
L 321.92 66.105248 
" style="fill:none;stroke:#0000ff;stroke-width:1.5;"/>
    <path clip-path="url(#p4c11ee5a59)" d="M 328.876522 105.146427 
L 328.876522 73.59536 
" style="fill:none;stroke:#0000ff;stroke-width:1.5;"/>
    <path clip-path="url(#p4c11ee5a59)" d="M 332.354783 100.066926 
L 332.354783 68.51586 
" style="fill:none;stroke:#0000ff;stroke-width:1.5;"/>
    <path clip-path="url(#p4c11ee5a59)" d="M 335.833043 82.953567 
L 335.833043 51.402501 
" style="fill:none;stroke:#0000ff;stroke-width:1.5;"/>
    <path clip-path="url(#p4c11ee5a59)" d="M 339.311304 82.475438 
L 339.311304 50.924372 
" style="fill:none;stroke:#0000ff;stroke-width:1.5;"/>
    <path clip-path="url(#p4c11ee5a59)" d="M 342.789565 94.394543 
L 342.789565 62.843477 
" style="fill:none;stroke:#0000ff;stroke-width:1.5;"/>
    <path clip-path="url(#p4c11ee5a59)" d="M 346.267826 87.15302 
L 346.267826 55.601954 
" style="fill:none;stroke:#0000ff;stroke-width:1.5;"/>
    <path clip-path="url(#p4c11ee5a59)" d="M 356.702609 82.675048 
L 356.702609 51.123982 
" style="fill:none;stroke:#0000ff;stroke-width:1.5;"/>
    <path clip-path="url(#p4c11ee5a59)" d="M 394.963478 93.372951 
L 394.963478 61.821885 
" style="fill:none;stroke:#0000ff;stroke-width:1.5;"/>
    <path clip-path="url(#p4c11ee5a59)" d="M 401.92 96.659308 
L 401.92 65.108242 
" style="fill:none;stroke:#0000ff;stroke-width:1.5;"/>
   </g>
   <g id="line2d_10">
    <path clip-path="url(#p4c11ee5a59)" d="M 81.92 75.519867 
L 401.92 75.519867 
" style="fill:none;stroke:#ff0000;stroke-linecap:square;stroke-width:1.5;"/>
   </g>
   <g id="line2d_11">
    <defs>
     <path d="M -3 0 
L 3 0 
M 0 3 
L 0 -3 
" id="mca4c138db6" style="stroke:#0000ff;"/>
    </defs>
    <g clip-path="url(#p4c11ee5a59)">
     <use style="fill:#0000ff;stroke:#0000ff;" x="81.92" xlink:href="#mca4c138db6" y="75.102292"/>
     <use style="fill:#0000ff;stroke:#0000ff;" x="102.789565" xlink:href="#mca4c138db6" y="76.421784"/>
     <use style="fill:#0000ff;stroke:#0000ff;" x="134.093913" xlink:href="#mca4c138db6" y="68.436678"/>
     <use style="fill:#0000ff;stroke:#0000ff;" x="137.572174" xlink:href="#mca4c138db6" y="80.175658"/>
     <use style="fill:#0000ff;stroke:#0000ff;" x="141.050435" xlink:href="#mca4c138db6" y="69.247049"/>
     <use style="fill:#0000ff;stroke:#0000ff;" x="148.006957" xlink:href="#mca4c138db6" y="77.381815"/>
     <use style="fill:#0000ff;stroke:#0000ff;" x="154.963478" xlink:href="#mca4c138db6" y="78.446833"/>
     <use style="fill:#0000ff;stroke:#0000ff;" x="158.441739" xlink:href="#mca4c138db6" y="75.088888"/>
     <use style="fill:#0000ff;stroke:#0000ff;" x="165.398261" xlink:href="#mca4c138db6" y="80.175802"/>
     <use style="fill:#0000ff;stroke:#0000ff;" x="168.876522" xlink:href="#mca4c138db6" y="66.936292"/>
     <use style="fill:#0000ff;stroke:#0000ff;" x="172.354783" xlink:href="#mca4c138db6" y="81.402587"/>
     <use style="fill:#0000ff;stroke:#0000ff;" x="175.833043" xlink:href="#mca4c138db6" y="65.160635"/>
     <use style="fill:#0000ff;stroke:#0000ff;" x="179.311304" xlink:href="#mca4c138db6" y="71.531354"/>
     <use style="fill:#0000ff;stroke:#0000ff;" x="182.789565" xlink:href="#mca4c138db6" y="75.444136"/>
     <use style="fill:#0000ff;stroke:#0000ff;" x="186.267826" xlink:href="#mca4c138db6" y="69.544342"/>
     <use style="fill:#0000ff;stroke:#0000ff;" x="189.746087" xlink:href="#mca4c138db6" y="80.39461"/>
     <use style="fill:#0000ff;stroke:#0000ff;" x="193.224348" xlink:href="#mca4c138db6" y="77.205749"/>
     <use style="fill:#0000ff;stroke:#0000ff;" x="196.702609" xlink:href="#mca4c138db6" y="77.793296"/>
     <use style="fill:#0000ff;stroke:#0000ff;" x="203.65913" xlink:href="#mca4c138db6" y="78.955463"/>
     <use style="fill:#0000ff;stroke:#0000ff;" x="207.137391" xlink:href="#mca4c138db6" y="69.7514"/>
     <use style="fill:#0000ff;stroke:#0000ff;" x="210.615652" xlink:href="#mca4c138db6" y="73.246492"/>
     <use style="fill:#0000ff;stroke:#0000ff;" x="214.093913" xlink:href="#mca4c138db6" y="73.744946"/>
     <use style="fill:#0000ff;stroke:#0000ff;" x="217.572174" xlink:href="#mca4c138db6" y="85.184441"/>
     <use style="fill:#0000ff;stroke:#0000ff;" x="221.050435" xlink:href="#mca4c138db6" y="61.300947"/>
     <use style="fill:#0000ff;stroke:#0000ff;" x="224.528696" xlink:href="#mca4c138db6" y="82.165065"/>
     <use style="fill:#0000ff;stroke:#0000ff;" x="228.006957" xlink:href="#mca4c138db6" y="86.737096"/>
     <use style="fill:#0000ff;stroke:#0000ff;" x="231.485217" xlink:href="#mca4c138db6" y="69.982146"/>
     <use style="fill:#0000ff;stroke:#0000ff;" x="234.963478" xlink:href="#mca4c138db6" y="79.759388"/>
     <use style="fill:#0000ff;stroke:#0000ff;" x="238.441739" xlink:href="#mca4c138db6" y="80.12804"/>
     <use style="fill:#0000ff;stroke:#0000ff;" x="241.92" xlink:href="#mca4c138db6" y="70.96078"/>
     <use style="fill:#0000ff;stroke:#0000ff;" x="245.398261" xlink:href="#mca4c138db6" y="71.232615"/>
     <use style="fill:#0000ff;stroke:#0000ff;" x="248.876522" xlink:href="#mca4c138db6" y="71.474751"/>
     <use style="fill:#0000ff;stroke:#0000ff;" x="252.354783" xlink:href="#mca4c138db6" y="85.093513"/>
     <use style="fill:#0000ff;stroke:#0000ff;" x="255.833043" xlink:href="#mca4c138db6" y="59.586815"/>
     <use style="fill:#0000ff;stroke:#0000ff;" x="259.311304" xlink:href="#mca4c138db6" y="64.218996"/>
     <use style="fill:#0000ff;stroke:#0000ff;" x="262.789565" xlink:href="#mca4c138db6" y="78.290942"/>
     <use style="fill:#0000ff;stroke:#0000ff;" x="266.267826" xlink:href="#mca4c138db6" y="81.864916"/>
     <use style="fill:#0000ff;stroke:#0000ff;" x="269.746087" xlink:href="#mca4c138db6" y="94.848"/>
     <use style="fill:#0000ff;stroke:#0000ff;" x="273.224348" xlink:href="#mca4c138db6" y="85.761127"/>
     <use style="fill:#0000ff;stroke:#0000ff;" x="276.702609" xlink:href="#mca4c138db6" y="46.848"/>
     <use style="fill:#0000ff;stroke:#0000ff;" x="280.18087" xlink:href="#mca4c138db6" y="69.393037"/>
     <use style="fill:#0000ff;stroke:#0000ff;" x="283.65913" xlink:href="#mca4c138db6" y="81.708497"/>
     <use style="fill:#0000ff;stroke:#0000ff;" x="287.137391" xlink:href="#mca4c138db6" y="61.836662"/>
     <use style="fill:#0000ff;stroke:#0000ff;" x="290.615652" xlink:href="#mca4c138db6" y="71.764429"/>
     <use style="fill:#0000ff;stroke:#0000ff;" x="294.093913" xlink:href="#mca4c138db6" y="57.246296"/>
     <use style="fill:#0000ff;stroke:#0000ff;" x="297.572174" xlink:href="#mca4c138db6" y="71.337172"/>
     <use style="fill:#0000ff;stroke:#0000ff;" x="301.050435" xlink:href="#mca4c138db6" y="88.570959"/>
     <use style="fill:#0000ff;stroke:#0000ff;" x="304.528696" xlink:href="#mca4c138db6" y="65.517089"/>
     <use style="fill:#0000ff;stroke:#0000ff;" x="308.006957" xlink:href="#mca4c138db6" y="70.47318"/>
     <use style="fill:#0000ff;stroke:#0000ff;" x="311.485217" xlink:href="#mca4c138db6" y="83.254463"/>
     <use style="fill:#0000ff;stroke:#0000ff;" x="314.963478" xlink:href="#mca4c138db6" y="79.118791"/>
     <use style="fill:#0000ff;stroke:#0000ff;" x="318.441739" xlink:href="#mca4c138db6" y="61.830179"/>
     <use style="fill:#0000ff;stroke:#0000ff;" x="321.92" xlink:href="#mca4c138db6" y="81.880781"/>
     <use style="fill:#0000ff;stroke:#0000ff;" x="328.876522" xlink:href="#mca4c138db6" y="89.370893"/>
     <use style="fill:#0000ff;stroke:#0000ff;" x="332.354783" xlink:href="#mca4c138db6" y="84.291393"/>
     <use style="fill:#0000ff;stroke:#0000ff;" x="335.833043" xlink:href="#mca4c138db6" y="67.178034"/>
     <use style="fill:#0000ff;stroke:#0000ff;" x="339.311304" xlink:href="#mca4c138db6" y="66.699905"/>
     <use style="fill:#0000ff;stroke:#0000ff;" x="342.789565" xlink:href="#mca4c138db6" y="78.61901"/>
     <use style="fill:#0000ff;stroke:#0000ff;" x="346.267826" xlink:href="#mca4c138db6" y="71.377487"/>
     <use style="fill:#0000ff;stroke:#0000ff;" x="356.702609" xlink:href="#mca4c138db6" y="66.899515"/>
     <use style="fill:#0000ff;stroke:#0000ff;" x="394.963478" xlink:href="#mca4c138db6" y="77.597418"/>
     <use style="fill:#0000ff;stroke:#0000ff;" x="401.92" xlink:href="#mca4c138db6" y="80.883775"/>
    </g>
   </g>
   <g id="patch_3">
    <path d="M 69.12 96.768 
L 69.12 44.928 
" style="fill:none;stroke:#000000;stroke-linecap:square;stroke-linejoin:miter;stroke-width:0.8;"/>
   </g>
   <g id="patch_4">
    <path d="M 414.72 96.768 
L 414.72 44.928 
" style="fill:none;stroke:#000000;stroke-linecap:square;stroke-linejoin:miter;stroke-width:0.8;"/>
   </g>
   <g id="patch_5">
    <path d="M 69.12 96.768 
L 414.72 96.768 
" style="fill:none;stroke:#000000;stroke-linecap:square;stroke-linejoin:miter;stroke-width:0.8;"/>
   </g>
   <g id="patch_6">
    <path d="M 69.12 44.928 
L 414.72 44.928 
" style="fill:none;stroke:#000000;stroke-linecap:square;stroke-linejoin:miter;stroke-width:0.8;"/>
   </g>
   <g id="text_4">
    <!-- Function (0/0): y = a*exp(-(x-x0)**2/w**2)+b -->
    <defs>
     <path d="M 9.8125 72.90625 
L 51.703125 72.90625 
L 51.703125 64.59375 
L 19.671875 64.59375 
L 19.671875 43.109375 
L 48.578125 43.109375 
L 48.578125 34.8125 
L 19.671875 34.8125 
L 19.671875 0 
L 9.8125 0 
z
" id="DejaVuSans-46"/>
     <path d="M 48.78125 52.59375 
L 48.78125 44.1875 
Q 44.96875 46.296875 41.140625 47.34375 
Q 37.3125 48.390625 33.40625 48.390625 
Q 24.65625 48.390625 19.8125 42.84375 
Q 14.984375 37.3125 14.984375 27.296875 
Q 14.984375 17.28125 19.8125 11.734375 
Q 24.65625 6.203125 33.40625 6.203125 
Q 37.3125 6.203125 41.140625 7.25 
Q 44.96875 8.296875 48.78125 10.40625 
L 48.78125 2.09375 
Q 45.015625 0.34375 40.984375 -0.53125 
Q 36.96875 -1.421875 32.421875 -1.421875 
Q 20.0625 -1.421875 12.78125 6.34375 
Q 5.515625 14.109375 5.515625 27.296875 
Q 5.515625 40.671875 12.859375 48.328125 
Q 20.21875 56 33.015625 56 
Q 37.15625 56 41.109375 55.140625 
Q 45.0625 54.296875 48.78125 52.59375 
z
" id="DejaVuSans-63"/>
     <path d="M 30.609375 48.390625 
Q 23.390625 48.390625 19.1875 42.75 
Q 14.984375 37.109375 14.984375 27.296875 
Q 14.984375 17.484375 19.15625 11.84375 
Q 23.34375 6.203125 30.609375 6.203125 
Q 37.796875 6.203125 41.984375 11.859375 
Q 46.1875 17.53125 46.1875 27.296875 
Q 46.1875 37.015625 41.984375 42.703125 
Q 37.796875 48.390625 30.609375 48.390625 
z
M 30.609375 56 
Q 42.328125 56 49.015625 48.375 
Q 55.71875 40.765625 55.71875 27.296875 
Q 55.71875 13.875 49.015625 6.21875 
Q 42.328125 -1.421875 30.609375 -1.421875 
Q 18.84375 -1.421875 12.171875 6.21875 
Q 5.515625 13.875 5.515625 27.296875 
Q 5.515625 40.765625 12.171875 48.375 
Q 18.84375 56 30.609375 56 
z
" id="DejaVuSans-6f"/>
     <path id="DejaVuSans-20"/>
     <path d="M 31 75.875 
Q 24.46875 64.65625 21.28125 53.65625 
Q 18.109375 42.671875 18.109375 31.390625 
Q 18.109375 20.125 21.3125 9.0625 
Q 24.515625 -2 31 -13.1875 
L 23.1875 -13.1875 
Q 15.875 -1.703125 12.234375 9.375 
Q 8.59375 20.453125 8.59375 31.390625 
Q 8.59375 42.28125 12.203125 53.3125 
Q 15.828125 64.359375 23.1875 75.875 
z
" id="DejaVuSans-28"/>
     <path d="M 31.78125 66.40625 
Q 24.171875 66.40625 20.328125 58.90625 
Q 16.5 51.421875 16.5 36.375 
Q 16.5 21.390625 20.328125 13.890625 
Q 24.171875 6.390625 31.78125 6.390625 
Q 39.453125 6.390625 43.28125 13.890625 
Q 47.125 21.390625 47.125 36.375 
Q 47.125 51.421875 43.28125 58.90625 
Q 39.453125 66.40625 31.78125 66.40625 
z
M 31.78125 74.21875 
Q 44.046875 74.21875 50.515625 64.515625 
Q 56.984375 54.828125 56.984375 36.375 
Q 56.984375 17.96875 50.515625 8.265625 
Q 44.046875 -1.421875 31.78125 -1.421875 
Q 19.53125 -1.421875 13.0625 8.265625 
Q 6.59375 17.96875 6.59375 36.375 
Q 6.59375 54.828125 13.0625 64.515625 
Q 19.53125 74.21875 31.78125 74.21875 
z
" id="DejaVuSans-30"/>
     <path d="M 25.390625 72.90625 
L 33.6875 72.90625 
L 8.296875 -9.28125 
L 0 -9.28125 
z
" id="DejaVuSans-2f"/>
     <path d="M 8.015625 75.875 
L 15.828125 75.875 
Q 23.140625 64.359375 26.78125 53.3125 
Q 30.421875 42.28125 30.421875 31.390625 
Q 30.421875 20.453125 26.78125 9.375 
Q 23.140625 -1.703125 15.828125 -13.1875 
L 8.015625 -13.1875 
Q 14.5 -2 17.703125 9.0625 
Q 20.90625 20.125 20.90625 31.390625 
Q 20.90625 42.671875 17.703125 53.65625 
Q 14.5 64.65625 8.015625 75.875 
z
" id="DejaVuSans-29"/>
     <path d="M 11.71875 12.40625 
L 22.015625 12.40625 
L 22.015625 0 
L 11.71875 0 
z
M 11.71875 51.703125 
L 22.015625 51.703125 
L 22.015625 39.3125 
L 11.71875 39.3125 
z
" id="DejaVuSans-3a"/>
     <path d="M 32.171875 -5.078125 
Q 28.375 -14.84375 24.75 -17.8125 
Q 21.140625 -20.796875 15.09375 -20.796875 
L 7.90625 -20.796875 
L 7.90625 -13.28125 
L 13.1875 -13.28125 
Q 16.890625 -13.28125 18.9375 -11.515625 
Q 21 -9.765625 23.484375 -3.21875 
L 25.09375 0.875 
L 2.984375 54.6875 
L 12.5 54.6875 
L 29.59375 11.921875 
L 46.6875 54.6875 
L 56.203125 54.6875 
z
" id="DejaVuSans-79"/>
     <path d="M 10.59375 45.40625 
L 73.1875 45.40625 
L 73.1875 37.203125 
L 10.59375 37.203125 
z
M 10.59375 25.484375 
L 73.1875 25.484375 
L 73.1875 17.1875 
L 10.59375 17.1875 
z
" id="DejaVuSans-3d"/>
     <path d="M 47.015625 60.890625 
L 29.5 51.421875 
L 47.015625 41.890625 
L 44.1875 37.109375 
L 27.78125 47.015625 
L 27.78125 28.609375 
L 22.21875 28.609375 
L 22.21875 47.015625 
L 5.8125 37.109375 
L 2.984375 41.890625 
L 20.515625 51.421875 
L 2.984375 60.890625 
L 5.8125 65.71875 
L 22.21875 55.8125 
L 22.21875 74.21875 
L 27.78125 74.21875 
L 27.78125 55.8125 
L 44.1875 65.71875 
z
" id="DejaVuSans-2a"/>
     <path d="M 54.890625 54.6875 
L 35.109375 28.078125 
L 55.90625 0 
L 45.3125 0 
L 29.390625 21.484375 
L 13.484375 0 
L 2.875 0 
L 24.125 28.609375 
L 4.6875 54.6875 
L 15.28125 54.6875 
L 29.78125 35.203125 
L 44.28125 54.6875 
z
" id="DejaVuSans-78"/>
     <path d="M 18.109375 8.203125 
L 18.109375 -20.796875 
L 9.078125 -20.796875 
L 9.078125 54.6875 
L 18.109375 54.6875 
L 18.109375 46.390625 
Q 20.953125 51.265625 25.265625 53.625 
Q 29.59375 56 35.59375 56 
Q 45.5625 56 51.78125 48.09375 
Q 58.015625 40.1875 58.015625 27.296875 
Q 58.015625 14.40625 51.78125 6.484375 
Q 45.5625 -1.421875 35.59375 -1.421875 
Q 29.59375 -1.421875 25.265625 0.953125 
Q 20.953125 3.328125 18.109375 8.203125 
z
M 48.6875 27.296875 
Q 48.6875 37.203125 44.609375 42.84375 
Q 40.53125 48.484375 33.40625 48.484375 
Q 26.265625 48.484375 22.1875 42.84375 
Q 18.109375 37.203125 18.109375 27.296875 
Q 18.109375 17.390625 22.1875 11.75 
Q 26.265625 6.109375 33.40625 6.109375 
Q 40.53125 6.109375 44.609375 11.75 
Q 48.6875 17.390625 48.6875 27.296875 
z
" id="DejaVuSans-70"/>
     <path d="M 4.890625 31.390625 
L 31.203125 31.390625 
L 31.203125 23.390625 
L 4.890625 23.390625 
z
" id="DejaVuSans-2d"/>
     <path d="M 19.1875 8.296875 
L 53.609375 8.296875 
L 53.609375 0 
L 7.328125 0 
L 7.328125 8.296875 
Q 12.9375 14.109375 22.625 23.890625 
Q 32.328125 33.6875 34.8125 36.53125 
Q 39.546875 41.84375 41.421875 45.53125 
Q 43.3125 49.21875 43.3125 52.78125 
Q 43.3125 58.59375 39.234375 62.25 
Q 35.15625 65.921875 28.609375 65.921875 
Q 23.96875 65.921875 18.8125 64.3125 
Q 13.671875 62.703125 7.8125 59.421875 
L 7.8125 69.390625 
Q 13.765625 71.78125 18.9375 73 
Q 24.125 74.21875 28.421875 74.21875 
Q 39.75 74.21875 46.484375 68.546875 
Q 53.21875 62.890625 53.21875 53.421875 
Q 53.21875 48.921875 51.53125 44.890625 
Q 49.859375 40.875 45.40625 35.40625 
Q 44.1875 33.984375 37.640625 27.21875 
Q 31.109375 20.453125 19.1875 8.296875 
z
" id="DejaVuSans-32"/>
     <path d="M 4.203125 54.6875 
L 13.1875 54.6875 
L 24.421875 12.015625 
L 35.59375 54.6875 
L 46.1875 54.6875 
L 57.421875 12.015625 
L 68.609375 54.6875 
L 77.59375 54.6875 
L 63.28125 0 
L 52.6875 0 
L 40.921875 44.828125 
L 29.109375 0 
L 18.5 0 
z
" id="DejaVuSans-77"/>
     <path d="M 46 62.703125 
L 46 35.5 
L 73.1875 35.5 
L 73.1875 27.203125 
L 46 27.203125 
L 46 0 
L 37.796875 0 
L 37.796875 27.203125 
L 10.59375 27.203125 
L 10.59375 35.5 
L 37.796875 35.5 
L 37.796875 62.703125 
z
" id="DejaVuSans-2b"/>
     <path d="M 48.6875 27.296875 
Q 48.6875 37.203125 44.609375 42.84375 
Q 40.53125 48.484375 33.40625 48.484375 
Q 26.265625 48.484375 22.1875 42.84375 
Q 18.109375 37.203125 18.109375 27.296875 
Q 18.109375 17.390625 22.1875 11.75 
Q 26.265625 6.109375 33.40625 6.109375 
Q 40.53125 6.109375 44.609375 11.75 
Q 48.6875 17.390625 48.6875 27.296875 
z
M 18.109375 46.390625 
Q 20.953125 51.265625 25.265625 53.625 
Q 29.59375 56 35.59375 56 
Q 45.5625 56 51.78125 48.09375 
Q 58.015625 40.1875 58.015625 27.296875 
Q 58.015625 14.40625 51.78125 6.484375 
Q 45.5625 -1.421875 35.59375 -1.421875 
Q 29.59375 -1.421875 25.265625 0.953125 
Q 20.953125 3.328125 18.109375 8.203125 
L 18.109375 0 
L 9.078125 0 
L 9.078125 75.984375 
L 18.109375 75.984375 
z
" id="DejaVuSans-62"/>
    </defs>
    <g transform="translate(69.12 27.730187)scale(0.1 -0.1)">
     <use xlink:href="#DejaVuSans-46"/>
     <use x="57.441406" xlink:href="#DejaVuSans-75"/>
     <use x="120.820312" xlink:href="#DejaVuSans-6e"/>
     <use x="184.199219" xlink:href="#DejaVuSans-63"/>
     <use x="239.179688" xlink:href="#DejaVuSans-74"/>
     <use x="278.388672" xlink:href="#DejaVuSans-69"/>
     <use x="306.171875" xlink:href="#DejaVuSans-6f"/>
     <use x="367.353516" xlink:href="#DejaVuSans-6e"/>
     <use x="430.732422" xlink:href="#DejaVuSans-20"/>
     <use x="462.519531" xlink:href="#DejaVuSans-28"/>
     <use x="501.533203" xlink:href="#DejaVuSans-30"/>
     <use x="565.15625" xlink:href="#DejaVuSans-2f"/>
     <use x="598.847656" xlink:href="#DejaVuSans-30"/>
     <use x="662.470703" xlink:href="#DejaVuSans-29"/>
     <use x="701.484375" xlink:href="#DejaVuSans-3a"/>
     <use x="735.175781" xlink:href="#DejaVuSans-20"/>
     <use x="766.962891" xlink:href="#DejaVuSans-79"/>
     <use x="826.142578" xlink:href="#DejaVuSans-20"/>
     <use x="857.929688" xlink:href="#DejaVuSans-3d"/>
     <use x="941.71875" xlink:href="#DejaVuSans-20"/>
     <use x="973.505859" xlink:href="#DejaVuSans-61"/>
     <use x="1034.785156" xlink:href="#DejaVuSans-2a"/>
     <use x="1084.785156" xlink:href="#DejaVuSans-65"/>
     <use x="1146.292969" xlink:href="#DejaVuSans-78"/>
     <use x="1205.472656" xlink:href="#DejaVuSans-70"/>
     <use x="1268.949219" xlink:href="#DejaVuSans-28"/>
     <use x="1307.962891" xlink:href="#DejaVuSans-2d"/>
     <use x="1344.046875" xlink:href="#DejaVuSans-28"/>
     <use x="1383.060547" xlink:href="#DejaVuSans-78"/>
     <use x="1442.240234" xlink:href="#DejaVuSans-2d"/>
     <use x="1478.324219" xlink:href="#DejaVuSans-78"/>
     <use x="1537.503906" xlink:href="#DejaVuSans-30"/>
     <use x="1601.126953" xlink:href="#DejaVuSans-29"/>
     <use x="1640.140625" xlink:href="#DejaVuSans-2a"/>
     <use x="1690.140625" xlink:href="#DejaVuSans-2a"/>
     <use x="1740.140625" xlink:href="#DejaVuSans-32"/>
     <use x="1803.763672" xlink:href="#DejaVuSans-2f"/>
     <use x="1837.455078" xlink:href="#DejaVuSans-77"/>
     <use x="1919.242188" xlink:href="#DejaVuSans-2a"/>
     <use x="1969.242188" xlink:href="#DejaVuSans-2a"/>
     <use x="2019.242188" xlink:href="#DejaVuSans-32"/>
     <use x="2082.865234" xlink:href="#DejaVuSans-29"/>
     <use x="2121.878906" xlink:href="#DejaVuSans-2b"/>
     <use x="2205.667969" xlink:href="#DejaVuSans-62"/>
    </g>
    <!-- Fit: a=3.2$\pm$1.9, b=3.2$\pm$2.1, x0=4.289$\pm$0.031, w=0.2$\pm$0.13, -->
    <defs>
     <path d="M 40.578125 39.3125 
Q 47.65625 37.796875 51.625 33 
Q 55.609375 28.21875 55.609375 21.1875 
Q 55.609375 10.40625 48.1875 4.484375 
Q 40.765625 -1.421875 27.09375 -1.421875 
Q 22.515625 -1.421875 17.65625 -0.515625 
Q 12.796875 0.390625 7.625 2.203125 
L 7.625 11.71875 
Q 11.71875 9.328125 16.59375 8.109375 
Q 21.484375 6.890625 26.8125 6.890625 
Q 36.078125 6.890625 40.9375 10.546875 
Q 45.796875 14.203125 45.796875 21.1875 
Q 45.796875 27.640625 41.28125 31.265625 
Q 36.765625 34.90625 28.71875 34.90625 
L 20.21875 34.90625 
L 20.21875 43.015625 
L 29.109375 43.015625 
Q 36.375 43.015625 40.234375 45.921875 
Q 44.09375 48.828125 44.09375 54.296875 
Q 44.09375 59.90625 40.109375 62.90625 
Q 36.140625 65.921875 28.71875 65.921875 
Q 24.65625 65.921875 20.015625 65.03125 
Q 15.375 64.15625 9.8125 62.3125 
L 9.8125 71.09375 
Q 15.4375 72.65625 20.34375 73.4375 
Q 25.25 74.21875 29.59375 74.21875 
Q 40.828125 74.21875 47.359375 69.109375 
Q 53.90625 64.015625 53.90625 55.328125 
Q 53.90625 49.265625 50.4375 45.09375 
Q 46.96875 40.921875 40.578125 39.3125 
z
" id="DejaVuSans-33"/>
     <path d="M 10.6875 12.40625 
L 21 12.40625 
L 21 0 
L 10.6875 0 
z
" id="DejaVuSans-2e"/>
     <path d="M 46 62.703125 
L 46 43.796875 
L 73.1875 43.796875 
L 73.1875 35.5 
L 46 35.5 
L 46 16.609375 
L 37.796875 16.609375 
L 37.796875 35.5 
L 10.59375 35.5 
L 10.59375 43.796875 
L 37.796875 43.796875 
L 37.796875 62.703125 
z
M 10.59375 8.296875 
L 73.1875 8.296875 
L 73.1875 0 
L 10.59375 0 
z
" id="DejaVuSans-b1"/>
     <path d="M 10.984375 1.515625 
L 10.984375 10.5 
Q 14.703125 8.734375 18.5 7.8125 
Q 22.3125 6.890625 25.984375 6.890625 
Q 35.75 6.890625 40.890625 13.453125 
Q 46.046875 20.015625 46.78125 33.40625 
Q 43.953125 29.203125 39.59375 26.953125 
Q 35.25 24.703125 29.984375 24.703125 
Q 19.046875 24.703125 12.671875 31.3125 
Q 6.296875 37.9375 6.296875 49.421875 
Q 6.296875 60.640625 12.9375 67.421875 
Q 19.578125 74.21875 30.609375 74.21875 
Q 43.265625 74.21875 49.921875 64.515625 
Q 56.59375 54.828125 56.59375 36.375 
Q 56.59375 19.140625 48.40625 8.859375 
Q 40.234375 -1.421875 26.421875 -1.421875 
Q 22.703125 -1.421875 18.890625 -0.6875 
Q 15.09375 0.046875 10.984375 1.515625 
z
M 30.609375 32.421875 
Q 37.25 32.421875 41.125 36.953125 
Q 45.015625 41.5 45.015625 49.421875 
Q 45.015625 57.28125 41.125 61.84375 
Q 37.25 66.40625 30.609375 66.40625 
Q 23.96875 66.40625 20.09375 61.84375 
Q 16.21875 57.28125 16.21875 49.421875 
Q 16.21875 41.5 20.09375 36.953125 
Q 23.96875 32.421875 30.609375 32.421875 
z
" id="DejaVuSans-39"/>
     <path d="M 11.71875 12.40625 
L 22.015625 12.40625 
L 22.015625 4 
L 14.015625 -11.625 
L 7.71875 -11.625 
L 11.71875 4 
z
" id="DejaVuSans-2c"/>
     <path d="M 37.796875 64.3125 
L 12.890625 25.390625 
L 37.796875 25.390625 
z
M 35.203125 72.90625 
L 47.609375 72.90625 
L 47.609375 25.390625 
L 58.015625 25.390625 
L 58.015625 17.1875 
L 47.609375 17.1875 
L 47.609375 0 
L 37.796875 0 
L 37.796875 17.1875 
L 4.890625 17.1875 
L 4.890625 26.703125 
z
" id="DejaVuSans-34"/>
     <path d="M 31.78125 34.625 
Q 24.75 34.625 20.71875 30.859375 
Q 16.703125 27.09375 16.703125 20.515625 
Q 16.703125 13.921875 20.71875 10.15625 
Q 24.75 6.390625 31.78125 6.390625 
Q 38.8125 6.390625 42.859375 10.171875 
Q 46.921875 13.96875 46.921875 20.515625 
Q 46.921875 27.09375 42.890625 30.859375 
Q 38.875 34.625 31.78125 34.625 
z
M 21.921875 38.8125 
Q 15.578125 40.375 12.03125 44.71875 
Q 8.5 49.078125 8.5 55.328125 
Q 8.5 64.0625 14.71875 69.140625 
Q 20.953125 74.21875 31.78125 74.21875 
Q 42.671875 74.21875 48.875 69.140625 
Q 55.078125 64.0625 55.078125 55.328125 
Q 55.078125 49.078125 51.53125 44.71875 
Q 48 40.375 41.703125 38.8125 
Q 48.828125 37.15625 52.796875 32.3125 
Q 56.78125 27.484375 56.78125 20.515625 
Q 56.78125 9.90625 50.3125 4.234375 
Q 43.84375 -1.421875 31.78125 -1.421875 
Q 19.734375 -1.421875 13.25 4.234375 
Q 6.78125 9.90625 6.78125 20.515625 
Q 6.78125 27.484375 10.78125 32.3125 
Q 14.796875 37.15625 21.921875 38.8125 
z
M 18.3125 54.390625 
Q 18.3125 48.734375 21.84375 45.5625 
Q 25.390625 42.390625 31.78125 42.390625 
Q 38.140625 42.390625 41.71875 45.5625 
Q 45.3125 48.734375 45.3125 54.390625 
Q 45.3125 60.0625 41.71875 63.234375 
Q 38.140625 66.40625 31.78125 66.40625 
Q 25.390625 66.40625 21.84375 63.234375 
Q 18.3125 60.0625 18.3125 54.390625 
z
" id="DejaVuSans-38"/>
    </defs>
    <g transform="translate(69.12 38.928)scale(0.1 -0.1)">
     <use transform="translate(0 0.015625)" xlink:href="#DejaVuSans-46"/>
     <use transform="translate(57.519531 0.015625)" xlink:href="#DejaVuSans-69"/>
     <use transform="translate(85.302734 0.015625)" xlink:href="#DejaVuSans-74"/>
     <use transform="translate(124.511719 0.015625)" xlink:href="#DejaVuSans-3a"/>
     <use transform="translate(158.203125 0.015625)" xlink:href="#DejaVuSans-20"/>
     <use transform="translate(189.990234 0.015625)" xlink:href="#DejaVuSans-61"/>
     <use transform="translate(251.269531 0.015625)" xlink:href="#DejaVuSans-3d"/>
     <use transform="translate(335.058594 0.015625)" xlink:href="#DejaVuSans-33"/>
     <use transform="translate(398.681641 0.015625)" xlink:href="#DejaVuSans-2e"/>
     <use transform="translate(430.390625 0.015625)" xlink:href="#DejaVuSans-32"/>
     <use transform="translate(494.013672 0.015625)" xlink:href="#DejaVuSans-b1"/>
     <use transform="translate(577.802734 0.015625)" xlink:href="#DejaVuSans-31"/>
     <use transform="translate(641.425781 0.015625)" xlink:href="#DejaVuSans-2e"/>
     <use transform="translate(673.212891 0.015625)" xlink:href="#DejaVuSans-39"/>
     <use transform="translate(736.835938 0.015625)" xlink:href="#DejaVuSans-2c"/>
     <use transform="translate(768.623047 0.015625)" xlink:href="#DejaVuSans-20"/>
     <use transform="translate(800.410156 0.015625)" xlink:href="#DejaVuSans-62"/>
     <use transform="translate(863.886719 0.015625)" xlink:href="#DejaVuSans-3d"/>
     <use transform="translate(947.675781 0.015625)" xlink:href="#DejaVuSans-33"/>
     <use transform="translate(1011.298828 0.015625)" xlink:href="#DejaVuSans-2e"/>
     <use transform="translate(1043.007812 0.015625)" xlink:href="#DejaVuSans-32"/>
     <use transform="translate(1106.630859 0.015625)" xlink:href="#DejaVuSans-b1"/>
     <use transform="translate(1190.419922 0.015625)" xlink:href="#DejaVuSans-32"/>
     <use transform="translate(1254.042969 0.015625)" xlink:href="#DejaVuSans-2e"/>
     <use transform="translate(1285.830078 0.015625)" xlink:href="#DejaVuSans-31"/>
     <use transform="translate(1349.453125 0.015625)" xlink:href="#DejaVuSans-2c"/>
     <use transform="translate(1381.240234 0.015625)" xlink:href="#DejaVuSans-20"/>
     <use transform="translate(1413.027344 0.015625)" xlink:href="#DejaVuSans-78"/>
     <use transform="translate(1472.207031 0.015625)" xlink:href="#DejaVuSans-30"/>
     <use transform="translate(1535.830078 0.015625)" xlink:href="#DejaVuSans-3d"/>
     <use transform="translate(1619.619141 0.015625)" xlink:href="#DejaVuSans-34"/>
     <use transform="translate(1683.242188 0.015625)" xlink:href="#DejaVuSans-2e"/>
     <use transform="translate(1714.951172 0.015625)" xlink:href="#DejaVuSans-32"/>
     <use transform="translate(1778.574219 0.015625)" xlink:href="#DejaVuSans-38"/>
     <use transform="translate(1842.197266 0.015625)" xlink:href="#DejaVuSans-39"/>
     <use transform="translate(1905.820312 0.015625)" xlink:href="#DejaVuSans-b1"/>
     <use transform="translate(1989.609375 0.015625)" xlink:href="#DejaVuSans-30"/>
     <use transform="translate(2053.232422 0.015625)" xlink:href="#DejaVuSans-2e"/>
     <use transform="translate(2085.019531 0.015625)" xlink:href="#DejaVuSans-30"/>
     <use transform="translate(2148.642578 0.015625)" xlink:href="#DejaVuSans-33"/>
     <use transform="translate(2212.265625 0.015625)" xlink:href="#DejaVuSans-31"/>
     <use transform="translate(2275.888672 0.015625)" xlink:href="#DejaVuSans-2c"/>
     <use transform="translate(2307.675781 0.015625)" xlink:href="#DejaVuSans-20"/>
     <use transform="translate(2339.462891 0.015625)" xlink:href="#DejaVuSans-77"/>
     <use transform="translate(2421.25 0.015625)" xlink:href="#DejaVuSans-3d"/>
     <use transform="translate(2505.039062 0.015625)" xlink:href="#DejaVuSans-30"/>
     <use transform="translate(2568.662109 0.015625)" xlink:href="#DejaVuSans-2e"/>
     <use transform="translate(2600.371094 0.015625)" xlink:href="#DejaVuSans-32"/>
     <use transform="translate(2663.994141 0.015625)" xlink:href="#DejaVuSans-b1"/>
     <use transform="translate(2747.783203 0.015625)" xlink:href="#DejaVuSans-30"/>
     <use transform="translate(2811.40625 0.015625)" xlink:href="#DejaVuSans-2e"/>
     <use transform="translate(2843.193359 0.015625)" xlink:href="#DejaVuSans-31"/>
     <use transform="translate(2906.816406 0.015625)" xlink:href="#DejaVuSans-33"/>
     <use transform="translate(2970.439453 0.015625)" xlink:href="#DejaVuSans-2c"/>
    </g>
   </g>
  </g>
  <g id="axes_2">
   <g id="patch_7">
    <path d="M 69.12 311.04 
L 414.72 311.04 
L 414.72 103.68 
L 69.12 103.68 
z
" style="fill:#ffffff;"/>
   </g>
   <g id="matplotlib.axis_3">
    <g id="xtick_7">
     <g id="line2d_12">
      <g>
       <use style="stroke:#000000;stroke-width:0.8;" x="103.376607" xlink:href="#m2993d0d5b3" y="311.04"/>
      </g>
     </g>
     <g id="text_5">
      <!-- 4.0 -->
      <g transform="translate(91.449264 329.437656)scale(0.15 -0.15)">
       <use xlink:href="#DejaVuSans-34"/>
       <use x="63.623047" xlink:href="#DejaVuSans-2e"/>
       <use x="95.410156" xlink:href="#DejaVuSans-30"/>
      </g>
     </g>
    </g>
    <g id="xtick_8">
     <g id="line2d_13">
      <g>
       <use style="stroke:#000000;stroke-width:0.8;" x="161.846675" xlink:href="#m2993d0d5b3" y="311.04"/>
      </g>
     </g>
     <g id="text_6">
      <!-- 4.1 -->
      <g transform="translate(149.919331 329.437656)scale(0.15 -0.15)">
       <use xlink:href="#DejaVuSans-34"/>
       <use x="63.623047" xlink:href="#DejaVuSans-2e"/>
       <use x="95.410156" xlink:href="#DejaVuSans-31"/>
      </g>
     </g>
    </g>
    <g id="xtick_9">
     <g id="line2d_14">
      <g>
       <use style="stroke:#000000;stroke-width:0.8;" x="220.316742" xlink:href="#m2993d0d5b3" y="311.04"/>
      </g>
     </g>
     <g id="text_7">
      <!-- 4.2 -->
      <g transform="translate(208.389398 329.437656)scale(0.15 -0.15)">
       <use xlink:href="#DejaVuSans-34"/>
       <use x="63.623047" xlink:href="#DejaVuSans-2e"/>
       <use x="95.410156" xlink:href="#DejaVuSans-32"/>
      </g>
     </g>
    </g>
    <g id="xtick_10">
     <g id="line2d_15">
      <g>
       <use style="stroke:#000000;stroke-width:0.8;" x="278.786809" xlink:href="#m2993d0d5b3" y="311.04"/>
      </g>
     </g>
     <g id="text_8">
      <!-- 4.3 -->
      <g transform="translate(266.859465 329.437656)scale(0.15 -0.15)">
       <use xlink:href="#DejaVuSans-34"/>
       <use x="63.623047" xlink:href="#DejaVuSans-2e"/>
       <use x="95.410156" xlink:href="#DejaVuSans-33"/>
      </g>
     </g>
    </g>
    <g id="xtick_11">
     <g id="line2d_16">
      <g>
       <use style="stroke:#000000;stroke-width:0.8;" x="337.256876" xlink:href="#m2993d0d5b3" y="311.04"/>
      </g>
     </g>
     <g id="text_9">
      <!-- 4.4 -->
      <g transform="translate(325.329533 329.437656)scale(0.15 -0.15)">
       <use xlink:href="#DejaVuSans-34"/>
       <use x="63.623047" xlink:href="#DejaVuSans-2e"/>
       <use x="95.410156" xlink:href="#DejaVuSans-34"/>
      </g>
     </g>
    </g>
    <g id="xtick_12">
     <g id="line2d_17">
      <g>
       <use style="stroke:#000000;stroke-width:0.8;" x="395.726944" xlink:href="#m2993d0d5b3" y="311.04"/>
      </g>
     </g>
     <g id="text_10">
      <!-- 4.5 -->
      <defs>
       <path d="M 10.796875 72.90625 
L 49.515625 72.90625 
L 49.515625 64.59375 
L 19.828125 64.59375 
L 19.828125 46.734375 
Q 21.96875 47.46875 24.109375 47.828125 
Q 26.265625 48.1875 28.421875 48.1875 
Q 40.625 48.1875 47.75 41.5 
Q 54.890625 34.8125 54.890625 23.390625 
Q 54.890625 11.625 47.5625 5.09375 
Q 40.234375 -1.421875 26.90625 -1.421875 
Q 22.3125 -1.421875 17.546875 -0.640625 
Q 12.796875 0.140625 7.71875 1.703125 
L 7.71875 11.625 
Q 12.109375 9.234375 16.796875 8.0625 
Q 21.484375 6.890625 26.703125 6.890625 
Q 35.15625 6.890625 40.078125 11.328125 
Q 45.015625 15.765625 45.015625 23.390625 
Q 45.015625 31 40.078125 35.4375 
Q 35.15625 39.890625 26.703125 39.890625 
Q 22.75 39.890625 18.8125 39.015625 
Q 14.890625 38.140625 10.796875 36.28125 
z
" id="DejaVuSans-35"/>
      </defs>
      <g transform="translate(383.7996 329.437656)scale(0.15 -0.15)">
       <use xlink:href="#DejaVuSans-34"/>
       <use x="63.623047" xlink:href="#DejaVuSans-2e"/>
       <use x="95.410156" xlink:href="#DejaVuSans-35"/>
      </g>
     </g>
    </g>
    <g id="text_11">
     <!-- Energy [MeV] -->
     <defs>
      <path d="M 9.8125 72.90625 
L 55.90625 72.90625 
L 55.90625 64.59375 
L 19.671875 64.59375 
L 19.671875 43.015625 
L 54.390625 43.015625 
L 54.390625 34.71875 
L 19.671875 34.71875 
L 19.671875 8.296875 
L 56.78125 8.296875 
L 56.78125 0 
L 9.8125 0 
z
" id="DejaVuSans-45"/>
      <path d="M 41.109375 46.296875 
Q 39.59375 47.171875 37.8125 47.578125 
Q 36.03125 48 33.890625 48 
Q 26.265625 48 22.1875 43.046875 
Q 18.109375 38.09375 18.109375 28.8125 
L 18.109375 0 
L 9.078125 0 
L 9.078125 54.6875 
L 18.109375 54.6875 
L 18.109375 46.1875 
Q 20.953125 51.171875 25.484375 53.578125 
Q 30.03125 56 36.53125 56 
Q 37.453125 56 38.578125 55.875 
Q 39.703125 55.765625 41.0625 55.515625 
z
" id="DejaVuSans-72"/>
      <path d="M 45.40625 27.984375 
Q 45.40625 37.75 41.375 43.109375 
Q 37.359375 48.484375 30.078125 48.484375 
Q 22.859375 48.484375 18.828125 43.109375 
Q 14.796875 37.75 14.796875 27.984375 
Q 14.796875 18.265625 18.828125 12.890625 
Q 22.859375 7.515625 30.078125 7.515625 
Q 37.359375 7.515625 41.375 12.890625 
Q 45.40625 18.265625 45.40625 27.984375 
z
M 54.390625 6.78125 
Q 54.390625 -7.171875 48.1875 -13.984375 
Q 42 -20.796875 29.203125 -20.796875 
Q 24.46875 -20.796875 20.265625 -20.09375 
Q 16.0625 -19.390625 12.109375 -17.921875 
L 12.109375 -9.1875 
Q 16.0625 -11.328125 19.921875 -12.34375 
Q 23.78125 -13.375 27.78125 -13.375 
Q 36.625 -13.375 41.015625 -8.765625 
Q 45.40625 -4.15625 45.40625 5.171875 
L 45.40625 9.625 
Q 42.625 4.78125 38.28125 2.390625 
Q 33.9375 0 27.875 0 
Q 17.828125 0 11.671875 7.65625 
Q 5.515625 15.328125 5.515625 27.984375 
Q 5.515625 40.671875 11.671875 48.328125 
Q 17.828125 56 27.875 56 
Q 33.9375 56 38.28125 53.609375 
Q 42.625 51.21875 45.40625 46.390625 
L 45.40625 54.6875 
L 54.390625 54.6875 
z
" id="DejaVuSans-67"/>
      <path d="M 8.59375 75.984375 
L 29.296875 75.984375 
L 29.296875 69 
L 17.578125 69 
L 17.578125 -6.203125 
L 29.296875 -6.203125 
L 29.296875 -13.1875 
L 8.59375 -13.1875 
z
" id="DejaVuSans-5b"/>
      <path d="M 9.8125 72.90625 
L 24.515625 72.90625 
L 43.109375 23.296875 
L 61.8125 72.90625 
L 76.515625 72.90625 
L 76.515625 0 
L 66.890625 0 
L 66.890625 64.015625 
L 48.09375 14.015625 
L 38.1875 14.015625 
L 19.390625 64.015625 
L 19.390625 0 
L 9.8125 0 
z
" id="DejaVuSans-4d"/>
      <path d="M 28.609375 0 
L 0.78125 72.90625 
L 11.078125 72.90625 
L 34.1875 11.53125 
L 57.328125 72.90625 
L 67.578125 72.90625 
L 39.796875 0 
z
" id="DejaVuSans-56"/>
      <path d="M 30.421875 75.984375 
L 30.421875 -13.1875 
L 9.71875 -13.1875 
L 9.71875 -6.203125 
L 21.390625 -6.203125 
L 21.390625 69 
L 9.71875 69 
L 9.71875 75.984375 
z
" id="DejaVuSans-5d"/>
     </defs>
     <g transform="translate(191.078203 347.954844)scale(0.15 -0.15)">
      <use xlink:href="#DejaVuSans-45"/>
      <use x="63.183594" xlink:href="#DejaVuSans-6e"/>
      <use x="126.5625" xlink:href="#DejaVuSans-65"/>
      <use x="188.085938" xlink:href="#DejaVuSans-72"/>
      <use x="229.183594" xlink:href="#DejaVuSans-67"/>
      <use x="292.660156" xlink:href="#DejaVuSans-79"/>
      <use x="351.839844" xlink:href="#DejaVuSans-20"/>
      <use x="383.626953" xlink:href="#DejaVuSans-5b"/>
      <use x="422.640625" xlink:href="#DejaVuSans-4d"/>
      <use x="508.919922" xlink:href="#DejaVuSans-65"/>
      <use x="570.443359" xlink:href="#DejaVuSans-56"/>
      <use x="638.851562" xlink:href="#DejaVuSans-5d"/>
     </g>
    </g>
   </g>
   <g id="matplotlib.axis_4">
    <g id="ytick_4">
     <g id="line2d_18">
      <g>
       <use style="stroke:#000000;stroke-width:0.8;" x="69.12" xlink:href="#m35f8f0e06d" y="293.254737"/>
      </g>
     </g>
     <g id="text_12">
      <!-- 4 -->
      <g transform="translate(52.57625 298.953565)scale(0.15 -0.15)">
       <use xlink:href="#DejaVuSans-34"/>
      </g>
     </g>
    </g>
    <g id="ytick_5">
     <g id="line2d_19">
      <g>
       <use style="stroke:#000000;stroke-width:0.8;" x="69.12" xlink:href="#m35f8f0e06d" y="252.833684"/>
      </g>
     </g>
     <g id="text_13">
      <!-- 6 -->
      <defs>
       <path d="M 33.015625 40.375 
Q 26.375 40.375 22.484375 35.828125 
Q 18.609375 31.296875 18.609375 23.390625 
Q 18.609375 15.53125 22.484375 10.953125 
Q 26.375 6.390625 33.015625 6.390625 
Q 39.65625 6.390625 43.53125 10.953125 
Q 47.40625 15.53125 47.40625 23.390625 
Q 47.40625 31.296875 43.53125 35.828125 
Q 39.65625 40.375 33.015625 40.375 
z
M 52.59375 71.296875 
L 52.59375 62.3125 
Q 48.875 64.0625 45.09375 64.984375 
Q 41.3125 65.921875 37.59375 65.921875 
Q 27.828125 65.921875 22.671875 59.328125 
Q 17.53125 52.734375 16.796875 39.40625 
Q 19.671875 43.65625 24.015625 45.921875 
Q 28.375 48.1875 33.59375 48.1875 
Q 44.578125 48.1875 50.953125 41.515625 
Q 57.328125 34.859375 57.328125 23.390625 
Q 57.328125 12.15625 50.6875 5.359375 
Q 44.046875 -1.421875 33.015625 -1.421875 
Q 20.359375 -1.421875 13.671875 8.265625 
Q 6.984375 17.96875 6.984375 36.375 
Q 6.984375 53.65625 15.1875 63.9375 
Q 23.390625 74.21875 37.203125 74.21875 
Q 40.921875 74.21875 44.703125 73.484375 
Q 48.484375 72.75 52.59375 71.296875 
z
" id="DejaVuSans-36"/>
      </defs>
      <g transform="translate(52.57625 258.532512)scale(0.15 -0.15)">
       <use xlink:href="#DejaVuSans-36"/>
      </g>
     </g>
    </g>
    <g id="ytick_6">
     <g id="line2d_20">
      <g>
       <use style="stroke:#000000;stroke-width:0.8;" x="69.12" xlink:href="#m35f8f0e06d" y="212.412632"/>
      </g>
     </g>
     <g id="text_14">
      <!-- 8 -->
      <g transform="translate(52.57625 218.11146)scale(0.15 -0.15)">
       <use xlink:href="#DejaVuSans-38"/>
      </g>
     </g>
    </g>
    <g id="ytick_7">
     <g id="line2d_21">
      <g>
       <use style="stroke:#000000;stroke-width:0.8;" x="69.12" xlink:href="#m35f8f0e06d" y="171.991579"/>
      </g>
     </g>
     <g id="text_15">
      <!-- 10 -->
      <g transform="translate(43.0325 177.690407)scale(0.15 -0.15)">
       <use xlink:href="#DejaVuSans-31"/>
       <use x="63.623047" xlink:href="#DejaVuSans-30"/>
      </g>
     </g>
    </g>
    <g id="ytick_8">
     <g id="line2d_22">
      <g>
       <use style="stroke:#000000;stroke-width:0.8;" x="69.12" xlink:href="#m35f8f0e06d" y="131.570526"/>
      </g>
     </g>
     <g id="text_16">
      <!-- 12 -->
      <g transform="translate(43.0325 137.269354)scale(0.15 -0.15)">
       <use xlink:href="#DejaVuSans-31"/>
       <use x="63.623047" xlink:href="#DejaVuSans-32"/>
      </g>
     </g>
    </g>
    <g id="text_17">
     <!-- Counts -->
     <defs>
      <path d="M 64.40625 67.28125 
L 64.40625 56.890625 
Q 59.421875 61.53125 53.78125 63.8125 
Q 48.140625 66.109375 41.796875 66.109375 
Q 29.296875 66.109375 22.65625 58.46875 
Q 16.015625 50.828125 16.015625 36.375 
Q 16.015625 21.96875 22.65625 14.328125 
Q 29.296875 6.6875 41.796875 6.6875 
Q 48.140625 6.6875 53.78125 8.984375 
Q 59.421875 11.28125 64.40625 15.921875 
L 64.40625 5.609375 
Q 59.234375 2.09375 53.4375 0.328125 
Q 47.65625 -1.421875 41.21875 -1.421875 
Q 24.65625 -1.421875 15.125 8.703125 
Q 5.609375 18.84375 5.609375 36.375 
Q 5.609375 53.953125 15.125 64.078125 
Q 24.65625 74.21875 41.21875 74.21875 
Q 47.75 74.21875 53.53125 72.484375 
Q 59.328125 70.75 64.40625 67.28125 
z
" id="DejaVuSans-43"/>
     </defs>
     <g transform="translate(35.912969 233.539687)rotate(-90)scale(0.15 -0.15)">
      <use xlink:href="#DejaVuSans-43"/>
      <use x="69.824219" xlink:href="#DejaVuSans-6f"/>
      <use x="131.005859" xlink:href="#DejaVuSans-75"/>
      <use x="194.384766" xlink:href="#DejaVuSans-6e"/>
      <use x="257.763672" xlink:href="#DejaVuSans-74"/>
      <use x="296.972656" xlink:href="#DejaVuSans-73"/>
     </g>
    </g>
   </g>
   <g id="LineCollection_2">
    <path clip-path="url(#p2b12cd9e63)" d="M 81.92 341.170433 
L 81.92 265.549567 
" style="fill:none;stroke:#0000ff;stroke-width:1.5;"/>
    <path clip-path="url(#p2b12cd9e63)" d="M 102.789565 341.170433 
L 102.789565 265.549567 
" style="fill:none;stroke:#0000ff;stroke-width:1.5;"/>
    <path clip-path="url(#p2b12cd9e63)" d="M 134.093913 318.236321 
L 134.093913 227.8521 
" style="fill:none;stroke:#0000ff;stroke-width:1.5;"/>
    <path clip-path="url(#p2b12cd9e63)" d="M 137.572174 341.170433 
L 137.572174 265.549567 
" style="fill:none;stroke:#0000ff;stroke-width:1.5;"/>
    <path clip-path="url(#p2b12cd9e63)" d="M 141.050435 318.236321 
L 141.050435 227.8521 
" style="fill:none;stroke:#0000ff;stroke-width:1.5;"/>
    <path clip-path="url(#p2b12cd9e63)" d="M 148.006957 333.675789 
L 148.006957 252.833684 
" style="fill:none;stroke:#0000ff;stroke-width:1.5;"/>
    <path clip-path="url(#p2b12cd9e63)" d="M 154.963478 333.675789 
L 154.963478 252.833684 
" style="fill:none;stroke:#0000ff;stroke-width:1.5;"/>
    <path clip-path="url(#p2b12cd9e63)" d="M 158.441739 326.022474 
L 158.441739 240.276473 
" style="fill:none;stroke:#0000ff;stroke-width:1.5;"/>
    <path clip-path="url(#p2b12cd9e63)" d="M 165.398261 333.675789 
L 165.398261 252.833684 
" style="fill:none;stroke:#0000ff;stroke-width:1.5;"/>
    <path clip-path="url(#p2b12cd9e63)" d="M 168.876522 302.339161 
L 168.876522 203.328207 
" style="fill:none;stroke:#0000ff;stroke-width:1.5;"/>
    <path clip-path="url(#p2b12cd9e63)" d="M 172.354783 333.675789 
L 172.354783 252.833684 
" style="fill:none;stroke:#0000ff;stroke-width:1.5;"/>
    <path clip-path="url(#p2b12cd9e63)" d="M 175.833043 294.255355 
L 175.833043 191.201487 
" style="fill:none;stroke:#0000ff;stroke-width:1.5;"/>
    <path clip-path="url(#p2b12cd9e63)" d="M 179.311304 310.336833 
L 179.311304 215.541062 
" style="fill:none;stroke:#0000ff;stroke-width:1.5;"/>
    <path clip-path="url(#p2b12cd9e63)" d="M 182.789565 318.236321 
L 182.789565 227.8521 
" style="fill:none;stroke:#0000ff;stroke-width:1.5;"/>
    <path clip-path="url(#p2b12cd9e63)" d="M 186.267826 302.339161 
L 186.267826 203.328207 
" style="fill:none;stroke:#0000ff;stroke-width:1.5;"/>
    <path clip-path="url(#p2b12cd9e63)" d="M 189.746087 326.022474 
L 189.746087 240.276473 
" style="fill:none;stroke:#0000ff;stroke-width:1.5;"/>
    <path clip-path="url(#p2b12cd9e63)" d="M 193.224348 318.236321 
L 193.224348 227.8521 
" style="fill:none;stroke:#0000ff;stroke-width:1.5;"/>
    <path clip-path="url(#p2b12cd9e63)" d="M 196.702609 318.236321 
L 196.702609 227.8521 
" style="fill:none;stroke:#0000ff;stroke-width:1.5;"/>
    <path clip-path="url(#p2b12cd9e63)" d="M 203.65913 318.236321 
L 203.65913 227.8521 
" style="fill:none;stroke:#0000ff;stroke-width:1.5;"/>
    <path clip-path="url(#p2b12cd9e63)" d="M 207.137391 294.255355 
L 207.137391 191.201487 
" style="fill:none;stroke:#0000ff;stroke-width:1.5;"/>
    <path clip-path="url(#p2b12cd9e63)" d="M 210.615652 302.339161 
L 210.615652 203.328207 
" style="fill:none;stroke:#0000ff;stroke-width:1.5;"/>
    <path clip-path="url(#p2b12cd9e63)" d="M 214.093913 302.339161 
L 214.093913 203.328207 
" style="fill:none;stroke:#0000ff;stroke-width:1.5;"/>
    <path clip-path="url(#p2b12cd9e63)" d="M 217.572174 326.022474 
L 217.572174 240.276473 
" style="fill:none;stroke:#0000ff;stroke-width:1.5;"/>
    <path clip-path="url(#p2b12cd9e63)" d="M 221.050435 261.230672 
L 221.050435 143.384065 
" style="fill:none;stroke:#0000ff;stroke-width:1.5;"/>
    <path clip-path="url(#p2b12cd9e63)" d="M 224.528696 318.236321 
L 224.528696 227.8521 
" style="fill:none;stroke:#0000ff;stroke-width:1.5;"/>
    <path clip-path="url(#p2b12cd9e63)" d="M 228.006957 326.022474 
L 228.006957 240.276473 
" style="fill:none;stroke:#0000ff;stroke-width:1.5;"/>
    <path clip-path="url(#p2b12cd9e63)" d="M 231.485217 286.095184 
L 231.485217 179.151131 
" style="fill:none;stroke:#0000ff;stroke-width:1.5;"/>
    <path clip-path="url(#p2b12cd9e63)" d="M 234.963478 310.336833 
L 234.963478 215.541062 
" style="fill:none;stroke:#0000ff;stroke-width:1.5;"/>
    <path clip-path="url(#p2b12cd9e63)" d="M 238.441739 310.336833 
L 238.441739 215.541062 
" style="fill:none;stroke:#0000ff;stroke-width:1.5;"/>
    <path clip-path="url(#p2b12cd9e63)" d="M 241.92 286.095184 
L 241.92 179.151131 
" style="fill:none;stroke:#0000ff;stroke-width:1.5;"/>
    <path clip-path="url(#p2b12cd9e63)" d="M 245.398261 286.095184 
L 245.398261 179.151131 
" style="fill:none;stroke:#0000ff;stroke-width:1.5;"/>
    <path clip-path="url(#p2b12cd9e63)" d="M 248.876522 286.095184 
L 248.876522 179.151131 
" style="fill:none;stroke:#0000ff;stroke-width:1.5;"/>
    <path clip-path="url(#p2b12cd9e63)" d="M 252.354783 318.236321 
L 252.354783 227.8521 
" style="fill:none;stroke:#0000ff;stroke-width:1.5;"/>
    <path clip-path="url(#p2b12cd9e63)" d="M 255.833043 244.389868 
L 255.833043 119.803816 
" style="fill:none;stroke:#0000ff;stroke-width:1.5;"/>
    <path clip-path="url(#p2b12cd9e63)" d="M 259.311304 261.230672 
L 259.311304 143.384065 
" style="fill:none;stroke:#0000ff;stroke-width:1.5;"/>
    <path clip-path="url(#p2b12cd9e63)" d="M 262.789565 302.339161 
L 262.789565 203.328207 
" style="fill:none;stroke:#0000ff;stroke-width:1.5;"/>
    <path clip-path="url(#p2b12cd9e63)" d="M 266.267826 310.336833 
L 266.267826 215.541062 
" style="fill:none;stroke:#0000ff;stroke-width:1.5;"/>
    <path clip-path="url(#p2b12cd9e63)" d="M 269.746087 333.675789 
L 269.746087 252.833684 
" style="fill:none;stroke:#0000ff;stroke-width:1.5;"/>
    <path clip-path="url(#p2b12cd9e63)" d="M 273.224348 318.236321 
L 273.224348 227.8521 
" style="fill:none;stroke:#0000ff;stroke-width:1.5;"/>
    <path clip-path="url(#p2b12cd9e63)" d="M 276.702609 184.230089 
L 276.702609 38.489911 
" style="fill:none;stroke:#0000ff;stroke-width:1.5;"/>
    <path clip-path="url(#p2b12cd9e63)" d="M 280.18087 277.866701 
L 280.18087 167.169089 
" style="fill:none;stroke:#0000ff;stroke-width:1.5;"/>
    <path clip-path="url(#p2b12cd9e63)" d="M 283.65913 310.336833 
L 283.65913 215.541062 
" style="fill:none;stroke:#0000ff;stroke-width:1.5;"/>
    <path clip-path="url(#p2b12cd9e63)" d="M 287.137391 252.833684 
L 287.137391 131.570526 
" style="fill:none;stroke:#0000ff;stroke-width:1.5;"/>
    <path clip-path="url(#p2b12cd9e63)" d="M 290.615652 286.095184 
L 290.615652 179.151131 
" style="fill:none;stroke:#0000ff;stroke-width:1.5;"/>
    <path clip-path="url(#p2b12cd9e63)" d="M 294.093913 235.902875 
L 294.093913 108.080283 
" style="fill:none;stroke:#0000ff;stroke-width:1.5;"/>
    <path clip-path="url(#p2b12cd9e63)" d="M 297.572174 286.095184 
L 297.572174 179.151131 
" style="fill:none;stroke:#0000ff;stroke-width:1.5;"/>
    <path clip-path="url(#p2b12cd9e63)" d="M 301.050435 326.022474 
L 301.050435 240.276473 
" style="fill:none;stroke:#0000ff;stroke-width:1.5;"/>
    <path clip-path="url(#p2b12cd9e63)" d="M 304.528696 269.576632 
L 304.528696 155.248631 
" style="fill:none;stroke:#0000ff;stroke-width:1.5;"/>
    <path clip-path="url(#p2b12cd9e63)" d="M 308.006957 286.095184 
L 308.006957 179.151131 
" style="fill:none;stroke:#0000ff;stroke-width:1.5;"/>
    <path clip-path="url(#p2b12cd9e63)" d="M 311.485217 318.236321 
L 311.485217 227.8521 
" style="fill:none;stroke:#0000ff;stroke-width:1.5;"/>
    <path clip-path="url(#p2b12cd9e63)" d="M 314.963478 310.336833 
L 314.963478 215.541062 
" style="fill:none;stroke:#0000ff;stroke-width:1.5;"/>
    <path clip-path="url(#p2b12cd9e63)" d="M 318.441739 261.230672 
L 318.441739 143.384065 
" style="fill:none;stroke:#0000ff;stroke-width:1.5;"/>
    <path clip-path="url(#p2b12cd9e63)" d="M 321.92 318.236321 
L 321.92 227.8521 
" style="fill:none;stroke:#0000ff;stroke-width:1.5;"/>
    <path clip-path="url(#p2b12cd9e63)" d="M 328.876522 333.675789 
L 328.876522 252.833684 
" style="fill:none;stroke:#0000ff;stroke-width:1.5;"/>
    <path clip-path="url(#p2b12cd9e63)" d="M 332.354783 326.022474 
L 332.354783 240.276473 
" style="fill:none;stroke:#0000ff;stroke-width:1.5;"/>
    <path clip-path="url(#p2b12cd9e63)" d="M 335.833043 286.095184 
L 335.833043 179.151131 
" style="fill:none;stroke:#0000ff;stroke-width:1.5;"/>
    <path clip-path="url(#p2b12cd9e63)" d="M 339.311304 286.095184 
L 339.311304 179.151131 
" style="fill:none;stroke:#0000ff;stroke-width:1.5;"/>
    <path clip-path="url(#p2b12cd9e63)" d="M 342.789565 318.236321 
L 342.789565 227.8521 
" style="fill:none;stroke:#0000ff;stroke-width:1.5;"/>
    <path clip-path="url(#p2b12cd9e63)" d="M 346.267826 302.339161 
L 346.267826 203.328207 
" style="fill:none;stroke:#0000ff;stroke-width:1.5;"/>
    <path clip-path="url(#p2b12cd9e63)" d="M 356.702609 294.255355 
L 356.702609 191.201487 
" style="fill:none;stroke:#0000ff;stroke-width:1.5;"/>
    <path clip-path="url(#p2b12cd9e63)" d="M 394.963478 333.675789 
L 394.963478 252.833684 
" style="fill:none;stroke:#0000ff;stroke-width:1.5;"/>
    <path clip-path="url(#p2b12cd9e63)" d="M 401.92 341.170433 
L 401.92 265.549567 
" style="fill:none;stroke:#0000ff;stroke-width:1.5;"/>
   </g>
   <g id="line2d_23">
    <path clip-path="url(#p2b12cd9e63)" d="M 81.92 304.360835 
L 90.568649 303.222913 
L 98.896977 301.900166 
L 106.584665 300.459532 
L 114.272352 298.789736 
L 121.63972 296.960775 
L 129.007087 294.89837 
L 136.374454 292.597687 
L 143.741822 290.059439 
L 151.109189 287.290794 
L 159.117197 284.037089 
L 167.765846 280.270311 
L 177.695776 275.687813 
L 192.11019 268.754885 
L 208.126206 261.110892 
L 216.774855 257.228137 
L 224.142222 254.161156 
L 230.548629 251.728321 
L 236.634715 249.658102 
L 242.08016 248.03186 
L 247.525606 246.640814 
L 252.650731 245.562706 
L 257.775856 244.721617 
L 262.580661 244.157238 
L 267.385465 243.815846 
L 272.19027 243.701031 
L 276.995075 243.814004 
L 281.79988 244.153574 
L 286.604685 244.716169 
L 291.409489 245.495901 
L 296.534615 246.557779 
L 301.65974 247.845032 
L 307.105185 249.44301 
L 312.870951 251.371159 
L 318.957037 253.640449 
L 325.683764 256.38713 
L 333.371451 259.771188 
L 342.981061 264.257427 
L 378.536617 281.110515 
L 387.185265 284.823764 
L 395.193273 288.019689 
L 401.92 290.503909 
L 401.92 290.503909 
" style="fill:none;stroke:#ff0000;stroke-linecap:square;stroke-width:1.5;"/>
   </g>
   <g id="line2d_24">
    <g clip-path="url(#p2b12cd9e63)">
     <use style="fill:#0000ff;stroke:#0000ff;" x="81.92" xlink:href="#mca4c138db6" y="303.36"/>
     <use style="fill:#0000ff;stroke:#0000ff;" x="102.789565" xlink:href="#mca4c138db6" y="303.36"/>
     <use style="fill:#0000ff;stroke:#0000ff;" x="134.093913" xlink:href="#mca4c138db6" y="273.044211"/>
     <use style="fill:#0000ff;stroke:#0000ff;" x="137.572174" xlink:href="#mca4c138db6" y="303.36"/>
     <use style="fill:#0000ff;stroke:#0000ff;" x="141.050435" xlink:href="#mca4c138db6" y="273.044211"/>
     <use style="fill:#0000ff;stroke:#0000ff;" x="148.006957" xlink:href="#mca4c138db6" y="293.254737"/>
     <use style="fill:#0000ff;stroke:#0000ff;" x="154.963478" xlink:href="#mca4c138db6" y="293.254737"/>
     <use style="fill:#0000ff;stroke:#0000ff;" x="158.441739" xlink:href="#mca4c138db6" y="283.149474"/>
     <use style="fill:#0000ff;stroke:#0000ff;" x="165.398261" xlink:href="#mca4c138db6" y="293.254737"/>
     <use style="fill:#0000ff;stroke:#0000ff;" x="168.876522" xlink:href="#mca4c138db6" y="252.833684"/>
     <use style="fill:#0000ff;stroke:#0000ff;" x="172.354783" xlink:href="#mca4c138db6" y="293.254737"/>
     <use style="fill:#0000ff;stroke:#0000ff;" x="175.833043" xlink:href="#mca4c138db6" y="242.728421"/>
     <use style="fill:#0000ff;stroke:#0000ff;" x="179.311304" xlink:href="#mca4c138db6" y="262.938947"/>
     <use style="fill:#0000ff;stroke:#0000ff;" x="182.789565" xlink:href="#mca4c138db6" y="273.044211"/>
     <use style="fill:#0000ff;stroke:#0000ff;" x="186.267826" xlink:href="#mca4c138db6" y="252.833684"/>
     <use style="fill:#0000ff;stroke:#0000ff;" x="189.746087" xlink:href="#mca4c138db6" y="283.149474"/>
     <use style="fill:#0000ff;stroke:#0000ff;" x="193.224348" xlink:href="#mca4c138db6" y="273.044211"/>
     <use style="fill:#0000ff;stroke:#0000ff;" x="196.702609" xlink:href="#mca4c138db6" y="273.044211"/>
     <use style="fill:#0000ff;stroke:#0000ff;" x="203.65913" xlink:href="#mca4c138db6" y="273.044211"/>
     <use style="fill:#0000ff;stroke:#0000ff;" x="207.137391" xlink:href="#mca4c138db6" y="242.728421"/>
     <use style="fill:#0000ff;stroke:#0000ff;" x="210.615652" xlink:href="#mca4c138db6" y="252.833684"/>
     <use style="fill:#0000ff;stroke:#0000ff;" x="214.093913" xlink:href="#mca4c138db6" y="252.833684"/>
     <use style="fill:#0000ff;stroke:#0000ff;" x="217.572174" xlink:href="#mca4c138db6" y="283.149474"/>
     <use style="fill:#0000ff;stroke:#0000ff;" x="221.050435" xlink:href="#mca4c138db6" y="202.307368"/>
     <use style="fill:#0000ff;stroke:#0000ff;" x="224.528696" xlink:href="#mca4c138db6" y="273.044211"/>
     <use style="fill:#0000ff;stroke:#0000ff;" x="228.006957" xlink:href="#mca4c138db6" y="283.149474"/>
     <use style="fill:#0000ff;stroke:#0000ff;" x="231.485217" xlink:href="#mca4c138db6" y="232.623158"/>
     <use style="fill:#0000ff;stroke:#0000ff;" x="234.963478" xlink:href="#mca4c138db6" y="262.938947"/>
     <use style="fill:#0000ff;stroke:#0000ff;" x="238.441739" xlink:href="#mca4c138db6" y="262.938947"/>
     <use style="fill:#0000ff;stroke:#0000ff;" x="241.92" xlink:href="#mca4c138db6" y="232.623158"/>
     <use style="fill:#0000ff;stroke:#0000ff;" x="245.398261" xlink:href="#mca4c138db6" y="232.623158"/>
     <use style="fill:#0000ff;stroke:#0000ff;" x="248.876522" xlink:href="#mca4c138db6" y="232.623158"/>
     <use style="fill:#0000ff;stroke:#0000ff;" x="252.354783" xlink:href="#mca4c138db6" y="273.044211"/>
     <use style="fill:#0000ff;stroke:#0000ff;" x="255.833043" xlink:href="#mca4c138db6" y="182.096842"/>
     <use style="fill:#0000ff;stroke:#0000ff;" x="259.311304" xlink:href="#mca4c138db6" y="202.307368"/>
     <use style="fill:#0000ff;stroke:#0000ff;" x="262.789565" xlink:href="#mca4c138db6" y="252.833684"/>
     <use style="fill:#0000ff;stroke:#0000ff;" x="266.267826" xlink:href="#mca4c138db6" y="262.938947"/>
     <use style="fill:#0000ff;stroke:#0000ff;" x="269.746087" xlink:href="#mca4c138db6" y="293.254737"/>
     <use style="fill:#0000ff;stroke:#0000ff;" x="273.224348" xlink:href="#mca4c138db6" y="273.044211"/>
     <use style="fill:#0000ff;stroke:#0000ff;" x="276.702609" xlink:href="#mca4c138db6" y="111.36"/>
     <use style="fill:#0000ff;stroke:#0000ff;" x="280.18087" xlink:href="#mca4c138db6" y="222.517895"/>
     <use style="fill:#0000ff;stroke:#0000ff;" x="283.65913" xlink:href="#mca4c138db6" y="262.938947"/>
     <use style="fill:#0000ff;stroke:#0000ff;" x="287.137391" xlink:href="#mca4c138db6" y="192.202105"/>
     <use style="fill:#0000ff;stroke:#0000ff;" x="290.615652" xlink:href="#mca4c138db6" y="232.623158"/>
     <use style="fill:#0000ff;stroke:#0000ff;" x="294.093913" xlink:href="#mca4c138db6" y="171.991579"/>
     <use style="fill:#0000ff;stroke:#0000ff;" x="297.572174" xlink:href="#mca4c138db6" y="232.623158"/>
     <use style="fill:#0000ff;stroke:#0000ff;" x="301.050435" xlink:href="#mca4c138db6" y="283.149474"/>
     <use style="fill:#0000ff;stroke:#0000ff;" x="304.528696" xlink:href="#mca4c138db6" y="212.412632"/>
     <use style="fill:#0000ff;stroke:#0000ff;" x="308.006957" xlink:href="#mca4c138db6" y="232.623158"/>
     <use style="fill:#0000ff;stroke:#0000ff;" x="311.485217" xlink:href="#mca4c138db6" y="273.044211"/>
     <use style="fill:#0000ff;stroke:#0000ff;" x="314.963478" xlink:href="#mca4c138db6" y="262.938947"/>
     <use style="fill:#0000ff;stroke:#0000ff;" x="318.441739" xlink:href="#mca4c138db6" y="202.307368"/>
     <use style="fill:#0000ff;stroke:#0000ff;" x="321.92" xlink:href="#mca4c138db6" y="273.044211"/>
     <use style="fill:#0000ff;stroke:#0000ff;" x="328.876522" xlink:href="#mca4c138db6" y="293.254737"/>
     <use style="fill:#0000ff;stroke:#0000ff;" x="332.354783" xlink:href="#mca4c138db6" y="283.149474"/>
     <use style="fill:#0000ff;stroke:#0000ff;" x="335.833043" xlink:href="#mca4c138db6" y="232.623158"/>
     <use style="fill:#0000ff;stroke:#0000ff;" x="339.311304" xlink:href="#mca4c138db6" y="232.623158"/>
     <use style="fill:#0000ff;stroke:#0000ff;" x="342.789565" xlink:href="#mca4c138db6" y="273.044211"/>
     <use style="fill:#0000ff;stroke:#0000ff;" x="346.267826" xlink:href="#mca4c138db6" y="252.833684"/>
     <use style="fill:#0000ff;stroke:#0000ff;" x="356.702609" xlink:href="#mca4c138db6" y="242.728421"/>
     <use style="fill:#0000ff;stroke:#0000ff;" x="394.963478" xlink:href="#mca4c138db6" y="293.254737"/>
     <use style="fill:#0000ff;stroke:#0000ff;" x="401.92" xlink:href="#mca4c138db6" y="303.36"/>
    </g>
   </g>
   <g id="patch_8">
    <path d="M 69.12 311.04 
L 69.12 103.68 
" style="fill:none;stroke:#000000;stroke-linecap:square;stroke-linejoin:miter;stroke-width:0.8;"/>
   </g>
   <g id="patch_9">
    <path d="M 414.72 311.04 
L 414.72 103.68 
" style="fill:none;stroke:#000000;stroke-linecap:square;stroke-linejoin:miter;stroke-width:0.8;"/>
   </g>
   <g id="patch_10">
    <path d="M 69.12 311.04 
L 414.72 311.04 
" style="fill:none;stroke:#000000;stroke-linecap:square;stroke-linejoin:miter;stroke-width:0.8;"/>
   </g>
   <g id="patch_11">
    <path d="M 69.12 103.68 
L 414.72 103.68 
" style="fill:none;stroke:#000000;stroke-linecap:square;stroke-linejoin:miter;stroke-width:0.8;"/>
   </g>
  </g>
 </g>
 <defs>
  <clipPath id="p4c11ee5a59">
   <rect height="51.84" width="345.6" x="69.12" y="44.928"/>
  </clipPath>
  <clipPath id="p2b12cd9e63">
   <rect height="207.36" width="345.6" x="69.12" y="103.68"/>
  </clipPath>
 </defs>
</svg>
