<?xml version="1.0" encoding="utf-8" standalone="no"?>
<!DOCTYPE svg PUBLIC "-//W3C//DTD SVG 1.1//EN"
  "http://www.w3.org/Graphics/SVG/1.1/DTD/svg11.dtd">
<!-- Created with matplotlib (http://matplotlib.org/) -->
<svg height="345pt" version="1.1" viewBox="0 0 460 345" width="460pt" xmlns="http://www.w3.org/2000/svg" xmlns:xlink="http://www.w3.org/1999/xlink">
 <defs>
  <style type="text/css">
*{stroke-linecap:butt;stroke-linejoin:round;}
  </style>
 </defs>
 <g id="figure_1">
  <g id="patch_1">
   <path d="M 0 345.6 
L 460.8 345.6 
L 460.8 0 
L 0 0 
z
" style="fill:#ffffff;"/>
  </g>
  <g id="axes_1">
   <g id="patch_2">
    <path d="M 69.12 96.768 
L 414.72 96.768 
L 414.72 44.928 
L 69.12 44.928 
z
" style="fill:#ffffff;"/>
   </g>
   <g id="matplotlib.axis_1">
    <g id="xtick_1">
     <g id="line2d_1">
      <defs>
       <path d="M 0 0 
L 0 3.5 
" id="m225233b566" style="stroke:#000000;stroke-width:0.8;"/>
      </defs>
      <g>
       <use style="stroke:#000000;stroke-width:0.8;" x="78.11275" xlink:href="#m225233b566" y="96.768"/>
      </g>
     </g>
    </g>
    <g id="xtick_2">
     <g id="line2d_2">
      <g>
       <use style="stroke:#000000;stroke-width:0.8;" x="166.297114" xlink:href="#m225233b566" y="96.768"/>
      </g>
     </g>
    </g>
    <g id="xtick_3">
     <g id="line2d_3">
      <g>
       <use style="stroke:#000000;stroke-width:0.8;" x="254.481477" xlink:href="#m225233b566" y="96.768"/>
      </g>
     </g>
    </g>
    <g id="xtick_4">
     <g id="line2d_4">
      <g>
       <use style="stroke:#000000;stroke-width:0.8;" x="342.665841" xlink:href="#m225233b566" y="96.768"/>
      </g>
     </g>
    </g>
   </g>
   <g id="matplotlib.axis_2">
    <g id="ytick_1">
     <g id="line2d_5">
      <defs>
       <path d="M 0 0 
L -3.5 0 
" id="mcea809cff9" style="stroke:#000000;stroke-width:0.8;"/>
      </defs>
      <g>
       <use style="stroke:#000000;stroke-width:0.8;" x="69.12" xlink:href="#mcea809cff9" y="96.333028"/>
      </g>
     </g>
     <g id="text_1">
      <!-- −2 -->
      <defs>
       <path d="M 10.59375 35.5 
L 73.1875 35.5 
L 73.1875 27.203125 
L 10.59375 27.203125 
z
" id="DejaVuSans-2212"/>
       <path d="M 19.1875 8.296875 
L 53.609375 8.296875 
L 53.609375 0 
L 7.328125 0 
L 7.328125 8.296875 
Q 12.9375 14.109375 22.625 23.890625 
Q 32.328125 33.6875 34.8125 36.53125 
Q 39.546875 41.84375 41.421875 45.53125 
Q 43.3125 49.21875 43.3125 52.78125 
Q 43.3125 58.59375 39.234375 62.25 
Q 35.15625 65.921875 28.609375 65.921875 
Q 23.96875 65.921875 18.8125 64.3125 
Q 13.671875 62.703125 7.8125 59.421875 
L 7.8125 69.390625 
Q 13.765625 71.78125 18.9375 73 
Q 24.125 74.21875 28.421875 74.21875 
Q 39.75 74.21875 46.484375 68.546875 
Q 53.21875 62.890625 53.21875 53.421875 
Q 53.21875 48.921875 51.53125 44.890625 
Q 49.859375 40.875 45.40625 35.40625 
Q 44.1875 33.984375 37.640625 27.21875 
Q 31.109375 20.453125 19.1875 8.296875 
z
" id="DejaVuSans-32"/>
      </defs>
      <g transform="translate(40.006719 102.031856)scale(0.15 -0.15)">
       <use xlink:href="#DejaVuSans-2212"/>
       <use x="83.789062" xlink:href="#DejaVuSans-32"/>
      </g>
     </g>
    </g>
    <g id="ytick_2">
     <g id="line2d_6">
      <g>
       <use style="stroke:#000000;stroke-width:0.8;" x="69.12" xlink:href="#mcea809cff9" y="65.113903"/>
      </g>
     </g>
     <g id="text_2">
      <!-- 0 -->
      <defs>
       <path d="M 31.78125 66.40625 
Q 24.171875 66.40625 20.328125 58.90625 
Q 16.5 51.421875 16.5 36.375 
Q 16.5 21.390625 20.328125 13.890625 
Q 24.171875 6.390625 31.78125 6.390625 
Q 39.453125 6.390625 43.28125 13.890625 
Q 47.125 21.390625 47.125 36.375 
Q 47.125 51.421875 43.28125 58.90625 
Q 39.453125 66.40625 31.78125 66.40625 
z
M 31.78125 74.21875 
Q 44.046875 74.21875 50.515625 64.515625 
Q 56.984375 54.828125 56.984375 36.375 
Q 56.984375 17.96875 50.515625 8.265625 
Q 44.046875 -1.421875 31.78125 -1.421875 
Q 19.53125 -1.421875 13.0625 8.265625 
Q 6.59375 17.96875 6.59375 36.375 
Q 6.59375 54.828125 13.0625 64.515625 
Q 19.53125 74.21875 31.78125 74.21875 
z
" id="DejaVuSans-30"/>
      </defs>
      <g transform="translate(52.57625 70.812731)scale(0.15 -0.15)">
       <use xlink:href="#DejaVuSans-30"/>
      </g>
     </g>
    </g>
    <g id="text_3">
     <!-- Studentized -->
     <defs>
      <path d="M 53.515625 70.515625 
L 53.515625 60.890625 
Q 47.90625 63.578125 42.921875 64.890625 
Q 37.9375 66.21875 33.296875 66.21875 
Q 25.25 66.21875 20.875 63.09375 
Q 16.5 59.96875 16.5 54.203125 
Q 16.5 49.359375 19.40625 46.890625 
Q 22.3125 44.4375 30.421875 42.921875 
L 36.375 41.703125 
Q 47.40625 39.59375 52.65625 34.296875 
Q 57.90625 29 57.90625 20.125 
Q 57.90625 9.515625 50.796875 4.046875 
Q 43.703125 -1.421875 29.984375 -1.421875 
Q 24.8125 -1.421875 18.96875 -0.25 
Q 13.140625 0.921875 6.890625 3.21875 
L 6.890625 13.375 
Q 12.890625 10.015625 18.65625 8.296875 
Q 24.421875 6.59375 29.984375 6.59375 
Q 38.421875 6.59375 43.015625 9.90625 
Q 47.609375 13.234375 47.609375 19.390625 
Q 47.609375 24.75 44.3125 27.78125 
Q 41.015625 30.8125 33.5 32.328125 
L 27.484375 33.5 
Q 16.453125 35.6875 11.515625 40.375 
Q 6.59375 45.0625 6.59375 53.421875 
Q 6.59375 63.09375 13.40625 68.65625 
Q 20.21875 74.21875 32.171875 74.21875 
Q 37.3125 74.21875 42.625 73.28125 
Q 47.953125 72.359375 53.515625 70.515625 
z
" id="DejaVuSans-53"/>
      <path d="M 18.3125 70.21875 
L 18.3125 54.6875 
L 36.8125 54.6875 
L 36.8125 47.703125 
L 18.3125 47.703125 
L 18.3125 18.015625 
Q 18.3125 11.328125 20.140625 9.421875 
Q 21.96875 7.515625 27.59375 7.515625 
L 36.8125 7.515625 
L 36.8125 0 
L 27.59375 0 
Q 17.1875 0 13.234375 3.875 
Q 9.28125 7.765625 9.28125 18.015625 
L 9.28125 47.703125 
L 2.6875 47.703125 
L 2.6875 54.6875 
L 9.28125 54.6875 
L 9.28125 70.21875 
z
" id="DejaVuSans-74"/>
      <path d="M 8.5 21.578125 
L 8.5 54.6875 
L 17.484375 54.6875 
L 17.484375 21.921875 
Q 17.484375 14.15625 20.5 10.265625 
Q 23.53125 6.390625 29.59375 6.390625 
Q 36.859375 6.390625 41.078125 11.03125 
Q 45.3125 15.671875 45.3125 23.6875 
L 45.3125 54.6875 
L 54.296875 54.6875 
L 54.296875 0 
L 45.3125 0 
L 45.3125 8.40625 
Q 42.046875 3.421875 37.71875 1 
Q 33.40625 -1.421875 27.6875 -1.421875 
Q 18.265625 -1.421875 13.375 4.4375 
Q 8.5 10.296875 8.5 21.578125 
z
M 31.109375 56 
z
" id="DejaVuSans-75"/>
      <path d="M 45.40625 46.390625 
L 45.40625 75.984375 
L 54.390625 75.984375 
L 54.390625 0 
L 45.40625 0 
L 45.40625 8.203125 
Q 42.578125 3.328125 38.25 0.953125 
Q 33.9375 -1.421875 27.875 -1.421875 
Q 17.96875 -1.421875 11.734375 6.484375 
Q 5.515625 14.40625 5.515625 27.296875 
Q 5.515625 40.1875 11.734375 48.09375 
Q 17.96875 56 27.875 56 
Q 33.9375 56 38.25 53.625 
Q 42.578125 51.265625 45.40625 46.390625 
z
M 14.796875 27.296875 
Q 14.796875 17.390625 18.875 11.75 
Q 22.953125 6.109375 30.078125 6.109375 
Q 37.203125 6.109375 41.296875 11.75 
Q 45.40625 17.390625 45.40625 27.296875 
Q 45.40625 37.203125 41.296875 42.84375 
Q 37.203125 48.484375 30.078125 48.484375 
Q 22.953125 48.484375 18.875 42.84375 
Q 14.796875 37.203125 14.796875 27.296875 
z
" id="DejaVuSans-64"/>
      <path d="M 56.203125 29.59375 
L 56.203125 25.203125 
L 14.890625 25.203125 
Q 15.484375 15.921875 20.484375 11.0625 
Q 25.484375 6.203125 34.421875 6.203125 
Q 39.59375 6.203125 44.453125 7.46875 
Q 49.3125 8.734375 54.109375 11.28125 
L 54.109375 2.78125 
Q 49.265625 0.734375 44.1875 -0.34375 
Q 39.109375 -1.421875 33.890625 -1.421875 
Q 20.796875 -1.421875 13.15625 6.1875 
Q 5.515625 13.8125 5.515625 26.8125 
Q 5.515625 40.234375 12.765625 48.109375 
Q 20.015625 56 32.328125 56 
Q 43.359375 56 49.78125 48.890625 
Q 56.203125 41.796875 56.203125 29.59375 
z
M 47.21875 32.234375 
Q 47.125 39.59375 43.09375 43.984375 
Q 39.0625 48.390625 32.421875 48.390625 
Q 24.90625 48.390625 20.390625 44.140625 
Q 15.875 39.890625 15.1875 32.171875 
z
" id="DejaVuSans-65"/>
      <path d="M 54.890625 33.015625 
L 54.890625 0 
L 45.90625 0 
L 45.90625 32.71875 
Q 45.90625 40.484375 42.875 44.328125 
Q 39.84375 48.1875 33.796875 48.1875 
Q 26.515625 48.1875 22.3125 43.546875 
Q 18.109375 38.921875 18.109375 30.90625 
L 18.109375 0 
L 9.078125 0 
L 9.078125 54.6875 
L 18.109375 54.6875 
L 18.109375 46.1875 
Q 21.34375 51.125 25.703125 53.5625 
Q 30.078125 56 35.796875 56 
Q 45.21875 56 50.046875 50.171875 
Q 54.890625 44.34375 54.890625 33.015625 
z
" id="DejaVuSans-6e"/>
      <path d="M 9.421875 54.6875 
L 18.40625 54.6875 
L 18.40625 0 
L 9.421875 0 
z
M 9.421875 75.984375 
L 18.40625 75.984375 
L 18.40625 64.59375 
L 9.421875 64.59375 
z
" id="DejaVuSans-69"/>
      <path d="M 5.515625 54.6875 
L 48.1875 54.6875 
L 48.1875 46.484375 
L 14.40625 7.171875 
L 48.1875 7.171875 
L 48.1875 0 
L 4.296875 0 
L 4.296875 8.203125 
L 38.09375 47.515625 
L 5.515625 47.515625 
z
" id="DejaVuSans-7a"/>
     </defs>
     <g transform="translate(16.090469 115.768313)rotate(-90)scale(0.15 -0.15)">
      <use xlink:href="#DejaVuSans-53"/>
      <use x="63.476562" xlink:href="#DejaVuSans-74"/>
      <use x="102.685547" xlink:href="#DejaVuSans-75"/>
      <use x="166.064453" xlink:href="#DejaVuSans-64"/>
      <use x="229.541016" xlink:href="#DejaVuSans-65"/>
      <use x="291.064453" xlink:href="#DejaVuSans-6e"/>
      <use x="354.443359" xlink:href="#DejaVuSans-74"/>
      <use x="393.652344" xlink:href="#DejaVuSans-69"/>
      <use x="421.435547" xlink:href="#DejaVuSans-7a"/>
      <use x="473.925781" xlink:href="#DejaVuSans-65"/>
      <use x="535.449219" xlink:href="#DejaVuSans-64"/>
     </g>
     <!-- Residuals -->
     <defs>
      <path d="M 44.390625 34.1875 
Q 47.5625 33.109375 50.5625 29.59375 
Q 53.5625 26.078125 56.59375 19.921875 
L 66.609375 0 
L 56 0 
L 46.6875 18.703125 
Q 43.0625 26.03125 39.671875 28.421875 
Q 36.28125 30.8125 30.421875 30.8125 
L 19.671875 30.8125 
L 19.671875 0 
L 9.8125 0 
L 9.8125 72.90625 
L 32.078125 72.90625 
Q 44.578125 72.90625 50.734375 67.671875 
Q 56.890625 62.453125 56.890625 51.90625 
Q 56.890625 45.015625 53.6875 40.46875 
Q 50.484375 35.9375 44.390625 34.1875 
z
M 19.671875 64.796875 
L 19.671875 38.921875 
L 32.078125 38.921875 
Q 39.203125 38.921875 42.84375 42.21875 
Q 46.484375 45.515625 46.484375 51.90625 
Q 46.484375 58.296875 42.84375 61.546875 
Q 39.203125 64.796875 32.078125 64.796875 
z
" id="DejaVuSans-52"/>
      <path d="M 44.28125 53.078125 
L 44.28125 44.578125 
Q 40.484375 46.53125 36.375 47.5 
Q 32.28125 48.484375 27.875 48.484375 
Q 21.1875 48.484375 17.84375 46.4375 
Q 14.5 44.390625 14.5 40.28125 
Q 14.5 37.15625 16.890625 35.375 
Q 19.28125 33.59375 26.515625 31.984375 
L 29.59375 31.296875 
Q 39.15625 29.25 43.1875 25.515625 
Q 47.21875 21.78125 47.21875 15.09375 
Q 47.21875 7.46875 41.1875 3.015625 
Q 35.15625 -1.421875 24.609375 -1.421875 
Q 20.21875 -1.421875 15.453125 -0.5625 
Q 10.6875 0.296875 5.421875 2 
L 5.421875 11.28125 
Q 10.40625 8.6875 15.234375 7.390625 
Q 20.0625 6.109375 24.8125 6.109375 
Q 31.15625 6.109375 34.5625 8.28125 
Q 37.984375 10.453125 37.984375 14.40625 
Q 37.984375 18.0625 35.515625 20.015625 
Q 33.0625 21.96875 24.703125 23.78125 
L 21.578125 24.515625 
Q 13.234375 26.265625 9.515625 29.90625 
Q 5.8125 33.546875 5.8125 39.890625 
Q 5.8125 47.609375 11.28125 51.796875 
Q 16.75 56 26.8125 56 
Q 31.78125 56 36.171875 55.265625 
Q 40.578125 54.546875 44.28125 53.078125 
z
" id="DejaVuSans-73"/>
      <path d="M 34.28125 27.484375 
Q 23.390625 27.484375 19.1875 25 
Q 14.984375 22.515625 14.984375 16.5 
Q 14.984375 11.71875 18.140625 8.90625 
Q 21.296875 6.109375 26.703125 6.109375 
Q 34.1875 6.109375 38.703125 11.40625 
Q 43.21875 16.703125 43.21875 25.484375 
L 43.21875 27.484375 
z
M 52.203125 31.203125 
L 52.203125 0 
L 43.21875 0 
L 43.21875 8.296875 
Q 40.140625 3.328125 35.546875 0.953125 
Q 30.953125 -1.421875 24.3125 -1.421875 
Q 15.921875 -1.421875 10.953125 3.296875 
Q 6 8.015625 6 15.921875 
Q 6 25.140625 12.171875 29.828125 
Q 18.359375 34.515625 30.609375 34.515625 
L 43.21875 34.515625 
L 43.21875 35.40625 
Q 43.21875 41.609375 39.140625 45 
Q 35.0625 48.390625 27.6875 48.390625 
Q 23 48.390625 18.546875 47.265625 
Q 14.109375 46.140625 10.015625 43.890625 
L 10.015625 52.203125 
Q 14.9375 54.109375 19.578125 55.046875 
Q 24.21875 56 28.609375 56 
Q 40.484375 56 46.34375 49.84375 
Q 52.203125 43.703125 52.203125 31.203125 
z
" id="DejaVuSans-61"/>
      <path d="M 9.421875 75.984375 
L 18.40625 75.984375 
L 18.40625 0 
L 9.421875 0 
z
" id="DejaVuSans-6c"/>
     </defs>
     <g transform="translate(32.887188 106.761281)rotate(-90)scale(0.15 -0.15)">
      <use xlink:href="#DejaVuSans-52"/>
      <use x="69.419922" xlink:href="#DejaVuSans-65"/>
      <use x="130.943359" xlink:href="#DejaVuSans-73"/>
      <use x="183.042969" xlink:href="#DejaVuSans-69"/>
      <use x="210.826172" xlink:href="#DejaVuSans-64"/>
      <use x="274.302734" xlink:href="#DejaVuSans-75"/>
      <use x="337.681641" xlink:href="#DejaVuSans-61"/>
      <use x="398.960938" xlink:href="#DejaVuSans-6c"/>
      <use x="426.744141" xlink:href="#DejaVuSans-73"/>
     </g>
    </g>
   </g>
   <g id="LineCollection_1">
    <path clip-path="url(#p315dae7e4c)" d="M 81.92 82.748443 
L 81.92 51.529318 
" style="fill:none;stroke:#0000ff;stroke-width:1.5;"/>
    <path clip-path="url(#p315dae7e4c)" d="M 113.39541 87.063279 
L 113.39541 55.844154 
" style="fill:none;stroke:#0000ff;stroke-width:1.5;"/>
    <path clip-path="url(#p315dae7e4c)" d="M 134.379016 75.57774 
L 134.379016 44.358615 
" style="fill:none;stroke:#0000ff;stroke-width:1.5;"/>
    <path clip-path="url(#p315dae7e4c)" d="M 163.231475 79.271738 
L 163.231475 48.052613 
" style="fill:none;stroke:#0000ff;stroke-width:1.5;"/>
    <path clip-path="url(#p315dae7e4c)" d="M 171.100328 76.104541 
L 171.100328 44.885416 
" style="fill:none;stroke:#0000ff;stroke-width:1.5;"/>
    <path clip-path="url(#p315dae7e4c)" d="M 178.96918 76.519827 
L 178.96918 45.300702 
" style="fill:none;stroke:#0000ff;stroke-width:1.5;"/>
    <path clip-path="url(#p315dae7e4c)" d="M 181.592131 84.039743 
L 181.592131 52.820618 
" style="fill:none;stroke:#0000ff;stroke-width:1.5;"/>
    <path clip-path="url(#p315dae7e4c)" d="M 184.215082 70.886904 
L 184.215082 39.667779 
" style="fill:none;stroke:#0000ff;stroke-width:1.5;"/>
    <path clip-path="url(#p315dae7e4c)" d="M 186.838033 74.020529 
L 186.838033 42.801404 
" style="fill:none;stroke:#0000ff;stroke-width:1.5;"/>
    <path clip-path="url(#p315dae7e4c)" d="M 192.083934 71.695547 
L 192.083934 40.476422 
" style="fill:none;stroke:#0000ff;stroke-width:1.5;"/>
    <path clip-path="url(#p315dae7e4c)" d="M 194.706885 90.222089 
L 194.706885 59.002963 
" style="fill:none;stroke:#0000ff;stroke-width:1.5;"/>
    <path clip-path="url(#p315dae7e4c)" d="M 197.329836 69.708945 
L 197.329836 38.48982 
" style="fill:none;stroke:#0000ff;stroke-width:1.5;"/>
    <path clip-path="url(#p315dae7e4c)" d="M 199.952787 72.895979 
L 199.952787 41.676854 
" style="fill:none;stroke:#0000ff;stroke-width:1.5;"/>
    <path clip-path="url(#p315dae7e4c)" d="M 202.575738 76.404745 
L 202.575738 45.18562 
" style="fill:none;stroke:#0000ff;stroke-width:1.5;"/>
    <path clip-path="url(#p315dae7e4c)" d="M 205.198689 88.059866 
L 205.198689 56.84074 
" style="fill:none;stroke:#0000ff;stroke-width:1.5;"/>
    <path clip-path="url(#p315dae7e4c)" d="M 207.821639 93.56269 
L 207.821639 62.343565 
" style="fill:none;stroke:#0000ff;stroke-width:1.5;"/>
    <path clip-path="url(#p315dae7e4c)" d="M 210.44459 78.381367 
L 210.44459 47.162242 
" style="fill:none;stroke:#0000ff;stroke-width:1.5;"/>
    <path clip-path="url(#p315dae7e4c)" d="M 213.067541 68.003855 
L 213.067541 36.78473 
" style="fill:none;stroke:#0000ff;stroke-width:1.5;"/>
    <path clip-path="url(#p315dae7e4c)" d="M 215.690492 76.900327 
L 215.690492 45.681202 
" style="fill:none;stroke:#0000ff;stroke-width:1.5;"/>
    <path clip-path="url(#p315dae7e4c)" d="M 218.313443 81.01197 
L 218.313443 49.792845 
" style="fill:none;stroke:#0000ff;stroke-width:1.5;"/>
    <path clip-path="url(#p315dae7e4c)" d="M 220.936393 99.066246 
L 220.936393 67.84712 
" style="fill:none;stroke:#0000ff;stroke-width:1.5;"/>
    <path clip-path="url(#p315dae7e4c)" d="M 223.559344 66.616986 
L 223.559344 35.397861 
" style="fill:none;stroke:#0000ff;stroke-width:1.5;"/>
    <path clip-path="url(#p315dae7e4c)" d="M 226.182295 77.930069 
L 226.182295 46.710944 
" style="fill:none;stroke:#0000ff;stroke-width:1.5;"/>
    <path clip-path="url(#p315dae7e4c)" d="M 228.805246 68.588856 
L 228.805246 37.36973 
" style="fill:none;stroke:#0000ff;stroke-width:1.5;"/>
    <path clip-path="url(#p315dae7e4c)" d="M 231.428197 72.081869 
L 231.428197 40.862744 
" style="fill:none;stroke:#0000ff;stroke-width:1.5;"/>
    <path clip-path="url(#p315dae7e4c)" d="M 234.051148 64.16177 
L 234.051148 32.942645 
" style="fill:none;stroke:#0000ff;stroke-width:1.5;"/>
    <path clip-path="url(#p315dae7e4c)" d="M 236.674098 93.740333 
L 236.674098 62.521208 
" style="fill:none;stroke:#0000ff;stroke-width:1.5;"/>
    <path clip-path="url(#p315dae7e4c)" d="M 239.297049 87.685603 
L 239.297049 56.466478 
" style="fill:none;stroke:#0000ff;stroke-width:1.5;"/>
    <path clip-path="url(#p315dae7e4c)" d="M 241.92 85.787084 
L 241.92 54.567958 
" style="fill:none;stroke:#0000ff;stroke-width:1.5;"/>
    <path clip-path="url(#p315dae7e4c)" d="M 244.542951 81.103599 
L 244.542951 49.884474 
" style="fill:none;stroke:#0000ff;stroke-width:1.5;"/>
    <path clip-path="url(#p315dae7e4c)" d="M 247.165902 110.457563 
L 247.165902 79.238437 
" style="fill:none;stroke:#0000ff;stroke-width:1.5;"/>
    <path clip-path="url(#p315dae7e4c)" d="M 249.788852 62.94346 
L 249.788852 31.724334 
" style="fill:none;stroke:#0000ff;stroke-width:1.5;"/>
    <path clip-path="url(#p315dae7e4c)" d="M 252.411803 70.116542 
L 252.411803 38.897417 
" style="fill:none;stroke:#0000ff;stroke-width:1.5;"/>
    <path clip-path="url(#p315dae7e4c)" d="M 255.034754 73.512691 
L 255.034754 42.293565 
" style="fill:none;stroke:#0000ff;stroke-width:1.5;"/>
    <path clip-path="url(#p315dae7e4c)" d="M 257.657705 82.196666 
L 257.657705 50.977541 
" style="fill:none;stroke:#0000ff;stroke-width:1.5;"/>
    <path clip-path="url(#p315dae7e4c)" d="M 260.280656 80.742347 
L 260.280656 49.523221 
" style="fill:none;stroke:#0000ff;stroke-width:1.5;"/>
    <path clip-path="url(#p315dae7e4c)" d="M 262.903607 74.568122 
L 262.903607 43.348997 
" style="fill:none;stroke:#0000ff;stroke-width:1.5;"/>
    <path clip-path="url(#p315dae7e4c)" d="M 265.526557 69.136275 
L 265.526557 37.91715 
" style="fill:none;stroke:#0000ff;stroke-width:1.5;"/>
    <path clip-path="url(#p315dae7e4c)" d="M 268.149508 78.849195 
L 268.149508 47.63007 
" style="fill:none;stroke:#0000ff;stroke-width:1.5;"/>
    <path clip-path="url(#p315dae7e4c)" d="M 270.772459 87.658254 
L 270.772459 56.439129 
" style="fill:none;stroke:#0000ff;stroke-width:1.5;"/>
    <path clip-path="url(#p315dae7e4c)" d="M 273.39541 88.493831 
L 273.39541 57.274706 
" style="fill:none;stroke:#0000ff;stroke-width:1.5;"/>
    <path clip-path="url(#p315dae7e4c)" d="M 276.018361 74.217572 
L 276.018361 42.998447 
" style="fill:none;stroke:#0000ff;stroke-width:1.5;"/>
    <path clip-path="url(#p315dae7e4c)" d="M 278.641311 81.707953 
L 278.641311 50.488827 
" style="fill:none;stroke:#0000ff;stroke-width:1.5;"/>
    <path clip-path="url(#p315dae7e4c)" d="M 281.264262 75.146576 
L 281.264262 43.927451 
" style="fill:none;stroke:#0000ff;stroke-width:1.5;"/>
    <path clip-path="url(#p315dae7e4c)" d="M 283.887213 77.675642 
L 283.887213 46.456517 
" style="fill:none;stroke:#0000ff;stroke-width:1.5;"/>
    <path clip-path="url(#p315dae7e4c)" d="M 286.510164 90.845805 
L 286.510164 59.62668 
" style="fill:none;stroke:#0000ff;stroke-width:1.5;"/>
    <path clip-path="url(#p315dae7e4c)" d="M 289.133115 65.715231 
L 289.133115 34.496106 
" style="fill:none;stroke:#0000ff;stroke-width:1.5;"/>
    <path clip-path="url(#p315dae7e4c)" d="M 291.756066 73.459248 
L 291.756066 42.240123 
" style="fill:none;stroke:#0000ff;stroke-width:1.5;"/>
    <path clip-path="url(#p315dae7e4c)" d="M 294.379016 93.676541 
L 294.379016 62.457416 
" style="fill:none;stroke:#0000ff;stroke-width:1.5;"/>
    <path clip-path="url(#p315dae7e4c)" d="M 297.001967 90.256324 
L 297.001967 59.037199 
" style="fill:none;stroke:#0000ff;stroke-width:1.5;"/>
    <path clip-path="url(#p315dae7e4c)" d="M 299.624918 70.520433 
L 299.624918 39.301308 
" style="fill:none;stroke:#0000ff;stroke-width:1.5;"/>
    <path clip-path="url(#p315dae7e4c)" d="M 302.247869 78.670553 
L 302.247869 47.451428 
" style="fill:none;stroke:#0000ff;stroke-width:1.5;"/>
    <path clip-path="url(#p315dae7e4c)" d="M 304.87082 82.933347 
L 304.87082 51.714222 
" style="fill:none;stroke:#0000ff;stroke-width:1.5;"/>
    <path clip-path="url(#p315dae7e4c)" d="M 307.49377 74.973488 
L 307.49377 43.754363 
" style="fill:none;stroke:#0000ff;stroke-width:1.5;"/>
    <path clip-path="url(#p315dae7e4c)" d="M 310.116721 78.756533 
L 310.116721 47.537408 
" style="fill:none;stroke:#0000ff;stroke-width:1.5;"/>
    <path clip-path="url(#p315dae7e4c)" d="M 312.739672 82.847363 
L 312.739672 51.628238 
" style="fill:none;stroke:#0000ff;stroke-width:1.5;"/>
    <path clip-path="url(#p315dae7e4c)" d="M 315.362623 62.457563 
L 315.362623 31.238437 
" style="fill:none;stroke:#0000ff;stroke-width:1.5;"/>
    <path clip-path="url(#p315dae7e4c)" d="M 317.985574 83.297693 
L 317.985574 52.078568 
" style="fill:none;stroke:#0000ff;stroke-width:1.5;"/>
    <path clip-path="url(#p315dae7e4c)" d="M 320.608525 91.056828 
L 320.608525 59.837703 
" style="fill:none;stroke:#0000ff;stroke-width:1.5;"/>
    <path clip-path="url(#p315dae7e4c)" d="M 323.231475 96.749684 
L 323.231475 65.530559 
" style="fill:none;stroke:#0000ff;stroke-width:1.5;"/>
    <path clip-path="url(#p315dae7e4c)" d="M 325.854426 82.232338 
L 325.854426 51.013212 
" style="fill:none;stroke:#0000ff;stroke-width:1.5;"/>
    <path clip-path="url(#p315dae7e4c)" d="M 328.477377 78.203603 
L 328.477377 46.984478 
" style="fill:none;stroke:#0000ff;stroke-width:1.5;"/>
    <path clip-path="url(#p315dae7e4c)" d="M 331.100328 65.591763 
L 331.100328 34.372638 
" style="fill:none;stroke:#0000ff;stroke-width:1.5;"/>
    <path clip-path="url(#p315dae7e4c)" d="M 333.723279 78.196574 
L 333.723279 46.977448 
" style="fill:none;stroke:#0000ff;stroke-width:1.5;"/>
    <path clip-path="url(#p315dae7e4c)" d="M 336.34623 82.510678 
L 336.34623 51.291553 
" style="fill:none;stroke:#0000ff;stroke-width:1.5;"/>
    <path clip-path="url(#p315dae7e4c)" d="M 338.96918 75.585509 
L 338.96918 44.366384 
" style="fill:none;stroke:#0000ff;stroke-width:1.5;"/>
    <path clip-path="url(#p315dae7e4c)" d="M 341.592131 93.581542 
L 341.592131 62.362417 
" style="fill:none;stroke:#0000ff;stroke-width:1.5;"/>
    <path clip-path="url(#p315dae7e4c)" d="M 344.215082 70.673778 
L 344.215082 39.454653 
" style="fill:none;stroke:#0000ff;stroke-width:1.5;"/>
    <path clip-path="url(#p315dae7e4c)" d="M 346.838033 86.802197 
L 346.838033 55.583072 
" style="fill:none;stroke:#0000ff;stroke-width:1.5;"/>
    <path clip-path="url(#p315dae7e4c)" d="M 352.083934 77.815708 
L 352.083934 46.596582 
" style="fill:none;stroke:#0000ff;stroke-width:1.5;"/>
    <path clip-path="url(#p315dae7e4c)" d="M 354.706885 64.321746 
L 354.706885 33.102621 
" style="fill:none;stroke:#0000ff;stroke-width:1.5;"/>
    <path clip-path="url(#p315dae7e4c)" d="M 357.329836 93.851865 
L 357.329836 62.63274 
" style="fill:none;stroke:#0000ff;stroke-width:1.5;"/>
    <path clip-path="url(#p315dae7e4c)" d="M 359.952787 77.717107 
L 359.952787 46.497982 
" style="fill:none;stroke:#0000ff;stroke-width:1.5;"/>
    <path clip-path="url(#p315dae7e4c)" d="M 362.575738 68.674906 
L 362.575738 37.455781 
" style="fill:none;stroke:#0000ff;stroke-width:1.5;"/>
    <path clip-path="url(#p315dae7e4c)" d="M 365.198689 75.980133 
L 365.198689 44.761008 
" style="fill:none;stroke:#0000ff;stroke-width:1.5;"/>
    <path clip-path="url(#p315dae7e4c)" d="M 367.821639 75.220781 
L 367.821639 44.001656 
" style="fill:none;stroke:#0000ff;stroke-width:1.5;"/>
    <path clip-path="url(#p315dae7e4c)" d="M 370.44459 84.610753 
L 370.44459 53.391628 
" style="fill:none;stroke:#0000ff;stroke-width:1.5;"/>
    <path clip-path="url(#p315dae7e4c)" d="M 373.067541 80.238339 
L 373.067541 49.019214 
" style="fill:none;stroke:#0000ff;stroke-width:1.5;"/>
    <path clip-path="url(#p315dae7e4c)" d="M 383.559344 78.157938 
L 383.559344 46.938812 
" style="fill:none;stroke:#0000ff;stroke-width:1.5;"/>
    <path clip-path="url(#p315dae7e4c)" d="M 386.182295 89.718814 
L 386.182295 58.499688 
" style="fill:none;stroke:#0000ff;stroke-width:1.5;"/>
    <path clip-path="url(#p315dae7e4c)" d="M 388.805246 80.947748 
L 388.805246 49.728622 
" style="fill:none;stroke:#0000ff;stroke-width:1.5;"/>
    <path clip-path="url(#p315dae7e4c)" d="M 391.428197 84.539849 
L 391.428197 53.320723 
" style="fill:none;stroke:#0000ff;stroke-width:1.5;"/>
    <path clip-path="url(#p315dae7e4c)" d="M 394.051148 88.674964 
L 394.051148 57.455839 
" style="fill:none;stroke:#0000ff;stroke-width:1.5;"/>
    <path clip-path="url(#p315dae7e4c)" d="M 399.297049 88.19358 
L 399.297049 56.974455 
" style="fill:none;stroke:#0000ff;stroke-width:1.5;"/>
    <path clip-path="url(#p315dae7e4c)" d="M 401.92 79.785524 
L 401.92 48.566399 
" style="fill:none;stroke:#0000ff;stroke-width:1.5;"/>
   </g>
   <g id="line2d_7">
    <path clip-path="url(#p315dae7e4c)" d="M 81.92 65.113903 
L 401.92 65.113903 
" style="fill:none;stroke:#ff0000;stroke-linecap:square;stroke-width:1.5;"/>
   </g>
   <g id="line2d_8">
    <defs>
     <path d="M -3 0 
L 3 0 
M 0 3 
L 0 -3 
" id="mbfd4a4fca6" style="stroke:#0000ff;"/>
    </defs>
    <g clip-path="url(#p315dae7e4c)">
     <use style="fill:#0000ff;stroke:#0000ff;" x="81.92" xlink:href="#mbfd4a4fca6" y="67.138881"/>
     <use style="fill:#0000ff;stroke:#0000ff;" x="113.39541" xlink:href="#mbfd4a4fca6" y="71.453717"/>
     <use style="fill:#0000ff;stroke:#0000ff;" x="134.379016" xlink:href="#mbfd4a4fca6" y="59.968177"/>
     <use style="fill:#0000ff;stroke:#0000ff;" x="163.231475" xlink:href="#mbfd4a4fca6" y="63.662175"/>
     <use style="fill:#0000ff;stroke:#0000ff;" x="171.100328" xlink:href="#mbfd4a4fca6" y="60.494978"/>
     <use style="fill:#0000ff;stroke:#0000ff;" x="178.96918" xlink:href="#mbfd4a4fca6" y="60.910264"/>
     <use style="fill:#0000ff;stroke:#0000ff;" x="181.592131" xlink:href="#mbfd4a4fca6" y="68.430181"/>
     <use style="fill:#0000ff;stroke:#0000ff;" x="184.215082" xlink:href="#mbfd4a4fca6" y="55.277341"/>
     <use style="fill:#0000ff;stroke:#0000ff;" x="186.838033" xlink:href="#mbfd4a4fca6" y="58.410966"/>
     <use style="fill:#0000ff;stroke:#0000ff;" x="192.083934" xlink:href="#mbfd4a4fca6" y="56.085984"/>
     <use style="fill:#0000ff;stroke:#0000ff;" x="194.706885" xlink:href="#mbfd4a4fca6" y="74.612526"/>
     <use style="fill:#0000ff;stroke:#0000ff;" x="197.329836" xlink:href="#mbfd4a4fca6" y="54.099383"/>
     <use style="fill:#0000ff;stroke:#0000ff;" x="199.952787" xlink:href="#mbfd4a4fca6" y="57.286417"/>
     <use style="fill:#0000ff;stroke:#0000ff;" x="202.575738" xlink:href="#mbfd4a4fca6" y="60.795182"/>
     <use style="fill:#0000ff;stroke:#0000ff;" x="205.198689" xlink:href="#mbfd4a4fca6" y="72.450303"/>
     <use style="fill:#0000ff;stroke:#0000ff;" x="207.821639" xlink:href="#mbfd4a4fca6" y="77.953127"/>
     <use style="fill:#0000ff;stroke:#0000ff;" x="210.44459" xlink:href="#mbfd4a4fca6" y="62.771805"/>
     <use style="fill:#0000ff;stroke:#0000ff;" x="213.067541" xlink:href="#mbfd4a4fca6" y="52.394293"/>
     <use style="fill:#0000ff;stroke:#0000ff;" x="215.690492" xlink:href="#mbfd4a4fca6" y="61.290765"/>
     <use style="fill:#0000ff;stroke:#0000ff;" x="218.313443" xlink:href="#mbfd4a4fca6" y="65.402408"/>
     <use style="fill:#0000ff;stroke:#0000ff;" x="220.936393" xlink:href="#mbfd4a4fca6" y="83.456683"/>
     <use style="fill:#0000ff;stroke:#0000ff;" x="223.559344" xlink:href="#mbfd4a4fca6" y="51.007423"/>
     <use style="fill:#0000ff;stroke:#0000ff;" x="226.182295" xlink:href="#mbfd4a4fca6" y="62.320507"/>
     <use style="fill:#0000ff;stroke:#0000ff;" x="228.805246" xlink:href="#mbfd4a4fca6" y="52.979293"/>
     <use style="fill:#0000ff;stroke:#0000ff;" x="231.428197" xlink:href="#mbfd4a4fca6" y="56.472306"/>
     <use style="fill:#0000ff;stroke:#0000ff;" x="234.051148" xlink:href="#mbfd4a4fca6" y="48.552207"/>
     <use style="fill:#0000ff;stroke:#0000ff;" x="236.674098" xlink:href="#mbfd4a4fca6" y="78.13077"/>
     <use style="fill:#0000ff;stroke:#0000ff;" x="239.297049" xlink:href="#mbfd4a4fca6" y="72.076041"/>
     <use style="fill:#0000ff;stroke:#0000ff;" x="241.92" xlink:href="#mbfd4a4fca6" y="70.177521"/>
     <use style="fill:#0000ff;stroke:#0000ff;" x="244.542951" xlink:href="#mbfd4a4fca6" y="65.494036"/>
     <use style="fill:#0000ff;stroke:#0000ff;" x="247.165902" xlink:href="#mbfd4a4fca6" y="94.848"/>
     <use style="fill:#0000ff;stroke:#0000ff;" x="249.788852" xlink:href="#mbfd4a4fca6" y="47.333897"/>
     <use style="fill:#0000ff;stroke:#0000ff;" x="252.411803" xlink:href="#mbfd4a4fca6" y="54.506979"/>
     <use style="fill:#0000ff;stroke:#0000ff;" x="255.034754" xlink:href="#mbfd4a4fca6" y="57.903128"/>
     <use style="fill:#0000ff;stroke:#0000ff;" x="257.657705" xlink:href="#mbfd4a4fca6" y="66.587103"/>
     <use style="fill:#0000ff;stroke:#0000ff;" x="260.280656" xlink:href="#mbfd4a4fca6" y="65.132784"/>
     <use style="fill:#0000ff;stroke:#0000ff;" x="262.903607" xlink:href="#mbfd4a4fca6" y="58.958559"/>
     <use style="fill:#0000ff;stroke:#0000ff;" x="265.526557" xlink:href="#mbfd4a4fca6" y="53.526713"/>
     <use style="fill:#0000ff;stroke:#0000ff;" x="268.149508" xlink:href="#mbfd4a4fca6" y="63.239633"/>
     <use style="fill:#0000ff;stroke:#0000ff;" x="270.772459" xlink:href="#mbfd4a4fca6" y="72.048692"/>
     <use style="fill:#0000ff;stroke:#0000ff;" x="273.39541" xlink:href="#mbfd4a4fca6" y="72.884269"/>
     <use style="fill:#0000ff;stroke:#0000ff;" x="276.018361" xlink:href="#mbfd4a4fca6" y="58.60801"/>
     <use style="fill:#0000ff;stroke:#0000ff;" x="278.641311" xlink:href="#mbfd4a4fca6" y="66.09839"/>
     <use style="fill:#0000ff;stroke:#0000ff;" x="281.264262" xlink:href="#mbfd4a4fca6" y="59.537013"/>
     <use style="fill:#0000ff;stroke:#0000ff;" x="283.887213" xlink:href="#mbfd4a4fca6" y="62.066079"/>
     <use style="fill:#0000ff;stroke:#0000ff;" x="286.510164" xlink:href="#mbfd4a4fca6" y="75.236243"/>
     <use style="fill:#0000ff;stroke:#0000ff;" x="289.133115" xlink:href="#mbfd4a4fca6" y="50.105668"/>
     <use style="fill:#0000ff;stroke:#0000ff;" x="291.756066" xlink:href="#mbfd4a4fca6" y="57.849686"/>
     <use style="fill:#0000ff;stroke:#0000ff;" x="294.379016" xlink:href="#mbfd4a4fca6" y="78.066978"/>
     <use style="fill:#0000ff;stroke:#0000ff;" x="297.001967" xlink:href="#mbfd4a4fca6" y="74.646762"/>
     <use style="fill:#0000ff;stroke:#0000ff;" x="299.624918" xlink:href="#mbfd4a4fca6" y="54.910871"/>
     <use style="fill:#0000ff;stroke:#0000ff;" x="302.247869" xlink:href="#mbfd4a4fca6" y="63.060991"/>
     <use style="fill:#0000ff;stroke:#0000ff;" x="304.87082" xlink:href="#mbfd4a4fca6" y="67.323784"/>
     <use style="fill:#0000ff;stroke:#0000ff;" x="307.49377" xlink:href="#mbfd4a4fca6" y="59.363926"/>
     <use style="fill:#0000ff;stroke:#0000ff;" x="310.116721" xlink:href="#mbfd4a4fca6" y="63.146971"/>
     <use style="fill:#0000ff;stroke:#0000ff;" x="312.739672" xlink:href="#mbfd4a4fca6" y="67.237801"/>
     <use style="fill:#0000ff;stroke:#0000ff;" x="315.362623" xlink:href="#mbfd4a4fca6" y="46.848"/>
     <use style="fill:#0000ff;stroke:#0000ff;" x="317.985574" xlink:href="#mbfd4a4fca6" y="67.688131"/>
     <use style="fill:#0000ff;stroke:#0000ff;" x="320.608525" xlink:href="#mbfd4a4fca6" y="75.447265"/>
     <use style="fill:#0000ff;stroke:#0000ff;" x="323.231475" xlink:href="#mbfd4a4fca6" y="81.140121"/>
     <use style="fill:#0000ff;stroke:#0000ff;" x="325.854426" xlink:href="#mbfd4a4fca6" y="66.622775"/>
     <use style="fill:#0000ff;stroke:#0000ff;" x="328.477377" xlink:href="#mbfd4a4fca6" y="62.59404"/>
     <use style="fill:#0000ff;stroke:#0000ff;" x="331.100328" xlink:href="#mbfd4a4fca6" y="49.9822"/>
     <use style="fill:#0000ff;stroke:#0000ff;" x="333.723279" xlink:href="#mbfd4a4fca6" y="62.587011"/>
     <use style="fill:#0000ff;stroke:#0000ff;" x="336.34623" xlink:href="#mbfd4a4fca6" y="66.901116"/>
     <use style="fill:#0000ff;stroke:#0000ff;" x="338.96918" xlink:href="#mbfd4a4fca6" y="59.975946"/>
     <use style="fill:#0000ff;stroke:#0000ff;" x="341.592131" xlink:href="#mbfd4a4fca6" y="77.971979"/>
     <use style="fill:#0000ff;stroke:#0000ff;" x="344.215082" xlink:href="#mbfd4a4fca6" y="55.064215"/>
     <use style="fill:#0000ff;stroke:#0000ff;" x="346.838033" xlink:href="#mbfd4a4fca6" y="71.192635"/>
     <use style="fill:#0000ff;stroke:#0000ff;" x="352.083934" xlink:href="#mbfd4a4fca6" y="62.206145"/>
     <use style="fill:#0000ff;stroke:#0000ff;" x="354.706885" xlink:href="#mbfd4a4fca6" y="48.712184"/>
     <use style="fill:#0000ff;stroke:#0000ff;" x="357.329836" xlink:href="#mbfd4a4fca6" y="78.242303"/>
     <use style="fill:#0000ff;stroke:#0000ff;" x="359.952787" xlink:href="#mbfd4a4fca6" y="62.107544"/>
     <use style="fill:#0000ff;stroke:#0000ff;" x="362.575738" xlink:href="#mbfd4a4fca6" y="53.065343"/>
     <use style="fill:#0000ff;stroke:#0000ff;" x="365.198689" xlink:href="#mbfd4a4fca6" y="60.37057"/>
     <use style="fill:#0000ff;stroke:#0000ff;" x="367.821639" xlink:href="#mbfd4a4fca6" y="59.611219"/>
     <use style="fill:#0000ff;stroke:#0000ff;" x="370.44459" xlink:href="#mbfd4a4fca6" y="69.001191"/>
     <use style="fill:#0000ff;stroke:#0000ff;" x="373.067541" xlink:href="#mbfd4a4fca6" y="64.628776"/>
     <use style="fill:#0000ff;stroke:#0000ff;" x="383.559344" xlink:href="#mbfd4a4fca6" y="62.548375"/>
     <use style="fill:#0000ff;stroke:#0000ff;" x="386.182295" xlink:href="#mbfd4a4fca6" y="74.109251"/>
     <use style="fill:#0000ff;stroke:#0000ff;" x="388.805246" xlink:href="#mbfd4a4fca6" y="65.338185"/>
     <use style="fill:#0000ff;stroke:#0000ff;" x="391.428197" xlink:href="#mbfd4a4fca6" y="68.930286"/>
     <use style="fill:#0000ff;stroke:#0000ff;" x="394.051148" xlink:href="#mbfd4a4fca6" y="73.065401"/>
     <use style="fill:#0000ff;stroke:#0000ff;" x="399.297049" xlink:href="#mbfd4a4fca6" y="72.584018"/>
     <use style="fill:#0000ff;stroke:#0000ff;" x="401.92" xlink:href="#mbfd4a4fca6" y="64.175962"/>
    </g>
   </g>
   <g id="patch_3">
    <path d="M 69.12 96.768 
L 69.12 44.928 
" style="fill:none;stroke:#000000;stroke-linecap:square;stroke-linejoin:miter;stroke-width:0.8;"/>
   </g>
   <g id="patch_4">
    <path d="M 414.72 96.768 
L 414.72 44.928 
" style="fill:none;stroke:#000000;stroke-linecap:square;stroke-linejoin:miter;stroke-width:0.8;"/>
   </g>
   <g id="patch_5">
    <path d="M 69.12 96.768 
L 414.72 96.768 
" style="fill:none;stroke:#000000;stroke-linecap:square;stroke-linejoin:miter;stroke-width:0.8;"/>
   </g>
   <g id="patch_6">
    <path d="M 69.12 44.928 
L 414.72 44.928 
" style="fill:none;stroke:#000000;stroke-linecap:square;stroke-linejoin:miter;stroke-width:0.8;"/>
   </g>
   <g id="text_4">
    <!-- Function (0/0): y = a*exp(-(x-x0)**2/w**2)+b -->
    <defs>
     <path d="M 9.8125 72.90625 
L 51.703125 72.90625 
L 51.703125 64.59375 
L 19.671875 64.59375 
L 19.671875 43.109375 
L 48.578125 43.109375 
L 48.578125 34.8125 
L 19.671875 34.8125 
L 19.671875 0 
L 9.8125 0 
z
" id="DejaVuSans-46"/>
     <path d="M 48.78125 52.59375 
L 48.78125 44.1875 
Q 44.96875 46.296875 41.140625 47.34375 
Q 37.3125 48.390625 33.40625 48.390625 
Q 24.65625 48.390625 19.8125 42.84375 
Q 14.984375 37.3125 14.984375 27.296875 
Q 14.984375 17.28125 19.8125 11.734375 
Q 24.65625 6.203125 33.40625 6.203125 
Q 37.3125 6.203125 41.140625 7.25 
Q 44.96875 8.296875 48.78125 10.40625 
L 48.78125 2.09375 
Q 45.015625 0.34375 40.984375 -0.53125 
Q 36.96875 -1.421875 32.421875 -1.421875 
Q 20.0625 -1.421875 12.78125 6.34375 
Q 5.515625 14.109375 5.515625 27.296875 
Q 5.515625 40.671875 12.859375 48.328125 
Q 20.21875 56 33.015625 56 
Q 37.15625 56 41.109375 55.140625 
Q 45.0625 54.296875 48.78125 52.59375 
z
" id="DejaVuSans-63"/>
     <path d="M 30.609375 48.390625 
Q 23.390625 48.390625 19.1875 42.75 
Q 14.984375 37.109375 14.984375 27.296875 
Q 14.984375 17.484375 19.15625 11.84375 
Q 23.34375 6.203125 30.609375 6.203125 
Q 37.796875 6.203125 41.984375 11.859375 
Q 46.1875 17.53125 46.1875 27.296875 
Q 46.1875 37.015625 41.984375 42.703125 
Q 37.796875 48.390625 30.609375 48.390625 
z
M 30.609375 56 
Q 42.328125 56 49.015625 48.375 
Q 55.71875 40.765625 55.71875 27.296875 
Q 55.71875 13.875 49.015625 6.21875 
Q 42.328125 -1.421875 30.609375 -1.421875 
Q 18.84375 -1.421875 12.171875 6.21875 
Q 5.515625 13.875 5.515625 27.296875 
Q 5.515625 40.765625 12.171875 48.375 
Q 18.84375 56 30.609375 56 
z
" id="DejaVuSans-6f"/>
     <path id="DejaVuSans-20"/>
     <path d="M 31 75.875 
Q 24.46875 64.65625 21.28125 53.65625 
Q 18.109375 42.671875 18.109375 31.390625 
Q 18.109375 20.125 21.3125 9.0625 
Q 24.515625 -2 31 -13.1875 
L 23.1875 -13.1875 
Q 15.875 -1.703125 12.234375 9.375 
Q 8.59375 20.453125 8.59375 31.390625 
Q 8.59375 42.28125 12.203125 53.3125 
Q 15.828125 64.359375 23.1875 75.875 
z
" id="DejaVuSans-28"/>
     <path d="M 25.390625 72.90625 
L 33.6875 72.90625 
L 8.296875 -9.28125 
L 0 -9.28125 
z
" id="DejaVuSans-2f"/>
     <path d="M 8.015625 75.875 
L 15.828125 75.875 
Q 23.140625 64.359375 26.78125 53.3125 
Q 30.421875 42.28125 30.421875 31.390625 
Q 30.421875 20.453125 26.78125 9.375 
Q 23.140625 -1.703125 15.828125 -13.1875 
L 8.015625 -13.1875 
Q 14.5 -2 17.703125 9.0625 
Q 20.90625 20.125 20.90625 31.390625 
Q 20.90625 42.671875 17.703125 53.65625 
Q 14.5 64.65625 8.015625 75.875 
z
" id="DejaVuSans-29"/>
     <path d="M 11.71875 12.40625 
L 22.015625 12.40625 
L 22.015625 0 
L 11.71875 0 
z
M 11.71875 51.703125 
L 22.015625 51.703125 
L 22.015625 39.3125 
L 11.71875 39.3125 
z
" id="DejaVuSans-3a"/>
     <path d="M 32.171875 -5.078125 
Q 28.375 -14.84375 24.75 -17.8125 
Q 21.140625 -20.796875 15.09375 -20.796875 
L 7.90625 -20.796875 
L 7.90625 -13.28125 
L 13.1875 -13.28125 
Q 16.890625 -13.28125 18.9375 -11.515625 
Q 21 -9.765625 23.484375 -3.21875 
L 25.09375 0.875 
L 2.984375 54.6875 
L 12.5 54.6875 
L 29.59375 11.921875 
L 46.6875 54.6875 
L 56.203125 54.6875 
z
" id="DejaVuSans-79"/>
     <path d="M 10.59375 45.40625 
L 73.1875 45.40625 
L 73.1875 37.203125 
L 10.59375 37.203125 
z
M 10.59375 25.484375 
L 73.1875 25.484375 
L 73.1875 17.1875 
L 10.59375 17.1875 
z
" id="DejaVuSans-3d"/>
     <path d="M 47.015625 60.890625 
L 29.5 51.421875 
L 47.015625 41.890625 
L 44.1875 37.109375 
L 27.78125 47.015625 
L 27.78125 28.609375 
L 22.21875 28.609375 
L 22.21875 47.015625 
L 5.8125 37.109375 
L 2.984375 41.890625 
L 20.515625 51.421875 
L 2.984375 60.890625 
L 5.8125 65.71875 
L 22.21875 55.8125 
L 22.21875 74.21875 
L 27.78125 74.21875 
L 27.78125 55.8125 
L 44.1875 65.71875 
z
" id="DejaVuSans-2a"/>
     <path d="M 54.890625 54.6875 
L 35.109375 28.078125 
L 55.90625 0 
L 45.3125 0 
L 29.390625 21.484375 
L 13.484375 0 
L 2.875 0 
L 24.125 28.609375 
L 4.6875 54.6875 
L 15.28125 54.6875 
L 29.78125 35.203125 
L 44.28125 54.6875 
z
" id="DejaVuSans-78"/>
     <path d="M 18.109375 8.203125 
L 18.109375 -20.796875 
L 9.078125 -20.796875 
L 9.078125 54.6875 
L 18.109375 54.6875 
L 18.109375 46.390625 
Q 20.953125 51.265625 25.265625 53.625 
Q 29.59375 56 35.59375 56 
Q 45.5625 56 51.78125 48.09375 
Q 58.015625 40.1875 58.015625 27.296875 
Q 58.015625 14.40625 51.78125 6.484375 
Q 45.5625 -1.421875 35.59375 -1.421875 
Q 29.59375 -1.421875 25.265625 0.953125 
Q 20.953125 3.328125 18.109375 8.203125 
z
M 48.6875 27.296875 
Q 48.6875 37.203125 44.609375 42.84375 
Q 40.53125 48.484375 33.40625 48.484375 
Q 26.265625 48.484375 22.1875 42.84375 
Q 18.109375 37.203125 18.109375 27.296875 
Q 18.109375 17.390625 22.1875 11.75 
Q 26.265625 6.109375 33.40625 6.109375 
Q 40.53125 6.109375 44.609375 11.75 
Q 48.6875 17.390625 48.6875 27.296875 
z
" id="DejaVuSans-70"/>
     <path d="M 4.890625 31.390625 
L 31.203125 31.390625 
L 31.203125 23.390625 
L 4.890625 23.390625 
z
" id="DejaVuSans-2d"/>
     <path d="M 4.203125 54.6875 
L 13.1875 54.6875 
L 24.421875 12.015625 
L 35.59375 54.6875 
L 46.1875 54.6875 
L 57.421875 12.015625 
L 68.609375 54.6875 
L 77.59375 54.6875 
L 63.28125 0 
L 52.6875 0 
L 40.921875 44.828125 
L 29.109375 0 
L 18.5 0 
z
" id="DejaVuSans-77"/>
     <path d="M 46 62.703125 
L 46 35.5 
L 73.1875 35.5 
L 73.1875 27.203125 
L 46 27.203125 
L 46 0 
L 37.796875 0 
L 37.796875 27.203125 
L 10.59375 27.203125 
L 10.59375 35.5 
L 37.796875 35.5 
L 37.796875 62.703125 
z
" id="DejaVuSans-2b"/>
     <path d="M 48.6875 27.296875 
Q 48.6875 37.203125 44.609375 42.84375 
Q 40.53125 48.484375 33.40625 48.484375 
Q 26.265625 48.484375 22.1875 42.84375 
Q 18.109375 37.203125 18.109375 27.296875 
Q 18.109375 17.390625 22.1875 11.75 
Q 26.265625 6.109375 33.40625 6.109375 
Q 40.53125 6.109375 44.609375 11.75 
Q 48.6875 17.390625 48.6875 27.296875 
z
M 18.109375 46.390625 
Q 20.953125 51.265625 25.265625 53.625 
Q 29.59375 56 35.59375 56 
Q 45.5625 56 51.78125 48.09375 
Q 58.015625 40.1875 58.015625 27.296875 
Q 58.015625 14.40625 51.78125 6.484375 
Q 45.5625 -1.421875 35.59375 -1.421875 
Q 29.59375 -1.421875 25.265625 0.953125 
Q 20.953125 3.328125 18.109375 8.203125 
L 18.109375 0 
L 9.078125 0 
L 9.078125 75.984375 
L 18.109375 75.984375 
z
" id="DejaVuSans-62"/>
    </defs>
    <g transform="translate(69.12 27.730187)scale(0.1 -0.1)">
     <use xlink:href="#DejaVuSans-46"/>
     <use x="57.441406" xlink:href="#DejaVuSans-75"/>
     <use x="120.820312" xlink:href="#DejaVuSans-6e"/>
     <use x="184.199219" xlink:href="#DejaVuSans-63"/>
     <use x="239.179688" xlink:href="#DejaVuSans-74"/>
     <use x="278.388672" xlink:href="#DejaVuSans-69"/>
     <use x="306.171875" xlink:href="#DejaVuSans-6f"/>
     <use x="367.353516" xlink:href="#DejaVuSans-6e"/>
     <use x="430.732422" xlink:href="#DejaVuSans-20"/>
     <use x="462.519531" xlink:href="#DejaVuSans-28"/>
     <use x="501.533203" xlink:href="#DejaVuSans-30"/>
     <use x="565.15625" xlink:href="#DejaVuSans-2f"/>
     <use x="598.847656" xlink:href="#DejaVuSans-30"/>
     <use x="662.470703" xlink:href="#DejaVuSans-29"/>
     <use x="701.484375" xlink:href="#DejaVuSans-3a"/>
     <use x="735.175781" xlink:href="#DejaVuSans-20"/>
     <use x="766.962891" xlink:href="#DejaVuSans-79"/>
     <use x="826.142578" xlink:href="#DejaVuSans-20"/>
     <use x="857.929688" xlink:href="#DejaVuSans-3d"/>
     <use x="941.71875" xlink:href="#DejaVuSans-20"/>
     <use x="973.505859" xlink:href="#DejaVuSans-61"/>
     <use x="1034.785156" xlink:href="#DejaVuSans-2a"/>
     <use x="1084.785156" xlink:href="#DejaVuSans-65"/>
     <use x="1146.292969" xlink:href="#DejaVuSans-78"/>
     <use x="1205.472656" xlink:href="#DejaVuSans-70"/>
     <use x="1268.949219" xlink:href="#DejaVuSans-28"/>
     <use x="1307.962891" xlink:href="#DejaVuSans-2d"/>
     <use x="1344.046875" xlink:href="#DejaVuSans-28"/>
     <use x="1383.060547" xlink:href="#DejaVuSans-78"/>
     <use x="1442.240234" xlink:href="#DejaVuSans-2d"/>
     <use x="1478.324219" xlink:href="#DejaVuSans-78"/>
     <use x="1537.503906" xlink:href="#DejaVuSans-30"/>
     <use x="1601.126953" xlink:href="#DejaVuSans-29"/>
     <use x="1640.140625" xlink:href="#DejaVuSans-2a"/>
     <use x="1690.140625" xlink:href="#DejaVuSans-2a"/>
     <use x="1740.140625" xlink:href="#DejaVuSans-32"/>
     <use x="1803.763672" xlink:href="#DejaVuSans-2f"/>
     <use x="1837.455078" xlink:href="#DejaVuSans-77"/>
     <use x="1919.242188" xlink:href="#DejaVuSans-2a"/>
     <use x="1969.242188" xlink:href="#DejaVuSans-2a"/>
     <use x="2019.242188" xlink:href="#DejaVuSans-32"/>
     <use x="2082.865234" xlink:href="#DejaVuSans-29"/>
     <use x="2121.878906" xlink:href="#DejaVuSans-2b"/>
     <use x="2205.667969" xlink:href="#DejaVuSans-62"/>
    </g>
    <!-- Fit: a=6.14$\pm$0.83, b=4.26$\pm$0.6, x0=4.278$\pm$0.011, w=0.128$\pm$0.023, -->
    <defs>
     <path d="M 33.015625 40.375 
Q 26.375 40.375 22.484375 35.828125 
Q 18.609375 31.296875 18.609375 23.390625 
Q 18.609375 15.53125 22.484375 10.953125 
Q 26.375 6.390625 33.015625 6.390625 
Q 39.65625 6.390625 43.53125 10.953125 
Q 47.40625 15.53125 47.40625 23.390625 
Q 47.40625 31.296875 43.53125 35.828125 
Q 39.65625 40.375 33.015625 40.375 
z
M 52.59375 71.296875 
L 52.59375 62.3125 
Q 48.875 64.0625 45.09375 64.984375 
Q 41.3125 65.921875 37.59375 65.921875 
Q 27.828125 65.921875 22.671875 59.328125 
Q 17.53125 52.734375 16.796875 39.40625 
Q 19.671875 43.65625 24.015625 45.921875 
Q 28.375 48.1875 33.59375 48.1875 
Q 44.578125 48.1875 50.953125 41.515625 
Q 57.328125 34.859375 57.328125 23.390625 
Q 57.328125 12.15625 50.6875 5.359375 
Q 44.046875 -1.421875 33.015625 -1.421875 
Q 20.359375 -1.421875 13.671875 8.265625 
Q 6.984375 17.96875 6.984375 36.375 
Q 6.984375 53.65625 15.1875 63.9375 
Q 23.390625 74.21875 37.203125 74.21875 
Q 40.921875 74.21875 44.703125 73.484375 
Q 48.484375 72.75 52.59375 71.296875 
z
" id="DejaVuSans-36"/>
     <path d="M 10.6875 12.40625 
L 21 12.40625 
L 21 0 
L 10.6875 0 
z
" id="DejaVuSans-2e"/>
     <path d="M 12.40625 8.296875 
L 28.515625 8.296875 
L 28.515625 63.921875 
L 10.984375 60.40625 
L 10.984375 69.390625 
L 28.421875 72.90625 
L 38.28125 72.90625 
L 38.28125 8.296875 
L 54.390625 8.296875 
L 54.390625 0 
L 12.40625 0 
z
" id="DejaVuSans-31"/>
     <path d="M 37.796875 64.3125 
L 12.890625 25.390625 
L 37.796875 25.390625 
z
M 35.203125 72.90625 
L 47.609375 72.90625 
L 47.609375 25.390625 
L 58.015625 25.390625 
L 58.015625 17.1875 
L 47.609375 17.1875 
L 47.609375 0 
L 37.796875 0 
L 37.796875 17.1875 
L 4.890625 17.1875 
L 4.890625 26.703125 
z
" id="DejaVuSans-34"/>
     <path d="M 46 62.703125 
L 46 43.796875 
L 73.1875 43.796875 
L 73.1875 35.5 
L 46 35.5 
L 46 16.609375 
L 37.796875 16.609375 
L 37.796875 35.5 
L 10.59375 35.5 
L 10.59375 43.796875 
L 37.796875 43.796875 
L 37.796875 62.703125 
z
M 10.59375 8.296875 
L 73.1875 8.296875 
L 73.1875 0 
L 10.59375 0 
z
" id="DejaVuSans-b1"/>
     <path d="M 31.78125 34.625 
Q 24.75 34.625 20.71875 30.859375 
Q 16.703125 27.09375 16.703125 20.515625 
Q 16.703125 13.921875 20.71875 10.15625 
Q 24.75 6.390625 31.78125 6.390625 
Q 38.8125 6.390625 42.859375 10.171875 
Q 46.921875 13.96875 46.921875 20.515625 
Q 46.921875 27.09375 42.890625 30.859375 
Q 38.875 34.625 31.78125 34.625 
z
M 21.921875 38.8125 
Q 15.578125 40.375 12.03125 44.71875 
Q 8.5 49.078125 8.5 55.328125 
Q 8.5 64.0625 14.71875 69.140625 
Q 20.953125 74.21875 31.78125 74.21875 
Q 42.671875 74.21875 48.875 69.140625 
Q 55.078125 64.0625 55.078125 55.328125 
Q 55.078125 49.078125 51.53125 44.71875 
Q 48 40.375 41.703125 38.8125 
Q 48.828125 37.15625 52.796875 32.3125 
Q 56.78125 27.484375 56.78125 20.515625 
Q 56.78125 9.90625 50.3125 4.234375 
Q 43.84375 -1.421875 31.78125 -1.421875 
Q 19.734375 -1.421875 13.25 4.234375 
Q 6.78125 9.90625 6.78125 20.515625 
Q 6.78125 27.484375 10.78125 32.3125 
Q 14.796875 37.15625 21.921875 38.8125 
z
M 18.3125 54.390625 
Q 18.3125 48.734375 21.84375 45.5625 
Q 25.390625 42.390625 31.78125 42.390625 
Q 38.140625 42.390625 41.71875 45.5625 
Q 45.3125 48.734375 45.3125 54.390625 
Q 45.3125 60.0625 41.71875 63.234375 
Q 38.140625 66.40625 31.78125 66.40625 
Q 25.390625 66.40625 21.84375 63.234375 
Q 18.3125 60.0625 18.3125 54.390625 
z
" id="DejaVuSans-38"/>
     <path d="M 40.578125 39.3125 
Q 47.65625 37.796875 51.625 33 
Q 55.609375 28.21875 55.609375 21.1875 
Q 55.609375 10.40625 48.1875 4.484375 
Q 40.765625 -1.421875 27.09375 -1.421875 
Q 22.515625 -1.421875 17.65625 -0.515625 
Q 12.796875 0.390625 7.625 2.203125 
L 7.625 11.71875 
Q 11.71875 9.328125 16.59375 8.109375 
Q 21.484375 6.890625 26.8125 6.890625 
Q 36.078125 6.890625 40.9375 10.546875 
Q 45.796875 14.203125 45.796875 21.1875 
Q 45.796875 27.640625 41.28125 31.265625 
Q 36.765625 34.90625 28.71875 34.90625 
L 20.21875 34.90625 
L 20.21875 43.015625 
L 29.109375 43.015625 
Q 36.375 43.015625 40.234375 45.921875 
Q 44.09375 48.828125 44.09375 54.296875 
Q 44.09375 59.90625 40.109375 62.90625 
Q 36.140625 65.921875 28.71875 65.921875 
Q 24.65625 65.921875 20.015625 65.03125 
Q 15.375 64.15625 9.8125 62.3125 
L 9.8125 71.09375 
Q 15.4375 72.65625 20.34375 73.4375 
Q 25.25 74.21875 29.59375 74.21875 
Q 40.828125 74.21875 47.359375 69.109375 
Q 53.90625 64.015625 53.90625 55.328125 
Q 53.90625 49.265625 50.4375 45.09375 
Q 46.96875 40.921875 40.578125 39.3125 
z
" id="DejaVuSans-33"/>
     <path d="M 11.71875 12.40625 
L 22.015625 12.40625 
L 22.015625 4 
L 14.015625 -11.625 
L 7.71875 -11.625 
L 11.71875 4 
z
" id="DejaVuSans-2c"/>
     <path d="M 8.203125 72.90625 
L 55.078125 72.90625 
L 55.078125 68.703125 
L 28.609375 0 
L 18.3125 0 
L 43.21875 64.59375 
L 8.203125 64.59375 
z
" id="DejaVuSans-37"/>
    </defs>
    <g transform="translate(69.12 38.928)scale(0.1 -0.1)">
     <use transform="translate(0 0.015625)" xlink:href="#DejaVuSans-46"/>
     <use transform="translate(57.519531 0.015625)" xlink:href="#DejaVuSans-69"/>
     <use transform="translate(85.302734 0.015625)" xlink:href="#DejaVuSans-74"/>
     <use transform="translate(124.511719 0.015625)" xlink:href="#DejaVuSans-3a"/>
     <use transform="translate(158.203125 0.015625)" xlink:href="#DejaVuSans-20"/>
     <use transform="translate(189.990234 0.015625)" xlink:href="#DejaVuSans-61"/>
     <use transform="translate(251.269531 0.015625)" xlink:href="#DejaVuSans-3d"/>
     <use transform="translate(335.058594 0.015625)" xlink:href="#DejaVuSans-36"/>
     <use transform="translate(398.681641 0.015625)" xlink:href="#DejaVuSans-2e"/>
     <use transform="translate(430.46875 0.015625)" xlink:href="#DejaVuSans-31"/>
     <use transform="translate(494.091797 0.015625)" xlink:href="#DejaVuSans-34"/>
     <use transform="translate(557.714844 0.015625)" xlink:href="#DejaVuSans-b1"/>
     <use transform="translate(641.503906 0.015625)" xlink:href="#DejaVuSans-30"/>
     <use transform="translate(705.126953 0.015625)" xlink:href="#DejaVuSans-2e"/>
     <use transform="translate(736.882812 0.015625)" xlink:href="#DejaVuSans-38"/>
     <use transform="translate(800.505859 0.015625)" xlink:href="#DejaVuSans-33"/>
     <use transform="translate(864.128906 0.015625)" xlink:href="#DejaVuSans-2c"/>
     <use transform="translate(895.916016 0.015625)" xlink:href="#DejaVuSans-20"/>
     <use transform="translate(927.703125 0.015625)" xlink:href="#DejaVuSans-62"/>
     <use transform="translate(991.179688 0.015625)" xlink:href="#DejaVuSans-3d"/>
     <use transform="translate(1074.96875 0.015625)" xlink:href="#DejaVuSans-34"/>
     <use transform="translate(1138.591797 0.015625)" xlink:href="#DejaVuSans-2e"/>
     <use transform="translate(1170.300781 0.015625)" xlink:href="#DejaVuSans-32"/>
     <use transform="translate(1233.923828 0.015625)" xlink:href="#DejaVuSans-36"/>
     <use transform="translate(1297.546875 0.015625)" xlink:href="#DejaVuSans-b1"/>
     <use transform="translate(1381.335938 0.015625)" xlink:href="#DejaVuSans-30"/>
     <use transform="translate(1444.958984 0.015625)" xlink:href="#DejaVuSans-2e"/>
     <use transform="translate(1476.746094 0.015625)" xlink:href="#DejaVuSans-36"/>
     <use transform="translate(1540.369141 0.015625)" xlink:href="#DejaVuSans-2c"/>
     <use transform="translate(1572.15625 0.015625)" xlink:href="#DejaVuSans-20"/>
     <use transform="translate(1603.943359 0.015625)" xlink:href="#DejaVuSans-78"/>
     <use transform="translate(1663.123047 0.015625)" xlink:href="#DejaVuSans-30"/>
     <use transform="translate(1726.746094 0.015625)" xlink:href="#DejaVuSans-3d"/>
     <use transform="translate(1810.535156 0.015625)" xlink:href="#DejaVuSans-34"/>
     <use transform="translate(1874.158203 0.015625)" xlink:href="#DejaVuSans-2e"/>
     <use transform="translate(1905.867188 0.015625)" xlink:href="#DejaVuSans-32"/>
     <use transform="translate(1969.490234 0.015625)" xlink:href="#DejaVuSans-37"/>
     <use transform="translate(2033.113281 0.015625)" xlink:href="#DejaVuSans-38"/>
     <use transform="translate(2096.736328 0.015625)" xlink:href="#DejaVuSans-b1"/>
     <use transform="translate(2180.525391 0.015625)" xlink:href="#DejaVuSans-30"/>
     <use transform="translate(2244.148438 0.015625)" xlink:href="#DejaVuSans-2e"/>
     <use transform="translate(2275.935547 0.015625)" xlink:href="#DejaVuSans-30"/>
     <use transform="translate(2339.558594 0.015625)" xlink:href="#DejaVuSans-31"/>
     <use transform="translate(2403.181641 0.015625)" xlink:href="#DejaVuSans-31"/>
     <use transform="translate(2466.804688 0.015625)" xlink:href="#DejaVuSans-2c"/>
     <use transform="translate(2498.591797 0.015625)" xlink:href="#DejaVuSans-20"/>
     <use transform="translate(2530.378906 0.015625)" xlink:href="#DejaVuSans-77"/>
     <use transform="translate(2612.166016 0.015625)" xlink:href="#DejaVuSans-3d"/>
     <use transform="translate(2695.955078 0.015625)" xlink:href="#DejaVuSans-30"/>
     <use transform="translate(2759.578125 0.015625)" xlink:href="#DejaVuSans-2e"/>
     <use transform="translate(2791.365234 0.015625)" xlink:href="#DejaVuSans-31"/>
     <use transform="translate(2854.988281 0.015625)" xlink:href="#DejaVuSans-32"/>
     <use transform="translate(2918.611328 0.015625)" xlink:href="#DejaVuSans-38"/>
     <use transform="translate(2982.234375 0.015625)" xlink:href="#DejaVuSans-b1"/>
     <use transform="translate(3066.023438 0.015625)" xlink:href="#DejaVuSans-30"/>
     <use transform="translate(3129.646484 0.015625)" xlink:href="#DejaVuSans-2e"/>
     <use transform="translate(3161.433594 0.015625)" xlink:href="#DejaVuSans-30"/>
     <use transform="translate(3225.056641 0.015625)" xlink:href="#DejaVuSans-32"/>
     <use transform="translate(3288.679688 0.015625)" xlink:href="#DejaVuSans-33"/>
     <use transform="translate(3352.302734 0.015625)" xlink:href="#DejaVuSans-2c"/>
    </g>
   </g>
  </g>
  <g id="axes_2">
   <g id="patch_7">
    <path d="M 69.12 311.04 
L 414.72 311.04 
L 414.72 103.68 
L 69.12 103.68 
z
" style="fill:#ffffff;"/>
   </g>
   <g id="matplotlib.axis_3">
    <g id="xtick_5">
     <g id="line2d_9">
      <g>
       <use style="stroke:#000000;stroke-width:0.8;" x="78.11275" xlink:href="#m225233b566" y="311.04"/>
      </g>
     </g>
     <g id="text_5">
      <!-- 3.8 -->
      <g transform="translate(66.185406 329.437656)scale(0.15 -0.15)">
       <use xlink:href="#DejaVuSans-33"/>
       <use x="63.623047" xlink:href="#DejaVuSans-2e"/>
       <use x="95.410156" xlink:href="#DejaVuSans-38"/>
      </g>
     </g>
    </g>
    <g id="xtick_6">
     <g id="line2d_10">
      <g>
       <use style="stroke:#000000;stroke-width:0.8;" x="166.297114" xlink:href="#m225233b566" y="311.04"/>
      </g>
     </g>
     <g id="text_6">
      <!-- 4.0 -->
      <g transform="translate(154.36977 329.437656)scale(0.15 -0.15)">
       <use xlink:href="#DejaVuSans-34"/>
       <use x="63.623047" xlink:href="#DejaVuSans-2e"/>
       <use x="95.410156" xlink:href="#DejaVuSans-30"/>
      </g>
     </g>
    </g>
    <g id="xtick_7">
     <g id="line2d_11">
      <g>
       <use style="stroke:#000000;stroke-width:0.8;" x="254.481477" xlink:href="#m225233b566" y="311.04"/>
      </g>
     </g>
     <g id="text_7">
      <!-- 4.2 -->
      <g transform="translate(242.554134 329.437656)scale(0.15 -0.15)">
       <use xlink:href="#DejaVuSans-34"/>
       <use x="63.623047" xlink:href="#DejaVuSans-2e"/>
       <use x="95.410156" xlink:href="#DejaVuSans-32"/>
      </g>
     </g>
    </g>
    <g id="xtick_8">
     <g id="line2d_12">
      <g>
       <use style="stroke:#000000;stroke-width:0.8;" x="342.665841" xlink:href="#m225233b566" y="311.04"/>
      </g>
     </g>
     <g id="text_8">
      <!-- 4.4 -->
      <g transform="translate(330.738497 329.437656)scale(0.15 -0.15)">
       <use xlink:href="#DejaVuSans-34"/>
       <use x="63.623047" xlink:href="#DejaVuSans-2e"/>
       <use x="95.410156" xlink:href="#DejaVuSans-34"/>
      </g>
     </g>
    </g>
    <g id="text_9">
     <!-- Energy [MeV] -->
     <defs>
      <path d="M 9.8125 72.90625 
L 55.90625 72.90625 
L 55.90625 64.59375 
L 19.671875 64.59375 
L 19.671875 43.015625 
L 54.390625 43.015625 
L 54.390625 34.71875 
L 19.671875 34.71875 
L 19.671875 8.296875 
L 56.78125 8.296875 
L 56.78125 0 
L 9.8125 0 
z
" id="DejaVuSans-45"/>
      <path d="M 41.109375 46.296875 
Q 39.59375 47.171875 37.8125 47.578125 
Q 36.03125 48 33.890625 48 
Q 26.265625 48 22.1875 43.046875 
Q 18.109375 38.09375 18.109375 28.8125 
L 18.109375 0 
L 9.078125 0 
L 9.078125 54.6875 
L 18.109375 54.6875 
L 18.109375 46.1875 
Q 20.953125 51.171875 25.484375 53.578125 
Q 30.03125 56 36.53125 56 
Q 37.453125 56 38.578125 55.875 
Q 39.703125 55.765625 41.0625 55.515625 
z
" id="DejaVuSans-72"/>
      <path d="M 45.40625 27.984375 
Q 45.40625 37.75 41.375 43.109375 
Q 37.359375 48.484375 30.078125 48.484375 
Q 22.859375 48.484375 18.828125 43.109375 
Q 14.796875 37.75 14.796875 27.984375 
Q 14.796875 18.265625 18.828125 12.890625 
Q 22.859375 7.515625 30.078125 7.515625 
Q 37.359375 7.515625 41.375 12.890625 
Q 45.40625 18.265625 45.40625 27.984375 
z
M 54.390625 6.78125 
Q 54.390625 -7.171875 48.1875 -13.984375 
Q 42 -20.796875 29.203125 -20.796875 
Q 24.46875 -20.796875 20.265625 -20.09375 
Q 16.0625 -19.390625 12.109375 -17.921875 
L 12.109375 -9.1875 
Q 16.0625 -11.328125 19.921875 -12.34375 
Q 23.78125 -13.375 27.78125 -13.375 
Q 36.625 -13.375 41.015625 -8.765625 
Q 45.40625 -4.15625 45.40625 5.171875 
L 45.40625 9.625 
Q 42.625 4.78125 38.28125 2.390625 
Q 33.9375 0 27.875 0 
Q 17.828125 0 11.671875 7.65625 
Q 5.515625 15.328125 5.515625 27.984375 
Q 5.515625 40.671875 11.671875 48.328125 
Q 17.828125 56 27.875 56 
Q 33.9375 56 38.28125 53.609375 
Q 42.625 51.21875 45.40625 46.390625 
L 45.40625 54.6875 
L 54.390625 54.6875 
z
" id="DejaVuSans-67"/>
      <path d="M 8.59375 75.984375 
L 29.296875 75.984375 
L 29.296875 69 
L 17.578125 69 
L 17.578125 -6.203125 
L 29.296875 -6.203125 
L 29.296875 -13.1875 
L 8.59375 -13.1875 
z
" id="DejaVuSans-5b"/>
      <path d="M 9.8125 72.90625 
L 24.515625 72.90625 
L 43.109375 23.296875 
L 61.8125 72.90625 
L 76.515625 72.90625 
L 76.515625 0 
L 66.890625 0 
L 66.890625 64.015625 
L 48.09375 14.015625 
L 38.1875 14.015625 
L 19.390625 64.015625 
L 19.390625 0 
L 9.8125 0 
z
" id="DejaVuSans-4d"/>
      <path d="M 28.609375 0 
L 0.78125 72.90625 
L 11.078125 72.90625 
L 34.1875 11.53125 
L 57.328125 72.90625 
L 67.578125 72.90625 
L 39.796875 0 
z
" id="DejaVuSans-56"/>
      <path d="M 30.421875 75.984375 
L 30.421875 -13.1875 
L 9.71875 -13.1875 
L 9.71875 -6.203125 
L 21.390625 -6.203125 
L 21.390625 69 
L 9.71875 69 
L 9.71875 75.984375 
z
" id="DejaVuSans-5d"/>
     </defs>
     <g transform="translate(191.078203 347.954844)scale(0.15 -0.15)">
      <use xlink:href="#DejaVuSans-45"/>
      <use x="63.183594" xlink:href="#DejaVuSans-6e"/>
      <use x="126.5625" xlink:href="#DejaVuSans-65"/>
      <use x="188.085938" xlink:href="#DejaVuSans-72"/>
      <use x="229.183594" xlink:href="#DejaVuSans-67"/>
      <use x="292.660156" xlink:href="#DejaVuSans-79"/>
      <use x="351.839844" xlink:href="#DejaVuSans-20"/>
      <use x="383.626953" xlink:href="#DejaVuSans-5b"/>
      <use x="422.640625" xlink:href="#DejaVuSans-4d"/>
      <use x="508.919922" xlink:href="#DejaVuSans-65"/>
      <use x="570.443359" xlink:href="#DejaVuSans-56"/>
      <use x="638.851562" xlink:href="#DejaVuSans-5d"/>
     </g>
    </g>
   </g>
   <g id="matplotlib.axis_4">
    <g id="ytick_3">
     <g id="line2d_13">
      <g>
       <use style="stroke:#000000;stroke-width:0.8;" x="69.12" xlink:href="#mcea809cff9" y="294.217143"/>
      </g>
     </g>
     <g id="text_10">
      <!-- 4 -->
      <g transform="translate(52.57625 299.915971)scale(0.15 -0.15)">
       <use xlink:href="#DejaVuSans-34"/>
      </g>
     </g>
    </g>
    <g id="ytick_4">
     <g id="line2d_14">
      <g>
       <use style="stroke:#000000;stroke-width:0.8;" x="69.12" xlink:href="#mcea809cff9" y="257.645714"/>
      </g>
     </g>
     <g id="text_11">
      <!-- 6 -->
      <g transform="translate(52.57625 263.344542)scale(0.15 -0.15)">
       <use xlink:href="#DejaVuSans-36"/>
      </g>
     </g>
    </g>
    <g id="ytick_5">
     <g id="line2d_15">
      <g>
       <use style="stroke:#000000;stroke-width:0.8;" x="69.12" xlink:href="#mcea809cff9" y="221.074286"/>
      </g>
     </g>
     <g id="text_12">
      <!-- 8 -->
      <g transform="translate(52.57625 226.773114)scale(0.15 -0.15)">
       <use xlink:href="#DejaVuSans-38"/>
      </g>
     </g>
    </g>
    <g id="ytick_6">
     <g id="line2d_16">
      <g>
       <use style="stroke:#000000;stroke-width:0.8;" x="69.12" xlink:href="#mcea809cff9" y="184.502857"/>
      </g>
     </g>
     <g id="text_13">
      <!-- 10 -->
      <g transform="translate(43.0325 190.201685)scale(0.15 -0.15)">
       <use xlink:href="#DejaVuSans-31"/>
       <use x="63.623047" xlink:href="#DejaVuSans-30"/>
      </g>
     </g>
    </g>
    <g id="ytick_7">
     <g id="line2d_17">
      <g>
       <use style="stroke:#000000;stroke-width:0.8;" x="69.12" xlink:href="#mcea809cff9" y="147.931429"/>
      </g>
     </g>
     <g id="text_14">
      <!-- 12 -->
      <g transform="translate(43.0325 153.630257)scale(0.15 -0.15)">
       <use xlink:href="#DejaVuSans-31"/>
       <use x="63.623047" xlink:href="#DejaVuSans-32"/>
      </g>
     </g>
    </g>
    <g id="ytick_8">
     <g id="line2d_18">
      <g>
       <use style="stroke:#000000;stroke-width:0.8;" x="69.12" xlink:href="#mcea809cff9" y="111.36"/>
      </g>
     </g>
     <g id="text_15">
      <!-- 14 -->
      <g transform="translate(43.0325 117.058828)scale(0.15 -0.15)">
       <use xlink:href="#DejaVuSans-31"/>
       <use x="63.623047" xlink:href="#DejaVuSans-34"/>
      </g>
     </g>
    </g>
    <g id="text_16">
     <!-- Counts -->
     <defs>
      <path d="M 64.40625 67.28125 
L 64.40625 56.890625 
Q 59.421875 61.53125 53.78125 63.8125 
Q 48.140625 66.109375 41.796875 66.109375 
Q 29.296875 66.109375 22.65625 58.46875 
Q 16.015625 50.828125 16.015625 36.375 
Q 16.015625 21.96875 22.65625 14.328125 
Q 29.296875 6.6875 41.796875 6.6875 
Q 48.140625 6.6875 53.78125 8.984375 
Q 59.421875 11.28125 64.40625 15.921875 
L 64.40625 5.609375 
Q 59.234375 2.09375 53.4375 0.328125 
Q 47.65625 -1.421875 41.21875 -1.421875 
Q 24.65625 -1.421875 15.125 8.703125 
Q 5.609375 18.84375 5.609375 36.375 
Q 5.609375 53.953125 15.125 64.078125 
Q 24.65625 74.21875 41.21875 74.21875 
Q 47.75 74.21875 53.53125 72.484375 
Q 59.328125 70.75 64.40625 67.28125 
z
" id="DejaVuSans-43"/>
     </defs>
     <g transform="translate(35.912969 233.539687)rotate(-90)scale(0.15 -0.15)">
      <use xlink:href="#DejaVuSans-43"/>
      <use x="69.824219" xlink:href="#DejaVuSans-6f"/>
      <use x="131.005859" xlink:href="#DejaVuSans-75"/>
      <use x="194.384766" xlink:href="#DejaVuSans-6e"/>
      <use x="257.763672" xlink:href="#DejaVuSans-74"/>
      <use x="296.972656" xlink:href="#DejaVuSans-73"/>
     </g>
    </g>
   </g>
   <g id="LineCollection_2">
    <path clip-path="url(#p84b801a391)" d="M 81.92 330.788571 
L 81.92 257.645714 
" style="fill:none;stroke:#0000ff;stroke-width:1.5;"/>
    <path clip-path="url(#p84b801a391)" d="M 113.39541 337.569439 
L 113.39541 269.150561 
" style="fill:none;stroke:#0000ff;stroke-width:1.5;"/>
    <path clip-path="url(#p84b801a391)" d="M 134.379016 316.819529 
L 134.379016 235.043328 
" style="fill:none;stroke:#0000ff;stroke-width:1.5;"/>
    <path clip-path="url(#p84b801a391)" d="M 163.231475 323.864143 
L 163.231475 246.284428 
" style="fill:none;stroke:#0000ff;stroke-width:1.5;"/>
    <path clip-path="url(#p84b801a391)" d="M 171.100328 316.819529 
L 171.100328 235.043328 
" style="fill:none;stroke:#0000ff;stroke-width:1.5;"/>
    <path clip-path="url(#p84b801a391)" d="M 178.96918 316.819529 
L 178.96918 235.043328 
" style="fill:none;stroke:#0000ff;stroke-width:1.5;"/>
    <path clip-path="url(#p84b801a391)" d="M 181.592131 330.788571 
L 181.592131 257.645714 
" style="fill:none;stroke:#0000ff;stroke-width:1.5;"/>
    <path clip-path="url(#p84b801a391)" d="M 184.215082 302.436384 
L 184.215082 212.855045 
" style="fill:none;stroke:#0000ff;stroke-width:1.5;"/>
    <path clip-path="url(#p84b801a391)" d="M 186.838033 309.672373 
L 186.838033 223.90477 
" style="fill:none;stroke:#0000ff;stroke-width:1.5;"/>
    <path clip-path="url(#p84b801a391)" d="M 192.083934 302.436384 
L 192.083934 212.855045 
" style="fill:none;stroke:#0000ff;stroke-width:1.5;"/>
    <path clip-path="url(#p84b801a391)" d="M 194.706885 337.569439 
L 194.706885 269.150561 
" style="fill:none;stroke:#0000ff;stroke-width:1.5;"/>
    <path clip-path="url(#p84b801a391)" d="M 197.329836 295.122464 
L 197.329836 201.88325 
" style="fill:none;stroke:#0000ff;stroke-width:1.5;"/>
    <path clip-path="url(#p84b801a391)" d="M 199.952787 302.436384 
L 199.952787 212.855045 
" style="fill:none;stroke:#0000ff;stroke-width:1.5;"/>
    <path clip-path="url(#p84b801a391)" d="M 202.575738 309.672373 
L 202.575738 223.90477 
" style="fill:none;stroke:#0000ff;stroke-width:1.5;"/>
    <path clip-path="url(#p84b801a391)" d="M 205.198689 330.788571 
L 205.198689 257.645714 
" style="fill:none;stroke:#0000ff;stroke-width:1.5;"/>
    <path clip-path="url(#p84b801a391)" d="M 207.821639 337.569439 
L 207.821639 269.150561 
" style="fill:none;stroke:#0000ff;stroke-width:1.5;"/>
    <path clip-path="url(#p84b801a391)" d="M 210.44459 309.672373 
L 210.44459 223.90477 
" style="fill:none;stroke:#0000ff;stroke-width:1.5;"/>
    <path clip-path="url(#p84b801a391)" d="M 213.067541 280.294634 
L 213.067541 180.139652 
" style="fill:none;stroke:#0000ff;stroke-width:1.5;"/>
    <path clip-path="url(#p84b801a391)" d="M 215.690492 302.436384 
L 215.690492 212.855045 
" style="fill:none;stroke:#0000ff;stroke-width:1.5;"/>
    <path clip-path="url(#p84b801a391)" d="M 218.313443 309.672373 
L 218.313443 223.90477 
" style="fill:none;stroke:#0000ff;stroke-width:1.5;"/>
    <path clip-path="url(#p84b801a391)" d="M 220.936393 337.569439 
L 220.936393 269.150561 
" style="fill:none;stroke:#0000ff;stroke-width:1.5;"/>
    <path clip-path="url(#p84b801a391)" d="M 223.559344 265.242989 
L 223.559344 158.619868 
" style="fill:none;stroke:#0000ff;stroke-width:1.5;"/>
    <path clip-path="url(#p84b801a391)" d="M 226.182295 295.122464 
L 226.182295 201.88325 
" style="fill:none;stroke:#0000ff;stroke-width:1.5;"/>
    <path clip-path="url(#p84b801a391)" d="M 228.805246 265.242989 
L 228.805246 158.619868 
" style="fill:none;stroke:#0000ff;stroke-width:1.5;"/>
    <path clip-path="url(#p84b801a391)" d="M 231.428197 272.794096 
L 231.428197 169.354475 
" style="fill:none;stroke:#0000ff;stroke-width:1.5;"/>
    <path clip-path="url(#p84b801a391)" d="M 234.051148 242.327363 
L 234.051148 126.678351 
" style="fill:none;stroke:#0000ff;stroke-width:1.5;"/>
    <path clip-path="url(#p84b801a391)" d="M 236.674098 316.819529 
L 236.674098 235.043328 
" style="fill:none;stroke:#0000ff;stroke-width:1.5;"/>
    <path clip-path="url(#p84b801a391)" d="M 239.297049 302.436384 
L 239.297049 212.855045 
" style="fill:none;stroke:#0000ff;stroke-width:1.5;"/>
    <path clip-path="url(#p84b801a391)" d="M 241.92 295.122464 
L 241.92 201.88325 
" style="fill:none;stroke:#0000ff;stroke-width:1.5;"/>
    <path clip-path="url(#p84b801a391)" d="M 244.542951 280.294634 
L 244.542951 180.139652 
" style="fill:none;stroke:#0000ff;stroke-width:1.5;"/>
    <path clip-path="url(#p84b801a391)" d="M 247.165902 330.788571 
L 247.165902 257.645714 
" style="fill:none;stroke:#0000ff;stroke-width:1.5;"/>
    <path clip-path="url(#p84b801a391)" d="M 249.788852 211.275001 
L 249.788852 84.587856 
" style="fill:none;stroke:#0000ff;stroke-width:1.5;"/>
    <path clip-path="url(#p84b801a391)" d="M 252.411803 234.612486 
L 252.411803 116.107514 
" style="fill:none;stroke:#0000ff;stroke-width:1.5;"/>
    <path clip-path="url(#p84b801a391)" d="M 255.034754 242.327363 
L 255.034754 126.678351 
" style="fill:none;stroke:#0000ff;stroke-width:1.5;"/>
    <path clip-path="url(#p84b801a391)" d="M 257.657705 265.242989 
L 257.657705 158.619868 
" style="fill:none;stroke:#0000ff;stroke-width:1.5;"/>
    <path clip-path="url(#p84b801a391)" d="M 260.280656 257.645714 
L 260.280656 147.931429 
" style="fill:none;stroke:#0000ff;stroke-width:1.5;"/>
    <path clip-path="url(#p84b801a391)" d="M 262.903607 234.612486 
L 262.903607 116.107514 
" style="fill:none;stroke:#0000ff;stroke-width:1.5;"/>
    <path clip-path="url(#p84b801a391)" d="M 265.526557 211.275001 
L 265.526557 84.587856 
" style="fill:none;stroke:#0000ff;stroke-width:1.5;"/>
    <path clip-path="url(#p84b801a391)" d="M 268.149508 242.327363 
L 268.149508 126.678351 
" style="fill:none;stroke:#0000ff;stroke-width:1.5;"/>
    <path clip-path="url(#p84b801a391)" d="M 270.772459 265.242989 
L 270.772459 158.619868 
" style="fill:none;stroke:#0000ff;stroke-width:1.5;"/>
    <path clip-path="url(#p84b801a391)" d="M 273.39541 265.242989 
L 273.39541 158.619868 
" style="fill:none;stroke:#0000ff;stroke-width:1.5;"/>
    <path clip-path="url(#p84b801a391)" d="M 276.018361 219.08416 
L 276.018361 95.064412 
" style="fill:none;stroke:#0000ff;stroke-width:1.5;"/>
    <path clip-path="url(#p84b801a391)" d="M 278.641311 242.327363 
L 278.641311 126.678351 
" style="fill:none;stroke:#0000ff;stroke-width:1.5;"/>
    <path clip-path="url(#p84b801a391)" d="M 281.264262 219.08416 
L 281.264262 95.064412 
" style="fill:none;stroke:#0000ff;stroke-width:1.5;"/>
    <path clip-path="url(#p84b801a391)" d="M 283.887213 226.863996 
L 283.887213 105.57029 
" style="fill:none;stroke:#0000ff;stroke-width:1.5;"/>
    <path clip-path="url(#p84b801a391)" d="M 286.510164 265.242989 
L 286.510164 158.619868 
" style="fill:none;stroke:#0000ff;stroke-width:1.5;"/>
    <path clip-path="url(#p84b801a391)" d="M 289.133115 179.778878 
L 289.133115 42.941122 
" style="fill:none;stroke:#0000ff;stroke-width:1.5;"/>
    <path clip-path="url(#p84b801a391)" d="M 291.756066 211.275001 
L 291.756066 84.587856 
" style="fill:none;stroke:#0000ff;stroke-width:1.5;"/>
    <path clip-path="url(#p84b801a391)" d="M 294.379016 272.794096 
L 294.379016 169.354475 
" style="fill:none;stroke:#0000ff;stroke-width:1.5;"/>
    <path clip-path="url(#p84b801a391)" d="M 297.001967 265.242989 
L 297.001967 158.619868 
" style="fill:none;stroke:#0000ff;stroke-width:1.5;"/>
    <path clip-path="url(#p84b801a391)" d="M 299.624918 203.438334 
L 299.624918 74.138809 
" style="fill:none;stroke:#0000ff;stroke-width:1.5;"/>
    <path clip-path="url(#p84b801a391)" d="M 302.247869 234.612486 
L 302.247869 116.107514 
" style="fill:none;stroke:#0000ff;stroke-width:1.5;"/>
    <path clip-path="url(#p84b801a391)" d="M 304.87082 250.006071 
L 304.87082 137.285358 
" style="fill:none;stroke:#0000ff;stroke-width:1.5;"/>
    <path clip-path="url(#p84b801a391)" d="M 307.49377 226.863996 
L 307.49377 105.57029 
" style="fill:none;stroke:#0000ff;stroke-width:1.5;"/>
    <path clip-path="url(#p84b801a391)" d="M 310.116721 242.327363 
L 310.116721 126.678351 
" style="fill:none;stroke:#0000ff;stroke-width:1.5;"/>
    <path clip-path="url(#p84b801a391)" d="M 312.739672 257.645714 
L 312.739672 147.931429 
" style="fill:none;stroke:#0000ff;stroke-width:1.5;"/>
    <path clip-path="url(#p84b801a391)" d="M 315.362623 187.688862 
L 315.362623 53.316853 
" style="fill:none;stroke:#0000ff;stroke-width:1.5;"/>
    <path clip-path="url(#p84b801a391)" d="M 317.985574 265.242989 
L 317.985574 158.619868 
" style="fill:none;stroke:#0000ff;stroke-width:1.5;"/>
    <path clip-path="url(#p84b801a391)" d="M 320.608525 287.739453 
L 320.608525 190.980547 
" style="fill:none;stroke:#0000ff;stroke-width:1.5;"/>
    <path clip-path="url(#p84b801a391)" d="M 323.231475 302.436384 
L 323.231475 212.855045 
" style="fill:none;stroke:#0000ff;stroke-width:1.5;"/>
    <path clip-path="url(#p84b801a391)" d="M 325.854426 272.794096 
L 325.854426 169.354475 
" style="fill:none;stroke:#0000ff;stroke-width:1.5;"/>
    <path clip-path="url(#p84b801a391)" d="M 328.477377 265.242989 
L 328.477377 158.619868 
" style="fill:none;stroke:#0000ff;stroke-width:1.5;"/>
    <path clip-path="url(#p84b801a391)" d="M 331.100328 226.863996 
L 331.100328 105.57029 
" style="fill:none;stroke:#0000ff;stroke-width:1.5;"/>
    <path clip-path="url(#p84b801a391)" d="M 333.723279 272.794096 
L 333.723279 169.354475 
" style="fill:none;stroke:#0000ff;stroke-width:1.5;"/>
    <path clip-path="url(#p84b801a391)" d="M 336.34623 287.739453 
L 336.34623 190.980547 
" style="fill:none;stroke:#0000ff;stroke-width:1.5;"/>
    <path clip-path="url(#p84b801a391)" d="M 338.96918 272.794096 
L 338.96918 169.354475 
" style="fill:none;stroke:#0000ff;stroke-width:1.5;"/>
    <path clip-path="url(#p84b801a391)" d="M 341.592131 316.819529 
L 341.592131 235.043328 
" style="fill:none;stroke:#0000ff;stroke-width:1.5;"/>
    <path clip-path="url(#p84b801a391)" d="M 344.215082 265.242989 
L 344.215082 158.619868 
" style="fill:none;stroke:#0000ff;stroke-width:1.5;"/>
    <path clip-path="url(#p84b801a391)" d="M 346.838033 309.672373 
L 346.838033 223.90477 
" style="fill:none;stroke:#0000ff;stroke-width:1.5;"/>
    <path clip-path="url(#p84b801a391)" d="M 352.083934 295.122464 
L 352.083934 201.88325 
" style="fill:none;stroke:#0000ff;stroke-width:1.5;"/>
    <path clip-path="url(#p84b801a391)" d="M 354.706885 257.645714 
L 354.706885 147.931429 
" style="fill:none;stroke:#0000ff;stroke-width:1.5;"/>
    <path clip-path="url(#p84b801a391)" d="M 357.329836 330.788571 
L 357.329836 257.645714 
" style="fill:none;stroke:#0000ff;stroke-width:1.5;"/>
    <path clip-path="url(#p84b801a391)" d="M 359.952787 302.436384 
L 359.952787 212.855045 
" style="fill:none;stroke:#0000ff;stroke-width:1.5;"/>
    <path clip-path="url(#p84b801a391)" d="M 362.575738 280.294634 
L 362.575738 180.139652 
" style="fill:none;stroke:#0000ff;stroke-width:1.5;"/>
    <path clip-path="url(#p84b801a391)" d="M 365.198689 302.436384 
L 365.198689 212.855045 
" style="fill:none;stroke:#0000ff;stroke-width:1.5;"/>
    <path clip-path="url(#p84b801a391)" d="M 367.821639 302.436384 
L 367.821639 212.855045 
" style="fill:none;stroke:#0000ff;stroke-width:1.5;"/>
    <path clip-path="url(#p84b801a391)" d="M 370.44459 323.864143 
L 370.44459 246.284428 
" style="fill:none;stroke:#0000ff;stroke-width:1.5;"/>
    <path clip-path="url(#p84b801a391)" d="M 373.067541 316.819529 
L 373.067541 235.043328 
" style="fill:none;stroke:#0000ff;stroke-width:1.5;"/>
    <path clip-path="url(#p84b801a391)" d="M 383.559344 316.819529 
L 383.559344 235.043328 
" style="fill:none;stroke:#0000ff;stroke-width:1.5;"/>
    <path clip-path="url(#p84b801a391)" d="M 386.182295 337.569439 
L 386.182295 269.150561 
" style="fill:none;stroke:#0000ff;stroke-width:1.5;"/>
    <path clip-path="url(#p84b801a391)" d="M 388.805246 323.864143 
L 388.805246 246.284428 
" style="fill:none;stroke:#0000ff;stroke-width:1.5;"/>
    <path clip-path="url(#p84b801a391)" d="M 391.428197 330.788571 
L 391.428197 257.645714 
" style="fill:none;stroke:#0000ff;stroke-width:1.5;"/>
    <path clip-path="url(#p84b801a391)" d="M 394.051148 337.569439 
L 394.051148 269.150561 
" style="fill:none;stroke:#0000ff;stroke-width:1.5;"/>
    <path clip-path="url(#p84b801a391)" d="M 399.297049 337.569439 
L 399.297049 269.150561 
" style="fill:none;stroke:#0000ff;stroke-width:1.5;"/>
    <path clip-path="url(#p84b801a391)" d="M 401.92 323.864143 
L 401.92 246.284428 
" style="fill:none;stroke:#0000ff;stroke-width:1.5;"/>
   </g>
   <g id="line2d_19">
    <path clip-path="url(#p84b801a391)" d="M 81.92 289.47285 
L 140.218298 289.363724 
L 153.351431 289.120769 
L 162.00008 288.755348 
L 168.726807 288.264523 
L 174.492573 287.626161 
L 179.297377 286.884726 
L 183.781862 285.972332 
L 187.946026 284.891329 
L 191.78987 283.655742 
L 195.313393 282.291101 
L 198.836917 280.675045 
L 202.04012 278.963564 
L 205.243323 276.999599 
L 208.446527 274.763493 
L 211.64973 272.237687 
L 214.852933 269.407591 
L 218.056136 266.262491 
L 221.259339 262.796483 
L 224.462543 259.009388 
L 227.986066 254.480586 
L 231.50959 249.589996 
L 235.353433 243.878389 
L 239.837918 236.793095 
L 245.283363 227.747945 
L 259.057137 204.651188 
L 262.900981 198.729023 
L 266.104184 194.155724 
L 268.987067 190.389182 
L 271.54963 187.363763 
L 274.112192 184.678056 
L 276.354434 182.631416 
L 278.596677 180.887425 
L 280.518599 179.645663 
L 282.440521 178.646508 
L 284.362442 177.896809 
L 286.284364 177.401732 
L 288.206286 177.1647 
L 290.128208 177.187355 
L 292.05013 177.469542 
L 293.972052 178.009305 
L 295.893974 178.802912 
L 297.815896 179.8449 
L 299.737818 181.128135 
L 301.98006 182.918432 
L 304.222302 185.008762 
L 306.784865 187.74074 
L 309.347427 190.808086 
L 312.23031 194.616133 
L 315.433514 199.228051 
L 319.277357 205.185695 
L 324.082162 213.083781 
L 341.059139 241.418158 
L 345.223303 247.749144 
L 349.067147 253.20172 
L 352.590671 257.829999 
L 356.114194 262.081621 
L 359.317397 265.61055 
L 362.520601 268.818058 
L 365.723804 271.709002 
L 368.927007 274.293227 
L 372.13021 276.584641 
L 375.333413 278.600291 
L 378.536617 280.359489 
L 381.73982 281.883006 
L 385.263343 283.312333 
L 388.786867 284.511244 
L 392.630711 285.589306 
L 396.794875 286.525517 
L 401.279359 287.309458 
L 401.92 287.405075 
L 401.92 287.405075 
" style="fill:none;stroke:#ff0000;stroke-linecap:square;stroke-width:1.5;"/>
   </g>
   <g id="line2d_20">
    <g clip-path="url(#p84b801a391)">
     <use style="fill:#0000ff;stroke:#0000ff;" x="81.92" xlink:href="#mbfd4a4fca6" y="294.217143"/>
     <use style="fill:#0000ff;stroke:#0000ff;" x="113.39541" xlink:href="#mbfd4a4fca6" y="303.36"/>
     <use style="fill:#0000ff;stroke:#0000ff;" x="134.379016" xlink:href="#mbfd4a4fca6" y="275.931429"/>
     <use style="fill:#0000ff;stroke:#0000ff;" x="163.231475" xlink:href="#mbfd4a4fca6" y="285.074286"/>
     <use style="fill:#0000ff;stroke:#0000ff;" x="171.100328" xlink:href="#mbfd4a4fca6" y="275.931429"/>
     <use style="fill:#0000ff;stroke:#0000ff;" x="178.96918" xlink:href="#mbfd4a4fca6" y="275.931429"/>
     <use style="fill:#0000ff;stroke:#0000ff;" x="181.592131" xlink:href="#mbfd4a4fca6" y="294.217143"/>
     <use style="fill:#0000ff;stroke:#0000ff;" x="184.215082" xlink:href="#mbfd4a4fca6" y="257.645714"/>
     <use style="fill:#0000ff;stroke:#0000ff;" x="186.838033" xlink:href="#mbfd4a4fca6" y="266.788571"/>
     <use style="fill:#0000ff;stroke:#0000ff;" x="192.083934" xlink:href="#mbfd4a4fca6" y="257.645714"/>
     <use style="fill:#0000ff;stroke:#0000ff;" x="194.706885" xlink:href="#mbfd4a4fca6" y="303.36"/>
     <use style="fill:#0000ff;stroke:#0000ff;" x="197.329836" xlink:href="#mbfd4a4fca6" y="248.502857"/>
     <use style="fill:#0000ff;stroke:#0000ff;" x="199.952787" xlink:href="#mbfd4a4fca6" y="257.645714"/>
     <use style="fill:#0000ff;stroke:#0000ff;" x="202.575738" xlink:href="#mbfd4a4fca6" y="266.788571"/>
     <use style="fill:#0000ff;stroke:#0000ff;" x="205.198689" xlink:href="#mbfd4a4fca6" y="294.217143"/>
     <use style="fill:#0000ff;stroke:#0000ff;" x="207.821639" xlink:href="#mbfd4a4fca6" y="303.36"/>
     <use style="fill:#0000ff;stroke:#0000ff;" x="210.44459" xlink:href="#mbfd4a4fca6" y="266.788571"/>
     <use style="fill:#0000ff;stroke:#0000ff;" x="213.067541" xlink:href="#mbfd4a4fca6" y="230.217143"/>
     <use style="fill:#0000ff;stroke:#0000ff;" x="215.690492" xlink:href="#mbfd4a4fca6" y="257.645714"/>
     <use style="fill:#0000ff;stroke:#0000ff;" x="218.313443" xlink:href="#mbfd4a4fca6" y="266.788571"/>
     <use style="fill:#0000ff;stroke:#0000ff;" x="220.936393" xlink:href="#mbfd4a4fca6" y="303.36"/>
     <use style="fill:#0000ff;stroke:#0000ff;" x="223.559344" xlink:href="#mbfd4a4fca6" y="211.931429"/>
     <use style="fill:#0000ff;stroke:#0000ff;" x="226.182295" xlink:href="#mbfd4a4fca6" y="248.502857"/>
     <use style="fill:#0000ff;stroke:#0000ff;" x="228.805246" xlink:href="#mbfd4a4fca6" y="211.931429"/>
     <use style="fill:#0000ff;stroke:#0000ff;" x="231.428197" xlink:href="#mbfd4a4fca6" y="221.074286"/>
     <use style="fill:#0000ff;stroke:#0000ff;" x="234.051148" xlink:href="#mbfd4a4fca6" y="184.502857"/>
     <use style="fill:#0000ff;stroke:#0000ff;" x="236.674098" xlink:href="#mbfd4a4fca6" y="275.931429"/>
     <use style="fill:#0000ff;stroke:#0000ff;" x="239.297049" xlink:href="#mbfd4a4fca6" y="257.645714"/>
     <use style="fill:#0000ff;stroke:#0000ff;" x="241.92" xlink:href="#mbfd4a4fca6" y="248.502857"/>
     <use style="fill:#0000ff;stroke:#0000ff;" x="244.542951" xlink:href="#mbfd4a4fca6" y="230.217143"/>
     <use style="fill:#0000ff;stroke:#0000ff;" x="247.165902" xlink:href="#mbfd4a4fca6" y="294.217143"/>
     <use style="fill:#0000ff;stroke:#0000ff;" x="249.788852" xlink:href="#mbfd4a4fca6" y="147.931429"/>
     <use style="fill:#0000ff;stroke:#0000ff;" x="252.411803" xlink:href="#mbfd4a4fca6" y="175.36"/>
     <use style="fill:#0000ff;stroke:#0000ff;" x="255.034754" xlink:href="#mbfd4a4fca6" y="184.502857"/>
     <use style="fill:#0000ff;stroke:#0000ff;" x="257.657705" xlink:href="#mbfd4a4fca6" y="211.931429"/>
     <use style="fill:#0000ff;stroke:#0000ff;" x="260.280656" xlink:href="#mbfd4a4fca6" y="202.788571"/>
     <use style="fill:#0000ff;stroke:#0000ff;" x="262.903607" xlink:href="#mbfd4a4fca6" y="175.36"/>
     <use style="fill:#0000ff;stroke:#0000ff;" x="265.526557" xlink:href="#mbfd4a4fca6" y="147.931429"/>
     <use style="fill:#0000ff;stroke:#0000ff;" x="268.149508" xlink:href="#mbfd4a4fca6" y="184.502857"/>
     <use style="fill:#0000ff;stroke:#0000ff;" x="270.772459" xlink:href="#mbfd4a4fca6" y="211.931429"/>
     <use style="fill:#0000ff;stroke:#0000ff;" x="273.39541" xlink:href="#mbfd4a4fca6" y="211.931429"/>
     <use style="fill:#0000ff;stroke:#0000ff;" x="276.018361" xlink:href="#mbfd4a4fca6" y="157.074286"/>
     <use style="fill:#0000ff;stroke:#0000ff;" x="278.641311" xlink:href="#mbfd4a4fca6" y="184.502857"/>
     <use style="fill:#0000ff;stroke:#0000ff;" x="281.264262" xlink:href="#mbfd4a4fca6" y="157.074286"/>
     <use style="fill:#0000ff;stroke:#0000ff;" x="283.887213" xlink:href="#mbfd4a4fca6" y="166.217143"/>
     <use style="fill:#0000ff;stroke:#0000ff;" x="286.510164" xlink:href="#mbfd4a4fca6" y="211.931429"/>
     <use style="fill:#0000ff;stroke:#0000ff;" x="289.133115" xlink:href="#mbfd4a4fca6" y="111.36"/>
     <use style="fill:#0000ff;stroke:#0000ff;" x="291.756066" xlink:href="#mbfd4a4fca6" y="147.931429"/>
     <use style="fill:#0000ff;stroke:#0000ff;" x="294.379016" xlink:href="#mbfd4a4fca6" y="221.074286"/>
     <use style="fill:#0000ff;stroke:#0000ff;" x="297.001967" xlink:href="#mbfd4a4fca6" y="211.931429"/>
     <use style="fill:#0000ff;stroke:#0000ff;" x="299.624918" xlink:href="#mbfd4a4fca6" y="138.788571"/>
     <use style="fill:#0000ff;stroke:#0000ff;" x="302.247869" xlink:href="#mbfd4a4fca6" y="175.36"/>
     <use style="fill:#0000ff;stroke:#0000ff;" x="304.87082" xlink:href="#mbfd4a4fca6" y="193.645714"/>
     <use style="fill:#0000ff;stroke:#0000ff;" x="307.49377" xlink:href="#mbfd4a4fca6" y="166.217143"/>
     <use style="fill:#0000ff;stroke:#0000ff;" x="310.116721" xlink:href="#mbfd4a4fca6" y="184.502857"/>
     <use style="fill:#0000ff;stroke:#0000ff;" x="312.739672" xlink:href="#mbfd4a4fca6" y="202.788571"/>
     <use style="fill:#0000ff;stroke:#0000ff;" x="315.362623" xlink:href="#mbfd4a4fca6" y="120.502857"/>
     <use style="fill:#0000ff;stroke:#0000ff;" x="317.985574" xlink:href="#mbfd4a4fca6" y="211.931429"/>
     <use style="fill:#0000ff;stroke:#0000ff;" x="320.608525" xlink:href="#mbfd4a4fca6" y="239.36"/>
     <use style="fill:#0000ff;stroke:#0000ff;" x="323.231475" xlink:href="#mbfd4a4fca6" y="257.645714"/>
     <use style="fill:#0000ff;stroke:#0000ff;" x="325.854426" xlink:href="#mbfd4a4fca6" y="221.074286"/>
     <use style="fill:#0000ff;stroke:#0000ff;" x="328.477377" xlink:href="#mbfd4a4fca6" y="211.931429"/>
     <use style="fill:#0000ff;stroke:#0000ff;" x="331.100328" xlink:href="#mbfd4a4fca6" y="166.217143"/>
     <use style="fill:#0000ff;stroke:#0000ff;" x="333.723279" xlink:href="#mbfd4a4fca6" y="221.074286"/>
     <use style="fill:#0000ff;stroke:#0000ff;" x="336.34623" xlink:href="#mbfd4a4fca6" y="239.36"/>
     <use style="fill:#0000ff;stroke:#0000ff;" x="338.96918" xlink:href="#mbfd4a4fca6" y="221.074286"/>
     <use style="fill:#0000ff;stroke:#0000ff;" x="341.592131" xlink:href="#mbfd4a4fca6" y="275.931429"/>
     <use style="fill:#0000ff;stroke:#0000ff;" x="344.215082" xlink:href="#mbfd4a4fca6" y="211.931429"/>
     <use style="fill:#0000ff;stroke:#0000ff;" x="346.838033" xlink:href="#mbfd4a4fca6" y="266.788571"/>
     <use style="fill:#0000ff;stroke:#0000ff;" x="352.083934" xlink:href="#mbfd4a4fca6" y="248.502857"/>
     <use style="fill:#0000ff;stroke:#0000ff;" x="354.706885" xlink:href="#mbfd4a4fca6" y="202.788571"/>
     <use style="fill:#0000ff;stroke:#0000ff;" x="357.329836" xlink:href="#mbfd4a4fca6" y="294.217143"/>
     <use style="fill:#0000ff;stroke:#0000ff;" x="359.952787" xlink:href="#mbfd4a4fca6" y="257.645714"/>
     <use style="fill:#0000ff;stroke:#0000ff;" x="362.575738" xlink:href="#mbfd4a4fca6" y="230.217143"/>
     <use style="fill:#0000ff;stroke:#0000ff;" x="365.198689" xlink:href="#mbfd4a4fca6" y="257.645714"/>
     <use style="fill:#0000ff;stroke:#0000ff;" x="367.821639" xlink:href="#mbfd4a4fca6" y="257.645714"/>
     <use style="fill:#0000ff;stroke:#0000ff;" x="370.44459" xlink:href="#mbfd4a4fca6" y="285.074286"/>
     <use style="fill:#0000ff;stroke:#0000ff;" x="373.067541" xlink:href="#mbfd4a4fca6" y="275.931429"/>
     <use style="fill:#0000ff;stroke:#0000ff;" x="383.559344" xlink:href="#mbfd4a4fca6" y="275.931429"/>
     <use style="fill:#0000ff;stroke:#0000ff;" x="386.182295" xlink:href="#mbfd4a4fca6" y="303.36"/>
     <use style="fill:#0000ff;stroke:#0000ff;" x="388.805246" xlink:href="#mbfd4a4fca6" y="285.074286"/>
     <use style="fill:#0000ff;stroke:#0000ff;" x="391.428197" xlink:href="#mbfd4a4fca6" y="294.217143"/>
     <use style="fill:#0000ff;stroke:#0000ff;" x="394.051148" xlink:href="#mbfd4a4fca6" y="303.36"/>
     <use style="fill:#0000ff;stroke:#0000ff;" x="399.297049" xlink:href="#mbfd4a4fca6" y="303.36"/>
     <use style="fill:#0000ff;stroke:#0000ff;" x="401.92" xlink:href="#mbfd4a4fca6" y="285.074286"/>
    </g>
   </g>
   <g id="patch_8">
    <path d="M 69.12 311.04 
L 69.12 103.68 
" style="fill:none;stroke:#000000;stroke-linecap:square;stroke-linejoin:miter;stroke-width:0.8;"/>
   </g>
   <g id="patch_9">
    <path d="M 414.72 311.04 
L 414.72 103.68 
" style="fill:none;stroke:#000000;stroke-linecap:square;stroke-linejoin:miter;stroke-width:0.8;"/>
   </g>
   <g id="patch_10">
    <path d="M 69.12 311.04 
L 414.72 311.04 
" style="fill:none;stroke:#000000;stroke-linecap:square;stroke-linejoin:miter;stroke-width:0.8;"/>
   </g>
   <g id="patch_11">
    <path d="M 69.12 103.68 
L 414.72 103.68 
" style="fill:none;stroke:#000000;stroke-linecap:square;stroke-linejoin:miter;stroke-width:0.8;"/>
   </g>
  </g>
 </g>
 <defs>
  <clipPath id="p315dae7e4c">
   <rect height="51.84" width="345.6" x="69.12" y="44.928"/>
  </clipPath>
  <clipPath id="p84b801a391">
   <rect height="207.36" width="345.6" x="69.12" y="103.68"/>
  </clipPath>
 </defs>
</svg>
