<?xml version="1.0" encoding="utf-8" standalone="no"?>
<!DOCTYPE svg PUBLIC "-//W3C//DTD SVG 1.1//EN"
  "http://www.w3.org/Graphics/SVG/1.1/DTD/svg11.dtd">
<!-- Created with matplotlib (http://matplotlib.org/) -->
<svg height="345pt" version="1.1" viewBox="0 0 460 345" width="460pt" xmlns="http://www.w3.org/2000/svg" xmlns:xlink="http://www.w3.org/1999/xlink">
 <defs>
  <style type="text/css">
*{stroke-linecap:butt;stroke-linejoin:round;}
  </style>
 </defs>
 <g id="figure_1">
  <g id="patch_1">
   <path d="M 0 345.6 
L 460.8 345.6 
L 460.8 0 
L 0 0 
z
" style="fill:#ffffff;"/>
  </g>
  <g id="axes_1">
   <g id="patch_2">
    <path d="M 69.12 96.768 
L 414.72 96.768 
L 414.72 44.928 
L 69.12 44.928 
z
" style="fill:#ffffff;"/>
   </g>
   <g id="matplotlib.axis_1">
    <g id="xtick_1">
     <g id="line2d_1">
      <defs>
       <path d="M 0 0 
L 0 3.5 
" id="m096c656b85" style="stroke:#000000;stroke-width:0.8;"/>
      </defs>
      <g>
       <use style="stroke:#000000;stroke-width:0.8;" x="152.229162" xlink:href="#m096c656b85" y="96.768"/>
      </g>
     </g>
    </g>
    <g id="xtick_2">
     <g id="line2d_2">
      <g>
       <use style="stroke:#000000;stroke-width:0.8;" x="250.033639" xlink:href="#m096c656b85" y="96.768"/>
      </g>
     </g>
    </g>
    <g id="xtick_3">
     <g id="line2d_3">
      <g>
       <use style="stroke:#000000;stroke-width:0.8;" x="347.838115" xlink:href="#m096c656b85" y="96.768"/>
      </g>
     </g>
    </g>
   </g>
   <g id="matplotlib.axis_2">
    <g id="ytick_1">
     <g id="line2d_4">
      <defs>
       <path d="M 0 0 
L -3.5 0 
" id="m04892691c0" style="stroke:#000000;stroke-width:0.8;"/>
      </defs>
      <g>
       <use style="stroke:#000000;stroke-width:0.8;" x="69.12" xlink:href="#m04892691c0" y="84.857149"/>
      </g>
     </g>
     <g id="text_1">
      <!-- −1 -->
      <defs>
       <path d="M 10.59375 35.5 
L 73.1875 35.5 
L 73.1875 27.203125 
L 10.59375 27.203125 
z
" id="DejaVuSans-2212"/>
       <path d="M 12.40625 8.296875 
L 28.515625 8.296875 
L 28.515625 63.921875 
L 10.984375 60.40625 
L 10.984375 69.390625 
L 28.421875 72.90625 
L 38.28125 72.90625 
L 38.28125 8.296875 
L 54.390625 8.296875 
L 54.390625 0 
L 12.40625 0 
z
" id="DejaVuSans-31"/>
      </defs>
      <g transform="translate(40.006719 90.555977)scale(0.15 -0.15)">
       <use xlink:href="#DejaVuSans-2212"/>
       <use x="83.789062" xlink:href="#DejaVuSans-31"/>
      </g>
     </g>
    </g>
    <g id="ytick_2">
     <g id="line2d_5">
      <g>
       <use style="stroke:#000000;stroke-width:0.8;" x="69.12" xlink:href="#m04892691c0" y="69.993827"/>
      </g>
     </g>
    </g>
    <g id="ytick_3">
     <g id="line2d_6">
      <g>
       <use style="stroke:#000000;stroke-width:0.8;" x="69.12" xlink:href="#m04892691c0" y="55.130504"/>
      </g>
     </g>
     <g id="text_2">
      <!-- 1 -->
      <g transform="translate(52.57625 60.829332)scale(0.15 -0.15)">
       <use xlink:href="#DejaVuSans-31"/>
      </g>
     </g>
    </g>
    <g id="text_3">
     <!-- Studentized -->
     <defs>
      <path d="M 53.515625 70.515625 
L 53.515625 60.890625 
Q 47.90625 63.578125 42.921875 64.890625 
Q 37.9375 66.21875 33.296875 66.21875 
Q 25.25 66.21875 20.875 63.09375 
Q 16.5 59.96875 16.5 54.203125 
Q 16.5 49.359375 19.40625 46.890625 
Q 22.3125 44.4375 30.421875 42.921875 
L 36.375 41.703125 
Q 47.40625 39.59375 52.65625 34.296875 
Q 57.90625 29 57.90625 20.125 
Q 57.90625 9.515625 50.796875 4.046875 
Q 43.703125 -1.421875 29.984375 -1.421875 
Q 24.8125 -1.421875 18.96875 -0.25 
Q 13.140625 0.921875 6.890625 3.21875 
L 6.890625 13.375 
Q 12.890625 10.015625 18.65625 8.296875 
Q 24.421875 6.59375 29.984375 6.59375 
Q 38.421875 6.59375 43.015625 9.90625 
Q 47.609375 13.234375 47.609375 19.390625 
Q 47.609375 24.75 44.3125 27.78125 
Q 41.015625 30.8125 33.5 32.328125 
L 27.484375 33.5 
Q 16.453125 35.6875 11.515625 40.375 
Q 6.59375 45.0625 6.59375 53.421875 
Q 6.59375 63.09375 13.40625 68.65625 
Q 20.21875 74.21875 32.171875 74.21875 
Q 37.3125 74.21875 42.625 73.28125 
Q 47.953125 72.359375 53.515625 70.515625 
z
" id="DejaVuSans-53"/>
      <path d="M 18.3125 70.21875 
L 18.3125 54.6875 
L 36.8125 54.6875 
L 36.8125 47.703125 
L 18.3125 47.703125 
L 18.3125 18.015625 
Q 18.3125 11.328125 20.140625 9.421875 
Q 21.96875 7.515625 27.59375 7.515625 
L 36.8125 7.515625 
L 36.8125 0 
L 27.59375 0 
Q 17.1875 0 13.234375 3.875 
Q 9.28125 7.765625 9.28125 18.015625 
L 9.28125 47.703125 
L 2.6875 47.703125 
L 2.6875 54.6875 
L 9.28125 54.6875 
L 9.28125 70.21875 
z
" id="DejaVuSans-74"/>
      <path d="M 8.5 21.578125 
L 8.5 54.6875 
L 17.484375 54.6875 
L 17.484375 21.921875 
Q 17.484375 14.15625 20.5 10.265625 
Q 23.53125 6.390625 29.59375 6.390625 
Q 36.859375 6.390625 41.078125 11.03125 
Q 45.3125 15.671875 45.3125 23.6875 
L 45.3125 54.6875 
L 54.296875 54.6875 
L 54.296875 0 
L 45.3125 0 
L 45.3125 8.40625 
Q 42.046875 3.421875 37.71875 1 
Q 33.40625 -1.421875 27.6875 -1.421875 
Q 18.265625 -1.421875 13.375 4.4375 
Q 8.5 10.296875 8.5 21.578125 
z
M 31.109375 56 
z
" id="DejaVuSans-75"/>
      <path d="M 45.40625 46.390625 
L 45.40625 75.984375 
L 54.390625 75.984375 
L 54.390625 0 
L 45.40625 0 
L 45.40625 8.203125 
Q 42.578125 3.328125 38.25 0.953125 
Q 33.9375 -1.421875 27.875 -1.421875 
Q 17.96875 -1.421875 11.734375 6.484375 
Q 5.515625 14.40625 5.515625 27.296875 
Q 5.515625 40.1875 11.734375 48.09375 
Q 17.96875 56 27.875 56 
Q 33.9375 56 38.25 53.625 
Q 42.578125 51.265625 45.40625 46.390625 
z
M 14.796875 27.296875 
Q 14.796875 17.390625 18.875 11.75 
Q 22.953125 6.109375 30.078125 6.109375 
Q 37.203125 6.109375 41.296875 11.75 
Q 45.40625 17.390625 45.40625 27.296875 
Q 45.40625 37.203125 41.296875 42.84375 
Q 37.203125 48.484375 30.078125 48.484375 
Q 22.953125 48.484375 18.875 42.84375 
Q 14.796875 37.203125 14.796875 27.296875 
z
" id="DejaVuSans-64"/>
      <path d="M 56.203125 29.59375 
L 56.203125 25.203125 
L 14.890625 25.203125 
Q 15.484375 15.921875 20.484375 11.0625 
Q 25.484375 6.203125 34.421875 6.203125 
Q 39.59375 6.203125 44.453125 7.46875 
Q 49.3125 8.734375 54.109375 11.28125 
L 54.109375 2.78125 
Q 49.265625 0.734375 44.1875 -0.34375 
Q 39.109375 -1.421875 33.890625 -1.421875 
Q 20.796875 -1.421875 13.15625 6.1875 
Q 5.515625 13.8125 5.515625 26.8125 
Q 5.515625 40.234375 12.765625 48.109375 
Q 20.015625 56 32.328125 56 
Q 43.359375 56 49.78125 48.890625 
Q 56.203125 41.796875 56.203125 29.59375 
z
M 47.21875 32.234375 
Q 47.125 39.59375 43.09375 43.984375 
Q 39.0625 48.390625 32.421875 48.390625 
Q 24.90625 48.390625 20.390625 44.140625 
Q 15.875 39.890625 15.1875 32.171875 
z
" id="DejaVuSans-65"/>
      <path d="M 54.890625 33.015625 
L 54.890625 0 
L 45.90625 0 
L 45.90625 32.71875 
Q 45.90625 40.484375 42.875 44.328125 
Q 39.84375 48.1875 33.796875 48.1875 
Q 26.515625 48.1875 22.3125 43.546875 
Q 18.109375 38.921875 18.109375 30.90625 
L 18.109375 0 
L 9.078125 0 
L 9.078125 54.6875 
L 18.109375 54.6875 
L 18.109375 46.1875 
Q 21.34375 51.125 25.703125 53.5625 
Q 30.078125 56 35.796875 56 
Q 45.21875 56 50.046875 50.171875 
Q 54.890625 44.34375 54.890625 33.015625 
z
" id="DejaVuSans-6e"/>
      <path d="M 9.421875 54.6875 
L 18.40625 54.6875 
L 18.40625 0 
L 9.421875 0 
z
M 9.421875 75.984375 
L 18.40625 75.984375 
L 18.40625 64.59375 
L 9.421875 64.59375 
z
" id="DejaVuSans-69"/>
      <path d="M 5.515625 54.6875 
L 48.1875 54.6875 
L 48.1875 46.484375 
L 14.40625 7.171875 
L 48.1875 7.171875 
L 48.1875 0 
L 4.296875 0 
L 4.296875 8.203125 
L 38.09375 47.515625 
L 5.515625 47.515625 
z
" id="DejaVuSans-7a"/>
     </defs>
     <g transform="translate(16.090469 115.768313)rotate(-90)scale(0.15 -0.15)">
      <use xlink:href="#DejaVuSans-53"/>
      <use x="63.476562" xlink:href="#DejaVuSans-74"/>
      <use x="102.685547" xlink:href="#DejaVuSans-75"/>
      <use x="166.064453" xlink:href="#DejaVuSans-64"/>
      <use x="229.541016" xlink:href="#DejaVuSans-65"/>
      <use x="291.064453" xlink:href="#DejaVuSans-6e"/>
      <use x="354.443359" xlink:href="#DejaVuSans-74"/>
      <use x="393.652344" xlink:href="#DejaVuSans-69"/>
      <use x="421.435547" xlink:href="#DejaVuSans-7a"/>
      <use x="473.925781" xlink:href="#DejaVuSans-65"/>
      <use x="535.449219" xlink:href="#DejaVuSans-64"/>
     </g>
     <!-- Residuals -->
     <defs>
      <path d="M 44.390625 34.1875 
Q 47.5625 33.109375 50.5625 29.59375 
Q 53.5625 26.078125 56.59375 19.921875 
L 66.609375 0 
L 56 0 
L 46.6875 18.703125 
Q 43.0625 26.03125 39.671875 28.421875 
Q 36.28125 30.8125 30.421875 30.8125 
L 19.671875 30.8125 
L 19.671875 0 
L 9.8125 0 
L 9.8125 72.90625 
L 32.078125 72.90625 
Q 44.578125 72.90625 50.734375 67.671875 
Q 56.890625 62.453125 56.890625 51.90625 
Q 56.890625 45.015625 53.6875 40.46875 
Q 50.484375 35.9375 44.390625 34.1875 
z
M 19.671875 64.796875 
L 19.671875 38.921875 
L 32.078125 38.921875 
Q 39.203125 38.921875 42.84375 42.21875 
Q 46.484375 45.515625 46.484375 51.90625 
Q 46.484375 58.296875 42.84375 61.546875 
Q 39.203125 64.796875 32.078125 64.796875 
z
" id="DejaVuSans-52"/>
      <path d="M 44.28125 53.078125 
L 44.28125 44.578125 
Q 40.484375 46.53125 36.375 47.5 
Q 32.28125 48.484375 27.875 48.484375 
Q 21.1875 48.484375 17.84375 46.4375 
Q 14.5 44.390625 14.5 40.28125 
Q 14.5 37.15625 16.890625 35.375 
Q 19.28125 33.59375 26.515625 31.984375 
L 29.59375 31.296875 
Q 39.15625 29.25 43.1875 25.515625 
Q 47.21875 21.78125 47.21875 15.09375 
Q 47.21875 7.46875 41.1875 3.015625 
Q 35.15625 -1.421875 24.609375 -1.421875 
Q 20.21875 -1.421875 15.453125 -0.5625 
Q 10.6875 0.296875 5.421875 2 
L 5.421875 11.28125 
Q 10.40625 8.6875 15.234375 7.390625 
Q 20.0625 6.109375 24.8125 6.109375 
Q 31.15625 6.109375 34.5625 8.28125 
Q 37.984375 10.453125 37.984375 14.40625 
Q 37.984375 18.0625 35.515625 20.015625 
Q 33.0625 21.96875 24.703125 23.78125 
L 21.578125 24.515625 
Q 13.234375 26.265625 9.515625 29.90625 
Q 5.8125 33.546875 5.8125 39.890625 
Q 5.8125 47.609375 11.28125 51.796875 
Q 16.75 56 26.8125 56 
Q 31.78125 56 36.171875 55.265625 
Q 40.578125 54.546875 44.28125 53.078125 
z
" id="DejaVuSans-73"/>
      <path d="M 34.28125 27.484375 
Q 23.390625 27.484375 19.1875 25 
Q 14.984375 22.515625 14.984375 16.5 
Q 14.984375 11.71875 18.140625 8.90625 
Q 21.296875 6.109375 26.703125 6.109375 
Q 34.1875 6.109375 38.703125 11.40625 
Q 43.21875 16.703125 43.21875 25.484375 
L 43.21875 27.484375 
z
M 52.203125 31.203125 
L 52.203125 0 
L 43.21875 0 
L 43.21875 8.296875 
Q 40.140625 3.328125 35.546875 0.953125 
Q 30.953125 -1.421875 24.3125 -1.421875 
Q 15.921875 -1.421875 10.953125 3.296875 
Q 6 8.015625 6 15.921875 
Q 6 25.140625 12.171875 29.828125 
Q 18.359375 34.515625 30.609375 34.515625 
L 43.21875 34.515625 
L 43.21875 35.40625 
Q 43.21875 41.609375 39.140625 45 
Q 35.0625 48.390625 27.6875 48.390625 
Q 23 48.390625 18.546875 47.265625 
Q 14.109375 46.140625 10.015625 43.890625 
L 10.015625 52.203125 
Q 14.9375 54.109375 19.578125 55.046875 
Q 24.21875 56 28.609375 56 
Q 40.484375 56 46.34375 49.84375 
Q 52.203125 43.703125 52.203125 31.203125 
z
" id="DejaVuSans-61"/>
      <path d="M 9.421875 75.984375 
L 18.40625 75.984375 
L 18.40625 0 
L 9.421875 0 
z
" id="DejaVuSans-6c"/>
     </defs>
     <g transform="translate(32.887188 106.761281)rotate(-90)scale(0.15 -0.15)">
      <use xlink:href="#DejaVuSans-52"/>
      <use x="69.419922" xlink:href="#DejaVuSans-65"/>
      <use x="130.943359" xlink:href="#DejaVuSans-73"/>
      <use x="183.042969" xlink:href="#DejaVuSans-69"/>
      <use x="210.826172" xlink:href="#DejaVuSans-64"/>
      <use x="274.302734" xlink:href="#DejaVuSans-75"/>
      <use x="337.681641" xlink:href="#DejaVuSans-61"/>
      <use x="398.960938" xlink:href="#DejaVuSans-6c"/>
      <use x="426.744141" xlink:href="#DejaVuSans-73"/>
     </g>
    </g>
   </g>
   <g id="LineCollection_1">
    <path clip-path="url(#p9949822ca6)" d="M 81.92 86.748723 
L 81.92 57.022079 
" style="fill:none;stroke:#0000ff;stroke-width:1.5;"/>
    <path clip-path="url(#p9949822ca6)" d="M 128.465455 74.578038 
L 128.465455 44.851393 
" style="fill:none;stroke:#0000ff;stroke-width:1.5;"/>
    <path clip-path="url(#p9949822ca6)" d="M 143.010909 87.633248 
L 143.010909 57.906603 
" style="fill:none;stroke:#0000ff;stroke-width:1.5;"/>
    <path clip-path="url(#p9949822ca6)" d="M 151.738182 88.147285 
L 151.738182 58.42064 
" style="fill:none;stroke:#0000ff;stroke-width:1.5;"/>
    <path clip-path="url(#p9949822ca6)" d="M 163.374545 89.205933 
L 163.374545 59.479288 
" style="fill:none;stroke:#0000ff;stroke-width:1.5;"/>
    <path clip-path="url(#p9949822ca6)" d="M 166.283636 85.782791 
L 166.283636 56.056146 
" style="fill:none;stroke:#0000ff;stroke-width:1.5;"/>
    <path clip-path="url(#p9949822ca6)" d="M 169.192727 82.758895 
L 169.192727 53.03225 
" style="fill:none;stroke:#0000ff;stroke-width:1.5;"/>
    <path clip-path="url(#p9949822ca6)" d="M 172.101818 86.554361 
L 172.101818 56.827716 
" style="fill:none;stroke:#0000ff;stroke-width:1.5;"/>
    <path clip-path="url(#p9949822ca6)" d="M 175.010909 74.982354 
L 175.010909 45.255709 
" style="fill:none;stroke:#0000ff;stroke-width:1.5;"/>
    <path clip-path="url(#p9949822ca6)" d="M 177.92 80.905816 
L 177.92 51.179171 
" style="fill:none;stroke:#0000ff;stroke-width:1.5;"/>
    <path clip-path="url(#p9949822ca6)" d="M 180.829091 84.549271 
L 180.829091 54.822626 
" style="fill:none;stroke:#0000ff;stroke-width:1.5;"/>
    <path clip-path="url(#p9949822ca6)" d="M 183.738182 76.333505 
L 183.738182 46.60686 
" style="fill:none;stroke:#0000ff;stroke-width:1.5;"/>
    <path clip-path="url(#p9949822ca6)" d="M 186.647273 79.575685 
L 186.647273 49.84904 
" style="fill:none;stroke:#0000ff;stroke-width:1.5;"/>
    <path clip-path="url(#p9949822ca6)" d="M 189.556364 74.907843 
L 189.556364 45.181198 
" style="fill:none;stroke:#0000ff;stroke-width:1.5;"/>
    <path clip-path="url(#p9949822ca6)" d="M 192.465455 70.85917 
L 192.465455 41.132525 
" style="fill:none;stroke:#0000ff;stroke-width:1.5;"/>
    <path clip-path="url(#p9949822ca6)" d="M 195.374545 76.158571 
L 195.374545 46.431926 
" style="fill:none;stroke:#0000ff;stroke-width:1.5;"/>
    <path clip-path="url(#p9949822ca6)" d="M 198.283636 96.563293 
L 198.283636 66.836648 
" style="fill:none;stroke:#0000ff;stroke-width:1.5;"/>
    <path clip-path="url(#p9949822ca6)" d="M 201.192727 83.079175 
L 201.192727 53.35253 
" style="fill:none;stroke:#0000ff;stroke-width:1.5;"/>
    <path clip-path="url(#p9949822ca6)" d="M 204.101818 98.583634 
L 204.101818 68.856989 
" style="fill:none;stroke:#0000ff;stroke-width:1.5;"/>
    <path clip-path="url(#p9949822ca6)" d="M 207.010909 99.684662 
L 207.010909 69.958017 
" style="fill:none;stroke:#0000ff;stroke-width:1.5;"/>
    <path clip-path="url(#p9949822ca6)" d="M 209.92 96.426868 
L 209.92 66.700223 
" style="fill:none;stroke:#0000ff;stroke-width:1.5;"/>
    <path clip-path="url(#p9949822ca6)" d="M 212.829091 90.022061 
L 212.829091 60.295416 
" style="fill:none;stroke:#0000ff;stroke-width:1.5;"/>
    <path clip-path="url(#p9949822ca6)" d="M 215.738182 84.774786 
L 215.738182 55.048141 
" style="fill:none;stroke:#0000ff;stroke-width:1.5;"/>
    <path clip-path="url(#p9949822ca6)" d="M 218.647273 92.23136 
L 218.647273 62.504715 
" style="fill:none;stroke:#0000ff;stroke-width:1.5;"/>
    <path clip-path="url(#p9949822ca6)" d="M 221.556364 78.799989 
L 221.556364 49.073344 
" style="fill:none;stroke:#0000ff;stroke-width:1.5;"/>
    <path clip-path="url(#p9949822ca6)" d="M 224.465455 75.129582 
L 224.465455 45.402937 
" style="fill:none;stroke:#0000ff;stroke-width:1.5;"/>
    <path clip-path="url(#p9949822ca6)" d="M 227.374545 66.144019 
L 227.374545 36.417374 
" style="fill:none;stroke:#0000ff;stroke-width:1.5;"/>
    <path clip-path="url(#p9949822ca6)" d="M 230.283636 74.865725 
L 230.283636 45.13908 
" style="fill:none;stroke:#0000ff;stroke-width:1.5;"/>
    <path clip-path="url(#p9949822ca6)" d="M 233.192727 75.831724 
L 233.192727 46.105079 
" style="fill:none;stroke:#0000ff;stroke-width:1.5;"/>
    <path clip-path="url(#p9949822ca6)" d="M 236.101818 79.06212 
L 236.101818 49.335475 
" style="fill:none;stroke:#0000ff;stroke-width:1.5;"/>
    <path clip-path="url(#p9949822ca6)" d="M 239.010909 82.474893 
L 239.010909 52.748249 
" style="fill:none;stroke:#0000ff;stroke-width:1.5;"/>
    <path clip-path="url(#p9949822ca6)" d="M 241.92 78.753474 
L 241.92 49.026829 
" style="fill:none;stroke:#0000ff;stroke-width:1.5;"/>
    <path clip-path="url(#p9949822ca6)" d="M 244.829091 87.136342 
L 244.829091 57.409697 
" style="fill:none;stroke:#0000ff;stroke-width:1.5;"/>
    <path clip-path="url(#p9949822ca6)" d="M 247.738182 88.166068 
L 247.738182 58.439423 
" style="fill:none;stroke:#0000ff;stroke-width:1.5;"/>
    <path clip-path="url(#p9949822ca6)" d="M 250.647273 101.973215 
L 250.647273 72.24657 
" style="fill:none;stroke:#0000ff;stroke-width:1.5;"/>
    <path clip-path="url(#p9949822ca6)" d="M 253.556364 80.182905 
L 253.556364 50.45626 
" style="fill:none;stroke:#0000ff;stroke-width:1.5;"/>
    <path clip-path="url(#p9949822ca6)" d="M 256.465455 67.392015 
L 256.465455 37.66537 
" style="fill:none;stroke:#0000ff;stroke-width:1.5;"/>
    <path clip-path="url(#p9949822ca6)" d="M 259.374545 89.193407 
L 259.374545 59.466763 
" style="fill:none;stroke:#0000ff;stroke-width:1.5;"/>
    <path clip-path="url(#p9949822ca6)" d="M 262.283636 89.996435 
L 262.283636 60.26979 
" style="fill:none;stroke:#0000ff;stroke-width:1.5;"/>
    <path clip-path="url(#p9949822ca6)" d="M 265.192727 69.298326 
L 265.192727 39.571681 
" style="fill:none;stroke:#0000ff;stroke-width:1.5;"/>
    <path clip-path="url(#p9949822ca6)" d="M 268.101818 69.835368 
L 268.101818 40.108723 
" style="fill:none;stroke:#0000ff;stroke-width:1.5;"/>
    <path clip-path="url(#p9949822ca6)" d="M 271.010909 84.411626 
L 271.010909 54.684981 
" style="fill:none;stroke:#0000ff;stroke-width:1.5;"/>
    <path clip-path="url(#p9949822ca6)" d="M 273.92 92.548365 
L 273.92 62.821721 
" style="fill:none;stroke:#0000ff;stroke-width:1.5;"/>
    <path clip-path="url(#p9949822ca6)" d="M 276.829091 109.711322 
L 276.829091 79.984678 
" style="fill:none;stroke:#0000ff;stroke-width:1.5;"/>
    <path clip-path="url(#p9949822ca6)" d="M 279.738182 76.989992 
L 279.738182 47.263347 
" style="fill:none;stroke:#0000ff;stroke-width:1.5;"/>
    <path clip-path="url(#p9949822ca6)" d="M 282.647273 99.616142 
L 282.647273 69.889497 
" style="fill:none;stroke:#0000ff;stroke-width:1.5;"/>
    <path clip-path="url(#p9949822ca6)" d="M 285.556364 91.071628 
L 285.556364 61.344983 
" style="fill:none;stroke:#0000ff;stroke-width:1.5;"/>
    <path clip-path="url(#p9949822ca6)" d="M 288.465455 91.153927 
L 288.465455 61.427282 
" style="fill:none;stroke:#0000ff;stroke-width:1.5;"/>
    <path clip-path="url(#p9949822ca6)" d="M 291.374545 83.797892 
L 291.374545 54.071248 
" style="fill:none;stroke:#0000ff;stroke-width:1.5;"/>
    <path clip-path="url(#p9949822ca6)" d="M 294.283636 83.70466 
L 294.283636 53.978015 
" style="fill:none;stroke:#0000ff;stroke-width:1.5;"/>
    <path clip-path="url(#p9949822ca6)" d="M 297.192727 68.112563 
L 297.192727 38.385918 
" style="fill:none;stroke:#0000ff;stroke-width:1.5;"/>
    <path clip-path="url(#p9949822ca6)" d="M 300.101818 90.572732 
L 300.101818 60.846087 
" style="fill:none;stroke:#0000ff;stroke-width:1.5;"/>
    <path clip-path="url(#p9949822ca6)" d="M 303.010909 69.284216 
L 303.010909 39.557571 
" style="fill:none;stroke:#0000ff;stroke-width:1.5;"/>
    <path clip-path="url(#p9949822ca6)" d="M 305.92 87.215496 
L 305.92 57.488851 
" style="fill:none;stroke:#0000ff;stroke-width:1.5;"/>
    <path clip-path="url(#p9949822ca6)" d="M 308.829091 82.024594 
L 308.829091 52.297949 
" style="fill:none;stroke:#0000ff;stroke-width:1.5;"/>
    <path clip-path="url(#p9949822ca6)" d="M 311.738182 94.110712 
L 311.738182 64.384067 
" style="fill:none;stroke:#0000ff;stroke-width:1.5;"/>
    <path clip-path="url(#p9949822ca6)" d="M 314.647273 65.830277 
L 314.647273 36.103632 
" style="fill:none;stroke:#0000ff;stroke-width:1.5;"/>
    <path clip-path="url(#p9949822ca6)" d="M 317.556364 82.399938 
L 317.556364 52.673293 
" style="fill:none;stroke:#0000ff;stroke-width:1.5;"/>
    <path clip-path="url(#p9949822ca6)" d="M 320.465455 89.024716 
L 320.465455 59.298071 
" style="fill:none;stroke:#0000ff;stroke-width:1.5;"/>
    <path clip-path="url(#p9949822ca6)" d="M 323.374545 88.158451 
L 323.374545 58.431806 
" style="fill:none;stroke:#0000ff;stroke-width:1.5;"/>
    <path clip-path="url(#p9949822ca6)" d="M 326.283636 61.711322 
L 326.283636 31.984678 
" style="fill:none;stroke:#0000ff;stroke-width:1.5;"/>
    <path clip-path="url(#p9949822ca6)" d="M 329.192727 79.1354 
L 329.192727 49.408755 
" style="fill:none;stroke:#0000ff;stroke-width:1.5;"/>
    <path clip-path="url(#p9949822ca6)" d="M 332.101818 97.044433 
L 332.101818 67.317789 
" style="fill:none;stroke:#0000ff;stroke-width:1.5;"/>
    <path clip-path="url(#p9949822ca6)" d="M 335.010909 84.315329 
L 335.010909 54.588684 
" style="fill:none;stroke:#0000ff;stroke-width:1.5;"/>
    <path clip-path="url(#p9949822ca6)" d="M 337.92 83.29583 
L 337.92 53.569185 
" style="fill:none;stroke:#0000ff;stroke-width:1.5;"/>
    <path clip-path="url(#p9949822ca6)" d="M 340.829091 73.352737 
L 340.829091 43.626092 
" style="fill:none;stroke:#0000ff;stroke-width:1.5;"/>
    <path clip-path="url(#p9949822ca6)" d="M 343.738182 86.428473 
L 343.738182 56.701828 
" style="fill:none;stroke:#0000ff;stroke-width:1.5;"/>
    <path clip-path="url(#p9949822ca6)" d="M 346.647273 98.089193 
L 346.647273 68.362549 
" style="fill:none;stroke:#0000ff;stroke-width:1.5;"/>
    <path clip-path="url(#p9949822ca6)" d="M 349.556364 65.068401 
L 349.556364 35.341756 
" style="fill:none;stroke:#0000ff;stroke-width:1.5;"/>
    <path clip-path="url(#p9949822ca6)" d="M 352.465455 88.885772 
L 352.465455 59.159128 
" style="fill:none;stroke:#0000ff;stroke-width:1.5;"/>
    <path clip-path="url(#p9949822ca6)" d="M 355.374545 82.13272 
L 355.374545 52.406075 
" style="fill:none;stroke:#0000ff;stroke-width:1.5;"/>
    <path clip-path="url(#p9949822ca6)" d="M 358.283636 74.005948 
L 358.283636 44.279303 
" style="fill:none;stroke:#0000ff;stroke-width:1.5;"/>
    <path clip-path="url(#p9949822ca6)" d="M 361.192727 71.003553 
L 361.192727 41.276908 
" style="fill:none;stroke:#0000ff;stroke-width:1.5;"/>
    <path clip-path="url(#p9949822ca6)" d="M 364.101818 84.570483 
L 364.101818 54.843838 
" style="fill:none;stroke:#0000ff;stroke-width:1.5;"/>
    <path clip-path="url(#p9949822ca6)" d="M 367.010909 97.33824 
L 367.010909 67.611595 
" style="fill:none;stroke:#0000ff;stroke-width:1.5;"/>
    <path clip-path="url(#p9949822ca6)" d="M 369.92 72.71934 
L 369.92 42.992695 
" style="fill:none;stroke:#0000ff;stroke-width:1.5;"/>
    <path clip-path="url(#p9949822ca6)" d="M 372.829091 95.119398 
L 372.829091 65.392753 
" style="fill:none;stroke:#0000ff;stroke-width:1.5;"/>
    <path clip-path="url(#p9949822ca6)" d="M 375.738182 98.36878 
L 375.738182 68.642135 
" style="fill:none;stroke:#0000ff;stroke-width:1.5;"/>
    <path clip-path="url(#p9949822ca6)" d="M 378.647273 89.375372 
L 378.647273 59.648727 
" style="fill:none;stroke:#0000ff;stroke-width:1.5;"/>
    <path clip-path="url(#p9949822ca6)" d="M 381.556364 82.124028 
L 381.556364 52.397383 
" style="fill:none;stroke:#0000ff;stroke-width:1.5;"/>
    <path clip-path="url(#p9949822ca6)" d="M 384.465455 87.699936 
L 384.465455 57.973291 
" style="fill:none;stroke:#0000ff;stroke-width:1.5;"/>
    <path clip-path="url(#p9949822ca6)" d="M 390.283636 93.836778 
L 390.283636 64.110133 
" style="fill:none;stroke:#0000ff;stroke-width:1.5;"/>
    <path clip-path="url(#p9949822ca6)" d="M 396.101818 81.817257 
L 396.101818 52.090612 
" style="fill:none;stroke:#0000ff;stroke-width:1.5;"/>
    <path clip-path="url(#p9949822ca6)" d="M 399.010909 84.442083 
L 399.010909 54.715438 
" style="fill:none;stroke:#0000ff;stroke-width:1.5;"/>
    <path clip-path="url(#p9949822ca6)" d="M 401.92 80.812457 
L 401.92 51.085812 
" style="fill:none;stroke:#0000ff;stroke-width:1.5;"/>
   </g>
   <g id="line2d_7">
    <path clip-path="url(#p9949822ca6)" d="M 81.92 69.993827 
L 401.92 69.993827 
" style="fill:none;stroke:#ff0000;stroke-linecap:square;stroke-width:1.5;"/>
   </g>
   <g id="line2d_8">
    <defs>
     <path d="M -3 0 
L 3 0 
M 0 3 
L 0 -3 
" id="m444d09162f" style="stroke:#0000ff;"/>
    </defs>
    <g clip-path="url(#p9949822ca6)">
     <use style="fill:#0000ff;stroke:#0000ff;" x="81.92" xlink:href="#m444d09162f" y="71.885401"/>
     <use style="fill:#0000ff;stroke:#0000ff;" x="128.465455" xlink:href="#m444d09162f" y="59.714715"/>
     <use style="fill:#0000ff;stroke:#0000ff;" x="143.010909" xlink:href="#m444d09162f" y="72.769926"/>
     <use style="fill:#0000ff;stroke:#0000ff;" x="151.738182" xlink:href="#m444d09162f" y="73.283963"/>
     <use style="fill:#0000ff;stroke:#0000ff;" x="163.374545" xlink:href="#m444d09162f" y="74.342611"/>
     <use style="fill:#0000ff;stroke:#0000ff;" x="166.283636" xlink:href="#m444d09162f" y="70.919469"/>
     <use style="fill:#0000ff;stroke:#0000ff;" x="169.192727" xlink:href="#m444d09162f" y="67.895573"/>
     <use style="fill:#0000ff;stroke:#0000ff;" x="172.101818" xlink:href="#m444d09162f" y="71.691038"/>
     <use style="fill:#0000ff;stroke:#0000ff;" x="175.010909" xlink:href="#m444d09162f" y="60.119031"/>
     <use style="fill:#0000ff;stroke:#0000ff;" x="177.92" xlink:href="#m444d09162f" y="66.042493"/>
     <use style="fill:#0000ff;stroke:#0000ff;" x="180.829091" xlink:href="#m444d09162f" y="69.685949"/>
     <use style="fill:#0000ff;stroke:#0000ff;" x="183.738182" xlink:href="#m444d09162f" y="61.470183"/>
     <use style="fill:#0000ff;stroke:#0000ff;" x="186.647273" xlink:href="#m444d09162f" y="64.712362"/>
     <use style="fill:#0000ff;stroke:#0000ff;" x="189.556364" xlink:href="#m444d09162f" y="60.04452"/>
     <use style="fill:#0000ff;stroke:#0000ff;" x="192.465455" xlink:href="#m444d09162f" y="55.995847"/>
     <use style="fill:#0000ff;stroke:#0000ff;" x="195.374545" xlink:href="#m444d09162f" y="61.295249"/>
     <use style="fill:#0000ff;stroke:#0000ff;" x="198.283636" xlink:href="#m444d09162f" y="81.699971"/>
     <use style="fill:#0000ff;stroke:#0000ff;" x="201.192727" xlink:href="#m444d09162f" y="68.215853"/>
     <use style="fill:#0000ff;stroke:#0000ff;" x="204.101818" xlink:href="#m444d09162f" y="83.720312"/>
     <use style="fill:#0000ff;stroke:#0000ff;" x="207.010909" xlink:href="#m444d09162f" y="84.82134"/>
     <use style="fill:#0000ff;stroke:#0000ff;" x="209.92" xlink:href="#m444d09162f" y="81.563546"/>
     <use style="fill:#0000ff;stroke:#0000ff;" x="212.829091" xlink:href="#m444d09162f" y="75.158739"/>
     <use style="fill:#0000ff;stroke:#0000ff;" x="215.738182" xlink:href="#m444d09162f" y="69.911463"/>
     <use style="fill:#0000ff;stroke:#0000ff;" x="218.647273" xlink:href="#m444d09162f" y="77.368038"/>
     <use style="fill:#0000ff;stroke:#0000ff;" x="221.556364" xlink:href="#m444d09162f" y="63.936667"/>
     <use style="fill:#0000ff;stroke:#0000ff;" x="224.465455" xlink:href="#m444d09162f" y="60.266259"/>
     <use style="fill:#0000ff;stroke:#0000ff;" x="227.374545" xlink:href="#m444d09162f" y="51.280697"/>
     <use style="fill:#0000ff;stroke:#0000ff;" x="230.283636" xlink:href="#m444d09162f" y="60.002403"/>
     <use style="fill:#0000ff;stroke:#0000ff;" x="233.192727" xlink:href="#m444d09162f" y="60.968401"/>
     <use style="fill:#0000ff;stroke:#0000ff;" x="236.101818" xlink:href="#m444d09162f" y="64.198797"/>
     <use style="fill:#0000ff;stroke:#0000ff;" x="239.010909" xlink:href="#m444d09162f" y="67.611571"/>
     <use style="fill:#0000ff;stroke:#0000ff;" x="241.92" xlink:href="#m444d09162f" y="63.890151"/>
     <use style="fill:#0000ff;stroke:#0000ff;" x="244.829091" xlink:href="#m444d09162f" y="72.27302"/>
     <use style="fill:#0000ff;stroke:#0000ff;" x="247.738182" xlink:href="#m444d09162f" y="73.302746"/>
     <use style="fill:#0000ff;stroke:#0000ff;" x="250.647273" xlink:href="#m444d09162f" y="87.109892"/>
     <use style="fill:#0000ff;stroke:#0000ff;" x="253.556364" xlink:href="#m444d09162f" y="65.319583"/>
     <use style="fill:#0000ff;stroke:#0000ff;" x="256.465455" xlink:href="#m444d09162f" y="52.528693"/>
     <use style="fill:#0000ff;stroke:#0000ff;" x="259.374545" xlink:href="#m444d09162f" y="74.330085"/>
     <use style="fill:#0000ff;stroke:#0000ff;" x="262.283636" xlink:href="#m444d09162f" y="75.133113"/>
     <use style="fill:#0000ff;stroke:#0000ff;" x="265.192727" xlink:href="#m444d09162f" y="54.435003"/>
     <use style="fill:#0000ff;stroke:#0000ff;" x="268.101818" xlink:href="#m444d09162f" y="54.972045"/>
     <use style="fill:#0000ff;stroke:#0000ff;" x="271.010909" xlink:href="#m444d09162f" y="69.548303"/>
     <use style="fill:#0000ff;stroke:#0000ff;" x="273.92" xlink:href="#m444d09162f" y="77.685043"/>
     <use style="fill:#0000ff;stroke:#0000ff;" x="276.829091" xlink:href="#m444d09162f" y="94.848"/>
     <use style="fill:#0000ff;stroke:#0000ff;" x="279.738182" xlink:href="#m444d09162f" y="62.12667"/>
     <use style="fill:#0000ff;stroke:#0000ff;" x="282.647273" xlink:href="#m444d09162f" y="84.75282"/>
     <use style="fill:#0000ff;stroke:#0000ff;" x="285.556364" xlink:href="#m444d09162f" y="76.208306"/>
     <use style="fill:#0000ff;stroke:#0000ff;" x="288.465455" xlink:href="#m444d09162f" y="76.290604"/>
     <use style="fill:#0000ff;stroke:#0000ff;" x="291.374545" xlink:href="#m444d09162f" y="68.93457"/>
     <use style="fill:#0000ff;stroke:#0000ff;" x="294.283636" xlink:href="#m444d09162f" y="68.841338"/>
     <use style="fill:#0000ff;stroke:#0000ff;" x="297.192727" xlink:href="#m444d09162f" y="53.249241"/>
     <use style="fill:#0000ff;stroke:#0000ff;" x="300.101818" xlink:href="#m444d09162f" y="75.70941"/>
     <use style="fill:#0000ff;stroke:#0000ff;" x="303.010909" xlink:href="#m444d09162f" y="54.420893"/>
     <use style="fill:#0000ff;stroke:#0000ff;" x="305.92" xlink:href="#m444d09162f" y="72.352173"/>
     <use style="fill:#0000ff;stroke:#0000ff;" x="308.829091" xlink:href="#m444d09162f" y="67.161272"/>
     <use style="fill:#0000ff;stroke:#0000ff;" x="311.738182" xlink:href="#m444d09162f" y="79.24739"/>
     <use style="fill:#0000ff;stroke:#0000ff;" x="314.647273" xlink:href="#m444d09162f" y="50.966954"/>
     <use style="fill:#0000ff;stroke:#0000ff;" x="317.556364" xlink:href="#m444d09162f" y="67.536615"/>
     <use style="fill:#0000ff;stroke:#0000ff;" x="320.465455" xlink:href="#m444d09162f" y="74.161394"/>
     <use style="fill:#0000ff;stroke:#0000ff;" x="323.374545" xlink:href="#m444d09162f" y="73.295128"/>
     <use style="fill:#0000ff;stroke:#0000ff;" x="326.283636" xlink:href="#m444d09162f" y="46.848"/>
     <use style="fill:#0000ff;stroke:#0000ff;" x="329.192727" xlink:href="#m444d09162f" y="64.272077"/>
     <use style="fill:#0000ff;stroke:#0000ff;" x="332.101818" xlink:href="#m444d09162f" y="82.181111"/>
     <use style="fill:#0000ff;stroke:#0000ff;" x="335.010909" xlink:href="#m444d09162f" y="69.452007"/>
     <use style="fill:#0000ff;stroke:#0000ff;" x="337.92" xlink:href="#m444d09162f" y="68.432508"/>
     <use style="fill:#0000ff;stroke:#0000ff;" x="340.829091" xlink:href="#m444d09162f" y="58.489415"/>
     <use style="fill:#0000ff;stroke:#0000ff;" x="343.738182" xlink:href="#m444d09162f" y="71.56515"/>
     <use style="fill:#0000ff;stroke:#0000ff;" x="346.647273" xlink:href="#m444d09162f" y="83.225871"/>
     <use style="fill:#0000ff;stroke:#0000ff;" x="349.556364" xlink:href="#m444d09162f" y="50.205079"/>
     <use style="fill:#0000ff;stroke:#0000ff;" x="352.465455" xlink:href="#m444d09162f" y="74.02245"/>
     <use style="fill:#0000ff;stroke:#0000ff;" x="355.374545" xlink:href="#m444d09162f" y="67.269397"/>
     <use style="fill:#0000ff;stroke:#0000ff;" x="358.283636" xlink:href="#m444d09162f" y="59.142626"/>
     <use style="fill:#0000ff;stroke:#0000ff;" x="361.192727" xlink:href="#m444d09162f" y="56.140231"/>
     <use style="fill:#0000ff;stroke:#0000ff;" x="364.101818" xlink:href="#m444d09162f" y="69.70716"/>
     <use style="fill:#0000ff;stroke:#0000ff;" x="367.010909" xlink:href="#m444d09162f" y="82.474917"/>
     <use style="fill:#0000ff;stroke:#0000ff;" x="369.92" xlink:href="#m444d09162f" y="57.856017"/>
     <use style="fill:#0000ff;stroke:#0000ff;" x="372.829091" xlink:href="#m444d09162f" y="80.256076"/>
     <use style="fill:#0000ff;stroke:#0000ff;" x="375.738182" xlink:href="#m444d09162f" y="83.505457"/>
     <use style="fill:#0000ff;stroke:#0000ff;" x="378.647273" xlink:href="#m444d09162f" y="74.512049"/>
     <use style="fill:#0000ff;stroke:#0000ff;" x="381.556364" xlink:href="#m444d09162f" y="67.260706"/>
     <use style="fill:#0000ff;stroke:#0000ff;" x="384.465455" xlink:href="#m444d09162f" y="72.836614"/>
     <use style="fill:#0000ff;stroke:#0000ff;" x="390.283636" xlink:href="#m444d09162f" y="78.973456"/>
     <use style="fill:#0000ff;stroke:#0000ff;" x="396.101818" xlink:href="#m444d09162f" y="66.953935"/>
     <use style="fill:#0000ff;stroke:#0000ff;" x="399.010909" xlink:href="#m444d09162f" y="69.57876"/>
     <use style="fill:#0000ff;stroke:#0000ff;" x="401.92" xlink:href="#m444d09162f" y="65.949135"/>
    </g>
   </g>
   <g id="patch_3">
    <path d="M 69.12 96.768 
L 69.12 44.928 
" style="fill:none;stroke:#000000;stroke-linecap:square;stroke-linejoin:miter;stroke-width:0.8;"/>
   </g>
   <g id="patch_4">
    <path d="M 414.72 96.768 
L 414.72 44.928 
" style="fill:none;stroke:#000000;stroke-linecap:square;stroke-linejoin:miter;stroke-width:0.8;"/>
   </g>
   <g id="patch_5">
    <path d="M 69.12 96.768 
L 414.72 96.768 
" style="fill:none;stroke:#000000;stroke-linecap:square;stroke-linejoin:miter;stroke-width:0.8;"/>
   </g>
   <g id="patch_6">
    <path d="M 69.12 44.928 
L 414.72 44.928 
" style="fill:none;stroke:#000000;stroke-linecap:square;stroke-linejoin:miter;stroke-width:0.8;"/>
   </g>
   <g id="text_4">
    <!-- Function (0/0): y = a*exp(-(x-x0)**2/w**2)+b -->
    <defs>
     <path d="M 9.8125 72.90625 
L 51.703125 72.90625 
L 51.703125 64.59375 
L 19.671875 64.59375 
L 19.671875 43.109375 
L 48.578125 43.109375 
L 48.578125 34.8125 
L 19.671875 34.8125 
L 19.671875 0 
L 9.8125 0 
z
" id="DejaVuSans-46"/>
     <path d="M 48.78125 52.59375 
L 48.78125 44.1875 
Q 44.96875 46.296875 41.140625 47.34375 
Q 37.3125 48.390625 33.40625 48.390625 
Q 24.65625 48.390625 19.8125 42.84375 
Q 14.984375 37.3125 14.984375 27.296875 
Q 14.984375 17.28125 19.8125 11.734375 
Q 24.65625 6.203125 33.40625 6.203125 
Q 37.3125 6.203125 41.140625 7.25 
Q 44.96875 8.296875 48.78125 10.40625 
L 48.78125 2.09375 
Q 45.015625 0.34375 40.984375 -0.53125 
Q 36.96875 -1.421875 32.421875 -1.421875 
Q 20.0625 -1.421875 12.78125 6.34375 
Q 5.515625 14.109375 5.515625 27.296875 
Q 5.515625 40.671875 12.859375 48.328125 
Q 20.21875 56 33.015625 56 
Q 37.15625 56 41.109375 55.140625 
Q 45.0625 54.296875 48.78125 52.59375 
z
" id="DejaVuSans-63"/>
     <path d="M 30.609375 48.390625 
Q 23.390625 48.390625 19.1875 42.75 
Q 14.984375 37.109375 14.984375 27.296875 
Q 14.984375 17.484375 19.15625 11.84375 
Q 23.34375 6.203125 30.609375 6.203125 
Q 37.796875 6.203125 41.984375 11.859375 
Q 46.1875 17.53125 46.1875 27.296875 
Q 46.1875 37.015625 41.984375 42.703125 
Q 37.796875 48.390625 30.609375 48.390625 
z
M 30.609375 56 
Q 42.328125 56 49.015625 48.375 
Q 55.71875 40.765625 55.71875 27.296875 
Q 55.71875 13.875 49.015625 6.21875 
Q 42.328125 -1.421875 30.609375 -1.421875 
Q 18.84375 -1.421875 12.171875 6.21875 
Q 5.515625 13.875 5.515625 27.296875 
Q 5.515625 40.765625 12.171875 48.375 
Q 18.84375 56 30.609375 56 
z
" id="DejaVuSans-6f"/>
     <path id="DejaVuSans-20"/>
     <path d="M 31 75.875 
Q 24.46875 64.65625 21.28125 53.65625 
Q 18.109375 42.671875 18.109375 31.390625 
Q 18.109375 20.125 21.3125 9.0625 
Q 24.515625 -2 31 -13.1875 
L 23.1875 -13.1875 
Q 15.875 -1.703125 12.234375 9.375 
Q 8.59375 20.453125 8.59375 31.390625 
Q 8.59375 42.28125 12.203125 53.3125 
Q 15.828125 64.359375 23.1875 75.875 
z
" id="DejaVuSans-28"/>
     <path d="M 31.78125 66.40625 
Q 24.171875 66.40625 20.328125 58.90625 
Q 16.5 51.421875 16.5 36.375 
Q 16.5 21.390625 20.328125 13.890625 
Q 24.171875 6.390625 31.78125 6.390625 
Q 39.453125 6.390625 43.28125 13.890625 
Q 47.125 21.390625 47.125 36.375 
Q 47.125 51.421875 43.28125 58.90625 
Q 39.453125 66.40625 31.78125 66.40625 
z
M 31.78125 74.21875 
Q 44.046875 74.21875 50.515625 64.515625 
Q 56.984375 54.828125 56.984375 36.375 
Q 56.984375 17.96875 50.515625 8.265625 
Q 44.046875 -1.421875 31.78125 -1.421875 
Q 19.53125 -1.421875 13.0625 8.265625 
Q 6.59375 17.96875 6.59375 36.375 
Q 6.59375 54.828125 13.0625 64.515625 
Q 19.53125 74.21875 31.78125 74.21875 
z
" id="DejaVuSans-30"/>
     <path d="M 25.390625 72.90625 
L 33.6875 72.90625 
L 8.296875 -9.28125 
L 0 -9.28125 
z
" id="DejaVuSans-2f"/>
     <path d="M 8.015625 75.875 
L 15.828125 75.875 
Q 23.140625 64.359375 26.78125 53.3125 
Q 30.421875 42.28125 30.421875 31.390625 
Q 30.421875 20.453125 26.78125 9.375 
Q 23.140625 -1.703125 15.828125 -13.1875 
L 8.015625 -13.1875 
Q 14.5 -2 17.703125 9.0625 
Q 20.90625 20.125 20.90625 31.390625 
Q 20.90625 42.671875 17.703125 53.65625 
Q 14.5 64.65625 8.015625 75.875 
z
" id="DejaVuSans-29"/>
     <path d="M 11.71875 12.40625 
L 22.015625 12.40625 
L 22.015625 0 
L 11.71875 0 
z
M 11.71875 51.703125 
L 22.015625 51.703125 
L 22.015625 39.3125 
L 11.71875 39.3125 
z
" id="DejaVuSans-3a"/>
     <path d="M 32.171875 -5.078125 
Q 28.375 -14.84375 24.75 -17.8125 
Q 21.140625 -20.796875 15.09375 -20.796875 
L 7.90625 -20.796875 
L 7.90625 -13.28125 
L 13.1875 -13.28125 
Q 16.890625 -13.28125 18.9375 -11.515625 
Q 21 -9.765625 23.484375 -3.21875 
L 25.09375 0.875 
L 2.984375 54.6875 
L 12.5 54.6875 
L 29.59375 11.921875 
L 46.6875 54.6875 
L 56.203125 54.6875 
z
" id="DejaVuSans-79"/>
     <path d="M 10.59375 45.40625 
L 73.1875 45.40625 
L 73.1875 37.203125 
L 10.59375 37.203125 
z
M 10.59375 25.484375 
L 73.1875 25.484375 
L 73.1875 17.1875 
L 10.59375 17.1875 
z
" id="DejaVuSans-3d"/>
     <path d="M 47.015625 60.890625 
L 29.5 51.421875 
L 47.015625 41.890625 
L 44.1875 37.109375 
L 27.78125 47.015625 
L 27.78125 28.609375 
L 22.21875 28.609375 
L 22.21875 47.015625 
L 5.8125 37.109375 
L 2.984375 41.890625 
L 20.515625 51.421875 
L 2.984375 60.890625 
L 5.8125 65.71875 
L 22.21875 55.8125 
L 22.21875 74.21875 
L 27.78125 74.21875 
L 27.78125 55.8125 
L 44.1875 65.71875 
z
" id="DejaVuSans-2a"/>
     <path d="M 54.890625 54.6875 
L 35.109375 28.078125 
L 55.90625 0 
L 45.3125 0 
L 29.390625 21.484375 
L 13.484375 0 
L 2.875 0 
L 24.125 28.609375 
L 4.6875 54.6875 
L 15.28125 54.6875 
L 29.78125 35.203125 
L 44.28125 54.6875 
z
" id="DejaVuSans-78"/>
     <path d="M 18.109375 8.203125 
L 18.109375 -20.796875 
L 9.078125 -20.796875 
L 9.078125 54.6875 
L 18.109375 54.6875 
L 18.109375 46.390625 
Q 20.953125 51.265625 25.265625 53.625 
Q 29.59375 56 35.59375 56 
Q 45.5625 56 51.78125 48.09375 
Q 58.015625 40.1875 58.015625 27.296875 
Q 58.015625 14.40625 51.78125 6.484375 
Q 45.5625 -1.421875 35.59375 -1.421875 
Q 29.59375 -1.421875 25.265625 0.953125 
Q 20.953125 3.328125 18.109375 8.203125 
z
M 48.6875 27.296875 
Q 48.6875 37.203125 44.609375 42.84375 
Q 40.53125 48.484375 33.40625 48.484375 
Q 26.265625 48.484375 22.1875 42.84375 
Q 18.109375 37.203125 18.109375 27.296875 
Q 18.109375 17.390625 22.1875 11.75 
Q 26.265625 6.109375 33.40625 6.109375 
Q 40.53125 6.109375 44.609375 11.75 
Q 48.6875 17.390625 48.6875 27.296875 
z
" id="DejaVuSans-70"/>
     <path d="M 4.890625 31.390625 
L 31.203125 31.390625 
L 31.203125 23.390625 
L 4.890625 23.390625 
z
" id="DejaVuSans-2d"/>
     <path d="M 19.1875 8.296875 
L 53.609375 8.296875 
L 53.609375 0 
L 7.328125 0 
L 7.328125 8.296875 
Q 12.9375 14.109375 22.625 23.890625 
Q 32.328125 33.6875 34.8125 36.53125 
Q 39.546875 41.84375 41.421875 45.53125 
Q 43.3125 49.21875 43.3125 52.78125 
Q 43.3125 58.59375 39.234375 62.25 
Q 35.15625 65.921875 28.609375 65.921875 
Q 23.96875 65.921875 18.8125 64.3125 
Q 13.671875 62.703125 7.8125 59.421875 
L 7.8125 69.390625 
Q 13.765625 71.78125 18.9375 73 
Q 24.125 74.21875 28.421875 74.21875 
Q 39.75 74.21875 46.484375 68.546875 
Q 53.21875 62.890625 53.21875 53.421875 
Q 53.21875 48.921875 51.53125 44.890625 
Q 49.859375 40.875 45.40625 35.40625 
Q 44.1875 33.984375 37.640625 27.21875 
Q 31.109375 20.453125 19.1875 8.296875 
z
" id="DejaVuSans-32"/>
     <path d="M 4.203125 54.6875 
L 13.1875 54.6875 
L 24.421875 12.015625 
L 35.59375 54.6875 
L 46.1875 54.6875 
L 57.421875 12.015625 
L 68.609375 54.6875 
L 77.59375 54.6875 
L 63.28125 0 
L 52.6875 0 
L 40.921875 44.828125 
L 29.109375 0 
L 18.5 0 
z
" id="DejaVuSans-77"/>
     <path d="M 46 62.703125 
L 46 35.5 
L 73.1875 35.5 
L 73.1875 27.203125 
L 46 27.203125 
L 46 0 
L 37.796875 0 
L 37.796875 27.203125 
L 10.59375 27.203125 
L 10.59375 35.5 
L 37.796875 35.5 
L 37.796875 62.703125 
z
" id="DejaVuSans-2b"/>
     <path d="M 48.6875 27.296875 
Q 48.6875 37.203125 44.609375 42.84375 
Q 40.53125 48.484375 33.40625 48.484375 
Q 26.265625 48.484375 22.1875 42.84375 
Q 18.109375 37.203125 18.109375 27.296875 
Q 18.109375 17.390625 22.1875 11.75 
Q 26.265625 6.109375 33.40625 6.109375 
Q 40.53125 6.109375 44.609375 11.75 
Q 48.6875 17.390625 48.6875 27.296875 
z
M 18.109375 46.390625 
Q 20.953125 51.265625 25.265625 53.625 
Q 29.59375 56 35.59375 56 
Q 45.5625 56 51.78125 48.09375 
Q 58.015625 40.1875 58.015625 27.296875 
Q 58.015625 14.40625 51.78125 6.484375 
Q 45.5625 -1.421875 35.59375 -1.421875 
Q 29.59375 -1.421875 25.265625 0.953125 
Q 20.953125 3.328125 18.109375 8.203125 
L 18.109375 0 
L 9.078125 0 
L 9.078125 75.984375 
L 18.109375 75.984375 
z
" id="DejaVuSans-62"/>
    </defs>
    <g transform="translate(69.12 27.730187)scale(0.1 -0.1)">
     <use xlink:href="#DejaVuSans-46"/>
     <use x="57.441406" xlink:href="#DejaVuSans-75"/>
     <use x="120.820312" xlink:href="#DejaVuSans-6e"/>
     <use x="184.199219" xlink:href="#DejaVuSans-63"/>
     <use x="239.179688" xlink:href="#DejaVuSans-74"/>
     <use x="278.388672" xlink:href="#DejaVuSans-69"/>
     <use x="306.171875" xlink:href="#DejaVuSans-6f"/>
     <use x="367.353516" xlink:href="#DejaVuSans-6e"/>
     <use x="430.732422" xlink:href="#DejaVuSans-20"/>
     <use x="462.519531" xlink:href="#DejaVuSans-28"/>
     <use x="501.533203" xlink:href="#DejaVuSans-30"/>
     <use x="565.15625" xlink:href="#DejaVuSans-2f"/>
     <use x="598.847656" xlink:href="#DejaVuSans-30"/>
     <use x="662.470703" xlink:href="#DejaVuSans-29"/>
     <use x="701.484375" xlink:href="#DejaVuSans-3a"/>
     <use x="735.175781" xlink:href="#DejaVuSans-20"/>
     <use x="766.962891" xlink:href="#DejaVuSans-79"/>
     <use x="826.142578" xlink:href="#DejaVuSans-20"/>
     <use x="857.929688" xlink:href="#DejaVuSans-3d"/>
     <use x="941.71875" xlink:href="#DejaVuSans-20"/>
     <use x="973.505859" xlink:href="#DejaVuSans-61"/>
     <use x="1034.785156" xlink:href="#DejaVuSans-2a"/>
     <use x="1084.785156" xlink:href="#DejaVuSans-65"/>
     <use x="1146.292969" xlink:href="#DejaVuSans-78"/>
     <use x="1205.472656" xlink:href="#DejaVuSans-70"/>
     <use x="1268.949219" xlink:href="#DejaVuSans-28"/>
     <use x="1307.962891" xlink:href="#DejaVuSans-2d"/>
     <use x="1344.046875" xlink:href="#DejaVuSans-28"/>
     <use x="1383.060547" xlink:href="#DejaVuSans-78"/>
     <use x="1442.240234" xlink:href="#DejaVuSans-2d"/>
     <use x="1478.324219" xlink:href="#DejaVuSans-78"/>
     <use x="1537.503906" xlink:href="#DejaVuSans-30"/>
     <use x="1601.126953" xlink:href="#DejaVuSans-29"/>
     <use x="1640.140625" xlink:href="#DejaVuSans-2a"/>
     <use x="1690.140625" xlink:href="#DejaVuSans-2a"/>
     <use x="1740.140625" xlink:href="#DejaVuSans-32"/>
     <use x="1803.763672" xlink:href="#DejaVuSans-2f"/>
     <use x="1837.455078" xlink:href="#DejaVuSans-77"/>
     <use x="1919.242188" xlink:href="#DejaVuSans-2a"/>
     <use x="1969.242188" xlink:href="#DejaVuSans-2a"/>
     <use x="2019.242188" xlink:href="#DejaVuSans-32"/>
     <use x="2082.865234" xlink:href="#DejaVuSans-29"/>
     <use x="2121.878906" xlink:href="#DejaVuSans-2b"/>
     <use x="2205.667969" xlink:href="#DejaVuSans-62"/>
    </g>
    <!-- Fit: a=6.02$\pm$0.96, b=4.25$\pm$0.9, x0=4.281$\pm$0.012, w=0.152$\pm$0.032, -->
    <defs>
     <path d="M 33.015625 40.375 
Q 26.375 40.375 22.484375 35.828125 
Q 18.609375 31.296875 18.609375 23.390625 
Q 18.609375 15.53125 22.484375 10.953125 
Q 26.375 6.390625 33.015625 6.390625 
Q 39.65625 6.390625 43.53125 10.953125 
Q 47.40625 15.53125 47.40625 23.390625 
Q 47.40625 31.296875 43.53125 35.828125 
Q 39.65625 40.375 33.015625 40.375 
z
M 52.59375 71.296875 
L 52.59375 62.3125 
Q 48.875 64.0625 45.09375 64.984375 
Q 41.3125 65.921875 37.59375 65.921875 
Q 27.828125 65.921875 22.671875 59.328125 
Q 17.53125 52.734375 16.796875 39.40625 
Q 19.671875 43.65625 24.015625 45.921875 
Q 28.375 48.1875 33.59375 48.1875 
Q 44.578125 48.1875 50.953125 41.515625 
Q 57.328125 34.859375 57.328125 23.390625 
Q 57.328125 12.15625 50.6875 5.359375 
Q 44.046875 -1.421875 33.015625 -1.421875 
Q 20.359375 -1.421875 13.671875 8.265625 
Q 6.984375 17.96875 6.984375 36.375 
Q 6.984375 53.65625 15.1875 63.9375 
Q 23.390625 74.21875 37.203125 74.21875 
Q 40.921875 74.21875 44.703125 73.484375 
Q 48.484375 72.75 52.59375 71.296875 
z
" id="DejaVuSans-36"/>
     <path d="M 10.6875 12.40625 
L 21 12.40625 
L 21 0 
L 10.6875 0 
z
" id="DejaVuSans-2e"/>
     <path d="M 46 62.703125 
L 46 43.796875 
L 73.1875 43.796875 
L 73.1875 35.5 
L 46 35.5 
L 46 16.609375 
L 37.796875 16.609375 
L 37.796875 35.5 
L 10.59375 35.5 
L 10.59375 43.796875 
L 37.796875 43.796875 
L 37.796875 62.703125 
z
M 10.59375 8.296875 
L 73.1875 8.296875 
L 73.1875 0 
L 10.59375 0 
z
" id="DejaVuSans-b1"/>
     <path d="M 10.984375 1.515625 
L 10.984375 10.5 
Q 14.703125 8.734375 18.5 7.8125 
Q 22.3125 6.890625 25.984375 6.890625 
Q 35.75 6.890625 40.890625 13.453125 
Q 46.046875 20.015625 46.78125 33.40625 
Q 43.953125 29.203125 39.59375 26.953125 
Q 35.25 24.703125 29.984375 24.703125 
Q 19.046875 24.703125 12.671875 31.3125 
Q 6.296875 37.9375 6.296875 49.421875 
Q 6.296875 60.640625 12.9375 67.421875 
Q 19.578125 74.21875 30.609375 74.21875 
Q 43.265625 74.21875 49.921875 64.515625 
Q 56.59375 54.828125 56.59375 36.375 
Q 56.59375 19.140625 48.40625 8.859375 
Q 40.234375 -1.421875 26.421875 -1.421875 
Q 22.703125 -1.421875 18.890625 -0.6875 
Q 15.09375 0.046875 10.984375 1.515625 
z
M 30.609375 32.421875 
Q 37.25 32.421875 41.125 36.953125 
Q 45.015625 41.5 45.015625 49.421875 
Q 45.015625 57.28125 41.125 61.84375 
Q 37.25 66.40625 30.609375 66.40625 
Q 23.96875 66.40625 20.09375 61.84375 
Q 16.21875 57.28125 16.21875 49.421875 
Q 16.21875 41.5 20.09375 36.953125 
Q 23.96875 32.421875 30.609375 32.421875 
z
" id="DejaVuSans-39"/>
     <path d="M 11.71875 12.40625 
L 22.015625 12.40625 
L 22.015625 4 
L 14.015625 -11.625 
L 7.71875 -11.625 
L 11.71875 4 
z
" id="DejaVuSans-2c"/>
     <path d="M 37.796875 64.3125 
L 12.890625 25.390625 
L 37.796875 25.390625 
z
M 35.203125 72.90625 
L 47.609375 72.90625 
L 47.609375 25.390625 
L 58.015625 25.390625 
L 58.015625 17.1875 
L 47.609375 17.1875 
L 47.609375 0 
L 37.796875 0 
L 37.796875 17.1875 
L 4.890625 17.1875 
L 4.890625 26.703125 
z
" id="DejaVuSans-34"/>
     <path d="M 10.796875 72.90625 
L 49.515625 72.90625 
L 49.515625 64.59375 
L 19.828125 64.59375 
L 19.828125 46.734375 
Q 21.96875 47.46875 24.109375 47.828125 
Q 26.265625 48.1875 28.421875 48.1875 
Q 40.625 48.1875 47.75 41.5 
Q 54.890625 34.8125 54.890625 23.390625 
Q 54.890625 11.625 47.5625 5.09375 
Q 40.234375 -1.421875 26.90625 -1.421875 
Q 22.3125 -1.421875 17.546875 -0.640625 
Q 12.796875 0.140625 7.71875 1.703125 
L 7.71875 11.625 
Q 12.109375 9.234375 16.796875 8.0625 
Q 21.484375 6.890625 26.703125 6.890625 
Q 35.15625 6.890625 40.078125 11.328125 
Q 45.015625 15.765625 45.015625 23.390625 
Q 45.015625 31 40.078125 35.4375 
Q 35.15625 39.890625 26.703125 39.890625 
Q 22.75 39.890625 18.8125 39.015625 
Q 14.890625 38.140625 10.796875 36.28125 
z
" id="DejaVuSans-35"/>
     <path d="M 31.78125 34.625 
Q 24.75 34.625 20.71875 30.859375 
Q 16.703125 27.09375 16.703125 20.515625 
Q 16.703125 13.921875 20.71875 10.15625 
Q 24.75 6.390625 31.78125 6.390625 
Q 38.8125 6.390625 42.859375 10.171875 
Q 46.921875 13.96875 46.921875 20.515625 
Q 46.921875 27.09375 42.890625 30.859375 
Q 38.875 34.625 31.78125 34.625 
z
M 21.921875 38.8125 
Q 15.578125 40.375 12.03125 44.71875 
Q 8.5 49.078125 8.5 55.328125 
Q 8.5 64.0625 14.71875 69.140625 
Q 20.953125 74.21875 31.78125 74.21875 
Q 42.671875 74.21875 48.875 69.140625 
Q 55.078125 64.0625 55.078125 55.328125 
Q 55.078125 49.078125 51.53125 44.71875 
Q 48 40.375 41.703125 38.8125 
Q 48.828125 37.15625 52.796875 32.3125 
Q 56.78125 27.484375 56.78125 20.515625 
Q 56.78125 9.90625 50.3125 4.234375 
Q 43.84375 -1.421875 31.78125 -1.421875 
Q 19.734375 -1.421875 13.25 4.234375 
Q 6.78125 9.90625 6.78125 20.515625 
Q 6.78125 27.484375 10.78125 32.3125 
Q 14.796875 37.15625 21.921875 38.8125 
z
M 18.3125 54.390625 
Q 18.3125 48.734375 21.84375 45.5625 
Q 25.390625 42.390625 31.78125 42.390625 
Q 38.140625 42.390625 41.71875 45.5625 
Q 45.3125 48.734375 45.3125 54.390625 
Q 45.3125 60.0625 41.71875 63.234375 
Q 38.140625 66.40625 31.78125 66.40625 
Q 25.390625 66.40625 21.84375 63.234375 
Q 18.3125 60.0625 18.3125 54.390625 
z
" id="DejaVuSans-38"/>
     <path d="M 40.578125 39.3125 
Q 47.65625 37.796875 51.625 33 
Q 55.609375 28.21875 55.609375 21.1875 
Q 55.609375 10.40625 48.1875 4.484375 
Q 40.765625 -1.421875 27.09375 -1.421875 
Q 22.515625 -1.421875 17.65625 -0.515625 
Q 12.796875 0.390625 7.625 2.203125 
L 7.625 11.71875 
Q 11.71875 9.328125 16.59375 8.109375 
Q 21.484375 6.890625 26.8125 6.890625 
Q 36.078125 6.890625 40.9375 10.546875 
Q 45.796875 14.203125 45.796875 21.1875 
Q 45.796875 27.640625 41.28125 31.265625 
Q 36.765625 34.90625 28.71875 34.90625 
L 20.21875 34.90625 
L 20.21875 43.015625 
L 29.109375 43.015625 
Q 36.375 43.015625 40.234375 45.921875 
Q 44.09375 48.828125 44.09375 54.296875 
Q 44.09375 59.90625 40.109375 62.90625 
Q 36.140625 65.921875 28.71875 65.921875 
Q 24.65625 65.921875 20.015625 65.03125 
Q 15.375 64.15625 9.8125 62.3125 
L 9.8125 71.09375 
Q 15.4375 72.65625 20.34375 73.4375 
Q 25.25 74.21875 29.59375 74.21875 
Q 40.828125 74.21875 47.359375 69.109375 
Q 53.90625 64.015625 53.90625 55.328125 
Q 53.90625 49.265625 50.4375 45.09375 
Q 46.96875 40.921875 40.578125 39.3125 
z
" id="DejaVuSans-33"/>
    </defs>
    <g transform="translate(69.12 38.928)scale(0.1 -0.1)">
     <use transform="translate(0 0.015625)" xlink:href="#DejaVuSans-46"/>
     <use transform="translate(57.519531 0.015625)" xlink:href="#DejaVuSans-69"/>
     <use transform="translate(85.302734 0.015625)" xlink:href="#DejaVuSans-74"/>
     <use transform="translate(124.511719 0.015625)" xlink:href="#DejaVuSans-3a"/>
     <use transform="translate(158.203125 0.015625)" xlink:href="#DejaVuSans-20"/>
     <use transform="translate(189.990234 0.015625)" xlink:href="#DejaVuSans-61"/>
     <use transform="translate(251.269531 0.015625)" xlink:href="#DejaVuSans-3d"/>
     <use transform="translate(335.058594 0.015625)" xlink:href="#DejaVuSans-36"/>
     <use transform="translate(398.681641 0.015625)" xlink:href="#DejaVuSans-2e"/>
     <use transform="translate(430.46875 0.015625)" xlink:href="#DejaVuSans-30"/>
     <use transform="translate(494.091797 0.015625)" xlink:href="#DejaVuSans-32"/>
     <use transform="translate(557.714844 0.015625)" xlink:href="#DejaVuSans-b1"/>
     <use transform="translate(641.503906 0.015625)" xlink:href="#DejaVuSans-30"/>
     <use transform="translate(705.126953 0.015625)" xlink:href="#DejaVuSans-2e"/>
     <use transform="translate(736.914062 0.015625)" xlink:href="#DejaVuSans-39"/>
     <use transform="translate(800.537109 0.015625)" xlink:href="#DejaVuSans-36"/>
     <use transform="translate(864.160156 0.015625)" xlink:href="#DejaVuSans-2c"/>
     <use transform="translate(895.947266 0.015625)" xlink:href="#DejaVuSans-20"/>
     <use transform="translate(927.734375 0.015625)" xlink:href="#DejaVuSans-62"/>
     <use transform="translate(991.210938 0.015625)" xlink:href="#DejaVuSans-3d"/>
     <use transform="translate(1075 0.015625)" xlink:href="#DejaVuSans-34"/>
     <use transform="translate(1138.623047 0.015625)" xlink:href="#DejaVuSans-2e"/>
     <use transform="translate(1170.332031 0.015625)" xlink:href="#DejaVuSans-32"/>
     <use transform="translate(1233.955078 0.015625)" xlink:href="#DejaVuSans-35"/>
     <use transform="translate(1297.578125 0.015625)" xlink:href="#DejaVuSans-b1"/>
     <use transform="translate(1381.367188 0.015625)" xlink:href="#DejaVuSans-30"/>
     <use transform="translate(1444.990234 0.015625)" xlink:href="#DejaVuSans-2e"/>
     <use transform="translate(1476.777344 0.015625)" xlink:href="#DejaVuSans-39"/>
     <use transform="translate(1540.400391 0.015625)" xlink:href="#DejaVuSans-2c"/>
     <use transform="translate(1572.1875 0.015625)" xlink:href="#DejaVuSans-20"/>
     <use transform="translate(1603.974609 0.015625)" xlink:href="#DejaVuSans-78"/>
     <use transform="translate(1663.154297 0.015625)" xlink:href="#DejaVuSans-30"/>
     <use transform="translate(1726.777344 0.015625)" xlink:href="#DejaVuSans-3d"/>
     <use transform="translate(1810.566406 0.015625)" xlink:href="#DejaVuSans-34"/>
     <use transform="translate(1874.189453 0.015625)" xlink:href="#DejaVuSans-2e"/>
     <use transform="translate(1905.898438 0.015625)" xlink:href="#DejaVuSans-32"/>
     <use transform="translate(1969.521484 0.015625)" xlink:href="#DejaVuSans-38"/>
     <use transform="translate(2033.144531 0.015625)" xlink:href="#DejaVuSans-31"/>
     <use transform="translate(2096.767578 0.015625)" xlink:href="#DejaVuSans-b1"/>
     <use transform="translate(2180.556641 0.015625)" xlink:href="#DejaVuSans-30"/>
     <use transform="translate(2244.179688 0.015625)" xlink:href="#DejaVuSans-2e"/>
     <use transform="translate(2275.966797 0.015625)" xlink:href="#DejaVuSans-30"/>
     <use transform="translate(2339.589844 0.015625)" xlink:href="#DejaVuSans-31"/>
     <use transform="translate(2403.212891 0.015625)" xlink:href="#DejaVuSans-32"/>
     <use transform="translate(2466.835938 0.015625)" xlink:href="#DejaVuSans-2c"/>
     <use transform="translate(2498.623047 0.015625)" xlink:href="#DejaVuSans-20"/>
     <use transform="translate(2530.410156 0.015625)" xlink:href="#DejaVuSans-77"/>
     <use transform="translate(2612.197266 0.015625)" xlink:href="#DejaVuSans-3d"/>
     <use transform="translate(2695.986328 0.015625)" xlink:href="#DejaVuSans-30"/>
     <use transform="translate(2759.609375 0.015625)" xlink:href="#DejaVuSans-2e"/>
     <use transform="translate(2791.396484 0.015625)" xlink:href="#DejaVuSans-31"/>
     <use transform="translate(2855.019531 0.015625)" xlink:href="#DejaVuSans-35"/>
     <use transform="translate(2918.642578 0.015625)" xlink:href="#DejaVuSans-32"/>
     <use transform="translate(2982.265625 0.015625)" xlink:href="#DejaVuSans-b1"/>
     <use transform="translate(3066.054688 0.015625)" xlink:href="#DejaVuSans-30"/>
     <use transform="translate(3129.677734 0.015625)" xlink:href="#DejaVuSans-2e"/>
     <use transform="translate(3161.464844 0.015625)" xlink:href="#DejaVuSans-30"/>
     <use transform="translate(3225.087891 0.015625)" xlink:href="#DejaVuSans-33"/>
     <use transform="translate(3288.710938 0.015625)" xlink:href="#DejaVuSans-32"/>
     <use transform="translate(3352.333984 0.015625)" xlink:href="#DejaVuSans-2c"/>
    </g>
   </g>
  </g>
  <g id="axes_2">
   <g id="patch_7">
    <path d="M 69.12 311.04 
L 414.72 311.04 
L 414.72 103.68 
L 69.12 103.68 
z
" style="fill:#ffffff;"/>
   </g>
   <g id="matplotlib.axis_3">
    <g id="xtick_4">
     <g id="line2d_9">
      <g>
       <use style="stroke:#000000;stroke-width:0.8;" x="152.229162" xlink:href="#m096c656b85" y="311.04"/>
      </g>
     </g>
     <g id="text_5">
      <!-- 4.0 -->
      <g transform="translate(140.301819 329.437656)scale(0.15 -0.15)">
       <use xlink:href="#DejaVuSans-34"/>
       <use x="63.623047" xlink:href="#DejaVuSans-2e"/>
       <use x="95.410156" xlink:href="#DejaVuSans-30"/>
      </g>
     </g>
    </g>
    <g id="xtick_5">
     <g id="line2d_10">
      <g>
       <use style="stroke:#000000;stroke-width:0.8;" x="250.033639" xlink:href="#m096c656b85" y="311.04"/>
      </g>
     </g>
     <g id="text_6">
      <!-- 4.2 -->
      <g transform="translate(238.106295 329.437656)scale(0.15 -0.15)">
       <use xlink:href="#DejaVuSans-34"/>
       <use x="63.623047" xlink:href="#DejaVuSans-2e"/>
       <use x="95.410156" xlink:href="#DejaVuSans-32"/>
      </g>
     </g>
    </g>
    <g id="xtick_6">
     <g id="line2d_11">
      <g>
       <use style="stroke:#000000;stroke-width:0.8;" x="347.838115" xlink:href="#m096c656b85" y="311.04"/>
      </g>
     </g>
     <g id="text_7">
      <!-- 4.4 -->
      <g transform="translate(335.910771 329.437656)scale(0.15 -0.15)">
       <use xlink:href="#DejaVuSans-34"/>
       <use x="63.623047" xlink:href="#DejaVuSans-2e"/>
       <use x="95.410156" xlink:href="#DejaVuSans-34"/>
      </g>
     </g>
    </g>
    <g id="text_8">
     <!-- Energy [MeV] -->
     <defs>
      <path d="M 9.8125 72.90625 
L 55.90625 72.90625 
L 55.90625 64.59375 
L 19.671875 64.59375 
L 19.671875 43.015625 
L 54.390625 43.015625 
L 54.390625 34.71875 
L 19.671875 34.71875 
L 19.671875 8.296875 
L 56.78125 8.296875 
L 56.78125 0 
L 9.8125 0 
z
" id="DejaVuSans-45"/>
      <path d="M 41.109375 46.296875 
Q 39.59375 47.171875 37.8125 47.578125 
Q 36.03125 48 33.890625 48 
Q 26.265625 48 22.1875 43.046875 
Q 18.109375 38.09375 18.109375 28.8125 
L 18.109375 0 
L 9.078125 0 
L 9.078125 54.6875 
L 18.109375 54.6875 
L 18.109375 46.1875 
Q 20.953125 51.171875 25.484375 53.578125 
Q 30.03125 56 36.53125 56 
Q 37.453125 56 38.578125 55.875 
Q 39.703125 55.765625 41.0625 55.515625 
z
" id="DejaVuSans-72"/>
      <path d="M 45.40625 27.984375 
Q 45.40625 37.75 41.375 43.109375 
Q 37.359375 48.484375 30.078125 48.484375 
Q 22.859375 48.484375 18.828125 43.109375 
Q 14.796875 37.75 14.796875 27.984375 
Q 14.796875 18.265625 18.828125 12.890625 
Q 22.859375 7.515625 30.078125 7.515625 
Q 37.359375 7.515625 41.375 12.890625 
Q 45.40625 18.265625 45.40625 27.984375 
z
M 54.390625 6.78125 
Q 54.390625 -7.171875 48.1875 -13.984375 
Q 42 -20.796875 29.203125 -20.796875 
Q 24.46875 -20.796875 20.265625 -20.09375 
Q 16.0625 -19.390625 12.109375 -17.921875 
L 12.109375 -9.1875 
Q 16.0625 -11.328125 19.921875 -12.34375 
Q 23.78125 -13.375 27.78125 -13.375 
Q 36.625 -13.375 41.015625 -8.765625 
Q 45.40625 -4.15625 45.40625 5.171875 
L 45.40625 9.625 
Q 42.625 4.78125 38.28125 2.390625 
Q 33.9375 0 27.875 0 
Q 17.828125 0 11.671875 7.65625 
Q 5.515625 15.328125 5.515625 27.984375 
Q 5.515625 40.671875 11.671875 48.328125 
Q 17.828125 56 27.875 56 
Q 33.9375 56 38.28125 53.609375 
Q 42.625 51.21875 45.40625 46.390625 
L 45.40625 54.6875 
L 54.390625 54.6875 
z
" id="DejaVuSans-67"/>
      <path d="M 8.59375 75.984375 
L 29.296875 75.984375 
L 29.296875 69 
L 17.578125 69 
L 17.578125 -6.203125 
L 29.296875 -6.203125 
L 29.296875 -13.1875 
L 8.59375 -13.1875 
z
" id="DejaVuSans-5b"/>
      <path d="M 9.8125 72.90625 
L 24.515625 72.90625 
L 43.109375 23.296875 
L 61.8125 72.90625 
L 76.515625 72.90625 
L 76.515625 0 
L 66.890625 0 
L 66.890625 64.015625 
L 48.09375 14.015625 
L 38.1875 14.015625 
L 19.390625 64.015625 
L 19.390625 0 
L 9.8125 0 
z
" id="DejaVuSans-4d"/>
      <path d="M 28.609375 0 
L 0.78125 72.90625 
L 11.078125 72.90625 
L 34.1875 11.53125 
L 57.328125 72.90625 
L 67.578125 72.90625 
L 39.796875 0 
z
" id="DejaVuSans-56"/>
      <path d="M 30.421875 75.984375 
L 30.421875 -13.1875 
L 9.71875 -13.1875 
L 9.71875 -6.203125 
L 21.390625 -6.203125 
L 21.390625 69 
L 9.71875 69 
L 9.71875 75.984375 
z
" id="DejaVuSans-5d"/>
     </defs>
     <g transform="translate(191.078203 347.954844)scale(0.15 -0.15)">
      <use xlink:href="#DejaVuSans-45"/>
      <use x="63.183594" xlink:href="#DejaVuSans-6e"/>
      <use x="126.5625" xlink:href="#DejaVuSans-65"/>
      <use x="188.085938" xlink:href="#DejaVuSans-72"/>
      <use x="229.183594" xlink:href="#DejaVuSans-67"/>
      <use x="292.660156" xlink:href="#DejaVuSans-79"/>
      <use x="351.839844" xlink:href="#DejaVuSans-20"/>
      <use x="383.626953" xlink:href="#DejaVuSans-5b"/>
      <use x="422.640625" xlink:href="#DejaVuSans-4d"/>
      <use x="508.919922" xlink:href="#DejaVuSans-65"/>
      <use x="570.443359" xlink:href="#DejaVuSans-56"/>
      <use x="638.851562" xlink:href="#DejaVuSans-5d"/>
     </g>
    </g>
   </g>
   <g id="matplotlib.axis_4">
    <g id="ytick_4">
     <g id="line2d_12">
      <g>
       <use style="stroke:#000000;stroke-width:0.8;" x="69.12" xlink:href="#m04892691c0" y="303.36"/>
      </g>
     </g>
     <g id="text_9">
      <!-- 4 -->
      <g transform="translate(52.57625 309.058828)scale(0.15 -0.15)">
       <use xlink:href="#DejaVuSans-34"/>
      </g>
     </g>
    </g>
    <g id="ytick_5">
     <g id="line2d_13">
      <g>
       <use style="stroke:#000000;stroke-width:0.8;" x="69.12" xlink:href="#m04892691c0" y="268.450909"/>
      </g>
     </g>
     <g id="text_10">
      <!-- 6 -->
      <g transform="translate(52.57625 274.149737)scale(0.15 -0.15)">
       <use xlink:href="#DejaVuSans-36"/>
      </g>
     </g>
    </g>
    <g id="ytick_6">
     <g id="line2d_14">
      <g>
       <use style="stroke:#000000;stroke-width:0.8;" x="69.12" xlink:href="#m04892691c0" y="233.541818"/>
      </g>
     </g>
     <g id="text_11">
      <!-- 8 -->
      <g transform="translate(52.57625 239.240646)scale(0.15 -0.15)">
       <use xlink:href="#DejaVuSans-38"/>
      </g>
     </g>
    </g>
    <g id="ytick_7">
     <g id="line2d_15">
      <g>
       <use style="stroke:#000000;stroke-width:0.8;" x="69.12" xlink:href="#m04892691c0" y="198.632727"/>
      </g>
     </g>
     <g id="text_12">
      <!-- 10 -->
      <g transform="translate(43.0325 204.331555)scale(0.15 -0.15)">
       <use xlink:href="#DejaVuSans-31"/>
       <use x="63.623047" xlink:href="#DejaVuSans-30"/>
      </g>
     </g>
    </g>
    <g id="ytick_8">
     <g id="line2d_16">
      <g>
       <use style="stroke:#000000;stroke-width:0.8;" x="69.12" xlink:href="#m04892691c0" y="163.723636"/>
      </g>
     </g>
     <g id="text_13">
      <!-- 12 -->
      <g transform="translate(43.0325 169.422464)scale(0.15 -0.15)">
       <use xlink:href="#DejaVuSans-31"/>
       <use x="63.623047" xlink:href="#DejaVuSans-32"/>
      </g>
     </g>
    </g>
    <g id="ytick_9">
     <g id="line2d_17">
      <g>
       <use style="stroke:#000000;stroke-width:0.8;" x="69.12" xlink:href="#m04892691c0" y="128.814545"/>
      </g>
     </g>
     <g id="text_14">
      <!-- 14 -->
      <g transform="translate(43.0325 134.513374)scale(0.15 -0.15)">
       <use xlink:href="#DejaVuSans-31"/>
       <use x="63.623047" xlink:href="#DejaVuSans-34"/>
      </g>
     </g>
    </g>
    <g id="text_15">
     <!-- Counts -->
     <defs>
      <path d="M 64.40625 67.28125 
L 64.40625 56.890625 
Q 59.421875 61.53125 53.78125 63.8125 
Q 48.140625 66.109375 41.796875 66.109375 
Q 29.296875 66.109375 22.65625 58.46875 
Q 16.015625 50.828125 16.015625 36.375 
Q 16.015625 21.96875 22.65625 14.328125 
Q 29.296875 6.6875 41.796875 6.6875 
Q 48.140625 6.6875 53.78125 8.984375 
Q 59.421875 11.28125 64.40625 15.921875 
L 64.40625 5.609375 
Q 59.234375 2.09375 53.4375 0.328125 
Q 47.65625 -1.421875 41.21875 -1.421875 
Q 24.65625 -1.421875 15.125 8.703125 
Q 5.609375 18.84375 5.609375 36.375 
Q 5.609375 53.953125 15.125 64.078125 
Q 24.65625 74.21875 41.21875 74.21875 
Q 47.75 74.21875 53.53125 72.484375 
Q 59.328125 70.75 64.40625 67.28125 
z
" id="DejaVuSans-43"/>
     </defs>
     <g transform="translate(35.912969 233.539687)rotate(-90)scale(0.15 -0.15)">
      <use xlink:href="#DejaVuSans-43"/>
      <use x="69.824219" xlink:href="#DejaVuSans-6f"/>
      <use x="131.005859" xlink:href="#DejaVuSans-75"/>
      <use x="194.384766" xlink:href="#DejaVuSans-6e"/>
      <use x="257.763672" xlink:href="#DejaVuSans-74"/>
      <use x="296.972656" xlink:href="#DejaVuSans-73"/>
     </g>
    </g>
   </g>
   <g id="LineCollection_2">
    <path clip-path="url(#pd80c4ab273)" d="M 81.92 338.269091 
L 81.92 268.450909 
" style="fill:none;stroke:#0000ff;stroke-width:1.5;"/>
    <path clip-path="url(#pd80c4ab273)" d="M 128.465455 311.205639 
L 128.465455 225.696179 
" style="fill:none;stroke:#0000ff;stroke-width:1.5;"/>
    <path clip-path="url(#pd80c4ab273)" d="M 143.010909 338.269091 
L 143.010909 268.450909 
" style="fill:none;stroke:#0000ff;stroke-width:1.5;"/>
    <path clip-path="url(#pd80c4ab273)" d="M 151.738182 338.269091 
L 151.738182 268.450909 
" style="fill:none;stroke:#0000ff;stroke-width:1.5;"/>
    <path clip-path="url(#pd80c4ab273)" d="M 163.374545 338.269091 
L 163.374545 268.450909 
" style="fill:none;stroke:#0000ff;stroke-width:1.5;"/>
    <path clip-path="url(#pd80c4ab273)" d="M 166.283636 331.65941 
L 166.283636 257.606045 
" style="fill:none;stroke:#0000ff;stroke-width:1.5;"/>
    <path clip-path="url(#pd80c4ab273)" d="M 169.192727 324.935005 
L 169.192727 246.875904 
" style="fill:none;stroke:#0000ff;stroke-width:1.5;"/>
    <path clip-path="url(#pd80c4ab273)" d="M 172.101818 331.65941 
L 172.101818 257.606045 
" style="fill:none;stroke:#0000ff;stroke-width:1.5;"/>
    <path clip-path="url(#pd80c4ab273)" d="M 175.010909 304.22417 
L 175.010909 215.223102 
" style="fill:none;stroke:#0000ff;stroke-width:1.5;"/>
    <path clip-path="url(#pd80c4ab273)" d="M 177.92 318.112719 
L 177.92 236.243644 
" style="fill:none;stroke:#0000ff;stroke-width:1.5;"/>
    <path clip-path="url(#pd80c4ab273)" d="M 180.829091 324.935005 
L 180.829091 246.875904 
" style="fill:none;stroke:#0000ff;stroke-width:1.5;"/>
    <path clip-path="url(#pd80c4ab273)" d="M 183.738182 304.22417 
L 183.738182 215.223102 
" style="fill:none;stroke:#0000ff;stroke-width:1.5;"/>
    <path clip-path="url(#pd80c4ab273)" d="M 186.647273 311.205639 
L 186.647273 225.696179 
" style="fill:none;stroke:#0000ff;stroke-width:1.5;"/>
    <path clip-path="url(#pd80c4ab273)" d="M 189.556364 297.17675 
L 189.556364 204.815977 
" style="fill:none;stroke:#0000ff;stroke-width:1.5;"/>
    <path clip-path="url(#pd80c4ab273)" d="M 192.465455 282.910728 
L 192.465455 184.172908 
" style="fill:none;stroke:#0000ff;stroke-width:1.5;"/>
    <path clip-path="url(#pd80c4ab273)" d="M 195.374545 297.17675 
L 195.374545 204.815977 
" style="fill:none;stroke:#0000ff;stroke-width:1.5;"/>
    <path clip-path="url(#pd80c4ab273)" d="M 198.283636 338.269091 
L 198.283636 268.450909 
" style="fill:none;stroke:#0000ff;stroke-width:1.5;"/>
    <path clip-path="url(#pd80c4ab273)" d="M 201.192727 311.205639 
L 201.192727 225.696179 
" style="fill:none;stroke:#0000ff;stroke-width:1.5;"/>
    <path clip-path="url(#pd80c4ab273)" d="M 204.101818 338.269091 
L 204.101818 268.450909 
" style="fill:none;stroke:#0000ff;stroke-width:1.5;"/>
    <path clip-path="url(#pd80c4ab273)" d="M 207.010909 338.269091 
L 207.010909 268.450909 
" style="fill:none;stroke:#0000ff;stroke-width:1.5;"/>
    <path clip-path="url(#pd80c4ab273)" d="M 209.92 331.65941 
L 209.92 257.606045 
" style="fill:none;stroke:#0000ff;stroke-width:1.5;"/>
    <path clip-path="url(#pd80c4ab273)" d="M 212.829091 318.112719 
L 212.829091 236.243644 
" style="fill:none;stroke:#0000ff;stroke-width:1.5;"/>
    <path clip-path="url(#pd80c4ab273)" d="M 215.738182 304.22417 
L 215.738182 215.223102 
" style="fill:none;stroke:#0000ff;stroke-width:1.5;"/>
    <path clip-path="url(#pd80c4ab273)" d="M 218.647273 318.112719 
L 218.647273 236.243644 
" style="fill:none;stroke:#0000ff;stroke-width:1.5;"/>
    <path clip-path="url(#pd80c4ab273)" d="M 221.556364 282.910728 
L 221.556364 184.172908 
" style="fill:none;stroke:#0000ff;stroke-width:1.5;"/>
    <path clip-path="url(#pd80c4ab273)" d="M 224.465455 268.450909 
L 224.465455 163.723636 
" style="fill:none;stroke:#0000ff;stroke-width:1.5;"/>
    <path clip-path="url(#pd80c4ab273)" d="M 227.374545 231.642153 
L 227.374545 113.259666 
" style="fill:none;stroke:#0000ff;stroke-width:1.5;"/>
    <path clip-path="url(#pd80c4ab273)" d="M 230.283636 261.158522 
L 230.283636 153.561478 
" style="fill:none;stroke:#0000ff;stroke-width:1.5;"/>
    <path clip-path="url(#pd80c4ab273)" d="M 233.192727 261.158522 
L 233.192727 153.561478 
" style="fill:none;stroke:#0000ff;stroke-width:1.5;"/>
    <path clip-path="url(#pd80c4ab273)" d="M 236.101818 268.450909 
L 236.101818 163.723636 
" style="fill:none;stroke:#0000ff;stroke-width:1.5;"/>
    <path clip-path="url(#pd80c4ab273)" d="M 239.010909 275.702853 
L 239.010909 173.926238 
" style="fill:none;stroke:#0000ff;stroke-width:1.5;"/>
    <path clip-path="url(#pd80c4ab273)" d="M 241.92 261.158522 
L 241.92 153.561478 
" style="fill:none;stroke:#0000ff;stroke-width:1.5;"/>
    <path clip-path="url(#pd80c4ab273)" d="M 244.829091 282.910728 
L 244.829091 184.172908 
" style="fill:none;stroke:#0000ff;stroke-width:1.5;"/>
    <path clip-path="url(#pd80c4ab273)" d="M 247.738182 282.910728 
L 247.738182 184.172908 
" style="fill:none;stroke:#0000ff;stroke-width:1.5;"/>
    <path clip-path="url(#pd80c4ab273)" d="M 250.647273 311.205639 
L 250.647273 225.696179 
" style="fill:none;stroke:#0000ff;stroke-width:1.5;"/>
    <path clip-path="url(#pd80c4ab273)" d="M 253.556364 253.828846 
L 253.556364 143.436608 
" style="fill:none;stroke:#0000ff;stroke-width:1.5;"/>
    <path clip-path="url(#pd80c4ab273)" d="M 256.465455 201.673913 
L 256.465455 73.409723 
" style="fill:none;stroke:#0000ff;stroke-width:1.5;"/>
    <path clip-path="url(#pd80c4ab273)" d="M 259.374545 275.702853 
L 259.374545 173.926238 
" style="fill:none;stroke:#0000ff;stroke-width:1.5;"/>
    <path clip-path="url(#pd80c4ab273)" d="M 262.283636 275.702853 
L 262.283636 173.926238 
" style="fill:none;stroke:#0000ff;stroke-width:1.5;"/>
    <path clip-path="url(#pd80c4ab273)" d="M 265.192727 201.673913 
L 265.192727 73.409723 
" style="fill:none;stroke:#0000ff;stroke-width:1.5;"/>
    <path clip-path="url(#pd80c4ab273)" d="M 268.101818 201.673913 
L 268.101818 73.409723 
" style="fill:none;stroke:#0000ff;stroke-width:1.5;"/>
    <path clip-path="url(#pd80c4ab273)" d="M 271.010909 253.828846 
L 271.010909 143.436608 
" style="fill:none;stroke:#0000ff;stroke-width:1.5;"/>
    <path clip-path="url(#pd80c4ab273)" d="M 273.92 275.702853 
L 273.92 173.926238 
" style="fill:none;stroke:#0000ff;stroke-width:1.5;"/>
    <path clip-path="url(#pd80c4ab273)" d="M 276.829091 311.205639 
L 276.829091 225.696179 
" style="fill:none;stroke:#0000ff;stroke-width:1.5;"/>
    <path clip-path="url(#pd80c4ab273)" d="M 279.738182 224.187955 
L 279.738182 103.259317 
" style="fill:none;stroke:#0000ff;stroke-width:1.5;"/>
    <path clip-path="url(#pd80c4ab273)" d="M 282.647273 290.070332 
L 282.647273 194.46785 
" style="fill:none;stroke:#0000ff;stroke-width:1.5;"/>
    <path clip-path="url(#pd80c4ab273)" d="M 285.556364 268.450909 
L 285.556364 163.723636 
" style="fill:none;stroke:#0000ff;stroke-width:1.5;"/>
    <path clip-path="url(#pd80c4ab273)" d="M 288.465455 268.450909 
L 288.465455 163.723636 
" style="fill:none;stroke:#0000ff;stroke-width:1.5;"/>
    <path clip-path="url(#pd80c4ab273)" d="M 291.374545 246.464646 
L 291.374545 133.346263 
" style="fill:none;stroke:#0000ff;stroke-width:1.5;"/>
    <path clip-path="url(#pd80c4ab273)" d="M 294.283636 246.464646 
L 294.283636 133.346263 
" style="fill:none;stroke:#0000ff;stroke-width:1.5;"/>
    <path clip-path="url(#pd80c4ab273)" d="M 297.192727 186.552202 
L 297.192727 53.622344 
" style="fill:none;stroke:#0000ff;stroke-width:1.5;"/>
    <path clip-path="url(#pd80c4ab273)" d="M 300.101818 268.450909 
L 300.101818 163.723636 
" style="fill:none;stroke:#0000ff;stroke-width:1.5;"/>
    <path clip-path="url(#pd80c4ab273)" d="M 303.010909 194.123474 
L 303.010909 63.505617 
" style="fill:none;stroke:#0000ff;stroke-width:1.5;"/>
    <path clip-path="url(#pd80c4ab273)" d="M 305.92 261.158522 
L 305.92 153.561478 
" style="fill:none;stroke:#0000ff;stroke-width:1.5;"/>
    <path clip-path="url(#pd80c4ab273)" d="M 308.829091 246.464646 
L 308.829091 133.346263 
" style="fill:none;stroke:#0000ff;stroke-width:1.5;"/>
    <path clip-path="url(#pd80c4ab273)" d="M 311.738182 282.910728 
L 311.738182 184.172908 
" style="fill:none;stroke:#0000ff;stroke-width:1.5;"/>
    <path clip-path="url(#pd80c4ab273)" d="M 314.647273 186.552202 
L 314.647273 53.622344 
" style="fill:none;stroke:#0000ff;stroke-width:1.5;"/>
    <path clip-path="url(#pd80c4ab273)" d="M 317.556364 253.828846 
L 317.556364 143.436608 
" style="fill:none;stroke:#0000ff;stroke-width:1.5;"/>
    <path clip-path="url(#pd80c4ab273)" d="M 320.465455 275.702853 
L 320.465455 173.926238 
" style="fill:none;stroke:#0000ff;stroke-width:1.5;"/>
    <path clip-path="url(#pd80c4ab273)" d="M 323.374545 275.702853 
L 323.374545 173.926238 
" style="fill:none;stroke:#0000ff;stroke-width:1.5;"/>
    <path clip-path="url(#pd80c4ab273)" d="M 326.283636 178.961164 
L 326.283636 43.758836 
" style="fill:none;stroke:#0000ff;stroke-width:1.5;"/>
    <path clip-path="url(#pd80c4ab273)" d="M 329.192727 253.828846 
L 329.192727 143.436608 
" style="fill:none;stroke:#0000ff;stroke-width:1.5;"/>
    <path clip-path="url(#pd80c4ab273)" d="M 332.101818 304.22417 
L 332.101818 215.223102 
" style="fill:none;stroke:#0000ff;stroke-width:1.5;"/>
    <path clip-path="url(#pd80c4ab273)" d="M 335.010909 275.702853 
L 335.010909 173.926238 
" style="fill:none;stroke:#0000ff;stroke-width:1.5;"/>
    <path clip-path="url(#pd80c4ab273)" d="M 337.92 275.702853 
L 337.92 173.926238 
" style="fill:none;stroke:#0000ff;stroke-width:1.5;"/>
    <path clip-path="url(#pd80c4ab273)" d="M 340.829091 246.464646 
L 340.829091 133.346263 
" style="fill:none;stroke:#0000ff;stroke-width:1.5;"/>
    <path clip-path="url(#pd80c4ab273)" d="M 343.738182 290.070332 
L 343.738182 194.46785 
" style="fill:none;stroke:#0000ff;stroke-width:1.5;"/>
    <path clip-path="url(#pd80c4ab273)" d="M 346.647273 318.112719 
L 346.647273 236.243644 
" style="fill:none;stroke:#0000ff;stroke-width:1.5;"/>
    <path clip-path="url(#pd80c4ab273)" d="M 349.556364 224.187955 
L 349.556364 103.259317 
" style="fill:none;stroke:#0000ff;stroke-width:1.5;"/>
    <path clip-path="url(#pd80c4ab273)" d="M 352.465455 304.22417 
L 352.465455 215.223102 
" style="fill:none;stroke:#0000ff;stroke-width:1.5;"/>
    <path clip-path="url(#pd80c4ab273)" d="M 355.374545 290.070332 
L 355.374545 194.46785 
" style="fill:none;stroke:#0000ff;stroke-width:1.5;"/>
    <path clip-path="url(#pd80c4ab273)" d="M 358.283636 268.450909 
L 358.283636 163.723636 
" style="fill:none;stroke:#0000ff;stroke-width:1.5;"/>
    <path clip-path="url(#pd80c4ab273)" d="M 361.192727 261.158522 
L 361.192727 153.561478 
" style="fill:none;stroke:#0000ff;stroke-width:1.5;"/>
    <path clip-path="url(#pd80c4ab273)" d="M 364.101818 304.22417 
L 364.101818 215.223102 
" style="fill:none;stroke:#0000ff;stroke-width:1.5;"/>
    <path clip-path="url(#pd80c4ab273)" d="M 367.010909 331.65941 
L 367.010909 257.606045 
" style="fill:none;stroke:#0000ff;stroke-width:1.5;"/>
    <path clip-path="url(#pd80c4ab273)" d="M 369.92 275.702853 
L 369.92 173.926238 
" style="fill:none;stroke:#0000ff;stroke-width:1.5;"/>
    <path clip-path="url(#pd80c4ab273)" d="M 372.829091 331.65941 
L 372.829091 257.606045 
" style="fill:none;stroke:#0000ff;stroke-width:1.5;"/>
    <path clip-path="url(#pd80c4ab273)" d="M 375.738182 338.269091 
L 375.738182 268.450909 
" style="fill:none;stroke:#0000ff;stroke-width:1.5;"/>
    <path clip-path="url(#pd80c4ab273)" d="M 378.647273 324.935005 
L 378.647273 246.875904 
" style="fill:none;stroke:#0000ff;stroke-width:1.5;"/>
    <path clip-path="url(#pd80c4ab273)" d="M 381.556364 311.205639 
L 381.556364 225.696179 
" style="fill:none;stroke:#0000ff;stroke-width:1.5;"/>
    <path clip-path="url(#pd80c4ab273)" d="M 384.465455 324.935005 
L 384.465455 246.875904 
" style="fill:none;stroke:#0000ff;stroke-width:1.5;"/>
    <path clip-path="url(#pd80c4ab273)" d="M 390.283636 338.269091 
L 390.283636 268.450909 
" style="fill:none;stroke:#0000ff;stroke-width:1.5;"/>
    <path clip-path="url(#pd80c4ab273)" d="M 396.101818 318.112719 
L 396.101818 236.243644 
" style="fill:none;stroke:#0000ff;stroke-width:1.5;"/>
    <path clip-path="url(#pd80c4ab273)" d="M 399.010909 324.935005 
L 399.010909 246.875904 
" style="fill:none;stroke:#0000ff;stroke-width:1.5;"/>
    <path clip-path="url(#pd80c4ab273)" d="M 401.92 318.112719 
L 401.92 236.243644 
" style="fill:none;stroke:#0000ff;stroke-width:1.5;"/>
   </g>
   <g id="line2d_18">
    <path clip-path="url(#pd80c4ab273)" d="M 81.92 298.91731 
L 105.623704 298.73438 
L 119.077157 298.42501 
L 129.007087 297.988814 
L 137.015095 297.429076 
L 144.062142 296.718293 
L 150.148228 295.888554 
L 155.593674 294.934935 
L 160.718799 293.819191 
L 165.523604 292.549504 
L 170.008088 291.142292 
L 174.492573 289.495497 
L 178.656737 287.730825 
L 182.820901 285.720728 
L 186.985065 283.448767 
L 190.828909 281.10702 
L 194.672753 278.52168 
L 198.836917 275.439597 
L 203.001081 272.062642 
L 207.165245 268.393924 
L 211.64973 264.127651 
L 216.134214 259.554764 
L 221.259339 253.992979 
L 227.025105 247.383769 
L 234.712793 238.188463 
L 247.845926 222.425966 
L 253.291371 216.27949 
L 257.775856 211.558409 
L 261.6197 207.829117 
L 265.143223 204.716308 
L 268.346426 202.173772 
L 271.229309 200.142257 
L 274.112192 198.372191 
L 276.995075 196.879024 
L 279.557638 195.79493 
L 282.1202 194.947693 
L 284.682763 194.343313 
L 287.245325 193.986087 
L 289.807888 193.878565 
L 292.37045 194.021515 
L 294.933013 194.413916 
L 297.495576 195.052969 
L 300.058138 195.93413 
L 302.620701 197.051167 
L 305.183263 198.396228 
L 308.066146 200.170252 
L 310.949029 202.205483 
L 314.152232 204.751828 
L 317.675756 207.868402 
L 321.5196 211.601252 
L 325.683764 215.976801 
L 330.488569 221.363533 
L 336.574655 228.540441 
L 356.434515 252.238468 
L 361.87996 258.241216 
L 366.684765 263.215054 
L 371.169249 267.54614 
L 375.333413 271.278186 
L 379.497578 274.719981 
L 383.661742 277.867083 
L 387.825906 280.720803 
L 391.99007 283.287427 
L 396.154234 285.577397 
L 400.318398 287.604485 
L 401.92 288.317521 
L 401.92 288.317521 
" style="fill:none;stroke:#ff0000;stroke-linecap:square;stroke-width:1.5;"/>
   </g>
   <g id="line2d_19">
    <g clip-path="url(#pd80c4ab273)">
     <use style="fill:#0000ff;stroke:#0000ff;" x="81.92" xlink:href="#m444d09162f" y="303.36"/>
     <use style="fill:#0000ff;stroke:#0000ff;" x="128.465455" xlink:href="#m444d09162f" y="268.450909"/>
     <use style="fill:#0000ff;stroke:#0000ff;" x="143.010909" xlink:href="#m444d09162f" y="303.36"/>
     <use style="fill:#0000ff;stroke:#0000ff;" x="151.738182" xlink:href="#m444d09162f" y="303.36"/>
     <use style="fill:#0000ff;stroke:#0000ff;" x="163.374545" xlink:href="#m444d09162f" y="303.36"/>
     <use style="fill:#0000ff;stroke:#0000ff;" x="166.283636" xlink:href="#m444d09162f" y="294.632727"/>
     <use style="fill:#0000ff;stroke:#0000ff;" x="169.192727" xlink:href="#m444d09162f" y="285.905455"/>
     <use style="fill:#0000ff;stroke:#0000ff;" x="172.101818" xlink:href="#m444d09162f" y="294.632727"/>
     <use style="fill:#0000ff;stroke:#0000ff;" x="175.010909" xlink:href="#m444d09162f" y="259.723636"/>
     <use style="fill:#0000ff;stroke:#0000ff;" x="177.92" xlink:href="#m444d09162f" y="277.178182"/>
     <use style="fill:#0000ff;stroke:#0000ff;" x="180.829091" xlink:href="#m444d09162f" y="285.905455"/>
     <use style="fill:#0000ff;stroke:#0000ff;" x="183.738182" xlink:href="#m444d09162f" y="259.723636"/>
     <use style="fill:#0000ff;stroke:#0000ff;" x="186.647273" xlink:href="#m444d09162f" y="268.450909"/>
     <use style="fill:#0000ff;stroke:#0000ff;" x="189.556364" xlink:href="#m444d09162f" y="250.996364"/>
     <use style="fill:#0000ff;stroke:#0000ff;" x="192.465455" xlink:href="#m444d09162f" y="233.541818"/>
     <use style="fill:#0000ff;stroke:#0000ff;" x="195.374545" xlink:href="#m444d09162f" y="250.996364"/>
     <use style="fill:#0000ff;stroke:#0000ff;" x="198.283636" xlink:href="#m444d09162f" y="303.36"/>
     <use style="fill:#0000ff;stroke:#0000ff;" x="201.192727" xlink:href="#m444d09162f" y="268.450909"/>
     <use style="fill:#0000ff;stroke:#0000ff;" x="204.101818" xlink:href="#m444d09162f" y="303.36"/>
     <use style="fill:#0000ff;stroke:#0000ff;" x="207.010909" xlink:href="#m444d09162f" y="303.36"/>
     <use style="fill:#0000ff;stroke:#0000ff;" x="209.92" xlink:href="#m444d09162f" y="294.632727"/>
     <use style="fill:#0000ff;stroke:#0000ff;" x="212.829091" xlink:href="#m444d09162f" y="277.178182"/>
     <use style="fill:#0000ff;stroke:#0000ff;" x="215.738182" xlink:href="#m444d09162f" y="259.723636"/>
     <use style="fill:#0000ff;stroke:#0000ff;" x="218.647273" xlink:href="#m444d09162f" y="277.178182"/>
     <use style="fill:#0000ff;stroke:#0000ff;" x="221.556364" xlink:href="#m444d09162f" y="233.541818"/>
     <use style="fill:#0000ff;stroke:#0000ff;" x="224.465455" xlink:href="#m444d09162f" y="216.087273"/>
     <use style="fill:#0000ff;stroke:#0000ff;" x="227.374545" xlink:href="#m444d09162f" y="172.450909"/>
     <use style="fill:#0000ff;stroke:#0000ff;" x="230.283636" xlink:href="#m444d09162f" y="207.36"/>
     <use style="fill:#0000ff;stroke:#0000ff;" x="233.192727" xlink:href="#m444d09162f" y="207.36"/>
     <use style="fill:#0000ff;stroke:#0000ff;" x="236.101818" xlink:href="#m444d09162f" y="216.087273"/>
     <use style="fill:#0000ff;stroke:#0000ff;" x="239.010909" xlink:href="#m444d09162f" y="224.814545"/>
     <use style="fill:#0000ff;stroke:#0000ff;" x="241.92" xlink:href="#m444d09162f" y="207.36"/>
     <use style="fill:#0000ff;stroke:#0000ff;" x="244.829091" xlink:href="#m444d09162f" y="233.541818"/>
     <use style="fill:#0000ff;stroke:#0000ff;" x="247.738182" xlink:href="#m444d09162f" y="233.541818"/>
     <use style="fill:#0000ff;stroke:#0000ff;" x="250.647273" xlink:href="#m444d09162f" y="268.450909"/>
     <use style="fill:#0000ff;stroke:#0000ff;" x="253.556364" xlink:href="#m444d09162f" y="198.632727"/>
     <use style="fill:#0000ff;stroke:#0000ff;" x="256.465455" xlink:href="#m444d09162f" y="137.541818"/>
     <use style="fill:#0000ff;stroke:#0000ff;" x="259.374545" xlink:href="#m444d09162f" y="224.814545"/>
     <use style="fill:#0000ff;stroke:#0000ff;" x="262.283636" xlink:href="#m444d09162f" y="224.814545"/>
     <use style="fill:#0000ff;stroke:#0000ff;" x="265.192727" xlink:href="#m444d09162f" y="137.541818"/>
     <use style="fill:#0000ff;stroke:#0000ff;" x="268.101818" xlink:href="#m444d09162f" y="137.541818"/>
     <use style="fill:#0000ff;stroke:#0000ff;" x="271.010909" xlink:href="#m444d09162f" y="198.632727"/>
     <use style="fill:#0000ff;stroke:#0000ff;" x="273.92" xlink:href="#m444d09162f" y="224.814545"/>
     <use style="fill:#0000ff;stroke:#0000ff;" x="276.829091" xlink:href="#m444d09162f" y="268.450909"/>
     <use style="fill:#0000ff;stroke:#0000ff;" x="279.738182" xlink:href="#m444d09162f" y="163.723636"/>
     <use style="fill:#0000ff;stroke:#0000ff;" x="282.647273" xlink:href="#m444d09162f" y="242.269091"/>
     <use style="fill:#0000ff;stroke:#0000ff;" x="285.556364" xlink:href="#m444d09162f" y="216.087273"/>
     <use style="fill:#0000ff;stroke:#0000ff;" x="288.465455" xlink:href="#m444d09162f" y="216.087273"/>
     <use style="fill:#0000ff;stroke:#0000ff;" x="291.374545" xlink:href="#m444d09162f" y="189.905455"/>
     <use style="fill:#0000ff;stroke:#0000ff;" x="294.283636" xlink:href="#m444d09162f" y="189.905455"/>
     <use style="fill:#0000ff;stroke:#0000ff;" x="297.192727" xlink:href="#m444d09162f" y="120.087273"/>
     <use style="fill:#0000ff;stroke:#0000ff;" x="300.101818" xlink:href="#m444d09162f" y="216.087273"/>
     <use style="fill:#0000ff;stroke:#0000ff;" x="303.010909" xlink:href="#m444d09162f" y="128.814545"/>
     <use style="fill:#0000ff;stroke:#0000ff;" x="305.92" xlink:href="#m444d09162f" y="207.36"/>
     <use style="fill:#0000ff;stroke:#0000ff;" x="308.829091" xlink:href="#m444d09162f" y="189.905455"/>
     <use style="fill:#0000ff;stroke:#0000ff;" x="311.738182" xlink:href="#m444d09162f" y="233.541818"/>
     <use style="fill:#0000ff;stroke:#0000ff;" x="314.647273" xlink:href="#m444d09162f" y="120.087273"/>
     <use style="fill:#0000ff;stroke:#0000ff;" x="317.556364" xlink:href="#m444d09162f" y="198.632727"/>
     <use style="fill:#0000ff;stroke:#0000ff;" x="320.465455" xlink:href="#m444d09162f" y="224.814545"/>
     <use style="fill:#0000ff;stroke:#0000ff;" x="323.374545" xlink:href="#m444d09162f" y="224.814545"/>
     <use style="fill:#0000ff;stroke:#0000ff;" x="326.283636" xlink:href="#m444d09162f" y="111.36"/>
     <use style="fill:#0000ff;stroke:#0000ff;" x="329.192727" xlink:href="#m444d09162f" y="198.632727"/>
     <use style="fill:#0000ff;stroke:#0000ff;" x="332.101818" xlink:href="#m444d09162f" y="259.723636"/>
     <use style="fill:#0000ff;stroke:#0000ff;" x="335.010909" xlink:href="#m444d09162f" y="224.814545"/>
     <use style="fill:#0000ff;stroke:#0000ff;" x="337.92" xlink:href="#m444d09162f" y="224.814545"/>
     <use style="fill:#0000ff;stroke:#0000ff;" x="340.829091" xlink:href="#m444d09162f" y="189.905455"/>
     <use style="fill:#0000ff;stroke:#0000ff;" x="343.738182" xlink:href="#m444d09162f" y="242.269091"/>
     <use style="fill:#0000ff;stroke:#0000ff;" x="346.647273" xlink:href="#m444d09162f" y="277.178182"/>
     <use style="fill:#0000ff;stroke:#0000ff;" x="349.556364" xlink:href="#m444d09162f" y="163.723636"/>
     <use style="fill:#0000ff;stroke:#0000ff;" x="352.465455" xlink:href="#m444d09162f" y="259.723636"/>
     <use style="fill:#0000ff;stroke:#0000ff;" x="355.374545" xlink:href="#m444d09162f" y="242.269091"/>
     <use style="fill:#0000ff;stroke:#0000ff;" x="358.283636" xlink:href="#m444d09162f" y="216.087273"/>
     <use style="fill:#0000ff;stroke:#0000ff;" x="361.192727" xlink:href="#m444d09162f" y="207.36"/>
     <use style="fill:#0000ff;stroke:#0000ff;" x="364.101818" xlink:href="#m444d09162f" y="259.723636"/>
     <use style="fill:#0000ff;stroke:#0000ff;" x="367.010909" xlink:href="#m444d09162f" y="294.632727"/>
     <use style="fill:#0000ff;stroke:#0000ff;" x="369.92" xlink:href="#m444d09162f" y="224.814545"/>
     <use style="fill:#0000ff;stroke:#0000ff;" x="372.829091" xlink:href="#m444d09162f" y="294.632727"/>
     <use style="fill:#0000ff;stroke:#0000ff;" x="375.738182" xlink:href="#m444d09162f" y="303.36"/>
     <use style="fill:#0000ff;stroke:#0000ff;" x="378.647273" xlink:href="#m444d09162f" y="285.905455"/>
     <use style="fill:#0000ff;stroke:#0000ff;" x="381.556364" xlink:href="#m444d09162f" y="268.450909"/>
     <use style="fill:#0000ff;stroke:#0000ff;" x="384.465455" xlink:href="#m444d09162f" y="285.905455"/>
     <use style="fill:#0000ff;stroke:#0000ff;" x="390.283636" xlink:href="#m444d09162f" y="303.36"/>
     <use style="fill:#0000ff;stroke:#0000ff;" x="396.101818" xlink:href="#m444d09162f" y="277.178182"/>
     <use style="fill:#0000ff;stroke:#0000ff;" x="399.010909" xlink:href="#m444d09162f" y="285.905455"/>
     <use style="fill:#0000ff;stroke:#0000ff;" x="401.92" xlink:href="#m444d09162f" y="277.178182"/>
    </g>
   </g>
   <g id="patch_8">
    <path d="M 69.12 311.04 
L 69.12 103.68 
" style="fill:none;stroke:#000000;stroke-linecap:square;stroke-linejoin:miter;stroke-width:0.8;"/>
   </g>
   <g id="patch_9">
    <path d="M 414.72 311.04 
L 414.72 103.68 
" style="fill:none;stroke:#000000;stroke-linecap:square;stroke-linejoin:miter;stroke-width:0.8;"/>
   </g>
   <g id="patch_10">
    <path d="M 69.12 311.04 
L 414.72 311.04 
" style="fill:none;stroke:#000000;stroke-linecap:square;stroke-linejoin:miter;stroke-width:0.8;"/>
   </g>
   <g id="patch_11">
    <path d="M 69.12 103.68 
L 414.72 103.68 
" style="fill:none;stroke:#000000;stroke-linecap:square;stroke-linejoin:miter;stroke-width:0.8;"/>
   </g>
  </g>
 </g>
 <defs>
  <clipPath id="p9949822ca6">
   <rect height="51.84" width="345.6" x="69.12" y="44.928"/>
  </clipPath>
  <clipPath id="pd80c4ab273">
   <rect height="207.36" width="345.6" x="69.12" y="103.68"/>
  </clipPath>
 </defs>
</svg>
