<?xml version="1.0" encoding="utf-8" standalone="no"?>
<!DOCTYPE svg PUBLIC "-//W3C//DTD SVG 1.1//EN"
  "http://www.w3.org/Graphics/SVG/1.1/DTD/svg11.dtd">
<!-- Created with matplotlib (http://matplotlib.org/) -->
<svg height="345pt" version="1.1" viewBox="0 0 460 345" width="460pt" xmlns="http://www.w3.org/2000/svg" xmlns:xlink="http://www.w3.org/1999/xlink">
 <defs>
  <style type="text/css">
*{stroke-linecap:butt;stroke-linejoin:round;}
  </style>
 </defs>
 <g id="figure_1">
  <g id="patch_1">
   <path d="M 0 345.6 
L 460.8 345.6 
L 460.8 0 
L 0 0 
z
" style="fill:#ffffff;"/>
  </g>
  <g id="axes_1">
   <g id="patch_2">
    <path d="M 69.12 96.768 
L 414.72 96.768 
L 414.72 44.928 
L 69.12 44.928 
z
" style="fill:#ffffff;"/>
   </g>
   <g id="matplotlib.axis_1">
    <g id="xtick_1">
     <g id="line2d_1">
      <defs>
       <path d="M 0 0 
L 0 3.5 
" id="m41e33e6e60" style="stroke:#000000;stroke-width:0.8;"/>
      </defs>
      <g>
       <use style="stroke:#000000;stroke-width:0.8;" x="92.155826" xlink:href="#m41e33e6e60" y="96.768"/>
      </g>
     </g>
    </g>
    <g id="xtick_2">
     <g id="line2d_2">
      <g>
       <use style="stroke:#000000;stroke-width:0.8;" x="143.386742" xlink:href="#m41e33e6e60" y="96.768"/>
      </g>
     </g>
    </g>
    <g id="xtick_3">
     <g id="line2d_3">
      <g>
       <use style="stroke:#000000;stroke-width:0.8;" x="194.617658" xlink:href="#m41e33e6e60" y="96.768"/>
      </g>
     </g>
    </g>
    <g id="xtick_4">
     <g id="line2d_4">
      <g>
       <use style="stroke:#000000;stroke-width:0.8;" x="245.848574" xlink:href="#m41e33e6e60" y="96.768"/>
      </g>
     </g>
    </g>
    <g id="xtick_5">
     <g id="line2d_5">
      <g>
       <use style="stroke:#000000;stroke-width:0.8;" x="297.07949" xlink:href="#m41e33e6e60" y="96.768"/>
      </g>
     </g>
    </g>
    <g id="xtick_6">
     <g id="line2d_6">
      <g>
       <use style="stroke:#000000;stroke-width:0.8;" x="348.310406" xlink:href="#m41e33e6e60" y="96.768"/>
      </g>
     </g>
    </g>
    <g id="xtick_7">
     <g id="line2d_7">
      <g>
       <use style="stroke:#000000;stroke-width:0.8;" x="399.541322" xlink:href="#m41e33e6e60" y="96.768"/>
      </g>
     </g>
    </g>
   </g>
   <g id="matplotlib.axis_2">
    <g id="ytick_1">
     <g id="line2d_8">
      <defs>
       <path d="M 0 0 
L -3.5 0 
" id="m9bd80093d9" style="stroke:#000000;stroke-width:0.8;"/>
      </defs>
      <g>
       <use style="stroke:#000000;stroke-width:0.8;" x="69.12" xlink:href="#m9bd80093d9" y="88.450617"/>
      </g>
     </g>
     <g id="text_1">
      <!-- −1 -->
      <defs>
       <path d="M 10.59375 35.5 
L 73.1875 35.5 
L 73.1875 27.203125 
L 10.59375 27.203125 
z
" id="DejaVuSans-2212"/>
       <path d="M 12.40625 8.296875 
L 28.515625 8.296875 
L 28.515625 63.921875 
L 10.984375 60.40625 
L 10.984375 69.390625 
L 28.421875 72.90625 
L 38.28125 72.90625 
L 38.28125 8.296875 
L 54.390625 8.296875 
L 54.390625 0 
L 12.40625 0 
z
" id="DejaVuSans-31"/>
      </defs>
      <g transform="translate(40.006719 94.149445)scale(0.15 -0.15)">
       <use xlink:href="#DejaVuSans-2212"/>
       <use x="83.789062" xlink:href="#DejaVuSans-31"/>
      </g>
     </g>
    </g>
    <g id="ytick_2">
     <g id="line2d_9">
      <g>
       <use style="stroke:#000000;stroke-width:0.8;" x="69.12" xlink:href="#m9bd80093d9" y="71.05982"/>
      </g>
     </g>
    </g>
    <g id="ytick_3">
     <g id="line2d_10">
      <g>
       <use style="stroke:#000000;stroke-width:0.8;" x="69.12" xlink:href="#m9bd80093d9" y="53.669024"/>
      </g>
     </g>
     <g id="text_2">
      <!-- 1 -->
      <g transform="translate(52.57625 59.367852)scale(0.15 -0.15)">
       <use xlink:href="#DejaVuSans-31"/>
      </g>
     </g>
    </g>
    <g id="text_3">
     <!-- Studentized -->
     <defs>
      <path d="M 53.515625 70.515625 
L 53.515625 60.890625 
Q 47.90625 63.578125 42.921875 64.890625 
Q 37.9375 66.21875 33.296875 66.21875 
Q 25.25 66.21875 20.875 63.09375 
Q 16.5 59.96875 16.5 54.203125 
Q 16.5 49.359375 19.40625 46.890625 
Q 22.3125 44.4375 30.421875 42.921875 
L 36.375 41.703125 
Q 47.40625 39.59375 52.65625 34.296875 
Q 57.90625 29 57.90625 20.125 
Q 57.90625 9.515625 50.796875 4.046875 
Q 43.703125 -1.421875 29.984375 -1.421875 
Q 24.8125 -1.421875 18.96875 -0.25 
Q 13.140625 0.921875 6.890625 3.21875 
L 6.890625 13.375 
Q 12.890625 10.015625 18.65625 8.296875 
Q 24.421875 6.59375 29.984375 6.59375 
Q 38.421875 6.59375 43.015625 9.90625 
Q 47.609375 13.234375 47.609375 19.390625 
Q 47.609375 24.75 44.3125 27.78125 
Q 41.015625 30.8125 33.5 32.328125 
L 27.484375 33.5 
Q 16.453125 35.6875 11.515625 40.375 
Q 6.59375 45.0625 6.59375 53.421875 
Q 6.59375 63.09375 13.40625 68.65625 
Q 20.21875 74.21875 32.171875 74.21875 
Q 37.3125 74.21875 42.625 73.28125 
Q 47.953125 72.359375 53.515625 70.515625 
z
" id="DejaVuSans-53"/>
      <path d="M 18.3125 70.21875 
L 18.3125 54.6875 
L 36.8125 54.6875 
L 36.8125 47.703125 
L 18.3125 47.703125 
L 18.3125 18.015625 
Q 18.3125 11.328125 20.140625 9.421875 
Q 21.96875 7.515625 27.59375 7.515625 
L 36.8125 7.515625 
L 36.8125 0 
L 27.59375 0 
Q 17.1875 0 13.234375 3.875 
Q 9.28125 7.765625 9.28125 18.015625 
L 9.28125 47.703125 
L 2.6875 47.703125 
L 2.6875 54.6875 
L 9.28125 54.6875 
L 9.28125 70.21875 
z
" id="DejaVuSans-74"/>
      <path d="M 8.5 21.578125 
L 8.5 54.6875 
L 17.484375 54.6875 
L 17.484375 21.921875 
Q 17.484375 14.15625 20.5 10.265625 
Q 23.53125 6.390625 29.59375 6.390625 
Q 36.859375 6.390625 41.078125 11.03125 
Q 45.3125 15.671875 45.3125 23.6875 
L 45.3125 54.6875 
L 54.296875 54.6875 
L 54.296875 0 
L 45.3125 0 
L 45.3125 8.40625 
Q 42.046875 3.421875 37.71875 1 
Q 33.40625 -1.421875 27.6875 -1.421875 
Q 18.265625 -1.421875 13.375 4.4375 
Q 8.5 10.296875 8.5 21.578125 
z
M 31.109375 56 
z
" id="DejaVuSans-75"/>
      <path d="M 45.40625 46.390625 
L 45.40625 75.984375 
L 54.390625 75.984375 
L 54.390625 0 
L 45.40625 0 
L 45.40625 8.203125 
Q 42.578125 3.328125 38.25 0.953125 
Q 33.9375 -1.421875 27.875 -1.421875 
Q 17.96875 -1.421875 11.734375 6.484375 
Q 5.515625 14.40625 5.515625 27.296875 
Q 5.515625 40.1875 11.734375 48.09375 
Q 17.96875 56 27.875 56 
Q 33.9375 56 38.25 53.625 
Q 42.578125 51.265625 45.40625 46.390625 
z
M 14.796875 27.296875 
Q 14.796875 17.390625 18.875 11.75 
Q 22.953125 6.109375 30.078125 6.109375 
Q 37.203125 6.109375 41.296875 11.75 
Q 45.40625 17.390625 45.40625 27.296875 
Q 45.40625 37.203125 41.296875 42.84375 
Q 37.203125 48.484375 30.078125 48.484375 
Q 22.953125 48.484375 18.875 42.84375 
Q 14.796875 37.203125 14.796875 27.296875 
z
" id="DejaVuSans-64"/>
      <path d="M 56.203125 29.59375 
L 56.203125 25.203125 
L 14.890625 25.203125 
Q 15.484375 15.921875 20.484375 11.0625 
Q 25.484375 6.203125 34.421875 6.203125 
Q 39.59375 6.203125 44.453125 7.46875 
Q 49.3125 8.734375 54.109375 11.28125 
L 54.109375 2.78125 
Q 49.265625 0.734375 44.1875 -0.34375 
Q 39.109375 -1.421875 33.890625 -1.421875 
Q 20.796875 -1.421875 13.15625 6.1875 
Q 5.515625 13.8125 5.515625 26.8125 
Q 5.515625 40.234375 12.765625 48.109375 
Q 20.015625 56 32.328125 56 
Q 43.359375 56 49.78125 48.890625 
Q 56.203125 41.796875 56.203125 29.59375 
z
M 47.21875 32.234375 
Q 47.125 39.59375 43.09375 43.984375 
Q 39.0625 48.390625 32.421875 48.390625 
Q 24.90625 48.390625 20.390625 44.140625 
Q 15.875 39.890625 15.1875 32.171875 
z
" id="DejaVuSans-65"/>
      <path d="M 54.890625 33.015625 
L 54.890625 0 
L 45.90625 0 
L 45.90625 32.71875 
Q 45.90625 40.484375 42.875 44.328125 
Q 39.84375 48.1875 33.796875 48.1875 
Q 26.515625 48.1875 22.3125 43.546875 
Q 18.109375 38.921875 18.109375 30.90625 
L 18.109375 0 
L 9.078125 0 
L 9.078125 54.6875 
L 18.109375 54.6875 
L 18.109375 46.1875 
Q 21.34375 51.125 25.703125 53.5625 
Q 30.078125 56 35.796875 56 
Q 45.21875 56 50.046875 50.171875 
Q 54.890625 44.34375 54.890625 33.015625 
z
" id="DejaVuSans-6e"/>
      <path d="M 9.421875 54.6875 
L 18.40625 54.6875 
L 18.40625 0 
L 9.421875 0 
z
M 9.421875 75.984375 
L 18.40625 75.984375 
L 18.40625 64.59375 
L 9.421875 64.59375 
z
" id="DejaVuSans-69"/>
      <path d="M 5.515625 54.6875 
L 48.1875 54.6875 
L 48.1875 46.484375 
L 14.40625 7.171875 
L 48.1875 7.171875 
L 48.1875 0 
L 4.296875 0 
L 4.296875 8.203125 
L 38.09375 47.515625 
L 5.515625 47.515625 
z
" id="DejaVuSans-7a"/>
     </defs>
     <g transform="translate(16.090469 115.768313)rotate(-90)scale(0.15 -0.15)">
      <use xlink:href="#DejaVuSans-53"/>
      <use x="63.476562" xlink:href="#DejaVuSans-74"/>
      <use x="102.685547" xlink:href="#DejaVuSans-75"/>
      <use x="166.064453" xlink:href="#DejaVuSans-64"/>
      <use x="229.541016" xlink:href="#DejaVuSans-65"/>
      <use x="291.064453" xlink:href="#DejaVuSans-6e"/>
      <use x="354.443359" xlink:href="#DejaVuSans-74"/>
      <use x="393.652344" xlink:href="#DejaVuSans-69"/>
      <use x="421.435547" xlink:href="#DejaVuSans-7a"/>
      <use x="473.925781" xlink:href="#DejaVuSans-65"/>
      <use x="535.449219" xlink:href="#DejaVuSans-64"/>
     </g>
     <!-- Residuals -->
     <defs>
      <path d="M 44.390625 34.1875 
Q 47.5625 33.109375 50.5625 29.59375 
Q 53.5625 26.078125 56.59375 19.921875 
L 66.609375 0 
L 56 0 
L 46.6875 18.703125 
Q 43.0625 26.03125 39.671875 28.421875 
Q 36.28125 30.8125 30.421875 30.8125 
L 19.671875 30.8125 
L 19.671875 0 
L 9.8125 0 
L 9.8125 72.90625 
L 32.078125 72.90625 
Q 44.578125 72.90625 50.734375 67.671875 
Q 56.890625 62.453125 56.890625 51.90625 
Q 56.890625 45.015625 53.6875 40.46875 
Q 50.484375 35.9375 44.390625 34.1875 
z
M 19.671875 64.796875 
L 19.671875 38.921875 
L 32.078125 38.921875 
Q 39.203125 38.921875 42.84375 42.21875 
Q 46.484375 45.515625 46.484375 51.90625 
Q 46.484375 58.296875 42.84375 61.546875 
Q 39.203125 64.796875 32.078125 64.796875 
z
" id="DejaVuSans-52"/>
      <path d="M 44.28125 53.078125 
L 44.28125 44.578125 
Q 40.484375 46.53125 36.375 47.5 
Q 32.28125 48.484375 27.875 48.484375 
Q 21.1875 48.484375 17.84375 46.4375 
Q 14.5 44.390625 14.5 40.28125 
Q 14.5 37.15625 16.890625 35.375 
Q 19.28125 33.59375 26.515625 31.984375 
L 29.59375 31.296875 
Q 39.15625 29.25 43.1875 25.515625 
Q 47.21875 21.78125 47.21875 15.09375 
Q 47.21875 7.46875 41.1875 3.015625 
Q 35.15625 -1.421875 24.609375 -1.421875 
Q 20.21875 -1.421875 15.453125 -0.5625 
Q 10.6875 0.296875 5.421875 2 
L 5.421875 11.28125 
Q 10.40625 8.6875 15.234375 7.390625 
Q 20.0625 6.109375 24.8125 6.109375 
Q 31.15625 6.109375 34.5625 8.28125 
Q 37.984375 10.453125 37.984375 14.40625 
Q 37.984375 18.0625 35.515625 20.015625 
Q 33.0625 21.96875 24.703125 23.78125 
L 21.578125 24.515625 
Q 13.234375 26.265625 9.515625 29.90625 
Q 5.8125 33.546875 5.8125 39.890625 
Q 5.8125 47.609375 11.28125 51.796875 
Q 16.75 56 26.8125 56 
Q 31.78125 56 36.171875 55.265625 
Q 40.578125 54.546875 44.28125 53.078125 
z
" id="DejaVuSans-73"/>
      <path d="M 34.28125 27.484375 
Q 23.390625 27.484375 19.1875 25 
Q 14.984375 22.515625 14.984375 16.5 
Q 14.984375 11.71875 18.140625 8.90625 
Q 21.296875 6.109375 26.703125 6.109375 
Q 34.1875 6.109375 38.703125 11.40625 
Q 43.21875 16.703125 43.21875 25.484375 
L 43.21875 27.484375 
z
M 52.203125 31.203125 
L 52.203125 0 
L 43.21875 0 
L 43.21875 8.296875 
Q 40.140625 3.328125 35.546875 0.953125 
Q 30.953125 -1.421875 24.3125 -1.421875 
Q 15.921875 -1.421875 10.953125 3.296875 
Q 6 8.015625 6 15.921875 
Q 6 25.140625 12.171875 29.828125 
Q 18.359375 34.515625 30.609375 34.515625 
L 43.21875 34.515625 
L 43.21875 35.40625 
Q 43.21875 41.609375 39.140625 45 
Q 35.0625 48.390625 27.6875 48.390625 
Q 23 48.390625 18.546875 47.265625 
Q 14.109375 46.140625 10.015625 43.890625 
L 10.015625 52.203125 
Q 14.9375 54.109375 19.578125 55.046875 
Q 24.21875 56 28.609375 56 
Q 40.484375 56 46.34375 49.84375 
Q 52.203125 43.703125 52.203125 31.203125 
z
" id="DejaVuSans-61"/>
      <path d="M 9.421875 75.984375 
L 18.40625 75.984375 
L 18.40625 0 
L 9.421875 0 
z
" id="DejaVuSans-6c"/>
     </defs>
     <g transform="translate(32.887188 106.761281)rotate(-90)scale(0.15 -0.15)">
      <use xlink:href="#DejaVuSans-52"/>
      <use x="69.419922" xlink:href="#DejaVuSans-65"/>
      <use x="130.943359" xlink:href="#DejaVuSans-73"/>
      <use x="183.042969" xlink:href="#DejaVuSans-69"/>
      <use x="210.826172" xlink:href="#DejaVuSans-64"/>
      <use x="274.302734" xlink:href="#DejaVuSans-75"/>
      <use x="337.681641" xlink:href="#DejaVuSans-61"/>
      <use x="398.960938" xlink:href="#DejaVuSans-6c"/>
      <use x="426.744141" xlink:href="#DejaVuSans-73"/>
     </g>
    </g>
   </g>
   <g id="LineCollection_1">
    <path clip-path="url(#p316325af9b)" d="M 81.92 80.12279 
L 81.92 45.341197 
" style="fill:none;stroke:#0000ff;stroke-width:1.5;"/>
    <path clip-path="url(#p316325af9b)" d="M 115.44381 84.665495 
L 115.44381 49.883902 
" style="fill:none;stroke:#0000ff;stroke-width:1.5;"/>
    <path clip-path="url(#p316325af9b)" d="M 121.539048 89.142654 
L 121.539048 54.36106 
" style="fill:none;stroke:#0000ff;stroke-width:1.5;"/>
    <path clip-path="url(#p316325af9b)" d="M 127.634286 85.427398 
L 127.634286 50.645805 
" style="fill:none;stroke:#0000ff;stroke-width:1.5;"/>
    <path clip-path="url(#p316325af9b)" d="M 164.205714 86.648887 
L 164.205714 51.867294 
" style="fill:none;stroke:#0000ff;stroke-width:1.5;"/>
    <path clip-path="url(#p316325af9b)" d="M 167.253333 83.665109 
L 167.253333 48.883515 
" style="fill:none;stroke:#0000ff;stroke-width:1.5;"/>
    <path clip-path="url(#p316325af9b)" d="M 173.348571 97.541934 
L 173.348571 62.760341 
" style="fill:none;stroke:#0000ff;stroke-width:1.5;"/>
    <path clip-path="url(#p316325af9b)" d="M 179.44381 83.205791 
L 179.44381 48.424198 
" style="fill:none;stroke:#0000ff;stroke-width:1.5;"/>
    <path clip-path="url(#p316325af9b)" d="M 188.586667 97.726241 
L 188.586667 62.944648 
" style="fill:none;stroke:#0000ff;stroke-width:1.5;"/>
    <path clip-path="url(#p316325af9b)" d="M 191.634286 86.795195 
L 191.634286 52.013601 
" style="fill:none;stroke:#0000ff;stroke-width:1.5;"/>
    <path clip-path="url(#p316325af9b)" d="M 197.729524 92.561422 
L 197.729524 57.779828 
" style="fill:none;stroke:#0000ff;stroke-width:1.5;"/>
    <path clip-path="url(#p316325af9b)" d="M 200.777143 97.828898 
L 200.777143 63.047304 
" style="fill:none;stroke:#0000ff;stroke-width:1.5;"/>
    <path clip-path="url(#p316325af9b)" d="M 203.824762 78.378836 
L 203.824762 43.597243 
" style="fill:none;stroke:#0000ff;stroke-width:1.5;"/>
    <path clip-path="url(#p316325af9b)" d="M 206.872381 100.289077 
L 206.872381 65.507484 
" style="fill:none;stroke:#0000ff;stroke-width:1.5;"/>
    <path clip-path="url(#p316325af9b)" d="M 209.92 89.719238 
L 209.92 54.937645 
" style="fill:none;stroke:#0000ff;stroke-width:1.5;"/>
    <path clip-path="url(#p316325af9b)" d="M 212.967619 78.624999 
L 212.967619 43.843406 
" style="fill:none;stroke:#0000ff;stroke-width:1.5;"/>
    <path clip-path="url(#p316325af9b)" d="M 216.015238 88.594653 
L 216.015238 53.81306 
" style="fill:none;stroke:#0000ff;stroke-width:1.5;"/>
    <path clip-path="url(#p316325af9b)" d="M 219.062857 80.652217 
L 219.062857 45.870623 
" style="fill:none;stroke:#0000ff;stroke-width:1.5;"/>
    <path clip-path="url(#p316325af9b)" d="M 222.110476 81.675523 
L 222.110476 46.893929 
" style="fill:none;stroke:#0000ff;stroke-width:1.5;"/>
    <path clip-path="url(#p316325af9b)" d="M 225.158095 66.038771 
L 225.158095 31.257178 
" style="fill:none;stroke:#0000ff;stroke-width:1.5;"/>
    <path clip-path="url(#p316325af9b)" d="M 228.205714 86.645673 
L 228.205714 51.864079 
" style="fill:none;stroke:#0000ff;stroke-width:1.5;"/>
    <path clip-path="url(#p316325af9b)" d="M 231.253333 94.20462 
L 231.253333 59.423026 
" style="fill:none;stroke:#0000ff;stroke-width:1.5;"/>
    <path clip-path="url(#p316325af9b)" d="M 234.300952 91.890175 
L 234.300952 57.108582 
" style="fill:none;stroke:#0000ff;stroke-width:1.5;"/>
    <path clip-path="url(#p316325af9b)" d="M 237.348571 89.706604 
L 237.348571 54.92501 
" style="fill:none;stroke:#0000ff;stroke-width:1.5;"/>
    <path clip-path="url(#p316325af9b)" d="M 240.39619 70.188386 
L 240.39619 35.406793 
" style="fill:none;stroke:#0000ff;stroke-width:1.5;"/>
    <path clip-path="url(#p316325af9b)" d="M 243.44381 75.419491 
L 243.44381 40.637898 
" style="fill:none;stroke:#0000ff;stroke-width:1.5;"/>
    <path clip-path="url(#p316325af9b)" d="M 246.491429 71.686949 
L 246.491429 36.905355 
" style="fill:none;stroke:#0000ff;stroke-width:1.5;"/>
    <path clip-path="url(#p316325af9b)" d="M 249.539048 104.135287 
L 249.539048 69.353694 
" style="fill:none;stroke:#0000ff;stroke-width:1.5;"/>
    <path clip-path="url(#p316325af9b)" d="M 252.586667 80.022549 
L 252.586667 45.240955 
" style="fill:none;stroke:#0000ff;stroke-width:1.5;"/>
    <path clip-path="url(#p316325af9b)" d="M 255.634286 85.915268 
L 255.634286 51.133675 
" style="fill:none;stroke:#0000ff;stroke-width:1.5;"/>
    <path clip-path="url(#p316325af9b)" d="M 258.681905 74.201297 
L 258.681905 39.419703 
" style="fill:none;stroke:#0000ff;stroke-width:1.5;"/>
    <path clip-path="url(#p316325af9b)" d="M 261.729524 107.289882 
L 261.729524 72.508288 
" style="fill:none;stroke:#0000ff;stroke-width:1.5;"/>
    <path clip-path="url(#p316325af9b)" d="M 264.777143 112.238797 
L 264.777143 77.457203 
" style="fill:none;stroke:#0000ff;stroke-width:1.5;"/>
    <path clip-path="url(#p316325af9b)" d="M 267.824762 104.404417 
L 267.824762 69.622823 
" style="fill:none;stroke:#0000ff;stroke-width:1.5;"/>
    <path clip-path="url(#p316325af9b)" d="M 270.872381 78.14808 
L 270.872381 43.366486 
" style="fill:none;stroke:#0000ff;stroke-width:1.5;"/>
    <path clip-path="url(#p316325af9b)" d="M 273.92 88.686377 
L 273.92 53.904784 
" style="fill:none;stroke:#0000ff;stroke-width:1.5;"/>
    <path clip-path="url(#p316325af9b)" d="M 276.967619 94.88702 
L 276.967619 60.105427 
" style="fill:none;stroke:#0000ff;stroke-width:1.5;"/>
    <path clip-path="url(#p316325af9b)" d="M 280.015238 91.943218 
L 280.015238 57.161624 
" style="fill:none;stroke:#0000ff;stroke-width:1.5;"/>
    <path clip-path="url(#p316325af9b)" d="M 283.062857 91.998327 
L 283.062857 57.216733 
" style="fill:none;stroke:#0000ff;stroke-width:1.5;"/>
    <path clip-path="url(#p316325af9b)" d="M 286.110476 86.291966 
L 286.110476 51.510373 
" style="fill:none;stroke:#0000ff;stroke-width:1.5;"/>
    <path clip-path="url(#p316325af9b)" d="M 289.158095 71.998053 
L 289.158095 37.216459 
" style="fill:none;stroke:#0000ff;stroke-width:1.5;"/>
    <path clip-path="url(#p316325af9b)" d="M 292.205714 83.387474 
L 292.205714 48.605881 
" style="fill:none;stroke:#0000ff;stroke-width:1.5;"/>
    <path clip-path="url(#p316325af9b)" d="M 295.253333 94.478934 
L 295.253333 59.69734 
" style="fill:none;stroke:#0000ff;stroke-width:1.5;"/>
    <path clip-path="url(#p316325af9b)" d="M 298.300952 94.125398 
L 298.300952 59.343805 
" style="fill:none;stroke:#0000ff;stroke-width:1.5;"/>
    <path clip-path="url(#p316325af9b)" d="M 301.348571 104.089516 
L 301.348571 69.307922 
" style="fill:none;stroke:#0000ff;stroke-width:1.5;"/>
    <path clip-path="url(#p316325af9b)" d="M 304.39619 87.292648 
L 304.39619 52.511054 
" style="fill:none;stroke:#0000ff;stroke-width:1.5;"/>
    <path clip-path="url(#p316325af9b)" d="M 307.44381 64.238797 
L 307.44381 29.457203 
" style="fill:none;stroke:#0000ff;stroke-width:1.5;"/>
    <path clip-path="url(#p316325af9b)" d="M 310.491429 95.160806 
L 310.491429 60.379213 
" style="fill:none;stroke:#0000ff;stroke-width:1.5;"/>
    <path clip-path="url(#p316325af9b)" d="M 313.539048 88.29867 
L 313.539048 53.517077 
" style="fill:none;stroke:#0000ff;stroke-width:1.5;"/>
    <path clip-path="url(#p316325af9b)" d="M 316.586667 68.417992 
L 316.586667 33.636398 
" style="fill:none;stroke:#0000ff;stroke-width:1.5;"/>
    <path clip-path="url(#p316325af9b)" d="M 319.634286 78.849324 
L 319.634286 44.067731 
" style="fill:none;stroke:#0000ff;stroke-width:1.5;"/>
    <path clip-path="url(#p316325af9b)" d="M 322.681905 67.071445 
L 322.681905 32.289851 
" style="fill:none;stroke:#0000ff;stroke-width:1.5;"/>
    <path clip-path="url(#p316325af9b)" d="M 325.729524 105.612606 
L 325.729524 70.831012 
" style="fill:none;stroke:#0000ff;stroke-width:1.5;"/>
    <path clip-path="url(#p316325af9b)" d="M 328.777143 93.283657 
L 328.777143 58.502064 
" style="fill:none;stroke:#0000ff;stroke-width:1.5;"/>
    <path clip-path="url(#p316325af9b)" d="M 331.824762 86.06447 
L 331.824762 51.282876 
" style="fill:none;stroke:#0000ff;stroke-width:1.5;"/>
    <path clip-path="url(#p316325af9b)" d="M 334.872381 91.212322 
L 334.872381 56.430729 
" style="fill:none;stroke:#0000ff;stroke-width:1.5;"/>
    <path clip-path="url(#p316325af9b)" d="M 337.92 97.091791 
L 337.92 62.310197 
" style="fill:none;stroke:#0000ff;stroke-width:1.5;"/>
    <path clip-path="url(#p316325af9b)" d="M 340.967619 72.868464 
L 340.967619 38.086871 
" style="fill:none;stroke:#0000ff;stroke-width:1.5;"/>
    <path clip-path="url(#p316325af9b)" d="M 344.015238 84.916886 
L 344.015238 50.135293 
" style="fill:none;stroke:#0000ff;stroke-width:1.5;"/>
    <path clip-path="url(#p316325af9b)" d="M 347.062857 83.861484 
L 347.062857 49.079891 
" style="fill:none;stroke:#0000ff;stroke-width:1.5;"/>
    <path clip-path="url(#p316325af9b)" d="M 350.110476 67.909199 
L 350.110476 33.127605 
" style="fill:none;stroke:#0000ff;stroke-width:1.5;"/>
    <path clip-path="url(#p316325af9b)" d="M 353.158095 73.852438 
L 353.158095 39.070845 
" style="fill:none;stroke:#0000ff;stroke-width:1.5;"/>
    <path clip-path="url(#p316325af9b)" d="M 356.205714 97.683044 
L 356.205714 62.90145 
" style="fill:none;stroke:#0000ff;stroke-width:1.5;"/>
    <path clip-path="url(#p316325af9b)" d="M 359.253333 85.69037 
L 359.253333 50.908777 
" style="fill:none;stroke:#0000ff;stroke-width:1.5;"/>
    <path clip-path="url(#p316325af9b)" d="M 362.300952 81.582836 
L 362.300952 46.801243 
" style="fill:none;stroke:#0000ff;stroke-width:1.5;"/>
    <path clip-path="url(#p316325af9b)" d="M 365.348571 102.88643 
L 365.348571 68.104837 
" style="fill:none;stroke:#0000ff;stroke-width:1.5;"/>
    <path clip-path="url(#p316325af9b)" d="M 368.39619 89.215254 
L 368.39619 54.433661 
" style="fill:none;stroke:#0000ff;stroke-width:1.5;"/>
    <path clip-path="url(#p316325af9b)" d="M 371.44381 84.763154 
L 371.44381 49.98156 
" style="fill:none;stroke:#0000ff;stroke-width:1.5;"/>
    <path clip-path="url(#p316325af9b)" d="M 374.491429 104.244873 
L 374.491429 69.46328 
" style="fill:none;stroke:#0000ff;stroke-width:1.5;"/>
    <path clip-path="url(#p316325af9b)" d="M 377.539048 93.731059 
L 377.539048 58.949465 
" style="fill:none;stroke:#0000ff;stroke-width:1.5;"/>
    <path clip-path="url(#p316325af9b)" d="M 380.586667 78.902047 
L 380.586667 44.120454 
" style="fill:none;stroke:#0000ff;stroke-width:1.5;"/>
    <path clip-path="url(#p316325af9b)" d="M 386.681905 86.984361 
L 386.681905 52.202768 
" style="fill:none;stroke:#0000ff;stroke-width:1.5;"/>
    <path clip-path="url(#p316325af9b)" d="M 398.872381 96.161893 
L 398.872381 61.380299 
" style="fill:none;stroke:#0000ff;stroke-width:1.5;"/>
    <path clip-path="url(#p316325af9b)" d="M 401.92 95.392743 
L 401.92 60.61115 
" style="fill:none;stroke:#0000ff;stroke-width:1.5;"/>
   </g>
   <g id="line2d_11">
    <path clip-path="url(#p316325af9b)" d="M 81.92 71.05982 
L 401.92 71.05982 
" style="fill:none;stroke:#ff0000;stroke-linecap:square;stroke-width:1.5;"/>
   </g>
   <g id="line2d_12">
    <defs>
     <path d="M -3 0 
L 3 0 
M 0 3 
L 0 -3 
" id="mff042f8ea3" style="stroke:#0000ff;"/>
    </defs>
    <g clip-path="url(#p316325af9b)">
     <use style="fill:#0000ff;stroke:#0000ff;" x="81.92" xlink:href="#mff042f8ea3" y="62.731993"/>
     <use style="fill:#0000ff;stroke:#0000ff;" x="115.44381" xlink:href="#mff042f8ea3" y="67.274698"/>
     <use style="fill:#0000ff;stroke:#0000ff;" x="121.539048" xlink:href="#mff042f8ea3" y="71.751857"/>
     <use style="fill:#0000ff;stroke:#0000ff;" x="127.634286" xlink:href="#mff042f8ea3" y="68.036601"/>
     <use style="fill:#0000ff;stroke:#0000ff;" x="164.205714" xlink:href="#mff042f8ea3" y="69.258091"/>
     <use style="fill:#0000ff;stroke:#0000ff;" x="167.253333" xlink:href="#mff042f8ea3" y="66.274312"/>
     <use style="fill:#0000ff;stroke:#0000ff;" x="173.348571" xlink:href="#mff042f8ea3" y="80.151138"/>
     <use style="fill:#0000ff;stroke:#0000ff;" x="179.44381" xlink:href="#mff042f8ea3" y="65.814994"/>
     <use style="fill:#0000ff;stroke:#0000ff;" x="188.586667" xlink:href="#mff042f8ea3" y="80.335444"/>
     <use style="fill:#0000ff;stroke:#0000ff;" x="191.634286" xlink:href="#mff042f8ea3" y="69.404398"/>
     <use style="fill:#0000ff;stroke:#0000ff;" x="197.729524" xlink:href="#mff042f8ea3" y="75.170625"/>
     <use style="fill:#0000ff;stroke:#0000ff;" x="200.777143" xlink:href="#mff042f8ea3" y="80.438101"/>
     <use style="fill:#0000ff;stroke:#0000ff;" x="203.824762" xlink:href="#mff042f8ea3" y="60.988039"/>
     <use style="fill:#0000ff;stroke:#0000ff;" x="206.872381" xlink:href="#mff042f8ea3" y="82.89828"/>
     <use style="fill:#0000ff;stroke:#0000ff;" x="209.92" xlink:href="#mff042f8ea3" y="72.328441"/>
     <use style="fill:#0000ff;stroke:#0000ff;" x="212.967619" xlink:href="#mff042f8ea3" y="61.234203"/>
     <use style="fill:#0000ff;stroke:#0000ff;" x="216.015238" xlink:href="#mff042f8ea3" y="71.203857"/>
     <use style="fill:#0000ff;stroke:#0000ff;" x="219.062857" xlink:href="#mff042f8ea3" y="63.26142"/>
     <use style="fill:#0000ff;stroke:#0000ff;" x="222.110476" xlink:href="#mff042f8ea3" y="64.284726"/>
     <use style="fill:#0000ff;stroke:#0000ff;" x="225.158095" xlink:href="#mff042f8ea3" y="48.647975"/>
     <use style="fill:#0000ff;stroke:#0000ff;" x="228.205714" xlink:href="#mff042f8ea3" y="69.254876"/>
     <use style="fill:#0000ff;stroke:#0000ff;" x="231.253333" xlink:href="#mff042f8ea3" y="76.813823"/>
     <use style="fill:#0000ff;stroke:#0000ff;" x="234.300952" xlink:href="#mff042f8ea3" y="74.499378"/>
     <use style="fill:#0000ff;stroke:#0000ff;" x="237.348571" xlink:href="#mff042f8ea3" y="72.315807"/>
     <use style="fill:#0000ff;stroke:#0000ff;" x="240.39619" xlink:href="#mff042f8ea3" y="52.79759"/>
     <use style="fill:#0000ff;stroke:#0000ff;" x="243.44381" xlink:href="#mff042f8ea3" y="58.028695"/>
     <use style="fill:#0000ff;stroke:#0000ff;" x="246.491429" xlink:href="#mff042f8ea3" y="54.296152"/>
     <use style="fill:#0000ff;stroke:#0000ff;" x="249.539048" xlink:href="#mff042f8ea3" y="86.744491"/>
     <use style="fill:#0000ff;stroke:#0000ff;" x="252.586667" xlink:href="#mff042f8ea3" y="62.631752"/>
     <use style="fill:#0000ff;stroke:#0000ff;" x="255.634286" xlink:href="#mff042f8ea3" y="68.524471"/>
     <use style="fill:#0000ff;stroke:#0000ff;" x="258.681905" xlink:href="#mff042f8ea3" y="56.8105"/>
     <use style="fill:#0000ff;stroke:#0000ff;" x="261.729524" xlink:href="#mff042f8ea3" y="89.899085"/>
     <use style="fill:#0000ff;stroke:#0000ff;" x="264.777143" xlink:href="#mff042f8ea3" y="94.848"/>
     <use style="fill:#0000ff;stroke:#0000ff;" x="267.824762" xlink:href="#mff042f8ea3" y="87.01362"/>
     <use style="fill:#0000ff;stroke:#0000ff;" x="270.872381" xlink:href="#mff042f8ea3" y="60.757283"/>
     <use style="fill:#0000ff;stroke:#0000ff;" x="273.92" xlink:href="#mff042f8ea3" y="71.295581"/>
     <use style="fill:#0000ff;stroke:#0000ff;" x="276.967619" xlink:href="#mff042f8ea3" y="77.496223"/>
     <use style="fill:#0000ff;stroke:#0000ff;" x="280.015238" xlink:href="#mff042f8ea3" y="74.552421"/>
     <use style="fill:#0000ff;stroke:#0000ff;" x="283.062857" xlink:href="#mff042f8ea3" y="74.60753"/>
     <use style="fill:#0000ff;stroke:#0000ff;" x="286.110476" xlink:href="#mff042f8ea3" y="68.901169"/>
     <use style="fill:#0000ff;stroke:#0000ff;" x="289.158095" xlink:href="#mff042f8ea3" y="54.607256"/>
     <use style="fill:#0000ff;stroke:#0000ff;" x="292.205714" xlink:href="#mff042f8ea3" y="65.996678"/>
     <use style="fill:#0000ff;stroke:#0000ff;" x="295.253333" xlink:href="#mff042f8ea3" y="77.088137"/>
     <use style="fill:#0000ff;stroke:#0000ff;" x="298.300952" xlink:href="#mff042f8ea3" y="76.734602"/>
     <use style="fill:#0000ff;stroke:#0000ff;" x="301.348571" xlink:href="#mff042f8ea3" y="86.698719"/>
     <use style="fill:#0000ff;stroke:#0000ff;" x="304.39619" xlink:href="#mff042f8ea3" y="69.901851"/>
     <use style="fill:#0000ff;stroke:#0000ff;" x="307.44381" xlink:href="#mff042f8ea3" y="46.848"/>
     <use style="fill:#0000ff;stroke:#0000ff;" x="310.491429" xlink:href="#mff042f8ea3" y="77.770009"/>
     <use style="fill:#0000ff;stroke:#0000ff;" x="313.539048" xlink:href="#mff042f8ea3" y="70.907873"/>
     <use style="fill:#0000ff;stroke:#0000ff;" x="316.586667" xlink:href="#mff042f8ea3" y="51.027195"/>
     <use style="fill:#0000ff;stroke:#0000ff;" x="319.634286" xlink:href="#mff042f8ea3" y="61.458527"/>
     <use style="fill:#0000ff;stroke:#0000ff;" x="322.681905" xlink:href="#mff042f8ea3" y="49.680648"/>
     <use style="fill:#0000ff;stroke:#0000ff;" x="325.729524" xlink:href="#mff042f8ea3" y="88.221809"/>
     <use style="fill:#0000ff;stroke:#0000ff;" x="328.777143" xlink:href="#mff042f8ea3" y="75.89286"/>
     <use style="fill:#0000ff;stroke:#0000ff;" x="331.824762" xlink:href="#mff042f8ea3" y="68.673673"/>
     <use style="fill:#0000ff;stroke:#0000ff;" x="334.872381" xlink:href="#mff042f8ea3" y="73.821526"/>
     <use style="fill:#0000ff;stroke:#0000ff;" x="337.92" xlink:href="#mff042f8ea3" y="79.700994"/>
     <use style="fill:#0000ff;stroke:#0000ff;" x="340.967619" xlink:href="#mff042f8ea3" y="55.477667"/>
     <use style="fill:#0000ff;stroke:#0000ff;" x="344.015238" xlink:href="#mff042f8ea3" y="67.52609"/>
     <use style="fill:#0000ff;stroke:#0000ff;" x="347.062857" xlink:href="#mff042f8ea3" y="66.470687"/>
     <use style="fill:#0000ff;stroke:#0000ff;" x="350.110476" xlink:href="#mff042f8ea3" y="50.518402"/>
     <use style="fill:#0000ff;stroke:#0000ff;" x="353.158095" xlink:href="#mff042f8ea3" y="56.461641"/>
     <use style="fill:#0000ff;stroke:#0000ff;" x="356.205714" xlink:href="#mff042f8ea3" y="80.292247"/>
     <use style="fill:#0000ff;stroke:#0000ff;" x="359.253333" xlink:href="#mff042f8ea3" y="68.299573"/>
     <use style="fill:#0000ff;stroke:#0000ff;" x="362.300952" xlink:href="#mff042f8ea3" y="64.192039"/>
     <use style="fill:#0000ff;stroke:#0000ff;" x="365.348571" xlink:href="#mff042f8ea3" y="85.495634"/>
     <use style="fill:#0000ff;stroke:#0000ff;" x="368.39619" xlink:href="#mff042f8ea3" y="71.824458"/>
     <use style="fill:#0000ff;stroke:#0000ff;" x="371.44381" xlink:href="#mff042f8ea3" y="67.372357"/>
     <use style="fill:#0000ff;stroke:#0000ff;" x="374.491429" xlink:href="#mff042f8ea3" y="86.854077"/>
     <use style="fill:#0000ff;stroke:#0000ff;" x="377.539048" xlink:href="#mff042f8ea3" y="76.340262"/>
     <use style="fill:#0000ff;stroke:#0000ff;" x="380.586667" xlink:href="#mff042f8ea3" y="61.511251"/>
     <use style="fill:#0000ff;stroke:#0000ff;" x="386.681905" xlink:href="#mff042f8ea3" y="69.593565"/>
     <use style="fill:#0000ff;stroke:#0000ff;" x="398.872381" xlink:href="#mff042f8ea3" y="78.771096"/>
     <use style="fill:#0000ff;stroke:#0000ff;" x="401.92" xlink:href="#mff042f8ea3" y="78.001946"/>
    </g>
   </g>
   <g id="patch_3">
    <path d="M 69.12 96.768 
L 69.12 44.928 
" style="fill:none;stroke:#000000;stroke-linecap:square;stroke-linejoin:miter;stroke-width:0.8;"/>
   </g>
   <g id="patch_4">
    <path d="M 414.72 96.768 
L 414.72 44.928 
" style="fill:none;stroke:#000000;stroke-linecap:square;stroke-linejoin:miter;stroke-width:0.8;"/>
   </g>
   <g id="patch_5">
    <path d="M 69.12 96.768 
L 414.72 96.768 
" style="fill:none;stroke:#000000;stroke-linecap:square;stroke-linejoin:miter;stroke-width:0.8;"/>
   </g>
   <g id="patch_6">
    <path d="M 69.12 44.928 
L 414.72 44.928 
" style="fill:none;stroke:#000000;stroke-linecap:square;stroke-linejoin:miter;stroke-width:0.8;"/>
   </g>
   <g id="text_4">
    <!-- Function (0/0): y = a*exp(-(x-x0)**2/w**2)+b -->
    <defs>
     <path d="M 9.8125 72.90625 
L 51.703125 72.90625 
L 51.703125 64.59375 
L 19.671875 64.59375 
L 19.671875 43.109375 
L 48.578125 43.109375 
L 48.578125 34.8125 
L 19.671875 34.8125 
L 19.671875 0 
L 9.8125 0 
z
" id="DejaVuSans-46"/>
     <path d="M 48.78125 52.59375 
L 48.78125 44.1875 
Q 44.96875 46.296875 41.140625 47.34375 
Q 37.3125 48.390625 33.40625 48.390625 
Q 24.65625 48.390625 19.8125 42.84375 
Q 14.984375 37.3125 14.984375 27.296875 
Q 14.984375 17.28125 19.8125 11.734375 
Q 24.65625 6.203125 33.40625 6.203125 
Q 37.3125 6.203125 41.140625 7.25 
Q 44.96875 8.296875 48.78125 10.40625 
L 48.78125 2.09375 
Q 45.015625 0.34375 40.984375 -0.53125 
Q 36.96875 -1.421875 32.421875 -1.421875 
Q 20.0625 -1.421875 12.78125 6.34375 
Q 5.515625 14.109375 5.515625 27.296875 
Q 5.515625 40.671875 12.859375 48.328125 
Q 20.21875 56 33.015625 56 
Q 37.15625 56 41.109375 55.140625 
Q 45.0625 54.296875 48.78125 52.59375 
z
" id="DejaVuSans-63"/>
     <path d="M 30.609375 48.390625 
Q 23.390625 48.390625 19.1875 42.75 
Q 14.984375 37.109375 14.984375 27.296875 
Q 14.984375 17.484375 19.15625 11.84375 
Q 23.34375 6.203125 30.609375 6.203125 
Q 37.796875 6.203125 41.984375 11.859375 
Q 46.1875 17.53125 46.1875 27.296875 
Q 46.1875 37.015625 41.984375 42.703125 
Q 37.796875 48.390625 30.609375 48.390625 
z
M 30.609375 56 
Q 42.328125 56 49.015625 48.375 
Q 55.71875 40.765625 55.71875 27.296875 
Q 55.71875 13.875 49.015625 6.21875 
Q 42.328125 -1.421875 30.609375 -1.421875 
Q 18.84375 -1.421875 12.171875 6.21875 
Q 5.515625 13.875 5.515625 27.296875 
Q 5.515625 40.765625 12.171875 48.375 
Q 18.84375 56 30.609375 56 
z
" id="DejaVuSans-6f"/>
     <path id="DejaVuSans-20"/>
     <path d="M 31 75.875 
Q 24.46875 64.65625 21.28125 53.65625 
Q 18.109375 42.671875 18.109375 31.390625 
Q 18.109375 20.125 21.3125 9.0625 
Q 24.515625 -2 31 -13.1875 
L 23.1875 -13.1875 
Q 15.875 -1.703125 12.234375 9.375 
Q 8.59375 20.453125 8.59375 31.390625 
Q 8.59375 42.28125 12.203125 53.3125 
Q 15.828125 64.359375 23.1875 75.875 
z
" id="DejaVuSans-28"/>
     <path d="M 31.78125 66.40625 
Q 24.171875 66.40625 20.328125 58.90625 
Q 16.5 51.421875 16.5 36.375 
Q 16.5 21.390625 20.328125 13.890625 
Q 24.171875 6.390625 31.78125 6.390625 
Q 39.453125 6.390625 43.28125 13.890625 
Q 47.125 21.390625 47.125 36.375 
Q 47.125 51.421875 43.28125 58.90625 
Q 39.453125 66.40625 31.78125 66.40625 
z
M 31.78125 74.21875 
Q 44.046875 74.21875 50.515625 64.515625 
Q 56.984375 54.828125 56.984375 36.375 
Q 56.984375 17.96875 50.515625 8.265625 
Q 44.046875 -1.421875 31.78125 -1.421875 
Q 19.53125 -1.421875 13.0625 8.265625 
Q 6.59375 17.96875 6.59375 36.375 
Q 6.59375 54.828125 13.0625 64.515625 
Q 19.53125 74.21875 31.78125 74.21875 
z
" id="DejaVuSans-30"/>
     <path d="M 25.390625 72.90625 
L 33.6875 72.90625 
L 8.296875 -9.28125 
L 0 -9.28125 
z
" id="DejaVuSans-2f"/>
     <path d="M 8.015625 75.875 
L 15.828125 75.875 
Q 23.140625 64.359375 26.78125 53.3125 
Q 30.421875 42.28125 30.421875 31.390625 
Q 30.421875 20.453125 26.78125 9.375 
Q 23.140625 -1.703125 15.828125 -13.1875 
L 8.015625 -13.1875 
Q 14.5 -2 17.703125 9.0625 
Q 20.90625 20.125 20.90625 31.390625 
Q 20.90625 42.671875 17.703125 53.65625 
Q 14.5 64.65625 8.015625 75.875 
z
" id="DejaVuSans-29"/>
     <path d="M 11.71875 12.40625 
L 22.015625 12.40625 
L 22.015625 0 
L 11.71875 0 
z
M 11.71875 51.703125 
L 22.015625 51.703125 
L 22.015625 39.3125 
L 11.71875 39.3125 
z
" id="DejaVuSans-3a"/>
     <path d="M 32.171875 -5.078125 
Q 28.375 -14.84375 24.75 -17.8125 
Q 21.140625 -20.796875 15.09375 -20.796875 
L 7.90625 -20.796875 
L 7.90625 -13.28125 
L 13.1875 -13.28125 
Q 16.890625 -13.28125 18.9375 -11.515625 
Q 21 -9.765625 23.484375 -3.21875 
L 25.09375 0.875 
L 2.984375 54.6875 
L 12.5 54.6875 
L 29.59375 11.921875 
L 46.6875 54.6875 
L 56.203125 54.6875 
z
" id="DejaVuSans-79"/>
     <path d="M 10.59375 45.40625 
L 73.1875 45.40625 
L 73.1875 37.203125 
L 10.59375 37.203125 
z
M 10.59375 25.484375 
L 73.1875 25.484375 
L 73.1875 17.1875 
L 10.59375 17.1875 
z
" id="DejaVuSans-3d"/>
     <path d="M 47.015625 60.890625 
L 29.5 51.421875 
L 47.015625 41.890625 
L 44.1875 37.109375 
L 27.78125 47.015625 
L 27.78125 28.609375 
L 22.21875 28.609375 
L 22.21875 47.015625 
L 5.8125 37.109375 
L 2.984375 41.890625 
L 20.515625 51.421875 
L 2.984375 60.890625 
L 5.8125 65.71875 
L 22.21875 55.8125 
L 22.21875 74.21875 
L 27.78125 74.21875 
L 27.78125 55.8125 
L 44.1875 65.71875 
z
" id="DejaVuSans-2a"/>
     <path d="M 54.890625 54.6875 
L 35.109375 28.078125 
L 55.90625 0 
L 45.3125 0 
L 29.390625 21.484375 
L 13.484375 0 
L 2.875 0 
L 24.125 28.609375 
L 4.6875 54.6875 
L 15.28125 54.6875 
L 29.78125 35.203125 
L 44.28125 54.6875 
z
" id="DejaVuSans-78"/>
     <path d="M 18.109375 8.203125 
L 18.109375 -20.796875 
L 9.078125 -20.796875 
L 9.078125 54.6875 
L 18.109375 54.6875 
L 18.109375 46.390625 
Q 20.953125 51.265625 25.265625 53.625 
Q 29.59375 56 35.59375 56 
Q 45.5625 56 51.78125 48.09375 
Q 58.015625 40.1875 58.015625 27.296875 
Q 58.015625 14.40625 51.78125 6.484375 
Q 45.5625 -1.421875 35.59375 -1.421875 
Q 29.59375 -1.421875 25.265625 0.953125 
Q 20.953125 3.328125 18.109375 8.203125 
z
M 48.6875 27.296875 
Q 48.6875 37.203125 44.609375 42.84375 
Q 40.53125 48.484375 33.40625 48.484375 
Q 26.265625 48.484375 22.1875 42.84375 
Q 18.109375 37.203125 18.109375 27.296875 
Q 18.109375 17.390625 22.1875 11.75 
Q 26.265625 6.109375 33.40625 6.109375 
Q 40.53125 6.109375 44.609375 11.75 
Q 48.6875 17.390625 48.6875 27.296875 
z
" id="DejaVuSans-70"/>
     <path d="M 4.890625 31.390625 
L 31.203125 31.390625 
L 31.203125 23.390625 
L 4.890625 23.390625 
z
" id="DejaVuSans-2d"/>
     <path d="M 19.1875 8.296875 
L 53.609375 8.296875 
L 53.609375 0 
L 7.328125 0 
L 7.328125 8.296875 
Q 12.9375 14.109375 22.625 23.890625 
Q 32.328125 33.6875 34.8125 36.53125 
Q 39.546875 41.84375 41.421875 45.53125 
Q 43.3125 49.21875 43.3125 52.78125 
Q 43.3125 58.59375 39.234375 62.25 
Q 35.15625 65.921875 28.609375 65.921875 
Q 23.96875 65.921875 18.8125 64.3125 
Q 13.671875 62.703125 7.8125 59.421875 
L 7.8125 69.390625 
Q 13.765625 71.78125 18.9375 73 
Q 24.125 74.21875 28.421875 74.21875 
Q 39.75 74.21875 46.484375 68.546875 
Q 53.21875 62.890625 53.21875 53.421875 
Q 53.21875 48.921875 51.53125 44.890625 
Q 49.859375 40.875 45.40625 35.40625 
Q 44.1875 33.984375 37.640625 27.21875 
Q 31.109375 20.453125 19.1875 8.296875 
z
" id="DejaVuSans-32"/>
     <path d="M 4.203125 54.6875 
L 13.1875 54.6875 
L 24.421875 12.015625 
L 35.59375 54.6875 
L 46.1875 54.6875 
L 57.421875 12.015625 
L 68.609375 54.6875 
L 77.59375 54.6875 
L 63.28125 0 
L 52.6875 0 
L 40.921875 44.828125 
L 29.109375 0 
L 18.5 0 
z
" id="DejaVuSans-77"/>
     <path d="M 46 62.703125 
L 46 35.5 
L 73.1875 35.5 
L 73.1875 27.203125 
L 46 27.203125 
L 46 0 
L 37.796875 0 
L 37.796875 27.203125 
L 10.59375 27.203125 
L 10.59375 35.5 
L 37.796875 35.5 
L 37.796875 62.703125 
z
" id="DejaVuSans-2b"/>
     <path d="M 48.6875 27.296875 
Q 48.6875 37.203125 44.609375 42.84375 
Q 40.53125 48.484375 33.40625 48.484375 
Q 26.265625 48.484375 22.1875 42.84375 
Q 18.109375 37.203125 18.109375 27.296875 
Q 18.109375 17.390625 22.1875 11.75 
Q 26.265625 6.109375 33.40625 6.109375 
Q 40.53125 6.109375 44.609375 11.75 
Q 48.6875 17.390625 48.6875 27.296875 
z
M 18.109375 46.390625 
Q 20.953125 51.265625 25.265625 53.625 
Q 29.59375 56 35.59375 56 
Q 45.5625 56 51.78125 48.09375 
Q 58.015625 40.1875 58.015625 27.296875 
Q 58.015625 14.40625 51.78125 6.484375 
Q 45.5625 -1.421875 35.59375 -1.421875 
Q 29.59375 -1.421875 25.265625 0.953125 
Q 20.953125 3.328125 18.109375 8.203125 
L 18.109375 0 
L 9.078125 0 
L 9.078125 75.984375 
L 18.109375 75.984375 
z
" id="DejaVuSans-62"/>
    </defs>
    <g transform="translate(69.12 27.730187)scale(0.1 -0.1)">
     <use xlink:href="#DejaVuSans-46"/>
     <use x="57.441406" xlink:href="#DejaVuSans-75"/>
     <use x="120.820312" xlink:href="#DejaVuSans-6e"/>
     <use x="184.199219" xlink:href="#DejaVuSans-63"/>
     <use x="239.179688" xlink:href="#DejaVuSans-74"/>
     <use x="278.388672" xlink:href="#DejaVuSans-69"/>
     <use x="306.171875" xlink:href="#DejaVuSans-6f"/>
     <use x="367.353516" xlink:href="#DejaVuSans-6e"/>
     <use x="430.732422" xlink:href="#DejaVuSans-20"/>
     <use x="462.519531" xlink:href="#DejaVuSans-28"/>
     <use x="501.533203" xlink:href="#DejaVuSans-30"/>
     <use x="565.15625" xlink:href="#DejaVuSans-2f"/>
     <use x="598.847656" xlink:href="#DejaVuSans-30"/>
     <use x="662.470703" xlink:href="#DejaVuSans-29"/>
     <use x="701.484375" xlink:href="#DejaVuSans-3a"/>
     <use x="735.175781" xlink:href="#DejaVuSans-20"/>
     <use x="766.962891" xlink:href="#DejaVuSans-79"/>
     <use x="826.142578" xlink:href="#DejaVuSans-20"/>
     <use x="857.929688" xlink:href="#DejaVuSans-3d"/>
     <use x="941.71875" xlink:href="#DejaVuSans-20"/>
     <use x="973.505859" xlink:href="#DejaVuSans-61"/>
     <use x="1034.785156" xlink:href="#DejaVuSans-2a"/>
     <use x="1084.785156" xlink:href="#DejaVuSans-65"/>
     <use x="1146.292969" xlink:href="#DejaVuSans-78"/>
     <use x="1205.472656" xlink:href="#DejaVuSans-70"/>
     <use x="1268.949219" xlink:href="#DejaVuSans-28"/>
     <use x="1307.962891" xlink:href="#DejaVuSans-2d"/>
     <use x="1344.046875" xlink:href="#DejaVuSans-28"/>
     <use x="1383.060547" xlink:href="#DejaVuSans-78"/>
     <use x="1442.240234" xlink:href="#DejaVuSans-2d"/>
     <use x="1478.324219" xlink:href="#DejaVuSans-78"/>
     <use x="1537.503906" xlink:href="#DejaVuSans-30"/>
     <use x="1601.126953" xlink:href="#DejaVuSans-29"/>
     <use x="1640.140625" xlink:href="#DejaVuSans-2a"/>
     <use x="1690.140625" xlink:href="#DejaVuSans-2a"/>
     <use x="1740.140625" xlink:href="#DejaVuSans-32"/>
     <use x="1803.763672" xlink:href="#DejaVuSans-2f"/>
     <use x="1837.455078" xlink:href="#DejaVuSans-77"/>
     <use x="1919.242188" xlink:href="#DejaVuSans-2a"/>
     <use x="1969.242188" xlink:href="#DejaVuSans-2a"/>
     <use x="2019.242188" xlink:href="#DejaVuSans-32"/>
     <use x="2082.865234" xlink:href="#DejaVuSans-29"/>
     <use x="2121.878906" xlink:href="#DejaVuSans-2b"/>
     <use x="2205.667969" xlink:href="#DejaVuSans-62"/>
    </g>
    <!-- Fit: a=5.7$\pm$1.2, b=3.9$\pm$1.2, x0=4.274$\pm$0.014, w=0.17$\pm$0.042, -->
    <defs>
     <path d="M 10.796875 72.90625 
L 49.515625 72.90625 
L 49.515625 64.59375 
L 19.828125 64.59375 
L 19.828125 46.734375 
Q 21.96875 47.46875 24.109375 47.828125 
Q 26.265625 48.1875 28.421875 48.1875 
Q 40.625 48.1875 47.75 41.5 
Q 54.890625 34.8125 54.890625 23.390625 
Q 54.890625 11.625 47.5625 5.09375 
Q 40.234375 -1.421875 26.90625 -1.421875 
Q 22.3125 -1.421875 17.546875 -0.640625 
Q 12.796875 0.140625 7.71875 1.703125 
L 7.71875 11.625 
Q 12.109375 9.234375 16.796875 8.0625 
Q 21.484375 6.890625 26.703125 6.890625 
Q 35.15625 6.890625 40.078125 11.328125 
Q 45.015625 15.765625 45.015625 23.390625 
Q 45.015625 31 40.078125 35.4375 
Q 35.15625 39.890625 26.703125 39.890625 
Q 22.75 39.890625 18.8125 39.015625 
Q 14.890625 38.140625 10.796875 36.28125 
z
" id="DejaVuSans-35"/>
     <path d="M 10.6875 12.40625 
L 21 12.40625 
L 21 0 
L 10.6875 0 
z
" id="DejaVuSans-2e"/>
     <path d="M 8.203125 72.90625 
L 55.078125 72.90625 
L 55.078125 68.703125 
L 28.609375 0 
L 18.3125 0 
L 43.21875 64.59375 
L 8.203125 64.59375 
z
" id="DejaVuSans-37"/>
     <path d="M 46 62.703125 
L 46 43.796875 
L 73.1875 43.796875 
L 73.1875 35.5 
L 46 35.5 
L 46 16.609375 
L 37.796875 16.609375 
L 37.796875 35.5 
L 10.59375 35.5 
L 10.59375 43.796875 
L 37.796875 43.796875 
L 37.796875 62.703125 
z
M 10.59375 8.296875 
L 73.1875 8.296875 
L 73.1875 0 
L 10.59375 0 
z
" id="DejaVuSans-b1"/>
     <path d="M 11.71875 12.40625 
L 22.015625 12.40625 
L 22.015625 4 
L 14.015625 -11.625 
L 7.71875 -11.625 
L 11.71875 4 
z
" id="DejaVuSans-2c"/>
     <path d="M 40.578125 39.3125 
Q 47.65625 37.796875 51.625 33 
Q 55.609375 28.21875 55.609375 21.1875 
Q 55.609375 10.40625 48.1875 4.484375 
Q 40.765625 -1.421875 27.09375 -1.421875 
Q 22.515625 -1.421875 17.65625 -0.515625 
Q 12.796875 0.390625 7.625 2.203125 
L 7.625 11.71875 
Q 11.71875 9.328125 16.59375 8.109375 
Q 21.484375 6.890625 26.8125 6.890625 
Q 36.078125 6.890625 40.9375 10.546875 
Q 45.796875 14.203125 45.796875 21.1875 
Q 45.796875 27.640625 41.28125 31.265625 
Q 36.765625 34.90625 28.71875 34.90625 
L 20.21875 34.90625 
L 20.21875 43.015625 
L 29.109375 43.015625 
Q 36.375 43.015625 40.234375 45.921875 
Q 44.09375 48.828125 44.09375 54.296875 
Q 44.09375 59.90625 40.109375 62.90625 
Q 36.140625 65.921875 28.71875 65.921875 
Q 24.65625 65.921875 20.015625 65.03125 
Q 15.375 64.15625 9.8125 62.3125 
L 9.8125 71.09375 
Q 15.4375 72.65625 20.34375 73.4375 
Q 25.25 74.21875 29.59375 74.21875 
Q 40.828125 74.21875 47.359375 69.109375 
Q 53.90625 64.015625 53.90625 55.328125 
Q 53.90625 49.265625 50.4375 45.09375 
Q 46.96875 40.921875 40.578125 39.3125 
z
" id="DejaVuSans-33"/>
     <path d="M 10.984375 1.515625 
L 10.984375 10.5 
Q 14.703125 8.734375 18.5 7.8125 
Q 22.3125 6.890625 25.984375 6.890625 
Q 35.75 6.890625 40.890625 13.453125 
Q 46.046875 20.015625 46.78125 33.40625 
Q 43.953125 29.203125 39.59375 26.953125 
Q 35.25 24.703125 29.984375 24.703125 
Q 19.046875 24.703125 12.671875 31.3125 
Q 6.296875 37.9375 6.296875 49.421875 
Q 6.296875 60.640625 12.9375 67.421875 
Q 19.578125 74.21875 30.609375 74.21875 
Q 43.265625 74.21875 49.921875 64.515625 
Q 56.59375 54.828125 56.59375 36.375 
Q 56.59375 19.140625 48.40625 8.859375 
Q 40.234375 -1.421875 26.421875 -1.421875 
Q 22.703125 -1.421875 18.890625 -0.6875 
Q 15.09375 0.046875 10.984375 1.515625 
z
M 30.609375 32.421875 
Q 37.25 32.421875 41.125 36.953125 
Q 45.015625 41.5 45.015625 49.421875 
Q 45.015625 57.28125 41.125 61.84375 
Q 37.25 66.40625 30.609375 66.40625 
Q 23.96875 66.40625 20.09375 61.84375 
Q 16.21875 57.28125 16.21875 49.421875 
Q 16.21875 41.5 20.09375 36.953125 
Q 23.96875 32.421875 30.609375 32.421875 
z
" id="DejaVuSans-39"/>
     <path d="M 37.796875 64.3125 
L 12.890625 25.390625 
L 37.796875 25.390625 
z
M 35.203125 72.90625 
L 47.609375 72.90625 
L 47.609375 25.390625 
L 58.015625 25.390625 
L 58.015625 17.1875 
L 47.609375 17.1875 
L 47.609375 0 
L 37.796875 0 
L 37.796875 17.1875 
L 4.890625 17.1875 
L 4.890625 26.703125 
z
" id="DejaVuSans-34"/>
    </defs>
    <g transform="translate(69.12 38.928)scale(0.1 -0.1)">
     <use transform="translate(0 0.015625)" xlink:href="#DejaVuSans-46"/>
     <use transform="translate(57.519531 0.015625)" xlink:href="#DejaVuSans-69"/>
     <use transform="translate(85.302734 0.015625)" xlink:href="#DejaVuSans-74"/>
     <use transform="translate(124.511719 0.015625)" xlink:href="#DejaVuSans-3a"/>
     <use transform="translate(158.203125 0.015625)" xlink:href="#DejaVuSans-20"/>
     <use transform="translate(189.990234 0.015625)" xlink:href="#DejaVuSans-61"/>
     <use transform="translate(251.269531 0.015625)" xlink:href="#DejaVuSans-3d"/>
     <use transform="translate(335.058594 0.015625)" xlink:href="#DejaVuSans-35"/>
     <use transform="translate(398.681641 0.015625)" xlink:href="#DejaVuSans-2e"/>
     <use transform="translate(430.359375 0.015625)" xlink:href="#DejaVuSans-37"/>
     <use transform="translate(493.982422 0.015625)" xlink:href="#DejaVuSans-b1"/>
     <use transform="translate(577.771484 0.015625)" xlink:href="#DejaVuSans-31"/>
     <use transform="translate(641.394531 0.015625)" xlink:href="#DejaVuSans-2e"/>
     <use transform="translate(673.103516 0.015625)" xlink:href="#DejaVuSans-32"/>
     <use transform="translate(736.726562 0.015625)" xlink:href="#DejaVuSans-2c"/>
     <use transform="translate(768.513672 0.015625)" xlink:href="#DejaVuSans-20"/>
     <use transform="translate(800.300781 0.015625)" xlink:href="#DejaVuSans-62"/>
     <use transform="translate(863.777344 0.015625)" xlink:href="#DejaVuSans-3d"/>
     <use transform="translate(947.566406 0.015625)" xlink:href="#DejaVuSans-33"/>
     <use transform="translate(1011.189453 0.015625)" xlink:href="#DejaVuSans-2e"/>
     <use transform="translate(1042.976562 0.015625)" xlink:href="#DejaVuSans-39"/>
     <use transform="translate(1106.599609 0.015625)" xlink:href="#DejaVuSans-b1"/>
     <use transform="translate(1190.388672 0.015625)" xlink:href="#DejaVuSans-31"/>
     <use transform="translate(1254.011719 0.015625)" xlink:href="#DejaVuSans-2e"/>
     <use transform="translate(1285.720703 0.015625)" xlink:href="#DejaVuSans-32"/>
     <use transform="translate(1349.34375 0.015625)" xlink:href="#DejaVuSans-2c"/>
     <use transform="translate(1381.130859 0.015625)" xlink:href="#DejaVuSans-20"/>
     <use transform="translate(1412.917969 0.015625)" xlink:href="#DejaVuSans-78"/>
     <use transform="translate(1472.097656 0.015625)" xlink:href="#DejaVuSans-30"/>
     <use transform="translate(1535.720703 0.015625)" xlink:href="#DejaVuSans-3d"/>
     <use transform="translate(1619.509766 0.015625)" xlink:href="#DejaVuSans-34"/>
     <use transform="translate(1683.132812 0.015625)" xlink:href="#DejaVuSans-2e"/>
     <use transform="translate(1714.841797 0.015625)" xlink:href="#DejaVuSans-32"/>
     <use transform="translate(1778.464844 0.015625)" xlink:href="#DejaVuSans-37"/>
     <use transform="translate(1842.087891 0.015625)" xlink:href="#DejaVuSans-34"/>
     <use transform="translate(1905.710938 0.015625)" xlink:href="#DejaVuSans-b1"/>
     <use transform="translate(1989.5 0.015625)" xlink:href="#DejaVuSans-30"/>
     <use transform="translate(2053.123047 0.015625)" xlink:href="#DejaVuSans-2e"/>
     <use transform="translate(2084.910156 0.015625)" xlink:href="#DejaVuSans-30"/>
     <use transform="translate(2148.533203 0.015625)" xlink:href="#DejaVuSans-31"/>
     <use transform="translate(2212.15625 0.015625)" xlink:href="#DejaVuSans-34"/>
     <use transform="translate(2275.779297 0.015625)" xlink:href="#DejaVuSans-2c"/>
     <use transform="translate(2307.566406 0.015625)" xlink:href="#DejaVuSans-20"/>
     <use transform="translate(2339.353516 0.015625)" xlink:href="#DejaVuSans-77"/>
     <use transform="translate(2421.140625 0.015625)" xlink:href="#DejaVuSans-3d"/>
     <use transform="translate(2504.929688 0.015625)" xlink:href="#DejaVuSans-30"/>
     <use transform="translate(2568.552734 0.015625)" xlink:href="#DejaVuSans-2e"/>
     <use transform="translate(2600.339844 0.015625)" xlink:href="#DejaVuSans-31"/>
     <use transform="translate(2663.962891 0.015625)" xlink:href="#DejaVuSans-37"/>
     <use transform="translate(2727.585938 0.015625)" xlink:href="#DejaVuSans-b1"/>
     <use transform="translate(2811.375 0.015625)" xlink:href="#DejaVuSans-30"/>
     <use transform="translate(2874.998047 0.015625)" xlink:href="#DejaVuSans-2e"/>
     <use transform="translate(2906.785156 0.015625)" xlink:href="#DejaVuSans-30"/>
     <use transform="translate(2970.408203 0.015625)" xlink:href="#DejaVuSans-34"/>
     <use transform="translate(3034.03125 0.015625)" xlink:href="#DejaVuSans-32"/>
     <use transform="translate(3097.654297 0.015625)" xlink:href="#DejaVuSans-2c"/>
    </g>
   </g>
  </g>
  <g id="axes_2">
   <g id="patch_7">
    <path d="M 69.12 311.04 
L 414.72 311.04 
L 414.72 103.68 
L 69.12 103.68 
z
" style="fill:#ffffff;"/>
   </g>
   <g id="matplotlib.axis_3">
    <g id="xtick_8">
     <g id="line2d_13">
      <g>
       <use style="stroke:#000000;stroke-width:0.8;" x="92.155826" xlink:href="#m41e33e6e60" y="311.04"/>
      </g>
     </g>
     <g id="text_5">
      <!-- 3.9 -->
      <g transform="translate(80.228482 329.437656)scale(0.15 -0.15)">
       <use xlink:href="#DejaVuSans-33"/>
       <use x="63.623047" xlink:href="#DejaVuSans-2e"/>
       <use x="95.410156" xlink:href="#DejaVuSans-39"/>
      </g>
     </g>
    </g>
    <g id="xtick_9">
     <g id="line2d_14">
      <g>
       <use style="stroke:#000000;stroke-width:0.8;" x="143.386742" xlink:href="#m41e33e6e60" y="311.04"/>
      </g>
     </g>
     <g id="text_6">
      <!-- 4.0 -->
      <g transform="translate(131.459398 329.437656)scale(0.15 -0.15)">
       <use xlink:href="#DejaVuSans-34"/>
       <use x="63.623047" xlink:href="#DejaVuSans-2e"/>
       <use x="95.410156" xlink:href="#DejaVuSans-30"/>
      </g>
     </g>
    </g>
    <g id="xtick_10">
     <g id="line2d_15">
      <g>
       <use style="stroke:#000000;stroke-width:0.8;" x="194.617658" xlink:href="#m41e33e6e60" y="311.04"/>
      </g>
     </g>
     <g id="text_7">
      <!-- 4.1 -->
      <g transform="translate(182.690314 329.437656)scale(0.15 -0.15)">
       <use xlink:href="#DejaVuSans-34"/>
       <use x="63.623047" xlink:href="#DejaVuSans-2e"/>
       <use x="95.410156" xlink:href="#DejaVuSans-31"/>
      </g>
     </g>
    </g>
    <g id="xtick_11">
     <g id="line2d_16">
      <g>
       <use style="stroke:#000000;stroke-width:0.8;" x="245.848574" xlink:href="#m41e33e6e60" y="311.04"/>
      </g>
     </g>
     <g id="text_8">
      <!-- 4.2 -->
      <g transform="translate(233.92123 329.437656)scale(0.15 -0.15)">
       <use xlink:href="#DejaVuSans-34"/>
       <use x="63.623047" xlink:href="#DejaVuSans-2e"/>
       <use x="95.410156" xlink:href="#DejaVuSans-32"/>
      </g>
     </g>
    </g>
    <g id="xtick_12">
     <g id="line2d_17">
      <g>
       <use style="stroke:#000000;stroke-width:0.8;" x="297.07949" xlink:href="#m41e33e6e60" y="311.04"/>
      </g>
     </g>
     <g id="text_9">
      <!-- 4.3 -->
      <g transform="translate(285.152146 329.437656)scale(0.15 -0.15)">
       <use xlink:href="#DejaVuSans-34"/>
       <use x="63.623047" xlink:href="#DejaVuSans-2e"/>
       <use x="95.410156" xlink:href="#DejaVuSans-33"/>
      </g>
     </g>
    </g>
    <g id="xtick_13">
     <g id="line2d_18">
      <g>
       <use style="stroke:#000000;stroke-width:0.8;" x="348.310406" xlink:href="#m41e33e6e60" y="311.04"/>
      </g>
     </g>
     <g id="text_10">
      <!-- 4.4 -->
      <g transform="translate(336.383062 329.437656)scale(0.15 -0.15)">
       <use xlink:href="#DejaVuSans-34"/>
       <use x="63.623047" xlink:href="#DejaVuSans-2e"/>
       <use x="95.410156" xlink:href="#DejaVuSans-34"/>
      </g>
     </g>
    </g>
    <g id="xtick_14">
     <g id="line2d_19">
      <g>
       <use style="stroke:#000000;stroke-width:0.8;" x="399.541322" xlink:href="#m41e33e6e60" y="311.04"/>
      </g>
     </g>
     <g id="text_11">
      <!-- 4.5 -->
      <g transform="translate(387.613978 329.437656)scale(0.15 -0.15)">
       <use xlink:href="#DejaVuSans-34"/>
       <use x="63.623047" xlink:href="#DejaVuSans-2e"/>
       <use x="95.410156" xlink:href="#DejaVuSans-35"/>
      </g>
     </g>
    </g>
    <g id="text_12">
     <!-- Energy [MeV] -->
     <defs>
      <path d="M 9.8125 72.90625 
L 55.90625 72.90625 
L 55.90625 64.59375 
L 19.671875 64.59375 
L 19.671875 43.015625 
L 54.390625 43.015625 
L 54.390625 34.71875 
L 19.671875 34.71875 
L 19.671875 8.296875 
L 56.78125 8.296875 
L 56.78125 0 
L 9.8125 0 
z
" id="DejaVuSans-45"/>
      <path d="M 41.109375 46.296875 
Q 39.59375 47.171875 37.8125 47.578125 
Q 36.03125 48 33.890625 48 
Q 26.265625 48 22.1875 43.046875 
Q 18.109375 38.09375 18.109375 28.8125 
L 18.109375 0 
L 9.078125 0 
L 9.078125 54.6875 
L 18.109375 54.6875 
L 18.109375 46.1875 
Q 20.953125 51.171875 25.484375 53.578125 
Q 30.03125 56 36.53125 56 
Q 37.453125 56 38.578125 55.875 
Q 39.703125 55.765625 41.0625 55.515625 
z
" id="DejaVuSans-72"/>
      <path d="M 45.40625 27.984375 
Q 45.40625 37.75 41.375 43.109375 
Q 37.359375 48.484375 30.078125 48.484375 
Q 22.859375 48.484375 18.828125 43.109375 
Q 14.796875 37.75 14.796875 27.984375 
Q 14.796875 18.265625 18.828125 12.890625 
Q 22.859375 7.515625 30.078125 7.515625 
Q 37.359375 7.515625 41.375 12.890625 
Q 45.40625 18.265625 45.40625 27.984375 
z
M 54.390625 6.78125 
Q 54.390625 -7.171875 48.1875 -13.984375 
Q 42 -20.796875 29.203125 -20.796875 
Q 24.46875 -20.796875 20.265625 -20.09375 
Q 16.0625 -19.390625 12.109375 -17.921875 
L 12.109375 -9.1875 
Q 16.0625 -11.328125 19.921875 -12.34375 
Q 23.78125 -13.375 27.78125 -13.375 
Q 36.625 -13.375 41.015625 -8.765625 
Q 45.40625 -4.15625 45.40625 5.171875 
L 45.40625 9.625 
Q 42.625 4.78125 38.28125 2.390625 
Q 33.9375 0 27.875 0 
Q 17.828125 0 11.671875 7.65625 
Q 5.515625 15.328125 5.515625 27.984375 
Q 5.515625 40.671875 11.671875 48.328125 
Q 17.828125 56 27.875 56 
Q 33.9375 56 38.28125 53.609375 
Q 42.625 51.21875 45.40625 46.390625 
L 45.40625 54.6875 
L 54.390625 54.6875 
z
" id="DejaVuSans-67"/>
      <path d="M 8.59375 75.984375 
L 29.296875 75.984375 
L 29.296875 69 
L 17.578125 69 
L 17.578125 -6.203125 
L 29.296875 -6.203125 
L 29.296875 -13.1875 
L 8.59375 -13.1875 
z
" id="DejaVuSans-5b"/>
      <path d="M 9.8125 72.90625 
L 24.515625 72.90625 
L 43.109375 23.296875 
L 61.8125 72.90625 
L 76.515625 72.90625 
L 76.515625 0 
L 66.890625 0 
L 66.890625 64.015625 
L 48.09375 14.015625 
L 38.1875 14.015625 
L 19.390625 64.015625 
L 19.390625 0 
L 9.8125 0 
z
" id="DejaVuSans-4d"/>
      <path d="M 28.609375 0 
L 0.78125 72.90625 
L 11.078125 72.90625 
L 34.1875 11.53125 
L 57.328125 72.90625 
L 67.578125 72.90625 
L 39.796875 0 
z
" id="DejaVuSans-56"/>
      <path d="M 30.421875 75.984375 
L 30.421875 -13.1875 
L 9.71875 -13.1875 
L 9.71875 -6.203125 
L 21.390625 -6.203125 
L 21.390625 69 
L 9.71875 69 
L 9.71875 75.984375 
z
" id="DejaVuSans-5d"/>
     </defs>
     <g transform="translate(191.078203 347.954844)scale(0.15 -0.15)">
      <use xlink:href="#DejaVuSans-45"/>
      <use x="63.183594" xlink:href="#DejaVuSans-6e"/>
      <use x="126.5625" xlink:href="#DejaVuSans-65"/>
      <use x="188.085938" xlink:href="#DejaVuSans-72"/>
      <use x="229.183594" xlink:href="#DejaVuSans-67"/>
      <use x="292.660156" xlink:href="#DejaVuSans-79"/>
      <use x="351.839844" xlink:href="#DejaVuSans-20"/>
      <use x="383.626953" xlink:href="#DejaVuSans-5b"/>
      <use x="422.640625" xlink:href="#DejaVuSans-4d"/>
      <use x="508.919922" xlink:href="#DejaVuSans-65"/>
      <use x="570.443359" xlink:href="#DejaVuSans-56"/>
      <use x="638.851562" xlink:href="#DejaVuSans-5d"/>
     </g>
    </g>
   </g>
   <g id="matplotlib.axis_4">
    <g id="ytick_4">
     <g id="line2d_20">
      <g>
       <use style="stroke:#000000;stroke-width:0.8;" x="69.12" xlink:href="#m9bd80093d9" y="303.36"/>
      </g>
     </g>
     <g id="text_13">
      <!-- 4 -->
      <g transform="translate(52.57625 309.058828)scale(0.15 -0.15)">
       <use xlink:href="#DejaVuSans-34"/>
      </g>
     </g>
    </g>
    <g id="ytick_5">
     <g id="line2d_21">
      <g>
       <use style="stroke:#000000;stroke-width:0.8;" x="69.12" xlink:href="#m9bd80093d9" y="266.788571"/>
      </g>
     </g>
     <g id="text_14">
      <!-- 6 -->
      <defs>
       <path d="M 33.015625 40.375 
Q 26.375 40.375 22.484375 35.828125 
Q 18.609375 31.296875 18.609375 23.390625 
Q 18.609375 15.53125 22.484375 10.953125 
Q 26.375 6.390625 33.015625 6.390625 
Q 39.65625 6.390625 43.53125 10.953125 
Q 47.40625 15.53125 47.40625 23.390625 
Q 47.40625 31.296875 43.53125 35.828125 
Q 39.65625 40.375 33.015625 40.375 
z
M 52.59375 71.296875 
L 52.59375 62.3125 
Q 48.875 64.0625 45.09375 64.984375 
Q 41.3125 65.921875 37.59375 65.921875 
Q 27.828125 65.921875 22.671875 59.328125 
Q 17.53125 52.734375 16.796875 39.40625 
Q 19.671875 43.65625 24.015625 45.921875 
Q 28.375 48.1875 33.59375 48.1875 
Q 44.578125 48.1875 50.953125 41.515625 
Q 57.328125 34.859375 57.328125 23.390625 
Q 57.328125 12.15625 50.6875 5.359375 
Q 44.046875 -1.421875 33.015625 -1.421875 
Q 20.359375 -1.421875 13.671875 8.265625 
Q 6.984375 17.96875 6.984375 36.375 
Q 6.984375 53.65625 15.1875 63.9375 
Q 23.390625 74.21875 37.203125 74.21875 
Q 40.921875 74.21875 44.703125 73.484375 
Q 48.484375 72.75 52.59375 71.296875 
z
" id="DejaVuSans-36"/>
      </defs>
      <g transform="translate(52.57625 272.4874)scale(0.15 -0.15)">
       <use xlink:href="#DejaVuSans-36"/>
      </g>
     </g>
    </g>
    <g id="ytick_6">
     <g id="line2d_22">
      <g>
       <use style="stroke:#000000;stroke-width:0.8;" x="69.12" xlink:href="#m9bd80093d9" y="230.217143"/>
      </g>
     </g>
     <g id="text_15">
      <!-- 8 -->
      <defs>
       <path d="M 31.78125 34.625 
Q 24.75 34.625 20.71875 30.859375 
Q 16.703125 27.09375 16.703125 20.515625 
Q 16.703125 13.921875 20.71875 10.15625 
Q 24.75 6.390625 31.78125 6.390625 
Q 38.8125 6.390625 42.859375 10.171875 
Q 46.921875 13.96875 46.921875 20.515625 
Q 46.921875 27.09375 42.890625 30.859375 
Q 38.875 34.625 31.78125 34.625 
z
M 21.921875 38.8125 
Q 15.578125 40.375 12.03125 44.71875 
Q 8.5 49.078125 8.5 55.328125 
Q 8.5 64.0625 14.71875 69.140625 
Q 20.953125 74.21875 31.78125 74.21875 
Q 42.671875 74.21875 48.875 69.140625 
Q 55.078125 64.0625 55.078125 55.328125 
Q 55.078125 49.078125 51.53125 44.71875 
Q 48 40.375 41.703125 38.8125 
Q 48.828125 37.15625 52.796875 32.3125 
Q 56.78125 27.484375 56.78125 20.515625 
Q 56.78125 9.90625 50.3125 4.234375 
Q 43.84375 -1.421875 31.78125 -1.421875 
Q 19.734375 -1.421875 13.25 4.234375 
Q 6.78125 9.90625 6.78125 20.515625 
Q 6.78125 27.484375 10.78125 32.3125 
Q 14.796875 37.15625 21.921875 38.8125 
z
M 18.3125 54.390625 
Q 18.3125 48.734375 21.84375 45.5625 
Q 25.390625 42.390625 31.78125 42.390625 
Q 38.140625 42.390625 41.71875 45.5625 
Q 45.3125 48.734375 45.3125 54.390625 
Q 45.3125 60.0625 41.71875 63.234375 
Q 38.140625 66.40625 31.78125 66.40625 
Q 25.390625 66.40625 21.84375 63.234375 
Q 18.3125 60.0625 18.3125 54.390625 
z
" id="DejaVuSans-38"/>
      </defs>
      <g transform="translate(52.57625 235.915971)scale(0.15 -0.15)">
       <use xlink:href="#DejaVuSans-38"/>
      </g>
     </g>
    </g>
    <g id="ytick_7">
     <g id="line2d_23">
      <g>
       <use style="stroke:#000000;stroke-width:0.8;" x="69.12" xlink:href="#m9bd80093d9" y="193.645714"/>
      </g>
     </g>
     <g id="text_16">
      <!-- 10 -->
      <g transform="translate(43.0325 199.344542)scale(0.15 -0.15)">
       <use xlink:href="#DejaVuSans-31"/>
       <use x="63.623047" xlink:href="#DejaVuSans-30"/>
      </g>
     </g>
    </g>
    <g id="ytick_8">
     <g id="line2d_24">
      <g>
       <use style="stroke:#000000;stroke-width:0.8;" x="69.12" xlink:href="#m9bd80093d9" y="157.074286"/>
      </g>
     </g>
     <g id="text_17">
      <!-- 12 -->
      <g transform="translate(43.0325 162.773114)scale(0.15 -0.15)">
       <use xlink:href="#DejaVuSans-31"/>
       <use x="63.623047" xlink:href="#DejaVuSans-32"/>
      </g>
     </g>
    </g>
    <g id="ytick_9">
     <g id="line2d_25">
      <g>
       <use style="stroke:#000000;stroke-width:0.8;" x="69.12" xlink:href="#m9bd80093d9" y="120.502857"/>
      </g>
     </g>
     <g id="text_18">
      <!-- 14 -->
      <g transform="translate(43.0325 126.201685)scale(0.15 -0.15)">
       <use xlink:href="#DejaVuSans-31"/>
       <use x="63.623047" xlink:href="#DejaVuSans-34"/>
      </g>
     </g>
    </g>
    <g id="text_19">
     <!-- Counts -->
     <defs>
      <path d="M 64.40625 67.28125 
L 64.40625 56.890625 
Q 59.421875 61.53125 53.78125 63.8125 
Q 48.140625 66.109375 41.796875 66.109375 
Q 29.296875 66.109375 22.65625 58.46875 
Q 16.015625 50.828125 16.015625 36.375 
Q 16.015625 21.96875 22.65625 14.328125 
Q 29.296875 6.6875 41.796875 6.6875 
Q 48.140625 6.6875 53.78125 8.984375 
Q 59.421875 11.28125 64.40625 15.921875 
L 64.40625 5.609375 
Q 59.234375 2.09375 53.4375 0.328125 
Q 47.65625 -1.421875 41.21875 -1.421875 
Q 24.65625 -1.421875 15.125 8.703125 
Q 5.609375 18.84375 5.609375 36.375 
Q 5.609375 53.953125 15.125 64.078125 
Q 24.65625 74.21875 41.21875 74.21875 
Q 47.75 74.21875 53.53125 72.484375 
Q 59.328125 70.75 64.40625 67.28125 
z
" id="DejaVuSans-43"/>
     </defs>
     <g transform="translate(35.912969 233.539687)rotate(-90)scale(0.15 -0.15)">
      <use xlink:href="#DejaVuSans-43"/>
      <use x="69.824219" xlink:href="#DejaVuSans-6f"/>
      <use x="131.005859" xlink:href="#DejaVuSans-75"/>
      <use x="194.384766" xlink:href="#DejaVuSans-6e"/>
      <use x="257.763672" xlink:href="#DejaVuSans-74"/>
      <use x="296.972656" xlink:href="#DejaVuSans-73"/>
     </g>
    </g>
   </g>
   <g id="LineCollection_2">
    <path clip-path="url(#p12e70aff66)" d="M 81.92 325.962386 
L 81.92 244.186186 
" style="fill:none;stroke:#0000ff;stroke-width:1.5;"/>
    <path clip-path="url(#p12e70aff66)" d="M 115.44381 333.007001 
L 115.44381 255.427285 
" style="fill:none;stroke:#0000ff;stroke-width:1.5;"/>
    <path clip-path="url(#p12e70aff66)" d="M 121.539048 339.931429 
L 121.539048 266.788571 
" style="fill:none;stroke:#0000ff;stroke-width:1.5;"/>
    <path clip-path="url(#p12e70aff66)" d="M 127.634286 333.007001 
L 127.634286 255.427285 
" style="fill:none;stroke:#0000ff;stroke-width:1.5;"/>
    <path clip-path="url(#p12e70aff66)" d="M 164.205714 325.962386 
L 164.205714 244.186186 
" style="fill:none;stroke:#0000ff;stroke-width:1.5;"/>
    <path clip-path="url(#p12e70aff66)" d="M 167.253333 318.81523 
L 167.253333 233.047627 
" style="fill:none;stroke:#0000ff;stroke-width:1.5;"/>
    <path clip-path="url(#p12e70aff66)" d="M 173.348571 339.931429 
L 173.348571 266.788571 
" style="fill:none;stroke:#0000ff;stroke-width:1.5;"/>
    <path clip-path="url(#p12e70aff66)" d="M 179.44381 311.579241 
L 179.44381 221.997902 
" style="fill:none;stroke:#0000ff;stroke-width:1.5;"/>
    <path clip-path="url(#p12e70aff66)" d="M 188.586667 333.007001 
L 188.586667 255.427285 
" style="fill:none;stroke:#0000ff;stroke-width:1.5;"/>
    <path clip-path="url(#p12e70aff66)" d="M 191.634286 311.579241 
L 191.634286 221.997902 
" style="fill:none;stroke:#0000ff;stroke-width:1.5;"/>
    <path clip-path="url(#p12e70aff66)" d="M 197.729524 318.81523 
L 197.729524 233.047627 
" style="fill:none;stroke:#0000ff;stroke-width:1.5;"/>
    <path clip-path="url(#p12e70aff66)" d="M 200.777143 325.962386 
L 200.777143 244.186186 
" style="fill:none;stroke:#0000ff;stroke-width:1.5;"/>
    <path clip-path="url(#p12e70aff66)" d="M 203.824762 281.936953 
L 203.824762 178.497333 
" style="fill:none;stroke:#0000ff;stroke-width:1.5;"/>
    <path clip-path="url(#p12e70aff66)" d="M 206.872381 325.962386 
L 206.872381 244.186186 
" style="fill:none;stroke:#0000ff;stroke-width:1.5;"/>
    <path clip-path="url(#p12e70aff66)" d="M 209.92 304.265321 
L 209.92 211.026107 
" style="fill:none;stroke:#0000ff;stroke-width:1.5;"/>
    <path clip-path="url(#p12e70aff66)" d="M 212.967619 274.385846 
L 212.967619 167.762726 
" style="fill:none;stroke:#0000ff;stroke-width:1.5;"/>
    <path clip-path="url(#p12e70aff66)" d="M 216.015238 296.88231 
L 216.015238 200.123405 
" style="fill:none;stroke:#0000ff;stroke-width:1.5;"/>
    <path clip-path="url(#p12e70aff66)" d="M 219.062857 274.385846 
L 219.062857 167.762726 
" style="fill:none;stroke:#0000ff;stroke-width:1.5;"/>
    <path clip-path="url(#p12e70aff66)" d="M 222.110476 274.385846 
L 222.110476 167.762726 
" style="fill:none;stroke:#0000ff;stroke-width:1.5;"/>
    <path clip-path="url(#p12e70aff66)" d="M 225.158095 220.417858 
L 225.158095 93.730713 
" style="fill:none;stroke:#0000ff;stroke-width:1.5;"/>
    <path clip-path="url(#p12e70aff66)" d="M 228.205714 281.936953 
L 228.205714 178.497333 
" style="fill:none;stroke:#0000ff;stroke-width:1.5;"/>
    <path clip-path="url(#p12e70aff66)" d="M 231.253333 296.88231 
L 231.253333 200.123405 
" style="fill:none;stroke:#0000ff;stroke-width:1.5;"/>
    <path clip-path="url(#p12e70aff66)" d="M 234.300952 289.437491 
L 234.300952 189.282509 
" style="fill:none;stroke:#0000ff;stroke-width:1.5;"/>
    <path clip-path="url(#p12e70aff66)" d="M 237.348571 281.936953 
L 237.348571 178.497333 
" style="fill:none;stroke:#0000ff;stroke-width:1.5;"/>
    <path clip-path="url(#p12e70aff66)" d="M 240.39619 220.417858 
L 240.39619 93.730713 
" style="fill:none;stroke:#0000ff;stroke-width:1.5;"/>
    <path clip-path="url(#p12e70aff66)" d="M 243.44381 236.006853 
L 243.44381 114.713147 
" style="fill:none;stroke:#0000ff;stroke-width:1.5;"/>
    <path clip-path="url(#p12e70aff66)" d="M 246.491429 220.417858 
L 246.491429 93.730713 
" style="fill:none;stroke:#0000ff;stroke-width:1.5;"/>
    <path clip-path="url(#p12e70aff66)" d="M 249.539048 304.265321 
L 249.539048 211.026107 
" style="fill:none;stroke:#0000ff;stroke-width:1.5;"/>
    <path clip-path="url(#p12e70aff66)" d="M 252.586667 243.755344 
L 252.586667 125.250371 
" style="fill:none;stroke:#0000ff;stroke-width:1.5;"/>
    <path clip-path="url(#p12e70aff66)" d="M 255.634286 259.148928 
L 255.634286 146.428215 
" style="fill:none;stroke:#0000ff;stroke-width:1.5;"/>
    <path clip-path="url(#p12e70aff66)" d="M 258.681905 220.417858 
L 258.681905 93.730713 
" style="fill:none;stroke:#0000ff;stroke-width:1.5;"/>
    <path clip-path="url(#p12e70aff66)" d="M 261.729524 304.265321 
L 261.729524 211.026107 
" style="fill:none;stroke:#0000ff;stroke-width:1.5;"/>
    <path clip-path="url(#p12e70aff66)" d="M 264.777143 311.579241 
L 264.777143 221.997902 
" style="fill:none;stroke:#0000ff;stroke-width:1.5;"/>
    <path clip-path="url(#p12e70aff66)" d="M 267.824762 296.88231 
L 267.824762 200.123405 
" style="fill:none;stroke:#0000ff;stroke-width:1.5;"/>
    <path clip-path="url(#p12e70aff66)" d="M 270.872381 228.227017 
L 270.872381 104.207269 
" style="fill:none;stroke:#0000ff;stroke-width:1.5;"/>
    <path clip-path="url(#p12e70aff66)" d="M 273.92 259.148928 
L 273.92 146.428215 
" style="fill:none;stroke:#0000ff;stroke-width:1.5;"/>
    <path clip-path="url(#p12e70aff66)" d="M 276.967619 274.385846 
L 276.967619 167.762726 
" style="fill:none;stroke:#0000ff;stroke-width:1.5;"/>
    <path clip-path="url(#p12e70aff66)" d="M 280.015238 266.788571 
L 280.015238 157.074286 
" style="fill:none;stroke:#0000ff;stroke-width:1.5;"/>
    <path clip-path="url(#p12e70aff66)" d="M 283.062857 266.788571 
L 283.062857 157.074286 
" style="fill:none;stroke:#0000ff;stroke-width:1.5;"/>
    <path clip-path="url(#p12e70aff66)" d="M 286.110476 251.47022 
L 286.110476 135.821208 
" style="fill:none;stroke:#0000ff;stroke-width:1.5;"/>
    <path clip-path="url(#p12e70aff66)" d="M 289.158095 204.718652 
L 289.158095 72.858491 
" style="fill:none;stroke:#0000ff;stroke-width:1.5;"/>
    <path clip-path="url(#p12e70aff66)" d="M 292.205714 243.755344 
L 292.205714 125.250371 
" style="fill:none;stroke:#0000ff;stroke-width:1.5;"/>
    <path clip-path="url(#p12e70aff66)" d="M 295.253333 274.385846 
L 295.253333 167.762726 
" style="fill:none;stroke:#0000ff;stroke-width:1.5;"/>
    <path clip-path="url(#p12e70aff66)" d="M 298.300952 274.385846 
L 298.300952 167.762726 
" style="fill:none;stroke:#0000ff;stroke-width:1.5;"/>
    <path clip-path="url(#p12e70aff66)" d="M 301.348571 296.88231 
L 301.348571 200.123405 
" style="fill:none;stroke:#0000ff;stroke-width:1.5;"/>
    <path clip-path="url(#p12e70aff66)" d="M 304.39619 259.148928 
L 304.39619 146.428215 
" style="fill:none;stroke:#0000ff;stroke-width:1.5;"/>
    <path clip-path="url(#p12e70aff66)" d="M 307.44381 180.989926 
L 307.44381 41.730074 
" style="fill:none;stroke:#0000ff;stroke-width:1.5;"/>
    <path clip-path="url(#p12e70aff66)" d="M 310.491429 281.936953 
L 310.491429 178.497333 
" style="fill:none;stroke:#0000ff;stroke-width:1.5;"/>
    <path clip-path="url(#p12e70aff66)" d="M 313.539048 266.788571 
L 313.539048 157.074286 
" style="fill:none;stroke:#0000ff;stroke-width:1.5;"/>
    <path clip-path="url(#p12e70aff66)" d="M 316.586667 204.718652 
L 316.586667 72.858491 
" style="fill:none;stroke:#0000ff;stroke-width:1.5;"/>
    <path clip-path="url(#p12e70aff66)" d="M 319.634286 243.755344 
L 319.634286 125.250371 
" style="fill:none;stroke:#0000ff;stroke-width:1.5;"/>
    <path clip-path="url(#p12e70aff66)" d="M 322.681905 204.718652 
L 322.681905 72.858491 
" style="fill:none;stroke:#0000ff;stroke-width:1.5;"/>
    <path clip-path="url(#p12e70aff66)" d="M 325.729524 311.579241 
L 325.729524 221.997902 
" style="fill:none;stroke:#0000ff;stroke-width:1.5;"/>
    <path clip-path="url(#p12e70aff66)" d="M 328.777143 289.437491 
L 328.777143 189.282509 
" style="fill:none;stroke:#0000ff;stroke-width:1.5;"/>
    <path clip-path="url(#p12e70aff66)" d="M 331.824762 274.385846 
L 331.824762 167.762726 
" style="fill:none;stroke:#0000ff;stroke-width:1.5;"/>
    <path clip-path="url(#p12e70aff66)" d="M 334.872381 289.437491 
L 334.872381 189.282509 
" style="fill:none;stroke:#0000ff;stroke-width:1.5;"/>
    <path clip-path="url(#p12e70aff66)" d="M 337.92 304.265321 
L 337.92 211.026107 
" style="fill:none;stroke:#0000ff;stroke-width:1.5;"/>
    <path clip-path="url(#p12e70aff66)" d="M 340.967619 243.755344 
L 340.967619 125.250371 
" style="fill:none;stroke:#0000ff;stroke-width:1.5;"/>
    <path clip-path="url(#p12e70aff66)" d="M 344.015238 281.936953 
L 344.015238 178.497333 
" style="fill:none;stroke:#0000ff;stroke-width:1.5;"/>
    <path clip-path="url(#p12e70aff66)" d="M 347.062857 281.936953 
L 347.062857 178.497333 
" style="fill:none;stroke:#0000ff;stroke-width:1.5;"/>
    <path clip-path="url(#p12e70aff66)" d="M 350.110476 236.006853 
L 350.110476 114.713147 
" style="fill:none;stroke:#0000ff;stroke-width:1.5;"/>
    <path clip-path="url(#p12e70aff66)" d="M 353.158095 259.148928 
L 353.158095 146.428215 
" style="fill:none;stroke:#0000ff;stroke-width:1.5;"/>
    <path clip-path="url(#p12e70aff66)" d="M 356.205714 318.81523 
L 356.205714 233.047627 
" style="fill:none;stroke:#0000ff;stroke-width:1.5;"/>
    <path clip-path="url(#p12e70aff66)" d="M 359.253333 296.88231 
L 359.253333 200.123405 
" style="fill:none;stroke:#0000ff;stroke-width:1.5;"/>
    <path clip-path="url(#p12e70aff66)" d="M 362.300952 289.437491 
L 362.300952 189.282509 
" style="fill:none;stroke:#0000ff;stroke-width:1.5;"/>
    <path clip-path="url(#p12e70aff66)" d="M 365.348571 333.007001 
L 365.348571 255.427285 
" style="fill:none;stroke:#0000ff;stroke-width:1.5;"/>
    <path clip-path="url(#p12e70aff66)" d="M 368.39619 311.579241 
L 368.39619 221.997902 
" style="fill:none;stroke:#0000ff;stroke-width:1.5;"/>
    <path clip-path="url(#p12e70aff66)" d="M 371.44381 304.265321 
L 371.44381 211.026107 
" style="fill:none;stroke:#0000ff;stroke-width:1.5;"/>
    <path clip-path="url(#p12e70aff66)" d="M 374.491429 339.931429 
L 374.491429 266.788571 
" style="fill:none;stroke:#0000ff;stroke-width:1.5;"/>
    <path clip-path="url(#p12e70aff66)" d="M 377.539048 325.962386 
L 377.539048 244.186186 
" style="fill:none;stroke:#0000ff;stroke-width:1.5;"/>
    <path clip-path="url(#p12e70aff66)" d="M 380.586667 296.88231 
L 380.586667 200.123405 
" style="fill:none;stroke:#0000ff;stroke-width:1.5;"/>
    <path clip-path="url(#p12e70aff66)" d="M 386.681905 318.81523 
L 386.681905 233.047627 
" style="fill:none;stroke:#0000ff;stroke-width:1.5;"/>
    <path clip-path="url(#p12e70aff66)" d="M 398.872381 339.931429 
L 398.872381 266.788571 
" style="fill:none;stroke:#0000ff;stroke-width:1.5;"/>
    <path clip-path="url(#p12e70aff66)" d="M 401.92 339.931429 
L 401.92 266.788571 
" style="fill:none;stroke:#0000ff;stroke-width:1.5;"/>
   </g>
   <g id="line2d_26">
    <path clip-path="url(#p12e70aff66)" d="M 81.92 304.654126 
L 94.092172 304.2332 
L 104.022102 303.671138 
L 112.35043 302.980716 
L 119.717798 302.14867 
L 126.444525 301.161147 
L 132.530611 300.041695 
L 138.296376 298.749501 
L 143.741822 297.292925 
L 148.866947 295.687699 
L 153.671752 293.956336 
L 158.476557 291.988199 
L 163.281361 289.767686 
L 167.765846 287.45574 
L 172.25033 284.90391 
L 176.734815 282.106619 
L 181.53962 278.834726 
L 186.344424 275.280907 
L 191.149229 271.453292 
L 196.274354 267.085204 
L 201.7198 262.150448 
L 207.805886 256.329402 
L 215.173253 248.960077 
L 238.236316 225.630621 
L 243.681762 220.590442 
L 248.166246 216.723237 
L 252.33041 213.412251 
L 256.174254 210.631768 
L 259.697778 208.34211 
L 263.221301 206.322221 
L 266.424505 204.736108 
L 269.627708 203.401199 
L 272.510591 202.423387 
L 275.393473 201.664042 
L 278.276356 201.12813 
L 281.159239 200.819168 
L 284.042122 200.73919 
L 286.925005 200.888725 
L 289.807888 201.266786 
L 292.690771 201.870887 
L 295.573654 202.697064 
L 298.456537 203.739926 
L 301.65974 205.144524 
L 304.862943 206.797093 
L 308.386466 208.885773 
L 311.90999 211.23915 
L 315.753834 214.082777 
L 319.917998 217.454076 
L 324.402482 221.376265 
L 329.527608 226.160817 
L 335.934014 232.472898 
L 345.863944 242.630699 
L 357.395475 254.349467 
L 364.122202 260.867782 
L 369.887968 266.158092 
L 375.333413 270.850736 
L 380.458539 274.96703 
L 385.263343 278.54445 
L 390.068148 281.840399 
L 394.872953 284.852099 
L 399.357437 287.408638 
L 401.92 288.761275 
L 401.92 288.761275 
" style="fill:none;stroke:#ff0000;stroke-linecap:square;stroke-width:1.5;"/>
   </g>
   <g id="line2d_27">
    <g clip-path="url(#p12e70aff66)">
     <use style="fill:#0000ff;stroke:#0000ff;" x="81.92" xlink:href="#mff042f8ea3" y="285.074286"/>
     <use style="fill:#0000ff;stroke:#0000ff;" x="115.44381" xlink:href="#mff042f8ea3" y="294.217143"/>
     <use style="fill:#0000ff;stroke:#0000ff;" x="121.539048" xlink:href="#mff042f8ea3" y="303.36"/>
     <use style="fill:#0000ff;stroke:#0000ff;" x="127.634286" xlink:href="#mff042f8ea3" y="294.217143"/>
     <use style="fill:#0000ff;stroke:#0000ff;" x="164.205714" xlink:href="#mff042f8ea3" y="285.074286"/>
     <use style="fill:#0000ff;stroke:#0000ff;" x="167.253333" xlink:href="#mff042f8ea3" y="275.931429"/>
     <use style="fill:#0000ff;stroke:#0000ff;" x="173.348571" xlink:href="#mff042f8ea3" y="303.36"/>
     <use style="fill:#0000ff;stroke:#0000ff;" x="179.44381" xlink:href="#mff042f8ea3" y="266.788571"/>
     <use style="fill:#0000ff;stroke:#0000ff;" x="188.586667" xlink:href="#mff042f8ea3" y="294.217143"/>
     <use style="fill:#0000ff;stroke:#0000ff;" x="191.634286" xlink:href="#mff042f8ea3" y="266.788571"/>
     <use style="fill:#0000ff;stroke:#0000ff;" x="197.729524" xlink:href="#mff042f8ea3" y="275.931429"/>
     <use style="fill:#0000ff;stroke:#0000ff;" x="200.777143" xlink:href="#mff042f8ea3" y="285.074286"/>
     <use style="fill:#0000ff;stroke:#0000ff;" x="203.824762" xlink:href="#mff042f8ea3" y="230.217143"/>
     <use style="fill:#0000ff;stroke:#0000ff;" x="206.872381" xlink:href="#mff042f8ea3" y="285.074286"/>
     <use style="fill:#0000ff;stroke:#0000ff;" x="209.92" xlink:href="#mff042f8ea3" y="257.645714"/>
     <use style="fill:#0000ff;stroke:#0000ff;" x="212.967619" xlink:href="#mff042f8ea3" y="221.074286"/>
     <use style="fill:#0000ff;stroke:#0000ff;" x="216.015238" xlink:href="#mff042f8ea3" y="248.502857"/>
     <use style="fill:#0000ff;stroke:#0000ff;" x="219.062857" xlink:href="#mff042f8ea3" y="221.074286"/>
     <use style="fill:#0000ff;stroke:#0000ff;" x="222.110476" xlink:href="#mff042f8ea3" y="221.074286"/>
     <use style="fill:#0000ff;stroke:#0000ff;" x="225.158095" xlink:href="#mff042f8ea3" y="157.074286"/>
     <use style="fill:#0000ff;stroke:#0000ff;" x="228.205714" xlink:href="#mff042f8ea3" y="230.217143"/>
     <use style="fill:#0000ff;stroke:#0000ff;" x="231.253333" xlink:href="#mff042f8ea3" y="248.502857"/>
     <use style="fill:#0000ff;stroke:#0000ff;" x="234.300952" xlink:href="#mff042f8ea3" y="239.36"/>
     <use style="fill:#0000ff;stroke:#0000ff;" x="237.348571" xlink:href="#mff042f8ea3" y="230.217143"/>
     <use style="fill:#0000ff;stroke:#0000ff;" x="240.39619" xlink:href="#mff042f8ea3" y="157.074286"/>
     <use style="fill:#0000ff;stroke:#0000ff;" x="243.44381" xlink:href="#mff042f8ea3" y="175.36"/>
     <use style="fill:#0000ff;stroke:#0000ff;" x="246.491429" xlink:href="#mff042f8ea3" y="157.074286"/>
     <use style="fill:#0000ff;stroke:#0000ff;" x="249.539048" xlink:href="#mff042f8ea3" y="257.645714"/>
     <use style="fill:#0000ff;stroke:#0000ff;" x="252.586667" xlink:href="#mff042f8ea3" y="184.502857"/>
     <use style="fill:#0000ff;stroke:#0000ff;" x="255.634286" xlink:href="#mff042f8ea3" y="202.788571"/>
     <use style="fill:#0000ff;stroke:#0000ff;" x="258.681905" xlink:href="#mff042f8ea3" y="157.074286"/>
     <use style="fill:#0000ff;stroke:#0000ff;" x="261.729524" xlink:href="#mff042f8ea3" y="257.645714"/>
     <use style="fill:#0000ff;stroke:#0000ff;" x="264.777143" xlink:href="#mff042f8ea3" y="266.788571"/>
     <use style="fill:#0000ff;stroke:#0000ff;" x="267.824762" xlink:href="#mff042f8ea3" y="248.502857"/>
     <use style="fill:#0000ff;stroke:#0000ff;" x="270.872381" xlink:href="#mff042f8ea3" y="166.217143"/>
     <use style="fill:#0000ff;stroke:#0000ff;" x="273.92" xlink:href="#mff042f8ea3" y="202.788571"/>
     <use style="fill:#0000ff;stroke:#0000ff;" x="276.967619" xlink:href="#mff042f8ea3" y="221.074286"/>
     <use style="fill:#0000ff;stroke:#0000ff;" x="280.015238" xlink:href="#mff042f8ea3" y="211.931429"/>
     <use style="fill:#0000ff;stroke:#0000ff;" x="283.062857" xlink:href="#mff042f8ea3" y="211.931429"/>
     <use style="fill:#0000ff;stroke:#0000ff;" x="286.110476" xlink:href="#mff042f8ea3" y="193.645714"/>
     <use style="fill:#0000ff;stroke:#0000ff;" x="289.158095" xlink:href="#mff042f8ea3" y="138.788571"/>
     <use style="fill:#0000ff;stroke:#0000ff;" x="292.205714" xlink:href="#mff042f8ea3" y="184.502857"/>
     <use style="fill:#0000ff;stroke:#0000ff;" x="295.253333" xlink:href="#mff042f8ea3" y="221.074286"/>
     <use style="fill:#0000ff;stroke:#0000ff;" x="298.300952" xlink:href="#mff042f8ea3" y="221.074286"/>
     <use style="fill:#0000ff;stroke:#0000ff;" x="301.348571" xlink:href="#mff042f8ea3" y="248.502857"/>
     <use style="fill:#0000ff;stroke:#0000ff;" x="304.39619" xlink:href="#mff042f8ea3" y="202.788571"/>
     <use style="fill:#0000ff;stroke:#0000ff;" x="307.44381" xlink:href="#mff042f8ea3" y="111.36"/>
     <use style="fill:#0000ff;stroke:#0000ff;" x="310.491429" xlink:href="#mff042f8ea3" y="230.217143"/>
     <use style="fill:#0000ff;stroke:#0000ff;" x="313.539048" xlink:href="#mff042f8ea3" y="211.931429"/>
     <use style="fill:#0000ff;stroke:#0000ff;" x="316.586667" xlink:href="#mff042f8ea3" y="138.788571"/>
     <use style="fill:#0000ff;stroke:#0000ff;" x="319.634286" xlink:href="#mff042f8ea3" y="184.502857"/>
     <use style="fill:#0000ff;stroke:#0000ff;" x="322.681905" xlink:href="#mff042f8ea3" y="138.788571"/>
     <use style="fill:#0000ff;stroke:#0000ff;" x="325.729524" xlink:href="#mff042f8ea3" y="266.788571"/>
     <use style="fill:#0000ff;stroke:#0000ff;" x="328.777143" xlink:href="#mff042f8ea3" y="239.36"/>
     <use style="fill:#0000ff;stroke:#0000ff;" x="331.824762" xlink:href="#mff042f8ea3" y="221.074286"/>
     <use style="fill:#0000ff;stroke:#0000ff;" x="334.872381" xlink:href="#mff042f8ea3" y="239.36"/>
     <use style="fill:#0000ff;stroke:#0000ff;" x="337.92" xlink:href="#mff042f8ea3" y="257.645714"/>
     <use style="fill:#0000ff;stroke:#0000ff;" x="340.967619" xlink:href="#mff042f8ea3" y="184.502857"/>
     <use style="fill:#0000ff;stroke:#0000ff;" x="344.015238" xlink:href="#mff042f8ea3" y="230.217143"/>
     <use style="fill:#0000ff;stroke:#0000ff;" x="347.062857" xlink:href="#mff042f8ea3" y="230.217143"/>
     <use style="fill:#0000ff;stroke:#0000ff;" x="350.110476" xlink:href="#mff042f8ea3" y="175.36"/>
     <use style="fill:#0000ff;stroke:#0000ff;" x="353.158095" xlink:href="#mff042f8ea3" y="202.788571"/>
     <use style="fill:#0000ff;stroke:#0000ff;" x="356.205714" xlink:href="#mff042f8ea3" y="275.931429"/>
     <use style="fill:#0000ff;stroke:#0000ff;" x="359.253333" xlink:href="#mff042f8ea3" y="248.502857"/>
     <use style="fill:#0000ff;stroke:#0000ff;" x="362.300952" xlink:href="#mff042f8ea3" y="239.36"/>
     <use style="fill:#0000ff;stroke:#0000ff;" x="365.348571" xlink:href="#mff042f8ea3" y="294.217143"/>
     <use style="fill:#0000ff;stroke:#0000ff;" x="368.39619" xlink:href="#mff042f8ea3" y="266.788571"/>
     <use style="fill:#0000ff;stroke:#0000ff;" x="371.44381" xlink:href="#mff042f8ea3" y="257.645714"/>
     <use style="fill:#0000ff;stroke:#0000ff;" x="374.491429" xlink:href="#mff042f8ea3" y="303.36"/>
     <use style="fill:#0000ff;stroke:#0000ff;" x="377.539048" xlink:href="#mff042f8ea3" y="285.074286"/>
     <use style="fill:#0000ff;stroke:#0000ff;" x="380.586667" xlink:href="#mff042f8ea3" y="248.502857"/>
     <use style="fill:#0000ff;stroke:#0000ff;" x="386.681905" xlink:href="#mff042f8ea3" y="275.931429"/>
     <use style="fill:#0000ff;stroke:#0000ff;" x="398.872381" xlink:href="#mff042f8ea3" y="303.36"/>
     <use style="fill:#0000ff;stroke:#0000ff;" x="401.92" xlink:href="#mff042f8ea3" y="303.36"/>
    </g>
   </g>
   <g id="patch_8">
    <path d="M 69.12 311.04 
L 69.12 103.68 
" style="fill:none;stroke:#000000;stroke-linecap:square;stroke-linejoin:miter;stroke-width:0.8;"/>
   </g>
   <g id="patch_9">
    <path d="M 414.72 311.04 
L 414.72 103.68 
" style="fill:none;stroke:#000000;stroke-linecap:square;stroke-linejoin:miter;stroke-width:0.8;"/>
   </g>
   <g id="patch_10">
    <path d="M 69.12 311.04 
L 414.72 311.04 
" style="fill:none;stroke:#000000;stroke-linecap:square;stroke-linejoin:miter;stroke-width:0.8;"/>
   </g>
   <g id="patch_11">
    <path d="M 69.12 103.68 
L 414.72 103.68 
" style="fill:none;stroke:#000000;stroke-linecap:square;stroke-linejoin:miter;stroke-width:0.8;"/>
   </g>
  </g>
 </g>
 <defs>
  <clipPath id="p316325af9b">
   <rect height="51.84" width="345.6" x="69.12" y="44.928"/>
  </clipPath>
  <clipPath id="p12e70aff66">
   <rect height="207.36" width="345.6" x="69.12" y="103.68"/>
  </clipPath>
 </defs>
</svg>
