<?xml version="1.0" encoding="utf-8" standalone="no"?>
<!DOCTYPE svg PUBLIC "-//W3C//DTD SVG 1.1//EN"
  "http://www.w3.org/Graphics/SVG/1.1/DTD/svg11.dtd">
<!-- Created with matplotlib (http://matplotlib.org/) -->
<svg height="345pt" version="1.1" viewBox="0 0 460 345" width="460pt" xmlns="http://www.w3.org/2000/svg" xmlns:xlink="http://www.w3.org/1999/xlink">
 <defs>
  <style type="text/css">
*{stroke-linecap:butt;stroke-linejoin:round;}
  </style>
 </defs>
 <g id="figure_1">
  <g id="patch_1">
   <path d="M 0 345.6 
L 460.8 345.6 
L 460.8 0 
L 0 0 
z
" style="fill:#ffffff;"/>
  </g>
  <g id="axes_1">
   <g id="patch_2">
    <path d="M 69.12 96.768 
L 414.72 96.768 
L 414.72 44.928 
L 69.12 44.928 
z
" style="fill:#ffffff;"/>
   </g>
   <g id="matplotlib.axis_1">
    <g id="xtick_1">
     <g id="line2d_1">
      <defs>
       <path d="M 0 0 
L 0 3.5 
" id="mb6a7441782" style="stroke:#000000;stroke-width:0.8;"/>
      </defs>
      <g>
       <use style="stroke:#000000;stroke-width:0.8;" x="76.820599" xlink:href="#mb6a7441782" y="96.768"/>
      </g>
     </g>
    </g>
    <g id="xtick_2">
     <g id="line2d_2">
      <g>
       <use style="stroke:#000000;stroke-width:0.8;" x="129.04629" xlink:href="#mb6a7441782" y="96.768"/>
      </g>
     </g>
    </g>
    <g id="xtick_3">
     <g id="line2d_3">
      <g>
       <use style="stroke:#000000;stroke-width:0.8;" x="181.271981" xlink:href="#mb6a7441782" y="96.768"/>
      </g>
     </g>
    </g>
    <g id="xtick_4">
     <g id="line2d_4">
      <g>
       <use style="stroke:#000000;stroke-width:0.8;" x="233.497672" xlink:href="#mb6a7441782" y="96.768"/>
      </g>
     </g>
    </g>
    <g id="xtick_5">
     <g id="line2d_5">
      <g>
       <use style="stroke:#000000;stroke-width:0.8;" x="285.723363" xlink:href="#mb6a7441782" y="96.768"/>
      </g>
     </g>
    </g>
    <g id="xtick_6">
     <g id="line2d_6">
      <g>
       <use style="stroke:#000000;stroke-width:0.8;" x="337.949055" xlink:href="#mb6a7441782" y="96.768"/>
      </g>
     </g>
    </g>
    <g id="xtick_7">
     <g id="line2d_7">
      <g>
       <use style="stroke:#000000;stroke-width:0.8;" x="390.174746" xlink:href="#mb6a7441782" y="96.768"/>
      </g>
     </g>
    </g>
   </g>
   <g id="matplotlib.axis_2">
    <g id="ytick_1">
     <g id="line2d_8">
      <defs>
       <path d="M 0 0 
L -3.5 0 
" id="m968929dafe" style="stroke:#000000;stroke-width:0.8;"/>
      </defs>
      <g>
       <use style="stroke:#000000;stroke-width:0.8;" x="69.12" xlink:href="#m968929dafe" y="86.129237"/>
      </g>
     </g>
     <g id="text_1">
      <!-- −1 -->
      <defs>
       <path d="M 10.59375 35.5 
L 73.1875 35.5 
L 73.1875 27.203125 
L 10.59375 27.203125 
z
" id="DejaVuSans-2212"/>
       <path d="M 12.40625 8.296875 
L 28.515625 8.296875 
L 28.515625 63.921875 
L 10.984375 60.40625 
L 10.984375 69.390625 
L 28.421875 72.90625 
L 38.28125 72.90625 
L 38.28125 8.296875 
L 54.390625 8.296875 
L 54.390625 0 
L 12.40625 0 
z
" id="DejaVuSans-31"/>
      </defs>
      <g transform="translate(40.006719 91.828065)scale(0.15 -0.15)">
       <use xlink:href="#DejaVuSans-2212"/>
       <use x="83.789062" xlink:href="#DejaVuSans-31"/>
      </g>
     </g>
    </g>
    <g id="ytick_2">
     <g id="line2d_9">
      <g>
       <use style="stroke:#000000;stroke-width:0.8;" x="69.12" xlink:href="#m968929dafe" y="70.472855"/>
      </g>
     </g>
    </g>
    <g id="ytick_3">
     <g id="line2d_10">
      <g>
       <use style="stroke:#000000;stroke-width:0.8;" x="69.12" xlink:href="#m968929dafe" y="54.816473"/>
      </g>
     </g>
     <g id="text_2">
      <!-- 1 -->
      <g transform="translate(52.57625 60.515301)scale(0.15 -0.15)">
       <use xlink:href="#DejaVuSans-31"/>
      </g>
     </g>
    </g>
    <g id="text_3">
     <!-- Studentized -->
     <defs>
      <path d="M 53.515625 70.515625 
L 53.515625 60.890625 
Q 47.90625 63.578125 42.921875 64.890625 
Q 37.9375 66.21875 33.296875 66.21875 
Q 25.25 66.21875 20.875 63.09375 
Q 16.5 59.96875 16.5 54.203125 
Q 16.5 49.359375 19.40625 46.890625 
Q 22.3125 44.4375 30.421875 42.921875 
L 36.375 41.703125 
Q 47.40625 39.59375 52.65625 34.296875 
Q 57.90625 29 57.90625 20.125 
Q 57.90625 9.515625 50.796875 4.046875 
Q 43.703125 -1.421875 29.984375 -1.421875 
Q 24.8125 -1.421875 18.96875 -0.25 
Q 13.140625 0.921875 6.890625 3.21875 
L 6.890625 13.375 
Q 12.890625 10.015625 18.65625 8.296875 
Q 24.421875 6.59375 29.984375 6.59375 
Q 38.421875 6.59375 43.015625 9.90625 
Q 47.609375 13.234375 47.609375 19.390625 
Q 47.609375 24.75 44.3125 27.78125 
Q 41.015625 30.8125 33.5 32.328125 
L 27.484375 33.5 
Q 16.453125 35.6875 11.515625 40.375 
Q 6.59375 45.0625 6.59375 53.421875 
Q 6.59375 63.09375 13.40625 68.65625 
Q 20.21875 74.21875 32.171875 74.21875 
Q 37.3125 74.21875 42.625 73.28125 
Q 47.953125 72.359375 53.515625 70.515625 
z
" id="DejaVuSans-53"/>
      <path d="M 18.3125 70.21875 
L 18.3125 54.6875 
L 36.8125 54.6875 
L 36.8125 47.703125 
L 18.3125 47.703125 
L 18.3125 18.015625 
Q 18.3125 11.328125 20.140625 9.421875 
Q 21.96875 7.515625 27.59375 7.515625 
L 36.8125 7.515625 
L 36.8125 0 
L 27.59375 0 
Q 17.1875 0 13.234375 3.875 
Q 9.28125 7.765625 9.28125 18.015625 
L 9.28125 47.703125 
L 2.6875 47.703125 
L 2.6875 54.6875 
L 9.28125 54.6875 
L 9.28125 70.21875 
z
" id="DejaVuSans-74"/>
      <path d="M 8.5 21.578125 
L 8.5 54.6875 
L 17.484375 54.6875 
L 17.484375 21.921875 
Q 17.484375 14.15625 20.5 10.265625 
Q 23.53125 6.390625 29.59375 6.390625 
Q 36.859375 6.390625 41.078125 11.03125 
Q 45.3125 15.671875 45.3125 23.6875 
L 45.3125 54.6875 
L 54.296875 54.6875 
L 54.296875 0 
L 45.3125 0 
L 45.3125 8.40625 
Q 42.046875 3.421875 37.71875 1 
Q 33.40625 -1.421875 27.6875 -1.421875 
Q 18.265625 -1.421875 13.375 4.4375 
Q 8.5 10.296875 8.5 21.578125 
z
M 31.109375 56 
z
" id="DejaVuSans-75"/>
      <path d="M 45.40625 46.390625 
L 45.40625 75.984375 
L 54.390625 75.984375 
L 54.390625 0 
L 45.40625 0 
L 45.40625 8.203125 
Q 42.578125 3.328125 38.25 0.953125 
Q 33.9375 -1.421875 27.875 -1.421875 
Q 17.96875 -1.421875 11.734375 6.484375 
Q 5.515625 14.40625 5.515625 27.296875 
Q 5.515625 40.1875 11.734375 48.09375 
Q 17.96875 56 27.875 56 
Q 33.9375 56 38.25 53.625 
Q 42.578125 51.265625 45.40625 46.390625 
z
M 14.796875 27.296875 
Q 14.796875 17.390625 18.875 11.75 
Q 22.953125 6.109375 30.078125 6.109375 
Q 37.203125 6.109375 41.296875 11.75 
Q 45.40625 17.390625 45.40625 27.296875 
Q 45.40625 37.203125 41.296875 42.84375 
Q 37.203125 48.484375 30.078125 48.484375 
Q 22.953125 48.484375 18.875 42.84375 
Q 14.796875 37.203125 14.796875 27.296875 
z
" id="DejaVuSans-64"/>
      <path d="M 56.203125 29.59375 
L 56.203125 25.203125 
L 14.890625 25.203125 
Q 15.484375 15.921875 20.484375 11.0625 
Q 25.484375 6.203125 34.421875 6.203125 
Q 39.59375 6.203125 44.453125 7.46875 
Q 49.3125 8.734375 54.109375 11.28125 
L 54.109375 2.78125 
Q 49.265625 0.734375 44.1875 -0.34375 
Q 39.109375 -1.421875 33.890625 -1.421875 
Q 20.796875 -1.421875 13.15625 6.1875 
Q 5.515625 13.8125 5.515625 26.8125 
Q 5.515625 40.234375 12.765625 48.109375 
Q 20.015625 56 32.328125 56 
Q 43.359375 56 49.78125 48.890625 
Q 56.203125 41.796875 56.203125 29.59375 
z
M 47.21875 32.234375 
Q 47.125 39.59375 43.09375 43.984375 
Q 39.0625 48.390625 32.421875 48.390625 
Q 24.90625 48.390625 20.390625 44.140625 
Q 15.875 39.890625 15.1875 32.171875 
z
" id="DejaVuSans-65"/>
      <path d="M 54.890625 33.015625 
L 54.890625 0 
L 45.90625 0 
L 45.90625 32.71875 
Q 45.90625 40.484375 42.875 44.328125 
Q 39.84375 48.1875 33.796875 48.1875 
Q 26.515625 48.1875 22.3125 43.546875 
Q 18.109375 38.921875 18.109375 30.90625 
L 18.109375 0 
L 9.078125 0 
L 9.078125 54.6875 
L 18.109375 54.6875 
L 18.109375 46.1875 
Q 21.34375 51.125 25.703125 53.5625 
Q 30.078125 56 35.796875 56 
Q 45.21875 56 50.046875 50.171875 
Q 54.890625 44.34375 54.890625 33.015625 
z
" id="DejaVuSans-6e"/>
      <path d="M 9.421875 54.6875 
L 18.40625 54.6875 
L 18.40625 0 
L 9.421875 0 
z
M 9.421875 75.984375 
L 18.40625 75.984375 
L 18.40625 64.59375 
L 9.421875 64.59375 
z
" id="DejaVuSans-69"/>
      <path d="M 5.515625 54.6875 
L 48.1875 54.6875 
L 48.1875 46.484375 
L 14.40625 7.171875 
L 48.1875 7.171875 
L 48.1875 0 
L 4.296875 0 
L 4.296875 8.203125 
L 38.09375 47.515625 
L 5.515625 47.515625 
z
" id="DejaVuSans-7a"/>
     </defs>
     <g transform="translate(16.090469 115.768313)rotate(-90)scale(0.15 -0.15)">
      <use xlink:href="#DejaVuSans-53"/>
      <use x="63.476562" xlink:href="#DejaVuSans-74"/>
      <use x="102.685547" xlink:href="#DejaVuSans-75"/>
      <use x="166.064453" xlink:href="#DejaVuSans-64"/>
      <use x="229.541016" xlink:href="#DejaVuSans-65"/>
      <use x="291.064453" xlink:href="#DejaVuSans-6e"/>
      <use x="354.443359" xlink:href="#DejaVuSans-74"/>
      <use x="393.652344" xlink:href="#DejaVuSans-69"/>
      <use x="421.435547" xlink:href="#DejaVuSans-7a"/>
      <use x="473.925781" xlink:href="#DejaVuSans-65"/>
      <use x="535.449219" xlink:href="#DejaVuSans-64"/>
     </g>
     <!-- Residuals -->
     <defs>
      <path d="M 44.390625 34.1875 
Q 47.5625 33.109375 50.5625 29.59375 
Q 53.5625 26.078125 56.59375 19.921875 
L 66.609375 0 
L 56 0 
L 46.6875 18.703125 
Q 43.0625 26.03125 39.671875 28.421875 
Q 36.28125 30.8125 30.421875 30.8125 
L 19.671875 30.8125 
L 19.671875 0 
L 9.8125 0 
L 9.8125 72.90625 
L 32.078125 72.90625 
Q 44.578125 72.90625 50.734375 67.671875 
Q 56.890625 62.453125 56.890625 51.90625 
Q 56.890625 45.015625 53.6875 40.46875 
Q 50.484375 35.9375 44.390625 34.1875 
z
M 19.671875 64.796875 
L 19.671875 38.921875 
L 32.078125 38.921875 
Q 39.203125 38.921875 42.84375 42.21875 
Q 46.484375 45.515625 46.484375 51.90625 
Q 46.484375 58.296875 42.84375 61.546875 
Q 39.203125 64.796875 32.078125 64.796875 
z
" id="DejaVuSans-52"/>
      <path d="M 44.28125 53.078125 
L 44.28125 44.578125 
Q 40.484375 46.53125 36.375 47.5 
Q 32.28125 48.484375 27.875 48.484375 
Q 21.1875 48.484375 17.84375 46.4375 
Q 14.5 44.390625 14.5 40.28125 
Q 14.5 37.15625 16.890625 35.375 
Q 19.28125 33.59375 26.515625 31.984375 
L 29.59375 31.296875 
Q 39.15625 29.25 43.1875 25.515625 
Q 47.21875 21.78125 47.21875 15.09375 
Q 47.21875 7.46875 41.1875 3.015625 
Q 35.15625 -1.421875 24.609375 -1.421875 
Q 20.21875 -1.421875 15.453125 -0.5625 
Q 10.6875 0.296875 5.421875 2 
L 5.421875 11.28125 
Q 10.40625 8.6875 15.234375 7.390625 
Q 20.0625 6.109375 24.8125 6.109375 
Q 31.15625 6.109375 34.5625 8.28125 
Q 37.984375 10.453125 37.984375 14.40625 
Q 37.984375 18.0625 35.515625 20.015625 
Q 33.0625 21.96875 24.703125 23.78125 
L 21.578125 24.515625 
Q 13.234375 26.265625 9.515625 29.90625 
Q 5.8125 33.546875 5.8125 39.890625 
Q 5.8125 47.609375 11.28125 51.796875 
Q 16.75 56 26.8125 56 
Q 31.78125 56 36.171875 55.265625 
Q 40.578125 54.546875 44.28125 53.078125 
z
" id="DejaVuSans-73"/>
      <path d="M 34.28125 27.484375 
Q 23.390625 27.484375 19.1875 25 
Q 14.984375 22.515625 14.984375 16.5 
Q 14.984375 11.71875 18.140625 8.90625 
Q 21.296875 6.109375 26.703125 6.109375 
Q 34.1875 6.109375 38.703125 11.40625 
Q 43.21875 16.703125 43.21875 25.484375 
L 43.21875 27.484375 
z
M 52.203125 31.203125 
L 52.203125 0 
L 43.21875 0 
L 43.21875 8.296875 
Q 40.140625 3.328125 35.546875 0.953125 
Q 30.953125 -1.421875 24.3125 -1.421875 
Q 15.921875 -1.421875 10.953125 3.296875 
Q 6 8.015625 6 15.921875 
Q 6 25.140625 12.171875 29.828125 
Q 18.359375 34.515625 30.609375 34.515625 
L 43.21875 34.515625 
L 43.21875 35.40625 
Q 43.21875 41.609375 39.140625 45 
Q 35.0625 48.390625 27.6875 48.390625 
Q 23 48.390625 18.546875 47.265625 
Q 14.109375 46.140625 10.015625 43.890625 
L 10.015625 52.203125 
Q 14.9375 54.109375 19.578125 55.046875 
Q 24.21875 56 28.609375 56 
Q 40.484375 56 46.34375 49.84375 
Q 52.203125 43.703125 52.203125 31.203125 
z
" id="DejaVuSans-61"/>
      <path d="M 9.421875 75.984375 
L 18.40625 75.984375 
L 18.40625 0 
L 9.421875 0 
z
" id="DejaVuSans-6c"/>
     </defs>
     <g transform="translate(32.887188 106.761281)rotate(-90)scale(0.15 -0.15)">
      <use xlink:href="#DejaVuSans-52"/>
      <use x="69.419922" xlink:href="#DejaVuSans-65"/>
      <use x="130.943359" xlink:href="#DejaVuSans-73"/>
      <use x="183.042969" xlink:href="#DejaVuSans-69"/>
      <use x="210.826172" xlink:href="#DejaVuSans-64"/>
      <use x="274.302734" xlink:href="#DejaVuSans-75"/>
      <use x="337.681641" xlink:href="#DejaVuSans-61"/>
      <use x="398.960938" xlink:href="#DejaVuSans-6c"/>
      <use x="426.744141" xlink:href="#DejaVuSans-73"/>
     </g>
    </g>
   </g>
   <g id="LineCollection_1">
    <path clip-path="url(#p8fd7efb9ce)" d="M 81.92 82.40776 
L 81.92 51.094996 
" style="fill:none;stroke:#0000ff;stroke-width:1.5;"/>
    <path clip-path="url(#p8fd7efb9ce)" d="M 94.347184 89.866058 
L 94.347184 58.553293 
" style="fill:none;stroke:#0000ff;stroke-width:1.5;"/>
    <path clip-path="url(#p8fd7efb9ce)" d="M 109.881165 86.154417 
L 109.881165 54.841652 
" style="fill:none;stroke:#0000ff;stroke-width:1.5;"/>
    <path clip-path="url(#p8fd7efb9ce)" d="M 119.201553 82.865677 
L 119.201553 51.552912 
" style="fill:none;stroke:#0000ff;stroke-width:1.5;"/>
    <path clip-path="url(#p8fd7efb9ce)" d="M 122.30835 79.772332 
L 122.30835 48.459568 
" style="fill:none;stroke:#0000ff;stroke-width:1.5;"/>
    <path clip-path="url(#p8fd7efb9ce)" d="M 137.84233 91.284595 
L 137.84233 59.97183 
" style="fill:none;stroke:#0000ff;stroke-width:1.5;"/>
    <path clip-path="url(#p8fd7efb9ce)" d="M 140.949126 91.542635 
L 140.949126 60.22987 
" style="fill:none;stroke:#0000ff;stroke-width:1.5;"/>
    <path clip-path="url(#p8fd7efb9ce)" d="M 144.055922 91.836415 
L 144.055922 60.52365 
" style="fill:none;stroke:#0000ff;stroke-width:1.5;"/>
    <path clip-path="url(#p8fd7efb9ce)" d="M 147.162718 70.531263 
L 147.162718 39.218498 
" style="fill:none;stroke:#0000ff;stroke-width:1.5;"/>
    <path clip-path="url(#p8fd7efb9ce)" d="M 150.269515 84.866435 
L 150.269515 53.55367 
" style="fill:none;stroke:#0000ff;stroke-width:1.5;"/>
    <path clip-path="url(#p8fd7efb9ce)" d="M 156.483107 73.904323 
L 156.483107 42.591558 
" style="fill:none;stroke:#0000ff;stroke-width:1.5;"/>
    <path clip-path="url(#p8fd7efb9ce)" d="M 159.589903 79.747381 
L 159.589903 48.434617 
" style="fill:none;stroke:#0000ff;stroke-width:1.5;"/>
    <path clip-path="url(#p8fd7efb9ce)" d="M 165.803495 80.75418 
L 165.803495 49.441415 
" style="fill:none;stroke:#0000ff;stroke-width:1.5;"/>
    <path clip-path="url(#p8fd7efb9ce)" d="M 168.910291 91.664914 
L 168.910291 60.352149 
" style="fill:none;stroke:#0000ff;stroke-width:1.5;"/>
    <path clip-path="url(#p8fd7efb9ce)" d="M 172.017087 96.695025 
L 172.017087 65.382261 
" style="fill:none;stroke:#0000ff;stroke-width:1.5;"/>
    <path clip-path="url(#p8fd7efb9ce)" d="M 175.123883 79.732822 
L 175.123883 48.420058 
" style="fill:none;stroke:#0000ff;stroke-width:1.5;"/>
    <path clip-path="url(#p8fd7efb9ce)" d="M 181.337476 66.846407 
L 181.337476 35.533643 
" style="fill:none;stroke:#0000ff;stroke-width:1.5;"/>
    <path clip-path="url(#p8fd7efb9ce)" d="M 184.444272 96.026314 
L 184.444272 64.71355 
" style="fill:none;stroke:#0000ff;stroke-width:1.5;"/>
    <path clip-path="url(#p8fd7efb9ce)" d="M 190.657864 78.377445 
L 190.657864 47.06468 
" style="fill:none;stroke:#0000ff;stroke-width:1.5;"/>
    <path clip-path="url(#p8fd7efb9ce)" d="M 196.871456 83.078625 
L 196.871456 51.76586 
" style="fill:none;stroke:#0000ff;stroke-width:1.5;"/>
    <path clip-path="url(#p8fd7efb9ce)" d="M 199.978252 84.163436 
L 199.978252 52.850671 
" style="fill:none;stroke:#0000ff;stroke-width:1.5;"/>
    <path clip-path="url(#p8fd7efb9ce)" d="M 203.085049 88.334534 
L 203.085049 57.021769 
" style="fill:none;stroke:#0000ff;stroke-width:1.5;"/>
    <path clip-path="url(#p8fd7efb9ce)" d="M 206.191845 83.600532 
L 206.191845 52.287767 
" style="fill:none;stroke:#0000ff;stroke-width:1.5;"/>
    <path clip-path="url(#p8fd7efb9ce)" d="M 209.298641 94.199485 
L 209.298641 62.886721 
" style="fill:none;stroke:#0000ff;stroke-width:1.5;"/>
    <path clip-path="url(#p8fd7efb9ce)" d="M 212.405437 92.103748 
L 212.405437 60.790983 
" style="fill:none;stroke:#0000ff;stroke-width:1.5;"/>
    <path clip-path="url(#p8fd7efb9ce)" d="M 215.512233 81.765314 
L 215.512233 50.452549 
" style="fill:none;stroke:#0000ff;stroke-width:1.5;"/>
    <path clip-path="url(#p8fd7efb9ce)" d="M 218.619029 82.932539 
L 218.619029 51.619774 
" style="fill:none;stroke:#0000ff;stroke-width:1.5;"/>
    <path clip-path="url(#p8fd7efb9ce)" d="M 221.725825 107.999557 
L 221.725825 76.686793 
" style="fill:none;stroke:#0000ff;stroke-width:1.5;"/>
    <path clip-path="url(#p8fd7efb9ce)" d="M 224.832621 69.597999 
L 224.832621 38.285234 
" style="fill:none;stroke:#0000ff;stroke-width:1.5;"/>
    <path clip-path="url(#p8fd7efb9ce)" d="M 227.939417 95.357288 
L 227.939417 64.044524 
" style="fill:none;stroke:#0000ff;stroke-width:1.5;"/>
    <path clip-path="url(#p8fd7efb9ce)" d="M 231.046214 75.617354 
L 231.046214 44.30459 
" style="fill:none;stroke:#0000ff;stroke-width:1.5;"/>
    <path clip-path="url(#p8fd7efb9ce)" d="M 234.15301 97.856698 
L 234.15301 66.543933 
" style="fill:none;stroke:#0000ff;stroke-width:1.5;"/>
    <path clip-path="url(#p8fd7efb9ce)" d="M 237.259806 82.086986 
L 237.259806 50.774222 
" style="fill:none;stroke:#0000ff;stroke-width:1.5;"/>
    <path clip-path="url(#p8fd7efb9ce)" d="M 240.366602 68.558925 
L 240.366602 37.246161 
" style="fill:none;stroke:#0000ff;stroke-width:1.5;"/>
    <path clip-path="url(#p8fd7efb9ce)" d="M 243.473398 62.504382 
L 243.473398 31.191618 
" style="fill:none;stroke:#0000ff;stroke-width:1.5;"/>
    <path clip-path="url(#p8fd7efb9ce)" d="M 246.580194 75.868209 
L 246.580194 44.555445 
" style="fill:none;stroke:#0000ff;stroke-width:1.5;"/>
    <path clip-path="url(#p8fd7efb9ce)" d="M 249.68699 93.573763 
L 249.68699 62.260998 
" style="fill:none;stroke:#0000ff;stroke-width:1.5;"/>
    <path clip-path="url(#p8fd7efb9ce)" d="M 252.793786 97.352494 
L 252.793786 66.039729 
" style="fill:none;stroke:#0000ff;stroke-width:1.5;"/>
    <path clip-path="url(#p8fd7efb9ce)" d="M 255.900583 71.863073 
L 255.900583 40.550308 
" style="fill:none;stroke:#0000ff;stroke-width:1.5;"/>
    <path clip-path="url(#p8fd7efb9ce)" d="M 259.007379 82.628536 
L 259.007379 51.315771 
" style="fill:none;stroke:#0000ff;stroke-width:1.5;"/>
    <path clip-path="url(#p8fd7efb9ce)" d="M 262.114175 90.424711 
L 262.114175 59.111947 
" style="fill:none;stroke:#0000ff;stroke-width:1.5;"/>
    <path clip-path="url(#p8fd7efb9ce)" d="M 265.220971 93.502085 
L 265.220971 62.18932 
" style="fill:none;stroke:#0000ff;stroke-width:1.5;"/>
    <path clip-path="url(#p8fd7efb9ce)" d="M 268.327767 91.000852 
L 268.327767 59.688087 
" style="fill:none;stroke:#0000ff;stroke-width:1.5;"/>
    <path clip-path="url(#p8fd7efb9ce)" d="M 271.434563 91.127834 
L 271.434563 59.815069 
" style="fill:none;stroke:#0000ff;stroke-width:1.5;"/>
    <path clip-path="url(#p8fd7efb9ce)" d="M 274.541359 83.709828 
L 274.541359 52.397063 
" style="fill:none;stroke:#0000ff;stroke-width:1.5;"/>
    <path clip-path="url(#p8fd7efb9ce)" d="M 277.648155 110.504382 
L 277.648155 79.191618 
" style="fill:none;stroke:#0000ff;stroke-width:1.5;"/>
    <path clip-path="url(#p8fd7efb9ce)" d="M 280.754951 83.437001 
L 280.754951 52.124237 
" style="fill:none;stroke:#0000ff;stroke-width:1.5;"/>
    <path clip-path="url(#p8fd7efb9ce)" d="M 283.861748 69.144691 
L 283.861748 37.831926 
" style="fill:none;stroke:#0000ff;stroke-width:1.5;"/>
    <path clip-path="url(#p8fd7efb9ce)" d="M 286.968544 85.105585 
L 286.968544 53.792821 
" style="fill:none;stroke:#0000ff;stroke-width:1.5;"/>
    <path clip-path="url(#p8fd7efb9ce)" d="M 290.07534 73.917387 
L 290.07534 42.604622 
" style="fill:none;stroke:#0000ff;stroke-width:1.5;"/>
    <path clip-path="url(#p8fd7efb9ce)" d="M 293.182136 81.733532 
L 293.182136 50.420768 
" style="fill:none;stroke:#0000ff;stroke-width:1.5;"/>
    <path clip-path="url(#p8fd7efb9ce)" d="M 296.288932 93.823111 
L 296.288932 62.510346 
" style="fill:none;stroke:#0000ff;stroke-width:1.5;"/>
    <path clip-path="url(#p8fd7efb9ce)" d="M 299.395728 80.373899 
L 299.395728 49.061134 
" style="fill:none;stroke:#0000ff;stroke-width:1.5;"/>
    <path clip-path="url(#p8fd7efb9ce)" d="M 302.502524 84.22088 
L 302.502524 52.908116 
" style="fill:none;stroke:#0000ff;stroke-width:1.5;"/>
    <path clip-path="url(#p8fd7efb9ce)" d="M 305.60932 70.651561 
L 305.60932 39.338796 
" style="fill:none;stroke:#0000ff;stroke-width:1.5;"/>
    <path clip-path="url(#p8fd7efb9ce)" d="M 308.716117 106.874495 
L 308.716117 75.56173 
" style="fill:none;stroke:#0000ff;stroke-width:1.5;"/>
    <path clip-path="url(#p8fd7efb9ce)" d="M 311.822913 65.401987 
L 311.822913 34.089222 
" style="fill:none;stroke:#0000ff;stroke-width:1.5;"/>
    <path clip-path="url(#p8fd7efb9ce)" d="M 314.929709 85.293362 
L 314.929709 53.980597 
" style="fill:none;stroke:#0000ff;stroke-width:1.5;"/>
    <path clip-path="url(#p8fd7efb9ce)" d="M 318.036505 92.575149 
L 318.036505 61.262384 
" style="fill:none;stroke:#0000ff;stroke-width:1.5;"/>
    <path clip-path="url(#p8fd7efb9ce)" d="M 321.143301 91.338993 
L 321.143301 60.026228 
" style="fill:none;stroke:#0000ff;stroke-width:1.5;"/>
    <path clip-path="url(#p8fd7efb9ce)" d="M 324.250097 77.182128 
L 324.250097 45.869363 
" style="fill:none;stroke:#0000ff;stroke-width:1.5;"/>
    <path clip-path="url(#p8fd7efb9ce)" d="M 327.356893 83.303919 
L 327.356893 51.991154 
" style="fill:none;stroke:#0000ff;stroke-width:1.5;"/>
    <path clip-path="url(#p8fd7efb9ce)" d="M 330.463689 90.602306 
L 330.463689 59.289541 
" style="fill:none;stroke:#0000ff;stroke-width:1.5;"/>
    <path clip-path="url(#p8fd7efb9ce)" d="M 333.570485 86.360031 
L 333.570485 55.047266 
" style="fill:none;stroke:#0000ff;stroke-width:1.5;"/>
    <path clip-path="url(#p8fd7efb9ce)" d="M 336.677282 79.838875 
L 336.677282 48.526111 
" style="fill:none;stroke:#0000ff;stroke-width:1.5;"/>
    <path clip-path="url(#p8fd7efb9ce)" d="M 339.784078 86.850501 
L 339.784078 55.537736 
" style="fill:none;stroke:#0000ff;stroke-width:1.5;"/>
    <path clip-path="url(#p8fd7efb9ce)" d="M 342.890874 77.650942 
L 342.890874 46.338177 
" style="fill:none;stroke:#0000ff;stroke-width:1.5;"/>
    <path clip-path="url(#p8fd7efb9ce)" d="M 345.99767 72.046084 
L 345.99767 40.733319 
" style="fill:none;stroke:#0000ff;stroke-width:1.5;"/>
    <path clip-path="url(#p8fd7efb9ce)" d="M 349.104466 86.384623 
L 349.104466 55.071858 
" style="fill:none;stroke:#0000ff;stroke-width:1.5;"/>
    <path clip-path="url(#p8fd7efb9ce)" d="M 352.211262 91.897756 
L 352.211262 60.584991 
" style="fill:none;stroke:#0000ff;stroke-width:1.5;"/>
    <path clip-path="url(#p8fd7efb9ce)" d="M 355.318058 84.259245 
L 355.318058 52.94648 
" style="fill:none;stroke:#0000ff;stroke-width:1.5;"/>
    <path clip-path="url(#p8fd7efb9ce)" d="M 358.424854 89.708681 
L 358.424854 58.395916 
" style="fill:none;stroke:#0000ff;stroke-width:1.5;"/>
    <path clip-path="url(#p8fd7efb9ce)" d="M 361.53165 100.896149 
L 361.53165 69.583384 
" style="fill:none;stroke:#0000ff;stroke-width:1.5;"/>
    <path clip-path="url(#p8fd7efb9ce)" d="M 364.638447 87.772924 
L 364.638447 56.46016 
" style="fill:none;stroke:#0000ff;stroke-width:1.5;"/>
    <path clip-path="url(#p8fd7efb9ce)" d="M 367.745243 80.698738 
L 367.745243 49.385974 
" style="fill:none;stroke:#0000ff;stroke-width:1.5;"/>
    <path clip-path="url(#p8fd7efb9ce)" d="M 373.958835 85.34891 
L 373.958835 54.036146 
" style="fill:none;stroke:#0000ff;stroke-width:1.5;"/>
    <path clip-path="url(#p8fd7efb9ce)" d="M 377.065631 81.531212 
L 377.065631 50.218447 
" style="fill:none;stroke:#0000ff;stroke-width:1.5;"/>
    <path clip-path="url(#p8fd7efb9ce)" d="M 380.172427 95.420759 
L 380.172427 64.107994 
" style="fill:none;stroke:#0000ff;stroke-width:1.5;"/>
    <path clip-path="url(#p8fd7efb9ce)" d="M 392.599612 89.022915 
L 392.599612 57.71015 
" style="fill:none;stroke:#0000ff;stroke-width:1.5;"/>
    <path clip-path="url(#p8fd7efb9ce)" d="M 401.92 91.937392 
L 401.92 60.624627 
" style="fill:none;stroke:#0000ff;stroke-width:1.5;"/>
   </g>
   <g id="line2d_11">
    <path clip-path="url(#p8fd7efb9ce)" d="M 81.92 70.472855 
L 401.92 70.472855 
" style="fill:none;stroke:#ff0000;stroke-linecap:square;stroke-width:1.5;"/>
   </g>
   <g id="line2d_12">
    <defs>
     <path d="M -3 0 
L 3 0 
M 0 3 
L 0 -3 
" id="m5f514ba6a3" style="stroke:#0000ff;"/>
    </defs>
    <g clip-path="url(#p8fd7efb9ce)">
     <use style="fill:#0000ff;stroke:#0000ff;" x="81.92" xlink:href="#m5f514ba6a3" y="66.751378"/>
     <use style="fill:#0000ff;stroke:#0000ff;" x="94.347184" xlink:href="#m5f514ba6a3" y="74.209675"/>
     <use style="fill:#0000ff;stroke:#0000ff;" x="109.881165" xlink:href="#m5f514ba6a3" y="70.498035"/>
     <use style="fill:#0000ff;stroke:#0000ff;" x="119.201553" xlink:href="#m5f514ba6a3" y="67.209294"/>
     <use style="fill:#0000ff;stroke:#0000ff;" x="122.30835" xlink:href="#m5f514ba6a3" y="64.11595"/>
     <use style="fill:#0000ff;stroke:#0000ff;" x="137.84233" xlink:href="#m5f514ba6a3" y="75.628213"/>
     <use style="fill:#0000ff;stroke:#0000ff;" x="140.949126" xlink:href="#m5f514ba6a3" y="75.886252"/>
     <use style="fill:#0000ff;stroke:#0000ff;" x="144.055922" xlink:href="#m5f514ba6a3" y="76.180033"/>
     <use style="fill:#0000ff;stroke:#0000ff;" x="147.162718" xlink:href="#m5f514ba6a3" y="54.87488"/>
     <use style="fill:#0000ff;stroke:#0000ff;" x="150.269515" xlink:href="#m5f514ba6a3" y="69.210052"/>
     <use style="fill:#0000ff;stroke:#0000ff;" x="156.483107" xlink:href="#m5f514ba6a3" y="58.24794"/>
     <use style="fill:#0000ff;stroke:#0000ff;" x="159.589903" xlink:href="#m5f514ba6a3" y="64.090999"/>
     <use style="fill:#0000ff;stroke:#0000ff;" x="165.803495" xlink:href="#m5f514ba6a3" y="65.097798"/>
     <use style="fill:#0000ff;stroke:#0000ff;" x="168.910291" xlink:href="#m5f514ba6a3" y="76.008532"/>
     <use style="fill:#0000ff;stroke:#0000ff;" x="172.017087" xlink:href="#m5f514ba6a3" y="81.038643"/>
     <use style="fill:#0000ff;stroke:#0000ff;" x="175.123883" xlink:href="#m5f514ba6a3" y="64.07644"/>
     <use style="fill:#0000ff;stroke:#0000ff;" x="181.337476" xlink:href="#m5f514ba6a3" y="51.190025"/>
     <use style="fill:#0000ff;stroke:#0000ff;" x="184.444272" xlink:href="#m5f514ba6a3" y="80.369932"/>
     <use style="fill:#0000ff;stroke:#0000ff;" x="190.657864" xlink:href="#m5f514ba6a3" y="62.721063"/>
     <use style="fill:#0000ff;stroke:#0000ff;" x="196.871456" xlink:href="#m5f514ba6a3" y="67.422243"/>
     <use style="fill:#0000ff;stroke:#0000ff;" x="199.978252" xlink:href="#m5f514ba6a3" y="68.507054"/>
     <use style="fill:#0000ff;stroke:#0000ff;" x="203.085049" xlink:href="#m5f514ba6a3" y="72.678151"/>
     <use style="fill:#0000ff;stroke:#0000ff;" x="206.191845" xlink:href="#m5f514ba6a3" y="67.944149"/>
     <use style="fill:#0000ff;stroke:#0000ff;" x="209.298641" xlink:href="#m5f514ba6a3" y="78.543103"/>
     <use style="fill:#0000ff;stroke:#0000ff;" x="212.405437" xlink:href="#m5f514ba6a3" y="76.447365"/>
     <use style="fill:#0000ff;stroke:#0000ff;" x="215.512233" xlink:href="#m5f514ba6a3" y="66.108932"/>
     <use style="fill:#0000ff;stroke:#0000ff;" x="218.619029" xlink:href="#m5f514ba6a3" y="67.276157"/>
     <use style="fill:#0000ff;stroke:#0000ff;" x="221.725825" xlink:href="#m5f514ba6a3" y="92.343175"/>
     <use style="fill:#0000ff;stroke:#0000ff;" x="224.832621" xlink:href="#m5f514ba6a3" y="53.941616"/>
     <use style="fill:#0000ff;stroke:#0000ff;" x="227.939417" xlink:href="#m5f514ba6a3" y="79.700906"/>
     <use style="fill:#0000ff;stroke:#0000ff;" x="231.046214" xlink:href="#m5f514ba6a3" y="59.960972"/>
     <use style="fill:#0000ff;stroke:#0000ff;" x="234.15301" xlink:href="#m5f514ba6a3" y="82.200316"/>
     <use style="fill:#0000ff;stroke:#0000ff;" x="237.259806" xlink:href="#m5f514ba6a3" y="66.430604"/>
     <use style="fill:#0000ff;stroke:#0000ff;" x="240.366602" xlink:href="#m5f514ba6a3" y="52.902543"/>
     <use style="fill:#0000ff;stroke:#0000ff;" x="243.473398" xlink:href="#m5f514ba6a3" y="46.848"/>
     <use style="fill:#0000ff;stroke:#0000ff;" x="246.580194" xlink:href="#m5f514ba6a3" y="60.211827"/>
     <use style="fill:#0000ff;stroke:#0000ff;" x="249.68699" xlink:href="#m5f514ba6a3" y="77.91738"/>
     <use style="fill:#0000ff;stroke:#0000ff;" x="252.793786" xlink:href="#m5f514ba6a3" y="81.696112"/>
     <use style="fill:#0000ff;stroke:#0000ff;" x="255.900583" xlink:href="#m5f514ba6a3" y="56.206691"/>
     <use style="fill:#0000ff;stroke:#0000ff;" x="259.007379" xlink:href="#m5f514ba6a3" y="66.972154"/>
     <use style="fill:#0000ff;stroke:#0000ff;" x="262.114175" xlink:href="#m5f514ba6a3" y="74.768329"/>
     <use style="fill:#0000ff;stroke:#0000ff;" x="265.220971" xlink:href="#m5f514ba6a3" y="77.845702"/>
     <use style="fill:#0000ff;stroke:#0000ff;" x="268.327767" xlink:href="#m5f514ba6a3" y="75.344469"/>
     <use style="fill:#0000ff;stroke:#0000ff;" x="271.434563" xlink:href="#m5f514ba6a3" y="75.471451"/>
     <use style="fill:#0000ff;stroke:#0000ff;" x="274.541359" xlink:href="#m5f514ba6a3" y="68.053445"/>
     <use style="fill:#0000ff;stroke:#0000ff;" x="277.648155" xlink:href="#m5f514ba6a3" y="94.848"/>
     <use style="fill:#0000ff;stroke:#0000ff;" x="280.754951" xlink:href="#m5f514ba6a3" y="67.780619"/>
     <use style="fill:#0000ff;stroke:#0000ff;" x="283.861748" xlink:href="#m5f514ba6a3" y="53.488308"/>
     <use style="fill:#0000ff;stroke:#0000ff;" x="286.968544" xlink:href="#m5f514ba6a3" y="69.449203"/>
     <use style="fill:#0000ff;stroke:#0000ff;" x="290.07534" xlink:href="#m5f514ba6a3" y="58.261005"/>
     <use style="fill:#0000ff;stroke:#0000ff;" x="293.182136" xlink:href="#m5f514ba6a3" y="66.07715"/>
     <use style="fill:#0000ff;stroke:#0000ff;" x="296.288932" xlink:href="#m5f514ba6a3" y="78.166729"/>
     <use style="fill:#0000ff;stroke:#0000ff;" x="299.395728" xlink:href="#m5f514ba6a3" y="64.717517"/>
     <use style="fill:#0000ff;stroke:#0000ff;" x="302.502524" xlink:href="#m5f514ba6a3" y="68.564498"/>
     <use style="fill:#0000ff;stroke:#0000ff;" x="305.60932" xlink:href="#m5f514ba6a3" y="54.995179"/>
     <use style="fill:#0000ff;stroke:#0000ff;" x="308.716117" xlink:href="#m5f514ba6a3" y="91.218112"/>
     <use style="fill:#0000ff;stroke:#0000ff;" x="311.822913" xlink:href="#m5f514ba6a3" y="49.745604"/>
     <use style="fill:#0000ff;stroke:#0000ff;" x="314.929709" xlink:href="#m5f514ba6a3" y="69.63698"/>
     <use style="fill:#0000ff;stroke:#0000ff;" x="318.036505" xlink:href="#m5f514ba6a3" y="76.918766"/>
     <use style="fill:#0000ff;stroke:#0000ff;" x="321.143301" xlink:href="#m5f514ba6a3" y="75.68261"/>
     <use style="fill:#0000ff;stroke:#0000ff;" x="324.250097" xlink:href="#m5f514ba6a3" y="61.525746"/>
     <use style="fill:#0000ff;stroke:#0000ff;" x="327.356893" xlink:href="#m5f514ba6a3" y="67.647536"/>
     <use style="fill:#0000ff;stroke:#0000ff;" x="330.463689" xlink:href="#m5f514ba6a3" y="74.945923"/>
     <use style="fill:#0000ff;stroke:#0000ff;" x="333.570485" xlink:href="#m5f514ba6a3" y="70.703649"/>
     <use style="fill:#0000ff;stroke:#0000ff;" x="336.677282" xlink:href="#m5f514ba6a3" y="64.182493"/>
     <use style="fill:#0000ff;stroke:#0000ff;" x="339.784078" xlink:href="#m5f514ba6a3" y="71.194118"/>
     <use style="fill:#0000ff;stroke:#0000ff;" x="342.890874" xlink:href="#m5f514ba6a3" y="61.994559"/>
     <use style="fill:#0000ff;stroke:#0000ff;" x="345.99767" xlink:href="#m5f514ba6a3" y="56.389702"/>
     <use style="fill:#0000ff;stroke:#0000ff;" x="349.104466" xlink:href="#m5f514ba6a3" y="70.728241"/>
     <use style="fill:#0000ff;stroke:#0000ff;" x="352.211262" xlink:href="#m5f514ba6a3" y="76.241373"/>
     <use style="fill:#0000ff;stroke:#0000ff;" x="355.318058" xlink:href="#m5f514ba6a3" y="68.602862"/>
     <use style="fill:#0000ff;stroke:#0000ff;" x="358.424854" xlink:href="#m5f514ba6a3" y="74.052299"/>
     <use style="fill:#0000ff;stroke:#0000ff;" x="361.53165" xlink:href="#m5f514ba6a3" y="85.239767"/>
     <use style="fill:#0000ff;stroke:#0000ff;" x="364.638447" xlink:href="#m5f514ba6a3" y="72.116542"/>
     <use style="fill:#0000ff;stroke:#0000ff;" x="367.745243" xlink:href="#m5f514ba6a3" y="65.042356"/>
     <use style="fill:#0000ff;stroke:#0000ff;" x="373.958835" xlink:href="#m5f514ba6a3" y="69.692528"/>
     <use style="fill:#0000ff;stroke:#0000ff;" x="377.065631" xlink:href="#m5f514ba6a3" y="65.874829"/>
     <use style="fill:#0000ff;stroke:#0000ff;" x="380.172427" xlink:href="#m5f514ba6a3" y="79.764376"/>
     <use style="fill:#0000ff;stroke:#0000ff;" x="392.599612" xlink:href="#m5f514ba6a3" y="73.366532"/>
     <use style="fill:#0000ff;stroke:#0000ff;" x="401.92" xlink:href="#m5f514ba6a3" y="76.28101"/>
    </g>
   </g>
   <g id="patch_3">
    <path d="M 69.12 96.768 
L 69.12 44.928 
" style="fill:none;stroke:#000000;stroke-linecap:square;stroke-linejoin:miter;stroke-width:0.8;"/>
   </g>
   <g id="patch_4">
    <path d="M 414.72 96.768 
L 414.72 44.928 
" style="fill:none;stroke:#000000;stroke-linecap:square;stroke-linejoin:miter;stroke-width:0.8;"/>
   </g>
   <g id="patch_5">
    <path d="M 69.12 96.768 
L 414.72 96.768 
" style="fill:none;stroke:#000000;stroke-linecap:square;stroke-linejoin:miter;stroke-width:0.8;"/>
   </g>
   <g id="patch_6">
    <path d="M 69.12 44.928 
L 414.72 44.928 
" style="fill:none;stroke:#000000;stroke-linecap:square;stroke-linejoin:miter;stroke-width:0.8;"/>
   </g>
   <g id="text_4">
    <!-- Function (0/0): y = a*exp(-(x-x0)**2/w**2)+b -->
    <defs>
     <path d="M 9.8125 72.90625 
L 51.703125 72.90625 
L 51.703125 64.59375 
L 19.671875 64.59375 
L 19.671875 43.109375 
L 48.578125 43.109375 
L 48.578125 34.8125 
L 19.671875 34.8125 
L 19.671875 0 
L 9.8125 0 
z
" id="DejaVuSans-46"/>
     <path d="M 48.78125 52.59375 
L 48.78125 44.1875 
Q 44.96875 46.296875 41.140625 47.34375 
Q 37.3125 48.390625 33.40625 48.390625 
Q 24.65625 48.390625 19.8125 42.84375 
Q 14.984375 37.3125 14.984375 27.296875 
Q 14.984375 17.28125 19.8125 11.734375 
Q 24.65625 6.203125 33.40625 6.203125 
Q 37.3125 6.203125 41.140625 7.25 
Q 44.96875 8.296875 48.78125 10.40625 
L 48.78125 2.09375 
Q 45.015625 0.34375 40.984375 -0.53125 
Q 36.96875 -1.421875 32.421875 -1.421875 
Q 20.0625 -1.421875 12.78125 6.34375 
Q 5.515625 14.109375 5.515625 27.296875 
Q 5.515625 40.671875 12.859375 48.328125 
Q 20.21875 56 33.015625 56 
Q 37.15625 56 41.109375 55.140625 
Q 45.0625 54.296875 48.78125 52.59375 
z
" id="DejaVuSans-63"/>
     <path d="M 30.609375 48.390625 
Q 23.390625 48.390625 19.1875 42.75 
Q 14.984375 37.109375 14.984375 27.296875 
Q 14.984375 17.484375 19.15625 11.84375 
Q 23.34375 6.203125 30.609375 6.203125 
Q 37.796875 6.203125 41.984375 11.859375 
Q 46.1875 17.53125 46.1875 27.296875 
Q 46.1875 37.015625 41.984375 42.703125 
Q 37.796875 48.390625 30.609375 48.390625 
z
M 30.609375 56 
Q 42.328125 56 49.015625 48.375 
Q 55.71875 40.765625 55.71875 27.296875 
Q 55.71875 13.875 49.015625 6.21875 
Q 42.328125 -1.421875 30.609375 -1.421875 
Q 18.84375 -1.421875 12.171875 6.21875 
Q 5.515625 13.875 5.515625 27.296875 
Q 5.515625 40.765625 12.171875 48.375 
Q 18.84375 56 30.609375 56 
z
" id="DejaVuSans-6f"/>
     <path id="DejaVuSans-20"/>
     <path d="M 31 75.875 
Q 24.46875 64.65625 21.28125 53.65625 
Q 18.109375 42.671875 18.109375 31.390625 
Q 18.109375 20.125 21.3125 9.0625 
Q 24.515625 -2 31 -13.1875 
L 23.1875 -13.1875 
Q 15.875 -1.703125 12.234375 9.375 
Q 8.59375 20.453125 8.59375 31.390625 
Q 8.59375 42.28125 12.203125 53.3125 
Q 15.828125 64.359375 23.1875 75.875 
z
" id="DejaVuSans-28"/>
     <path d="M 31.78125 66.40625 
Q 24.171875 66.40625 20.328125 58.90625 
Q 16.5 51.421875 16.5 36.375 
Q 16.5 21.390625 20.328125 13.890625 
Q 24.171875 6.390625 31.78125 6.390625 
Q 39.453125 6.390625 43.28125 13.890625 
Q 47.125 21.390625 47.125 36.375 
Q 47.125 51.421875 43.28125 58.90625 
Q 39.453125 66.40625 31.78125 66.40625 
z
M 31.78125 74.21875 
Q 44.046875 74.21875 50.515625 64.515625 
Q 56.984375 54.828125 56.984375 36.375 
Q 56.984375 17.96875 50.515625 8.265625 
Q 44.046875 -1.421875 31.78125 -1.421875 
Q 19.53125 -1.421875 13.0625 8.265625 
Q 6.59375 17.96875 6.59375 36.375 
Q 6.59375 54.828125 13.0625 64.515625 
Q 19.53125 74.21875 31.78125 74.21875 
z
" id="DejaVuSans-30"/>
     <path d="M 25.390625 72.90625 
L 33.6875 72.90625 
L 8.296875 -9.28125 
L 0 -9.28125 
z
" id="DejaVuSans-2f"/>
     <path d="M 8.015625 75.875 
L 15.828125 75.875 
Q 23.140625 64.359375 26.78125 53.3125 
Q 30.421875 42.28125 30.421875 31.390625 
Q 30.421875 20.453125 26.78125 9.375 
Q 23.140625 -1.703125 15.828125 -13.1875 
L 8.015625 -13.1875 
Q 14.5 -2 17.703125 9.0625 
Q 20.90625 20.125 20.90625 31.390625 
Q 20.90625 42.671875 17.703125 53.65625 
Q 14.5 64.65625 8.015625 75.875 
z
" id="DejaVuSans-29"/>
     <path d="M 11.71875 12.40625 
L 22.015625 12.40625 
L 22.015625 0 
L 11.71875 0 
z
M 11.71875 51.703125 
L 22.015625 51.703125 
L 22.015625 39.3125 
L 11.71875 39.3125 
z
" id="DejaVuSans-3a"/>
     <path d="M 32.171875 -5.078125 
Q 28.375 -14.84375 24.75 -17.8125 
Q 21.140625 -20.796875 15.09375 -20.796875 
L 7.90625 -20.796875 
L 7.90625 -13.28125 
L 13.1875 -13.28125 
Q 16.890625 -13.28125 18.9375 -11.515625 
Q 21 -9.765625 23.484375 -3.21875 
L 25.09375 0.875 
L 2.984375 54.6875 
L 12.5 54.6875 
L 29.59375 11.921875 
L 46.6875 54.6875 
L 56.203125 54.6875 
z
" id="DejaVuSans-79"/>
     <path d="M 10.59375 45.40625 
L 73.1875 45.40625 
L 73.1875 37.203125 
L 10.59375 37.203125 
z
M 10.59375 25.484375 
L 73.1875 25.484375 
L 73.1875 17.1875 
L 10.59375 17.1875 
z
" id="DejaVuSans-3d"/>
     <path d="M 47.015625 60.890625 
L 29.5 51.421875 
L 47.015625 41.890625 
L 44.1875 37.109375 
L 27.78125 47.015625 
L 27.78125 28.609375 
L 22.21875 28.609375 
L 22.21875 47.015625 
L 5.8125 37.109375 
L 2.984375 41.890625 
L 20.515625 51.421875 
L 2.984375 60.890625 
L 5.8125 65.71875 
L 22.21875 55.8125 
L 22.21875 74.21875 
L 27.78125 74.21875 
L 27.78125 55.8125 
L 44.1875 65.71875 
z
" id="DejaVuSans-2a"/>
     <path d="M 54.890625 54.6875 
L 35.109375 28.078125 
L 55.90625 0 
L 45.3125 0 
L 29.390625 21.484375 
L 13.484375 0 
L 2.875 0 
L 24.125 28.609375 
L 4.6875 54.6875 
L 15.28125 54.6875 
L 29.78125 35.203125 
L 44.28125 54.6875 
z
" id="DejaVuSans-78"/>
     <path d="M 18.109375 8.203125 
L 18.109375 -20.796875 
L 9.078125 -20.796875 
L 9.078125 54.6875 
L 18.109375 54.6875 
L 18.109375 46.390625 
Q 20.953125 51.265625 25.265625 53.625 
Q 29.59375 56 35.59375 56 
Q 45.5625 56 51.78125 48.09375 
Q 58.015625 40.1875 58.015625 27.296875 
Q 58.015625 14.40625 51.78125 6.484375 
Q 45.5625 -1.421875 35.59375 -1.421875 
Q 29.59375 -1.421875 25.265625 0.953125 
Q 20.953125 3.328125 18.109375 8.203125 
z
M 48.6875 27.296875 
Q 48.6875 37.203125 44.609375 42.84375 
Q 40.53125 48.484375 33.40625 48.484375 
Q 26.265625 48.484375 22.1875 42.84375 
Q 18.109375 37.203125 18.109375 27.296875 
Q 18.109375 17.390625 22.1875 11.75 
Q 26.265625 6.109375 33.40625 6.109375 
Q 40.53125 6.109375 44.609375 11.75 
Q 48.6875 17.390625 48.6875 27.296875 
z
" id="DejaVuSans-70"/>
     <path d="M 4.890625 31.390625 
L 31.203125 31.390625 
L 31.203125 23.390625 
L 4.890625 23.390625 
z
" id="DejaVuSans-2d"/>
     <path d="M 19.1875 8.296875 
L 53.609375 8.296875 
L 53.609375 0 
L 7.328125 0 
L 7.328125 8.296875 
Q 12.9375 14.109375 22.625 23.890625 
Q 32.328125 33.6875 34.8125 36.53125 
Q 39.546875 41.84375 41.421875 45.53125 
Q 43.3125 49.21875 43.3125 52.78125 
Q 43.3125 58.59375 39.234375 62.25 
Q 35.15625 65.921875 28.609375 65.921875 
Q 23.96875 65.921875 18.8125 64.3125 
Q 13.671875 62.703125 7.8125 59.421875 
L 7.8125 69.390625 
Q 13.765625 71.78125 18.9375 73 
Q 24.125 74.21875 28.421875 74.21875 
Q 39.75 74.21875 46.484375 68.546875 
Q 53.21875 62.890625 53.21875 53.421875 
Q 53.21875 48.921875 51.53125 44.890625 
Q 49.859375 40.875 45.40625 35.40625 
Q 44.1875 33.984375 37.640625 27.21875 
Q 31.109375 20.453125 19.1875 8.296875 
z
" id="DejaVuSans-32"/>
     <path d="M 4.203125 54.6875 
L 13.1875 54.6875 
L 24.421875 12.015625 
L 35.59375 54.6875 
L 46.1875 54.6875 
L 57.421875 12.015625 
L 68.609375 54.6875 
L 77.59375 54.6875 
L 63.28125 0 
L 52.6875 0 
L 40.921875 44.828125 
L 29.109375 0 
L 18.5 0 
z
" id="DejaVuSans-77"/>
     <path d="M 46 62.703125 
L 46 35.5 
L 73.1875 35.5 
L 73.1875 27.203125 
L 46 27.203125 
L 46 0 
L 37.796875 0 
L 37.796875 27.203125 
L 10.59375 27.203125 
L 10.59375 35.5 
L 37.796875 35.5 
L 37.796875 62.703125 
z
" id="DejaVuSans-2b"/>
     <path d="M 48.6875 27.296875 
Q 48.6875 37.203125 44.609375 42.84375 
Q 40.53125 48.484375 33.40625 48.484375 
Q 26.265625 48.484375 22.1875 42.84375 
Q 18.109375 37.203125 18.109375 27.296875 
Q 18.109375 17.390625 22.1875 11.75 
Q 26.265625 6.109375 33.40625 6.109375 
Q 40.53125 6.109375 44.609375 11.75 
Q 48.6875 17.390625 48.6875 27.296875 
z
M 18.109375 46.390625 
Q 20.953125 51.265625 25.265625 53.625 
Q 29.59375 56 35.59375 56 
Q 45.5625 56 51.78125 48.09375 
Q 58.015625 40.1875 58.015625 27.296875 
Q 58.015625 14.40625 51.78125 6.484375 
Q 45.5625 -1.421875 35.59375 -1.421875 
Q 29.59375 -1.421875 25.265625 0.953125 
Q 20.953125 3.328125 18.109375 8.203125 
L 18.109375 0 
L 9.078125 0 
L 9.078125 75.984375 
L 18.109375 75.984375 
z
" id="DejaVuSans-62"/>
    </defs>
    <g transform="translate(69.12 27.730187)scale(0.1 -0.1)">
     <use xlink:href="#DejaVuSans-46"/>
     <use x="57.441406" xlink:href="#DejaVuSans-75"/>
     <use x="120.820312" xlink:href="#DejaVuSans-6e"/>
     <use x="184.199219" xlink:href="#DejaVuSans-63"/>
     <use x="239.179688" xlink:href="#DejaVuSans-74"/>
     <use x="278.388672" xlink:href="#DejaVuSans-69"/>
     <use x="306.171875" xlink:href="#DejaVuSans-6f"/>
     <use x="367.353516" xlink:href="#DejaVuSans-6e"/>
     <use x="430.732422" xlink:href="#DejaVuSans-20"/>
     <use x="462.519531" xlink:href="#DejaVuSans-28"/>
     <use x="501.533203" xlink:href="#DejaVuSans-30"/>
     <use x="565.15625" xlink:href="#DejaVuSans-2f"/>
     <use x="598.847656" xlink:href="#DejaVuSans-30"/>
     <use x="662.470703" xlink:href="#DejaVuSans-29"/>
     <use x="701.484375" xlink:href="#DejaVuSans-3a"/>
     <use x="735.175781" xlink:href="#DejaVuSans-20"/>
     <use x="766.962891" xlink:href="#DejaVuSans-79"/>
     <use x="826.142578" xlink:href="#DejaVuSans-20"/>
     <use x="857.929688" xlink:href="#DejaVuSans-3d"/>
     <use x="941.71875" xlink:href="#DejaVuSans-20"/>
     <use x="973.505859" xlink:href="#DejaVuSans-61"/>
     <use x="1034.785156" xlink:href="#DejaVuSans-2a"/>
     <use x="1084.785156" xlink:href="#DejaVuSans-65"/>
     <use x="1146.292969" xlink:href="#DejaVuSans-78"/>
     <use x="1205.472656" xlink:href="#DejaVuSans-70"/>
     <use x="1268.949219" xlink:href="#DejaVuSans-28"/>
     <use x="1307.962891" xlink:href="#DejaVuSans-2d"/>
     <use x="1344.046875" xlink:href="#DejaVuSans-28"/>
     <use x="1383.060547" xlink:href="#DejaVuSans-78"/>
     <use x="1442.240234" xlink:href="#DejaVuSans-2d"/>
     <use x="1478.324219" xlink:href="#DejaVuSans-78"/>
     <use x="1537.503906" xlink:href="#DejaVuSans-30"/>
     <use x="1601.126953" xlink:href="#DejaVuSans-29"/>
     <use x="1640.140625" xlink:href="#DejaVuSans-2a"/>
     <use x="1690.140625" xlink:href="#DejaVuSans-2a"/>
     <use x="1740.140625" xlink:href="#DejaVuSans-32"/>
     <use x="1803.763672" xlink:href="#DejaVuSans-2f"/>
     <use x="1837.455078" xlink:href="#DejaVuSans-77"/>
     <use x="1919.242188" xlink:href="#DejaVuSans-2a"/>
     <use x="1969.242188" xlink:href="#DejaVuSans-2a"/>
     <use x="2019.242188" xlink:href="#DejaVuSans-32"/>
     <use x="2082.865234" xlink:href="#DejaVuSans-29"/>
     <use x="2121.878906" xlink:href="#DejaVuSans-2b"/>
     <use x="2205.667969" xlink:href="#DejaVuSans-62"/>
    </g>
    <!-- Fit: a=6.03$\pm$0.9, b=4.46$\pm$0.75, x0=4.277$\pm$0.012, w=0.14$\pm$0.028, -->
    <defs>
     <path d="M 33.015625 40.375 
Q 26.375 40.375 22.484375 35.828125 
Q 18.609375 31.296875 18.609375 23.390625 
Q 18.609375 15.53125 22.484375 10.953125 
Q 26.375 6.390625 33.015625 6.390625 
Q 39.65625 6.390625 43.53125 10.953125 
Q 47.40625 15.53125 47.40625 23.390625 
Q 47.40625 31.296875 43.53125 35.828125 
Q 39.65625 40.375 33.015625 40.375 
z
M 52.59375 71.296875 
L 52.59375 62.3125 
Q 48.875 64.0625 45.09375 64.984375 
Q 41.3125 65.921875 37.59375 65.921875 
Q 27.828125 65.921875 22.671875 59.328125 
Q 17.53125 52.734375 16.796875 39.40625 
Q 19.671875 43.65625 24.015625 45.921875 
Q 28.375 48.1875 33.59375 48.1875 
Q 44.578125 48.1875 50.953125 41.515625 
Q 57.328125 34.859375 57.328125 23.390625 
Q 57.328125 12.15625 50.6875 5.359375 
Q 44.046875 -1.421875 33.015625 -1.421875 
Q 20.359375 -1.421875 13.671875 8.265625 
Q 6.984375 17.96875 6.984375 36.375 
Q 6.984375 53.65625 15.1875 63.9375 
Q 23.390625 74.21875 37.203125 74.21875 
Q 40.921875 74.21875 44.703125 73.484375 
Q 48.484375 72.75 52.59375 71.296875 
z
" id="DejaVuSans-36"/>
     <path d="M 10.6875 12.40625 
L 21 12.40625 
L 21 0 
L 10.6875 0 
z
" id="DejaVuSans-2e"/>
     <path d="M 40.578125 39.3125 
Q 47.65625 37.796875 51.625 33 
Q 55.609375 28.21875 55.609375 21.1875 
Q 55.609375 10.40625 48.1875 4.484375 
Q 40.765625 -1.421875 27.09375 -1.421875 
Q 22.515625 -1.421875 17.65625 -0.515625 
Q 12.796875 0.390625 7.625 2.203125 
L 7.625 11.71875 
Q 11.71875 9.328125 16.59375 8.109375 
Q 21.484375 6.890625 26.8125 6.890625 
Q 36.078125 6.890625 40.9375 10.546875 
Q 45.796875 14.203125 45.796875 21.1875 
Q 45.796875 27.640625 41.28125 31.265625 
Q 36.765625 34.90625 28.71875 34.90625 
L 20.21875 34.90625 
L 20.21875 43.015625 
L 29.109375 43.015625 
Q 36.375 43.015625 40.234375 45.921875 
Q 44.09375 48.828125 44.09375 54.296875 
Q 44.09375 59.90625 40.109375 62.90625 
Q 36.140625 65.921875 28.71875 65.921875 
Q 24.65625 65.921875 20.015625 65.03125 
Q 15.375 64.15625 9.8125 62.3125 
L 9.8125 71.09375 
Q 15.4375 72.65625 20.34375 73.4375 
Q 25.25 74.21875 29.59375 74.21875 
Q 40.828125 74.21875 47.359375 69.109375 
Q 53.90625 64.015625 53.90625 55.328125 
Q 53.90625 49.265625 50.4375 45.09375 
Q 46.96875 40.921875 40.578125 39.3125 
z
" id="DejaVuSans-33"/>
     <path d="M 46 62.703125 
L 46 43.796875 
L 73.1875 43.796875 
L 73.1875 35.5 
L 46 35.5 
L 46 16.609375 
L 37.796875 16.609375 
L 37.796875 35.5 
L 10.59375 35.5 
L 10.59375 43.796875 
L 37.796875 43.796875 
L 37.796875 62.703125 
z
M 10.59375 8.296875 
L 73.1875 8.296875 
L 73.1875 0 
L 10.59375 0 
z
" id="DejaVuSans-b1"/>
     <path d="M 10.984375 1.515625 
L 10.984375 10.5 
Q 14.703125 8.734375 18.5 7.8125 
Q 22.3125 6.890625 25.984375 6.890625 
Q 35.75 6.890625 40.890625 13.453125 
Q 46.046875 20.015625 46.78125 33.40625 
Q 43.953125 29.203125 39.59375 26.953125 
Q 35.25 24.703125 29.984375 24.703125 
Q 19.046875 24.703125 12.671875 31.3125 
Q 6.296875 37.9375 6.296875 49.421875 
Q 6.296875 60.640625 12.9375 67.421875 
Q 19.578125 74.21875 30.609375 74.21875 
Q 43.265625 74.21875 49.921875 64.515625 
Q 56.59375 54.828125 56.59375 36.375 
Q 56.59375 19.140625 48.40625 8.859375 
Q 40.234375 -1.421875 26.421875 -1.421875 
Q 22.703125 -1.421875 18.890625 -0.6875 
Q 15.09375 0.046875 10.984375 1.515625 
z
M 30.609375 32.421875 
Q 37.25 32.421875 41.125 36.953125 
Q 45.015625 41.5 45.015625 49.421875 
Q 45.015625 57.28125 41.125 61.84375 
Q 37.25 66.40625 30.609375 66.40625 
Q 23.96875 66.40625 20.09375 61.84375 
Q 16.21875 57.28125 16.21875 49.421875 
Q 16.21875 41.5 20.09375 36.953125 
Q 23.96875 32.421875 30.609375 32.421875 
z
" id="DejaVuSans-39"/>
     <path d="M 11.71875 12.40625 
L 22.015625 12.40625 
L 22.015625 4 
L 14.015625 -11.625 
L 7.71875 -11.625 
L 11.71875 4 
z
" id="DejaVuSans-2c"/>
     <path d="M 37.796875 64.3125 
L 12.890625 25.390625 
L 37.796875 25.390625 
z
M 35.203125 72.90625 
L 47.609375 72.90625 
L 47.609375 25.390625 
L 58.015625 25.390625 
L 58.015625 17.1875 
L 47.609375 17.1875 
L 47.609375 0 
L 37.796875 0 
L 37.796875 17.1875 
L 4.890625 17.1875 
L 4.890625 26.703125 
z
" id="DejaVuSans-34"/>
     <path d="M 8.203125 72.90625 
L 55.078125 72.90625 
L 55.078125 68.703125 
L 28.609375 0 
L 18.3125 0 
L 43.21875 64.59375 
L 8.203125 64.59375 
z
" id="DejaVuSans-37"/>
     <path d="M 10.796875 72.90625 
L 49.515625 72.90625 
L 49.515625 64.59375 
L 19.828125 64.59375 
L 19.828125 46.734375 
Q 21.96875 47.46875 24.109375 47.828125 
Q 26.265625 48.1875 28.421875 48.1875 
Q 40.625 48.1875 47.75 41.5 
Q 54.890625 34.8125 54.890625 23.390625 
Q 54.890625 11.625 47.5625 5.09375 
Q 40.234375 -1.421875 26.90625 -1.421875 
Q 22.3125 -1.421875 17.546875 -0.640625 
Q 12.796875 0.140625 7.71875 1.703125 
L 7.71875 11.625 
Q 12.109375 9.234375 16.796875 8.0625 
Q 21.484375 6.890625 26.703125 6.890625 
Q 35.15625 6.890625 40.078125 11.328125 
Q 45.015625 15.765625 45.015625 23.390625 
Q 45.015625 31 40.078125 35.4375 
Q 35.15625 39.890625 26.703125 39.890625 
Q 22.75 39.890625 18.8125 39.015625 
Q 14.890625 38.140625 10.796875 36.28125 
z
" id="DejaVuSans-35"/>
     <path d="M 31.78125 34.625 
Q 24.75 34.625 20.71875 30.859375 
Q 16.703125 27.09375 16.703125 20.515625 
Q 16.703125 13.921875 20.71875 10.15625 
Q 24.75 6.390625 31.78125 6.390625 
Q 38.8125 6.390625 42.859375 10.171875 
Q 46.921875 13.96875 46.921875 20.515625 
Q 46.921875 27.09375 42.890625 30.859375 
Q 38.875 34.625 31.78125 34.625 
z
M 21.921875 38.8125 
Q 15.578125 40.375 12.03125 44.71875 
Q 8.5 49.078125 8.5 55.328125 
Q 8.5 64.0625 14.71875 69.140625 
Q 20.953125 74.21875 31.78125 74.21875 
Q 42.671875 74.21875 48.875 69.140625 
Q 55.078125 64.0625 55.078125 55.328125 
Q 55.078125 49.078125 51.53125 44.71875 
Q 48 40.375 41.703125 38.8125 
Q 48.828125 37.15625 52.796875 32.3125 
Q 56.78125 27.484375 56.78125 20.515625 
Q 56.78125 9.90625 50.3125 4.234375 
Q 43.84375 -1.421875 31.78125 -1.421875 
Q 19.734375 -1.421875 13.25 4.234375 
Q 6.78125 9.90625 6.78125 20.515625 
Q 6.78125 27.484375 10.78125 32.3125 
Q 14.796875 37.15625 21.921875 38.8125 
z
M 18.3125 54.390625 
Q 18.3125 48.734375 21.84375 45.5625 
Q 25.390625 42.390625 31.78125 42.390625 
Q 38.140625 42.390625 41.71875 45.5625 
Q 45.3125 48.734375 45.3125 54.390625 
Q 45.3125 60.0625 41.71875 63.234375 
Q 38.140625 66.40625 31.78125 66.40625 
Q 25.390625 66.40625 21.84375 63.234375 
Q 18.3125 60.0625 18.3125 54.390625 
z
" id="DejaVuSans-38"/>
    </defs>
    <g transform="translate(69.12 38.928)scale(0.1 -0.1)">
     <use transform="translate(0 0.015625)" xlink:href="#DejaVuSans-46"/>
     <use transform="translate(57.519531 0.015625)" xlink:href="#DejaVuSans-69"/>
     <use transform="translate(85.302734 0.015625)" xlink:href="#DejaVuSans-74"/>
     <use transform="translate(124.511719 0.015625)" xlink:href="#DejaVuSans-3a"/>
     <use transform="translate(158.203125 0.015625)" xlink:href="#DejaVuSans-20"/>
     <use transform="translate(189.990234 0.015625)" xlink:href="#DejaVuSans-61"/>
     <use transform="translate(251.269531 0.015625)" xlink:href="#DejaVuSans-3d"/>
     <use transform="translate(335.058594 0.015625)" xlink:href="#DejaVuSans-36"/>
     <use transform="translate(398.681641 0.015625)" xlink:href="#DejaVuSans-2e"/>
     <use transform="translate(430.46875 0.015625)" xlink:href="#DejaVuSans-30"/>
     <use transform="translate(494.091797 0.015625)" xlink:href="#DejaVuSans-33"/>
     <use transform="translate(557.714844 0.015625)" xlink:href="#DejaVuSans-b1"/>
     <use transform="translate(641.503906 0.015625)" xlink:href="#DejaVuSans-30"/>
     <use transform="translate(705.126953 0.015625)" xlink:href="#DejaVuSans-2e"/>
     <use transform="translate(736.914062 0.015625)" xlink:href="#DejaVuSans-39"/>
     <use transform="translate(800.537109 0.015625)" xlink:href="#DejaVuSans-2c"/>
     <use transform="translate(832.324219 0.015625)" xlink:href="#DejaVuSans-20"/>
     <use transform="translate(864.111328 0.015625)" xlink:href="#DejaVuSans-62"/>
     <use transform="translate(927.587891 0.015625)" xlink:href="#DejaVuSans-3d"/>
     <use transform="translate(1011.376953 0.015625)" xlink:href="#DejaVuSans-34"/>
     <use transform="translate(1075 0.015625)" xlink:href="#DejaVuSans-2e"/>
     <use transform="translate(1106.787109 0.015625)" xlink:href="#DejaVuSans-34"/>
     <use transform="translate(1170.410156 0.015625)" xlink:href="#DejaVuSans-36"/>
     <use transform="translate(1234.033203 0.015625)" xlink:href="#DejaVuSans-b1"/>
     <use transform="translate(1317.822266 0.015625)" xlink:href="#DejaVuSans-30"/>
     <use transform="translate(1381.445312 0.015625)" xlink:href="#DejaVuSans-2e"/>
     <use transform="translate(1413.123047 0.015625)" xlink:href="#DejaVuSans-37"/>
     <use transform="translate(1476.746094 0.015625)" xlink:href="#DejaVuSans-35"/>
     <use transform="translate(1540.369141 0.015625)" xlink:href="#DejaVuSans-2c"/>
     <use transform="translate(1572.15625 0.015625)" xlink:href="#DejaVuSans-20"/>
     <use transform="translate(1603.943359 0.015625)" xlink:href="#DejaVuSans-78"/>
     <use transform="translate(1663.123047 0.015625)" xlink:href="#DejaVuSans-30"/>
     <use transform="translate(1726.746094 0.015625)" xlink:href="#DejaVuSans-3d"/>
     <use transform="translate(1810.535156 0.015625)" xlink:href="#DejaVuSans-34"/>
     <use transform="translate(1874.158203 0.015625)" xlink:href="#DejaVuSans-2e"/>
     <use transform="translate(1905.867188 0.015625)" xlink:href="#DejaVuSans-32"/>
     <use transform="translate(1969.490234 0.015625)" xlink:href="#DejaVuSans-37"/>
     <use transform="translate(2033.097656 0.015625)" xlink:href="#DejaVuSans-37"/>
     <use transform="translate(2096.720703 0.015625)" xlink:href="#DejaVuSans-b1"/>
     <use transform="translate(2180.509766 0.015625)" xlink:href="#DejaVuSans-30"/>
     <use transform="translate(2244.132812 0.015625)" xlink:href="#DejaVuSans-2e"/>
     <use transform="translate(2275.919922 0.015625)" xlink:href="#DejaVuSans-30"/>
     <use transform="translate(2339.542969 0.015625)" xlink:href="#DejaVuSans-31"/>
     <use transform="translate(2403.166016 0.015625)" xlink:href="#DejaVuSans-32"/>
     <use transform="translate(2466.789062 0.015625)" xlink:href="#DejaVuSans-2c"/>
     <use transform="translate(2498.576172 0.015625)" xlink:href="#DejaVuSans-20"/>
     <use transform="translate(2530.363281 0.015625)" xlink:href="#DejaVuSans-77"/>
     <use transform="translate(2612.150391 0.015625)" xlink:href="#DejaVuSans-3d"/>
     <use transform="translate(2695.939453 0.015625)" xlink:href="#DejaVuSans-30"/>
     <use transform="translate(2759.5625 0.015625)" xlink:href="#DejaVuSans-2e"/>
     <use transform="translate(2791.349609 0.015625)" xlink:href="#DejaVuSans-31"/>
     <use transform="translate(2854.972656 0.015625)" xlink:href="#DejaVuSans-34"/>
     <use transform="translate(2918.595703 0.015625)" xlink:href="#DejaVuSans-b1"/>
     <use transform="translate(3002.384766 0.015625)" xlink:href="#DejaVuSans-30"/>
     <use transform="translate(3066.007812 0.015625)" xlink:href="#DejaVuSans-2e"/>
     <use transform="translate(3097.794922 0.015625)" xlink:href="#DejaVuSans-30"/>
     <use transform="translate(3161.417969 0.015625)" xlink:href="#DejaVuSans-32"/>
     <use transform="translate(3225.041016 0.015625)" xlink:href="#DejaVuSans-38"/>
     <use transform="translate(3288.664062 0.015625)" xlink:href="#DejaVuSans-2c"/>
    </g>
   </g>
  </g>
  <g id="axes_2">
   <g id="patch_7">
    <path d="M 69.12 311.04 
L 414.72 311.04 
L 414.72 103.68 
L 69.12 103.68 
z
" style="fill:#ffffff;"/>
   </g>
   <g id="matplotlib.axis_3">
    <g id="xtick_8">
     <g id="line2d_13">
      <g>
       <use style="stroke:#000000;stroke-width:0.8;" x="76.820599" xlink:href="#mb6a7441782" y="311.04"/>
      </g>
     </g>
     <g id="text_5">
      <!-- 3.9 -->
      <g transform="translate(64.893255 329.437656)scale(0.15 -0.15)">
       <use xlink:href="#DejaVuSans-33"/>
       <use x="63.623047" xlink:href="#DejaVuSans-2e"/>
       <use x="95.410156" xlink:href="#DejaVuSans-39"/>
      </g>
     </g>
    </g>
    <g id="xtick_9">
     <g id="line2d_14">
      <g>
       <use style="stroke:#000000;stroke-width:0.8;" x="129.04629" xlink:href="#mb6a7441782" y="311.04"/>
      </g>
     </g>
     <g id="text_6">
      <!-- 4.0 -->
      <g transform="translate(117.118946 329.437656)scale(0.15 -0.15)">
       <use xlink:href="#DejaVuSans-34"/>
       <use x="63.623047" xlink:href="#DejaVuSans-2e"/>
       <use x="95.410156" xlink:href="#DejaVuSans-30"/>
      </g>
     </g>
    </g>
    <g id="xtick_10">
     <g id="line2d_15">
      <g>
       <use style="stroke:#000000;stroke-width:0.8;" x="181.271981" xlink:href="#mb6a7441782" y="311.04"/>
      </g>
     </g>
     <g id="text_7">
      <!-- 4.1 -->
      <g transform="translate(169.344637 329.437656)scale(0.15 -0.15)">
       <use xlink:href="#DejaVuSans-34"/>
       <use x="63.623047" xlink:href="#DejaVuSans-2e"/>
       <use x="95.410156" xlink:href="#DejaVuSans-31"/>
      </g>
     </g>
    </g>
    <g id="xtick_11">
     <g id="line2d_16">
      <g>
       <use style="stroke:#000000;stroke-width:0.8;" x="233.497672" xlink:href="#mb6a7441782" y="311.04"/>
      </g>
     </g>
     <g id="text_8">
      <!-- 4.2 -->
      <g transform="translate(221.570329 329.437656)scale(0.15 -0.15)">
       <use xlink:href="#DejaVuSans-34"/>
       <use x="63.623047" xlink:href="#DejaVuSans-2e"/>
       <use x="95.410156" xlink:href="#DejaVuSans-32"/>
      </g>
     </g>
    </g>
    <g id="xtick_12">
     <g id="line2d_17">
      <g>
       <use style="stroke:#000000;stroke-width:0.8;" x="285.723363" xlink:href="#mb6a7441782" y="311.04"/>
      </g>
     </g>
     <g id="text_9">
      <!-- 4.3 -->
      <g transform="translate(273.79602 329.437656)scale(0.15 -0.15)">
       <use xlink:href="#DejaVuSans-34"/>
       <use x="63.623047" xlink:href="#DejaVuSans-2e"/>
       <use x="95.410156" xlink:href="#DejaVuSans-33"/>
      </g>
     </g>
    </g>
    <g id="xtick_13">
     <g id="line2d_18">
      <g>
       <use style="stroke:#000000;stroke-width:0.8;" x="337.949055" xlink:href="#mb6a7441782" y="311.04"/>
      </g>
     </g>
     <g id="text_10">
      <!-- 4.4 -->
      <g transform="translate(326.021711 329.437656)scale(0.15 -0.15)">
       <use xlink:href="#DejaVuSans-34"/>
       <use x="63.623047" xlink:href="#DejaVuSans-2e"/>
       <use x="95.410156" xlink:href="#DejaVuSans-34"/>
      </g>
     </g>
    </g>
    <g id="xtick_14">
     <g id="line2d_19">
      <g>
       <use style="stroke:#000000;stroke-width:0.8;" x="390.174746" xlink:href="#mb6a7441782" y="311.04"/>
      </g>
     </g>
     <g id="text_11">
      <!-- 4.5 -->
      <g transform="translate(378.247402 329.437656)scale(0.15 -0.15)">
       <use xlink:href="#DejaVuSans-34"/>
       <use x="63.623047" xlink:href="#DejaVuSans-2e"/>
       <use x="95.410156" xlink:href="#DejaVuSans-35"/>
      </g>
     </g>
    </g>
    <g id="text_12">
     <!-- Energy [MeV] -->
     <defs>
      <path d="M 9.8125 72.90625 
L 55.90625 72.90625 
L 55.90625 64.59375 
L 19.671875 64.59375 
L 19.671875 43.015625 
L 54.390625 43.015625 
L 54.390625 34.71875 
L 19.671875 34.71875 
L 19.671875 8.296875 
L 56.78125 8.296875 
L 56.78125 0 
L 9.8125 0 
z
" id="DejaVuSans-45"/>
      <path d="M 41.109375 46.296875 
Q 39.59375 47.171875 37.8125 47.578125 
Q 36.03125 48 33.890625 48 
Q 26.265625 48 22.1875 43.046875 
Q 18.109375 38.09375 18.109375 28.8125 
L 18.109375 0 
L 9.078125 0 
L 9.078125 54.6875 
L 18.109375 54.6875 
L 18.109375 46.1875 
Q 20.953125 51.171875 25.484375 53.578125 
Q 30.03125 56 36.53125 56 
Q 37.453125 56 38.578125 55.875 
Q 39.703125 55.765625 41.0625 55.515625 
z
" id="DejaVuSans-72"/>
      <path d="M 45.40625 27.984375 
Q 45.40625 37.75 41.375 43.109375 
Q 37.359375 48.484375 30.078125 48.484375 
Q 22.859375 48.484375 18.828125 43.109375 
Q 14.796875 37.75 14.796875 27.984375 
Q 14.796875 18.265625 18.828125 12.890625 
Q 22.859375 7.515625 30.078125 7.515625 
Q 37.359375 7.515625 41.375 12.890625 
Q 45.40625 18.265625 45.40625 27.984375 
z
M 54.390625 6.78125 
Q 54.390625 -7.171875 48.1875 -13.984375 
Q 42 -20.796875 29.203125 -20.796875 
Q 24.46875 -20.796875 20.265625 -20.09375 
Q 16.0625 -19.390625 12.109375 -17.921875 
L 12.109375 -9.1875 
Q 16.0625 -11.328125 19.921875 -12.34375 
Q 23.78125 -13.375 27.78125 -13.375 
Q 36.625 -13.375 41.015625 -8.765625 
Q 45.40625 -4.15625 45.40625 5.171875 
L 45.40625 9.625 
Q 42.625 4.78125 38.28125 2.390625 
Q 33.9375 0 27.875 0 
Q 17.828125 0 11.671875 7.65625 
Q 5.515625 15.328125 5.515625 27.984375 
Q 5.515625 40.671875 11.671875 48.328125 
Q 17.828125 56 27.875 56 
Q 33.9375 56 38.28125 53.609375 
Q 42.625 51.21875 45.40625 46.390625 
L 45.40625 54.6875 
L 54.390625 54.6875 
z
" id="DejaVuSans-67"/>
      <path d="M 8.59375 75.984375 
L 29.296875 75.984375 
L 29.296875 69 
L 17.578125 69 
L 17.578125 -6.203125 
L 29.296875 -6.203125 
L 29.296875 -13.1875 
L 8.59375 -13.1875 
z
" id="DejaVuSans-5b"/>
      <path d="M 9.8125 72.90625 
L 24.515625 72.90625 
L 43.109375 23.296875 
L 61.8125 72.90625 
L 76.515625 72.90625 
L 76.515625 0 
L 66.890625 0 
L 66.890625 64.015625 
L 48.09375 14.015625 
L 38.1875 14.015625 
L 19.390625 64.015625 
L 19.390625 0 
L 9.8125 0 
z
" id="DejaVuSans-4d"/>
      <path d="M 28.609375 0 
L 0.78125 72.90625 
L 11.078125 72.90625 
L 34.1875 11.53125 
L 57.328125 72.90625 
L 67.578125 72.90625 
L 39.796875 0 
z
" id="DejaVuSans-56"/>
      <path d="M 30.421875 75.984375 
L 30.421875 -13.1875 
L 9.71875 -13.1875 
L 9.71875 -6.203125 
L 21.390625 -6.203125 
L 21.390625 69 
L 9.71875 69 
L 9.71875 75.984375 
z
" id="DejaVuSans-5d"/>
     </defs>
     <g transform="translate(191.078203 347.954844)scale(0.15 -0.15)">
      <use xlink:href="#DejaVuSans-45"/>
      <use x="63.183594" xlink:href="#DejaVuSans-6e"/>
      <use x="126.5625" xlink:href="#DejaVuSans-65"/>
      <use x="188.085938" xlink:href="#DejaVuSans-72"/>
      <use x="229.183594" xlink:href="#DejaVuSans-67"/>
      <use x="292.660156" xlink:href="#DejaVuSans-79"/>
      <use x="351.839844" xlink:href="#DejaVuSans-20"/>
      <use x="383.626953" xlink:href="#DejaVuSans-5b"/>
      <use x="422.640625" xlink:href="#DejaVuSans-4d"/>
      <use x="508.919922" xlink:href="#DejaVuSans-65"/>
      <use x="570.443359" xlink:href="#DejaVuSans-56"/>
      <use x="638.851562" xlink:href="#DejaVuSans-5d"/>
     </g>
    </g>
   </g>
   <g id="matplotlib.axis_4">
    <g id="ytick_4">
     <g id="line2d_20">
      <g>
       <use style="stroke:#000000;stroke-width:0.8;" x="69.12" xlink:href="#m968929dafe" y="286.664348"/>
      </g>
     </g>
     <g id="text_13">
      <!-- 5.0 -->
      <g transform="translate(38.265313 292.363176)scale(0.15 -0.15)">
       <use xlink:href="#DejaVuSans-35"/>
       <use x="63.623047" xlink:href="#DejaVuSans-2e"/>
       <use x="95.410156" xlink:href="#DejaVuSans-30"/>
      </g>
     </g>
    </g>
    <g id="ytick_5">
     <g id="line2d_21">
      <g>
       <use style="stroke:#000000;stroke-width:0.8;" x="69.12" xlink:href="#m968929dafe" y="244.925217"/>
      </g>
     </g>
     <g id="text_14">
      <!-- 7.5 -->
      <g transform="translate(38.265313 250.624046)scale(0.15 -0.15)">
       <use xlink:href="#DejaVuSans-37"/>
       <use x="63.623047" xlink:href="#DejaVuSans-2e"/>
       <use x="95.410156" xlink:href="#DejaVuSans-35"/>
      </g>
     </g>
    </g>
    <g id="ytick_6">
     <g id="line2d_22">
      <g>
       <use style="stroke:#000000;stroke-width:0.8;" x="69.12" xlink:href="#m968929dafe" y="203.186087"/>
      </g>
     </g>
     <g id="text_15">
      <!-- 10.0 -->
      <g transform="translate(28.721563 208.884915)scale(0.15 -0.15)">
       <use xlink:href="#DejaVuSans-31"/>
       <use x="63.623047" xlink:href="#DejaVuSans-30"/>
       <use x="127.246094" xlink:href="#DejaVuSans-2e"/>
       <use x="159.033203" xlink:href="#DejaVuSans-30"/>
      </g>
     </g>
    </g>
    <g id="ytick_7">
     <g id="line2d_23">
      <g>
       <use style="stroke:#000000;stroke-width:0.8;" x="69.12" xlink:href="#m968929dafe" y="161.446957"/>
      </g>
     </g>
     <g id="text_16">
      <!-- 12.5 -->
      <g transform="translate(28.721563 167.145785)scale(0.15 -0.15)">
       <use xlink:href="#DejaVuSans-31"/>
       <use x="63.623047" xlink:href="#DejaVuSans-32"/>
       <use x="127.246094" xlink:href="#DejaVuSans-2e"/>
       <use x="159.033203" xlink:href="#DejaVuSans-35"/>
      </g>
     </g>
    </g>
    <g id="ytick_8">
     <g id="line2d_24">
      <g>
       <use style="stroke:#000000;stroke-width:0.8;" x="69.12" xlink:href="#m968929dafe" y="119.707826"/>
      </g>
     </g>
     <g id="text_17">
      <!-- 15.0 -->
      <g transform="translate(28.721563 125.406654)scale(0.15 -0.15)">
       <use xlink:href="#DejaVuSans-31"/>
       <use x="63.623047" xlink:href="#DejaVuSans-35"/>
       <use x="127.246094" xlink:href="#DejaVuSans-2e"/>
       <use x="159.033203" xlink:href="#DejaVuSans-30"/>
      </g>
     </g>
    </g>
    <g id="text_18">
     <!-- Counts -->
     <defs>
      <path d="M 64.40625 67.28125 
L 64.40625 56.890625 
Q 59.421875 61.53125 53.78125 63.8125 
Q 48.140625 66.109375 41.796875 66.109375 
Q 29.296875 66.109375 22.65625 58.46875 
Q 16.015625 50.828125 16.015625 36.375 
Q 16.015625 21.96875 22.65625 14.328125 
Q 29.296875 6.6875 41.796875 6.6875 
Q 48.140625 6.6875 53.78125 8.984375 
Q 59.421875 11.28125 64.40625 15.921875 
L 64.40625 5.609375 
Q 59.234375 2.09375 53.4375 0.328125 
Q 47.65625 -1.421875 41.21875 -1.421875 
Q 24.65625 -1.421875 15.125 8.703125 
Q 5.609375 18.84375 5.609375 36.375 
Q 5.609375 53.953125 15.125 64.078125 
Q 24.65625 74.21875 41.21875 74.21875 
Q 47.75 74.21875 53.53125 72.484375 
Q 59.328125 70.75 64.40625 67.28125 
z
" id="DejaVuSans-43"/>
     </defs>
     <g transform="translate(21.602031 233.539687)rotate(-90)scale(0.15 -0.15)">
      <use xlink:href="#DejaVuSans-43"/>
      <use x="69.824219" xlink:href="#DejaVuSans-6f"/>
      <use x="131.005859" xlink:href="#DejaVuSans-75"/>
      <use x="194.384766" xlink:href="#DejaVuSans-6e"/>
      <use x="257.763672" xlink:href="#DejaVuSans-74"/>
      <use x="296.972656" xlink:href="#DejaVuSans-73"/>
     </g>
    </g>
   </g>
   <g id="LineCollection_2">
    <path clip-path="url(#pce91f0f9e5)" d="M 81.92 323.996961 
L 81.92 249.331735 
" style="fill:none;stroke:#0000ff;stroke-width:1.5;"/>
    <path clip-path="url(#pce91f0f9e5)" d="M 94.347184 336.751304 
L 94.347184 269.968696 
" style="fill:none;stroke:#0000ff;stroke-width:1.5;"/>
    <path clip-path="url(#pce91f0f9e5)" d="M 109.881165 330.429001 
L 109.881165 259.595347 
" style="fill:none;stroke:#0000ff;stroke-width:1.5;"/>
    <path clip-path="url(#pce91f0f9e5)" d="M 119.201553 323.996961 
L 119.201553 249.331735 
" style="fill:none;stroke:#0000ff;stroke-width:1.5;"/>
    <path clip-path="url(#pce91f0f9e5)" d="M 122.30835 317.471297 
L 122.30835 239.161747 
" style="fill:none;stroke:#0000ff;stroke-width:1.5;"/>
    <path clip-path="url(#pce91f0f9e5)" d="M 137.84233 336.751304 
L 137.84233 269.968696 
" style="fill:none;stroke:#0000ff;stroke-width:1.5;"/>
    <path clip-path="url(#pce91f0f9e5)" d="M 140.949126 336.751304 
L 140.949126 269.968696 
" style="fill:none;stroke:#0000ff;stroke-width:1.5;"/>
    <path clip-path="url(#pce91f0f9e5)" d="M 144.055922 336.751304 
L 144.055922 269.968696 
" style="fill:none;stroke:#0000ff;stroke-width:1.5;"/>
    <path clip-path="url(#pce91f0f9e5)" d="M 147.162718 290.648144 
L 147.162718 199.202291 
" style="fill:none;stroke:#0000ff;stroke-width:1.5;"/>
    <path clip-path="url(#pce91f0f9e5)" d="M 150.269515 323.996961 
L 150.269515 249.331735 
" style="fill:none;stroke:#0000ff;stroke-width:1.5;"/>
    <path clip-path="url(#pce91f0f9e5)" d="M 156.483107 297.445587 
L 156.483107 209.1005 
" style="fill:none;stroke:#0000ff;stroke-width:1.5;"/>
    <path clip-path="url(#pce91f0f9e5)" d="M 159.589903 310.864524 
L 159.589903 229.072867 
" style="fill:none;stroke:#0000ff;stroke-width:1.5;"/>
    <path clip-path="url(#pce91f0f9e5)" d="M 165.803495 310.864524 
L 165.803495 229.072867 
" style="fill:none;stroke:#0000ff;stroke-width:1.5;"/>
    <path clip-path="url(#pce91f0f9e5)" d="M 168.910291 330.429001 
L 168.910291 259.595347 
" style="fill:none;stroke:#0000ff;stroke-width:1.5;"/>
    <path clip-path="url(#pce91f0f9e5)" d="M 172.017087 336.751304 
L 172.017087 269.968696 
" style="fill:none;stroke:#0000ff;stroke-width:1.5;"/>
    <path clip-path="url(#pce91f0f9e5)" d="M 175.123883 304.186598 
L 175.123883 219.055141 
" style="fill:none;stroke:#0000ff;stroke-width:1.5;"/>
    <path clip-path="url(#pce91f0f9e5)" d="M 181.337476 262.993369 
L 181.337476 160.074457 
" style="fill:none;stroke:#0000ff;stroke-width:1.5;"/>
    <path clip-path="url(#pce91f0f9e5)" d="M 184.444272 330.429001 
L 184.444272 259.595347 
" style="fill:none;stroke:#0000ff;stroke-width:1.5;"/>
    <path clip-path="url(#pce91f0f9e5)" d="M 190.657864 290.648144 
L 190.657864 199.202291 
" style="fill:none;stroke:#0000ff;stroke-width:1.5;"/>
    <path clip-path="url(#pce91f0f9e5)" d="M 196.871456 297.445587 
L 196.871456 209.1005 
" style="fill:none;stroke:#0000ff;stroke-width:1.5;"/>
    <path clip-path="url(#pce91f0f9e5)" d="M 199.978252 297.445587 
L 199.978252 209.1005 
" style="fill:none;stroke:#0000ff;stroke-width:1.5;"/>
    <path clip-path="url(#pce91f0f9e5)" d="M 203.085049 304.186598 
L 203.085049 219.055141 
" style="fill:none;stroke:#0000ff;stroke-width:1.5;"/>
    <path clip-path="url(#pce91f0f9e5)" d="M 206.191845 290.648144 
L 206.191845 199.202291 
" style="fill:none;stroke:#0000ff;stroke-width:1.5;"/>
    <path clip-path="url(#pce91f0f9e5)" d="M 209.298641 310.864524 
L 209.298641 229.072867 
" style="fill:none;stroke:#0000ff;stroke-width:1.5;"/>
    <path clip-path="url(#pce91f0f9e5)" d="M 212.405437 304.186598 
L 212.405437 219.055141 
" style="fill:none;stroke:#0000ff;stroke-width:1.5;"/>
    <path clip-path="url(#pce91f0f9e5)" d="M 215.512233 276.905338 
L 215.512233 179.553793 
" style="fill:none;stroke:#0000ff;stroke-width:1.5;"/>
    <path clip-path="url(#pce91f0f9e5)" d="M 218.619029 276.905338 
L 218.619029 179.553793 
" style="fill:none;stroke:#0000ff;stroke-width:1.5;"/>
    <path clip-path="url(#pce91f0f9e5)" d="M 221.725825 323.996961 
L 221.725825 249.331735 
" style="fill:none;stroke:#0000ff;stroke-width:1.5;"/>
    <path clip-path="url(#pce91f0f9e5)" d="M 224.832621 227.630218 
L 224.832621 111.959347 
" style="fill:none;stroke:#0000ff;stroke-width:1.5;"/>
    <path clip-path="url(#pce91f0f9e5)" d="M 227.939417 297.445587 
L 227.939417 209.1005 
" style="fill:none;stroke:#0000ff;stroke-width:1.5;"/>
    <path clip-path="url(#pce91f0f9e5)" d="M 231.046214 241.863649 
L 231.046214 131.117221 
" style="fill:none;stroke:#0000ff;stroke-width:1.5;"/>
    <path clip-path="url(#pce91f0f9e5)" d="M 234.15301 297.445587 
L 234.15301 209.1005 
" style="fill:none;stroke:#0000ff;stroke-width:1.5;"/>
    <path clip-path="url(#pce91f0f9e5)" d="M 237.259806 255.982375 
L 237.259806 150.389799 
" style="fill:none;stroke:#0000ff;stroke-width:1.5;"/>
    <path clip-path="url(#pce91f0f9e5)" d="M 240.366602 206.095047 
L 240.366602 83.407561 
" style="fill:none;stroke:#0000ff;stroke-width:1.5;"/>
    <path clip-path="url(#pce91f0f9e5)" d="M 243.473398 177.090848 
L 243.473398 45.629152 
" style="fill:none;stroke:#0000ff;stroke-width:1.5;"/>
    <path clip-path="url(#pce91f0f9e5)" d="M 246.580194 227.630218 
L 246.580194 111.959347 
" style="fill:none;stroke:#0000ff;stroke-width:1.5;"/>
    <path clip-path="url(#pce91f0f9e5)" d="M 249.68699 276.905338 
L 249.68699 179.553793 
" style="fill:none;stroke:#0000ff;stroke-width:1.5;"/>
    <path clip-path="url(#pce91f0f9e5)" d="M 252.793786 283.799827 
L 252.793786 189.354956 
" style="fill:none;stroke:#0000ff;stroke-width:1.5;"/>
    <path clip-path="url(#pce91f0f9e5)" d="M 255.900583 206.095047 
L 255.900583 83.407561 
" style="fill:none;stroke:#0000ff;stroke-width:1.5;"/>
    <path clip-path="url(#pce91f0f9e5)" d="M 259.007379 241.863649 
L 259.007379 131.117221 
" style="fill:none;stroke:#0000ff;stroke-width:1.5;"/>
    <path clip-path="url(#pce91f0f9e5)" d="M 262.114175 262.993369 
L 262.114175 160.074457 
" style="fill:none;stroke:#0000ff;stroke-width:1.5;"/>
    <path clip-path="url(#pce91f0f9e5)" d="M 265.220971 269.968696 
L 265.220971 169.794783 
" style="fill:none;stroke:#0000ff;stroke-width:1.5;"/>
    <path clip-path="url(#pce91f0f9e5)" d="M 268.327767 262.993369 
L 268.327767 160.074457 
" style="fill:none;stroke:#0000ff;stroke-width:1.5;"/>
    <path clip-path="url(#pce91f0f9e5)" d="M 271.434563 262.993369 
L 271.434563 160.074457 
" style="fill:none;stroke:#0000ff;stroke-width:1.5;"/>
    <path clip-path="url(#pce91f0f9e5)" d="M 274.541359 241.863649 
L 274.541359 131.117221 
" style="fill:none;stroke:#0000ff;stroke-width:1.5;"/>
    <path clip-path="url(#pce91f0f9e5)" d="M 277.648155 304.186598 
L 277.648155 219.055141 
" style="fill:none;stroke:#0000ff;stroke-width:1.5;"/>
    <path clip-path="url(#pce91f0f9e5)" d="M 280.754951 241.863649 
L 280.754951 131.117221 
" style="fill:none;stroke:#0000ff;stroke-width:1.5;"/>
    <path clip-path="url(#pce91f0f9e5)" d="M 283.861748 191.630802 
L 283.861748 64.480503 
" style="fill:none;stroke:#0000ff;stroke-width:1.5;"/>
    <path clip-path="url(#pce91f0f9e5)" d="M 286.968544 248.938357 
L 286.968544 140.738165 
" style="fill:none;stroke:#0000ff;stroke-width:1.5;"/>
    <path clip-path="url(#pce91f0f9e5)" d="M 290.07534 213.29616 
L 290.07534 92.9021 
" style="fill:none;stroke:#0000ff;stroke-width:1.5;"/>
    <path clip-path="url(#pce91f0f9e5)" d="M 293.182136 241.863649 
L 293.182136 131.117221 
" style="fill:none;stroke:#0000ff;stroke-width:1.5;"/>
    <path clip-path="url(#pce91f0f9e5)" d="M 296.288932 276.905338 
L 296.288932 179.553793 
" style="fill:none;stroke:#0000ff;stroke-width:1.5;"/>
    <path clip-path="url(#pce91f0f9e5)" d="M 299.395728 241.863649 
L 299.395728 131.117221 
" style="fill:none;stroke:#0000ff;stroke-width:1.5;"/>
    <path clip-path="url(#pce91f0f9e5)" d="M 302.502524 255.982375 
L 302.502524 150.389799 
" style="fill:none;stroke:#0000ff;stroke-width:1.5;"/>
    <path clip-path="url(#pce91f0f9e5)" d="M 305.60932 213.29616 
L 305.60932 92.9021 
" style="fill:none;stroke:#0000ff;stroke-width:1.5;"/>
    <path clip-path="url(#pce91f0f9e5)" d="M 308.716117 310.864524 
L 308.716117 229.072867 
" style="fill:none;stroke:#0000ff;stroke-width:1.5;"/>
    <path clip-path="url(#pce91f0f9e5)" d="M 311.822913 198.872889 
L 311.822913 73.934068 
" style="fill:none;stroke:#0000ff;stroke-width:1.5;"/>
    <path clip-path="url(#pce91f0f9e5)" d="M 314.929709 269.968696 
L 314.929709 169.794783 
" style="fill:none;stroke:#0000ff;stroke-width:1.5;"/>
    <path clip-path="url(#pce91f0f9e5)" d="M 318.036505 290.648144 
L 318.036505 199.202291 
" style="fill:none;stroke:#0000ff;stroke-width:1.5;"/>
    <path clip-path="url(#pce91f0f9e5)" d="M 321.143301 290.648144 
L 321.143301 199.202291 
" style="fill:none;stroke:#0000ff;stroke-width:1.5;"/>
    <path clip-path="url(#pce91f0f9e5)" d="M 324.250097 255.982375 
L 324.250097 150.389799 
" style="fill:none;stroke:#0000ff;stroke-width:1.5;"/>
    <path clip-path="url(#pce91f0f9e5)" d="M 327.356893 276.905338 
L 327.356893 179.553793 
" style="fill:none;stroke:#0000ff;stroke-width:1.5;"/>
    <path clip-path="url(#pce91f0f9e5)" d="M 330.463689 297.445587 
L 330.463689 209.1005 
" style="fill:none;stroke:#0000ff;stroke-width:1.5;"/>
    <path clip-path="url(#pce91f0f9e5)" d="M 333.570485 290.648144 
L 333.570485 199.202291 
" style="fill:none;stroke:#0000ff;stroke-width:1.5;"/>
    <path clip-path="url(#pce91f0f9e5)" d="M 336.677282 276.905338 
L 336.677282 179.553793 
" style="fill:none;stroke:#0000ff;stroke-width:1.5;"/>
    <path clip-path="url(#pce91f0f9e5)" d="M 339.784078 297.445587 
L 339.784078 209.1005 
" style="fill:none;stroke:#0000ff;stroke-width:1.5;"/>
    <path clip-path="url(#pce91f0f9e5)" d="M 342.890874 276.905338 
L 342.890874 179.553793 
" style="fill:none;stroke:#0000ff;stroke-width:1.5;"/>
    <path clip-path="url(#pce91f0f9e5)" d="M 345.99767 262.993369 
L 345.99767 160.074457 
" style="fill:none;stroke:#0000ff;stroke-width:1.5;"/>
    <path clip-path="url(#pce91f0f9e5)" d="M 349.104466 304.186598 
L 349.104466 219.055141 
" style="fill:none;stroke:#0000ff;stroke-width:1.5;"/>
    <path clip-path="url(#pce91f0f9e5)" d="M 352.211262 317.471297 
L 352.211262 239.161747 
" style="fill:none;stroke:#0000ff;stroke-width:1.5;"/>
    <path clip-path="url(#pce91f0f9e5)" d="M 355.318058 304.186598 
L 355.318058 219.055141 
" style="fill:none;stroke:#0000ff;stroke-width:1.5;"/>
    <path clip-path="url(#pce91f0f9e5)" d="M 358.424854 317.471297 
L 358.424854 239.161747 
" style="fill:none;stroke:#0000ff;stroke-width:1.5;"/>
    <path clip-path="url(#pce91f0f9e5)" d="M 361.53165 336.751304 
L 361.53165 269.968696 
" style="fill:none;stroke:#0000ff;stroke-width:1.5;"/>
    <path clip-path="url(#pce91f0f9e5)" d="M 364.638447 317.471297 
L 364.638447 239.161747 
" style="fill:none;stroke:#0000ff;stroke-width:1.5;"/>
    <path clip-path="url(#pce91f0f9e5)" d="M 367.745243 304.186598 
L 367.745243 219.055141 
" style="fill:none;stroke:#0000ff;stroke-width:1.5;"/>
    <path clip-path="url(#pce91f0f9e5)" d="M 373.958835 317.471297 
L 373.958835 239.161747 
" style="fill:none;stroke:#0000ff;stroke-width:1.5;"/>
    <path clip-path="url(#pce91f0f9e5)" d="M 377.065631 310.864524 
L 377.065631 229.072867 
" style="fill:none;stroke:#0000ff;stroke-width:1.5;"/>
    <path clip-path="url(#pce91f0f9e5)" d="M 380.172427 336.751304 
L 380.172427 269.968696 
" style="fill:none;stroke:#0000ff;stroke-width:1.5;"/>
    <path clip-path="url(#pce91f0f9e5)" d="M 392.599612 330.429001 
L 392.599612 259.595347 
" style="fill:none;stroke:#0000ff;stroke-width:1.5;"/>
    <path clip-path="url(#pce91f0f9e5)" d="M 401.92 336.751304 
L 401.92 269.968696 
" style="fill:none;stroke:#0000ff;stroke-width:1.5;"/>
   </g>
   <g id="line2d_25">
    <path clip-path="url(#pce91f0f9e5)" d="M 81.92 295.538202 
L 99.217297 295.293256 
L 110.748829 294.917779 
L 119.717798 294.410238 
L 127.085165 293.780639 
L 133.491572 293.021238 
L 139.257337 292.123185 
L 144.702783 291.047218 
L 149.507588 289.881121 
L 154.312392 288.481245 
L 158.796877 286.937394 
L 162.961041 285.277162 
L 167.125205 283.379874 
L 171.289369 281.228795 
L 175.453534 278.809518 
L 179.617698 276.110771 
L 183.781862 273.125258 
L 187.946026 269.850491 
L 192.11019 266.289597 
L 196.594675 262.145812 
L 201.079159 257.702149 
L 206.204284 252.296556 
L 211.97005 245.874376 
L 219.657738 236.948136 
L 232.15023 222.41959 
L 237.595676 216.461348 
L 242.08016 211.889044 
L 245.924004 208.28225 
L 249.447528 205.277249 
L 252.650731 202.828665 
L 255.533614 200.878123 
L 258.416496 199.185358 
L 261.299379 197.765521 
L 263.861942 196.743013 
L 266.424505 195.953716 
L 268.987067 195.403358 
L 271.54963 195.095952 
L 274.112192 195.033747 
L 276.674755 195.217197 
L 279.237317 195.644961 
L 281.79988 196.313913 
L 284.362442 197.219187 
L 286.925005 198.35423 
L 289.807888 199.895583 
L 292.690771 201.703486 
L 295.573654 203.761845 
L 298.776857 206.320633 
L 302.30038 209.434083 
L 306.144224 213.142776 
L 310.308388 217.467247 
L 315.433514 223.124991 
L 322.480561 231.277464 
L 336.894975 248.031134 
L 342.660741 254.344267 
L 347.785866 259.625691 
L 352.27035 263.94508 
L 356.754835 267.954529 
L 360.918999 271.385235 
L 365.083163 274.527639 
L 369.247327 277.381277 
L 373.411491 279.950941 
L 377.575656 282.245853 
L 381.73982 284.278822 
L 385.903984 286.065418 
L 390.388468 287.734067 
L 394.872953 289.160847 
L 399.677758 290.448697 
L 401.92 290.972601 
L 401.92 290.972601 
" style="fill:none;stroke:#ff0000;stroke-linecap:square;stroke-width:1.5;"/>
   </g>
   <g id="line2d_26">
    <g clip-path="url(#pce91f0f9e5)">
     <use style="fill:#0000ff;stroke:#0000ff;" x="81.92" xlink:href="#m5f514ba6a3" y="286.664348"/>
     <use style="fill:#0000ff;stroke:#0000ff;" x="94.347184" xlink:href="#m5f514ba6a3" y="303.36"/>
     <use style="fill:#0000ff;stroke:#0000ff;" x="109.881165" xlink:href="#m5f514ba6a3" y="295.012174"/>
     <use style="fill:#0000ff;stroke:#0000ff;" x="119.201553" xlink:href="#m5f514ba6a3" y="286.664348"/>
     <use style="fill:#0000ff;stroke:#0000ff;" x="122.30835" xlink:href="#m5f514ba6a3" y="278.316522"/>
     <use style="fill:#0000ff;stroke:#0000ff;" x="137.84233" xlink:href="#m5f514ba6a3" y="303.36"/>
     <use style="fill:#0000ff;stroke:#0000ff;" x="140.949126" xlink:href="#m5f514ba6a3" y="303.36"/>
     <use style="fill:#0000ff;stroke:#0000ff;" x="144.055922" xlink:href="#m5f514ba6a3" y="303.36"/>
     <use style="fill:#0000ff;stroke:#0000ff;" x="147.162718" xlink:href="#m5f514ba6a3" y="244.925217"/>
     <use style="fill:#0000ff;stroke:#0000ff;" x="150.269515" xlink:href="#m5f514ba6a3" y="286.664348"/>
     <use style="fill:#0000ff;stroke:#0000ff;" x="156.483107" xlink:href="#m5f514ba6a3" y="253.273043"/>
     <use style="fill:#0000ff;stroke:#0000ff;" x="159.589903" xlink:href="#m5f514ba6a3" y="269.968696"/>
     <use style="fill:#0000ff;stroke:#0000ff;" x="165.803495" xlink:href="#m5f514ba6a3" y="269.968696"/>
     <use style="fill:#0000ff;stroke:#0000ff;" x="168.910291" xlink:href="#m5f514ba6a3" y="295.012174"/>
     <use style="fill:#0000ff;stroke:#0000ff;" x="172.017087" xlink:href="#m5f514ba6a3" y="303.36"/>
     <use style="fill:#0000ff;stroke:#0000ff;" x="175.123883" xlink:href="#m5f514ba6a3" y="261.62087"/>
     <use style="fill:#0000ff;stroke:#0000ff;" x="181.337476" xlink:href="#m5f514ba6a3" y="211.533913"/>
     <use style="fill:#0000ff;stroke:#0000ff;" x="184.444272" xlink:href="#m5f514ba6a3" y="295.012174"/>
     <use style="fill:#0000ff;stroke:#0000ff;" x="190.657864" xlink:href="#m5f514ba6a3" y="244.925217"/>
     <use style="fill:#0000ff;stroke:#0000ff;" x="196.871456" xlink:href="#m5f514ba6a3" y="253.273043"/>
     <use style="fill:#0000ff;stroke:#0000ff;" x="199.978252" xlink:href="#m5f514ba6a3" y="253.273043"/>
     <use style="fill:#0000ff;stroke:#0000ff;" x="203.085049" xlink:href="#m5f514ba6a3" y="261.62087"/>
     <use style="fill:#0000ff;stroke:#0000ff;" x="206.191845" xlink:href="#m5f514ba6a3" y="244.925217"/>
     <use style="fill:#0000ff;stroke:#0000ff;" x="209.298641" xlink:href="#m5f514ba6a3" y="269.968696"/>
     <use style="fill:#0000ff;stroke:#0000ff;" x="212.405437" xlink:href="#m5f514ba6a3" y="261.62087"/>
     <use style="fill:#0000ff;stroke:#0000ff;" x="215.512233" xlink:href="#m5f514ba6a3" y="228.229565"/>
     <use style="fill:#0000ff;stroke:#0000ff;" x="218.619029" xlink:href="#m5f514ba6a3" y="228.229565"/>
     <use style="fill:#0000ff;stroke:#0000ff;" x="221.725825" xlink:href="#m5f514ba6a3" y="286.664348"/>
     <use style="fill:#0000ff;stroke:#0000ff;" x="224.832621" xlink:href="#m5f514ba6a3" y="169.794783"/>
     <use style="fill:#0000ff;stroke:#0000ff;" x="227.939417" xlink:href="#m5f514ba6a3" y="253.273043"/>
     <use style="fill:#0000ff;stroke:#0000ff;" x="231.046214" xlink:href="#m5f514ba6a3" y="186.490435"/>
     <use style="fill:#0000ff;stroke:#0000ff;" x="234.15301" xlink:href="#m5f514ba6a3" y="253.273043"/>
     <use style="fill:#0000ff;stroke:#0000ff;" x="237.259806" xlink:href="#m5f514ba6a3" y="203.186087"/>
     <use style="fill:#0000ff;stroke:#0000ff;" x="240.366602" xlink:href="#m5f514ba6a3" y="144.751304"/>
     <use style="fill:#0000ff;stroke:#0000ff;" x="243.473398" xlink:href="#m5f514ba6a3" y="111.36"/>
     <use style="fill:#0000ff;stroke:#0000ff;" x="246.580194" xlink:href="#m5f514ba6a3" y="169.794783"/>
     <use style="fill:#0000ff;stroke:#0000ff;" x="249.68699" xlink:href="#m5f514ba6a3" y="228.229565"/>
     <use style="fill:#0000ff;stroke:#0000ff;" x="252.793786" xlink:href="#m5f514ba6a3" y="236.577391"/>
     <use style="fill:#0000ff;stroke:#0000ff;" x="255.900583" xlink:href="#m5f514ba6a3" y="144.751304"/>
     <use style="fill:#0000ff;stroke:#0000ff;" x="259.007379" xlink:href="#m5f514ba6a3" y="186.490435"/>
     <use style="fill:#0000ff;stroke:#0000ff;" x="262.114175" xlink:href="#m5f514ba6a3" y="211.533913"/>
     <use style="fill:#0000ff;stroke:#0000ff;" x="265.220971" xlink:href="#m5f514ba6a3" y="219.881739"/>
     <use style="fill:#0000ff;stroke:#0000ff;" x="268.327767" xlink:href="#m5f514ba6a3" y="211.533913"/>
     <use style="fill:#0000ff;stroke:#0000ff;" x="271.434563" xlink:href="#m5f514ba6a3" y="211.533913"/>
     <use style="fill:#0000ff;stroke:#0000ff;" x="274.541359" xlink:href="#m5f514ba6a3" y="186.490435"/>
     <use style="fill:#0000ff;stroke:#0000ff;" x="277.648155" xlink:href="#m5f514ba6a3" y="261.62087"/>
     <use style="fill:#0000ff;stroke:#0000ff;" x="280.754951" xlink:href="#m5f514ba6a3" y="186.490435"/>
     <use style="fill:#0000ff;stroke:#0000ff;" x="283.861748" xlink:href="#m5f514ba6a3" y="128.055652"/>
     <use style="fill:#0000ff;stroke:#0000ff;" x="286.968544" xlink:href="#m5f514ba6a3" y="194.838261"/>
     <use style="fill:#0000ff;stroke:#0000ff;" x="290.07534" xlink:href="#m5f514ba6a3" y="153.09913"/>
     <use style="fill:#0000ff;stroke:#0000ff;" x="293.182136" xlink:href="#m5f514ba6a3" y="186.490435"/>
     <use style="fill:#0000ff;stroke:#0000ff;" x="296.288932" xlink:href="#m5f514ba6a3" y="228.229565"/>
     <use style="fill:#0000ff;stroke:#0000ff;" x="299.395728" xlink:href="#m5f514ba6a3" y="186.490435"/>
     <use style="fill:#0000ff;stroke:#0000ff;" x="302.502524" xlink:href="#m5f514ba6a3" y="203.186087"/>
     <use style="fill:#0000ff;stroke:#0000ff;" x="305.60932" xlink:href="#m5f514ba6a3" y="153.09913"/>
     <use style="fill:#0000ff;stroke:#0000ff;" x="308.716117" xlink:href="#m5f514ba6a3" y="269.968696"/>
     <use style="fill:#0000ff;stroke:#0000ff;" x="311.822913" xlink:href="#m5f514ba6a3" y="136.403478"/>
     <use style="fill:#0000ff;stroke:#0000ff;" x="314.929709" xlink:href="#m5f514ba6a3" y="219.881739"/>
     <use style="fill:#0000ff;stroke:#0000ff;" x="318.036505" xlink:href="#m5f514ba6a3" y="244.925217"/>
     <use style="fill:#0000ff;stroke:#0000ff;" x="321.143301" xlink:href="#m5f514ba6a3" y="244.925217"/>
     <use style="fill:#0000ff;stroke:#0000ff;" x="324.250097" xlink:href="#m5f514ba6a3" y="203.186087"/>
     <use style="fill:#0000ff;stroke:#0000ff;" x="327.356893" xlink:href="#m5f514ba6a3" y="228.229565"/>
     <use style="fill:#0000ff;stroke:#0000ff;" x="330.463689" xlink:href="#m5f514ba6a3" y="253.273043"/>
     <use style="fill:#0000ff;stroke:#0000ff;" x="333.570485" xlink:href="#m5f514ba6a3" y="244.925217"/>
     <use style="fill:#0000ff;stroke:#0000ff;" x="336.677282" xlink:href="#m5f514ba6a3" y="228.229565"/>
     <use style="fill:#0000ff;stroke:#0000ff;" x="339.784078" xlink:href="#m5f514ba6a3" y="253.273043"/>
     <use style="fill:#0000ff;stroke:#0000ff;" x="342.890874" xlink:href="#m5f514ba6a3" y="228.229565"/>
     <use style="fill:#0000ff;stroke:#0000ff;" x="345.99767" xlink:href="#m5f514ba6a3" y="211.533913"/>
     <use style="fill:#0000ff;stroke:#0000ff;" x="349.104466" xlink:href="#m5f514ba6a3" y="261.62087"/>
     <use style="fill:#0000ff;stroke:#0000ff;" x="352.211262" xlink:href="#m5f514ba6a3" y="278.316522"/>
     <use style="fill:#0000ff;stroke:#0000ff;" x="355.318058" xlink:href="#m5f514ba6a3" y="261.62087"/>
     <use style="fill:#0000ff;stroke:#0000ff;" x="358.424854" xlink:href="#m5f514ba6a3" y="278.316522"/>
     <use style="fill:#0000ff;stroke:#0000ff;" x="361.53165" xlink:href="#m5f514ba6a3" y="303.36"/>
     <use style="fill:#0000ff;stroke:#0000ff;" x="364.638447" xlink:href="#m5f514ba6a3" y="278.316522"/>
     <use style="fill:#0000ff;stroke:#0000ff;" x="367.745243" xlink:href="#m5f514ba6a3" y="261.62087"/>
     <use style="fill:#0000ff;stroke:#0000ff;" x="373.958835" xlink:href="#m5f514ba6a3" y="278.316522"/>
     <use style="fill:#0000ff;stroke:#0000ff;" x="377.065631" xlink:href="#m5f514ba6a3" y="269.968696"/>
     <use style="fill:#0000ff;stroke:#0000ff;" x="380.172427" xlink:href="#m5f514ba6a3" y="303.36"/>
     <use style="fill:#0000ff;stroke:#0000ff;" x="392.599612" xlink:href="#m5f514ba6a3" y="295.012174"/>
     <use style="fill:#0000ff;stroke:#0000ff;" x="401.92" xlink:href="#m5f514ba6a3" y="303.36"/>
    </g>
   </g>
   <g id="patch_8">
    <path d="M 69.12 311.04 
L 69.12 103.68 
" style="fill:none;stroke:#000000;stroke-linecap:square;stroke-linejoin:miter;stroke-width:0.8;"/>
   </g>
   <g id="patch_9">
    <path d="M 414.72 311.04 
L 414.72 103.68 
" style="fill:none;stroke:#000000;stroke-linecap:square;stroke-linejoin:miter;stroke-width:0.8;"/>
   </g>
   <g id="patch_10">
    <path d="M 69.12 311.04 
L 414.72 311.04 
" style="fill:none;stroke:#000000;stroke-linecap:square;stroke-linejoin:miter;stroke-width:0.8;"/>
   </g>
   <g id="patch_11">
    <path d="M 69.12 103.68 
L 414.72 103.68 
" style="fill:none;stroke:#000000;stroke-linecap:square;stroke-linejoin:miter;stroke-width:0.8;"/>
   </g>
  </g>
 </g>
 <defs>
  <clipPath id="p8fd7efb9ce">
   <rect height="51.84" width="345.6" x="69.12" y="44.928"/>
  </clipPath>
  <clipPath id="pce91f0f9e5">
   <rect height="207.36" width="345.6" x="69.12" y="103.68"/>
  </clipPath>
 </defs>
</svg>
