<?xml version="1.0" encoding="utf-8" standalone="no"?>
<!DOCTYPE svg PUBLIC "-//W3C//DTD SVG 1.1//EN"
  "http://www.w3.org/Graphics/SVG/1.1/DTD/svg11.dtd">
<!-- Created with matplotlib (http://matplotlib.org/) -->
<svg height="345pt" version="1.1" viewBox="0 0 460 345" width="460pt" xmlns="http://www.w3.org/2000/svg" xmlns:xlink="http://www.w3.org/1999/xlink">
 <defs>
  <style type="text/css">
*{stroke-linecap:butt;stroke-linejoin:round;}
  </style>
 </defs>
 <g id="figure_1">
  <g id="patch_1">
   <path d="M 0 345.6 
L 460.8 345.6 
L 460.8 0 
L 0 0 
z
" style="fill:#ffffff;"/>
  </g>
  <g id="axes_1">
   <g id="patch_2">
    <path d="M 69.12 96.768 
L 414.72 96.768 
L 414.72 44.928 
L 69.12 44.928 
z
" style="fill:#ffffff;"/>
   </g>
   <g id="matplotlib.axis_1">
    <g id="xtick_1">
     <g id="line2d_1">
      <defs>
       <path d="M 0 0 
L 0 3.5 
" id="m4b9e8a8258" style="stroke:#000000;stroke-width:0.8;"/>
      </defs>
      <g>
       <use style="stroke:#000000;stroke-width:0.8;" x="135.259199" xlink:href="#m4b9e8a8258" y="96.768"/>
      </g>
     </g>
    </g>
    <g id="xtick_2">
     <g id="line2d_2">
      <g>
       <use style="stroke:#000000;stroke-width:0.8;" x="228.811307" xlink:href="#m4b9e8a8258" y="96.768"/>
      </g>
     </g>
    </g>
    <g id="xtick_3">
     <g id="line2d_3">
      <g>
       <use style="stroke:#000000;stroke-width:0.8;" x="322.363414" xlink:href="#m4b9e8a8258" y="96.768"/>
      </g>
     </g>
    </g>
   </g>
   <g id="matplotlib.axis_2">
    <g id="ytick_1">
     <g id="line2d_4">
      <defs>
       <path d="M 0 0 
L -3.5 0 
" id="maee80e738d" style="stroke:#000000;stroke-width:0.8;"/>
      </defs>
      <g>
       <use style="stroke:#000000;stroke-width:0.8;" x="69.12" xlink:href="#maee80e738d" y="82.462312"/>
      </g>
     </g>
     <g id="text_1">
      <!-- −1 -->
      <defs>
       <path d="M 10.59375 35.5 
L 73.1875 35.5 
L 73.1875 27.203125 
L 10.59375 27.203125 
z
" id="DejaVuSans-2212"/>
       <path d="M 12.40625 8.296875 
L 28.515625 8.296875 
L 28.515625 63.921875 
L 10.984375 60.40625 
L 10.984375 69.390625 
L 28.421875 72.90625 
L 38.28125 72.90625 
L 38.28125 8.296875 
L 54.390625 8.296875 
L 54.390625 0 
L 12.40625 0 
z
" id="DejaVuSans-31"/>
      </defs>
      <g transform="translate(40.006719 88.16114)scale(0.15 -0.15)">
       <use xlink:href="#DejaVuSans-2212"/>
       <use x="83.789062" xlink:href="#DejaVuSans-31"/>
      </g>
     </g>
    </g>
    <g id="ytick_2">
     <g id="line2d_5">
      <g>
       <use style="stroke:#000000;stroke-width:0.8;" x="69.12" xlink:href="#maee80e738d" y="65.154098"/>
      </g>
     </g>
    </g>
    <g id="ytick_3">
     <g id="line2d_6">
      <g>
       <use style="stroke:#000000;stroke-width:0.8;" x="69.12" xlink:href="#maee80e738d" y="47.845883"/>
      </g>
     </g>
     <g id="text_2">
      <!-- 1 -->
      <g transform="translate(52.57625 53.544711)scale(0.15 -0.15)">
       <use xlink:href="#DejaVuSans-31"/>
      </g>
     </g>
    </g>
    <g id="text_3">
     <!-- Studentized -->
     <defs>
      <path d="M 53.515625 70.515625 
L 53.515625 60.890625 
Q 47.90625 63.578125 42.921875 64.890625 
Q 37.9375 66.21875 33.296875 66.21875 
Q 25.25 66.21875 20.875 63.09375 
Q 16.5 59.96875 16.5 54.203125 
Q 16.5 49.359375 19.40625 46.890625 
Q 22.3125 44.4375 30.421875 42.921875 
L 36.375 41.703125 
Q 47.40625 39.59375 52.65625 34.296875 
Q 57.90625 29 57.90625 20.125 
Q 57.90625 9.515625 50.796875 4.046875 
Q 43.703125 -1.421875 29.984375 -1.421875 
Q 24.8125 -1.421875 18.96875 -0.25 
Q 13.140625 0.921875 6.890625 3.21875 
L 6.890625 13.375 
Q 12.890625 10.015625 18.65625 8.296875 
Q 24.421875 6.59375 29.984375 6.59375 
Q 38.421875 6.59375 43.015625 9.90625 
Q 47.609375 13.234375 47.609375 19.390625 
Q 47.609375 24.75 44.3125 27.78125 
Q 41.015625 30.8125 33.5 32.328125 
L 27.484375 33.5 
Q 16.453125 35.6875 11.515625 40.375 
Q 6.59375 45.0625 6.59375 53.421875 
Q 6.59375 63.09375 13.40625 68.65625 
Q 20.21875 74.21875 32.171875 74.21875 
Q 37.3125 74.21875 42.625 73.28125 
Q 47.953125 72.359375 53.515625 70.515625 
z
" id="DejaVuSans-53"/>
      <path d="M 18.3125 70.21875 
L 18.3125 54.6875 
L 36.8125 54.6875 
L 36.8125 47.703125 
L 18.3125 47.703125 
L 18.3125 18.015625 
Q 18.3125 11.328125 20.140625 9.421875 
Q 21.96875 7.515625 27.59375 7.515625 
L 36.8125 7.515625 
L 36.8125 0 
L 27.59375 0 
Q 17.1875 0 13.234375 3.875 
Q 9.28125 7.765625 9.28125 18.015625 
L 9.28125 47.703125 
L 2.6875 47.703125 
L 2.6875 54.6875 
L 9.28125 54.6875 
L 9.28125 70.21875 
z
" id="DejaVuSans-74"/>
      <path d="M 8.5 21.578125 
L 8.5 54.6875 
L 17.484375 54.6875 
L 17.484375 21.921875 
Q 17.484375 14.15625 20.5 10.265625 
Q 23.53125 6.390625 29.59375 6.390625 
Q 36.859375 6.390625 41.078125 11.03125 
Q 45.3125 15.671875 45.3125 23.6875 
L 45.3125 54.6875 
L 54.296875 54.6875 
L 54.296875 0 
L 45.3125 0 
L 45.3125 8.40625 
Q 42.046875 3.421875 37.71875 1 
Q 33.40625 -1.421875 27.6875 -1.421875 
Q 18.265625 -1.421875 13.375 4.4375 
Q 8.5 10.296875 8.5 21.578125 
z
M 31.109375 56 
z
" id="DejaVuSans-75"/>
      <path d="M 45.40625 46.390625 
L 45.40625 75.984375 
L 54.390625 75.984375 
L 54.390625 0 
L 45.40625 0 
L 45.40625 8.203125 
Q 42.578125 3.328125 38.25 0.953125 
Q 33.9375 -1.421875 27.875 -1.421875 
Q 17.96875 -1.421875 11.734375 6.484375 
Q 5.515625 14.40625 5.515625 27.296875 
Q 5.515625 40.1875 11.734375 48.09375 
Q 17.96875 56 27.875 56 
Q 33.9375 56 38.25 53.625 
Q 42.578125 51.265625 45.40625 46.390625 
z
M 14.796875 27.296875 
Q 14.796875 17.390625 18.875 11.75 
Q 22.953125 6.109375 30.078125 6.109375 
Q 37.203125 6.109375 41.296875 11.75 
Q 45.40625 17.390625 45.40625 27.296875 
Q 45.40625 37.203125 41.296875 42.84375 
Q 37.203125 48.484375 30.078125 48.484375 
Q 22.953125 48.484375 18.875 42.84375 
Q 14.796875 37.203125 14.796875 27.296875 
z
" id="DejaVuSans-64"/>
      <path d="M 56.203125 29.59375 
L 56.203125 25.203125 
L 14.890625 25.203125 
Q 15.484375 15.921875 20.484375 11.0625 
Q 25.484375 6.203125 34.421875 6.203125 
Q 39.59375 6.203125 44.453125 7.46875 
Q 49.3125 8.734375 54.109375 11.28125 
L 54.109375 2.78125 
Q 49.265625 0.734375 44.1875 -0.34375 
Q 39.109375 -1.421875 33.890625 -1.421875 
Q 20.796875 -1.421875 13.15625 6.1875 
Q 5.515625 13.8125 5.515625 26.8125 
Q 5.515625 40.234375 12.765625 48.109375 
Q 20.015625 56 32.328125 56 
Q 43.359375 56 49.78125 48.890625 
Q 56.203125 41.796875 56.203125 29.59375 
z
M 47.21875 32.234375 
Q 47.125 39.59375 43.09375 43.984375 
Q 39.0625 48.390625 32.421875 48.390625 
Q 24.90625 48.390625 20.390625 44.140625 
Q 15.875 39.890625 15.1875 32.171875 
z
" id="DejaVuSans-65"/>
      <path d="M 54.890625 33.015625 
L 54.890625 0 
L 45.90625 0 
L 45.90625 32.71875 
Q 45.90625 40.484375 42.875 44.328125 
Q 39.84375 48.1875 33.796875 48.1875 
Q 26.515625 48.1875 22.3125 43.546875 
Q 18.109375 38.921875 18.109375 30.90625 
L 18.109375 0 
L 9.078125 0 
L 9.078125 54.6875 
L 18.109375 54.6875 
L 18.109375 46.1875 
Q 21.34375 51.125 25.703125 53.5625 
Q 30.078125 56 35.796875 56 
Q 45.21875 56 50.046875 50.171875 
Q 54.890625 44.34375 54.890625 33.015625 
z
" id="DejaVuSans-6e"/>
      <path d="M 9.421875 54.6875 
L 18.40625 54.6875 
L 18.40625 0 
L 9.421875 0 
z
M 9.421875 75.984375 
L 18.40625 75.984375 
L 18.40625 64.59375 
L 9.421875 64.59375 
z
" id="DejaVuSans-69"/>
      <path d="M 5.515625 54.6875 
L 48.1875 54.6875 
L 48.1875 46.484375 
L 14.40625 7.171875 
L 48.1875 7.171875 
L 48.1875 0 
L 4.296875 0 
L 4.296875 8.203125 
L 38.09375 47.515625 
L 5.515625 47.515625 
z
" id="DejaVuSans-7a"/>
     </defs>
     <g transform="translate(16.090469 115.768313)rotate(-90)scale(0.15 -0.15)">
      <use xlink:href="#DejaVuSans-53"/>
      <use x="63.476562" xlink:href="#DejaVuSans-74"/>
      <use x="102.685547" xlink:href="#DejaVuSans-75"/>
      <use x="166.064453" xlink:href="#DejaVuSans-64"/>
      <use x="229.541016" xlink:href="#DejaVuSans-65"/>
      <use x="291.064453" xlink:href="#DejaVuSans-6e"/>
      <use x="354.443359" xlink:href="#DejaVuSans-74"/>
      <use x="393.652344" xlink:href="#DejaVuSans-69"/>
      <use x="421.435547" xlink:href="#DejaVuSans-7a"/>
      <use x="473.925781" xlink:href="#DejaVuSans-65"/>
      <use x="535.449219" xlink:href="#DejaVuSans-64"/>
     </g>
     <!-- Residuals -->
     <defs>
      <path d="M 44.390625 34.1875 
Q 47.5625 33.109375 50.5625 29.59375 
Q 53.5625 26.078125 56.59375 19.921875 
L 66.609375 0 
L 56 0 
L 46.6875 18.703125 
Q 43.0625 26.03125 39.671875 28.421875 
Q 36.28125 30.8125 30.421875 30.8125 
L 19.671875 30.8125 
L 19.671875 0 
L 9.8125 0 
L 9.8125 72.90625 
L 32.078125 72.90625 
Q 44.578125 72.90625 50.734375 67.671875 
Q 56.890625 62.453125 56.890625 51.90625 
Q 56.890625 45.015625 53.6875 40.46875 
Q 50.484375 35.9375 44.390625 34.1875 
z
M 19.671875 64.796875 
L 19.671875 38.921875 
L 32.078125 38.921875 
Q 39.203125 38.921875 42.84375 42.21875 
Q 46.484375 45.515625 46.484375 51.90625 
Q 46.484375 58.296875 42.84375 61.546875 
Q 39.203125 64.796875 32.078125 64.796875 
z
" id="DejaVuSans-52"/>
      <path d="M 44.28125 53.078125 
L 44.28125 44.578125 
Q 40.484375 46.53125 36.375 47.5 
Q 32.28125 48.484375 27.875 48.484375 
Q 21.1875 48.484375 17.84375 46.4375 
Q 14.5 44.390625 14.5 40.28125 
Q 14.5 37.15625 16.890625 35.375 
Q 19.28125 33.59375 26.515625 31.984375 
L 29.59375 31.296875 
Q 39.15625 29.25 43.1875 25.515625 
Q 47.21875 21.78125 47.21875 15.09375 
Q 47.21875 7.46875 41.1875 3.015625 
Q 35.15625 -1.421875 24.609375 -1.421875 
Q 20.21875 -1.421875 15.453125 -0.5625 
Q 10.6875 0.296875 5.421875 2 
L 5.421875 11.28125 
Q 10.40625 8.6875 15.234375 7.390625 
Q 20.0625 6.109375 24.8125 6.109375 
Q 31.15625 6.109375 34.5625 8.28125 
Q 37.984375 10.453125 37.984375 14.40625 
Q 37.984375 18.0625 35.515625 20.015625 
Q 33.0625 21.96875 24.703125 23.78125 
L 21.578125 24.515625 
Q 13.234375 26.265625 9.515625 29.90625 
Q 5.8125 33.546875 5.8125 39.890625 
Q 5.8125 47.609375 11.28125 51.796875 
Q 16.75 56 26.8125 56 
Q 31.78125 56 36.171875 55.265625 
Q 40.578125 54.546875 44.28125 53.078125 
z
" id="DejaVuSans-73"/>
      <path d="M 34.28125 27.484375 
Q 23.390625 27.484375 19.1875 25 
Q 14.984375 22.515625 14.984375 16.5 
Q 14.984375 11.71875 18.140625 8.90625 
Q 21.296875 6.109375 26.703125 6.109375 
Q 34.1875 6.109375 38.703125 11.40625 
Q 43.21875 16.703125 43.21875 25.484375 
L 43.21875 27.484375 
z
M 52.203125 31.203125 
L 52.203125 0 
L 43.21875 0 
L 43.21875 8.296875 
Q 40.140625 3.328125 35.546875 0.953125 
Q 30.953125 -1.421875 24.3125 -1.421875 
Q 15.921875 -1.421875 10.953125 3.296875 
Q 6 8.015625 6 15.921875 
Q 6 25.140625 12.171875 29.828125 
Q 18.359375 34.515625 30.609375 34.515625 
L 43.21875 34.515625 
L 43.21875 35.40625 
Q 43.21875 41.609375 39.140625 45 
Q 35.0625 48.390625 27.6875 48.390625 
Q 23 48.390625 18.546875 47.265625 
Q 14.109375 46.140625 10.015625 43.890625 
L 10.015625 52.203125 
Q 14.9375 54.109375 19.578125 55.046875 
Q 24.21875 56 28.609375 56 
Q 40.484375 56 46.34375 49.84375 
Q 52.203125 43.703125 52.203125 31.203125 
z
" id="DejaVuSans-61"/>
      <path d="M 9.421875 75.984375 
L 18.40625 75.984375 
L 18.40625 0 
L 9.421875 0 
z
" id="DejaVuSans-6c"/>
     </defs>
     <g transform="translate(32.887188 106.761281)rotate(-90)scale(0.15 -0.15)">
      <use xlink:href="#DejaVuSans-52"/>
      <use x="69.419922" xlink:href="#DejaVuSans-65"/>
      <use x="130.943359" xlink:href="#DejaVuSans-73"/>
      <use x="183.042969" xlink:href="#DejaVuSans-69"/>
      <use x="210.826172" xlink:href="#DejaVuSans-64"/>
      <use x="274.302734" xlink:href="#DejaVuSans-75"/>
      <use x="337.681641" xlink:href="#DejaVuSans-61"/>
      <use x="398.960938" xlink:href="#DejaVuSans-6c"/>
      <use x="426.744141" xlink:href="#DejaVuSans-73"/>
     </g>
    </g>
   </g>
   <g id="LineCollection_1">
    <path clip-path="url(#p331cf7d1af)" d="M 81.92 78.134788 
L 81.92 43.518359 
" style="fill:none;stroke:#0000ff;stroke-width:1.5;"/>
    <path clip-path="url(#p331cf7d1af)" d="M 98.615652 78.142175 
L 98.615652 43.525746 
" style="fill:none;stroke:#0000ff;stroke-width:1.5;"/>
    <path clip-path="url(#p331cf7d1af)" d="M 101.398261 83.206281 
L 101.398261 48.589852 
" style="fill:none;stroke:#0000ff;stroke-width:1.5;"/>
    <path clip-path="url(#p331cf7d1af)" d="M 104.18087 78.148669 
L 104.18087 43.53224 
" style="fill:none;stroke:#0000ff;stroke-width:1.5;"/>
    <path clip-path="url(#p331cf7d1af)" d="M 118.093913 83.254399 
L 118.093913 48.63797 
" style="fill:none;stroke:#0000ff;stroke-width:1.5;"/>
    <path clip-path="url(#p331cf7d1af)" d="M 120.876522 78.20423 
L 120.876522 43.587801 
" style="fill:none;stroke:#0000ff;stroke-width:1.5;"/>
    <path clip-path="url(#p331cf7d1af)" d="M 123.65913 89.509365 
L 123.65913 54.892935 
" style="fill:none;stroke:#0000ff;stroke-width:1.5;"/>
    <path clip-path="url(#p331cf7d1af)" d="M 126.441739 73.933848 
L 126.441739 39.317419 
" style="fill:none;stroke:#0000ff;stroke-width:1.5;"/>
    <path clip-path="url(#p331cf7d1af)" d="M 129.224348 89.574127 
L 129.224348 54.957698 
" style="fill:none;stroke:#0000ff;stroke-width:1.5;"/>
    <path clip-path="url(#p331cf7d1af)" d="M 132.006957 83.389277 
L 132.006957 48.772848 
" style="fill:none;stroke:#0000ff;stroke-width:1.5;"/>
    <path clip-path="url(#p331cf7d1af)" d="M 134.789565 78.355899 
L 134.789565 43.73947 
" style="fill:none;stroke:#0000ff;stroke-width:1.5;"/>
    <path clip-path="url(#p331cf7d1af)" d="M 143.137391 83.651227 
L 143.137391 49.034797 
" style="fill:none;stroke:#0000ff;stroke-width:1.5;"/>
    <path clip-path="url(#p331cf7d1af)" d="M 148.702609 70.597156 
L 148.702609 35.980727 
" style="fill:none;stroke:#0000ff;stroke-width:1.5;"/>
    <path clip-path="url(#p331cf7d1af)" d="M 151.485217 90.320273 
L 151.485217 55.703844 
" style="fill:none;stroke:#0000ff;stroke-width:1.5;"/>
    <path clip-path="url(#p331cf7d1af)" d="M 154.267826 70.844078 
L 154.267826 36.227649 
" style="fill:none;stroke:#0000ff;stroke-width:1.5;"/>
    <path clip-path="url(#p331cf7d1af)" d="M 159.833043 75.030131 
L 159.833043 40.413702 
" style="fill:none;stroke:#0000ff;stroke-width:1.5;"/>
    <path clip-path="url(#p331cf7d1af)" d="M 162.615652 75.256325 
L 162.615652 40.639895 
" style="fill:none;stroke:#0000ff;stroke-width:1.5;"/>
    <path clip-path="url(#p331cf7d1af)" d="M 165.398261 79.957163 
L 165.398261 45.340734 
" style="fill:none;stroke:#0000ff;stroke-width:1.5;"/>
    <path clip-path="url(#p331cf7d1af)" d="M 168.18087 85.545408 
L 168.18087 50.928979 
" style="fill:none;stroke:#0000ff;stroke-width:1.5;"/>
    <path clip-path="url(#p331cf7d1af)" d="M 170.963478 76.157659 
L 170.963478 41.54123 
" style="fill:none;stroke:#0000ff;stroke-width:1.5;"/>
    <path clip-path="url(#p331cf7d1af)" d="M 173.746087 92.992317 
L 173.746087 58.375888 
" style="fill:none;stroke:#0000ff;stroke-width:1.5;"/>
    <path clip-path="url(#p331cf7d1af)" d="M 176.528696 76.981514 
L 176.528696 42.365085 
" style="fill:none;stroke:#0000ff;stroke-width:1.5;"/>
    <path clip-path="url(#p331cf7d1af)" d="M 179.311304 94.218035 
L 179.311304 59.601606 
" style="fill:none;stroke:#0000ff;stroke-width:1.5;"/>
    <path clip-path="url(#p331cf7d1af)" d="M 182.093913 64.156215 
L 182.093913 29.539785 
" style="fill:none;stroke:#0000ff;stroke-width:1.5;"/>
    <path clip-path="url(#p331cf7d1af)" d="M 184.876522 83.312282 
L 184.876522 48.695852 
" style="fill:none;stroke:#0000ff;stroke-width:1.5;"/>
    <path clip-path="url(#p331cf7d1af)" d="M 187.65913 89.656816 
L 187.65913 55.040387 
" style="fill:none;stroke:#0000ff;stroke-width:1.5;"/>
    <path clip-path="url(#p331cf7d1af)" d="M 190.441739 65.75578 
L 190.441739 31.139351 
" style="fill:none;stroke:#0000ff;stroke-width:1.5;"/>
    <path clip-path="url(#p331cf7d1af)" d="M 193.224348 91.465454 
L 193.224348 56.849025 
" style="fill:none;stroke:#0000ff;stroke-width:1.5;"/>
    <path clip-path="url(#p331cf7d1af)" d="M 196.006957 77.405647 
L 196.006957 42.789218 
" style="fill:none;stroke:#0000ff;stroke-width:1.5;"/>
    <path clip-path="url(#p331cf7d1af)" d="M 198.789565 78.273576 
L 198.789565 43.657147 
" style="fill:none;stroke:#0000ff;stroke-width:1.5;"/>
    <path clip-path="url(#p331cf7d1af)" d="M 201.572174 88.689582 
L 201.572174 54.073153 
" style="fill:none;stroke:#0000ff;stroke-width:1.5;"/>
    <path clip-path="url(#p331cf7d1af)" d="M 204.354783 89.82681 
L 204.354783 55.210381 
" style="fill:none;stroke:#0000ff;stroke-width:1.5;"/>
    <path clip-path="url(#p331cf7d1af)" d="M 207.137391 77.21586 
L 207.137391 42.599431 
" style="fill:none;stroke:#0000ff;stroke-width:1.5;"/>
    <path clip-path="url(#p331cf7d1af)" d="M 209.92 71.26405 
L 209.92 36.647621 
" style="fill:none;stroke:#0000ff;stroke-width:1.5;"/>
    <path clip-path="url(#p331cf7d1af)" d="M 212.702609 93.587883 
L 212.702609 58.971454 
" style="fill:none;stroke:#0000ff;stroke-width:1.5;"/>
    <path clip-path="url(#p331cf7d1af)" d="M 215.485217 64.460341 
L 215.485217 29.843912 
" style="fill:none;stroke:#0000ff;stroke-width:1.5;"/>
    <path clip-path="url(#p331cf7d1af)" d="M 218.267826 85.805227 
L 218.267826 51.188798 
" style="fill:none;stroke:#0000ff;stroke-width:1.5;"/>
    <path clip-path="url(#p331cf7d1af)" d="M 221.050435 91.959221 
L 221.050435 57.342791 
" style="fill:none;stroke:#0000ff;stroke-width:1.5;"/>
    <path clip-path="url(#p331cf7d1af)" d="M 223.833043 88.240663 
L 223.833043 53.624234 
" style="fill:none;stroke:#0000ff;stroke-width:1.5;"/>
    <path clip-path="url(#p331cf7d1af)" d="M 226.615652 68.126085 
L 226.615652 33.509656 
" style="fill:none;stroke:#0000ff;stroke-width:1.5;"/>
    <path clip-path="url(#p331cf7d1af)" d="M 229.398261 90.663624 
L 229.398261 56.047195 
" style="fill:none;stroke:#0000ff;stroke-width:1.5;"/>
    <path clip-path="url(#p331cf7d1af)" d="M 232.18087 83.109735 
L 232.18087 48.493306 
" style="fill:none;stroke:#0000ff;stroke-width:1.5;"/>
    <path clip-path="url(#p331cf7d1af)" d="M 234.963478 88.295725 
L 234.963478 53.679296 
" style="fill:none;stroke:#0000ff;stroke-width:1.5;"/>
    <path clip-path="url(#p331cf7d1af)" d="M 237.746087 77.799494 
L 237.746087 43.183065 
" style="fill:none;stroke:#0000ff;stroke-width:1.5;"/>
    <path clip-path="url(#p331cf7d1af)" d="M 240.528696 72.372287 
L 240.528696 37.755857 
" style="fill:none;stroke:#0000ff;stroke-width:1.5;"/>
    <path clip-path="url(#p331cf7d1af)" d="M 243.311304 73.081662 
L 243.311304 38.465233 
" style="fill:none;stroke:#0000ff;stroke-width:1.5;"/>
    <path clip-path="url(#p331cf7d1af)" d="M 246.093913 76.78715 
L 246.093913 42.170721 
" style="fill:none;stroke:#0000ff;stroke-width:1.5;"/>
    <path clip-path="url(#p331cf7d1af)" d="M 248.876522 84.309595 
L 248.876522 49.693166 
" style="fill:none;stroke:#0000ff;stroke-width:1.5;"/>
    <path clip-path="url(#p331cf7d1af)" d="M 251.65913 84.851208 
L 251.65913 50.234779 
" style="fill:none;stroke:#0000ff;stroke-width:1.5;"/>
    <path clip-path="url(#p331cf7d1af)" d="M 254.441739 69.508915 
L 254.441739 34.892486 
" style="fill:none;stroke:#0000ff;stroke-width:1.5;"/>
    <path clip-path="url(#p331cf7d1af)" d="M 257.224348 75.449886 
L 257.224348 40.833457 
" style="fill:none;stroke:#0000ff;stroke-width:1.5;"/>
    <path clip-path="url(#p331cf7d1af)" d="M 260.006957 85.839795 
L 260.006957 51.223366 
" style="fill:none;stroke:#0000ff;stroke-width:1.5;"/>
    <path clip-path="url(#p331cf7d1af)" d="M 262.789565 112.156215 
L 262.789565 77.539785 
" style="fill:none;stroke:#0000ff;stroke-width:1.5;"/>
    <path clip-path="url(#p331cf7d1af)" d="M 265.572174 70.036688 
L 265.572174 35.420259 
" style="fill:none;stroke:#0000ff;stroke-width:1.5;"/>
    <path clip-path="url(#p331cf7d1af)" d="M 268.354783 78.739023 
L 268.354783 44.122594 
" style="fill:none;stroke:#0000ff;stroke-width:1.5;"/>
    <path clip-path="url(#p331cf7d1af)" d="M 271.137391 78.511433 
L 271.137391 43.895004 
" style="fill:none;stroke:#0000ff;stroke-width:1.5;"/>
    <path clip-path="url(#p331cf7d1af)" d="M 273.92 78.180972 
L 273.92 43.564543 
" style="fill:none;stroke:#0000ff;stroke-width:1.5;"/>
    <path clip-path="url(#p331cf7d1af)" d="M 276.702609 71.757369 
L 276.702609 37.14094 
" style="fill:none;stroke:#0000ff;stroke-width:1.5;"/>
    <path clip-path="url(#p331cf7d1af)" d="M 279.485217 84.155475 
L 279.485217 49.539046 
" style="fill:none;stroke:#0000ff;stroke-width:1.5;"/>
    <path clip-path="url(#p331cf7d1af)" d="M 282.267826 73.565661 
L 282.267826 38.949232 
" style="fill:none;stroke:#0000ff;stroke-width:1.5;"/>
    <path clip-path="url(#p331cf7d1af)" d="M 285.050435 95.783302 
L 285.050435 61.166872 
" style="fill:none;stroke:#0000ff;stroke-width:1.5;"/>
    <path clip-path="url(#p331cf7d1af)" d="M 287.833043 90.037079 
L 287.833043 55.42065 
" style="fill:none;stroke:#0000ff;stroke-width:1.5;"/>
    <path clip-path="url(#p331cf7d1af)" d="M 290.615652 84.852275 
L 290.615652 50.235846 
" style="fill:none;stroke:#0000ff;stroke-width:1.5;"/>
    <path clip-path="url(#p331cf7d1af)" d="M 293.398261 73.513858 
L 293.398261 38.897429 
" style="fill:none;stroke:#0000ff;stroke-width:1.5;"/>
    <path clip-path="url(#p331cf7d1af)" d="M 296.18087 96.795349 
L 296.18087 62.17892 
" style="fill:none;stroke:#0000ff;stroke-width:1.5;"/>
    <path clip-path="url(#p331cf7d1af)" d="M 298.963478 66.108076 
L 298.963478 31.491647 
" style="fill:none;stroke:#0000ff;stroke-width:1.5;"/>
    <path clip-path="url(#p331cf7d1af)" d="M 301.746087 84.686724 
L 301.746087 50.070295 
" style="fill:none;stroke:#0000ff;stroke-width:1.5;"/>
    <path clip-path="url(#p331cf7d1af)" d="M 304.528696 69.777789 
L 304.528696 35.16136 
" style="fill:none;stroke:#0000ff;stroke-width:1.5;"/>
    <path clip-path="url(#p331cf7d1af)" d="M 307.311304 78.51854 
L 307.311304 43.90211 
" style="fill:none;stroke:#0000ff;stroke-width:1.5;"/>
    <path clip-path="url(#p331cf7d1af)" d="M 310.093913 77.436498 
L 310.093913 42.820069 
" style="fill:none;stroke:#0000ff;stroke-width:1.5;"/>
    <path clip-path="url(#p331cf7d1af)" d="M 312.876522 89.062027 
L 312.876522 54.445597 
" style="fill:none;stroke:#0000ff;stroke-width:1.5;"/>
    <path clip-path="url(#p331cf7d1af)" d="M 315.65913 93.249524 
L 315.65913 58.633094 
" style="fill:none;stroke:#0000ff;stroke-width:1.5;"/>
    <path clip-path="url(#p331cf7d1af)" d="M 318.441739 71.023047 
L 318.441739 36.406617 
" style="fill:none;stroke:#0000ff;stroke-width:1.5;"/>
    <path clip-path="url(#p331cf7d1af)" d="M 321.224348 90.713684 
L 321.224348 56.097255 
" style="fill:none;stroke:#0000ff;stroke-width:1.5;"/>
    <path clip-path="url(#p331cf7d1af)" d="M 324.006957 69.231386 
L 324.006957 34.614957 
" style="fill:none;stroke:#0000ff;stroke-width:1.5;"/>
    <path clip-path="url(#p331cf7d1af)" d="M 326.789565 71.587785 
L 326.789565 36.971356 
" style="fill:none;stroke:#0000ff;stroke-width:1.5;"/>
    <path clip-path="url(#p331cf7d1af)" d="M 329.572174 78.045804 
L 329.572174 43.429375 
" style="fill:none;stroke:#0000ff;stroke-width:1.5;"/>
    <path clip-path="url(#p331cf7d1af)" d="M 332.354783 92.21762 
L 332.354783 57.60119 
" style="fill:none;stroke:#0000ff;stroke-width:1.5;"/>
    <path clip-path="url(#p331cf7d1af)" d="M 335.137391 76.402229 
L 335.137391 41.7858 
" style="fill:none;stroke:#0000ff;stroke-width:1.5;"/>
    <path clip-path="url(#p331cf7d1af)" d="M 337.92 84.614989 
L 337.92 49.998559 
" style="fill:none;stroke:#0000ff;stroke-width:1.5;"/>
    <path clip-path="url(#p331cf7d1af)" d="M 340.702609 96.391468 
L 340.702609 61.775039 
" style="fill:none;stroke:#0000ff;stroke-width:1.5;"/>
    <path clip-path="url(#p331cf7d1af)" d="M 343.485217 78.462654 
L 343.485217 43.846225 
" style="fill:none;stroke:#0000ff;stroke-width:1.5;"/>
    <path clip-path="url(#p331cf7d1af)" d="M 346.267826 82.501059 
L 346.267826 47.88463 
" style="fill:none;stroke:#0000ff;stroke-width:1.5;"/>
    <path clip-path="url(#p331cf7d1af)" d="M 349.050435 87.349142 
L 349.050435 52.732713 
" style="fill:none;stroke:#0000ff;stroke-width:1.5;"/>
    <path clip-path="url(#p331cf7d1af)" d="M 351.833043 81.412848 
L 351.833043 46.796419 
" style="fill:none;stroke:#0000ff;stroke-width:1.5;"/>
    <path clip-path="url(#p331cf7d1af)" d="M 354.615652 65.813983 
L 354.615652 31.197554 
" style="fill:none;stroke:#0000ff;stroke-width:1.5;"/>
    <path clip-path="url(#p331cf7d1af)" d="M 357.398261 68.662249 
L 357.398261 34.04582 
" style="fill:none;stroke:#0000ff;stroke-width:1.5;"/>
    <path clip-path="url(#p331cf7d1af)" d="M 360.18087 85.450288 
L 360.18087 50.833859 
" style="fill:none;stroke:#0000ff;stroke-width:1.5;"/>
    <path clip-path="url(#p331cf7d1af)" d="M 368.528696 84.552727 
L 368.528696 49.936298 
" style="fill:none;stroke:#0000ff;stroke-width:1.5;"/>
    <path clip-path="url(#p331cf7d1af)" d="M 371.311304 84.330675 
L 371.311304 49.714246 
" style="fill:none;stroke:#0000ff;stroke-width:1.5;"/>
    <path clip-path="url(#p331cf7d1af)" d="M 379.65913 90.123096 
L 379.65913 55.506667 
" style="fill:none;stroke:#0000ff;stroke-width:1.5;"/>
    <path clip-path="url(#p331cf7d1af)" d="M 385.224348 83.628005 
L 385.224348 49.011576 
" style="fill:none;stroke:#0000ff;stroke-width:1.5;"/>
    <path clip-path="url(#p331cf7d1af)" d="M 390.789565 89.71912 
L 390.789565 55.102691 
" style="fill:none;stroke:#0000ff;stroke-width:1.5;"/>
    <path clip-path="url(#p331cf7d1af)" d="M 401.92 89.530337 
L 401.92 54.913908 
" style="fill:none;stroke:#0000ff;stroke-width:1.5;"/>
   </g>
   <g id="line2d_7">
    <path clip-path="url(#p331cf7d1af)" d="M 81.92 65.154098 
L 401.92 65.154098 
" style="fill:none;stroke:#ff0000;stroke-linecap:square;stroke-width:1.5;"/>
   </g>
   <g id="line2d_8">
    <defs>
     <path d="M -3 0 
L 3 0 
M 0 3 
L 0 -3 
" id="mbeee878404" style="stroke:#0000ff;"/>
    </defs>
    <g clip-path="url(#p331cf7d1af)">
     <use style="fill:#0000ff;stroke:#0000ff;" x="81.92" xlink:href="#mbeee878404" y="60.826573"/>
     <use style="fill:#0000ff;stroke:#0000ff;" x="98.615652" xlink:href="#mbeee878404" y="60.83396"/>
     <use style="fill:#0000ff;stroke:#0000ff;" x="101.398261" xlink:href="#mbeee878404" y="65.898067"/>
     <use style="fill:#0000ff;stroke:#0000ff;" x="104.18087" xlink:href="#mbeee878404" y="60.840455"/>
     <use style="fill:#0000ff;stroke:#0000ff;" x="118.093913" xlink:href="#mbeee878404" y="65.946185"/>
     <use style="fill:#0000ff;stroke:#0000ff;" x="120.876522" xlink:href="#mbeee878404" y="60.896015"/>
     <use style="fill:#0000ff;stroke:#0000ff;" x="123.65913" xlink:href="#mbeee878404" y="72.20115"/>
     <use style="fill:#0000ff;stroke:#0000ff;" x="126.441739" xlink:href="#mbeee878404" y="56.625633"/>
     <use style="fill:#0000ff;stroke:#0000ff;" x="129.224348" xlink:href="#mbeee878404" y="72.265912"/>
     <use style="fill:#0000ff;stroke:#0000ff;" x="132.006957" xlink:href="#mbeee878404" y="66.081062"/>
     <use style="fill:#0000ff;stroke:#0000ff;" x="134.789565" xlink:href="#mbeee878404" y="61.047684"/>
     <use style="fill:#0000ff;stroke:#0000ff;" x="143.137391" xlink:href="#mbeee878404" y="66.343012"/>
     <use style="fill:#0000ff;stroke:#0000ff;" x="148.702609" xlink:href="#mbeee878404" y="53.288941"/>
     <use style="fill:#0000ff;stroke:#0000ff;" x="151.485217" xlink:href="#mbeee878404" y="73.012059"/>
     <use style="fill:#0000ff;stroke:#0000ff;" x="154.267826" xlink:href="#mbeee878404" y="53.535863"/>
     <use style="fill:#0000ff;stroke:#0000ff;" x="159.833043" xlink:href="#mbeee878404" y="57.721917"/>
     <use style="fill:#0000ff;stroke:#0000ff;" x="162.615652" xlink:href="#mbeee878404" y="57.94811"/>
     <use style="fill:#0000ff;stroke:#0000ff;" x="165.398261" xlink:href="#mbeee878404" y="62.648949"/>
     <use style="fill:#0000ff;stroke:#0000ff;" x="168.18087" xlink:href="#mbeee878404" y="68.237194"/>
     <use style="fill:#0000ff;stroke:#0000ff;" x="170.963478" xlink:href="#mbeee878404" y="58.849444"/>
     <use style="fill:#0000ff;stroke:#0000ff;" x="173.746087" xlink:href="#mbeee878404" y="75.684102"/>
     <use style="fill:#0000ff;stroke:#0000ff;" x="176.528696" xlink:href="#mbeee878404" y="59.6733"/>
     <use style="fill:#0000ff;stroke:#0000ff;" x="179.311304" xlink:href="#mbeee878404" y="76.909821"/>
     <use style="fill:#0000ff;stroke:#0000ff;" x="182.093913" xlink:href="#mbeee878404" y="46.848"/>
     <use style="fill:#0000ff;stroke:#0000ff;" x="184.876522" xlink:href="#mbeee878404" y="66.004067"/>
     <use style="fill:#0000ff;stroke:#0000ff;" x="187.65913" xlink:href="#mbeee878404" y="72.348602"/>
     <use style="fill:#0000ff;stroke:#0000ff;" x="190.441739" xlink:href="#mbeee878404" y="48.447565"/>
     <use style="fill:#0000ff;stroke:#0000ff;" x="193.224348" xlink:href="#mbeee878404" y="74.15724"/>
     <use style="fill:#0000ff;stroke:#0000ff;" x="196.006957" xlink:href="#mbeee878404" y="60.097433"/>
     <use style="fill:#0000ff;stroke:#0000ff;" x="198.789565" xlink:href="#mbeee878404" y="60.965362"/>
     <use style="fill:#0000ff;stroke:#0000ff;" x="201.572174" xlink:href="#mbeee878404" y="71.381368"/>
     <use style="fill:#0000ff;stroke:#0000ff;" x="204.354783" xlink:href="#mbeee878404" y="72.518596"/>
     <use style="fill:#0000ff;stroke:#0000ff;" x="207.137391" xlink:href="#mbeee878404" y="59.907645"/>
     <use style="fill:#0000ff;stroke:#0000ff;" x="209.92" xlink:href="#mbeee878404" y="53.955835"/>
     <use style="fill:#0000ff;stroke:#0000ff;" x="212.702609" xlink:href="#mbeee878404" y="76.279669"/>
     <use style="fill:#0000ff;stroke:#0000ff;" x="215.485217" xlink:href="#mbeee878404" y="47.152126"/>
     <use style="fill:#0000ff;stroke:#0000ff;" x="218.267826" xlink:href="#mbeee878404" y="68.497012"/>
     <use style="fill:#0000ff;stroke:#0000ff;" x="221.050435" xlink:href="#mbeee878404" y="74.651006"/>
     <use style="fill:#0000ff;stroke:#0000ff;" x="223.833043" xlink:href="#mbeee878404" y="70.932448"/>
     <use style="fill:#0000ff;stroke:#0000ff;" x="226.615652" xlink:href="#mbeee878404" y="50.81787"/>
     <use style="fill:#0000ff;stroke:#0000ff;" x="229.398261" xlink:href="#mbeee878404" y="73.35541"/>
     <use style="fill:#0000ff;stroke:#0000ff;" x="232.18087" xlink:href="#mbeee878404" y="65.80152"/>
     <use style="fill:#0000ff;stroke:#0000ff;" x="234.963478" xlink:href="#mbeee878404" y="70.987511"/>
     <use style="fill:#0000ff;stroke:#0000ff;" x="237.746087" xlink:href="#mbeee878404" y="60.49128"/>
     <use style="fill:#0000ff;stroke:#0000ff;" x="240.528696" xlink:href="#mbeee878404" y="55.064072"/>
     <use style="fill:#0000ff;stroke:#0000ff;" x="243.311304" xlink:href="#mbeee878404" y="55.773448"/>
     <use style="fill:#0000ff;stroke:#0000ff;" x="246.093913" xlink:href="#mbeee878404" y="59.478936"/>
     <use style="fill:#0000ff;stroke:#0000ff;" x="248.876522" xlink:href="#mbeee878404" y="67.00138"/>
     <use style="fill:#0000ff;stroke:#0000ff;" x="251.65913" xlink:href="#mbeee878404" y="67.542994"/>
     <use style="fill:#0000ff;stroke:#0000ff;" x="254.441739" xlink:href="#mbeee878404" y="52.2007"/>
     <use style="fill:#0000ff;stroke:#0000ff;" x="257.224348" xlink:href="#mbeee878404" y="58.141672"/>
     <use style="fill:#0000ff;stroke:#0000ff;" x="260.006957" xlink:href="#mbeee878404" y="68.531581"/>
     <use style="fill:#0000ff;stroke:#0000ff;" x="262.789565" xlink:href="#mbeee878404" y="94.848"/>
     <use style="fill:#0000ff;stroke:#0000ff;" x="265.572174" xlink:href="#mbeee878404" y="52.728474"/>
     <use style="fill:#0000ff;stroke:#0000ff;" x="268.354783" xlink:href="#mbeee878404" y="61.430809"/>
     <use style="fill:#0000ff;stroke:#0000ff;" x="271.137391" xlink:href="#mbeee878404" y="61.203218"/>
     <use style="fill:#0000ff;stroke:#0000ff;" x="273.92" xlink:href="#mbeee878404" y="60.872758"/>
     <use style="fill:#0000ff;stroke:#0000ff;" x="276.702609" xlink:href="#mbeee878404" y="54.449154"/>
     <use style="fill:#0000ff;stroke:#0000ff;" x="279.485217" xlink:href="#mbeee878404" y="66.847261"/>
     <use style="fill:#0000ff;stroke:#0000ff;" x="282.267826" xlink:href="#mbeee878404" y="56.257447"/>
     <use style="fill:#0000ff;stroke:#0000ff;" x="285.050435" xlink:href="#mbeee878404" y="78.475087"/>
     <use style="fill:#0000ff;stroke:#0000ff;" x="287.833043" xlink:href="#mbeee878404" y="72.728864"/>
     <use style="fill:#0000ff;stroke:#0000ff;" x="290.615652" xlink:href="#mbeee878404" y="67.54406"/>
     <use style="fill:#0000ff;stroke:#0000ff;" x="293.398261" xlink:href="#mbeee878404" y="56.205644"/>
     <use style="fill:#0000ff;stroke:#0000ff;" x="296.18087" xlink:href="#mbeee878404" y="79.487134"/>
     <use style="fill:#0000ff;stroke:#0000ff;" x="298.963478" xlink:href="#mbeee878404" y="48.799862"/>
     <use style="fill:#0000ff;stroke:#0000ff;" x="301.746087" xlink:href="#mbeee878404" y="67.378509"/>
     <use style="fill:#0000ff;stroke:#0000ff;" x="304.528696" xlink:href="#mbeee878404" y="52.469575"/>
     <use style="fill:#0000ff;stroke:#0000ff;" x="307.311304" xlink:href="#mbeee878404" y="61.210325"/>
     <use style="fill:#0000ff;stroke:#0000ff;" x="310.093913" xlink:href="#mbeee878404" y="60.128283"/>
     <use style="fill:#0000ff;stroke:#0000ff;" x="312.876522" xlink:href="#mbeee878404" y="71.753812"/>
     <use style="fill:#0000ff;stroke:#0000ff;" x="315.65913" xlink:href="#mbeee878404" y="75.941309"/>
     <use style="fill:#0000ff;stroke:#0000ff;" x="318.441739" xlink:href="#mbeee878404" y="53.714832"/>
     <use style="fill:#0000ff;stroke:#0000ff;" x="321.224348" xlink:href="#mbeee878404" y="73.405469"/>
     <use style="fill:#0000ff;stroke:#0000ff;" x="324.006957" xlink:href="#mbeee878404" y="51.923172"/>
     <use style="fill:#0000ff;stroke:#0000ff;" x="326.789565" xlink:href="#mbeee878404" y="54.27957"/>
     <use style="fill:#0000ff;stroke:#0000ff;" x="329.572174" xlink:href="#mbeee878404" y="60.737589"/>
     <use style="fill:#0000ff;stroke:#0000ff;" x="332.354783" xlink:href="#mbeee878404" y="74.909405"/>
     <use style="fill:#0000ff;stroke:#0000ff;" x="335.137391" xlink:href="#mbeee878404" y="59.094014"/>
     <use style="fill:#0000ff;stroke:#0000ff;" x="337.92" xlink:href="#mbeee878404" y="67.306774"/>
     <use style="fill:#0000ff;stroke:#0000ff;" x="340.702609" xlink:href="#mbeee878404" y="79.083254"/>
     <use style="fill:#0000ff;stroke:#0000ff;" x="343.485217" xlink:href="#mbeee878404" y="61.15444"/>
     <use style="fill:#0000ff;stroke:#0000ff;" x="346.267826" xlink:href="#mbeee878404" y="65.192845"/>
     <use style="fill:#0000ff;stroke:#0000ff;" x="349.050435" xlink:href="#mbeee878404" y="70.040928"/>
     <use style="fill:#0000ff;stroke:#0000ff;" x="351.833043" xlink:href="#mbeee878404" y="64.104634"/>
     <use style="fill:#0000ff;stroke:#0000ff;" x="354.615652" xlink:href="#mbeee878404" y="48.505768"/>
     <use style="fill:#0000ff;stroke:#0000ff;" x="357.398261" xlink:href="#mbeee878404" y="51.354035"/>
     <use style="fill:#0000ff;stroke:#0000ff;" x="360.18087" xlink:href="#mbeee878404" y="68.142073"/>
     <use style="fill:#0000ff;stroke:#0000ff;" x="368.528696" xlink:href="#mbeee878404" y="67.244513"/>
     <use style="fill:#0000ff;stroke:#0000ff;" x="371.311304" xlink:href="#mbeee878404" y="67.02246"/>
     <use style="fill:#0000ff;stroke:#0000ff;" x="379.65913" xlink:href="#mbeee878404" y="72.814882"/>
     <use style="fill:#0000ff;stroke:#0000ff;" x="385.224348" xlink:href="#mbeee878404" y="66.31979"/>
     <use style="fill:#0000ff;stroke:#0000ff;" x="390.789565" xlink:href="#mbeee878404" y="72.410905"/>
     <use style="fill:#0000ff;stroke:#0000ff;" x="401.92" xlink:href="#mbeee878404" y="72.222123"/>
    </g>
   </g>
   <g id="patch_3">
    <path d="M 69.12 96.768 
L 69.12 44.928 
" style="fill:none;stroke:#000000;stroke-linecap:square;stroke-linejoin:miter;stroke-width:0.8;"/>
   </g>
   <g id="patch_4">
    <path d="M 414.72 96.768 
L 414.72 44.928 
" style="fill:none;stroke:#000000;stroke-linecap:square;stroke-linejoin:miter;stroke-width:0.8;"/>
   </g>
   <g id="patch_5">
    <path d="M 69.12 96.768 
L 414.72 96.768 
" style="fill:none;stroke:#000000;stroke-linecap:square;stroke-linejoin:miter;stroke-width:0.8;"/>
   </g>
   <g id="patch_6">
    <path d="M 69.12 44.928 
L 414.72 44.928 
" style="fill:none;stroke:#000000;stroke-linecap:square;stroke-linejoin:miter;stroke-width:0.8;"/>
   </g>
   <g id="text_4">
    <!-- Function (0/0): y = a*exp(-(x-x0)**2/w**2)+b -->
    <defs>
     <path d="M 9.8125 72.90625 
L 51.703125 72.90625 
L 51.703125 64.59375 
L 19.671875 64.59375 
L 19.671875 43.109375 
L 48.578125 43.109375 
L 48.578125 34.8125 
L 19.671875 34.8125 
L 19.671875 0 
L 9.8125 0 
z
" id="DejaVuSans-46"/>
     <path d="M 48.78125 52.59375 
L 48.78125 44.1875 
Q 44.96875 46.296875 41.140625 47.34375 
Q 37.3125 48.390625 33.40625 48.390625 
Q 24.65625 48.390625 19.8125 42.84375 
Q 14.984375 37.3125 14.984375 27.296875 
Q 14.984375 17.28125 19.8125 11.734375 
Q 24.65625 6.203125 33.40625 6.203125 
Q 37.3125 6.203125 41.140625 7.25 
Q 44.96875 8.296875 48.78125 10.40625 
L 48.78125 2.09375 
Q 45.015625 0.34375 40.984375 -0.53125 
Q 36.96875 -1.421875 32.421875 -1.421875 
Q 20.0625 -1.421875 12.78125 6.34375 
Q 5.515625 14.109375 5.515625 27.296875 
Q 5.515625 40.671875 12.859375 48.328125 
Q 20.21875 56 33.015625 56 
Q 37.15625 56 41.109375 55.140625 
Q 45.0625 54.296875 48.78125 52.59375 
z
" id="DejaVuSans-63"/>
     <path d="M 30.609375 48.390625 
Q 23.390625 48.390625 19.1875 42.75 
Q 14.984375 37.109375 14.984375 27.296875 
Q 14.984375 17.484375 19.15625 11.84375 
Q 23.34375 6.203125 30.609375 6.203125 
Q 37.796875 6.203125 41.984375 11.859375 
Q 46.1875 17.53125 46.1875 27.296875 
Q 46.1875 37.015625 41.984375 42.703125 
Q 37.796875 48.390625 30.609375 48.390625 
z
M 30.609375 56 
Q 42.328125 56 49.015625 48.375 
Q 55.71875 40.765625 55.71875 27.296875 
Q 55.71875 13.875 49.015625 6.21875 
Q 42.328125 -1.421875 30.609375 -1.421875 
Q 18.84375 -1.421875 12.171875 6.21875 
Q 5.515625 13.875 5.515625 27.296875 
Q 5.515625 40.765625 12.171875 48.375 
Q 18.84375 56 30.609375 56 
z
" id="DejaVuSans-6f"/>
     <path id="DejaVuSans-20"/>
     <path d="M 31 75.875 
Q 24.46875 64.65625 21.28125 53.65625 
Q 18.109375 42.671875 18.109375 31.390625 
Q 18.109375 20.125 21.3125 9.0625 
Q 24.515625 -2 31 -13.1875 
L 23.1875 -13.1875 
Q 15.875 -1.703125 12.234375 9.375 
Q 8.59375 20.453125 8.59375 31.390625 
Q 8.59375 42.28125 12.203125 53.3125 
Q 15.828125 64.359375 23.1875 75.875 
z
" id="DejaVuSans-28"/>
     <path d="M 31.78125 66.40625 
Q 24.171875 66.40625 20.328125 58.90625 
Q 16.5 51.421875 16.5 36.375 
Q 16.5 21.390625 20.328125 13.890625 
Q 24.171875 6.390625 31.78125 6.390625 
Q 39.453125 6.390625 43.28125 13.890625 
Q 47.125 21.390625 47.125 36.375 
Q 47.125 51.421875 43.28125 58.90625 
Q 39.453125 66.40625 31.78125 66.40625 
z
M 31.78125 74.21875 
Q 44.046875 74.21875 50.515625 64.515625 
Q 56.984375 54.828125 56.984375 36.375 
Q 56.984375 17.96875 50.515625 8.265625 
Q 44.046875 -1.421875 31.78125 -1.421875 
Q 19.53125 -1.421875 13.0625 8.265625 
Q 6.59375 17.96875 6.59375 36.375 
Q 6.59375 54.828125 13.0625 64.515625 
Q 19.53125 74.21875 31.78125 74.21875 
z
" id="DejaVuSans-30"/>
     <path d="M 25.390625 72.90625 
L 33.6875 72.90625 
L 8.296875 -9.28125 
L 0 -9.28125 
z
" id="DejaVuSans-2f"/>
     <path d="M 8.015625 75.875 
L 15.828125 75.875 
Q 23.140625 64.359375 26.78125 53.3125 
Q 30.421875 42.28125 30.421875 31.390625 
Q 30.421875 20.453125 26.78125 9.375 
Q 23.140625 -1.703125 15.828125 -13.1875 
L 8.015625 -13.1875 
Q 14.5 -2 17.703125 9.0625 
Q 20.90625 20.125 20.90625 31.390625 
Q 20.90625 42.671875 17.703125 53.65625 
Q 14.5 64.65625 8.015625 75.875 
z
" id="DejaVuSans-29"/>
     <path d="M 11.71875 12.40625 
L 22.015625 12.40625 
L 22.015625 0 
L 11.71875 0 
z
M 11.71875 51.703125 
L 22.015625 51.703125 
L 22.015625 39.3125 
L 11.71875 39.3125 
z
" id="DejaVuSans-3a"/>
     <path d="M 32.171875 -5.078125 
Q 28.375 -14.84375 24.75 -17.8125 
Q 21.140625 -20.796875 15.09375 -20.796875 
L 7.90625 -20.796875 
L 7.90625 -13.28125 
L 13.1875 -13.28125 
Q 16.890625 -13.28125 18.9375 -11.515625 
Q 21 -9.765625 23.484375 -3.21875 
L 25.09375 0.875 
L 2.984375 54.6875 
L 12.5 54.6875 
L 29.59375 11.921875 
L 46.6875 54.6875 
L 56.203125 54.6875 
z
" id="DejaVuSans-79"/>
     <path d="M 10.59375 45.40625 
L 73.1875 45.40625 
L 73.1875 37.203125 
L 10.59375 37.203125 
z
M 10.59375 25.484375 
L 73.1875 25.484375 
L 73.1875 17.1875 
L 10.59375 17.1875 
z
" id="DejaVuSans-3d"/>
     <path d="M 47.015625 60.890625 
L 29.5 51.421875 
L 47.015625 41.890625 
L 44.1875 37.109375 
L 27.78125 47.015625 
L 27.78125 28.609375 
L 22.21875 28.609375 
L 22.21875 47.015625 
L 5.8125 37.109375 
L 2.984375 41.890625 
L 20.515625 51.421875 
L 2.984375 60.890625 
L 5.8125 65.71875 
L 22.21875 55.8125 
L 22.21875 74.21875 
L 27.78125 74.21875 
L 27.78125 55.8125 
L 44.1875 65.71875 
z
" id="DejaVuSans-2a"/>
     <path d="M 54.890625 54.6875 
L 35.109375 28.078125 
L 55.90625 0 
L 45.3125 0 
L 29.390625 21.484375 
L 13.484375 0 
L 2.875 0 
L 24.125 28.609375 
L 4.6875 54.6875 
L 15.28125 54.6875 
L 29.78125 35.203125 
L 44.28125 54.6875 
z
" id="DejaVuSans-78"/>
     <path d="M 18.109375 8.203125 
L 18.109375 -20.796875 
L 9.078125 -20.796875 
L 9.078125 54.6875 
L 18.109375 54.6875 
L 18.109375 46.390625 
Q 20.953125 51.265625 25.265625 53.625 
Q 29.59375 56 35.59375 56 
Q 45.5625 56 51.78125 48.09375 
Q 58.015625 40.1875 58.015625 27.296875 
Q 58.015625 14.40625 51.78125 6.484375 
Q 45.5625 -1.421875 35.59375 -1.421875 
Q 29.59375 -1.421875 25.265625 0.953125 
Q 20.953125 3.328125 18.109375 8.203125 
z
M 48.6875 27.296875 
Q 48.6875 37.203125 44.609375 42.84375 
Q 40.53125 48.484375 33.40625 48.484375 
Q 26.265625 48.484375 22.1875 42.84375 
Q 18.109375 37.203125 18.109375 27.296875 
Q 18.109375 17.390625 22.1875 11.75 
Q 26.265625 6.109375 33.40625 6.109375 
Q 40.53125 6.109375 44.609375 11.75 
Q 48.6875 17.390625 48.6875 27.296875 
z
" id="DejaVuSans-70"/>
     <path d="M 4.890625 31.390625 
L 31.203125 31.390625 
L 31.203125 23.390625 
L 4.890625 23.390625 
z
" id="DejaVuSans-2d"/>
     <path d="M 19.1875 8.296875 
L 53.609375 8.296875 
L 53.609375 0 
L 7.328125 0 
L 7.328125 8.296875 
Q 12.9375 14.109375 22.625 23.890625 
Q 32.328125 33.6875 34.8125 36.53125 
Q 39.546875 41.84375 41.421875 45.53125 
Q 43.3125 49.21875 43.3125 52.78125 
Q 43.3125 58.59375 39.234375 62.25 
Q 35.15625 65.921875 28.609375 65.921875 
Q 23.96875 65.921875 18.8125 64.3125 
Q 13.671875 62.703125 7.8125 59.421875 
L 7.8125 69.390625 
Q 13.765625 71.78125 18.9375 73 
Q 24.125 74.21875 28.421875 74.21875 
Q 39.75 74.21875 46.484375 68.546875 
Q 53.21875 62.890625 53.21875 53.421875 
Q 53.21875 48.921875 51.53125 44.890625 
Q 49.859375 40.875 45.40625 35.40625 
Q 44.1875 33.984375 37.640625 27.21875 
Q 31.109375 20.453125 19.1875 8.296875 
z
" id="DejaVuSans-32"/>
     <path d="M 4.203125 54.6875 
L 13.1875 54.6875 
L 24.421875 12.015625 
L 35.59375 54.6875 
L 46.1875 54.6875 
L 57.421875 12.015625 
L 68.609375 54.6875 
L 77.59375 54.6875 
L 63.28125 0 
L 52.6875 0 
L 40.921875 44.828125 
L 29.109375 0 
L 18.5 0 
z
" id="DejaVuSans-77"/>
     <path d="M 46 62.703125 
L 46 35.5 
L 73.1875 35.5 
L 73.1875 27.203125 
L 46 27.203125 
L 46 0 
L 37.796875 0 
L 37.796875 27.203125 
L 10.59375 27.203125 
L 10.59375 35.5 
L 37.796875 35.5 
L 37.796875 62.703125 
z
" id="DejaVuSans-2b"/>
     <path d="M 48.6875 27.296875 
Q 48.6875 37.203125 44.609375 42.84375 
Q 40.53125 48.484375 33.40625 48.484375 
Q 26.265625 48.484375 22.1875 42.84375 
Q 18.109375 37.203125 18.109375 27.296875 
Q 18.109375 17.390625 22.1875 11.75 
Q 26.265625 6.109375 33.40625 6.109375 
Q 40.53125 6.109375 44.609375 11.75 
Q 48.6875 17.390625 48.6875 27.296875 
z
M 18.109375 46.390625 
Q 20.953125 51.265625 25.265625 53.625 
Q 29.59375 56 35.59375 56 
Q 45.5625 56 51.78125 48.09375 
Q 58.015625 40.1875 58.015625 27.296875 
Q 58.015625 14.40625 51.78125 6.484375 
Q 45.5625 -1.421875 35.59375 -1.421875 
Q 29.59375 -1.421875 25.265625 0.953125 
Q 20.953125 3.328125 18.109375 8.203125 
L 18.109375 0 
L 9.078125 0 
L 9.078125 75.984375 
L 18.109375 75.984375 
z
" id="DejaVuSans-62"/>
    </defs>
    <g transform="translate(69.12 27.730187)scale(0.1 -0.1)">
     <use xlink:href="#DejaVuSans-46"/>
     <use x="57.441406" xlink:href="#DejaVuSans-75"/>
     <use x="120.820312" xlink:href="#DejaVuSans-6e"/>
     <use x="184.199219" xlink:href="#DejaVuSans-63"/>
     <use x="239.179688" xlink:href="#DejaVuSans-74"/>
     <use x="278.388672" xlink:href="#DejaVuSans-69"/>
     <use x="306.171875" xlink:href="#DejaVuSans-6f"/>
     <use x="367.353516" xlink:href="#DejaVuSans-6e"/>
     <use x="430.732422" xlink:href="#DejaVuSans-20"/>
     <use x="462.519531" xlink:href="#DejaVuSans-28"/>
     <use x="501.533203" xlink:href="#DejaVuSans-30"/>
     <use x="565.15625" xlink:href="#DejaVuSans-2f"/>
     <use x="598.847656" xlink:href="#DejaVuSans-30"/>
     <use x="662.470703" xlink:href="#DejaVuSans-29"/>
     <use x="701.484375" xlink:href="#DejaVuSans-3a"/>
     <use x="735.175781" xlink:href="#DejaVuSans-20"/>
     <use x="766.962891" xlink:href="#DejaVuSans-79"/>
     <use x="826.142578" xlink:href="#DejaVuSans-20"/>
     <use x="857.929688" xlink:href="#DejaVuSans-3d"/>
     <use x="941.71875" xlink:href="#DejaVuSans-20"/>
     <use x="973.505859" xlink:href="#DejaVuSans-61"/>
     <use x="1034.785156" xlink:href="#DejaVuSans-2a"/>
     <use x="1084.785156" xlink:href="#DejaVuSans-65"/>
     <use x="1146.292969" xlink:href="#DejaVuSans-78"/>
     <use x="1205.472656" xlink:href="#DejaVuSans-70"/>
     <use x="1268.949219" xlink:href="#DejaVuSans-28"/>
     <use x="1307.962891" xlink:href="#DejaVuSans-2d"/>
     <use x="1344.046875" xlink:href="#DejaVuSans-28"/>
     <use x="1383.060547" xlink:href="#DejaVuSans-78"/>
     <use x="1442.240234" xlink:href="#DejaVuSans-2d"/>
     <use x="1478.324219" xlink:href="#DejaVuSans-78"/>
     <use x="1537.503906" xlink:href="#DejaVuSans-30"/>
     <use x="1601.126953" xlink:href="#DejaVuSans-29"/>
     <use x="1640.140625" xlink:href="#DejaVuSans-2a"/>
     <use x="1690.140625" xlink:href="#DejaVuSans-2a"/>
     <use x="1740.140625" xlink:href="#DejaVuSans-32"/>
     <use x="1803.763672" xlink:href="#DejaVuSans-2f"/>
     <use x="1837.455078" xlink:href="#DejaVuSans-77"/>
     <use x="1919.242188" xlink:href="#DejaVuSans-2a"/>
     <use x="1969.242188" xlink:href="#DejaVuSans-2a"/>
     <use x="2019.242188" xlink:href="#DejaVuSans-32"/>
     <use x="2082.865234" xlink:href="#DejaVuSans-29"/>
     <use x="2121.878906" xlink:href="#DejaVuSans-2b"/>
     <use x="2205.667969" xlink:href="#DejaVuSans-62"/>
    </g>
    <!-- Fit: a=3.41$\pm$0.61, b=2.57$\pm$0.36, x0=4.275$\pm$0.015, w=0.123$\pm$0.027, -->
    <defs>
     <path d="M 40.578125 39.3125 
Q 47.65625 37.796875 51.625 33 
Q 55.609375 28.21875 55.609375 21.1875 
Q 55.609375 10.40625 48.1875 4.484375 
Q 40.765625 -1.421875 27.09375 -1.421875 
Q 22.515625 -1.421875 17.65625 -0.515625 
Q 12.796875 0.390625 7.625 2.203125 
L 7.625 11.71875 
Q 11.71875 9.328125 16.59375 8.109375 
Q 21.484375 6.890625 26.8125 6.890625 
Q 36.078125 6.890625 40.9375 10.546875 
Q 45.796875 14.203125 45.796875 21.1875 
Q 45.796875 27.640625 41.28125 31.265625 
Q 36.765625 34.90625 28.71875 34.90625 
L 20.21875 34.90625 
L 20.21875 43.015625 
L 29.109375 43.015625 
Q 36.375 43.015625 40.234375 45.921875 
Q 44.09375 48.828125 44.09375 54.296875 
Q 44.09375 59.90625 40.109375 62.90625 
Q 36.140625 65.921875 28.71875 65.921875 
Q 24.65625 65.921875 20.015625 65.03125 
Q 15.375 64.15625 9.8125 62.3125 
L 9.8125 71.09375 
Q 15.4375 72.65625 20.34375 73.4375 
Q 25.25 74.21875 29.59375 74.21875 
Q 40.828125 74.21875 47.359375 69.109375 
Q 53.90625 64.015625 53.90625 55.328125 
Q 53.90625 49.265625 50.4375 45.09375 
Q 46.96875 40.921875 40.578125 39.3125 
z
" id="DejaVuSans-33"/>
     <path d="M 10.6875 12.40625 
L 21 12.40625 
L 21 0 
L 10.6875 0 
z
" id="DejaVuSans-2e"/>
     <path d="M 37.796875 64.3125 
L 12.890625 25.390625 
L 37.796875 25.390625 
z
M 35.203125 72.90625 
L 47.609375 72.90625 
L 47.609375 25.390625 
L 58.015625 25.390625 
L 58.015625 17.1875 
L 47.609375 17.1875 
L 47.609375 0 
L 37.796875 0 
L 37.796875 17.1875 
L 4.890625 17.1875 
L 4.890625 26.703125 
z
" id="DejaVuSans-34"/>
     <path d="M 46 62.703125 
L 46 43.796875 
L 73.1875 43.796875 
L 73.1875 35.5 
L 46 35.5 
L 46 16.609375 
L 37.796875 16.609375 
L 37.796875 35.5 
L 10.59375 35.5 
L 10.59375 43.796875 
L 37.796875 43.796875 
L 37.796875 62.703125 
z
M 10.59375 8.296875 
L 73.1875 8.296875 
L 73.1875 0 
L 10.59375 0 
z
" id="DejaVuSans-b1"/>
     <path d="M 33.015625 40.375 
Q 26.375 40.375 22.484375 35.828125 
Q 18.609375 31.296875 18.609375 23.390625 
Q 18.609375 15.53125 22.484375 10.953125 
Q 26.375 6.390625 33.015625 6.390625 
Q 39.65625 6.390625 43.53125 10.953125 
Q 47.40625 15.53125 47.40625 23.390625 
Q 47.40625 31.296875 43.53125 35.828125 
Q 39.65625 40.375 33.015625 40.375 
z
M 52.59375 71.296875 
L 52.59375 62.3125 
Q 48.875 64.0625 45.09375 64.984375 
Q 41.3125 65.921875 37.59375 65.921875 
Q 27.828125 65.921875 22.671875 59.328125 
Q 17.53125 52.734375 16.796875 39.40625 
Q 19.671875 43.65625 24.015625 45.921875 
Q 28.375 48.1875 33.59375 48.1875 
Q 44.578125 48.1875 50.953125 41.515625 
Q 57.328125 34.859375 57.328125 23.390625 
Q 57.328125 12.15625 50.6875 5.359375 
Q 44.046875 -1.421875 33.015625 -1.421875 
Q 20.359375 -1.421875 13.671875 8.265625 
Q 6.984375 17.96875 6.984375 36.375 
Q 6.984375 53.65625 15.1875 63.9375 
Q 23.390625 74.21875 37.203125 74.21875 
Q 40.921875 74.21875 44.703125 73.484375 
Q 48.484375 72.75 52.59375 71.296875 
z
" id="DejaVuSans-36"/>
     <path d="M 11.71875 12.40625 
L 22.015625 12.40625 
L 22.015625 4 
L 14.015625 -11.625 
L 7.71875 -11.625 
L 11.71875 4 
z
" id="DejaVuSans-2c"/>
     <path d="M 10.796875 72.90625 
L 49.515625 72.90625 
L 49.515625 64.59375 
L 19.828125 64.59375 
L 19.828125 46.734375 
Q 21.96875 47.46875 24.109375 47.828125 
Q 26.265625 48.1875 28.421875 48.1875 
Q 40.625 48.1875 47.75 41.5 
Q 54.890625 34.8125 54.890625 23.390625 
Q 54.890625 11.625 47.5625 5.09375 
Q 40.234375 -1.421875 26.90625 -1.421875 
Q 22.3125 -1.421875 17.546875 -0.640625 
Q 12.796875 0.140625 7.71875 1.703125 
L 7.71875 11.625 
Q 12.109375 9.234375 16.796875 8.0625 
Q 21.484375 6.890625 26.703125 6.890625 
Q 35.15625 6.890625 40.078125 11.328125 
Q 45.015625 15.765625 45.015625 23.390625 
Q 45.015625 31 40.078125 35.4375 
Q 35.15625 39.890625 26.703125 39.890625 
Q 22.75 39.890625 18.8125 39.015625 
Q 14.890625 38.140625 10.796875 36.28125 
z
" id="DejaVuSans-35"/>
     <path d="M 8.203125 72.90625 
L 55.078125 72.90625 
L 55.078125 68.703125 
L 28.609375 0 
L 18.3125 0 
L 43.21875 64.59375 
L 8.203125 64.59375 
z
" id="DejaVuSans-37"/>
    </defs>
    <g transform="translate(69.12 38.928)scale(0.1 -0.1)">
     <use transform="translate(0 0.015625)" xlink:href="#DejaVuSans-46"/>
     <use transform="translate(57.519531 0.015625)" xlink:href="#DejaVuSans-69"/>
     <use transform="translate(85.302734 0.015625)" xlink:href="#DejaVuSans-74"/>
     <use transform="translate(124.511719 0.015625)" xlink:href="#DejaVuSans-3a"/>
     <use transform="translate(158.203125 0.015625)" xlink:href="#DejaVuSans-20"/>
     <use transform="translate(189.990234 0.015625)" xlink:href="#DejaVuSans-61"/>
     <use transform="translate(251.269531 0.015625)" xlink:href="#DejaVuSans-3d"/>
     <use transform="translate(335.058594 0.015625)" xlink:href="#DejaVuSans-33"/>
     <use transform="translate(398.681641 0.015625)" xlink:href="#DejaVuSans-2e"/>
     <use transform="translate(430.46875 0.015625)" xlink:href="#DejaVuSans-34"/>
     <use transform="translate(494.091797 0.015625)" xlink:href="#DejaVuSans-31"/>
     <use transform="translate(557.714844 0.015625)" xlink:href="#DejaVuSans-b1"/>
     <use transform="translate(641.503906 0.015625)" xlink:href="#DejaVuSans-30"/>
     <use transform="translate(705.126953 0.015625)" xlink:href="#DejaVuSans-2e"/>
     <use transform="translate(736.914062 0.015625)" xlink:href="#DejaVuSans-36"/>
     <use transform="translate(800.537109 0.015625)" xlink:href="#DejaVuSans-31"/>
     <use transform="translate(864.160156 0.015625)" xlink:href="#DejaVuSans-2c"/>
     <use transform="translate(895.947266 0.015625)" xlink:href="#DejaVuSans-20"/>
     <use transform="translate(927.734375 0.015625)" xlink:href="#DejaVuSans-62"/>
     <use transform="translate(991.210938 0.015625)" xlink:href="#DejaVuSans-3d"/>
     <use transform="translate(1075 0.015625)" xlink:href="#DejaVuSans-32"/>
     <use transform="translate(1138.623047 0.015625)" xlink:href="#DejaVuSans-2e"/>
     <use transform="translate(1170.410156 0.015625)" xlink:href="#DejaVuSans-35"/>
     <use transform="translate(1233.923828 0.015625)" xlink:href="#DejaVuSans-37"/>
     <use transform="translate(1297.546875 0.015625)" xlink:href="#DejaVuSans-b1"/>
     <use transform="translate(1381.335938 0.015625)" xlink:href="#DejaVuSans-30"/>
     <use transform="translate(1444.958984 0.015625)" xlink:href="#DejaVuSans-2e"/>
     <use transform="translate(1476.746094 0.015625)" xlink:href="#DejaVuSans-33"/>
     <use transform="translate(1540.369141 0.015625)" xlink:href="#DejaVuSans-36"/>
     <use transform="translate(1603.992188 0.015625)" xlink:href="#DejaVuSans-2c"/>
     <use transform="translate(1635.779297 0.015625)" xlink:href="#DejaVuSans-20"/>
     <use transform="translate(1667.566406 0.015625)" xlink:href="#DejaVuSans-78"/>
     <use transform="translate(1726.746094 0.015625)" xlink:href="#DejaVuSans-30"/>
     <use transform="translate(1790.369141 0.015625)" xlink:href="#DejaVuSans-3d"/>
     <use transform="translate(1874.158203 0.015625)" xlink:href="#DejaVuSans-34"/>
     <use transform="translate(1937.78125 0.015625)" xlink:href="#DejaVuSans-2e"/>
     <use transform="translate(1969.490234 0.015625)" xlink:href="#DejaVuSans-32"/>
     <use transform="translate(2033.113281 0.015625)" xlink:href="#DejaVuSans-37"/>
     <use transform="translate(2096.736328 0.015625)" xlink:href="#DejaVuSans-35"/>
     <use transform="translate(2160.359375 0.015625)" xlink:href="#DejaVuSans-b1"/>
     <use transform="translate(2244.148438 0.015625)" xlink:href="#DejaVuSans-30"/>
     <use transform="translate(2307.771484 0.015625)" xlink:href="#DejaVuSans-2e"/>
     <use transform="translate(2339.558594 0.015625)" xlink:href="#DejaVuSans-30"/>
     <use transform="translate(2403.181641 0.015625)" xlink:href="#DejaVuSans-31"/>
     <use transform="translate(2466.804688 0.015625)" xlink:href="#DejaVuSans-35"/>
     <use transform="translate(2530.427734 0.015625)" xlink:href="#DejaVuSans-2c"/>
     <use transform="translate(2562.214844 0.015625)" xlink:href="#DejaVuSans-20"/>
     <use transform="translate(2594.001953 0.015625)" xlink:href="#DejaVuSans-77"/>
     <use transform="translate(2675.789062 0.015625)" xlink:href="#DejaVuSans-3d"/>
     <use transform="translate(2759.578125 0.015625)" xlink:href="#DejaVuSans-30"/>
     <use transform="translate(2823.201172 0.015625)" xlink:href="#DejaVuSans-2e"/>
     <use transform="translate(2854.988281 0.015625)" xlink:href="#DejaVuSans-31"/>
     <use transform="translate(2918.611328 0.015625)" xlink:href="#DejaVuSans-32"/>
     <use transform="translate(2982.234375 0.015625)" xlink:href="#DejaVuSans-33"/>
     <use transform="translate(3045.857422 0.015625)" xlink:href="#DejaVuSans-b1"/>
     <use transform="translate(3129.646484 0.015625)" xlink:href="#DejaVuSans-30"/>
     <use transform="translate(3193.269531 0.015625)" xlink:href="#DejaVuSans-2e"/>
     <use transform="translate(3225.056641 0.015625)" xlink:href="#DejaVuSans-30"/>
     <use transform="translate(3288.679688 0.015625)" xlink:href="#DejaVuSans-32"/>
     <use transform="translate(3352.302734 0.015625)" xlink:href="#DejaVuSans-37"/>
     <use transform="translate(3415.925781 0.015625)" xlink:href="#DejaVuSans-2c"/>
    </g>
   </g>
  </g>
  <g id="axes_2">
   <g id="patch_7">
    <path d="M 69.12 311.04 
L 414.72 311.04 
L 414.72 103.68 
L 69.12 103.68 
z
" style="fill:#ffffff;"/>
   </g>
   <g id="matplotlib.axis_3">
    <g id="xtick_4">
     <g id="line2d_9">
      <g>
       <use style="stroke:#000000;stroke-width:0.8;" x="135.259199" xlink:href="#m4b9e8a8258" y="311.04"/>
      </g>
     </g>
     <g id="text_5">
      <!-- 4.0 -->
      <g transform="translate(123.331855 329.437656)scale(0.15 -0.15)">
       <use xlink:href="#DejaVuSans-34"/>
       <use x="63.623047" xlink:href="#DejaVuSans-2e"/>
       <use x="95.410156" xlink:href="#DejaVuSans-30"/>
      </g>
     </g>
    </g>
    <g id="xtick_5">
     <g id="line2d_10">
      <g>
       <use style="stroke:#000000;stroke-width:0.8;" x="228.811307" xlink:href="#m4b9e8a8258" y="311.04"/>
      </g>
     </g>
     <g id="text_6">
      <!-- 4.2 -->
      <g transform="translate(216.883963 329.437656)scale(0.15 -0.15)">
       <use xlink:href="#DejaVuSans-34"/>
       <use x="63.623047" xlink:href="#DejaVuSans-2e"/>
       <use x="95.410156" xlink:href="#DejaVuSans-32"/>
      </g>
     </g>
    </g>
    <g id="xtick_6">
     <g id="line2d_11">
      <g>
       <use style="stroke:#000000;stroke-width:0.8;" x="322.363414" xlink:href="#m4b9e8a8258" y="311.04"/>
      </g>
     </g>
     <g id="text_7">
      <!-- 4.4 -->
      <g transform="translate(310.43607 329.437656)scale(0.15 -0.15)">
       <use xlink:href="#DejaVuSans-34"/>
       <use x="63.623047" xlink:href="#DejaVuSans-2e"/>
       <use x="95.410156" xlink:href="#DejaVuSans-34"/>
      </g>
     </g>
    </g>
    <g id="text_8">
     <!-- Energy [MeV] -->
     <defs>
      <path d="M 9.8125 72.90625 
L 55.90625 72.90625 
L 55.90625 64.59375 
L 19.671875 64.59375 
L 19.671875 43.015625 
L 54.390625 43.015625 
L 54.390625 34.71875 
L 19.671875 34.71875 
L 19.671875 8.296875 
L 56.78125 8.296875 
L 56.78125 0 
L 9.8125 0 
z
" id="DejaVuSans-45"/>
      <path d="M 41.109375 46.296875 
Q 39.59375 47.171875 37.8125 47.578125 
Q 36.03125 48 33.890625 48 
Q 26.265625 48 22.1875 43.046875 
Q 18.109375 38.09375 18.109375 28.8125 
L 18.109375 0 
L 9.078125 0 
L 9.078125 54.6875 
L 18.109375 54.6875 
L 18.109375 46.1875 
Q 20.953125 51.171875 25.484375 53.578125 
Q 30.03125 56 36.53125 56 
Q 37.453125 56 38.578125 55.875 
Q 39.703125 55.765625 41.0625 55.515625 
z
" id="DejaVuSans-72"/>
      <path d="M 45.40625 27.984375 
Q 45.40625 37.75 41.375 43.109375 
Q 37.359375 48.484375 30.078125 48.484375 
Q 22.859375 48.484375 18.828125 43.109375 
Q 14.796875 37.75 14.796875 27.984375 
Q 14.796875 18.265625 18.828125 12.890625 
Q 22.859375 7.515625 30.078125 7.515625 
Q 37.359375 7.515625 41.375 12.890625 
Q 45.40625 18.265625 45.40625 27.984375 
z
M 54.390625 6.78125 
Q 54.390625 -7.171875 48.1875 -13.984375 
Q 42 -20.796875 29.203125 -20.796875 
Q 24.46875 -20.796875 20.265625 -20.09375 
Q 16.0625 -19.390625 12.109375 -17.921875 
L 12.109375 -9.1875 
Q 16.0625 -11.328125 19.921875 -12.34375 
Q 23.78125 -13.375 27.78125 -13.375 
Q 36.625 -13.375 41.015625 -8.765625 
Q 45.40625 -4.15625 45.40625 5.171875 
L 45.40625 9.625 
Q 42.625 4.78125 38.28125 2.390625 
Q 33.9375 0 27.875 0 
Q 17.828125 0 11.671875 7.65625 
Q 5.515625 15.328125 5.515625 27.984375 
Q 5.515625 40.671875 11.671875 48.328125 
Q 17.828125 56 27.875 56 
Q 33.9375 56 38.28125 53.609375 
Q 42.625 51.21875 45.40625 46.390625 
L 45.40625 54.6875 
L 54.390625 54.6875 
z
" id="DejaVuSans-67"/>
      <path d="M 8.59375 75.984375 
L 29.296875 75.984375 
L 29.296875 69 
L 17.578125 69 
L 17.578125 -6.203125 
L 29.296875 -6.203125 
L 29.296875 -13.1875 
L 8.59375 -13.1875 
z
" id="DejaVuSans-5b"/>
      <path d="M 9.8125 72.90625 
L 24.515625 72.90625 
L 43.109375 23.296875 
L 61.8125 72.90625 
L 76.515625 72.90625 
L 76.515625 0 
L 66.890625 0 
L 66.890625 64.015625 
L 48.09375 14.015625 
L 38.1875 14.015625 
L 19.390625 64.015625 
L 19.390625 0 
L 9.8125 0 
z
" id="DejaVuSans-4d"/>
      <path d="M 28.609375 0 
L 0.78125 72.90625 
L 11.078125 72.90625 
L 34.1875 11.53125 
L 57.328125 72.90625 
L 67.578125 72.90625 
L 39.796875 0 
z
" id="DejaVuSans-56"/>
      <path d="M 30.421875 75.984375 
L 30.421875 -13.1875 
L 9.71875 -13.1875 
L 9.71875 -6.203125 
L 21.390625 -6.203125 
L 21.390625 69 
L 9.71875 69 
L 9.71875 75.984375 
z
" id="DejaVuSans-5d"/>
     </defs>
     <g transform="translate(191.078203 347.954844)scale(0.15 -0.15)">
      <use xlink:href="#DejaVuSans-45"/>
      <use x="63.183594" xlink:href="#DejaVuSans-6e"/>
      <use x="126.5625" xlink:href="#DejaVuSans-65"/>
      <use x="188.085938" xlink:href="#DejaVuSans-72"/>
      <use x="229.183594" xlink:href="#DejaVuSans-67"/>
      <use x="292.660156" xlink:href="#DejaVuSans-79"/>
      <use x="351.839844" xlink:href="#DejaVuSans-20"/>
      <use x="383.626953" xlink:href="#DejaVuSans-5b"/>
      <use x="422.640625" xlink:href="#DejaVuSans-4d"/>
      <use x="508.919922" xlink:href="#DejaVuSans-65"/>
      <use x="570.443359" xlink:href="#DejaVuSans-56"/>
      <use x="638.851562" xlink:href="#DejaVuSans-5d"/>
     </g>
    </g>
   </g>
   <g id="matplotlib.axis_4">
    <g id="ytick_4">
     <g id="line2d_12">
      <g>
       <use style="stroke:#000000;stroke-width:0.8;" x="69.12" xlink:href="#maee80e738d" y="303.36"/>
      </g>
     </g>
     <g id="text_9">
      <!-- 2 -->
      <g transform="translate(52.57625 309.058828)scale(0.15 -0.15)">
       <use xlink:href="#DejaVuSans-32"/>
      </g>
     </g>
    </g>
    <g id="ytick_5">
     <g id="line2d_13">
      <g>
       <use style="stroke:#000000;stroke-width:0.8;" x="69.12" xlink:href="#maee80e738d" y="239.36"/>
      </g>
     </g>
     <g id="text_10">
      <!-- 4 -->
      <g transform="translate(52.57625 245.058828)scale(0.15 -0.15)">
       <use xlink:href="#DejaVuSans-34"/>
      </g>
     </g>
    </g>
    <g id="ytick_6">
     <g id="line2d_14">
      <g>
       <use style="stroke:#000000;stroke-width:0.8;" x="69.12" xlink:href="#maee80e738d" y="175.36"/>
      </g>
     </g>
     <g id="text_11">
      <!-- 6 -->
      <g transform="translate(52.57625 181.058828)scale(0.15 -0.15)">
       <use xlink:href="#DejaVuSans-36"/>
      </g>
     </g>
    </g>
    <g id="ytick_7">
     <g id="line2d_15">
      <g>
       <use style="stroke:#000000;stroke-width:0.8;" x="69.12" xlink:href="#maee80e738d" y="111.36"/>
      </g>
     </g>
     <g id="text_12">
      <!-- 8 -->
      <defs>
       <path d="M 31.78125 34.625 
Q 24.75 34.625 20.71875 30.859375 
Q 16.703125 27.09375 16.703125 20.515625 
Q 16.703125 13.921875 20.71875 10.15625 
Q 24.75 6.390625 31.78125 6.390625 
Q 38.8125 6.390625 42.859375 10.171875 
Q 46.921875 13.96875 46.921875 20.515625 
Q 46.921875 27.09375 42.890625 30.859375 
Q 38.875 34.625 31.78125 34.625 
z
M 21.921875 38.8125 
Q 15.578125 40.375 12.03125 44.71875 
Q 8.5 49.078125 8.5 55.328125 
Q 8.5 64.0625 14.71875 69.140625 
Q 20.953125 74.21875 31.78125 74.21875 
Q 42.671875 74.21875 48.875 69.140625 
Q 55.078125 64.0625 55.078125 55.328125 
Q 55.078125 49.078125 51.53125 44.71875 
Q 48 40.375 41.703125 38.8125 
Q 48.828125 37.15625 52.796875 32.3125 
Q 56.78125 27.484375 56.78125 20.515625 
Q 56.78125 9.90625 50.3125 4.234375 
Q 43.84375 -1.421875 31.78125 -1.421875 
Q 19.734375 -1.421875 13.25 4.234375 
Q 6.78125 9.90625 6.78125 20.515625 
Q 6.78125 27.484375 10.78125 32.3125 
Q 14.796875 37.15625 21.921875 38.8125 
z
M 18.3125 54.390625 
Q 18.3125 48.734375 21.84375 45.5625 
Q 25.390625 42.390625 31.78125 42.390625 
Q 38.140625 42.390625 41.71875 45.5625 
Q 45.3125 48.734375 45.3125 54.390625 
Q 45.3125 60.0625 41.71875 63.234375 
Q 38.140625 66.40625 31.78125 66.40625 
Q 25.390625 66.40625 21.84375 63.234375 
Q 18.3125 60.0625 18.3125 54.390625 
z
" id="DejaVuSans-38"/>
      </defs>
      <g transform="translate(52.57625 117.058828)scale(0.15 -0.15)">
       <use xlink:href="#DejaVuSans-38"/>
      </g>
     </g>
    </g>
    <g id="text_13">
     <!-- Counts -->
     <defs>
      <path d="M 64.40625 67.28125 
L 64.40625 56.890625 
Q 59.421875 61.53125 53.78125 63.8125 
Q 48.140625 66.109375 41.796875 66.109375 
Q 29.296875 66.109375 22.65625 58.46875 
Q 16.015625 50.828125 16.015625 36.375 
Q 16.015625 21.96875 22.65625 14.328125 
Q 29.296875 6.6875 41.796875 6.6875 
Q 48.140625 6.6875 53.78125 8.984375 
Q 59.421875 11.28125 64.40625 15.921875 
L 64.40625 5.609375 
Q 59.234375 2.09375 53.4375 0.328125 
Q 47.65625 -1.421875 41.21875 -1.421875 
Q 24.65625 -1.421875 15.125 8.703125 
Q 5.609375 18.84375 5.609375 36.375 
Q 5.609375 53.953125 15.125 64.078125 
Q 24.65625 74.21875 41.21875 74.21875 
Q 47.75 74.21875 53.53125 72.484375 
Q 59.328125 70.75 64.40625 67.28125 
z
" id="DejaVuSans-43"/>
     </defs>
     <g transform="translate(45.456719 233.539687)rotate(-90)scale(0.15 -0.15)">
      <use xlink:href="#DejaVuSans-43"/>
      <use x="69.824219" xlink:href="#DejaVuSans-6f"/>
      <use x="131.005859" xlink:href="#DejaVuSans-75"/>
      <use x="194.384766" xlink:href="#DejaVuSans-6e"/>
      <use x="257.763672" xlink:href="#DejaVuSans-74"/>
      <use x="296.972656" xlink:href="#DejaVuSans-73"/>
     </g>
    </g>
   </g>
   <g id="LineCollection_2">
    <path clip-path="url(#p43ea6dadae)" d="M 81.92 326.785626 
L 81.92 215.934374 
" style="fill:none;stroke:#0000ff;stroke-width:1.5;"/>
    <path clip-path="url(#p43ea6dadae)" d="M 98.615652 326.785626 
L 98.615652 215.934374 
" style="fill:none;stroke:#0000ff;stroke-width:1.5;"/>
    <path clip-path="url(#p43ea6dadae)" d="M 101.398261 337.956443 
L 101.398261 236.763557 
" style="fill:none;stroke:#0000ff;stroke-width:1.5;"/>
    <path clip-path="url(#p43ea6dadae)" d="M 104.18087 326.785626 
L 104.18087 215.934374 
" style="fill:none;stroke:#0000ff;stroke-width:1.5;"/>
    <path clip-path="url(#p43ea6dadae)" d="M 118.093913 337.956443 
L 118.093913 236.763557 
" style="fill:none;stroke:#0000ff;stroke-width:1.5;"/>
    <path clip-path="url(#p43ea6dadae)" d="M 120.876522 326.785626 
L 120.876522 215.934374 
" style="fill:none;stroke:#0000ff;stroke-width:1.5;"/>
    <path clip-path="url(#p43ea6dadae)" d="M 123.65913 346.6 
L 123.65913 258.105166 
" style="fill:none;stroke:#0000ff;stroke-width:1.5;"/>
    <path clip-path="url(#p43ea6dadae)" d="M 126.441739 315.226518 
L 126.441739 195.493482 
" style="fill:none;stroke:#0000ff;stroke-width:1.5;"/>
    <path clip-path="url(#p43ea6dadae)" d="M 129.224348 346.6 
L 129.224348 258.105166 
" style="fill:none;stroke:#0000ff;stroke-width:1.5;"/>
    <path clip-path="url(#p43ea6dadae)" d="M 132.006957 337.956443 
L 132.006957 236.763557 
" style="fill:none;stroke:#0000ff;stroke-width:1.5;"/>
    <path clip-path="url(#p43ea6dadae)" d="M 134.789565 326.785626 
L 134.789565 215.934374 
" style="fill:none;stroke:#0000ff;stroke-width:1.5;"/>
    <path clip-path="url(#p43ea6dadae)" d="M 143.137391 337.956443 
L 143.137391 236.763557 
" style="fill:none;stroke:#0000ff;stroke-width:1.5;"/>
    <path clip-path="url(#p43ea6dadae)" d="M 148.702609 303.36 
L 148.702609 175.36 
" style="fill:none;stroke:#0000ff;stroke-width:1.5;"/>
    <path clip-path="url(#p43ea6dadae)" d="M 151.485217 346.6 
L 151.485217 258.105166 
" style="fill:none;stroke:#0000ff;stroke-width:1.5;"/>
    <path clip-path="url(#p43ea6dadae)" d="M 154.267826 303.36 
L 154.267826 175.36 
" style="fill:none;stroke:#0000ff;stroke-width:1.5;"/>
    <path clip-path="url(#p43ea6dadae)" d="M 159.833043 315.226518 
L 159.833043 195.493482 
" style="fill:none;stroke:#0000ff;stroke-width:1.5;"/>
    <path clip-path="url(#p43ea6dadae)" d="M 162.615652 315.226518 
L 162.615652 195.493482 
" style="fill:none;stroke:#0000ff;stroke-width:1.5;"/>
    <path clip-path="url(#p43ea6dadae)" d="M 165.398261 326.785626 
L 165.398261 215.934374 
" style="fill:none;stroke:#0000ff;stroke-width:1.5;"/>
    <path clip-path="url(#p43ea6dadae)" d="M 168.18087 337.956443 
L 168.18087 236.763557 
" style="fill:none;stroke:#0000ff;stroke-width:1.5;"/>
    <path clip-path="url(#p43ea6dadae)" d="M 170.963478 315.226518 
L 170.963478 195.493482 
" style="fill:none;stroke:#0000ff;stroke-width:1.5;"/>
    <path clip-path="url(#p43ea6dadae)" d="M 173.746087 346.6 
L 173.746087 258.105166 
" style="fill:none;stroke:#0000ff;stroke-width:1.5;"/>
    <path clip-path="url(#p43ea6dadae)" d="M 176.528696 315.226518 
L 176.528696 195.493482 
" style="fill:none;stroke:#0000ff;stroke-width:1.5;"/>
    <path clip-path="url(#p43ea6dadae)" d="M 179.311304 346.6 
L 179.311304 258.105166 
" style="fill:none;stroke:#0000ff;stroke-width:1.5;"/>
    <path clip-path="url(#p43ea6dadae)" d="M 182.093913 266.406652 
L 182.093913 116.313348 
" style="fill:none;stroke:#0000ff;stroke-width:1.5;"/>
    <path clip-path="url(#p43ea6dadae)" d="M 184.876522 326.785626 
L 184.876522 215.934374 
" style="fill:none;stroke:#0000ff;stroke-width:1.5;"/>
    <path clip-path="url(#p43ea6dadae)" d="M 187.65913 337.956443 
L 187.65913 236.763557 
" style="fill:none;stroke:#0000ff;stroke-width:1.5;"/>
    <path clip-path="url(#p43ea6dadae)" d="M 190.441739 266.406652 
L 190.441739 116.313348 
" style="fill:none;stroke:#0000ff;stroke-width:1.5;"/>
    <path clip-path="url(#p43ea6dadae)" d="M 193.224348 337.956443 
L 193.224348 236.763557 
" style="fill:none;stroke:#0000ff;stroke-width:1.5;"/>
    <path clip-path="url(#p43ea6dadae)" d="M 196.006957 303.36 
L 196.006957 175.36 
" style="fill:none;stroke:#0000ff;stroke-width:1.5;"/>
    <path clip-path="url(#p43ea6dadae)" d="M 198.789565 303.36 
L 198.789565 175.36 
" style="fill:none;stroke:#0000ff;stroke-width:1.5;"/>
    <path clip-path="url(#p43ea6dadae)" d="M 201.572174 326.785626 
L 201.572174 215.934374 
" style="fill:none;stroke:#0000ff;stroke-width:1.5;"/>
    <path clip-path="url(#p43ea6dadae)" d="M 204.354783 326.785626 
L 204.354783 215.934374 
" style="fill:none;stroke:#0000ff;stroke-width:1.5;"/>
    <path clip-path="url(#p43ea6dadae)" d="M 207.137391 291.242251 
L 207.137391 155.477749 
" style="fill:none;stroke:#0000ff;stroke-width:1.5;"/>
    <path clip-path="url(#p43ea6dadae)" d="M 209.92 266.406652 
L 209.92 116.313348 
" style="fill:none;stroke:#0000ff;stroke-width:1.5;"/>
    <path clip-path="url(#p43ea6dadae)" d="M 212.702609 326.785626 
L 212.702609 215.934374 
" style="fill:none;stroke:#0000ff;stroke-width:1.5;"/>
    <path clip-path="url(#p43ea6dadae)" d="M 215.485217 228.024042 
L 215.485217 58.695958 
" style="fill:none;stroke:#0000ff;stroke-width:1.5;"/>
    <path clip-path="url(#p43ea6dadae)" d="M 218.267826 303.36 
L 218.267826 175.36 
" style="fill:none;stroke:#0000ff;stroke-width:1.5;"/>
    <path clip-path="url(#p43ea6dadae)" d="M 221.050435 315.226518 
L 221.050435 195.493482 
" style="fill:none;stroke:#0000ff;stroke-width:1.5;"/>
    <path clip-path="url(#p43ea6dadae)" d="M 223.833043 303.36 
L 223.833043 175.36 
" style="fill:none;stroke:#0000ff;stroke-width:1.5;"/>
    <path clip-path="url(#p43ea6dadae)" d="M 226.615652 228.024042 
L 226.615652 58.695958 
" style="fill:none;stroke:#0000ff;stroke-width:1.5;"/>
    <path clip-path="url(#p43ea6dadae)" d="M 229.398261 303.36 
L 229.398261 175.36 
" style="fill:none;stroke:#0000ff;stroke-width:1.5;"/>
    <path clip-path="url(#p43ea6dadae)" d="M 232.18087 278.914175 
L 232.18087 135.805825 
" style="fill:none;stroke:#0000ff;stroke-width:1.5;"/>
    <path clip-path="url(#p43ea6dadae)" d="M 234.963478 291.242251 
L 234.963478 155.477749 
" style="fill:none;stroke:#0000ff;stroke-width:1.5;"/>
    <path clip-path="url(#p43ea6dadae)" d="M 237.746087 253.743672 
L 237.746087 96.976328 
" style="fill:none;stroke:#0000ff;stroke-width:1.5;"/>
    <path clip-path="url(#p43ea6dadae)" d="M 240.528696 228.024042 
L 240.528696 58.695958 
" style="fill:none;stroke:#0000ff;stroke-width:1.5;"/>
    <path clip-path="url(#p43ea6dadae)" d="M 243.311304 228.024042 
L 243.311304 58.695958 
" style="fill:none;stroke:#0000ff;stroke-width:1.5;"/>
    <path clip-path="url(#p43ea6dadae)" d="M 246.093913 240.944312 
L 246.093913 77.775688 
" style="fill:none;stroke:#0000ff;stroke-width:1.5;"/>
    <path clip-path="url(#p43ea6dadae)" d="M 248.876522 266.406652 
L 248.876522 116.313348 
" style="fill:none;stroke:#0000ff;stroke-width:1.5;"/>
    <path clip-path="url(#p43ea6dadae)" d="M 251.65913 266.406652 
L 251.65913 116.313348 
" style="fill:none;stroke:#0000ff;stroke-width:1.5;"/>
    <path clip-path="url(#p43ea6dadae)" d="M 254.441739 201.869668 
L 254.441739 20.850332 
" style="fill:none;stroke:#0000ff;stroke-width:1.5;"/>
    <path clip-path="url(#p43ea6dadae)" d="M 257.224348 228.024042 
L 257.224348 58.695958 
" style="fill:none;stroke:#0000ff;stroke-width:1.5;"/>
    <path clip-path="url(#p43ea6dadae)" d="M 260.006957 266.406652 
L 260.006957 116.313348 
" style="fill:none;stroke:#0000ff;stroke-width:1.5;"/>
    <path clip-path="url(#p43ea6dadae)" d="M 262.789565 326.785626 
L 262.789565 215.934374 
" style="fill:none;stroke:#0000ff;stroke-width:1.5;"/>
    <path clip-path="url(#p43ea6dadae)" d="M 265.572174 201.869668 
L 265.572174 20.850332 
" style="fill:none;stroke:#0000ff;stroke-width:1.5;"/>
    <path clip-path="url(#p43ea6dadae)" d="M 268.354783 240.944312 
L 268.354783 77.775688 
" style="fill:none;stroke:#0000ff;stroke-width:1.5;"/>
    <path clip-path="url(#p43ea6dadae)" d="M 271.137391 240.944312 
L 271.137391 77.775688 
" style="fill:none;stroke:#0000ff;stroke-width:1.5;"/>
    <path clip-path="url(#p43ea6dadae)" d="M 273.92 240.944312 
L 273.92 77.775688 
" style="fill:none;stroke:#0000ff;stroke-width:1.5;"/>
    <path clip-path="url(#p43ea6dadae)" d="M 276.702609 214.995609 
L 276.702609 39.724391 
" style="fill:none;stroke:#0000ff;stroke-width:1.5;"/>
    <path clip-path="url(#p43ea6dadae)" d="M 279.485217 266.406652 
L 279.485217 116.313348 
" style="fill:none;stroke:#0000ff;stroke-width:1.5;"/>
    <path clip-path="url(#p43ea6dadae)" d="M 282.267826 228.024042 
L 282.267826 58.695958 
" style="fill:none;stroke:#0000ff;stroke-width:1.5;"/>
    <path clip-path="url(#p43ea6dadae)" d="M 285.050435 303.36 
L 285.050435 175.36 
" style="fill:none;stroke:#0000ff;stroke-width:1.5;"/>
    <path clip-path="url(#p43ea6dadae)" d="M 287.833043 291.242251 
L 287.833043 155.477749 
" style="fill:none;stroke:#0000ff;stroke-width:1.5;"/>
    <path clip-path="url(#p43ea6dadae)" d="M 290.615652 278.914175 
L 290.615652 135.805825 
" style="fill:none;stroke:#0000ff;stroke-width:1.5;"/>
    <path clip-path="url(#p43ea6dadae)" d="M 293.398261 240.944312 
L 293.398261 77.775688 
" style="fill:none;stroke:#0000ff;stroke-width:1.5;"/>
    <path clip-path="url(#p43ea6dadae)" d="M 296.18087 315.226518 
L 296.18087 195.493482 
" style="fill:none;stroke:#0000ff;stroke-width:1.5;"/>
    <path clip-path="url(#p43ea6dadae)" d="M 298.963478 214.995609 
L 298.963478 39.724391 
" style="fill:none;stroke:#0000ff;stroke-width:1.5;"/>
    <path clip-path="url(#p43ea6dadae)" d="M 301.746087 291.242251 
L 301.746087 155.477749 
" style="fill:none;stroke:#0000ff;stroke-width:1.5;"/>
    <path clip-path="url(#p43ea6dadae)" d="M 304.528696 240.944312 
L 304.528696 77.775688 
" style="fill:none;stroke:#0000ff;stroke-width:1.5;"/>
    <path clip-path="url(#p43ea6dadae)" d="M 307.311304 278.914175 
L 307.311304 135.805825 
" style="fill:none;stroke:#0000ff;stroke-width:1.5;"/>
    <path clip-path="url(#p43ea6dadae)" d="M 310.093913 278.914175 
L 310.093913 135.805825 
" style="fill:none;stroke:#0000ff;stroke-width:1.5;"/>
    <path clip-path="url(#p43ea6dadae)" d="M 312.876522 315.226518 
L 312.876522 195.493482 
" style="fill:none;stroke:#0000ff;stroke-width:1.5;"/>
    <path clip-path="url(#p43ea6dadae)" d="M 315.65913 326.785626 
L 315.65913 215.934374 
" style="fill:none;stroke:#0000ff;stroke-width:1.5;"/>
    <path clip-path="url(#p43ea6dadae)" d="M 318.441739 266.406652 
L 318.441739 116.313348 
" style="fill:none;stroke:#0000ff;stroke-width:1.5;"/>
    <path clip-path="url(#p43ea6dadae)" d="M 321.224348 326.785626 
L 321.224348 215.934374 
" style="fill:none;stroke:#0000ff;stroke-width:1.5;"/>
    <path clip-path="url(#p43ea6dadae)" d="M 324.006957 266.406652 
L 324.006957 116.313348 
" style="fill:none;stroke:#0000ff;stroke-width:1.5;"/>
    <path clip-path="url(#p43ea6dadae)" d="M 326.789565 278.914175 
L 326.789565 135.805825 
" style="fill:none;stroke:#0000ff;stroke-width:1.5;"/>
    <path clip-path="url(#p43ea6dadae)" d="M 329.572174 303.36 
L 329.572174 175.36 
" style="fill:none;stroke:#0000ff;stroke-width:1.5;"/>
    <path clip-path="url(#p43ea6dadae)" d="M 332.354783 337.956443 
L 332.354783 236.763557 
" style="fill:none;stroke:#0000ff;stroke-width:1.5;"/>
    <path clip-path="url(#p43ea6dadae)" d="M 335.137391 303.36 
L 335.137391 175.36 
" style="fill:none;stroke:#0000ff;stroke-width:1.5;"/>
    <path clip-path="url(#p43ea6dadae)" d="M 337.92 326.785626 
L 337.92 215.934374 
" style="fill:none;stroke:#0000ff;stroke-width:1.5;"/>
    <path clip-path="url(#p43ea6dadae)" d="M 340.702609 346.6 
L 340.702609 258.105166 
" style="fill:none;stroke:#0000ff;stroke-width:1.5;"/>
    <path clip-path="url(#p43ea6dadae)" d="M 343.485217 315.226518 
L 343.485217 195.493482 
" style="fill:none;stroke:#0000ff;stroke-width:1.5;"/>
    <path clip-path="url(#p43ea6dadae)" d="M 346.267826 326.785626 
L 346.267826 215.934374 
" style="fill:none;stroke:#0000ff;stroke-width:1.5;"/>
    <path clip-path="url(#p43ea6dadae)" d="M 349.050435 337.956443 
L 349.050435 236.763557 
" style="fill:none;stroke:#0000ff;stroke-width:1.5;"/>
    <path clip-path="url(#p43ea6dadae)" d="M 351.833043 326.785626 
L 351.833043 215.934374 
" style="fill:none;stroke:#0000ff;stroke-width:1.5;"/>
    <path clip-path="url(#p43ea6dadae)" d="M 354.615652 278.914175 
L 354.615652 135.805825 
" style="fill:none;stroke:#0000ff;stroke-width:1.5;"/>
    <path clip-path="url(#p43ea6dadae)" d="M 357.398261 291.242251 
L 357.398261 155.477749 
" style="fill:none;stroke:#0000ff;stroke-width:1.5;"/>
    <path clip-path="url(#p43ea6dadae)" d="M 360.18087 337.956443 
L 360.18087 236.763557 
" style="fill:none;stroke:#0000ff;stroke-width:1.5;"/>
    <path clip-path="url(#p43ea6dadae)" d="M 368.528696 337.956443 
L 368.528696 236.763557 
" style="fill:none;stroke:#0000ff;stroke-width:1.5;"/>
    <path clip-path="url(#p43ea6dadae)" d="M 371.311304 337.956443 
L 371.311304 236.763557 
" style="fill:none;stroke:#0000ff;stroke-width:1.5;"/>
    <path clip-path="url(#p43ea6dadae)" d="M 379.65913 346.6 
L 379.65913 258.105166 
" style="fill:none;stroke:#0000ff;stroke-width:1.5;"/>
    <path clip-path="url(#p43ea6dadae)" d="M 385.224348 337.956443 
L 385.224348 236.763557 
" style="fill:none;stroke:#0000ff;stroke-width:1.5;"/>
    <path clip-path="url(#p43ea6dadae)" d="M 390.789565 346.6 
L 390.789565 258.105166 
" style="fill:none;stroke:#0000ff;stroke-width:1.5;"/>
    <path clip-path="url(#p43ea6dadae)" d="M 401.92 346.6 
L 401.92 258.105166 
" style="fill:none;stroke:#0000ff;stroke-width:1.5;"/>
   </g>
   <g id="line2d_16">
    <path clip-path="url(#p43ea6dadae)" d="M 81.92 285.217914 
L 114.912993 285.0885 
L 127.405485 284.82846 
L 136.054134 284.436364 
L 142.780861 283.918885 
L 148.546627 283.254868 
L 153.351431 282.491862 
L 157.835916 281.561288 
L 162.00008 280.467396 
L 165.843924 279.225679 
L 169.367447 277.86249 
L 172.890971 276.256944 
L 176.094174 274.564938 
L 179.297377 272.631916 
L 182.500581 270.440222 
L 185.703784 267.974274 
L 188.906987 265.221341 
L 192.11019 262.17236 
L 195.313393 258.822754 
L 198.836917 254.792005 
L 202.36044 250.407955 
L 206.204284 245.245422 
L 210.368448 239.250772 
L 215.173253 231.907124 
L 221.57966 221.653467 
L 231.82991 205.225018 
L 235.994074 198.972684 
L 239.517598 194.051125 
L 242.720801 189.955783 
L 245.603684 186.636807 
L 248.166246 184.017154 
L 250.408488 182.004373 
L 252.650731 180.270824 
L 254.892973 178.831802 
L 256.814895 177.842566 
L 258.736817 177.085714 
L 260.658739 176.566269 
L 262.580661 176.287694 
L 264.502583 176.25185 
L 266.424505 176.458975 
L 268.346426 176.907686 
L 270.268348 177.59499 
L 272.19027 178.516319 
L 274.112192 179.665579 
L 276.354434 181.284311 
L 278.596677 183.188607 
L 281.159239 185.693125 
L 283.721802 188.520565 
L 286.604685 192.048423 
L 289.807888 196.342467 
L 293.331411 201.4397 
L 297.815896 208.345026 
L 304.862943 219.693054 
L 313.191271 233.023307 
L 317.996076 240.306479 
L 322.16024 246.233621 
L 326.004084 251.324839 
L 329.527608 255.638468 
L 333.051131 259.59611 
L 336.254334 262.878513 
L 339.457538 265.860882 
L 342.660741 268.548865 
L 345.863944 270.952414 
L 349.067147 273.084966 
L 352.27035 274.962632 
L 355.793874 276.755215 
L 359.317397 278.286832 
L 362.840921 279.583867 
L 366.684765 280.762154 
L 370.848929 281.797174 
L 375.333413 282.674953 
L 380.138218 283.392314 
L 385.583664 283.985468 
L 391.99007 284.459976 
L 399.998078 284.820377 
L 401.92 284.879624 
L 401.92 284.879624 
" style="fill:none;stroke:#ff0000;stroke-linecap:square;stroke-width:1.5;"/>
   </g>
   <g id="line2d_17">
    <g clip-path="url(#p43ea6dadae)">
     <use style="fill:#0000ff;stroke:#0000ff;" x="81.92" xlink:href="#mbeee878404" y="271.36"/>
     <use style="fill:#0000ff;stroke:#0000ff;" x="98.615652" xlink:href="#mbeee878404" y="271.36"/>
     <use style="fill:#0000ff;stroke:#0000ff;" x="101.398261" xlink:href="#mbeee878404" y="287.36"/>
     <use style="fill:#0000ff;stroke:#0000ff;" x="104.18087" xlink:href="#mbeee878404" y="271.36"/>
     <use style="fill:#0000ff;stroke:#0000ff;" x="118.093913" xlink:href="#mbeee878404" y="287.36"/>
     <use style="fill:#0000ff;stroke:#0000ff;" x="120.876522" xlink:href="#mbeee878404" y="271.36"/>
     <use style="fill:#0000ff;stroke:#0000ff;" x="123.65913" xlink:href="#mbeee878404" y="303.36"/>
     <use style="fill:#0000ff;stroke:#0000ff;" x="126.441739" xlink:href="#mbeee878404" y="255.36"/>
     <use style="fill:#0000ff;stroke:#0000ff;" x="129.224348" xlink:href="#mbeee878404" y="303.36"/>
     <use style="fill:#0000ff;stroke:#0000ff;" x="132.006957" xlink:href="#mbeee878404" y="287.36"/>
     <use style="fill:#0000ff;stroke:#0000ff;" x="134.789565" xlink:href="#mbeee878404" y="271.36"/>
     <use style="fill:#0000ff;stroke:#0000ff;" x="143.137391" xlink:href="#mbeee878404" y="287.36"/>
     <use style="fill:#0000ff;stroke:#0000ff;" x="148.702609" xlink:href="#mbeee878404" y="239.36"/>
     <use style="fill:#0000ff;stroke:#0000ff;" x="151.485217" xlink:href="#mbeee878404" y="303.36"/>
     <use style="fill:#0000ff;stroke:#0000ff;" x="154.267826" xlink:href="#mbeee878404" y="239.36"/>
     <use style="fill:#0000ff;stroke:#0000ff;" x="159.833043" xlink:href="#mbeee878404" y="255.36"/>
     <use style="fill:#0000ff;stroke:#0000ff;" x="162.615652" xlink:href="#mbeee878404" y="255.36"/>
     <use style="fill:#0000ff;stroke:#0000ff;" x="165.398261" xlink:href="#mbeee878404" y="271.36"/>
     <use style="fill:#0000ff;stroke:#0000ff;" x="168.18087" xlink:href="#mbeee878404" y="287.36"/>
     <use style="fill:#0000ff;stroke:#0000ff;" x="170.963478" xlink:href="#mbeee878404" y="255.36"/>
     <use style="fill:#0000ff;stroke:#0000ff;" x="173.746087" xlink:href="#mbeee878404" y="303.36"/>
     <use style="fill:#0000ff;stroke:#0000ff;" x="176.528696" xlink:href="#mbeee878404" y="255.36"/>
     <use style="fill:#0000ff;stroke:#0000ff;" x="179.311304" xlink:href="#mbeee878404" y="303.36"/>
     <use style="fill:#0000ff;stroke:#0000ff;" x="182.093913" xlink:href="#mbeee878404" y="191.36"/>
     <use style="fill:#0000ff;stroke:#0000ff;" x="184.876522" xlink:href="#mbeee878404" y="271.36"/>
     <use style="fill:#0000ff;stroke:#0000ff;" x="187.65913" xlink:href="#mbeee878404" y="287.36"/>
     <use style="fill:#0000ff;stroke:#0000ff;" x="190.441739" xlink:href="#mbeee878404" y="191.36"/>
     <use style="fill:#0000ff;stroke:#0000ff;" x="193.224348" xlink:href="#mbeee878404" y="287.36"/>
     <use style="fill:#0000ff;stroke:#0000ff;" x="196.006957" xlink:href="#mbeee878404" y="239.36"/>
     <use style="fill:#0000ff;stroke:#0000ff;" x="198.789565" xlink:href="#mbeee878404" y="239.36"/>
     <use style="fill:#0000ff;stroke:#0000ff;" x="201.572174" xlink:href="#mbeee878404" y="271.36"/>
     <use style="fill:#0000ff;stroke:#0000ff;" x="204.354783" xlink:href="#mbeee878404" y="271.36"/>
     <use style="fill:#0000ff;stroke:#0000ff;" x="207.137391" xlink:href="#mbeee878404" y="223.36"/>
     <use style="fill:#0000ff;stroke:#0000ff;" x="209.92" xlink:href="#mbeee878404" y="191.36"/>
     <use style="fill:#0000ff;stroke:#0000ff;" x="212.702609" xlink:href="#mbeee878404" y="271.36"/>
     <use style="fill:#0000ff;stroke:#0000ff;" x="215.485217" xlink:href="#mbeee878404" y="143.36"/>
     <use style="fill:#0000ff;stroke:#0000ff;" x="218.267826" xlink:href="#mbeee878404" y="239.36"/>
     <use style="fill:#0000ff;stroke:#0000ff;" x="221.050435" xlink:href="#mbeee878404" y="255.36"/>
     <use style="fill:#0000ff;stroke:#0000ff;" x="223.833043" xlink:href="#mbeee878404" y="239.36"/>
     <use style="fill:#0000ff;stroke:#0000ff;" x="226.615652" xlink:href="#mbeee878404" y="143.36"/>
     <use style="fill:#0000ff;stroke:#0000ff;" x="229.398261" xlink:href="#mbeee878404" y="239.36"/>
     <use style="fill:#0000ff;stroke:#0000ff;" x="232.18087" xlink:href="#mbeee878404" y="207.36"/>
     <use style="fill:#0000ff;stroke:#0000ff;" x="234.963478" xlink:href="#mbeee878404" y="223.36"/>
     <use style="fill:#0000ff;stroke:#0000ff;" x="237.746087" xlink:href="#mbeee878404" y="175.36"/>
     <use style="fill:#0000ff;stroke:#0000ff;" x="240.528696" xlink:href="#mbeee878404" y="143.36"/>
     <use style="fill:#0000ff;stroke:#0000ff;" x="243.311304" xlink:href="#mbeee878404" y="143.36"/>
     <use style="fill:#0000ff;stroke:#0000ff;" x="246.093913" xlink:href="#mbeee878404" y="159.36"/>
     <use style="fill:#0000ff;stroke:#0000ff;" x="248.876522" xlink:href="#mbeee878404" y="191.36"/>
     <use style="fill:#0000ff;stroke:#0000ff;" x="251.65913" xlink:href="#mbeee878404" y="191.36"/>
     <use style="fill:#0000ff;stroke:#0000ff;" x="254.441739" xlink:href="#mbeee878404" y="111.36"/>
     <use style="fill:#0000ff;stroke:#0000ff;" x="257.224348" xlink:href="#mbeee878404" y="143.36"/>
     <use style="fill:#0000ff;stroke:#0000ff;" x="260.006957" xlink:href="#mbeee878404" y="191.36"/>
     <use style="fill:#0000ff;stroke:#0000ff;" x="262.789565" xlink:href="#mbeee878404" y="271.36"/>
     <use style="fill:#0000ff;stroke:#0000ff;" x="265.572174" xlink:href="#mbeee878404" y="111.36"/>
     <use style="fill:#0000ff;stroke:#0000ff;" x="268.354783" xlink:href="#mbeee878404" y="159.36"/>
     <use style="fill:#0000ff;stroke:#0000ff;" x="271.137391" xlink:href="#mbeee878404" y="159.36"/>
     <use style="fill:#0000ff;stroke:#0000ff;" x="273.92" xlink:href="#mbeee878404" y="159.36"/>
     <use style="fill:#0000ff;stroke:#0000ff;" x="276.702609" xlink:href="#mbeee878404" y="127.36"/>
     <use style="fill:#0000ff;stroke:#0000ff;" x="279.485217" xlink:href="#mbeee878404" y="191.36"/>
     <use style="fill:#0000ff;stroke:#0000ff;" x="282.267826" xlink:href="#mbeee878404" y="143.36"/>
     <use style="fill:#0000ff;stroke:#0000ff;" x="285.050435" xlink:href="#mbeee878404" y="239.36"/>
     <use style="fill:#0000ff;stroke:#0000ff;" x="287.833043" xlink:href="#mbeee878404" y="223.36"/>
     <use style="fill:#0000ff;stroke:#0000ff;" x="290.615652" xlink:href="#mbeee878404" y="207.36"/>
     <use style="fill:#0000ff;stroke:#0000ff;" x="293.398261" xlink:href="#mbeee878404" y="159.36"/>
     <use style="fill:#0000ff;stroke:#0000ff;" x="296.18087" xlink:href="#mbeee878404" y="255.36"/>
     <use style="fill:#0000ff;stroke:#0000ff;" x="298.963478" xlink:href="#mbeee878404" y="127.36"/>
     <use style="fill:#0000ff;stroke:#0000ff;" x="301.746087" xlink:href="#mbeee878404" y="223.36"/>
     <use style="fill:#0000ff;stroke:#0000ff;" x="304.528696" xlink:href="#mbeee878404" y="159.36"/>
     <use style="fill:#0000ff;stroke:#0000ff;" x="307.311304" xlink:href="#mbeee878404" y="207.36"/>
     <use style="fill:#0000ff;stroke:#0000ff;" x="310.093913" xlink:href="#mbeee878404" y="207.36"/>
     <use style="fill:#0000ff;stroke:#0000ff;" x="312.876522" xlink:href="#mbeee878404" y="255.36"/>
     <use style="fill:#0000ff;stroke:#0000ff;" x="315.65913" xlink:href="#mbeee878404" y="271.36"/>
     <use style="fill:#0000ff;stroke:#0000ff;" x="318.441739" xlink:href="#mbeee878404" y="191.36"/>
     <use style="fill:#0000ff;stroke:#0000ff;" x="321.224348" xlink:href="#mbeee878404" y="271.36"/>
     <use style="fill:#0000ff;stroke:#0000ff;" x="324.006957" xlink:href="#mbeee878404" y="191.36"/>
     <use style="fill:#0000ff;stroke:#0000ff;" x="326.789565" xlink:href="#mbeee878404" y="207.36"/>
     <use style="fill:#0000ff;stroke:#0000ff;" x="329.572174" xlink:href="#mbeee878404" y="239.36"/>
     <use style="fill:#0000ff;stroke:#0000ff;" x="332.354783" xlink:href="#mbeee878404" y="287.36"/>
     <use style="fill:#0000ff;stroke:#0000ff;" x="335.137391" xlink:href="#mbeee878404" y="239.36"/>
     <use style="fill:#0000ff;stroke:#0000ff;" x="337.92" xlink:href="#mbeee878404" y="271.36"/>
     <use style="fill:#0000ff;stroke:#0000ff;" x="340.702609" xlink:href="#mbeee878404" y="303.36"/>
     <use style="fill:#0000ff;stroke:#0000ff;" x="343.485217" xlink:href="#mbeee878404" y="255.36"/>
     <use style="fill:#0000ff;stroke:#0000ff;" x="346.267826" xlink:href="#mbeee878404" y="271.36"/>
     <use style="fill:#0000ff;stroke:#0000ff;" x="349.050435" xlink:href="#mbeee878404" y="287.36"/>
     <use style="fill:#0000ff;stroke:#0000ff;" x="351.833043" xlink:href="#mbeee878404" y="271.36"/>
     <use style="fill:#0000ff;stroke:#0000ff;" x="354.615652" xlink:href="#mbeee878404" y="207.36"/>
     <use style="fill:#0000ff;stroke:#0000ff;" x="357.398261" xlink:href="#mbeee878404" y="223.36"/>
     <use style="fill:#0000ff;stroke:#0000ff;" x="360.18087" xlink:href="#mbeee878404" y="287.36"/>
     <use style="fill:#0000ff;stroke:#0000ff;" x="368.528696" xlink:href="#mbeee878404" y="287.36"/>
     <use style="fill:#0000ff;stroke:#0000ff;" x="371.311304" xlink:href="#mbeee878404" y="287.36"/>
     <use style="fill:#0000ff;stroke:#0000ff;" x="379.65913" xlink:href="#mbeee878404" y="303.36"/>
     <use style="fill:#0000ff;stroke:#0000ff;" x="385.224348" xlink:href="#mbeee878404" y="287.36"/>
     <use style="fill:#0000ff;stroke:#0000ff;" x="390.789565" xlink:href="#mbeee878404" y="303.36"/>
     <use style="fill:#0000ff;stroke:#0000ff;" x="401.92" xlink:href="#mbeee878404" y="303.36"/>
    </g>
   </g>
   <g id="patch_8">
    <path d="M 69.12 311.04 
L 69.12 103.68 
" style="fill:none;stroke:#000000;stroke-linecap:square;stroke-linejoin:miter;stroke-width:0.8;"/>
   </g>
   <g id="patch_9">
    <path d="M 414.72 311.04 
L 414.72 103.68 
" style="fill:none;stroke:#000000;stroke-linecap:square;stroke-linejoin:miter;stroke-width:0.8;"/>
   </g>
   <g id="patch_10">
    <path d="M 69.12 311.04 
L 414.72 311.04 
" style="fill:none;stroke:#000000;stroke-linecap:square;stroke-linejoin:miter;stroke-width:0.8;"/>
   </g>
   <g id="patch_11">
    <path d="M 69.12 103.68 
L 414.72 103.68 
" style="fill:none;stroke:#000000;stroke-linecap:square;stroke-linejoin:miter;stroke-width:0.8;"/>
   </g>
  </g>
 </g>
 <defs>
  <clipPath id="p331cf7d1af">
   <rect height="51.84" width="345.6" x="69.12" y="44.928"/>
  </clipPath>
  <clipPath id="p43ea6dadae">
   <rect height="207.36" width="345.6" x="69.12" y="103.68"/>
  </clipPath>
 </defs>
</svg>
