<?xml version="1.0" encoding="utf-8" standalone="no"?>
<!DOCTYPE svg PUBLIC "-//W3C//DTD SVG 1.1//EN"
  "http://www.w3.org/Graphics/SVG/1.1/DTD/svg11.dtd">
<!-- Created with matplotlib (http://matplotlib.org/) -->
<svg height="345pt" version="1.1" viewBox="0 0 460 345" width="460pt" xmlns="http://www.w3.org/2000/svg" xmlns:xlink="http://www.w3.org/1999/xlink">
 <defs>
  <style type="text/css">
*{stroke-linecap:butt;stroke-linejoin:round;}
  </style>
 </defs>
 <g id="figure_1">
  <g id="patch_1">
   <path d="M 0 345.6 
L 460.8 345.6 
L 460.8 0 
L 0 0 
z
" style="fill:#ffffff;"/>
  </g>
  <g id="axes_1">
   <g id="patch_2">
    <path d="M 69.12 96.768 
L 414.72 96.768 
L 414.72 44.928 
L 69.12 44.928 
z
" style="fill:#ffffff;"/>
   </g>
   <g id="matplotlib.axis_1">
    <g id="xtick_1">
     <g id="line2d_1">
      <defs>
       <path d="M 0 0 
L 0 3.5 
" id="mc8969b5c94" style="stroke:#000000;stroke-width:0.8;"/>
      </defs>
      <g>
       <use style="stroke:#000000;stroke-width:0.8;" x="88.908534" xlink:href="#mc8969b5c94" y="96.768"/>
      </g>
     </g>
    </g>
    <g id="xtick_2">
     <g id="line2d_2">
      <g>
       <use style="stroke:#000000;stroke-width:0.8;" x="138.716369" xlink:href="#mc8969b5c94" y="96.768"/>
      </g>
     </g>
    </g>
    <g id="xtick_3">
     <g id="line2d_3">
      <g>
       <use style="stroke:#000000;stroke-width:0.8;" x="188.524204" xlink:href="#mc8969b5c94" y="96.768"/>
      </g>
     </g>
    </g>
    <g id="xtick_4">
     <g id="line2d_4">
      <g>
       <use style="stroke:#000000;stroke-width:0.8;" x="238.332039" xlink:href="#mc8969b5c94" y="96.768"/>
      </g>
     </g>
    </g>
    <g id="xtick_5">
     <g id="line2d_5">
      <g>
       <use style="stroke:#000000;stroke-width:0.8;" x="288.139874" xlink:href="#mc8969b5c94" y="96.768"/>
      </g>
     </g>
    </g>
    <g id="xtick_6">
     <g id="line2d_6">
      <g>
       <use style="stroke:#000000;stroke-width:0.8;" x="337.94771" xlink:href="#mc8969b5c94" y="96.768"/>
      </g>
     </g>
    </g>
    <g id="xtick_7">
     <g id="line2d_7">
      <g>
       <use style="stroke:#000000;stroke-width:0.8;" x="387.755545" xlink:href="#mc8969b5c94" y="96.768"/>
      </g>
     </g>
    </g>
   </g>
   <g id="matplotlib.axis_2">
    <g id="ytick_1">
     <g id="line2d_8">
      <defs>
       <path d="M 0 0 
L -3.5 0 
" id="m422e063cc0" style="stroke:#000000;stroke-width:0.8;"/>
      </defs>
      <g>
       <use style="stroke:#000000;stroke-width:0.8;" x="69.12" xlink:href="#m422e063cc0" y="96.122753"/>
      </g>
     </g>
     <g id="text_1">
      <!-- −1 -->
      <defs>
       <path d="M 10.59375 35.5 
L 73.1875 35.5 
L 73.1875 27.203125 
L 10.59375 27.203125 
z
" id="DejaVuSans-2212"/>
       <path d="M 12.40625 8.296875 
L 28.515625 8.296875 
L 28.515625 63.921875 
L 10.984375 60.40625 
L 10.984375 69.390625 
L 28.421875 72.90625 
L 38.28125 72.90625 
L 38.28125 8.296875 
L 54.390625 8.296875 
L 54.390625 0 
L 12.40625 0 
z
" id="DejaVuSans-31"/>
      </defs>
      <g transform="translate(40.006719 101.821581)scale(0.15 -0.15)">
       <use xlink:href="#DejaVuSans-2212"/>
       <use x="83.789062" xlink:href="#DejaVuSans-31"/>
      </g>
     </g>
    </g>
    <g id="ytick_2">
     <g id="line2d_9">
      <g>
       <use style="stroke:#000000;stroke-width:0.8;" x="69.12" xlink:href="#m422e063cc0" y="77.965579"/>
      </g>
     </g>
    </g>
    <g id="ytick_3">
     <g id="line2d_10">
      <g>
       <use style="stroke:#000000;stroke-width:0.8;" x="69.12" xlink:href="#m422e063cc0" y="59.808404"/>
      </g>
     </g>
     <g id="text_2">
      <!-- 1 -->
      <g transform="translate(52.57625 65.507232)scale(0.15 -0.15)">
       <use xlink:href="#DejaVuSans-31"/>
      </g>
     </g>
    </g>
    <g id="text_3">
     <!-- Studentized -->
     <defs>
      <path d="M 53.515625 70.515625 
L 53.515625 60.890625 
Q 47.90625 63.578125 42.921875 64.890625 
Q 37.9375 66.21875 33.296875 66.21875 
Q 25.25 66.21875 20.875 63.09375 
Q 16.5 59.96875 16.5 54.203125 
Q 16.5 49.359375 19.40625 46.890625 
Q 22.3125 44.4375 30.421875 42.921875 
L 36.375 41.703125 
Q 47.40625 39.59375 52.65625 34.296875 
Q 57.90625 29 57.90625 20.125 
Q 57.90625 9.515625 50.796875 4.046875 
Q 43.703125 -1.421875 29.984375 -1.421875 
Q 24.8125 -1.421875 18.96875 -0.25 
Q 13.140625 0.921875 6.890625 3.21875 
L 6.890625 13.375 
Q 12.890625 10.015625 18.65625 8.296875 
Q 24.421875 6.59375 29.984375 6.59375 
Q 38.421875 6.59375 43.015625 9.90625 
Q 47.609375 13.234375 47.609375 19.390625 
Q 47.609375 24.75 44.3125 27.78125 
Q 41.015625 30.8125 33.5 32.328125 
L 27.484375 33.5 
Q 16.453125 35.6875 11.515625 40.375 
Q 6.59375 45.0625 6.59375 53.421875 
Q 6.59375 63.09375 13.40625 68.65625 
Q 20.21875 74.21875 32.171875 74.21875 
Q 37.3125 74.21875 42.625 73.28125 
Q 47.953125 72.359375 53.515625 70.515625 
z
" id="DejaVuSans-53"/>
      <path d="M 18.3125 70.21875 
L 18.3125 54.6875 
L 36.8125 54.6875 
L 36.8125 47.703125 
L 18.3125 47.703125 
L 18.3125 18.015625 
Q 18.3125 11.328125 20.140625 9.421875 
Q 21.96875 7.515625 27.59375 7.515625 
L 36.8125 7.515625 
L 36.8125 0 
L 27.59375 0 
Q 17.1875 0 13.234375 3.875 
Q 9.28125 7.765625 9.28125 18.015625 
L 9.28125 47.703125 
L 2.6875 47.703125 
L 2.6875 54.6875 
L 9.28125 54.6875 
L 9.28125 70.21875 
z
" id="DejaVuSans-74"/>
      <path d="M 8.5 21.578125 
L 8.5 54.6875 
L 17.484375 54.6875 
L 17.484375 21.921875 
Q 17.484375 14.15625 20.5 10.265625 
Q 23.53125 6.390625 29.59375 6.390625 
Q 36.859375 6.390625 41.078125 11.03125 
Q 45.3125 15.671875 45.3125 23.6875 
L 45.3125 54.6875 
L 54.296875 54.6875 
L 54.296875 0 
L 45.3125 0 
L 45.3125 8.40625 
Q 42.046875 3.421875 37.71875 1 
Q 33.40625 -1.421875 27.6875 -1.421875 
Q 18.265625 -1.421875 13.375 4.4375 
Q 8.5 10.296875 8.5 21.578125 
z
M 31.109375 56 
z
" id="DejaVuSans-75"/>
      <path d="M 45.40625 46.390625 
L 45.40625 75.984375 
L 54.390625 75.984375 
L 54.390625 0 
L 45.40625 0 
L 45.40625 8.203125 
Q 42.578125 3.328125 38.25 0.953125 
Q 33.9375 -1.421875 27.875 -1.421875 
Q 17.96875 -1.421875 11.734375 6.484375 
Q 5.515625 14.40625 5.515625 27.296875 
Q 5.515625 40.1875 11.734375 48.09375 
Q 17.96875 56 27.875 56 
Q 33.9375 56 38.25 53.625 
Q 42.578125 51.265625 45.40625 46.390625 
z
M 14.796875 27.296875 
Q 14.796875 17.390625 18.875 11.75 
Q 22.953125 6.109375 30.078125 6.109375 
Q 37.203125 6.109375 41.296875 11.75 
Q 45.40625 17.390625 45.40625 27.296875 
Q 45.40625 37.203125 41.296875 42.84375 
Q 37.203125 48.484375 30.078125 48.484375 
Q 22.953125 48.484375 18.875 42.84375 
Q 14.796875 37.203125 14.796875 27.296875 
z
" id="DejaVuSans-64"/>
      <path d="M 56.203125 29.59375 
L 56.203125 25.203125 
L 14.890625 25.203125 
Q 15.484375 15.921875 20.484375 11.0625 
Q 25.484375 6.203125 34.421875 6.203125 
Q 39.59375 6.203125 44.453125 7.46875 
Q 49.3125 8.734375 54.109375 11.28125 
L 54.109375 2.78125 
Q 49.265625 0.734375 44.1875 -0.34375 
Q 39.109375 -1.421875 33.890625 -1.421875 
Q 20.796875 -1.421875 13.15625 6.1875 
Q 5.515625 13.8125 5.515625 26.8125 
Q 5.515625 40.234375 12.765625 48.109375 
Q 20.015625 56 32.328125 56 
Q 43.359375 56 49.78125 48.890625 
Q 56.203125 41.796875 56.203125 29.59375 
z
M 47.21875 32.234375 
Q 47.125 39.59375 43.09375 43.984375 
Q 39.0625 48.390625 32.421875 48.390625 
Q 24.90625 48.390625 20.390625 44.140625 
Q 15.875 39.890625 15.1875 32.171875 
z
" id="DejaVuSans-65"/>
      <path d="M 54.890625 33.015625 
L 54.890625 0 
L 45.90625 0 
L 45.90625 32.71875 
Q 45.90625 40.484375 42.875 44.328125 
Q 39.84375 48.1875 33.796875 48.1875 
Q 26.515625 48.1875 22.3125 43.546875 
Q 18.109375 38.921875 18.109375 30.90625 
L 18.109375 0 
L 9.078125 0 
L 9.078125 54.6875 
L 18.109375 54.6875 
L 18.109375 46.1875 
Q 21.34375 51.125 25.703125 53.5625 
Q 30.078125 56 35.796875 56 
Q 45.21875 56 50.046875 50.171875 
Q 54.890625 44.34375 54.890625 33.015625 
z
" id="DejaVuSans-6e"/>
      <path d="M 9.421875 54.6875 
L 18.40625 54.6875 
L 18.40625 0 
L 9.421875 0 
z
M 9.421875 75.984375 
L 18.40625 75.984375 
L 18.40625 64.59375 
L 9.421875 64.59375 
z
" id="DejaVuSans-69"/>
      <path d="M 5.515625 54.6875 
L 48.1875 54.6875 
L 48.1875 46.484375 
L 14.40625 7.171875 
L 48.1875 7.171875 
L 48.1875 0 
L 4.296875 0 
L 4.296875 8.203125 
L 38.09375 47.515625 
L 5.515625 47.515625 
z
" id="DejaVuSans-7a"/>
     </defs>
     <g transform="translate(16.090469 115.768313)rotate(-90)scale(0.15 -0.15)">
      <use xlink:href="#DejaVuSans-53"/>
      <use x="63.476562" xlink:href="#DejaVuSans-74"/>
      <use x="102.685547" xlink:href="#DejaVuSans-75"/>
      <use x="166.064453" xlink:href="#DejaVuSans-64"/>
      <use x="229.541016" xlink:href="#DejaVuSans-65"/>
      <use x="291.064453" xlink:href="#DejaVuSans-6e"/>
      <use x="354.443359" xlink:href="#DejaVuSans-74"/>
      <use x="393.652344" xlink:href="#DejaVuSans-69"/>
      <use x="421.435547" xlink:href="#DejaVuSans-7a"/>
      <use x="473.925781" xlink:href="#DejaVuSans-65"/>
      <use x="535.449219" xlink:href="#DejaVuSans-64"/>
     </g>
     <!-- Residuals -->
     <defs>
      <path d="M 44.390625 34.1875 
Q 47.5625 33.109375 50.5625 29.59375 
Q 53.5625 26.078125 56.59375 19.921875 
L 66.609375 0 
L 56 0 
L 46.6875 18.703125 
Q 43.0625 26.03125 39.671875 28.421875 
Q 36.28125 30.8125 30.421875 30.8125 
L 19.671875 30.8125 
L 19.671875 0 
L 9.8125 0 
L 9.8125 72.90625 
L 32.078125 72.90625 
Q 44.578125 72.90625 50.734375 67.671875 
Q 56.890625 62.453125 56.890625 51.90625 
Q 56.890625 45.015625 53.6875 40.46875 
Q 50.484375 35.9375 44.390625 34.1875 
z
M 19.671875 64.796875 
L 19.671875 38.921875 
L 32.078125 38.921875 
Q 39.203125 38.921875 42.84375 42.21875 
Q 46.484375 45.515625 46.484375 51.90625 
Q 46.484375 58.296875 42.84375 61.546875 
Q 39.203125 64.796875 32.078125 64.796875 
z
" id="DejaVuSans-52"/>
      <path d="M 44.28125 53.078125 
L 44.28125 44.578125 
Q 40.484375 46.53125 36.375 47.5 
Q 32.28125 48.484375 27.875 48.484375 
Q 21.1875 48.484375 17.84375 46.4375 
Q 14.5 44.390625 14.5 40.28125 
Q 14.5 37.15625 16.890625 35.375 
Q 19.28125 33.59375 26.515625 31.984375 
L 29.59375 31.296875 
Q 39.15625 29.25 43.1875 25.515625 
Q 47.21875 21.78125 47.21875 15.09375 
Q 47.21875 7.46875 41.1875 3.015625 
Q 35.15625 -1.421875 24.609375 -1.421875 
Q 20.21875 -1.421875 15.453125 -0.5625 
Q 10.6875 0.296875 5.421875 2 
L 5.421875 11.28125 
Q 10.40625 8.6875 15.234375 7.390625 
Q 20.0625 6.109375 24.8125 6.109375 
Q 31.15625 6.109375 34.5625 8.28125 
Q 37.984375 10.453125 37.984375 14.40625 
Q 37.984375 18.0625 35.515625 20.015625 
Q 33.0625 21.96875 24.703125 23.78125 
L 21.578125 24.515625 
Q 13.234375 26.265625 9.515625 29.90625 
Q 5.8125 33.546875 5.8125 39.890625 
Q 5.8125 47.609375 11.28125 51.796875 
Q 16.75 56 26.8125 56 
Q 31.78125 56 36.171875 55.265625 
Q 40.578125 54.546875 44.28125 53.078125 
z
" id="DejaVuSans-73"/>
      <path d="M 34.28125 27.484375 
Q 23.390625 27.484375 19.1875 25 
Q 14.984375 22.515625 14.984375 16.5 
Q 14.984375 11.71875 18.140625 8.90625 
Q 21.296875 6.109375 26.703125 6.109375 
Q 34.1875 6.109375 38.703125 11.40625 
Q 43.21875 16.703125 43.21875 25.484375 
L 43.21875 27.484375 
z
M 52.203125 31.203125 
L 52.203125 0 
L 43.21875 0 
L 43.21875 8.296875 
Q 40.140625 3.328125 35.546875 0.953125 
Q 30.953125 -1.421875 24.3125 -1.421875 
Q 15.921875 -1.421875 10.953125 3.296875 
Q 6 8.015625 6 15.921875 
Q 6 25.140625 12.171875 29.828125 
Q 18.359375 34.515625 30.609375 34.515625 
L 43.21875 34.515625 
L 43.21875 35.40625 
Q 43.21875 41.609375 39.140625 45 
Q 35.0625 48.390625 27.6875 48.390625 
Q 23 48.390625 18.546875 47.265625 
Q 14.109375 46.140625 10.015625 43.890625 
L 10.015625 52.203125 
Q 14.9375 54.109375 19.578125 55.046875 
Q 24.21875 56 28.609375 56 
Q 40.484375 56 46.34375 49.84375 
Q 52.203125 43.703125 52.203125 31.203125 
z
" id="DejaVuSans-61"/>
      <path d="M 9.421875 75.984375 
L 18.40625 75.984375 
L 18.40625 0 
L 9.421875 0 
z
" id="DejaVuSans-6c"/>
     </defs>
     <g transform="translate(32.887188 106.761281)rotate(-90)scale(0.15 -0.15)">
      <use xlink:href="#DejaVuSans-52"/>
      <use x="69.419922" xlink:href="#DejaVuSans-65"/>
      <use x="130.943359" xlink:href="#DejaVuSans-73"/>
      <use x="183.042969" xlink:href="#DejaVuSans-69"/>
      <use x="210.826172" xlink:href="#DejaVuSans-64"/>
      <use x="274.302734" xlink:href="#DejaVuSans-75"/>
      <use x="337.681641" xlink:href="#DejaVuSans-61"/>
      <use x="398.960938" xlink:href="#DejaVuSans-6c"/>
      <use x="426.744141" xlink:href="#DejaVuSans-73"/>
     </g>
    </g>
   </g>
   <g id="LineCollection_1">
    <path clip-path="url(#p612fb38656)" d="M 81.92 92.09539 
L 81.92 55.781041 
" style="fill:none;stroke:#0000ff;stroke-width:1.5;"/>
    <path clip-path="url(#p612fb38656)" d="M 123.401481 92.259264 
L 123.401481 55.944915 
" style="fill:none;stroke:#0000ff;stroke-width:1.5;"/>
    <path clip-path="url(#p612fb38656)" d="M 126.364444 84.188326 
L 126.364444 47.873977 
" style="fill:none;stroke:#0000ff;stroke-width:1.5;"/>
    <path clip-path="url(#p612fb38656)" d="M 132.29037 97.333018 
L 132.29037 61.018669 
" style="fill:none;stroke:#0000ff;stroke-width:1.5;"/>
    <path clip-path="url(#p612fb38656)" d="M 147.105185 97.789741 
L 147.105185 61.475392 
" style="fill:none;stroke:#0000ff;stroke-width:1.5;"/>
    <path clip-path="url(#p612fb38656)" d="M 150.068148 97.929289 
L 150.068148 61.61494 
" style="fill:none;stroke:#0000ff;stroke-width:1.5;"/>
    <path clip-path="url(#p612fb38656)" d="M 158.957037 98.482869 
L 158.957037 62.16852 
" style="fill:none;stroke:#0000ff;stroke-width:1.5;"/>
    <path clip-path="url(#p612fb38656)" d="M 161.92 98.720674 
L 161.92 62.406325 
" style="fill:none;stroke:#0000ff;stroke-width:1.5;"/>
    <path clip-path="url(#p612fb38656)" d="M 182.660741 96.164903 
L 182.660741 59.850554 
" style="fill:none;stroke:#0000ff;stroke-width:1.5;"/>
    <path clip-path="url(#p612fb38656)" d="M 185.623704 101.972295 
L 185.623704 65.657946 
" style="fill:none;stroke:#0000ff;stroke-width:1.5;"/>
    <path clip-path="url(#p612fb38656)" d="M 188.586667 97.254133 
L 188.586667 60.939784 
" style="fill:none;stroke:#0000ff;stroke-width:1.5;"/>
    <path clip-path="url(#p612fb38656)" d="M 191.54963 103.253484 
L 191.54963 66.939135 
" style="fill:none;stroke:#0000ff;stroke-width:1.5;"/>
    <path clip-path="url(#p612fb38656)" d="M 194.512593 89.695064 
L 194.512593 53.380715 
" style="fill:none;stroke:#0000ff;stroke-width:1.5;"/>
    <path clip-path="url(#p612fb38656)" d="M 200.438519 91.008577 
L 200.438519 54.694228 
" style="fill:none;stroke:#0000ff;stroke-width:1.5;"/>
    <path clip-path="url(#p612fb38656)" d="M 203.401481 91.732753 
L 203.401481 55.418404 
" style="fill:none;stroke:#0000ff;stroke-width:1.5;"/>
    <path clip-path="url(#p612fb38656)" d="M 209.327407 89.395651 
L 209.327407 53.081302 
" style="fill:none;stroke:#0000ff;stroke-width:1.5;"/>
    <path clip-path="url(#p612fb38656)" d="M 212.29037 98.582757 
L 212.29037 62.268408 
" style="fill:none;stroke:#0000ff;stroke-width:1.5;"/>
    <path clip-path="url(#p612fb38656)" d="M 215.253333 91.045828 
L 215.253333 54.73148 
" style="fill:none;stroke:#0000ff;stroke-width:1.5;"/>
    <path clip-path="url(#p612fb38656)" d="M 218.216296 111.664585 
L 218.216296 75.350236 
" style="fill:none;stroke:#0000ff;stroke-width:1.5;"/>
    <path clip-path="url(#p612fb38656)" d="M 221.179259 101.514249 
L 221.179259 65.1999 
" style="fill:none;stroke:#0000ff;stroke-width:1.5;"/>
    <path clip-path="url(#p612fb38656)" d="M 224.142222 86.546502 
L 224.142222 50.232153 
" style="fill:none;stroke:#0000ff;stroke-width:1.5;"/>
    <path clip-path="url(#p612fb38656)" d="M 227.105185 94.699096 
L 227.105185 58.384747 
" style="fill:none;stroke:#0000ff;stroke-width:1.5;"/>
    <path clip-path="url(#p612fb38656)" d="M 230.068148 91.809026 
L 230.068148 55.494677 
" style="fill:none;stroke:#0000ff;stroke-width:1.5;"/>
    <path clip-path="url(#p612fb38656)" d="M 233.031111 100.931503 
L 233.031111 64.617154 
" style="fill:none;stroke:#0000ff;stroke-width:1.5;"/>
    <path clip-path="url(#p612fb38656)" d="M 235.994074 101.949737 
L 235.994074 65.635388 
" style="fill:none;stroke:#0000ff;stroke-width:1.5;"/>
    <path clip-path="url(#p612fb38656)" d="M 238.957037 90.92521 
L 238.957037 54.610861 
" style="fill:none;stroke:#0000ff;stroke-width:1.5;"/>
    <path clip-path="url(#p612fb38656)" d="M 241.92 99.492951 
L 241.92 63.178602 
" style="fill:none;stroke:#0000ff;stroke-width:1.5;"/>
    <path clip-path="url(#p612fb38656)" d="M 244.882963 96.343075 
L 244.882963 60.028726 
" style="fill:none;stroke:#0000ff;stroke-width:1.5;"/>
    <path clip-path="url(#p612fb38656)" d="M 247.845926 73.37239 
L 247.845926 37.058041 
" style="fill:none;stroke:#0000ff;stroke-width:1.5;"/>
    <path clip-path="url(#p612fb38656)" d="M 250.808889 98.00385 
L 250.808889 61.689501 
" style="fill:none;stroke:#0000ff;stroke-width:1.5;"/>
    <path clip-path="url(#p612fb38656)" d="M 253.771852 88.176379 
L 253.771852 51.86203 
" style="fill:none;stroke:#0000ff;stroke-width:1.5;"/>
    <path clip-path="url(#p612fb38656)" d="M 256.734815 85.743791 
L 256.734815 49.429442 
" style="fill:none;stroke:#0000ff;stroke-width:1.5;"/>
    <path clip-path="url(#p612fb38656)" d="M 259.697778 104.400664 
L 259.697778 68.086316 
" style="fill:none;stroke:#0000ff;stroke-width:1.5;"/>
    <path clip-path="url(#p612fb38656)" d="M 262.660741 86.81323 
L 262.660741 50.498881 
" style="fill:none;stroke:#0000ff;stroke-width:1.5;"/>
    <path clip-path="url(#p612fb38656)" d="M 265.623704 105.567074 
L 265.623704 69.252725 
" style="fill:none;stroke:#0000ff;stroke-width:1.5;"/>
    <path clip-path="url(#p612fb38656)" d="M 268.586667 90.772322 
L 268.586667 54.457973 
" style="fill:none;stroke:#0000ff;stroke-width:1.5;"/>
    <path clip-path="url(#p612fb38656)" d="M 271.54963 106.412098 
L 271.54963 70.097749 
" style="fill:none;stroke:#0000ff;stroke-width:1.5;"/>
    <path clip-path="url(#p612fb38656)" d="M 274.512593 98.367964 
L 274.512593 62.053615 
" style="fill:none;stroke:#0000ff;stroke-width:1.5;"/>
    <path clip-path="url(#p612fb38656)" d="M 277.475556 88.34724 
L 277.475556 52.032891 
" style="fill:none;stroke:#0000ff;stroke-width:1.5;"/>
    <path clip-path="url(#p612fb38656)" d="M 280.438519 98.642372 
L 280.438519 62.328023 
" style="fill:none;stroke:#0000ff;stroke-width:1.5;"/>
    <path clip-path="url(#p612fb38656)" d="M 283.401481 91.598653 
L 283.401481 55.284304 
" style="fill:none;stroke:#0000ff;stroke-width:1.5;"/>
    <path clip-path="url(#p612fb38656)" d="M 286.364444 98.567639 
L 286.364444 62.25329 
" style="fill:none;stroke:#0000ff;stroke-width:1.5;"/>
    <path clip-path="url(#p612fb38656)" d="M 289.327407 88.214282 
L 289.327407 51.899933 
" style="fill:none;stroke:#0000ff;stroke-width:1.5;"/>
    <path clip-path="url(#p612fb38656)" d="M 292.29037 111.299216 
L 292.29037 74.984867 
" style="fill:none;stroke:#0000ff;stroke-width:1.5;"/>
    <path clip-path="url(#p612fb38656)" d="M 295.253333 106.093441 
L 295.253333 69.779092 
" style="fill:none;stroke:#0000ff;stroke-width:1.5;"/>
    <path clip-path="url(#p612fb38656)" d="M 298.216296 90.441138 
L 298.216296 54.126789 
" style="fill:none;stroke:#0000ff;stroke-width:1.5;"/>
    <path clip-path="url(#p612fb38656)" d="M 301.179259 100.816957 
L 301.179259 64.502608 
" style="fill:none;stroke:#0000ff;stroke-width:1.5;"/>
    <path clip-path="url(#p612fb38656)" d="M 304.142222 96.353903 
L 304.142222 60.039554 
" style="fill:none;stroke:#0000ff;stroke-width:1.5;"/>
    <path clip-path="url(#p612fb38656)" d="M 307.105185 95.733581 
L 307.105185 59.419232 
" style="fill:none;stroke:#0000ff;stroke-width:1.5;"/>
    <path clip-path="url(#p612fb38656)" d="M 310.068148 107.730108 
L 310.068148 71.415759 
" style="fill:none;stroke:#0000ff;stroke-width:1.5;"/>
    <path clip-path="url(#p612fb38656)" d="M 313.031111 94.328017 
L 313.031111 58.013668 
" style="fill:none;stroke:#0000ff;stroke-width:1.5;"/>
    <path clip-path="url(#p612fb38656)" d="M 315.994074 101.43161 
L 315.994074 65.117261 
" style="fill:none;stroke:#0000ff;stroke-width:1.5;"/>
    <path clip-path="url(#p612fb38656)" d="M 318.957037 92.748452 
L 318.957037 56.434103 
" style="fill:none;stroke:#0000ff;stroke-width:1.5;"/>
    <path clip-path="url(#p612fb38656)" d="M 321.92 69.893442 
L 321.92 33.579093 
" style="fill:none;stroke:#0000ff;stroke-width:1.5;"/>
    <path clip-path="url(#p612fb38656)" d="M 324.882963 65.005174 
L 324.882963 28.690826 
" style="fill:none;stroke:#0000ff;stroke-width:1.5;"/>
    <path clip-path="url(#p612fb38656)" d="M 330.808889 92.865386 
L 330.808889 56.551037 
" style="fill:none;stroke:#0000ff;stroke-width:1.5;"/>
    <path clip-path="url(#p612fb38656)" d="M 333.771852 91.943829 
L 333.771852 55.62948 
" style="fill:none;stroke:#0000ff;stroke-width:1.5;"/>
    <path clip-path="url(#p612fb38656)" d="M 336.734815 94.839093 
L 336.734815 58.524744 
" style="fill:none;stroke:#0000ff;stroke-width:1.5;"/>
    <path clip-path="url(#p612fb38656)" d="M 339.697778 86.672222 
L 339.697778 50.357873 
" style="fill:none;stroke:#0000ff;stroke-width:1.5;"/>
    <path clip-path="url(#p612fb38656)" d="M 342.660741 113.005174 
L 342.660741 76.690826 
" style="fill:none;stroke:#0000ff;stroke-width:1.5;"/>
    <path clip-path="url(#p612fb38656)" d="M 345.623704 100.650052 
L 345.623704 64.335703 
" style="fill:none;stroke:#0000ff;stroke-width:1.5;"/>
    <path clip-path="url(#p612fb38656)" d="M 348.586667 95.184116 
L 348.586667 58.869768 
" style="fill:none;stroke:#0000ff;stroke-width:1.5;"/>
    <path clip-path="url(#p612fb38656)" d="M 351.54963 86.723053 
L 351.54963 50.408704 
" style="fill:none;stroke:#0000ff;stroke-width:1.5;"/>
    <path clip-path="url(#p612fb38656)" d="M 354.512593 108.553973 
L 354.512593 72.239624 
" style="fill:none;stroke:#0000ff;stroke-width:1.5;"/>
    <path clip-path="url(#p612fb38656)" d="M 357.475556 88.736929 
L 357.475556 52.42258 
" style="fill:none;stroke:#0000ff;stroke-width:1.5;"/>
    <path clip-path="url(#p612fb38656)" d="M 360.438519 106.605288 
L 360.438519 70.290939 
" style="fill:none;stroke:#0000ff;stroke-width:1.5;"/>
    <path clip-path="url(#p612fb38656)" d="M 363.401481 100.146463 
L 363.401481 63.832114 
" style="fill:none;stroke:#0000ff;stroke-width:1.5;"/>
    <path clip-path="url(#p612fb38656)" d="M 366.364444 90.426007 
L 366.364444 54.111658 
" style="fill:none;stroke:#0000ff;stroke-width:1.5;"/>
    <path clip-path="url(#p612fb38656)" d="M 369.327407 93.940071 
L 369.327407 57.625722 
" style="fill:none;stroke:#0000ff;stroke-width:1.5;"/>
    <path clip-path="url(#p612fb38656)" d="M 375.253333 92.723569 
L 375.253333 56.40922 
" style="fill:none;stroke:#0000ff;stroke-width:1.5;"/>
    <path clip-path="url(#p612fb38656)" d="M 378.216296 92.185149 
L 378.216296 55.8708 
" style="fill:none;stroke:#0000ff;stroke-width:1.5;"/>
    <path clip-path="url(#p612fb38656)" d="M 390.068148 100.069289 
L 390.068148 63.75494 
" style="fill:none;stroke:#0000ff;stroke-width:1.5;"/>
    <path clip-path="url(#p612fb38656)" d="M 393.031111 94.567623 
L 393.031111 58.253274 
" style="fill:none;stroke:#0000ff;stroke-width:1.5;"/>
    <path clip-path="url(#p612fb38656)" d="M 398.957037 99.031735 
L 398.957037 62.717386 
" style="fill:none;stroke:#0000ff;stroke-width:1.5;"/>
    <path clip-path="url(#p612fb38656)" d="M 401.92 98.758083 
L 401.92 62.443734 
" style="fill:none;stroke:#0000ff;stroke-width:1.5;"/>
   </g>
   <g id="line2d_11">
    <path clip-path="url(#p612fb38656)" d="M 81.92 77.965579 
L 401.92 77.965579 
" style="fill:none;stroke:#ff0000;stroke-linecap:square;stroke-width:1.5;"/>
   </g>
   <g id="line2d_12">
    <defs>
     <path d="M -3 0 
L 3 0 
M 0 3 
L 0 -3 
" id="md3bccb76ad" style="stroke:#0000ff;"/>
    </defs>
    <g clip-path="url(#p612fb38656)">
     <use style="fill:#0000ff;stroke:#0000ff;" x="81.92" xlink:href="#md3bccb76ad" y="73.938215"/>
     <use style="fill:#0000ff;stroke:#0000ff;" x="123.401481" xlink:href="#md3bccb76ad" y="74.102089"/>
     <use style="fill:#0000ff;stroke:#0000ff;" x="126.364444" xlink:href="#md3bccb76ad" y="66.031151"/>
     <use style="fill:#0000ff;stroke:#0000ff;" x="132.29037" xlink:href="#md3bccb76ad" y="79.175844"/>
     <use style="fill:#0000ff;stroke:#0000ff;" x="147.105185" xlink:href="#md3bccb76ad" y="79.632567"/>
     <use style="fill:#0000ff;stroke:#0000ff;" x="150.068148" xlink:href="#md3bccb76ad" y="79.772115"/>
     <use style="fill:#0000ff;stroke:#0000ff;" x="158.957037" xlink:href="#md3bccb76ad" y="80.325694"/>
     <use style="fill:#0000ff;stroke:#0000ff;" x="161.92" xlink:href="#md3bccb76ad" y="80.563499"/>
     <use style="fill:#0000ff;stroke:#0000ff;" x="182.660741" xlink:href="#md3bccb76ad" y="78.007728"/>
     <use style="fill:#0000ff;stroke:#0000ff;" x="185.623704" xlink:href="#md3bccb76ad" y="83.815121"/>
     <use style="fill:#0000ff;stroke:#0000ff;" x="188.586667" xlink:href="#md3bccb76ad" y="79.096959"/>
     <use style="fill:#0000ff;stroke:#0000ff;" x="191.54963" xlink:href="#md3bccb76ad" y="85.096309"/>
     <use style="fill:#0000ff;stroke:#0000ff;" x="194.512593" xlink:href="#md3bccb76ad" y="71.537889"/>
     <use style="fill:#0000ff;stroke:#0000ff;" x="200.438519" xlink:href="#md3bccb76ad" y="72.851402"/>
     <use style="fill:#0000ff;stroke:#0000ff;" x="203.401481" xlink:href="#md3bccb76ad" y="73.575579"/>
     <use style="fill:#0000ff;stroke:#0000ff;" x="209.327407" xlink:href="#md3bccb76ad" y="71.238476"/>
     <use style="fill:#0000ff;stroke:#0000ff;" x="212.29037" xlink:href="#md3bccb76ad" y="80.425583"/>
     <use style="fill:#0000ff;stroke:#0000ff;" x="215.253333" xlink:href="#md3bccb76ad" y="72.888654"/>
     <use style="fill:#0000ff;stroke:#0000ff;" x="218.216296" xlink:href="#md3bccb76ad" y="93.507411"/>
     <use style="fill:#0000ff;stroke:#0000ff;" x="221.179259" xlink:href="#md3bccb76ad" y="83.357075"/>
     <use style="fill:#0000ff;stroke:#0000ff;" x="224.142222" xlink:href="#md3bccb76ad" y="68.389327"/>
     <use style="fill:#0000ff;stroke:#0000ff;" x="227.105185" xlink:href="#md3bccb76ad" y="76.541921"/>
     <use style="fill:#0000ff;stroke:#0000ff;" x="230.068148" xlink:href="#md3bccb76ad" y="73.651852"/>
     <use style="fill:#0000ff;stroke:#0000ff;" x="233.031111" xlink:href="#md3bccb76ad" y="82.774328"/>
     <use style="fill:#0000ff;stroke:#0000ff;" x="235.994074" xlink:href="#md3bccb76ad" y="83.792563"/>
     <use style="fill:#0000ff;stroke:#0000ff;" x="238.957037" xlink:href="#md3bccb76ad" y="72.768035"/>
     <use style="fill:#0000ff;stroke:#0000ff;" x="241.92" xlink:href="#md3bccb76ad" y="81.335777"/>
     <use style="fill:#0000ff;stroke:#0000ff;" x="244.882963" xlink:href="#md3bccb76ad" y="78.185901"/>
     <use style="fill:#0000ff;stroke:#0000ff;" x="247.845926" xlink:href="#md3bccb76ad" y="55.215215"/>
     <use style="fill:#0000ff;stroke:#0000ff;" x="250.808889" xlink:href="#md3bccb76ad" y="79.846675"/>
     <use style="fill:#0000ff;stroke:#0000ff;" x="253.771852" xlink:href="#md3bccb76ad" y="70.019204"/>
     <use style="fill:#0000ff;stroke:#0000ff;" x="256.734815" xlink:href="#md3bccb76ad" y="67.586616"/>
     <use style="fill:#0000ff;stroke:#0000ff;" x="259.697778" xlink:href="#md3bccb76ad" y="86.24349"/>
     <use style="fill:#0000ff;stroke:#0000ff;" x="262.660741" xlink:href="#md3bccb76ad" y="68.656056"/>
     <use style="fill:#0000ff;stroke:#0000ff;" x="265.623704" xlink:href="#md3bccb76ad" y="87.409899"/>
     <use style="fill:#0000ff;stroke:#0000ff;" x="268.586667" xlink:href="#md3bccb76ad" y="72.615147"/>
     <use style="fill:#0000ff;stroke:#0000ff;" x="271.54963" xlink:href="#md3bccb76ad" y="88.254924"/>
     <use style="fill:#0000ff;stroke:#0000ff;" x="274.512593" xlink:href="#md3bccb76ad" y="80.21079"/>
     <use style="fill:#0000ff;stroke:#0000ff;" x="277.475556" xlink:href="#md3bccb76ad" y="70.190066"/>
     <use style="fill:#0000ff;stroke:#0000ff;" x="280.438519" xlink:href="#md3bccb76ad" y="80.485197"/>
     <use style="fill:#0000ff;stroke:#0000ff;" x="283.401481" xlink:href="#md3bccb76ad" y="73.441479"/>
     <use style="fill:#0000ff;stroke:#0000ff;" x="286.364444" xlink:href="#md3bccb76ad" y="80.410465"/>
     <use style="fill:#0000ff;stroke:#0000ff;" x="289.327407" xlink:href="#md3bccb76ad" y="70.057107"/>
     <use style="fill:#0000ff;stroke:#0000ff;" x="292.29037" xlink:href="#md3bccb76ad" y="93.142041"/>
     <use style="fill:#0000ff;stroke:#0000ff;" x="295.253333" xlink:href="#md3bccb76ad" y="87.936266"/>
     <use style="fill:#0000ff;stroke:#0000ff;" x="298.216296" xlink:href="#md3bccb76ad" y="72.283963"/>
     <use style="fill:#0000ff;stroke:#0000ff;" x="301.179259" xlink:href="#md3bccb76ad" y="82.659782"/>
     <use style="fill:#0000ff;stroke:#0000ff;" x="304.142222" xlink:href="#md3bccb76ad" y="78.196729"/>
     <use style="fill:#0000ff;stroke:#0000ff;" x="307.105185" xlink:href="#md3bccb76ad" y="77.576406"/>
     <use style="fill:#0000ff;stroke:#0000ff;" x="310.068148" xlink:href="#md3bccb76ad" y="89.572934"/>
     <use style="fill:#0000ff;stroke:#0000ff;" x="313.031111" xlink:href="#md3bccb76ad" y="76.170843"/>
     <use style="fill:#0000ff;stroke:#0000ff;" x="315.994074" xlink:href="#md3bccb76ad" y="83.274435"/>
     <use style="fill:#0000ff;stroke:#0000ff;" x="318.957037" xlink:href="#md3bccb76ad" y="74.591278"/>
     <use style="fill:#0000ff;stroke:#0000ff;" x="321.92" xlink:href="#md3bccb76ad" y="51.736268"/>
     <use style="fill:#0000ff;stroke:#0000ff;" x="324.882963" xlink:href="#md3bccb76ad" y="46.848"/>
     <use style="fill:#0000ff;stroke:#0000ff;" x="330.808889" xlink:href="#md3bccb76ad" y="74.708211"/>
     <use style="fill:#0000ff;stroke:#0000ff;" x="333.771852" xlink:href="#md3bccb76ad" y="73.786655"/>
     <use style="fill:#0000ff;stroke:#0000ff;" x="336.734815" xlink:href="#md3bccb76ad" y="76.681918"/>
     <use style="fill:#0000ff;stroke:#0000ff;" x="339.697778" xlink:href="#md3bccb76ad" y="68.515047"/>
     <use style="fill:#0000ff;stroke:#0000ff;" x="342.660741" xlink:href="#md3bccb76ad" y="94.848"/>
     <use style="fill:#0000ff;stroke:#0000ff;" x="345.623704" xlink:href="#md3bccb76ad" y="82.492878"/>
     <use style="fill:#0000ff;stroke:#0000ff;" x="348.586667" xlink:href="#md3bccb76ad" y="77.026942"/>
     <use style="fill:#0000ff;stroke:#0000ff;" x="351.54963" xlink:href="#md3bccb76ad" y="68.565879"/>
     <use style="fill:#0000ff;stroke:#0000ff;" x="354.512593" xlink:href="#md3bccb76ad" y="90.396798"/>
     <use style="fill:#0000ff;stroke:#0000ff;" x="357.475556" xlink:href="#md3bccb76ad" y="70.579754"/>
     <use style="fill:#0000ff;stroke:#0000ff;" x="360.438519" xlink:href="#md3bccb76ad" y="88.448114"/>
     <use style="fill:#0000ff;stroke:#0000ff;" x="363.401481" xlink:href="#md3bccb76ad" y="81.989289"/>
     <use style="fill:#0000ff;stroke:#0000ff;" x="366.364444" xlink:href="#md3bccb76ad" y="72.268833"/>
     <use style="fill:#0000ff;stroke:#0000ff;" x="369.327407" xlink:href="#md3bccb76ad" y="75.782897"/>
     <use style="fill:#0000ff;stroke:#0000ff;" x="375.253333" xlink:href="#md3bccb76ad" y="74.566394"/>
     <use style="fill:#0000ff;stroke:#0000ff;" x="378.216296" xlink:href="#md3bccb76ad" y="74.027974"/>
     <use style="fill:#0000ff;stroke:#0000ff;" x="390.068148" xlink:href="#md3bccb76ad" y="81.912115"/>
     <use style="fill:#0000ff;stroke:#0000ff;" x="393.031111" xlink:href="#md3bccb76ad" y="76.410448"/>
     <use style="fill:#0000ff;stroke:#0000ff;" x="398.957037" xlink:href="#md3bccb76ad" y="80.87456"/>
     <use style="fill:#0000ff;stroke:#0000ff;" x="401.92" xlink:href="#md3bccb76ad" y="80.600909"/>
    </g>
   </g>
   <g id="patch_3">
    <path d="M 69.12 96.768 
L 69.12 44.928 
" style="fill:none;stroke:#000000;stroke-linecap:square;stroke-linejoin:miter;stroke-width:0.8;"/>
   </g>
   <g id="patch_4">
    <path d="M 414.72 96.768 
L 414.72 44.928 
" style="fill:none;stroke:#000000;stroke-linecap:square;stroke-linejoin:miter;stroke-width:0.8;"/>
   </g>
   <g id="patch_5">
    <path d="M 69.12 96.768 
L 414.72 96.768 
" style="fill:none;stroke:#000000;stroke-linecap:square;stroke-linejoin:miter;stroke-width:0.8;"/>
   </g>
   <g id="patch_6">
    <path d="M 69.12 44.928 
L 414.72 44.928 
" style="fill:none;stroke:#000000;stroke-linecap:square;stroke-linejoin:miter;stroke-width:0.8;"/>
   </g>
   <g id="text_4">
    <!-- Function (0/0): y = a*exp(-(x-x0)**2/w**2)+b -->
    <defs>
     <path d="M 9.8125 72.90625 
L 51.703125 72.90625 
L 51.703125 64.59375 
L 19.671875 64.59375 
L 19.671875 43.109375 
L 48.578125 43.109375 
L 48.578125 34.8125 
L 19.671875 34.8125 
L 19.671875 0 
L 9.8125 0 
z
" id="DejaVuSans-46"/>
     <path d="M 48.78125 52.59375 
L 48.78125 44.1875 
Q 44.96875 46.296875 41.140625 47.34375 
Q 37.3125 48.390625 33.40625 48.390625 
Q 24.65625 48.390625 19.8125 42.84375 
Q 14.984375 37.3125 14.984375 27.296875 
Q 14.984375 17.28125 19.8125 11.734375 
Q 24.65625 6.203125 33.40625 6.203125 
Q 37.3125 6.203125 41.140625 7.25 
Q 44.96875 8.296875 48.78125 10.40625 
L 48.78125 2.09375 
Q 45.015625 0.34375 40.984375 -0.53125 
Q 36.96875 -1.421875 32.421875 -1.421875 
Q 20.0625 -1.421875 12.78125 6.34375 
Q 5.515625 14.109375 5.515625 27.296875 
Q 5.515625 40.671875 12.859375 48.328125 
Q 20.21875 56 33.015625 56 
Q 37.15625 56 41.109375 55.140625 
Q 45.0625 54.296875 48.78125 52.59375 
z
" id="DejaVuSans-63"/>
     <path d="M 30.609375 48.390625 
Q 23.390625 48.390625 19.1875 42.75 
Q 14.984375 37.109375 14.984375 27.296875 
Q 14.984375 17.484375 19.15625 11.84375 
Q 23.34375 6.203125 30.609375 6.203125 
Q 37.796875 6.203125 41.984375 11.859375 
Q 46.1875 17.53125 46.1875 27.296875 
Q 46.1875 37.015625 41.984375 42.703125 
Q 37.796875 48.390625 30.609375 48.390625 
z
M 30.609375 56 
Q 42.328125 56 49.015625 48.375 
Q 55.71875 40.765625 55.71875 27.296875 
Q 55.71875 13.875 49.015625 6.21875 
Q 42.328125 -1.421875 30.609375 -1.421875 
Q 18.84375 -1.421875 12.171875 6.21875 
Q 5.515625 13.875 5.515625 27.296875 
Q 5.515625 40.765625 12.171875 48.375 
Q 18.84375 56 30.609375 56 
z
" id="DejaVuSans-6f"/>
     <path id="DejaVuSans-20"/>
     <path d="M 31 75.875 
Q 24.46875 64.65625 21.28125 53.65625 
Q 18.109375 42.671875 18.109375 31.390625 
Q 18.109375 20.125 21.3125 9.0625 
Q 24.515625 -2 31 -13.1875 
L 23.1875 -13.1875 
Q 15.875 -1.703125 12.234375 9.375 
Q 8.59375 20.453125 8.59375 31.390625 
Q 8.59375 42.28125 12.203125 53.3125 
Q 15.828125 64.359375 23.1875 75.875 
z
" id="DejaVuSans-28"/>
     <path d="M 31.78125 66.40625 
Q 24.171875 66.40625 20.328125 58.90625 
Q 16.5 51.421875 16.5 36.375 
Q 16.5 21.390625 20.328125 13.890625 
Q 24.171875 6.390625 31.78125 6.390625 
Q 39.453125 6.390625 43.28125 13.890625 
Q 47.125 21.390625 47.125 36.375 
Q 47.125 51.421875 43.28125 58.90625 
Q 39.453125 66.40625 31.78125 66.40625 
z
M 31.78125 74.21875 
Q 44.046875 74.21875 50.515625 64.515625 
Q 56.984375 54.828125 56.984375 36.375 
Q 56.984375 17.96875 50.515625 8.265625 
Q 44.046875 -1.421875 31.78125 -1.421875 
Q 19.53125 -1.421875 13.0625 8.265625 
Q 6.59375 17.96875 6.59375 36.375 
Q 6.59375 54.828125 13.0625 64.515625 
Q 19.53125 74.21875 31.78125 74.21875 
z
" id="DejaVuSans-30"/>
     <path d="M 25.390625 72.90625 
L 33.6875 72.90625 
L 8.296875 -9.28125 
L 0 -9.28125 
z
" id="DejaVuSans-2f"/>
     <path d="M 8.015625 75.875 
L 15.828125 75.875 
Q 23.140625 64.359375 26.78125 53.3125 
Q 30.421875 42.28125 30.421875 31.390625 
Q 30.421875 20.453125 26.78125 9.375 
Q 23.140625 -1.703125 15.828125 -13.1875 
L 8.015625 -13.1875 
Q 14.5 -2 17.703125 9.0625 
Q 20.90625 20.125 20.90625 31.390625 
Q 20.90625 42.671875 17.703125 53.65625 
Q 14.5 64.65625 8.015625 75.875 
z
" id="DejaVuSans-29"/>
     <path d="M 11.71875 12.40625 
L 22.015625 12.40625 
L 22.015625 0 
L 11.71875 0 
z
M 11.71875 51.703125 
L 22.015625 51.703125 
L 22.015625 39.3125 
L 11.71875 39.3125 
z
" id="DejaVuSans-3a"/>
     <path d="M 32.171875 -5.078125 
Q 28.375 -14.84375 24.75 -17.8125 
Q 21.140625 -20.796875 15.09375 -20.796875 
L 7.90625 -20.796875 
L 7.90625 -13.28125 
L 13.1875 -13.28125 
Q 16.890625 -13.28125 18.9375 -11.515625 
Q 21 -9.765625 23.484375 -3.21875 
L 25.09375 0.875 
L 2.984375 54.6875 
L 12.5 54.6875 
L 29.59375 11.921875 
L 46.6875 54.6875 
L 56.203125 54.6875 
z
" id="DejaVuSans-79"/>
     <path d="M 10.59375 45.40625 
L 73.1875 45.40625 
L 73.1875 37.203125 
L 10.59375 37.203125 
z
M 10.59375 25.484375 
L 73.1875 25.484375 
L 73.1875 17.1875 
L 10.59375 17.1875 
z
" id="DejaVuSans-3d"/>
     <path d="M 47.015625 60.890625 
L 29.5 51.421875 
L 47.015625 41.890625 
L 44.1875 37.109375 
L 27.78125 47.015625 
L 27.78125 28.609375 
L 22.21875 28.609375 
L 22.21875 47.015625 
L 5.8125 37.109375 
L 2.984375 41.890625 
L 20.515625 51.421875 
L 2.984375 60.890625 
L 5.8125 65.71875 
L 22.21875 55.8125 
L 22.21875 74.21875 
L 27.78125 74.21875 
L 27.78125 55.8125 
L 44.1875 65.71875 
z
" id="DejaVuSans-2a"/>
     <path d="M 54.890625 54.6875 
L 35.109375 28.078125 
L 55.90625 0 
L 45.3125 0 
L 29.390625 21.484375 
L 13.484375 0 
L 2.875 0 
L 24.125 28.609375 
L 4.6875 54.6875 
L 15.28125 54.6875 
L 29.78125 35.203125 
L 44.28125 54.6875 
z
" id="DejaVuSans-78"/>
     <path d="M 18.109375 8.203125 
L 18.109375 -20.796875 
L 9.078125 -20.796875 
L 9.078125 54.6875 
L 18.109375 54.6875 
L 18.109375 46.390625 
Q 20.953125 51.265625 25.265625 53.625 
Q 29.59375 56 35.59375 56 
Q 45.5625 56 51.78125 48.09375 
Q 58.015625 40.1875 58.015625 27.296875 
Q 58.015625 14.40625 51.78125 6.484375 
Q 45.5625 -1.421875 35.59375 -1.421875 
Q 29.59375 -1.421875 25.265625 0.953125 
Q 20.953125 3.328125 18.109375 8.203125 
z
M 48.6875 27.296875 
Q 48.6875 37.203125 44.609375 42.84375 
Q 40.53125 48.484375 33.40625 48.484375 
Q 26.265625 48.484375 22.1875 42.84375 
Q 18.109375 37.203125 18.109375 27.296875 
Q 18.109375 17.390625 22.1875 11.75 
Q 26.265625 6.109375 33.40625 6.109375 
Q 40.53125 6.109375 44.609375 11.75 
Q 48.6875 17.390625 48.6875 27.296875 
z
" id="DejaVuSans-70"/>
     <path d="M 4.890625 31.390625 
L 31.203125 31.390625 
L 31.203125 23.390625 
L 4.890625 23.390625 
z
" id="DejaVuSans-2d"/>
     <path d="M 19.1875 8.296875 
L 53.609375 8.296875 
L 53.609375 0 
L 7.328125 0 
L 7.328125 8.296875 
Q 12.9375 14.109375 22.625 23.890625 
Q 32.328125 33.6875 34.8125 36.53125 
Q 39.546875 41.84375 41.421875 45.53125 
Q 43.3125 49.21875 43.3125 52.78125 
Q 43.3125 58.59375 39.234375 62.25 
Q 35.15625 65.921875 28.609375 65.921875 
Q 23.96875 65.921875 18.8125 64.3125 
Q 13.671875 62.703125 7.8125 59.421875 
L 7.8125 69.390625 
Q 13.765625 71.78125 18.9375 73 
Q 24.125 74.21875 28.421875 74.21875 
Q 39.75 74.21875 46.484375 68.546875 
Q 53.21875 62.890625 53.21875 53.421875 
Q 53.21875 48.921875 51.53125 44.890625 
Q 49.859375 40.875 45.40625 35.40625 
Q 44.1875 33.984375 37.640625 27.21875 
Q 31.109375 20.453125 19.1875 8.296875 
z
" id="DejaVuSans-32"/>
     <path d="M 4.203125 54.6875 
L 13.1875 54.6875 
L 24.421875 12.015625 
L 35.59375 54.6875 
L 46.1875 54.6875 
L 57.421875 12.015625 
L 68.609375 54.6875 
L 77.59375 54.6875 
L 63.28125 0 
L 52.6875 0 
L 40.921875 44.828125 
L 29.109375 0 
L 18.5 0 
z
" id="DejaVuSans-77"/>
     <path d="M 46 62.703125 
L 46 35.5 
L 73.1875 35.5 
L 73.1875 27.203125 
L 46 27.203125 
L 46 0 
L 37.796875 0 
L 37.796875 27.203125 
L 10.59375 27.203125 
L 10.59375 35.5 
L 37.796875 35.5 
L 37.796875 62.703125 
z
" id="DejaVuSans-2b"/>
     <path d="M 48.6875 27.296875 
Q 48.6875 37.203125 44.609375 42.84375 
Q 40.53125 48.484375 33.40625 48.484375 
Q 26.265625 48.484375 22.1875 42.84375 
Q 18.109375 37.203125 18.109375 27.296875 
Q 18.109375 17.390625 22.1875 11.75 
Q 26.265625 6.109375 33.40625 6.109375 
Q 40.53125 6.109375 44.609375 11.75 
Q 48.6875 17.390625 48.6875 27.296875 
z
M 18.109375 46.390625 
Q 20.953125 51.265625 25.265625 53.625 
Q 29.59375 56 35.59375 56 
Q 45.5625 56 51.78125 48.09375 
Q 58.015625 40.1875 58.015625 27.296875 
Q 58.015625 14.40625 51.78125 6.484375 
Q 45.5625 -1.421875 35.59375 -1.421875 
Q 29.59375 -1.421875 25.265625 0.953125 
Q 20.953125 3.328125 18.109375 8.203125 
L 18.109375 0 
L 9.078125 0 
L 9.078125 75.984375 
L 18.109375 75.984375 
z
" id="DejaVuSans-62"/>
    </defs>
    <g transform="translate(69.12 27.730187)scale(0.1 -0.1)">
     <use xlink:href="#DejaVuSans-46"/>
     <use x="57.441406" xlink:href="#DejaVuSans-75"/>
     <use x="120.820312" xlink:href="#DejaVuSans-6e"/>
     <use x="184.199219" xlink:href="#DejaVuSans-63"/>
     <use x="239.179688" xlink:href="#DejaVuSans-74"/>
     <use x="278.388672" xlink:href="#DejaVuSans-69"/>
     <use x="306.171875" xlink:href="#DejaVuSans-6f"/>
     <use x="367.353516" xlink:href="#DejaVuSans-6e"/>
     <use x="430.732422" xlink:href="#DejaVuSans-20"/>
     <use x="462.519531" xlink:href="#DejaVuSans-28"/>
     <use x="501.533203" xlink:href="#DejaVuSans-30"/>
     <use x="565.15625" xlink:href="#DejaVuSans-2f"/>
     <use x="598.847656" xlink:href="#DejaVuSans-30"/>
     <use x="662.470703" xlink:href="#DejaVuSans-29"/>
     <use x="701.484375" xlink:href="#DejaVuSans-3a"/>
     <use x="735.175781" xlink:href="#DejaVuSans-20"/>
     <use x="766.962891" xlink:href="#DejaVuSans-79"/>
     <use x="826.142578" xlink:href="#DejaVuSans-20"/>
     <use x="857.929688" xlink:href="#DejaVuSans-3d"/>
     <use x="941.71875" xlink:href="#DejaVuSans-20"/>
     <use x="973.505859" xlink:href="#DejaVuSans-61"/>
     <use x="1034.785156" xlink:href="#DejaVuSans-2a"/>
     <use x="1084.785156" xlink:href="#DejaVuSans-65"/>
     <use x="1146.292969" xlink:href="#DejaVuSans-78"/>
     <use x="1205.472656" xlink:href="#DejaVuSans-70"/>
     <use x="1268.949219" xlink:href="#DejaVuSans-28"/>
     <use x="1307.962891" xlink:href="#DejaVuSans-2d"/>
     <use x="1344.046875" xlink:href="#DejaVuSans-28"/>
     <use x="1383.060547" xlink:href="#DejaVuSans-78"/>
     <use x="1442.240234" xlink:href="#DejaVuSans-2d"/>
     <use x="1478.324219" xlink:href="#DejaVuSans-78"/>
     <use x="1537.503906" xlink:href="#DejaVuSans-30"/>
     <use x="1601.126953" xlink:href="#DejaVuSans-29"/>
     <use x="1640.140625" xlink:href="#DejaVuSans-2a"/>
     <use x="1690.140625" xlink:href="#DejaVuSans-2a"/>
     <use x="1740.140625" xlink:href="#DejaVuSans-32"/>
     <use x="1803.763672" xlink:href="#DejaVuSans-2f"/>
     <use x="1837.455078" xlink:href="#DejaVuSans-77"/>
     <use x="1919.242188" xlink:href="#DejaVuSans-2a"/>
     <use x="1969.242188" xlink:href="#DejaVuSans-2a"/>
     <use x="2019.242188" xlink:href="#DejaVuSans-32"/>
     <use x="2082.865234" xlink:href="#DejaVuSans-29"/>
     <use x="2121.878906" xlink:href="#DejaVuSans-2b"/>
     <use x="2205.667969" xlink:href="#DejaVuSans-62"/>
    </g>
    <!-- Fit: a=3.26$\pm$0.76, b=3.08$\pm$0.66, x0=4.288$\pm$0.018, w=0.14$\pm$0.043, -->
    <defs>
     <path d="M 40.578125 39.3125 
Q 47.65625 37.796875 51.625 33 
Q 55.609375 28.21875 55.609375 21.1875 
Q 55.609375 10.40625 48.1875 4.484375 
Q 40.765625 -1.421875 27.09375 -1.421875 
Q 22.515625 -1.421875 17.65625 -0.515625 
Q 12.796875 0.390625 7.625 2.203125 
L 7.625 11.71875 
Q 11.71875 9.328125 16.59375 8.109375 
Q 21.484375 6.890625 26.8125 6.890625 
Q 36.078125 6.890625 40.9375 10.546875 
Q 45.796875 14.203125 45.796875 21.1875 
Q 45.796875 27.640625 41.28125 31.265625 
Q 36.765625 34.90625 28.71875 34.90625 
L 20.21875 34.90625 
L 20.21875 43.015625 
L 29.109375 43.015625 
Q 36.375 43.015625 40.234375 45.921875 
Q 44.09375 48.828125 44.09375 54.296875 
Q 44.09375 59.90625 40.109375 62.90625 
Q 36.140625 65.921875 28.71875 65.921875 
Q 24.65625 65.921875 20.015625 65.03125 
Q 15.375 64.15625 9.8125 62.3125 
L 9.8125 71.09375 
Q 15.4375 72.65625 20.34375 73.4375 
Q 25.25 74.21875 29.59375 74.21875 
Q 40.828125 74.21875 47.359375 69.109375 
Q 53.90625 64.015625 53.90625 55.328125 
Q 53.90625 49.265625 50.4375 45.09375 
Q 46.96875 40.921875 40.578125 39.3125 
z
" id="DejaVuSans-33"/>
     <path d="M 10.6875 12.40625 
L 21 12.40625 
L 21 0 
L 10.6875 0 
z
" id="DejaVuSans-2e"/>
     <path d="M 33.015625 40.375 
Q 26.375 40.375 22.484375 35.828125 
Q 18.609375 31.296875 18.609375 23.390625 
Q 18.609375 15.53125 22.484375 10.953125 
Q 26.375 6.390625 33.015625 6.390625 
Q 39.65625 6.390625 43.53125 10.953125 
Q 47.40625 15.53125 47.40625 23.390625 
Q 47.40625 31.296875 43.53125 35.828125 
Q 39.65625 40.375 33.015625 40.375 
z
M 52.59375 71.296875 
L 52.59375 62.3125 
Q 48.875 64.0625 45.09375 64.984375 
Q 41.3125 65.921875 37.59375 65.921875 
Q 27.828125 65.921875 22.671875 59.328125 
Q 17.53125 52.734375 16.796875 39.40625 
Q 19.671875 43.65625 24.015625 45.921875 
Q 28.375 48.1875 33.59375 48.1875 
Q 44.578125 48.1875 50.953125 41.515625 
Q 57.328125 34.859375 57.328125 23.390625 
Q 57.328125 12.15625 50.6875 5.359375 
Q 44.046875 -1.421875 33.015625 -1.421875 
Q 20.359375 -1.421875 13.671875 8.265625 
Q 6.984375 17.96875 6.984375 36.375 
Q 6.984375 53.65625 15.1875 63.9375 
Q 23.390625 74.21875 37.203125 74.21875 
Q 40.921875 74.21875 44.703125 73.484375 
Q 48.484375 72.75 52.59375 71.296875 
z
" id="DejaVuSans-36"/>
     <path d="M 46 62.703125 
L 46 43.796875 
L 73.1875 43.796875 
L 73.1875 35.5 
L 46 35.5 
L 46 16.609375 
L 37.796875 16.609375 
L 37.796875 35.5 
L 10.59375 35.5 
L 10.59375 43.796875 
L 37.796875 43.796875 
L 37.796875 62.703125 
z
M 10.59375 8.296875 
L 73.1875 8.296875 
L 73.1875 0 
L 10.59375 0 
z
" id="DejaVuSans-b1"/>
     <path d="M 8.203125 72.90625 
L 55.078125 72.90625 
L 55.078125 68.703125 
L 28.609375 0 
L 18.3125 0 
L 43.21875 64.59375 
L 8.203125 64.59375 
z
" id="DejaVuSans-37"/>
     <path d="M 11.71875 12.40625 
L 22.015625 12.40625 
L 22.015625 4 
L 14.015625 -11.625 
L 7.71875 -11.625 
L 11.71875 4 
z
" id="DejaVuSans-2c"/>
     <path d="M 31.78125 34.625 
Q 24.75 34.625 20.71875 30.859375 
Q 16.703125 27.09375 16.703125 20.515625 
Q 16.703125 13.921875 20.71875 10.15625 
Q 24.75 6.390625 31.78125 6.390625 
Q 38.8125 6.390625 42.859375 10.171875 
Q 46.921875 13.96875 46.921875 20.515625 
Q 46.921875 27.09375 42.890625 30.859375 
Q 38.875 34.625 31.78125 34.625 
z
M 21.921875 38.8125 
Q 15.578125 40.375 12.03125 44.71875 
Q 8.5 49.078125 8.5 55.328125 
Q 8.5 64.0625 14.71875 69.140625 
Q 20.953125 74.21875 31.78125 74.21875 
Q 42.671875 74.21875 48.875 69.140625 
Q 55.078125 64.0625 55.078125 55.328125 
Q 55.078125 49.078125 51.53125 44.71875 
Q 48 40.375 41.703125 38.8125 
Q 48.828125 37.15625 52.796875 32.3125 
Q 56.78125 27.484375 56.78125 20.515625 
Q 56.78125 9.90625 50.3125 4.234375 
Q 43.84375 -1.421875 31.78125 -1.421875 
Q 19.734375 -1.421875 13.25 4.234375 
Q 6.78125 9.90625 6.78125 20.515625 
Q 6.78125 27.484375 10.78125 32.3125 
Q 14.796875 37.15625 21.921875 38.8125 
z
M 18.3125 54.390625 
Q 18.3125 48.734375 21.84375 45.5625 
Q 25.390625 42.390625 31.78125 42.390625 
Q 38.140625 42.390625 41.71875 45.5625 
Q 45.3125 48.734375 45.3125 54.390625 
Q 45.3125 60.0625 41.71875 63.234375 
Q 38.140625 66.40625 31.78125 66.40625 
Q 25.390625 66.40625 21.84375 63.234375 
Q 18.3125 60.0625 18.3125 54.390625 
z
" id="DejaVuSans-38"/>
     <path d="M 37.796875 64.3125 
L 12.890625 25.390625 
L 37.796875 25.390625 
z
M 35.203125 72.90625 
L 47.609375 72.90625 
L 47.609375 25.390625 
L 58.015625 25.390625 
L 58.015625 17.1875 
L 47.609375 17.1875 
L 47.609375 0 
L 37.796875 0 
L 37.796875 17.1875 
L 4.890625 17.1875 
L 4.890625 26.703125 
z
" id="DejaVuSans-34"/>
    </defs>
    <g transform="translate(69.12 38.928)scale(0.1 -0.1)">
     <use transform="translate(0 0.015625)" xlink:href="#DejaVuSans-46"/>
     <use transform="translate(57.519531 0.015625)" xlink:href="#DejaVuSans-69"/>
     <use transform="translate(85.302734 0.015625)" xlink:href="#DejaVuSans-74"/>
     <use transform="translate(124.511719 0.015625)" xlink:href="#DejaVuSans-3a"/>
     <use transform="translate(158.203125 0.015625)" xlink:href="#DejaVuSans-20"/>
     <use transform="translate(189.990234 0.015625)" xlink:href="#DejaVuSans-61"/>
     <use transform="translate(251.269531 0.015625)" xlink:href="#DejaVuSans-3d"/>
     <use transform="translate(335.058594 0.015625)" xlink:href="#DejaVuSans-33"/>
     <use transform="translate(398.681641 0.015625)" xlink:href="#DejaVuSans-2e"/>
     <use transform="translate(430.390625 0.015625)" xlink:href="#DejaVuSans-32"/>
     <use transform="translate(494.013672 0.015625)" xlink:href="#DejaVuSans-36"/>
     <use transform="translate(557.636719 0.015625)" xlink:href="#DejaVuSans-b1"/>
     <use transform="translate(641.425781 0.015625)" xlink:href="#DejaVuSans-30"/>
     <use transform="translate(705.048828 0.015625)" xlink:href="#DejaVuSans-2e"/>
     <use transform="translate(736.726562 0.015625)" xlink:href="#DejaVuSans-37"/>
     <use transform="translate(800.349609 0.015625)" xlink:href="#DejaVuSans-36"/>
     <use transform="translate(863.972656 0.015625)" xlink:href="#DejaVuSans-2c"/>
     <use transform="translate(895.759766 0.015625)" xlink:href="#DejaVuSans-20"/>
     <use transform="translate(927.546875 0.015625)" xlink:href="#DejaVuSans-62"/>
     <use transform="translate(991.023438 0.015625)" xlink:href="#DejaVuSans-3d"/>
     <use transform="translate(1074.8125 0.015625)" xlink:href="#DejaVuSans-33"/>
     <use transform="translate(1138.435547 0.015625)" xlink:href="#DejaVuSans-2e"/>
     <use transform="translate(1170.222656 0.015625)" xlink:href="#DejaVuSans-30"/>
     <use transform="translate(1233.845703 0.015625)" xlink:href="#DejaVuSans-38"/>
     <use transform="translate(1297.46875 0.015625)" xlink:href="#DejaVuSans-b1"/>
     <use transform="translate(1381.257812 0.015625)" xlink:href="#DejaVuSans-30"/>
     <use transform="translate(1444.880859 0.015625)" xlink:href="#DejaVuSans-2e"/>
     <use transform="translate(1476.667969 0.015625)" xlink:href="#DejaVuSans-36"/>
     <use transform="translate(1540.291016 0.015625)" xlink:href="#DejaVuSans-36"/>
     <use transform="translate(1603.914062 0.015625)" xlink:href="#DejaVuSans-2c"/>
     <use transform="translate(1635.701172 0.015625)" xlink:href="#DejaVuSans-20"/>
     <use transform="translate(1667.488281 0.015625)" xlink:href="#DejaVuSans-78"/>
     <use transform="translate(1726.667969 0.015625)" xlink:href="#DejaVuSans-30"/>
     <use transform="translate(1790.291016 0.015625)" xlink:href="#DejaVuSans-3d"/>
     <use transform="translate(1874.080078 0.015625)" xlink:href="#DejaVuSans-34"/>
     <use transform="translate(1937.703125 0.015625)" xlink:href="#DejaVuSans-2e"/>
     <use transform="translate(1969.412109 0.015625)" xlink:href="#DejaVuSans-32"/>
     <use transform="translate(2033.035156 0.015625)" xlink:href="#DejaVuSans-38"/>
     <use transform="translate(2096.658203 0.015625)" xlink:href="#DejaVuSans-38"/>
     <use transform="translate(2160.28125 0.015625)" xlink:href="#DejaVuSans-b1"/>
     <use transform="translate(2244.070312 0.015625)" xlink:href="#DejaVuSans-30"/>
     <use transform="translate(2307.693359 0.015625)" xlink:href="#DejaVuSans-2e"/>
     <use transform="translate(2339.480469 0.015625)" xlink:href="#DejaVuSans-30"/>
     <use transform="translate(2403.103516 0.015625)" xlink:href="#DejaVuSans-31"/>
     <use transform="translate(2466.726562 0.015625)" xlink:href="#DejaVuSans-38"/>
     <use transform="translate(2530.349609 0.015625)" xlink:href="#DejaVuSans-2c"/>
     <use transform="translate(2562.136719 0.015625)" xlink:href="#DejaVuSans-20"/>
     <use transform="translate(2593.923828 0.015625)" xlink:href="#DejaVuSans-77"/>
     <use transform="translate(2675.710938 0.015625)" xlink:href="#DejaVuSans-3d"/>
     <use transform="translate(2759.5 0.015625)" xlink:href="#DejaVuSans-30"/>
     <use transform="translate(2823.123047 0.015625)" xlink:href="#DejaVuSans-2e"/>
     <use transform="translate(2854.910156 0.015625)" xlink:href="#DejaVuSans-31"/>
     <use transform="translate(2918.533203 0.015625)" xlink:href="#DejaVuSans-34"/>
     <use transform="translate(2982.15625 0.015625)" xlink:href="#DejaVuSans-b1"/>
     <use transform="translate(3065.945312 0.015625)" xlink:href="#DejaVuSans-30"/>
     <use transform="translate(3129.568359 0.015625)" xlink:href="#DejaVuSans-2e"/>
     <use transform="translate(3161.355469 0.015625)" xlink:href="#DejaVuSans-30"/>
     <use transform="translate(3224.978516 0.015625)" xlink:href="#DejaVuSans-34"/>
     <use transform="translate(3288.601562 0.015625)" xlink:href="#DejaVuSans-33"/>
     <use transform="translate(3352.224609 0.015625)" xlink:href="#DejaVuSans-2c"/>
    </g>
   </g>
  </g>
  <g id="axes_2">
   <g id="patch_7">
    <path d="M 69.12 311.04 
L 414.72 311.04 
L 414.72 103.68 
L 69.12 103.68 
z
" style="fill:#ffffff;"/>
   </g>
   <g id="matplotlib.axis_3">
    <g id="xtick_8">
     <g id="line2d_13">
      <g>
       <use style="stroke:#000000;stroke-width:0.8;" x="88.908534" xlink:href="#mc8969b5c94" y="311.04"/>
      </g>
     </g>
     <g id="text_5">
      <!-- 3.9 -->
      <defs>
       <path d="M 10.984375 1.515625 
L 10.984375 10.5 
Q 14.703125 8.734375 18.5 7.8125 
Q 22.3125 6.890625 25.984375 6.890625 
Q 35.75 6.890625 40.890625 13.453125 
Q 46.046875 20.015625 46.78125 33.40625 
Q 43.953125 29.203125 39.59375 26.953125 
Q 35.25 24.703125 29.984375 24.703125 
Q 19.046875 24.703125 12.671875 31.3125 
Q 6.296875 37.9375 6.296875 49.421875 
Q 6.296875 60.640625 12.9375 67.421875 
Q 19.578125 74.21875 30.609375 74.21875 
Q 43.265625 74.21875 49.921875 64.515625 
Q 56.59375 54.828125 56.59375 36.375 
Q 56.59375 19.140625 48.40625 8.859375 
Q 40.234375 -1.421875 26.421875 -1.421875 
Q 22.703125 -1.421875 18.890625 -0.6875 
Q 15.09375 0.046875 10.984375 1.515625 
z
M 30.609375 32.421875 
Q 37.25 32.421875 41.125 36.953125 
Q 45.015625 41.5 45.015625 49.421875 
Q 45.015625 57.28125 41.125 61.84375 
Q 37.25 66.40625 30.609375 66.40625 
Q 23.96875 66.40625 20.09375 61.84375 
Q 16.21875 57.28125 16.21875 49.421875 
Q 16.21875 41.5 20.09375 36.953125 
Q 23.96875 32.421875 30.609375 32.421875 
z
" id="DejaVuSans-39"/>
      </defs>
      <g transform="translate(76.98119 329.437656)scale(0.15 -0.15)">
       <use xlink:href="#DejaVuSans-33"/>
       <use x="63.623047" xlink:href="#DejaVuSans-2e"/>
       <use x="95.410156" xlink:href="#DejaVuSans-39"/>
      </g>
     </g>
    </g>
    <g id="xtick_9">
     <g id="line2d_14">
      <g>
       <use style="stroke:#000000;stroke-width:0.8;" x="138.716369" xlink:href="#mc8969b5c94" y="311.04"/>
      </g>
     </g>
     <g id="text_6">
      <!-- 4.0 -->
      <g transform="translate(126.789025 329.437656)scale(0.15 -0.15)">
       <use xlink:href="#DejaVuSans-34"/>
       <use x="63.623047" xlink:href="#DejaVuSans-2e"/>
       <use x="95.410156" xlink:href="#DejaVuSans-30"/>
      </g>
     </g>
    </g>
    <g id="xtick_10">
     <g id="line2d_15">
      <g>
       <use style="stroke:#000000;stroke-width:0.8;" x="188.524204" xlink:href="#mc8969b5c94" y="311.04"/>
      </g>
     </g>
     <g id="text_7">
      <!-- 4.1 -->
      <g transform="translate(176.596861 329.437656)scale(0.15 -0.15)">
       <use xlink:href="#DejaVuSans-34"/>
       <use x="63.623047" xlink:href="#DejaVuSans-2e"/>
       <use x="95.410156" xlink:href="#DejaVuSans-31"/>
      </g>
     </g>
    </g>
    <g id="xtick_11">
     <g id="line2d_16">
      <g>
       <use style="stroke:#000000;stroke-width:0.8;" x="238.332039" xlink:href="#mc8969b5c94" y="311.04"/>
      </g>
     </g>
     <g id="text_8">
      <!-- 4.2 -->
      <g transform="translate(226.404696 329.437656)scale(0.15 -0.15)">
       <use xlink:href="#DejaVuSans-34"/>
       <use x="63.623047" xlink:href="#DejaVuSans-2e"/>
       <use x="95.410156" xlink:href="#DejaVuSans-32"/>
      </g>
     </g>
    </g>
    <g id="xtick_12">
     <g id="line2d_17">
      <g>
       <use style="stroke:#000000;stroke-width:0.8;" x="288.139874" xlink:href="#mc8969b5c94" y="311.04"/>
      </g>
     </g>
     <g id="text_9">
      <!-- 4.3 -->
      <g transform="translate(276.212531 329.437656)scale(0.15 -0.15)">
       <use xlink:href="#DejaVuSans-34"/>
       <use x="63.623047" xlink:href="#DejaVuSans-2e"/>
       <use x="95.410156" xlink:href="#DejaVuSans-33"/>
      </g>
     </g>
    </g>
    <g id="xtick_13">
     <g id="line2d_18">
      <g>
       <use style="stroke:#000000;stroke-width:0.8;" x="337.94771" xlink:href="#mc8969b5c94" y="311.04"/>
      </g>
     </g>
     <g id="text_10">
      <!-- 4.4 -->
      <g transform="translate(326.020366 329.437656)scale(0.15 -0.15)">
       <use xlink:href="#DejaVuSans-34"/>
       <use x="63.623047" xlink:href="#DejaVuSans-2e"/>
       <use x="95.410156" xlink:href="#DejaVuSans-34"/>
      </g>
     </g>
    </g>
    <g id="xtick_14">
     <g id="line2d_19">
      <g>
       <use style="stroke:#000000;stroke-width:0.8;" x="387.755545" xlink:href="#mc8969b5c94" y="311.04"/>
      </g>
     </g>
     <g id="text_11">
      <!-- 4.5 -->
      <defs>
       <path d="M 10.796875 72.90625 
L 49.515625 72.90625 
L 49.515625 64.59375 
L 19.828125 64.59375 
L 19.828125 46.734375 
Q 21.96875 47.46875 24.109375 47.828125 
Q 26.265625 48.1875 28.421875 48.1875 
Q 40.625 48.1875 47.75 41.5 
Q 54.890625 34.8125 54.890625 23.390625 
Q 54.890625 11.625 47.5625 5.09375 
Q 40.234375 -1.421875 26.90625 -1.421875 
Q 22.3125 -1.421875 17.546875 -0.640625 
Q 12.796875 0.140625 7.71875 1.703125 
L 7.71875 11.625 
Q 12.109375 9.234375 16.796875 8.0625 
Q 21.484375 6.890625 26.703125 6.890625 
Q 35.15625 6.890625 40.078125 11.328125 
Q 45.015625 15.765625 45.015625 23.390625 
Q 45.015625 31 40.078125 35.4375 
Q 35.15625 39.890625 26.703125 39.890625 
Q 22.75 39.890625 18.8125 39.015625 
Q 14.890625 38.140625 10.796875 36.28125 
z
" id="DejaVuSans-35"/>
      </defs>
      <g transform="translate(375.828201 329.437656)scale(0.15 -0.15)">
       <use xlink:href="#DejaVuSans-34"/>
       <use x="63.623047" xlink:href="#DejaVuSans-2e"/>
       <use x="95.410156" xlink:href="#DejaVuSans-35"/>
      </g>
     </g>
    </g>
    <g id="text_12">
     <!-- Energy [MeV] -->
     <defs>
      <path d="M 9.8125 72.90625 
L 55.90625 72.90625 
L 55.90625 64.59375 
L 19.671875 64.59375 
L 19.671875 43.015625 
L 54.390625 43.015625 
L 54.390625 34.71875 
L 19.671875 34.71875 
L 19.671875 8.296875 
L 56.78125 8.296875 
L 56.78125 0 
L 9.8125 0 
z
" id="DejaVuSans-45"/>
      <path d="M 41.109375 46.296875 
Q 39.59375 47.171875 37.8125 47.578125 
Q 36.03125 48 33.890625 48 
Q 26.265625 48 22.1875 43.046875 
Q 18.109375 38.09375 18.109375 28.8125 
L 18.109375 0 
L 9.078125 0 
L 9.078125 54.6875 
L 18.109375 54.6875 
L 18.109375 46.1875 
Q 20.953125 51.171875 25.484375 53.578125 
Q 30.03125 56 36.53125 56 
Q 37.453125 56 38.578125 55.875 
Q 39.703125 55.765625 41.0625 55.515625 
z
" id="DejaVuSans-72"/>
      <path d="M 45.40625 27.984375 
Q 45.40625 37.75 41.375 43.109375 
Q 37.359375 48.484375 30.078125 48.484375 
Q 22.859375 48.484375 18.828125 43.109375 
Q 14.796875 37.75 14.796875 27.984375 
Q 14.796875 18.265625 18.828125 12.890625 
Q 22.859375 7.515625 30.078125 7.515625 
Q 37.359375 7.515625 41.375 12.890625 
Q 45.40625 18.265625 45.40625 27.984375 
z
M 54.390625 6.78125 
Q 54.390625 -7.171875 48.1875 -13.984375 
Q 42 -20.796875 29.203125 -20.796875 
Q 24.46875 -20.796875 20.265625 -20.09375 
Q 16.0625 -19.390625 12.109375 -17.921875 
L 12.109375 -9.1875 
Q 16.0625 -11.328125 19.921875 -12.34375 
Q 23.78125 -13.375 27.78125 -13.375 
Q 36.625 -13.375 41.015625 -8.765625 
Q 45.40625 -4.15625 45.40625 5.171875 
L 45.40625 9.625 
Q 42.625 4.78125 38.28125 2.390625 
Q 33.9375 0 27.875 0 
Q 17.828125 0 11.671875 7.65625 
Q 5.515625 15.328125 5.515625 27.984375 
Q 5.515625 40.671875 11.671875 48.328125 
Q 17.828125 56 27.875 56 
Q 33.9375 56 38.28125 53.609375 
Q 42.625 51.21875 45.40625 46.390625 
L 45.40625 54.6875 
L 54.390625 54.6875 
z
" id="DejaVuSans-67"/>
      <path d="M 8.59375 75.984375 
L 29.296875 75.984375 
L 29.296875 69 
L 17.578125 69 
L 17.578125 -6.203125 
L 29.296875 -6.203125 
L 29.296875 -13.1875 
L 8.59375 -13.1875 
z
" id="DejaVuSans-5b"/>
      <path d="M 9.8125 72.90625 
L 24.515625 72.90625 
L 43.109375 23.296875 
L 61.8125 72.90625 
L 76.515625 72.90625 
L 76.515625 0 
L 66.890625 0 
L 66.890625 64.015625 
L 48.09375 14.015625 
L 38.1875 14.015625 
L 19.390625 64.015625 
L 19.390625 0 
L 9.8125 0 
z
" id="DejaVuSans-4d"/>
      <path d="M 28.609375 0 
L 0.78125 72.90625 
L 11.078125 72.90625 
L 34.1875 11.53125 
L 57.328125 72.90625 
L 67.578125 72.90625 
L 39.796875 0 
z
" id="DejaVuSans-56"/>
      <path d="M 30.421875 75.984375 
L 30.421875 -13.1875 
L 9.71875 -13.1875 
L 9.71875 -6.203125 
L 21.390625 -6.203125 
L 21.390625 69 
L 9.71875 69 
L 9.71875 75.984375 
z
" id="DejaVuSans-5d"/>
     </defs>
     <g transform="translate(191.078203 347.954844)scale(0.15 -0.15)">
      <use xlink:href="#DejaVuSans-45"/>
      <use x="63.183594" xlink:href="#DejaVuSans-6e"/>
      <use x="126.5625" xlink:href="#DejaVuSans-65"/>
      <use x="188.085938" xlink:href="#DejaVuSans-72"/>
      <use x="229.183594" xlink:href="#DejaVuSans-67"/>
      <use x="292.660156" xlink:href="#DejaVuSans-79"/>
      <use x="351.839844" xlink:href="#DejaVuSans-20"/>
      <use x="383.626953" xlink:href="#DejaVuSans-5b"/>
      <use x="422.640625" xlink:href="#DejaVuSans-4d"/>
      <use x="508.919922" xlink:href="#DejaVuSans-65"/>
      <use x="570.443359" xlink:href="#DejaVuSans-56"/>
      <use x="638.851562" xlink:href="#DejaVuSans-5d"/>
     </g>
    </g>
   </g>
   <g id="matplotlib.axis_4">
    <g id="ytick_4">
     <g id="line2d_20">
      <g>
       <use style="stroke:#000000;stroke-width:0.8;" x="69.12" xlink:href="#m422e063cc0" y="279.36"/>
      </g>
     </g>
     <g id="text_13">
      <!-- 4 -->
      <g transform="translate(52.57625 285.058828)scale(0.15 -0.15)">
       <use xlink:href="#DejaVuSans-34"/>
      </g>
     </g>
    </g>
    <g id="ytick_5">
     <g id="line2d_21">
      <g>
       <use style="stroke:#000000;stroke-width:0.8;" x="69.12" xlink:href="#m422e063cc0" y="231.36"/>
      </g>
     </g>
     <g id="text_14">
      <!-- 6 -->
      <g transform="translate(52.57625 237.058828)scale(0.15 -0.15)">
       <use xlink:href="#DejaVuSans-36"/>
      </g>
     </g>
    </g>
    <g id="ytick_6">
     <g id="line2d_22">
      <g>
       <use style="stroke:#000000;stroke-width:0.8;" x="69.12" xlink:href="#m422e063cc0" y="183.36"/>
      </g>
     </g>
     <g id="text_15">
      <!-- 8 -->
      <g transform="translate(52.57625 189.058828)scale(0.15 -0.15)">
       <use xlink:href="#DejaVuSans-38"/>
      </g>
     </g>
    </g>
    <g id="ytick_7">
     <g id="line2d_23">
      <g>
       <use style="stroke:#000000;stroke-width:0.8;" x="69.12" xlink:href="#m422e063cc0" y="135.36"/>
      </g>
     </g>
     <g id="text_16">
      <!-- 10 -->
      <g transform="translate(43.0325 141.058828)scale(0.15 -0.15)">
       <use xlink:href="#DejaVuSans-31"/>
       <use x="63.623047" xlink:href="#DejaVuSans-30"/>
      </g>
     </g>
    </g>
    <g id="text_17">
     <!-- Counts -->
     <defs>
      <path d="M 64.40625 67.28125 
L 64.40625 56.890625 
Q 59.421875 61.53125 53.78125 63.8125 
Q 48.140625 66.109375 41.796875 66.109375 
Q 29.296875 66.109375 22.65625 58.46875 
Q 16.015625 50.828125 16.015625 36.375 
Q 16.015625 21.96875 22.65625 14.328125 
Q 29.296875 6.6875 41.796875 6.6875 
Q 48.140625 6.6875 53.78125 8.984375 
Q 59.421875 11.28125 64.40625 15.921875 
L 64.40625 5.609375 
Q 59.234375 2.09375 53.4375 0.328125 
Q 47.65625 -1.421875 41.21875 -1.421875 
Q 24.65625 -1.421875 15.125 8.703125 
Q 5.609375 18.84375 5.609375 36.375 
Q 5.609375 53.953125 15.125 64.078125 
Q 24.65625 74.21875 41.21875 74.21875 
Q 47.75 74.21875 53.53125 72.484375 
Q 59.328125 70.75 64.40625 67.28125 
z
" id="DejaVuSans-43"/>
     </defs>
     <g transform="translate(35.912969 233.539687)rotate(-90)scale(0.15 -0.15)">
      <use xlink:href="#DejaVuSans-43"/>
      <use x="69.824219" xlink:href="#DejaVuSans-6f"/>
      <use x="131.005859" xlink:href="#DejaVuSans-75"/>
      <use x="194.384766" xlink:href="#DejaVuSans-6e"/>
      <use x="257.763672" xlink:href="#DejaVuSans-74"/>
      <use x="296.972656" xlink:href="#DejaVuSans-73"/>
     </g>
    </g>
   </g>
   <g id="LineCollection_2">
    <path clip-path="url(#ped17e898a8)" d="M 81.92 336.259889 
L 81.92 246.460111 
" style="fill:none;stroke:#0000ff;stroke-width:1.5;"/>
    <path clip-path="url(#ped17e898a8)" d="M 123.401481 336.259889 
L 123.401481 246.460111 
" style="fill:none;stroke:#0000ff;stroke-width:1.5;"/>
    <path clip-path="url(#ped17e898a8)" d="M 126.364444 318.271688 
L 126.364444 216.448312 
" style="fill:none;stroke:#0000ff;stroke-width:1.5;"/>
    <path clip-path="url(#ped17e898a8)" d="M 132.29037 344.929219 
L 132.29037 261.790781 
" style="fill:none;stroke:#0000ff;stroke-width:1.5;"/>
    <path clip-path="url(#ped17e898a8)" d="M 147.105185 344.929219 
L 147.105185 261.790781 
" style="fill:none;stroke:#0000ff;stroke-width:1.5;"/>
    <path clip-path="url(#ped17e898a8)" d="M 150.068148 344.929219 
L 150.068148 261.790781 
" style="fill:none;stroke:#0000ff;stroke-width:1.5;"/>
    <path clip-path="url(#ped17e898a8)" d="M 158.957037 344.929219 
L 158.957037 261.790781 
" style="fill:none;stroke:#0000ff;stroke-width:1.5;"/>
    <path clip-path="url(#ped17e898a8)" d="M 161.92 344.929219 
L 161.92 261.790781 
" style="fill:none;stroke:#0000ff;stroke-width:1.5;"/>
    <path clip-path="url(#ped17e898a8)" d="M 182.660741 336.259889 
L 182.660741 246.460111 
" style="fill:none;stroke:#0000ff;stroke-width:1.5;"/>
    <path clip-path="url(#ped17e898a8)" d="M 185.623704 344.929219 
L 185.623704 261.790781 
" style="fill:none;stroke:#0000ff;stroke-width:1.5;"/>
    <path clip-path="url(#ped17e898a8)" d="M 188.586667 336.259889 
L 188.586667 246.460111 
" style="fill:none;stroke:#0000ff;stroke-width:1.5;"/>
    <path clip-path="url(#ped17e898a8)" d="M 191.54963 344.929219 
L 191.54963 261.790781 
" style="fill:none;stroke:#0000ff;stroke-width:1.5;"/>
    <path clip-path="url(#ped17e898a8)" d="M 194.512593 318.271688 
L 194.512593 216.448312 
" style="fill:none;stroke:#0000ff;stroke-width:1.5;"/>
    <path clip-path="url(#ped17e898a8)" d="M 200.438519 318.271688 
L 200.438519 216.448312 
" style="fill:none;stroke:#0000ff;stroke-width:1.5;"/>
    <path clip-path="url(#ped17e898a8)" d="M 203.401481 318.271688 
L 203.401481 216.448312 
" style="fill:none;stroke:#0000ff;stroke-width:1.5;"/>
    <path clip-path="url(#ped17e898a8)" d="M 209.327407 309.025631 
L 209.327407 201.694369 
" style="fill:none;stroke:#0000ff;stroke-width:1.5;"/>
    <path clip-path="url(#ped17e898a8)" d="M 212.29037 327.36 
L 212.29037 231.36 
" style="fill:none;stroke:#0000ff;stroke-width:1.5;"/>
    <path clip-path="url(#ped17e898a8)" d="M 215.253333 309.025631 
L 215.253333 201.694369 
" style="fill:none;stroke:#0000ff;stroke-width:1.5;"/>
    <path clip-path="url(#ped17e898a8)" d="M 218.216296 344.929219 
L 218.216296 261.790781 
" style="fill:none;stroke:#0000ff;stroke-width:1.5;"/>
    <path clip-path="url(#ped17e898a8)" d="M 221.179259 327.36 
L 221.179259 231.36 
" style="fill:none;stroke:#0000ff;stroke-width:1.5;"/>
    <path clip-path="url(#ped17e898a8)" d="M 224.142222 290.147754 
L 224.142222 172.572246 
" style="fill:none;stroke:#0000ff;stroke-width:1.5;"/>
    <path clip-path="url(#ped17e898a8)" d="M 227.105185 309.025631 
L 227.105185 201.694369 
" style="fill:none;stroke:#0000ff;stroke-width:1.5;"/>
    <path clip-path="url(#ped17e898a8)" d="M 230.068148 299.644989 
L 230.068148 187.075011 
" style="fill:none;stroke:#0000ff;stroke-width:1.5;"/>
    <path clip-path="url(#ped17e898a8)" d="M 233.031111 318.271688 
L 233.031111 216.448312 
" style="fill:none;stroke:#0000ff;stroke-width:1.5;"/>
    <path clip-path="url(#ped17e898a8)" d="M 235.994074 318.271688 
L 235.994074 216.448312 
" style="fill:none;stroke:#0000ff;stroke-width:1.5;"/>
    <path clip-path="url(#ped17e898a8)" d="M 238.957037 290.147754 
L 238.957037 172.572246 
" style="fill:none;stroke:#0000ff;stroke-width:1.5;"/>
    <path clip-path="url(#ped17e898a8)" d="M 241.92 309.025631 
L 241.92 201.694369 
" style="fill:none;stroke:#0000ff;stroke-width:1.5;"/>
    <path clip-path="url(#ped17e898a8)" d="M 244.882963 299.644989 
L 244.882963 187.075011 
" style="fill:none;stroke:#0000ff;stroke-width:1.5;"/>
    <path clip-path="url(#ped17e898a8)" d="M 247.845926 221.332968 
L 247.845926 73.387032 
" style="fill:none;stroke:#0000ff;stroke-width:1.5;"/>
    <path clip-path="url(#ped17e898a8)" d="M 250.808889 299.644989 
L 250.808889 187.075011 
" style="fill:none;stroke:#0000ff;stroke-width:1.5;"/>
    <path clip-path="url(#ped17e898a8)" d="M 253.771852 270.858031 
L 253.771852 143.861969 
" style="fill:none;stroke:#0000ff;stroke-width:1.5;"/>
    <path clip-path="url(#ped17e898a8)" d="M 256.734815 261.086707 
L 256.734815 129.633293 
" style="fill:none;stroke:#0000ff;stroke-width:1.5;"/>
    <path clip-path="url(#ped17e898a8)" d="M 259.697778 309.025631 
L 259.697778 201.694369 
" style="fill:none;stroke:#0000ff;stroke-width:1.5;"/>
    <path clip-path="url(#ped17e898a8)" d="M 262.660741 261.086707 
L 262.660741 129.633293 
" style="fill:none;stroke:#0000ff;stroke-width:1.5;"/>
    <path clip-path="url(#ped17e898a8)" d="M 265.623704 309.025631 
L 265.623704 201.694369 
" style="fill:none;stroke:#0000ff;stroke-width:1.5;"/>
    <path clip-path="url(#ped17e898a8)" d="M 268.586667 270.858031 
L 268.586667 143.861969 
" style="fill:none;stroke:#0000ff;stroke-width:1.5;"/>
    <path clip-path="url(#ped17e898a8)" d="M 271.54963 309.025631 
L 271.54963 201.694369 
" style="fill:none;stroke:#0000ff;stroke-width:1.5;"/>
    <path clip-path="url(#ped17e898a8)" d="M 274.512593 290.147754 
L 274.512593 172.572246 
" style="fill:none;stroke:#0000ff;stroke-width:1.5;"/>
    <path clip-path="url(#ped17e898a8)" d="M 277.475556 261.086707 
L 277.475556 129.633293 
" style="fill:none;stroke:#0000ff;stroke-width:1.5;"/>
    <path clip-path="url(#ped17e898a8)" d="M 280.438519 290.147754 
L 280.438519 172.572246 
" style="fill:none;stroke:#0000ff;stroke-width:1.5;"/>
    <path clip-path="url(#ped17e898a8)" d="M 283.401481 270.858031 
L 283.401481 143.861969 
" style="fill:none;stroke:#0000ff;stroke-width:1.5;"/>
    <path clip-path="url(#ped17e898a8)" d="M 286.364444 290.147754 
L 286.364444 172.572246 
" style="fill:none;stroke:#0000ff;stroke-width:1.5;"/>
    <path clip-path="url(#ped17e898a8)" d="M 289.327407 261.086707 
L 289.327407 129.633293 
" style="fill:none;stroke:#0000ff;stroke-width:1.5;"/>
    <path clip-path="url(#ped17e898a8)" d="M 292.29037 318.271688 
L 292.29037 216.448312 
" style="fill:none;stroke:#0000ff;stroke-width:1.5;"/>
    <path clip-path="url(#ped17e898a8)" d="M 295.253333 309.025631 
L 295.253333 201.694369 
" style="fill:none;stroke:#0000ff;stroke-width:1.5;"/>
    <path clip-path="url(#ped17e898a8)" d="M 298.216296 270.858031 
L 298.216296 143.861969 
" style="fill:none;stroke:#0000ff;stroke-width:1.5;"/>
    <path clip-path="url(#ped17e898a8)" d="M 301.179259 299.644989 
L 301.179259 187.075011 
" style="fill:none;stroke:#0000ff;stroke-width:1.5;"/>
    <path clip-path="url(#ped17e898a8)" d="M 304.142222 290.147754 
L 304.142222 172.572246 
" style="fill:none;stroke:#0000ff;stroke-width:1.5;"/>
    <path clip-path="url(#ped17e898a8)" d="M 307.105185 290.147754 
L 307.105185 172.572246 
" style="fill:none;stroke:#0000ff;stroke-width:1.5;"/>
    <path clip-path="url(#ped17e898a8)" d="M 310.068148 318.271688 
L 310.068148 216.448312 
" style="fill:none;stroke:#0000ff;stroke-width:1.5;"/>
    <path clip-path="url(#ped17e898a8)" d="M 313.031111 290.147754 
L 313.031111 172.572246 
" style="fill:none;stroke:#0000ff;stroke-width:1.5;"/>
    <path clip-path="url(#ped17e898a8)" d="M 315.994074 309.025631 
L 315.994074 201.694369 
" style="fill:none;stroke:#0000ff;stroke-width:1.5;"/>
    <path clip-path="url(#ped17e898a8)" d="M 318.957037 290.147754 
L 318.957037 172.572246 
" style="fill:none;stroke:#0000ff;stroke-width:1.5;"/>
    <path clip-path="url(#ped17e898a8)" d="M 321.92 211.254664 
L 321.92 59.465336 
" style="fill:none;stroke:#0000ff;stroke-width:1.5;"/>
    <path clip-path="url(#ped17e898a8)" d="M 324.882963 190.958995 
L 324.882963 31.761005 
" style="fill:none;stroke:#0000ff;stroke-width:1.5;"/>
    <path clip-path="url(#ped17e898a8)" d="M 330.808889 299.644989 
L 330.808889 187.075011 
" style="fill:none;stroke:#0000ff;stroke-width:1.5;"/>
    <path clip-path="url(#ped17e898a8)" d="M 333.771852 299.644989 
L 333.771852 187.075011 
" style="fill:none;stroke:#0000ff;stroke-width:1.5;"/>
    <path clip-path="url(#ped17e898a8)" d="M 336.734815 309.025631 
L 336.734815 201.694369 
" style="fill:none;stroke:#0000ff;stroke-width:1.5;"/>
    <path clip-path="url(#ped17e898a8)" d="M 339.697778 290.147754 
L 339.697778 172.572246 
" style="fill:none;stroke:#0000ff;stroke-width:1.5;"/>
    <path clip-path="url(#ped17e898a8)" d="M 342.660741 344.929219 
L 342.660741 261.790781 
" style="fill:none;stroke:#0000ff;stroke-width:1.5;"/>
    <path clip-path="url(#ped17e898a8)" d="M 345.623704 327.36 
L 345.623704 231.36 
" style="fill:none;stroke:#0000ff;stroke-width:1.5;"/>
    <path clip-path="url(#ped17e898a8)" d="M 348.586667 318.271688 
L 348.586667 216.448312 
" style="fill:none;stroke:#0000ff;stroke-width:1.5;"/>
    <path clip-path="url(#ped17e898a8)" d="M 351.54963 299.644989 
L 351.54963 187.075011 
" style="fill:none;stroke:#0000ff;stroke-width:1.5;"/>
    <path clip-path="url(#ped17e898a8)" d="M 354.512593 344.929219 
L 354.512593 261.790781 
" style="fill:none;stroke:#0000ff;stroke-width:1.5;"/>
    <path clip-path="url(#ped17e898a8)" d="M 357.475556 309.025631 
L 357.475556 201.694369 
" style="fill:none;stroke:#0000ff;stroke-width:1.5;"/>
    <path clip-path="url(#ped17e898a8)" d="M 360.438519 344.929219 
L 360.438519 261.790781 
" style="fill:none;stroke:#0000ff;stroke-width:1.5;"/>
    <path clip-path="url(#ped17e898a8)" d="M 363.401481 336.259889 
L 363.401481 246.460111 
" style="fill:none;stroke:#0000ff;stroke-width:1.5;"/>
    <path clip-path="url(#ped17e898a8)" d="M 366.364444 318.271688 
L 366.364444 216.448312 
" style="fill:none;stroke:#0000ff;stroke-width:1.5;"/>
    <path clip-path="url(#ped17e898a8)" d="M 369.327407 327.36 
L 369.327407 231.36 
" style="fill:none;stroke:#0000ff;stroke-width:1.5;"/>
    <path clip-path="url(#ped17e898a8)" d="M 375.253333 327.36 
L 375.253333 231.36 
" style="fill:none;stroke:#0000ff;stroke-width:1.5;"/>
    <path clip-path="url(#ped17e898a8)" d="M 378.216296 327.36 
L 378.216296 231.36 
" style="fill:none;stroke:#0000ff;stroke-width:1.5;"/>
    <path clip-path="url(#ped17e898a8)" d="M 390.068148 344.929219 
L 390.068148 261.790781 
" style="fill:none;stroke:#0000ff;stroke-width:1.5;"/>
    <path clip-path="url(#ped17e898a8)" d="M 393.031111 336.259889 
L 393.031111 246.460111 
" style="fill:none;stroke:#0000ff;stroke-width:1.5;"/>
    <path clip-path="url(#ped17e898a8)" d="M 398.957037 344.929219 
L 398.957037 261.790781 
" style="fill:none;stroke:#0000ff;stroke-width:1.5;"/>
    <path clip-path="url(#ped17e898a8)" d="M 401.92 344.929219 
L 401.92 261.790781 
" style="fill:none;stroke:#0000ff;stroke-width:1.5;"/>
   </g>
   <g id="line2d_24">
    <path clip-path="url(#ped17e898a8)" d="M 81.92 301.319049 
L 110.428509 301.163648 
L 124.842923 300.871818 
L 135.093173 300.448365 
L 143.101181 299.908295 
L 150.148228 299.214823 
L 156.234314 298.39963 
L 161.67976 297.459003 
L 166.804885 296.356469 
L 171.60969 295.101741 
L 176.094174 293.713091 
L 180.578659 292.092546 
L 184.742823 290.362981 
L 188.906987 288.40307 
L 193.071151 286.20222 
L 197.235315 283.753601 
L 201.399479 281.054991 
L 205.883964 277.873026 
L 210.368448 274.416956 
L 215.173253 270.434079 
L 220.618699 265.618361 
L 227.025105 259.643975 
L 246.884965 240.887774 
L 251.68977 236.806053 
L 255.853934 233.572183 
L 259.377457 231.104465 
L 262.580661 229.106061 
L 265.783864 227.365664 
L 268.666747 226.037445 
L 271.54963 224.94865 
L 274.432513 224.110273 
L 276.995075 223.582236 
L 279.557638 223.26312 
L 282.1202 223.155517 
L 284.682763 223.260304 
L 287.245325 223.576628 
L 289.807888 224.101916 
L 292.690771 224.937285 
L 295.573654 226.023186 
L 298.456537 227.348654 
L 301.65974 229.086194 
L 304.862943 231.081981 
L 308.386466 233.547127 
L 312.23031 236.518896 
L 316.394474 240.016208 
L 321.5196 244.624281 
L 328.566647 251.296763 
L 342.660741 264.709214 
L 348.426507 269.853644 
L 353.551632 274.132768 
L 358.356436 277.847836 
L 362.840921 281.031934 
L 367.325405 283.929971 
L 371.48957 286.361426 
L 375.653734 288.545442 
L 379.817898 290.489138 
L 384.302382 292.326065 
L 388.786867 293.914047 
L 393.271351 295.272937 
L 398.076156 296.499066 
L 401.92 297.326649 
L 401.92 297.326649 
" style="fill:none;stroke:#ff0000;stroke-linecap:square;stroke-width:1.5;"/>
   </g>
   <g id="line2d_25">
    <g clip-path="url(#ped17e898a8)">
     <use style="fill:#0000ff;stroke:#0000ff;" x="81.92" xlink:href="#md3bccb76ad" y="291.36"/>
     <use style="fill:#0000ff;stroke:#0000ff;" x="123.401481" xlink:href="#md3bccb76ad" y="291.36"/>
     <use style="fill:#0000ff;stroke:#0000ff;" x="126.364444" xlink:href="#md3bccb76ad" y="267.36"/>
     <use style="fill:#0000ff;stroke:#0000ff;" x="132.29037" xlink:href="#md3bccb76ad" y="303.36"/>
     <use style="fill:#0000ff;stroke:#0000ff;" x="147.105185" xlink:href="#md3bccb76ad" y="303.36"/>
     <use style="fill:#0000ff;stroke:#0000ff;" x="150.068148" xlink:href="#md3bccb76ad" y="303.36"/>
     <use style="fill:#0000ff;stroke:#0000ff;" x="158.957037" xlink:href="#md3bccb76ad" y="303.36"/>
     <use style="fill:#0000ff;stroke:#0000ff;" x="161.92" xlink:href="#md3bccb76ad" y="303.36"/>
     <use style="fill:#0000ff;stroke:#0000ff;" x="182.660741" xlink:href="#md3bccb76ad" y="291.36"/>
     <use style="fill:#0000ff;stroke:#0000ff;" x="185.623704" xlink:href="#md3bccb76ad" y="303.36"/>
     <use style="fill:#0000ff;stroke:#0000ff;" x="188.586667" xlink:href="#md3bccb76ad" y="291.36"/>
     <use style="fill:#0000ff;stroke:#0000ff;" x="191.54963" xlink:href="#md3bccb76ad" y="303.36"/>
     <use style="fill:#0000ff;stroke:#0000ff;" x="194.512593" xlink:href="#md3bccb76ad" y="267.36"/>
     <use style="fill:#0000ff;stroke:#0000ff;" x="200.438519" xlink:href="#md3bccb76ad" y="267.36"/>
     <use style="fill:#0000ff;stroke:#0000ff;" x="203.401481" xlink:href="#md3bccb76ad" y="267.36"/>
     <use style="fill:#0000ff;stroke:#0000ff;" x="209.327407" xlink:href="#md3bccb76ad" y="255.36"/>
     <use style="fill:#0000ff;stroke:#0000ff;" x="212.29037" xlink:href="#md3bccb76ad" y="279.36"/>
     <use style="fill:#0000ff;stroke:#0000ff;" x="215.253333" xlink:href="#md3bccb76ad" y="255.36"/>
     <use style="fill:#0000ff;stroke:#0000ff;" x="218.216296" xlink:href="#md3bccb76ad" y="303.36"/>
     <use style="fill:#0000ff;stroke:#0000ff;" x="221.179259" xlink:href="#md3bccb76ad" y="279.36"/>
     <use style="fill:#0000ff;stroke:#0000ff;" x="224.142222" xlink:href="#md3bccb76ad" y="231.36"/>
     <use style="fill:#0000ff;stroke:#0000ff;" x="227.105185" xlink:href="#md3bccb76ad" y="255.36"/>
     <use style="fill:#0000ff;stroke:#0000ff;" x="230.068148" xlink:href="#md3bccb76ad" y="243.36"/>
     <use style="fill:#0000ff;stroke:#0000ff;" x="233.031111" xlink:href="#md3bccb76ad" y="267.36"/>
     <use style="fill:#0000ff;stroke:#0000ff;" x="235.994074" xlink:href="#md3bccb76ad" y="267.36"/>
     <use style="fill:#0000ff;stroke:#0000ff;" x="238.957037" xlink:href="#md3bccb76ad" y="231.36"/>
     <use style="fill:#0000ff;stroke:#0000ff;" x="241.92" xlink:href="#md3bccb76ad" y="255.36"/>
     <use style="fill:#0000ff;stroke:#0000ff;" x="244.882963" xlink:href="#md3bccb76ad" y="243.36"/>
     <use style="fill:#0000ff;stroke:#0000ff;" x="247.845926" xlink:href="#md3bccb76ad" y="147.36"/>
     <use style="fill:#0000ff;stroke:#0000ff;" x="250.808889" xlink:href="#md3bccb76ad" y="243.36"/>
     <use style="fill:#0000ff;stroke:#0000ff;" x="253.771852" xlink:href="#md3bccb76ad" y="207.36"/>
     <use style="fill:#0000ff;stroke:#0000ff;" x="256.734815" xlink:href="#md3bccb76ad" y="195.36"/>
     <use style="fill:#0000ff;stroke:#0000ff;" x="259.697778" xlink:href="#md3bccb76ad" y="255.36"/>
     <use style="fill:#0000ff;stroke:#0000ff;" x="262.660741" xlink:href="#md3bccb76ad" y="195.36"/>
     <use style="fill:#0000ff;stroke:#0000ff;" x="265.623704" xlink:href="#md3bccb76ad" y="255.36"/>
     <use style="fill:#0000ff;stroke:#0000ff;" x="268.586667" xlink:href="#md3bccb76ad" y="207.36"/>
     <use style="fill:#0000ff;stroke:#0000ff;" x="271.54963" xlink:href="#md3bccb76ad" y="255.36"/>
     <use style="fill:#0000ff;stroke:#0000ff;" x="274.512593" xlink:href="#md3bccb76ad" y="231.36"/>
     <use style="fill:#0000ff;stroke:#0000ff;" x="277.475556" xlink:href="#md3bccb76ad" y="195.36"/>
     <use style="fill:#0000ff;stroke:#0000ff;" x="280.438519" xlink:href="#md3bccb76ad" y="231.36"/>
     <use style="fill:#0000ff;stroke:#0000ff;" x="283.401481" xlink:href="#md3bccb76ad" y="207.36"/>
     <use style="fill:#0000ff;stroke:#0000ff;" x="286.364444" xlink:href="#md3bccb76ad" y="231.36"/>
     <use style="fill:#0000ff;stroke:#0000ff;" x="289.327407" xlink:href="#md3bccb76ad" y="195.36"/>
     <use style="fill:#0000ff;stroke:#0000ff;" x="292.29037" xlink:href="#md3bccb76ad" y="267.36"/>
     <use style="fill:#0000ff;stroke:#0000ff;" x="295.253333" xlink:href="#md3bccb76ad" y="255.36"/>
     <use style="fill:#0000ff;stroke:#0000ff;" x="298.216296" xlink:href="#md3bccb76ad" y="207.36"/>
     <use style="fill:#0000ff;stroke:#0000ff;" x="301.179259" xlink:href="#md3bccb76ad" y="243.36"/>
     <use style="fill:#0000ff;stroke:#0000ff;" x="304.142222" xlink:href="#md3bccb76ad" y="231.36"/>
     <use style="fill:#0000ff;stroke:#0000ff;" x="307.105185" xlink:href="#md3bccb76ad" y="231.36"/>
     <use style="fill:#0000ff;stroke:#0000ff;" x="310.068148" xlink:href="#md3bccb76ad" y="267.36"/>
     <use style="fill:#0000ff;stroke:#0000ff;" x="313.031111" xlink:href="#md3bccb76ad" y="231.36"/>
     <use style="fill:#0000ff;stroke:#0000ff;" x="315.994074" xlink:href="#md3bccb76ad" y="255.36"/>
     <use style="fill:#0000ff;stroke:#0000ff;" x="318.957037" xlink:href="#md3bccb76ad" y="231.36"/>
     <use style="fill:#0000ff;stroke:#0000ff;" x="321.92" xlink:href="#md3bccb76ad" y="135.36"/>
     <use style="fill:#0000ff;stroke:#0000ff;" x="324.882963" xlink:href="#md3bccb76ad" y="111.36"/>
     <use style="fill:#0000ff;stroke:#0000ff;" x="330.808889" xlink:href="#md3bccb76ad" y="243.36"/>
     <use style="fill:#0000ff;stroke:#0000ff;" x="333.771852" xlink:href="#md3bccb76ad" y="243.36"/>
     <use style="fill:#0000ff;stroke:#0000ff;" x="336.734815" xlink:href="#md3bccb76ad" y="255.36"/>
     <use style="fill:#0000ff;stroke:#0000ff;" x="339.697778" xlink:href="#md3bccb76ad" y="231.36"/>
     <use style="fill:#0000ff;stroke:#0000ff;" x="342.660741" xlink:href="#md3bccb76ad" y="303.36"/>
     <use style="fill:#0000ff;stroke:#0000ff;" x="345.623704" xlink:href="#md3bccb76ad" y="279.36"/>
     <use style="fill:#0000ff;stroke:#0000ff;" x="348.586667" xlink:href="#md3bccb76ad" y="267.36"/>
     <use style="fill:#0000ff;stroke:#0000ff;" x="351.54963" xlink:href="#md3bccb76ad" y="243.36"/>
     <use style="fill:#0000ff;stroke:#0000ff;" x="354.512593" xlink:href="#md3bccb76ad" y="303.36"/>
     <use style="fill:#0000ff;stroke:#0000ff;" x="357.475556" xlink:href="#md3bccb76ad" y="255.36"/>
     <use style="fill:#0000ff;stroke:#0000ff;" x="360.438519" xlink:href="#md3bccb76ad" y="303.36"/>
     <use style="fill:#0000ff;stroke:#0000ff;" x="363.401481" xlink:href="#md3bccb76ad" y="291.36"/>
     <use style="fill:#0000ff;stroke:#0000ff;" x="366.364444" xlink:href="#md3bccb76ad" y="267.36"/>
     <use style="fill:#0000ff;stroke:#0000ff;" x="369.327407" xlink:href="#md3bccb76ad" y="279.36"/>
     <use style="fill:#0000ff;stroke:#0000ff;" x="375.253333" xlink:href="#md3bccb76ad" y="279.36"/>
     <use style="fill:#0000ff;stroke:#0000ff;" x="378.216296" xlink:href="#md3bccb76ad" y="279.36"/>
     <use style="fill:#0000ff;stroke:#0000ff;" x="390.068148" xlink:href="#md3bccb76ad" y="303.36"/>
     <use style="fill:#0000ff;stroke:#0000ff;" x="393.031111" xlink:href="#md3bccb76ad" y="291.36"/>
     <use style="fill:#0000ff;stroke:#0000ff;" x="398.957037" xlink:href="#md3bccb76ad" y="303.36"/>
     <use style="fill:#0000ff;stroke:#0000ff;" x="401.92" xlink:href="#md3bccb76ad" y="303.36"/>
    </g>
   </g>
   <g id="patch_8">
    <path d="M 69.12 311.04 
L 69.12 103.68 
" style="fill:none;stroke:#000000;stroke-linecap:square;stroke-linejoin:miter;stroke-width:0.8;"/>
   </g>
   <g id="patch_9">
    <path d="M 414.72 311.04 
L 414.72 103.68 
" style="fill:none;stroke:#000000;stroke-linecap:square;stroke-linejoin:miter;stroke-width:0.8;"/>
   </g>
   <g id="patch_10">
    <path d="M 69.12 311.04 
L 414.72 311.04 
" style="fill:none;stroke:#000000;stroke-linecap:square;stroke-linejoin:miter;stroke-width:0.8;"/>
   </g>
   <g id="patch_11">
    <path d="M 69.12 103.68 
L 414.72 103.68 
" style="fill:none;stroke:#000000;stroke-linecap:square;stroke-linejoin:miter;stroke-width:0.8;"/>
   </g>
  </g>
 </g>
 <defs>
  <clipPath id="p612fb38656">
   <rect height="51.84" width="345.6" x="69.12" y="44.928"/>
  </clipPath>
  <clipPath id="ped17e898a8">
   <rect height="207.36" width="345.6" x="69.12" y="103.68"/>
  </clipPath>
 </defs>
</svg>
