<?xml version="1.0" encoding="utf-8" standalone="no"?>
<!DOCTYPE svg PUBLIC "-//W3C//DTD SVG 1.1//EN"
  "http://www.w3.org/Graphics/SVG/1.1/DTD/svg11.dtd">
<!-- Created with matplotlib (http://matplotlib.org/) -->
<svg height="485pt" version="1.1" viewBox="0 0 983 485" width="983pt" xmlns="http://www.w3.org/2000/svg" xmlns:xlink="http://www.w3.org/1999/xlink">
 <defs>
  <style type="text/css">
*{stroke-linecap:butt;stroke-linejoin:round;}
  </style>
 </defs>
 <g id="figure_1">
  <g id="patch_1">
   <path d="M 0 485.28 
L 983.52 485.28 
L 983.52 0 
L 0 0 
z
" style="fill:#ffffff;"/>
  </g>
  <g id="axes_1">
   <g id="patch_2">
    <path d="M 147.528 135.8784 
L 885.168 135.8784 
L 885.168 63.0864 
L 147.528 63.0864 
z
" style="fill:#ffffff;"/>
   </g>
   <g id="matplotlib.axis_1">
    <g id="xtick_1">
     <g id="line2d_1">
      <defs>
       <path d="M 0 0 
L 0 3.5 
" id="m37bb4be6cb" style="stroke:#000000;stroke-width:0.8;"/>
      </defs>
      <g>
       <use style="stroke:#000000;stroke-width:0.8;" x="178.257602" xlink:href="#m37bb4be6cb" y="135.8784"/>
      </g>
     </g>
    </g>
    <g id="xtick_2">
     <g id="line2d_2">
      <g>
       <use style="stroke:#000000;stroke-width:0.8;" x="318.273805" xlink:href="#m37bb4be6cb" y="135.8784"/>
      </g>
     </g>
    </g>
    <g id="xtick_3">
     <g id="line2d_3">
      <g>
       <use style="stroke:#000000;stroke-width:0.8;" x="458.290007" xlink:href="#m37bb4be6cb" y="135.8784"/>
      </g>
     </g>
    </g>
    <g id="xtick_4">
     <g id="line2d_4">
      <g>
       <use style="stroke:#000000;stroke-width:0.8;" x="598.306209" xlink:href="#m37bb4be6cb" y="135.8784"/>
      </g>
     </g>
    </g>
    <g id="xtick_5">
     <g id="line2d_5">
      <g>
       <use style="stroke:#000000;stroke-width:0.8;" x="738.322411" xlink:href="#m37bb4be6cb" y="135.8784"/>
      </g>
     </g>
    </g>
    <g id="xtick_6">
     <g id="line2d_6">
      <g>
       <use style="stroke:#000000;stroke-width:0.8;" x="878.338614" xlink:href="#m37bb4be6cb" y="135.8784"/>
      </g>
     </g>
    </g>
   </g>
   <g id="matplotlib.axis_2">
    <g id="ytick_1">
     <g id="line2d_7">
      <defs>
       <path d="M 0 0 
L -3.5 0 
" id="m6c49b335d1" style="stroke:#000000;stroke-width:0.8;"/>
      </defs>
      <g>
       <use style="stroke:#000000;stroke-width:0.8;" x="147.528" xlink:href="#m6c49b335d1" y="124.586736"/>
      </g>
     </g>
     <g id="text_1">
      <!-- −2 -->
      <defs>
       <path d="M 10.59375 35.5 
L 73.1875 35.5 
L 73.1875 27.203125 
L 10.59375 27.203125 
z
" id="DejaVuSans-2212"/>
       <path d="M 19.1875 8.296875 
L 53.609375 8.296875 
L 53.609375 0 
L 7.328125 0 
L 7.328125 8.296875 
Q 12.9375 14.109375 22.625 23.890625 
Q 32.328125 33.6875 34.8125 36.53125 
Q 39.546875 41.84375 41.421875 45.53125 
Q 43.3125 49.21875 43.3125 52.78125 
Q 43.3125 58.59375 39.234375 62.25 
Q 35.15625 65.921875 28.609375 65.921875 
Q 23.96875 65.921875 18.8125 64.3125 
Q 13.671875 62.703125 7.8125 59.421875 
L 7.8125 69.390625 
Q 13.765625 71.78125 18.9375 73 
Q 24.125 74.21875 28.421875 74.21875 
Q 39.75 74.21875 46.484375 68.546875 
Q 53.21875 62.890625 53.21875 53.421875 
Q 53.21875 48.921875 51.53125 44.890625 
Q 49.859375 40.875 45.40625 35.40625 
Q 44.1875 33.984375 37.640625 27.21875 
Q 31.109375 20.453125 19.1875 8.296875 
z
" id="DejaVuSans-32"/>
      </defs>
      <g transform="translate(122.837375 129.145798)scale(0.12 -0.12)">
       <use xlink:href="#DejaVuSans-2212"/>
       <use x="83.789062" xlink:href="#DejaVuSans-32"/>
      </g>
     </g>
    </g>
    <g id="ytick_2">
     <g id="line2d_8">
      <g>
       <use style="stroke:#000000;stroke-width:0.8;" x="147.528" xlink:href="#m6c49b335d1" y="96.942994"/>
      </g>
     </g>
    </g>
    <g id="ytick_3">
     <g id="line2d_9">
      <g>
       <use style="stroke:#000000;stroke-width:0.8;" x="147.528" xlink:href="#m6c49b335d1" y="69.299252"/>
      </g>
     </g>
     <g id="text_2">
      <!-- 2 -->
      <g transform="translate(132.893 73.858315)scale(0.12 -0.12)">
       <use xlink:href="#DejaVuSans-32"/>
      </g>
     </g>
    </g>
    <g id="text_3">
     <!-- Studentized -->
     <defs>
      <path d="M 53.515625 70.515625 
L 53.515625 60.890625 
Q 47.90625 63.578125 42.921875 64.890625 
Q 37.9375 66.21875 33.296875 66.21875 
Q 25.25 66.21875 20.875 63.09375 
Q 16.5 59.96875 16.5 54.203125 
Q 16.5 49.359375 19.40625 46.890625 
Q 22.3125 44.4375 30.421875 42.921875 
L 36.375 41.703125 
Q 47.40625 39.59375 52.65625 34.296875 
Q 57.90625 29 57.90625 20.125 
Q 57.90625 9.515625 50.796875 4.046875 
Q 43.703125 -1.421875 29.984375 -1.421875 
Q 24.8125 -1.421875 18.96875 -0.25 
Q 13.140625 0.921875 6.890625 3.21875 
L 6.890625 13.375 
Q 12.890625 10.015625 18.65625 8.296875 
Q 24.421875 6.59375 29.984375 6.59375 
Q 38.421875 6.59375 43.015625 9.90625 
Q 47.609375 13.234375 47.609375 19.390625 
Q 47.609375 24.75 44.3125 27.78125 
Q 41.015625 30.8125 33.5 32.328125 
L 27.484375 33.5 
Q 16.453125 35.6875 11.515625 40.375 
Q 6.59375 45.0625 6.59375 53.421875 
Q 6.59375 63.09375 13.40625 68.65625 
Q 20.21875 74.21875 32.171875 74.21875 
Q 37.3125 74.21875 42.625 73.28125 
Q 47.953125 72.359375 53.515625 70.515625 
z
" id="DejaVuSans-53"/>
      <path d="M 18.3125 70.21875 
L 18.3125 54.6875 
L 36.8125 54.6875 
L 36.8125 47.703125 
L 18.3125 47.703125 
L 18.3125 18.015625 
Q 18.3125 11.328125 20.140625 9.421875 
Q 21.96875 7.515625 27.59375 7.515625 
L 36.8125 7.515625 
L 36.8125 0 
L 27.59375 0 
Q 17.1875 0 13.234375 3.875 
Q 9.28125 7.765625 9.28125 18.015625 
L 9.28125 47.703125 
L 2.6875 47.703125 
L 2.6875 54.6875 
L 9.28125 54.6875 
L 9.28125 70.21875 
z
" id="DejaVuSans-74"/>
      <path d="M 8.5 21.578125 
L 8.5 54.6875 
L 17.484375 54.6875 
L 17.484375 21.921875 
Q 17.484375 14.15625 20.5 10.265625 
Q 23.53125 6.390625 29.59375 6.390625 
Q 36.859375 6.390625 41.078125 11.03125 
Q 45.3125 15.671875 45.3125 23.6875 
L 45.3125 54.6875 
L 54.296875 54.6875 
L 54.296875 0 
L 45.3125 0 
L 45.3125 8.40625 
Q 42.046875 3.421875 37.71875 1 
Q 33.40625 -1.421875 27.6875 -1.421875 
Q 18.265625 -1.421875 13.375 4.4375 
Q 8.5 10.296875 8.5 21.578125 
z
M 31.109375 56 
z
" id="DejaVuSans-75"/>
      <path d="M 45.40625 46.390625 
L 45.40625 75.984375 
L 54.390625 75.984375 
L 54.390625 0 
L 45.40625 0 
L 45.40625 8.203125 
Q 42.578125 3.328125 38.25 0.953125 
Q 33.9375 -1.421875 27.875 -1.421875 
Q 17.96875 -1.421875 11.734375 6.484375 
Q 5.515625 14.40625 5.515625 27.296875 
Q 5.515625 40.1875 11.734375 48.09375 
Q 17.96875 56 27.875 56 
Q 33.9375 56 38.25 53.625 
Q 42.578125 51.265625 45.40625 46.390625 
z
M 14.796875 27.296875 
Q 14.796875 17.390625 18.875 11.75 
Q 22.953125 6.109375 30.078125 6.109375 
Q 37.203125 6.109375 41.296875 11.75 
Q 45.40625 17.390625 45.40625 27.296875 
Q 45.40625 37.203125 41.296875 42.84375 
Q 37.203125 48.484375 30.078125 48.484375 
Q 22.953125 48.484375 18.875 42.84375 
Q 14.796875 37.203125 14.796875 27.296875 
z
" id="DejaVuSans-64"/>
      <path d="M 56.203125 29.59375 
L 56.203125 25.203125 
L 14.890625 25.203125 
Q 15.484375 15.921875 20.484375 11.0625 
Q 25.484375 6.203125 34.421875 6.203125 
Q 39.59375 6.203125 44.453125 7.46875 
Q 49.3125 8.734375 54.109375 11.28125 
L 54.109375 2.78125 
Q 49.265625 0.734375 44.1875 -0.34375 
Q 39.109375 -1.421875 33.890625 -1.421875 
Q 20.796875 -1.421875 13.15625 6.1875 
Q 5.515625 13.8125 5.515625 26.8125 
Q 5.515625 40.234375 12.765625 48.109375 
Q 20.015625 56 32.328125 56 
Q 43.359375 56 49.78125 48.890625 
Q 56.203125 41.796875 56.203125 29.59375 
z
M 47.21875 32.234375 
Q 47.125 39.59375 43.09375 43.984375 
Q 39.0625 48.390625 32.421875 48.390625 
Q 24.90625 48.390625 20.390625 44.140625 
Q 15.875 39.890625 15.1875 32.171875 
z
" id="DejaVuSans-65"/>
      <path d="M 54.890625 33.015625 
L 54.890625 0 
L 45.90625 0 
L 45.90625 32.71875 
Q 45.90625 40.484375 42.875 44.328125 
Q 39.84375 48.1875 33.796875 48.1875 
Q 26.515625 48.1875 22.3125 43.546875 
Q 18.109375 38.921875 18.109375 30.90625 
L 18.109375 0 
L 9.078125 0 
L 9.078125 54.6875 
L 18.109375 54.6875 
L 18.109375 46.1875 
Q 21.34375 51.125 25.703125 53.5625 
Q 30.078125 56 35.796875 56 
Q 45.21875 56 50.046875 50.171875 
Q 54.890625 44.34375 54.890625 33.015625 
z
" id="DejaVuSans-6e"/>
      <path d="M 9.421875 54.6875 
L 18.40625 54.6875 
L 18.40625 0 
L 9.421875 0 
z
M 9.421875 75.984375 
L 18.40625 75.984375 
L 18.40625 64.59375 
L 9.421875 64.59375 
z
" id="DejaVuSans-69"/>
      <path d="M 5.515625 54.6875 
L 48.1875 54.6875 
L 48.1875 46.484375 
L 14.40625 7.171875 
L 48.1875 7.171875 
L 48.1875 0 
L 4.296875 0 
L 4.296875 8.203125 
L 38.09375 47.515625 
L 5.515625 47.515625 
z
" id="DejaVuSans-7a"/>
     </defs>
     <g transform="translate(102.904375 135.41865)rotate(-90)scale(0.12 -0.12)">
      <use xlink:href="#DejaVuSans-53"/>
      <use x="63.476562" xlink:href="#DejaVuSans-74"/>
      <use x="102.685547" xlink:href="#DejaVuSans-75"/>
      <use x="166.064453" xlink:href="#DejaVuSans-64"/>
      <use x="229.541016" xlink:href="#DejaVuSans-65"/>
      <use x="291.064453" xlink:href="#DejaVuSans-6e"/>
      <use x="354.443359" xlink:href="#DejaVuSans-74"/>
      <use x="393.652344" xlink:href="#DejaVuSans-69"/>
      <use x="421.435547" xlink:href="#DejaVuSans-7a"/>
      <use x="473.925781" xlink:href="#DejaVuSans-65"/>
      <use x="535.449219" xlink:href="#DejaVuSans-64"/>
     </g>
     <!-- Residuals -->
     <defs>
      <path d="M 44.390625 34.1875 
Q 47.5625 33.109375 50.5625 29.59375 
Q 53.5625 26.078125 56.59375 19.921875 
L 66.609375 0 
L 56 0 
L 46.6875 18.703125 
Q 43.0625 26.03125 39.671875 28.421875 
Q 36.28125 30.8125 30.421875 30.8125 
L 19.671875 30.8125 
L 19.671875 0 
L 9.8125 0 
L 9.8125 72.90625 
L 32.078125 72.90625 
Q 44.578125 72.90625 50.734375 67.671875 
Q 56.890625 62.453125 56.890625 51.90625 
Q 56.890625 45.015625 53.6875 40.46875 
Q 50.484375 35.9375 44.390625 34.1875 
z
M 19.671875 64.796875 
L 19.671875 38.921875 
L 32.078125 38.921875 
Q 39.203125 38.921875 42.84375 42.21875 
Q 46.484375 45.515625 46.484375 51.90625 
Q 46.484375 58.296875 42.84375 61.546875 
Q 39.203125 64.796875 32.078125 64.796875 
z
" id="DejaVuSans-52"/>
      <path d="M 44.28125 53.078125 
L 44.28125 44.578125 
Q 40.484375 46.53125 36.375 47.5 
Q 32.28125 48.484375 27.875 48.484375 
Q 21.1875 48.484375 17.84375 46.4375 
Q 14.5 44.390625 14.5 40.28125 
Q 14.5 37.15625 16.890625 35.375 
Q 19.28125 33.59375 26.515625 31.984375 
L 29.59375 31.296875 
Q 39.15625 29.25 43.1875 25.515625 
Q 47.21875 21.78125 47.21875 15.09375 
Q 47.21875 7.46875 41.1875 3.015625 
Q 35.15625 -1.421875 24.609375 -1.421875 
Q 20.21875 -1.421875 15.453125 -0.5625 
Q 10.6875 0.296875 5.421875 2 
L 5.421875 11.28125 
Q 10.40625 8.6875 15.234375 7.390625 
Q 20.0625 6.109375 24.8125 6.109375 
Q 31.15625 6.109375 34.5625 8.28125 
Q 37.984375 10.453125 37.984375 14.40625 
Q 37.984375 18.0625 35.515625 20.015625 
Q 33.0625 21.96875 24.703125 23.78125 
L 21.578125 24.515625 
Q 13.234375 26.265625 9.515625 29.90625 
Q 5.8125 33.546875 5.8125 39.890625 
Q 5.8125 47.609375 11.28125 51.796875 
Q 16.75 56 26.8125 56 
Q 31.78125 56 36.171875 55.265625 
Q 40.578125 54.546875 44.28125 53.078125 
z
" id="DejaVuSans-73"/>
      <path d="M 34.28125 27.484375 
Q 23.390625 27.484375 19.1875 25 
Q 14.984375 22.515625 14.984375 16.5 
Q 14.984375 11.71875 18.140625 8.90625 
Q 21.296875 6.109375 26.703125 6.109375 
Q 34.1875 6.109375 38.703125 11.40625 
Q 43.21875 16.703125 43.21875 25.484375 
L 43.21875 27.484375 
z
M 52.203125 31.203125 
L 52.203125 0 
L 43.21875 0 
L 43.21875 8.296875 
Q 40.140625 3.328125 35.546875 0.953125 
Q 30.953125 -1.421875 24.3125 -1.421875 
Q 15.921875 -1.421875 10.953125 3.296875 
Q 6 8.015625 6 15.921875 
Q 6 25.140625 12.171875 29.828125 
Q 18.359375 34.515625 30.609375 34.515625 
L 43.21875 34.515625 
L 43.21875 35.40625 
Q 43.21875 41.609375 39.140625 45 
Q 35.0625 48.390625 27.6875 48.390625 
Q 23 48.390625 18.546875 47.265625 
Q 14.109375 46.140625 10.015625 43.890625 
L 10.015625 52.203125 
Q 14.9375 54.109375 19.578125 55.046875 
Q 24.21875 56 28.609375 56 
Q 40.484375 56 46.34375 49.84375 
Q 52.203125 43.703125 52.203125 31.203125 
z
" id="DejaVuSans-61"/>
      <path d="M 9.421875 75.984375 
L 18.40625 75.984375 
L 18.40625 0 
L 9.421875 0 
z
" id="DejaVuSans-6c"/>
     </defs>
     <g transform="translate(116.34175 128.213025)rotate(-90)scale(0.12 -0.12)">
      <use xlink:href="#DejaVuSans-52"/>
      <use x="69.419922" xlink:href="#DejaVuSans-65"/>
      <use x="130.943359" xlink:href="#DejaVuSans-73"/>
      <use x="183.042969" xlink:href="#DejaVuSans-69"/>
      <use x="210.826172" xlink:href="#DejaVuSans-64"/>
      <use x="274.302734" xlink:href="#DejaVuSans-75"/>
      <use x="337.681641" xlink:href="#DejaVuSans-61"/>
      <use x="398.960938" xlink:href="#DejaVuSans-6c"/>
      <use x="426.744141" xlink:href="#DejaVuSans-73"/>
     </g>
    </g>
   </g>
   <g id="LineCollection_1">
    <path clip-path="url(#p92017a8623)" d="M 174.848 93.923217 
L 174.848 66.279476 
" style="fill:none;stroke:#0000ff;stroke-width:1.5;"/>
    <path clip-path="url(#p92017a8623)" d="M 183.177268 116.220353 
L 183.177268 88.576612 
" style="fill:none;stroke:#0000ff;stroke-width:1.5;"/>
    <path clip-path="url(#p92017a8623)" d="M 191.506537 94.951457 
L 191.506537 67.307715 
" style="fill:none;stroke:#0000ff;stroke-width:1.5;"/>
    <path clip-path="url(#p92017a8623)" d="M 199.835805 112.277197 
L 199.835805 84.633455 
" style="fill:none;stroke:#0000ff;stroke-width:1.5;"/>
    <path clip-path="url(#p92017a8623)" d="M 208.165073 114.846571 
L 208.165073 87.20283 
" style="fill:none;stroke:#0000ff;stroke-width:1.5;"/>
    <path clip-path="url(#p92017a8623)" d="M 216.494341 80.822021 
L 216.494341 53.178279 
" style="fill:none;stroke:#0000ff;stroke-width:1.5;"/>
    <path clip-path="url(#p92017a8623)" d="M 224.82361 105.277617 
L 224.82361 77.633875 
" style="fill:none;stroke:#0000ff;stroke-width:1.5;"/>
    <path clip-path="url(#p92017a8623)" d="M 233.152878 98.655551 
L 233.152878 71.011809 
" style="fill:none;stroke:#0000ff;stroke-width:1.5;"/>
    <path clip-path="url(#p92017a8623)" d="M 241.482146 102.232483 
L 241.482146 74.588741 
" style="fill:none;stroke:#0000ff;stroke-width:1.5;"/>
    <path clip-path="url(#p92017a8623)" d="M 249.811415 120.288117 
L 249.811415 92.644375 
" style="fill:none;stroke:#0000ff;stroke-width:1.5;"/>
    <path clip-path="url(#p92017a8623)" d="M 258.140683 102.15288 
L 258.140683 74.509138 
" style="fill:none;stroke:#0000ff;stroke-width:1.5;"/>
    <path clip-path="url(#p92017a8623)" d="M 266.469951 121.732736 
L 266.469951 94.088995 
" style="fill:none;stroke:#0000ff;stroke-width:1.5;"/>
    <path clip-path="url(#p92017a8623)" d="M 274.79922 126.121473 
L 274.79922 98.477731 
" style="fill:none;stroke:#0000ff;stroke-width:1.5;"/>
    <path clip-path="url(#p92017a8623)" d="M 283.128488 113.166445 
L 283.128488 85.522704 
" style="fill:none;stroke:#0000ff;stroke-width:1.5;"/>
    <path clip-path="url(#p92017a8623)" d="M 291.457756 109.035082 
L 291.457756 81.391341 
" style="fill:none;stroke:#0000ff;stroke-width:1.5;"/>
    <path clip-path="url(#p92017a8623)" d="M 299.787024 111.021519 
L 299.787024 83.377778 
" style="fill:none;stroke:#0000ff;stroke-width:1.5;"/>
    <path clip-path="url(#p92017a8623)" d="M 308.116293 113.21968 
L 308.116293 85.575938 
" style="fill:none;stroke:#0000ff;stroke-width:1.5;"/>
    <path clip-path="url(#p92017a8623)" d="M 316.445561 117.3733 
L 316.445561 89.729559 
" style="fill:none;stroke:#0000ff;stroke-width:1.5;"/>
    <path clip-path="url(#p92017a8623)" d="M 324.774829 118.934437 
L 324.774829 91.290695 
" style="fill:none;stroke:#0000ff;stroke-width:1.5;"/>
    <path clip-path="url(#p92017a8623)" d="M 333.104098 107.138914 
L 333.104098 79.495172 
" style="fill:none;stroke:#0000ff;stroke-width:1.5;"/>
    <path clip-path="url(#p92017a8623)" d="M 341.433366 79.604271 
L 341.433366 51.960529 
" style="fill:none;stroke:#0000ff;stroke-width:1.5;"/>
    <path clip-path="url(#p92017a8623)" d="M 349.762634 107.041074 
L 349.762634 79.397332 
" style="fill:none;stroke:#0000ff;stroke-width:1.5;"/>
    <path clip-path="url(#p92017a8623)" d="M 358.091902 114.368998 
L 358.091902 86.725257 
" style="fill:none;stroke:#0000ff;stroke-width:1.5;"/>
    <path clip-path="url(#p92017a8623)" d="M 366.421171 108.821707 
L 366.421171 81.177965 
" style="fill:none;stroke:#0000ff;stroke-width:1.5;"/>
    <path clip-path="url(#p92017a8623)" d="M 374.750439 132.112994 
L 374.750439 104.469252 
" style="fill:none;stroke:#0000ff;stroke-width:1.5;"/>
    <path clip-path="url(#p92017a8623)" d="M 383.079707 121.571419 
L 383.079707 93.927678 
" style="fill:none;stroke:#0000ff;stroke-width:1.5;"/>
    <path clip-path="url(#p92017a8623)" d="M 391.408976 117.421634 
L 391.408976 89.777892 
" style="fill:none;stroke:#0000ff;stroke-width:1.5;"/>
    <path clip-path="url(#p92017a8623)" d="M 399.738244 112.512752 
L 399.738244 84.86901 
" style="fill:none;stroke:#0000ff;stroke-width:1.5;"/>
    <path clip-path="url(#p92017a8623)" d="M 408.067512 118.717539 
L 408.067512 91.073797 
" style="fill:none;stroke:#0000ff;stroke-width:1.5;"/>
    <path clip-path="url(#p92017a8623)" d="M 416.39678 113.603978 
L 416.39678 85.960236 
" style="fill:none;stroke:#0000ff;stroke-width:1.5;"/>
    <path clip-path="url(#p92017a8623)" d="M 424.726049 102.706313 
L 424.726049 75.062571 
" style="fill:none;stroke:#0000ff;stroke-width:1.5;"/>
    <path clip-path="url(#p92017a8623)" d="M 433.055317 128.18583 
L 433.055317 100.542088 
" style="fill:none;stroke:#0000ff;stroke-width:1.5;"/>
    <path clip-path="url(#p92017a8623)" d="M 441.384585 128.894805 
L 441.384585 101.251063 
" style="fill:none;stroke:#0000ff;stroke-width:1.5;"/>
    <path clip-path="url(#p92017a8623)" d="M 449.713854 95.986623 
L 449.713854 68.342881 
" style="fill:none;stroke:#0000ff;stroke-width:1.5;"/>
    <path clip-path="url(#p92017a8623)" d="M 458.043122 120.507522 
L 458.043122 92.863781 
" style="fill:none;stroke:#0000ff;stroke-width:1.5;"/>
    <path clip-path="url(#p92017a8623)" d="M 466.37239 121.22632 
L 466.37239 93.582578 
" style="fill:none;stroke:#0000ff;stroke-width:1.5;"/>
    <path clip-path="url(#p92017a8623)" d="M 474.701659 106.521277 
L 474.701659 78.877535 
" style="fill:none;stroke:#0000ff;stroke-width:1.5;"/>
    <path clip-path="url(#p92017a8623)" d="M 483.030927 103.565743 
L 483.030927 75.922001 
" style="fill:none;stroke:#0000ff;stroke-width:1.5;"/>
    <path clip-path="url(#p92017a8623)" d="M 491.360195 87.503655 
L 491.360195 59.859914 
" style="fill:none;stroke:#0000ff;stroke-width:1.5;"/>
    <path clip-path="url(#p92017a8623)" d="M 499.689463 108.060688 
L 499.689463 80.416946 
" style="fill:none;stroke:#0000ff;stroke-width:1.5;"/>
    <path clip-path="url(#p92017a8623)" d="M 508.018732 124.944955 
L 508.018732 97.301214 
" style="fill:none;stroke:#0000ff;stroke-width:1.5;"/>
    <path clip-path="url(#p92017a8623)" d="M 516.348 124.152903 
L 516.348 96.509162 
" style="fill:none;stroke:#0000ff;stroke-width:1.5;"/>
    <path clip-path="url(#p92017a8623)" d="M 524.677268 87.319649 
L 524.677268 59.675907 
" style="fill:none;stroke:#0000ff;stroke-width:1.5;"/>
    <path clip-path="url(#p92017a8623)" d="M 533.006537 111.168364 
L 533.006537 83.524622 
" style="fill:none;stroke:#0000ff;stroke-width:1.5;"/>
    <path clip-path="url(#p92017a8623)" d="M 541.335805 108.614412 
L 541.335805 80.970671 
" style="fill:none;stroke:#0000ff;stroke-width:1.5;"/>
    <path clip-path="url(#p92017a8623)" d="M 549.665073 113.869232 
L 549.665073 86.22549 
" style="fill:none;stroke:#0000ff;stroke-width:1.5;"/>
    <path clip-path="url(#p92017a8623)" d="M 557.994341 104.574603 
L 557.994341 76.930861 
" style="fill:none;stroke:#0000ff;stroke-width:1.5;"/>
    <path clip-path="url(#p92017a8623)" d="M 566.32361 113.233567 
L 566.32361 85.589826 
" style="fill:none;stroke:#0000ff;stroke-width:1.5;"/>
    <path clip-path="url(#p92017a8623)" d="M 574.652878 101.623197 
L 574.652878 73.979455 
" style="fill:none;stroke:#0000ff;stroke-width:1.5;"/>
    <path clip-path="url(#p92017a8623)" d="M 582.982146 116.212527 
L 582.982146 88.568785 
" style="fill:none;stroke:#0000ff;stroke-width:1.5;"/>
    <path clip-path="url(#p92017a8623)" d="M 591.311415 112.20161 
L 591.311415 84.557869 
" style="fill:none;stroke:#0000ff;stroke-width:1.5;"/>
    <path clip-path="url(#p92017a8623)" d="M 599.640683 100.824789 
L 599.640683 73.181048 
" style="fill:none;stroke:#0000ff;stroke-width:1.5;"/>
    <path clip-path="url(#p92017a8623)" d="M 607.969951 98.943332 
L 607.969951 71.29959 
" style="fill:none;stroke:#0000ff;stroke-width:1.5;"/>
    <path clip-path="url(#p92017a8623)" d="M 616.29922 121.860774 
L 616.29922 94.217032 
" style="fill:none;stroke:#0000ff;stroke-width:1.5;"/>
    <path clip-path="url(#p92017a8623)" d="M 624.628488 98.621758 
L 624.628488 70.978017 
" style="fill:none;stroke:#0000ff;stroke-width:1.5;"/>
    <path clip-path="url(#p92017a8623)" d="M 632.957756 111.699708 
L 632.957756 84.055966 
" style="fill:none;stroke:#0000ff;stroke-width:1.5;"/>
    <path clip-path="url(#p92017a8623)" d="M 641.287024 107.748854 
L 641.287024 80.105112 
" style="fill:none;stroke:#0000ff;stroke-width:1.5;"/>
    <path clip-path="url(#p92017a8623)" d="M 649.616293 116.775492 
L 649.616293 89.13175 
" style="fill:none;stroke:#0000ff;stroke-width:1.5;"/>
    <path clip-path="url(#p92017a8623)" d="M 657.945561 106.667456 
L 657.945561 79.023714 
" style="fill:none;stroke:#0000ff;stroke-width:1.5;"/>
    <path clip-path="url(#p92017a8623)" d="M 666.274829 122.532346 
L 666.274829 94.888605 
" style="fill:none;stroke:#0000ff;stroke-width:1.5;"/>
    <path clip-path="url(#p92017a8623)" d="M 674.604098 101.777231 
L 674.604098 74.133489 
" style="fill:none;stroke:#0000ff;stroke-width:1.5;"/>
    <path clip-path="url(#p92017a8623)" d="M 682.933366 107.817498 
L 682.933366 80.173756 
" style="fill:none;stroke:#0000ff;stroke-width:1.5;"/>
    <path clip-path="url(#p92017a8623)" d="M 691.262634 113.457822 
L 691.262634 85.81408 
" style="fill:none;stroke:#0000ff;stroke-width:1.5;"/>
    <path clip-path="url(#p92017a8623)" d="M 699.591902 119.128229 
L 699.591902 91.484488 
" style="fill:none;stroke:#0000ff;stroke-width:1.5;"/>
    <path clip-path="url(#p92017a8623)" d="M 707.921171 101.10785 
L 707.921171 73.464108 
" style="fill:none;stroke:#0000ff;stroke-width:1.5;"/>
    <path clip-path="url(#p92017a8623)" d="M 716.250439 94.302798 
L 716.250439 66.659057 
" style="fill:none;stroke:#0000ff;stroke-width:1.5;"/>
    <path clip-path="url(#p92017a8623)" d="M 724.579707 104.101139 
L 724.579707 76.457398 
" style="fill:none;stroke:#0000ff;stroke-width:1.5;"/>
    <path clip-path="url(#p92017a8623)" d="M 732.908976 102.975531 
L 732.908976 75.33179 
" style="fill:none;stroke:#0000ff;stroke-width:1.5;"/>
    <path clip-path="url(#p92017a8623)" d="M 741.238244 120.903991 
L 741.238244 93.26025 
" style="fill:none;stroke:#0000ff;stroke-width:1.5;"/>
    <path clip-path="url(#p92017a8623)" d="M 749.567512 118.292117 
L 749.567512 90.648376 
" style="fill:none;stroke:#0000ff;stroke-width:1.5;"/>
    <path clip-path="url(#p92017a8623)" d="M 757.89678 95.582977 
L 757.89678 67.939235 
" style="fill:none;stroke:#0000ff;stroke-width:1.5;"/>
    <path clip-path="url(#p92017a8623)" d="M 766.226049 111.340768 
L 766.226049 83.697026 
" style="fill:none;stroke:#0000ff;stroke-width:1.5;"/>
    <path clip-path="url(#p92017a8623)" d="M 774.555317 107.538124 
L 774.555317 79.894382 
" style="fill:none;stroke:#0000ff;stroke-width:1.5;"/>
    <path clip-path="url(#p92017a8623)" d="M 782.884585 104.070271 
L 782.884585 76.426529 
" style="fill:none;stroke:#0000ff;stroke-width:1.5;"/>
    <path clip-path="url(#p92017a8623)" d="M 791.213854 107.507162 
L 791.213854 79.863421 
" style="fill:none;stroke:#0000ff;stroke-width:1.5;"/>
    <path clip-path="url(#p92017a8623)" d="M 799.543122 124.07483 
L 799.543122 96.431088 
" style="fill:none;stroke:#0000ff;stroke-width:1.5;"/>
    <path clip-path="url(#p92017a8623)" d="M 807.87239 109.848198 
L 807.87239 82.204456 
" style="fill:none;stroke:#0000ff;stroke-width:1.5;"/>
    <path clip-path="url(#p92017a8623)" d="M 816.201659 107.750749 
L 816.201659 80.107007 
" style="fill:none;stroke:#0000ff;stroke-width:1.5;"/>
    <path clip-path="url(#p92017a8623)" d="M 824.530927 109.997215 
L 824.530927 82.353474 
" style="fill:none;stroke:#0000ff;stroke-width:1.5;"/>
    <path clip-path="url(#p92017a8623)" d="M 832.860195 147.004271 
L 832.860195 119.360529 
" style="fill:none;stroke:#0000ff;stroke-width:1.5;"/>
    <path clip-path="url(#p92017a8623)" d="M 841.189463 111.560029 
L 841.189463 83.916288 
" style="fill:none;stroke:#0000ff;stroke-width:1.5;"/>
    <path clip-path="url(#p92017a8623)" d="M 849.518732 117.993904 
L 849.518732 90.350162 
" style="fill:none;stroke:#0000ff;stroke-width:1.5;"/>
    <path clip-path="url(#p92017a8623)" d="M 857.848 117.915009 
L 857.848 90.271267 
" style="fill:none;stroke:#0000ff;stroke-width:1.5;"/>
   </g>
   <g id="line2d_10">
    <path clip-path="url(#p92017a8623)" d="M 174.848 96.942994 
L 857.848 96.942994 
" style="fill:none;stroke:#ff0000;stroke-linecap:square;stroke-width:1.5;"/>
   </g>
   <g id="line2d_11">
    <defs>
     <path d="M -3 0 
L 3 0 
M 0 3 
L 0 -3 
" id="m65dce18c71" style="stroke:#0000ff;"/>
    </defs>
    <g clip-path="url(#p92017a8623)">
     <use style="fill:#0000ff;stroke:#0000ff;" x="174.848" xlink:href="#m65dce18c71" y="80.101347"/>
     <use style="fill:#0000ff;stroke:#0000ff;" x="183.177268" xlink:href="#m65dce18c71" y="102.398483"/>
     <use style="fill:#0000ff;stroke:#0000ff;" x="191.506537" xlink:href="#m65dce18c71" y="81.129586"/>
     <use style="fill:#0000ff;stroke:#0000ff;" x="199.835805" xlink:href="#m65dce18c71" y="98.455326"/>
     <use style="fill:#0000ff;stroke:#0000ff;" x="208.165073" xlink:href="#m65dce18c71" y="101.024701"/>
     <use style="fill:#0000ff;stroke:#0000ff;" x="216.494341" xlink:href="#m65dce18c71" y="67.00015"/>
     <use style="fill:#0000ff;stroke:#0000ff;" x="224.82361" xlink:href="#m65dce18c71" y="91.455746"/>
     <use style="fill:#0000ff;stroke:#0000ff;" x="233.152878" xlink:href="#m65dce18c71" y="84.83368"/>
     <use style="fill:#0000ff;stroke:#0000ff;" x="241.482146" xlink:href="#m65dce18c71" y="88.410612"/>
     <use style="fill:#0000ff;stroke:#0000ff;" x="249.811415" xlink:href="#m65dce18c71" y="106.466246"/>
     <use style="fill:#0000ff;stroke:#0000ff;" x="258.140683" xlink:href="#m65dce18c71" y="88.331009"/>
     <use style="fill:#0000ff;stroke:#0000ff;" x="266.469951" xlink:href="#m65dce18c71" y="107.910865"/>
     <use style="fill:#0000ff;stroke:#0000ff;" x="274.79922" xlink:href="#m65dce18c71" y="112.299602"/>
     <use style="fill:#0000ff;stroke:#0000ff;" x="283.128488" xlink:href="#m65dce18c71" y="99.344574"/>
     <use style="fill:#0000ff;stroke:#0000ff;" x="291.457756" xlink:href="#m65dce18c71" y="95.213212"/>
     <use style="fill:#0000ff;stroke:#0000ff;" x="299.787024" xlink:href="#m65dce18c71" y="97.199648"/>
     <use style="fill:#0000ff;stroke:#0000ff;" x="308.116293" xlink:href="#m65dce18c71" y="99.397809"/>
     <use style="fill:#0000ff;stroke:#0000ff;" x="316.445561" xlink:href="#m65dce18c71" y="103.551429"/>
     <use style="fill:#0000ff;stroke:#0000ff;" x="324.774829" xlink:href="#m65dce18c71" y="105.112566"/>
     <use style="fill:#0000ff;stroke:#0000ff;" x="333.104098" xlink:href="#m65dce18c71" y="93.317043"/>
     <use style="fill:#0000ff;stroke:#0000ff;" x="341.433366" xlink:href="#m65dce18c71" y="65.7824"/>
     <use style="fill:#0000ff;stroke:#0000ff;" x="349.762634" xlink:href="#m65dce18c71" y="93.219203"/>
     <use style="fill:#0000ff;stroke:#0000ff;" x="358.091902" xlink:href="#m65dce18c71" y="100.547128"/>
     <use style="fill:#0000ff;stroke:#0000ff;" x="366.421171" xlink:href="#m65dce18c71" y="94.999836"/>
     <use style="fill:#0000ff;stroke:#0000ff;" x="374.750439" xlink:href="#m65dce18c71" y="118.291123"/>
     <use style="fill:#0000ff;stroke:#0000ff;" x="383.079707" xlink:href="#m65dce18c71" y="107.749548"/>
     <use style="fill:#0000ff;stroke:#0000ff;" x="391.408976" xlink:href="#m65dce18c71" y="103.599763"/>
     <use style="fill:#0000ff;stroke:#0000ff;" x="399.738244" xlink:href="#m65dce18c71" y="98.690881"/>
     <use style="fill:#0000ff;stroke:#0000ff;" x="408.067512" xlink:href="#m65dce18c71" y="104.895668"/>
     <use style="fill:#0000ff;stroke:#0000ff;" x="416.39678" xlink:href="#m65dce18c71" y="99.782107"/>
     <use style="fill:#0000ff;stroke:#0000ff;" x="424.726049" xlink:href="#m65dce18c71" y="88.884442"/>
     <use style="fill:#0000ff;stroke:#0000ff;" x="433.055317" xlink:href="#m65dce18c71" y="114.363959"/>
     <use style="fill:#0000ff;stroke:#0000ff;" x="441.384585" xlink:href="#m65dce18c71" y="115.072934"/>
     <use style="fill:#0000ff;stroke:#0000ff;" x="449.713854" xlink:href="#m65dce18c71" y="82.164752"/>
     <use style="fill:#0000ff;stroke:#0000ff;" x="458.043122" xlink:href="#m65dce18c71" y="106.685652"/>
     <use style="fill:#0000ff;stroke:#0000ff;" x="466.37239" xlink:href="#m65dce18c71" y="107.404449"/>
     <use style="fill:#0000ff;stroke:#0000ff;" x="474.701659" xlink:href="#m65dce18c71" y="92.699406"/>
     <use style="fill:#0000ff;stroke:#0000ff;" x="483.030927" xlink:href="#m65dce18c71" y="89.743872"/>
     <use style="fill:#0000ff;stroke:#0000ff;" x="491.360195" xlink:href="#m65dce18c71" y="73.681784"/>
     <use style="fill:#0000ff;stroke:#0000ff;" x="499.689463" xlink:href="#m65dce18c71" y="94.238817"/>
     <use style="fill:#0000ff;stroke:#0000ff;" x="508.018732" xlink:href="#m65dce18c71" y="111.123085"/>
     <use style="fill:#0000ff;stroke:#0000ff;" x="516.348" xlink:href="#m65dce18c71" y="110.331032"/>
     <use style="fill:#0000ff;stroke:#0000ff;" x="524.677268" xlink:href="#m65dce18c71" y="73.497778"/>
     <use style="fill:#0000ff;stroke:#0000ff;" x="533.006537" xlink:href="#m65dce18c71" y="97.346493"/>
     <use style="fill:#0000ff;stroke:#0000ff;" x="541.335805" xlink:href="#m65dce18c71" y="94.792541"/>
     <use style="fill:#0000ff;stroke:#0000ff;" x="549.665073" xlink:href="#m65dce18c71" y="100.047361"/>
     <use style="fill:#0000ff;stroke:#0000ff;" x="557.994341" xlink:href="#m65dce18c71" y="90.752732"/>
     <use style="fill:#0000ff;stroke:#0000ff;" x="566.32361" xlink:href="#m65dce18c71" y="99.411697"/>
     <use style="fill:#0000ff;stroke:#0000ff;" x="574.652878" xlink:href="#m65dce18c71" y="87.801326"/>
     <use style="fill:#0000ff;stroke:#0000ff;" x="582.982146" xlink:href="#m65dce18c71" y="102.390656"/>
     <use style="fill:#0000ff;stroke:#0000ff;" x="591.311415" xlink:href="#m65dce18c71" y="98.379739"/>
     <use style="fill:#0000ff;stroke:#0000ff;" x="599.640683" xlink:href="#m65dce18c71" y="87.002919"/>
     <use style="fill:#0000ff;stroke:#0000ff;" x="607.969951" xlink:href="#m65dce18c71" y="85.121461"/>
     <use style="fill:#0000ff;stroke:#0000ff;" x="616.29922" xlink:href="#m65dce18c71" y="108.038903"/>
     <use style="fill:#0000ff;stroke:#0000ff;" x="624.628488" xlink:href="#m65dce18c71" y="84.799888"/>
     <use style="fill:#0000ff;stroke:#0000ff;" x="632.957756" xlink:href="#m65dce18c71" y="97.877837"/>
     <use style="fill:#0000ff;stroke:#0000ff;" x="641.287024" xlink:href="#m65dce18c71" y="93.926983"/>
     <use style="fill:#0000ff;stroke:#0000ff;" x="649.616293" xlink:href="#m65dce18c71" y="102.953621"/>
     <use style="fill:#0000ff;stroke:#0000ff;" x="657.945561" xlink:href="#m65dce18c71" y="92.845585"/>
     <use style="fill:#0000ff;stroke:#0000ff;" x="666.274829" xlink:href="#m65dce18c71" y="108.710475"/>
     <use style="fill:#0000ff;stroke:#0000ff;" x="674.604098" xlink:href="#m65dce18c71" y="87.95536"/>
     <use style="fill:#0000ff;stroke:#0000ff;" x="682.933366" xlink:href="#m65dce18c71" y="93.995627"/>
     <use style="fill:#0000ff;stroke:#0000ff;" x="691.262634" xlink:href="#m65dce18c71" y="99.635951"/>
     <use style="fill:#0000ff;stroke:#0000ff;" x="699.591902" xlink:href="#m65dce18c71" y="105.306358"/>
     <use style="fill:#0000ff;stroke:#0000ff;" x="707.921171" xlink:href="#m65dce18c71" y="87.285979"/>
     <use style="fill:#0000ff;stroke:#0000ff;" x="716.250439" xlink:href="#m65dce18c71" y="80.480928"/>
     <use style="fill:#0000ff;stroke:#0000ff;" x="724.579707" xlink:href="#m65dce18c71" y="90.279269"/>
     <use style="fill:#0000ff;stroke:#0000ff;" x="732.908976" xlink:href="#m65dce18c71" y="89.15366"/>
     <use style="fill:#0000ff;stroke:#0000ff;" x="741.238244" xlink:href="#m65dce18c71" y="107.08212"/>
     <use style="fill:#0000ff;stroke:#0000ff;" x="749.567512" xlink:href="#m65dce18c71" y="104.470247"/>
     <use style="fill:#0000ff;stroke:#0000ff;" x="757.89678" xlink:href="#m65dce18c71" y="81.761106"/>
     <use style="fill:#0000ff;stroke:#0000ff;" x="766.226049" xlink:href="#m65dce18c71" y="97.518897"/>
     <use style="fill:#0000ff;stroke:#0000ff;" x="774.555317" xlink:href="#m65dce18c71" y="93.716253"/>
     <use style="fill:#0000ff;stroke:#0000ff;" x="782.884585" xlink:href="#m65dce18c71" y="90.2484"/>
     <use style="fill:#0000ff;stroke:#0000ff;" x="791.213854" xlink:href="#m65dce18c71" y="93.685291"/>
     <use style="fill:#0000ff;stroke:#0000ff;" x="799.543122" xlink:href="#m65dce18c71" y="110.252959"/>
     <use style="fill:#0000ff;stroke:#0000ff;" x="807.87239" xlink:href="#m65dce18c71" y="96.026327"/>
     <use style="fill:#0000ff;stroke:#0000ff;" x="816.201659" xlink:href="#m65dce18c71" y="93.928878"/>
     <use style="fill:#0000ff;stroke:#0000ff;" x="824.530927" xlink:href="#m65dce18c71" y="96.175345"/>
     <use style="fill:#0000ff;stroke:#0000ff;" x="832.860195" xlink:href="#m65dce18c71" y="133.1824"/>
     <use style="fill:#0000ff;stroke:#0000ff;" x="841.189463" xlink:href="#m65dce18c71" y="97.738159"/>
     <use style="fill:#0000ff;stroke:#0000ff;" x="849.518732" xlink:href="#m65dce18c71" y="104.172033"/>
     <use style="fill:#0000ff;stroke:#0000ff;" x="857.848" xlink:href="#m65dce18c71" y="104.093138"/>
    </g>
   </g>
   <g id="patch_3">
    <path d="M 147.528 135.8784 
L 147.528 63.0864 
" style="fill:none;stroke:#000000;stroke-linecap:square;stroke-linejoin:miter;stroke-width:0.8;"/>
   </g>
   <g id="patch_4">
    <path d="M 885.168 135.8784 
L 885.168 63.0864 
" style="fill:none;stroke:#000000;stroke-linecap:square;stroke-linejoin:miter;stroke-width:0.8;"/>
   </g>
   <g id="patch_5">
    <path d="M 147.528 135.8784 
L 885.168 135.8784 
" style="fill:none;stroke:#000000;stroke-linecap:square;stroke-linejoin:miter;stroke-width:0.8;"/>
   </g>
   <g id="patch_6">
    <path d="M 147.528 63.0864 
L 885.168 63.0864 
" style="fill:none;stroke:#000000;stroke-linecap:square;stroke-linejoin:miter;stroke-width:0.8;"/>
   </g>
   <g id="text_4">
    <!-- Function (0/0): y = a*exp(-(x-x0)**2/w**2)+b -->
    <defs>
     <path d="M 9.8125 72.90625 
L 51.703125 72.90625 
L 51.703125 64.59375 
L 19.671875 64.59375 
L 19.671875 43.109375 
L 48.578125 43.109375 
L 48.578125 34.8125 
L 19.671875 34.8125 
L 19.671875 0 
L 9.8125 0 
z
" id="DejaVuSans-46"/>
     <path d="M 48.78125 52.59375 
L 48.78125 44.1875 
Q 44.96875 46.296875 41.140625 47.34375 
Q 37.3125 48.390625 33.40625 48.390625 
Q 24.65625 48.390625 19.8125 42.84375 
Q 14.984375 37.3125 14.984375 27.296875 
Q 14.984375 17.28125 19.8125 11.734375 
Q 24.65625 6.203125 33.40625 6.203125 
Q 37.3125 6.203125 41.140625 7.25 
Q 44.96875 8.296875 48.78125 10.40625 
L 48.78125 2.09375 
Q 45.015625 0.34375 40.984375 -0.53125 
Q 36.96875 -1.421875 32.421875 -1.421875 
Q 20.0625 -1.421875 12.78125 6.34375 
Q 5.515625 14.109375 5.515625 27.296875 
Q 5.515625 40.671875 12.859375 48.328125 
Q 20.21875 56 33.015625 56 
Q 37.15625 56 41.109375 55.140625 
Q 45.0625 54.296875 48.78125 52.59375 
z
" id="DejaVuSans-63"/>
     <path d="M 30.609375 48.390625 
Q 23.390625 48.390625 19.1875 42.75 
Q 14.984375 37.109375 14.984375 27.296875 
Q 14.984375 17.484375 19.15625 11.84375 
Q 23.34375 6.203125 30.609375 6.203125 
Q 37.796875 6.203125 41.984375 11.859375 
Q 46.1875 17.53125 46.1875 27.296875 
Q 46.1875 37.015625 41.984375 42.703125 
Q 37.796875 48.390625 30.609375 48.390625 
z
M 30.609375 56 
Q 42.328125 56 49.015625 48.375 
Q 55.71875 40.765625 55.71875 27.296875 
Q 55.71875 13.875 49.015625 6.21875 
Q 42.328125 -1.421875 30.609375 -1.421875 
Q 18.84375 -1.421875 12.171875 6.21875 
Q 5.515625 13.875 5.515625 27.296875 
Q 5.515625 40.765625 12.171875 48.375 
Q 18.84375 56 30.609375 56 
z
" id="DejaVuSans-6f"/>
     <path id="DejaVuSans-20"/>
     <path d="M 31 75.875 
Q 24.46875 64.65625 21.28125 53.65625 
Q 18.109375 42.671875 18.109375 31.390625 
Q 18.109375 20.125 21.3125 9.0625 
Q 24.515625 -2 31 -13.1875 
L 23.1875 -13.1875 
Q 15.875 -1.703125 12.234375 9.375 
Q 8.59375 20.453125 8.59375 31.390625 
Q 8.59375 42.28125 12.203125 53.3125 
Q 15.828125 64.359375 23.1875 75.875 
z
" id="DejaVuSans-28"/>
     <path d="M 31.78125 66.40625 
Q 24.171875 66.40625 20.328125 58.90625 
Q 16.5 51.421875 16.5 36.375 
Q 16.5 21.390625 20.328125 13.890625 
Q 24.171875 6.390625 31.78125 6.390625 
Q 39.453125 6.390625 43.28125 13.890625 
Q 47.125 21.390625 47.125 36.375 
Q 47.125 51.421875 43.28125 58.90625 
Q 39.453125 66.40625 31.78125 66.40625 
z
M 31.78125 74.21875 
Q 44.046875 74.21875 50.515625 64.515625 
Q 56.984375 54.828125 56.984375 36.375 
Q 56.984375 17.96875 50.515625 8.265625 
Q 44.046875 -1.421875 31.78125 -1.421875 
Q 19.53125 -1.421875 13.0625 8.265625 
Q 6.59375 17.96875 6.59375 36.375 
Q 6.59375 54.828125 13.0625 64.515625 
Q 19.53125 74.21875 31.78125 74.21875 
z
" id="DejaVuSans-30"/>
     <path d="M 25.390625 72.90625 
L 33.6875 72.90625 
L 8.296875 -9.28125 
L 0 -9.28125 
z
" id="DejaVuSans-2f"/>
     <path d="M 8.015625 75.875 
L 15.828125 75.875 
Q 23.140625 64.359375 26.78125 53.3125 
Q 30.421875 42.28125 30.421875 31.390625 
Q 30.421875 20.453125 26.78125 9.375 
Q 23.140625 -1.703125 15.828125 -13.1875 
L 8.015625 -13.1875 
Q 14.5 -2 17.703125 9.0625 
Q 20.90625 20.125 20.90625 31.390625 
Q 20.90625 42.671875 17.703125 53.65625 
Q 14.5 64.65625 8.015625 75.875 
z
" id="DejaVuSans-29"/>
     <path d="M 11.71875 12.40625 
L 22.015625 12.40625 
L 22.015625 0 
L 11.71875 0 
z
M 11.71875 51.703125 
L 22.015625 51.703125 
L 22.015625 39.3125 
L 11.71875 39.3125 
z
" id="DejaVuSans-3a"/>
     <path d="M 32.171875 -5.078125 
Q 28.375 -14.84375 24.75 -17.8125 
Q 21.140625 -20.796875 15.09375 -20.796875 
L 7.90625 -20.796875 
L 7.90625 -13.28125 
L 13.1875 -13.28125 
Q 16.890625 -13.28125 18.9375 -11.515625 
Q 21 -9.765625 23.484375 -3.21875 
L 25.09375 0.875 
L 2.984375 54.6875 
L 12.5 54.6875 
L 29.59375 11.921875 
L 46.6875 54.6875 
L 56.203125 54.6875 
z
" id="DejaVuSans-79"/>
     <path d="M 10.59375 45.40625 
L 73.1875 45.40625 
L 73.1875 37.203125 
L 10.59375 37.203125 
z
M 10.59375 25.484375 
L 73.1875 25.484375 
L 73.1875 17.1875 
L 10.59375 17.1875 
z
" id="DejaVuSans-3d"/>
     <path d="M 47.015625 60.890625 
L 29.5 51.421875 
L 47.015625 41.890625 
L 44.1875 37.109375 
L 27.78125 47.015625 
L 27.78125 28.609375 
L 22.21875 28.609375 
L 22.21875 47.015625 
L 5.8125 37.109375 
L 2.984375 41.890625 
L 20.515625 51.421875 
L 2.984375 60.890625 
L 5.8125 65.71875 
L 22.21875 55.8125 
L 22.21875 74.21875 
L 27.78125 74.21875 
L 27.78125 55.8125 
L 44.1875 65.71875 
z
" id="DejaVuSans-2a"/>
     <path d="M 54.890625 54.6875 
L 35.109375 28.078125 
L 55.90625 0 
L 45.3125 0 
L 29.390625 21.484375 
L 13.484375 0 
L 2.875 0 
L 24.125 28.609375 
L 4.6875 54.6875 
L 15.28125 54.6875 
L 29.78125 35.203125 
L 44.28125 54.6875 
z
" id="DejaVuSans-78"/>
     <path d="M 18.109375 8.203125 
L 18.109375 -20.796875 
L 9.078125 -20.796875 
L 9.078125 54.6875 
L 18.109375 54.6875 
L 18.109375 46.390625 
Q 20.953125 51.265625 25.265625 53.625 
Q 29.59375 56 35.59375 56 
Q 45.5625 56 51.78125 48.09375 
Q 58.015625 40.1875 58.015625 27.296875 
Q 58.015625 14.40625 51.78125 6.484375 
Q 45.5625 -1.421875 35.59375 -1.421875 
Q 29.59375 -1.421875 25.265625 0.953125 
Q 20.953125 3.328125 18.109375 8.203125 
z
M 48.6875 27.296875 
Q 48.6875 37.203125 44.609375 42.84375 
Q 40.53125 48.484375 33.40625 48.484375 
Q 26.265625 48.484375 22.1875 42.84375 
Q 18.109375 37.203125 18.109375 27.296875 
Q 18.109375 17.390625 22.1875 11.75 
Q 26.265625 6.109375 33.40625 6.109375 
Q 40.53125 6.109375 44.609375 11.75 
Q 48.6875 17.390625 48.6875 27.296875 
z
" id="DejaVuSans-70"/>
     <path d="M 4.890625 31.390625 
L 31.203125 31.390625 
L 31.203125 23.390625 
L 4.890625 23.390625 
z
" id="DejaVuSans-2d"/>
     <path d="M 4.203125 54.6875 
L 13.1875 54.6875 
L 24.421875 12.015625 
L 35.59375 54.6875 
L 46.1875 54.6875 
L 57.421875 12.015625 
L 68.609375 54.6875 
L 77.59375 54.6875 
L 63.28125 0 
L 52.6875 0 
L 40.921875 44.828125 
L 29.109375 0 
L 18.5 0 
z
" id="DejaVuSans-77"/>
     <path d="M 46 62.703125 
L 46 35.5 
L 73.1875 35.5 
L 73.1875 27.203125 
L 46 27.203125 
L 46 0 
L 37.796875 0 
L 37.796875 27.203125 
L 10.59375 27.203125 
L 10.59375 35.5 
L 37.796875 35.5 
L 37.796875 62.703125 
z
" id="DejaVuSans-2b"/>
     <path d="M 48.6875 27.296875 
Q 48.6875 37.203125 44.609375 42.84375 
Q 40.53125 48.484375 33.40625 48.484375 
Q 26.265625 48.484375 22.1875 42.84375 
Q 18.109375 37.203125 18.109375 27.296875 
Q 18.109375 17.390625 22.1875 11.75 
Q 26.265625 6.109375 33.40625 6.109375 
Q 40.53125 6.109375 44.609375 11.75 
Q 48.6875 17.390625 48.6875 27.296875 
z
M 18.109375 46.390625 
Q 20.953125 51.265625 25.265625 53.625 
Q 29.59375 56 35.59375 56 
Q 45.5625 56 51.78125 48.09375 
Q 58.015625 40.1875 58.015625 27.296875 
Q 58.015625 14.40625 51.78125 6.484375 
Q 45.5625 -1.421875 35.59375 -1.421875 
Q 29.59375 -1.421875 25.265625 0.953125 
Q 20.953125 3.328125 18.109375 8.203125 
L 18.109375 0 
L 9.078125 0 
L 9.078125 75.984375 
L 18.109375 75.984375 
z
" id="DejaVuSans-62"/>
    </defs>
    <g transform="translate(147.528 34.690775)scale(0.1 -0.1)">
     <use xlink:href="#DejaVuSans-46"/>
     <use x="57.441406" xlink:href="#DejaVuSans-75"/>
     <use x="120.820312" xlink:href="#DejaVuSans-6e"/>
     <use x="184.199219" xlink:href="#DejaVuSans-63"/>
     <use x="239.179688" xlink:href="#DejaVuSans-74"/>
     <use x="278.388672" xlink:href="#DejaVuSans-69"/>
     <use x="306.171875" xlink:href="#DejaVuSans-6f"/>
     <use x="367.353516" xlink:href="#DejaVuSans-6e"/>
     <use x="430.732422" xlink:href="#DejaVuSans-20"/>
     <use x="462.519531" xlink:href="#DejaVuSans-28"/>
     <use x="501.533203" xlink:href="#DejaVuSans-30"/>
     <use x="565.15625" xlink:href="#DejaVuSans-2f"/>
     <use x="598.847656" xlink:href="#DejaVuSans-30"/>
     <use x="662.470703" xlink:href="#DejaVuSans-29"/>
     <use x="701.484375" xlink:href="#DejaVuSans-3a"/>
     <use x="735.175781" xlink:href="#DejaVuSans-20"/>
     <use x="766.962891" xlink:href="#DejaVuSans-79"/>
     <use x="826.142578" xlink:href="#DejaVuSans-20"/>
     <use x="857.929688" xlink:href="#DejaVuSans-3d"/>
     <use x="941.71875" xlink:href="#DejaVuSans-20"/>
     <use x="973.505859" xlink:href="#DejaVuSans-61"/>
     <use x="1034.785156" xlink:href="#DejaVuSans-2a"/>
     <use x="1084.785156" xlink:href="#DejaVuSans-65"/>
     <use x="1146.292969" xlink:href="#DejaVuSans-78"/>
     <use x="1205.472656" xlink:href="#DejaVuSans-70"/>
     <use x="1268.949219" xlink:href="#DejaVuSans-28"/>
     <use x="1307.962891" xlink:href="#DejaVuSans-2d"/>
     <use x="1344.046875" xlink:href="#DejaVuSans-28"/>
     <use x="1383.060547" xlink:href="#DejaVuSans-78"/>
     <use x="1442.240234" xlink:href="#DejaVuSans-2d"/>
     <use x="1478.324219" xlink:href="#DejaVuSans-78"/>
     <use x="1537.503906" xlink:href="#DejaVuSans-30"/>
     <use x="1601.126953" xlink:href="#DejaVuSans-29"/>
     <use x="1640.140625" xlink:href="#DejaVuSans-2a"/>
     <use x="1690.140625" xlink:href="#DejaVuSans-2a"/>
     <use x="1740.140625" xlink:href="#DejaVuSans-32"/>
     <use x="1803.763672" xlink:href="#DejaVuSans-2f"/>
     <use x="1837.455078" xlink:href="#DejaVuSans-77"/>
     <use x="1919.242188" xlink:href="#DejaVuSans-2a"/>
     <use x="1969.242188" xlink:href="#DejaVuSans-2a"/>
     <use x="2019.242188" xlink:href="#DejaVuSans-32"/>
     <use x="2082.865234" xlink:href="#DejaVuSans-29"/>
     <use x="2121.878906" xlink:href="#DejaVuSans-2b"/>
     <use x="2205.667969" xlink:href="#DejaVuSans-62"/>
    </g>
    <!-- Fit: a=461.6$\pm$8.9, b=26.0$\pm$10.0, x0=4.64274$\pm$0.00097, -->
    <defs>
     <path d="M 37.796875 64.3125 
L 12.890625 25.390625 
L 37.796875 25.390625 
z
M 35.203125 72.90625 
L 47.609375 72.90625 
L 47.609375 25.390625 
L 58.015625 25.390625 
L 58.015625 17.1875 
L 47.609375 17.1875 
L 47.609375 0 
L 37.796875 0 
L 37.796875 17.1875 
L 4.890625 17.1875 
L 4.890625 26.703125 
z
" id="DejaVuSans-34"/>
     <path d="M 33.015625 40.375 
Q 26.375 40.375 22.484375 35.828125 
Q 18.609375 31.296875 18.609375 23.390625 
Q 18.609375 15.53125 22.484375 10.953125 
Q 26.375 6.390625 33.015625 6.390625 
Q 39.65625 6.390625 43.53125 10.953125 
Q 47.40625 15.53125 47.40625 23.390625 
Q 47.40625 31.296875 43.53125 35.828125 
Q 39.65625 40.375 33.015625 40.375 
z
M 52.59375 71.296875 
L 52.59375 62.3125 
Q 48.875 64.0625 45.09375 64.984375 
Q 41.3125 65.921875 37.59375 65.921875 
Q 27.828125 65.921875 22.671875 59.328125 
Q 17.53125 52.734375 16.796875 39.40625 
Q 19.671875 43.65625 24.015625 45.921875 
Q 28.375 48.1875 33.59375 48.1875 
Q 44.578125 48.1875 50.953125 41.515625 
Q 57.328125 34.859375 57.328125 23.390625 
Q 57.328125 12.15625 50.6875 5.359375 
Q 44.046875 -1.421875 33.015625 -1.421875 
Q 20.359375 -1.421875 13.671875 8.265625 
Q 6.984375 17.96875 6.984375 36.375 
Q 6.984375 53.65625 15.1875 63.9375 
Q 23.390625 74.21875 37.203125 74.21875 
Q 40.921875 74.21875 44.703125 73.484375 
Q 48.484375 72.75 52.59375 71.296875 
z
" id="DejaVuSans-36"/>
     <path d="M 12.40625 8.296875 
L 28.515625 8.296875 
L 28.515625 63.921875 
L 10.984375 60.40625 
L 10.984375 69.390625 
L 28.421875 72.90625 
L 38.28125 72.90625 
L 38.28125 8.296875 
L 54.390625 8.296875 
L 54.390625 0 
L 12.40625 0 
z
" id="DejaVuSans-31"/>
     <path d="M 10.6875 12.40625 
L 21 12.40625 
L 21 0 
L 10.6875 0 
z
" id="DejaVuSans-2e"/>
     <path d="M 46 62.703125 
L 46 43.796875 
L 73.1875 43.796875 
L 73.1875 35.5 
L 46 35.5 
L 46 16.609375 
L 37.796875 16.609375 
L 37.796875 35.5 
L 10.59375 35.5 
L 10.59375 43.796875 
L 37.796875 43.796875 
L 37.796875 62.703125 
z
M 10.59375 8.296875 
L 73.1875 8.296875 
L 73.1875 0 
L 10.59375 0 
z
" id="DejaVuSans-b1"/>
     <path d="M 31.78125 34.625 
Q 24.75 34.625 20.71875 30.859375 
Q 16.703125 27.09375 16.703125 20.515625 
Q 16.703125 13.921875 20.71875 10.15625 
Q 24.75 6.390625 31.78125 6.390625 
Q 38.8125 6.390625 42.859375 10.171875 
Q 46.921875 13.96875 46.921875 20.515625 
Q 46.921875 27.09375 42.890625 30.859375 
Q 38.875 34.625 31.78125 34.625 
z
M 21.921875 38.8125 
Q 15.578125 40.375 12.03125 44.71875 
Q 8.5 49.078125 8.5 55.328125 
Q 8.5 64.0625 14.71875 69.140625 
Q 20.953125 74.21875 31.78125 74.21875 
Q 42.671875 74.21875 48.875 69.140625 
Q 55.078125 64.0625 55.078125 55.328125 
Q 55.078125 49.078125 51.53125 44.71875 
Q 48 40.375 41.703125 38.8125 
Q 48.828125 37.15625 52.796875 32.3125 
Q 56.78125 27.484375 56.78125 20.515625 
Q 56.78125 9.90625 50.3125 4.234375 
Q 43.84375 -1.421875 31.78125 -1.421875 
Q 19.734375 -1.421875 13.25 4.234375 
Q 6.78125 9.90625 6.78125 20.515625 
Q 6.78125 27.484375 10.78125 32.3125 
Q 14.796875 37.15625 21.921875 38.8125 
z
M 18.3125 54.390625 
Q 18.3125 48.734375 21.84375 45.5625 
Q 25.390625 42.390625 31.78125 42.390625 
Q 38.140625 42.390625 41.71875 45.5625 
Q 45.3125 48.734375 45.3125 54.390625 
Q 45.3125 60.0625 41.71875 63.234375 
Q 38.140625 66.40625 31.78125 66.40625 
Q 25.390625 66.40625 21.84375 63.234375 
Q 18.3125 60.0625 18.3125 54.390625 
z
" id="DejaVuSans-38"/>
     <path d="M 10.984375 1.515625 
L 10.984375 10.5 
Q 14.703125 8.734375 18.5 7.8125 
Q 22.3125 6.890625 25.984375 6.890625 
Q 35.75 6.890625 40.890625 13.453125 
Q 46.046875 20.015625 46.78125 33.40625 
Q 43.953125 29.203125 39.59375 26.953125 
Q 35.25 24.703125 29.984375 24.703125 
Q 19.046875 24.703125 12.671875 31.3125 
Q 6.296875 37.9375 6.296875 49.421875 
Q 6.296875 60.640625 12.9375 67.421875 
Q 19.578125 74.21875 30.609375 74.21875 
Q 43.265625 74.21875 49.921875 64.515625 
Q 56.59375 54.828125 56.59375 36.375 
Q 56.59375 19.140625 48.40625 8.859375 
Q 40.234375 -1.421875 26.421875 -1.421875 
Q 22.703125 -1.421875 18.890625 -0.6875 
Q 15.09375 0.046875 10.984375 1.515625 
z
M 30.609375 32.421875 
Q 37.25 32.421875 41.125 36.953125 
Q 45.015625 41.5 45.015625 49.421875 
Q 45.015625 57.28125 41.125 61.84375 
Q 37.25 66.40625 30.609375 66.40625 
Q 23.96875 66.40625 20.09375 61.84375 
Q 16.21875 57.28125 16.21875 49.421875 
Q 16.21875 41.5 20.09375 36.953125 
Q 23.96875 32.421875 30.609375 32.421875 
z
" id="DejaVuSans-39"/>
     <path d="M 11.71875 12.40625 
L 22.015625 12.40625 
L 22.015625 4 
L 14.015625 -11.625 
L 7.71875 -11.625 
L 11.71875 4 
z
" id="DejaVuSans-2c"/>
     <path d="M 8.203125 72.90625 
L 55.078125 72.90625 
L 55.078125 68.703125 
L 28.609375 0 
L 18.3125 0 
L 43.21875 64.59375 
L 8.203125 64.59375 
z
" id="DejaVuSans-37"/>
    </defs>
    <g transform="translate(147.528 45.888588)scale(0.1 -0.1)">
     <use transform="translate(0 0.015625)" xlink:href="#DejaVuSans-46"/>
     <use transform="translate(57.519531 0.015625)" xlink:href="#DejaVuSans-69"/>
     <use transform="translate(85.302734 0.015625)" xlink:href="#DejaVuSans-74"/>
     <use transform="translate(124.511719 0.015625)" xlink:href="#DejaVuSans-3a"/>
     <use transform="translate(158.203125 0.015625)" xlink:href="#DejaVuSans-20"/>
     <use transform="translate(189.990234 0.015625)" xlink:href="#DejaVuSans-61"/>
     <use transform="translate(251.269531 0.015625)" xlink:href="#DejaVuSans-3d"/>
     <use transform="translate(335.058594 0.015625)" xlink:href="#DejaVuSans-34"/>
     <use transform="translate(398.681641 0.015625)" xlink:href="#DejaVuSans-36"/>
     <use transform="translate(462.304688 0.015625)" xlink:href="#DejaVuSans-31"/>
     <use transform="translate(525.927734 0.015625)" xlink:href="#DejaVuSans-2e"/>
     <use transform="translate(557.714844 0.015625)" xlink:href="#DejaVuSans-36"/>
     <use transform="translate(621.337891 0.015625)" xlink:href="#DejaVuSans-b1"/>
     <use transform="translate(705.126953 0.015625)" xlink:href="#DejaVuSans-38"/>
     <use transform="translate(768.75 0.015625)" xlink:href="#DejaVuSans-2e"/>
     <use transform="translate(800.537109 0.015625)" xlink:href="#DejaVuSans-39"/>
     <use transform="translate(864.160156 0.015625)" xlink:href="#DejaVuSans-2c"/>
     <use transform="translate(895.947266 0.015625)" xlink:href="#DejaVuSans-20"/>
     <use transform="translate(927.734375 0.015625)" xlink:href="#DejaVuSans-62"/>
     <use transform="translate(991.210938 0.015625)" xlink:href="#DejaVuSans-3d"/>
     <use transform="translate(1075 0.015625)" xlink:href="#DejaVuSans-32"/>
     <use transform="translate(1138.623047 0.015625)" xlink:href="#DejaVuSans-36"/>
     <use transform="translate(1202.246094 0.015625)" xlink:href="#DejaVuSans-2e"/>
     <use transform="translate(1234.033203 0.015625)" xlink:href="#DejaVuSans-30"/>
     <use transform="translate(1297.65625 0.015625)" xlink:href="#DejaVuSans-b1"/>
     <use transform="translate(1381.445312 0.015625)" xlink:href="#DejaVuSans-31"/>
     <use transform="translate(1445.068359 0.015625)" xlink:href="#DejaVuSans-30"/>
     <use transform="translate(1508.691406 0.015625)" xlink:href="#DejaVuSans-2e"/>
     <use transform="translate(1540.478516 0.015625)" xlink:href="#DejaVuSans-30"/>
     <use transform="translate(1604.101562 0.015625)" xlink:href="#DejaVuSans-2c"/>
     <use transform="translate(1635.888672 0.015625)" xlink:href="#DejaVuSans-20"/>
     <use transform="translate(1667.675781 0.015625)" xlink:href="#DejaVuSans-78"/>
     <use transform="translate(1726.855469 0.015625)" xlink:href="#DejaVuSans-30"/>
     <use transform="translate(1790.478516 0.015625)" xlink:href="#DejaVuSans-3d"/>
     <use transform="translate(1874.267578 0.015625)" xlink:href="#DejaVuSans-34"/>
     <use transform="translate(1937.890625 0.015625)" xlink:href="#DejaVuSans-2e"/>
     <use transform="translate(1969.677734 0.015625)" xlink:href="#DejaVuSans-36"/>
     <use transform="translate(2033.300781 0.015625)" xlink:href="#DejaVuSans-34"/>
     <use transform="translate(2096.923828 0.015625)" xlink:href="#DejaVuSans-32"/>
     <use transform="translate(2160.546875 0.015625)" xlink:href="#DejaVuSans-37"/>
     <use transform="translate(2224.169922 0.015625)" xlink:href="#DejaVuSans-34"/>
     <use transform="translate(2287.792969 0.015625)" xlink:href="#DejaVuSans-b1"/>
     <use transform="translate(2371.582031 0.015625)" xlink:href="#DejaVuSans-30"/>
     <use transform="translate(2435.205078 0.015625)" xlink:href="#DejaVuSans-2e"/>
     <use transform="translate(2466.992188 0.015625)" xlink:href="#DejaVuSans-30"/>
     <use transform="translate(2530.615234 0.015625)" xlink:href="#DejaVuSans-30"/>
     <use transform="translate(2594.238281 0.015625)" xlink:href="#DejaVuSans-30"/>
     <use transform="translate(2657.861328 0.015625)" xlink:href="#DejaVuSans-39"/>
     <use transform="translate(2721.484375 0.015625)" xlink:href="#DejaVuSans-37"/>
     <use transform="translate(2785.107422 0.015625)" xlink:href="#DejaVuSans-2c"/>
    </g>
    <!--       w=0.1697$\pm$0.0045, -->
    <defs>
     <path d="M 10.796875 72.90625 
L 49.515625 72.90625 
L 49.515625 64.59375 
L 19.828125 64.59375 
L 19.828125 46.734375 
Q 21.96875 47.46875 24.109375 47.828125 
Q 26.265625 48.1875 28.421875 48.1875 
Q 40.625 48.1875 47.75 41.5 
Q 54.890625 34.8125 54.890625 23.390625 
Q 54.890625 11.625 47.5625 5.09375 
Q 40.234375 -1.421875 26.90625 -1.421875 
Q 22.3125 -1.421875 17.546875 -0.640625 
Q 12.796875 0.140625 7.71875 1.703125 
L 7.71875 11.625 
Q 12.109375 9.234375 16.796875 8.0625 
Q 21.484375 6.890625 26.703125 6.890625 
Q 35.15625 6.890625 40.078125 11.328125 
Q 45.015625 15.765625 45.015625 23.390625 
Q 45.015625 31 40.078125 35.4375 
Q 35.15625 39.890625 26.703125 39.890625 
Q 22.75 39.890625 18.8125 39.015625 
Q 14.890625 38.140625 10.796875 36.28125 
z
" id="DejaVuSans-35"/>
    </defs>
    <g transform="translate(147.528 57.0864)scale(0.1 -0.1)">
     <use transform="translate(0 0.78125)" xlink:href="#DejaVuSans-20"/>
     <use transform="translate(31.787109 0.78125)" xlink:href="#DejaVuSans-20"/>
     <use transform="translate(63.574219 0.78125)" xlink:href="#DejaVuSans-20"/>
     <use transform="translate(95.361328 0.78125)" xlink:href="#DejaVuSans-20"/>
     <use transform="translate(127.148438 0.78125)" xlink:href="#DejaVuSans-20"/>
     <use transform="translate(158.935547 0.78125)" xlink:href="#DejaVuSans-20"/>
     <use transform="translate(190.722656 0.78125)" xlink:href="#DejaVuSans-77"/>
     <use transform="translate(272.509766 0.78125)" xlink:href="#DejaVuSans-3d"/>
     <use transform="translate(356.298828 0.78125)" xlink:href="#DejaVuSans-30"/>
     <use transform="translate(419.921875 0.78125)" xlink:href="#DejaVuSans-2e"/>
     <use transform="translate(451.708984 0.78125)" xlink:href="#DejaVuSans-31"/>
     <use transform="translate(515.332031 0.78125)" xlink:href="#DejaVuSans-36"/>
     <use transform="translate(578.955078 0.78125)" xlink:href="#DejaVuSans-39"/>
     <use transform="translate(642.578125 0.78125)" xlink:href="#DejaVuSans-37"/>
     <use transform="translate(706.201172 0.78125)" xlink:href="#DejaVuSans-b1"/>
     <use transform="translate(789.990234 0.78125)" xlink:href="#DejaVuSans-30"/>
     <use transform="translate(853.613281 0.78125)" xlink:href="#DejaVuSans-2e"/>
     <use transform="translate(885.400391 0.78125)" xlink:href="#DejaVuSans-30"/>
     <use transform="translate(949.023438 0.78125)" xlink:href="#DejaVuSans-30"/>
     <use transform="translate(1012.646484 0.78125)" xlink:href="#DejaVuSans-34"/>
     <use transform="translate(1076.269531 0.78125)" xlink:href="#DejaVuSans-35"/>
     <use transform="translate(1139.892578 0.78125)" xlink:href="#DejaVuSans-2c"/>
    </g>
   </g>
  </g>
  <g id="axes_2">
   <g id="patch_7">
    <path d="M 147.528 436.752 
L 885.168 436.752 
L 885.168 145.584 
L 147.528 145.584 
z
" style="fill:#ffffff;"/>
   </g>
   <g id="matplotlib.axis_3">
    <g id="xtick_7">
     <g id="line2d_12">
      <g>
       <use style="stroke:#000000;stroke-width:0.8;" x="178.257602" xlink:href="#m37bb4be6cb" y="436.752"/>
      </g>
     </g>
     <g id="text_5">
      <!-- 4.4 -->
      <g transform="translate(168.715727 452.870125)scale(0.12 -0.12)">
       <use xlink:href="#DejaVuSans-34"/>
       <use x="63.623047" xlink:href="#DejaVuSans-2e"/>
       <use x="95.410156" xlink:href="#DejaVuSans-34"/>
      </g>
     </g>
    </g>
    <g id="xtick_8">
     <g id="line2d_13">
      <g>
       <use style="stroke:#000000;stroke-width:0.8;" x="318.273805" xlink:href="#m37bb4be6cb" y="436.752"/>
      </g>
     </g>
     <g id="text_6">
      <!-- 4.5 -->
      <g transform="translate(308.73193 452.870125)scale(0.12 -0.12)">
       <use xlink:href="#DejaVuSans-34"/>
       <use x="63.623047" xlink:href="#DejaVuSans-2e"/>
       <use x="95.410156" xlink:href="#DejaVuSans-35"/>
      </g>
     </g>
    </g>
    <g id="xtick_9">
     <g id="line2d_14">
      <g>
       <use style="stroke:#000000;stroke-width:0.8;" x="458.290007" xlink:href="#m37bb4be6cb" y="436.752"/>
      </g>
     </g>
     <g id="text_7">
      <!-- 4.6 -->
      <g transform="translate(448.748132 452.870125)scale(0.12 -0.12)">
       <use xlink:href="#DejaVuSans-34"/>
       <use x="63.623047" xlink:href="#DejaVuSans-2e"/>
       <use x="95.410156" xlink:href="#DejaVuSans-36"/>
      </g>
     </g>
    </g>
    <g id="xtick_10">
     <g id="line2d_15">
      <g>
       <use style="stroke:#000000;stroke-width:0.8;" x="598.306209" xlink:href="#m37bb4be6cb" y="436.752"/>
      </g>
     </g>
     <g id="text_8">
      <!-- 4.7 -->
      <g transform="translate(588.764334 452.870125)scale(0.12 -0.12)">
       <use xlink:href="#DejaVuSans-34"/>
       <use x="63.623047" xlink:href="#DejaVuSans-2e"/>
       <use x="95.410156" xlink:href="#DejaVuSans-37"/>
      </g>
     </g>
    </g>
    <g id="xtick_11">
     <g id="line2d_16">
      <g>
       <use style="stroke:#000000;stroke-width:0.8;" x="738.322411" xlink:href="#m37bb4be6cb" y="436.752"/>
      </g>
     </g>
     <g id="text_9">
      <!-- 4.8 -->
      <g transform="translate(728.780536 452.870125)scale(0.12 -0.12)">
       <use xlink:href="#DejaVuSans-34"/>
       <use x="63.623047" xlink:href="#DejaVuSans-2e"/>
       <use x="95.410156" xlink:href="#DejaVuSans-38"/>
      </g>
     </g>
    </g>
    <g id="xtick_12">
     <g id="line2d_17">
      <g>
       <use style="stroke:#000000;stroke-width:0.8;" x="878.338614" xlink:href="#m37bb4be6cb" y="436.752"/>
      </g>
     </g>
     <g id="text_10">
      <!-- 4.9 -->
      <g transform="translate(868.796739 452.870125)scale(0.12 -0.12)">
       <use xlink:href="#DejaVuSans-34"/>
       <use x="63.623047" xlink:href="#DejaVuSans-2e"/>
       <use x="95.410156" xlink:href="#DejaVuSans-39"/>
      </g>
     </g>
    </g>
    <g id="text_11">
     <!-- Energy [MeV] -->
     <defs>
      <path d="M 9.8125 72.90625 
L 55.90625 72.90625 
L 55.90625 64.59375 
L 19.671875 64.59375 
L 19.671875 43.015625 
L 54.390625 43.015625 
L 54.390625 34.71875 
L 19.671875 34.71875 
L 19.671875 8.296875 
L 56.78125 8.296875 
L 56.78125 0 
L 9.8125 0 
z
" id="DejaVuSans-45"/>
      <path d="M 41.109375 46.296875 
Q 39.59375 47.171875 37.8125 47.578125 
Q 36.03125 48 33.890625 48 
Q 26.265625 48 22.1875 43.046875 
Q 18.109375 38.09375 18.109375 28.8125 
L 18.109375 0 
L 9.078125 0 
L 9.078125 54.6875 
L 18.109375 54.6875 
L 18.109375 46.1875 
Q 20.953125 51.171875 25.484375 53.578125 
Q 30.03125 56 36.53125 56 
Q 37.453125 56 38.578125 55.875 
Q 39.703125 55.765625 41.0625 55.515625 
z
" id="DejaVuSans-72"/>
      <path d="M 45.40625 27.984375 
Q 45.40625 37.75 41.375 43.109375 
Q 37.359375 48.484375 30.078125 48.484375 
Q 22.859375 48.484375 18.828125 43.109375 
Q 14.796875 37.75 14.796875 27.984375 
Q 14.796875 18.265625 18.828125 12.890625 
Q 22.859375 7.515625 30.078125 7.515625 
Q 37.359375 7.515625 41.375 12.890625 
Q 45.40625 18.265625 45.40625 27.984375 
z
M 54.390625 6.78125 
Q 54.390625 -7.171875 48.1875 -13.984375 
Q 42 -20.796875 29.203125 -20.796875 
Q 24.46875 -20.796875 20.265625 -20.09375 
Q 16.0625 -19.390625 12.109375 -17.921875 
L 12.109375 -9.1875 
Q 16.0625 -11.328125 19.921875 -12.34375 
Q 23.78125 -13.375 27.78125 -13.375 
Q 36.625 -13.375 41.015625 -8.765625 
Q 45.40625 -4.15625 45.40625 5.171875 
L 45.40625 9.625 
Q 42.625 4.78125 38.28125 2.390625 
Q 33.9375 0 27.875 0 
Q 17.828125 0 11.671875 7.65625 
Q 5.515625 15.328125 5.515625 27.984375 
Q 5.515625 40.671875 11.671875 48.328125 
Q 17.828125 56 27.875 56 
Q 33.9375 56 38.28125 53.609375 
Q 42.625 51.21875 45.40625 46.390625 
L 45.40625 54.6875 
L 54.390625 54.6875 
z
" id="DejaVuSans-67"/>
      <path d="M 8.59375 75.984375 
L 29.296875 75.984375 
L 29.296875 69 
L 17.578125 69 
L 17.578125 -6.203125 
L 29.296875 -6.203125 
L 29.296875 -13.1875 
L 8.59375 -13.1875 
z
" id="DejaVuSans-5b"/>
      <path d="M 9.8125 72.90625 
L 24.515625 72.90625 
L 43.109375 23.296875 
L 61.8125 72.90625 
L 76.515625 72.90625 
L 76.515625 0 
L 66.890625 0 
L 66.890625 64.015625 
L 48.09375 14.015625 
L 38.1875 14.015625 
L 19.390625 64.015625 
L 19.390625 0 
L 9.8125 0 
z
" id="DejaVuSans-4d"/>
      <path d="M 28.609375 0 
L 0.78125 72.90625 
L 11.078125 72.90625 
L 34.1875 11.53125 
L 57.328125 72.90625 
L 67.578125 72.90625 
L 39.796875 0 
z
" id="DejaVuSans-56"/>
      <path d="M 30.421875 75.984375 
L 30.421875 -13.1875 
L 9.71875 -13.1875 
L 9.71875 -6.203125 
L 21.390625 -6.203125 
L 21.390625 69 
L 9.71875 69 
L 9.71875 75.984375 
z
" id="DejaVuSans-5d"/>
     </defs>
     <g transform="translate(475.674562 468.483875)scale(0.12 -0.12)">
      <use xlink:href="#DejaVuSans-45"/>
      <use x="63.183594" xlink:href="#DejaVuSans-6e"/>
      <use x="126.5625" xlink:href="#DejaVuSans-65"/>
      <use x="188.085938" xlink:href="#DejaVuSans-72"/>
      <use x="229.183594" xlink:href="#DejaVuSans-67"/>
      <use x="292.660156" xlink:href="#DejaVuSans-79"/>
      <use x="351.839844" xlink:href="#DejaVuSans-20"/>
      <use x="383.626953" xlink:href="#DejaVuSans-5b"/>
      <use x="422.640625" xlink:href="#DejaVuSans-4d"/>
      <use x="508.919922" xlink:href="#DejaVuSans-65"/>
      <use x="570.443359" xlink:href="#DejaVuSans-56"/>
      <use x="638.851562" xlink:href="#DejaVuSans-5d"/>
     </g>
    </g>
   </g>
   <g id="matplotlib.axis_4">
    <g id="ytick_4">
     <g id="line2d_18">
      <g>
       <use style="stroke:#000000;stroke-width:0.8;" x="147.528" xlink:href="#m6c49b335d1" y="414.456989"/>
      </g>
     </g>
     <g id="text_12">
      <!-- 100 -->
      <g transform="translate(117.623 419.016051)scale(0.12 -0.12)">
       <use xlink:href="#DejaVuSans-31"/>
       <use x="63.623047" xlink:href="#DejaVuSans-30"/>
       <use x="127.246094" xlink:href="#DejaVuSans-30"/>
      </g>
     </g>
    </g>
    <g id="ytick_5">
     <g id="line2d_19">
      <g>
       <use style="stroke:#000000;stroke-width:0.8;" x="147.528" xlink:href="#m6c49b335d1" y="353.872719"/>
      </g>
     </g>
     <g id="text_13">
      <!-- 200 -->
      <g transform="translate(117.623 358.431782)scale(0.12 -0.12)">
       <use xlink:href="#DejaVuSans-32"/>
       <use x="63.623047" xlink:href="#DejaVuSans-30"/>
       <use x="127.246094" xlink:href="#DejaVuSans-30"/>
      </g>
     </g>
    </g>
    <g id="ytick_6">
     <g id="line2d_20">
      <g>
       <use style="stroke:#000000;stroke-width:0.8;" x="147.528" xlink:href="#m6c49b335d1" y="293.288449"/>
      </g>
     </g>
     <g id="text_14">
      <!-- 300 -->
      <defs>
       <path d="M 40.578125 39.3125 
Q 47.65625 37.796875 51.625 33 
Q 55.609375 28.21875 55.609375 21.1875 
Q 55.609375 10.40625 48.1875 4.484375 
Q 40.765625 -1.421875 27.09375 -1.421875 
Q 22.515625 -1.421875 17.65625 -0.515625 
Q 12.796875 0.390625 7.625 2.203125 
L 7.625 11.71875 
Q 11.71875 9.328125 16.59375 8.109375 
Q 21.484375 6.890625 26.8125 6.890625 
Q 36.078125 6.890625 40.9375 10.546875 
Q 45.796875 14.203125 45.796875 21.1875 
Q 45.796875 27.640625 41.28125 31.265625 
Q 36.765625 34.90625 28.71875 34.90625 
L 20.21875 34.90625 
L 20.21875 43.015625 
L 29.109375 43.015625 
Q 36.375 43.015625 40.234375 45.921875 
Q 44.09375 48.828125 44.09375 54.296875 
Q 44.09375 59.90625 40.109375 62.90625 
Q 36.140625 65.921875 28.71875 65.921875 
Q 24.65625 65.921875 20.015625 65.03125 
Q 15.375 64.15625 9.8125 62.3125 
L 9.8125 71.09375 
Q 15.4375 72.65625 20.34375 73.4375 
Q 25.25 74.21875 29.59375 74.21875 
Q 40.828125 74.21875 47.359375 69.109375 
Q 53.90625 64.015625 53.90625 55.328125 
Q 53.90625 49.265625 50.4375 45.09375 
Q 46.96875 40.921875 40.578125 39.3125 
z
" id="DejaVuSans-33"/>
      </defs>
      <g transform="translate(117.623 297.847512)scale(0.12 -0.12)">
       <use xlink:href="#DejaVuSans-33"/>
       <use x="63.623047" xlink:href="#DejaVuSans-30"/>
       <use x="127.246094" xlink:href="#DejaVuSans-30"/>
      </g>
     </g>
    </g>
    <g id="ytick_7">
     <g id="line2d_21">
      <g>
       <use style="stroke:#000000;stroke-width:0.8;" x="147.528" xlink:href="#m6c49b335d1" y="232.70418"/>
      </g>
     </g>
     <g id="text_15">
      <!-- 400 -->
      <g transform="translate(117.623 237.263242)scale(0.12 -0.12)">
       <use xlink:href="#DejaVuSans-34"/>
       <use x="63.623047" xlink:href="#DejaVuSans-30"/>
       <use x="127.246094" xlink:href="#DejaVuSans-30"/>
      </g>
     </g>
    </g>
    <g id="ytick_8">
     <g id="line2d_22">
      <g>
       <use style="stroke:#000000;stroke-width:0.8;" x="147.528" xlink:href="#m6c49b335d1" y="172.11991"/>
      </g>
     </g>
     <g id="text_16">
      <!-- 500 -->
      <g transform="translate(117.623 176.678973)scale(0.12 -0.12)">
       <use xlink:href="#DejaVuSans-35"/>
       <use x="63.623047" xlink:href="#DejaVuSans-30"/>
       <use x="127.246094" xlink:href="#DejaVuSans-30"/>
      </g>
     </g>
    </g>
    <g id="text_17">
     <!-- Counts -->
     <defs>
      <path d="M 64.40625 67.28125 
L 64.40625 56.890625 
Q 59.421875 61.53125 53.78125 63.8125 
Q 48.140625 66.109375 41.796875 66.109375 
Q 29.296875 66.109375 22.65625 58.46875 
Q 16.015625 50.828125 16.015625 36.375 
Q 16.015625 21.96875 22.65625 14.328125 
Q 29.296875 6.6875 41.796875 6.6875 
Q 48.140625 6.6875 53.78125 8.984375 
Q 59.421875 11.28125 64.40625 15.921875 
L 64.40625 5.609375 
Q 59.234375 2.09375 53.4375 0.328125 
Q 47.65625 -1.421875 41.21875 -1.421875 
Q 24.65625 -1.421875 15.125 8.703125 
Q 5.609375 18.84375 5.609375 36.375 
Q 5.609375 53.953125 15.125 64.078125 
Q 24.65625 74.21875 41.21875 74.21875 
Q 47.75 74.21875 53.53125 72.484375 
Q 59.328125 70.75 64.40625 67.28125 
z
" id="DejaVuSans-43"/>
     </defs>
     <g transform="translate(111.127375 312.11175)rotate(-90)scale(0.12 -0.12)">
      <use xlink:href="#DejaVuSans-43"/>
      <use x="69.824219" xlink:href="#DejaVuSans-6f"/>
      <use x="131.005859" xlink:href="#DejaVuSans-75"/>
      <use x="194.384766" xlink:href="#DejaVuSans-6e"/>
      <use x="257.763672" xlink:href="#DejaVuSans-74"/>
      <use x="296.972656" xlink:href="#DejaVuSans-73"/>
     </g>
    </g>
   </g>
   <g id="LineCollection_2">
    <path clip-path="url(#p22747f48a7)" d="M 174.848 423.391226 
L 174.848 411.581178 
" style="fill:none;stroke:#0000ff;stroke-width:1.5;"/>
    <path clip-path="url(#p22747f48a7)" d="M 183.177268 428.843706 
L 183.177268 417.63971 
" style="fill:none;stroke:#0000ff;stroke-width:1.5;"/>
    <path clip-path="url(#p22747f48a7)" d="M 191.506537 416.194679 
L 191.506537 403.631658 
" style="fill:none;stroke:#0000ff;stroke-width:1.5;"/>
    <path clip-path="url(#p22747f48a7)" d="M 199.835805 419.651921 
L 199.835805 407.444529 
" style="fill:none;stroke:#0000ff;stroke-width:1.5;"/>
    <path clip-path="url(#p22747f48a7)" d="M 208.165073 416.482975 
L 208.165073 403.949204 
" style="fill:none;stroke:#0000ff;stroke-width:1.5;"/>
    <path clip-path="url(#p22747f48a7)" d="M 216.494341 395.070022 
L 216.494341 380.529798 
" style="fill:none;stroke:#0000ff;stroke-width:1.5;"/>
    <path clip-path="url(#p22747f48a7)" d="M 224.82361 402.610052 
L 224.82361 388.741679 
" style="fill:none;stroke:#0000ff;stroke-width:1.5;"/>
    <path clip-path="url(#p22747f48a7)" d="M 233.152878 393.90865 
L 233.152878 379.2678 
" style="fill:none;stroke:#0000ff;stroke-width:1.5;"/>
    <path clip-path="url(#p22747f48a7)" d="M 241.482146 390.131853 
L 241.482146 375.168642 
" style="fill:none;stroke:#0000ff;stroke-width:1.5;"/>
    <path clip-path="url(#p22747f48a7)" d="M 249.811415 393.618253 
L 249.811415 378.952354 
" style="fill:none;stroke:#0000ff;stroke-width:1.5;"/>
    <path clip-path="url(#p22747f48a7)" d="M 258.140683 377.907674 
L 258.140683 361.947427 
" style="fill:none;stroke:#0000ff;stroke-width:1.5;"/>
    <path clip-path="url(#p22747f48a7)" d="M 266.469951 382.277108 
L 266.469951 366.665634 
" style="fill:none;stroke:#0000ff;stroke-width:1.5;"/>
    <path clip-path="url(#p22747f48a7)" d="M 274.79922 378.199088 
L 274.79922 362.261855 
" style="fill:none;stroke:#0000ff;stroke-width:1.5;"/>
    <path clip-path="url(#p22747f48a7)" d="M 283.128488 364.193655 
L 283.128488 347.18684 
" style="fill:none;stroke:#0000ff;stroke-width:1.5;"/>
    <path clip-path="url(#p22747f48a7)" d="M 291.457756 354.546198 
L 291.457756 336.841488 
" style="fill:none;stroke:#0000ff;stroke-width:1.5;"/>
    <path clip-path="url(#p22747f48a7)" d="M 299.787024 348.399918 
L 299.787024 330.265071 
" style="fill:none;stroke:#0000ff;stroke-width:1.5;"/>
    <path clip-path="url(#p22747f48a7)" d="M 308.116293 342.248653 
L 308.116293 323.693639 
" style="fill:none;stroke:#0000ff;stroke-width:1.5;"/>
    <path clip-path="url(#p22747f48a7)" d="M 316.445561 337.265636 
L 316.445561 318.37733 
" style="fill:none;stroke:#0000ff;stroke-width:1.5;"/>
    <path clip-path="url(#p22747f48a7)" d="M 324.774829 330.519335 
L 324.774829 311.18925 
" style="fill:none;stroke:#0000ff;stroke-width:1.5;"/>
    <path clip-path="url(#p22747f48a7)" d="M 333.104098 314.367447 
L 333.104098 294.019789 
" style="fill:none;stroke:#0000ff;stroke-width:1.5;"/>
    <path clip-path="url(#p22747f48a7)" d="M 341.433366 284.64585 
L 341.433366 262.551273 
" style="fill:none;stroke:#0000ff;stroke-width:1.5;"/>
    <path clip-path="url(#p22747f48a7)" d="M 349.762634 297.896984 
L 349.762634 276.563061 
" style="fill:none;stroke:#0000ff;stroke-width:1.5;"/>
    <path clip-path="url(#p22747f48a7)" d="M 358.091902 295.247834 
L 358.091902 273.759626 
" style="fill:none;stroke:#0000ff;stroke-width:1.5;"/>
    <path clip-path="url(#p22747f48a7)" d="M 366.421171 282.878048 
L 366.421171 260.68402 
" style="fill:none;stroke:#0000ff;stroke-width:1.5;"/>
    <path clip-path="url(#p22747f48a7)" d="M 374.750439 292.598135 
L 374.750439 270.956742 
" style="fill:none;stroke:#0000ff;stroke-width:1.5;"/>
    <path clip-path="url(#p22747f48a7)" d="M 383.079707 276.983787 
L 383.079707 254.461427 
" style="fill:none;stroke:#0000ff;stroke-width:1.5;"/>
    <path clip-path="url(#p22747f48a7)" d="M 391.408976 266.073259 
L 391.408976 242.955775 
" style="fill:none;stroke:#0000ff;stroke-width:1.5;"/>
    <path clip-path="url(#p22747f48a7)" d="M 399.738244 254.564896 
L 399.738244 230.836272 
" style="fill:none;stroke:#0000ff;stroke-width:1.5;"/>
    <path clip-path="url(#p22747f48a7)" d="M 408.067512 252.498464 
L 408.067512 228.661806 
" style="fill:none;stroke:#0000ff;stroke-width:1.5;"/>
    <path clip-path="url(#p22747f48a7)" d="M 416.39678 241.276516 
L 416.39678 216.861732 
" style="fill:none;stroke:#0000ff;stroke-width:1.5;"/>
    <path clip-path="url(#p22747f48a7)" d="M 424.726049 225.022496 
L 424.726049 199.794403 
" style="fill:none;stroke:#0000ff;stroke-width:1.5;"/>
    <path clip-path="url(#p22747f48a7)" d="M 433.055317 240.981109 
L 433.055317 216.551296 
" style="fill:none;stroke:#0000ff;stroke-width:1.5;"/>
    <path clip-path="url(#p22747f48a7)" d="M 441.384585 235.958493 
L 441.384585 211.274585 
" style="fill:none;stroke:#0000ff;stroke-width:1.5;"/>
    <path clip-path="url(#p22747f48a7)" d="M 449.713854 201.061949 
L 449.713854 174.681691 
" style="fill:none;stroke:#0000ff;stroke-width:1.5;"/>
    <path clip-path="url(#p22747f48a7)" d="M 458.043122 218.812999 
L 458.043122 193.281203 
" style="fill:none;stroke:#0000ff;stroke-width:1.5;"/>
    <path clip-path="url(#p22747f48a7)" d="M 466.37239 215.263909 
L 466.37239 189.560181 
" style="fill:none;stroke:#0000ff;stroke-width:1.5;"/>
    <path clip-path="url(#p22747f48a7)" d="M 474.701659 198.102122 
L 474.701659 171.583092 
" style="fill:none;stroke:#0000ff;stroke-width:1.5;"/>
    <path clip-path="url(#p22747f48a7)" d="M 483.030927 192.181388 
L 483.030927 165.386972 
" style="fill:none;stroke:#0000ff;stroke-width:1.5;"/>
    <path clip-path="url(#p22747f48a7)" d="M 491.360195 173.818395 
L 491.360195 146.187717 
" style="fill:none;stroke:#0000ff;stroke-width:1.5;"/>
    <path clip-path="url(#p22747f48a7)" d="M 499.689463 192.181388 
L 499.689463 165.386972 
" style="fill:none;stroke:#0000ff;stroke-width:1.5;"/>
    <path clip-path="url(#p22747f48a7)" d="M 508.018732 206.684606 
L 508.018732 180.570045 
" style="fill:none;stroke:#0000ff;stroke-width:1.5;"/>
    <path clip-path="url(#p22747f48a7)" d="M 516.348 205.501001 
L 516.348 179.33028 
" style="fill:none;stroke:#0000ff;stroke-width:1.5;"/>
    <path clip-path="url(#p22747f48a7)" d="M 524.677268 170.262814 
L 524.677268 142.473186 
" style="fill:none;stroke:#0000ff;stroke-width:1.5;"/>
    <path clip-path="url(#p22747f48a7)" d="M 533.006537 194.549852 
L 533.006537 167.865249 
" style="fill:none;stroke:#0000ff;stroke-width:1.5;"/>
    <path clip-path="url(#p22747f48a7)" d="M 541.335805 193.661704 
L 541.335805 166.935869 
" style="fill:none;stroke:#0000ff;stroke-width:1.5;"/>
    <path clip-path="url(#p22747f48a7)" d="M 549.665073 200.765983 
L 549.665073 174.371815 
" style="fill:none;stroke:#0000ff;stroke-width:1.5;"/>
    <path clip-path="url(#p22747f48a7)" d="M 557.994341 194.845894 
L 557.994341 168.17505 
" style="fill:none;stroke:#0000ff;stroke-width:1.5;"/>
    <path clip-path="url(#p22747f48a7)" d="M 566.32361 206.388711 
L 566.32361 180.260098 
" style="fill:none;stroke:#0000ff;stroke-width:1.5;"/>
    <path clip-path="url(#p22747f48a7)" d="M 574.652878 199.582081 
L 574.652878 173.132346 
" style="fill:none;stroke:#0000ff;stroke-width:1.5;"/>
    <path clip-path="url(#p22747f48a7)" d="M 582.982146 217.630033 
L 582.982146 192.040798 
" style="fill:none;stroke:#0000ff;stroke-width:1.5;"/>
    <path clip-path="url(#p22747f48a7)" d="M 591.311415 219.10873 
L 591.311415 193.591315 
" style="fill:none;stroke:#0000ff;stroke-width:1.5;"/>
    <path clip-path="url(#p22747f48a7)" d="M 599.640683 214.376547 
L 599.640683 188.630015 
" style="fill:none;stroke:#0000ff;stroke-width:1.5;"/>
    <path clip-path="url(#p22747f48a7)" d="M 607.969951 218.812999 
L 607.969951 193.281203 
" style="fill:none;stroke:#0000ff;stroke-width:1.5;"/>
    <path clip-path="url(#p22747f48a7)" d="M 616.29922 245.411721 
L 616.29922 221.208324 
" style="fill:none;stroke:#0000ff;stroke-width:1.5;"/>
    <path clip-path="url(#p22747f48a7)" d="M 624.628488 232.116794 
L 624.628488 207.240329 
" style="fill:none;stroke:#0000ff;stroke-width:1.5;"/>
    <path clip-path="url(#p22747f48a7)" d="M 632.957756 250.727041 
L 632.957756 226.798172 
" style="fill:none;stroke:#0000ff;stroke-width:1.5;"/>
    <path clip-path="url(#p22747f48a7)" d="M 641.287024 254.860081 
L 641.287024 231.14693 
" style="fill:none;stroke:#0000ff;stroke-width:1.5;"/>
    <path clip-path="url(#p22747f48a7)" d="M 649.616293 269.907568 
L 649.616293 246.99742 
" style="fill:none;stroke:#0000ff;stroke-width:1.5;"/>
    <path clip-path="url(#p22747f48a7)" d="M 657.945561 269.612655 
L 657.945561 246.686491 
" style="fill:none;stroke:#0000ff;stroke-width:1.5;"/>
    <path clip-path="url(#p22747f48a7)" d="M 666.274829 289.947897 
L 666.274829 268.154395 
" style="fill:none;stroke:#0000ff;stroke-width:1.5;"/>
    <path clip-path="url(#p22747f48a7)" d="M 674.604098 281.994063 
L 674.604098 259.750476 
" style="fill:none;stroke:#0000ff;stroke-width:1.5;"/>
    <path clip-path="url(#p22747f48a7)" d="M 682.933366 294.95345 
L 682.933366 273.448168 
" style="fill:none;stroke:#0000ff;stroke-width:1.5;"/>
    <path clip-path="url(#p22747f48a7)" d="M 691.262634 307.311544 
L 691.262634 286.535467 
" style="fill:none;stroke:#0000ff;stroke-width:1.5;"/>
    <path clip-path="url(#p22747f48a7)" d="M 699.591902 319.362608 
L 699.591902 299.323954 
" style="fill:none;stroke:#0000ff;stroke-width:1.5;"/>
    <path clip-path="url(#p22747f48a7)" d="M 707.921171 314.661345 
L 707.921171 294.331734 
" style="fill:none;stroke:#0000ff;stroke-width:1.5;"/>
    <path clip-path="url(#p22747f48a7)" d="M 716.250439 317.893689 
L 716.250439 297.763659 
" style="fill:none;stroke:#0000ff;stroke-width:1.5;"/>
    <path clip-path="url(#p22747f48a7)" d="M 724.579707 332.866451 
L 724.579707 313.688874 
" style="fill:none;stroke:#0000ff;stroke-width:1.5;"/>
    <path clip-path="url(#p22747f48a7)" d="M 732.908976 339.904074 
L 732.908976 321.191477 
" style="fill:none;stroke:#0000ff;stroke-width:1.5;"/>
    <path clip-path="url(#p22747f48a7)" d="M 741.238244 358.640766 
L 741.238244 341.228717 
" style="fill:none;stroke:#0000ff;stroke-width:1.5;"/>
    <path clip-path="url(#p22747f48a7)" d="M 749.567512 364.193655 
L 749.567512 347.18684 
" style="fill:none;stroke:#0000ff;stroke-width:1.5;"/>
    <path clip-path="url(#p22747f48a7)" d="M 757.89678 357.471139 
L 757.89678 339.974973 
" style="fill:none;stroke:#0000ff;stroke-width:1.5;"/>
    <path clip-path="url(#p22747f48a7)" d="M 766.226049 373.826166 
L 766.226049 357.547138 
" style="fill:none;stroke:#0000ff;stroke-width:1.5;"/>
    <path clip-path="url(#p22747f48a7)" d="M 774.555317 378.199088 
L 774.555317 362.261855 
" style="fill:none;stroke:#0000ff;stroke-width:1.5;"/>
    <path clip-path="url(#p22747f48a7)" d="M 782.884585 382.568265 
L 782.884585 366.98032 
" style="fill:none;stroke:#0000ff;stroke-width:1.5;"/>
    <path clip-path="url(#p22747f48a7)" d="M 791.213854 390.422499 
L 791.213854 375.483838 
" style="fill:none;stroke:#0000ff;stroke-width:1.5;"/>
    <path clip-path="url(#p22747f48a7)" d="M 799.543122 404.058174 
L 799.543122 390.32277 
" style="fill:none;stroke:#0000ff;stroke-width:1.5;"/>
    <path clip-path="url(#p22747f48a7)" d="M 807.87239 402.610052 
L 807.87239 388.741679 
" style="fill:none;stroke:#0000ff;stroke-width:1.5;"/>
    <path clip-path="url(#p22747f48a7)" d="M 816.201659 406.663143 
L 816.201659 393.170385 
" style="fill:none;stroke:#0000ff;stroke-width:1.5;"/>
    <path clip-path="url(#p22747f48a7)" d="M 824.530927 412.443821 
L 824.530927 399.506561 
" style="fill:none;stroke:#0000ff;stroke-width:1.5;"/>
    <path clip-path="url(#p22747f48a7)" d="M 832.860195 430.848296 
L 832.860195 419.876018 
" style="fill:none;stroke:#0000ff;stroke-width:1.5;"/>
    <path clip-path="url(#p22747f48a7)" d="M 841.189463 421.666211 
L 841.189463 409.671137 
" style="fill:none;stroke:#0000ff;stroke-width:1.5;"/>
    <path clip-path="url(#p22747f48a7)" d="M 849.518732 427.983868 
L 849.518732 416.682019 
" style="fill:none;stroke:#0000ff;stroke-width:1.5;"/>
    <path clip-path="url(#p22747f48a7)" d="M 857.848 431.420584 
L 857.848 420.515416 
" style="fill:none;stroke:#0000ff;stroke-width:1.5;"/>
   </g>
   <g id="line2d_23">
    <path clip-path="url(#p22747f48a7)" d="M 174.848 470.03044 
L 182.368521 468.830138 
L 189.205357 467.528863 
L 196.042194 465.998186 
L 202.195347 464.399113 
L 208.348501 462.56556 
L 213.81797 460.718664 
L 219.287439 458.64846 
L 224.756909 456.336199 
L 230.226378 453.762822 
L 235.012164 451.281857 
L 239.79795 448.57354 
L 244.583736 445.625316 
L 249.369522 442.424991 
L 254.155307 438.960887 
L 258.941093 435.222018 
L 263.726879 431.198266 
L 268.512665 426.880576 
L 273.29845 422.261145 
L 278.084236 417.333628 
L 282.870022 412.093335 
L 287.655808 406.537435 
L 292.441594 400.665151 
L 297.227379 394.477944 
L 302.696849 387.026332 
L 308.166318 379.178497 
L 313.635788 370.949071 
L 319.788941 361.259383 
L 325.942094 351.147172 
L 332.778931 339.469483 
L 340.299451 326.171008 
L 349.187339 309.995364 
L 366.963115 277.025999 
L 377.21837 258.290001 
L 384.738891 245.006736 
L 390.892044 234.569574 
L 396.361514 225.705012 
L 401.147299 218.324359 
L 405.933085 211.342102 
L 410.035187 205.707708 
L 414.137289 200.424756 
L 418.239391 195.518439 
L 421.65781 191.734703 
L 425.076228 188.241856 
L 428.494647 185.051857 
L 431.913065 182.175719 
L 435.331483 179.623442 
L 438.749902 177.403956 
L 441.484637 175.873263 
L 444.219371 174.56404 
L 446.954106 173.479255 
L 449.688841 172.621377 
L 452.423576 171.992363 
L 455.15831 171.593648 
L 457.893045 171.426144 
L 460.62778 171.490234 
L 463.362515 171.785772 
L 466.097249 172.312082 
L 468.831984 173.067961 
L 471.566719 174.051684 
L 474.301453 175.261012 
L 477.036188 176.693196 
L 479.770923 178.344992 
L 482.505658 180.212673 
L 485.924076 182.844421 
L 489.342494 185.797699 
L 492.760913 189.062255 
L 496.179331 192.626841 
L 499.59775 196.479277 
L 503.699852 201.463739 
L 507.801954 206.819854 
L 511.904056 212.522152 
L 516.689842 219.576673 
L 521.475628 227.021815 
L 526.945097 235.950279 
L 533.09825 246.446607 
L 539.935087 258.552577 
L 548.822975 274.769825 
L 578.905057 330.099147 
L 586.425578 343.269035 
L 593.262414 354.803838 
L 599.415568 364.769781 
L 605.568721 374.29956 
L 611.03819 382.377769 
L 616.50766 390.06793 
L 621.977129 397.357325 
L 627.446599 404.237815 
L 632.232384 409.919681 
L 637.01817 415.285374 
L 641.803956 420.336931 
L 646.589742 425.078325 
L 651.375528 429.515267 
L 656.161313 433.655003 
L 660.947099 437.506114 
L 665.732885 441.078318 
L 670.518671 444.382277 
L 675.304456 447.429415 
L 680.090242 450.231742 
L 684.876028 452.801685 
L 690.345497 455.470508 
L 695.814967 457.871542 
L 701.284436 460.023907 
L 706.753906 461.94648 
L 712.907059 463.857654 
L 719.060212 465.526714 
L 725.213365 466.977886 
L 732.050202 468.362552 
L 739.570723 469.642503 
L 747.091243 470.702265 
L 755.295447 471.645015 
L 764.867019 472.511332 
L 775.122274 473.214936 
L 787.428581 473.823418 
L 801.785938 474.296884 
L 819.561714 474.64822 
L 843.490643 474.883147 
L 857.848 474.952235 
L 857.848 474.952235 
" style="fill:none;stroke:#404040;stroke-linecap:square;stroke-width:1.5;"/>
   </g>
   <g id="line2d_24">
    <path clip-path="url(#p22747f48a7)" d="M 174.848 424.681345 
L 182.368521 421.39721 
L 189.889041 417.885434 
L 197.409562 414.139675 
L 204.930082 410.154478 
L 212.450603 405.925403 
L 219.971123 401.44915 
L 227.491644 396.723686 
L 235.012164 391.748365 
L 242.532685 386.524049 
L 250.736889 380.543781 
L 258.941093 374.275745 
L 267.145297 367.728096 
L 276.033185 360.331944 
L 284.921073 352.637983 
L 294.492645 344.043905 
L 304.7479 334.517074 
L 315.686839 324.042961 
L 328.676829 311.275356 
L 345.768921 294.134266 
L 373.799952 266.003431 
L 386.106258 253.999129 
L 396.361514 244.311221 
L 405.249401 236.219529 
L 413.453606 229.052973 
L 420.974126 222.777631 
L 427.810963 217.345605 
L 434.6478 212.198405 
L 440.800953 207.828701 
L 446.954106 203.724791 
L 453.107259 199.9021 
L 458.576729 196.752002 
L 464.046198 193.845142 
L 469.515668 191.190403 
L 474.985137 188.795955 
L 480.454607 186.669217 
L 485.240392 185.033155 
L 490.026178 183.611065 
L 494.811964 182.406368 
L 499.59775 181.421971 
L 504.383536 180.660257 
L 509.169321 180.123073 
L 513.955107 179.811724 
L 518.740893 179.726966 
L 523.526679 179.869006 
L 528.312464 180.237499 
L 533.09825 180.831548 
L 537.884036 181.649711 
L 542.669822 182.690005 
L 547.455608 183.949915 
L 552.241393 185.426401 
L 557.027179 187.115915 
L 562.496649 189.302427 
L 567.966118 191.755075 
L 573.435588 194.466273 
L 578.905057 197.427687 
L 584.374527 200.630284 
L 590.52768 204.509406 
L 596.680833 208.666784 
L 602.833986 213.086827 
L 609.670823 218.286115 
L 616.50766 223.766016 
L 624.02818 230.08899 
L 632.232384 237.301337 
L 641.120272 245.435238 
L 650.691844 254.503988 
L 662.314466 265.846882 
L 677.355508 280.871076 
L 713.590743 317.205117 
L 725.897049 329.164856 
L 736.835988 339.489511 
L 746.40756 348.23683 
L 755.979131 356.679704 
L 764.867019 364.221046 
L 773.071223 370.909789 
L 781.275427 377.324217 
L 789.479632 383.45478 
L 797.683836 389.294583 
L 805.204356 394.388532 
L 812.724877 399.232839 
L 820.245397 403.827448 
L 827.765918 408.173745 
L 835.286438 412.274446 
L 842.806959 416.133462 
L 850.327479 419.755782 
L 857.848 423.147343 
L 857.848 423.147343 
" style="fill:none;stroke:#ff0000;stroke-linecap:square;stroke-width:1.5;"/>
   </g>
   <g id="line2d_25">
    <g clip-path="url(#p22747f48a7)">
     <use style="fill:#0000ff;stroke:#0000ff;" x="174.848" xlink:href="#m65dce18c71" y="417.486202"/>
     <use style="fill:#0000ff;stroke:#0000ff;" x="183.177268" xlink:href="#m65dce18c71" y="423.241708"/>
     <use style="fill:#0000ff;stroke:#0000ff;" x="191.506537" xlink:href="#m65dce18c71" y="409.913169"/>
     <use style="fill:#0000ff;stroke:#0000ff;" x="199.835805" xlink:href="#m65dce18c71" y="413.548225"/>
     <use style="fill:#0000ff;stroke:#0000ff;" x="208.165073" xlink:href="#m65dce18c71" y="410.21609"/>
     <use style="fill:#0000ff;stroke:#0000ff;" x="216.494341" xlink:href="#m65dce18c71" y="387.79991"/>
     <use style="fill:#0000ff;stroke:#0000ff;" x="224.82361" xlink:href="#m65dce18c71" y="395.675865"/>
     <use style="fill:#0000ff;stroke:#0000ff;" x="233.152878" xlink:href="#m65dce18c71" y="386.588225"/>
     <use style="fill:#0000ff;stroke:#0000ff;" x="241.482146" xlink:href="#m65dce18c71" y="382.650247"/>
     <use style="fill:#0000ff;stroke:#0000ff;" x="249.811415" xlink:href="#m65dce18c71" y="386.285303"/>
     <use style="fill:#0000ff;stroke:#0000ff;" x="258.140683" xlink:href="#m65dce18c71" y="369.927551"/>
     <use style="fill:#0000ff;stroke:#0000ff;" x="266.469951" xlink:href="#m65dce18c71" y="374.471371"/>
     <use style="fill:#0000ff;stroke:#0000ff;" x="274.79922" xlink:href="#m65dce18c71" y="370.230472"/>
     <use style="fill:#0000ff;stroke:#0000ff;" x="283.128488" xlink:href="#m65dce18c71" y="355.690247"/>
     <use style="fill:#0000ff;stroke:#0000ff;" x="291.457756" xlink:href="#m65dce18c71" y="345.693843"/>
     <use style="fill:#0000ff;stroke:#0000ff;" x="299.787024" xlink:href="#m65dce18c71" y="339.332494"/>
     <use style="fill:#0000ff;stroke:#0000ff;" x="308.116293" xlink:href="#m65dce18c71" y="332.971146"/>
     <use style="fill:#0000ff;stroke:#0000ff;" x="316.445561" xlink:href="#m65dce18c71" y="327.821483"/>
     <use style="fill:#0000ff;stroke:#0000ff;" x="324.774829" xlink:href="#m65dce18c71" y="320.854292"/>
     <use style="fill:#0000ff;stroke:#0000ff;" x="333.104098" xlink:href="#m65dce18c71" y="304.193618"/>
     <use style="fill:#0000ff;stroke:#0000ff;" x="341.433366" xlink:href="#m65dce18c71" y="273.598562"/>
     <use style="fill:#0000ff;stroke:#0000ff;" x="349.762634" xlink:href="#m65dce18c71" y="287.230022"/>
     <use style="fill:#0000ff;stroke:#0000ff;" x="358.091902" xlink:href="#m65dce18c71" y="284.50373"/>
     <use style="fill:#0000ff;stroke:#0000ff;" x="366.421171" xlink:href="#m65dce18c71" y="271.781034"/>
     <use style="fill:#0000ff;stroke:#0000ff;" x="374.750439" xlink:href="#m65dce18c71" y="281.777438"/>
     <use style="fill:#0000ff;stroke:#0000ff;" x="383.079707" xlink:href="#m65dce18c71" y="265.722607"/>
     <use style="fill:#0000ff;stroke:#0000ff;" x="391.408976" xlink:href="#m65dce18c71" y="254.514517"/>
     <use style="fill:#0000ff;stroke:#0000ff;" x="399.738244" xlink:href="#m65dce18c71" y="242.700584"/>
     <use style="fill:#0000ff;stroke:#0000ff;" x="408.067512" xlink:href="#m65dce18c71" y="240.580135"/>
     <use style="fill:#0000ff;stroke:#0000ff;" x="416.39678" xlink:href="#m65dce18c71" y="229.069124"/>
     <use style="fill:#0000ff;stroke:#0000ff;" x="424.726049" xlink:href="#m65dce18c71" y="212.408449"/>
     <use style="fill:#0000ff;stroke:#0000ff;" x="433.055317" xlink:href="#m65dce18c71" y="228.766202"/>
     <use style="fill:#0000ff;stroke:#0000ff;" x="441.384585" xlink:href="#m65dce18c71" y="223.616539"/>
     <use style="fill:#0000ff;stroke:#0000ff;" x="449.713854" xlink:href="#m65dce18c71" y="187.87182"/>
     <use style="fill:#0000ff;stroke:#0000ff;" x="458.043122" xlink:href="#m65dce18c71" y="206.047101"/>
     <use style="fill:#0000ff;stroke:#0000ff;" x="466.37239" xlink:href="#m65dce18c71" y="202.412045"/>
     <use style="fill:#0000ff;stroke:#0000ff;" x="474.701659" xlink:href="#m65dce18c71" y="184.842607"/>
     <use style="fill:#0000ff;stroke:#0000ff;" x="483.030927" xlink:href="#m65dce18c71" y="178.78418"/>
     <use style="fill:#0000ff;stroke:#0000ff;" x="491.360195" xlink:href="#m65dce18c71" y="160.003056"/>
     <use style="fill:#0000ff;stroke:#0000ff;" x="499.689463" xlink:href="#m65dce18c71" y="178.78418"/>
     <use style="fill:#0000ff;stroke:#0000ff;" x="508.018732" xlink:href="#m65dce18c71" y="193.627326"/>
     <use style="fill:#0000ff;stroke:#0000ff;" x="516.348" xlink:href="#m65dce18c71" y="192.41564"/>
     <use style="fill:#0000ff;stroke:#0000ff;" x="524.677268" xlink:href="#m65dce18c71" y="156.368"/>
     <use style="fill:#0000ff;stroke:#0000ff;" x="533.006537" xlink:href="#m65dce18c71" y="181.207551"/>
     <use style="fill:#0000ff;stroke:#0000ff;" x="541.335805" xlink:href="#m65dce18c71" y="180.298787"/>
     <use style="fill:#0000ff;stroke:#0000ff;" x="549.665073" xlink:href="#m65dce18c71" y="187.568899"/>
     <use style="fill:#0000ff;stroke:#0000ff;" x="557.994341" xlink:href="#m65dce18c71" y="181.510472"/>
     <use style="fill:#0000ff;stroke:#0000ff;" x="566.32361" xlink:href="#m65dce18c71" y="193.324404"/>
     <use style="fill:#0000ff;stroke:#0000ff;" x="574.652878" xlink:href="#m65dce18c71" y="186.357213"/>
     <use style="fill:#0000ff;stroke:#0000ff;" x="582.982146" xlink:href="#m65dce18c71" y="204.835416"/>
     <use style="fill:#0000ff;stroke:#0000ff;" x="591.311415" xlink:href="#m65dce18c71" y="206.350022"/>
     <use style="fill:#0000ff;stroke:#0000ff;" x="599.640683" xlink:href="#m65dce18c71" y="201.503281"/>
     <use style="fill:#0000ff;stroke:#0000ff;" x="607.969951" xlink:href="#m65dce18c71" y="206.047101"/>
     <use style="fill:#0000ff;stroke:#0000ff;" x="616.29922" xlink:href="#m65dce18c71" y="233.310022"/>
     <use style="fill:#0000ff;stroke:#0000ff;" x="624.628488" xlink:href="#m65dce18c71" y="219.678562"/>
     <use style="fill:#0000ff;stroke:#0000ff;" x="632.957756" xlink:href="#m65dce18c71" y="238.762607"/>
     <use style="fill:#0000ff;stroke:#0000ff;" x="641.287024" xlink:href="#m65dce18c71" y="243.003506"/>
     <use style="fill:#0000ff;stroke:#0000ff;" x="649.616293" xlink:href="#m65dce18c71" y="258.452494"/>
     <use style="fill:#0000ff;stroke:#0000ff;" x="657.945561" xlink:href="#m65dce18c71" y="258.149573"/>
     <use style="fill:#0000ff;stroke:#0000ff;" x="666.274829" xlink:href="#m65dce18c71" y="279.051146"/>
     <use style="fill:#0000ff;stroke:#0000ff;" x="674.604098" xlink:href="#m65dce18c71" y="270.87227"/>
     <use style="fill:#0000ff;stroke:#0000ff;" x="682.933366" xlink:href="#m65dce18c71" y="284.200809"/>
     <use style="fill:#0000ff;stroke:#0000ff;" x="691.262634" xlink:href="#m65dce18c71" y="296.923506"/>
     <use style="fill:#0000ff;stroke:#0000ff;" x="699.591902" xlink:href="#m65dce18c71" y="309.343281"/>
     <use style="fill:#0000ff;stroke:#0000ff;" x="707.921171" xlink:href="#m65dce18c71" y="304.496539"/>
     <use style="fill:#0000ff;stroke:#0000ff;" x="716.250439" xlink:href="#m65dce18c71" y="307.828674"/>
     <use style="fill:#0000ff;stroke:#0000ff;" x="724.579707" xlink:href="#m65dce18c71" y="323.277663"/>
     <use style="fill:#0000ff;stroke:#0000ff;" x="732.908976" xlink:href="#m65dce18c71" y="330.547775"/>
     <use style="fill:#0000ff;stroke:#0000ff;" x="741.238244" xlink:href="#m65dce18c71" y="349.934742"/>
     <use style="fill:#0000ff;stroke:#0000ff;" x="749.567512" xlink:href="#m65dce18c71" y="355.690247"/>
     <use style="fill:#0000ff;stroke:#0000ff;" x="757.89678" xlink:href="#m65dce18c71" y="348.723056"/>
     <use style="fill:#0000ff;stroke:#0000ff;" x="766.226049" xlink:href="#m65dce18c71" y="365.686652"/>
     <use style="fill:#0000ff;stroke:#0000ff;" x="774.555317" xlink:href="#m65dce18c71" y="370.230472"/>
     <use style="fill:#0000ff;stroke:#0000ff;" x="782.884585" xlink:href="#m65dce18c71" y="374.774292"/>
     <use style="fill:#0000ff;stroke:#0000ff;" x="791.213854" xlink:href="#m65dce18c71" y="382.953169"/>
     <use style="fill:#0000ff;stroke:#0000ff;" x="799.543122" xlink:href="#m65dce18c71" y="397.190472"/>
     <use style="fill:#0000ff;stroke:#0000ff;" x="807.87239" xlink:href="#m65dce18c71" y="395.675865"/>
     <use style="fill:#0000ff;stroke:#0000ff;" x="816.201659" xlink:href="#m65dce18c71" y="399.916764"/>
     <use style="fill:#0000ff;stroke:#0000ff;" x="824.530927" xlink:href="#m65dce18c71" y="405.975191"/>
     <use style="fill:#0000ff;stroke:#0000ff;" x="832.860195" xlink:href="#m65dce18c71" y="425.362157"/>
     <use style="fill:#0000ff;stroke:#0000ff;" x="841.189463" xlink:href="#m65dce18c71" y="415.668674"/>
     <use style="fill:#0000ff;stroke:#0000ff;" x="849.518732" xlink:href="#m65dce18c71" y="422.332944"/>
     <use style="fill:#0000ff;stroke:#0000ff;" x="857.848" xlink:href="#m65dce18c71" y="425.968"/>
    </g>
   </g>
   <g id="patch_8">
    <path d="M 147.528 436.752 
L 147.528 145.584 
" style="fill:none;stroke:#000000;stroke-linecap:square;stroke-linejoin:miter;stroke-width:0.8;"/>
   </g>
   <g id="patch_9">
    <path d="M 885.168 436.752 
L 885.168 145.584 
" style="fill:none;stroke:#000000;stroke-linecap:square;stroke-linejoin:miter;stroke-width:0.8;"/>
   </g>
   <g id="patch_10">
    <path d="M 147.528 436.752 
L 885.168 436.752 
" style="fill:none;stroke:#000000;stroke-linecap:square;stroke-linejoin:miter;stroke-width:0.8;"/>
   </g>
   <g id="patch_11">
    <path d="M 147.528 145.584 
L 885.168 145.584 
" style="fill:none;stroke:#000000;stroke-linecap:square;stroke-linejoin:miter;stroke-width:0.8;"/>
   </g>
  </g>
 </g>
 <defs>
  <clipPath id="p92017a8623">
   <rect height="72.792" width="737.64" x="147.528" y="63.0864"/>
  </clipPath>
  <clipPath id="p22747f48a7">
   <rect height="291.168" width="737.64" x="147.528" y="145.584"/>
  </clipPath>
 </defs>
</svg>
