<?xml version="1.0" encoding="utf-8" standalone="no"?>
<!DOCTYPE svg PUBLIC "-//W3C//DTD SVG 1.1//EN"
  "http://www.w3.org/Graphics/SVG/1.1/DTD/svg11.dtd">
<!-- Created with matplotlib (http://matplotlib.org/) -->
<svg height="485pt" version="1.1" viewBox="0 0 983 485" width="983pt" xmlns="http://www.w3.org/2000/svg" xmlns:xlink="http://www.w3.org/1999/xlink">
 <defs>
  <style type="text/css">
*{stroke-linecap:butt;stroke-linejoin:round;}
  </style>
 </defs>
 <g id="figure_1">
  <g id="patch_1">
   <path d="M 0 485.28 
L 983.52 485.28 
L 983.52 0 
L 0 0 
z
" style="fill:#ffffff;"/>
  </g>
  <g id="axes_1">
   <g id="patch_2">
    <path d="M 147.528 135.8784 
L 885.168 135.8784 
L 885.168 63.0864 
L 147.528 63.0864 
z
" style="fill:#ffffff;"/>
   </g>
   <g id="matplotlib.axis_1">
    <g id="xtick_1">
     <g id="line2d_1">
      <defs>
       <path d="M 0 0 
L 0 3.5 
" id="me3171be799" style="stroke:#000000;stroke-width:0.8;"/>
      </defs>
      <g>
       <use style="stroke:#000000;stroke-width:0.8;" x="169.867597" xlink:href="#me3171be799" y="135.8784"/>
      </g>
     </g>
    </g>
    <g id="xtick_2">
     <g id="line2d_2">
      <g>
       <use style="stroke:#000000;stroke-width:0.8;" x="311.612395" xlink:href="#me3171be799" y="135.8784"/>
      </g>
     </g>
    </g>
    <g id="xtick_3">
     <g id="line2d_3">
      <g>
       <use style="stroke:#000000;stroke-width:0.8;" x="453.357192" xlink:href="#me3171be799" y="135.8784"/>
      </g>
     </g>
    </g>
    <g id="xtick_4">
     <g id="line2d_4">
      <g>
       <use style="stroke:#000000;stroke-width:0.8;" x="595.101989" xlink:href="#me3171be799" y="135.8784"/>
      </g>
     </g>
    </g>
    <g id="xtick_5">
     <g id="line2d_5">
      <g>
       <use style="stroke:#000000;stroke-width:0.8;" x="736.846787" xlink:href="#me3171be799" y="135.8784"/>
      </g>
     </g>
    </g>
    <g id="xtick_6">
     <g id="line2d_6">
      <g>
       <use style="stroke:#000000;stroke-width:0.8;" x="878.591584" xlink:href="#me3171be799" y="135.8784"/>
      </g>
     </g>
    </g>
   </g>
   <g id="matplotlib.axis_2">
    <g id="ytick_1">
     <g id="line2d_7">
      <defs>
       <path d="M 0 0 
L -3.5 0 
" id="m00b94a2f1f" style="stroke:#000000;stroke-width:0.8;"/>
      </defs>
      <g>
       <use style="stroke:#000000;stroke-width:0.8;" x="147.528" xlink:href="#m00b94a2f1f" y="125.705493"/>
      </g>
     </g>
     <g id="text_1">
      <!-- −2 -->
      <defs>
       <path d="M 10.59375 35.5 
L 73.1875 35.5 
L 73.1875 27.203125 
L 10.59375 27.203125 
z
" id="DejaVuSans-2212"/>
       <path d="M 19.1875 8.296875 
L 53.609375 8.296875 
L 53.609375 0 
L 7.328125 0 
L 7.328125 8.296875 
Q 12.9375 14.109375 22.625 23.890625 
Q 32.328125 33.6875 34.8125 36.53125 
Q 39.546875 41.84375 41.421875 45.53125 
Q 43.3125 49.21875 43.3125 52.78125 
Q 43.3125 58.59375 39.234375 62.25 
Q 35.15625 65.921875 28.609375 65.921875 
Q 23.96875 65.921875 18.8125 64.3125 
Q 13.671875 62.703125 7.8125 59.421875 
L 7.8125 69.390625 
Q 13.765625 71.78125 18.9375 73 
Q 24.125 74.21875 28.421875 74.21875 
Q 39.75 74.21875 46.484375 68.546875 
Q 53.21875 62.890625 53.21875 53.421875 
Q 53.21875 48.921875 51.53125 44.890625 
Q 49.859375 40.875 45.40625 35.40625 
Q 44.1875 33.984375 37.640625 27.21875 
Q 31.109375 20.453125 19.1875 8.296875 
z
" id="DejaVuSans-32"/>
      </defs>
      <g transform="translate(122.837375 130.264556)scale(0.12 -0.12)">
       <use xlink:href="#DejaVuSans-2212"/>
       <use x="83.789062" xlink:href="#DejaVuSans-32"/>
      </g>
     </g>
    </g>
    <g id="ytick_2">
     <g id="line2d_8">
      <g>
       <use style="stroke:#000000;stroke-width:0.8;" x="147.528" xlink:href="#m00b94a2f1f" y="93.529709"/>
      </g>
     </g>
     <g id="text_2">
      <!-- 0 -->
      <defs>
       <path d="M 31.78125 66.40625 
Q 24.171875 66.40625 20.328125 58.90625 
Q 16.5 51.421875 16.5 36.375 
Q 16.5 21.390625 20.328125 13.890625 
Q 24.171875 6.390625 31.78125 6.390625 
Q 39.453125 6.390625 43.28125 13.890625 
Q 47.125 21.390625 47.125 36.375 
Q 47.125 51.421875 43.28125 58.90625 
Q 39.453125 66.40625 31.78125 66.40625 
z
M 31.78125 74.21875 
Q 44.046875 74.21875 50.515625 64.515625 
Q 56.984375 54.828125 56.984375 36.375 
Q 56.984375 17.96875 50.515625 8.265625 
Q 44.046875 -1.421875 31.78125 -1.421875 
Q 19.53125 -1.421875 13.0625 8.265625 
Q 6.59375 17.96875 6.59375 36.375 
Q 6.59375 54.828125 13.0625 64.515625 
Q 19.53125 74.21875 31.78125 74.21875 
z
" id="DejaVuSans-30"/>
      </defs>
      <g transform="translate(132.893 98.088772)scale(0.12 -0.12)">
       <use xlink:href="#DejaVuSans-30"/>
      </g>
     </g>
    </g>
    <g id="text_3">
     <!-- Studentized -->
     <defs>
      <path d="M 53.515625 70.515625 
L 53.515625 60.890625 
Q 47.90625 63.578125 42.921875 64.890625 
Q 37.9375 66.21875 33.296875 66.21875 
Q 25.25 66.21875 20.875 63.09375 
Q 16.5 59.96875 16.5 54.203125 
Q 16.5 49.359375 19.40625 46.890625 
Q 22.3125 44.4375 30.421875 42.921875 
L 36.375 41.703125 
Q 47.40625 39.59375 52.65625 34.296875 
Q 57.90625 29 57.90625 20.125 
Q 57.90625 9.515625 50.796875 4.046875 
Q 43.703125 -1.421875 29.984375 -1.421875 
Q 24.8125 -1.421875 18.96875 -0.25 
Q 13.140625 0.921875 6.890625 3.21875 
L 6.890625 13.375 
Q 12.890625 10.015625 18.65625 8.296875 
Q 24.421875 6.59375 29.984375 6.59375 
Q 38.421875 6.59375 43.015625 9.90625 
Q 47.609375 13.234375 47.609375 19.390625 
Q 47.609375 24.75 44.3125 27.78125 
Q 41.015625 30.8125 33.5 32.328125 
L 27.484375 33.5 
Q 16.453125 35.6875 11.515625 40.375 
Q 6.59375 45.0625 6.59375 53.421875 
Q 6.59375 63.09375 13.40625 68.65625 
Q 20.21875 74.21875 32.171875 74.21875 
Q 37.3125 74.21875 42.625 73.28125 
Q 47.953125 72.359375 53.515625 70.515625 
z
" id="DejaVuSans-53"/>
      <path d="M 18.3125 70.21875 
L 18.3125 54.6875 
L 36.8125 54.6875 
L 36.8125 47.703125 
L 18.3125 47.703125 
L 18.3125 18.015625 
Q 18.3125 11.328125 20.140625 9.421875 
Q 21.96875 7.515625 27.59375 7.515625 
L 36.8125 7.515625 
L 36.8125 0 
L 27.59375 0 
Q 17.1875 0 13.234375 3.875 
Q 9.28125 7.765625 9.28125 18.015625 
L 9.28125 47.703125 
L 2.6875 47.703125 
L 2.6875 54.6875 
L 9.28125 54.6875 
L 9.28125 70.21875 
z
" id="DejaVuSans-74"/>
      <path d="M 8.5 21.578125 
L 8.5 54.6875 
L 17.484375 54.6875 
L 17.484375 21.921875 
Q 17.484375 14.15625 20.5 10.265625 
Q 23.53125 6.390625 29.59375 6.390625 
Q 36.859375 6.390625 41.078125 11.03125 
Q 45.3125 15.671875 45.3125 23.6875 
L 45.3125 54.6875 
L 54.296875 54.6875 
L 54.296875 0 
L 45.3125 0 
L 45.3125 8.40625 
Q 42.046875 3.421875 37.71875 1 
Q 33.40625 -1.421875 27.6875 -1.421875 
Q 18.265625 -1.421875 13.375 4.4375 
Q 8.5 10.296875 8.5 21.578125 
z
M 31.109375 56 
z
" id="DejaVuSans-75"/>
      <path d="M 45.40625 46.390625 
L 45.40625 75.984375 
L 54.390625 75.984375 
L 54.390625 0 
L 45.40625 0 
L 45.40625 8.203125 
Q 42.578125 3.328125 38.25 0.953125 
Q 33.9375 -1.421875 27.875 -1.421875 
Q 17.96875 -1.421875 11.734375 6.484375 
Q 5.515625 14.40625 5.515625 27.296875 
Q 5.515625 40.1875 11.734375 48.09375 
Q 17.96875 56 27.875 56 
Q 33.9375 56 38.25 53.625 
Q 42.578125 51.265625 45.40625 46.390625 
z
M 14.796875 27.296875 
Q 14.796875 17.390625 18.875 11.75 
Q 22.953125 6.109375 30.078125 6.109375 
Q 37.203125 6.109375 41.296875 11.75 
Q 45.40625 17.390625 45.40625 27.296875 
Q 45.40625 37.203125 41.296875 42.84375 
Q 37.203125 48.484375 30.078125 48.484375 
Q 22.953125 48.484375 18.875 42.84375 
Q 14.796875 37.203125 14.796875 27.296875 
z
" id="DejaVuSans-64"/>
      <path d="M 56.203125 29.59375 
L 56.203125 25.203125 
L 14.890625 25.203125 
Q 15.484375 15.921875 20.484375 11.0625 
Q 25.484375 6.203125 34.421875 6.203125 
Q 39.59375 6.203125 44.453125 7.46875 
Q 49.3125 8.734375 54.109375 11.28125 
L 54.109375 2.78125 
Q 49.265625 0.734375 44.1875 -0.34375 
Q 39.109375 -1.421875 33.890625 -1.421875 
Q 20.796875 -1.421875 13.15625 6.1875 
Q 5.515625 13.8125 5.515625 26.8125 
Q 5.515625 40.234375 12.765625 48.109375 
Q 20.015625 56 32.328125 56 
Q 43.359375 56 49.78125 48.890625 
Q 56.203125 41.796875 56.203125 29.59375 
z
M 47.21875 32.234375 
Q 47.125 39.59375 43.09375 43.984375 
Q 39.0625 48.390625 32.421875 48.390625 
Q 24.90625 48.390625 20.390625 44.140625 
Q 15.875 39.890625 15.1875 32.171875 
z
" id="DejaVuSans-65"/>
      <path d="M 54.890625 33.015625 
L 54.890625 0 
L 45.90625 0 
L 45.90625 32.71875 
Q 45.90625 40.484375 42.875 44.328125 
Q 39.84375 48.1875 33.796875 48.1875 
Q 26.515625 48.1875 22.3125 43.546875 
Q 18.109375 38.921875 18.109375 30.90625 
L 18.109375 0 
L 9.078125 0 
L 9.078125 54.6875 
L 18.109375 54.6875 
L 18.109375 46.1875 
Q 21.34375 51.125 25.703125 53.5625 
Q 30.078125 56 35.796875 56 
Q 45.21875 56 50.046875 50.171875 
Q 54.890625 44.34375 54.890625 33.015625 
z
" id="DejaVuSans-6e"/>
      <path d="M 9.421875 54.6875 
L 18.40625 54.6875 
L 18.40625 0 
L 9.421875 0 
z
M 9.421875 75.984375 
L 18.40625 75.984375 
L 18.40625 64.59375 
L 9.421875 64.59375 
z
" id="DejaVuSans-69"/>
      <path d="M 5.515625 54.6875 
L 48.1875 54.6875 
L 48.1875 46.484375 
L 14.40625 7.171875 
L 48.1875 7.171875 
L 48.1875 0 
L 4.296875 0 
L 4.296875 8.203125 
L 38.09375 47.515625 
L 5.515625 47.515625 
z
" id="DejaVuSans-7a"/>
     </defs>
     <g transform="translate(102.904375 135.41865)rotate(-90)scale(0.12 -0.12)">
      <use xlink:href="#DejaVuSans-53"/>
      <use x="63.476562" xlink:href="#DejaVuSans-74"/>
      <use x="102.685547" xlink:href="#DejaVuSans-75"/>
      <use x="166.064453" xlink:href="#DejaVuSans-64"/>
      <use x="229.541016" xlink:href="#DejaVuSans-65"/>
      <use x="291.064453" xlink:href="#DejaVuSans-6e"/>
      <use x="354.443359" xlink:href="#DejaVuSans-74"/>
      <use x="393.652344" xlink:href="#DejaVuSans-69"/>
      <use x="421.435547" xlink:href="#DejaVuSans-7a"/>
      <use x="473.925781" xlink:href="#DejaVuSans-65"/>
      <use x="535.449219" xlink:href="#DejaVuSans-64"/>
     </g>
     <!-- Residuals -->
     <defs>
      <path d="M 44.390625 34.1875 
Q 47.5625 33.109375 50.5625 29.59375 
Q 53.5625 26.078125 56.59375 19.921875 
L 66.609375 0 
L 56 0 
L 46.6875 18.703125 
Q 43.0625 26.03125 39.671875 28.421875 
Q 36.28125 30.8125 30.421875 30.8125 
L 19.671875 30.8125 
L 19.671875 0 
L 9.8125 0 
L 9.8125 72.90625 
L 32.078125 72.90625 
Q 44.578125 72.90625 50.734375 67.671875 
Q 56.890625 62.453125 56.890625 51.90625 
Q 56.890625 45.015625 53.6875 40.46875 
Q 50.484375 35.9375 44.390625 34.1875 
z
M 19.671875 64.796875 
L 19.671875 38.921875 
L 32.078125 38.921875 
Q 39.203125 38.921875 42.84375 42.21875 
Q 46.484375 45.515625 46.484375 51.90625 
Q 46.484375 58.296875 42.84375 61.546875 
Q 39.203125 64.796875 32.078125 64.796875 
z
" id="DejaVuSans-52"/>
      <path d="M 44.28125 53.078125 
L 44.28125 44.578125 
Q 40.484375 46.53125 36.375 47.5 
Q 32.28125 48.484375 27.875 48.484375 
Q 21.1875 48.484375 17.84375 46.4375 
Q 14.5 44.390625 14.5 40.28125 
Q 14.5 37.15625 16.890625 35.375 
Q 19.28125 33.59375 26.515625 31.984375 
L 29.59375 31.296875 
Q 39.15625 29.25 43.1875 25.515625 
Q 47.21875 21.78125 47.21875 15.09375 
Q 47.21875 7.46875 41.1875 3.015625 
Q 35.15625 -1.421875 24.609375 -1.421875 
Q 20.21875 -1.421875 15.453125 -0.5625 
Q 10.6875 0.296875 5.421875 2 
L 5.421875 11.28125 
Q 10.40625 8.6875 15.234375 7.390625 
Q 20.0625 6.109375 24.8125 6.109375 
Q 31.15625 6.109375 34.5625 8.28125 
Q 37.984375 10.453125 37.984375 14.40625 
Q 37.984375 18.0625 35.515625 20.015625 
Q 33.0625 21.96875 24.703125 23.78125 
L 21.578125 24.515625 
Q 13.234375 26.265625 9.515625 29.90625 
Q 5.8125 33.546875 5.8125 39.890625 
Q 5.8125 47.609375 11.28125 51.796875 
Q 16.75 56 26.8125 56 
Q 31.78125 56 36.171875 55.265625 
Q 40.578125 54.546875 44.28125 53.078125 
z
" id="DejaVuSans-73"/>
      <path d="M 34.28125 27.484375 
Q 23.390625 27.484375 19.1875 25 
Q 14.984375 22.515625 14.984375 16.5 
Q 14.984375 11.71875 18.140625 8.90625 
Q 21.296875 6.109375 26.703125 6.109375 
Q 34.1875 6.109375 38.703125 11.40625 
Q 43.21875 16.703125 43.21875 25.484375 
L 43.21875 27.484375 
z
M 52.203125 31.203125 
L 52.203125 0 
L 43.21875 0 
L 43.21875 8.296875 
Q 40.140625 3.328125 35.546875 0.953125 
Q 30.953125 -1.421875 24.3125 -1.421875 
Q 15.921875 -1.421875 10.953125 3.296875 
Q 6 8.015625 6 15.921875 
Q 6 25.140625 12.171875 29.828125 
Q 18.359375 34.515625 30.609375 34.515625 
L 43.21875 34.515625 
L 43.21875 35.40625 
Q 43.21875 41.609375 39.140625 45 
Q 35.0625 48.390625 27.6875 48.390625 
Q 23 48.390625 18.546875 47.265625 
Q 14.109375 46.140625 10.015625 43.890625 
L 10.015625 52.203125 
Q 14.9375 54.109375 19.578125 55.046875 
Q 24.21875 56 28.609375 56 
Q 40.484375 56 46.34375 49.84375 
Q 52.203125 43.703125 52.203125 31.203125 
z
" id="DejaVuSans-61"/>
      <path d="M 9.421875 75.984375 
L 18.40625 75.984375 
L 18.40625 0 
L 9.421875 0 
z
" id="DejaVuSans-6c"/>
     </defs>
     <g transform="translate(116.34175 128.213025)rotate(-90)scale(0.12 -0.12)">
      <use xlink:href="#DejaVuSans-52"/>
      <use x="69.419922" xlink:href="#DejaVuSans-65"/>
      <use x="130.943359" xlink:href="#DejaVuSans-73"/>
      <use x="183.042969" xlink:href="#DejaVuSans-69"/>
      <use x="210.826172" xlink:href="#DejaVuSans-64"/>
      <use x="274.302734" xlink:href="#DejaVuSans-75"/>
      <use x="337.681641" xlink:href="#DejaVuSans-61"/>
      <use x="398.960938" xlink:href="#DejaVuSans-6c"/>
      <use x="426.744141" xlink:href="#DejaVuSans-73"/>
     </g>
    </g>
   </g>
   <g id="LineCollection_1">
    <path clip-path="url(#p6f018f8d32)" d="M 174.848 110.453212 
L 174.848 78.277427 
" style="fill:none;stroke:#0000ff;stroke-width:1.5;"/>
    <path clip-path="url(#p6f018f8d32)" d="M 183.280099 104.555451 
L 183.280099 72.379666 
" style="fill:none;stroke:#0000ff;stroke-width:1.5;"/>
    <path clip-path="url(#p6f018f8d32)" d="M 191.712198 107.762382 
L 191.712198 75.586598 
" style="fill:none;stroke:#0000ff;stroke-width:1.5;"/>
    <path clip-path="url(#p6f018f8d32)" d="M 200.144296 106.154422 
L 200.144296 73.978637 
" style="fill:none;stroke:#0000ff;stroke-width:1.5;"/>
    <path clip-path="url(#p6f018f8d32)" d="M 208.576395 107.643194 
L 208.576395 75.467409 
" style="fill:none;stroke:#0000ff;stroke-width:1.5;"/>
    <path clip-path="url(#p6f018f8d32)" d="M 217.008494 112.015301 
L 217.008494 79.839516 
" style="fill:none;stroke:#0000ff;stroke-width:1.5;"/>
    <path clip-path="url(#p6f018f8d32)" d="M 225.440593 122.951042 
L 225.440593 90.775258 
" style="fill:none;stroke:#0000ff;stroke-width:1.5;"/>
    <path clip-path="url(#p6f018f8d32)" d="M 233.872691 84.183685 
L 233.872691 52.0079 
" style="fill:none;stroke:#0000ff;stroke-width:1.5;"/>
    <path clip-path="url(#p6f018f8d32)" d="M 242.30479 111.778111 
L 242.30479 79.602326 
" style="fill:none;stroke:#0000ff;stroke-width:1.5;"/>
    <path clip-path="url(#p6f018f8d32)" d="M 250.736889 115.695035 
L 250.736889 83.51925 
" style="fill:none;stroke:#0000ff;stroke-width:1.5;"/>
    <path clip-path="url(#p6f018f8d32)" d="M 259.168988 114.316995 
L 259.168988 82.141211 
" style="fill:none;stroke:#0000ff;stroke-width:1.5;"/>
    <path clip-path="url(#p6f018f8d32)" d="M 267.601086 89.933871 
L 267.601086 57.758087 
" style="fill:none;stroke:#0000ff;stroke-width:1.5;"/>
    <path clip-path="url(#p6f018f8d32)" d="M 276.033185 103.182986 
L 276.033185 71.007201 
" style="fill:none;stroke:#0000ff;stroke-width:1.5;"/>
    <path clip-path="url(#p6f018f8d32)" d="M 284.465284 109.510092 
L 284.465284 77.334307 
" style="fill:none;stroke:#0000ff;stroke-width:1.5;"/>
    <path clip-path="url(#p6f018f8d32)" d="M 292.897383 112.761886 
L 292.897383 80.586101 
" style="fill:none;stroke:#0000ff;stroke-width:1.5;"/>
    <path clip-path="url(#p6f018f8d32)" d="M 301.329481 115.75141 
L 301.329481 83.575626 
" style="fill:none;stroke:#0000ff;stroke-width:1.5;"/>
    <path clip-path="url(#p6f018f8d32)" d="M 309.76158 108.983773 
L 309.76158 76.807989 
" style="fill:none;stroke:#0000ff;stroke-width:1.5;"/>
    <path clip-path="url(#p6f018f8d32)" d="M 318.193679 117.160846 
L 318.193679 84.985062 
" style="fill:none;stroke:#0000ff;stroke-width:1.5;"/>
    <path clip-path="url(#p6f018f8d32)" d="M 326.625778 116.203848 
L 326.625778 84.028064 
" style="fill:none;stroke:#0000ff;stroke-width:1.5;"/>
    <path clip-path="url(#p6f018f8d32)" d="M 335.057877 106.835353 
L 335.057877 74.659568 
" style="fill:none;stroke:#0000ff;stroke-width:1.5;"/>
    <path clip-path="url(#p6f018f8d32)" d="M 343.489975 112.571102 
L 343.489975 80.395318 
" style="fill:none;stroke:#0000ff;stroke-width:1.5;"/>
    <path clip-path="url(#p6f018f8d32)" d="M 351.922074 117.741324 
L 351.922074 85.56554 
" style="fill:none;stroke:#0000ff;stroke-width:1.5;"/>
    <path clip-path="url(#p6f018f8d32)" d="M 360.354173 109.089372 
L 360.354173 76.913588 
" style="fill:none;stroke:#0000ff;stroke-width:1.5;"/>
    <path clip-path="url(#p6f018f8d32)" d="M 368.786272 120.690307 
L 368.786272 88.514522 
" style="fill:none;stroke:#0000ff;stroke-width:1.5;"/>
    <path clip-path="url(#p6f018f8d32)" d="M 377.21837 97.306376 
L 377.21837 65.130592 
" style="fill:none;stroke:#0000ff;stroke-width:1.5;"/>
    <path clip-path="url(#p6f018f8d32)" d="M 385.650469 96.824712 
L 385.650469 64.648928 
" style="fill:none;stroke:#0000ff;stroke-width:1.5;"/>
    <path clip-path="url(#p6f018f8d32)" d="M 394.082568 113.976871 
L 394.082568 81.801087 
" style="fill:none;stroke:#0000ff;stroke-width:1.5;"/>
    <path clip-path="url(#p6f018f8d32)" d="M 402.514667 119.618501 
L 402.514667 87.442717 
" style="fill:none;stroke:#0000ff;stroke-width:1.5;"/>
    <path clip-path="url(#p6f018f8d32)" d="M 410.946765 107.249282 
L 410.946765 75.073497 
" style="fill:none;stroke:#0000ff;stroke-width:1.5;"/>
    <path clip-path="url(#p6f018f8d32)" d="M 419.378864 116.249433 
L 419.378864 84.073648 
" style="fill:none;stroke:#0000ff;stroke-width:1.5;"/>
    <path clip-path="url(#p6f018f8d32)" d="M 427.810963 125.528847 
L 427.810963 93.353063 
" style="fill:none;stroke:#0000ff;stroke-width:1.5;"/>
    <path clip-path="url(#p6f018f8d32)" d="M 436.243062 119.676449 
L 436.243062 87.500664 
" style="fill:none;stroke:#0000ff;stroke-width:1.5;"/>
    <path clip-path="url(#p6f018f8d32)" d="M 444.67516 96.94792 
L 444.67516 64.772135 
" style="fill:none;stroke:#0000ff;stroke-width:1.5;"/>
    <path clip-path="url(#p6f018f8d32)" d="M 453.107259 100.50836 
L 453.107259 68.332576 
" style="fill:none;stroke:#0000ff;stroke-width:1.5;"/>
    <path clip-path="url(#p6f018f8d32)" d="M 461.539358 105.175888 
L 461.539358 73.000104 
" style="fill:none;stroke:#0000ff;stroke-width:1.5;"/>
    <path clip-path="url(#p6f018f8d32)" d="M 469.971457 101.767175 
L 469.971457 69.59139 
" style="fill:none;stroke:#0000ff;stroke-width:1.5;"/>
    <path clip-path="url(#p6f018f8d32)" d="M 478.403556 115.182788 
L 478.403556 83.007003 
" style="fill:none;stroke:#0000ff;stroke-width:1.5;"/>
    <path clip-path="url(#p6f018f8d32)" d="M 486.835654 117.485176 
L 486.835654 85.309391 
" style="fill:none;stroke:#0000ff;stroke-width:1.5;"/>
    <path clip-path="url(#p6f018f8d32)" d="M 495.267753 106.784849 
L 495.267753 74.609064 
" style="fill:none;stroke:#0000ff;stroke-width:1.5;"/>
    <path clip-path="url(#p6f018f8d32)" d="M 503.699852 92.155958 
L 503.699852 59.980174 
" style="fill:none;stroke:#0000ff;stroke-width:1.5;"/>
    <path clip-path="url(#p6f018f8d32)" d="M 512.131951 106.051516 
L 512.131951 73.875731 
" style="fill:none;stroke:#0000ff;stroke-width:1.5;"/>
    <path clip-path="url(#p6f018f8d32)" d="M 520.564049 112.92852 
L 520.564049 80.752736 
" style="fill:none;stroke:#0000ff;stroke-width:1.5;"/>
    <path clip-path="url(#p6f018f8d32)" d="M 528.996148 103.693325 
L 528.996148 71.51754 
" style="fill:none;stroke:#0000ff;stroke-width:1.5;"/>
    <path clip-path="url(#p6f018f8d32)" d="M 537.428247 108.079723 
L 537.428247 75.903939 
" style="fill:none;stroke:#0000ff;stroke-width:1.5;"/>
    <path clip-path="url(#p6f018f8d32)" d="M 545.860346 125.985147 
L 545.860346 93.809363 
" style="fill:none;stroke:#0000ff;stroke-width:1.5;"/>
    <path clip-path="url(#p6f018f8d32)" d="M 554.292444 122.077216 
L 554.292444 89.901432 
" style="fill:none;stroke:#0000ff;stroke-width:1.5;"/>
    <path clip-path="url(#p6f018f8d32)" d="M 562.724543 94.620621 
L 562.724543 62.444837 
" style="fill:none;stroke:#0000ff;stroke-width:1.5;"/>
    <path clip-path="url(#p6f018f8d32)" d="M 571.156642 96.056808 
L 571.156642 63.881023 
" style="fill:none;stroke:#0000ff;stroke-width:1.5;"/>
    <path clip-path="url(#p6f018f8d32)" d="M 579.588741 81.870292 
L 579.588741 49.694508 
" style="fill:none;stroke:#0000ff;stroke-width:1.5;"/>
    <path clip-path="url(#p6f018f8d32)" d="M 588.02084 119.129249 
L 588.02084 86.953465 
" style="fill:none;stroke:#0000ff;stroke-width:1.5;"/>
    <path clip-path="url(#p6f018f8d32)" d="M 596.452938 106.308209 
L 596.452938 74.132425 
" style="fill:none;stroke:#0000ff;stroke-width:1.5;"/>
    <path clip-path="url(#p6f018f8d32)" d="M 604.885037 96.05111 
L 604.885037 63.875325 
" style="fill:none;stroke:#0000ff;stroke-width:1.5;"/>
    <path clip-path="url(#p6f018f8d32)" d="M 613.317136 137.583784 
L 613.317136 105.408 
" style="fill:none;stroke:#0000ff;stroke-width:1.5;"/>
    <path clip-path="url(#p6f018f8d32)" d="M 621.749235 108.13403 
L 621.749235 75.958245 
" style="fill:none;stroke:#0000ff;stroke-width:1.5;"/>
    <path clip-path="url(#p6f018f8d32)" d="M 630.181333 118.857884 
L 630.181333 86.682099 
" style="fill:none;stroke:#0000ff;stroke-width:1.5;"/>
    <path clip-path="url(#p6f018f8d32)" d="M 638.613432 100.894019 
L 638.613432 68.718235 
" style="fill:none;stroke:#0000ff;stroke-width:1.5;"/>
    <path clip-path="url(#p6f018f8d32)" d="M 647.045531 117.682805 
L 647.045531 85.50702 
" style="fill:none;stroke:#0000ff;stroke-width:1.5;"/>
    <path clip-path="url(#p6f018f8d32)" d="M 655.47763 117.27088 
L 655.47763 85.095095 
" style="fill:none;stroke:#0000ff;stroke-width:1.5;"/>
    <path clip-path="url(#p6f018f8d32)" d="M 663.909728 108.681656 
L 663.909728 76.505871 
" style="fill:none;stroke:#0000ff;stroke-width:1.5;"/>
    <path clip-path="url(#p6f018f8d32)" d="M 672.341827 134.689721 
L 672.341827 102.513937 
" style="fill:none;stroke:#0000ff;stroke-width:1.5;"/>
    <path clip-path="url(#p6f018f8d32)" d="M 680.773926 116.320518 
L 680.773926 84.144734 
" style="fill:none;stroke:#0000ff;stroke-width:1.5;"/>
    <path clip-path="url(#p6f018f8d32)" d="M 689.206025 92.064463 
L 689.206025 59.888679 
" style="fill:none;stroke:#0000ff;stroke-width:1.5;"/>
    <path clip-path="url(#p6f018f8d32)" d="M 697.638123 104.921304 
L 697.638123 72.745519 
" style="fill:none;stroke:#0000ff;stroke-width:1.5;"/>
    <path clip-path="url(#p6f018f8d32)" d="M 706.070222 90.775621 
L 706.070222 58.599837 
" style="fill:none;stroke:#0000ff;stroke-width:1.5;"/>
    <path clip-path="url(#p6f018f8d32)" d="M 714.502321 149.270292 
L 714.502321 117.094508 
" style="fill:none;stroke:#0000ff;stroke-width:1.5;"/>
    <path clip-path="url(#p6f018f8d32)" d="M 722.93442 114.76444 
L 722.93442 82.588656 
" style="fill:none;stroke:#0000ff;stroke-width:1.5;"/>
    <path clip-path="url(#p6f018f8d32)" d="M 731.366519 89.416763 
L 731.366519 57.240978 
" style="fill:none;stroke:#0000ff;stroke-width:1.5;"/>
    <path clip-path="url(#p6f018f8d32)" d="M 739.798617 97.773224 
L 739.798617 65.59744 
" style="fill:none;stroke:#0000ff;stroke-width:1.5;"/>
    <path clip-path="url(#p6f018f8d32)" d="M 748.230716 104.049525 
L 748.230716 71.873741 
" style="fill:none;stroke:#0000ff;stroke-width:1.5;"/>
    <path clip-path="url(#p6f018f8d32)" d="M 756.662815 90.663161 
L 756.662815 58.487377 
" style="fill:none;stroke:#0000ff;stroke-width:1.5;"/>
    <path clip-path="url(#p6f018f8d32)" d="M 765.094914 93.409731 
L 765.094914 61.233946 
" style="fill:none;stroke:#0000ff;stroke-width:1.5;"/>
    <path clip-path="url(#p6f018f8d32)" d="M 773.527012 120.400772 
L 773.527012 88.224987 
" style="fill:none;stroke:#0000ff;stroke-width:1.5;"/>
    <path clip-path="url(#p6f018f8d32)" d="M 781.959111 114.064757 
L 781.959111 81.888973 
" style="fill:none;stroke:#0000ff;stroke-width:1.5;"/>
    <path clip-path="url(#p6f018f8d32)" d="M 790.39121 102.35176 
L 790.39121 70.175976 
" style="fill:none;stroke:#0000ff;stroke-width:1.5;"/>
    <path clip-path="url(#p6f018f8d32)" d="M 798.823309 117.911683 
L 798.823309 85.735898 
" style="fill:none;stroke:#0000ff;stroke-width:1.5;"/>
    <path clip-path="url(#p6f018f8d32)" d="M 807.255407 99.23936 
L 807.255407 67.063576 
" style="fill:none;stroke:#0000ff;stroke-width:1.5;"/>
    <path clip-path="url(#p6f018f8d32)" d="M 815.687506 114.872395 
L 815.687506 82.69661 
" style="fill:none;stroke:#0000ff;stroke-width:1.5;"/>
    <path clip-path="url(#p6f018f8d32)" d="M 824.119605 125.712543 
L 824.119605 93.536758 
" style="fill:none;stroke:#0000ff;stroke-width:1.5;"/>
    <path clip-path="url(#p6f018f8d32)" d="M 832.551704 93.548374 
L 832.551704 61.37259 
" style="fill:none;stroke:#0000ff;stroke-width:1.5;"/>
    <path clip-path="url(#p6f018f8d32)" d="M 840.983802 103.823431 
L 840.983802 71.647646 
" style="fill:none;stroke:#0000ff;stroke-width:1.5;"/>
    <path clip-path="url(#p6f018f8d32)" d="M 849.415901 122.701985 
L 849.415901 90.526201 
" style="fill:none;stroke:#0000ff;stroke-width:1.5;"/>
    <path clip-path="url(#p6f018f8d32)" d="M 857.848 120.530225 
L 857.848 88.35444 
" style="fill:none;stroke:#0000ff;stroke-width:1.5;"/>
   </g>
   <g id="line2d_9">
    <path clip-path="url(#p6f018f8d32)" d="M 174.848 93.529709 
L 857.848 93.529709 
" style="fill:none;stroke:#ff0000;stroke-linecap:square;stroke-width:1.5;"/>
   </g>
   <g id="line2d_10">
    <defs>
     <path d="M -3 0 
L 3 0 
M 0 3 
L 0 -3 
" id="mb84756ef1f" style="stroke:#0000ff;"/>
    </defs>
    <g clip-path="url(#p6f018f8d32)">
     <use style="fill:#0000ff;stroke:#0000ff;" x="174.848" xlink:href="#mb84756ef1f" y="94.36532"/>
     <use style="fill:#0000ff;stroke:#0000ff;" x="183.280099" xlink:href="#mb84756ef1f" y="88.467559"/>
     <use style="fill:#0000ff;stroke:#0000ff;" x="191.712198" xlink:href="#mb84756ef1f" y="91.67449"/>
     <use style="fill:#0000ff;stroke:#0000ff;" x="200.144296" xlink:href="#mb84756ef1f" y="90.066529"/>
     <use style="fill:#0000ff;stroke:#0000ff;" x="208.576395" xlink:href="#mb84756ef1f" y="91.555301"/>
     <use style="fill:#0000ff;stroke:#0000ff;" x="217.008494" xlink:href="#mb84756ef1f" y="95.927408"/>
     <use style="fill:#0000ff;stroke:#0000ff;" x="225.440593" xlink:href="#mb84756ef1f" y="106.86315"/>
     <use style="fill:#0000ff;stroke:#0000ff;" x="233.872691" xlink:href="#mb84756ef1f" y="68.095793"/>
     <use style="fill:#0000ff;stroke:#0000ff;" x="242.30479" xlink:href="#mb84756ef1f" y="95.690218"/>
     <use style="fill:#0000ff;stroke:#0000ff;" x="250.736889" xlink:href="#mb84756ef1f" y="99.607142"/>
     <use style="fill:#0000ff;stroke:#0000ff;" x="259.168988" xlink:href="#mb84756ef1f" y="98.229103"/>
     <use style="fill:#0000ff;stroke:#0000ff;" x="267.601086" xlink:href="#mb84756ef1f" y="73.845979"/>
     <use style="fill:#0000ff;stroke:#0000ff;" x="276.033185" xlink:href="#mb84756ef1f" y="87.095093"/>
     <use style="fill:#0000ff;stroke:#0000ff;" x="284.465284" xlink:href="#mb84756ef1f" y="93.4222"/>
     <use style="fill:#0000ff;stroke:#0000ff;" x="292.897383" xlink:href="#mb84756ef1f" y="96.673993"/>
     <use style="fill:#0000ff;stroke:#0000ff;" x="301.329481" xlink:href="#mb84756ef1f" y="99.663518"/>
     <use style="fill:#0000ff;stroke:#0000ff;" x="309.76158" xlink:href="#mb84756ef1f" y="92.895881"/>
     <use style="fill:#0000ff;stroke:#0000ff;" x="318.193679" xlink:href="#mb84756ef1f" y="101.072954"/>
     <use style="fill:#0000ff;stroke:#0000ff;" x="326.625778" xlink:href="#mb84756ef1f" y="100.115956"/>
     <use style="fill:#0000ff;stroke:#0000ff;" x="335.057877" xlink:href="#mb84756ef1f" y="90.74746"/>
     <use style="fill:#0000ff;stroke:#0000ff;" x="343.489975" xlink:href="#mb84756ef1f" y="96.48321"/>
     <use style="fill:#0000ff;stroke:#0000ff;" x="351.922074" xlink:href="#mb84756ef1f" y="101.653432"/>
     <use style="fill:#0000ff;stroke:#0000ff;" x="360.354173" xlink:href="#mb84756ef1f" y="93.00148"/>
     <use style="fill:#0000ff;stroke:#0000ff;" x="368.786272" xlink:href="#mb84756ef1f" y="104.602414"/>
     <use style="fill:#0000ff;stroke:#0000ff;" x="377.21837" xlink:href="#mb84756ef1f" y="81.218484"/>
     <use style="fill:#0000ff;stroke:#0000ff;" x="385.650469" xlink:href="#mb84756ef1f" y="80.73682"/>
     <use style="fill:#0000ff;stroke:#0000ff;" x="394.082568" xlink:href="#mb84756ef1f" y="97.888979"/>
     <use style="fill:#0000ff;stroke:#0000ff;" x="402.514667" xlink:href="#mb84756ef1f" y="103.530609"/>
     <use style="fill:#0000ff;stroke:#0000ff;" x="410.946765" xlink:href="#mb84756ef1f" y="91.161389"/>
     <use style="fill:#0000ff;stroke:#0000ff;" x="419.378864" xlink:href="#mb84756ef1f" y="100.16154"/>
     <use style="fill:#0000ff;stroke:#0000ff;" x="427.810963" xlink:href="#mb84756ef1f" y="109.440955"/>
     <use style="fill:#0000ff;stroke:#0000ff;" x="436.243062" xlink:href="#mb84756ef1f" y="103.588556"/>
     <use style="fill:#0000ff;stroke:#0000ff;" x="444.67516" xlink:href="#mb84756ef1f" y="80.860027"/>
     <use style="fill:#0000ff;stroke:#0000ff;" x="453.107259" xlink:href="#mb84756ef1f" y="84.420468"/>
     <use style="fill:#0000ff;stroke:#0000ff;" x="461.539358" xlink:href="#mb84756ef1f" y="89.087996"/>
     <use style="fill:#0000ff;stroke:#0000ff;" x="469.971457" xlink:href="#mb84756ef1f" y="85.679282"/>
     <use style="fill:#0000ff;stroke:#0000ff;" x="478.403556" xlink:href="#mb84756ef1f" y="99.094895"/>
     <use style="fill:#0000ff;stroke:#0000ff;" x="486.835654" xlink:href="#mb84756ef1f" y="101.397284"/>
     <use style="fill:#0000ff;stroke:#0000ff;" x="495.267753" xlink:href="#mb84756ef1f" y="90.696957"/>
     <use style="fill:#0000ff;stroke:#0000ff;" x="503.699852" xlink:href="#mb84756ef1f" y="76.068066"/>
     <use style="fill:#0000ff;stroke:#0000ff;" x="512.131951" xlink:href="#mb84756ef1f" y="89.963624"/>
     <use style="fill:#0000ff;stroke:#0000ff;" x="520.564049" xlink:href="#mb84756ef1f" y="96.840628"/>
     <use style="fill:#0000ff;stroke:#0000ff;" x="528.996148" xlink:href="#mb84756ef1f" y="87.605432"/>
     <use style="fill:#0000ff;stroke:#0000ff;" x="537.428247" xlink:href="#mb84756ef1f" y="91.991831"/>
     <use style="fill:#0000ff;stroke:#0000ff;" x="545.860346" xlink:href="#mb84756ef1f" y="109.897255"/>
     <use style="fill:#0000ff;stroke:#0000ff;" x="554.292444" xlink:href="#mb84756ef1f" y="105.989324"/>
     <use style="fill:#0000ff;stroke:#0000ff;" x="562.724543" xlink:href="#mb84756ef1f" y="78.532729"/>
     <use style="fill:#0000ff;stroke:#0000ff;" x="571.156642" xlink:href="#mb84756ef1f" y="79.968916"/>
     <use style="fill:#0000ff;stroke:#0000ff;" x="579.588741" xlink:href="#mb84756ef1f" y="65.7824"/>
     <use style="fill:#0000ff;stroke:#0000ff;" x="588.02084" xlink:href="#mb84756ef1f" y="103.041357"/>
     <use style="fill:#0000ff;stroke:#0000ff;" x="596.452938" xlink:href="#mb84756ef1f" y="90.220317"/>
     <use style="fill:#0000ff;stroke:#0000ff;" x="604.885037" xlink:href="#mb84756ef1f" y="79.963218"/>
     <use style="fill:#0000ff;stroke:#0000ff;" x="613.317136" xlink:href="#mb84756ef1f" y="121.495892"/>
     <use style="fill:#0000ff;stroke:#0000ff;" x="621.749235" xlink:href="#mb84756ef1f" y="92.046137"/>
     <use style="fill:#0000ff;stroke:#0000ff;" x="630.181333" xlink:href="#mb84756ef1f" y="102.769991"/>
     <use style="fill:#0000ff;stroke:#0000ff;" x="638.613432" xlink:href="#mb84756ef1f" y="84.806127"/>
     <use style="fill:#0000ff;stroke:#0000ff;" x="647.045531" xlink:href="#mb84756ef1f" y="101.594912"/>
     <use style="fill:#0000ff;stroke:#0000ff;" x="655.47763" xlink:href="#mb84756ef1f" y="101.182988"/>
     <use style="fill:#0000ff;stroke:#0000ff;" x="663.909728" xlink:href="#mb84756ef1f" y="92.593764"/>
     <use style="fill:#0000ff;stroke:#0000ff;" x="672.341827" xlink:href="#mb84756ef1f" y="118.601829"/>
     <use style="fill:#0000ff;stroke:#0000ff;" x="680.773926" xlink:href="#mb84756ef1f" y="100.232626"/>
     <use style="fill:#0000ff;stroke:#0000ff;" x="689.206025" xlink:href="#mb84756ef1f" y="75.976571"/>
     <use style="fill:#0000ff;stroke:#0000ff;" x="697.638123" xlink:href="#mb84756ef1f" y="88.833411"/>
     <use style="fill:#0000ff;stroke:#0000ff;" x="706.070222" xlink:href="#mb84756ef1f" y="74.687729"/>
     <use style="fill:#0000ff;stroke:#0000ff;" x="714.502321" xlink:href="#mb84756ef1f" y="133.1824"/>
     <use style="fill:#0000ff;stroke:#0000ff;" x="722.93442" xlink:href="#mb84756ef1f" y="98.676548"/>
     <use style="fill:#0000ff;stroke:#0000ff;" x="731.366519" xlink:href="#mb84756ef1f" y="73.32887"/>
     <use style="fill:#0000ff;stroke:#0000ff;" x="739.798617" xlink:href="#mb84756ef1f" y="81.685332"/>
     <use style="fill:#0000ff;stroke:#0000ff;" x="748.230716" xlink:href="#mb84756ef1f" y="87.961633"/>
     <use style="fill:#0000ff;stroke:#0000ff;" x="756.662815" xlink:href="#mb84756ef1f" y="74.575269"/>
     <use style="fill:#0000ff;stroke:#0000ff;" x="765.094914" xlink:href="#mb84756ef1f" y="77.321839"/>
     <use style="fill:#0000ff;stroke:#0000ff;" x="773.527012" xlink:href="#mb84756ef1f" y="104.312879"/>
     <use style="fill:#0000ff;stroke:#0000ff;" x="781.959111" xlink:href="#mb84756ef1f" y="97.976865"/>
     <use style="fill:#0000ff;stroke:#0000ff;" x="790.39121" xlink:href="#mb84756ef1f" y="86.263868"/>
     <use style="fill:#0000ff;stroke:#0000ff;" x="798.823309" xlink:href="#mb84756ef1f" y="101.82379"/>
     <use style="fill:#0000ff;stroke:#0000ff;" x="807.255407" xlink:href="#mb84756ef1f" y="83.151468"/>
     <use style="fill:#0000ff;stroke:#0000ff;" x="815.687506" xlink:href="#mb84756ef1f" y="98.784503"/>
     <use style="fill:#0000ff;stroke:#0000ff;" x="824.119605" xlink:href="#mb84756ef1f" y="109.62465"/>
     <use style="fill:#0000ff;stroke:#0000ff;" x="832.551704" xlink:href="#mb84756ef1f" y="77.460482"/>
     <use style="fill:#0000ff;stroke:#0000ff;" x="840.983802" xlink:href="#mb84756ef1f" y="87.735538"/>
     <use style="fill:#0000ff;stroke:#0000ff;" x="849.415901" xlink:href="#mb84756ef1f" y="106.614093"/>
     <use style="fill:#0000ff;stroke:#0000ff;" x="857.848" xlink:href="#mb84756ef1f" y="104.442332"/>
    </g>
   </g>
   <g id="patch_3">
    <path d="M 147.528 135.8784 
L 147.528 63.0864 
" style="fill:none;stroke:#000000;stroke-linecap:square;stroke-linejoin:miter;stroke-width:0.8;"/>
   </g>
   <g id="patch_4">
    <path d="M 885.168 135.8784 
L 885.168 63.0864 
" style="fill:none;stroke:#000000;stroke-linecap:square;stroke-linejoin:miter;stroke-width:0.8;"/>
   </g>
   <g id="patch_5">
    <path d="M 147.528 135.8784 
L 885.168 135.8784 
" style="fill:none;stroke:#000000;stroke-linecap:square;stroke-linejoin:miter;stroke-width:0.8;"/>
   </g>
   <g id="patch_6">
    <path d="M 147.528 63.0864 
L 885.168 63.0864 
" style="fill:none;stroke:#000000;stroke-linecap:square;stroke-linejoin:miter;stroke-width:0.8;"/>
   </g>
   <g id="text_4">
    <!-- Function (0/0): y = a*exp(-(x-x0)**2/w**2)+b -->
    <defs>
     <path d="M 9.8125 72.90625 
L 51.703125 72.90625 
L 51.703125 64.59375 
L 19.671875 64.59375 
L 19.671875 43.109375 
L 48.578125 43.109375 
L 48.578125 34.8125 
L 19.671875 34.8125 
L 19.671875 0 
L 9.8125 0 
z
" id="DejaVuSans-46"/>
     <path d="M 48.78125 52.59375 
L 48.78125 44.1875 
Q 44.96875 46.296875 41.140625 47.34375 
Q 37.3125 48.390625 33.40625 48.390625 
Q 24.65625 48.390625 19.8125 42.84375 
Q 14.984375 37.3125 14.984375 27.296875 
Q 14.984375 17.28125 19.8125 11.734375 
Q 24.65625 6.203125 33.40625 6.203125 
Q 37.3125 6.203125 41.140625 7.25 
Q 44.96875 8.296875 48.78125 10.40625 
L 48.78125 2.09375 
Q 45.015625 0.34375 40.984375 -0.53125 
Q 36.96875 -1.421875 32.421875 -1.421875 
Q 20.0625 -1.421875 12.78125 6.34375 
Q 5.515625 14.109375 5.515625 27.296875 
Q 5.515625 40.671875 12.859375 48.328125 
Q 20.21875 56 33.015625 56 
Q 37.15625 56 41.109375 55.140625 
Q 45.0625 54.296875 48.78125 52.59375 
z
" id="DejaVuSans-63"/>
     <path d="M 30.609375 48.390625 
Q 23.390625 48.390625 19.1875 42.75 
Q 14.984375 37.109375 14.984375 27.296875 
Q 14.984375 17.484375 19.15625 11.84375 
Q 23.34375 6.203125 30.609375 6.203125 
Q 37.796875 6.203125 41.984375 11.859375 
Q 46.1875 17.53125 46.1875 27.296875 
Q 46.1875 37.015625 41.984375 42.703125 
Q 37.796875 48.390625 30.609375 48.390625 
z
M 30.609375 56 
Q 42.328125 56 49.015625 48.375 
Q 55.71875 40.765625 55.71875 27.296875 
Q 55.71875 13.875 49.015625 6.21875 
Q 42.328125 -1.421875 30.609375 -1.421875 
Q 18.84375 -1.421875 12.171875 6.21875 
Q 5.515625 13.875 5.515625 27.296875 
Q 5.515625 40.765625 12.171875 48.375 
Q 18.84375 56 30.609375 56 
z
" id="DejaVuSans-6f"/>
     <path id="DejaVuSans-20"/>
     <path d="M 31 75.875 
Q 24.46875 64.65625 21.28125 53.65625 
Q 18.109375 42.671875 18.109375 31.390625 
Q 18.109375 20.125 21.3125 9.0625 
Q 24.515625 -2 31 -13.1875 
L 23.1875 -13.1875 
Q 15.875 -1.703125 12.234375 9.375 
Q 8.59375 20.453125 8.59375 31.390625 
Q 8.59375 42.28125 12.203125 53.3125 
Q 15.828125 64.359375 23.1875 75.875 
z
" id="DejaVuSans-28"/>
     <path d="M 25.390625 72.90625 
L 33.6875 72.90625 
L 8.296875 -9.28125 
L 0 -9.28125 
z
" id="DejaVuSans-2f"/>
     <path d="M 8.015625 75.875 
L 15.828125 75.875 
Q 23.140625 64.359375 26.78125 53.3125 
Q 30.421875 42.28125 30.421875 31.390625 
Q 30.421875 20.453125 26.78125 9.375 
Q 23.140625 -1.703125 15.828125 -13.1875 
L 8.015625 -13.1875 
Q 14.5 -2 17.703125 9.0625 
Q 20.90625 20.125 20.90625 31.390625 
Q 20.90625 42.671875 17.703125 53.65625 
Q 14.5 64.65625 8.015625 75.875 
z
" id="DejaVuSans-29"/>
     <path d="M 11.71875 12.40625 
L 22.015625 12.40625 
L 22.015625 0 
L 11.71875 0 
z
M 11.71875 51.703125 
L 22.015625 51.703125 
L 22.015625 39.3125 
L 11.71875 39.3125 
z
" id="DejaVuSans-3a"/>
     <path d="M 32.171875 -5.078125 
Q 28.375 -14.84375 24.75 -17.8125 
Q 21.140625 -20.796875 15.09375 -20.796875 
L 7.90625 -20.796875 
L 7.90625 -13.28125 
L 13.1875 -13.28125 
Q 16.890625 -13.28125 18.9375 -11.515625 
Q 21 -9.765625 23.484375 -3.21875 
L 25.09375 0.875 
L 2.984375 54.6875 
L 12.5 54.6875 
L 29.59375 11.921875 
L 46.6875 54.6875 
L 56.203125 54.6875 
z
" id="DejaVuSans-79"/>
     <path d="M 10.59375 45.40625 
L 73.1875 45.40625 
L 73.1875 37.203125 
L 10.59375 37.203125 
z
M 10.59375 25.484375 
L 73.1875 25.484375 
L 73.1875 17.1875 
L 10.59375 17.1875 
z
" id="DejaVuSans-3d"/>
     <path d="M 47.015625 60.890625 
L 29.5 51.421875 
L 47.015625 41.890625 
L 44.1875 37.109375 
L 27.78125 47.015625 
L 27.78125 28.609375 
L 22.21875 28.609375 
L 22.21875 47.015625 
L 5.8125 37.109375 
L 2.984375 41.890625 
L 20.515625 51.421875 
L 2.984375 60.890625 
L 5.8125 65.71875 
L 22.21875 55.8125 
L 22.21875 74.21875 
L 27.78125 74.21875 
L 27.78125 55.8125 
L 44.1875 65.71875 
z
" id="DejaVuSans-2a"/>
     <path d="M 54.890625 54.6875 
L 35.109375 28.078125 
L 55.90625 0 
L 45.3125 0 
L 29.390625 21.484375 
L 13.484375 0 
L 2.875 0 
L 24.125 28.609375 
L 4.6875 54.6875 
L 15.28125 54.6875 
L 29.78125 35.203125 
L 44.28125 54.6875 
z
" id="DejaVuSans-78"/>
     <path d="M 18.109375 8.203125 
L 18.109375 -20.796875 
L 9.078125 -20.796875 
L 9.078125 54.6875 
L 18.109375 54.6875 
L 18.109375 46.390625 
Q 20.953125 51.265625 25.265625 53.625 
Q 29.59375 56 35.59375 56 
Q 45.5625 56 51.78125 48.09375 
Q 58.015625 40.1875 58.015625 27.296875 
Q 58.015625 14.40625 51.78125 6.484375 
Q 45.5625 -1.421875 35.59375 -1.421875 
Q 29.59375 -1.421875 25.265625 0.953125 
Q 20.953125 3.328125 18.109375 8.203125 
z
M 48.6875 27.296875 
Q 48.6875 37.203125 44.609375 42.84375 
Q 40.53125 48.484375 33.40625 48.484375 
Q 26.265625 48.484375 22.1875 42.84375 
Q 18.109375 37.203125 18.109375 27.296875 
Q 18.109375 17.390625 22.1875 11.75 
Q 26.265625 6.109375 33.40625 6.109375 
Q 40.53125 6.109375 44.609375 11.75 
Q 48.6875 17.390625 48.6875 27.296875 
z
" id="DejaVuSans-70"/>
     <path d="M 4.890625 31.390625 
L 31.203125 31.390625 
L 31.203125 23.390625 
L 4.890625 23.390625 
z
" id="DejaVuSans-2d"/>
     <path d="M 4.203125 54.6875 
L 13.1875 54.6875 
L 24.421875 12.015625 
L 35.59375 54.6875 
L 46.1875 54.6875 
L 57.421875 12.015625 
L 68.609375 54.6875 
L 77.59375 54.6875 
L 63.28125 0 
L 52.6875 0 
L 40.921875 44.828125 
L 29.109375 0 
L 18.5 0 
z
" id="DejaVuSans-77"/>
     <path d="M 46 62.703125 
L 46 35.5 
L 73.1875 35.5 
L 73.1875 27.203125 
L 46 27.203125 
L 46 0 
L 37.796875 0 
L 37.796875 27.203125 
L 10.59375 27.203125 
L 10.59375 35.5 
L 37.796875 35.5 
L 37.796875 62.703125 
z
" id="DejaVuSans-2b"/>
     <path d="M 48.6875 27.296875 
Q 48.6875 37.203125 44.609375 42.84375 
Q 40.53125 48.484375 33.40625 48.484375 
Q 26.265625 48.484375 22.1875 42.84375 
Q 18.109375 37.203125 18.109375 27.296875 
Q 18.109375 17.390625 22.1875 11.75 
Q 26.265625 6.109375 33.40625 6.109375 
Q 40.53125 6.109375 44.609375 11.75 
Q 48.6875 17.390625 48.6875 27.296875 
z
M 18.109375 46.390625 
Q 20.953125 51.265625 25.265625 53.625 
Q 29.59375 56 35.59375 56 
Q 45.5625 56 51.78125 48.09375 
Q 58.015625 40.1875 58.015625 27.296875 
Q 58.015625 14.40625 51.78125 6.484375 
Q 45.5625 -1.421875 35.59375 -1.421875 
Q 29.59375 -1.421875 25.265625 0.953125 
Q 20.953125 3.328125 18.109375 8.203125 
L 18.109375 0 
L 9.078125 0 
L 9.078125 75.984375 
L 18.109375 75.984375 
z
" id="DejaVuSans-62"/>
    </defs>
    <g transform="translate(147.528 34.690775)scale(0.1 -0.1)">
     <use xlink:href="#DejaVuSans-46"/>
     <use x="57.441406" xlink:href="#DejaVuSans-75"/>
     <use x="120.820312" xlink:href="#DejaVuSans-6e"/>
     <use x="184.199219" xlink:href="#DejaVuSans-63"/>
     <use x="239.179688" xlink:href="#DejaVuSans-74"/>
     <use x="278.388672" xlink:href="#DejaVuSans-69"/>
     <use x="306.171875" xlink:href="#DejaVuSans-6f"/>
     <use x="367.353516" xlink:href="#DejaVuSans-6e"/>
     <use x="430.732422" xlink:href="#DejaVuSans-20"/>
     <use x="462.519531" xlink:href="#DejaVuSans-28"/>
     <use x="501.533203" xlink:href="#DejaVuSans-30"/>
     <use x="565.15625" xlink:href="#DejaVuSans-2f"/>
     <use x="598.847656" xlink:href="#DejaVuSans-30"/>
     <use x="662.470703" xlink:href="#DejaVuSans-29"/>
     <use x="701.484375" xlink:href="#DejaVuSans-3a"/>
     <use x="735.175781" xlink:href="#DejaVuSans-20"/>
     <use x="766.962891" xlink:href="#DejaVuSans-79"/>
     <use x="826.142578" xlink:href="#DejaVuSans-20"/>
     <use x="857.929688" xlink:href="#DejaVuSans-3d"/>
     <use x="941.71875" xlink:href="#DejaVuSans-20"/>
     <use x="973.505859" xlink:href="#DejaVuSans-61"/>
     <use x="1034.785156" xlink:href="#DejaVuSans-2a"/>
     <use x="1084.785156" xlink:href="#DejaVuSans-65"/>
     <use x="1146.292969" xlink:href="#DejaVuSans-78"/>
     <use x="1205.472656" xlink:href="#DejaVuSans-70"/>
     <use x="1268.949219" xlink:href="#DejaVuSans-28"/>
     <use x="1307.962891" xlink:href="#DejaVuSans-2d"/>
     <use x="1344.046875" xlink:href="#DejaVuSans-28"/>
     <use x="1383.060547" xlink:href="#DejaVuSans-78"/>
     <use x="1442.240234" xlink:href="#DejaVuSans-2d"/>
     <use x="1478.324219" xlink:href="#DejaVuSans-78"/>
     <use x="1537.503906" xlink:href="#DejaVuSans-30"/>
     <use x="1601.126953" xlink:href="#DejaVuSans-29"/>
     <use x="1640.140625" xlink:href="#DejaVuSans-2a"/>
     <use x="1690.140625" xlink:href="#DejaVuSans-2a"/>
     <use x="1740.140625" xlink:href="#DejaVuSans-32"/>
     <use x="1803.763672" xlink:href="#DejaVuSans-2f"/>
     <use x="1837.455078" xlink:href="#DejaVuSans-77"/>
     <use x="1919.242188" xlink:href="#DejaVuSans-2a"/>
     <use x="1969.242188" xlink:href="#DejaVuSans-2a"/>
     <use x="2019.242188" xlink:href="#DejaVuSans-32"/>
     <use x="2082.865234" xlink:href="#DejaVuSans-29"/>
     <use x="2121.878906" xlink:href="#DejaVuSans-2b"/>
     <use x="2205.667969" xlink:href="#DejaVuSans-62"/>
    </g>
    <!-- Fit: a=456.9$\pm$8.5, b=32.3$\pm$9.6, x0=4.64422$\pm$0.00097, -->
    <defs>
     <path d="M 37.796875 64.3125 
L 12.890625 25.390625 
L 37.796875 25.390625 
z
M 35.203125 72.90625 
L 47.609375 72.90625 
L 47.609375 25.390625 
L 58.015625 25.390625 
L 58.015625 17.1875 
L 47.609375 17.1875 
L 47.609375 0 
L 37.796875 0 
L 37.796875 17.1875 
L 4.890625 17.1875 
L 4.890625 26.703125 
z
" id="DejaVuSans-34"/>
     <path d="M 10.796875 72.90625 
L 49.515625 72.90625 
L 49.515625 64.59375 
L 19.828125 64.59375 
L 19.828125 46.734375 
Q 21.96875 47.46875 24.109375 47.828125 
Q 26.265625 48.1875 28.421875 48.1875 
Q 40.625 48.1875 47.75 41.5 
Q 54.890625 34.8125 54.890625 23.390625 
Q 54.890625 11.625 47.5625 5.09375 
Q 40.234375 -1.421875 26.90625 -1.421875 
Q 22.3125 -1.421875 17.546875 -0.640625 
Q 12.796875 0.140625 7.71875 1.703125 
L 7.71875 11.625 
Q 12.109375 9.234375 16.796875 8.0625 
Q 21.484375 6.890625 26.703125 6.890625 
Q 35.15625 6.890625 40.078125 11.328125 
Q 45.015625 15.765625 45.015625 23.390625 
Q 45.015625 31 40.078125 35.4375 
Q 35.15625 39.890625 26.703125 39.890625 
Q 22.75 39.890625 18.8125 39.015625 
Q 14.890625 38.140625 10.796875 36.28125 
z
" id="DejaVuSans-35"/>
     <path d="M 33.015625 40.375 
Q 26.375 40.375 22.484375 35.828125 
Q 18.609375 31.296875 18.609375 23.390625 
Q 18.609375 15.53125 22.484375 10.953125 
Q 26.375 6.390625 33.015625 6.390625 
Q 39.65625 6.390625 43.53125 10.953125 
Q 47.40625 15.53125 47.40625 23.390625 
Q 47.40625 31.296875 43.53125 35.828125 
Q 39.65625 40.375 33.015625 40.375 
z
M 52.59375 71.296875 
L 52.59375 62.3125 
Q 48.875 64.0625 45.09375 64.984375 
Q 41.3125 65.921875 37.59375 65.921875 
Q 27.828125 65.921875 22.671875 59.328125 
Q 17.53125 52.734375 16.796875 39.40625 
Q 19.671875 43.65625 24.015625 45.921875 
Q 28.375 48.1875 33.59375 48.1875 
Q 44.578125 48.1875 50.953125 41.515625 
Q 57.328125 34.859375 57.328125 23.390625 
Q 57.328125 12.15625 50.6875 5.359375 
Q 44.046875 -1.421875 33.015625 -1.421875 
Q 20.359375 -1.421875 13.671875 8.265625 
Q 6.984375 17.96875 6.984375 36.375 
Q 6.984375 53.65625 15.1875 63.9375 
Q 23.390625 74.21875 37.203125 74.21875 
Q 40.921875 74.21875 44.703125 73.484375 
Q 48.484375 72.75 52.59375 71.296875 
z
" id="DejaVuSans-36"/>
     <path d="M 10.6875 12.40625 
L 21 12.40625 
L 21 0 
L 10.6875 0 
z
" id="DejaVuSans-2e"/>
     <path d="M 10.984375 1.515625 
L 10.984375 10.5 
Q 14.703125 8.734375 18.5 7.8125 
Q 22.3125 6.890625 25.984375 6.890625 
Q 35.75 6.890625 40.890625 13.453125 
Q 46.046875 20.015625 46.78125 33.40625 
Q 43.953125 29.203125 39.59375 26.953125 
Q 35.25 24.703125 29.984375 24.703125 
Q 19.046875 24.703125 12.671875 31.3125 
Q 6.296875 37.9375 6.296875 49.421875 
Q 6.296875 60.640625 12.9375 67.421875 
Q 19.578125 74.21875 30.609375 74.21875 
Q 43.265625 74.21875 49.921875 64.515625 
Q 56.59375 54.828125 56.59375 36.375 
Q 56.59375 19.140625 48.40625 8.859375 
Q 40.234375 -1.421875 26.421875 -1.421875 
Q 22.703125 -1.421875 18.890625 -0.6875 
Q 15.09375 0.046875 10.984375 1.515625 
z
M 30.609375 32.421875 
Q 37.25 32.421875 41.125 36.953125 
Q 45.015625 41.5 45.015625 49.421875 
Q 45.015625 57.28125 41.125 61.84375 
Q 37.25 66.40625 30.609375 66.40625 
Q 23.96875 66.40625 20.09375 61.84375 
Q 16.21875 57.28125 16.21875 49.421875 
Q 16.21875 41.5 20.09375 36.953125 
Q 23.96875 32.421875 30.609375 32.421875 
z
" id="DejaVuSans-39"/>
     <path d="M 46 62.703125 
L 46 43.796875 
L 73.1875 43.796875 
L 73.1875 35.5 
L 46 35.5 
L 46 16.609375 
L 37.796875 16.609375 
L 37.796875 35.5 
L 10.59375 35.5 
L 10.59375 43.796875 
L 37.796875 43.796875 
L 37.796875 62.703125 
z
M 10.59375 8.296875 
L 73.1875 8.296875 
L 73.1875 0 
L 10.59375 0 
z
" id="DejaVuSans-b1"/>
     <path d="M 31.78125 34.625 
Q 24.75 34.625 20.71875 30.859375 
Q 16.703125 27.09375 16.703125 20.515625 
Q 16.703125 13.921875 20.71875 10.15625 
Q 24.75 6.390625 31.78125 6.390625 
Q 38.8125 6.390625 42.859375 10.171875 
Q 46.921875 13.96875 46.921875 20.515625 
Q 46.921875 27.09375 42.890625 30.859375 
Q 38.875 34.625 31.78125 34.625 
z
M 21.921875 38.8125 
Q 15.578125 40.375 12.03125 44.71875 
Q 8.5 49.078125 8.5 55.328125 
Q 8.5 64.0625 14.71875 69.140625 
Q 20.953125 74.21875 31.78125 74.21875 
Q 42.671875 74.21875 48.875 69.140625 
Q 55.078125 64.0625 55.078125 55.328125 
Q 55.078125 49.078125 51.53125 44.71875 
Q 48 40.375 41.703125 38.8125 
Q 48.828125 37.15625 52.796875 32.3125 
Q 56.78125 27.484375 56.78125 20.515625 
Q 56.78125 9.90625 50.3125 4.234375 
Q 43.84375 -1.421875 31.78125 -1.421875 
Q 19.734375 -1.421875 13.25 4.234375 
Q 6.78125 9.90625 6.78125 20.515625 
Q 6.78125 27.484375 10.78125 32.3125 
Q 14.796875 37.15625 21.921875 38.8125 
z
M 18.3125 54.390625 
Q 18.3125 48.734375 21.84375 45.5625 
Q 25.390625 42.390625 31.78125 42.390625 
Q 38.140625 42.390625 41.71875 45.5625 
Q 45.3125 48.734375 45.3125 54.390625 
Q 45.3125 60.0625 41.71875 63.234375 
Q 38.140625 66.40625 31.78125 66.40625 
Q 25.390625 66.40625 21.84375 63.234375 
Q 18.3125 60.0625 18.3125 54.390625 
z
" id="DejaVuSans-38"/>
     <path d="M 11.71875 12.40625 
L 22.015625 12.40625 
L 22.015625 4 
L 14.015625 -11.625 
L 7.71875 -11.625 
L 11.71875 4 
z
" id="DejaVuSans-2c"/>
     <path d="M 40.578125 39.3125 
Q 47.65625 37.796875 51.625 33 
Q 55.609375 28.21875 55.609375 21.1875 
Q 55.609375 10.40625 48.1875 4.484375 
Q 40.765625 -1.421875 27.09375 -1.421875 
Q 22.515625 -1.421875 17.65625 -0.515625 
Q 12.796875 0.390625 7.625 2.203125 
L 7.625 11.71875 
Q 11.71875 9.328125 16.59375 8.109375 
Q 21.484375 6.890625 26.8125 6.890625 
Q 36.078125 6.890625 40.9375 10.546875 
Q 45.796875 14.203125 45.796875 21.1875 
Q 45.796875 27.640625 41.28125 31.265625 
Q 36.765625 34.90625 28.71875 34.90625 
L 20.21875 34.90625 
L 20.21875 43.015625 
L 29.109375 43.015625 
Q 36.375 43.015625 40.234375 45.921875 
Q 44.09375 48.828125 44.09375 54.296875 
Q 44.09375 59.90625 40.109375 62.90625 
Q 36.140625 65.921875 28.71875 65.921875 
Q 24.65625 65.921875 20.015625 65.03125 
Q 15.375 64.15625 9.8125 62.3125 
L 9.8125 71.09375 
Q 15.4375 72.65625 20.34375 73.4375 
Q 25.25 74.21875 29.59375 74.21875 
Q 40.828125 74.21875 47.359375 69.109375 
Q 53.90625 64.015625 53.90625 55.328125 
Q 53.90625 49.265625 50.4375 45.09375 
Q 46.96875 40.921875 40.578125 39.3125 
z
" id="DejaVuSans-33"/>
     <path d="M 8.203125 72.90625 
L 55.078125 72.90625 
L 55.078125 68.703125 
L 28.609375 0 
L 18.3125 0 
L 43.21875 64.59375 
L 8.203125 64.59375 
z
" id="DejaVuSans-37"/>
    </defs>
    <g transform="translate(147.528 45.888588)scale(0.1 -0.1)">
     <use transform="translate(0 0.015625)" xlink:href="#DejaVuSans-46"/>
     <use transform="translate(57.519531 0.015625)" xlink:href="#DejaVuSans-69"/>
     <use transform="translate(85.302734 0.015625)" xlink:href="#DejaVuSans-74"/>
     <use transform="translate(124.511719 0.015625)" xlink:href="#DejaVuSans-3a"/>
     <use transform="translate(158.203125 0.015625)" xlink:href="#DejaVuSans-20"/>
     <use transform="translate(189.990234 0.015625)" xlink:href="#DejaVuSans-61"/>
     <use transform="translate(251.269531 0.015625)" xlink:href="#DejaVuSans-3d"/>
     <use transform="translate(335.058594 0.015625)" xlink:href="#DejaVuSans-34"/>
     <use transform="translate(398.681641 0.015625)" xlink:href="#DejaVuSans-35"/>
     <use transform="translate(462.304688 0.015625)" xlink:href="#DejaVuSans-36"/>
     <use transform="translate(525.927734 0.015625)" xlink:href="#DejaVuSans-2e"/>
     <use transform="translate(557.714844 0.015625)" xlink:href="#DejaVuSans-39"/>
     <use transform="translate(621.337891 0.015625)" xlink:href="#DejaVuSans-b1"/>
     <use transform="translate(705.126953 0.015625)" xlink:href="#DejaVuSans-38"/>
     <use transform="translate(768.75 0.015625)" xlink:href="#DejaVuSans-2e"/>
     <use transform="translate(800.537109 0.015625)" xlink:href="#DejaVuSans-35"/>
     <use transform="translate(864.160156 0.015625)" xlink:href="#DejaVuSans-2c"/>
     <use transform="translate(895.947266 0.015625)" xlink:href="#DejaVuSans-20"/>
     <use transform="translate(927.734375 0.015625)" xlink:href="#DejaVuSans-62"/>
     <use transform="translate(991.210938 0.015625)" xlink:href="#DejaVuSans-3d"/>
     <use transform="translate(1075 0.015625)" xlink:href="#DejaVuSans-33"/>
     <use transform="translate(1138.623047 0.015625)" xlink:href="#DejaVuSans-32"/>
     <use transform="translate(1202.246094 0.015625)" xlink:href="#DejaVuSans-2e"/>
     <use transform="translate(1234.033203 0.015625)" xlink:href="#DejaVuSans-33"/>
     <use transform="translate(1297.65625 0.015625)" xlink:href="#DejaVuSans-b1"/>
     <use transform="translate(1381.445312 0.015625)" xlink:href="#DejaVuSans-39"/>
     <use transform="translate(1445.068359 0.015625)" xlink:href="#DejaVuSans-2e"/>
     <use transform="translate(1476.855469 0.015625)" xlink:href="#DejaVuSans-36"/>
     <use transform="translate(1540.478516 0.015625)" xlink:href="#DejaVuSans-2c"/>
     <use transform="translate(1572.265625 0.015625)" xlink:href="#DejaVuSans-20"/>
     <use transform="translate(1604.052734 0.015625)" xlink:href="#DejaVuSans-78"/>
     <use transform="translate(1663.232422 0.015625)" xlink:href="#DejaVuSans-30"/>
     <use transform="translate(1726.855469 0.015625)" xlink:href="#DejaVuSans-3d"/>
     <use transform="translate(1810.644531 0.015625)" xlink:href="#DejaVuSans-34"/>
     <use transform="translate(1874.267578 0.015625)" xlink:href="#DejaVuSans-2e"/>
     <use transform="translate(1906.054688 0.015625)" xlink:href="#DejaVuSans-36"/>
     <use transform="translate(1969.677734 0.015625)" xlink:href="#DejaVuSans-34"/>
     <use transform="translate(2033.300781 0.015625)" xlink:href="#DejaVuSans-34"/>
     <use transform="translate(2096.923828 0.015625)" xlink:href="#DejaVuSans-32"/>
     <use transform="translate(2160.546875 0.015625)" xlink:href="#DejaVuSans-32"/>
     <use transform="translate(2224.169922 0.015625)" xlink:href="#DejaVuSans-b1"/>
     <use transform="translate(2307.958984 0.015625)" xlink:href="#DejaVuSans-30"/>
     <use transform="translate(2371.582031 0.015625)" xlink:href="#DejaVuSans-2e"/>
     <use transform="translate(2403.369141 0.015625)" xlink:href="#DejaVuSans-30"/>
     <use transform="translate(2466.992188 0.015625)" xlink:href="#DejaVuSans-30"/>
     <use transform="translate(2530.615234 0.015625)" xlink:href="#DejaVuSans-30"/>
     <use transform="translate(2594.238281 0.015625)" xlink:href="#DejaVuSans-39"/>
     <use transform="translate(2657.861328 0.015625)" xlink:href="#DejaVuSans-37"/>
     <use transform="translate(2721.484375 0.015625)" xlink:href="#DejaVuSans-2c"/>
    </g>
    <!--       w=0.1648$\pm$0.0043, -->
    <defs>
     <path d="M 12.40625 8.296875 
L 28.515625 8.296875 
L 28.515625 63.921875 
L 10.984375 60.40625 
L 10.984375 69.390625 
L 28.421875 72.90625 
L 38.28125 72.90625 
L 38.28125 8.296875 
L 54.390625 8.296875 
L 54.390625 0 
L 12.40625 0 
z
" id="DejaVuSans-31"/>
    </defs>
    <g transform="translate(147.528 57.0864)scale(0.1 -0.1)">
     <use transform="translate(0 0.78125)" xlink:href="#DejaVuSans-20"/>
     <use transform="translate(31.787109 0.78125)" xlink:href="#DejaVuSans-20"/>
     <use transform="translate(63.574219 0.78125)" xlink:href="#DejaVuSans-20"/>
     <use transform="translate(95.361328 0.78125)" xlink:href="#DejaVuSans-20"/>
     <use transform="translate(127.148438 0.78125)" xlink:href="#DejaVuSans-20"/>
     <use transform="translate(158.935547 0.78125)" xlink:href="#DejaVuSans-20"/>
     <use transform="translate(190.722656 0.78125)" xlink:href="#DejaVuSans-77"/>
     <use transform="translate(272.509766 0.78125)" xlink:href="#DejaVuSans-3d"/>
     <use transform="translate(356.298828 0.78125)" xlink:href="#DejaVuSans-30"/>
     <use transform="translate(419.921875 0.78125)" xlink:href="#DejaVuSans-2e"/>
     <use transform="translate(451.708984 0.78125)" xlink:href="#DejaVuSans-31"/>
     <use transform="translate(515.332031 0.78125)" xlink:href="#DejaVuSans-36"/>
     <use transform="translate(578.955078 0.78125)" xlink:href="#DejaVuSans-34"/>
     <use transform="translate(642.578125 0.78125)" xlink:href="#DejaVuSans-38"/>
     <use transform="translate(706.201172 0.78125)" xlink:href="#DejaVuSans-b1"/>
     <use transform="translate(789.990234 0.78125)" xlink:href="#DejaVuSans-30"/>
     <use transform="translate(853.613281 0.78125)" xlink:href="#DejaVuSans-2e"/>
     <use transform="translate(885.400391 0.78125)" xlink:href="#DejaVuSans-30"/>
     <use transform="translate(949.023438 0.78125)" xlink:href="#DejaVuSans-30"/>
     <use transform="translate(1012.646484 0.78125)" xlink:href="#DejaVuSans-34"/>
     <use transform="translate(1076.269531 0.78125)" xlink:href="#DejaVuSans-33"/>
     <use transform="translate(1139.892578 0.78125)" xlink:href="#DejaVuSans-2c"/>
    </g>
   </g>
  </g>
  <g id="axes_2">
   <g id="patch_7">
    <path d="M 147.528 436.752 
L 885.168 436.752 
L 885.168 145.584 
L 147.528 145.584 
z
" style="fill:#ffffff;"/>
   </g>
   <g id="matplotlib.axis_3">
    <g id="xtick_7">
     <g id="line2d_11">
      <g>
       <use style="stroke:#000000;stroke-width:0.8;" x="169.867597" xlink:href="#me3171be799" y="436.752"/>
      </g>
     </g>
     <g id="text_5">
      <!-- 4.4 -->
      <g transform="translate(160.325722 452.870125)scale(0.12 -0.12)">
       <use xlink:href="#DejaVuSans-34"/>
       <use x="63.623047" xlink:href="#DejaVuSans-2e"/>
       <use x="95.410156" xlink:href="#DejaVuSans-34"/>
      </g>
     </g>
    </g>
    <g id="xtick_8">
     <g id="line2d_12">
      <g>
       <use style="stroke:#000000;stroke-width:0.8;" x="311.612395" xlink:href="#me3171be799" y="436.752"/>
      </g>
     </g>
     <g id="text_6">
      <!-- 4.5 -->
      <g transform="translate(302.07052 452.870125)scale(0.12 -0.12)">
       <use xlink:href="#DejaVuSans-34"/>
       <use x="63.623047" xlink:href="#DejaVuSans-2e"/>
       <use x="95.410156" xlink:href="#DejaVuSans-35"/>
      </g>
     </g>
    </g>
    <g id="xtick_9">
     <g id="line2d_13">
      <g>
       <use style="stroke:#000000;stroke-width:0.8;" x="453.357192" xlink:href="#me3171be799" y="436.752"/>
      </g>
     </g>
     <g id="text_7">
      <!-- 4.6 -->
      <g transform="translate(443.815317 452.870125)scale(0.12 -0.12)">
       <use xlink:href="#DejaVuSans-34"/>
       <use x="63.623047" xlink:href="#DejaVuSans-2e"/>
       <use x="95.410156" xlink:href="#DejaVuSans-36"/>
      </g>
     </g>
    </g>
    <g id="xtick_10">
     <g id="line2d_14">
      <g>
       <use style="stroke:#000000;stroke-width:0.8;" x="595.101989" xlink:href="#me3171be799" y="436.752"/>
      </g>
     </g>
     <g id="text_8">
      <!-- 4.7 -->
      <g transform="translate(585.560114 452.870125)scale(0.12 -0.12)">
       <use xlink:href="#DejaVuSans-34"/>
       <use x="63.623047" xlink:href="#DejaVuSans-2e"/>
       <use x="95.410156" xlink:href="#DejaVuSans-37"/>
      </g>
     </g>
    </g>
    <g id="xtick_11">
     <g id="line2d_15">
      <g>
       <use style="stroke:#000000;stroke-width:0.8;" x="736.846787" xlink:href="#me3171be799" y="436.752"/>
      </g>
     </g>
     <g id="text_9">
      <!-- 4.8 -->
      <g transform="translate(727.304912 452.870125)scale(0.12 -0.12)">
       <use xlink:href="#DejaVuSans-34"/>
       <use x="63.623047" xlink:href="#DejaVuSans-2e"/>
       <use x="95.410156" xlink:href="#DejaVuSans-38"/>
      </g>
     </g>
    </g>
    <g id="xtick_12">
     <g id="line2d_16">
      <g>
       <use style="stroke:#000000;stroke-width:0.8;" x="878.591584" xlink:href="#me3171be799" y="436.752"/>
      </g>
     </g>
     <g id="text_10">
      <!-- 4.9 -->
      <g transform="translate(869.049709 452.870125)scale(0.12 -0.12)">
       <use xlink:href="#DejaVuSans-34"/>
       <use x="63.623047" xlink:href="#DejaVuSans-2e"/>
       <use x="95.410156" xlink:href="#DejaVuSans-39"/>
      </g>
     </g>
    </g>
    <g id="text_11">
     <!-- Energy [MeV] -->
     <defs>
      <path d="M 9.8125 72.90625 
L 55.90625 72.90625 
L 55.90625 64.59375 
L 19.671875 64.59375 
L 19.671875 43.015625 
L 54.390625 43.015625 
L 54.390625 34.71875 
L 19.671875 34.71875 
L 19.671875 8.296875 
L 56.78125 8.296875 
L 56.78125 0 
L 9.8125 0 
z
" id="DejaVuSans-45"/>
      <path d="M 41.109375 46.296875 
Q 39.59375 47.171875 37.8125 47.578125 
Q 36.03125 48 33.890625 48 
Q 26.265625 48 22.1875 43.046875 
Q 18.109375 38.09375 18.109375 28.8125 
L 18.109375 0 
L 9.078125 0 
L 9.078125 54.6875 
L 18.109375 54.6875 
L 18.109375 46.1875 
Q 20.953125 51.171875 25.484375 53.578125 
Q 30.03125 56 36.53125 56 
Q 37.453125 56 38.578125 55.875 
Q 39.703125 55.765625 41.0625 55.515625 
z
" id="DejaVuSans-72"/>
      <path d="M 45.40625 27.984375 
Q 45.40625 37.75 41.375 43.109375 
Q 37.359375 48.484375 30.078125 48.484375 
Q 22.859375 48.484375 18.828125 43.109375 
Q 14.796875 37.75 14.796875 27.984375 
Q 14.796875 18.265625 18.828125 12.890625 
Q 22.859375 7.515625 30.078125 7.515625 
Q 37.359375 7.515625 41.375 12.890625 
Q 45.40625 18.265625 45.40625 27.984375 
z
M 54.390625 6.78125 
Q 54.390625 -7.171875 48.1875 -13.984375 
Q 42 -20.796875 29.203125 -20.796875 
Q 24.46875 -20.796875 20.265625 -20.09375 
Q 16.0625 -19.390625 12.109375 -17.921875 
L 12.109375 -9.1875 
Q 16.0625 -11.328125 19.921875 -12.34375 
Q 23.78125 -13.375 27.78125 -13.375 
Q 36.625 -13.375 41.015625 -8.765625 
Q 45.40625 -4.15625 45.40625 5.171875 
L 45.40625 9.625 
Q 42.625 4.78125 38.28125 2.390625 
Q 33.9375 0 27.875 0 
Q 17.828125 0 11.671875 7.65625 
Q 5.515625 15.328125 5.515625 27.984375 
Q 5.515625 40.671875 11.671875 48.328125 
Q 17.828125 56 27.875 56 
Q 33.9375 56 38.28125 53.609375 
Q 42.625 51.21875 45.40625 46.390625 
L 45.40625 54.6875 
L 54.390625 54.6875 
z
" id="DejaVuSans-67"/>
      <path d="M 8.59375 75.984375 
L 29.296875 75.984375 
L 29.296875 69 
L 17.578125 69 
L 17.578125 -6.203125 
L 29.296875 -6.203125 
L 29.296875 -13.1875 
L 8.59375 -13.1875 
z
" id="DejaVuSans-5b"/>
      <path d="M 9.8125 72.90625 
L 24.515625 72.90625 
L 43.109375 23.296875 
L 61.8125 72.90625 
L 76.515625 72.90625 
L 76.515625 0 
L 66.890625 0 
L 66.890625 64.015625 
L 48.09375 14.015625 
L 38.1875 14.015625 
L 19.390625 64.015625 
L 19.390625 0 
L 9.8125 0 
z
" id="DejaVuSans-4d"/>
      <path d="M 28.609375 0 
L 0.78125 72.90625 
L 11.078125 72.90625 
L 34.1875 11.53125 
L 57.328125 72.90625 
L 67.578125 72.90625 
L 39.796875 0 
z
" id="DejaVuSans-56"/>
      <path d="M 30.421875 75.984375 
L 30.421875 -13.1875 
L 9.71875 -13.1875 
L 9.71875 -6.203125 
L 21.390625 -6.203125 
L 21.390625 69 
L 9.71875 69 
L 9.71875 75.984375 
z
" id="DejaVuSans-5d"/>
     </defs>
     <g transform="translate(475.674562 468.483875)scale(0.12 -0.12)">
      <use xlink:href="#DejaVuSans-45"/>
      <use x="63.183594" xlink:href="#DejaVuSans-6e"/>
      <use x="126.5625" xlink:href="#DejaVuSans-65"/>
      <use x="188.085938" xlink:href="#DejaVuSans-72"/>
      <use x="229.183594" xlink:href="#DejaVuSans-67"/>
      <use x="292.660156" xlink:href="#DejaVuSans-79"/>
      <use x="351.839844" xlink:href="#DejaVuSans-20"/>
      <use x="383.626953" xlink:href="#DejaVuSans-5b"/>
      <use x="422.640625" xlink:href="#DejaVuSans-4d"/>
      <use x="508.919922" xlink:href="#DejaVuSans-65"/>
      <use x="570.443359" xlink:href="#DejaVuSans-56"/>
      <use x="638.851562" xlink:href="#DejaVuSans-5d"/>
     </g>
    </g>
   </g>
   <g id="matplotlib.axis_4">
    <g id="ytick_3">
     <g id="line2d_17">
      <g>
       <use style="stroke:#000000;stroke-width:0.8;" x="147.528" xlink:href="#m00b94a2f1f" y="413.500948"/>
      </g>
     </g>
     <g id="text_12">
      <!-- 100 -->
      <g transform="translate(117.623 418.06001)scale(0.12 -0.12)">
       <use xlink:href="#DejaVuSans-31"/>
       <use x="63.623047" xlink:href="#DejaVuSans-30"/>
       <use x="127.246094" xlink:href="#DejaVuSans-30"/>
      </g>
     </g>
    </g>
    <g id="ytick_4">
     <g id="line2d_18">
      <g>
       <use style="stroke:#000000;stroke-width:0.8;" x="147.528" xlink:href="#m00b94a2f1f" y="351.165688"/>
      </g>
     </g>
     <g id="text_13">
      <!-- 200 -->
      <g transform="translate(117.623 355.72475)scale(0.12 -0.12)">
       <use xlink:href="#DejaVuSans-32"/>
       <use x="63.623047" xlink:href="#DejaVuSans-30"/>
       <use x="127.246094" xlink:href="#DejaVuSans-30"/>
      </g>
     </g>
    </g>
    <g id="ytick_5">
     <g id="line2d_19">
      <g>
       <use style="stroke:#000000;stroke-width:0.8;" x="147.528" xlink:href="#m00b94a2f1f" y="288.830428"/>
      </g>
     </g>
     <g id="text_14">
      <!-- 300 -->
      <g transform="translate(117.623 293.38949)scale(0.12 -0.12)">
       <use xlink:href="#DejaVuSans-33"/>
       <use x="63.623047" xlink:href="#DejaVuSans-30"/>
       <use x="127.246094" xlink:href="#DejaVuSans-30"/>
      </g>
     </g>
    </g>
    <g id="ytick_6">
     <g id="line2d_20">
      <g>
       <use style="stroke:#000000;stroke-width:0.8;" x="147.528" xlink:href="#m00b94a2f1f" y="226.495168"/>
      </g>
     </g>
     <g id="text_15">
      <!-- 400 -->
      <g transform="translate(117.623 231.05423)scale(0.12 -0.12)">
       <use xlink:href="#DejaVuSans-34"/>
       <use x="63.623047" xlink:href="#DejaVuSans-30"/>
       <use x="127.246094" xlink:href="#DejaVuSans-30"/>
      </g>
     </g>
    </g>
    <g id="ytick_7">
     <g id="line2d_21">
      <g>
       <use style="stroke:#000000;stroke-width:0.8;" x="147.528" xlink:href="#m00b94a2f1f" y="164.159908"/>
      </g>
     </g>
     <g id="text_16">
      <!-- 500 -->
      <g transform="translate(117.623 168.71897)scale(0.12 -0.12)">
       <use xlink:href="#DejaVuSans-35"/>
       <use x="63.623047" xlink:href="#DejaVuSans-30"/>
       <use x="127.246094" xlink:href="#DejaVuSans-30"/>
      </g>
     </g>
    </g>
    <g id="text_17">
     <!-- Counts -->
     <defs>
      <path d="M 64.40625 67.28125 
L 64.40625 56.890625 
Q 59.421875 61.53125 53.78125 63.8125 
Q 48.140625 66.109375 41.796875 66.109375 
Q 29.296875 66.109375 22.65625 58.46875 
Q 16.015625 50.828125 16.015625 36.375 
Q 16.015625 21.96875 22.65625 14.328125 
Q 29.296875 6.6875 41.796875 6.6875 
Q 48.140625 6.6875 53.78125 8.984375 
Q 59.421875 11.28125 64.40625 15.921875 
L 64.40625 5.609375 
Q 59.234375 2.09375 53.4375 0.328125 
Q 47.65625 -1.421875 41.21875 -1.421875 
Q 24.65625 -1.421875 15.125 8.703125 
Q 5.609375 18.84375 5.609375 36.375 
Q 5.609375 53.953125 15.125 64.078125 
Q 24.65625 74.21875 41.21875 74.21875 
Q 47.75 74.21875 53.53125 72.484375 
Q 59.328125 70.75 64.40625 67.28125 
z
" id="DejaVuSans-43"/>
     </defs>
     <g transform="translate(111.127375 312.11175)rotate(-90)scale(0.12 -0.12)">
      <use xlink:href="#DejaVuSans-43"/>
      <use x="69.824219" xlink:href="#DejaVuSans-6f"/>
      <use x="131.005859" xlink:href="#DejaVuSans-75"/>
      <use x="194.384766" xlink:href="#DejaVuSans-6e"/>
      <use x="257.763672" xlink:href="#DejaVuSans-74"/>
      <use x="296.972656" xlink:href="#DejaVuSans-73"/>
     </g>
    </g>
   </g>
   <g id="LineCollection_2">
    <path clip-path="url(#pefe0bf5916)" d="M 174.848 428.008619 
L 174.848 416.44715 
" style="fill:none;stroke:#0000ff;stroke-width:1.5;"/>
    <path clip-path="url(#pefe0bf5916)" d="M 183.280099 422.397692 
L 183.280099 410.214377 
" style="fill:none;stroke:#0000ff;stroke-width:1.5;"/>
    <path clip-path="url(#pefe0bf5916)" d="M 191.712198 419.734474 
L 191.712198 407.267422 
" style="fill:none;stroke:#0000ff;stroke-width:1.5;"/>
    <path clip-path="url(#pefe0bf5916)" d="M 200.144296 414.992197 
L 200.144296 402.036057 
" style="fill:none;stroke:#0000ff;stroke-width:1.5;"/>
    <path clip-path="url(#pefe0bf5916)" d="M 208.576395 411.132499 
L 208.576395 397.792171 
" style="fill:none;stroke:#0000ff;stroke-width:1.5;"/>
    <path clip-path="url(#pefe0bf5916)" d="M 217.008494 408.159817 
L 217.008494 394.531327 
" style="fill:none;stroke:#0000ff;stroke-width:1.5;"/>
    <path clip-path="url(#pefe0bf5916)" d="M 225.440593 407.564916 
L 225.440593 393.879523 
" style="fill:none;stroke:#0000ff;stroke-width:1.5;"/>
    <path clip-path="url(#pefe0bf5916)" d="M 233.872691 384.88263 
L 233.872691 369.187012 
" style="fill:none;stroke:#0000ff;stroke-width:1.5;"/>
    <path clip-path="url(#pefe0bf5916)" d="M 242.30479 392.059936 
L 242.30479 376.970168 
" style="fill:none;stroke:#0000ff;stroke-width:1.5;"/>
    <path clip-path="url(#pefe0bf5916)" d="M 250.736889 387.874618 
L 250.736889 372.428549 
" style="fill:none;stroke:#0000ff;stroke-width:1.5;"/>
    <path clip-path="url(#pefe0bf5916)" d="M 259.168988 380.990138 
L 259.168988 364.97592 
" style="fill:none;stroke:#0000ff;stroke-width:1.5;"/>
    <path clip-path="url(#pefe0bf5916)" d="M 267.601086 361.784916 
L 267.601086 344.286575 
" style="fill:none;stroke:#0000ff;stroke-width:1.5;"/>
    <path clip-path="url(#pefe0bf5916)" d="M 276.033185 361.784916 
L 276.033185 344.286575 
" style="fill:none;stroke:#0000ff;stroke-width:1.5;"/>
    <path clip-path="url(#pefe0bf5916)" d="M 284.465284 357.876292 
L 284.465284 340.091615 
" style="fill:none;stroke:#0000ff;stroke-width:1.5;"/>
    <path clip-path="url(#pefe0bf5916)" d="M 292.897383 352.159636 
L 292.897383 333.964572 
" style="fill:none;stroke:#0000ff;stroke-width:1.5;"/>
    <path clip-path="url(#pefe0bf5916)" d="M 301.329481 346.137217 
L 301.329481 327.519939 
" style="fill:none;stroke:#0000ff;stroke-width:1.5;"/>
    <path clip-path="url(#pefe0bf5916)" d="M 309.76158 334.380306 
L 309.76158 314.966099 
" style="fill:none;stroke:#0000ff;stroke-width:1.5;"/>
    <path clip-path="url(#pefe0bf5916)" d="M 318.193679 331.06133 
L 318.193679 311.428196 
" style="fill:none;stroke:#0000ff;stroke-width:1.5;"/>
    <path clip-path="url(#pefe0bf5916)" d="M 326.625778 322.305617 
L 326.625778 302.106684 
" style="fill:none;stroke:#0000ff;stroke-width:1.5;"/>
    <path clip-path="url(#pefe0bf5916)" d="M 335.057877 308.099213 
L 335.057877 287.015515 
" style="fill:none;stroke:#0000ff;stroke-width:1.5;"/>
    <path clip-path="url(#pefe0bf5916)" d="M 343.489975 303.258814 
L 343.489975 281.882273 
" style="fill:none;stroke:#0000ff;stroke-width:1.5;"/>
    <path clip-path="url(#pefe0bf5916)" d="M 351.922074 298.113723 
L 351.922074 276.430369 
" style="fill:none;stroke:#0000ff;stroke-width:1.5;"/>
    <path clip-path="url(#pefe0bf5916)" d="M 360.354173 283.878184 
L 360.354173 261.368336 
" style="fill:none;stroke:#0000ff;stroke-width:1.5;"/>
    <path clip-path="url(#pefe0bf5916)" d="M 368.786272 283.272081 
L 368.786272 260.727734 
" style="fill:none;stroke:#0000ff;stroke-width:1.5;"/>
    <path clip-path="url(#pefe0bf5916)" d="M 377.21837 258.400427 
L 377.21837 234.484475 
" style="fill:none;stroke:#0000ff;stroke-width:1.5;"/>
    <path clip-path="url(#pefe0bf5916)" d="M 385.650469 249.595123 
L 385.650469 225.212553 
" style="fill:none;stroke:#0000ff;stroke-width:1.5;"/>
    <path clip-path="url(#pefe0bf5916)" d="M 394.082568 254.150154 
L 394.082568 230.007811 
" style="fill:none;stroke:#0000ff;stroke-width:1.5;"/>
    <path clip-path="url(#pefe0bf5916)" d="M 402.514667 250.506224 
L 402.514667 226.17151 
" style="fill:none;stroke:#0000ff;stroke-width:1.5;"/>
    <path clip-path="url(#pefe0bf5916)" d="M 410.946765 233.795489 
L 410.946765 208.597852 
" style="fill:none;stroke:#0000ff;stroke-width:1.5;"/>
    <path clip-path="url(#pefe0bf5916)" d="M 419.378864 233.49152 
L 419.378864 208.278468 
" style="fill:none;stroke:#0000ff;stroke-width:1.5;"/>
    <path clip-path="url(#pefe0bf5916)" d="M 427.810963 233.795489 
L 427.810963 208.597852 
" style="fill:none;stroke:#0000ff;stroke-width:1.5;"/>
    <path clip-path="url(#pefe0bf5916)" d="M 436.243062 223.153853 
L 436.243062 197.422147 
" style="fill:none;stroke:#0000ff;stroke-width:1.5;"/>
    <path clip-path="url(#pefe0bf5916)" d="M 444.67516 199.114685 
L 444.67516 172.21646 
" style="fill:none;stroke:#0000ff;stroke-width:1.5;"/>
    <path clip-path="url(#pefe0bf5916)" d="M 453.107259 196.678934 
L 453.107259 169.66539 
" style="fill:none;stroke:#0000ff;stroke-width:1.5;"/>
    <path clip-path="url(#pefe0bf5916)" d="M 461.539358 195.765464 
L 461.539358 168.708802 
" style="fill:none;stroke:#0000ff;stroke-width:1.5;"/>
    <path clip-path="url(#pefe0bf5916)" d="M 469.971457 188.761068 
L 469.971457 161.376088 
" style="fill:none;stroke:#0000ff;stroke-width:1.5;"/>
    <path clip-path="url(#pefe0bf5916)" d="M 478.403556 196.374448 
L 478.403556 169.346523 
" style="fill:none;stroke:#0000ff;stroke-width:1.5;"/>
    <path clip-path="url(#pefe0bf5916)" d="M 486.835654 195.460967 
L 486.835654 168.389947 
" style="fill:none;stroke:#0000ff;stroke-width:1.5;"/>
    <path clip-path="url(#pefe0bf5916)" d="M 495.267753 184.496566 
L 495.267753 156.913654 
" style="fill:none;stroke:#0000ff;stroke-width:1.5;"/>
    <path clip-path="url(#pefe0bf5916)" d="M 503.699852 170.479745 
L 503.699852 142.256255 
" style="fill:none;stroke:#0000ff;stroke-width:1.5;"/>
    <path clip-path="url(#pefe0bf5916)" d="M 512.131951 181.754727 
L 512.131951 154.045319 
" style="fill:none;stroke:#0000ff;stroke-width:1.5;"/>
    <path clip-path="url(#pefe0bf5916)" d="M 520.564049 187.542712 
L 520.564049 160.101034 
" style="fill:none;stroke:#0000ff;stroke-width:1.5;"/>
    <path clip-path="url(#pefe0bf5916)" d="M 528.996148 180.53604 
L 528.996148 152.770596 
" style="fill:none;stroke:#0000ff;stroke-width:1.5;"/>
    <path clip-path="url(#pefe0bf5916)" d="M 537.428247 185.715068 
L 537.428247 158.188562 
" style="fill:none;stroke:#0000ff;stroke-width:1.5;"/>
    <path clip-path="url(#pefe0bf5916)" d="M 545.860346 202.463435 
L 545.860346 175.724588 
" style="fill:none;stroke:#0000ff;stroke-width:1.5;"/>
    <path clip-path="url(#pefe0bf5916)" d="M 554.292444 202.159023 
L 554.292444 175.405647 
" style="fill:none;stroke:#0000ff;stroke-width:1.5;"/>
    <path clip-path="url(#pefe0bf5916)" d="M 562.724543 182.973358 
L 562.724543 155.320099 
" style="fill:none;stroke:#0000ff;stroke-width:1.5;"/>
    <path clip-path="url(#pefe0bf5916)" d="M 571.156642 188.456485 
L 571.156642 161.057319 
" style="fill:none;stroke:#0000ff;stroke-width:1.5;"/>
    <path clip-path="url(#pefe0bf5916)" d="M 579.588741 181.14539 
L 579.588741 153.407951 
" style="fill:none;stroke:#0000ff;stroke-width:1.5;"/>
    <path clip-path="url(#pefe0bf5916)" d="M 588.02084 217.374669 
L 588.02084 191.357631 
" style="fill:none;stroke:#0000ff;stroke-width:1.5;"/>
    <path clip-path="url(#pefe0bf5916)" d="M 596.452938 213.11533 
L 596.452938 186.890034 
" style="fill:none;stroke:#0000ff;stroke-width:1.5;"/>
    <path clip-path="url(#pefe0bf5916)" d="M 604.885037 211.289647 
L 604.885037 184.975601 
" style="fill:none;stroke:#0000ff;stroke-width:1.5;"/>
    <path clip-path="url(#pefe0bf5916)" d="M 613.317136 249.595123 
L 613.317136 225.212553 
" style="fill:none;stroke:#0000ff;stroke-width:1.5;"/>
    <path clip-path="url(#pefe0bf5916)" d="M 621.749235 235.011314 
L 621.749235 209.875437 
" style="fill:none;stroke:#0000ff;stroke-width:1.5;"/>
    <path clip-path="url(#pefe0bf5916)" d="M 630.181333 250.506224 
L 630.181333 226.17151 
" style="fill:none;stroke:#0000ff;stroke-width:1.5;"/>
    <path clip-path="url(#pefe0bf5916)" d="M 638.613432 245.038921 
L 638.613432 220.418466 
" style="fill:none;stroke:#0000ff;stroke-width:1.5;"/>
    <path clip-path="url(#pefe0bf5916)" d="M 647.045531 265.380656 
L 647.045531 241.841356 
" style="fill:none;stroke:#0000ff;stroke-width:1.5;"/>
    <path clip-path="url(#pefe0bf5916)" d="M 655.47763 273.267653 
L 655.47763 250.161526 
" style="fill:none;stroke:#0000ff;stroke-width:1.5;"/>
    <path clip-path="url(#pefe0bf5916)" d="M 663.909728 275.693599 
L 663.909728 252.722401 
" style="fill:none;stroke:#0000ff;stroke-width:1.5;"/>
    <path clip-path="url(#pefe0bf5916)" d="M 672.341827 301.140512 
L 672.341827 279.637106 
" style="fill:none;stroke:#0000ff;stroke-width:1.5;"/>
    <path clip-path="url(#pefe0bf5916)" d="M 680.773926 297.811003 
L 680.773926 276.109737 
" style="fill:none;stroke:#0000ff;stroke-width:1.5;"/>
    <path clip-path="url(#pefe0bf5916)" d="M 689.206025 290.240651 
L 689.206025 268.096274 
" style="fill:none;stroke:#0000ff;stroke-width:1.5;"/>
    <path clip-path="url(#pefe0bf5916)" d="M 697.638123 307.494274 
L 697.638123 286.373749 
" style="fill:none;stroke:#0000ff;stroke-width:1.5;"/>
    <path clip-path="url(#pefe0bf5916)" d="M 706.070222 306.889303 
L 706.070222 285.732015 
" style="fill:none;stroke:#0000ff;stroke-width:1.5;"/>
    <path clip-path="url(#pefe0bf5916)" d="M 714.502321 349.149032 
L 714.502321 330.74165 
" style="fill:none;stroke:#0000ff;stroke-width:1.5;"/>
    <path clip-path="url(#pefe0bf5916)" d="M 722.93442 338.301119 
L 722.93442 319.14887 
" style="fill:none;stroke:#0000ff;stroke-width:1.5;"/>
    <path clip-path="url(#pefe0bf5916)" d="M 731.366519 331.363105 
L 731.366519 311.749773 
" style="fill:none;stroke:#0000ff;stroke-width:1.5;"/>
    <path clip-path="url(#pefe0bf5916)" d="M 739.798617 344.329565 
L 739.798617 325.587476 
" style="fill:none;stroke:#0000ff;stroke-width:1.5;"/>
    <path clip-path="url(#pefe0bf5916)" d="M 748.230716 355.46985 
L 748.230716 337.511236 
" style="fill:none;stroke:#0000ff;stroke-width:1.5;"/>
    <path clip-path="url(#pefe0bf5916)" d="M 756.662815 355.46985 
L 756.662815 337.511236 
" style="fill:none;stroke:#0000ff;stroke-width:1.5;"/>
    <path clip-path="url(#pefe0bf5916)" d="M 765.094914 364.189047 
L 765.094914 346.869265 
" style="fill:none;stroke:#0000ff;stroke-width:1.5;"/>
    <path clip-path="url(#pefe0bf5916)" d="M 773.527012 384.283995 
L 773.527012 368.538942 
" style="fill:none;stroke:#0000ff;stroke-width:1.5;"/>
    <path clip-path="url(#pefe0bf5916)" d="M 781.959111 387.57551 
L 781.959111 372.104305 
" style="fill:none;stroke:#0000ff;stroke-width:1.5;"/>
    <path clip-path="url(#pefe0bf5916)" d="M 790.39121 388.173706 
L 790.39121 372.752814 
" style="fill:none;stroke:#0000ff;stroke-width:1.5;"/>
    <path clip-path="url(#pefe0bf5916)" d="M 798.823309 400.715441 
L 798.823309 386.391889 
" style="fill:none;stroke:#0000ff;stroke-width:1.5;"/>
    <path clip-path="url(#pefe0bf5916)" d="M 807.255407 398.031407 
L 807.255407 383.465749 
" style="fill:none;stroke:#0000ff;stroke-width:1.5;"/>
    <path clip-path="url(#pefe0bf5916)" d="M 815.687506 409.646543 
L 815.687506 396.161364 
" style="fill:none;stroke:#0000ff;stroke-width:1.5;"/>
    <path clip-path="url(#pefe0bf5916)" d="M 824.119605 418.253531 
L 824.119605 405.631602 
" style="fill:none;stroke:#0000ff;stroke-width:1.5;"/>
    <path clip-path="url(#pefe0bf5916)" d="M 832.551704 410.241019 
L 832.551704 396.813593 
" style="fill:none;stroke:#0000ff;stroke-width:1.5;"/>
    <path clip-path="url(#pefe0bf5916)" d="M 840.983802 418.549795 
L 840.983802 405.95869 
" style="fill:none;stroke:#0000ff;stroke-width:1.5;"/>
    <path clip-path="url(#pefe0bf5916)" d="M 849.415901 428.893012 
L 849.415901 417.432814 
" style="fill:none;stroke:#0000ff;stroke-width:1.5;"/>
    <path clip-path="url(#pefe0bf5916)" d="M 857.848 431.543435 
L 857.848 420.392565 
" style="fill:none;stroke:#0000ff;stroke-width:1.5;"/>
   </g>
   <g id="line2d_22">
    <path clip-path="url(#pefe0bf5916)" d="M 174.848 465.655036 
L 181.001153 463.925863 
L 187.154306 461.955421 
L 192.623776 459.982093 
L 198.093245 457.782075 
L 203.562715 455.337902 
L 209.032184 452.632037 
L 214.501654 449.64709 
L 219.287439 446.792943 
L 224.073225 443.701094 
L 228.859011 440.361071 
L 233.644797 436.763082 
L 238.430583 432.898182 
L 243.216368 428.758444 
L 248.002154 424.337134 
L 252.78794 419.628892 
L 257.573726 414.62991 
L 262.359512 409.338111 
L 267.828981 402.931663 
L 273.29845 396.145678 
L 278.76792 388.987061 
L 284.237389 381.466823 
L 290.390543 372.593587 
L 296.543696 363.310925 
L 303.380533 352.560906 
L 310.901053 340.276484 
L 319.105257 326.437421 
L 330.72788 306.335112 
L 349.187339 274.350146 
L 357.391544 260.616503 
L 364.22838 249.620164 
L 369.69785 241.207274 
L 375.167319 233.205114 
L 379.953105 226.589261 
L 384.738891 220.376109 
L 388.840993 215.400451 
L 392.943095 210.772249 
L 397.045197 206.513308 
L 400.463616 203.260962 
L 403.882034 200.29005 
L 407.300452 197.610586 
L 410.718871 195.231665 
L 414.137289 193.161411 
L 416.872024 191.73226 
L 419.606759 190.50838 
L 422.341493 189.492481 
L 425.076228 188.686818 
L 427.810963 188.093183 
L 430.545698 187.7129 
L 433.280432 187.546816 
L 436.015167 187.595303 
L 438.749902 187.858252 
L 441.484637 188.335076 
L 444.219371 189.024712 
L 446.954106 189.925625 
L 449.688841 191.035811 
L 452.423576 192.35281 
L 455.15831 193.873708 
L 458.576729 196.056419 
L 461.995147 198.544975 
L 465.413566 201.330895 
L 468.831984 204.404747 
L 472.250402 207.756198 
L 476.352505 212.128587 
L 480.454607 216.863818 
L 484.556709 221.939668 
L 489.342494 228.260584 
L 494.12828 234.973913 
L 499.59775 243.074394 
L 505.067219 251.571274 
L 511.220372 261.524277 
L 518.740893 274.126223 
L 528.996148 291.802459 
L 551.55771 330.8698 
L 559.761914 344.577626 
L 567.282434 356.704663 
L 574.119271 367.285809 
L 580.272424 376.39924 
L 586.425578 385.090201 
L 591.895047 392.439974 
L 597.364517 399.422357 
L 602.833986 406.028327 
L 608.303455 412.252836 
L 613.089241 417.385217 
L 617.875027 422.225686 
L 622.660813 426.777283 
L 627.446599 431.044681 
L 632.232384 435.034012 
L 637.01817 438.75268 
L 641.803956 442.209187 
L 646.589742 445.41296 
L 651.375528 448.374181 
L 656.161313 451.103626 
L 661.630783 453.953598 
L 667.100252 456.532731 
L 672.569722 458.858516 
L 678.039191 460.948477 
L 683.508661 462.819981 
L 689.661814 464.685488 
L 695.814967 466.319563 
L 702.651804 467.891122 
L 709.488641 469.233948 
L 717.009161 470.479327 
L 725.213365 471.5989 
L 734.101253 472.574093 
L 743.672825 473.396424 
L 754.611764 474.105066 
L 766.91807 474.676087 
L 781.959111 475.139335 
L 800.418571 475.47469 
L 825.714867 475.697015 
L 857.848 475.798435 
L 857.848 475.798435 
" style="fill:none;stroke:#404040;stroke-linecap:square;stroke-width:1.5;"/>
   </g>
   <g id="line2d_23">
    <path clip-path="url(#pefe0bf5916)" d="M 174.848 421.927631 
L 182.368521 418.637519 
L 189.889041 415.111092 
L 197.409562 411.341156 
L 204.930082 407.321424 
L 212.450603 403.046656 
L 219.971123 398.512791 
L 227.491644 393.717095 
L 235.012164 388.658295 
L 242.532685 383.336713 
L 250.053205 377.75439 
L 258.257409 371.371826 
L 266.461614 364.691314 
L 274.665818 357.723454 
L 283.553706 349.866561 
L 292.441594 341.709954 
L 302.013165 332.620483 
L 312.26842 322.572691 
L 323.891043 310.866161 
L 338.2484 296.068598 
L 380.636789 252.127938 
L 391.575728 241.248229 
L 400.463616 232.702623 
L 408.66782 225.105431 
L 416.18834 218.428654 
L 423.025177 212.628633 
L 429.862014 207.112828 
L 436.015167 202.412735 
L 442.16832 197.981449 
L 448.321473 193.836064 
L 453.790943 190.404395 
L 459.260412 187.222117 
L 464.729882 184.299232 
L 470.199351 181.645002 
L 474.985137 179.549609 
L 479.770923 177.671553 
L 484.556709 176.015471 
L 489.342494 174.585472 
L 494.12828 173.385116 
L 498.914066 172.417401 
L 503.699852 171.684752 
L 508.485638 171.189005 
L 513.271423 170.931406 
L 518.057209 170.912605 
L 522.842995 171.132647 
L 527.628781 171.590979 
L 532.414567 172.28645 
L 537.200352 173.217314 
L 541.986138 174.38124 
L 546.771924 175.775318 
L 551.55771 177.396075 
L 556.343495 179.23949 
L 561.129281 181.301005 
L 566.598751 183.917555 
L 572.06822 186.803975 
L 577.53769 189.951109 
L 583.007159 193.349053 
L 588.476629 196.987204 
L 594.629782 201.353223 
L 600.782935 205.992117 
L 607.619772 211.444908 
L 614.456609 217.18736 
L 621.977129 223.807292 
L 630.181333 231.350393 
L 639.069221 239.846863 
L 648.640793 249.306393 
L 660.263415 261.117284 
L 676.671824 278.151971 
L 705.386539 308.000278 
L 718.376529 321.142223 
L 729.315467 331.892796 
L 738.887039 341.00572 
L 748.458611 349.803874 
L 757.346498 357.663201 
L 765.550703 364.633442 
L 773.754907 371.316439 
L 781.959111 377.701565 
L 789.479632 383.286283 
L 797.000152 388.610289 
L 804.520673 393.671523 
L 812.041193 398.469648 
L 819.561714 403.005923 
L 827.082234 407.283071 
L 834.602755 411.305139 
L 842.123275 415.077357 
L 849.643796 418.606005 
L 857.164316 421.898266 
L 857.848 422.186111 
L 857.848 422.186111 
" style="fill:none;stroke:#ff0000;stroke-linecap:square;stroke-width:1.5;"/>
   </g>
   <g id="line2d_24">
    <g clip-path="url(#pefe0bf5916)">
     <use style="fill:#0000ff;stroke:#0000ff;" x="174.848" xlink:href="#mb84756ef1f" y="422.227884"/>
     <use style="fill:#0000ff;stroke:#0000ff;" x="183.280099" xlink:href="#mb84756ef1f" y="416.306035"/>
     <use style="fill:#0000ff;stroke:#0000ff;" x="191.712198" xlink:href="#mb84756ef1f" y="413.500948"/>
     <use style="fill:#0000ff;stroke:#0000ff;" x="200.144296" xlink:href="#mb84756ef1f" y="408.514127"/>
     <use style="fill:#0000ff;stroke:#0000ff;" x="208.576395" xlink:href="#mb84756ef1f" y="404.462335"/>
     <use style="fill:#0000ff;stroke:#0000ff;" x="217.008494" xlink:href="#mb84756ef1f" y="401.345572"/>
     <use style="fill:#0000ff;stroke:#0000ff;" x="225.440593" xlink:href="#mb84756ef1f" y="400.72222"/>
     <use style="fill:#0000ff;stroke:#0000ff;" x="233.872691" xlink:href="#mb84756ef1f" y="377.034821"/>
     <use style="fill:#0000ff;stroke:#0000ff;" x="242.30479" xlink:href="#mb84756ef1f" y="384.515052"/>
     <use style="fill:#0000ff;stroke:#0000ff;" x="250.736889" xlink:href="#mb84756ef1f" y="380.151584"/>
     <use style="fill:#0000ff;stroke:#0000ff;" x="259.168988" xlink:href="#mb84756ef1f" y="372.983029"/>
     <use style="fill:#0000ff;stroke:#0000ff;" x="267.601086" xlink:href="#mb84756ef1f" y="353.035746"/>
     <use style="fill:#0000ff;stroke:#0000ff;" x="276.033185" xlink:href="#mb84756ef1f" y="353.035746"/>
     <use style="fill:#0000ff;stroke:#0000ff;" x="284.465284" xlink:href="#mb84756ef1f" y="348.983954"/>
     <use style="fill:#0000ff;stroke:#0000ff;" x="292.897383" xlink:href="#mb84756ef1f" y="343.062104"/>
     <use style="fill:#0000ff;stroke:#0000ff;" x="301.329481" xlink:href="#mb84756ef1f" y="336.828578"/>
     <use style="fill:#0000ff;stroke:#0000ff;" x="309.76158" xlink:href="#mb84756ef1f" y="324.673202"/>
     <use style="fill:#0000ff;stroke:#0000ff;" x="318.193679" xlink:href="#mb84756ef1f" y="321.244763"/>
     <use style="fill:#0000ff;stroke:#0000ff;" x="326.625778" xlink:href="#mb84756ef1f" y="312.20615"/>
     <use style="fill:#0000ff;stroke:#0000ff;" x="335.057877" xlink:href="#mb84756ef1f" y="297.557364"/>
     <use style="fill:#0000ff;stroke:#0000ff;" x="343.489975" xlink:href="#mb84756ef1f" y="292.570543"/>
     <use style="fill:#0000ff;stroke:#0000ff;" x="351.922074" xlink:href="#mb84756ef1f" y="287.272046"/>
     <use style="fill:#0000ff;stroke:#0000ff;" x="360.354173" xlink:href="#mb84756ef1f" y="272.62326"/>
     <use style="fill:#0000ff;stroke:#0000ff;" x="368.786272" xlink:href="#mb84756ef1f" y="271.999908"/>
     <use style="fill:#0000ff;stroke:#0000ff;" x="377.21837" xlink:href="#mb84756ef1f" y="246.442451"/>
     <use style="fill:#0000ff;stroke:#0000ff;" x="385.650469" xlink:href="#mb84756ef1f" y="237.403838"/>
     <use style="fill:#0000ff;stroke:#0000ff;" x="394.082568" xlink:href="#mb84756ef1f" y="242.078983"/>
     <use style="fill:#0000ff;stroke:#0000ff;" x="402.514667" xlink:href="#mb84756ef1f" y="238.338867"/>
     <use style="fill:#0000ff;stroke:#0000ff;" x="410.946765" xlink:href="#mb84756ef1f" y="221.196671"/>
     <use style="fill:#0000ff;stroke:#0000ff;" x="419.378864" xlink:href="#mb84756ef1f" y="220.884994"/>
     <use style="fill:#0000ff;stroke:#0000ff;" x="427.810963" xlink:href="#mb84756ef1f" y="221.196671"/>
     <use style="fill:#0000ff;stroke:#0000ff;" x="436.243062" xlink:href="#mb84756ef1f" y="210.288"/>
     <use style="fill:#0000ff;stroke:#0000ff;" x="444.67516" xlink:href="#mb84756ef1f" y="185.665572"/>
     <use style="fill:#0000ff;stroke:#0000ff;" x="453.107259" xlink:href="#mb84756ef1f" y="183.172162"/>
     <use style="fill:#0000ff;stroke:#0000ff;" x="461.539358" xlink:href="#mb84756ef1f" y="182.237133"/>
     <use style="fill:#0000ff;stroke:#0000ff;" x="469.971457" xlink:href="#mb84756ef1f" y="175.068578"/>
     <use style="fill:#0000ff;stroke:#0000ff;" x="478.403556" xlink:href="#mb84756ef1f" y="182.860486"/>
     <use style="fill:#0000ff;stroke:#0000ff;" x="486.835654" xlink:href="#mb84756ef1f" y="181.925457"/>
     <use style="fill:#0000ff;stroke:#0000ff;" x="495.267753" xlink:href="#mb84756ef1f" y="170.70511"/>
     <use style="fill:#0000ff;stroke:#0000ff;" x="503.699852" xlink:href="#mb84756ef1f" y="156.368"/>
     <use style="fill:#0000ff;stroke:#0000ff;" x="512.131951" xlink:href="#mb84756ef1f" y="167.900023"/>
     <use style="fill:#0000ff;stroke:#0000ff;" x="520.564049" xlink:href="#mb84756ef1f" y="173.821873"/>
     <use style="fill:#0000ff;stroke:#0000ff;" x="528.996148" xlink:href="#mb84756ef1f" y="166.653318"/>
     <use style="fill:#0000ff;stroke:#0000ff;" x="537.428247" xlink:href="#mb84756ef1f" y="171.951815"/>
     <use style="fill:#0000ff;stroke:#0000ff;" x="545.860346" xlink:href="#mb84756ef1f" y="189.094012"/>
     <use style="fill:#0000ff;stroke:#0000ff;" x="554.292444" xlink:href="#mb84756ef1f" y="188.782335"/>
     <use style="fill:#0000ff;stroke:#0000ff;" x="562.724543" xlink:href="#mb84756ef1f" y="169.146728"/>
     <use style="fill:#0000ff;stroke:#0000ff;" x="571.156642" xlink:href="#mb84756ef1f" y="174.756902"/>
     <use style="fill:#0000ff;stroke:#0000ff;" x="579.588741" xlink:href="#mb84756ef1f" y="167.276671"/>
     <use style="fill:#0000ff;stroke:#0000ff;" x="588.02084" xlink:href="#mb84756ef1f" y="204.36615"/>
     <use style="fill:#0000ff;stroke:#0000ff;" x="596.452938" xlink:href="#mb84756ef1f" y="200.002682"/>
     <use style="fill:#0000ff;stroke:#0000ff;" x="604.885037" xlink:href="#mb84756ef1f" y="198.132624"/>
     <use style="fill:#0000ff;stroke:#0000ff;" x="613.317136" xlink:href="#mb84756ef1f" y="237.403838"/>
     <use style="fill:#0000ff;stroke:#0000ff;" x="621.749235" xlink:href="#mb84756ef1f" y="222.443376"/>
     <use style="fill:#0000ff;stroke:#0000ff;" x="630.181333" xlink:href="#mb84756ef1f" y="238.338867"/>
     <use style="fill:#0000ff;stroke:#0000ff;" x="638.613432" xlink:href="#mb84756ef1f" y="232.728694"/>
     <use style="fill:#0000ff;stroke:#0000ff;" x="647.045531" xlink:href="#mb84756ef1f" y="253.611006"/>
     <use style="fill:#0000ff;stroke:#0000ff;" x="655.47763" xlink:href="#mb84756ef1f" y="261.71459"/>
     <use style="fill:#0000ff;stroke:#0000ff;" x="663.909728" xlink:href="#mb84756ef1f" y="264.208"/>
     <use style="fill:#0000ff;stroke:#0000ff;" x="672.341827" xlink:href="#mb84756ef1f" y="290.388809"/>
     <use style="fill:#0000ff;stroke:#0000ff;" x="680.773926" xlink:href="#mb84756ef1f" y="286.96037"/>
     <use style="fill:#0000ff;stroke:#0000ff;" x="689.206025" xlink:href="#mb84756ef1f" y="279.168462"/>
     <use style="fill:#0000ff;stroke:#0000ff;" x="697.638123" xlink:href="#mb84756ef1f" y="296.934012"/>
     <use style="fill:#0000ff;stroke:#0000ff;" x="706.070222" xlink:href="#mb84756ef1f" y="296.310659"/>
     <use style="fill:#0000ff;stroke:#0000ff;" x="714.502321" xlink:href="#mb84756ef1f" y="339.945341"/>
     <use style="fill:#0000ff;stroke:#0000ff;" x="722.93442" xlink:href="#mb84756ef1f" y="328.724994"/>
     <use style="fill:#0000ff;stroke:#0000ff;" x="731.366519" xlink:href="#mb84756ef1f" y="321.556439"/>
     <use style="fill:#0000ff;stroke:#0000ff;" x="739.798617" xlink:href="#mb84756ef1f" y="334.95852"/>
     <use style="fill:#0000ff;stroke:#0000ff;" x="748.230716" xlink:href="#mb84756ef1f" y="346.490543"/>
     <use style="fill:#0000ff;stroke:#0000ff;" x="756.662815" xlink:href="#mb84756ef1f" y="346.490543"/>
     <use style="fill:#0000ff;stroke:#0000ff;" x="765.094914" xlink:href="#mb84756ef1f" y="355.529156"/>
     <use style="fill:#0000ff;stroke:#0000ff;" x="773.527012" xlink:href="#mb84756ef1f" y="376.411468"/>
     <use style="fill:#0000ff;stroke:#0000ff;" x="781.959111" xlink:href="#mb84756ef1f" y="379.839908"/>
     <use style="fill:#0000ff;stroke:#0000ff;" x="790.39121" xlink:href="#mb84756ef1f" y="380.46326"/>
     <use style="fill:#0000ff;stroke:#0000ff;" x="798.823309" xlink:href="#mb84756ef1f" y="393.553665"/>
     <use style="fill:#0000ff;stroke:#0000ff;" x="807.255407" xlink:href="#mb84756ef1f" y="390.748578"/>
     <use style="fill:#0000ff;stroke:#0000ff;" x="815.687506" xlink:href="#mb84756ef1f" y="402.903954"/>
     <use style="fill:#0000ff;stroke:#0000ff;" x="824.119605" xlink:href="#mb84756ef1f" y="411.942566"/>
     <use style="fill:#0000ff;stroke:#0000ff;" x="832.551704" xlink:href="#mb84756ef1f" y="403.527306"/>
     <use style="fill:#0000ff;stroke:#0000ff;" x="840.983802" xlink:href="#mb84756ef1f" y="412.254243"/>
     <use style="fill:#0000ff;stroke:#0000ff;" x="849.415901" xlink:href="#mb84756ef1f" y="423.162913"/>
     <use style="fill:#0000ff;stroke:#0000ff;" x="857.848" xlink:href="#mb84756ef1f" y="425.968"/>
    </g>
   </g>
   <g id="patch_8">
    <path d="M 147.528 436.752 
L 147.528 145.584 
" style="fill:none;stroke:#000000;stroke-linecap:square;stroke-linejoin:miter;stroke-width:0.8;"/>
   </g>
   <g id="patch_9">
    <path d="M 885.168 436.752 
L 885.168 145.584 
" style="fill:none;stroke:#000000;stroke-linecap:square;stroke-linejoin:miter;stroke-width:0.8;"/>
   </g>
   <g id="patch_10">
    <path d="M 147.528 436.752 
L 885.168 436.752 
" style="fill:none;stroke:#000000;stroke-linecap:square;stroke-linejoin:miter;stroke-width:0.8;"/>
   </g>
   <g id="patch_11">
    <path d="M 147.528 145.584 
L 885.168 145.584 
" style="fill:none;stroke:#000000;stroke-linecap:square;stroke-linejoin:miter;stroke-width:0.8;"/>
   </g>
  </g>
 </g>
 <defs>
  <clipPath id="p6f018f8d32">
   <rect height="72.792" width="737.64" x="147.528" y="63.0864"/>
  </clipPath>
  <clipPath id="pefe0bf5916">
   <rect height="291.168" width="737.64" x="147.528" y="145.584"/>
  </clipPath>
 </defs>
</svg>
