<?xml version="1.0" encoding="utf-8" standalone="no"?>
<!DOCTYPE svg PUBLIC "-//W3C//DTD SVG 1.1//EN"
  "http://www.w3.org/Graphics/SVG/1.1/DTD/svg11.dtd">
<!-- Created with matplotlib (http://matplotlib.org/) -->
<svg height="485pt" version="1.1" viewBox="0 0 983 485" width="983pt" xmlns="http://www.w3.org/2000/svg" xmlns:xlink="http://www.w3.org/1999/xlink">
 <defs>
  <style type="text/css">
*{stroke-linecap:butt;stroke-linejoin:round;}
  </style>
 </defs>
 <g id="figure_1">
  <g id="patch_1">
   <path d="M 0 485.28 
L 983.52 485.28 
L 983.52 0 
L 0 0 
z
" style="fill:#ffffff;"/>
  </g>
  <g id="axes_1">
   <g id="patch_2">
    <path d="M 147.528 135.8784 
L 885.168 135.8784 
L 885.168 63.0864 
L 147.528 63.0864 
z
" style="fill:#ffffff;"/>
   </g>
   <g id="matplotlib.axis_1">
    <g id="xtick_1">
     <g id="line2d_1">
      <defs>
       <path d="M 0 0 
L 0 3.5 
" id="md3d8e25504" style="stroke:#000000;stroke-width:0.8;"/>
      </defs>
      <g>
       <use style="stroke:#000000;stroke-width:0.8;" x="169.867597" xlink:href="#md3d8e25504" y="135.8784"/>
      </g>
     </g>
    </g>
    <g id="xtick_2">
     <g id="line2d_2">
      <g>
       <use style="stroke:#000000;stroke-width:0.8;" x="311.612395" xlink:href="#md3d8e25504" y="135.8784"/>
      </g>
     </g>
    </g>
    <g id="xtick_3">
     <g id="line2d_3">
      <g>
       <use style="stroke:#000000;stroke-width:0.8;" x="453.357192" xlink:href="#md3d8e25504" y="135.8784"/>
      </g>
     </g>
    </g>
    <g id="xtick_4">
     <g id="line2d_4">
      <g>
       <use style="stroke:#000000;stroke-width:0.8;" x="595.101989" xlink:href="#md3d8e25504" y="135.8784"/>
      </g>
     </g>
    </g>
    <g id="xtick_5">
     <g id="line2d_5">
      <g>
       <use style="stroke:#000000;stroke-width:0.8;" x="736.846787" xlink:href="#md3d8e25504" y="135.8784"/>
      </g>
     </g>
    </g>
    <g id="xtick_6">
     <g id="line2d_6">
      <g>
       <use style="stroke:#000000;stroke-width:0.8;" x="878.591584" xlink:href="#md3d8e25504" y="135.8784"/>
      </g>
     </g>
    </g>
   </g>
   <g id="matplotlib.axis_2">
    <g id="ytick_1">
     <g id="line2d_7">
      <defs>
       <path d="M 0 0 
L -3.5 0 
" id="me629474ffd" style="stroke:#000000;stroke-width:0.8;"/>
      </defs>
      <g>
       <use style="stroke:#000000;stroke-width:0.8;" x="147.528" xlink:href="#me629474ffd" y="118.471555"/>
      </g>
     </g>
     <g id="text_1">
      <!-- −1 -->
      <defs>
       <path d="M 10.59375 35.5 
L 73.1875 35.5 
L 73.1875 27.203125 
L 10.59375 27.203125 
z
" id="DejaVuSans-2212"/>
       <path d="M 12.40625 8.296875 
L 28.515625 8.296875 
L 28.515625 63.921875 
L 10.984375 60.40625 
L 10.984375 69.390625 
L 28.421875 72.90625 
L 38.28125 72.90625 
L 38.28125 8.296875 
L 54.390625 8.296875 
L 54.390625 0 
L 12.40625 0 
z
" id="DejaVuSans-31"/>
      </defs>
      <g transform="translate(122.837375 123.030617)scale(0.12 -0.12)">
       <use xlink:href="#DejaVuSans-2212"/>
       <use x="83.789062" xlink:href="#DejaVuSans-31"/>
      </g>
     </g>
    </g>
    <g id="ytick_2">
     <g id="line2d_8">
      <g>
       <use style="stroke:#000000;stroke-width:0.8;" x="147.528" xlink:href="#me629474ffd" y="95.860143"/>
      </g>
     </g>
    </g>
    <g id="ytick_3">
     <g id="line2d_9">
      <g>
       <use style="stroke:#000000;stroke-width:0.8;" x="147.528" xlink:href="#me629474ffd" y="73.248732"/>
      </g>
     </g>
     <g id="text_2">
      <!-- 1 -->
      <g transform="translate(132.893 77.807794)scale(0.12 -0.12)">
       <use xlink:href="#DejaVuSans-31"/>
      </g>
     </g>
    </g>
    <g id="text_3">
     <!-- Studentized -->
     <defs>
      <path d="M 53.515625 70.515625 
L 53.515625 60.890625 
Q 47.90625 63.578125 42.921875 64.890625 
Q 37.9375 66.21875 33.296875 66.21875 
Q 25.25 66.21875 20.875 63.09375 
Q 16.5 59.96875 16.5 54.203125 
Q 16.5 49.359375 19.40625 46.890625 
Q 22.3125 44.4375 30.421875 42.921875 
L 36.375 41.703125 
Q 47.40625 39.59375 52.65625 34.296875 
Q 57.90625 29 57.90625 20.125 
Q 57.90625 9.515625 50.796875 4.046875 
Q 43.703125 -1.421875 29.984375 -1.421875 
Q 24.8125 -1.421875 18.96875 -0.25 
Q 13.140625 0.921875 6.890625 3.21875 
L 6.890625 13.375 
Q 12.890625 10.015625 18.65625 8.296875 
Q 24.421875 6.59375 29.984375 6.59375 
Q 38.421875 6.59375 43.015625 9.90625 
Q 47.609375 13.234375 47.609375 19.390625 
Q 47.609375 24.75 44.3125 27.78125 
Q 41.015625 30.8125 33.5 32.328125 
L 27.484375 33.5 
Q 16.453125 35.6875 11.515625 40.375 
Q 6.59375 45.0625 6.59375 53.421875 
Q 6.59375 63.09375 13.40625 68.65625 
Q 20.21875 74.21875 32.171875 74.21875 
Q 37.3125 74.21875 42.625 73.28125 
Q 47.953125 72.359375 53.515625 70.515625 
z
" id="DejaVuSans-53"/>
      <path d="M 18.3125 70.21875 
L 18.3125 54.6875 
L 36.8125 54.6875 
L 36.8125 47.703125 
L 18.3125 47.703125 
L 18.3125 18.015625 
Q 18.3125 11.328125 20.140625 9.421875 
Q 21.96875 7.515625 27.59375 7.515625 
L 36.8125 7.515625 
L 36.8125 0 
L 27.59375 0 
Q 17.1875 0 13.234375 3.875 
Q 9.28125 7.765625 9.28125 18.015625 
L 9.28125 47.703125 
L 2.6875 47.703125 
L 2.6875 54.6875 
L 9.28125 54.6875 
L 9.28125 70.21875 
z
" id="DejaVuSans-74"/>
      <path d="M 8.5 21.578125 
L 8.5 54.6875 
L 17.484375 54.6875 
L 17.484375 21.921875 
Q 17.484375 14.15625 20.5 10.265625 
Q 23.53125 6.390625 29.59375 6.390625 
Q 36.859375 6.390625 41.078125 11.03125 
Q 45.3125 15.671875 45.3125 23.6875 
L 45.3125 54.6875 
L 54.296875 54.6875 
L 54.296875 0 
L 45.3125 0 
L 45.3125 8.40625 
Q 42.046875 3.421875 37.71875 1 
Q 33.40625 -1.421875 27.6875 -1.421875 
Q 18.265625 -1.421875 13.375 4.4375 
Q 8.5 10.296875 8.5 21.578125 
z
M 31.109375 56 
z
" id="DejaVuSans-75"/>
      <path d="M 45.40625 46.390625 
L 45.40625 75.984375 
L 54.390625 75.984375 
L 54.390625 0 
L 45.40625 0 
L 45.40625 8.203125 
Q 42.578125 3.328125 38.25 0.953125 
Q 33.9375 -1.421875 27.875 -1.421875 
Q 17.96875 -1.421875 11.734375 6.484375 
Q 5.515625 14.40625 5.515625 27.296875 
Q 5.515625 40.1875 11.734375 48.09375 
Q 17.96875 56 27.875 56 
Q 33.9375 56 38.25 53.625 
Q 42.578125 51.265625 45.40625 46.390625 
z
M 14.796875 27.296875 
Q 14.796875 17.390625 18.875 11.75 
Q 22.953125 6.109375 30.078125 6.109375 
Q 37.203125 6.109375 41.296875 11.75 
Q 45.40625 17.390625 45.40625 27.296875 
Q 45.40625 37.203125 41.296875 42.84375 
Q 37.203125 48.484375 30.078125 48.484375 
Q 22.953125 48.484375 18.875 42.84375 
Q 14.796875 37.203125 14.796875 27.296875 
z
" id="DejaVuSans-64"/>
      <path d="M 56.203125 29.59375 
L 56.203125 25.203125 
L 14.890625 25.203125 
Q 15.484375 15.921875 20.484375 11.0625 
Q 25.484375 6.203125 34.421875 6.203125 
Q 39.59375 6.203125 44.453125 7.46875 
Q 49.3125 8.734375 54.109375 11.28125 
L 54.109375 2.78125 
Q 49.265625 0.734375 44.1875 -0.34375 
Q 39.109375 -1.421875 33.890625 -1.421875 
Q 20.796875 -1.421875 13.15625 6.1875 
Q 5.515625 13.8125 5.515625 26.8125 
Q 5.515625 40.234375 12.765625 48.109375 
Q 20.015625 56 32.328125 56 
Q 43.359375 56 49.78125 48.890625 
Q 56.203125 41.796875 56.203125 29.59375 
z
M 47.21875 32.234375 
Q 47.125 39.59375 43.09375 43.984375 
Q 39.0625 48.390625 32.421875 48.390625 
Q 24.90625 48.390625 20.390625 44.140625 
Q 15.875 39.890625 15.1875 32.171875 
z
" id="DejaVuSans-65"/>
      <path d="M 54.890625 33.015625 
L 54.890625 0 
L 45.90625 0 
L 45.90625 32.71875 
Q 45.90625 40.484375 42.875 44.328125 
Q 39.84375 48.1875 33.796875 48.1875 
Q 26.515625 48.1875 22.3125 43.546875 
Q 18.109375 38.921875 18.109375 30.90625 
L 18.109375 0 
L 9.078125 0 
L 9.078125 54.6875 
L 18.109375 54.6875 
L 18.109375 46.1875 
Q 21.34375 51.125 25.703125 53.5625 
Q 30.078125 56 35.796875 56 
Q 45.21875 56 50.046875 50.171875 
Q 54.890625 44.34375 54.890625 33.015625 
z
" id="DejaVuSans-6e"/>
      <path d="M 9.421875 54.6875 
L 18.40625 54.6875 
L 18.40625 0 
L 9.421875 0 
z
M 9.421875 75.984375 
L 18.40625 75.984375 
L 18.40625 64.59375 
L 9.421875 64.59375 
z
" id="DejaVuSans-69"/>
      <path d="M 5.515625 54.6875 
L 48.1875 54.6875 
L 48.1875 46.484375 
L 14.40625 7.171875 
L 48.1875 7.171875 
L 48.1875 0 
L 4.296875 0 
L 4.296875 8.203125 
L 38.09375 47.515625 
L 5.515625 47.515625 
z
" id="DejaVuSans-7a"/>
     </defs>
     <g transform="translate(102.904375 135.41865)rotate(-90)scale(0.12 -0.12)">
      <use xlink:href="#DejaVuSans-53"/>
      <use x="63.476562" xlink:href="#DejaVuSans-74"/>
      <use x="102.685547" xlink:href="#DejaVuSans-75"/>
      <use x="166.064453" xlink:href="#DejaVuSans-64"/>
      <use x="229.541016" xlink:href="#DejaVuSans-65"/>
      <use x="291.064453" xlink:href="#DejaVuSans-6e"/>
      <use x="354.443359" xlink:href="#DejaVuSans-74"/>
      <use x="393.652344" xlink:href="#DejaVuSans-69"/>
      <use x="421.435547" xlink:href="#DejaVuSans-7a"/>
      <use x="473.925781" xlink:href="#DejaVuSans-65"/>
      <use x="535.449219" xlink:href="#DejaVuSans-64"/>
     </g>
     <!-- Residuals -->
     <defs>
      <path d="M 44.390625 34.1875 
Q 47.5625 33.109375 50.5625 29.59375 
Q 53.5625 26.078125 56.59375 19.921875 
L 66.609375 0 
L 56 0 
L 46.6875 18.703125 
Q 43.0625 26.03125 39.671875 28.421875 
Q 36.28125 30.8125 30.421875 30.8125 
L 19.671875 30.8125 
L 19.671875 0 
L 9.8125 0 
L 9.8125 72.90625 
L 32.078125 72.90625 
Q 44.578125 72.90625 50.734375 67.671875 
Q 56.890625 62.453125 56.890625 51.90625 
Q 56.890625 45.015625 53.6875 40.46875 
Q 50.484375 35.9375 44.390625 34.1875 
z
M 19.671875 64.796875 
L 19.671875 38.921875 
L 32.078125 38.921875 
Q 39.203125 38.921875 42.84375 42.21875 
Q 46.484375 45.515625 46.484375 51.90625 
Q 46.484375 58.296875 42.84375 61.546875 
Q 39.203125 64.796875 32.078125 64.796875 
z
" id="DejaVuSans-52"/>
      <path d="M 44.28125 53.078125 
L 44.28125 44.578125 
Q 40.484375 46.53125 36.375 47.5 
Q 32.28125 48.484375 27.875 48.484375 
Q 21.1875 48.484375 17.84375 46.4375 
Q 14.5 44.390625 14.5 40.28125 
Q 14.5 37.15625 16.890625 35.375 
Q 19.28125 33.59375 26.515625 31.984375 
L 29.59375 31.296875 
Q 39.15625 29.25 43.1875 25.515625 
Q 47.21875 21.78125 47.21875 15.09375 
Q 47.21875 7.46875 41.1875 3.015625 
Q 35.15625 -1.421875 24.609375 -1.421875 
Q 20.21875 -1.421875 15.453125 -0.5625 
Q 10.6875 0.296875 5.421875 2 
L 5.421875 11.28125 
Q 10.40625 8.6875 15.234375 7.390625 
Q 20.0625 6.109375 24.8125 6.109375 
Q 31.15625 6.109375 34.5625 8.28125 
Q 37.984375 10.453125 37.984375 14.40625 
Q 37.984375 18.0625 35.515625 20.015625 
Q 33.0625 21.96875 24.703125 23.78125 
L 21.578125 24.515625 
Q 13.234375 26.265625 9.515625 29.90625 
Q 5.8125 33.546875 5.8125 39.890625 
Q 5.8125 47.609375 11.28125 51.796875 
Q 16.75 56 26.8125 56 
Q 31.78125 56 36.171875 55.265625 
Q 40.578125 54.546875 44.28125 53.078125 
z
" id="DejaVuSans-73"/>
      <path d="M 34.28125 27.484375 
Q 23.390625 27.484375 19.1875 25 
Q 14.984375 22.515625 14.984375 16.5 
Q 14.984375 11.71875 18.140625 8.90625 
Q 21.296875 6.109375 26.703125 6.109375 
Q 34.1875 6.109375 38.703125 11.40625 
Q 43.21875 16.703125 43.21875 25.484375 
L 43.21875 27.484375 
z
M 52.203125 31.203125 
L 52.203125 0 
L 43.21875 0 
L 43.21875 8.296875 
Q 40.140625 3.328125 35.546875 0.953125 
Q 30.953125 -1.421875 24.3125 -1.421875 
Q 15.921875 -1.421875 10.953125 3.296875 
Q 6 8.015625 6 15.921875 
Q 6 25.140625 12.171875 29.828125 
Q 18.359375 34.515625 30.609375 34.515625 
L 43.21875 34.515625 
L 43.21875 35.40625 
Q 43.21875 41.609375 39.140625 45 
Q 35.0625 48.390625 27.6875 48.390625 
Q 23 48.390625 18.546875 47.265625 
Q 14.109375 46.140625 10.015625 43.890625 
L 10.015625 52.203125 
Q 14.9375 54.109375 19.578125 55.046875 
Q 24.21875 56 28.609375 56 
Q 40.484375 56 46.34375 49.84375 
Q 52.203125 43.703125 52.203125 31.203125 
z
" id="DejaVuSans-61"/>
      <path d="M 9.421875 75.984375 
L 18.40625 75.984375 
L 18.40625 0 
L 9.421875 0 
z
" id="DejaVuSans-6c"/>
     </defs>
     <g transform="translate(116.34175 128.213025)rotate(-90)scale(0.12 -0.12)">
      <use xlink:href="#DejaVuSans-52"/>
      <use x="69.419922" xlink:href="#DejaVuSans-65"/>
      <use x="130.943359" xlink:href="#DejaVuSans-73"/>
      <use x="183.042969" xlink:href="#DejaVuSans-69"/>
      <use x="210.826172" xlink:href="#DejaVuSans-64"/>
      <use x="274.302734" xlink:href="#DejaVuSans-75"/>
      <use x="337.681641" xlink:href="#DejaVuSans-61"/>
      <use x="398.960938" xlink:href="#DejaVuSans-6c"/>
      <use x="426.744141" xlink:href="#DejaVuSans-73"/>
     </g>
    </g>
   </g>
   <g id="LineCollection_1">
    <path clip-path="url(#padd2b4b172)" d="M 174.848 128.930831 
L 174.848 83.708008 
" style="fill:none;stroke:#0000ff;stroke-width:1.5;"/>
    <path clip-path="url(#padd2b4b172)" d="M 183.280099 106.555015 
L 183.280099 61.332192 
" style="fill:none;stroke:#0000ff;stroke-width:1.5;"/>
    <path clip-path="url(#padd2b4b172)" d="M 191.712198 88.542518 
L 191.712198 43.319695 
" style="fill:none;stroke:#0000ff;stroke-width:1.5;"/>
    <path clip-path="url(#padd2b4b172)" d="M 200.144296 111.422431 
L 200.144296 66.199608 
" style="fill:none;stroke:#0000ff;stroke-width:1.5;"/>
    <path clip-path="url(#padd2b4b172)" d="M 208.576395 136.213184 
L 208.576395 90.990361 
" style="fill:none;stroke:#0000ff;stroke-width:1.5;"/>
    <path clip-path="url(#padd2b4b172)" d="M 217.008494 103.987207 
L 217.008494 58.764384 
" style="fill:none;stroke:#0000ff;stroke-width:1.5;"/>
    <path clip-path="url(#padd2b4b172)" d="M 225.440593 95.75413 
L 225.440593 50.531307 
" style="fill:none;stroke:#0000ff;stroke-width:1.5;"/>
    <path clip-path="url(#padd2b4b172)" d="M 233.872691 126.102914 
L 233.872691 80.880091 
" style="fill:none;stroke:#0000ff;stroke-width:1.5;"/>
    <path clip-path="url(#padd2b4b172)" d="M 242.30479 116.249219 
L 242.30479 71.026396 
" style="fill:none;stroke:#0000ff;stroke-width:1.5;"/>
    <path clip-path="url(#padd2b4b172)" d="M 250.736889 123.39022 
L 250.736889 78.167397 
" style="fill:none;stroke:#0000ff;stroke-width:1.5;"/>
    <path clip-path="url(#padd2b4b172)" d="M 259.168988 116.154257 
L 259.168988 70.931434 
" style="fill:none;stroke:#0000ff;stroke-width:1.5;"/>
    <path clip-path="url(#padd2b4b172)" d="M 267.601086 116.98254 
L 267.601086 71.759717 
" style="fill:none;stroke:#0000ff;stroke-width:1.5;"/>
    <path clip-path="url(#padd2b4b172)" d="M 276.033185 118.555304 
L 276.033185 73.332481 
" style="fill:none;stroke:#0000ff;stroke-width:1.5;"/>
    <path clip-path="url(#padd2b4b172)" d="M 284.465284 131.267748 
L 284.465284 86.044925 
" style="fill:none;stroke:#0000ff;stroke-width:1.5;"/>
    <path clip-path="url(#padd2b4b172)" d="M 292.897383 124.31442 
L 292.897383 79.091597 
" style="fill:none;stroke:#0000ff;stroke-width:1.5;"/>
    <path clip-path="url(#padd2b4b172)" d="M 301.329481 120.719784 
L 301.329481 75.496961 
" style="fill:none;stroke:#0000ff;stroke-width:1.5;"/>
    <path clip-path="url(#padd2b4b172)" d="M 309.76158 120.034382 
L 309.76158 74.811559 
" style="fill:none;stroke:#0000ff;stroke-width:1.5;"/>
    <path clip-path="url(#padd2b4b172)" d="M 318.193679 107.332463 
L 318.193679 62.10964 
" style="fill:none;stroke:#0000ff;stroke-width:1.5;"/>
    <path clip-path="url(#padd2b4b172)" d="M 326.625778 94.05691 
L 326.625778 48.834087 
" style="fill:none;stroke:#0000ff;stroke-width:1.5;"/>
    <path clip-path="url(#padd2b4b172)" d="M 335.057877 139.53512 
L 335.057877 94.312297 
" style="fill:none;stroke:#0000ff;stroke-width:1.5;"/>
    <path clip-path="url(#padd2b4b172)" d="M 343.489975 116.886991 
L 343.489975 71.664168 
" style="fill:none;stroke:#0000ff;stroke-width:1.5;"/>
    <path clip-path="url(#padd2b4b172)" d="M 351.922074 100.133714 
L 351.922074 54.910891 
" style="fill:none;stroke:#0000ff;stroke-width:1.5;"/>
    <path clip-path="url(#padd2b4b172)" d="M 360.354173 155.793811 
L 360.354173 110.570989 
" style="fill:none;stroke:#0000ff;stroke-width:1.5;"/>
    <path clip-path="url(#padd2b4b172)" d="M 368.786272 129.597826 
L 368.786272 84.375003 
" style="fill:none;stroke:#0000ff;stroke-width:1.5;"/>
    <path clip-path="url(#padd2b4b172)" d="M 377.21837 132.627781 
L 377.21837 87.404958 
" style="fill:none;stroke:#0000ff;stroke-width:1.5;"/>
    <path clip-path="url(#padd2b4b172)" d="M 385.650469 115.036653 
L 385.650469 69.81383 
" style="fill:none;stroke:#0000ff;stroke-width:1.5;"/>
    <path clip-path="url(#padd2b4b172)" d="M 394.082568 133.187443 
L 394.082568 87.96462 
" style="fill:none;stroke:#0000ff;stroke-width:1.5;"/>
    <path clip-path="url(#padd2b4b172)" d="M 402.514667 124.369946 
L 402.514667 79.147123 
" style="fill:none;stroke:#0000ff;stroke-width:1.5;"/>
    <path clip-path="url(#padd2b4b172)" d="M 410.946765 110.472666 
L 410.946765 65.249843 
" style="fill:none;stroke:#0000ff;stroke-width:1.5;"/>
    <path clip-path="url(#padd2b4b172)" d="M 419.378864 139.494598 
L 419.378864 94.271775 
" style="fill:none;stroke:#0000ff;stroke-width:1.5;"/>
    <path clip-path="url(#padd2b4b172)" d="M 427.810963 110.950957 
L 427.810963 65.728134 
" style="fill:none;stroke:#0000ff;stroke-width:1.5;"/>
    <path clip-path="url(#padd2b4b172)" d="M 436.243062 94.477044 
L 436.243062 49.254221 
" style="fill:none;stroke:#0000ff;stroke-width:1.5;"/>
    <path clip-path="url(#padd2b4b172)" d="M 444.67516 122.400295 
L 444.67516 77.177472 
" style="fill:none;stroke:#0000ff;stroke-width:1.5;"/>
    <path clip-path="url(#padd2b4b172)" d="M 453.107259 102.939897 
L 453.107259 57.717074 
" style="fill:none;stroke:#0000ff;stroke-width:1.5;"/>
    <path clip-path="url(#padd2b4b172)" d="M 461.539358 107.410118 
L 461.539358 62.187295 
" style="fill:none;stroke:#0000ff;stroke-width:1.5;"/>
    <path clip-path="url(#padd2b4b172)" d="M 469.971457 144.463353 
L 469.971457 99.24053 
" style="fill:none;stroke:#0000ff;stroke-width:1.5;"/>
    <path clip-path="url(#padd2b4b172)" d="M 478.403556 98.518945 
L 478.403556 53.296122 
" style="fill:none;stroke:#0000ff;stroke-width:1.5;"/>
    <path clip-path="url(#padd2b4b172)" d="M 486.835654 123.327709 
L 486.835654 78.104886 
" style="fill:none;stroke:#0000ff;stroke-width:1.5;"/>
    <path clip-path="url(#padd2b4b172)" d="M 495.267753 88.907388 
L 495.267753 43.684565 
" style="fill:none;stroke:#0000ff;stroke-width:1.5;"/>
    <path clip-path="url(#padd2b4b172)" d="M 503.699852 121.84889 
L 503.699852 76.626067 
" style="fill:none;stroke:#0000ff;stroke-width:1.5;"/>
    <path clip-path="url(#padd2b4b172)" d="M 512.131951 116.247656 
L 512.131951 71.024833 
" style="fill:none;stroke:#0000ff;stroke-width:1.5;"/>
    <path clip-path="url(#padd2b4b172)" d="M 520.564049 111.999328 
L 520.564049 66.776505 
" style="fill:none;stroke:#0000ff;stroke-width:1.5;"/>
    <path clip-path="url(#padd2b4b172)" d="M 528.996148 119.650655 
L 528.996148 74.427832 
" style="fill:none;stroke:#0000ff;stroke-width:1.5;"/>
    <path clip-path="url(#padd2b4b172)" d="M 537.428247 115.9582 
L 537.428247 70.735377 
" style="fill:none;stroke:#0000ff;stroke-width:1.5;"/>
    <path clip-path="url(#padd2b4b172)" d="M 545.860346 152.061189 
L 545.860346 106.838366 
" style="fill:none;stroke:#0000ff;stroke-width:1.5;"/>
    <path clip-path="url(#padd2b4b172)" d="M 554.292444 100.05005 
L 554.292444 54.827227 
" style="fill:none;stroke:#0000ff;stroke-width:1.5;"/>
    <path clip-path="url(#padd2b4b172)" d="M 562.724543 123.881369 
L 562.724543 78.658546 
" style="fill:none;stroke:#0000ff;stroke-width:1.5;"/>
    <path clip-path="url(#padd2b4b172)" d="M 571.156642 135.523504 
L 571.156642 90.300681 
" style="fill:none;stroke:#0000ff;stroke-width:1.5;"/>
    <path clip-path="url(#padd2b4b172)" d="M 579.588741 129.018808 
L 579.588741 83.795985 
" style="fill:none;stroke:#0000ff;stroke-width:1.5;"/>
    <path clip-path="url(#padd2b4b172)" d="M 588.02084 88.393811 
L 588.02084 43.170989 
" style="fill:none;stroke:#0000ff;stroke-width:1.5;"/>
    <path clip-path="url(#padd2b4b172)" d="M 596.452938 137.474103 
L 596.452938 92.25128 
" style="fill:none;stroke:#0000ff;stroke-width:1.5;"/>
    <path clip-path="url(#padd2b4b172)" d="M 604.885037 122.324542 
L 604.885037 77.101719 
" style="fill:none;stroke:#0000ff;stroke-width:1.5;"/>
    <path clip-path="url(#padd2b4b172)" d="M 613.317136 119.562537 
L 613.317136 74.339714 
" style="fill:none;stroke:#0000ff;stroke-width:1.5;"/>
    <path clip-path="url(#padd2b4b172)" d="M 621.749235 108.823684 
L 621.749235 63.600861 
" style="fill:none;stroke:#0000ff;stroke-width:1.5;"/>
    <path clip-path="url(#padd2b4b172)" d="M 630.181333 96.838065 
L 630.181333 51.615242 
" style="fill:none;stroke:#0000ff;stroke-width:1.5;"/>
    <path clip-path="url(#padd2b4b172)" d="M 638.613432 109.035987 
L 638.613432 63.813164 
" style="fill:none;stroke:#0000ff;stroke-width:1.5;"/>
    <path clip-path="url(#padd2b4b172)" d="M 647.045531 121.535784 
L 647.045531 76.312961 
" style="fill:none;stroke:#0000ff;stroke-width:1.5;"/>
    <path clip-path="url(#padd2b4b172)" d="M 655.47763 106.155796 
L 655.47763 60.932973 
" style="fill:none;stroke:#0000ff;stroke-width:1.5;"/>
    <path clip-path="url(#padd2b4b172)" d="M 663.909728 112.836386 
L 663.909728 67.613563 
" style="fill:none;stroke:#0000ff;stroke-width:1.5;"/>
    <path clip-path="url(#padd2b4b172)" d="M 672.341827 145.673278 
L 672.341827 100.450455 
" style="fill:none;stroke:#0000ff;stroke-width:1.5;"/>
    <path clip-path="url(#padd2b4b172)" d="M 680.773926 116.597935 
L 680.773926 71.375112 
" style="fill:none;stroke:#0000ff;stroke-width:1.5;"/>
    <path clip-path="url(#padd2b4b172)" d="M 689.206025 151.454338 
L 689.206025 106.231515 
" style="fill:none;stroke:#0000ff;stroke-width:1.5;"/>
    <path clip-path="url(#padd2b4b172)" d="M 697.638123 108.766756 
L 697.638123 63.543933 
" style="fill:none;stroke:#0000ff;stroke-width:1.5;"/>
    <path clip-path="url(#padd2b4b172)" d="M 706.070222 114.292924 
L 706.070222 69.070101 
" style="fill:none;stroke:#0000ff;stroke-width:1.5;"/>
    <path clip-path="url(#padd2b4b172)" d="M 714.502321 110.645167 
L 714.502321 65.422344 
" style="fill:none;stroke:#0000ff;stroke-width:1.5;"/>
    <path clip-path="url(#padd2b4b172)" d="M 722.93442 115.790083 
L 722.93442 70.56726 
" style="fill:none;stroke:#0000ff;stroke-width:1.5;"/>
    <path clip-path="url(#padd2b4b172)" d="M 731.366519 124.079306 
L 731.366519 78.856483 
" style="fill:none;stroke:#0000ff;stroke-width:1.5;"/>
    <path clip-path="url(#padd2b4b172)" d="M 739.798617 115.570485 
L 739.798617 70.347662 
" style="fill:none;stroke:#0000ff;stroke-width:1.5;"/>
    <path clip-path="url(#padd2b4b172)" d="M 748.230716 105.092651 
L 748.230716 59.869828 
" style="fill:none;stroke:#0000ff;stroke-width:1.5;"/>
    <path clip-path="url(#padd2b4b172)" d="M 756.662815 117.973361 
L 756.662815 72.750538 
" style="fill:none;stroke:#0000ff;stroke-width:1.5;"/>
    <path clip-path="url(#padd2b4b172)" d="M 765.094914 106.686788 
L 765.094914 61.463965 
" style="fill:none;stroke:#0000ff;stroke-width:1.5;"/>
    <path clip-path="url(#padd2b4b172)" d="M 773.527012 88.692383 
L 773.527012 43.46956 
" style="fill:none;stroke:#0000ff;stroke-width:1.5;"/>
    <path clip-path="url(#padd2b4b172)" d="M 781.959111 127.525471 
L 781.959111 82.302648 
" style="fill:none;stroke:#0000ff;stroke-width:1.5;"/>
    <path clip-path="url(#padd2b4b172)" d="M 790.39121 117.864907 
L 790.39121 72.642084 
" style="fill:none;stroke:#0000ff;stroke-width:1.5;"/>
    <path clip-path="url(#padd2b4b172)" d="M 798.823309 96.96341 
L 798.823309 51.740587 
" style="fill:none;stroke:#0000ff;stroke-width:1.5;"/>
    <path clip-path="url(#padd2b4b172)" d="M 807.255407 124.256942 
L 807.255407 79.034119 
" style="fill:none;stroke:#0000ff;stroke-width:1.5;"/>
    <path clip-path="url(#padd2b4b172)" d="M 815.687506 118.949848 
L 815.687506 73.727025 
" style="fill:none;stroke:#0000ff;stroke-width:1.5;"/>
    <path clip-path="url(#padd2b4b172)" d="M 824.119605 146.379518 
L 824.119605 101.156695 
" style="fill:none;stroke:#0000ff;stroke-width:1.5;"/>
    <path clip-path="url(#padd2b4b172)" d="M 832.551704 139.891331 
L 832.551704 94.668508 
" style="fill:none;stroke:#0000ff;stroke-width:1.5;"/>
    <path clip-path="url(#padd2b4b172)" d="M 840.983802 147.218347 
L 840.983802 101.995524 
" style="fill:none;stroke:#0000ff;stroke-width:1.5;"/>
    <path clip-path="url(#padd2b4b172)" d="M 849.415901 97.939315 
L 849.415901 52.716492 
" style="fill:none;stroke:#0000ff;stroke-width:1.5;"/>
    <path clip-path="url(#padd2b4b172)" d="M 857.848 121.027642 
L 857.848 75.804819 
" style="fill:none;stroke:#0000ff;stroke-width:1.5;"/>
   </g>
   <g id="line2d_10">
    <path clip-path="url(#padd2b4b172)" d="M 174.848 95.860143 
L 857.848 95.860143 
" style="fill:none;stroke:#ff0000;stroke-linecap:square;stroke-width:1.5;"/>
   </g>
   <g id="line2d_11">
    <defs>
     <path d="M -3 0 
L 3 0 
M 0 3 
L 0 -3 
" id="m27c5d87384" style="stroke:#0000ff;"/>
    </defs>
    <g clip-path="url(#padd2b4b172)">
     <use style="fill:#0000ff;stroke:#0000ff;" x="174.848" xlink:href="#m27c5d87384" y="106.319419"/>
     <use style="fill:#0000ff;stroke:#0000ff;" x="183.280099" xlink:href="#m27c5d87384" y="83.943603"/>
     <use style="fill:#0000ff;stroke:#0000ff;" x="191.712198" xlink:href="#m27c5d87384" y="65.931107"/>
     <use style="fill:#0000ff;stroke:#0000ff;" x="200.144296" xlink:href="#m27c5d87384" y="88.811019"/>
     <use style="fill:#0000ff;stroke:#0000ff;" x="208.576395" xlink:href="#m27c5d87384" y="113.601772"/>
     <use style="fill:#0000ff;stroke:#0000ff;" x="217.008494" xlink:href="#m27c5d87384" y="81.375795"/>
     <use style="fill:#0000ff;stroke:#0000ff;" x="225.440593" xlink:href="#m27c5d87384" y="73.142719"/>
     <use style="fill:#0000ff;stroke:#0000ff;" x="233.872691" xlink:href="#m27c5d87384" y="103.491502"/>
     <use style="fill:#0000ff;stroke:#0000ff;" x="242.30479" xlink:href="#m27c5d87384" y="93.637807"/>
     <use style="fill:#0000ff;stroke:#0000ff;" x="250.736889" xlink:href="#m27c5d87384" y="100.778808"/>
     <use style="fill:#0000ff;stroke:#0000ff;" x="259.168988" xlink:href="#m27c5d87384" y="93.542845"/>
     <use style="fill:#0000ff;stroke:#0000ff;" x="267.601086" xlink:href="#m27c5d87384" y="94.371128"/>
     <use style="fill:#0000ff;stroke:#0000ff;" x="276.033185" xlink:href="#m27c5d87384" y="95.943893"/>
     <use style="fill:#0000ff;stroke:#0000ff;" x="284.465284" xlink:href="#m27c5d87384" y="108.656337"/>
     <use style="fill:#0000ff;stroke:#0000ff;" x="292.897383" xlink:href="#m27c5d87384" y="101.703009"/>
     <use style="fill:#0000ff;stroke:#0000ff;" x="301.329481" xlink:href="#m27c5d87384" y="98.108372"/>
     <use style="fill:#0000ff;stroke:#0000ff;" x="309.76158" xlink:href="#m27c5d87384" y="97.422971"/>
     <use style="fill:#0000ff;stroke:#0000ff;" x="318.193679" xlink:href="#m27c5d87384" y="84.721051"/>
     <use style="fill:#0000ff;stroke:#0000ff;" x="326.625778" xlink:href="#m27c5d87384" y="71.445498"/>
     <use style="fill:#0000ff;stroke:#0000ff;" x="335.057877" xlink:href="#m27c5d87384" y="116.923709"/>
     <use style="fill:#0000ff;stroke:#0000ff;" x="343.489975" xlink:href="#m27c5d87384" y="94.275579"/>
     <use style="fill:#0000ff;stroke:#0000ff;" x="351.922074" xlink:href="#m27c5d87384" y="77.522302"/>
     <use style="fill:#0000ff;stroke:#0000ff;" x="360.354173" xlink:href="#m27c5d87384" y="133.1824"/>
     <use style="fill:#0000ff;stroke:#0000ff;" x="368.786272" xlink:href="#m27c5d87384" y="106.986414"/>
     <use style="fill:#0000ff;stroke:#0000ff;" x="377.21837" xlink:href="#m27c5d87384" y="110.01637"/>
     <use style="fill:#0000ff;stroke:#0000ff;" x="385.650469" xlink:href="#m27c5d87384" y="92.425242"/>
     <use style="fill:#0000ff;stroke:#0000ff;" x="394.082568" xlink:href="#m27c5d87384" y="110.576031"/>
     <use style="fill:#0000ff;stroke:#0000ff;" x="402.514667" xlink:href="#m27c5d87384" y="101.758534"/>
     <use style="fill:#0000ff;stroke:#0000ff;" x="410.946765" xlink:href="#m27c5d87384" y="87.861254"/>
     <use style="fill:#0000ff;stroke:#0000ff;" x="419.378864" xlink:href="#m27c5d87384" y="116.883187"/>
     <use style="fill:#0000ff;stroke:#0000ff;" x="427.810963" xlink:href="#m27c5d87384" y="88.339545"/>
     <use style="fill:#0000ff;stroke:#0000ff;" x="436.243062" xlink:href="#m27c5d87384" y="71.865633"/>
     <use style="fill:#0000ff;stroke:#0000ff;" x="444.67516" xlink:href="#m27c5d87384" y="99.788883"/>
     <use style="fill:#0000ff;stroke:#0000ff;" x="453.107259" xlink:href="#m27c5d87384" y="80.328485"/>
     <use style="fill:#0000ff;stroke:#0000ff;" x="461.539358" xlink:href="#m27c5d87384" y="84.798707"/>
     <use style="fill:#0000ff;stroke:#0000ff;" x="469.971457" xlink:href="#m27c5d87384" y="121.851942"/>
     <use style="fill:#0000ff;stroke:#0000ff;" x="478.403556" xlink:href="#m27c5d87384" y="75.907533"/>
     <use style="fill:#0000ff;stroke:#0000ff;" x="486.835654" xlink:href="#m27c5d87384" y="100.716298"/>
     <use style="fill:#0000ff;stroke:#0000ff;" x="495.267753" xlink:href="#m27c5d87384" y="66.295976"/>
     <use style="fill:#0000ff;stroke:#0000ff;" x="503.699852" xlink:href="#m27c5d87384" y="99.237478"/>
     <use style="fill:#0000ff;stroke:#0000ff;" x="512.131951" xlink:href="#m27c5d87384" y="93.636244"/>
     <use style="fill:#0000ff;stroke:#0000ff;" x="520.564049" xlink:href="#m27c5d87384" y="89.387916"/>
     <use style="fill:#0000ff;stroke:#0000ff;" x="528.996148" xlink:href="#m27c5d87384" y="97.039244"/>
     <use style="fill:#0000ff;stroke:#0000ff;" x="537.428247" xlink:href="#m27c5d87384" y="93.346788"/>
     <use style="fill:#0000ff;stroke:#0000ff;" x="545.860346" xlink:href="#m27c5d87384" y="129.449777"/>
     <use style="fill:#0000ff;stroke:#0000ff;" x="554.292444" xlink:href="#m27c5d87384" y="77.438639"/>
     <use style="fill:#0000ff;stroke:#0000ff;" x="562.724543" xlink:href="#m27c5d87384" y="101.269958"/>
     <use style="fill:#0000ff;stroke:#0000ff;" x="571.156642" xlink:href="#m27c5d87384" y="112.912092"/>
     <use style="fill:#0000ff;stroke:#0000ff;" x="579.588741" xlink:href="#m27c5d87384" y="106.407397"/>
     <use style="fill:#0000ff;stroke:#0000ff;" x="588.02084" xlink:href="#m27c5d87384" y="65.7824"/>
     <use style="fill:#0000ff;stroke:#0000ff;" x="596.452938" xlink:href="#m27c5d87384" y="114.862692"/>
     <use style="fill:#0000ff;stroke:#0000ff;" x="604.885037" xlink:href="#m27c5d87384" y="99.713131"/>
     <use style="fill:#0000ff;stroke:#0000ff;" x="613.317136" xlink:href="#m27c5d87384" y="96.951125"/>
     <use style="fill:#0000ff;stroke:#0000ff;" x="621.749235" xlink:href="#m27c5d87384" y="86.212272"/>
     <use style="fill:#0000ff;stroke:#0000ff;" x="630.181333" xlink:href="#m27c5d87384" y="74.226654"/>
     <use style="fill:#0000ff;stroke:#0000ff;" x="638.613432" xlink:href="#m27c5d87384" y="86.424575"/>
     <use style="fill:#0000ff;stroke:#0000ff;" x="647.045531" xlink:href="#m27c5d87384" y="98.924373"/>
     <use style="fill:#0000ff;stroke:#0000ff;" x="655.47763" xlink:href="#m27c5d87384" y="83.544384"/>
     <use style="fill:#0000ff;stroke:#0000ff;" x="663.909728" xlink:href="#m27c5d87384" y="90.224975"/>
     <use style="fill:#0000ff;stroke:#0000ff;" x="672.341827" xlink:href="#m27c5d87384" y="123.061867"/>
     <use style="fill:#0000ff;stroke:#0000ff;" x="680.773926" xlink:href="#m27c5d87384" y="93.986524"/>
     <use style="fill:#0000ff;stroke:#0000ff;" x="689.206025" xlink:href="#m27c5d87384" y="128.842927"/>
     <use style="fill:#0000ff;stroke:#0000ff;" x="697.638123" xlink:href="#m27c5d87384" y="86.155344"/>
     <use style="fill:#0000ff;stroke:#0000ff;" x="706.070222" xlink:href="#m27c5d87384" y="91.681512"/>
     <use style="fill:#0000ff;stroke:#0000ff;" x="714.502321" xlink:href="#m27c5d87384" y="88.033755"/>
     <use style="fill:#0000ff;stroke:#0000ff;" x="722.93442" xlink:href="#m27c5d87384" y="93.178672"/>
     <use style="fill:#0000ff;stroke:#0000ff;" x="731.366519" xlink:href="#m27c5d87384" y="101.467894"/>
     <use style="fill:#0000ff;stroke:#0000ff;" x="739.798617" xlink:href="#m27c5d87384" y="92.959073"/>
     <use style="fill:#0000ff;stroke:#0000ff;" x="748.230716" xlink:href="#m27c5d87384" y="82.48124"/>
     <use style="fill:#0000ff;stroke:#0000ff;" x="756.662815" xlink:href="#m27c5d87384" y="95.361949"/>
     <use style="fill:#0000ff;stroke:#0000ff;" x="765.094914" xlink:href="#m27c5d87384" y="84.075376"/>
     <use style="fill:#0000ff;stroke:#0000ff;" x="773.527012" xlink:href="#m27c5d87384" y="66.080971"/>
     <use style="fill:#0000ff;stroke:#0000ff;" x="781.959111" xlink:href="#m27c5d87384" y="104.914059"/>
     <use style="fill:#0000ff;stroke:#0000ff;" x="790.39121" xlink:href="#m27c5d87384" y="95.253496"/>
     <use style="fill:#0000ff;stroke:#0000ff;" x="798.823309" xlink:href="#m27c5d87384" y="74.351998"/>
     <use style="fill:#0000ff;stroke:#0000ff;" x="807.255407" xlink:href="#m27c5d87384" y="101.64553"/>
     <use style="fill:#0000ff;stroke:#0000ff;" x="815.687506" xlink:href="#m27c5d87384" y="96.338437"/>
     <use style="fill:#0000ff;stroke:#0000ff;" x="824.119605" xlink:href="#m27c5d87384" y="123.768106"/>
     <use style="fill:#0000ff;stroke:#0000ff;" x="832.551704" xlink:href="#m27c5d87384" y="117.27992"/>
     <use style="fill:#0000ff;stroke:#0000ff;" x="840.983802" xlink:href="#m27c5d87384" y="124.606936"/>
     <use style="fill:#0000ff;stroke:#0000ff;" x="849.415901" xlink:href="#m27c5d87384" y="75.327903"/>
     <use style="fill:#0000ff;stroke:#0000ff;" x="857.848" xlink:href="#m27c5d87384" y="98.416231"/>
    </g>
   </g>
   <g id="patch_3">
    <path d="M 147.528 135.8784 
L 147.528 63.0864 
" style="fill:none;stroke:#000000;stroke-linecap:square;stroke-linejoin:miter;stroke-width:0.8;"/>
   </g>
   <g id="patch_4">
    <path d="M 885.168 135.8784 
L 885.168 63.0864 
" style="fill:none;stroke:#000000;stroke-linecap:square;stroke-linejoin:miter;stroke-width:0.8;"/>
   </g>
   <g id="patch_5">
    <path d="M 147.528 135.8784 
L 885.168 135.8784 
" style="fill:none;stroke:#000000;stroke-linecap:square;stroke-linejoin:miter;stroke-width:0.8;"/>
   </g>
   <g id="patch_6">
    <path d="M 147.528 63.0864 
L 885.168 63.0864 
" style="fill:none;stroke:#000000;stroke-linecap:square;stroke-linejoin:miter;stroke-width:0.8;"/>
   </g>
   <g id="text_4">
    <!-- Function (0/0): y = a*exp(-(x-x0)**2/w**2)+b -->
    <defs>
     <path d="M 9.8125 72.90625 
L 51.703125 72.90625 
L 51.703125 64.59375 
L 19.671875 64.59375 
L 19.671875 43.109375 
L 48.578125 43.109375 
L 48.578125 34.8125 
L 19.671875 34.8125 
L 19.671875 0 
L 9.8125 0 
z
" id="DejaVuSans-46"/>
     <path d="M 48.78125 52.59375 
L 48.78125 44.1875 
Q 44.96875 46.296875 41.140625 47.34375 
Q 37.3125 48.390625 33.40625 48.390625 
Q 24.65625 48.390625 19.8125 42.84375 
Q 14.984375 37.3125 14.984375 27.296875 
Q 14.984375 17.28125 19.8125 11.734375 
Q 24.65625 6.203125 33.40625 6.203125 
Q 37.3125 6.203125 41.140625 7.25 
Q 44.96875 8.296875 48.78125 10.40625 
L 48.78125 2.09375 
Q 45.015625 0.34375 40.984375 -0.53125 
Q 36.96875 -1.421875 32.421875 -1.421875 
Q 20.0625 -1.421875 12.78125 6.34375 
Q 5.515625 14.109375 5.515625 27.296875 
Q 5.515625 40.671875 12.859375 48.328125 
Q 20.21875 56 33.015625 56 
Q 37.15625 56 41.109375 55.140625 
Q 45.0625 54.296875 48.78125 52.59375 
z
" id="DejaVuSans-63"/>
     <path d="M 30.609375 48.390625 
Q 23.390625 48.390625 19.1875 42.75 
Q 14.984375 37.109375 14.984375 27.296875 
Q 14.984375 17.484375 19.15625 11.84375 
Q 23.34375 6.203125 30.609375 6.203125 
Q 37.796875 6.203125 41.984375 11.859375 
Q 46.1875 17.53125 46.1875 27.296875 
Q 46.1875 37.015625 41.984375 42.703125 
Q 37.796875 48.390625 30.609375 48.390625 
z
M 30.609375 56 
Q 42.328125 56 49.015625 48.375 
Q 55.71875 40.765625 55.71875 27.296875 
Q 55.71875 13.875 49.015625 6.21875 
Q 42.328125 -1.421875 30.609375 -1.421875 
Q 18.84375 -1.421875 12.171875 6.21875 
Q 5.515625 13.875 5.515625 27.296875 
Q 5.515625 40.765625 12.171875 48.375 
Q 18.84375 56 30.609375 56 
z
" id="DejaVuSans-6f"/>
     <path id="DejaVuSans-20"/>
     <path d="M 31 75.875 
Q 24.46875 64.65625 21.28125 53.65625 
Q 18.109375 42.671875 18.109375 31.390625 
Q 18.109375 20.125 21.3125 9.0625 
Q 24.515625 -2 31 -13.1875 
L 23.1875 -13.1875 
Q 15.875 -1.703125 12.234375 9.375 
Q 8.59375 20.453125 8.59375 31.390625 
Q 8.59375 42.28125 12.203125 53.3125 
Q 15.828125 64.359375 23.1875 75.875 
z
" id="DejaVuSans-28"/>
     <path d="M 31.78125 66.40625 
Q 24.171875 66.40625 20.328125 58.90625 
Q 16.5 51.421875 16.5 36.375 
Q 16.5 21.390625 20.328125 13.890625 
Q 24.171875 6.390625 31.78125 6.390625 
Q 39.453125 6.390625 43.28125 13.890625 
Q 47.125 21.390625 47.125 36.375 
Q 47.125 51.421875 43.28125 58.90625 
Q 39.453125 66.40625 31.78125 66.40625 
z
M 31.78125 74.21875 
Q 44.046875 74.21875 50.515625 64.515625 
Q 56.984375 54.828125 56.984375 36.375 
Q 56.984375 17.96875 50.515625 8.265625 
Q 44.046875 -1.421875 31.78125 -1.421875 
Q 19.53125 -1.421875 13.0625 8.265625 
Q 6.59375 17.96875 6.59375 36.375 
Q 6.59375 54.828125 13.0625 64.515625 
Q 19.53125 74.21875 31.78125 74.21875 
z
" id="DejaVuSans-30"/>
     <path d="M 25.390625 72.90625 
L 33.6875 72.90625 
L 8.296875 -9.28125 
L 0 -9.28125 
z
" id="DejaVuSans-2f"/>
     <path d="M 8.015625 75.875 
L 15.828125 75.875 
Q 23.140625 64.359375 26.78125 53.3125 
Q 30.421875 42.28125 30.421875 31.390625 
Q 30.421875 20.453125 26.78125 9.375 
Q 23.140625 -1.703125 15.828125 -13.1875 
L 8.015625 -13.1875 
Q 14.5 -2 17.703125 9.0625 
Q 20.90625 20.125 20.90625 31.390625 
Q 20.90625 42.671875 17.703125 53.65625 
Q 14.5 64.65625 8.015625 75.875 
z
" id="DejaVuSans-29"/>
     <path d="M 11.71875 12.40625 
L 22.015625 12.40625 
L 22.015625 0 
L 11.71875 0 
z
M 11.71875 51.703125 
L 22.015625 51.703125 
L 22.015625 39.3125 
L 11.71875 39.3125 
z
" id="DejaVuSans-3a"/>
     <path d="M 32.171875 -5.078125 
Q 28.375 -14.84375 24.75 -17.8125 
Q 21.140625 -20.796875 15.09375 -20.796875 
L 7.90625 -20.796875 
L 7.90625 -13.28125 
L 13.1875 -13.28125 
Q 16.890625 -13.28125 18.9375 -11.515625 
Q 21 -9.765625 23.484375 -3.21875 
L 25.09375 0.875 
L 2.984375 54.6875 
L 12.5 54.6875 
L 29.59375 11.921875 
L 46.6875 54.6875 
L 56.203125 54.6875 
z
" id="DejaVuSans-79"/>
     <path d="M 10.59375 45.40625 
L 73.1875 45.40625 
L 73.1875 37.203125 
L 10.59375 37.203125 
z
M 10.59375 25.484375 
L 73.1875 25.484375 
L 73.1875 17.1875 
L 10.59375 17.1875 
z
" id="DejaVuSans-3d"/>
     <path d="M 47.015625 60.890625 
L 29.5 51.421875 
L 47.015625 41.890625 
L 44.1875 37.109375 
L 27.78125 47.015625 
L 27.78125 28.609375 
L 22.21875 28.609375 
L 22.21875 47.015625 
L 5.8125 37.109375 
L 2.984375 41.890625 
L 20.515625 51.421875 
L 2.984375 60.890625 
L 5.8125 65.71875 
L 22.21875 55.8125 
L 22.21875 74.21875 
L 27.78125 74.21875 
L 27.78125 55.8125 
L 44.1875 65.71875 
z
" id="DejaVuSans-2a"/>
     <path d="M 54.890625 54.6875 
L 35.109375 28.078125 
L 55.90625 0 
L 45.3125 0 
L 29.390625 21.484375 
L 13.484375 0 
L 2.875 0 
L 24.125 28.609375 
L 4.6875 54.6875 
L 15.28125 54.6875 
L 29.78125 35.203125 
L 44.28125 54.6875 
z
" id="DejaVuSans-78"/>
     <path d="M 18.109375 8.203125 
L 18.109375 -20.796875 
L 9.078125 -20.796875 
L 9.078125 54.6875 
L 18.109375 54.6875 
L 18.109375 46.390625 
Q 20.953125 51.265625 25.265625 53.625 
Q 29.59375 56 35.59375 56 
Q 45.5625 56 51.78125 48.09375 
Q 58.015625 40.1875 58.015625 27.296875 
Q 58.015625 14.40625 51.78125 6.484375 
Q 45.5625 -1.421875 35.59375 -1.421875 
Q 29.59375 -1.421875 25.265625 0.953125 
Q 20.953125 3.328125 18.109375 8.203125 
z
M 48.6875 27.296875 
Q 48.6875 37.203125 44.609375 42.84375 
Q 40.53125 48.484375 33.40625 48.484375 
Q 26.265625 48.484375 22.1875 42.84375 
Q 18.109375 37.203125 18.109375 27.296875 
Q 18.109375 17.390625 22.1875 11.75 
Q 26.265625 6.109375 33.40625 6.109375 
Q 40.53125 6.109375 44.609375 11.75 
Q 48.6875 17.390625 48.6875 27.296875 
z
" id="DejaVuSans-70"/>
     <path d="M 4.890625 31.390625 
L 31.203125 31.390625 
L 31.203125 23.390625 
L 4.890625 23.390625 
z
" id="DejaVuSans-2d"/>
     <path d="M 19.1875 8.296875 
L 53.609375 8.296875 
L 53.609375 0 
L 7.328125 0 
L 7.328125 8.296875 
Q 12.9375 14.109375 22.625 23.890625 
Q 32.328125 33.6875 34.8125 36.53125 
Q 39.546875 41.84375 41.421875 45.53125 
Q 43.3125 49.21875 43.3125 52.78125 
Q 43.3125 58.59375 39.234375 62.25 
Q 35.15625 65.921875 28.609375 65.921875 
Q 23.96875 65.921875 18.8125 64.3125 
Q 13.671875 62.703125 7.8125 59.421875 
L 7.8125 69.390625 
Q 13.765625 71.78125 18.9375 73 
Q 24.125 74.21875 28.421875 74.21875 
Q 39.75 74.21875 46.484375 68.546875 
Q 53.21875 62.890625 53.21875 53.421875 
Q 53.21875 48.921875 51.53125 44.890625 
Q 49.859375 40.875 45.40625 35.40625 
Q 44.1875 33.984375 37.640625 27.21875 
Q 31.109375 20.453125 19.1875 8.296875 
z
" id="DejaVuSans-32"/>
     <path d="M 4.203125 54.6875 
L 13.1875 54.6875 
L 24.421875 12.015625 
L 35.59375 54.6875 
L 46.1875 54.6875 
L 57.421875 12.015625 
L 68.609375 54.6875 
L 77.59375 54.6875 
L 63.28125 0 
L 52.6875 0 
L 40.921875 44.828125 
L 29.109375 0 
L 18.5 0 
z
" id="DejaVuSans-77"/>
     <path d="M 46 62.703125 
L 46 35.5 
L 73.1875 35.5 
L 73.1875 27.203125 
L 46 27.203125 
L 46 0 
L 37.796875 0 
L 37.796875 27.203125 
L 10.59375 27.203125 
L 10.59375 35.5 
L 37.796875 35.5 
L 37.796875 62.703125 
z
" id="DejaVuSans-2b"/>
     <path d="M 48.6875 27.296875 
Q 48.6875 37.203125 44.609375 42.84375 
Q 40.53125 48.484375 33.40625 48.484375 
Q 26.265625 48.484375 22.1875 42.84375 
Q 18.109375 37.203125 18.109375 27.296875 
Q 18.109375 17.390625 22.1875 11.75 
Q 26.265625 6.109375 33.40625 6.109375 
Q 40.53125 6.109375 44.609375 11.75 
Q 48.6875 17.390625 48.6875 27.296875 
z
M 18.109375 46.390625 
Q 20.953125 51.265625 25.265625 53.625 
Q 29.59375 56 35.59375 56 
Q 45.5625 56 51.78125 48.09375 
Q 58.015625 40.1875 58.015625 27.296875 
Q 58.015625 14.40625 51.78125 6.484375 
Q 45.5625 -1.421875 35.59375 -1.421875 
Q 29.59375 -1.421875 25.265625 0.953125 
Q 20.953125 3.328125 18.109375 8.203125 
L 18.109375 0 
L 9.078125 0 
L 9.078125 75.984375 
L 18.109375 75.984375 
z
" id="DejaVuSans-62"/>
    </defs>
    <g transform="translate(147.528 34.690775)scale(0.1 -0.1)">
     <use xlink:href="#DejaVuSans-46"/>
     <use x="57.441406" xlink:href="#DejaVuSans-75"/>
     <use x="120.820312" xlink:href="#DejaVuSans-6e"/>
     <use x="184.199219" xlink:href="#DejaVuSans-63"/>
     <use x="239.179688" xlink:href="#DejaVuSans-74"/>
     <use x="278.388672" xlink:href="#DejaVuSans-69"/>
     <use x="306.171875" xlink:href="#DejaVuSans-6f"/>
     <use x="367.353516" xlink:href="#DejaVuSans-6e"/>
     <use x="430.732422" xlink:href="#DejaVuSans-20"/>
     <use x="462.519531" xlink:href="#DejaVuSans-28"/>
     <use x="501.533203" xlink:href="#DejaVuSans-30"/>
     <use x="565.15625" xlink:href="#DejaVuSans-2f"/>
     <use x="598.847656" xlink:href="#DejaVuSans-30"/>
     <use x="662.470703" xlink:href="#DejaVuSans-29"/>
     <use x="701.484375" xlink:href="#DejaVuSans-3a"/>
     <use x="735.175781" xlink:href="#DejaVuSans-20"/>
     <use x="766.962891" xlink:href="#DejaVuSans-79"/>
     <use x="826.142578" xlink:href="#DejaVuSans-20"/>
     <use x="857.929688" xlink:href="#DejaVuSans-3d"/>
     <use x="941.71875" xlink:href="#DejaVuSans-20"/>
     <use x="973.505859" xlink:href="#DejaVuSans-61"/>
     <use x="1034.785156" xlink:href="#DejaVuSans-2a"/>
     <use x="1084.785156" xlink:href="#DejaVuSans-65"/>
     <use x="1146.292969" xlink:href="#DejaVuSans-78"/>
     <use x="1205.472656" xlink:href="#DejaVuSans-70"/>
     <use x="1268.949219" xlink:href="#DejaVuSans-28"/>
     <use x="1307.962891" xlink:href="#DejaVuSans-2d"/>
     <use x="1344.046875" xlink:href="#DejaVuSans-28"/>
     <use x="1383.060547" xlink:href="#DejaVuSans-78"/>
     <use x="1442.240234" xlink:href="#DejaVuSans-2d"/>
     <use x="1478.324219" xlink:href="#DejaVuSans-78"/>
     <use x="1537.503906" xlink:href="#DejaVuSans-30"/>
     <use x="1601.126953" xlink:href="#DejaVuSans-29"/>
     <use x="1640.140625" xlink:href="#DejaVuSans-2a"/>
     <use x="1690.140625" xlink:href="#DejaVuSans-2a"/>
     <use x="1740.140625" xlink:href="#DejaVuSans-32"/>
     <use x="1803.763672" xlink:href="#DejaVuSans-2f"/>
     <use x="1837.455078" xlink:href="#DejaVuSans-77"/>
     <use x="1919.242188" xlink:href="#DejaVuSans-2a"/>
     <use x="1969.242188" xlink:href="#DejaVuSans-2a"/>
     <use x="2019.242188" xlink:href="#DejaVuSans-32"/>
     <use x="2082.865234" xlink:href="#DejaVuSans-29"/>
     <use x="2121.878906" xlink:href="#DejaVuSans-2b"/>
     <use x="2205.667969" xlink:href="#DejaVuSans-62"/>
    </g>
    <!-- Fit: a=469.0$\pm$8.5, b=26.9$\pm$9.6, x0=4.64337$\pm$0.00095, -->
    <defs>
     <path d="M 37.796875 64.3125 
L 12.890625 25.390625 
L 37.796875 25.390625 
z
M 35.203125 72.90625 
L 47.609375 72.90625 
L 47.609375 25.390625 
L 58.015625 25.390625 
L 58.015625 17.1875 
L 47.609375 17.1875 
L 47.609375 0 
L 37.796875 0 
L 37.796875 17.1875 
L 4.890625 17.1875 
L 4.890625 26.703125 
z
" id="DejaVuSans-34"/>
     <path d="M 33.015625 40.375 
Q 26.375 40.375 22.484375 35.828125 
Q 18.609375 31.296875 18.609375 23.390625 
Q 18.609375 15.53125 22.484375 10.953125 
Q 26.375 6.390625 33.015625 6.390625 
Q 39.65625 6.390625 43.53125 10.953125 
Q 47.40625 15.53125 47.40625 23.390625 
Q 47.40625 31.296875 43.53125 35.828125 
Q 39.65625 40.375 33.015625 40.375 
z
M 52.59375 71.296875 
L 52.59375 62.3125 
Q 48.875 64.0625 45.09375 64.984375 
Q 41.3125 65.921875 37.59375 65.921875 
Q 27.828125 65.921875 22.671875 59.328125 
Q 17.53125 52.734375 16.796875 39.40625 
Q 19.671875 43.65625 24.015625 45.921875 
Q 28.375 48.1875 33.59375 48.1875 
Q 44.578125 48.1875 50.953125 41.515625 
Q 57.328125 34.859375 57.328125 23.390625 
Q 57.328125 12.15625 50.6875 5.359375 
Q 44.046875 -1.421875 33.015625 -1.421875 
Q 20.359375 -1.421875 13.671875 8.265625 
Q 6.984375 17.96875 6.984375 36.375 
Q 6.984375 53.65625 15.1875 63.9375 
Q 23.390625 74.21875 37.203125 74.21875 
Q 40.921875 74.21875 44.703125 73.484375 
Q 48.484375 72.75 52.59375 71.296875 
z
" id="DejaVuSans-36"/>
     <path d="M 10.984375 1.515625 
L 10.984375 10.5 
Q 14.703125 8.734375 18.5 7.8125 
Q 22.3125 6.890625 25.984375 6.890625 
Q 35.75 6.890625 40.890625 13.453125 
Q 46.046875 20.015625 46.78125 33.40625 
Q 43.953125 29.203125 39.59375 26.953125 
Q 35.25 24.703125 29.984375 24.703125 
Q 19.046875 24.703125 12.671875 31.3125 
Q 6.296875 37.9375 6.296875 49.421875 
Q 6.296875 60.640625 12.9375 67.421875 
Q 19.578125 74.21875 30.609375 74.21875 
Q 43.265625 74.21875 49.921875 64.515625 
Q 56.59375 54.828125 56.59375 36.375 
Q 56.59375 19.140625 48.40625 8.859375 
Q 40.234375 -1.421875 26.421875 -1.421875 
Q 22.703125 -1.421875 18.890625 -0.6875 
Q 15.09375 0.046875 10.984375 1.515625 
z
M 30.609375 32.421875 
Q 37.25 32.421875 41.125 36.953125 
Q 45.015625 41.5 45.015625 49.421875 
Q 45.015625 57.28125 41.125 61.84375 
Q 37.25 66.40625 30.609375 66.40625 
Q 23.96875 66.40625 20.09375 61.84375 
Q 16.21875 57.28125 16.21875 49.421875 
Q 16.21875 41.5 20.09375 36.953125 
Q 23.96875 32.421875 30.609375 32.421875 
z
" id="DejaVuSans-39"/>
     <path d="M 10.6875 12.40625 
L 21 12.40625 
L 21 0 
L 10.6875 0 
z
" id="DejaVuSans-2e"/>
     <path d="M 46 62.703125 
L 46 43.796875 
L 73.1875 43.796875 
L 73.1875 35.5 
L 46 35.5 
L 46 16.609375 
L 37.796875 16.609375 
L 37.796875 35.5 
L 10.59375 35.5 
L 10.59375 43.796875 
L 37.796875 43.796875 
L 37.796875 62.703125 
z
M 10.59375 8.296875 
L 73.1875 8.296875 
L 73.1875 0 
L 10.59375 0 
z
" id="DejaVuSans-b1"/>
     <path d="M 31.78125 34.625 
Q 24.75 34.625 20.71875 30.859375 
Q 16.703125 27.09375 16.703125 20.515625 
Q 16.703125 13.921875 20.71875 10.15625 
Q 24.75 6.390625 31.78125 6.390625 
Q 38.8125 6.390625 42.859375 10.171875 
Q 46.921875 13.96875 46.921875 20.515625 
Q 46.921875 27.09375 42.890625 30.859375 
Q 38.875 34.625 31.78125 34.625 
z
M 21.921875 38.8125 
Q 15.578125 40.375 12.03125 44.71875 
Q 8.5 49.078125 8.5 55.328125 
Q 8.5 64.0625 14.71875 69.140625 
Q 20.953125 74.21875 31.78125 74.21875 
Q 42.671875 74.21875 48.875 69.140625 
Q 55.078125 64.0625 55.078125 55.328125 
Q 55.078125 49.078125 51.53125 44.71875 
Q 48 40.375 41.703125 38.8125 
Q 48.828125 37.15625 52.796875 32.3125 
Q 56.78125 27.484375 56.78125 20.515625 
Q 56.78125 9.90625 50.3125 4.234375 
Q 43.84375 -1.421875 31.78125 -1.421875 
Q 19.734375 -1.421875 13.25 4.234375 
Q 6.78125 9.90625 6.78125 20.515625 
Q 6.78125 27.484375 10.78125 32.3125 
Q 14.796875 37.15625 21.921875 38.8125 
z
M 18.3125 54.390625 
Q 18.3125 48.734375 21.84375 45.5625 
Q 25.390625 42.390625 31.78125 42.390625 
Q 38.140625 42.390625 41.71875 45.5625 
Q 45.3125 48.734375 45.3125 54.390625 
Q 45.3125 60.0625 41.71875 63.234375 
Q 38.140625 66.40625 31.78125 66.40625 
Q 25.390625 66.40625 21.84375 63.234375 
Q 18.3125 60.0625 18.3125 54.390625 
z
" id="DejaVuSans-38"/>
     <path d="M 10.796875 72.90625 
L 49.515625 72.90625 
L 49.515625 64.59375 
L 19.828125 64.59375 
L 19.828125 46.734375 
Q 21.96875 47.46875 24.109375 47.828125 
Q 26.265625 48.1875 28.421875 48.1875 
Q 40.625 48.1875 47.75 41.5 
Q 54.890625 34.8125 54.890625 23.390625 
Q 54.890625 11.625 47.5625 5.09375 
Q 40.234375 -1.421875 26.90625 -1.421875 
Q 22.3125 -1.421875 17.546875 -0.640625 
Q 12.796875 0.140625 7.71875 1.703125 
L 7.71875 11.625 
Q 12.109375 9.234375 16.796875 8.0625 
Q 21.484375 6.890625 26.703125 6.890625 
Q 35.15625 6.890625 40.078125 11.328125 
Q 45.015625 15.765625 45.015625 23.390625 
Q 45.015625 31 40.078125 35.4375 
Q 35.15625 39.890625 26.703125 39.890625 
Q 22.75 39.890625 18.8125 39.015625 
Q 14.890625 38.140625 10.796875 36.28125 
z
" id="DejaVuSans-35"/>
     <path d="M 11.71875 12.40625 
L 22.015625 12.40625 
L 22.015625 4 
L 14.015625 -11.625 
L 7.71875 -11.625 
L 11.71875 4 
z
" id="DejaVuSans-2c"/>
     <path d="M 40.578125 39.3125 
Q 47.65625 37.796875 51.625 33 
Q 55.609375 28.21875 55.609375 21.1875 
Q 55.609375 10.40625 48.1875 4.484375 
Q 40.765625 -1.421875 27.09375 -1.421875 
Q 22.515625 -1.421875 17.65625 -0.515625 
Q 12.796875 0.390625 7.625 2.203125 
L 7.625 11.71875 
Q 11.71875 9.328125 16.59375 8.109375 
Q 21.484375 6.890625 26.8125 6.890625 
Q 36.078125 6.890625 40.9375 10.546875 
Q 45.796875 14.203125 45.796875 21.1875 
Q 45.796875 27.640625 41.28125 31.265625 
Q 36.765625 34.90625 28.71875 34.90625 
L 20.21875 34.90625 
L 20.21875 43.015625 
L 29.109375 43.015625 
Q 36.375 43.015625 40.234375 45.921875 
Q 44.09375 48.828125 44.09375 54.296875 
Q 44.09375 59.90625 40.109375 62.90625 
Q 36.140625 65.921875 28.71875 65.921875 
Q 24.65625 65.921875 20.015625 65.03125 
Q 15.375 64.15625 9.8125 62.3125 
L 9.8125 71.09375 
Q 15.4375 72.65625 20.34375 73.4375 
Q 25.25 74.21875 29.59375 74.21875 
Q 40.828125 74.21875 47.359375 69.109375 
Q 53.90625 64.015625 53.90625 55.328125 
Q 53.90625 49.265625 50.4375 45.09375 
Q 46.96875 40.921875 40.578125 39.3125 
z
" id="DejaVuSans-33"/>
     <path d="M 8.203125 72.90625 
L 55.078125 72.90625 
L 55.078125 68.703125 
L 28.609375 0 
L 18.3125 0 
L 43.21875 64.59375 
L 8.203125 64.59375 
z
" id="DejaVuSans-37"/>
    </defs>
    <g transform="translate(147.528 45.888588)scale(0.1 -0.1)">
     <use transform="translate(0 0.015625)" xlink:href="#DejaVuSans-46"/>
     <use transform="translate(57.519531 0.015625)" xlink:href="#DejaVuSans-69"/>
     <use transform="translate(85.302734 0.015625)" xlink:href="#DejaVuSans-74"/>
     <use transform="translate(124.511719 0.015625)" xlink:href="#DejaVuSans-3a"/>
     <use transform="translate(158.203125 0.015625)" xlink:href="#DejaVuSans-20"/>
     <use transform="translate(189.990234 0.015625)" xlink:href="#DejaVuSans-61"/>
     <use transform="translate(251.269531 0.015625)" xlink:href="#DejaVuSans-3d"/>
     <use transform="translate(335.058594 0.015625)" xlink:href="#DejaVuSans-34"/>
     <use transform="translate(398.681641 0.015625)" xlink:href="#DejaVuSans-36"/>
     <use transform="translate(462.304688 0.015625)" xlink:href="#DejaVuSans-39"/>
     <use transform="translate(525.927734 0.015625)" xlink:href="#DejaVuSans-2e"/>
     <use transform="translate(557.714844 0.015625)" xlink:href="#DejaVuSans-30"/>
     <use transform="translate(621.337891 0.015625)" xlink:href="#DejaVuSans-b1"/>
     <use transform="translate(705.126953 0.015625)" xlink:href="#DejaVuSans-38"/>
     <use transform="translate(768.75 0.015625)" xlink:href="#DejaVuSans-2e"/>
     <use transform="translate(800.537109 0.015625)" xlink:href="#DejaVuSans-35"/>
     <use transform="translate(864.160156 0.015625)" xlink:href="#DejaVuSans-2c"/>
     <use transform="translate(895.947266 0.015625)" xlink:href="#DejaVuSans-20"/>
     <use transform="translate(927.734375 0.015625)" xlink:href="#DejaVuSans-62"/>
     <use transform="translate(991.210938 0.015625)" xlink:href="#DejaVuSans-3d"/>
     <use transform="translate(1075 0.015625)" xlink:href="#DejaVuSans-32"/>
     <use transform="translate(1138.623047 0.015625)" xlink:href="#DejaVuSans-36"/>
     <use transform="translate(1202.246094 0.015625)" xlink:href="#DejaVuSans-2e"/>
     <use transform="translate(1234.033203 0.015625)" xlink:href="#DejaVuSans-39"/>
     <use transform="translate(1297.65625 0.015625)" xlink:href="#DejaVuSans-b1"/>
     <use transform="translate(1381.445312 0.015625)" xlink:href="#DejaVuSans-39"/>
     <use transform="translate(1445.068359 0.015625)" xlink:href="#DejaVuSans-2e"/>
     <use transform="translate(1476.855469 0.015625)" xlink:href="#DejaVuSans-36"/>
     <use transform="translate(1540.478516 0.015625)" xlink:href="#DejaVuSans-2c"/>
     <use transform="translate(1572.265625 0.015625)" xlink:href="#DejaVuSans-20"/>
     <use transform="translate(1604.052734 0.015625)" xlink:href="#DejaVuSans-78"/>
     <use transform="translate(1663.232422 0.015625)" xlink:href="#DejaVuSans-30"/>
     <use transform="translate(1726.855469 0.015625)" xlink:href="#DejaVuSans-3d"/>
     <use transform="translate(1810.644531 0.015625)" xlink:href="#DejaVuSans-34"/>
     <use transform="translate(1874.267578 0.015625)" xlink:href="#DejaVuSans-2e"/>
     <use transform="translate(1906.054688 0.015625)" xlink:href="#DejaVuSans-36"/>
     <use transform="translate(1969.677734 0.015625)" xlink:href="#DejaVuSans-34"/>
     <use transform="translate(2033.300781 0.015625)" xlink:href="#DejaVuSans-33"/>
     <use transform="translate(2096.923828 0.015625)" xlink:href="#DejaVuSans-33"/>
     <use transform="translate(2160.546875 0.015625)" xlink:href="#DejaVuSans-37"/>
     <use transform="translate(2224.169922 0.015625)" xlink:href="#DejaVuSans-b1"/>
     <use transform="translate(2307.958984 0.015625)" xlink:href="#DejaVuSans-30"/>
     <use transform="translate(2371.582031 0.015625)" xlink:href="#DejaVuSans-2e"/>
     <use transform="translate(2403.369141 0.015625)" xlink:href="#DejaVuSans-30"/>
     <use transform="translate(2466.992188 0.015625)" xlink:href="#DejaVuSans-30"/>
     <use transform="translate(2530.615234 0.015625)" xlink:href="#DejaVuSans-30"/>
     <use transform="translate(2594.238281 0.015625)" xlink:href="#DejaVuSans-39"/>
     <use transform="translate(2657.861328 0.015625)" xlink:href="#DejaVuSans-35"/>
     <use transform="translate(2721.484375 0.015625)" xlink:href="#DejaVuSans-2c"/>
    </g>
    <!--       w=0.1654$\pm$0.0042, -->
    <g transform="translate(147.528 57.0864)scale(0.1 -0.1)">
     <use transform="translate(0 0.78125)" xlink:href="#DejaVuSans-20"/>
     <use transform="translate(31.787109 0.78125)" xlink:href="#DejaVuSans-20"/>
     <use transform="translate(63.574219 0.78125)" xlink:href="#DejaVuSans-20"/>
     <use transform="translate(95.361328 0.78125)" xlink:href="#DejaVuSans-20"/>
     <use transform="translate(127.148438 0.78125)" xlink:href="#DejaVuSans-20"/>
     <use transform="translate(158.935547 0.78125)" xlink:href="#DejaVuSans-20"/>
     <use transform="translate(190.722656 0.78125)" xlink:href="#DejaVuSans-77"/>
     <use transform="translate(272.509766 0.78125)" xlink:href="#DejaVuSans-3d"/>
     <use transform="translate(356.298828 0.78125)" xlink:href="#DejaVuSans-30"/>
     <use transform="translate(419.921875 0.78125)" xlink:href="#DejaVuSans-2e"/>
     <use transform="translate(451.708984 0.78125)" xlink:href="#DejaVuSans-31"/>
     <use transform="translate(515.332031 0.78125)" xlink:href="#DejaVuSans-36"/>
     <use transform="translate(578.955078 0.78125)" xlink:href="#DejaVuSans-35"/>
     <use transform="translate(642.578125 0.78125)" xlink:href="#DejaVuSans-34"/>
     <use transform="translate(706.201172 0.78125)" xlink:href="#DejaVuSans-b1"/>
     <use transform="translate(789.990234 0.78125)" xlink:href="#DejaVuSans-30"/>
     <use transform="translate(853.613281 0.78125)" xlink:href="#DejaVuSans-2e"/>
     <use transform="translate(885.400391 0.78125)" xlink:href="#DejaVuSans-30"/>
     <use transform="translate(949.023438 0.78125)" xlink:href="#DejaVuSans-30"/>
     <use transform="translate(1012.646484 0.78125)" xlink:href="#DejaVuSans-34"/>
     <use transform="translate(1076.269531 0.78125)" xlink:href="#DejaVuSans-32"/>
     <use transform="translate(1139.892578 0.78125)" xlink:href="#DejaVuSans-2c"/>
    </g>
   </g>
  </g>
  <g id="axes_2">
   <g id="patch_7">
    <path d="M 147.528 436.752 
L 885.168 436.752 
L 885.168 145.584 
L 147.528 145.584 
z
" style="fill:#ffffff;"/>
   </g>
   <g id="matplotlib.axis_3">
    <g id="xtick_7">
     <g id="line2d_12">
      <g>
       <use style="stroke:#000000;stroke-width:0.8;" x="169.867597" xlink:href="#md3d8e25504" y="436.752"/>
      </g>
     </g>
     <g id="text_5">
      <!-- 4.4 -->
      <g transform="translate(160.325722 452.870125)scale(0.12 -0.12)">
       <use xlink:href="#DejaVuSans-34"/>
       <use x="63.623047" xlink:href="#DejaVuSans-2e"/>
       <use x="95.410156" xlink:href="#DejaVuSans-34"/>
      </g>
     </g>
    </g>
    <g id="xtick_8">
     <g id="line2d_13">
      <g>
       <use style="stroke:#000000;stroke-width:0.8;" x="311.612395" xlink:href="#md3d8e25504" y="436.752"/>
      </g>
     </g>
     <g id="text_6">
      <!-- 4.5 -->
      <g transform="translate(302.07052 452.870125)scale(0.12 -0.12)">
       <use xlink:href="#DejaVuSans-34"/>
       <use x="63.623047" xlink:href="#DejaVuSans-2e"/>
       <use x="95.410156" xlink:href="#DejaVuSans-35"/>
      </g>
     </g>
    </g>
    <g id="xtick_9">
     <g id="line2d_14">
      <g>
       <use style="stroke:#000000;stroke-width:0.8;" x="453.357192" xlink:href="#md3d8e25504" y="436.752"/>
      </g>
     </g>
     <g id="text_7">
      <!-- 4.6 -->
      <g transform="translate(443.815317 452.870125)scale(0.12 -0.12)">
       <use xlink:href="#DejaVuSans-34"/>
       <use x="63.623047" xlink:href="#DejaVuSans-2e"/>
       <use x="95.410156" xlink:href="#DejaVuSans-36"/>
      </g>
     </g>
    </g>
    <g id="xtick_10">
     <g id="line2d_15">
      <g>
       <use style="stroke:#000000;stroke-width:0.8;" x="595.101989" xlink:href="#md3d8e25504" y="436.752"/>
      </g>
     </g>
     <g id="text_8">
      <!-- 4.7 -->
      <g transform="translate(585.560114 452.870125)scale(0.12 -0.12)">
       <use xlink:href="#DejaVuSans-34"/>
       <use x="63.623047" xlink:href="#DejaVuSans-2e"/>
       <use x="95.410156" xlink:href="#DejaVuSans-37"/>
      </g>
     </g>
    </g>
    <g id="xtick_11">
     <g id="line2d_16">
      <g>
       <use style="stroke:#000000;stroke-width:0.8;" x="736.846787" xlink:href="#md3d8e25504" y="436.752"/>
      </g>
     </g>
     <g id="text_9">
      <!-- 4.8 -->
      <g transform="translate(727.304912 452.870125)scale(0.12 -0.12)">
       <use xlink:href="#DejaVuSans-34"/>
       <use x="63.623047" xlink:href="#DejaVuSans-2e"/>
       <use x="95.410156" xlink:href="#DejaVuSans-38"/>
      </g>
     </g>
    </g>
    <g id="xtick_12">
     <g id="line2d_17">
      <g>
       <use style="stroke:#000000;stroke-width:0.8;" x="878.591584" xlink:href="#md3d8e25504" y="436.752"/>
      </g>
     </g>
     <g id="text_10">
      <!-- 4.9 -->
      <g transform="translate(869.049709 452.870125)scale(0.12 -0.12)">
       <use xlink:href="#DejaVuSans-34"/>
       <use x="63.623047" xlink:href="#DejaVuSans-2e"/>
       <use x="95.410156" xlink:href="#DejaVuSans-39"/>
      </g>
     </g>
    </g>
    <g id="text_11">
     <!-- Energy [MeV] -->
     <defs>
      <path d="M 9.8125 72.90625 
L 55.90625 72.90625 
L 55.90625 64.59375 
L 19.671875 64.59375 
L 19.671875 43.015625 
L 54.390625 43.015625 
L 54.390625 34.71875 
L 19.671875 34.71875 
L 19.671875 8.296875 
L 56.78125 8.296875 
L 56.78125 0 
L 9.8125 0 
z
" id="DejaVuSans-45"/>
      <path d="M 41.109375 46.296875 
Q 39.59375 47.171875 37.8125 47.578125 
Q 36.03125 48 33.890625 48 
Q 26.265625 48 22.1875 43.046875 
Q 18.109375 38.09375 18.109375 28.8125 
L 18.109375 0 
L 9.078125 0 
L 9.078125 54.6875 
L 18.109375 54.6875 
L 18.109375 46.1875 
Q 20.953125 51.171875 25.484375 53.578125 
Q 30.03125 56 36.53125 56 
Q 37.453125 56 38.578125 55.875 
Q 39.703125 55.765625 41.0625 55.515625 
z
" id="DejaVuSans-72"/>
      <path d="M 45.40625 27.984375 
Q 45.40625 37.75 41.375 43.109375 
Q 37.359375 48.484375 30.078125 48.484375 
Q 22.859375 48.484375 18.828125 43.109375 
Q 14.796875 37.75 14.796875 27.984375 
Q 14.796875 18.265625 18.828125 12.890625 
Q 22.859375 7.515625 30.078125 7.515625 
Q 37.359375 7.515625 41.375 12.890625 
Q 45.40625 18.265625 45.40625 27.984375 
z
M 54.390625 6.78125 
Q 54.390625 -7.171875 48.1875 -13.984375 
Q 42 -20.796875 29.203125 -20.796875 
Q 24.46875 -20.796875 20.265625 -20.09375 
Q 16.0625 -19.390625 12.109375 -17.921875 
L 12.109375 -9.1875 
Q 16.0625 -11.328125 19.921875 -12.34375 
Q 23.78125 -13.375 27.78125 -13.375 
Q 36.625 -13.375 41.015625 -8.765625 
Q 45.40625 -4.15625 45.40625 5.171875 
L 45.40625 9.625 
Q 42.625 4.78125 38.28125 2.390625 
Q 33.9375 0 27.875 0 
Q 17.828125 0 11.671875 7.65625 
Q 5.515625 15.328125 5.515625 27.984375 
Q 5.515625 40.671875 11.671875 48.328125 
Q 17.828125 56 27.875 56 
Q 33.9375 56 38.28125 53.609375 
Q 42.625 51.21875 45.40625 46.390625 
L 45.40625 54.6875 
L 54.390625 54.6875 
z
" id="DejaVuSans-67"/>
      <path d="M 8.59375 75.984375 
L 29.296875 75.984375 
L 29.296875 69 
L 17.578125 69 
L 17.578125 -6.203125 
L 29.296875 -6.203125 
L 29.296875 -13.1875 
L 8.59375 -13.1875 
z
" id="DejaVuSans-5b"/>
      <path d="M 9.8125 72.90625 
L 24.515625 72.90625 
L 43.109375 23.296875 
L 61.8125 72.90625 
L 76.515625 72.90625 
L 76.515625 0 
L 66.890625 0 
L 66.890625 64.015625 
L 48.09375 14.015625 
L 38.1875 14.015625 
L 19.390625 64.015625 
L 19.390625 0 
L 9.8125 0 
z
" id="DejaVuSans-4d"/>
      <path d="M 28.609375 0 
L 0.78125 72.90625 
L 11.078125 72.90625 
L 34.1875 11.53125 
L 57.328125 72.90625 
L 67.578125 72.90625 
L 39.796875 0 
z
" id="DejaVuSans-56"/>
      <path d="M 30.421875 75.984375 
L 30.421875 -13.1875 
L 9.71875 -13.1875 
L 9.71875 -6.203125 
L 21.390625 -6.203125 
L 21.390625 69 
L 9.71875 69 
L 9.71875 75.984375 
z
" id="DejaVuSans-5d"/>
     </defs>
     <g transform="translate(475.674562 468.483875)scale(0.12 -0.12)">
      <use xlink:href="#DejaVuSans-45"/>
      <use x="63.183594" xlink:href="#DejaVuSans-6e"/>
      <use x="126.5625" xlink:href="#DejaVuSans-65"/>
      <use x="188.085938" xlink:href="#DejaVuSans-72"/>
      <use x="229.183594" xlink:href="#DejaVuSans-67"/>
      <use x="292.660156" xlink:href="#DejaVuSans-79"/>
      <use x="351.839844" xlink:href="#DejaVuSans-20"/>
      <use x="383.626953" xlink:href="#DejaVuSans-5b"/>
      <use x="422.640625" xlink:href="#DejaVuSans-4d"/>
      <use x="508.919922" xlink:href="#DejaVuSans-65"/>
      <use x="570.443359" xlink:href="#DejaVuSans-56"/>
      <use x="638.851562" xlink:href="#DejaVuSans-5d"/>
     </g>
    </g>
   </g>
   <g id="matplotlib.axis_4">
    <g id="ytick_4">
     <g id="line2d_18">
      <g>
       <use style="stroke:#000000;stroke-width:0.8;" x="147.528" xlink:href="#me629474ffd" y="413.782689"/>
      </g>
     </g>
     <g id="text_12">
      <!-- 100 -->
      <g transform="translate(117.623 418.341752)scale(0.12 -0.12)">
       <use xlink:href="#DejaVuSans-31"/>
       <use x="63.623047" xlink:href="#DejaVuSans-30"/>
       <use x="127.246094" xlink:href="#DejaVuSans-30"/>
      </g>
     </g>
    </g>
    <g id="ytick_5">
     <g id="line2d_19">
      <g>
       <use style="stroke:#000000;stroke-width:0.8;" x="147.528" xlink:href="#me629474ffd" y="352.856136"/>
      </g>
     </g>
     <g id="text_13">
      <!-- 200 -->
      <g transform="translate(117.623 357.415198)scale(0.12 -0.12)">
       <use xlink:href="#DejaVuSans-32"/>
       <use x="63.623047" xlink:href="#DejaVuSans-30"/>
       <use x="127.246094" xlink:href="#DejaVuSans-30"/>
      </g>
     </g>
    </g>
    <g id="ytick_6">
     <g id="line2d_20">
      <g>
       <use style="stroke:#000000;stroke-width:0.8;" x="147.528" xlink:href="#me629474ffd" y="291.929582"/>
      </g>
     </g>
     <g id="text_14">
      <!-- 300 -->
      <g transform="translate(117.623 296.488644)scale(0.12 -0.12)">
       <use xlink:href="#DejaVuSans-33"/>
       <use x="63.623047" xlink:href="#DejaVuSans-30"/>
       <use x="127.246094" xlink:href="#DejaVuSans-30"/>
      </g>
     </g>
    </g>
    <g id="ytick_7">
     <g id="line2d_21">
      <g>
       <use style="stroke:#000000;stroke-width:0.8;" x="147.528" xlink:href="#me629474ffd" y="231.003028"/>
      </g>
     </g>
     <g id="text_15">
      <!-- 400 -->
      <g transform="translate(117.623 235.562091)scale(0.12 -0.12)">
       <use xlink:href="#DejaVuSans-34"/>
       <use x="63.623047" xlink:href="#DejaVuSans-30"/>
       <use x="127.246094" xlink:href="#DejaVuSans-30"/>
      </g>
     </g>
    </g>
    <g id="ytick_8">
     <g id="line2d_22">
      <g>
       <use style="stroke:#000000;stroke-width:0.8;" x="147.528" xlink:href="#me629474ffd" y="170.076475"/>
      </g>
     </g>
     <g id="text_16">
      <!-- 500 -->
      <g transform="translate(117.623 174.635537)scale(0.12 -0.12)">
       <use xlink:href="#DejaVuSans-35"/>
       <use x="63.623047" xlink:href="#DejaVuSans-30"/>
       <use x="127.246094" xlink:href="#DejaVuSans-30"/>
      </g>
     </g>
    </g>
    <g id="text_17">
     <!-- Counts -->
     <defs>
      <path d="M 64.40625 67.28125 
L 64.40625 56.890625 
Q 59.421875 61.53125 53.78125 63.8125 
Q 48.140625 66.109375 41.796875 66.109375 
Q 29.296875 66.109375 22.65625 58.46875 
Q 16.015625 50.828125 16.015625 36.375 
Q 16.015625 21.96875 22.65625 14.328125 
Q 29.296875 6.6875 41.796875 6.6875 
Q 48.140625 6.6875 53.78125 8.984375 
Q 59.421875 11.28125 64.40625 15.921875 
L 64.40625 5.609375 
Q 59.234375 2.09375 53.4375 0.328125 
Q 47.65625 -1.421875 41.21875 -1.421875 
Q 24.65625 -1.421875 15.125 8.703125 
Q 5.609375 18.84375 5.609375 36.375 
Q 5.609375 53.953125 15.125 64.078125 
Q 24.65625 74.21875 41.21875 74.21875 
Q 47.75 74.21875 53.53125 72.484375 
Q 59.328125 70.75 64.40625 67.28125 
z
" id="DejaVuSans-43"/>
     </defs>
     <g transform="translate(111.127375 312.11175)rotate(-90)scale(0.12 -0.12)">
      <use xlink:href="#DejaVuSans-43"/>
      <use x="69.824219" xlink:href="#DejaVuSans-6f"/>
      <use x="131.005859" xlink:href="#DejaVuSans-75"/>
      <use x="194.384766" xlink:href="#DejaVuSans-6e"/>
      <use x="257.763672" xlink:href="#DejaVuSans-74"/>
      <use x="296.972656" xlink:href="#DejaVuSans-73"/>
     </g>
    </g>
   </g>
   <g id="LineCollection_2">
    <path clip-path="url(#p2fe4d33006)" d="M 174.848 431.417437 
L 174.848 420.518563 
" style="fill:none;stroke:#0000ff;stroke-width:1.5;"/>
    <path clip-path="url(#p2fe4d33006)" d="M 183.280099 422.478377 
L 183.280099 410.570391 
" style="fill:none;stroke:#0000ff;stroke-width:1.5;"/>
    <path clip-path="url(#p2fe4d33006)" d="M 191.712198 413.499779 
L 191.712198 400.661758 
" style="fill:none;stroke:#0000ff;stroke-width:1.5;"/>
    <path clip-path="url(#p2fe4d33006)" d="M 200.144296 415.530197 
L 200.144296 402.896198 
" style="fill:none;stroke:#0000ff;stroke-width:1.5;"/>
    <path clip-path="url(#p2fe4d33006)" d="M 208.576395 417.558941 
L 208.576395 405.132313 
" style="fill:none;stroke:#0000ff;stroke-width:1.5;"/>
    <path clip-path="url(#p2fe4d33006)" d="M 217.008494 403.907464 
L 217.008494 390.14831 
" style="fill:none;stroke:#0000ff;stroke-width:1.5;"/>
    <path clip-path="url(#p2fe4d33006)" d="M 225.440593 396.03743 
L 225.440593 381.568175 
" style="fill:none;stroke:#0000ff;stroke-width:1.5;"/>
    <path clip-path="url(#p2fe4d33006)" d="M 233.872691 399.828933 
L 233.872691 385.697124 
" style="fill:none;stroke:#0000ff;stroke-width:1.5;"/>
    <path clip-path="url(#p2fe4d33006)" d="M 242.30479 391.073547 
L 242.30479 376.174544 
" style="fill:none;stroke:#0000ff;stroke-width:1.5;"/>
    <path clip-path="url(#p2fe4d33006)" d="M 250.736889 387.273543 
L 250.736889 372.054095 
" style="fill:none;stroke:#0000ff;stroke-width:1.5;"/>
    <path clip-path="url(#p2fe4d33006)" d="M 259.168988 378.492017 
L 259.168988 362.557655 
" style="fill:none;stroke:#0000ff;stroke-width:1.5;"/>
    <path clip-path="url(#p2fe4d33006)" d="M 267.601086 372.042357 
L 267.601086 355.603474 
" style="fill:none;stroke:#0000ff;stroke-width:1.5;"/>
    <path clip-path="url(#p2fe4d33006)" d="M 276.033185 365.585182 
L 276.033185 348.656807 
" style="fill:none;stroke:#0000ff;stroke-width:1.5;"/>
    <path clip-path="url(#p2fe4d33006)" d="M 284.465284 362.941594 
L 284.465284 345.817005 
" style="fill:none;stroke:#0000ff;stroke-width:1.5;"/>
    <path clip-path="url(#p2fe4d33006)" d="M 292.897383 352.944978 
L 292.897383 335.098593 
" style="fill:none;stroke:#0000ff;stroke-width:1.5;"/>
    <path clip-path="url(#p2fe4d33006)" d="M 301.329481 343.818139 
L 301.329481 325.3382 
" style="fill:none;stroke:#0000ff;stroke-width:1.5;"/>
    <path clip-path="url(#p2fe4d33006)" d="M 309.76158 335.565484 
L 309.76158 316.53142 
" style="fill:none;stroke:#0000ff;stroke-width:1.5;"/>
    <path clip-path="url(#p2fe4d33006)" d="M 318.193679 321.990826 
L 318.193679 302.079864 
" style="fill:none;stroke:#0000ff;stroke-width:1.5;"/>
    <path clip-path="url(#p2fe4d33006)" d="M 326.625778 307.510556 
L 326.625778 286.706122 
" style="fill:none;stroke:#0000ff;stroke-width:1.5;"/>
    <path clip-path="url(#p2fe4d33006)" d="M 335.057877 319.037282 
L 335.057877 298.940752 
" style="fill:none;stroke:#0000ff;stroke-width:1.5;"/>
    <path clip-path="url(#p2fe4d33006)" d="M 343.489975 300.707207 
L 343.489975 279.496364 
" style="fill:none;stroke:#0000ff;stroke-width:1.5;"/>
    <path clip-path="url(#p2fe4d33006)" d="M 351.922074 284.126965 
L 351.922074 261.957735 
" style="fill:none;stroke:#0000ff;stroke-width:1.5;"/>
    <path clip-path="url(#p2fe4d33006)" d="M 360.354173 301.298957 
L 360.354173 280.123145 
" style="fill:none;stroke:#0000ff;stroke-width:1.5;"/>
    <path clip-path="url(#p2fe4d33006)" d="M 368.786272 281.164044 
L 368.786272 258.828001 
" style="fill:none;stroke:#0000ff;stroke-width:1.5;"/>
    <path clip-path="url(#p2fe4d33006)" d="M 377.21837 274.347002 
L 377.21837 251.631936 
" style="fill:none;stroke:#0000ff;stroke-width:1.5;"/>
    <path clip-path="url(#p2fe4d33006)" d="M 385.650469 257.439498 
L 385.650469 233.811304 
" style="fill:none;stroke:#0000ff;stroke-width:1.5;"/>
    <path clip-path="url(#p2fe4d33006)" d="M 394.082568 258.626567 
L 394.082568 235.061297 
" style="fill:none;stroke:#0000ff;stroke-width:1.5;"/>
    <path clip-path="url(#p2fe4d33006)" d="M 402.514667 246.455235 
L 402.514667 222.252742 
" style="fill:none;stroke:#0000ff;stroke-width:1.5;"/>
    <path clip-path="url(#p2fe4d33006)" d="M 410.946765 231.601144 
L 410.946765 206.643557 
" style="fill:none;stroke:#0000ff;stroke-width:1.5;"/>
    <path clip-path="url(#p2fe4d33006)" d="M 419.378864 239.920867 
L 419.378864 215.383269 
" style="fill:none;stroke:#0000ff;stroke-width:1.5;"/>
    <path clip-path="url(#p2fe4d33006)" d="M 427.810963 217.92556 
L 427.810963 192.292926 
" style="fill:none;stroke:#0000ff;stroke-width:1.5;"/>
    <path clip-path="url(#p2fe4d33006)" d="M 436.243062 202.158209 
L 436.243062 175.769203 
" style="fill:none;stroke:#0000ff;stroke-width:1.5;"/>
    <path clip-path="url(#p2fe4d33006)" d="M 444.67516 212.274383 
L 444.67516 186.368057 
" style="fill:none;stroke:#0000ff;stroke-width:1.5;"/>
    <path clip-path="url(#p2fe4d33006)" d="M 453.107259 195.907803 
L 453.107259 169.225033 
" style="fill:none;stroke:#0000ff;stroke-width:1.5;"/>
    <path clip-path="url(#p2fe4d33006)" d="M 461.539358 193.823976 
L 461.539358 167.044001 
" style="fill:none;stroke:#0000ff;stroke-width:1.5;"/>
    <path clip-path="url(#p2fe4d33006)" d="M 469.971457 210.786992 
L 469.971457 184.809121 
" style="fill:none;stroke:#0000ff;stroke-width:1.5;"/>
    <path clip-path="url(#p2fe4d33006)" d="M 478.403556 181.01954 
L 478.403556 153.650019 
" style="fill:none;stroke:#0000ff;stroke-width:1.5;"/>
    <path clip-path="url(#p2fe4d33006)" d="M 486.835654 192.930854 
L 486.835654 166.109327 
" style="fill:none;stroke:#0000ff;stroke-width:1.5;"/>
    <path clip-path="url(#p2fe4d33006)" d="M 495.267753 170.294749 
L 495.267753 142.441251 
" style="fill:none;stroke:#0000ff;stroke-width:1.5;"/>
    <path clip-path="url(#p2fe4d33006)" d="M 503.699852 188.762526 
L 503.699852 161.747937 
" style="fill:none;stroke:#0000ff;stroke-width:1.5;"/>
    <path clip-path="url(#p2fe4d33006)" d="M 512.131951 184.891323 
L 512.131951 157.698689 
" style="fill:none;stroke:#0000ff;stroke-width:1.5;"/>
    <path clip-path="url(#p2fe4d33006)" d="M 520.564049 182.508755 
L 520.564049 155.207132 
" style="fill:none;stroke:#0000ff;stroke-width:1.5;"/>
    <path clip-path="url(#p2fe4d33006)" d="M 528.996148 187.869224 
L 528.996148 160.813443 
" style="fill:none;stroke:#0000ff;stroke-width:1.5;"/>
    <path clip-path="url(#p2fe4d33006)" d="M 537.428247 187.273671 
L 537.428247 160.190464 
" style="fill:none;stroke:#0000ff;stroke-width:1.5;"/>
    <path clip-path="url(#p2fe4d33006)" d="M 545.860346 209.89451 
L 545.860346 183.873807 
" style="fill:none;stroke:#0000ff;stroke-width:1.5;"/>
    <path clip-path="url(#p2fe4d33006)" d="M 554.292444 183.104417 
L 554.292444 155.830001 
" style="fill:none;stroke:#0000ff;stroke-width:1.5;"/>
    <path clip-path="url(#p2fe4d33006)" d="M 562.724543 200.670165 
L 562.724543 174.21092 
" style="fill:none;stroke:#0000ff;stroke-width:1.5;"/>
    <path clip-path="url(#p2fe4d33006)" d="M 571.156642 211.38196 
L 571.156642 185.432684 
" style="fill:none;stroke:#0000ff;stroke-width:1.5;"/>
    <path clip-path="url(#p2fe4d33006)" d="M 579.588741 212.57185 
L 579.588741 186.679856 
" style="fill:none;stroke:#0000ff;stroke-width:1.5;"/>
    <path clip-path="url(#p2fe4d33006)" d="M 588.02084 194.717067 
L 588.02084 167.978707 
" style="fill:none;stroke:#0000ff;stroke-width:1.5;"/>
    <path clip-path="url(#p2fe4d33006)" d="M 596.452938 228.331721 
L 596.452938 203.211059 
" style="fill:none;stroke:#0000ff;stroke-width:1.5;"/>
    <path clip-path="url(#p2fe4d33006)" d="M 604.885037 226.548177 
L 604.885037 201.33901 
" style="fill:none;stroke:#0000ff;stroke-width:1.5;"/>
    <path clip-path="url(#p2fe4d33006)" d="M 613.317136 231.898338 
L 613.317136 206.955629 
" style="fill:none;stroke:#0000ff;stroke-width:1.5;"/>
    <path clip-path="url(#p2fe4d33006)" d="M 621.749235 233.38424 
L 621.749235 208.516054 
" style="fill:none;stroke:#0000ff;stroke-width:1.5;"/>
    <path clip-path="url(#p2fe4d33006)" d="M 630.181333 234.572881 
L 630.181333 209.764475 
" style="fill:none;stroke:#0000ff;stroke-width:1.5;"/>
    <path clip-path="url(#p2fe4d33006)" d="M 638.613432 249.127714 
L 638.613432 225.063653 
" style="fill:none;stroke:#0000ff;stroke-width:1.5;"/>
    <path clip-path="url(#p2fe4d33006)" d="M 647.045531 263.670661 
L 647.045531 240.374718 
" style="fill:none;stroke:#0000ff;stroke-width:1.5;"/>
    <path clip-path="url(#p2fe4d33006)" d="M 655.47763 264.263981 
L 655.47763 240.999928 
" style="fill:none;stroke:#0000ff;stroke-width:1.5;"/>
    <path clip-path="url(#p2fe4d33006)" d="M 663.909728 276.125667 
L 663.909728 253.508864 
" style="fill:none;stroke:#0000ff;stroke-width:1.5;"/>
    <path clip-path="url(#p2fe4d33006)" d="M 672.341827 299.819527 
L 672.341827 278.556247 
" style="fill:none;stroke:#0000ff;stroke-width:1.5;"/>
    <path clip-path="url(#p2fe4d33006)" d="M 680.773926 295.084158 
L 680.773926 273.543368 
" style="fill:none;stroke:#0000ff;stroke-width:1.5;"/>
    <path clip-path="url(#p2fe4d33006)" d="M 689.206025 318.74188 
L 689.206025 298.626888 
" style="fill:none;stroke:#0000ff;stroke-width:1.5;"/>
    <path clip-path="url(#p2fe4d33006)" d="M 697.638123 308.69334 
L 697.638123 287.9604 
" style="fill:none;stroke:#0000ff;stroke-width:1.5;"/>
    <path clip-path="url(#p2fe4d33006)" d="M 706.070222 319.628059 
L 706.070222 299.568506 
" style="fill:none;stroke:#0000ff;stroke-width:1.5;"/>
    <path clip-path="url(#p2fe4d33006)" d="M 714.502321 326.419497 
L 714.502321 306.790175 
" style="fill:none;stroke:#0000ff;stroke-width:1.5;"/>
    <path clip-path="url(#p2fe4d33006)" d="M 722.93442 336.74493 
L 722.93442 317.789036 
" style="fill:none;stroke:#0000ff;stroke-width:1.5;"/>
    <path clip-path="url(#p2fe4d33006)" d="M 731.366519 347.941303 
L 731.366519 329.744754 
" style="fill:none;stroke:#0000ff;stroke-width:1.5;"/>
    <path clip-path="url(#p2fe4d33006)" d="M 739.798617 352.356488 
L 739.798617 334.468551 
" style="fill:none;stroke:#0000ff;stroke-width:1.5;"/>
    <path clip-path="url(#p2fe4d33006)" d="M 748.230716 355.886692 
L 748.230716 338.249534 
" style="fill:none;stroke:#0000ff;stroke-width:1.5;"/>
    <path clip-path="url(#p2fe4d33006)" d="M 756.662815 367.934073 
L 756.662815 351.18204 
" style="fill:none;stroke:#0000ff;stroke-width:1.5;"/>
    <path clip-path="url(#p2fe4d33006)" d="M 765.094914 370.868864 
L 765.094914 354.339904 
" style="fill:none;stroke:#0000ff;stroke-width:1.5;"/>
    <path clip-path="url(#p2fe4d33006)" d="M 773.527012 371.16226 
L 773.527012 354.655774 
" style="fill:none;stroke:#0000ff;stroke-width:1.5;"/>
    <path clip-path="url(#p2fe4d33006)" d="M 781.959111 390.781361 
L 781.959111 375.857464 
" style="fill:none;stroke:#0000ff;stroke-width:1.5;"/>
    <path clip-path="url(#p2fe4d33006)" d="M 790.39121 393.702269 
L 790.39121 379.029212 
" style="fill:none;stroke:#0000ff;stroke-width:1.5;"/>
    <path clip-path="url(#p2fe4d33006)" d="M 798.823309 392.82622 
L 798.823309 378.077463 
" style="fill:none;stroke:#0000ff;stroke-width:1.5;"/>
    <path clip-path="url(#p2fe4d33006)" d="M 807.255407 406.526664 
L 807.255407 393.0125 
" style="fill:none;stroke:#0000ff;stroke-width:1.5;"/>
    <path clip-path="url(#p2fe4d33006)" d="M 815.687506 410.01539 
L 815.687506 396.834961 
" style="fill:none;stroke:#0000ff;stroke-width:1.5;"/>
    <path clip-path="url(#p2fe4d33006)" d="M 824.119605 421.611056 
L 824.119605 409.609916 
" style="fill:none;stroke:#0000ff;stroke-width:1.5;"/>
    <path clip-path="url(#p2fe4d33006)" d="M 832.551704 424.211909 
L 832.551704 412.492452 
" style="fill:none;stroke:#0000ff;stroke-width:1.5;"/>
    <path clip-path="url(#p2fe4d33006)" d="M 840.983802 429.690877 
L 840.983802 418.58953 
" style="fill:none;stroke:#0000ff;stroke-width:1.5;"/>
    <path clip-path="url(#p2fe4d33006)" d="M 849.415901 421.611056 
L 849.415901 409.609916 
" style="fill:none;stroke:#0000ff;stroke-width:1.5;"/>
    <path clip-path="url(#p2fe4d33006)" d="M 857.848 430.842124 
L 857.848 419.875345 
" style="fill:none;stroke:#0000ff;stroke-width:1.5;"/>
   </g>
   <g id="line2d_23">
    <path clip-path="url(#p2fe4d33006)" d="M 174.848 474.541181 
L 200.82798 474.265821 
L 219.287439 473.861111 
L 233.644797 473.337297 
L 245.951103 472.670894 
L 256.206358 471.906638 
L 265.77793 470.972233 
L 273.982134 469.961551 
L 281.502655 468.831354 
L 289.023175 467.472967 
L 295.860012 466.010059 
L 302.013165 464.482958 
L 308.166318 462.733004 
L 314.319471 460.736355 
L 319.788941 458.734378 
L 325.25841 456.499872 
L 330.72788 454.01453 
L 336.197349 451.259905 
L 340.983135 448.614261 
L 345.768921 445.736258 
L 350.554707 442.6141 
L 355.340492 439.236463 
L 360.126278 435.592654 
L 364.912064 431.67278 
L 369.69785 427.467926 
L 374.483636 422.970335 
L 379.269421 418.173597 
L 384.055207 413.072838 
L 388.840993 407.66491 
L 393.626779 401.948573 
L 399.096248 395.039167 
L 404.565718 387.733029 
L 410.035187 380.039217 
L 415.504657 371.971217 
L 421.65781 362.470212 
L 427.810963 352.551836 
L 434.6478 341.092092 
L 442.16832 328.031271 
L 451.056208 312.124663 
L 465.413566 285.868213 
L 478.403556 262.266227 
L 486.60776 247.834224 
L 493.444597 236.284833 
L 498.914066 227.453144 
L 504.383536 219.056748 
L 509.169321 212.118573 
L 513.955107 205.606338 
L 518.057209 200.394266 
L 522.159311 195.549244 
L 526.261413 191.094117 
L 529.679832 187.694733 
L 533.09825 184.592273 
L 536.516669 181.7972 
L 539.935087 179.319007 
L 543.353506 177.166159 
L 546.08824 175.683136 
L 548.822975 174.416363 
L 551.55771 173.368646 
L 554.292444 172.542311 
L 557.027179 171.939197 
L 559.761914 171.560647 
L 562.496649 171.407507 
L 565.231383 171.480118 
L 567.966118 171.778317 
L 570.700853 172.301441 
L 573.435588 173.048321 
L 576.170322 174.017296 
L 578.905057 175.206212 
L 581.639792 176.612433 
L 584.374527 178.232851 
L 587.792945 180.554107 
L 591.211363 183.196483 
L 594.629782 186.150979 
L 598.0482 189.407595 
L 601.466619 192.955393 
L 604.885037 196.782555 
L 608.987139 201.726069 
L 613.089241 207.030404 
L 617.191343 212.670966 
L 621.977129 219.642144 
L 626.762915 226.993284 
L 632.232384 235.80342 
L 638.385538 246.155829 
L 645.222374 258.092851 
L 654.110262 274.084268 
L 684.876028 329.924358 
L 692.396549 342.922747 
L 699.233385 354.313628 
L 705.386539 364.161796 
L 711.539692 373.586238 
L 717.009161 381.581952 
L 722.478631 389.200464 
L 727.9481 396.42918 
L 733.41757 403.259882 
L 738.203355 408.906917 
L 742.989141 414.245646 
L 747.774927 419.277753 
L 752.560713 424.00679 
L 757.346498 428.437995 
L 762.132284 432.578094 
L 766.91807 436.435122 
L 771.703856 440.01823 
L 776.489642 443.337505 
L 781.275427 446.403796 
L 786.061213 449.228547 
L 790.846999 451.823638 
L 796.316468 454.523863 
L 801.785938 456.958432 
L 807.255407 459.145782 
L 812.724877 461.104169 
L 818.87803 463.055939 
L 825.031183 464.765258 
L 831.184336 466.255772 
L 838.021173 467.682504 
L 845.541694 469.00615 
L 853.062214 470.106444 
L 857.848 470.705088 
L 857.848 470.705088 
" style="fill:none;stroke:#404040;stroke-linecap:square;stroke-width:1.5;"/>
   </g>
   <g id="line2d_24">
    <path clip-path="url(#p2fe4d33006)" d="M 174.848 423.447274 
L 182.368521 420.085702 
L 189.889041 416.486319 
L 197.409562 412.642238 
L 204.930082 408.547509 
L 212.450603 404.19726 
L 219.971123 399.587829 
L 227.491644 394.716907 
L 235.012164 389.583671 
L 242.532685 384.188911 
L 250.053205 378.535158 
L 258.257409 372.077252 
L 266.461614 365.324736 
L 274.665818 358.288876 
L 283.553706 350.363602 
L 292.441594 342.144911 
L 302.013165 332.996532 
L 312.26842 322.895803 
L 324.574727 310.443672 
L 339.615768 294.886997 
L 375.851003 257.267303 
L 386.789942 246.292292 
L 396.361514 236.990879 
L 404.565718 229.302694 
L 412.086238 222.528751 
L 419.606759 216.053623 
L 426.443596 210.456084 
L 433.280432 205.160228 
L 439.433586 200.672285 
L 445.586739 196.465833 
L 451.056208 192.976255 
L 456.525678 189.732743 
L 461.995147 186.745405 
L 467.464617 184.023628 
L 472.934086 181.576025 
L 477.719872 179.665432 
L 482.505658 177.975422 
L 487.291443 176.510156 
L 492.077229 175.273258 
L 496.863015 174.267796 
L 501.648801 173.496269 
L 506.434587 172.960602 
L 511.220372 172.66213 
L 516.006158 172.6016 
L 520.791944 172.779163 
L 525.57773 173.194376 
L 530.363516 173.8462 
L 535.149301 174.733011 
L 539.935087 175.8526 
L 544.720873 177.202187 
L 549.506659 178.778428 
L 554.292444 180.577435 
L 559.07823 182.594785 
L 564.5477 185.161334 
L 570.017169 187.998449 
L 575.486639 191.097179 
L 580.956108 194.44782 
L 586.425578 198.039968 
L 592.578731 202.356027 
L 598.731884 206.947115 
L 605.568721 212.349625 
L 612.405558 218.045102 
L 619.926078 224.617543 
L 628.130282 232.114254 
L 637.01817 240.567322 
L 646.589742 249.988582 
L 658.212364 261.765408 
L 673.253405 277.348816 
L 706.753906 312.150233 
L 719.060212 324.558693 
L 729.999151 335.271963 
L 739.570723 344.347691 
L 748.458611 352.491123 
L 757.346498 360.334816 
L 765.550703 367.290746 
L 773.754907 373.959796 
L 781.959111 380.331547 
L 789.479632 385.904656 
L 797.000152 391.217786 
L 804.520673 396.268964 
L 812.041193 401.057917 
L 819.561714 405.585948 
L 827.082234 409.855805 
L 834.602755 413.871541 
L 842.123275 417.638382 
L 849.643796 421.162585 
L 857.164316 424.451304 
L 857.848 424.738869 
L 857.848 424.738869 
" style="fill:none;stroke:#ff0000;stroke-linecap:square;stroke-width:1.5;"/>
   </g>
   <g id="line2d_25">
    <g clip-path="url(#p2fe4d33006)">
     <use style="fill:#0000ff;stroke:#0000ff;" x="174.848" xlink:href="#m27c5d87384" y="425.968"/>
     <use style="fill:#0000ff;stroke:#0000ff;" x="183.280099" xlink:href="#m27c5d87384" y="416.524384"/>
     <use style="fill:#0000ff;stroke:#0000ff;" x="191.712198" xlink:href="#m27c5d87384" y="407.080768"/>
     <use style="fill:#0000ff;stroke:#0000ff;" x="200.144296" xlink:href="#m27c5d87384" y="409.213198"/>
     <use style="fill:#0000ff;stroke:#0000ff;" x="208.576395" xlink:href="#m27c5d87384" y="411.345627"/>
     <use style="fill:#0000ff;stroke:#0000ff;" x="217.008494" xlink:href="#m27c5d87384" y="397.027887"/>
     <use style="fill:#0000ff;stroke:#0000ff;" x="225.440593" xlink:href="#m27c5d87384" y="388.802802"/>
     <use style="fill:#0000ff;stroke:#0000ff;" x="233.872691" xlink:href="#m27c5d87384" y="392.763028"/>
     <use style="fill:#0000ff;stroke:#0000ff;" x="242.30479" xlink:href="#m27c5d87384" y="383.624045"/>
     <use style="fill:#0000ff;stroke:#0000ff;" x="250.736889" xlink:href="#m27c5d87384" y="379.663819"/>
     <use style="fill:#0000ff;stroke:#0000ff;" x="259.168988" xlink:href="#m27c5d87384" y="370.524836"/>
     <use style="fill:#0000ff;stroke:#0000ff;" x="267.601086" xlink:href="#m27c5d87384" y="363.822915"/>
     <use style="fill:#0000ff;stroke:#0000ff;" x="276.033185" xlink:href="#m27c5d87384" y="357.120994"/>
     <use style="fill:#0000ff;stroke:#0000ff;" x="284.465284" xlink:href="#m27c5d87384" y="354.379299"/>
     <use style="fill:#0000ff;stroke:#0000ff;" x="292.897383" xlink:href="#m27c5d87384" y="344.021785"/>
     <use style="fill:#0000ff;stroke:#0000ff;" x="301.329481" xlink:href="#m27c5d87384" y="334.578169"/>
     <use style="fill:#0000ff;stroke:#0000ff;" x="309.76158" xlink:href="#m27c5d87384" y="326.048452"/>
     <use style="fill:#0000ff;stroke:#0000ff;" x="318.193679" xlink:href="#m27c5d87384" y="312.035345"/>
     <use style="fill:#0000ff;stroke:#0000ff;" x="326.625778" xlink:href="#m27c5d87384" y="297.108339"/>
     <use style="fill:#0000ff;stroke:#0000ff;" x="335.057877" xlink:href="#m27c5d87384" y="308.989017"/>
     <use style="fill:#0000ff;stroke:#0000ff;" x="343.489975" xlink:href="#m27c5d87384" y="290.101785"/>
     <use style="fill:#0000ff;stroke:#0000ff;" x="351.922074" xlink:href="#m27c5d87384" y="273.04235"/>
     <use style="fill:#0000ff;stroke:#0000ff;" x="360.354173" xlink:href="#m27c5d87384" y="290.711051"/>
     <use style="fill:#0000ff;stroke:#0000ff;" x="368.786272" xlink:href="#m27c5d87384" y="269.996023"/>
     <use style="fill:#0000ff;stroke:#0000ff;" x="377.21837" xlink:href="#m27c5d87384" y="262.989469"/>
     <use style="fill:#0000ff;stroke:#0000ff;" x="385.650469" xlink:href="#m27c5d87384" y="245.625401"/>
     <use style="fill:#0000ff;stroke:#0000ff;" x="394.082568" xlink:href="#m27c5d87384" y="246.843932"/>
     <use style="fill:#0000ff;stroke:#0000ff;" x="402.514667" xlink:href="#m27c5d87384" y="234.353989"/>
     <use style="fill:#0000ff;stroke:#0000ff;" x="410.946765" xlink:href="#m27c5d87384" y="219.12235"/>
     <use style="fill:#0000ff;stroke:#0000ff;" x="419.378864" xlink:href="#m27c5d87384" y="227.652068"/>
     <use style="fill:#0000ff;stroke:#0000ff;" x="427.810963" xlink:href="#m27c5d87384" y="205.109243"/>
     <use style="fill:#0000ff;stroke:#0000ff;" x="436.243062" xlink:href="#m27c5d87384" y="188.963706"/>
     <use style="fill:#0000ff;stroke:#0000ff;" x="444.67516" xlink:href="#m27c5d87384" y="199.32122"/>
     <use style="fill:#0000ff;stroke:#0000ff;" x="453.107259" xlink:href="#m27c5d87384" y="182.566418"/>
     <use style="fill:#0000ff;stroke:#0000ff;" x="461.539358" xlink:href="#m27c5d87384" y="180.433989"/>
     <use style="fill:#0000ff;stroke:#0000ff;" x="469.971457" xlink:href="#m27c5d87384" y="197.798056"/>
     <use style="fill:#0000ff;stroke:#0000ff;" x="478.403556" xlink:href="#m27c5d87384" y="167.33478"/>
     <use style="fill:#0000ff;stroke:#0000ff;" x="486.835654" xlink:href="#m27c5d87384" y="179.52009"/>
     <use style="fill:#0000ff;stroke:#0000ff;" x="495.267753" xlink:href="#m27c5d87384" y="156.368"/>
     <use style="fill:#0000ff;stroke:#0000ff;" x="503.699852" xlink:href="#m27c5d87384" y="175.255232"/>
     <use style="fill:#0000ff;stroke:#0000ff;" x="512.131951" xlink:href="#m27c5d87384" y="171.295006"/>
     <use style="fill:#0000ff;stroke:#0000ff;" x="520.564049" xlink:href="#m27c5d87384" y="168.857944"/>
     <use style="fill:#0000ff;stroke:#0000ff;" x="528.996148" xlink:href="#m27c5d87384" y="174.341333"/>
     <use style="fill:#0000ff;stroke:#0000ff;" x="537.428247" xlink:href="#m27c5d87384" y="173.732068"/>
     <use style="fill:#0000ff;stroke:#0000ff;" x="545.860346" xlink:href="#m27c5d87384" y="196.884158"/>
     <use style="fill:#0000ff;stroke:#0000ff;" x="554.292444" xlink:href="#m27c5d87384" y="169.467209"/>
     <use style="fill:#0000ff;stroke:#0000ff;" x="562.724543" xlink:href="#m27c5d87384" y="187.440542"/>
     <use style="fill:#0000ff;stroke:#0000ff;" x="571.156642" xlink:href="#m27c5d87384" y="198.407322"/>
     <use style="fill:#0000ff;stroke:#0000ff;" x="579.588741" xlink:href="#m27c5d87384" y="199.625853"/>
     <use style="fill:#0000ff;stroke:#0000ff;" x="588.02084" xlink:href="#m27c5d87384" y="181.347887"/>
     <use style="fill:#0000ff;stroke:#0000ff;" x="596.452938" xlink:href="#m27c5d87384" y="215.77139"/>
     <use style="fill:#0000ff;stroke:#0000ff;" x="604.885037" xlink:href="#m27c5d87384" y="213.943593"/>
     <use style="fill:#0000ff;stroke:#0000ff;" x="613.317136" xlink:href="#m27c5d87384" y="219.426983"/>
     <use style="fill:#0000ff;stroke:#0000ff;" x="621.749235" xlink:href="#m27c5d87384" y="220.950147"/>
     <use style="fill:#0000ff;stroke:#0000ff;" x="630.181333" xlink:href="#m27c5d87384" y="222.168678"/>
     <use style="fill:#0000ff;stroke:#0000ff;" x="638.613432" xlink:href="#m27c5d87384" y="237.095684"/>
     <use style="fill:#0000ff;stroke:#0000ff;" x="647.045531" xlink:href="#m27c5d87384" y="252.022689"/>
     <use style="fill:#0000ff;stroke:#0000ff;" x="655.47763" xlink:href="#m27c5d87384" y="252.631955"/>
     <use style="fill:#0000ff;stroke:#0000ff;" x="663.909728" xlink:href="#m27c5d87384" y="264.817266"/>
     <use style="fill:#0000ff;stroke:#0000ff;" x="672.341827" xlink:href="#m27c5d87384" y="289.187887"/>
     <use style="fill:#0000ff;stroke:#0000ff;" x="680.773926" xlink:href="#m27c5d87384" y="284.313763"/>
     <use style="fill:#0000ff;stroke:#0000ff;" x="689.206025" xlink:href="#m27c5d87384" y="308.684384"/>
     <use style="fill:#0000ff;stroke:#0000ff;" x="697.638123" xlink:href="#m27c5d87384" y="298.32687"/>
     <use style="fill:#0000ff;stroke:#0000ff;" x="706.070222" xlink:href="#m27c5d87384" y="309.598282"/>
     <use style="fill:#0000ff;stroke:#0000ff;" x="714.502321" xlink:href="#m27c5d87384" y="316.604836"/>
     <use style="fill:#0000ff;stroke:#0000ff;" x="722.93442" xlink:href="#m27c5d87384" y="327.266983"/>
     <use style="fill:#0000ff;stroke:#0000ff;" x="731.366519" xlink:href="#m27c5d87384" y="338.843028"/>
     <use style="fill:#0000ff;stroke:#0000ff;" x="739.798617" xlink:href="#m27c5d87384" y="343.41252"/>
     <use style="fill:#0000ff;stroke:#0000ff;" x="748.230716" xlink:href="#m27c5d87384" y="347.068113"/>
     <use style="fill:#0000ff;stroke:#0000ff;" x="756.662815" xlink:href="#m27c5d87384" y="359.558056"/>
     <use style="fill:#0000ff;stroke:#0000ff;" x="765.094914" xlink:href="#m27c5d87384" y="362.604384"/>
     <use style="fill:#0000ff;stroke:#0000ff;" x="773.527012" xlink:href="#m27c5d87384" y="362.909017"/>
     <use style="fill:#0000ff;stroke:#0000ff;" x="781.959111" xlink:href="#m27c5d87384" y="383.319412"/>
     <use style="fill:#0000ff;stroke:#0000ff;" x="790.39121" xlink:href="#m27c5d87384" y="386.36574"/>
     <use style="fill:#0000ff;stroke:#0000ff;" x="798.823309" xlink:href="#m27c5d87384" y="385.451842"/>
     <use style="fill:#0000ff;stroke:#0000ff;" x="807.255407" xlink:href="#m27c5d87384" y="399.769582"/>
     <use style="fill:#0000ff;stroke:#0000ff;" x="815.687506" xlink:href="#m27c5d87384" y="403.425175"/>
     <use style="fill:#0000ff;stroke:#0000ff;" x="824.119605" xlink:href="#m27c5d87384" y="415.610486"/>
     <use style="fill:#0000ff;stroke:#0000ff;" x="832.551704" xlink:href="#m27c5d87384" y="418.352181"/>
     <use style="fill:#0000ff;stroke:#0000ff;" x="840.983802" xlink:href="#m27c5d87384" y="424.140203"/>
     <use style="fill:#0000ff;stroke:#0000ff;" x="849.415901" xlink:href="#m27c5d87384" y="415.610486"/>
     <use style="fill:#0000ff;stroke:#0000ff;" x="857.848" xlink:href="#m27c5d87384" y="425.358734"/>
    </g>
   </g>
   <g id="patch_8">
    <path d="M 147.528 436.752 
L 147.528 145.584 
" style="fill:none;stroke:#000000;stroke-linecap:square;stroke-linejoin:miter;stroke-width:0.8;"/>
   </g>
   <g id="patch_9">
    <path d="M 885.168 436.752 
L 885.168 145.584 
" style="fill:none;stroke:#000000;stroke-linecap:square;stroke-linejoin:miter;stroke-width:0.8;"/>
   </g>
   <g id="patch_10">
    <path d="M 147.528 436.752 
L 885.168 436.752 
" style="fill:none;stroke:#000000;stroke-linecap:square;stroke-linejoin:miter;stroke-width:0.8;"/>
   </g>
   <g id="patch_11">
    <path d="M 147.528 145.584 
L 885.168 145.584 
" style="fill:none;stroke:#000000;stroke-linecap:square;stroke-linejoin:miter;stroke-width:0.8;"/>
   </g>
  </g>
 </g>
 <defs>
  <clipPath id="padd2b4b172">
   <rect height="72.792" width="737.64" x="147.528" y="63.0864"/>
  </clipPath>
  <clipPath id="p2fe4d33006">
   <rect height="291.168" width="737.64" x="147.528" y="145.584"/>
  </clipPath>
 </defs>
</svg>
