<?xml version="1.0" encoding="utf-8" standalone="no"?>
<!DOCTYPE svg PUBLIC "-//W3C//DTD SVG 1.1//EN"
  "http://www.w3.org/Graphics/SVG/1.1/DTD/svg11.dtd">
<!-- Created with matplotlib (http://matplotlib.org/) -->
<svg height="485pt" version="1.1" viewBox="0 0 983 485" width="983pt" xmlns="http://www.w3.org/2000/svg" xmlns:xlink="http://www.w3.org/1999/xlink">
 <defs>
  <style type="text/css">
*{stroke-linecap:butt;stroke-linejoin:round;}
  </style>
 </defs>
 <g id="figure_1">
  <g id="patch_1">
   <path d="M 0 485.28 
L 983.52 485.28 
L 983.52 0 
L 0 0 
z
" style="fill:#ffffff;"/>
  </g>
  <g id="axes_1">
   <g id="patch_2">
    <path d="M 147.528 135.8784 
L 885.168 135.8784 
L 885.168 63.0864 
L 147.528 63.0864 
z
" style="fill:#ffffff;"/>
   </g>
   <g id="matplotlib.axis_1">
    <g id="xtick_1">
     <g id="line2d_1">
      <defs>
       <path d="M 0 0 
L 0 3.5 
" id="m5d46878bac" style="stroke:#000000;stroke-width:0.8;"/>
      </defs>
      <g>
       <use style="stroke:#000000;stroke-width:0.8;" x="178.216523" xlink:href="#m5d46878bac" y="135.8784"/>
      </g>
     </g>
    </g>
    <g id="xtick_2">
     <g id="line2d_2">
      <g>
       <use style="stroke:#000000;stroke-width:0.8;" x="316.545783" xlink:href="#m5d46878bac" y="135.8784"/>
      </g>
     </g>
    </g>
    <g id="xtick_3">
     <g id="line2d_3">
      <g>
       <use style="stroke:#000000;stroke-width:0.8;" x="454.875043" xlink:href="#m5d46878bac" y="135.8784"/>
      </g>
     </g>
    </g>
    <g id="xtick_4">
     <g id="line2d_4">
      <g>
       <use style="stroke:#000000;stroke-width:0.8;" x="593.204303" xlink:href="#m5d46878bac" y="135.8784"/>
      </g>
     </g>
    </g>
    <g id="xtick_5">
     <g id="line2d_5">
      <g>
       <use style="stroke:#000000;stroke-width:0.8;" x="731.533563" xlink:href="#m5d46878bac" y="135.8784"/>
      </g>
     </g>
    </g>
    <g id="xtick_6">
     <g id="line2d_6">
      <g>
       <use style="stroke:#000000;stroke-width:0.8;" x="869.862823" xlink:href="#m5d46878bac" y="135.8784"/>
      </g>
     </g>
    </g>
   </g>
   <g id="matplotlib.axis_2">
    <g id="ytick_1">
     <g id="line2d_7">
      <defs>
       <path d="M 0 0 
L -3.5 0 
" id="m123bdfbfe0" style="stroke:#000000;stroke-width:0.8;"/>
      </defs>
      <g>
       <use style="stroke:#000000;stroke-width:0.8;" x="147.528" xlink:href="#m123bdfbfe0" y="124.213124"/>
      </g>
     </g>
     <g id="text_1">
      <!-- −1 -->
      <defs>
       <path d="M 10.59375 35.5 
L 73.1875 35.5 
L 73.1875 27.203125 
L 10.59375 27.203125 
z
" id="DejaVuSans-2212"/>
       <path d="M 12.40625 8.296875 
L 28.515625 8.296875 
L 28.515625 63.921875 
L 10.984375 60.40625 
L 10.984375 69.390625 
L 28.421875 72.90625 
L 38.28125 72.90625 
L 38.28125 8.296875 
L 54.390625 8.296875 
L 54.390625 0 
L 12.40625 0 
z
" id="DejaVuSans-31"/>
      </defs>
      <g transform="translate(122.837375 128.772187)scale(0.12 -0.12)">
       <use xlink:href="#DejaVuSans-2212"/>
       <use x="83.789062" xlink:href="#DejaVuSans-31"/>
      </g>
     </g>
    </g>
    <g id="ytick_2">
     <g id="line2d_8">
      <g>
       <use style="stroke:#000000;stroke-width:0.8;" x="147.528" xlink:href="#m123bdfbfe0" y="103.806349"/>
      </g>
     </g>
    </g>
    <g id="ytick_3">
     <g id="line2d_9">
      <g>
       <use style="stroke:#000000;stroke-width:0.8;" x="147.528" xlink:href="#m123bdfbfe0" y="83.399574"/>
      </g>
     </g>
     <g id="text_2">
      <!-- 1 -->
      <g transform="translate(132.893 87.958637)scale(0.12 -0.12)">
       <use xlink:href="#DejaVuSans-31"/>
      </g>
     </g>
    </g>
    <g id="ytick_4">
     <g id="line2d_10">
      <g>
       <use style="stroke:#000000;stroke-width:0.8;" x="147.528" xlink:href="#m123bdfbfe0" y="62.992799"/>
      </g>
     </g>
     <g id="text_3">
      <!-- 2 -->
      <defs>
       <path d="M 19.1875 8.296875 
L 53.609375 8.296875 
L 53.609375 0 
L 7.328125 0 
L 7.328125 8.296875 
Q 12.9375 14.109375 22.625 23.890625 
Q 32.328125 33.6875 34.8125 36.53125 
Q 39.546875 41.84375 41.421875 45.53125 
Q 43.3125 49.21875 43.3125 52.78125 
Q 43.3125 58.59375 39.234375 62.25 
Q 35.15625 65.921875 28.609375 65.921875 
Q 23.96875 65.921875 18.8125 64.3125 
Q 13.671875 62.703125 7.8125 59.421875 
L 7.8125 69.390625 
Q 13.765625 71.78125 18.9375 73 
Q 24.125 74.21875 28.421875 74.21875 
Q 39.75 74.21875 46.484375 68.546875 
Q 53.21875 62.890625 53.21875 53.421875 
Q 53.21875 48.921875 51.53125 44.890625 
Q 49.859375 40.875 45.40625 35.40625 
Q 44.1875 33.984375 37.640625 27.21875 
Q 31.109375 20.453125 19.1875 8.296875 
z
" id="DejaVuSans-32"/>
      </defs>
      <g transform="translate(132.893 67.551862)scale(0.12 -0.12)">
       <use xlink:href="#DejaVuSans-32"/>
      </g>
     </g>
    </g>
    <g id="text_4">
     <!-- Studentized -->
     <defs>
      <path d="M 53.515625 70.515625 
L 53.515625 60.890625 
Q 47.90625 63.578125 42.921875 64.890625 
Q 37.9375 66.21875 33.296875 66.21875 
Q 25.25 66.21875 20.875 63.09375 
Q 16.5 59.96875 16.5 54.203125 
Q 16.5 49.359375 19.40625 46.890625 
Q 22.3125 44.4375 30.421875 42.921875 
L 36.375 41.703125 
Q 47.40625 39.59375 52.65625 34.296875 
Q 57.90625 29 57.90625 20.125 
Q 57.90625 9.515625 50.796875 4.046875 
Q 43.703125 -1.421875 29.984375 -1.421875 
Q 24.8125 -1.421875 18.96875 -0.25 
Q 13.140625 0.921875 6.890625 3.21875 
L 6.890625 13.375 
Q 12.890625 10.015625 18.65625 8.296875 
Q 24.421875 6.59375 29.984375 6.59375 
Q 38.421875 6.59375 43.015625 9.90625 
Q 47.609375 13.234375 47.609375 19.390625 
Q 47.609375 24.75 44.3125 27.78125 
Q 41.015625 30.8125 33.5 32.328125 
L 27.484375 33.5 
Q 16.453125 35.6875 11.515625 40.375 
Q 6.59375 45.0625 6.59375 53.421875 
Q 6.59375 63.09375 13.40625 68.65625 
Q 20.21875 74.21875 32.171875 74.21875 
Q 37.3125 74.21875 42.625 73.28125 
Q 47.953125 72.359375 53.515625 70.515625 
z
" id="DejaVuSans-53"/>
      <path d="M 18.3125 70.21875 
L 18.3125 54.6875 
L 36.8125 54.6875 
L 36.8125 47.703125 
L 18.3125 47.703125 
L 18.3125 18.015625 
Q 18.3125 11.328125 20.140625 9.421875 
Q 21.96875 7.515625 27.59375 7.515625 
L 36.8125 7.515625 
L 36.8125 0 
L 27.59375 0 
Q 17.1875 0 13.234375 3.875 
Q 9.28125 7.765625 9.28125 18.015625 
L 9.28125 47.703125 
L 2.6875 47.703125 
L 2.6875 54.6875 
L 9.28125 54.6875 
L 9.28125 70.21875 
z
" id="DejaVuSans-74"/>
      <path d="M 8.5 21.578125 
L 8.5 54.6875 
L 17.484375 54.6875 
L 17.484375 21.921875 
Q 17.484375 14.15625 20.5 10.265625 
Q 23.53125 6.390625 29.59375 6.390625 
Q 36.859375 6.390625 41.078125 11.03125 
Q 45.3125 15.671875 45.3125 23.6875 
L 45.3125 54.6875 
L 54.296875 54.6875 
L 54.296875 0 
L 45.3125 0 
L 45.3125 8.40625 
Q 42.046875 3.421875 37.71875 1 
Q 33.40625 -1.421875 27.6875 -1.421875 
Q 18.265625 -1.421875 13.375 4.4375 
Q 8.5 10.296875 8.5 21.578125 
z
M 31.109375 56 
z
" id="DejaVuSans-75"/>
      <path d="M 45.40625 46.390625 
L 45.40625 75.984375 
L 54.390625 75.984375 
L 54.390625 0 
L 45.40625 0 
L 45.40625 8.203125 
Q 42.578125 3.328125 38.25 0.953125 
Q 33.9375 -1.421875 27.875 -1.421875 
Q 17.96875 -1.421875 11.734375 6.484375 
Q 5.515625 14.40625 5.515625 27.296875 
Q 5.515625 40.1875 11.734375 48.09375 
Q 17.96875 56 27.875 56 
Q 33.9375 56 38.25 53.625 
Q 42.578125 51.265625 45.40625 46.390625 
z
M 14.796875 27.296875 
Q 14.796875 17.390625 18.875 11.75 
Q 22.953125 6.109375 30.078125 6.109375 
Q 37.203125 6.109375 41.296875 11.75 
Q 45.40625 17.390625 45.40625 27.296875 
Q 45.40625 37.203125 41.296875 42.84375 
Q 37.203125 48.484375 30.078125 48.484375 
Q 22.953125 48.484375 18.875 42.84375 
Q 14.796875 37.203125 14.796875 27.296875 
z
" id="DejaVuSans-64"/>
      <path d="M 56.203125 29.59375 
L 56.203125 25.203125 
L 14.890625 25.203125 
Q 15.484375 15.921875 20.484375 11.0625 
Q 25.484375 6.203125 34.421875 6.203125 
Q 39.59375 6.203125 44.453125 7.46875 
Q 49.3125 8.734375 54.109375 11.28125 
L 54.109375 2.78125 
Q 49.265625 0.734375 44.1875 -0.34375 
Q 39.109375 -1.421875 33.890625 -1.421875 
Q 20.796875 -1.421875 13.15625 6.1875 
Q 5.515625 13.8125 5.515625 26.8125 
Q 5.515625 40.234375 12.765625 48.109375 
Q 20.015625 56 32.328125 56 
Q 43.359375 56 49.78125 48.890625 
Q 56.203125 41.796875 56.203125 29.59375 
z
M 47.21875 32.234375 
Q 47.125 39.59375 43.09375 43.984375 
Q 39.0625 48.390625 32.421875 48.390625 
Q 24.90625 48.390625 20.390625 44.140625 
Q 15.875 39.890625 15.1875 32.171875 
z
" id="DejaVuSans-65"/>
      <path d="M 54.890625 33.015625 
L 54.890625 0 
L 45.90625 0 
L 45.90625 32.71875 
Q 45.90625 40.484375 42.875 44.328125 
Q 39.84375 48.1875 33.796875 48.1875 
Q 26.515625 48.1875 22.3125 43.546875 
Q 18.109375 38.921875 18.109375 30.90625 
L 18.109375 0 
L 9.078125 0 
L 9.078125 54.6875 
L 18.109375 54.6875 
L 18.109375 46.1875 
Q 21.34375 51.125 25.703125 53.5625 
Q 30.078125 56 35.796875 56 
Q 45.21875 56 50.046875 50.171875 
Q 54.890625 44.34375 54.890625 33.015625 
z
" id="DejaVuSans-6e"/>
      <path d="M 9.421875 54.6875 
L 18.40625 54.6875 
L 18.40625 0 
L 9.421875 0 
z
M 9.421875 75.984375 
L 18.40625 75.984375 
L 18.40625 64.59375 
L 9.421875 64.59375 
z
" id="DejaVuSans-69"/>
      <path d="M 5.515625 54.6875 
L 48.1875 54.6875 
L 48.1875 46.484375 
L 14.40625 7.171875 
L 48.1875 7.171875 
L 48.1875 0 
L 4.296875 0 
L 4.296875 8.203125 
L 38.09375 47.515625 
L 5.515625 47.515625 
z
" id="DejaVuSans-7a"/>
     </defs>
     <g transform="translate(102.904375 135.41865)rotate(-90)scale(0.12 -0.12)">
      <use xlink:href="#DejaVuSans-53"/>
      <use x="63.476562" xlink:href="#DejaVuSans-74"/>
      <use x="102.685547" xlink:href="#DejaVuSans-75"/>
      <use x="166.064453" xlink:href="#DejaVuSans-64"/>
      <use x="229.541016" xlink:href="#DejaVuSans-65"/>
      <use x="291.064453" xlink:href="#DejaVuSans-6e"/>
      <use x="354.443359" xlink:href="#DejaVuSans-74"/>
      <use x="393.652344" xlink:href="#DejaVuSans-69"/>
      <use x="421.435547" xlink:href="#DejaVuSans-7a"/>
      <use x="473.925781" xlink:href="#DejaVuSans-65"/>
      <use x="535.449219" xlink:href="#DejaVuSans-64"/>
     </g>
     <!-- Residuals -->
     <defs>
      <path d="M 44.390625 34.1875 
Q 47.5625 33.109375 50.5625 29.59375 
Q 53.5625 26.078125 56.59375 19.921875 
L 66.609375 0 
L 56 0 
L 46.6875 18.703125 
Q 43.0625 26.03125 39.671875 28.421875 
Q 36.28125 30.8125 30.421875 30.8125 
L 19.671875 30.8125 
L 19.671875 0 
L 9.8125 0 
L 9.8125 72.90625 
L 32.078125 72.90625 
Q 44.578125 72.90625 50.734375 67.671875 
Q 56.890625 62.453125 56.890625 51.90625 
Q 56.890625 45.015625 53.6875 40.46875 
Q 50.484375 35.9375 44.390625 34.1875 
z
M 19.671875 64.796875 
L 19.671875 38.921875 
L 32.078125 38.921875 
Q 39.203125 38.921875 42.84375 42.21875 
Q 46.484375 45.515625 46.484375 51.90625 
Q 46.484375 58.296875 42.84375 61.546875 
Q 39.203125 64.796875 32.078125 64.796875 
z
" id="DejaVuSans-52"/>
      <path d="M 44.28125 53.078125 
L 44.28125 44.578125 
Q 40.484375 46.53125 36.375 47.5 
Q 32.28125 48.484375 27.875 48.484375 
Q 21.1875 48.484375 17.84375 46.4375 
Q 14.5 44.390625 14.5 40.28125 
Q 14.5 37.15625 16.890625 35.375 
Q 19.28125 33.59375 26.515625 31.984375 
L 29.59375 31.296875 
Q 39.15625 29.25 43.1875 25.515625 
Q 47.21875 21.78125 47.21875 15.09375 
Q 47.21875 7.46875 41.1875 3.015625 
Q 35.15625 -1.421875 24.609375 -1.421875 
Q 20.21875 -1.421875 15.453125 -0.5625 
Q 10.6875 0.296875 5.421875 2 
L 5.421875 11.28125 
Q 10.40625 8.6875 15.234375 7.390625 
Q 20.0625 6.109375 24.8125 6.109375 
Q 31.15625 6.109375 34.5625 8.28125 
Q 37.984375 10.453125 37.984375 14.40625 
Q 37.984375 18.0625 35.515625 20.015625 
Q 33.0625 21.96875 24.703125 23.78125 
L 21.578125 24.515625 
Q 13.234375 26.265625 9.515625 29.90625 
Q 5.8125 33.546875 5.8125 39.890625 
Q 5.8125 47.609375 11.28125 51.796875 
Q 16.75 56 26.8125 56 
Q 31.78125 56 36.171875 55.265625 
Q 40.578125 54.546875 44.28125 53.078125 
z
" id="DejaVuSans-73"/>
      <path d="M 34.28125 27.484375 
Q 23.390625 27.484375 19.1875 25 
Q 14.984375 22.515625 14.984375 16.5 
Q 14.984375 11.71875 18.140625 8.90625 
Q 21.296875 6.109375 26.703125 6.109375 
Q 34.1875 6.109375 38.703125 11.40625 
Q 43.21875 16.703125 43.21875 25.484375 
L 43.21875 27.484375 
z
M 52.203125 31.203125 
L 52.203125 0 
L 43.21875 0 
L 43.21875 8.296875 
Q 40.140625 3.328125 35.546875 0.953125 
Q 30.953125 -1.421875 24.3125 -1.421875 
Q 15.921875 -1.421875 10.953125 3.296875 
Q 6 8.015625 6 15.921875 
Q 6 25.140625 12.171875 29.828125 
Q 18.359375 34.515625 30.609375 34.515625 
L 43.21875 34.515625 
L 43.21875 35.40625 
Q 43.21875 41.609375 39.140625 45 
Q 35.0625 48.390625 27.6875 48.390625 
Q 23 48.390625 18.546875 47.265625 
Q 14.109375 46.140625 10.015625 43.890625 
L 10.015625 52.203125 
Q 14.9375 54.109375 19.578125 55.046875 
Q 24.21875 56 28.609375 56 
Q 40.484375 56 46.34375 49.84375 
Q 52.203125 43.703125 52.203125 31.203125 
z
" id="DejaVuSans-61"/>
      <path d="M 9.421875 75.984375 
L 18.40625 75.984375 
L 18.40625 0 
L 9.421875 0 
z
" id="DejaVuSans-6c"/>
     </defs>
     <g transform="translate(116.34175 128.213025)rotate(-90)scale(0.12 -0.12)">
      <use xlink:href="#DejaVuSans-52"/>
      <use x="69.419922" xlink:href="#DejaVuSans-65"/>
      <use x="130.943359" xlink:href="#DejaVuSans-73"/>
      <use x="183.042969" xlink:href="#DejaVuSans-69"/>
      <use x="210.826172" xlink:href="#DejaVuSans-64"/>
      <use x="274.302734" xlink:href="#DejaVuSans-75"/>
      <use x="337.681641" xlink:href="#DejaVuSans-61"/>
      <use x="398.960938" xlink:href="#DejaVuSans-6c"/>
      <use x="426.744141" xlink:href="#DejaVuSans-73"/>
     </g>
    </g>
   </g>
   <g id="LineCollection_1">
    <path clip-path="url(#p44306e6cb7)" d="M 174.848 103.016259 
L 174.848 62.202709 
" style="fill:none;stroke:#0000ff;stroke-width:1.5;"/>
    <path clip-path="url(#p44306e6cb7)" d="M 191.305831 122.416462 
L 191.305831 81.602912 
" style="fill:none;stroke:#0000ff;stroke-width:1.5;"/>
    <path clip-path="url(#p44306e6cb7)" d="M 199.534747 106.533843 
L 199.534747 65.720293 
" style="fill:none;stroke:#0000ff;stroke-width:1.5;"/>
    <path clip-path="url(#p44306e6cb7)" d="M 207.763663 141.913647 
L 207.763663 101.100097 
" style="fill:none;stroke:#0000ff;stroke-width:1.5;"/>
    <path clip-path="url(#p44306e6cb7)" d="M 215.992578 108.860621 
L 215.992578 68.047071 
" style="fill:none;stroke:#0000ff;stroke-width:1.5;"/>
    <path clip-path="url(#p44306e6cb7)" d="M 224.221494 145.060648 
L 224.221494 104.247098 
" style="fill:none;stroke:#0000ff;stroke-width:1.5;"/>
    <path clip-path="url(#p44306e6cb7)" d="M 232.45041 110.233386 
L 232.45041 69.419836 
" style="fill:none;stroke:#0000ff;stroke-width:1.5;"/>
    <path clip-path="url(#p44306e6cb7)" d="M 240.679325 136.462352 
L 240.679325 95.648801 
" style="fill:none;stroke:#0000ff;stroke-width:1.5;"/>
    <path clip-path="url(#p44306e6cb7)" d="M 248.908241 119.894541 
L 248.908241 79.080991 
" style="fill:none;stroke:#0000ff;stroke-width:1.5;"/>
    <path clip-path="url(#p44306e6cb7)" d="M 257.137157 117.944728 
L 257.137157 77.131178 
" style="fill:none;stroke:#0000ff;stroke-width:1.5;"/>
    <path clip-path="url(#p44306e6cb7)" d="M 265.366072 121.618026 
L 265.366072 80.804476 
" style="fill:none;stroke:#0000ff;stroke-width:1.5;"/>
    <path clip-path="url(#p44306e6cb7)" d="M 273.594988 122.032627 
L 273.594988 81.219077 
" style="fill:none;stroke:#0000ff;stroke-width:1.5;"/>
    <path clip-path="url(#p44306e6cb7)" d="M 281.823904 100.31922 
L 281.823904 59.50567 
" style="fill:none;stroke:#0000ff;stroke-width:1.5;"/>
    <path clip-path="url(#p44306e6cb7)" d="M 290.052819 121.238998 
L 290.052819 80.425448 
" style="fill:none;stroke:#0000ff;stroke-width:1.5;"/>
    <path clip-path="url(#p44306e6cb7)" d="M 298.281735 119.365223 
L 298.281735 78.551673 
" style="fill:none;stroke:#0000ff;stroke-width:1.5;"/>
    <path clip-path="url(#p44306e6cb7)" d="M 306.510651 104.434844 
L 306.510651 63.621294 
" style="fill:none;stroke:#0000ff;stroke-width:1.5;"/>
    <path clip-path="url(#p44306e6cb7)" d="M 314.739566 135.392095 
L 314.739566 94.578545 
" style="fill:none;stroke:#0000ff;stroke-width:1.5;"/>
    <path clip-path="url(#p44306e6cb7)" d="M 322.968482 141.964779 
L 322.968482 101.151229 
" style="fill:none;stroke:#0000ff;stroke-width:1.5;"/>
    <path clip-path="url(#p44306e6cb7)" d="M 331.197398 120.246256 
L 331.197398 79.432706 
" style="fill:none;stroke:#0000ff;stroke-width:1.5;"/>
    <path clip-path="url(#p44306e6cb7)" d="M 339.426313 120.432845 
L 339.426313 79.619295 
" style="fill:none;stroke:#0000ff;stroke-width:1.5;"/>
    <path clip-path="url(#p44306e6cb7)" d="M 347.655229 132.141542 
L 347.655229 91.327992 
" style="fill:none;stroke:#0000ff;stroke-width:1.5;"/>
    <path clip-path="url(#p44306e6cb7)" d="M 355.884145 121.731329 
L 355.884145 80.917778 
" style="fill:none;stroke:#0000ff;stroke-width:1.5;"/>
    <path clip-path="url(#p44306e6cb7)" d="M 364.11306 134.141078 
L 364.11306 93.327527 
" style="fill:none;stroke:#0000ff;stroke-width:1.5;"/>
    <path clip-path="url(#p44306e6cb7)" d="M 372.341976 128.467939 
L 372.341976 87.654389 
" style="fill:none;stroke:#0000ff;stroke-width:1.5;"/>
    <path clip-path="url(#p44306e6cb7)" d="M 380.570892 135.638504 
L 380.570892 94.824954 
" style="fill:none;stroke:#0000ff;stroke-width:1.5;"/>
    <path clip-path="url(#p44306e6cb7)" d="M 388.799807 116.92956 
L 388.799807 76.116009 
" style="fill:none;stroke:#0000ff;stroke-width:1.5;"/>
    <path clip-path="url(#p44306e6cb7)" d="M 397.028723 105.84815 
L 397.028723 65.0346 
" style="fill:none;stroke:#0000ff;stroke-width:1.5;"/>
    <path clip-path="url(#p44306e6cb7)" d="M 405.257639 122.834004 
L 405.257639 82.020454 
" style="fill:none;stroke:#0000ff;stroke-width:1.5;"/>
    <path clip-path="url(#p44306e6cb7)" d="M 413.486554 140.527636 
L 413.486554 99.714086 
" style="fill:none;stroke:#0000ff;stroke-width:1.5;"/>
    <path clip-path="url(#p44306e6cb7)" d="M 421.71547 129.520528 
L 421.71547 88.706977 
" style="fill:none;stroke:#0000ff;stroke-width:1.5;"/>
    <path clip-path="url(#p44306e6cb7)" d="M 429.944386 129.325743 
L 429.944386 88.512193 
" style="fill:none;stroke:#0000ff;stroke-width:1.5;"/>
    <path clip-path="url(#p44306e6cb7)" d="M 438.173301 118.691746 
L 438.173301 77.878195 
" style="fill:none;stroke:#0000ff;stroke-width:1.5;"/>
    <path clip-path="url(#p44306e6cb7)" d="M 446.402217 151.757242 
L 446.402217 110.943692 
" style="fill:none;stroke:#0000ff;stroke-width:1.5;"/>
    <path clip-path="url(#p44306e6cb7)" d="M 454.631133 123.408026 
L 454.631133 82.594476 
" style="fill:none;stroke:#0000ff;stroke-width:1.5;"/>
    <path clip-path="url(#p44306e6cb7)" d="M 462.860048 120.650117 
L 462.860048 79.836567 
" style="fill:none;stroke:#0000ff;stroke-width:1.5;"/>
    <path clip-path="url(#p44306e6cb7)" d="M 471.088964 135.437762 
L 471.088964 94.624212 
" style="fill:none;stroke:#0000ff;stroke-width:1.5;"/>
    <path clip-path="url(#p44306e6cb7)" d="M 479.31788 117.572054 
L 479.31788 76.758503 
" style="fill:none;stroke:#0000ff;stroke-width:1.5;"/>
    <path clip-path="url(#p44306e6cb7)" d="M 487.546795 147.356104 
L 487.546795 106.542554 
" style="fill:none;stroke:#0000ff;stroke-width:1.5;"/>
    <path clip-path="url(#p44306e6cb7)" d="M 495.775711 134.612087 
L 495.775711 93.798537 
" style="fill:none;stroke:#0000ff;stroke-width:1.5;"/>
    <path clip-path="url(#p44306e6cb7)" d="M 504.004627 124.479847 
L 504.004627 83.666297 
" style="fill:none;stroke:#0000ff;stroke-width:1.5;"/>
    <path clip-path="url(#p44306e6cb7)" d="M 512.233542 131.450714 
L 512.233542 90.637164 
" style="fill:none;stroke:#0000ff;stroke-width:1.5;"/>
    <path clip-path="url(#p44306e6cb7)" d="M 520.462458 119.739062 
L 520.462458 78.925511 
" style="fill:none;stroke:#0000ff;stroke-width:1.5;"/>
    <path clip-path="url(#p44306e6cb7)" d="M 528.691373 127.686696 
L 528.691373 86.873146 
" style="fill:none;stroke:#0000ff;stroke-width:1.5;"/>
    <path clip-path="url(#p44306e6cb7)" d="M 536.920289 120.728876 
L 536.920289 79.915326 
" style="fill:none;stroke:#0000ff;stroke-width:1.5;"/>
    <path clip-path="url(#p44306e6cb7)" d="M 545.149205 100.309228 
L 545.149205 59.495677 
" style="fill:none;stroke:#0000ff;stroke-width:1.5;"/>
    <path clip-path="url(#p44306e6cb7)" d="M 553.37812 115.149904 
L 553.37812 74.336354 
" style="fill:none;stroke:#0000ff;stroke-width:1.5;"/>
    <path clip-path="url(#p44306e6cb7)" d="M 561.607036 144.529888 
L 561.607036 103.716338 
" style="fill:none;stroke:#0000ff;stroke-width:1.5;"/>
    <path clip-path="url(#p44306e6cb7)" d="M 569.835952 119.242587 
L 569.835952 78.429036 
" style="fill:none;stroke:#0000ff;stroke-width:1.5;"/>
    <path clip-path="url(#p44306e6cb7)" d="M 578.064867 133.493568 
L 578.064867 92.680018 
" style="fill:none;stroke:#0000ff;stroke-width:1.5;"/>
    <path clip-path="url(#p44306e6cb7)" d="M 586.293783 101.477338 
L 586.293783 60.663787 
" style="fill:none;stroke:#0000ff;stroke-width:1.5;"/>
    <path clip-path="url(#p44306e6cb7)" d="M 594.522699 112.991045 
L 594.522699 72.177495 
" style="fill:none;stroke:#0000ff;stroke-width:1.5;"/>
    <path clip-path="url(#p44306e6cb7)" d="M 602.751614 119.375265 
L 602.751614 78.561715 
" style="fill:none;stroke:#0000ff;stroke-width:1.5;"/>
    <path clip-path="url(#p44306e6cb7)" d="M 610.98053 130.765106 
L 610.98053 89.951555 
" style="fill:none;stroke:#0000ff;stroke-width:1.5;"/>
    <path clip-path="url(#p44306e6cb7)" d="M 619.209446 123.572694 
L 619.209446 82.759144 
" style="fill:none;stroke:#0000ff;stroke-width:1.5;"/>
    <path clip-path="url(#p44306e6cb7)" d="M 627.438361 129.436714 
L 627.438361 88.623164 
" style="fill:none;stroke:#0000ff;stroke-width:1.5;"/>
    <path clip-path="url(#p44306e6cb7)" d="M 635.667277 136.092078 
L 635.667277 95.278528 
" style="fill:none;stroke:#0000ff;stroke-width:1.5;"/>
    <path clip-path="url(#p44306e6cb7)" d="M 643.896193 105.103103 
L 643.896193 64.289553 
" style="fill:none;stroke:#0000ff;stroke-width:1.5;"/>
    <path clip-path="url(#p44306e6cb7)" d="M 652.125108 97.521034 
L 652.125108 56.707484 
" style="fill:none;stroke:#0000ff;stroke-width:1.5;"/>
    <path clip-path="url(#p44306e6cb7)" d="M 660.354024 112.265449 
L 660.354024 71.451899 
" style="fill:none;stroke:#0000ff;stroke-width:1.5;"/>
    <path clip-path="url(#p44306e6cb7)" d="M 668.58294 86.189175 
L 668.58294 45.375625 
" style="fill:none;stroke:#0000ff;stroke-width:1.5;"/>
    <path clip-path="url(#p44306e6cb7)" d="M 676.811855 113.050062 
L 676.811855 72.236512 
" style="fill:none;stroke:#0000ff;stroke-width:1.5;"/>
    <path clip-path="url(#p44306e6cb7)" d="M 685.040771 132.95064 
L 685.040771 92.13709 
" style="fill:none;stroke:#0000ff;stroke-width:1.5;"/>
    <path clip-path="url(#p44306e6cb7)" d="M 693.269687 136.585436 
L 693.269687 95.771886 
" style="fill:none;stroke:#0000ff;stroke-width:1.5;"/>
    <path clip-path="url(#p44306e6cb7)" d="M 701.498602 109.066796 
L 701.498602 68.253246 
" style="fill:none;stroke:#0000ff;stroke-width:1.5;"/>
    <path clip-path="url(#p44306e6cb7)" d="M 709.727518 127.340917 
L 709.727518 86.527366 
" style="fill:none;stroke:#0000ff;stroke-width:1.5;"/>
    <path clip-path="url(#p44306e6cb7)" d="M 717.956434 141.86211 
L 717.956434 101.04856 
" style="fill:none;stroke:#0000ff;stroke-width:1.5;"/>
    <path clip-path="url(#p44306e6cb7)" d="M 726.185349 116.532251 
L 726.185349 75.718701 
" style="fill:none;stroke:#0000ff;stroke-width:1.5;"/>
    <path clip-path="url(#p44306e6cb7)" d="M 734.414265 117.429541 
L 734.414265 76.61599 
" style="fill:none;stroke:#0000ff;stroke-width:1.5;"/>
    <path clip-path="url(#p44306e6cb7)" d="M 742.643181 131.735061 
L 742.643181 90.92151 
" style="fill:none;stroke:#0000ff;stroke-width:1.5;"/>
    <path clip-path="url(#p44306e6cb7)" d="M 750.872096 139.008771 
L 750.872096 98.195221 
" style="fill:none;stroke:#0000ff;stroke-width:1.5;"/>
    <path clip-path="url(#p44306e6cb7)" d="M 759.101012 106.463144 
L 759.101012 65.649594 
" style="fill:none;stroke:#0000ff;stroke-width:1.5;"/>
    <path clip-path="url(#p44306e6cb7)" d="M 767.329928 128.791391 
L 767.329928 87.977841 
" style="fill:none;stroke:#0000ff;stroke-width:1.5;"/>
    <path clip-path="url(#p44306e6cb7)" d="M 775.558843 116.11891 
L 775.558843 75.305359 
" style="fill:none;stroke:#0000ff;stroke-width:1.5;"/>
    <path clip-path="url(#p44306e6cb7)" d="M 783.787759 147.755934 
L 783.787759 106.942384 
" style="fill:none;stroke:#0000ff;stroke-width:1.5;"/>
    <path clip-path="url(#p44306e6cb7)" d="M 792.016675 153.589175 
L 792.016675 112.775625 
" style="fill:none;stroke:#0000ff;stroke-width:1.5;"/>
    <path clip-path="url(#p44306e6cb7)" d="M 800.24559 118.942939 
L 800.24559 78.129389 
" style="fill:none;stroke:#0000ff;stroke-width:1.5;"/>
    <path clip-path="url(#p44306e6cb7)" d="M 808.474506 125.365207 
L 808.474506 84.551657 
" style="fill:none;stroke:#0000ff;stroke-width:1.5;"/>
    <path clip-path="url(#p44306e6cb7)" d="M 816.703422 144.898369 
L 816.703422 104.084819 
" style="fill:none;stroke:#0000ff;stroke-width:1.5;"/>
    <path clip-path="url(#p44306e6cb7)" d="M 824.932337 135.244777 
L 824.932337 94.431226 
" style="fill:none;stroke:#0000ff;stroke-width:1.5;"/>
    <path clip-path="url(#p44306e6cb7)" d="M 833.161253 108.349588 
L 833.161253 67.536038 
" style="fill:none;stroke:#0000ff;stroke-width:1.5;"/>
    <path clip-path="url(#p44306e6cb7)" d="M 849.619084 132.973491 
L 849.619084 92.15994 
" style="fill:none;stroke:#0000ff;stroke-width:1.5;"/>
    <path clip-path="url(#p44306e6cb7)" d="M 857.848 119.556803 
L 857.848 78.743253 
" style="fill:none;stroke:#0000ff;stroke-width:1.5;"/>
   </g>
   <g id="line2d_11">
    <path clip-path="url(#p44306e6cb7)" d="M 174.848 103.806349 
L 857.848 103.806349 
" style="fill:none;stroke:#ff0000;stroke-linecap:square;stroke-width:1.5;"/>
   </g>
   <g id="line2d_12">
    <defs>
     <path d="M -3 0 
L 3 0 
M 0 3 
L 0 -3 
" id="m20935b3e36" style="stroke:#0000ff;"/>
    </defs>
    <g clip-path="url(#p44306e6cb7)">
     <use style="fill:#0000ff;stroke:#0000ff;" x="174.848" xlink:href="#m20935b3e36" y="82.609484"/>
     <use style="fill:#0000ff;stroke:#0000ff;" x="191.305831" xlink:href="#m20935b3e36" y="102.009687"/>
     <use style="fill:#0000ff;stroke:#0000ff;" x="199.534747" xlink:href="#m20935b3e36" y="86.127068"/>
     <use style="fill:#0000ff;stroke:#0000ff;" x="207.763663" xlink:href="#m20935b3e36" y="121.506872"/>
     <use style="fill:#0000ff;stroke:#0000ff;" x="215.992578" xlink:href="#m20935b3e36" y="88.453846"/>
     <use style="fill:#0000ff;stroke:#0000ff;" x="224.221494" xlink:href="#m20935b3e36" y="124.653873"/>
     <use style="fill:#0000ff;stroke:#0000ff;" x="232.45041" xlink:href="#m20935b3e36" y="89.826611"/>
     <use style="fill:#0000ff;stroke:#0000ff;" x="240.679325" xlink:href="#m20935b3e36" y="116.055576"/>
     <use style="fill:#0000ff;stroke:#0000ff;" x="248.908241" xlink:href="#m20935b3e36" y="99.487766"/>
     <use style="fill:#0000ff;stroke:#0000ff;" x="257.137157" xlink:href="#m20935b3e36" y="97.537953"/>
     <use style="fill:#0000ff;stroke:#0000ff;" x="265.366072" xlink:href="#m20935b3e36" y="101.211251"/>
     <use style="fill:#0000ff;stroke:#0000ff;" x="273.594988" xlink:href="#m20935b3e36" y="101.625852"/>
     <use style="fill:#0000ff;stroke:#0000ff;" x="281.823904" xlink:href="#m20935b3e36" y="79.912445"/>
     <use style="fill:#0000ff;stroke:#0000ff;" x="290.052819" xlink:href="#m20935b3e36" y="100.832223"/>
     <use style="fill:#0000ff;stroke:#0000ff;" x="298.281735" xlink:href="#m20935b3e36" y="98.958448"/>
     <use style="fill:#0000ff;stroke:#0000ff;" x="306.510651" xlink:href="#m20935b3e36" y="84.028069"/>
     <use style="fill:#0000ff;stroke:#0000ff;" x="314.739566" xlink:href="#m20935b3e36" y="114.98532"/>
     <use style="fill:#0000ff;stroke:#0000ff;" x="322.968482" xlink:href="#m20935b3e36" y="121.558004"/>
     <use style="fill:#0000ff;stroke:#0000ff;" x="331.197398" xlink:href="#m20935b3e36" y="99.839481"/>
     <use style="fill:#0000ff;stroke:#0000ff;" x="339.426313" xlink:href="#m20935b3e36" y="100.02607"/>
     <use style="fill:#0000ff;stroke:#0000ff;" x="347.655229" xlink:href="#m20935b3e36" y="111.734767"/>
     <use style="fill:#0000ff;stroke:#0000ff;" x="355.884145" xlink:href="#m20935b3e36" y="101.324554"/>
     <use style="fill:#0000ff;stroke:#0000ff;" x="364.11306" xlink:href="#m20935b3e36" y="113.734302"/>
     <use style="fill:#0000ff;stroke:#0000ff;" x="372.341976" xlink:href="#m20935b3e36" y="108.061164"/>
     <use style="fill:#0000ff;stroke:#0000ff;" x="380.570892" xlink:href="#m20935b3e36" y="115.231729"/>
     <use style="fill:#0000ff;stroke:#0000ff;" x="388.799807" xlink:href="#m20935b3e36" y="96.522785"/>
     <use style="fill:#0000ff;stroke:#0000ff;" x="397.028723" xlink:href="#m20935b3e36" y="85.441375"/>
     <use style="fill:#0000ff;stroke:#0000ff;" x="405.257639" xlink:href="#m20935b3e36" y="102.427229"/>
     <use style="fill:#0000ff;stroke:#0000ff;" x="413.486554" xlink:href="#m20935b3e36" y="120.120861"/>
     <use style="fill:#0000ff;stroke:#0000ff;" x="421.71547" xlink:href="#m20935b3e36" y="109.113752"/>
     <use style="fill:#0000ff;stroke:#0000ff;" x="429.944386" xlink:href="#m20935b3e36" y="108.918968"/>
     <use style="fill:#0000ff;stroke:#0000ff;" x="438.173301" xlink:href="#m20935b3e36" y="98.284971"/>
     <use style="fill:#0000ff;stroke:#0000ff;" x="446.402217" xlink:href="#m20935b3e36" y="131.350467"/>
     <use style="fill:#0000ff;stroke:#0000ff;" x="454.631133" xlink:href="#m20935b3e36" y="103.001251"/>
     <use style="fill:#0000ff;stroke:#0000ff;" x="462.860048" xlink:href="#m20935b3e36" y="100.243342"/>
     <use style="fill:#0000ff;stroke:#0000ff;" x="471.088964" xlink:href="#m20935b3e36" y="115.030987"/>
     <use style="fill:#0000ff;stroke:#0000ff;" x="479.31788" xlink:href="#m20935b3e36" y="97.165279"/>
     <use style="fill:#0000ff;stroke:#0000ff;" x="487.546795" xlink:href="#m20935b3e36" y="126.949329"/>
     <use style="fill:#0000ff;stroke:#0000ff;" x="495.775711" xlink:href="#m20935b3e36" y="114.205312"/>
     <use style="fill:#0000ff;stroke:#0000ff;" x="504.004627" xlink:href="#m20935b3e36" y="104.073072"/>
     <use style="fill:#0000ff;stroke:#0000ff;" x="512.233542" xlink:href="#m20935b3e36" y="111.043939"/>
     <use style="fill:#0000ff;stroke:#0000ff;" x="520.462458" xlink:href="#m20935b3e36" y="99.332286"/>
     <use style="fill:#0000ff;stroke:#0000ff;" x="528.691373" xlink:href="#m20935b3e36" y="107.279921"/>
     <use style="fill:#0000ff;stroke:#0000ff;" x="536.920289" xlink:href="#m20935b3e36" y="100.322101"/>
     <use style="fill:#0000ff;stroke:#0000ff;" x="545.149205" xlink:href="#m20935b3e36" y="79.902452"/>
     <use style="fill:#0000ff;stroke:#0000ff;" x="553.37812" xlink:href="#m20935b3e36" y="94.743129"/>
     <use style="fill:#0000ff;stroke:#0000ff;" x="561.607036" xlink:href="#m20935b3e36" y="124.123113"/>
     <use style="fill:#0000ff;stroke:#0000ff;" x="569.835952" xlink:href="#m20935b3e36" y="98.835812"/>
     <use style="fill:#0000ff;stroke:#0000ff;" x="578.064867" xlink:href="#m20935b3e36" y="113.086793"/>
     <use style="fill:#0000ff;stroke:#0000ff;" x="586.293783" xlink:href="#m20935b3e36" y="81.070563"/>
     <use style="fill:#0000ff;stroke:#0000ff;" x="594.522699" xlink:href="#m20935b3e36" y="92.58427"/>
     <use style="fill:#0000ff;stroke:#0000ff;" x="602.751614" xlink:href="#m20935b3e36" y="98.96849"/>
     <use style="fill:#0000ff;stroke:#0000ff;" x="610.98053" xlink:href="#m20935b3e36" y="110.358331"/>
     <use style="fill:#0000ff;stroke:#0000ff;" x="619.209446" xlink:href="#m20935b3e36" y="103.165919"/>
     <use style="fill:#0000ff;stroke:#0000ff;" x="627.438361" xlink:href="#m20935b3e36" y="109.029939"/>
     <use style="fill:#0000ff;stroke:#0000ff;" x="635.667277" xlink:href="#m20935b3e36" y="115.685303"/>
     <use style="fill:#0000ff;stroke:#0000ff;" x="643.896193" xlink:href="#m20935b3e36" y="84.696328"/>
     <use style="fill:#0000ff;stroke:#0000ff;" x="652.125108" xlink:href="#m20935b3e36" y="77.114259"/>
     <use style="fill:#0000ff;stroke:#0000ff;" x="660.354024" xlink:href="#m20935b3e36" y="91.858674"/>
     <use style="fill:#0000ff;stroke:#0000ff;" x="668.58294" xlink:href="#m20935b3e36" y="65.7824"/>
     <use style="fill:#0000ff;stroke:#0000ff;" x="676.811855" xlink:href="#m20935b3e36" y="92.643287"/>
     <use style="fill:#0000ff;stroke:#0000ff;" x="685.040771" xlink:href="#m20935b3e36" y="112.543865"/>
     <use style="fill:#0000ff;stroke:#0000ff;" x="693.269687" xlink:href="#m20935b3e36" y="116.178661"/>
     <use style="fill:#0000ff;stroke:#0000ff;" x="701.498602" xlink:href="#m20935b3e36" y="88.660021"/>
     <use style="fill:#0000ff;stroke:#0000ff;" x="709.727518" xlink:href="#m20935b3e36" y="106.934141"/>
     <use style="fill:#0000ff;stroke:#0000ff;" x="717.956434" xlink:href="#m20935b3e36" y="121.455335"/>
     <use style="fill:#0000ff;stroke:#0000ff;" x="726.185349" xlink:href="#m20935b3e36" y="96.125476"/>
     <use style="fill:#0000ff;stroke:#0000ff;" x="734.414265" xlink:href="#m20935b3e36" y="97.022766"/>
     <use style="fill:#0000ff;stroke:#0000ff;" x="742.643181" xlink:href="#m20935b3e36" y="111.328285"/>
     <use style="fill:#0000ff;stroke:#0000ff;" x="750.872096" xlink:href="#m20935b3e36" y="118.601996"/>
     <use style="fill:#0000ff;stroke:#0000ff;" x="759.101012" xlink:href="#m20935b3e36" y="86.056369"/>
     <use style="fill:#0000ff;stroke:#0000ff;" x="767.329928" xlink:href="#m20935b3e36" y="108.384616"/>
     <use style="fill:#0000ff;stroke:#0000ff;" x="775.558843" xlink:href="#m20935b3e36" y="95.712135"/>
     <use style="fill:#0000ff;stroke:#0000ff;" x="783.787759" xlink:href="#m20935b3e36" y="127.349159"/>
     <use style="fill:#0000ff;stroke:#0000ff;" x="792.016675" xlink:href="#m20935b3e36" y="133.1824"/>
     <use style="fill:#0000ff;stroke:#0000ff;" x="800.24559" xlink:href="#m20935b3e36" y="98.536164"/>
     <use style="fill:#0000ff;stroke:#0000ff;" x="808.474506" xlink:href="#m20935b3e36" y="104.958432"/>
     <use style="fill:#0000ff;stroke:#0000ff;" x="816.703422" xlink:href="#m20935b3e36" y="124.491594"/>
     <use style="fill:#0000ff;stroke:#0000ff;" x="824.932337" xlink:href="#m20935b3e36" y="114.838001"/>
     <use style="fill:#0000ff;stroke:#0000ff;" x="833.161253" xlink:href="#m20935b3e36" y="87.942813"/>
     <use style="fill:#0000ff;stroke:#0000ff;" x="849.619084" xlink:href="#m20935b3e36" y="112.566715"/>
     <use style="fill:#0000ff;stroke:#0000ff;" x="857.848" xlink:href="#m20935b3e36" y="99.150028"/>
    </g>
   </g>
   <g id="patch_3">
    <path d="M 147.528 135.8784 
L 147.528 63.0864 
" style="fill:none;stroke:#000000;stroke-linecap:square;stroke-linejoin:miter;stroke-width:0.8;"/>
   </g>
   <g id="patch_4">
    <path d="M 885.168 135.8784 
L 885.168 63.0864 
" style="fill:none;stroke:#000000;stroke-linecap:square;stroke-linejoin:miter;stroke-width:0.8;"/>
   </g>
   <g id="patch_5">
    <path d="M 147.528 135.8784 
L 885.168 135.8784 
" style="fill:none;stroke:#000000;stroke-linecap:square;stroke-linejoin:miter;stroke-width:0.8;"/>
   </g>
   <g id="patch_6">
    <path d="M 147.528 63.0864 
L 885.168 63.0864 
" style="fill:none;stroke:#000000;stroke-linecap:square;stroke-linejoin:miter;stroke-width:0.8;"/>
   </g>
   <g id="text_5">
    <!-- Function (0/0): y = a*exp(-(x-x0)**2/w**2)+b -->
    <defs>
     <path d="M 9.8125 72.90625 
L 51.703125 72.90625 
L 51.703125 64.59375 
L 19.671875 64.59375 
L 19.671875 43.109375 
L 48.578125 43.109375 
L 48.578125 34.8125 
L 19.671875 34.8125 
L 19.671875 0 
L 9.8125 0 
z
" id="DejaVuSans-46"/>
     <path d="M 48.78125 52.59375 
L 48.78125 44.1875 
Q 44.96875 46.296875 41.140625 47.34375 
Q 37.3125 48.390625 33.40625 48.390625 
Q 24.65625 48.390625 19.8125 42.84375 
Q 14.984375 37.3125 14.984375 27.296875 
Q 14.984375 17.28125 19.8125 11.734375 
Q 24.65625 6.203125 33.40625 6.203125 
Q 37.3125 6.203125 41.140625 7.25 
Q 44.96875 8.296875 48.78125 10.40625 
L 48.78125 2.09375 
Q 45.015625 0.34375 40.984375 -0.53125 
Q 36.96875 -1.421875 32.421875 -1.421875 
Q 20.0625 -1.421875 12.78125 6.34375 
Q 5.515625 14.109375 5.515625 27.296875 
Q 5.515625 40.671875 12.859375 48.328125 
Q 20.21875 56 33.015625 56 
Q 37.15625 56 41.109375 55.140625 
Q 45.0625 54.296875 48.78125 52.59375 
z
" id="DejaVuSans-63"/>
     <path d="M 30.609375 48.390625 
Q 23.390625 48.390625 19.1875 42.75 
Q 14.984375 37.109375 14.984375 27.296875 
Q 14.984375 17.484375 19.15625 11.84375 
Q 23.34375 6.203125 30.609375 6.203125 
Q 37.796875 6.203125 41.984375 11.859375 
Q 46.1875 17.53125 46.1875 27.296875 
Q 46.1875 37.015625 41.984375 42.703125 
Q 37.796875 48.390625 30.609375 48.390625 
z
M 30.609375 56 
Q 42.328125 56 49.015625 48.375 
Q 55.71875 40.765625 55.71875 27.296875 
Q 55.71875 13.875 49.015625 6.21875 
Q 42.328125 -1.421875 30.609375 -1.421875 
Q 18.84375 -1.421875 12.171875 6.21875 
Q 5.515625 13.875 5.515625 27.296875 
Q 5.515625 40.765625 12.171875 48.375 
Q 18.84375 56 30.609375 56 
z
" id="DejaVuSans-6f"/>
     <path id="DejaVuSans-20"/>
     <path d="M 31 75.875 
Q 24.46875 64.65625 21.28125 53.65625 
Q 18.109375 42.671875 18.109375 31.390625 
Q 18.109375 20.125 21.3125 9.0625 
Q 24.515625 -2 31 -13.1875 
L 23.1875 -13.1875 
Q 15.875 -1.703125 12.234375 9.375 
Q 8.59375 20.453125 8.59375 31.390625 
Q 8.59375 42.28125 12.203125 53.3125 
Q 15.828125 64.359375 23.1875 75.875 
z
" id="DejaVuSans-28"/>
     <path d="M 31.78125 66.40625 
Q 24.171875 66.40625 20.328125 58.90625 
Q 16.5 51.421875 16.5 36.375 
Q 16.5 21.390625 20.328125 13.890625 
Q 24.171875 6.390625 31.78125 6.390625 
Q 39.453125 6.390625 43.28125 13.890625 
Q 47.125 21.390625 47.125 36.375 
Q 47.125 51.421875 43.28125 58.90625 
Q 39.453125 66.40625 31.78125 66.40625 
z
M 31.78125 74.21875 
Q 44.046875 74.21875 50.515625 64.515625 
Q 56.984375 54.828125 56.984375 36.375 
Q 56.984375 17.96875 50.515625 8.265625 
Q 44.046875 -1.421875 31.78125 -1.421875 
Q 19.53125 -1.421875 13.0625 8.265625 
Q 6.59375 17.96875 6.59375 36.375 
Q 6.59375 54.828125 13.0625 64.515625 
Q 19.53125 74.21875 31.78125 74.21875 
z
" id="DejaVuSans-30"/>
     <path d="M 25.390625 72.90625 
L 33.6875 72.90625 
L 8.296875 -9.28125 
L 0 -9.28125 
z
" id="DejaVuSans-2f"/>
     <path d="M 8.015625 75.875 
L 15.828125 75.875 
Q 23.140625 64.359375 26.78125 53.3125 
Q 30.421875 42.28125 30.421875 31.390625 
Q 30.421875 20.453125 26.78125 9.375 
Q 23.140625 -1.703125 15.828125 -13.1875 
L 8.015625 -13.1875 
Q 14.5 -2 17.703125 9.0625 
Q 20.90625 20.125 20.90625 31.390625 
Q 20.90625 42.671875 17.703125 53.65625 
Q 14.5 64.65625 8.015625 75.875 
z
" id="DejaVuSans-29"/>
     <path d="M 11.71875 12.40625 
L 22.015625 12.40625 
L 22.015625 0 
L 11.71875 0 
z
M 11.71875 51.703125 
L 22.015625 51.703125 
L 22.015625 39.3125 
L 11.71875 39.3125 
z
" id="DejaVuSans-3a"/>
     <path d="M 32.171875 -5.078125 
Q 28.375 -14.84375 24.75 -17.8125 
Q 21.140625 -20.796875 15.09375 -20.796875 
L 7.90625 -20.796875 
L 7.90625 -13.28125 
L 13.1875 -13.28125 
Q 16.890625 -13.28125 18.9375 -11.515625 
Q 21 -9.765625 23.484375 -3.21875 
L 25.09375 0.875 
L 2.984375 54.6875 
L 12.5 54.6875 
L 29.59375 11.921875 
L 46.6875 54.6875 
L 56.203125 54.6875 
z
" id="DejaVuSans-79"/>
     <path d="M 10.59375 45.40625 
L 73.1875 45.40625 
L 73.1875 37.203125 
L 10.59375 37.203125 
z
M 10.59375 25.484375 
L 73.1875 25.484375 
L 73.1875 17.1875 
L 10.59375 17.1875 
z
" id="DejaVuSans-3d"/>
     <path d="M 47.015625 60.890625 
L 29.5 51.421875 
L 47.015625 41.890625 
L 44.1875 37.109375 
L 27.78125 47.015625 
L 27.78125 28.609375 
L 22.21875 28.609375 
L 22.21875 47.015625 
L 5.8125 37.109375 
L 2.984375 41.890625 
L 20.515625 51.421875 
L 2.984375 60.890625 
L 5.8125 65.71875 
L 22.21875 55.8125 
L 22.21875 74.21875 
L 27.78125 74.21875 
L 27.78125 55.8125 
L 44.1875 65.71875 
z
" id="DejaVuSans-2a"/>
     <path d="M 54.890625 54.6875 
L 35.109375 28.078125 
L 55.90625 0 
L 45.3125 0 
L 29.390625 21.484375 
L 13.484375 0 
L 2.875 0 
L 24.125 28.609375 
L 4.6875 54.6875 
L 15.28125 54.6875 
L 29.78125 35.203125 
L 44.28125 54.6875 
z
" id="DejaVuSans-78"/>
     <path d="M 18.109375 8.203125 
L 18.109375 -20.796875 
L 9.078125 -20.796875 
L 9.078125 54.6875 
L 18.109375 54.6875 
L 18.109375 46.390625 
Q 20.953125 51.265625 25.265625 53.625 
Q 29.59375 56 35.59375 56 
Q 45.5625 56 51.78125 48.09375 
Q 58.015625 40.1875 58.015625 27.296875 
Q 58.015625 14.40625 51.78125 6.484375 
Q 45.5625 -1.421875 35.59375 -1.421875 
Q 29.59375 -1.421875 25.265625 0.953125 
Q 20.953125 3.328125 18.109375 8.203125 
z
M 48.6875 27.296875 
Q 48.6875 37.203125 44.609375 42.84375 
Q 40.53125 48.484375 33.40625 48.484375 
Q 26.265625 48.484375 22.1875 42.84375 
Q 18.109375 37.203125 18.109375 27.296875 
Q 18.109375 17.390625 22.1875 11.75 
Q 26.265625 6.109375 33.40625 6.109375 
Q 40.53125 6.109375 44.609375 11.75 
Q 48.6875 17.390625 48.6875 27.296875 
z
" id="DejaVuSans-70"/>
     <path d="M 4.890625 31.390625 
L 31.203125 31.390625 
L 31.203125 23.390625 
L 4.890625 23.390625 
z
" id="DejaVuSans-2d"/>
     <path d="M 4.203125 54.6875 
L 13.1875 54.6875 
L 24.421875 12.015625 
L 35.59375 54.6875 
L 46.1875 54.6875 
L 57.421875 12.015625 
L 68.609375 54.6875 
L 77.59375 54.6875 
L 63.28125 0 
L 52.6875 0 
L 40.921875 44.828125 
L 29.109375 0 
L 18.5 0 
z
" id="DejaVuSans-77"/>
     <path d="M 46 62.703125 
L 46 35.5 
L 73.1875 35.5 
L 73.1875 27.203125 
L 46 27.203125 
L 46 0 
L 37.796875 0 
L 37.796875 27.203125 
L 10.59375 27.203125 
L 10.59375 35.5 
L 37.796875 35.5 
L 37.796875 62.703125 
z
" id="DejaVuSans-2b"/>
     <path d="M 48.6875 27.296875 
Q 48.6875 37.203125 44.609375 42.84375 
Q 40.53125 48.484375 33.40625 48.484375 
Q 26.265625 48.484375 22.1875 42.84375 
Q 18.109375 37.203125 18.109375 27.296875 
Q 18.109375 17.390625 22.1875 11.75 
Q 26.265625 6.109375 33.40625 6.109375 
Q 40.53125 6.109375 44.609375 11.75 
Q 48.6875 17.390625 48.6875 27.296875 
z
M 18.109375 46.390625 
Q 20.953125 51.265625 25.265625 53.625 
Q 29.59375 56 35.59375 56 
Q 45.5625 56 51.78125 48.09375 
Q 58.015625 40.1875 58.015625 27.296875 
Q 58.015625 14.40625 51.78125 6.484375 
Q 45.5625 -1.421875 35.59375 -1.421875 
Q 29.59375 -1.421875 25.265625 0.953125 
Q 20.953125 3.328125 18.109375 8.203125 
L 18.109375 0 
L 9.078125 0 
L 9.078125 75.984375 
L 18.109375 75.984375 
z
" id="DejaVuSans-62"/>
    </defs>
    <g transform="translate(147.528 34.690775)scale(0.1 -0.1)">
     <use xlink:href="#DejaVuSans-46"/>
     <use x="57.441406" xlink:href="#DejaVuSans-75"/>
     <use x="120.820312" xlink:href="#DejaVuSans-6e"/>
     <use x="184.199219" xlink:href="#DejaVuSans-63"/>
     <use x="239.179688" xlink:href="#DejaVuSans-74"/>
     <use x="278.388672" xlink:href="#DejaVuSans-69"/>
     <use x="306.171875" xlink:href="#DejaVuSans-6f"/>
     <use x="367.353516" xlink:href="#DejaVuSans-6e"/>
     <use x="430.732422" xlink:href="#DejaVuSans-20"/>
     <use x="462.519531" xlink:href="#DejaVuSans-28"/>
     <use x="501.533203" xlink:href="#DejaVuSans-30"/>
     <use x="565.15625" xlink:href="#DejaVuSans-2f"/>
     <use x="598.847656" xlink:href="#DejaVuSans-30"/>
     <use x="662.470703" xlink:href="#DejaVuSans-29"/>
     <use x="701.484375" xlink:href="#DejaVuSans-3a"/>
     <use x="735.175781" xlink:href="#DejaVuSans-20"/>
     <use x="766.962891" xlink:href="#DejaVuSans-79"/>
     <use x="826.142578" xlink:href="#DejaVuSans-20"/>
     <use x="857.929688" xlink:href="#DejaVuSans-3d"/>
     <use x="941.71875" xlink:href="#DejaVuSans-20"/>
     <use x="973.505859" xlink:href="#DejaVuSans-61"/>
     <use x="1034.785156" xlink:href="#DejaVuSans-2a"/>
     <use x="1084.785156" xlink:href="#DejaVuSans-65"/>
     <use x="1146.292969" xlink:href="#DejaVuSans-78"/>
     <use x="1205.472656" xlink:href="#DejaVuSans-70"/>
     <use x="1268.949219" xlink:href="#DejaVuSans-28"/>
     <use x="1307.962891" xlink:href="#DejaVuSans-2d"/>
     <use x="1344.046875" xlink:href="#DejaVuSans-28"/>
     <use x="1383.060547" xlink:href="#DejaVuSans-78"/>
     <use x="1442.240234" xlink:href="#DejaVuSans-2d"/>
     <use x="1478.324219" xlink:href="#DejaVuSans-78"/>
     <use x="1537.503906" xlink:href="#DejaVuSans-30"/>
     <use x="1601.126953" xlink:href="#DejaVuSans-29"/>
     <use x="1640.140625" xlink:href="#DejaVuSans-2a"/>
     <use x="1690.140625" xlink:href="#DejaVuSans-2a"/>
     <use x="1740.140625" xlink:href="#DejaVuSans-32"/>
     <use x="1803.763672" xlink:href="#DejaVuSans-2f"/>
     <use x="1837.455078" xlink:href="#DejaVuSans-77"/>
     <use x="1919.242188" xlink:href="#DejaVuSans-2a"/>
     <use x="1969.242188" xlink:href="#DejaVuSans-2a"/>
     <use x="2019.242188" xlink:href="#DejaVuSans-32"/>
     <use x="2082.865234" xlink:href="#DejaVuSans-29"/>
     <use x="2121.878906" xlink:href="#DejaVuSans-2b"/>
     <use x="2205.667969" xlink:href="#DejaVuSans-62"/>
    </g>
    <!-- Fit: a=467.2$\pm$8.4, b=24.0$\pm$9.5, x0=4.64606$\pm$0.00095, -->
    <defs>
     <path d="M 37.796875 64.3125 
L 12.890625 25.390625 
L 37.796875 25.390625 
z
M 35.203125 72.90625 
L 47.609375 72.90625 
L 47.609375 25.390625 
L 58.015625 25.390625 
L 58.015625 17.1875 
L 47.609375 17.1875 
L 47.609375 0 
L 37.796875 0 
L 37.796875 17.1875 
L 4.890625 17.1875 
L 4.890625 26.703125 
z
" id="DejaVuSans-34"/>
     <path d="M 33.015625 40.375 
Q 26.375 40.375 22.484375 35.828125 
Q 18.609375 31.296875 18.609375 23.390625 
Q 18.609375 15.53125 22.484375 10.953125 
Q 26.375 6.390625 33.015625 6.390625 
Q 39.65625 6.390625 43.53125 10.953125 
Q 47.40625 15.53125 47.40625 23.390625 
Q 47.40625 31.296875 43.53125 35.828125 
Q 39.65625 40.375 33.015625 40.375 
z
M 52.59375 71.296875 
L 52.59375 62.3125 
Q 48.875 64.0625 45.09375 64.984375 
Q 41.3125 65.921875 37.59375 65.921875 
Q 27.828125 65.921875 22.671875 59.328125 
Q 17.53125 52.734375 16.796875 39.40625 
Q 19.671875 43.65625 24.015625 45.921875 
Q 28.375 48.1875 33.59375 48.1875 
Q 44.578125 48.1875 50.953125 41.515625 
Q 57.328125 34.859375 57.328125 23.390625 
Q 57.328125 12.15625 50.6875 5.359375 
Q 44.046875 -1.421875 33.015625 -1.421875 
Q 20.359375 -1.421875 13.671875 8.265625 
Q 6.984375 17.96875 6.984375 36.375 
Q 6.984375 53.65625 15.1875 63.9375 
Q 23.390625 74.21875 37.203125 74.21875 
Q 40.921875 74.21875 44.703125 73.484375 
Q 48.484375 72.75 52.59375 71.296875 
z
" id="DejaVuSans-36"/>
     <path d="M 8.203125 72.90625 
L 55.078125 72.90625 
L 55.078125 68.703125 
L 28.609375 0 
L 18.3125 0 
L 43.21875 64.59375 
L 8.203125 64.59375 
z
" id="DejaVuSans-37"/>
     <path d="M 10.6875 12.40625 
L 21 12.40625 
L 21 0 
L 10.6875 0 
z
" id="DejaVuSans-2e"/>
     <path d="M 46 62.703125 
L 46 43.796875 
L 73.1875 43.796875 
L 73.1875 35.5 
L 46 35.5 
L 46 16.609375 
L 37.796875 16.609375 
L 37.796875 35.5 
L 10.59375 35.5 
L 10.59375 43.796875 
L 37.796875 43.796875 
L 37.796875 62.703125 
z
M 10.59375 8.296875 
L 73.1875 8.296875 
L 73.1875 0 
L 10.59375 0 
z
" id="DejaVuSans-b1"/>
     <path d="M 31.78125 34.625 
Q 24.75 34.625 20.71875 30.859375 
Q 16.703125 27.09375 16.703125 20.515625 
Q 16.703125 13.921875 20.71875 10.15625 
Q 24.75 6.390625 31.78125 6.390625 
Q 38.8125 6.390625 42.859375 10.171875 
Q 46.921875 13.96875 46.921875 20.515625 
Q 46.921875 27.09375 42.890625 30.859375 
Q 38.875 34.625 31.78125 34.625 
z
M 21.921875 38.8125 
Q 15.578125 40.375 12.03125 44.71875 
Q 8.5 49.078125 8.5 55.328125 
Q 8.5 64.0625 14.71875 69.140625 
Q 20.953125 74.21875 31.78125 74.21875 
Q 42.671875 74.21875 48.875 69.140625 
Q 55.078125 64.0625 55.078125 55.328125 
Q 55.078125 49.078125 51.53125 44.71875 
Q 48 40.375 41.703125 38.8125 
Q 48.828125 37.15625 52.796875 32.3125 
Q 56.78125 27.484375 56.78125 20.515625 
Q 56.78125 9.90625 50.3125 4.234375 
Q 43.84375 -1.421875 31.78125 -1.421875 
Q 19.734375 -1.421875 13.25 4.234375 
Q 6.78125 9.90625 6.78125 20.515625 
Q 6.78125 27.484375 10.78125 32.3125 
Q 14.796875 37.15625 21.921875 38.8125 
z
M 18.3125 54.390625 
Q 18.3125 48.734375 21.84375 45.5625 
Q 25.390625 42.390625 31.78125 42.390625 
Q 38.140625 42.390625 41.71875 45.5625 
Q 45.3125 48.734375 45.3125 54.390625 
Q 45.3125 60.0625 41.71875 63.234375 
Q 38.140625 66.40625 31.78125 66.40625 
Q 25.390625 66.40625 21.84375 63.234375 
Q 18.3125 60.0625 18.3125 54.390625 
z
" id="DejaVuSans-38"/>
     <path d="M 11.71875 12.40625 
L 22.015625 12.40625 
L 22.015625 4 
L 14.015625 -11.625 
L 7.71875 -11.625 
L 11.71875 4 
z
" id="DejaVuSans-2c"/>
     <path d="M 10.984375 1.515625 
L 10.984375 10.5 
Q 14.703125 8.734375 18.5 7.8125 
Q 22.3125 6.890625 25.984375 6.890625 
Q 35.75 6.890625 40.890625 13.453125 
Q 46.046875 20.015625 46.78125 33.40625 
Q 43.953125 29.203125 39.59375 26.953125 
Q 35.25 24.703125 29.984375 24.703125 
Q 19.046875 24.703125 12.671875 31.3125 
Q 6.296875 37.9375 6.296875 49.421875 
Q 6.296875 60.640625 12.9375 67.421875 
Q 19.578125 74.21875 30.609375 74.21875 
Q 43.265625 74.21875 49.921875 64.515625 
Q 56.59375 54.828125 56.59375 36.375 
Q 56.59375 19.140625 48.40625 8.859375 
Q 40.234375 -1.421875 26.421875 -1.421875 
Q 22.703125 -1.421875 18.890625 -0.6875 
Q 15.09375 0.046875 10.984375 1.515625 
z
M 30.609375 32.421875 
Q 37.25 32.421875 41.125 36.953125 
Q 45.015625 41.5 45.015625 49.421875 
Q 45.015625 57.28125 41.125 61.84375 
Q 37.25 66.40625 30.609375 66.40625 
Q 23.96875 66.40625 20.09375 61.84375 
Q 16.21875 57.28125 16.21875 49.421875 
Q 16.21875 41.5 20.09375 36.953125 
Q 23.96875 32.421875 30.609375 32.421875 
z
" id="DejaVuSans-39"/>
     <path d="M 10.796875 72.90625 
L 49.515625 72.90625 
L 49.515625 64.59375 
L 19.828125 64.59375 
L 19.828125 46.734375 
Q 21.96875 47.46875 24.109375 47.828125 
Q 26.265625 48.1875 28.421875 48.1875 
Q 40.625 48.1875 47.75 41.5 
Q 54.890625 34.8125 54.890625 23.390625 
Q 54.890625 11.625 47.5625 5.09375 
Q 40.234375 -1.421875 26.90625 -1.421875 
Q 22.3125 -1.421875 17.546875 -0.640625 
Q 12.796875 0.140625 7.71875 1.703125 
L 7.71875 11.625 
Q 12.109375 9.234375 16.796875 8.0625 
Q 21.484375 6.890625 26.703125 6.890625 
Q 35.15625 6.890625 40.078125 11.328125 
Q 45.015625 15.765625 45.015625 23.390625 
Q 45.015625 31 40.078125 35.4375 
Q 35.15625 39.890625 26.703125 39.890625 
Q 22.75 39.890625 18.8125 39.015625 
Q 14.890625 38.140625 10.796875 36.28125 
z
" id="DejaVuSans-35"/>
    </defs>
    <g transform="translate(147.528 45.888588)scale(0.1 -0.1)">
     <use transform="translate(0 0.015625)" xlink:href="#DejaVuSans-46"/>
     <use transform="translate(57.519531 0.015625)" xlink:href="#DejaVuSans-69"/>
     <use transform="translate(85.302734 0.015625)" xlink:href="#DejaVuSans-74"/>
     <use transform="translate(124.511719 0.015625)" xlink:href="#DejaVuSans-3a"/>
     <use transform="translate(158.203125 0.015625)" xlink:href="#DejaVuSans-20"/>
     <use transform="translate(189.990234 0.015625)" xlink:href="#DejaVuSans-61"/>
     <use transform="translate(251.269531 0.015625)" xlink:href="#DejaVuSans-3d"/>
     <use transform="translate(335.058594 0.015625)" xlink:href="#DejaVuSans-34"/>
     <use transform="translate(398.681641 0.015625)" xlink:href="#DejaVuSans-36"/>
     <use transform="translate(462.304688 0.015625)" xlink:href="#DejaVuSans-37"/>
     <use transform="translate(525.927734 0.015625)" xlink:href="#DejaVuSans-2e"/>
     <use transform="translate(557.636719 0.015625)" xlink:href="#DejaVuSans-32"/>
     <use transform="translate(621.259766 0.015625)" xlink:href="#DejaVuSans-b1"/>
     <use transform="translate(705.048828 0.015625)" xlink:href="#DejaVuSans-38"/>
     <use transform="translate(768.671875 0.015625)" xlink:href="#DejaVuSans-2e"/>
     <use transform="translate(800.458984 0.015625)" xlink:href="#DejaVuSans-34"/>
     <use transform="translate(864.082031 0.015625)" xlink:href="#DejaVuSans-2c"/>
     <use transform="translate(895.869141 0.015625)" xlink:href="#DejaVuSans-20"/>
     <use transform="translate(927.65625 0.015625)" xlink:href="#DejaVuSans-62"/>
     <use transform="translate(991.132812 0.015625)" xlink:href="#DejaVuSans-3d"/>
     <use transform="translate(1074.921875 0.015625)" xlink:href="#DejaVuSans-32"/>
     <use transform="translate(1138.544922 0.015625)" xlink:href="#DejaVuSans-34"/>
     <use transform="translate(1202.167969 0.015625)" xlink:href="#DejaVuSans-2e"/>
     <use transform="translate(1233.955078 0.015625)" xlink:href="#DejaVuSans-30"/>
     <use transform="translate(1297.578125 0.015625)" xlink:href="#DejaVuSans-b1"/>
     <use transform="translate(1381.367188 0.015625)" xlink:href="#DejaVuSans-39"/>
     <use transform="translate(1444.990234 0.015625)" xlink:href="#DejaVuSans-2e"/>
     <use transform="translate(1476.777344 0.015625)" xlink:href="#DejaVuSans-35"/>
     <use transform="translate(1540.400391 0.015625)" xlink:href="#DejaVuSans-2c"/>
     <use transform="translate(1572.1875 0.015625)" xlink:href="#DejaVuSans-20"/>
     <use transform="translate(1603.974609 0.015625)" xlink:href="#DejaVuSans-78"/>
     <use transform="translate(1663.154297 0.015625)" xlink:href="#DejaVuSans-30"/>
     <use transform="translate(1726.777344 0.015625)" xlink:href="#DejaVuSans-3d"/>
     <use transform="translate(1810.566406 0.015625)" xlink:href="#DejaVuSans-34"/>
     <use transform="translate(1874.189453 0.015625)" xlink:href="#DejaVuSans-2e"/>
     <use transform="translate(1905.976562 0.015625)" xlink:href="#DejaVuSans-36"/>
     <use transform="translate(1969.599609 0.015625)" xlink:href="#DejaVuSans-34"/>
     <use transform="translate(2033.222656 0.015625)" xlink:href="#DejaVuSans-36"/>
     <use transform="translate(2096.845703 0.015625)" xlink:href="#DejaVuSans-30"/>
     <use transform="translate(2160.46875 0.015625)" xlink:href="#DejaVuSans-36"/>
     <use transform="translate(2224.091797 0.015625)" xlink:href="#DejaVuSans-b1"/>
     <use transform="translate(2307.880859 0.015625)" xlink:href="#DejaVuSans-30"/>
     <use transform="translate(2371.503906 0.015625)" xlink:href="#DejaVuSans-2e"/>
     <use transform="translate(2403.291016 0.015625)" xlink:href="#DejaVuSans-30"/>
     <use transform="translate(2466.914062 0.015625)" xlink:href="#DejaVuSans-30"/>
     <use transform="translate(2530.537109 0.015625)" xlink:href="#DejaVuSans-30"/>
     <use transform="translate(2594.160156 0.015625)" xlink:href="#DejaVuSans-39"/>
     <use transform="translate(2657.783203 0.015625)" xlink:href="#DejaVuSans-35"/>
     <use transform="translate(2721.40625 0.015625)" xlink:href="#DejaVuSans-2c"/>
    </g>
    <!--       w=0.1669$\pm$0.0042, -->
    <g transform="translate(147.528 57.0864)scale(0.1 -0.1)">
     <use transform="translate(0 0.78125)" xlink:href="#DejaVuSans-20"/>
     <use transform="translate(31.787109 0.78125)" xlink:href="#DejaVuSans-20"/>
     <use transform="translate(63.574219 0.78125)" xlink:href="#DejaVuSans-20"/>
     <use transform="translate(95.361328 0.78125)" xlink:href="#DejaVuSans-20"/>
     <use transform="translate(127.148438 0.78125)" xlink:href="#DejaVuSans-20"/>
     <use transform="translate(158.935547 0.78125)" xlink:href="#DejaVuSans-20"/>
     <use transform="translate(190.722656 0.78125)" xlink:href="#DejaVuSans-77"/>
     <use transform="translate(272.509766 0.78125)" xlink:href="#DejaVuSans-3d"/>
     <use transform="translate(356.298828 0.78125)" xlink:href="#DejaVuSans-30"/>
     <use transform="translate(419.921875 0.78125)" xlink:href="#DejaVuSans-2e"/>
     <use transform="translate(451.708984 0.78125)" xlink:href="#DejaVuSans-31"/>
     <use transform="translate(515.332031 0.78125)" xlink:href="#DejaVuSans-36"/>
     <use transform="translate(578.955078 0.78125)" xlink:href="#DejaVuSans-36"/>
     <use transform="translate(642.578125 0.78125)" xlink:href="#DejaVuSans-39"/>
     <use transform="translate(706.201172 0.78125)" xlink:href="#DejaVuSans-b1"/>
     <use transform="translate(789.990234 0.78125)" xlink:href="#DejaVuSans-30"/>
     <use transform="translate(853.613281 0.78125)" xlink:href="#DejaVuSans-2e"/>
     <use transform="translate(885.400391 0.78125)" xlink:href="#DejaVuSans-30"/>
     <use transform="translate(949.023438 0.78125)" xlink:href="#DejaVuSans-30"/>
     <use transform="translate(1012.646484 0.78125)" xlink:href="#DejaVuSans-34"/>
     <use transform="translate(1076.269531 0.78125)" xlink:href="#DejaVuSans-32"/>
     <use transform="translate(1139.892578 0.78125)" xlink:href="#DejaVuSans-2c"/>
    </g>
   </g>
  </g>
  <g id="axes_2">
   <g id="patch_7">
    <path d="M 147.528 436.752 
L 885.168 436.752 
L 885.168 145.584 
L 147.528 145.584 
z
" style="fill:#ffffff;"/>
   </g>
   <g id="matplotlib.axis_3">
    <g id="xtick_7">
     <g id="line2d_13">
      <g>
       <use style="stroke:#000000;stroke-width:0.8;" x="178.216523" xlink:href="#m5d46878bac" y="436.752"/>
      </g>
     </g>
     <g id="text_6">
      <!-- 4.4 -->
      <g transform="translate(168.674648 452.870125)scale(0.12 -0.12)">
       <use xlink:href="#DejaVuSans-34"/>
       <use x="63.623047" xlink:href="#DejaVuSans-2e"/>
       <use x="95.410156" xlink:href="#DejaVuSans-34"/>
      </g>
     </g>
    </g>
    <g id="xtick_8">
     <g id="line2d_14">
      <g>
       <use style="stroke:#000000;stroke-width:0.8;" x="316.545783" xlink:href="#m5d46878bac" y="436.752"/>
      </g>
     </g>
     <g id="text_7">
      <!-- 4.5 -->
      <g transform="translate(307.003908 452.870125)scale(0.12 -0.12)">
       <use xlink:href="#DejaVuSans-34"/>
       <use x="63.623047" xlink:href="#DejaVuSans-2e"/>
       <use x="95.410156" xlink:href="#DejaVuSans-35"/>
      </g>
     </g>
    </g>
    <g id="xtick_9">
     <g id="line2d_15">
      <g>
       <use style="stroke:#000000;stroke-width:0.8;" x="454.875043" xlink:href="#m5d46878bac" y="436.752"/>
      </g>
     </g>
     <g id="text_8">
      <!-- 4.6 -->
      <g transform="translate(445.333168 452.870125)scale(0.12 -0.12)">
       <use xlink:href="#DejaVuSans-34"/>
       <use x="63.623047" xlink:href="#DejaVuSans-2e"/>
       <use x="95.410156" xlink:href="#DejaVuSans-36"/>
      </g>
     </g>
    </g>
    <g id="xtick_10">
     <g id="line2d_16">
      <g>
       <use style="stroke:#000000;stroke-width:0.8;" x="593.204303" xlink:href="#m5d46878bac" y="436.752"/>
      </g>
     </g>
     <g id="text_9">
      <!-- 4.7 -->
      <g transform="translate(583.662428 452.870125)scale(0.12 -0.12)">
       <use xlink:href="#DejaVuSans-34"/>
       <use x="63.623047" xlink:href="#DejaVuSans-2e"/>
       <use x="95.410156" xlink:href="#DejaVuSans-37"/>
      </g>
     </g>
    </g>
    <g id="xtick_11">
     <g id="line2d_17">
      <g>
       <use style="stroke:#000000;stroke-width:0.8;" x="731.533563" xlink:href="#m5d46878bac" y="436.752"/>
      </g>
     </g>
     <g id="text_10">
      <!-- 4.8 -->
      <g transform="translate(721.991688 452.870125)scale(0.12 -0.12)">
       <use xlink:href="#DejaVuSans-34"/>
       <use x="63.623047" xlink:href="#DejaVuSans-2e"/>
       <use x="95.410156" xlink:href="#DejaVuSans-38"/>
      </g>
     </g>
    </g>
    <g id="xtick_12">
     <g id="line2d_18">
      <g>
       <use style="stroke:#000000;stroke-width:0.8;" x="869.862823" xlink:href="#m5d46878bac" y="436.752"/>
      </g>
     </g>
     <g id="text_11">
      <!-- 4.9 -->
      <g transform="translate(860.320948 452.870125)scale(0.12 -0.12)">
       <use xlink:href="#DejaVuSans-34"/>
       <use x="63.623047" xlink:href="#DejaVuSans-2e"/>
       <use x="95.410156" xlink:href="#DejaVuSans-39"/>
      </g>
     </g>
    </g>
    <g id="text_12">
     <!-- Energy [MeV] -->
     <defs>
      <path d="M 9.8125 72.90625 
L 55.90625 72.90625 
L 55.90625 64.59375 
L 19.671875 64.59375 
L 19.671875 43.015625 
L 54.390625 43.015625 
L 54.390625 34.71875 
L 19.671875 34.71875 
L 19.671875 8.296875 
L 56.78125 8.296875 
L 56.78125 0 
L 9.8125 0 
z
" id="DejaVuSans-45"/>
      <path d="M 41.109375 46.296875 
Q 39.59375 47.171875 37.8125 47.578125 
Q 36.03125 48 33.890625 48 
Q 26.265625 48 22.1875 43.046875 
Q 18.109375 38.09375 18.109375 28.8125 
L 18.109375 0 
L 9.078125 0 
L 9.078125 54.6875 
L 18.109375 54.6875 
L 18.109375 46.1875 
Q 20.953125 51.171875 25.484375 53.578125 
Q 30.03125 56 36.53125 56 
Q 37.453125 56 38.578125 55.875 
Q 39.703125 55.765625 41.0625 55.515625 
z
" id="DejaVuSans-72"/>
      <path d="M 45.40625 27.984375 
Q 45.40625 37.75 41.375 43.109375 
Q 37.359375 48.484375 30.078125 48.484375 
Q 22.859375 48.484375 18.828125 43.109375 
Q 14.796875 37.75 14.796875 27.984375 
Q 14.796875 18.265625 18.828125 12.890625 
Q 22.859375 7.515625 30.078125 7.515625 
Q 37.359375 7.515625 41.375 12.890625 
Q 45.40625 18.265625 45.40625 27.984375 
z
M 54.390625 6.78125 
Q 54.390625 -7.171875 48.1875 -13.984375 
Q 42 -20.796875 29.203125 -20.796875 
Q 24.46875 -20.796875 20.265625 -20.09375 
Q 16.0625 -19.390625 12.109375 -17.921875 
L 12.109375 -9.1875 
Q 16.0625 -11.328125 19.921875 -12.34375 
Q 23.78125 -13.375 27.78125 -13.375 
Q 36.625 -13.375 41.015625 -8.765625 
Q 45.40625 -4.15625 45.40625 5.171875 
L 45.40625 9.625 
Q 42.625 4.78125 38.28125 2.390625 
Q 33.9375 0 27.875 0 
Q 17.828125 0 11.671875 7.65625 
Q 5.515625 15.328125 5.515625 27.984375 
Q 5.515625 40.671875 11.671875 48.328125 
Q 17.828125 56 27.875 56 
Q 33.9375 56 38.28125 53.609375 
Q 42.625 51.21875 45.40625 46.390625 
L 45.40625 54.6875 
L 54.390625 54.6875 
z
" id="DejaVuSans-67"/>
      <path d="M 8.59375 75.984375 
L 29.296875 75.984375 
L 29.296875 69 
L 17.578125 69 
L 17.578125 -6.203125 
L 29.296875 -6.203125 
L 29.296875 -13.1875 
L 8.59375 -13.1875 
z
" id="DejaVuSans-5b"/>
      <path d="M 9.8125 72.90625 
L 24.515625 72.90625 
L 43.109375 23.296875 
L 61.8125 72.90625 
L 76.515625 72.90625 
L 76.515625 0 
L 66.890625 0 
L 66.890625 64.015625 
L 48.09375 14.015625 
L 38.1875 14.015625 
L 19.390625 64.015625 
L 19.390625 0 
L 9.8125 0 
z
" id="DejaVuSans-4d"/>
      <path d="M 28.609375 0 
L 0.78125 72.90625 
L 11.078125 72.90625 
L 34.1875 11.53125 
L 57.328125 72.90625 
L 67.578125 72.90625 
L 39.796875 0 
z
" id="DejaVuSans-56"/>
      <path d="M 30.421875 75.984375 
L 30.421875 -13.1875 
L 9.71875 -13.1875 
L 9.71875 -6.203125 
L 21.390625 -6.203125 
L 21.390625 69 
L 9.71875 69 
L 9.71875 75.984375 
z
" id="DejaVuSans-5d"/>
     </defs>
     <g transform="translate(475.674562 468.483875)scale(0.12 -0.12)">
      <use xlink:href="#DejaVuSans-45"/>
      <use x="63.183594" xlink:href="#DejaVuSans-6e"/>
      <use x="126.5625" xlink:href="#DejaVuSans-65"/>
      <use x="188.085938" xlink:href="#DejaVuSans-72"/>
      <use x="229.183594" xlink:href="#DejaVuSans-67"/>
      <use x="292.660156" xlink:href="#DejaVuSans-79"/>
      <use x="351.839844" xlink:href="#DejaVuSans-20"/>
      <use x="383.626953" xlink:href="#DejaVuSans-5b"/>
      <use x="422.640625" xlink:href="#DejaVuSans-4d"/>
      <use x="508.919922" xlink:href="#DejaVuSans-65"/>
      <use x="570.443359" xlink:href="#DejaVuSans-56"/>
      <use x="638.851562" xlink:href="#DejaVuSans-5d"/>
     </g>
    </g>
   </g>
   <g id="matplotlib.axis_4">
    <g id="ytick_5">
     <g id="line2d_19">
      <g>
       <use style="stroke:#000000;stroke-width:0.8;" x="147.528" xlink:href="#m123bdfbfe0" y="413.472056"/>
      </g>
     </g>
     <g id="text_13">
      <!-- 100 -->
      <g transform="translate(117.623 418.031118)scale(0.12 -0.12)">
       <use xlink:href="#DejaVuSans-31"/>
       <use x="63.623047" xlink:href="#DejaVuSans-30"/>
       <use x="127.246094" xlink:href="#DejaVuSans-30"/>
      </g>
     </g>
    </g>
    <g id="ytick_6">
     <g id="line2d_20">
      <g>
       <use style="stroke:#000000;stroke-width:0.8;" x="147.528" xlink:href="#m123bdfbfe0" y="350.992334"/>
      </g>
     </g>
     <g id="text_14">
      <!-- 200 -->
      <g transform="translate(117.623 355.551396)scale(0.12 -0.12)">
       <use xlink:href="#DejaVuSans-32"/>
       <use x="63.623047" xlink:href="#DejaVuSans-30"/>
       <use x="127.246094" xlink:href="#DejaVuSans-30"/>
      </g>
     </g>
    </g>
    <g id="ytick_7">
     <g id="line2d_21">
      <g>
       <use style="stroke:#000000;stroke-width:0.8;" x="147.528" xlink:href="#m123bdfbfe0" y="288.512612"/>
      </g>
     </g>
     <g id="text_15">
      <!-- 300 -->
      <defs>
       <path d="M 40.578125 39.3125 
Q 47.65625 37.796875 51.625 33 
Q 55.609375 28.21875 55.609375 21.1875 
Q 55.609375 10.40625 48.1875 4.484375 
Q 40.765625 -1.421875 27.09375 -1.421875 
Q 22.515625 -1.421875 17.65625 -0.515625 
Q 12.796875 0.390625 7.625 2.203125 
L 7.625 11.71875 
Q 11.71875 9.328125 16.59375 8.109375 
Q 21.484375 6.890625 26.8125 6.890625 
Q 36.078125 6.890625 40.9375 10.546875 
Q 45.796875 14.203125 45.796875 21.1875 
Q 45.796875 27.640625 41.28125 31.265625 
Q 36.765625 34.90625 28.71875 34.90625 
L 20.21875 34.90625 
L 20.21875 43.015625 
L 29.109375 43.015625 
Q 36.375 43.015625 40.234375 45.921875 
Q 44.09375 48.828125 44.09375 54.296875 
Q 44.09375 59.90625 40.109375 62.90625 
Q 36.140625 65.921875 28.71875 65.921875 
Q 24.65625 65.921875 20.015625 65.03125 
Q 15.375 64.15625 9.8125 62.3125 
L 9.8125 71.09375 
Q 15.4375 72.65625 20.34375 73.4375 
Q 25.25 74.21875 29.59375 74.21875 
Q 40.828125 74.21875 47.359375 69.109375 
Q 53.90625 64.015625 53.90625 55.328125 
Q 53.90625 49.265625 50.4375 45.09375 
Q 46.96875 40.921875 40.578125 39.3125 
z
" id="DejaVuSans-33"/>
      </defs>
      <g transform="translate(117.623 293.071674)scale(0.12 -0.12)">
       <use xlink:href="#DejaVuSans-33"/>
       <use x="63.623047" xlink:href="#DejaVuSans-30"/>
       <use x="127.246094" xlink:href="#DejaVuSans-30"/>
      </g>
     </g>
    </g>
    <g id="ytick_8">
     <g id="line2d_22">
      <g>
       <use style="stroke:#000000;stroke-width:0.8;" x="147.528" xlink:href="#m123bdfbfe0" y="226.03289"/>
      </g>
     </g>
     <g id="text_16">
      <!-- 400 -->
      <g transform="translate(117.623 230.591952)scale(0.12 -0.12)">
       <use xlink:href="#DejaVuSans-34"/>
       <use x="63.623047" xlink:href="#DejaVuSans-30"/>
       <use x="127.246094" xlink:href="#DejaVuSans-30"/>
      </g>
     </g>
    </g>
    <g id="ytick_9">
     <g id="line2d_23">
      <g>
       <use style="stroke:#000000;stroke-width:0.8;" x="147.528" xlink:href="#m123bdfbfe0" y="163.553168"/>
      </g>
     </g>
     <g id="text_17">
      <!-- 500 -->
      <g transform="translate(117.623 168.112231)scale(0.12 -0.12)">
       <use xlink:href="#DejaVuSans-35"/>
       <use x="63.623047" xlink:href="#DejaVuSans-30"/>
       <use x="127.246094" xlink:href="#DejaVuSans-30"/>
      </g>
     </g>
    </g>
    <g id="text_18">
     <!-- Counts -->
     <defs>
      <path d="M 64.40625 67.28125 
L 64.40625 56.890625 
Q 59.421875 61.53125 53.78125 63.8125 
Q 48.140625 66.109375 41.796875 66.109375 
Q 29.296875 66.109375 22.65625 58.46875 
Q 16.015625 50.828125 16.015625 36.375 
Q 16.015625 21.96875 22.65625 14.328125 
Q 29.296875 6.6875 41.796875 6.6875 
Q 48.140625 6.6875 53.78125 8.984375 
Q 59.421875 11.28125 64.40625 15.921875 
L 64.40625 5.609375 
Q 59.234375 2.09375 53.4375 0.328125 
Q 47.65625 -1.421875 41.21875 -1.421875 
Q 24.65625 -1.421875 15.125 8.703125 
Q 5.609375 18.84375 5.609375 36.375 
Q 5.609375 53.953125 15.125 64.078125 
Q 24.65625 74.21875 41.21875 74.21875 
Q 47.75 74.21875 53.53125 72.484375 
Q 59.328125 70.75 64.40625 67.28125 
z
" id="DejaVuSans-43"/>
     </defs>
     <g transform="translate(111.127375 312.11175)rotate(-90)scale(0.12 -0.12)">
      <use xlink:href="#DejaVuSans-43"/>
      <use x="69.824219" xlink:href="#DejaVuSans-6f"/>
      <use x="131.005859" xlink:href="#DejaVuSans-75"/>
      <use x="194.384766" xlink:href="#DejaVuSans-6e"/>
      <use x="257.763672" xlink:href="#DejaVuSans-74"/>
      <use x="296.972656" xlink:href="#DejaVuSans-73"/>
     </g>
    </g>
   </g>
   <g id="LineCollection_2">
    <path clip-path="url(#p0f887ba4c1)" d="M 174.848 428.899791 
L 174.848 417.413034 
" style="fill:none;stroke:#0000ff;stroke-width:1.5;"/>
    <path clip-path="url(#p0f887ba4c1)" d="M 191.305831 427.126464 
L 191.305831 415.437578 
" style="fill:none;stroke:#0000ff;stroke-width:1.5;"/>
    <path clip-path="url(#p0f887ba4c1)" d="M 199.534747 418.532604 
L 199.534747 405.912319 
" style="fill:none;stroke:#0000ff;stroke-width:1.5;"/>
    <path clip-path="url(#p0f887ba4c1)" d="M 207.763663 424.463278 
L 207.763663 412.477589 
" style="fill:none;stroke:#0000ff;stroke-width:1.5;"/>
    <path clip-path="url(#p0f887ba4c1)" d="M 215.992578 410.204572 
L 215.992578 396.746028 
" style="fill:none;stroke:#0000ff;stroke-width:1.5;"/>
    <path clip-path="url(#p0f887ba4c1)" d="M 224.221494 416.453163 
L 224.221494 403.618179 
" style="fill:none;stroke:#0000ff;stroke-width:1.5;"/>
    <path clip-path="url(#p0f887ba4c1)" d="M 232.45041 400.358102 
L 232.45041 385.97419 
" style="fill:none;stroke:#0000ff;stroke-width:1.5;"/>
    <path clip-path="url(#p0f887ba4c1)" d="M 240.679325 403.643638 
L 240.679325 389.561424 
" style="fill:none;stroke:#0000ff;stroke-width:1.5;"/>
    <path clip-path="url(#p0f887ba4c1)" d="M 248.908241 392.280837 
L 248.908241 377.18193 
" style="fill:none;stroke:#0000ff;stroke-width:1.5;"/>
    <path clip-path="url(#p0f887ba4c1)" d="M 257.137157 385.387358 
L 257.137157 369.705073 
" style="fill:none;stroke:#0000ff;stroke-width:1.5;"/>
    <path clip-path="url(#p0f887ba4c1)" d="M 265.366072 380.285388 
L 265.366072 364.18549 
" style="fill:none;stroke:#0000ff;stroke-width:1.5;"/>
    <path clip-path="url(#p0f887ba4c1)" d="M 273.594988 373.675056 
L 273.594988 357.050283 
" style="fill:none;stroke:#0000ff;stroke-width:1.5;"/>
    <path clip-path="url(#p0f887ba4c1)" d="M 281.823904 357.417034 
L 281.823904 339.569256 
" style="fill:none;stroke:#0000ff;stroke-width:1.5;"/>
    <path clip-path="url(#p0f887ba4c1)" d="M 290.052819 358.924178 
L 290.052819 341.186098 
" style="fill:none;stroke:#0000ff;stroke-width:1.5;"/>
    <path clip-path="url(#p0f887ba4c1)" d="M 298.281735 350.479949 
L 298.281735 332.136005 
" style="fill:none;stroke:#0000ff;stroke-width:1.5;"/>
    <path clip-path="url(#p0f887ba4c1)" d="M 306.510651 335.679762 
L 306.510651 316.321128 
" style="fill:none;stroke:#0000ff;stroke-width:1.5;"/>
    <path clip-path="url(#p0f887ba4c1)" d="M 314.739566 341.723936 
L 314.739566 322.772898 
" style="fill:none;stroke:#0000ff;stroke-width:1.5;"/>
    <path clip-path="url(#p0f887ba4c1)" d="M 322.968482 336.586662 
L 322.968482 317.288619 
" style="fill:none;stroke:#0000ff;stroke-width:1.5;"/>
    <path clip-path="url(#p0f887ba4c1)" d="M 331.197398 318.128762 
L 331.197398 297.633889 
" style="fill:none;stroke:#0000ff;stroke-width:1.5;"/>
    <path clip-path="url(#p0f887ba4c1)" d="M 339.426313 309.644881 
L 339.426313 288.623448 
" style="fill:none;stroke:#0000ff;stroke-width:1.5;"/>
    <path clip-path="url(#p0f887ba4c1)" d="M 347.655229 306.916529 
L 347.655229 285.728625 
" style="fill:none;stroke:#0000ff;stroke-width:1.5;"/>
    <path clip-path="url(#p0f887ba4c1)" d="M 355.884145 292.961799 
L 355.884145 270.942683 
" style="fill:none;stroke:#0000ff;stroke-width:1.5;"/>
    <path clip-path="url(#p0f887ba4c1)" d="M 364.11306 290.836886 
L 364.11306 268.694016 
" style="fill:none;stroke:#0000ff;stroke-width:1.5;"/>
    <path clip-path="url(#p0f887ba4c1)" d="M 372.341976 279.295783 
L 372.341976 256.492824 
" style="fill:none;stroke:#0000ff;stroke-width:1.5;"/>
    <path clip-path="url(#p0f887ba4c1)" d="M 380.570892 274.737484 
L 380.570892 251.679165 
" style="fill:none;stroke:#0000ff;stroke-width:1.5;"/>
    <path clip-path="url(#p0f887ba4c1)" d="M 388.799807 255.882162 
L 388.799807 231.79706 
" style="fill:none;stroke:#0000ff;stroke-width:1.5;"/>
    <path clip-path="url(#p0f887ba4c1)" d="M 397.028723 240.965386 
L 397.028723 216.098771 
" style="fill:none;stroke:#0000ff;stroke-width:1.5;"/>
    <path clip-path="url(#p0f887ba4c1)" d="M 405.257639 243.09711 
L 405.257639 218.340629 
" style="fill:none;stroke:#0000ff;stroke-width:1.5;"/>
    <path clip-path="url(#p0f887ba4c1)" d="M 413.486554 245.837534 
L 413.486554 221.223379 
" style="fill:none;stroke:#0000ff;stroke-width:1.5;"/>
    <path clip-path="url(#p0f887ba4c1)" d="M 421.71547 232.13141 
L 421.71547 206.813628 
" style="fill:none;stroke:#0000ff;stroke-width:1.5;"/>
    <path clip-path="url(#p0f887ba4c1)" d="M 429.944386 225.122335 
L 429.944386 199.452368 
" style="fill:none;stroke:#0000ff;stroke-width:1.5;"/>
    <path clip-path="url(#p0f887ba4c1)" d="M 438.173301 212.01209 
L 438.173301 185.696332 
" style="fill:none;stroke:#0000ff;stroke-width:1.5;"/>
    <path clip-path="url(#p0f887ba4c1)" d="M 446.402217 226.341478 
L 446.402217 200.732413 
" style="fill:none;stroke:#0000ff;stroke-width:1.5;"/>
    <path clip-path="url(#p0f887ba4c1)" d="M 454.631133 203.470994 
L 454.631133 176.743106 
" style="fill:none;stroke:#0000ff;stroke-width:1.5;"/>
    <path clip-path="url(#p0f887ba4c1)" d="M 462.860048 196.757929 
L 462.860048 169.710632 
" style="fill:none;stroke:#0000ff;stroke-width:1.5;"/>
    <path clip-path="url(#p0f887ba4c1)" d="M 471.088964 201.945464 
L 471.088964 175.144649 
" style="fill:none;stroke:#0000ff;stroke-width:1.5;"/>
    <path clip-path="url(#p0f887ba4c1)" d="M 479.31788 186.684858 
L 479.31788 159.165395 
" style="fill:none;stroke:#0000ff;stroke-width:1.5;"/>
    <path clip-path="url(#p0f887ba4c1)" d="M 487.546795 202.860794 
L 487.546795 176.103711 
" style="fill:none;stroke:#0000ff;stroke-width:1.5;"/>
    <path clip-path="url(#p0f887ba4c1)" d="M 495.775711 192.485005 
L 495.775711 165.236395 
" style="fill:none;stroke:#0000ff;stroke-width:1.5;"/>
    <path clip-path="url(#p0f887ba4c1)" d="M 504.004627 184.242294 
L 504.004627 156.609581 
" style="fill:none;stroke:#0000ff;stroke-width:1.5;"/>
    <path clip-path="url(#p0f887ba4c1)" d="M 512.233542 187.906052 
L 512.233542 160.443389 
" style="fill:none;stroke:#0000ff;stroke-width:1.5;"/>
    <path clip-path="url(#p0f887ba4c1)" d="M 520.462458 179.967252 
L 520.462458 152.137462 
" style="fill:none;stroke:#0000ff;stroke-width:1.5;"/>
    <path clip-path="url(#p0f887ba4c1)" d="M 528.691373 185.768923 
L 528.691373 158.206938 
" style="fill:none;stroke:#0000ff;stroke-width:1.5;"/>
    <path clip-path="url(#p0f887ba4c1)" d="M 536.920289 182.410219 
L 536.920289 154.692873 
" style="fill:none;stroke:#0000ff;stroke-width:1.5;"/>
    <path clip-path="url(#p0f887ba4c1)" d="M 545.149205 170.498642 
L 545.149205 142.237358 
" style="fill:none;stroke:#0000ff;stroke-width:1.5;"/>
    <path clip-path="url(#p0f887ba4c1)" d="M 553.37812 183.326272 
L 553.37812 155.651211 
" style="fill:none;stroke:#0000ff;stroke-width:1.5;"/>
    <path clip-path="url(#p0f887ba4c1)" d="M 561.607036 205.606567 
L 561.607036 178.981113 
" style="fill:none;stroke:#0000ff;stroke-width:1.5;"/>
    <path clip-path="url(#p0f887ba4c1)" d="M 569.835952 193.400694 
L 569.835952 166.195097 
" style="fill:none;stroke:#0000ff;stroke-width:1.5;"/>
    <path clip-path="url(#p0f887ba4c1)" d="M 578.064867 207.131855 
L 578.064867 180.579811 
" style="fill:none;stroke:#0000ff;stroke-width:1.5;"/>
    <path clip-path="url(#p0f887ba4c1)" d="M 586.293783 191.569281 
L 586.293783 164.277727 
" style="fill:none;stroke:#0000ff;stroke-width:1.5;"/>
    <path clip-path="url(#p0f887ba4c1)" d="M 594.522699 204.996423 
L 594.522699 178.341663 
" style="fill:none;stroke:#0000ff;stroke-width:1.5;"/>
    <path clip-path="url(#p0f887ba4c1)" d="M 602.751614 215.366633 
L 602.751614 189.214559 
" style="fill:none;stroke:#0000ff;stroke-width:1.5;"/>
    <path clip-path="url(#p0f887ba4c1)" d="M 610.98053 229.084285 
L 610.98053 203.612781 
" style="fill:none;stroke:#0000ff;stroke-width:1.5;"/>
    <path clip-path="url(#p0f887ba4c1)" d="M 619.209446 231.826719 
L 619.209446 206.493522 
" style="fill:none;stroke:#0000ff;stroke-width:1.5;"/>
    <path clip-path="url(#p0f887ba4c1)" d="M 627.438361 242.792593 
L 627.438361 218.020348 
" style="fill:none;stroke:#0000ff;stroke-width:1.5;"/>
    <path clip-path="url(#p0f887ba4c1)" d="M 635.667277 254.360621 
L 635.667277 230.194614 
" style="fill:none;stroke:#0000ff;stroke-width:1.5;"/>
    <path clip-path="url(#p0f887ba4c1)" d="M 643.896193 244.315127 
L 643.896193 219.6218 
" style="fill:none;stroke:#0000ff;stroke-width:1.5;"/>
    <path clip-path="url(#p0f887ba4c1)" d="M 652.125108 248.27312 
L 652.125108 223.78617 
" style="fill:none;stroke:#0000ff;stroke-width:1.5;"/>
    <path clip-path="url(#p0f887ba4c1)" d="M 660.354024 265.616735 
L 660.354024 242.055997 
" style="fill:none;stroke:#0000ff;stroke-width:1.5;"/>
    <path clip-path="url(#p0f887ba4c1)" d="M 668.58294 259.22907 
L 668.58294 235.322921 
" style="fill:none;stroke:#0000ff;stroke-width:1.5;"/>
    <path clip-path="url(#p0f887ba4c1)" d="M 676.811855 283.548892 
L 676.811855 260.986877 
" style="fill:none;stroke:#0000ff;stroke-width:1.5;"/>
    <path clip-path="url(#p0f887ba4c1)" d="M 685.040771 302.671143 
L 685.040771 281.22685 
" style="fill:none;stroke:#0000ff;stroke-width:1.5;"/>
    <path clip-path="url(#p0f887ba4c1)" d="M 693.269687 312.978628 
L 693.269687 292.16247 
" style="fill:none;stroke:#0000ff;stroke-width:1.5;"/>
    <path clip-path="url(#p0f887ba4c1)" d="M 701.498602 307.826053 
L 701.498602 286.693493 
" style="fill:none;stroke:#0000ff;stroke-width:1.5;"/>
    <path clip-path="url(#p0f887ba4c1)" d="M 709.727518 325.395154 
L 709.727518 305.362631 
" style="fill:none;stroke:#0000ff;stroke-width:1.5;"/>
    <path clip-path="url(#p0f887ba4c1)" d="M 717.956434 340.213301 
L 717.956434 321.159547 
" style="fill:none;stroke:#0000ff;stroke-width:1.5;"/>
    <path clip-path="url(#p0f887ba4c1)" d="M 726.185349 336.888941 
L 726.185349 317.611137 
" style="fill:none;stroke:#0000ff;stroke-width:1.5;"/>
    <path clip-path="url(#p0f887ba4c1)" d="M 734.414265 345.348309 
L 734.414265 326.646092 
" style="fill:none;stroke:#0000ff;stroke-width:1.5;"/>
    <path clip-path="url(#p0f887ba4c1)" d="M 742.643181 359.225566 
L 742.643181 341.509507 
" style="fill:none;stroke:#0000ff;stroke-width:1.5;"/>
    <path clip-path="url(#p0f887ba4c1)" d="M 750.872096 369.464251 
L 750.872096 352.513927 
" style="fill:none;stroke:#0000ff;stroke-width:1.5;"/>
    <path clip-path="url(#p0f887ba4c1)" d="M 759.101012 363.443535 
L 759.101012 346.038699 
" style="fill:none;stroke:#0000ff;stroke-width:1.5;"/>
    <path clip-path="url(#p0f887ba4c1)" d="M 767.329928 379.384481 
L 767.329928 363.212006 
" style="fill:none;stroke:#0000ff;stroke-width:1.5;"/>
    <path clip-path="url(#p0f887ba4c1)" d="M 775.558843 381.186131 
L 775.558843 365.159139 
" style="fill:none;stroke:#0000ff;stroke-width:1.5;"/>
    <path clip-path="url(#p0f887ba4c1)" d="M 783.787759 398.564673 
L 783.787759 384.018836 
" style="fill:none;stroke:#0000ff;stroke-width:1.5;"/>
    <path clip-path="url(#p0f887ba4c1)" d="M 792.016675 406.031056 
L 792.016675 392.172383 
" style="fill:none;stroke:#0000ff;stroke-width:1.5;"/>
    <path clip-path="url(#p0f887ba4c1)" d="M 800.24559 400.358102 
L 800.24559 385.97419 
" style="fill:none;stroke:#0000ff;stroke-width:1.5;"/>
    <path clip-path="url(#p0f887ba4c1)" d="M 808.474506 407.820422 
L 808.474506 394.131801 
" style="fill:none;stroke:#0000ff;stroke-width:1.5;"/>
    <path clip-path="url(#p0f887ba4c1)" d="M 816.703422 418.532604 
L 816.703422 405.912319 
" style="fill:none;stroke:#0000ff;stroke-width:1.5;"/>
    <path clip-path="url(#p0f887ba4c1)" d="M 824.932337 420.313507 
L 824.932337 407.880199 
" style="fill:none;stroke:#0000ff;stroke-width:1.5;"/>
    <path clip-path="url(#p0f887ba4c1)" d="M 833.161253 416.750336 
L 833.161253 403.945803 
" style="fill:none;stroke:#0000ff;stroke-width:1.5;"/>
    <path clip-path="url(#p0f887ba4c1)" d="M 849.619084 431.556356 
L 849.619084 420.379644 
" style="fill:none;stroke:#0000ff;stroke-width:1.5;"/>
    <path clip-path="url(#p0f887ba4c1)" d="M 857.848 431.556356 
L 857.848 420.379644 
" style="fill:none;stroke:#0000ff;stroke-width:1.5;"/>
   </g>
   <g id="line2d_24">
    <path clip-path="url(#p0f887ba4c1)" d="M 174.848 475.628277 
L 195.358511 475.263329 
L 210.399552 474.786941 
L 222.705858 474.191853 
L 233.644797 473.44545 
L 243.216368 472.571653 
L 252.104256 471.527668 
L 259.624777 470.431834 
L 267.145297 469.105159 
L 273.982134 467.666902 
L 280.135287 466.15686 
L 286.28844 464.417327 
L 291.75791 462.65759 
L 297.227379 460.677216 
L 302.696849 458.456623 
L 308.166318 455.975761 
L 312.952104 453.575534 
L 317.73789 450.946838 
L 322.523676 448.076143 
L 327.309461 444.950181 
L 332.095247 441.556113 
L 336.881033 437.881708 
L 341.666819 433.915526 
L 346.452605 429.647125 
L 351.23839 425.067266 
L 356.024176 420.168127 
L 360.809962 414.943525 
L 365.595748 409.389131 
L 370.381534 403.502692 
L 375.167319 397.284236 
L 379.953105 390.736281 
L 385.422575 382.856221 
L 390.892044 374.564981 
L 396.361514 365.880015 
L 402.514667 355.667432 
L 408.66782 345.02645 
L 415.504657 332.761655 
L 423.708861 317.542867 
L 433.964116 297.994308 
L 456.525678 254.798989 
L 464.046198 240.979575 
L 470.199351 230.116176 
L 475.668821 220.887671 
L 480.454607 213.203776 
L 485.240392 205.93557 
L 489.342494 200.072017 
L 493.444597 194.57645 
L 497.546699 189.475706 
L 500.965117 185.544953 
L 504.383536 181.919612 
L 507.801954 178.612401 
L 511.220372 175.635018 
L 514.638791 172.99807 
L 517.373526 171.140018 
L 520.10826 169.510206 
L 522.842995 168.112407 
L 525.57773 166.949869 
L 528.312464 166.0253 
L 531.047199 165.340861 
L 533.781934 164.898151 
L 536.516669 164.698207 
L 539.251403 164.741499 
L 541.986138 165.027925 
L 544.720873 165.556814 
L 547.455608 166.326926 
L 550.190342 167.336463 
L 552.925077 168.583068 
L 555.659812 170.063839 
L 558.394547 171.77534 
L 561.129281 173.713612 
L 564.5477 176.448502 
L 567.966118 179.520921 
L 571.384537 182.919945 
L 574.802955 186.63358 
L 578.221373 190.648828 
L 582.323475 195.845596 
L 586.425578 201.430956 
L 590.52768 207.377725 
L 595.313465 214.734314 
L 600.099251 222.496873 
L 605.568721 231.803036 
L 611.721874 242.737918 
L 618.558711 255.340646 
L 627.446599 272.205175 
L 655.47763 325.749008 
L 662.99815 339.466938 
L 669.834987 351.487631 
L 675.98814 361.875845 
L 682.141293 371.809958 
L 687.610763 380.230158 
L 693.080232 388.244226 
L 698.549702 395.838221 
L 703.335487 402.131193 
L 708.121273 408.092492 
L 712.907059 413.721544 
L 717.692845 419.02011 
L 722.478631 423.992067 
L 727.264416 428.643202 
L 732.050202 432.980985 
L 736.835988 437.014356 
L 741.621774 440.753505 
L 746.40756 444.209663 
L 751.193345 447.394902 
L 755.979131 450.321939 
L 760.764917 453.003961 
L 765.550703 455.454451 
L 771.020172 457.988991 
L 776.489642 460.259273 
L 781.959111 462.285417 
L 787.428581 464.08711 
L 793.581734 465.869458 
L 799.734887 467.417894 
L 806.571724 468.893945 
L 813.408561 470.143141 
L 820.929081 471.289837 
L 829.133285 472.308866 
L 838.021173 473.185114 
L 848.276428 473.958238 
L 857.848 474.498077 
L 857.848 474.498077 
" style="fill:none;stroke:#404040;stroke-linecap:square;stroke-width:1.5;"/>
   </g>
   <g id="line2d_25">
    <path clip-path="url(#p0f887ba4c1)" d="M 174.848 429.122158 
L 182.368521 425.918047 
L 189.889041 422.473198 
L 197.409562 418.779261 
L 204.930082 414.828735 
L 212.450603 410.615113 
L 219.971123 406.133037 
L 227.491644 401.378445 
L 235.012164 396.348729 
L 242.532685 391.042879 
L 250.053205 385.461625 
L 257.573726 379.607582 
L 265.094246 373.485366 
L 273.29845 366.508715 
L 281.502655 359.232751 
L 289.706859 351.672519 
L 298.594747 343.182913 
L 308.166318 333.723549 
L 318.421574 323.269848 
L 330.044196 311.096604 
L 344.401554 295.722865 
L 383.371524 253.801974 
L 394.310462 242.476402 
L 403.19835 233.572625 
L 411.402555 225.651598 
L 418.923075 218.686354 
L 425.759912 212.633074 
L 432.596749 206.874363 
L 438.749902 201.965914 
L 444.903055 197.337242 
L 451.056208 193.006602 
L 456.525678 189.421341 
L 461.995147 186.096663 
L 467.464617 183.04326 
L 472.934086 180.271031 
L 477.719872 178.08312 
L 482.505658 176.122932 
L 487.291443 174.395422 
L 492.077229 172.904978 
L 496.863015 171.655397 
L 501.648801 170.649876 
L 506.434587 169.890992 
L 511.220372 169.380696 
L 516.006158 169.120299 
L 520.791944 169.110473 
L 525.57773 169.351243 
L 530.363516 169.841989 
L 535.149301 170.581448 
L 539.935087 171.56772 
L 544.720873 172.798276 
L 549.506659 174.269968 
L 554.292444 175.979045 
L 559.07823 177.921165 
L 563.864016 180.091416 
L 568.649802 182.484337 
L 574.119271 185.484053 
L 579.588741 188.757026 
L 585.05821 192.29271 
L 590.52768 196.079816 
L 596.680833 200.6259 
L 602.833986 205.457022 
L 608.987139 210.55431 
L 615.823976 216.506233 
L 623.344496 223.371625 
L 630.865017 230.533498 
L 639.069221 238.638945 
L 648.640793 248.414868 
L 659.579732 259.909753 
L 674.620773 276.066888 
L 707.43759 311.423455 
L 719.743896 324.294147 
L 729.999151 334.718266 
L 739.570723 344.145292 
L 748.458611 352.601371 
L 757.346498 360.742668 
L 765.550703 367.958605 
L 773.754907 374.872563 
L 781.275427 380.935525 
L 788.795948 386.729107 
L 796.316468 392.249147 
L 803.836989 397.493463 
L 811.35751 402.461723 
L 818.87803 407.155307 
L 826.398551 411.577161 
L 833.919071 415.731647 
L 841.439592 419.624394 
L 848.960112 423.262141 
L 856.480633 426.652594 
L 857.848 427.243125 
L 857.848 427.243125 
" style="fill:none;stroke:#ff0000;stroke-linecap:square;stroke-width:1.5;"/>
   </g>
   <g id="line2d_26">
    <g clip-path="url(#p0f887ba4c1)">
     <use style="fill:#0000ff;stroke:#0000ff;" x="174.848" xlink:href="#m20935b3e36" y="423.156413"/>
     <use style="fill:#0000ff;stroke:#0000ff;" x="191.305831" xlink:href="#m20935b3e36" y="421.282021"/>
     <use style="fill:#0000ff;stroke:#0000ff;" x="199.534747" xlink:href="#m20935b3e36" y="412.222461"/>
     <use style="fill:#0000ff;stroke:#0000ff;" x="207.763663" xlink:href="#m20935b3e36" y="418.470433"/>
     <use style="fill:#0000ff;stroke:#0000ff;" x="215.992578" xlink:href="#m20935b3e36" y="403.4753"/>
     <use style="fill:#0000ff;stroke:#0000ff;" x="224.221494" xlink:href="#m20935b3e36" y="410.035671"/>
     <use style="fill:#0000ff;stroke:#0000ff;" x="232.45041" xlink:href="#m20935b3e36" y="393.166146"/>
     <use style="fill:#0000ff;stroke:#0000ff;" x="240.679325" xlink:href="#m20935b3e36" y="396.602531"/>
     <use style="fill:#0000ff;stroke:#0000ff;" x="248.908241" xlink:href="#m20935b3e36" y="384.731384"/>
     <use style="fill:#0000ff;stroke:#0000ff;" x="257.137157" xlink:href="#m20935b3e36" y="377.546216"/>
     <use style="fill:#0000ff;stroke:#0000ff;" x="265.366072" xlink:href="#m20935b3e36" y="372.235439"/>
     <use style="fill:#0000ff;stroke:#0000ff;" x="273.594988" xlink:href="#m20935b3e36" y="365.36267"/>
     <use style="fill:#0000ff;stroke:#0000ff;" x="281.823904" xlink:href="#m20935b3e36" y="348.493145"/>
     <use style="fill:#0000ff;stroke:#0000ff;" x="290.052819" xlink:href="#m20935b3e36" y="350.055138"/>
     <use style="fill:#0000ff;stroke:#0000ff;" x="298.281735" xlink:href="#m20935b3e36" y="341.307977"/>
     <use style="fill:#0000ff;stroke:#0000ff;" x="306.510651" xlink:href="#m20935b3e36" y="326.000445"/>
     <use style="fill:#0000ff;stroke:#0000ff;" x="314.739566" xlink:href="#m20935b3e36" y="332.248417"/>
     <use style="fill:#0000ff;stroke:#0000ff;" x="322.968482" xlink:href="#m20935b3e36" y="326.937641"/>
     <use style="fill:#0000ff;stroke:#0000ff;" x="331.197398" xlink:href="#m20935b3e36" y="307.881326"/>
     <use style="fill:#0000ff;stroke:#0000ff;" x="339.426313" xlink:href="#m20935b3e36" y="299.134165"/>
     <use style="fill:#0000ff;stroke:#0000ff;" x="347.655229" xlink:href="#m20935b3e36" y="296.322577"/>
     <use style="fill:#0000ff;stroke:#0000ff;" x="355.884145" xlink:href="#m20935b3e36" y="281.952241"/>
     <use style="fill:#0000ff;stroke:#0000ff;" x="364.11306" xlink:href="#m20935b3e36" y="279.765451"/>
     <use style="fill:#0000ff;stroke:#0000ff;" x="372.341976" xlink:href="#m20935b3e36" y="267.894304"/>
     <use style="fill:#0000ff;stroke:#0000ff;" x="380.570892" xlink:href="#m20935b3e36" y="263.208324"/>
     <use style="fill:#0000ff;stroke:#0000ff;" x="388.799807" xlink:href="#m20935b3e36" y="243.839611"/>
     <use style="fill:#0000ff;stroke:#0000ff;" x="397.028723" xlink:href="#m20935b3e36" y="228.532079"/>
     <use style="fill:#0000ff;stroke:#0000ff;" x="405.257639" xlink:href="#m20935b3e36" y="230.718869"/>
     <use style="fill:#0000ff;stroke:#0000ff;" x="413.486554" xlink:href="#m20935b3e36" y="233.530457"/>
     <use style="fill:#0000ff;stroke:#0000ff;" x="421.71547" xlink:href="#m20935b3e36" y="219.472519"/>
     <use style="fill:#0000ff;stroke:#0000ff;" x="429.944386" xlink:href="#m20935b3e36" y="212.287351"/>
     <use style="fill:#0000ff;stroke:#0000ff;" x="438.173301" xlink:href="#m20935b3e36" y="198.854211"/>
     <use style="fill:#0000ff;stroke:#0000ff;" x="446.402217" xlink:href="#m20935b3e36" y="213.536946"/>
     <use style="fill:#0000ff;stroke:#0000ff;" x="454.631133" xlink:href="#m20935b3e36" y="190.10705"/>
     <use style="fill:#0000ff;stroke:#0000ff;" x="462.860048" xlink:href="#m20935b3e36" y="183.23428"/>
     <use style="fill:#0000ff;stroke:#0000ff;" x="471.088964" xlink:href="#m20935b3e36" y="188.545057"/>
     <use style="fill:#0000ff;stroke:#0000ff;" x="479.31788" xlink:href="#m20935b3e36" y="172.925126"/>
     <use style="fill:#0000ff;stroke:#0000ff;" x="487.546795" xlink:href="#m20935b3e36" y="189.482253"/>
     <use style="fill:#0000ff;stroke:#0000ff;" x="495.775711" xlink:href="#m20935b3e36" y="178.8607"/>
     <use style="fill:#0000ff;stroke:#0000ff;" x="504.004627" xlink:href="#m20935b3e36" y="170.425937"/>
     <use style="fill:#0000ff;stroke:#0000ff;" x="512.233542" xlink:href="#m20935b3e36" y="174.174721"/>
     <use style="fill:#0000ff;stroke:#0000ff;" x="520.462458" xlink:href="#m20935b3e36" y="166.052357"/>
     <use style="fill:#0000ff;stroke:#0000ff;" x="528.691373" xlink:href="#m20935b3e36" y="171.98793"/>
     <use style="fill:#0000ff;stroke:#0000ff;" x="536.920289" xlink:href="#m20935b3e36" y="168.551546"/>
     <use style="fill:#0000ff;stroke:#0000ff;" x="545.149205" xlink:href="#m20935b3e36" y="156.368"/>
     <use style="fill:#0000ff;stroke:#0000ff;" x="553.37812" xlink:href="#m20935b3e36" y="169.488742"/>
     <use style="fill:#0000ff;stroke:#0000ff;" x="561.607036" xlink:href="#m20935b3e36" y="192.29384"/>
     <use style="fill:#0000ff;stroke:#0000ff;" x="569.835952" xlink:href="#m20935b3e36" y="179.797896"/>
     <use style="fill:#0000ff;stroke:#0000ff;" x="578.064867" xlink:href="#m20935b3e36" y="193.855833"/>
     <use style="fill:#0000ff;stroke:#0000ff;" x="586.293783" xlink:href="#m20935b3e36" y="177.923504"/>
     <use style="fill:#0000ff;stroke:#0000ff;" x="594.522699" xlink:href="#m20935b3e36" y="191.669043"/>
     <use style="fill:#0000ff;stroke:#0000ff;" x="602.751614" xlink:href="#m20935b3e36" y="202.290596"/>
     <use style="fill:#0000ff;stroke:#0000ff;" x="610.98053" xlink:href="#m20935b3e36" y="216.348533"/>
     <use style="fill:#0000ff;stroke:#0000ff;" x="619.209446" xlink:href="#m20935b3e36" y="219.160121"/>
     <use style="fill:#0000ff;stroke:#0000ff;" x="627.438361" xlink:href="#m20935b3e36" y="230.40647"/>
     <use style="fill:#0000ff;stroke:#0000ff;" x="635.667277" xlink:href="#m20935b3e36" y="242.277618"/>
     <use style="fill:#0000ff;stroke:#0000ff;" x="643.896193" xlink:href="#m20935b3e36" y="231.968463"/>
     <use style="fill:#0000ff;stroke:#0000ff;" x="652.125108" xlink:href="#m20935b3e36" y="236.029645"/>
     <use style="fill:#0000ff;stroke:#0000ff;" x="660.354024" xlink:href="#m20935b3e36" y="253.836366"/>
     <use style="fill:#0000ff;stroke:#0000ff;" x="668.58294" xlink:href="#m20935b3e36" y="247.275995"/>
     <use style="fill:#0000ff;stroke:#0000ff;" x="676.811855" xlink:href="#m20935b3e36" y="272.267884"/>
     <use style="fill:#0000ff;stroke:#0000ff;" x="685.040771" xlink:href="#m20935b3e36" y="291.948997"/>
     <use style="fill:#0000ff;stroke:#0000ff;" x="693.269687" xlink:href="#m20935b3e36" y="302.570549"/>
     <use style="fill:#0000ff;stroke:#0000ff;" x="701.498602" xlink:href="#m20935b3e36" y="297.259773"/>
     <use style="fill:#0000ff;stroke:#0000ff;" x="709.727518" xlink:href="#m20935b3e36" y="315.378892"/>
     <use style="fill:#0000ff;stroke:#0000ff;" x="717.956434" xlink:href="#m20935b3e36" y="330.686424"/>
     <use style="fill:#0000ff;stroke:#0000ff;" x="726.185349" xlink:href="#m20935b3e36" y="327.250039"/>
     <use style="fill:#0000ff;stroke:#0000ff;" x="734.414265" xlink:href="#m20935b3e36" y="335.9972"/>
     <use style="fill:#0000ff;stroke:#0000ff;" x="742.643181" xlink:href="#m20935b3e36" y="350.367537"/>
     <use style="fill:#0000ff;stroke:#0000ff;" x="750.872096" xlink:href="#m20935b3e36" y="360.989089"/>
     <use style="fill:#0000ff;stroke:#0000ff;" x="759.101012" xlink:href="#m20935b3e36" y="354.741117"/>
     <use style="fill:#0000ff;stroke:#0000ff;" x="767.329928" xlink:href="#m20935b3e36" y="371.298243"/>
     <use style="fill:#0000ff;stroke:#0000ff;" x="775.558843" xlink:href="#m20935b3e36" y="373.172635"/>
     <use style="fill:#0000ff;stroke:#0000ff;" x="783.787759" xlink:href="#m20935b3e36" y="391.291754"/>
     <use style="fill:#0000ff;stroke:#0000ff;" x="792.016675" xlink:href="#m20935b3e36" y="399.10172"/>
     <use style="fill:#0000ff;stroke:#0000ff;" x="800.24559" xlink:href="#m20935b3e36" y="393.166146"/>
     <use style="fill:#0000ff;stroke:#0000ff;" x="808.474506" xlink:href="#m20935b3e36" y="400.976111"/>
     <use style="fill:#0000ff;stroke:#0000ff;" x="816.703422" xlink:href="#m20935b3e36" y="412.222461"/>
     <use style="fill:#0000ff;stroke:#0000ff;" x="824.932337" xlink:href="#m20935b3e36" y="414.096853"/>
     <use style="fill:#0000ff;stroke:#0000ff;" x="833.161253" xlink:href="#m20935b3e36" y="410.34807"/>
     <use style="fill:#0000ff;stroke:#0000ff;" x="849.619084" xlink:href="#m20935b3e36" y="425.968"/>
     <use style="fill:#0000ff;stroke:#0000ff;" x="857.848" xlink:href="#m20935b3e36" y="425.968"/>
    </g>
   </g>
   <g id="patch_8">
    <path d="M 147.528 436.752 
L 147.528 145.584 
" style="fill:none;stroke:#000000;stroke-linecap:square;stroke-linejoin:miter;stroke-width:0.8;"/>
   </g>
   <g id="patch_9">
    <path d="M 885.168 436.752 
L 885.168 145.584 
" style="fill:none;stroke:#000000;stroke-linecap:square;stroke-linejoin:miter;stroke-width:0.8;"/>
   </g>
   <g id="patch_10">
    <path d="M 147.528 436.752 
L 885.168 436.752 
" style="fill:none;stroke:#000000;stroke-linecap:square;stroke-linejoin:miter;stroke-width:0.8;"/>
   </g>
   <g id="patch_11">
    <path d="M 147.528 145.584 
L 885.168 145.584 
" style="fill:none;stroke:#000000;stroke-linecap:square;stroke-linejoin:miter;stroke-width:0.8;"/>
   </g>
  </g>
 </g>
 <defs>
  <clipPath id="p44306e6cb7">
   <rect height="72.792" width="737.64" x="147.528" y="63.0864"/>
  </clipPath>
  <clipPath id="p0f887ba4c1">
   <rect height="291.168" width="737.64" x="147.528" y="145.584"/>
  </clipPath>
 </defs>
</svg>
