<?xml version="1.0" encoding="utf-8" standalone="no"?>
<!DOCTYPE svg PUBLIC "-//W3C//DTD SVG 1.1//EN"
  "http://www.w3.org/Graphics/SVG/1.1/DTD/svg11.dtd">
<!-- Created with matplotlib (http://matplotlib.org/) -->
<svg height="485pt" version="1.1" viewBox="0 0 983 485" width="983pt" xmlns="http://www.w3.org/2000/svg" xmlns:xlink="http://www.w3.org/1999/xlink">
 <defs>
  <style type="text/css">
*{stroke-linecap:butt;stroke-linejoin:round;}
  </style>
 </defs>
 <g id="figure_1">
  <g id="patch_1">
   <path d="M 0 485.28 
L 983.52 485.28 
L 983.52 0 
L 0 0 
z
" style="fill:#ffffff;"/>
  </g>
  <g id="axes_1">
   <g id="patch_2">
    <path d="M 147.528 135.8784 
L 885.168 135.8784 
L 885.168 63.0864 
L 147.528 63.0864 
z
" style="fill:#ffffff;"/>
   </g>
   <g id="matplotlib.axis_1">
    <g id="xtick_1">
     <g id="line2d_1">
      <defs>
       <path d="M 0 0 
L 0 3.5 
" id="med90c3d4b7" style="stroke:#000000;stroke-width:0.8;"/>
      </defs>
      <g>
       <use style="stroke:#000000;stroke-width:0.8;" x="178.257602" xlink:href="#med90c3d4b7" y="135.8784"/>
      </g>
     </g>
    </g>
    <g id="xtick_2">
     <g id="line2d_2">
      <g>
       <use style="stroke:#000000;stroke-width:0.8;" x="318.273805" xlink:href="#med90c3d4b7" y="135.8784"/>
      </g>
     </g>
    </g>
    <g id="xtick_3">
     <g id="line2d_3">
      <g>
       <use style="stroke:#000000;stroke-width:0.8;" x="458.290007" xlink:href="#med90c3d4b7" y="135.8784"/>
      </g>
     </g>
    </g>
    <g id="xtick_4">
     <g id="line2d_4">
      <g>
       <use style="stroke:#000000;stroke-width:0.8;" x="598.306209" xlink:href="#med90c3d4b7" y="135.8784"/>
      </g>
     </g>
    </g>
    <g id="xtick_5">
     <g id="line2d_5">
      <g>
       <use style="stroke:#000000;stroke-width:0.8;" x="738.322411" xlink:href="#med90c3d4b7" y="135.8784"/>
      </g>
     </g>
    </g>
    <g id="xtick_6">
     <g id="line2d_6">
      <g>
       <use style="stroke:#000000;stroke-width:0.8;" x="878.338614" xlink:href="#med90c3d4b7" y="135.8784"/>
      </g>
     </g>
    </g>
   </g>
   <g id="matplotlib.axis_2">
    <g id="ytick_1">
     <g id="line2d_7">
      <defs>
       <path d="M 0 0 
L -3.5 0 
" id="m1d8ab843c4" style="stroke:#000000;stroke-width:0.8;"/>
      </defs>
      <g>
       <use style="stroke:#000000;stroke-width:0.8;" x="147.528" xlink:href="#m1d8ab843c4" y="126.560265"/>
      </g>
     </g>
     <g id="text_1">
      <!-- −1 -->
      <defs>
       <path d="M 10.59375 35.5 
L 73.1875 35.5 
L 73.1875 27.203125 
L 10.59375 27.203125 
z
" id="DejaVuSans-2212"/>
       <path d="M 12.40625 8.296875 
L 28.515625 8.296875 
L 28.515625 63.921875 
L 10.984375 60.40625 
L 10.984375 69.390625 
L 28.421875 72.90625 
L 38.28125 72.90625 
L 38.28125 8.296875 
L 54.390625 8.296875 
L 54.390625 0 
L 12.40625 0 
z
" id="DejaVuSans-31"/>
      </defs>
      <g transform="translate(122.837375 131.119328)scale(0.12 -0.12)">
       <use xlink:href="#DejaVuSans-2212"/>
       <use x="83.789062" xlink:href="#DejaVuSans-31"/>
      </g>
     </g>
    </g>
    <g id="ytick_2">
     <g id="line2d_8">
      <g>
       <use style="stroke:#000000;stroke-width:0.8;" x="147.528" xlink:href="#m1d8ab843c4" y="104.046537"/>
      </g>
     </g>
    </g>
    <g id="ytick_3">
     <g id="line2d_9">
      <g>
       <use style="stroke:#000000;stroke-width:0.8;" x="147.528" xlink:href="#m1d8ab843c4" y="81.532809"/>
      </g>
     </g>
     <g id="text_2">
      <!-- 1 -->
      <g transform="translate(132.893 86.091871)scale(0.12 -0.12)">
       <use xlink:href="#DejaVuSans-31"/>
      </g>
     </g>
    </g>
    <g id="text_3">
     <!-- Studentized -->
     <defs>
      <path d="M 53.515625 70.515625 
L 53.515625 60.890625 
Q 47.90625 63.578125 42.921875 64.890625 
Q 37.9375 66.21875 33.296875 66.21875 
Q 25.25 66.21875 20.875 63.09375 
Q 16.5 59.96875 16.5 54.203125 
Q 16.5 49.359375 19.40625 46.890625 
Q 22.3125 44.4375 30.421875 42.921875 
L 36.375 41.703125 
Q 47.40625 39.59375 52.65625 34.296875 
Q 57.90625 29 57.90625 20.125 
Q 57.90625 9.515625 50.796875 4.046875 
Q 43.703125 -1.421875 29.984375 -1.421875 
Q 24.8125 -1.421875 18.96875 -0.25 
Q 13.140625 0.921875 6.890625 3.21875 
L 6.890625 13.375 
Q 12.890625 10.015625 18.65625 8.296875 
Q 24.421875 6.59375 29.984375 6.59375 
Q 38.421875 6.59375 43.015625 9.90625 
Q 47.609375 13.234375 47.609375 19.390625 
Q 47.609375 24.75 44.3125 27.78125 
Q 41.015625 30.8125 33.5 32.328125 
L 27.484375 33.5 
Q 16.453125 35.6875 11.515625 40.375 
Q 6.59375 45.0625 6.59375 53.421875 
Q 6.59375 63.09375 13.40625 68.65625 
Q 20.21875 74.21875 32.171875 74.21875 
Q 37.3125 74.21875 42.625 73.28125 
Q 47.953125 72.359375 53.515625 70.515625 
z
" id="DejaVuSans-53"/>
      <path d="M 18.3125 70.21875 
L 18.3125 54.6875 
L 36.8125 54.6875 
L 36.8125 47.703125 
L 18.3125 47.703125 
L 18.3125 18.015625 
Q 18.3125 11.328125 20.140625 9.421875 
Q 21.96875 7.515625 27.59375 7.515625 
L 36.8125 7.515625 
L 36.8125 0 
L 27.59375 0 
Q 17.1875 0 13.234375 3.875 
Q 9.28125 7.765625 9.28125 18.015625 
L 9.28125 47.703125 
L 2.6875 47.703125 
L 2.6875 54.6875 
L 9.28125 54.6875 
L 9.28125 70.21875 
z
" id="DejaVuSans-74"/>
      <path d="M 8.5 21.578125 
L 8.5 54.6875 
L 17.484375 54.6875 
L 17.484375 21.921875 
Q 17.484375 14.15625 20.5 10.265625 
Q 23.53125 6.390625 29.59375 6.390625 
Q 36.859375 6.390625 41.078125 11.03125 
Q 45.3125 15.671875 45.3125 23.6875 
L 45.3125 54.6875 
L 54.296875 54.6875 
L 54.296875 0 
L 45.3125 0 
L 45.3125 8.40625 
Q 42.046875 3.421875 37.71875 1 
Q 33.40625 -1.421875 27.6875 -1.421875 
Q 18.265625 -1.421875 13.375 4.4375 
Q 8.5 10.296875 8.5 21.578125 
z
M 31.109375 56 
z
" id="DejaVuSans-75"/>
      <path d="M 45.40625 46.390625 
L 45.40625 75.984375 
L 54.390625 75.984375 
L 54.390625 0 
L 45.40625 0 
L 45.40625 8.203125 
Q 42.578125 3.328125 38.25 0.953125 
Q 33.9375 -1.421875 27.875 -1.421875 
Q 17.96875 -1.421875 11.734375 6.484375 
Q 5.515625 14.40625 5.515625 27.296875 
Q 5.515625 40.1875 11.734375 48.09375 
Q 17.96875 56 27.875 56 
Q 33.9375 56 38.25 53.625 
Q 42.578125 51.265625 45.40625 46.390625 
z
M 14.796875 27.296875 
Q 14.796875 17.390625 18.875 11.75 
Q 22.953125 6.109375 30.078125 6.109375 
Q 37.203125 6.109375 41.296875 11.75 
Q 45.40625 17.390625 45.40625 27.296875 
Q 45.40625 37.203125 41.296875 42.84375 
Q 37.203125 48.484375 30.078125 48.484375 
Q 22.953125 48.484375 18.875 42.84375 
Q 14.796875 37.203125 14.796875 27.296875 
z
" id="DejaVuSans-64"/>
      <path d="M 56.203125 29.59375 
L 56.203125 25.203125 
L 14.890625 25.203125 
Q 15.484375 15.921875 20.484375 11.0625 
Q 25.484375 6.203125 34.421875 6.203125 
Q 39.59375 6.203125 44.453125 7.46875 
Q 49.3125 8.734375 54.109375 11.28125 
L 54.109375 2.78125 
Q 49.265625 0.734375 44.1875 -0.34375 
Q 39.109375 -1.421875 33.890625 -1.421875 
Q 20.796875 -1.421875 13.15625 6.1875 
Q 5.515625 13.8125 5.515625 26.8125 
Q 5.515625 40.234375 12.765625 48.109375 
Q 20.015625 56 32.328125 56 
Q 43.359375 56 49.78125 48.890625 
Q 56.203125 41.796875 56.203125 29.59375 
z
M 47.21875 32.234375 
Q 47.125 39.59375 43.09375 43.984375 
Q 39.0625 48.390625 32.421875 48.390625 
Q 24.90625 48.390625 20.390625 44.140625 
Q 15.875 39.890625 15.1875 32.171875 
z
" id="DejaVuSans-65"/>
      <path d="M 54.890625 33.015625 
L 54.890625 0 
L 45.90625 0 
L 45.90625 32.71875 
Q 45.90625 40.484375 42.875 44.328125 
Q 39.84375 48.1875 33.796875 48.1875 
Q 26.515625 48.1875 22.3125 43.546875 
Q 18.109375 38.921875 18.109375 30.90625 
L 18.109375 0 
L 9.078125 0 
L 9.078125 54.6875 
L 18.109375 54.6875 
L 18.109375 46.1875 
Q 21.34375 51.125 25.703125 53.5625 
Q 30.078125 56 35.796875 56 
Q 45.21875 56 50.046875 50.171875 
Q 54.890625 44.34375 54.890625 33.015625 
z
" id="DejaVuSans-6e"/>
      <path d="M 9.421875 54.6875 
L 18.40625 54.6875 
L 18.40625 0 
L 9.421875 0 
z
M 9.421875 75.984375 
L 18.40625 75.984375 
L 18.40625 64.59375 
L 9.421875 64.59375 
z
" id="DejaVuSans-69"/>
      <path d="M 5.515625 54.6875 
L 48.1875 54.6875 
L 48.1875 46.484375 
L 14.40625 7.171875 
L 48.1875 7.171875 
L 48.1875 0 
L 4.296875 0 
L 4.296875 8.203125 
L 38.09375 47.515625 
L 5.515625 47.515625 
z
" id="DejaVuSans-7a"/>
     </defs>
     <g transform="translate(102.904375 135.41865)rotate(-90)scale(0.12 -0.12)">
      <use xlink:href="#DejaVuSans-53"/>
      <use x="63.476562" xlink:href="#DejaVuSans-74"/>
      <use x="102.685547" xlink:href="#DejaVuSans-75"/>
      <use x="166.064453" xlink:href="#DejaVuSans-64"/>
      <use x="229.541016" xlink:href="#DejaVuSans-65"/>
      <use x="291.064453" xlink:href="#DejaVuSans-6e"/>
      <use x="354.443359" xlink:href="#DejaVuSans-74"/>
      <use x="393.652344" xlink:href="#DejaVuSans-69"/>
      <use x="421.435547" xlink:href="#DejaVuSans-7a"/>
      <use x="473.925781" xlink:href="#DejaVuSans-65"/>
      <use x="535.449219" xlink:href="#DejaVuSans-64"/>
     </g>
     <!-- Residuals -->
     <defs>
      <path d="M 44.390625 34.1875 
Q 47.5625 33.109375 50.5625 29.59375 
Q 53.5625 26.078125 56.59375 19.921875 
L 66.609375 0 
L 56 0 
L 46.6875 18.703125 
Q 43.0625 26.03125 39.671875 28.421875 
Q 36.28125 30.8125 30.421875 30.8125 
L 19.671875 30.8125 
L 19.671875 0 
L 9.8125 0 
L 9.8125 72.90625 
L 32.078125 72.90625 
Q 44.578125 72.90625 50.734375 67.671875 
Q 56.890625 62.453125 56.890625 51.90625 
Q 56.890625 45.015625 53.6875 40.46875 
Q 50.484375 35.9375 44.390625 34.1875 
z
M 19.671875 64.796875 
L 19.671875 38.921875 
L 32.078125 38.921875 
Q 39.203125 38.921875 42.84375 42.21875 
Q 46.484375 45.515625 46.484375 51.90625 
Q 46.484375 58.296875 42.84375 61.546875 
Q 39.203125 64.796875 32.078125 64.796875 
z
" id="DejaVuSans-52"/>
      <path d="M 44.28125 53.078125 
L 44.28125 44.578125 
Q 40.484375 46.53125 36.375 47.5 
Q 32.28125 48.484375 27.875 48.484375 
Q 21.1875 48.484375 17.84375 46.4375 
Q 14.5 44.390625 14.5 40.28125 
Q 14.5 37.15625 16.890625 35.375 
Q 19.28125 33.59375 26.515625 31.984375 
L 29.59375 31.296875 
Q 39.15625 29.25 43.1875 25.515625 
Q 47.21875 21.78125 47.21875 15.09375 
Q 47.21875 7.46875 41.1875 3.015625 
Q 35.15625 -1.421875 24.609375 -1.421875 
Q 20.21875 -1.421875 15.453125 -0.5625 
Q 10.6875 0.296875 5.421875 2 
L 5.421875 11.28125 
Q 10.40625 8.6875 15.234375 7.390625 
Q 20.0625 6.109375 24.8125 6.109375 
Q 31.15625 6.109375 34.5625 8.28125 
Q 37.984375 10.453125 37.984375 14.40625 
Q 37.984375 18.0625 35.515625 20.015625 
Q 33.0625 21.96875 24.703125 23.78125 
L 21.578125 24.515625 
Q 13.234375 26.265625 9.515625 29.90625 
Q 5.8125 33.546875 5.8125 39.890625 
Q 5.8125 47.609375 11.28125 51.796875 
Q 16.75 56 26.8125 56 
Q 31.78125 56 36.171875 55.265625 
Q 40.578125 54.546875 44.28125 53.078125 
z
" id="DejaVuSans-73"/>
      <path d="M 34.28125 27.484375 
Q 23.390625 27.484375 19.1875 25 
Q 14.984375 22.515625 14.984375 16.5 
Q 14.984375 11.71875 18.140625 8.90625 
Q 21.296875 6.109375 26.703125 6.109375 
Q 34.1875 6.109375 38.703125 11.40625 
Q 43.21875 16.703125 43.21875 25.484375 
L 43.21875 27.484375 
z
M 52.203125 31.203125 
L 52.203125 0 
L 43.21875 0 
L 43.21875 8.296875 
Q 40.140625 3.328125 35.546875 0.953125 
Q 30.953125 -1.421875 24.3125 -1.421875 
Q 15.921875 -1.421875 10.953125 3.296875 
Q 6 8.015625 6 15.921875 
Q 6 25.140625 12.171875 29.828125 
Q 18.359375 34.515625 30.609375 34.515625 
L 43.21875 34.515625 
L 43.21875 35.40625 
Q 43.21875 41.609375 39.140625 45 
Q 35.0625 48.390625 27.6875 48.390625 
Q 23 48.390625 18.546875 47.265625 
Q 14.109375 46.140625 10.015625 43.890625 
L 10.015625 52.203125 
Q 14.9375 54.109375 19.578125 55.046875 
Q 24.21875 56 28.609375 56 
Q 40.484375 56 46.34375 49.84375 
Q 52.203125 43.703125 52.203125 31.203125 
z
" id="DejaVuSans-61"/>
      <path d="M 9.421875 75.984375 
L 18.40625 75.984375 
L 18.40625 0 
L 9.421875 0 
z
" id="DejaVuSans-6c"/>
     </defs>
     <g transform="translate(116.34175 128.213025)rotate(-90)scale(0.12 -0.12)">
      <use xlink:href="#DejaVuSans-52"/>
      <use x="69.419922" xlink:href="#DejaVuSans-65"/>
      <use x="130.943359" xlink:href="#DejaVuSans-73"/>
      <use x="183.042969" xlink:href="#DejaVuSans-69"/>
      <use x="210.826172" xlink:href="#DejaVuSans-64"/>
      <use x="274.302734" xlink:href="#DejaVuSans-75"/>
      <use x="337.681641" xlink:href="#DejaVuSans-61"/>
      <use x="398.960938" xlink:href="#DejaVuSans-6c"/>
      <use x="426.744141" xlink:href="#DejaVuSans-73"/>
     </g>
    </g>
   </g>
   <g id="LineCollection_1">
    <path clip-path="url(#pf2715bf5aa)" d="M 174.848 133.647779 
L 174.848 88.620322 
" style="fill:none;stroke:#0000ff;stroke-width:1.5;"/>
    <path clip-path="url(#pf2715bf5aa)" d="M 183.177268 120.362581 
L 183.177268 75.335124 
" style="fill:none;stroke:#0000ff;stroke-width:1.5;"/>
    <path clip-path="url(#pf2715bf5aa)" d="M 191.506537 104.300989 
L 191.506537 59.273532 
" style="fill:none;stroke:#0000ff;stroke-width:1.5;"/>
    <path clip-path="url(#pf2715bf5aa)" d="M 199.835805 138.570072 
L 199.835805 93.542615 
" style="fill:none;stroke:#0000ff;stroke-width:1.5;"/>
    <path clip-path="url(#pf2715bf5aa)" d="M 208.165073 99.153577 
L 208.165073 54.12612 
" style="fill:none;stroke:#0000ff;stroke-width:1.5;"/>
    <path clip-path="url(#pf2715bf5aa)" d="M 216.494341 130.54356 
L 216.494341 85.516103 
" style="fill:none;stroke:#0000ff;stroke-width:1.5;"/>
    <path clip-path="url(#pf2715bf5aa)" d="M 224.82361 130.69032 
L 224.82361 85.662863 
" style="fill:none;stroke:#0000ff;stroke-width:1.5;"/>
    <path clip-path="url(#pf2715bf5aa)" d="M 233.152878 115.277488 
L 233.152878 70.250031 
" style="fill:none;stroke:#0000ff;stroke-width:1.5;"/>
    <path clip-path="url(#pf2715bf5aa)" d="M 241.482146 125.345477 
L 241.482146 80.31802 
" style="fill:none;stroke:#0000ff;stroke-width:1.5;"/>
    <path clip-path="url(#pf2715bf5aa)" d="M 249.811415 134.218796 
L 249.811415 89.191339 
" style="fill:none;stroke:#0000ff;stroke-width:1.5;"/>
    <path clip-path="url(#pf2715bf5aa)" d="M 258.140683 137.190398 
L 258.140683 92.162941 
" style="fill:none;stroke:#0000ff;stroke-width:1.5;"/>
    <path clip-path="url(#pf2715bf5aa)" d="M 266.469951 94.024559 
L 266.469951 48.997102 
" style="fill:none;stroke:#0000ff;stroke-width:1.5;"/>
    <path clip-path="url(#pf2715bf5aa)" d="M 274.79922 114.855869 
L 274.79922 69.828412 
" style="fill:none;stroke:#0000ff;stroke-width:1.5;"/>
    <path clip-path="url(#pf2715bf5aa)" d="M 283.128488 110.924012 
L 283.128488 65.896555 
" style="fill:none;stroke:#0000ff;stroke-width:1.5;"/>
    <path clip-path="url(#pf2715bf5aa)" d="M 291.457756 113.179195 
L 291.457756 68.151738 
" style="fill:none;stroke:#0000ff;stroke-width:1.5;"/>
    <path clip-path="url(#pf2715bf5aa)" d="M 299.787024 139.698937 
L 299.787024 94.67148 
" style="fill:none;stroke:#0000ff;stroke-width:1.5;"/>
    <path clip-path="url(#pf2715bf5aa)" d="M 308.116293 151.867069 
L 308.116293 106.839612 
" style="fill:none;stroke:#0000ff;stroke-width:1.5;"/>
    <path clip-path="url(#pf2715bf5aa)" d="M 316.445561 110.07167 
L 316.445561 65.044213 
" style="fill:none;stroke:#0000ff;stroke-width:1.5;"/>
    <path clip-path="url(#pf2715bf5aa)" d="M 324.774829 142.244887 
L 324.774829 97.21743 
" style="fill:none;stroke:#0000ff;stroke-width:1.5;"/>
    <path clip-path="url(#pf2715bf5aa)" d="M 333.104098 114.886559 
L 333.104098 69.859102 
" style="fill:none;stroke:#0000ff;stroke-width:1.5;"/>
    <path clip-path="url(#pf2715bf5aa)" d="M 341.433366 136.540784 
L 341.433366 91.513327 
" style="fill:none;stroke:#0000ff;stroke-width:1.5;"/>
    <path clip-path="url(#pf2715bf5aa)" d="M 349.762634 155.696128 
L 349.762634 110.668672 
" style="fill:none;stroke:#0000ff;stroke-width:1.5;"/>
    <path clip-path="url(#pf2715bf5aa)" d="M 358.091902 122.531146 
L 358.091902 77.503689 
" style="fill:none;stroke:#0000ff;stroke-width:1.5;"/>
    <path clip-path="url(#pf2715bf5aa)" d="M 366.421171 148.954063 
L 366.421171 103.926606 
" style="fill:none;stroke:#0000ff;stroke-width:1.5;"/>
    <path clip-path="url(#pf2715bf5aa)" d="M 374.750439 126.124766 
L 374.750439 81.097309 
" style="fill:none;stroke:#0000ff;stroke-width:1.5;"/>
    <path clip-path="url(#pf2715bf5aa)" d="M 383.079707 130.852355 
L 383.079707 85.824898 
" style="fill:none;stroke:#0000ff;stroke-width:1.5;"/>
    <path clip-path="url(#pf2715bf5aa)" d="M 391.408976 109.071423 
L 391.408976 64.043966 
" style="fill:none;stroke:#0000ff;stroke-width:1.5;"/>
    <path clip-path="url(#pf2715bf5aa)" d="M 399.738244 120.386777 
L 399.738244 75.35932 
" style="fill:none;stroke:#0000ff;stroke-width:1.5;"/>
    <path clip-path="url(#pf2715bf5aa)" d="M 408.067512 146.820693 
L 408.067512 101.793236 
" style="fill:none;stroke:#0000ff;stroke-width:1.5;"/>
    <path clip-path="url(#pf2715bf5aa)" d="M 416.39678 122.029745 
L 416.39678 77.002288 
" style="fill:none;stroke:#0000ff;stroke-width:1.5;"/>
    <path clip-path="url(#pf2715bf5aa)" d="M 424.726049 136.80844 
L 424.726049 91.780983 
" style="fill:none;stroke:#0000ff;stroke-width:1.5;"/>
    <path clip-path="url(#pf2715bf5aa)" d="M 433.055317 142.968579 
L 433.055317 97.941122 
" style="fill:none;stroke:#0000ff;stroke-width:1.5;"/>
    <path clip-path="url(#pf2715bf5aa)" d="M 441.384585 101.800951 
L 441.384585 56.773494 
" style="fill:none;stroke:#0000ff;stroke-width:1.5;"/>
    <path clip-path="url(#pf2715bf5aa)" d="M 449.713854 98.617934 
L 449.713854 53.590477 
" style="fill:none;stroke:#0000ff;stroke-width:1.5;"/>
    <path clip-path="url(#pf2715bf5aa)" d="M 458.043122 120.344336 
L 458.043122 75.316879 
" style="fill:none;stroke:#0000ff;stroke-width:1.5;"/>
    <path clip-path="url(#pf2715bf5aa)" d="M 466.37239 146.509923 
L 466.37239 101.482466 
" style="fill:none;stroke:#0000ff;stroke-width:1.5;"/>
    <path clip-path="url(#pf2715bf5aa)" d="M 474.701659 154.203442 
L 474.701659 109.175985 
" style="fill:none;stroke:#0000ff;stroke-width:1.5;"/>
    <path clip-path="url(#pf2715bf5aa)" d="M 483.030927 120.605642 
L 483.030927 75.578185 
" style="fill:none;stroke:#0000ff;stroke-width:1.5;"/>
    <path clip-path="url(#pf2715bf5aa)" d="M 491.360195 137.65872 
L 491.360195 92.631264 
" style="fill:none;stroke:#0000ff;stroke-width:1.5;"/>
    <path clip-path="url(#pf2715bf5aa)" d="M 499.689463 124.687021 
L 499.689463 79.659564 
" style="fill:none;stroke:#0000ff;stroke-width:1.5;"/>
    <path clip-path="url(#pf2715bf5aa)" d="M 508.018732 124.449971 
L 508.018732 79.422514 
" style="fill:none;stroke:#0000ff;stroke-width:1.5;"/>
    <path clip-path="url(#pf2715bf5aa)" d="M 516.348 145.711262 
L 516.348 100.683805 
" style="fill:none;stroke:#0000ff;stroke-width:1.5;"/>
    <path clip-path="url(#pf2715bf5aa)" d="M 524.677268 112.925847 
L 524.677268 67.89839 
" style="fill:none;stroke:#0000ff;stroke-width:1.5;"/>
    <path clip-path="url(#pf2715bf5aa)" d="M 533.006537 131.76631 
L 533.006537 86.738853 
" style="fill:none;stroke:#0000ff;stroke-width:1.5;"/>
    <path clip-path="url(#pf2715bf5aa)" d="M 541.335805 116.083659 
L 541.335805 71.056203 
" style="fill:none;stroke:#0000ff;stroke-width:1.5;"/>
    <path clip-path="url(#pf2715bf5aa)" d="M 549.665073 105.990749 
L 549.665073 60.963292 
" style="fill:none;stroke:#0000ff;stroke-width:1.5;"/>
    <path clip-path="url(#pf2715bf5aa)" d="M 557.994341 117.096966 
L 557.994341 72.069509 
" style="fill:none;stroke:#0000ff;stroke-width:1.5;"/>
    <path clip-path="url(#pf2715bf5aa)" d="M 566.32361 110.622001 
L 566.32361 65.594544 
" style="fill:none;stroke:#0000ff;stroke-width:1.5;"/>
    <path clip-path="url(#pf2715bf5aa)" d="M 574.652878 138.089169 
L 574.652878 93.061712 
" style="fill:none;stroke:#0000ff;stroke-width:1.5;"/>
    <path clip-path="url(#pf2715bf5aa)" d="M 582.982146 130.798342 
L 582.982146 85.770886 
" style="fill:none;stroke:#0000ff;stroke-width:1.5;"/>
    <path clip-path="url(#pf2715bf5aa)" d="M 591.311415 102.899849 
L 591.311415 57.872392 
" style="fill:none;stroke:#0000ff;stroke-width:1.5;"/>
    <path clip-path="url(#pf2715bf5aa)" d="M 599.640683 124.868911 
L 599.640683 79.841454 
" style="fill:none;stroke:#0000ff;stroke-width:1.5;"/>
    <path clip-path="url(#pf2715bf5aa)" d="M 607.969951 125.887053 
L 607.969951 80.859596 
" style="fill:none;stroke:#0000ff;stroke-width:1.5;"/>
    <path clip-path="url(#pf2715bf5aa)" d="M 616.29922 127.227314 
L 616.29922 82.199857 
" style="fill:none;stroke:#0000ff;stroke-width:1.5;"/>
    <path clip-path="url(#pf2715bf5aa)" d="M 624.628488 154.408251 
L 624.628488 109.380794 
" style="fill:none;stroke:#0000ff;stroke-width:1.5;"/>
    <path clip-path="url(#pf2715bf5aa)" d="M 632.957756 143.526764 
L 632.957756 98.499307 
" style="fill:none;stroke:#0000ff;stroke-width:1.5;"/>
    <path clip-path="url(#pf2715bf5aa)" d="M 641.287024 109.221322 
L 641.287024 64.193865 
" style="fill:none;stroke:#0000ff;stroke-width:1.5;"/>
    <path clip-path="url(#pf2715bf5aa)" d="M 649.616293 100.645155 
L 649.616293 55.617698 
" style="fill:none;stroke:#0000ff;stroke-width:1.5;"/>
    <path clip-path="url(#pf2715bf5aa)" d="M 657.945561 126.602998 
L 657.945561 81.575541 
" style="fill:none;stroke:#0000ff;stroke-width:1.5;"/>
    <path clip-path="url(#pf2715bf5aa)" d="M 666.274829 130.932405 
L 666.274829 85.904948 
" style="fill:none;stroke:#0000ff;stroke-width:1.5;"/>
    <path clip-path="url(#pf2715bf5aa)" d="M 674.604098 130.222099 
L 674.604098 85.194642 
" style="fill:none;stroke:#0000ff;stroke-width:1.5;"/>
    <path clip-path="url(#pf2715bf5aa)" d="M 682.933366 138.476009 
L 682.933366 93.448552 
" style="fill:none;stroke:#0000ff;stroke-width:1.5;"/>
    <path clip-path="url(#pf2715bf5aa)" d="M 691.262634 137.781061 
L 691.262634 92.753604 
" style="fill:none;stroke:#0000ff;stroke-width:1.5;"/>
    <path clip-path="url(#pf2715bf5aa)" d="M 699.591902 144.092611 
L 699.591902 99.065154 
" style="fill:none;stroke:#0000ff;stroke-width:1.5;"/>
    <path clip-path="url(#pf2715bf5aa)" d="M 707.921171 120.778774 
L 707.921171 75.751317 
" style="fill:none;stroke:#0000ff;stroke-width:1.5;"/>
    <path clip-path="url(#pf2715bf5aa)" d="M 716.250439 110.578269 
L 716.250439 65.550812 
" style="fill:none;stroke:#0000ff;stroke-width:1.5;"/>
    <path clip-path="url(#pf2715bf5aa)" d="M 724.579707 105.899845 
L 724.579707 60.872389 
" style="fill:none;stroke:#0000ff;stroke-width:1.5;"/>
    <path clip-path="url(#pf2715bf5aa)" d="M 732.908976 125.855622 
L 732.908976 80.828165 
" style="fill:none;stroke:#0000ff;stroke-width:1.5;"/>
    <path clip-path="url(#pf2715bf5aa)" d="M 741.238244 88.296128 
L 741.238244 43.268672 
" style="fill:none;stroke:#0000ff;stroke-width:1.5;"/>
    <path clip-path="url(#pf2715bf5aa)" d="M 749.567512 118.810767 
L 749.567512 73.78331 
" style="fill:none;stroke:#0000ff;stroke-width:1.5;"/>
    <path clip-path="url(#pf2715bf5aa)" d="M 757.89678 95.407523 
L 757.89678 50.380066 
" style="fill:none;stroke:#0000ff;stroke-width:1.5;"/>
    <path clip-path="url(#pf2715bf5aa)" d="M 766.226049 124.488547 
L 766.226049 79.46109 
" style="fill:none;stroke:#0000ff;stroke-width:1.5;"/>
    <path clip-path="url(#pf2715bf5aa)" d="M 774.555317 146.519002 
L 774.555317 101.491545 
" style="fill:none;stroke:#0000ff;stroke-width:1.5;"/>
    <path clip-path="url(#pf2715bf5aa)" d="M 782.884585 151.778156 
L 782.884585 106.7507 
" style="fill:none;stroke:#0000ff;stroke-width:1.5;"/>
    <path clip-path="url(#pf2715bf5aa)" d="M 791.213854 111.664192 
L 791.213854 66.636735 
" style="fill:none;stroke:#0000ff;stroke-width:1.5;"/>
    <path clip-path="url(#pf2715bf5aa)" d="M 799.543122 147.845076 
L 799.543122 102.817619 
" style="fill:none;stroke:#0000ff;stroke-width:1.5;"/>
    <path clip-path="url(#pf2715bf5aa)" d="M 807.87239 133.692104 
L 807.87239 88.664647 
" style="fill:none;stroke:#0000ff;stroke-width:1.5;"/>
    <path clip-path="url(#pf2715bf5aa)" d="M 816.201659 153.693912 
L 816.201659 108.666455 
" style="fill:none;stroke:#0000ff;stroke-width:1.5;"/>
    <path clip-path="url(#pf2715bf5aa)" d="M 824.530927 130.704093 
L 824.530927 85.676636 
" style="fill:none;stroke:#0000ff;stroke-width:1.5;"/>
    <path clip-path="url(#pf2715bf5aa)" d="M 832.860195 125.250296 
L 832.860195 80.222839 
" style="fill:none;stroke:#0000ff;stroke-width:1.5;"/>
    <path clip-path="url(#pf2715bf5aa)" d="M 841.189463 140.47017 
L 841.189463 95.442713 
" style="fill:none;stroke:#0000ff;stroke-width:1.5;"/>
    <path clip-path="url(#pf2715bf5aa)" d="M 849.518732 132.26906 
L 849.518732 87.241603 
" style="fill:none;stroke:#0000ff;stroke-width:1.5;"/>
    <path clip-path="url(#pf2715bf5aa)" d="M 857.848 115.449392 
L 857.848 70.421935 
" style="fill:none;stroke:#0000ff;stroke-width:1.5;"/>
   </g>
   <g id="line2d_10">
    <path clip-path="url(#pf2715bf5aa)" d="M 174.848 104.046537 
L 857.848 104.046537 
" style="fill:none;stroke:#ff0000;stroke-linecap:square;stroke-width:1.5;"/>
   </g>
   <g id="line2d_11">
    <defs>
     <path d="M -3 0 
L 3 0 
M 0 3 
L 0 -3 
" id="me9b0785567" style="stroke:#0000ff;"/>
    </defs>
    <g clip-path="url(#pf2715bf5aa)">
     <use style="fill:#0000ff;stroke:#0000ff;" x="174.848" xlink:href="#me9b0785567" y="111.13405"/>
     <use style="fill:#0000ff;stroke:#0000ff;" x="183.177268" xlink:href="#me9b0785567" y="97.848852"/>
     <use style="fill:#0000ff;stroke:#0000ff;" x="191.506537" xlink:href="#me9b0785567" y="81.78726"/>
     <use style="fill:#0000ff;stroke:#0000ff;" x="199.835805" xlink:href="#me9b0785567" y="116.056343"/>
     <use style="fill:#0000ff;stroke:#0000ff;" x="208.165073" xlink:href="#me9b0785567" y="76.639849"/>
     <use style="fill:#0000ff;stroke:#0000ff;" x="216.494341" xlink:href="#me9b0785567" y="108.029831"/>
     <use style="fill:#0000ff;stroke:#0000ff;" x="224.82361" xlink:href="#me9b0785567" y="108.176591"/>
     <use style="fill:#0000ff;stroke:#0000ff;" x="233.152878" xlink:href="#me9b0785567" y="92.76376"/>
     <use style="fill:#0000ff;stroke:#0000ff;" x="241.482146" xlink:href="#me9b0785567" y="102.831748"/>
     <use style="fill:#0000ff;stroke:#0000ff;" x="249.811415" xlink:href="#me9b0785567" y="111.705068"/>
     <use style="fill:#0000ff;stroke:#0000ff;" x="258.140683" xlink:href="#me9b0785567" y="114.676669"/>
     <use style="fill:#0000ff;stroke:#0000ff;" x="266.469951" xlink:href="#me9b0785567" y="71.510831"/>
     <use style="fill:#0000ff;stroke:#0000ff;" x="274.79922" xlink:href="#me9b0785567" y="92.34214"/>
     <use style="fill:#0000ff;stroke:#0000ff;" x="283.128488" xlink:href="#me9b0785567" y="88.410284"/>
     <use style="fill:#0000ff;stroke:#0000ff;" x="291.457756" xlink:href="#me9b0785567" y="90.665466"/>
     <use style="fill:#0000ff;stroke:#0000ff;" x="299.787024" xlink:href="#me9b0785567" y="117.185208"/>
     <use style="fill:#0000ff;stroke:#0000ff;" x="308.116293" xlink:href="#me9b0785567" y="129.353341"/>
     <use style="fill:#0000ff;stroke:#0000ff;" x="316.445561" xlink:href="#me9b0785567" y="87.557941"/>
     <use style="fill:#0000ff;stroke:#0000ff;" x="324.774829" xlink:href="#me9b0785567" y="119.731159"/>
     <use style="fill:#0000ff;stroke:#0000ff;" x="333.104098" xlink:href="#me9b0785567" y="92.372831"/>
     <use style="fill:#0000ff;stroke:#0000ff;" x="341.433366" xlink:href="#me9b0785567" y="114.027056"/>
     <use style="fill:#0000ff;stroke:#0000ff;" x="349.762634" xlink:href="#me9b0785567" y="133.1824"/>
     <use style="fill:#0000ff;stroke:#0000ff;" x="358.091902" xlink:href="#me9b0785567" y="100.017417"/>
     <use style="fill:#0000ff;stroke:#0000ff;" x="366.421171" xlink:href="#me9b0785567" y="126.440334"/>
     <use style="fill:#0000ff;stroke:#0000ff;" x="374.750439" xlink:href="#me9b0785567" y="103.611037"/>
     <use style="fill:#0000ff;stroke:#0000ff;" x="383.079707" xlink:href="#me9b0785567" y="108.338626"/>
     <use style="fill:#0000ff;stroke:#0000ff;" x="391.408976" xlink:href="#me9b0785567" y="86.557694"/>
     <use style="fill:#0000ff;stroke:#0000ff;" x="399.738244" xlink:href="#me9b0785567" y="97.873048"/>
     <use style="fill:#0000ff;stroke:#0000ff;" x="408.067512" xlink:href="#me9b0785567" y="124.306965"/>
     <use style="fill:#0000ff;stroke:#0000ff;" x="416.39678" xlink:href="#me9b0785567" y="99.516016"/>
     <use style="fill:#0000ff;stroke:#0000ff;" x="424.726049" xlink:href="#me9b0785567" y="114.294712"/>
     <use style="fill:#0000ff;stroke:#0000ff;" x="433.055317" xlink:href="#me9b0785567" y="120.454851"/>
     <use style="fill:#0000ff;stroke:#0000ff;" x="441.384585" xlink:href="#me9b0785567" y="79.287223"/>
     <use style="fill:#0000ff;stroke:#0000ff;" x="449.713854" xlink:href="#me9b0785567" y="76.104206"/>
     <use style="fill:#0000ff;stroke:#0000ff;" x="458.043122" xlink:href="#me9b0785567" y="97.830608"/>
     <use style="fill:#0000ff;stroke:#0000ff;" x="466.37239" xlink:href="#me9b0785567" y="123.996194"/>
     <use style="fill:#0000ff;stroke:#0000ff;" x="474.701659" xlink:href="#me9b0785567" y="131.689713"/>
     <use style="fill:#0000ff;stroke:#0000ff;" x="483.030927" xlink:href="#me9b0785567" y="98.091913"/>
     <use style="fill:#0000ff;stroke:#0000ff;" x="491.360195" xlink:href="#me9b0785567" y="115.144992"/>
     <use style="fill:#0000ff;stroke:#0000ff;" x="499.689463" xlink:href="#me9b0785567" y="102.173293"/>
     <use style="fill:#0000ff;stroke:#0000ff;" x="508.018732" xlink:href="#me9b0785567" y="101.936243"/>
     <use style="fill:#0000ff;stroke:#0000ff;" x="516.348" xlink:href="#me9b0785567" y="123.197533"/>
     <use style="fill:#0000ff;stroke:#0000ff;" x="524.677268" xlink:href="#me9b0785567" y="90.412119"/>
     <use style="fill:#0000ff;stroke:#0000ff;" x="533.006537" xlink:href="#me9b0785567" y="109.252582"/>
     <use style="fill:#0000ff;stroke:#0000ff;" x="541.335805" xlink:href="#me9b0785567" y="93.569931"/>
     <use style="fill:#0000ff;stroke:#0000ff;" x="549.665073" xlink:href="#me9b0785567" y="83.477021"/>
     <use style="fill:#0000ff;stroke:#0000ff;" x="557.994341" xlink:href="#me9b0785567" y="94.583238"/>
     <use style="fill:#0000ff;stroke:#0000ff;" x="566.32361" xlink:href="#me9b0785567" y="88.108272"/>
     <use style="fill:#0000ff;stroke:#0000ff;" x="574.652878" xlink:href="#me9b0785567" y="115.575441"/>
     <use style="fill:#0000ff;stroke:#0000ff;" x="582.982146" xlink:href="#me9b0785567" y="108.284614"/>
     <use style="fill:#0000ff;stroke:#0000ff;" x="591.311415" xlink:href="#me9b0785567" y="80.386121"/>
     <use style="fill:#0000ff;stroke:#0000ff;" x="599.640683" xlink:href="#me9b0785567" y="102.355182"/>
     <use style="fill:#0000ff;stroke:#0000ff;" x="607.969951" xlink:href="#me9b0785567" y="103.373324"/>
     <use style="fill:#0000ff;stroke:#0000ff;" x="616.29922" xlink:href="#me9b0785567" y="104.713586"/>
     <use style="fill:#0000ff;stroke:#0000ff;" x="624.628488" xlink:href="#me9b0785567" y="131.894523"/>
     <use style="fill:#0000ff;stroke:#0000ff;" x="632.957756" xlink:href="#me9b0785567" y="121.013035"/>
     <use style="fill:#0000ff;stroke:#0000ff;" x="641.287024" xlink:href="#me9b0785567" y="86.707593"/>
     <use style="fill:#0000ff;stroke:#0000ff;" x="649.616293" xlink:href="#me9b0785567" y="78.131427"/>
     <use style="fill:#0000ff;stroke:#0000ff;" x="657.945561" xlink:href="#me9b0785567" y="104.08927"/>
     <use style="fill:#0000ff;stroke:#0000ff;" x="666.274829" xlink:href="#me9b0785567" y="108.418677"/>
     <use style="fill:#0000ff;stroke:#0000ff;" x="674.604098" xlink:href="#me9b0785567" y="107.708371"/>
     <use style="fill:#0000ff;stroke:#0000ff;" x="682.933366" xlink:href="#me9b0785567" y="115.962281"/>
     <use style="fill:#0000ff;stroke:#0000ff;" x="691.262634" xlink:href="#me9b0785567" y="115.267333"/>
     <use style="fill:#0000ff;stroke:#0000ff;" x="699.591902" xlink:href="#me9b0785567" y="121.578883"/>
     <use style="fill:#0000ff;stroke:#0000ff;" x="707.921171" xlink:href="#me9b0785567" y="98.265045"/>
     <use style="fill:#0000ff;stroke:#0000ff;" x="716.250439" xlink:href="#me9b0785567" y="88.06454"/>
     <use style="fill:#0000ff;stroke:#0000ff;" x="724.579707" xlink:href="#me9b0785567" y="83.386117"/>
     <use style="fill:#0000ff;stroke:#0000ff;" x="732.908976" xlink:href="#me9b0785567" y="103.341893"/>
     <use style="fill:#0000ff;stroke:#0000ff;" x="741.238244" xlink:href="#me9b0785567" y="65.7824"/>
     <use style="fill:#0000ff;stroke:#0000ff;" x="749.567512" xlink:href="#me9b0785567" y="96.297038"/>
     <use style="fill:#0000ff;stroke:#0000ff;" x="757.89678" xlink:href="#me9b0785567" y="72.893794"/>
     <use style="fill:#0000ff;stroke:#0000ff;" x="766.226049" xlink:href="#me9b0785567" y="101.974818"/>
     <use style="fill:#0000ff;stroke:#0000ff;" x="774.555317" xlink:href="#me9b0785567" y="124.005274"/>
     <use style="fill:#0000ff;stroke:#0000ff;" x="782.884585" xlink:href="#me9b0785567" y="129.264428"/>
     <use style="fill:#0000ff;stroke:#0000ff;" x="791.213854" xlink:href="#me9b0785567" y="89.150464"/>
     <use style="fill:#0000ff;stroke:#0000ff;" x="799.543122" xlink:href="#me9b0785567" y="125.331347"/>
     <use style="fill:#0000ff;stroke:#0000ff;" x="807.87239" xlink:href="#me9b0785567" y="111.178376"/>
     <use style="fill:#0000ff;stroke:#0000ff;" x="816.201659" xlink:href="#me9b0785567" y="131.180183"/>
     <use style="fill:#0000ff;stroke:#0000ff;" x="824.530927" xlink:href="#me9b0785567" y="108.190364"/>
     <use style="fill:#0000ff;stroke:#0000ff;" x="832.860195" xlink:href="#me9b0785567" y="102.736567"/>
     <use style="fill:#0000ff;stroke:#0000ff;" x="841.189463" xlink:href="#me9b0785567" y="117.956441"/>
     <use style="fill:#0000ff;stroke:#0000ff;" x="849.518732" xlink:href="#me9b0785567" y="109.755331"/>
     <use style="fill:#0000ff;stroke:#0000ff;" x="857.848" xlink:href="#me9b0785567" y="92.935664"/>
    </g>
   </g>
   <g id="patch_3">
    <path d="M 147.528 135.8784 
L 147.528 63.0864 
" style="fill:none;stroke:#000000;stroke-linecap:square;stroke-linejoin:miter;stroke-width:0.8;"/>
   </g>
   <g id="patch_4">
    <path d="M 885.168 135.8784 
L 885.168 63.0864 
" style="fill:none;stroke:#000000;stroke-linecap:square;stroke-linejoin:miter;stroke-width:0.8;"/>
   </g>
   <g id="patch_5">
    <path d="M 147.528 135.8784 
L 885.168 135.8784 
" style="fill:none;stroke:#000000;stroke-linecap:square;stroke-linejoin:miter;stroke-width:0.8;"/>
   </g>
   <g id="patch_6">
    <path d="M 147.528 63.0864 
L 885.168 63.0864 
" style="fill:none;stroke:#000000;stroke-linecap:square;stroke-linejoin:miter;stroke-width:0.8;"/>
   </g>
   <g id="text_4">
    <!-- Function (0/0): y = a*exp(-(x-x0)**2/w**2)+b -->
    <defs>
     <path d="M 9.8125 72.90625 
L 51.703125 72.90625 
L 51.703125 64.59375 
L 19.671875 64.59375 
L 19.671875 43.109375 
L 48.578125 43.109375 
L 48.578125 34.8125 
L 19.671875 34.8125 
L 19.671875 0 
L 9.8125 0 
z
" id="DejaVuSans-46"/>
     <path d="M 48.78125 52.59375 
L 48.78125 44.1875 
Q 44.96875 46.296875 41.140625 47.34375 
Q 37.3125 48.390625 33.40625 48.390625 
Q 24.65625 48.390625 19.8125 42.84375 
Q 14.984375 37.3125 14.984375 27.296875 
Q 14.984375 17.28125 19.8125 11.734375 
Q 24.65625 6.203125 33.40625 6.203125 
Q 37.3125 6.203125 41.140625 7.25 
Q 44.96875 8.296875 48.78125 10.40625 
L 48.78125 2.09375 
Q 45.015625 0.34375 40.984375 -0.53125 
Q 36.96875 -1.421875 32.421875 -1.421875 
Q 20.0625 -1.421875 12.78125 6.34375 
Q 5.515625 14.109375 5.515625 27.296875 
Q 5.515625 40.671875 12.859375 48.328125 
Q 20.21875 56 33.015625 56 
Q 37.15625 56 41.109375 55.140625 
Q 45.0625 54.296875 48.78125 52.59375 
z
" id="DejaVuSans-63"/>
     <path d="M 30.609375 48.390625 
Q 23.390625 48.390625 19.1875 42.75 
Q 14.984375 37.109375 14.984375 27.296875 
Q 14.984375 17.484375 19.15625 11.84375 
Q 23.34375 6.203125 30.609375 6.203125 
Q 37.796875 6.203125 41.984375 11.859375 
Q 46.1875 17.53125 46.1875 27.296875 
Q 46.1875 37.015625 41.984375 42.703125 
Q 37.796875 48.390625 30.609375 48.390625 
z
M 30.609375 56 
Q 42.328125 56 49.015625 48.375 
Q 55.71875 40.765625 55.71875 27.296875 
Q 55.71875 13.875 49.015625 6.21875 
Q 42.328125 -1.421875 30.609375 -1.421875 
Q 18.84375 -1.421875 12.171875 6.21875 
Q 5.515625 13.875 5.515625 27.296875 
Q 5.515625 40.765625 12.171875 48.375 
Q 18.84375 56 30.609375 56 
z
" id="DejaVuSans-6f"/>
     <path id="DejaVuSans-20"/>
     <path d="M 31 75.875 
Q 24.46875 64.65625 21.28125 53.65625 
Q 18.109375 42.671875 18.109375 31.390625 
Q 18.109375 20.125 21.3125 9.0625 
Q 24.515625 -2 31 -13.1875 
L 23.1875 -13.1875 
Q 15.875 -1.703125 12.234375 9.375 
Q 8.59375 20.453125 8.59375 31.390625 
Q 8.59375 42.28125 12.203125 53.3125 
Q 15.828125 64.359375 23.1875 75.875 
z
" id="DejaVuSans-28"/>
     <path d="M 31.78125 66.40625 
Q 24.171875 66.40625 20.328125 58.90625 
Q 16.5 51.421875 16.5 36.375 
Q 16.5 21.390625 20.328125 13.890625 
Q 24.171875 6.390625 31.78125 6.390625 
Q 39.453125 6.390625 43.28125 13.890625 
Q 47.125 21.390625 47.125 36.375 
Q 47.125 51.421875 43.28125 58.90625 
Q 39.453125 66.40625 31.78125 66.40625 
z
M 31.78125 74.21875 
Q 44.046875 74.21875 50.515625 64.515625 
Q 56.984375 54.828125 56.984375 36.375 
Q 56.984375 17.96875 50.515625 8.265625 
Q 44.046875 -1.421875 31.78125 -1.421875 
Q 19.53125 -1.421875 13.0625 8.265625 
Q 6.59375 17.96875 6.59375 36.375 
Q 6.59375 54.828125 13.0625 64.515625 
Q 19.53125 74.21875 31.78125 74.21875 
z
" id="DejaVuSans-30"/>
     <path d="M 25.390625 72.90625 
L 33.6875 72.90625 
L 8.296875 -9.28125 
L 0 -9.28125 
z
" id="DejaVuSans-2f"/>
     <path d="M 8.015625 75.875 
L 15.828125 75.875 
Q 23.140625 64.359375 26.78125 53.3125 
Q 30.421875 42.28125 30.421875 31.390625 
Q 30.421875 20.453125 26.78125 9.375 
Q 23.140625 -1.703125 15.828125 -13.1875 
L 8.015625 -13.1875 
Q 14.5 -2 17.703125 9.0625 
Q 20.90625 20.125 20.90625 31.390625 
Q 20.90625 42.671875 17.703125 53.65625 
Q 14.5 64.65625 8.015625 75.875 
z
" id="DejaVuSans-29"/>
     <path d="M 11.71875 12.40625 
L 22.015625 12.40625 
L 22.015625 0 
L 11.71875 0 
z
M 11.71875 51.703125 
L 22.015625 51.703125 
L 22.015625 39.3125 
L 11.71875 39.3125 
z
" id="DejaVuSans-3a"/>
     <path d="M 32.171875 -5.078125 
Q 28.375 -14.84375 24.75 -17.8125 
Q 21.140625 -20.796875 15.09375 -20.796875 
L 7.90625 -20.796875 
L 7.90625 -13.28125 
L 13.1875 -13.28125 
Q 16.890625 -13.28125 18.9375 -11.515625 
Q 21 -9.765625 23.484375 -3.21875 
L 25.09375 0.875 
L 2.984375 54.6875 
L 12.5 54.6875 
L 29.59375 11.921875 
L 46.6875 54.6875 
L 56.203125 54.6875 
z
" id="DejaVuSans-79"/>
     <path d="M 10.59375 45.40625 
L 73.1875 45.40625 
L 73.1875 37.203125 
L 10.59375 37.203125 
z
M 10.59375 25.484375 
L 73.1875 25.484375 
L 73.1875 17.1875 
L 10.59375 17.1875 
z
" id="DejaVuSans-3d"/>
     <path d="M 47.015625 60.890625 
L 29.5 51.421875 
L 47.015625 41.890625 
L 44.1875 37.109375 
L 27.78125 47.015625 
L 27.78125 28.609375 
L 22.21875 28.609375 
L 22.21875 47.015625 
L 5.8125 37.109375 
L 2.984375 41.890625 
L 20.515625 51.421875 
L 2.984375 60.890625 
L 5.8125 65.71875 
L 22.21875 55.8125 
L 22.21875 74.21875 
L 27.78125 74.21875 
L 27.78125 55.8125 
L 44.1875 65.71875 
z
" id="DejaVuSans-2a"/>
     <path d="M 54.890625 54.6875 
L 35.109375 28.078125 
L 55.90625 0 
L 45.3125 0 
L 29.390625 21.484375 
L 13.484375 0 
L 2.875 0 
L 24.125 28.609375 
L 4.6875 54.6875 
L 15.28125 54.6875 
L 29.78125 35.203125 
L 44.28125 54.6875 
z
" id="DejaVuSans-78"/>
     <path d="M 18.109375 8.203125 
L 18.109375 -20.796875 
L 9.078125 -20.796875 
L 9.078125 54.6875 
L 18.109375 54.6875 
L 18.109375 46.390625 
Q 20.953125 51.265625 25.265625 53.625 
Q 29.59375 56 35.59375 56 
Q 45.5625 56 51.78125 48.09375 
Q 58.015625 40.1875 58.015625 27.296875 
Q 58.015625 14.40625 51.78125 6.484375 
Q 45.5625 -1.421875 35.59375 -1.421875 
Q 29.59375 -1.421875 25.265625 0.953125 
Q 20.953125 3.328125 18.109375 8.203125 
z
M 48.6875 27.296875 
Q 48.6875 37.203125 44.609375 42.84375 
Q 40.53125 48.484375 33.40625 48.484375 
Q 26.265625 48.484375 22.1875 42.84375 
Q 18.109375 37.203125 18.109375 27.296875 
Q 18.109375 17.390625 22.1875 11.75 
Q 26.265625 6.109375 33.40625 6.109375 
Q 40.53125 6.109375 44.609375 11.75 
Q 48.6875 17.390625 48.6875 27.296875 
z
" id="DejaVuSans-70"/>
     <path d="M 4.890625 31.390625 
L 31.203125 31.390625 
L 31.203125 23.390625 
L 4.890625 23.390625 
z
" id="DejaVuSans-2d"/>
     <path d="M 19.1875 8.296875 
L 53.609375 8.296875 
L 53.609375 0 
L 7.328125 0 
L 7.328125 8.296875 
Q 12.9375 14.109375 22.625 23.890625 
Q 32.328125 33.6875 34.8125 36.53125 
Q 39.546875 41.84375 41.421875 45.53125 
Q 43.3125 49.21875 43.3125 52.78125 
Q 43.3125 58.59375 39.234375 62.25 
Q 35.15625 65.921875 28.609375 65.921875 
Q 23.96875 65.921875 18.8125 64.3125 
Q 13.671875 62.703125 7.8125 59.421875 
L 7.8125 69.390625 
Q 13.765625 71.78125 18.9375 73 
Q 24.125 74.21875 28.421875 74.21875 
Q 39.75 74.21875 46.484375 68.546875 
Q 53.21875 62.890625 53.21875 53.421875 
Q 53.21875 48.921875 51.53125 44.890625 
Q 49.859375 40.875 45.40625 35.40625 
Q 44.1875 33.984375 37.640625 27.21875 
Q 31.109375 20.453125 19.1875 8.296875 
z
" id="DejaVuSans-32"/>
     <path d="M 4.203125 54.6875 
L 13.1875 54.6875 
L 24.421875 12.015625 
L 35.59375 54.6875 
L 46.1875 54.6875 
L 57.421875 12.015625 
L 68.609375 54.6875 
L 77.59375 54.6875 
L 63.28125 0 
L 52.6875 0 
L 40.921875 44.828125 
L 29.109375 0 
L 18.5 0 
z
" id="DejaVuSans-77"/>
     <path d="M 46 62.703125 
L 46 35.5 
L 73.1875 35.5 
L 73.1875 27.203125 
L 46 27.203125 
L 46 0 
L 37.796875 0 
L 37.796875 27.203125 
L 10.59375 27.203125 
L 10.59375 35.5 
L 37.796875 35.5 
L 37.796875 62.703125 
z
" id="DejaVuSans-2b"/>
     <path d="M 48.6875 27.296875 
Q 48.6875 37.203125 44.609375 42.84375 
Q 40.53125 48.484375 33.40625 48.484375 
Q 26.265625 48.484375 22.1875 42.84375 
Q 18.109375 37.203125 18.109375 27.296875 
Q 18.109375 17.390625 22.1875 11.75 
Q 26.265625 6.109375 33.40625 6.109375 
Q 40.53125 6.109375 44.609375 11.75 
Q 48.6875 17.390625 48.6875 27.296875 
z
M 18.109375 46.390625 
Q 20.953125 51.265625 25.265625 53.625 
Q 29.59375 56 35.59375 56 
Q 45.5625 56 51.78125 48.09375 
Q 58.015625 40.1875 58.015625 27.296875 
Q 58.015625 14.40625 51.78125 6.484375 
Q 45.5625 -1.421875 35.59375 -1.421875 
Q 29.59375 -1.421875 25.265625 0.953125 
Q 20.953125 3.328125 18.109375 8.203125 
L 18.109375 0 
L 9.078125 0 
L 9.078125 75.984375 
L 18.109375 75.984375 
z
" id="DejaVuSans-62"/>
    </defs>
    <g transform="translate(147.528 34.690775)scale(0.1 -0.1)">
     <use xlink:href="#DejaVuSans-46"/>
     <use x="57.441406" xlink:href="#DejaVuSans-75"/>
     <use x="120.820312" xlink:href="#DejaVuSans-6e"/>
     <use x="184.199219" xlink:href="#DejaVuSans-63"/>
     <use x="239.179688" xlink:href="#DejaVuSans-74"/>
     <use x="278.388672" xlink:href="#DejaVuSans-69"/>
     <use x="306.171875" xlink:href="#DejaVuSans-6f"/>
     <use x="367.353516" xlink:href="#DejaVuSans-6e"/>
     <use x="430.732422" xlink:href="#DejaVuSans-20"/>
     <use x="462.519531" xlink:href="#DejaVuSans-28"/>
     <use x="501.533203" xlink:href="#DejaVuSans-30"/>
     <use x="565.15625" xlink:href="#DejaVuSans-2f"/>
     <use x="598.847656" xlink:href="#DejaVuSans-30"/>
     <use x="662.470703" xlink:href="#DejaVuSans-29"/>
     <use x="701.484375" xlink:href="#DejaVuSans-3a"/>
     <use x="735.175781" xlink:href="#DejaVuSans-20"/>
     <use x="766.962891" xlink:href="#DejaVuSans-79"/>
     <use x="826.142578" xlink:href="#DejaVuSans-20"/>
     <use x="857.929688" xlink:href="#DejaVuSans-3d"/>
     <use x="941.71875" xlink:href="#DejaVuSans-20"/>
     <use x="973.505859" xlink:href="#DejaVuSans-61"/>
     <use x="1034.785156" xlink:href="#DejaVuSans-2a"/>
     <use x="1084.785156" xlink:href="#DejaVuSans-65"/>
     <use x="1146.292969" xlink:href="#DejaVuSans-78"/>
     <use x="1205.472656" xlink:href="#DejaVuSans-70"/>
     <use x="1268.949219" xlink:href="#DejaVuSans-28"/>
     <use x="1307.962891" xlink:href="#DejaVuSans-2d"/>
     <use x="1344.046875" xlink:href="#DejaVuSans-28"/>
     <use x="1383.060547" xlink:href="#DejaVuSans-78"/>
     <use x="1442.240234" xlink:href="#DejaVuSans-2d"/>
     <use x="1478.324219" xlink:href="#DejaVuSans-78"/>
     <use x="1537.503906" xlink:href="#DejaVuSans-30"/>
     <use x="1601.126953" xlink:href="#DejaVuSans-29"/>
     <use x="1640.140625" xlink:href="#DejaVuSans-2a"/>
     <use x="1690.140625" xlink:href="#DejaVuSans-2a"/>
     <use x="1740.140625" xlink:href="#DejaVuSans-32"/>
     <use x="1803.763672" xlink:href="#DejaVuSans-2f"/>
     <use x="1837.455078" xlink:href="#DejaVuSans-77"/>
     <use x="1919.242188" xlink:href="#DejaVuSans-2a"/>
     <use x="1969.242188" xlink:href="#DejaVuSans-2a"/>
     <use x="2019.242188" xlink:href="#DejaVuSans-32"/>
     <use x="2082.865234" xlink:href="#DejaVuSans-29"/>
     <use x="2121.878906" xlink:href="#DejaVuSans-2b"/>
     <use x="2205.667969" xlink:href="#DejaVuSans-62"/>
    </g>
    <!-- Fit: a=462.8$\pm$8.2, b=28.8$\pm$9.2, x0=4.64389$\pm$0.00096, -->
    <defs>
     <path d="M 37.796875 64.3125 
L 12.890625 25.390625 
L 37.796875 25.390625 
z
M 35.203125 72.90625 
L 47.609375 72.90625 
L 47.609375 25.390625 
L 58.015625 25.390625 
L 58.015625 17.1875 
L 47.609375 17.1875 
L 47.609375 0 
L 37.796875 0 
L 37.796875 17.1875 
L 4.890625 17.1875 
L 4.890625 26.703125 
z
" id="DejaVuSans-34"/>
     <path d="M 33.015625 40.375 
Q 26.375 40.375 22.484375 35.828125 
Q 18.609375 31.296875 18.609375 23.390625 
Q 18.609375 15.53125 22.484375 10.953125 
Q 26.375 6.390625 33.015625 6.390625 
Q 39.65625 6.390625 43.53125 10.953125 
Q 47.40625 15.53125 47.40625 23.390625 
Q 47.40625 31.296875 43.53125 35.828125 
Q 39.65625 40.375 33.015625 40.375 
z
M 52.59375 71.296875 
L 52.59375 62.3125 
Q 48.875 64.0625 45.09375 64.984375 
Q 41.3125 65.921875 37.59375 65.921875 
Q 27.828125 65.921875 22.671875 59.328125 
Q 17.53125 52.734375 16.796875 39.40625 
Q 19.671875 43.65625 24.015625 45.921875 
Q 28.375 48.1875 33.59375 48.1875 
Q 44.578125 48.1875 50.953125 41.515625 
Q 57.328125 34.859375 57.328125 23.390625 
Q 57.328125 12.15625 50.6875 5.359375 
Q 44.046875 -1.421875 33.015625 -1.421875 
Q 20.359375 -1.421875 13.671875 8.265625 
Q 6.984375 17.96875 6.984375 36.375 
Q 6.984375 53.65625 15.1875 63.9375 
Q 23.390625 74.21875 37.203125 74.21875 
Q 40.921875 74.21875 44.703125 73.484375 
Q 48.484375 72.75 52.59375 71.296875 
z
" id="DejaVuSans-36"/>
     <path d="M 10.6875 12.40625 
L 21 12.40625 
L 21 0 
L 10.6875 0 
z
" id="DejaVuSans-2e"/>
     <path d="M 31.78125 34.625 
Q 24.75 34.625 20.71875 30.859375 
Q 16.703125 27.09375 16.703125 20.515625 
Q 16.703125 13.921875 20.71875 10.15625 
Q 24.75 6.390625 31.78125 6.390625 
Q 38.8125 6.390625 42.859375 10.171875 
Q 46.921875 13.96875 46.921875 20.515625 
Q 46.921875 27.09375 42.890625 30.859375 
Q 38.875 34.625 31.78125 34.625 
z
M 21.921875 38.8125 
Q 15.578125 40.375 12.03125 44.71875 
Q 8.5 49.078125 8.5 55.328125 
Q 8.5 64.0625 14.71875 69.140625 
Q 20.953125 74.21875 31.78125 74.21875 
Q 42.671875 74.21875 48.875 69.140625 
Q 55.078125 64.0625 55.078125 55.328125 
Q 55.078125 49.078125 51.53125 44.71875 
Q 48 40.375 41.703125 38.8125 
Q 48.828125 37.15625 52.796875 32.3125 
Q 56.78125 27.484375 56.78125 20.515625 
Q 56.78125 9.90625 50.3125 4.234375 
Q 43.84375 -1.421875 31.78125 -1.421875 
Q 19.734375 -1.421875 13.25 4.234375 
Q 6.78125 9.90625 6.78125 20.515625 
Q 6.78125 27.484375 10.78125 32.3125 
Q 14.796875 37.15625 21.921875 38.8125 
z
M 18.3125 54.390625 
Q 18.3125 48.734375 21.84375 45.5625 
Q 25.390625 42.390625 31.78125 42.390625 
Q 38.140625 42.390625 41.71875 45.5625 
Q 45.3125 48.734375 45.3125 54.390625 
Q 45.3125 60.0625 41.71875 63.234375 
Q 38.140625 66.40625 31.78125 66.40625 
Q 25.390625 66.40625 21.84375 63.234375 
Q 18.3125 60.0625 18.3125 54.390625 
z
" id="DejaVuSans-38"/>
     <path d="M 46 62.703125 
L 46 43.796875 
L 73.1875 43.796875 
L 73.1875 35.5 
L 46 35.5 
L 46 16.609375 
L 37.796875 16.609375 
L 37.796875 35.5 
L 10.59375 35.5 
L 10.59375 43.796875 
L 37.796875 43.796875 
L 37.796875 62.703125 
z
M 10.59375 8.296875 
L 73.1875 8.296875 
L 73.1875 0 
L 10.59375 0 
z
" id="DejaVuSans-b1"/>
     <path d="M 11.71875 12.40625 
L 22.015625 12.40625 
L 22.015625 4 
L 14.015625 -11.625 
L 7.71875 -11.625 
L 11.71875 4 
z
" id="DejaVuSans-2c"/>
     <path d="M 10.984375 1.515625 
L 10.984375 10.5 
Q 14.703125 8.734375 18.5 7.8125 
Q 22.3125 6.890625 25.984375 6.890625 
Q 35.75 6.890625 40.890625 13.453125 
Q 46.046875 20.015625 46.78125 33.40625 
Q 43.953125 29.203125 39.59375 26.953125 
Q 35.25 24.703125 29.984375 24.703125 
Q 19.046875 24.703125 12.671875 31.3125 
Q 6.296875 37.9375 6.296875 49.421875 
Q 6.296875 60.640625 12.9375 67.421875 
Q 19.578125 74.21875 30.609375 74.21875 
Q 43.265625 74.21875 49.921875 64.515625 
Q 56.59375 54.828125 56.59375 36.375 
Q 56.59375 19.140625 48.40625 8.859375 
Q 40.234375 -1.421875 26.421875 -1.421875 
Q 22.703125 -1.421875 18.890625 -0.6875 
Q 15.09375 0.046875 10.984375 1.515625 
z
M 30.609375 32.421875 
Q 37.25 32.421875 41.125 36.953125 
Q 45.015625 41.5 45.015625 49.421875 
Q 45.015625 57.28125 41.125 61.84375 
Q 37.25 66.40625 30.609375 66.40625 
Q 23.96875 66.40625 20.09375 61.84375 
Q 16.21875 57.28125 16.21875 49.421875 
Q 16.21875 41.5 20.09375 36.953125 
Q 23.96875 32.421875 30.609375 32.421875 
z
" id="DejaVuSans-39"/>
     <path d="M 40.578125 39.3125 
Q 47.65625 37.796875 51.625 33 
Q 55.609375 28.21875 55.609375 21.1875 
Q 55.609375 10.40625 48.1875 4.484375 
Q 40.765625 -1.421875 27.09375 -1.421875 
Q 22.515625 -1.421875 17.65625 -0.515625 
Q 12.796875 0.390625 7.625 2.203125 
L 7.625 11.71875 
Q 11.71875 9.328125 16.59375 8.109375 
Q 21.484375 6.890625 26.8125 6.890625 
Q 36.078125 6.890625 40.9375 10.546875 
Q 45.796875 14.203125 45.796875 21.1875 
Q 45.796875 27.640625 41.28125 31.265625 
Q 36.765625 34.90625 28.71875 34.90625 
L 20.21875 34.90625 
L 20.21875 43.015625 
L 29.109375 43.015625 
Q 36.375 43.015625 40.234375 45.921875 
Q 44.09375 48.828125 44.09375 54.296875 
Q 44.09375 59.90625 40.109375 62.90625 
Q 36.140625 65.921875 28.71875 65.921875 
Q 24.65625 65.921875 20.015625 65.03125 
Q 15.375 64.15625 9.8125 62.3125 
L 9.8125 71.09375 
Q 15.4375 72.65625 20.34375 73.4375 
Q 25.25 74.21875 29.59375 74.21875 
Q 40.828125 74.21875 47.359375 69.109375 
Q 53.90625 64.015625 53.90625 55.328125 
Q 53.90625 49.265625 50.4375 45.09375 
Q 46.96875 40.921875 40.578125 39.3125 
z
" id="DejaVuSans-33"/>
    </defs>
    <g transform="translate(147.528 45.888588)scale(0.1 -0.1)">
     <use transform="translate(0 0.015625)" xlink:href="#DejaVuSans-46"/>
     <use transform="translate(57.519531 0.015625)" xlink:href="#DejaVuSans-69"/>
     <use transform="translate(85.302734 0.015625)" xlink:href="#DejaVuSans-74"/>
     <use transform="translate(124.511719 0.015625)" xlink:href="#DejaVuSans-3a"/>
     <use transform="translate(158.203125 0.015625)" xlink:href="#DejaVuSans-20"/>
     <use transform="translate(189.990234 0.015625)" xlink:href="#DejaVuSans-61"/>
     <use transform="translate(251.269531 0.015625)" xlink:href="#DejaVuSans-3d"/>
     <use transform="translate(335.058594 0.015625)" xlink:href="#DejaVuSans-34"/>
     <use transform="translate(398.681641 0.015625)" xlink:href="#DejaVuSans-36"/>
     <use transform="translate(462.304688 0.015625)" xlink:href="#DejaVuSans-32"/>
     <use transform="translate(525.927734 0.015625)" xlink:href="#DejaVuSans-2e"/>
     <use transform="translate(557.683594 0.015625)" xlink:href="#DejaVuSans-38"/>
     <use transform="translate(621.306641 0.015625)" xlink:href="#DejaVuSans-b1"/>
     <use transform="translate(705.095703 0.015625)" xlink:href="#DejaVuSans-38"/>
     <use transform="translate(768.71875 0.015625)" xlink:href="#DejaVuSans-2e"/>
     <use transform="translate(800.427734 0.015625)" xlink:href="#DejaVuSans-32"/>
     <use transform="translate(864.050781 0.015625)" xlink:href="#DejaVuSans-2c"/>
     <use transform="translate(895.837891 0.015625)" xlink:href="#DejaVuSans-20"/>
     <use transform="translate(927.625 0.015625)" xlink:href="#DejaVuSans-62"/>
     <use transform="translate(991.101562 0.015625)" xlink:href="#DejaVuSans-3d"/>
     <use transform="translate(1074.890625 0.015625)" xlink:href="#DejaVuSans-32"/>
     <use transform="translate(1138.513672 0.015625)" xlink:href="#DejaVuSans-38"/>
     <use transform="translate(1202.136719 0.015625)" xlink:href="#DejaVuSans-2e"/>
     <use transform="translate(1233.892578 0.015625)" xlink:href="#DejaVuSans-38"/>
     <use transform="translate(1297.515625 0.015625)" xlink:href="#DejaVuSans-b1"/>
     <use transform="translate(1381.304688 0.015625)" xlink:href="#DejaVuSans-39"/>
     <use transform="translate(1444.927734 0.015625)" xlink:href="#DejaVuSans-2e"/>
     <use transform="translate(1476.636719 0.015625)" xlink:href="#DejaVuSans-32"/>
     <use transform="translate(1540.259766 0.015625)" xlink:href="#DejaVuSans-2c"/>
     <use transform="translate(1572.046875 0.015625)" xlink:href="#DejaVuSans-20"/>
     <use transform="translate(1603.833984 0.015625)" xlink:href="#DejaVuSans-78"/>
     <use transform="translate(1663.013672 0.015625)" xlink:href="#DejaVuSans-30"/>
     <use transform="translate(1726.636719 0.015625)" xlink:href="#DejaVuSans-3d"/>
     <use transform="translate(1810.425781 0.015625)" xlink:href="#DejaVuSans-34"/>
     <use transform="translate(1874.048828 0.015625)" xlink:href="#DejaVuSans-2e"/>
     <use transform="translate(1905.835938 0.015625)" xlink:href="#DejaVuSans-36"/>
     <use transform="translate(1969.458984 0.015625)" xlink:href="#DejaVuSans-34"/>
     <use transform="translate(2033.082031 0.015625)" xlink:href="#DejaVuSans-33"/>
     <use transform="translate(2096.705078 0.015625)" xlink:href="#DejaVuSans-38"/>
     <use transform="translate(2160.328125 0.015625)" xlink:href="#DejaVuSans-39"/>
     <use transform="translate(2223.951172 0.015625)" xlink:href="#DejaVuSans-b1"/>
     <use transform="translate(2307.740234 0.015625)" xlink:href="#DejaVuSans-30"/>
     <use transform="translate(2371.363281 0.015625)" xlink:href="#DejaVuSans-2e"/>
     <use transform="translate(2403.150391 0.015625)" xlink:href="#DejaVuSans-30"/>
     <use transform="translate(2466.773438 0.015625)" xlink:href="#DejaVuSans-30"/>
     <use transform="translate(2530.396484 0.015625)" xlink:href="#DejaVuSans-30"/>
     <use transform="translate(2594.019531 0.015625)" xlink:href="#DejaVuSans-39"/>
     <use transform="translate(2657.642578 0.015625)" xlink:href="#DejaVuSans-36"/>
     <use transform="translate(2721.265625 0.015625)" xlink:href="#DejaVuSans-2c"/>
    </g>
    <!--       w=0.1658$\pm$0.0042, -->
    <defs>
     <path d="M 10.796875 72.90625 
L 49.515625 72.90625 
L 49.515625 64.59375 
L 19.828125 64.59375 
L 19.828125 46.734375 
Q 21.96875 47.46875 24.109375 47.828125 
Q 26.265625 48.1875 28.421875 48.1875 
Q 40.625 48.1875 47.75 41.5 
Q 54.890625 34.8125 54.890625 23.390625 
Q 54.890625 11.625 47.5625 5.09375 
Q 40.234375 -1.421875 26.90625 -1.421875 
Q 22.3125 -1.421875 17.546875 -0.640625 
Q 12.796875 0.140625 7.71875 1.703125 
L 7.71875 11.625 
Q 12.109375 9.234375 16.796875 8.0625 
Q 21.484375 6.890625 26.703125 6.890625 
Q 35.15625 6.890625 40.078125 11.328125 
Q 45.015625 15.765625 45.015625 23.390625 
Q 45.015625 31 40.078125 35.4375 
Q 35.15625 39.890625 26.703125 39.890625 
Q 22.75 39.890625 18.8125 39.015625 
Q 14.890625 38.140625 10.796875 36.28125 
z
" id="DejaVuSans-35"/>
    </defs>
    <g transform="translate(147.528 57.0864)scale(0.1 -0.1)">
     <use transform="translate(0 0.78125)" xlink:href="#DejaVuSans-20"/>
     <use transform="translate(31.787109 0.78125)" xlink:href="#DejaVuSans-20"/>
     <use transform="translate(63.574219 0.78125)" xlink:href="#DejaVuSans-20"/>
     <use transform="translate(95.361328 0.78125)" xlink:href="#DejaVuSans-20"/>
     <use transform="translate(127.148438 0.78125)" xlink:href="#DejaVuSans-20"/>
     <use transform="translate(158.935547 0.78125)" xlink:href="#DejaVuSans-20"/>
     <use transform="translate(190.722656 0.78125)" xlink:href="#DejaVuSans-77"/>
     <use transform="translate(272.509766 0.78125)" xlink:href="#DejaVuSans-3d"/>
     <use transform="translate(356.298828 0.78125)" xlink:href="#DejaVuSans-30"/>
     <use transform="translate(419.921875 0.78125)" xlink:href="#DejaVuSans-2e"/>
     <use transform="translate(451.708984 0.78125)" xlink:href="#DejaVuSans-31"/>
     <use transform="translate(515.332031 0.78125)" xlink:href="#DejaVuSans-36"/>
     <use transform="translate(578.955078 0.78125)" xlink:href="#DejaVuSans-35"/>
     <use transform="translate(642.578125 0.78125)" xlink:href="#DejaVuSans-38"/>
     <use transform="translate(706.201172 0.78125)" xlink:href="#DejaVuSans-b1"/>
     <use transform="translate(789.990234 0.78125)" xlink:href="#DejaVuSans-30"/>
     <use transform="translate(853.613281 0.78125)" xlink:href="#DejaVuSans-2e"/>
     <use transform="translate(885.400391 0.78125)" xlink:href="#DejaVuSans-30"/>
     <use transform="translate(949.023438 0.78125)" xlink:href="#DejaVuSans-30"/>
     <use transform="translate(1012.646484 0.78125)" xlink:href="#DejaVuSans-34"/>
     <use transform="translate(1076.269531 0.78125)" xlink:href="#DejaVuSans-32"/>
     <use transform="translate(1139.892578 0.78125)" xlink:href="#DejaVuSans-2c"/>
    </g>
   </g>
  </g>
  <g id="axes_2">
   <g id="patch_7">
    <path d="M 147.528 436.752 
L 885.168 436.752 
L 885.168 145.584 
L 147.528 145.584 
z
" style="fill:#ffffff;"/>
   </g>
   <g id="matplotlib.axis_3">
    <g id="xtick_7">
     <g id="line2d_12">
      <g>
       <use style="stroke:#000000;stroke-width:0.8;" x="178.257602" xlink:href="#med90c3d4b7" y="436.752"/>
      </g>
     </g>
     <g id="text_5">
      <!-- 4.4 -->
      <g transform="translate(168.715727 452.870125)scale(0.12 -0.12)">
       <use xlink:href="#DejaVuSans-34"/>
       <use x="63.623047" xlink:href="#DejaVuSans-2e"/>
       <use x="95.410156" xlink:href="#DejaVuSans-34"/>
      </g>
     </g>
    </g>
    <g id="xtick_8">
     <g id="line2d_13">
      <g>
       <use style="stroke:#000000;stroke-width:0.8;" x="318.273805" xlink:href="#med90c3d4b7" y="436.752"/>
      </g>
     </g>
     <g id="text_6">
      <!-- 4.5 -->
      <g transform="translate(308.73193 452.870125)scale(0.12 -0.12)">
       <use xlink:href="#DejaVuSans-34"/>
       <use x="63.623047" xlink:href="#DejaVuSans-2e"/>
       <use x="95.410156" xlink:href="#DejaVuSans-35"/>
      </g>
     </g>
    </g>
    <g id="xtick_9">
     <g id="line2d_14">
      <g>
       <use style="stroke:#000000;stroke-width:0.8;" x="458.290007" xlink:href="#med90c3d4b7" y="436.752"/>
      </g>
     </g>
     <g id="text_7">
      <!-- 4.6 -->
      <g transform="translate(448.748132 452.870125)scale(0.12 -0.12)">
       <use xlink:href="#DejaVuSans-34"/>
       <use x="63.623047" xlink:href="#DejaVuSans-2e"/>
       <use x="95.410156" xlink:href="#DejaVuSans-36"/>
      </g>
     </g>
    </g>
    <g id="xtick_10">
     <g id="line2d_15">
      <g>
       <use style="stroke:#000000;stroke-width:0.8;" x="598.306209" xlink:href="#med90c3d4b7" y="436.752"/>
      </g>
     </g>
     <g id="text_8">
      <!-- 4.7 -->
      <defs>
       <path d="M 8.203125 72.90625 
L 55.078125 72.90625 
L 55.078125 68.703125 
L 28.609375 0 
L 18.3125 0 
L 43.21875 64.59375 
L 8.203125 64.59375 
z
" id="DejaVuSans-37"/>
      </defs>
      <g transform="translate(588.764334 452.870125)scale(0.12 -0.12)">
       <use xlink:href="#DejaVuSans-34"/>
       <use x="63.623047" xlink:href="#DejaVuSans-2e"/>
       <use x="95.410156" xlink:href="#DejaVuSans-37"/>
      </g>
     </g>
    </g>
    <g id="xtick_11">
     <g id="line2d_16">
      <g>
       <use style="stroke:#000000;stroke-width:0.8;" x="738.322411" xlink:href="#med90c3d4b7" y="436.752"/>
      </g>
     </g>
     <g id="text_9">
      <!-- 4.8 -->
      <g transform="translate(728.780536 452.870125)scale(0.12 -0.12)">
       <use xlink:href="#DejaVuSans-34"/>
       <use x="63.623047" xlink:href="#DejaVuSans-2e"/>
       <use x="95.410156" xlink:href="#DejaVuSans-38"/>
      </g>
     </g>
    </g>
    <g id="xtick_12">
     <g id="line2d_17">
      <g>
       <use style="stroke:#000000;stroke-width:0.8;" x="878.338614" xlink:href="#med90c3d4b7" y="436.752"/>
      </g>
     </g>
     <g id="text_10">
      <!-- 4.9 -->
      <g transform="translate(868.796739 452.870125)scale(0.12 -0.12)">
       <use xlink:href="#DejaVuSans-34"/>
       <use x="63.623047" xlink:href="#DejaVuSans-2e"/>
       <use x="95.410156" xlink:href="#DejaVuSans-39"/>
      </g>
     </g>
    </g>
    <g id="text_11">
     <!-- Energy [MeV] -->
     <defs>
      <path d="M 9.8125 72.90625 
L 55.90625 72.90625 
L 55.90625 64.59375 
L 19.671875 64.59375 
L 19.671875 43.015625 
L 54.390625 43.015625 
L 54.390625 34.71875 
L 19.671875 34.71875 
L 19.671875 8.296875 
L 56.78125 8.296875 
L 56.78125 0 
L 9.8125 0 
z
" id="DejaVuSans-45"/>
      <path d="M 41.109375 46.296875 
Q 39.59375 47.171875 37.8125 47.578125 
Q 36.03125 48 33.890625 48 
Q 26.265625 48 22.1875 43.046875 
Q 18.109375 38.09375 18.109375 28.8125 
L 18.109375 0 
L 9.078125 0 
L 9.078125 54.6875 
L 18.109375 54.6875 
L 18.109375 46.1875 
Q 20.953125 51.171875 25.484375 53.578125 
Q 30.03125 56 36.53125 56 
Q 37.453125 56 38.578125 55.875 
Q 39.703125 55.765625 41.0625 55.515625 
z
" id="DejaVuSans-72"/>
      <path d="M 45.40625 27.984375 
Q 45.40625 37.75 41.375 43.109375 
Q 37.359375 48.484375 30.078125 48.484375 
Q 22.859375 48.484375 18.828125 43.109375 
Q 14.796875 37.75 14.796875 27.984375 
Q 14.796875 18.265625 18.828125 12.890625 
Q 22.859375 7.515625 30.078125 7.515625 
Q 37.359375 7.515625 41.375 12.890625 
Q 45.40625 18.265625 45.40625 27.984375 
z
M 54.390625 6.78125 
Q 54.390625 -7.171875 48.1875 -13.984375 
Q 42 -20.796875 29.203125 -20.796875 
Q 24.46875 -20.796875 20.265625 -20.09375 
Q 16.0625 -19.390625 12.109375 -17.921875 
L 12.109375 -9.1875 
Q 16.0625 -11.328125 19.921875 -12.34375 
Q 23.78125 -13.375 27.78125 -13.375 
Q 36.625 -13.375 41.015625 -8.765625 
Q 45.40625 -4.15625 45.40625 5.171875 
L 45.40625 9.625 
Q 42.625 4.78125 38.28125 2.390625 
Q 33.9375 0 27.875 0 
Q 17.828125 0 11.671875 7.65625 
Q 5.515625 15.328125 5.515625 27.984375 
Q 5.515625 40.671875 11.671875 48.328125 
Q 17.828125 56 27.875 56 
Q 33.9375 56 38.28125 53.609375 
Q 42.625 51.21875 45.40625 46.390625 
L 45.40625 54.6875 
L 54.390625 54.6875 
z
" id="DejaVuSans-67"/>
      <path d="M 8.59375 75.984375 
L 29.296875 75.984375 
L 29.296875 69 
L 17.578125 69 
L 17.578125 -6.203125 
L 29.296875 -6.203125 
L 29.296875 -13.1875 
L 8.59375 -13.1875 
z
" id="DejaVuSans-5b"/>
      <path d="M 9.8125 72.90625 
L 24.515625 72.90625 
L 43.109375 23.296875 
L 61.8125 72.90625 
L 76.515625 72.90625 
L 76.515625 0 
L 66.890625 0 
L 66.890625 64.015625 
L 48.09375 14.015625 
L 38.1875 14.015625 
L 19.390625 64.015625 
L 19.390625 0 
L 9.8125 0 
z
" id="DejaVuSans-4d"/>
      <path d="M 28.609375 0 
L 0.78125 72.90625 
L 11.078125 72.90625 
L 34.1875 11.53125 
L 57.328125 72.90625 
L 67.578125 72.90625 
L 39.796875 0 
z
" id="DejaVuSans-56"/>
      <path d="M 30.421875 75.984375 
L 30.421875 -13.1875 
L 9.71875 -13.1875 
L 9.71875 -6.203125 
L 21.390625 -6.203125 
L 21.390625 69 
L 9.71875 69 
L 9.71875 75.984375 
z
" id="DejaVuSans-5d"/>
     </defs>
     <g transform="translate(475.674562 468.483875)scale(0.12 -0.12)">
      <use xlink:href="#DejaVuSans-45"/>
      <use x="63.183594" xlink:href="#DejaVuSans-6e"/>
      <use x="126.5625" xlink:href="#DejaVuSans-65"/>
      <use x="188.085938" xlink:href="#DejaVuSans-72"/>
      <use x="229.183594" xlink:href="#DejaVuSans-67"/>
      <use x="292.660156" xlink:href="#DejaVuSans-79"/>
      <use x="351.839844" xlink:href="#DejaVuSans-20"/>
      <use x="383.626953" xlink:href="#DejaVuSans-5b"/>
      <use x="422.640625" xlink:href="#DejaVuSans-4d"/>
      <use x="508.919922" xlink:href="#DejaVuSans-65"/>
      <use x="570.443359" xlink:href="#DejaVuSans-56"/>
      <use x="638.851562" xlink:href="#DejaVuSans-5d"/>
     </g>
    </g>
   </g>
   <g id="matplotlib.axis_4">
    <g id="ytick_4">
     <g id="line2d_18">
      <g>
       <use style="stroke:#000000;stroke-width:0.8;" x="147.528" xlink:href="#m1d8ab843c4" y="411.48015"/>
      </g>
     </g>
     <g id="text_12">
      <!-- 100 -->
      <g transform="translate(117.623 416.039212)scale(0.12 -0.12)">
       <use xlink:href="#DejaVuSans-31"/>
       <use x="63.623047" xlink:href="#DejaVuSans-30"/>
       <use x="127.246094" xlink:href="#DejaVuSans-30"/>
      </g>
     </g>
    </g>
    <g id="ytick_5">
     <g id="line2d_19">
      <g>
       <use style="stroke:#000000;stroke-width:0.8;" x="147.528" xlink:href="#m1d8ab843c4" y="348.489495"/>
      </g>
     </g>
     <g id="text_13">
      <!-- 200 -->
      <g transform="translate(117.623 353.048558)scale(0.12 -0.12)">
       <use xlink:href="#DejaVuSans-32"/>
       <use x="63.623047" xlink:href="#DejaVuSans-30"/>
       <use x="127.246094" xlink:href="#DejaVuSans-30"/>
      </g>
     </g>
    </g>
    <g id="ytick_6">
     <g id="line2d_20">
      <g>
       <use style="stroke:#000000;stroke-width:0.8;" x="147.528" xlink:href="#m1d8ab843c4" y="285.498841"/>
      </g>
     </g>
     <g id="text_14">
      <!-- 300 -->
      <g transform="translate(117.623 290.057904)scale(0.12 -0.12)">
       <use xlink:href="#DejaVuSans-33"/>
       <use x="63.623047" xlink:href="#DejaVuSans-30"/>
       <use x="127.246094" xlink:href="#DejaVuSans-30"/>
      </g>
     </g>
    </g>
    <g id="ytick_7">
     <g id="line2d_21">
      <g>
       <use style="stroke:#000000;stroke-width:0.8;" x="147.528" xlink:href="#m1d8ab843c4" y="222.508187"/>
      </g>
     </g>
     <g id="text_15">
      <!-- 400 -->
      <g transform="translate(117.623 227.067249)scale(0.12 -0.12)">
       <use xlink:href="#DejaVuSans-34"/>
       <use x="63.623047" xlink:href="#DejaVuSans-30"/>
       <use x="127.246094" xlink:href="#DejaVuSans-30"/>
      </g>
     </g>
    </g>
    <g id="ytick_8">
     <g id="line2d_22">
      <g>
       <use style="stroke:#000000;stroke-width:0.8;" x="147.528" xlink:href="#m1d8ab843c4" y="159.517533"/>
      </g>
     </g>
     <g id="text_16">
      <!-- 500 -->
      <g transform="translate(117.623 164.076595)scale(0.12 -0.12)">
       <use xlink:href="#DejaVuSans-35"/>
       <use x="63.623047" xlink:href="#DejaVuSans-30"/>
       <use x="127.246094" xlink:href="#DejaVuSans-30"/>
      </g>
     </g>
    </g>
    <g id="text_17">
     <!-- Counts -->
     <defs>
      <path d="M 64.40625 67.28125 
L 64.40625 56.890625 
Q 59.421875 61.53125 53.78125 63.8125 
Q 48.140625 66.109375 41.796875 66.109375 
Q 29.296875 66.109375 22.65625 58.46875 
Q 16.015625 50.828125 16.015625 36.375 
Q 16.015625 21.96875 22.65625 14.328125 
Q 29.296875 6.6875 41.796875 6.6875 
Q 48.140625 6.6875 53.78125 8.984375 
Q 59.421875 11.28125 64.40625 15.921875 
L 64.40625 5.609375 
Q 59.234375 2.09375 53.4375 0.328125 
Q 47.65625 -1.421875 41.21875 -1.421875 
Q 24.65625 -1.421875 15.125 8.703125 
Q 5.609375 18.84375 5.609375 36.375 
Q 5.609375 53.953125 15.125 64.078125 
Q 24.65625 74.21875 41.21875 74.21875 
Q 47.75 74.21875 53.53125 72.484375 
Q 59.328125 70.75 64.40625 67.28125 
z
" id="DejaVuSans-43"/>
     </defs>
     <g transform="translate(111.127375 312.11175)rotate(-90)scale(0.12 -0.12)">
      <use xlink:href="#DejaVuSans-43"/>
      <use x="69.824219" xlink:href="#DejaVuSans-6f"/>
      <use x="131.005859" xlink:href="#DejaVuSans-75"/>
      <use x="194.384766" xlink:href="#DejaVuSans-6e"/>
      <use x="257.763672" xlink:href="#DejaVuSans-74"/>
      <use x="296.972656" xlink:href="#DejaVuSans-73"/>
     </g>
    </g>
   </g>
   <g id="LineCollection_2">
    <path clip-path="url(#p7bc37ce265)" d="M 174.848 431.495407 
L 174.848 420.440593 
" style="fill:none;stroke:#0000ff;stroke-width:1.5;"/>
    <path clip-path="url(#p7bc37ce265)" d="M 183.177268 424.948075 
L 183.177268 413.129981 
" style="fill:none;stroke:#0000ff;stroke-width:1.5;"/>
    <path clip-path="url(#p7bc37ce265)" d="M 191.506537 416.881422 
L 191.506537 404.189157 
" style="fill:none;stroke:#0000ff;stroke-width:1.5;"/>
    <path clip-path="url(#p7bc37ce265)" d="M 199.835805 421.964094 
L 199.835805 409.814897 
" style="fill:none;stroke:#0000ff;stroke-width:1.5;"/>
    <path clip-path="url(#p7bc37ce265)" d="M 208.165073 406.683897 
L 208.165073 392.96986 
" style="fill:none;stroke:#0000ff;stroke-width:1.5;"/>
    <path clip-path="url(#p7bc37ce265)" d="M 216.494341 411.187655 
L 216.494341 397.9147 
" style="fill:none;stroke:#0000ff;stroke-width:1.5;"/>
    <path clip-path="url(#p7bc37ce265)" d="M 224.82361 406.383394 
L 224.82361 392.640456 
" style="fill:none;stroke:#0000ff;stroke-width:1.5;"/>
    <path clip-path="url(#p7bc37ce265)" d="M 233.152878 396.450861 
L 233.152878 381.786074 
" style="fill:none;stroke:#0000ff;stroke-width:1.5;"/>
    <path clip-path="url(#p7bc37ce265)" d="M 241.482146 394.038675 
L 241.482146 379.159008 
" style="fill:none;stroke:#0000ff;stroke-width:1.5;"/>
    <path clip-path="url(#p7bc37ce265)" d="M 249.811415 391.021299 
L 249.811415 375.877318 
" style="fill:none;stroke:#0000ff;stroke-width:1.5;"/>
    <path clip-path="url(#p7bc37ce265)" d="M 258.140683 385.886616 
L 258.140683 370.303589 
" style="fill:none;stroke:#0000ff;stroke-width:1.5;"/>
    <path clip-path="url(#p7bc37ce265)" d="M 266.469951 363.774744 
L 266.469951 346.432284 
" style="fill:none;stroke:#0000ff;stroke-width:1.5;"/>
    <path clip-path="url(#p7bc37ce265)" d="M 274.79922 364.685217 
L 274.79922 347.41153 
" style="fill:none;stroke:#0000ff;stroke-width:1.5;"/>
    <path clip-path="url(#p7bc37ce265)" d="M 283.128488 355.878456 
L 283.128488 337.951002 
" style="fill:none;stroke:#0000ff;stroke-width:1.5;"/>
    <path clip-path="url(#p7bc37ce265)" d="M 291.457756 349.189724 
L 291.457756 330.78179 
" style="fill:none;stroke:#0000ff;stroke-width:1.5;"/>
    <path clip-path="url(#p7bc37ce265)" d="M 299.787024 351.92679 
L 299.787024 333.713883 
" style="fill:none;stroke:#0000ff;stroke-width:1.5;"/>
    <path clip-path="url(#p7bc37ce265)" d="M 308.116293 348.885542 
L 308.116293 330.456065 
" style="fill:none;stroke:#0000ff;stroke-width:1.5;"/>
    <path clip-path="url(#p7bc37ce265)" d="M 316.445561 323.59834 
L 316.445561 303.461025 
" style="fill:none;stroke:#0000ff;stroke-width:1.5;"/>
    <path clip-path="url(#p7bc37ce265)" d="M 324.774829 329.088574 
L 324.774829 309.309108 
" style="fill:none;stroke:#0000ff;stroke-width:1.5;"/>
    <path clip-path="url(#p7bc37ce265)" d="M 333.104098 308.637324 
L 333.104098 287.556619 
" style="fill:none;stroke:#0000ff;stroke-width:1.5;"/>
    <path clip-path="url(#p7bc37ce265)" d="M 341.433366 309.859426 
L 341.433366 288.854144 
" style="fill:none;stroke:#0000ff;stroke-width:1.5;"/>
    <path clip-path="url(#p7bc37ce265)" d="M 349.762634 309.859426 
L 349.762634 288.854144 
" style="fill:none;stroke:#0000ff;stroke-width:1.5;"/>
    <path clip-path="url(#p7bc37ce265)" d="M 358.091902 286.005597 
L 358.091902 263.575263 
" style="fill:none;stroke:#0000ff;stroke-width:1.5;"/>
    <path clip-path="url(#p7bc37ce265)" d="M 366.421171 289.984412 
L 366.421171 267.785233 
" style="fill:none;stroke:#0000ff;stroke-width:1.5;"/>
    <path clip-path="url(#p7bc37ce265)" d="M 374.750439 270.385339 
L 374.750439 247.070287 
" style="fill:none;stroke:#0000ff;stroke-width:1.5;"/>
    <path clip-path="url(#p7bc37ce265)" d="M 383.079707 264.255233 
L 383.079707 240.602263 
" style="fill:none;stroke:#0000ff;stroke-width:1.5;"/>
    <path clip-path="url(#p7bc37ce265)" d="M 391.408976 244.316444 
L 391.408976 219.597126 
" style="fill:none;stroke:#0000ff;stroke-width:1.5;"/>
    <path clip-path="url(#p7bc37ce265)" d="M 399.738244 242.167824 
L 399.738244 217.3364 
" style="fill:none;stroke:#0000ff;stroke-width:1.5;"/>
    <path clip-path="url(#p7bc37ce265)" d="M 408.067512 248.306058 
L 408.067512 223.796298 
" style="fill:none;stroke:#0000ff;stroke-width:1.5;"/>
    <path clip-path="url(#p7bc37ce265)" d="M 416.39678 227.427817 
L 416.39678 201.840893 
" style="fill:none;stroke:#0000ff;stroke-width:1.5;"/>
    <path clip-path="url(#p7bc37ce265)" d="M 424.726049 228.349395 
L 424.726049 202.809035 
" style="fill:none;stroke:#0000ff;stroke-width:1.5;"/>
    <path clip-path="url(#p7bc37ce265)" d="M 433.055317 224.970071 
L 433.055317 199.259387 
" style="fill:none;stroke:#0000ff;stroke-width:1.5;"/>
    <path clip-path="url(#p7bc37ce265)" d="M 441.384585 194.839825 
L 441.384585 167.658792 
" style="fill:none;stroke:#0000ff;stroke-width:1.5;"/>
    <path clip-path="url(#p7bc37ce265)" d="M 449.713854 186.839504 
L 449.713854 159.281543 
" style="fill:none;stroke:#0000ff;stroke-width:1.5;"/>
    <path clip-path="url(#p7bc37ce265)" d="M 458.043122 194.532169 
L 458.043122 167.336542 
" style="fill:none;stroke:#0000ff;stroke-width:1.5;"/>
    <path clip-path="url(#p7bc37ce265)" d="M 466.37239 204.990247 
L 466.37239 178.295286 
" style="fill:none;stroke:#0000ff;stroke-width:1.5;"/>
    <path clip-path="url(#p7bc37ce265)" d="M 474.701659 205.297766 
L 474.701659 178.617673 
" style="fill:none;stroke:#0000ff;stroke-width:1.5;"/>
    <path clip-path="url(#p7bc37ce265)" d="M 483.030927 182.222771 
L 483.030927 154.449678 
" style="fill:none;stroke:#0000ff;stroke-width:1.5;"/>
    <path clip-path="url(#p7bc37ce265)" d="M 491.360195 189.609139 
L 491.360195 162.181067 
" style="fill:none;stroke:#0000ff;stroke-width:1.5;"/>
    <path clip-path="url(#p7bc37ce265)" d="M 499.689463 179.760174 
L 499.689463 151.873022 
" style="fill:none;stroke:#0000ff;stroke-width:1.5;"/>
    <path clip-path="url(#p7bc37ce265)" d="M 508.018732 178.220933 
L 508.018732 150.262731 
" style="fill:none;stroke:#0000ff;stroke-width:1.5;"/>
    <path clip-path="url(#p7bc37ce265)" d="M 516.348 190.224572 
L 516.348 162.825447 
" style="fill:none;stroke:#0000ff;stroke-width:1.5;"/>
    <path clip-path="url(#p7bc37ce265)" d="M 524.677268 170.523389 
L 524.677268 142.212611 
" style="fill:none;stroke:#0000ff;stroke-width:1.5;"/>
    <path clip-path="url(#p7bc37ce265)" d="M 533.006537 182.838383 
L 533.006537 155.093878 
" style="fill:none;stroke:#0000ff;stroke-width:1.5;"/>
    <path clip-path="url(#p7bc37ce265)" d="M 541.335805 174.834286 
L 541.335805 146.720406 
" style="fill:none;stroke:#0000ff;stroke-width:1.5;"/>
    <path clip-path="url(#p7bc37ce265)" d="M 549.665073 170.831333 
L 549.665073 142.534574 
" style="fill:none;stroke:#0000ff;stroke-width:1.5;"/>
    <path clip-path="url(#p7bc37ce265)" d="M 557.994341 180.683675 
L 557.994341 152.839241 
" style="fill:none;stroke:#0000ff;stroke-width:1.5;"/>
    <path clip-path="url(#p7bc37ce265)" d="M 566.32361 180.375845 
L 566.32361 152.517164 
" style="fill:none;stroke:#0000ff;stroke-width:1.5;"/>
    <path clip-path="url(#p7bc37ce265)" d="M 574.652878 200.99212 
L 574.652878 174.104627 
" style="fill:none;stroke:#0000ff;stroke-width:1.5;"/>
    <path clip-path="url(#p7bc37ce265)" d="M 582.982146 201.607261 
L 582.982146 174.749299 
" style="fill:none;stroke:#0000ff;stroke-width:1.5;"/>
    <path clip-path="url(#p7bc37ce265)" d="M 591.311415 190.532282 
L 591.311415 163.147643 
" style="fill:none;stroke:#0000ff;stroke-width:1.5;"/>
    <path clip-path="url(#p7bc37ce265)" d="M 599.640683 209.6026 
L 599.640683 183.131531 
" style="fill:none;stroke:#0000ff;stroke-width:1.5;"/>
    <path clip-path="url(#p7bc37ce265)" d="M 607.969951 216.673011 
L 607.969951 190.548971 
" style="fill:none;stroke:#0000ff;stroke-width:1.5;"/>
    <path clip-path="url(#p7bc37ce265)" d="M 616.29922 224.355587 
L 616.29922 198.614057 
" style="fill:none;stroke:#0000ff;stroke-width:1.5;"/>
    <path clip-path="url(#p7bc37ce265)" d="M 624.628488 246.157915 
L 624.628488 221.535095 
" style="fill:none;stroke:#0000ff;stroke-width:1.5;"/>
    <path clip-path="url(#p7bc37ce265)" d="M 632.957756 247.999196 
L 632.957756 223.473253 
" style="fill:none;stroke:#0000ff;stroke-width:1.5;"/>
    <path clip-path="url(#p7bc37ce265)" d="M 641.287024 237.562795 
L 641.287024 212.492831 
" style="fill:none;stroke:#0000ff;stroke-width:1.5;"/>
    <path clip-path="url(#p7bc37ce265)" d="M 649.616293 241.24691 
L 649.616293 216.367595 
" style="fill:none;stroke:#0000ff;stroke-width:1.5;"/>
    <path clip-path="url(#p7bc37ce265)" d="M 657.945561 263.642089 
L 657.945561 239.955593 
" style="fill:none;stroke:#0000ff;stroke-width:1.5;"/>
    <path clip-path="url(#p7bc37ce265)" d="M 666.274829 274.368583 
L 666.274829 251.275828 
" style="fill:none;stroke:#0000ff;stroke-width:1.5;"/>
    <path clip-path="url(#p7bc37ce265)" d="M 674.604098 282.637985 
L 674.604098 260.013903 
" style="fill:none;stroke:#0000ff;stroke-width:1.5;"/>
    <path clip-path="url(#p7bc37ce265)" d="M 682.933366 295.185637 
L 682.933366 273.292419 
" style="fill:none;stroke:#0000ff;stroke-width:1.5;"/>
    <path clip-path="url(#p7bc37ce265)" d="M 691.262634 303.44191 
L 691.262634 282.043622 
" style="fill:none;stroke:#0000ff;stroke-width:1.5;"/>
    <path clip-path="url(#p7bc37ce265)" d="M 699.591902 314.746458 
L 699.591902 294.045617 
" style="fill:none;stroke:#0000ff;stroke-width:1.5;"/>
    <path clip-path="url(#p7bc37ce265)" d="M 707.921171 312.914082 
L 707.921171 292.098554 
" style="fill:none;stroke:#0000ff;stroke-width:1.5;"/>
    <path clip-path="url(#p7bc37ce265)" d="M 716.250439 316.883826 
L 716.250439 296.317595 
" style="fill:none;stroke:#0000ff;stroke-width:1.5;"/>
    <path clip-path="url(#p7bc37ce265)" d="M 724.579707 323.293234 
L 724.579707 303.136224 
" style="fill:none;stroke:#0000ff;stroke-width:1.5;"/>
    <path clip-path="url(#p7bc37ce265)" d="M 732.908976 340.058963 
L 732.908976 321.015355 
" style="fill:none;stroke:#0000ff;stroke-width:1.5;"/>
    <path clip-path="url(#p7bc37ce265)" d="M 741.238244 332.137292 
L 741.238244 312.559456 
" style="fill:none;stroke:#0000ff;stroke-width:1.5;"/>
    <path clip-path="url(#p7bc37ce265)" d="M 749.567512 352.838912 
L 749.567512 334.691481 
" style="fill:none;stroke:#0000ff;stroke-width:1.5;"/>
    <path clip-path="url(#p7bc37ce265)" d="M 757.89678 351.01455 
L 757.89678 332.736403 
" style="fill:none;stroke:#0000ff;stroke-width:1.5;"/>
    <path clip-path="url(#p7bc37ce265)" d="M 766.226049 369.538709 
L 766.226049 352.636543 
" style="fill:none;stroke:#0000ff;stroke-width:1.5;"/>
    <path clip-path="url(#p7bc37ce265)" d="M 774.555317 383.770558 
L 774.555317 368.010302 
" style="fill:none;stroke:#0000ff;stroke-width:1.5;"/>
    <path clip-path="url(#p7bc37ce265)" d="M 782.884585 391.624959 
L 782.884585 376.533471 
" style="fill:none;stroke:#0000ff;stroke-width:1.5;"/>
    <path clip-path="url(#p7bc37ce265)" d="M 791.213854 384.677563 
L 791.213854 368.993017 
" style="fill:none;stroke:#0000ff;stroke-width:1.5;"/>
    <path clip-path="url(#p7bc37ce265)" d="M 799.543122 401.872325 
L 799.543122 387.702928 
" style="fill:none;stroke:#0000ff;stroke-width:1.5;"/>
    <path clip-path="url(#p7bc37ce265)" d="M 807.87239 403.075909 
L 807.87239 389.018969 
" style="fill:none;stroke:#0000ff;stroke-width:1.5;"/>
    <path clip-path="url(#p7bc37ce265)" d="M 816.201659 413.586608 
L 816.201659 400.555 
" style="fill:none;stroke:#0000ff;stroke-width:1.5;"/>
    <path clip-path="url(#p7bc37ce265)" d="M 824.530927 412.087521 
L 824.530927 398.904554 
" style="fill:none;stroke:#0000ff;stroke-width:1.5;"/>
    <path clip-path="url(#p7bc37ce265)" d="M 832.860195 415.084805 
L 832.860195 402.206335 
" style="fill:none;stroke:#0000ff;stroke-width:1.5;"/>
    <path clip-path="url(#p7bc37ce265)" d="M 841.189463 423.158234 
L 841.189463 411.140383 
" style="fill:none;stroke:#0000ff;stroke-width:1.5;"/>
    <path clip-path="url(#p7bc37ce265)" d="M 849.518732 424.948075 
L 849.518732 413.129981 
" style="fill:none;stroke:#0000ff;stroke-width:1.5;"/>
    <path clip-path="url(#p7bc37ce265)" d="M 857.848 424.351648 
L 857.848 412.466595 
" style="fill:none;stroke:#0000ff;stroke-width:1.5;"/>
   </g>
   <g id="line2d_23">
    <path clip-path="url(#p7bc37ce265)" d="M 174.848 473.588741 
L 189.205357 473.04015 
L 200.82798 472.386919 
L 211.083235 471.599851 
L 220.654807 470.636401 
L 228.859011 469.593434 
L 236.379532 468.426497 
L 243.216368 467.161708 
L 250.053205 465.674305 
L 256.206358 464.120793 
L 262.359512 462.339868 
L 268.512665 460.307313 
L 273.982134 458.269015 
L 279.451604 455.993856 
L 284.921073 453.463414 
L 290.390543 450.659206 
L 295.176328 447.966543 
L 299.962114 445.038241 
L 304.7479 441.862688 
L 309.533686 438.42883 
L 314.319471 434.726338 
L 319.105257 430.745785 
L 323.891043 426.478833 
L 328.676829 421.918422 
L 333.462615 417.058965 
L 338.2484 411.89654 
L 343.034186 406.429085 
L 347.819972 400.656582 
L 353.289441 393.688849 
L 358.758911 386.332789 
L 364.22838 378.599912 
L 369.69785 370.506352 
L 375.851003 360.996256 
L 382.004156 351.093695 
L 388.840993 339.686082 
L 397.045197 325.536644 
L 407.300452 307.364543 
L 430.545698 265.987403 
L 438.066218 253.145941 
L 444.219371 243.048449 
L 449.688841 234.466305 
L 454.474627 227.315775 
L 459.260412 220.546214 
L 463.362515 215.079193 
L 467.464617 209.948952 
L 471.566719 205.179925 
L 475.668821 200.795133 
L 479.087239 197.450157 
L 482.505658 194.398379 
L 485.924076 191.650341 
L 489.342494 189.215604 
L 492.760913 187.102692 
L 495.495648 185.649111 
L 498.230382 184.409569 
L 500.965117 183.386877 
L 503.699852 182.583365 
L 506.434587 182.000863 
L 509.169321 181.640703 
L 511.904056 181.503708 
L 514.638791 181.590192 
L 517.373526 181.899956 
L 520.10826 182.432292 
L 522.842995 183.185984 
L 525.57773 184.159312 
L 528.312464 185.350061 
L 531.047199 186.755526 
L 533.781934 188.372525 
L 537.200352 190.685641 
L 540.618771 193.315429 
L 544.037189 196.252718 
L 547.455608 199.487332 
L 550.874026 203.008151 
L 554.976128 207.593972 
L 559.07823 212.552337 
L 563.180332 217.859475 
L 567.966118 224.45841 
L 572.751904 231.456136 
L 578.221373 239.88616 
L 584.374527 249.841824 
L 591.211363 261.376446 
L 599.415568 275.693999 
L 612.405558 298.904881 
L 626.762915 324.453825 
L 635.650803 339.797103 
L 643.171323 352.318856 
L 650.00816 363.247331 
L 656.161313 372.66038 
L 661.630783 380.661279 
L 667.100252 388.296811 
L 672.569722 395.552072 
L 678.039191 402.416724 
L 683.508661 408.884728 
L 688.294446 414.217157 
L 693.080232 419.245225 
L 697.866018 423.971843 
L 702.651804 428.401691 
L 707.43759 432.541032 
L 712.223375 436.397516 
L 717.009161 439.979985 
L 721.794947 443.298288 
L 726.580733 446.363094 
L 731.366519 449.185726 
L 736.152304 451.777989 
L 741.621774 454.474072 
L 747.091243 456.903534 
L 752.560713 459.08486 
L 758.030182 461.036394 
L 764.183335 462.979599 
L 770.336488 464.679623 
L 776.489642 466.160304 
L 783.326478 467.575716 
L 790.846999 468.886721 
L 798.36752 469.974476 
L 806.571724 470.944236 
L 816.143295 471.837548 
L 826.398551 472.565043 
L 838.021173 473.166775 
L 851.694847 473.650897 
L 857.848 473.809537 
L 857.848 473.809537 
" style="fill:none;stroke:#404040;stroke-linecap:square;stroke-width:1.5;"/>
   </g>
   <g id="line2d_24">
    <path clip-path="url(#p7bc37ce265)" d="M 174.848 424.227925 
L 182.368521 421.024273 
L 189.889041 417.582026 
L 197.409562 413.89304 
L 204.930082 409.950015 
L 212.450603 405.746633 
L 219.971123 401.277708 
L 227.491644 396.539335 
L 235.012164 391.529034 
L 242.532685 386.245894 
L 250.053205 380.690719 
L 257.573726 374.866151 
L 265.094246 368.776801 
L 273.29845 361.839806 
L 281.502655 354.607334 
L 290.390543 346.456009 
L 299.27843 337.998611 
L 308.850002 328.580392 
L 319.105257 318.17791 
L 330.72788 306.070979 
L 345.768921 290.056169 
L 382.68784 250.583896 
L 393.626779 239.297737 
L 403.19835 229.742241 
L 411.402555 221.852802 
L 418.923075 214.909889 
L 426.443596 208.282404 
L 433.280432 202.562147 
L 439.433586 197.684982 
L 445.586739 193.084106 
L 451.739892 188.777466 
L 457.209361 185.210126 
L 462.678831 181.899966 
L 468.1483 178.857515 
L 473.61777 176.092531 
L 478.403556 173.907819 
L 483.189341 171.947828 
L 487.975127 170.21746 
L 492.760913 168.721059 
L 497.546699 167.462398 
L 502.332484 166.444661 
L 507.11827 165.67043 
L 511.904056 165.14167 
L 516.689842 164.859729 
L 521.475628 164.825324 
L 526.261413 165.038544 
L 531.047199 165.498844 
L 535.832985 166.205053 
L 540.618771 167.155375 
L 545.404557 168.3474 
L 550.190342 169.778109 
L 554.976128 171.443892 
L 559.761914 173.340561 
L 564.5477 175.463366 
L 569.333485 177.807019 
L 574.802955 180.748432 
L 580.272424 183.961238 
L 585.741894 187.435187 
L 591.211363 191.159289 
L 597.364517 195.63336 
L 603.51767 200.391694 
L 609.670823 205.415867 
L 616.50766 211.286708 
L 624.02818 218.063794 
L 631.548701 225.139049 
L 639.752905 233.15281 
L 649.324476 242.826662 
L 660.263415 254.212986 
L 674.620773 269.503952 
L 711.539692 308.9851 
L 723.162314 321.019046 
L 733.41757 331.339471 
L 742.989141 340.668162 
L 751.877029 349.03285 
L 760.764917 357.083727 
L 768.969121 364.217842 
L 777.173325 371.052194 
L 784.693846 377.044593 
L 792.214366 382.770274 
L 799.734887 388.225365 
L 807.255407 393.407917 
L 814.775928 398.317774 
L 822.296448 402.956442 
L 829.816969 407.326944 
L 837.337489 411.433673 
L 844.85801 415.282252 
L 852.378531 418.879375 
L 857.848 421.34185 
L 857.848 421.34185 
" style="fill:none;stroke:#ff0000;stroke-linecap:square;stroke-width:1.5;"/>
   </g>
   <g id="line2d_25">
    <g clip-path="url(#p7bc37ce265)">
     <use style="fill:#0000ff;stroke:#0000ff;" x="174.848" xlink:href="#me9b0785567" y="425.968"/>
     <use style="fill:#0000ff;stroke:#0000ff;" x="183.177268" xlink:href="#me9b0785567" y="419.039028"/>
     <use style="fill:#0000ff;stroke:#0000ff;" x="191.506537" xlink:href="#me9b0785567" y="410.53529"/>
     <use style="fill:#0000ff;stroke:#0000ff;" x="199.835805" xlink:href="#me9b0785567" y="415.889495"/>
     <use style="fill:#0000ff;stroke:#0000ff;" x="208.165073" xlink:href="#me9b0785567" y="399.826879"/>
     <use style="fill:#0000ff;stroke:#0000ff;" x="216.494341" xlink:href="#me9b0785567" y="404.551178"/>
     <use style="fill:#0000ff;stroke:#0000ff;" x="224.82361" xlink:href="#me9b0785567" y="399.511925"/>
     <use style="fill:#0000ff;stroke:#0000ff;" x="233.152878" xlink:href="#me9b0785567" y="389.118467"/>
     <use style="fill:#0000ff;stroke:#0000ff;" x="241.482146" xlink:href="#me9b0785567" y="386.598841"/>
     <use style="fill:#0000ff;stroke:#0000ff;" x="249.811415" xlink:href="#me9b0785567" y="383.449308"/>
     <use style="fill:#0000ff;stroke:#0000ff;" x="258.140683" xlink:href="#me9b0785567" y="378.095103"/>
     <use style="fill:#0000ff;stroke:#0000ff;" x="266.469951" xlink:href="#me9b0785567" y="355.103514"/>
     <use style="fill:#0000ff;stroke:#0000ff;" x="274.79922" xlink:href="#me9b0785567" y="356.048374"/>
     <use style="fill:#0000ff;stroke:#0000ff;" x="283.128488" xlink:href="#me9b0785567" y="346.914729"/>
     <use style="fill:#0000ff;stroke:#0000ff;" x="291.457756" xlink:href="#me9b0785567" y="339.985757"/>
     <use style="fill:#0000ff;stroke:#0000ff;" x="299.787024" xlink:href="#me9b0785567" y="342.820336"/>
     <use style="fill:#0000ff;stroke:#0000ff;" x="308.116293" xlink:href="#me9b0785567" y="339.670804"/>
     <use style="fill:#0000ff;stroke:#0000ff;" x="316.445561" xlink:href="#me9b0785567" y="313.529682"/>
     <use style="fill:#0000ff;stroke:#0000ff;" x="324.774829" xlink:href="#me9b0785567" y="319.198841"/>
     <use style="fill:#0000ff;stroke:#0000ff;" x="333.104098" xlink:href="#me9b0785567" y="298.096972"/>
     <use style="fill:#0000ff;stroke:#0000ff;" x="341.433366" xlink:href="#me9b0785567" y="299.356785"/>
     <use style="fill:#0000ff;stroke:#0000ff;" x="349.762634" xlink:href="#me9b0785567" y="299.356785"/>
     <use style="fill:#0000ff;stroke:#0000ff;" x="358.091902" xlink:href="#me9b0785567" y="274.79043"/>
     <use style="fill:#0000ff;stroke:#0000ff;" x="366.421171" xlink:href="#me9b0785567" y="278.884822"/>
     <use style="fill:#0000ff;stroke:#0000ff;" x="374.750439" xlink:href="#me9b0785567" y="258.727813"/>
     <use style="fill:#0000ff;stroke:#0000ff;" x="383.079707" xlink:href="#me9b0785567" y="252.428748"/>
     <use style="fill:#0000ff;stroke:#0000ff;" x="391.408976" xlink:href="#me9b0785567" y="231.956785"/>
     <use style="fill:#0000ff;stroke:#0000ff;" x="399.738244" xlink:href="#me9b0785567" y="229.752112"/>
     <use style="fill:#0000ff;stroke:#0000ff;" x="408.067512" xlink:href="#me9b0785567" y="236.051178"/>
     <use style="fill:#0000ff;stroke:#0000ff;" x="416.39678" xlink:href="#me9b0785567" y="214.634355"/>
     <use style="fill:#0000ff;stroke:#0000ff;" x="424.726049" xlink:href="#me9b0785567" y="215.579215"/>
     <use style="fill:#0000ff;stroke:#0000ff;" x="433.055317" xlink:href="#me9b0785567" y="212.114729"/>
     <use style="fill:#0000ff;stroke:#0000ff;" x="441.384585" xlink:href="#me9b0785567" y="181.249308"/>
     <use style="fill:#0000ff;stroke:#0000ff;" x="449.713854" xlink:href="#me9b0785567" y="173.060523"/>
     <use style="fill:#0000ff;stroke:#0000ff;" x="458.043122" xlink:href="#me9b0785567" y="180.934355"/>
     <use style="fill:#0000ff;stroke:#0000ff;" x="466.37239" xlink:href="#me9b0785567" y="191.642766"/>
     <use style="fill:#0000ff;stroke:#0000ff;" x="474.701659" xlink:href="#me9b0785567" y="191.95772"/>
     <use style="fill:#0000ff;stroke:#0000ff;" x="483.030927" xlink:href="#me9b0785567" y="168.336224"/>
     <use style="fill:#0000ff;stroke:#0000ff;" x="491.360195" xlink:href="#me9b0785567" y="175.895103"/>
     <use style="fill:#0000ff;stroke:#0000ff;" x="499.689463" xlink:href="#me9b0785567" y="165.816598"/>
     <use style="fill:#0000ff;stroke:#0000ff;" x="508.018732" xlink:href="#me9b0785567" y="164.241832"/>
     <use style="fill:#0000ff;stroke:#0000ff;" x="516.348" xlink:href="#me9b0785567" y="176.525009"/>
     <use style="fill:#0000ff;stroke:#0000ff;" x="524.677268" xlink:href="#me9b0785567" y="156.368"/>
     <use style="fill:#0000ff;stroke:#0000ff;" x="533.006537" xlink:href="#me9b0785567" y="168.966131"/>
     <use style="fill:#0000ff;stroke:#0000ff;" x="541.335805" xlink:href="#me9b0785567" y="160.777346"/>
     <use style="fill:#0000ff;stroke:#0000ff;" x="549.665073" xlink:href="#me9b0785567" y="156.682953"/>
     <use style="fill:#0000ff;stroke:#0000ff;" x="557.994341" xlink:href="#me9b0785567" y="166.761458"/>
     <use style="fill:#0000ff;stroke:#0000ff;" x="566.32361" xlink:href="#me9b0785567" y="166.446505"/>
     <use style="fill:#0000ff;stroke:#0000ff;" x="574.652878" xlink:href="#me9b0785567" y="187.548374"/>
     <use style="fill:#0000ff;stroke:#0000ff;" x="582.982146" xlink:href="#me9b0785567" y="188.17828"/>
     <use style="fill:#0000ff;stroke:#0000ff;" x="591.311415" xlink:href="#me9b0785567" y="176.839963"/>
     <use style="fill:#0000ff;stroke:#0000ff;" x="599.640683" xlink:href="#me9b0785567" y="196.367065"/>
     <use style="fill:#0000ff;stroke:#0000ff;" x="607.969951" xlink:href="#me9b0785567" y="203.610991"/>
     <use style="fill:#0000ff;stroke:#0000ff;" x="616.29922" xlink:href="#me9b0785567" y="211.484822"/>
     <use style="fill:#0000ff;stroke:#0000ff;" x="624.628488" xlink:href="#me9b0785567" y="233.846505"/>
     <use style="fill:#0000ff;stroke:#0000ff;" x="632.957756" xlink:href="#me9b0785567" y="235.736224"/>
     <use style="fill:#0000ff;stroke:#0000ff;" x="641.287024" xlink:href="#me9b0785567" y="225.027813"/>
     <use style="fill:#0000ff;stroke:#0000ff;" x="649.616293" xlink:href="#me9b0785567" y="228.807252"/>
     <use style="fill:#0000ff;stroke:#0000ff;" x="657.945561" xlink:href="#me9b0785567" y="251.798841"/>
     <use style="fill:#0000ff;stroke:#0000ff;" x="666.274829" xlink:href="#me9b0785567" y="262.822206"/>
     <use style="fill:#0000ff;stroke:#0000ff;" x="674.604098" xlink:href="#me9b0785567" y="271.325944"/>
     <use style="fill:#0000ff;stroke:#0000ff;" x="682.933366" xlink:href="#me9b0785567" y="284.239028"/>
     <use style="fill:#0000ff;stroke:#0000ff;" x="691.262634" xlink:href="#me9b0785567" y="292.742766"/>
     <use style="fill:#0000ff;stroke:#0000ff;" x="699.591902" xlink:href="#me9b0785567" y="304.396037"/>
     <use style="fill:#0000ff;stroke:#0000ff;" x="707.921171" xlink:href="#me9b0785567" y="302.506318"/>
     <use style="fill:#0000ff;stroke:#0000ff;" x="716.250439" xlink:href="#me9b0785567" y="306.60071"/>
     <use style="fill:#0000ff;stroke:#0000ff;" x="724.579707" xlink:href="#me9b0785567" y="313.214729"/>
     <use style="fill:#0000ff;stroke:#0000ff;" x="732.908976" xlink:href="#me9b0785567" y="330.537159"/>
     <use style="fill:#0000ff;stroke:#0000ff;" x="741.238244" xlink:href="#me9b0785567" y="322.348374"/>
     <use style="fill:#0000ff;stroke:#0000ff;" x="749.567512" xlink:href="#me9b0785567" y="343.765196"/>
     <use style="fill:#0000ff;stroke:#0000ff;" x="757.89678" xlink:href="#me9b0785567" y="341.875477"/>
     <use style="fill:#0000ff;stroke:#0000ff;" x="766.226049" xlink:href="#me9b0785567" y="361.087626"/>
     <use style="fill:#0000ff;stroke:#0000ff;" x="774.555317" xlink:href="#me9b0785567" y="375.89043"/>
     <use style="fill:#0000ff;stroke:#0000ff;" x="782.884585" xlink:href="#me9b0785567" y="384.079215"/>
     <use style="fill:#0000ff;stroke:#0000ff;" x="791.213854" xlink:href="#me9b0785567" y="376.83529"/>
     <use style="fill:#0000ff;stroke:#0000ff;" x="799.543122" xlink:href="#me9b0785567" y="394.787626"/>
     <use style="fill:#0000ff;stroke:#0000ff;" x="807.87239" xlink:href="#me9b0785567" y="396.047439"/>
     <use style="fill:#0000ff;stroke:#0000ff;" x="816.201659" xlink:href="#me9b0785567" y="407.070804"/>
     <use style="fill:#0000ff;stroke:#0000ff;" x="824.530927" xlink:href="#me9b0785567" y="405.496037"/>
     <use style="fill:#0000ff;stroke:#0000ff;" x="832.860195" xlink:href="#me9b0785567" y="408.64557"/>
     <use style="fill:#0000ff;stroke:#0000ff;" x="841.189463" xlink:href="#me9b0785567" y="417.149308"/>
     <use style="fill:#0000ff;stroke:#0000ff;" x="849.518732" xlink:href="#me9b0785567" y="419.039028"/>
     <use style="fill:#0000ff;stroke:#0000ff;" x="857.848" xlink:href="#me9b0785567" y="418.409121"/>
    </g>
   </g>
   <g id="patch_8">
    <path d="M 147.528 436.752 
L 147.528 145.584 
" style="fill:none;stroke:#000000;stroke-linecap:square;stroke-linejoin:miter;stroke-width:0.8;"/>
   </g>
   <g id="patch_9">
    <path d="M 885.168 436.752 
L 885.168 145.584 
" style="fill:none;stroke:#000000;stroke-linecap:square;stroke-linejoin:miter;stroke-width:0.8;"/>
   </g>
   <g id="patch_10">
    <path d="M 147.528 436.752 
L 885.168 436.752 
" style="fill:none;stroke:#000000;stroke-linecap:square;stroke-linejoin:miter;stroke-width:0.8;"/>
   </g>
   <g id="patch_11">
    <path d="M 147.528 145.584 
L 885.168 145.584 
" style="fill:none;stroke:#000000;stroke-linecap:square;stroke-linejoin:miter;stroke-width:0.8;"/>
   </g>
  </g>
 </g>
 <defs>
  <clipPath id="pf2715bf5aa">
   <rect height="72.792" width="737.64" x="147.528" y="63.0864"/>
  </clipPath>
  <clipPath id="p7bc37ce265">
   <rect height="291.168" width="737.64" x="147.528" y="145.584"/>
  </clipPath>
 </defs>
</svg>
